<svg width="24" height="24" viewBox="0 0 24 24" fill="none" xmlns="http://www.w3.org/2000/svg">
<circle cx="12" cy="12" r="12" fill="#F1F1F1"/>
<path d="M11.3678 7.26514H7.19284C6.87648 7.26514 6.57308 7.3908 6.34938 7.61449C6.12567 7.83818 6 8.14156 6 8.45791V16.8073C6 17.1236 6.12567 17.427 6.34938 17.6507C6.57308 17.8744 6.87648 18.0001 7.19284 18.0001H15.5428C15.8591 18.0001 16.1625 17.8744 16.3862 17.6507C16.6099 17.427 16.7356 17.1236 16.7356 16.8073V12.6326" stroke="#111111" stroke-linecap="round" stroke-linejoin="round"/>
<path d="M15.8401 6.37055C16.0773 6.13329 16.3991 6 16.7347 6C17.0703 6 17.3921 6.13329 17.6293 6.37055C17.8666 6.6078 17.9999 6.92959 17.9999 7.26512C17.9999 7.60066 17.8666 7.92245 17.6293 8.1597L11.9633 13.8254L9.57764 14.4217L10.1741 12.0362L15.8401 6.37055Z" stroke="#111111" stroke-linecap="round" stroke-linejoin="round"/>
</svg>
