<svg xmlns="http://www.w3.org/2000/svg" width="256" height="256" viewBox="0 0 256 256">
    <g fill="none" fill-rule="evenodd">
        <path fill="#7C7FFF" fill-rule="nonzero" d="M94.7 47.5l27.6 7.5 26-11.7 17.9 22.3 28.1 5.8 1.3 28.6 19.3 21.2-15.7 23.9 3.1 28.4-26.8 10.2-14.2 24.8-27.6-7.5-26 11.7-17.9-22.3-28.1-5.8-1.3-28.6-19.3-21.2 15.7-23.9-3.1-28.4 26.8-10.2z"/>
        <path fill="#424242" fill-rule="nonzero" d="M103.4 177.7l25.5 25.5 4.8-2.2 27.6 7.5 14.2-24.8 26.8-10.2-3.1-28.4 8.4-12.9-49.7-49.7-31.5 73.8z" opacity=".15"/>
        <path fill="#FFE068" fill-rule="nonzero" d="M140.1 129.6v-6.5c7.8 0 13.9-2.2 18.2-6.6 4.7-4.9 6.1-11.3 6.6-15.1H153v-6.5h18.5l.1 3.1c0 .6.4 13.7-8.6 22.9-5.6 5.8-13.2 8.7-22.9 8.7zm-26.1 0v-6.5c-7.8 0-13.9-2.2-18.2-6.6-4.7-4.9-6.1-11.3-6.6-15.1h11.9v-6.5H82.7l-.1 3.1c0 .6-.4 13.7 8.6 22.9 5.4 5.8 13.1 8.7 22.8 8.7zm5.3 0h14.3v26.8h-14.3v-26.8zm38-37.1v-9.4H96.6v9.4s-1.9 50.4 30.3 50.4c32.3 0 30.4-50.4 30.4-50.4z"/>
        <path fill="#F2B31B" fill-rule="nonzero" d="M126.9 92.5H96.6s-1.9 50.4 30.3 50.4V92.5z"/>
        <path fill="#FBCB42" fill-rule="nonzero" d="M126.9 92.5h30.3s1.9 50.4-30.3 50.4V92.5z"/>
        <path fill="#FFE068" fill-rule="nonzero" d="M96.6 83.2h60.7v9.4H96.6z"/>
        <path fill="#F2B31B" fill-rule="nonzero" d="M150.5 177.7c0-13-10.6-23.6-23.6-23.6-13 0-23.6 10.6-23.6 23.6h47.2z"/>
        <path d="M103.4 177.7l54.5-95.2 49.7 49.7 7.3-11-19.3-21.2-1.3-28.6-28.1-5.8-17.9-22.3-26 11.7-27.6-7.5-14.2 24.8-26.8 10.2 3.1 28.4-15.7 23.9L60.4 156l1.3 28.6 28.1 5.8 17.9 22.3 21.2-9.5-25.5-25.5zM0 0h256v256H0V0z"/>
    </g>
</svg>
