<svg height="40" viewBox="0 0 40 40" width="40" xmlns="http://www.w3.org/2000/svg"><g fill="none" fill-rule="evenodd"><rect height="38" rx="8" stroke="#000" stroke-width="2" width="38" x="1" y="1"/><g fill="#000"><path d="m5 6h6v4h-6z"/><path d="m17 6h6v4h-6z"/><path d="m29 6h6v4h-6z"/><path d="m5 12h6v4h-6z"/><path d="m17 12h6v4h-6z"/><path d="m29 12h6v4h-6z"/><path d="m5 18h6v4h-6z"/><path d="m17 18h6v4h-6z"/><path d="m29 18h6v4h-6z"/><path d="m5 24h6v4h-6z"/></g><path d="m14 1v38" stroke="#000" stroke-linecap="square" stroke-width="2"/><path d="m26 1v38" stroke="#000" stroke-linecap="square" stroke-width="2"/></g></svg>