<svg width="12" height="13" viewBox="0 0 12 13" fill="none" xmlns="http://www.w3.org/2000/svg">
<g opacity="0.2" clip-path="url(#clip0)">
<path fill-rule="evenodd" clip-rule="evenodd" d="M2.81821 3.31802C2.99783 3.1384 3.28905 3.1384 3.46867 3.31802L6.00019 5.84954L8.53171 3.31802C8.71133 3.1384 9.00255 3.1384 9.18217 3.31802C9.36179 3.49764 9.36179 3.78886 9.18217 3.96848L6.65065 6.5L9.18217 9.03152C9.36179 9.21114 9.36179 9.50236 9.18217 9.68198C9.00255 9.8616 8.71133 9.8616 8.53171 9.68198L6.00019 7.15046L3.46867 9.68198C3.28905 9.8616 2.99783 9.8616 2.81821 9.68198C2.63859 9.50236 2.63859 9.21114 2.81821 9.03152L5.34973 6.5L2.81821 3.96848C2.63859 3.78886 2.63859 3.49764 2.81821 3.31802Z" fill="#111111"/>
</g>
<defs>
<clipPath id="clip0">
<rect width="12" height="12" fill="white" transform="translate(0 0.5)"/>
</clipPath>
</defs>
</svg>
