<svg width="16" height="17" viewBox="0 0 16 17" fill="none" xmlns="http://www.w3.org/2000/svg">
<path fill-rule="evenodd" clip-rule="evenodd" d="M8 2.5C8.33869 2.5 8.61326 2.77457 8.61326 3.11326V7.88674H13.3867C13.7254 7.88674 14 8.16131 14 8.5C14 8.83869 13.7254 9.11326 13.3867 9.11326H8.61326V13.8867C8.61326 14.2254 8.33869 14.5 8 14.5C7.66131 14.5 7.38674 14.2254 7.38674 13.8867V9.11326H2.61326C2.27457 9.11326 2 8.83869 2 8.5C2 8.16131 2.27457 7.88674 2.61326 7.88674H7.38674V3.11326C7.38674 2.77457 7.66131 2.5 8 2.5Z" fill="#6E71FF"/>
</svg>
