<svg width="80" height="80" viewBox="0 0 80 80" fill="none" xmlns="http://www.w3.org/2000/svg">
<path opacity="0.18" d="M79.7526 61.839C79.5395 64.2269 79.1607 66.6908 78.0125 68.5899C76.9846 70.3068 75.4478 71.3754 73.9207 72.3073C63.9222 78.3619 52.6137 79.904 41.5655 79.9952C33.0545 80.0711 24.3305 79.2912 16.5376 74.8978C9.01107 70.6562 2.43349 62.4898 0.578984 52.2646C0.511906 51.905 0.454693 51.5429 0.399452 51.1757C-0.0819305 47.8661 -0.0641745 44.4425 0.119303 41.0695C0.472448 34.5819 1.53386 27.8436 4.76346 22.8222C7.61427 18.3831 11.7928 15.8078 15.5926 12.7413C18.8735 10.0926 21.9393 6.99309 25.3741 4.69128C29.9117 1.65259 34.984 0.163629 40.0819 0.00916238C48.9046 -0.244062 56.3108 4.82043 64.7626 6.66643C73.6149 8.59347 73.8379 16.922 74.6941 26.8408C75.1203 31.7382 76.886 36.2506 78.0875 40.9328C79.8115 47.6656 80.3796 54.7977 79.7526 61.839Z" fill="#6E71FF"/>
<path opacity="0.37" d="M80 57.8689C80 60.4998 79.647 66.0035 78.5 68.0832C77 71.1784 75.1667 71.6427 73.6667 72.726C62.6667 79.0713 51.986 79.8945 40.94 79.9942C32.4383 80.0801 23.7257 79.2244 15.9413 74.4199C4.67119 67.4641 1.85249 60.8566 0 49.6665H79.5C79.6667 51.8332 80 54.6189 80 57.8689Z" fill="#6E71FF"/>
<path d="M12.4877 58.5259C11.8982 59.1666 11.3086 59.8524 11.3086 60.605C11.2969 61.9806 13.2089 62.9946 15.0974 63.5016C17.597 64.1717 20.3226 64.3329 23.007 64.4645C33.4221 64.9813 43.8804 65.1857 54.3289 65.3901C58.5991 65.4746 62.9203 65.5532 67.0883 64.9283C68.6408 64.6944 70.3367 64.266 70.9793 63.2854C71.781 62.0592 70.5469 60.5343 71.3841 59.3218C71.8262 58.6812 72.7931 58.2233 73.0505 57.5375C73.3551 56.72 72.4806 55.8691 71.3625 55.4918C70.2443 55.1145 68.9414 55.0988 67.6897 55.0811C58.6253 54.9933 49.5595 54.9278 40.4925 54.8846L22.2799 54.7785C20.3934 54.7686 16.2647 54.1889 14.6533 54.9573C13.3347 55.5783 13.3858 57.5434 12.4877 58.5259Z" fill="url(#paint0_linear)"/>
<path d="M15.7065 53.7383H24.5653V61.3727C24.5653 61.6398 24.5127 61.9043 24.4104 62.1511C24.3082 62.3979 24.1584 62.6221 23.9696 62.8109C23.7807 62.9998 23.5565 63.1496 23.3097 63.2518C23.063 63.354 22.7985 63.4066 22.5314 63.4066H17.7404C17.4733 63.4066 17.2089 63.354 16.9621 63.2518C16.7153 63.1496 16.4911 62.9998 16.3023 62.8109C16.1134 62.6221 15.9636 62.3979 15.8614 62.1511C15.7592 61.9043 15.7065 61.6398 15.7065 61.3727V53.7383Z" fill="#090909"/>
<path d="M59.0435 53.7383H67.9042V61.3727C67.9042 61.6398 67.8516 61.9043 67.7493 62.1511C67.6471 62.3979 67.4973 62.6221 67.3084 62.8109C67.1196 62.9998 66.8954 63.1496 66.6486 63.2518C66.4018 63.354 66.1374 63.4066 65.8703 63.4066H61.0773C60.8103 63.4066 60.5458 63.354 60.299 63.2518C60.0522 63.1496 59.828 62.9998 59.6392 62.8109C59.4503 62.6221 59.3005 62.3979 59.1983 62.1511C59.0961 61.9043 59.0435 61.6398 59.0435 61.3727V53.7383Z" fill="#090909"/>
<path d="M16.9366 36.2726H21.1399V32.7354H16.9366C16.4675 32.7354 16.0177 32.9217 15.686 33.2534C15.3543 33.585 15.168 34.0349 15.168 34.504C15.168 34.973 15.3543 35.4229 15.686 35.7545C16.0177 36.0862 16.4675 36.2726 16.9366 36.2726Z" fill="#6E71FF"/>
<path d="M16.9366 36.2726H21.1399V32.7354H16.9366C16.4675 32.7354 16.0177 32.9217 15.686 33.2534C15.3543 33.585 15.168 34.0349 15.168 34.504C15.168 34.973 15.3543 35.4229 15.686 35.7545C16.0177 36.0862 16.4675 36.2726 16.9366 36.2726Z" fill="url(#paint1_linear)"/>
<path d="M66.5159 36.2726H62.3125V32.7354H66.5159C66.9849 32.7354 67.4348 32.9217 67.7665 33.2534C68.0981 33.585 68.2845 34.0349 68.2845 34.504C68.2845 34.973 68.0981 35.4229 67.7665 35.7545C67.4348 36.0862 66.9849 36.2726 66.5159 36.2726Z" fill="#6E71FF"/>
<path d="M66.5159 36.2726H62.3125V32.7354H66.5159C66.9849 32.7354 67.4348 32.9217 67.7665 33.2534C68.0981 33.585 68.2845 34.0349 68.2845 34.504C68.2845 34.973 68.0981 35.4229 67.7665 35.7545C67.4348 36.0862 66.9849 36.2726 66.5159 36.2726Z" fill="url(#paint2_linear)"/>
<path d="M17.0899 39.8574C16.1793 42.2239 15.7129 44.7381 15.7144 47.2737L27.2496 53.0453L55.1837 53.1003L67.9117 47.2737C67.9122 44.7382 67.4459 42.2242 66.5361 39.8574H17.0899Z" fill="#6E71FF"/>
<path d="M17.0899 39.8574C16.1793 42.2239 15.7129 44.7381 15.7144 47.2737L27.2496 53.0453L55.1837 53.1003L67.9117 47.2737C67.9122 44.7382 67.4459 42.2242 66.5361 39.8574H17.0899Z" fill="url(#paint3_linear)"/>
<path d="M52.5133 23.0103H31.1663C29.2114 23.0101 27.305 23.6185 25.7116 24.751C24.1182 25.8835 22.9168 27.4839 22.2741 29.3301L20.7178 33.7968H62.9677L61.4094 29.3301C60.7667 27.4831 59.5648 25.8821 57.9706 24.7495C56.3763 23.6169 54.4689 23.009 52.5133 23.0103Z" fill="#6E71FF"/>
<path d="M60.9257 33.7962H22.1226L23.6946 29.2195C24.1917 27.7808 25.1252 26.5331 26.3652 25.6503C27.6052 24.7675 29.0897 24.2937 30.6118 24.2949H52.7253C54.3212 24.2948 55.8734 24.817 57.1448 25.7818C58.4161 26.7466 59.3368 28.101 59.7663 29.6381L60.9257 33.7962Z" fill="url(#paint4_linear)"/>
<path d="M17.0903 39.8568C33.3169 41.9008 49.7344 41.9239 65.9666 39.9256L66.5208 39.8568C65.7228 37.7836 64.5946 35.8532 63.1801 34.1403L62.8912 33.7905H20.7179L20.4271 34.1403C19.0145 35.8538 17.8877 37.7842 17.0903 39.8568Z" fill="#6E71FF"/>
<path d="M17.0903 39.8568C33.3169 41.9008 49.7344 41.9239 65.9666 39.9256L66.5208 39.8568C65.7228 37.7836 64.5946 35.8532 63.1801 34.1403L62.8912 33.7905H20.7179L20.4271 34.1403C19.0145 35.8538 17.8877 37.7842 17.0903 39.8568Z" fill="url(#paint5_linear)"/>
<path d="M68.2556 51.2724L67.9038 47.2793H67.3418L62.1008 48.8003C58.2619 49.9162 54.2843 50.4825 50.2866 50.4824H32.7617C28.7639 50.4825 24.7863 49.9162 20.9474 48.8003L15.7065 47.2793L15.3547 51.2724C15.2705 52.2315 15.3867 53.1977 15.696 54.1096C16.0052 55.0214 16.5008 55.8589 17.1511 56.5689C17.8014 57.279 18.5924 57.846 19.4736 58.2339C20.3548 58.6218 21.3071 58.8222 22.27 58.8223H61.3403C62.3032 58.8222 63.2555 58.6218 64.1367 58.2339C65.0179 57.846 65.8088 57.279 66.4592 56.5689C67.1095 55.8589 67.605 55.0214 67.9143 54.1096C68.2235 53.1977 68.3398 52.2315 68.2556 51.2724Z" fill="#6E71FF"/>
<path d="M68.2556 51.2724L67.9038 47.2793H67.3418L62.1008 48.8003C58.2619 49.9162 54.2843 50.4825 50.2866 50.4824H32.7617C28.7639 50.4825 24.7863 49.9162 20.9474 48.8003L15.7065 47.2793L15.3547 51.2724C15.2705 52.2315 15.3867 53.1977 15.696 54.1096C16.0052 55.0214 16.5008 55.8589 17.1511 56.5689C17.8014 57.279 18.5924 57.846 19.4736 58.2339C20.3548 58.6218 21.3071 58.8222 22.27 58.8223H61.3403C62.3032 58.8222 63.2555 58.6218 64.1367 58.2339C65.0179 57.846 65.8088 57.279 66.4592 56.5689C67.1095 55.8589 67.605 55.0214 67.9143 54.1096C68.2235 53.1977 68.3398 52.2315 68.2556 51.2724Z" fill="url(#paint6_linear)"/>
<path d="M41.8055 41.9907H31.3491L33.4341 47.9961H41.8055H50.1749L52.2618 41.9907H41.8055Z" fill="white"/>
<path d="M41.8057 42.4663H32.1157L34.0474 47.5206H41.8057H49.564L51.4957 42.4663H41.8057Z" fill="#6E71FF"/>
<path d="M41.8057 42.4663H32.1157L34.0474 47.5206H41.8057H49.564L51.4957 42.4663H41.8057Z" fill="url(#paint7_linear)"/>
<path d="M51.4171 43.0444H32.1157V43.6772H51.4171V43.0444Z" fill="white"/>
<path d="M50.8787 44.6777H32.7407V45.3105H50.8787V44.6777Z" fill="white"/>
<path d="M50.1907 46.3105H33.1826V46.9433H50.1907V46.3105Z" fill="white"/>
<path d="M57.0818 57.2539H26.5361C26.5361 55.3123 29.1772 53.7383 32.4315 53.7383H51.1767C54.4348 53.7383 57.072 55.3104 57.072 57.2539H57.0818Z" fill="#090909"/>
<path d="M53.2244 41.0791L60.9257 33.7964H22.1206L30.3151 41.0673C37.9449 41.5144 45.5942 41.5183 53.2244 41.0791Z" fill="#6E71FF"/>
<path d="M53.2244 41.0791L60.9257 33.7964H22.1206L30.3151 41.0673C37.9449 41.5144 45.5942 41.5183 53.2244 41.0791Z" fill="url(#paint8_linear)"/>
<path opacity="0.2" d="M19.9886 34.1465H16.5242C16.4079 34.1465 16.2965 34.1003 16.2143 34.0181C16.1321 33.9359 16.0859 33.8245 16.0859 33.7082C16.0859 33.592 16.1321 33.4806 16.2143 33.3984C16.2965 33.3162 16.4079 33.27 16.5242 33.27H19.9886C20.1049 33.27 20.2163 33.3162 20.2985 33.3984C20.3807 33.4806 20.4269 33.592 20.4269 33.7082C20.4269 33.8245 20.3807 33.9359 20.2985 34.0181C20.2163 34.1003 20.1049 34.1465 19.9886 34.1465Z" fill="white"/>
<path opacity="0.2" d="M67.0297 34.1465H63.5652C63.449 34.1465 63.3375 34.1003 63.2553 34.0181C63.1731 33.9359 63.127 33.8245 63.127 33.7082C63.127 33.592 63.1731 33.4806 63.2553 33.3984C63.3375 33.3162 63.449 33.27 63.5652 33.27H67.0297C67.0872 33.27 67.1442 33.2814 67.1974 33.3034C67.2505 33.3254 67.2988 33.3577 67.3395 33.3984C67.3802 33.4391 67.4125 33.4874 67.4345 33.5405C67.4566 33.5937 67.4679 33.6507 67.4679 33.7082C67.4679 33.7658 67.4566 33.8228 67.4345 33.8759C67.4125 33.9291 67.3802 33.9774 67.3395 34.0181C67.2988 34.0588 67.2505 34.0911 67.1974 34.1131C67.1442 34.1351 67.0872 34.1465 67.0297 34.1465Z" fill="white"/>
<path d="M29.8866 42.0365C29.8866 42.0365 19.7997 41.2799 18.7051 41.6985C17.6106 42.1171 16.9365 45.8252 16.9365 45.8252L32.0679 47.8434L29.8866 42.0365Z" fill="white"/>
<path d="M53.7487 42.0365C53.7487 42.0365 63.8375 41.2799 64.9301 41.6985C66.0228 42.1171 66.6987 45.8252 66.6987 45.8252L51.5674 47.8434L53.7487 42.0365Z" fill="white"/>
<path d="M32.033 32.1226C32.2236 32.2326 32.4398 32.2905 32.6599 32.2905C32.88 32.2905 33.0962 32.2326 33.2868 32.1226C33.3727 32.0757 33.4457 32.0082 33.499 31.9261C33.5592 31.7974 33.5791 31.6535 33.556 31.5134C33.5617 31.3697 33.5126 31.2291 33.4184 31.1204C33.3305 31.0513 33.2263 31.0059 33.1158 30.9887C32.7773 30.9095 32.4276 30.8889 32.0821 30.9278C31.9269 30.9332 31.777 30.9852 31.6518 31.0771C31.6124 31.1272 31.5849 31.1857 31.5717 31.248C31.5584 31.3104 31.5596 31.3749 31.5752 31.4367C31.5951 31.5781 31.6466 31.7131 31.7259 31.8319C31.8052 31.9506 31.9101 32.0499 32.033 32.1226Z" fill="url(#paint9_linear)"/>
<path d="M34.7677 28.302C34.7405 28.3569 34.7008 28.4047 34.6518 28.4415C34.5971 28.2483 34.5241 28.0607 34.4337 27.8814L33.9404 26.8164C34.0376 26.7654 34.1425 26.7309 34.2509 26.7142C34.3968 26.69 34.5463 26.7238 34.6675 26.8085C34.7499 26.8795 34.8082 26.9742 34.8346 27.0797C34.8772 27.2466 34.8976 27.4184 34.8955 27.5906C34.9238 27.8351 34.8793 28.0826 34.7677 28.302Z" fill="url(#paint10_linear)"/>
<path d="M34.5285 26.663C34.34 26.733 34.1641 26.8332 34.0078 26.9597C33.9842 26.9125 33.9626 26.8634 33.9409 26.8162C33.9409 26.8162 33.9409 26.8162 33.9409 26.83C33.9178 26.8519 33.8894 26.8675 33.8584 26.8752C33.6657 26.9389 33.4687 26.9888 33.2689 27.0245C33.0062 27.0564 32.7398 27.0404 32.4828 26.9774C32.2647 26.9224 32.0407 26.7592 31.8088 26.7671H31.7754C31.7754 26.7357 31.8009 26.7023 31.8127 26.6669C31.9247 26.3505 31.9994 26.0774 32.4141 25.9791C32.6582 25.9266 32.9125 25.9471 33.1451 26.038C33.3575 26.1435 33.5809 26.2253 33.8112 26.2817C33.9545 26.2855 34.0971 26.3012 34.2377 26.3289C34.3123 26.3522 34.379 26.3958 34.4304 26.4548C34.4817 26.5137 34.5157 26.5858 34.5285 26.663Z" fill="url(#paint11_linear)"/>
<path d="M30.6118 24.2949L38.6314 33.7687L46.9812 33.7117L39.8085 24.4639L30.6118 24.2949Z" fill="url(#paint12_linear)"/>
<defs>
<linearGradient id="paint0_linear" x1="109.187" y1="91.404" x2="9.026" y2="34.9892" gradientUnits="userSpaceOnUse">
<stop offset="0.079127"/>
<stop offset="0.83" stop-opacity="0.07"/>
<stop offset="1" stop-opacity="0"/>
</linearGradient>
<linearGradient id="paint1_linear" x1="17.9211" y1="28.7088" x2="18.5087" y2="41.0674" gradientUnits="userSpaceOnUse">
<stop offset="0.01"/>
<stop offset="0.83" stop-opacity="0.07"/>
<stop offset="1" stop-opacity="0"/>
</linearGradient>
<linearGradient id="paint2_linear" x1="65.0656" y1="28.7088" x2="65.6532" y2="41.0674" gradientUnits="userSpaceOnUse">
<stop offset="0.01"/>
<stop offset="0.83" stop-opacity="0.07"/>
<stop offset="1" stop-opacity="0"/>
</linearGradient>
<linearGradient id="paint3_linear" x1="41.6668" y1="24.0002" x2="40.5413" y2="58.565" gradientUnits="userSpaceOnUse">
<stop offset="0.01"/>
<stop offset="0.83" stop-opacity="0.07"/>
<stop offset="1" stop-opacity="0"/>
</linearGradient>
<linearGradient id="paint4_linear" x1="8608.48" y1="498.316" x2="8550.5" y2="3944.27" gradientUnits="userSpaceOnUse">
<stop offset="0.01"/>
<stop offset="0.83" stop-opacity="0.07"/>
<stop offset="1" stop-opacity="0"/>
</linearGradient>
<linearGradient id="paint5_linear" x1="45.3335" y1="0.999835" x2="39.3223" y2="30.4779" gradientUnits="userSpaceOnUse">
<stop stop-opacity="0"/>
<stop offset="0.01"/>
<stop offset="0.83" stop-opacity="0.07"/>
</linearGradient>
<linearGradient id="paint6_linear" x1="39.7403" y1="34.1395" x2="40.4473" y2="74.5484" gradientUnits="userSpaceOnUse">
<stop offset="0.01"/>
<stop offset="0.83" stop-opacity="0.07"/>
<stop offset="1" stop-opacity="0"/>
</linearGradient>
<linearGradient id="paint7_linear" x1="4139.12" y1="802.025" x2="4143.06" y2="1176.71" gradientUnits="userSpaceOnUse">
<stop offset="0.01"/>
<stop offset="0.83" stop-opacity="0.07"/>
<stop offset="1" stop-opacity="0"/>
</linearGradient>
<linearGradient id="paint8_linear" x1="45.1665" y1="8.49983" x2="38.9484" y2="50.7065" gradientUnits="userSpaceOnUse">
<stop offset="0.01"/>
<stop offset="0.83" stop-opacity="0.07"/>
<stop offset="1" stop-opacity="0"/>
</linearGradient>
<linearGradient id="paint9_linear" x1="371.245" y1="207.633" x2="370.222" y2="226.625" gradientUnits="userSpaceOnUse">
<stop offset="0.01"/>
<stop offset="0.83" stop-opacity="0.07"/>
<stop offset="1" stop-opacity="0"/>
</linearGradient>
<linearGradient id="paint10_linear" x1="214.731" y1="226.782" x2="201.222" y2="227.762" gradientUnits="userSpaceOnUse">
<stop offset="0.01"/>
<stop offset="0.83" stop-opacity="0.07"/>
<stop offset="1" stop-opacity="0"/>
</linearGradient>
<linearGradient id="paint11_linear" x1="502.558" y1="156.793" x2="503.181" y2="142.805" gradientUnits="userSpaceOnUse">
<stop offset="0.01"/>
<stop offset="0.83" stop-opacity="0.07"/>
<stop offset="1" stop-opacity="0"/>
</linearGradient>
<linearGradient id="paint12_linear" x1="39.616" y1="17.0928" x2="35.6779" y2="74.3915" gradientUnits="userSpaceOnUse">
<stop offset="0.02" stop-color="white" stop-opacity="0"/>
<stop offset="0.39" stop-color="white" stop-opacity="0.39"/>
<stop offset="1" stop-color="white"/>
</linearGradient>
</defs>
</svg>
