<svg width="16" height="16" viewBox="0 0 16 16" fill="none" xmlns="http://www.w3.org/2000/svg">
<path d="M7.20969 8.78732C7.14669 8.71732 7.05769 8.67166 6.95603 8.67133L4.08169 8.66734C3.89137 8.66701 3.73736 8.82099 3.73769 9.01134C3.73802 9.20166 3.96002 9.41566 4.05536 9.511L4.78235 10.238L2.66669 12.3333L3.66669 13.3333L5.75136 11.2073L6.47835 11.9343C6.63568 12.0917 6.79535 12.259 6.98568 12.2593C7.176 12.2597 7.33001 12.1057 7.32968 11.9153L7.32568 9.041C7.32535 8.93934 7.27969 8.85033 7.20969 8.78732ZM11.2614 5.72499L13.3334 3.66666L12.3334 2.66666L10.2757 4.73299L9.53635 3.98899C9.37633 3.82798 9.21402 3.65665 9.02067 3.65632C8.82702 3.65599 8.67068 3.81365 8.67068 4.00832L8.67467 6.95032C8.67467 7.05432 8.72134 7.14531 8.79268 7.20998C8.857 7.28165 8.94735 7.3283 9.05069 7.32865L11.974 7.33264C12.1674 7.33297 12.324 7.17531 12.324 6.98064C12.3237 6.78598 12.098 6.56665 12.001 6.46931L11.2614 5.72499Z" fill="#111111"/>
</svg>
