<svg width="64" height="64" viewBox="0 0 64 64" fill="none" xmlns="http://www.w3.org/2000/svg">
<path opacity="0.18" d="M15.0274 59.7366C12.6853 58.6839 10.8451 56.6051 9.20231 54.4354C6.8011 51.2647 4.71475 47.8052 2.98077 44.1191C0.688885 39.2572 -0.985695 33.4753 0.662119 28.284C1.33128 26.1787 2.50232 24.3308 3.72354 22.5682C5.61392 19.8438 7.72513 17.1743 10.4654 15.6086C12.4728 14.4575 14.7296 13.9577 16.7772 12.8975C20.824 10.8054 23.7666 6.71602 27.4671 3.92158C33.8359 -0.885388 42.6588 -1.39657 49.2149 3.0734C51.6908 4.76218 53.8003 7.06249 55.7008 9.52561C59.6371 14.6374 62.829 20.6958 63.7408 27.3941C64.6374 33.9902 63.187 40.9744 59.7157 46.3702C56.2445 51.766 50.7824 55.49 44.9272 56.3419C42.6688 56.6714 40.1779 56.6714 38.433 58.3299C37.6969 59.0304 37.1683 59.9675 36.5058 60.757C34.5586 63.0819 31.5825 63.9528 28.7519 63.9983C24.0912 64.074 19.2983 61.6582 15.0274 59.7366Z" fill="#6E71FF"/>
<path d="M57.6177 24.9764L55.5717 17.142L52.9903 24.9864L52.6206 24.9797L55.5901 16.1416L57.964 24.9797L57.6177 24.9764Z" fill="#6E71FF"/>
<path d="M55.4333 16.6372L55.2144 24.999L55.512 25.0068L55.731 16.645L55.4333 16.6372Z" fill="#6E71FF"/>
<path d="M47.068 25.0199L44.7694 17.142L42.1797 24.9396L41.897 24.8459L44.7878 16.1416L47.3541 24.9379L47.068 25.0199Z" fill="#6E71FF"/>
<path d="M44.8339 16.6753L44.583 25.04L44.8808 25.049L45.1317 16.6843L44.8339 16.6753Z" fill="#6E71FF"/>
<path d="M57.6177 24.9764L55.5717 17.142L52.9903 24.9864L52.6206 24.9797L55.5901 16.1416L57.964 24.9797L57.6177 24.9764Z" fill="url(#paint0_linear)"/>
<path d="M55.4333 16.6372L55.2144 24.999L55.512 25.0068L55.731 16.645L55.4333 16.6372Z" fill="url(#paint1_linear)"/>
<path d="M47.068 25.0199L44.7694 17.142L42.1797 24.9396L41.897 24.8459L44.7878 16.1416L47.3541 24.9379L47.068 25.0199Z" fill="url(#paint2_linear)"/>
<path d="M44.8339 16.6753L44.583 25.04L44.8808 25.049L45.1317 16.6843L44.8339 16.6753Z" fill="url(#paint3_linear)"/>
<path d="M47.2054 17.4296C46.6366 17.4296 46.1649 17.1904 45.6764 16.9428C45.5091 16.8608 45.3418 16.7755 45.1745 16.6969C44.3999 16.3472 44.0503 16.9729 44.0135 17.0449C43.9855 17.101 43.9364 17.1437 43.877 17.1636C43.8175 17.1836 43.7526 17.179 43.6965 17.1511C43.6403 17.1231 43.5976 17.074 43.5777 17.0146C43.5578 16.9551 43.5623 16.8902 43.5902 16.8341C43.7843 16.4476 44.4016 15.8303 45.3635 16.2686C45.5509 16.3523 45.7232 16.4359 45.8888 16.5246C46.6216 16.896 47.1502 17.1653 48.0369 16.7571C48.3297 16.6233 48.5589 16.5095 48.7596 16.4108C49.3736 16.1063 49.6814 15.9541 50.3506 15.9541C50.7441 15.9651 51.1263 16.0875 51.453 16.3071C51.7453 16.4993 52.0779 16.6218 52.425 16.6651C52.9905 16.7237 54.4125 16.7939 55.3694 16.1799C55.6462 16.0337 55.9694 16.0019 56.2694 16.0913C56.6681 16.1699 57.0201 16.4018 57.2498 16.737C57.2656 16.7635 57.276 16.7928 57.2805 16.8233C57.285 16.8539 57.2834 16.885 57.2759 16.9149C57.2684 16.9448 57.255 16.9729 57.2366 16.9976C57.2182 17.0224 57.1951 17.0433 57.1686 17.0591C57.1422 17.0749 57.1128 17.0853 57.0823 17.0898C57.0518 17.0943 57.0207 17.0927 56.9908 17.0852C56.9609 17.0777 56.9328 17.0643 56.908 17.0459C56.8833 17.0275 56.8624 17.0044 56.8466 16.9779C56.6807 16.7537 56.4364 16.6002 56.1624 16.548C55.9854 16.4922 55.7943 16.5017 55.6237 16.5748C54.5798 17.2439 53.141 17.2121 52.3765 17.1318C51.9646 17.0823 51.5693 16.9399 51.2205 16.7153C50.9641 16.5354 50.6618 16.4321 50.3489 16.4175C49.7885 16.4175 49.5643 16.5279 48.9671 16.824C48.7713 16.9194 48.5304 17.0398 48.231 17.177C47.9117 17.3351 47.5616 17.4213 47.2054 17.4296Z" fill="#6E71FF"/>
<path d="M47.2054 17.4296C46.6366 17.4296 46.1649 17.1904 45.6764 16.9428C45.5091 16.8608 45.3418 16.7755 45.1745 16.6969C44.3999 16.3472 44.0503 16.9729 44.0135 17.0449C43.9855 17.101 43.9364 17.1437 43.877 17.1636C43.8175 17.1836 43.7526 17.179 43.6965 17.1511C43.6403 17.1231 43.5976 17.074 43.5777 17.0146C43.5578 16.9551 43.5623 16.8902 43.5902 16.8341C43.7843 16.4476 44.4016 15.8303 45.3635 16.2686C45.5509 16.3523 45.7232 16.4359 45.8888 16.5246C46.6216 16.896 47.1502 17.1653 48.0369 16.7571C48.3297 16.6233 48.5589 16.5095 48.7596 16.4108C49.3736 16.1063 49.6814 15.9541 50.3506 15.9541C50.7441 15.9651 51.1263 16.0875 51.453 16.3071C51.7453 16.4993 52.0779 16.6218 52.425 16.6651C52.9905 16.7237 54.4125 16.7939 55.3694 16.1799C55.6462 16.0337 55.9694 16.0019 56.2694 16.0913C56.6681 16.1699 57.0201 16.4018 57.2498 16.737C57.2656 16.7635 57.276 16.7928 57.2805 16.8233C57.285 16.8539 57.2834 16.885 57.2759 16.9149C57.2684 16.9448 57.255 16.9729 57.2366 16.9976C57.2182 17.0224 57.1951 17.0433 57.1686 17.0591C57.1422 17.0749 57.1128 17.0853 57.0823 17.0898C57.0518 17.0943 57.0207 17.0927 56.9908 17.0852C56.9609 17.0777 56.9328 17.0643 56.908 17.0459C56.8833 17.0275 56.8624 17.0044 56.8466 16.9779C56.6807 16.7537 56.4364 16.6002 56.1624 16.548C55.9854 16.4922 55.7943 16.5017 55.6237 16.5748C54.5798 17.2439 53.141 17.2121 52.3765 17.1318C51.9646 17.0823 51.5693 16.9399 51.2205 16.7153C50.9641 16.5354 50.6618 16.4321 50.3489 16.4175C49.7885 16.4175 49.5643 16.5279 48.9671 16.824C48.7713 16.9194 48.5304 17.0398 48.231 17.177C47.9117 17.3351 47.5616 17.4213 47.2054 17.4296Z" fill="url(#paint4_linear)"/>
<path d="M35.287 29.1582C35.5234 29.2073 35.7406 29.3234 35.9127 29.4928C36.0484 29.6906 36.126 29.9224 36.1369 30.1619C37.2594 38.2305 37.9353 46.1184 35.1147 53.7604C35.0402 54.0178 34.9061 54.2539 34.7233 54.4497C34.5275 54.6059 34.2986 54.7152 34.0541 54.7692C31.4727 55.522 28.7341 55.4802 26.0457 55.42C24.8429 55.3916 23.6082 55.3564 22.4907 54.9081C22.1126 54.7558 21.7245 54.5283 21.5806 54.1469C21.5127 53.9067 21.4905 53.6558 21.5154 53.4074C21.5672 51.3832 20.8613 49.4242 20.5568 47.4217C20.259 45.4677 20.346 43.4769 20.4347 41.5028C20.5261 39.473 20.6204 37.4437 20.7174 35.415C20.791 33.8692 19.6936 32.4957 20.09 30.9783C20.4447 29.6199 26.1528 28.0039 28.4547 28.0407C30.7714 28.1117 33.0685 28.4874 35.287 29.1582Z" fill="white"/>
<path d="M20.8984 61.4851C23.0164 63.414 26.1214 63.9946 28.947 63.5295C31.7725 63.0644 34.3606 61.6441 36.6977 59.9895C35.8973 58.0648 35.3398 56.0479 35.0381 53.9854C35.0984 54.3969 27.6538 55.138 26.9478 55.1347C25.6864 55.1347 24.3681 54.6328 23.1435 54.6846C22.0728 54.7265 21.9725 55.7654 21.8052 56.6303C21.5007 58.2474 21.1985 59.8657 20.8984 61.4851Z" fill="#3F3D56"/>
<path d="M20.8984 61.4851C23.0164 63.414 26.1214 63.9946 28.947 63.5295C31.7725 63.0644 34.5962 62.0549 36.9333 60.4003C36.1329 58.4756 35.3398 56.0479 35.0381 53.9854C35.0984 54.3969 27.6538 55.138 26.9478 55.1347C25.6864 55.1347 24.3681 54.6328 23.1435 54.6846C22.0728 54.7265 21.9725 55.7654 21.8052 56.6303C21.5007 58.2474 21.1985 59.8657 20.8984 61.4851Z" fill="#3E3E54"/>
<path d="M20.8984 61.4851C23.0164 63.414 26.1214 63.9946 28.947 63.5295C31.7725 63.0644 34.5962 62.0549 36.9333 60.4003C36.1329 58.4756 35.3398 56.0479 35.0381 53.9854C35.0984 54.3969 27.6538 55.138 26.9478 55.1347C25.6864 55.1347 24.3681 54.6328 23.1435 54.6846C22.0728 54.7265 21.9725 55.7654 21.8052 56.6303C21.5007 58.2474 21.1985 59.8657 20.8984 61.4851Z" fill="url(#paint5_linear)"/>
<path d="M34.1482 57.1104C34.3339 57.0611 34.5027 56.9622 34.6367 56.8244C34.765 56.632 34.818 56.3992 34.7855 56.1702C34.7509 55.6149 34.5658 55.0794 34.2502 54.6211C31.6451 55.5499 28.8543 55.8368 26.1147 55.4576C25.2515 55.3371 22.5748 54.417 22.7688 56.0766C22.8893 57.1188 24.6693 57.2476 25.4823 57.4651C28.3416 58.2143 31.3597 58.0907 34.1482 57.1104Z" fill="#3F3D56"/>
<path d="M26.3591 27.743C26.2135 28.0927 26.0245 28.4657 26.1249 28.8338C26.1684 28.9814 26.2406 29.1189 26.3373 29.2386C26.5809 29.5601 26.9024 29.8142 27.2714 29.9771C27.6404 30.14 28.0448 30.2062 28.4465 30.1695C28.8482 30.1329 29.2339 29.9946 29.5674 29.7676C29.9008 29.5406 30.171 29.2325 30.3524 28.8722C29.9678 28.1999 29.8001 27.4252 29.8722 26.6539C29.904 26.3193 29.9709 25.9329 29.7551 25.6686C29.6425 25.5462 29.5002 25.4552 29.3419 25.4042C28.6727 25.1399 27.7192 25.0529 27.1102 25.518C26.5632 25.9413 26.6318 27.1006 26.3591 27.743Z" fill="url(#paint6_linear)"/>
<path d="M27.3474 27.5405C27.5375 27.7954 27.7836 28.0031 28.0668 28.1478C28.3545 28.28 30.168 28.5978 30.0626 28.2984C29.8652 27.7741 29.802 27.2088 29.8786 26.6539C30.0459 26.3644 30.2516 26.2206 30.3303 25.8927C30.3553 25.7916 30.3553 25.6859 30.3303 25.5849C30.2794 25.4324 30.1801 25.3008 30.0475 25.2101C29.6909 24.974 29.2783 24.8361 28.8514 24.8103C28.5067 24.7685 28.1605 24.7467 27.8142 24.725C27.5315 24.6838 27.243 24.7179 26.9777 24.8237C25.9087 25.3674 26.8606 26.9332 27.3474 27.5405Z" fill="url(#paint7_linear)" fill-opacity="0.3"/>
<path d="M26.0412 25.9685C26.4429 26.3894 26.9397 26.7078 27.49 26.8969C28.5105 27.2131 29.6648 26.8601 30.4762 26.1742C31.2876 25.4883 31.8145 24.5147 32.1792 23.5076C32.8317 21.6573 33.2666 19.2951 32.8367 17.3813C32.6878 16.7121 32.4636 16.0429 32.0303 15.5109C30.426 13.5435 26.2537 14.0672 24.5021 15.72C23.0249 17.1086 23.6071 19.6933 23.9183 21.4448C24.206 23.101 24.8233 24.7639 26.0412 25.9685Z" fill="url(#paint8_linear)"/>
<path d="M22.9475 19.8386C22.8757 19.8069 22.7973 19.7925 22.7189 19.7966C22.6404 19.8006 22.564 19.8231 22.4958 19.862C22.395 19.9629 22.3354 20.0977 22.3285 20.2401C22.27 20.4718 22.27 20.7144 22.3285 20.9461C22.392 21.1045 22.4826 21.2505 22.5962 21.3777L23.1249 22.0369C23.1861 22.1295 23.271 22.204 23.3708 22.2527C23.4577 22.2811 23.5506 22.2863 23.6401 22.2677C23.8894 22.2359 24.1755 22.1088 24.2073 21.8595C24.2112 21.7555 24.1912 21.6518 24.1487 21.5567C23.881 20.834 23.7606 20.1096 22.9475 19.8386Z" fill="url(#paint9_linear)"/>
<path d="M32.9989 19.3722C33.0624 19.1859 33.1801 19.0227 33.3368 18.9035C33.4936 18.7843 33.6823 18.7145 33.8789 18.7031C33.9359 18.697 33.9935 18.7056 34.0462 18.7282C34.111 18.7664 34.1611 18.8253 34.1884 18.8955C34.3202 19.2453 34.3487 19.6257 34.2703 19.9912C34.2417 20.2829 34.1559 20.566 34.0177 20.8244C33.9488 20.9512 33.8534 21.0617 33.7379 21.1483C33.6224 21.2349 33.4896 21.2956 33.3486 21.3262C33.2563 21.3449 33.1608 21.3393 33.0713 21.31C32.9819 21.2807 32.9016 21.2286 32.8383 21.1589C32.5606 20.8043 32.8835 19.7537 32.9989 19.3722Z" fill="url(#paint10_linear)"/>
<path d="M22.4912 19.3836C22.1666 18.7144 21.8069 17.9984 21.2432 17.5183C21.463 16.9648 21.7847 16.4575 22.1917 16.0227C23.1955 14.8617 24.395 13.8479 25.7986 13.2422C27.2022 12.6366 28.8099 12.4409 30.2837 12.8826C30.6422 12.9781 30.979 13.1417 31.2758 13.3644C31.4834 13.5383 31.6693 13.7366 31.8295 13.9549C32.6179 14.9684 33.2298 16.1074 33.6396 17.3242C33.7405 17.57 33.7851 17.8352 33.7701 18.1005C33.7386 18.2886 33.677 18.4705 33.5878 18.6392C33.3518 19.1473 33.0842 19.6401 32.7864 20.1147C32.6971 19.759 32.6626 19.3917 32.6844 19.0256C32.7002 18.2623 32.5696 17.503 32.2996 16.7889C32.0251 16.0724 31.502 15.4785 30.8258 15.1159C30.4834 14.9552 30.1193 14.8459 29.745 14.7914C28.768 14.6245 27.7681 14.6455 26.799 14.8533C25.7651 15.0758 24.7112 15.571 24.2059 16.4995C23.8195 17.2138 23.8145 18.0653 23.8212 18.8767C23.8212 19.2531 23.8998 20.8591 23.8998 20.8591C22.901 19.7215 22.6919 19.7349 22.4912 19.3836Z" fill="#C5733B"/>
<path d="M22.4761 19.2665C22.1516 18.5973 21.8069 17.9984 21.2432 17.5183C21.463 16.9648 21.7847 16.4575 22.1917 16.0227C23.1955 14.8617 24.395 13.8479 25.7986 13.2422C27.2022 12.6366 28.8099 12.4409 30.2837 12.8826C30.6422 12.9781 30.979 13.1417 31.2758 13.3644C31.4834 13.5383 31.6693 13.7366 31.8295 13.9549C32.6179 14.9684 33.2298 16.1074 33.6396 17.3242C33.7405 17.57 33.7851 17.8352 33.7701 18.1005C33.7386 18.2886 33.677 18.4705 33.5878 18.6392C33.3518 19.1473 33.0842 19.6401 32.7864 20.1147C32.6971 19.759 32.6626 19.3917 32.6844 19.0256C32.7002 18.2623 32.5696 17.503 32.2996 16.7889C32.0251 16.0724 31.502 15.4785 30.8258 15.1159C30.4834 14.9552 30.1193 14.8459 29.745 14.7914C28.768 14.6245 27.7681 14.6455 26.799 14.8533C25.7651 15.0758 24.7112 15.571 24.2059 16.4995C23.8195 17.2138 23.8145 18.0653 23.8212 18.8767C23.8212 19.2531 23.8998 20.8591 23.8998 20.8591C23.8998 20.8591 22.6785 19.6178 22.4761 19.2665Z" fill="#3E3E54"/>
<path d="M22.4761 19.2665C22.1516 18.5973 21.8069 17.9984 21.2432 17.5183C21.463 16.9648 21.7847 16.4575 22.1917 16.0227C23.1955 14.8617 24.395 13.8479 25.7986 13.2422C27.2022 12.6366 28.8099 12.4409 30.2837 12.8826C30.6422 12.9781 30.979 13.1417 31.2758 13.3644C31.4834 13.5383 31.6693 13.7366 31.8295 13.9549C32.6179 14.9684 33.2298 16.1074 33.6396 17.3242C33.7405 17.57 33.7851 17.8352 33.7701 18.1005C33.7386 18.2886 33.677 18.4705 33.5878 18.6392C33.3518 19.1473 33.0842 19.6401 32.7864 20.1147C32.6971 19.759 32.6626 19.3917 32.6844 19.0256C32.7002 18.2623 32.5696 17.503 32.2996 16.7889C32.0251 16.0724 31.502 15.4785 30.8258 15.1159C30.4834 14.9552 30.1193 14.8459 29.745 14.7914C28.768 14.6245 27.7681 14.6455 26.799 14.8533C25.7651 15.0758 24.7112 15.571 24.2059 16.4995C23.8195 17.2138 23.8145 18.0653 23.8212 18.8767C23.8212 19.2531 23.8998 20.8591 23.8998 20.8591C23.8998 20.8591 22.6785 19.6178 22.4761 19.2665Z" fill="url(#paint11_linear)"/>
<path d="M30.8757 11.9389C30.5662 12.2518 30.5646 12.7553 30.6599 13.1836C30.7881 13.7509 31.0483 14.28 31.4194 14.7277C31.7356 15.1092 32.1304 15.4253 32.4082 15.8369C32.8833 16.5378 32.9636 17.4228 33.1392 18.2509C33.154 18.3909 33.2126 18.5226 33.3065 18.6273C33.4922 18.7946 33.8084 18.706 33.9757 18.5086C34.1119 18.2945 34.1844 18.0462 34.1848 17.7925C34.2552 16.9084 34.2557 16.0201 34.1865 15.1359C34.1681 14.5189 34.0347 13.9107 33.7933 13.3425C33.4036 12.5312 31.8343 10.9653 30.8757 11.9389Z" fill="#C5733B"/>
<path d="M30.8757 11.9389C30.5662 12.2518 30.5646 12.7553 30.6599 13.1836C30.7881 13.7509 31.0483 14.28 31.4194 14.7277C31.7356 15.1092 32.1304 15.4253 32.4082 15.8369C32.8833 16.5378 32.9636 17.4228 33.1392 18.2509C33.154 18.3909 33.2126 18.5226 33.3065 18.6273C33.4922 18.7946 33.8084 18.706 33.9757 18.5086C34.1119 18.2945 34.1844 18.0462 34.1848 17.7925C34.2552 16.9084 34.2557 16.0201 34.1865 15.1359C34.1681 14.5189 34.0347 13.9107 33.7933 13.3425C33.4036 12.5312 31.8343 10.9653 30.8757 11.9389Z" fill="#3E3E54"/>
<path d="M30.8757 11.9389C30.5662 12.2518 30.5646 12.7553 30.6599 13.1836C30.7881 13.7509 31.0483 14.28 31.4194 14.7277C31.7356 15.1092 32.1304 15.4253 32.4082 15.8369C32.8833 16.5378 32.9636 17.4228 33.1392 18.2509C33.154 18.3909 33.2126 18.5226 33.3065 18.6273C33.4922 18.7946 33.8084 18.706 33.9757 18.5086C34.1119 18.2945 34.1844 18.0462 34.1848 17.7925C34.2552 16.9084 34.2557 16.0201 34.1865 15.1359C34.1681 14.5189 34.0347 13.9107 33.7933 13.3425C33.4036 12.5312 31.8343 10.9653 30.8757 11.9389Z" fill="url(#paint12_linear)"/>
<path d="M33.2883 19.9343C33.2927 19.8356 33.3194 19.7393 33.3663 19.6523C33.4133 19.5654 33.4792 19.4903 33.5593 19.4324C33.591 19.4089 33.6282 19.3936 33.6673 19.3881C33.7065 19.3825 33.7464 19.3869 33.7834 19.4006C33.8771 19.4475 33.8955 19.5679 33.8972 19.6783C33.9113 19.8963 33.8835 20.1149 33.8152 20.3224C33.7282 20.5499 33.3485 20.9916 33.0791 20.7323C32.9319 20.5901 33.0975 20.4629 33.1879 20.3525C33.2652 20.2274 33.3004 20.0809 33.2883 19.9343Z" fill="url(#paint13_linear)" fill-opacity="0.3"/>
<path d="M23.3808 21.0368C23.3302 20.9293 23.2661 20.8287 23.1901 20.7374C23.112 20.646 23.003 20.5864 22.8839 20.5701C22.7518 20.56 22.6012 20.6521 22.6045 20.7842C22.6102 20.8442 22.6309 20.9017 22.6648 20.9515C22.8085 21.24 23.0074 21.4975 23.2503 21.7094C23.3485 21.7954 23.4763 21.8398 23.6066 21.8332C23.6851 21.8169 23.756 21.7753 23.8086 21.7149C23.8611 21.6545 23.8925 21.5785 23.8977 21.4986C23.9094 21.3798 23.8643 21.164 23.7304 21.1322C23.5966 21.1004 23.4695 21.2125 23.3808 21.0368Z" fill="url(#paint14_linear)"/>
<path d="M47.9399 36.6046C47.2824 39.1325 46.3204 41.5716 45.3602 44.0024C44.8399 45.3223 44.2293 46.746 42.9829 47.4235C42.5947 47.6495 42.1453 47.7478 41.6981 47.7046C41.4124 47.6621 41.1385 47.5613 40.8934 47.4085C40.8349 47.3734 40.7797 47.3366 40.7261 47.2981C40.4735 47.1216 40.2481 46.9091 40.057 46.6674C39.5793 46.0497 39.2921 45.3061 39.2305 44.5277C39.1716 43.5891 39.3344 42.6498 39.7056 41.7857C39.7843 41.585 39.8729 41.3859 39.97 41.1918C40.4108 40.3391 40.9093 39.5174 41.4622 38.7326C41.571 38.5737 41.678 38.4131 41.7851 38.2525C42.224 37.6134 42.6042 36.9359 42.921 36.2282C43.1887 35.5721 43.3959 34.8928 43.54 34.199C43.7424 33.2956 43.7726 33.222 44.4769 33.846C45.4585 34.7162 46.5395 35.4676 47.6973 36.0844C47.7502 36.0983 47.7994 36.1238 47.8412 36.1591C47.883 36.1944 47.9164 36.2385 47.939 36.2884C47.9616 36.3382 47.9728 36.3925 47.9718 36.4472C47.9708 36.5019 47.9576 36.5557 47.9332 36.6046H47.9399Z" fill="#6E71FF"/>
<path d="M47.9399 36.6046C47.2824 39.1325 46.3204 41.5716 45.3602 44.0024C44.8399 45.3223 44.2293 46.746 42.9829 47.4235C42.5947 47.6495 42.1453 47.7478 41.6981 47.7046C41.4124 47.6621 41.1385 47.5613 40.8934 47.4085C40.8349 47.3734 40.7797 47.3366 40.7261 47.2981C40.4735 47.1216 40.2481 46.9091 40.057 46.6674C39.5793 46.0497 39.2921 45.3061 39.2305 44.5277C39.1716 43.5891 39.3344 42.6498 39.7056 41.7857C39.7843 41.585 39.8729 41.3859 39.97 41.1918C40.4108 40.3391 40.9093 39.5174 41.4622 38.7326C41.571 38.5737 41.678 38.4131 41.7851 38.2525C42.224 37.6134 42.6042 36.9359 42.921 36.2282C43.1887 35.5721 43.3959 34.8928 43.54 34.199C43.7424 33.2956 43.7726 33.222 44.4769 33.846C45.4585 34.7162 46.5395 35.4676 47.6973 36.0844C47.7502 36.0983 47.7994 36.1238 47.8412 36.1591C47.883 36.1944 47.9164 36.2385 47.939 36.2884C47.9616 36.3382 47.9728 36.3925 47.9718 36.4472C47.9708 36.5019 47.9576 36.5557 47.9332 36.6046H47.9399Z" fill="url(#paint15_linear)"/>
<path d="M44.1236 33.2189C44.1737 33.1101 44.2507 32.9863 44.3712 32.9863C44.4245 32.9901 44.4759 33.008 44.52 33.0382C44.7446 33.1924 44.9597 33.36 45.1641 33.5401C45.8015 34.0269 46.5978 34.2427 47.3724 34.4501C47.532 34.4776 47.6802 34.5509 47.799 34.6609C48.0048 34.8952 47.8877 35.2582 47.7572 35.5426C47.6267 35.827 47.5046 36.0896 47.3741 36.3623C47.3325 36.4842 47.2456 36.5854 47.1315 36.645C47.0314 36.6678 46.9266 36.6585 46.8321 36.6183C46.0266 36.3555 45.282 35.934 44.6422 35.3786C44.3829 35.1561 43.9111 34.7981 43.7689 34.4853C43.6267 34.1724 43.9881 33.5133 44.1236 33.2189Z" fill="white"/>
<path d="M44.8466 31.7629C45.4455 31.0302 46.4727 30.7893 47.4162 30.8411C48.3598 30.893 49.2715 31.1891 50.2034 31.343C51.5879 31.5757 53.0092 31.4437 54.3272 30.9599C54.8709 30.7541 55.3911 30.4831 55.9466 30.3041C56.0252 30.2678 56.1108 30.249 56.1975 30.249C56.2841 30.249 56.3698 30.2678 56.4484 30.3041C56.5035 30.3445 56.5482 30.3975 56.5787 30.4586C56.6093 30.5197 56.6248 30.5871 56.6241 30.6554C56.6375 31.0017 56.3782 31.2945 56.1222 31.5304C54.3267 33.1915 51.9847 34.1372 49.5392 34.1887C49.0403 34.1758 48.541 34.1898 48.0436 34.2305C47.5936 34.2874 47.1569 34.4196 46.7052 34.5015C46.2632 34.6019 45.803 34.5899 45.3669 34.4664C44.1992 34.0649 44.1557 32.6111 44.8466 31.7629Z" fill="url(#paint16_linear)"/>
<path d="M25.8973 38.9537C26.3874 42.676 27.0917 46.3932 27.0499 50.1473C27.0231 52.4777 26.7153 54.7931 26.369 57.0984C26.3601 57.2294 26.3181 57.3561 26.2469 57.4664C26.1225 57.591 25.9587 57.6684 25.7835 57.6856C24.0604 58.0559 22.3244 58.357 20.5756 58.589C20.5756 53.7676 20.6576 47.827 20.4502 43.0122C20.3013 39.5175 19.5434 37.182 19.7525 33.6906L19.9198 30.7931C19.918 30.6528 19.9477 30.5138 20.0068 30.3865C20.0854 30.2673 20.1908 30.1682 20.3146 30.0971C21.8939 29.0298 23.9951 27.9089 25.9223 27.7383C26.1198 28.3673 25.6597 29.5668 25.5878 30.2644C25.4824 31.2327 25.4338 32.2064 25.4422 33.1804C25.4708 35.1125 25.6228 37.0409 25.8973 38.9537Z" fill="#6E71FF"/>
<path d="M25.8973 38.9537C26.3874 42.676 27.0917 46.3932 27.0499 50.1473C27.0231 52.4777 26.7153 54.7931 26.369 57.0984C26.3601 57.2294 26.3181 57.3561 26.2469 57.4664C26.1225 57.591 25.9587 57.6684 25.7835 57.6856C24.0604 58.0559 22.3244 58.357 20.5756 58.589C20.5756 53.7676 20.6576 47.827 20.4502 43.0122C20.3013 39.5175 19.5434 37.182 19.7525 33.6906L19.9198 30.7931C19.918 30.6528 19.9477 30.5138 20.0068 30.3865C20.0854 30.2673 20.1908 30.1682 20.3146 30.0971C21.8939 29.0298 23.9951 27.9089 25.9223 27.7383C26.1198 28.3673 25.6597 29.5668 25.5878 30.2644C25.4824 31.2327 25.4338 32.2064 25.4422 33.1804C25.4708 35.1125 25.6228 37.0409 25.8973 38.9537Z" fill="url(#paint17_linear)"/>
<path d="M24.3833 28.0172L22.4478 39.9938L24.375 42.018L23.0634 45.1966L26.4979 52.5927C26.4979 52.5927 26.3206 48.1025 25.6163 40.4421C24.912 32.7817 26.2336 27.6826 26.2336 27.6826L24.3833 28.0172Z" fill="#6E71FF"/>
<path d="M30.9697 27.867C30.8714 27.8668 30.7742 27.8869 30.6841 27.9261C30.594 27.9652 30.5129 28.0226 30.446 28.0945C30.3735 28.2327 30.346 28.39 30.3674 28.5446L30.7572 37.8578C30.786 38.9923 30.872 40.1247 31.0148 41.2505C31.1236 41.9917 31.2808 42.7244 31.408 43.4622C32.2277 48.1849 31.8362 53.028 32.1173 57.8127C32.1109 57.9451 32.1505 58.0757 32.2294 58.1824C32.3197 58.2594 32.4322 58.3057 32.5506 58.3145C34.372 58.6395 36.2288 58.7189 38.0713 58.5504C37.3151 50.8415 36.898 43.1092 36.8199 35.3534C36.8015 33.4513 36.7982 31.519 36.2779 29.6872C36.2499 29.5562 36.1927 29.4333 36.1106 29.3275C36.0078 29.231 35.8841 29.1595 35.7493 29.1184C34.8576 28.7721 33.9642 28.4341 33.0725 28.0795C32.3114 27.7733 31.7911 27.867 30.9697 27.867Z" fill="#6E71FF"/>
<path d="M30.9697 27.867C30.8714 27.8668 30.7742 27.8869 30.6841 27.9261C30.594 27.9652 30.5129 28.0226 30.446 28.0945C30.3735 28.2327 30.346 28.39 30.3674 28.5446L30.7572 37.8578C30.786 38.9923 30.872 40.1247 31.0148 41.2505C31.1236 41.9917 31.2808 42.7244 31.408 43.4622C32.2277 48.1849 31.8362 53.028 32.1173 57.8127C32.1109 57.9451 32.1505 58.0757 32.2294 58.1824C32.3197 58.2594 32.4322 58.3057 32.5506 58.3145C34.372 58.6395 36.2288 58.7189 38.0713 58.5504C37.3151 50.8415 36.898 43.1092 36.8199 35.3534C36.8015 33.4513 36.7982 31.519 36.2779 29.6872C36.2499 29.5562 36.1927 29.4333 36.1106 29.3275C36.0078 29.231 35.8841 29.1595 35.7493 29.1184C34.8576 28.7721 33.9642 28.4341 33.0725 28.0795C32.3114 27.7733 31.7911 27.867 30.9697 27.867Z" fill="url(#paint18_linear)"/>
<path d="M30.1079 27.7783L30.9695 27.867L34.2016 38.271L32.5738 40.9577L34.3789 44.5228L32.1322 51.3467C32.1322 51.3467 30.6834 41.2472 30.7035 38.8565C30.7236 36.4659 30.1079 27.7783 30.1079 27.7783Z" fill="#6E71FF"/>
<path d="M24.3833 28.0172L22.4478 39.9938L24.375 42.018L23.0634 45.1966L26.4979 52.5927C26.4979 52.5927 26.3206 48.1025 25.6163 40.4421C24.912 32.7817 26.2336 27.6826 26.2336 27.6826L24.3833 28.0172Z" fill="#6E71FF"/>
<path d="M24.3833 28.0172L22.4478 39.9938L24.375 42.018L23.0634 45.1966L26.4979 52.5927C26.4979 52.5927 26.3206 48.1025 25.6163 40.4421C24.912 32.7817 26.2336 27.6826 26.2336 27.6826L24.3833 28.0172Z" fill="url(#paint19_linear)"/>
<path d="M30.1079 27.7783L30.9695 27.867L34.2016 38.271L32.5738 40.9577L34.3789 44.5228L32.1322 51.3467C32.1322 51.3467 30.6834 41.2472 30.7035 38.8565C30.7236 36.4659 30.1079 27.7783 30.1079 27.7783Z" fill="#6E71FF"/>
<path d="M30.1079 27.7783L30.9695 27.867L34.2016 38.271L32.5738 40.9577L34.3789 44.5228L32.1322 51.3467C32.1322 51.3467 30.6834 41.2472 30.7035 38.8565C30.7236 36.4659 30.1079 27.7783 30.1079 27.7783Z" fill="url(#paint20_linear)"/>
<path d="M50.7619 15.7113C50.7619 15.4387 50.541 15.2178 50.2684 15.2178C49.9959 15.2178 49.7749 15.4387 49.7749 15.7113V28.7418C49.7749 29.0144 49.9959 29.2353 50.2684 29.2353C50.541 29.2353 50.7619 29.0144 50.7619 28.7418V15.7113Z" fill="#6E71FF"/>
<path d="M50.7619 15.7113C50.7619 15.4387 50.541 15.2178 50.2684 15.2178C49.9959 15.2178 49.7749 15.4387 49.7749 15.7113V28.7418C49.7749 29.0144 49.9959 29.2353 50.2684 29.2353C50.541 29.2353 50.7619 29.0144 50.7619 28.7418V15.7113Z" fill="url(#paint21_linear)"/>
<path d="M42.4104 25.8896L41.8667 24.9795H47.2101L46.2331 26.5102H42.7801L42.4104 25.8896Z" fill="#6E71FF"/>
<path d="M56.987 26.5102H53.5324L52.6206 24.9795H57.964L56.987 26.5102Z" fill="#6E71FF"/>
<path d="M42.4104 25.8896L41.8667 24.9795H47.2101L46.2331 26.5102H42.7801L42.4104 25.8896Z" fill="url(#paint22_linear)"/>
<path d="M56.987 26.5102H53.5324L52.6206 24.9795H57.964L56.987 26.5102Z" fill="url(#paint23_linear)"/>
<path d="M49.1141 28.8955H51.9113C52.5107 28.8955 53.0856 29.1336 53.5095 29.5575C53.9333 29.9813 54.1714 30.5562 54.1714 31.1557V31.6174H46.854V31.1557C46.854 30.5562 47.0921 29.9813 47.516 29.5575C47.9398 29.1336 48.5147 28.8955 49.1141 28.8955Z" fill="#6E71FF"/>
<path d="M49.1141 28.8955H51.9113C52.5107 28.8955 53.0856 29.1336 53.5095 29.5575C53.9333 29.9813 54.1714 30.5562 54.1714 31.1557V31.6174H46.854V31.1557C46.854 30.5562 47.0921 29.9813 47.516 29.5575C47.9398 29.1336 48.5147 28.8955 49.1141 28.8955Z" fill="url(#paint24_linear)"/>
<path d="M30.4693 10.1542C30.388 10.0232 30.2817 9.9095 30.1564 9.81965C30.0004 9.72695 29.8226 9.67731 29.6412 9.67578C29.2581 9.67885 28.8782 9.74557 28.517 9.87319C26.4525 10.4888 24.3346 11.3337 22.9611 12.9865C22.0126 14.1208 21.4889 15.5411 20.982 16.9297C20.8917 17.1806 20.8147 17.4934 20.9954 17.6858C21.1206 17.7913 21.2801 17.8473 21.4438 17.8431C22.3237 17.9 23.187 17.6356 24.0285 17.3713C25.5341 16.8979 27.0582 16.4027 28.4333 15.6097C29.6044 14.9271 30.931 14.1141 31.0766 12.6703C31.1708 11.7867 30.9562 10.8977 30.4693 10.1542Z" fill="#3E3E54"/>
<path d="M30.4693 10.1542C30.388 10.0232 30.2817 9.9095 30.1564 9.81965C30.0004 9.72695 29.8226 9.67731 29.6412 9.67578C29.2581 9.67885 28.8782 9.74557 28.517 9.87319C26.4525 10.4888 24.3346 11.3337 22.9611 12.9865C22.0126 14.1208 21.4889 15.5411 20.982 16.9297C20.8917 17.1806 20.8147 17.4934 20.9954 17.6858C21.1206 17.7913 21.2801 17.8473 21.4438 17.8431C22.3237 17.9 23.187 17.6356 24.0285 17.3713C25.5341 16.8979 27.0582 16.4027 28.4333 15.6097C29.6044 14.9271 30.931 14.1141 31.0766 12.6703C31.1708 11.7867 30.9562 10.8977 30.4693 10.1542Z" fill="url(#paint25_linear)"/>
<path d="M42.1998 42.2714C42.1128 42.8221 41.9594 43.3603 41.7431 43.8741C41.6207 44.1661 41.4787 44.4494 41.3182 44.7223C40.9217 45.3915 41.6277 47.6483 40.8899 47.409C40.829 47.3806 40.7727 47.3434 40.7226 47.2986C40.4889 47.1 40.2656 46.8895 40.0534 46.6679C39.4896 46.0975 38.8472 45.3915 38.7151 45.2526C37.8903 44.376 37.1074 43.4241 36.6758 42.2999C36.4733 41.7762 36.3311 40.1251 36.2341 38.1761C36.199 37.4484 36.1689 36.6704 36.1438 35.9059C36.0417 32.5266 36.0484 29.1472 36.1153 29.3346C36.2826 29.7779 37.544 32.0397 37.7883 32.4396C38.2901 33.2325 40.7812 37.4969 41.4537 38.7382C41.5206 38.8586 41.5674 38.9507 41.5942 39.0092C41.8519 39.5032 42.0517 40.0253 42.1898 40.565C42.296 41.1286 42.2994 41.7067 42.1998 42.2714Z" fill="#6E71FF"/>
<path d="M42.1998 42.2714C42.1128 42.8221 41.9594 43.3603 41.7431 43.8741C41.6207 44.1661 41.4787 44.4494 41.3182 44.7223C40.9217 45.3915 41.6277 47.6483 40.8899 47.409C40.829 47.3806 40.7727 47.3434 40.7226 47.2986C40.4889 47.1 40.2656 46.8895 40.0534 46.6679C39.4896 46.0975 38.8472 45.3915 38.7151 45.2526C37.8903 44.376 37.1074 43.4241 36.6758 42.2999C36.4733 41.7762 36.3311 40.1251 36.2341 38.1761C36.199 37.4484 36.1689 36.6704 36.1438 35.9059C36.0417 32.5266 36.0484 29.1472 36.1153 29.3346C36.2826 29.7779 37.544 32.0397 37.7883 32.4396C38.2901 33.2325 40.7812 37.4969 41.4537 38.7382C41.5206 38.8586 41.5674 38.9507 41.5942 39.0092C41.8519 39.5032 42.0517 40.0253 42.1898 40.565C42.296 41.1286 42.2994 41.7067 42.1998 42.2714Z" fill="url(#paint26_linear)"/>
<path d="M27.2386 29.2075L28.1504 30.054C28.176 30.0671 28.1981 30.0863 28.2146 30.1099C28.2311 30.1335 28.2415 30.1608 28.245 30.1894C28.2485 30.218 28.2449 30.247 28.2345 30.2739C28.2241 30.3007 28.2073 30.3246 28.1855 30.3435C27.6881 31.0126 27.1605 31.6539 26.6029 32.2673C26.101 31.0963 25.6527 29.8299 25.7112 28.5317C25.7296 28.1201 25.8434 27.2552 26.275 27.9394C26.5351 28.4052 26.8595 28.8321 27.2386 29.2075Z" fill="white"/>
<path d="M29.3569 29.3563C29.2093 29.5315 29.0368 29.6842 28.845 29.8096C28.6895 29.8844 28.5381 29.9676 28.3917 30.0589C28.3517 30.0876 28.3186 30.1247 28.2946 30.1676C28.2143 30.3232 28.3465 30.5022 28.4619 30.631C28.5958 30.7983 29.633 32.3793 29.6681 32.3408C29.9157 32.0296 30.0311 31.2584 30.1901 30.8937C30.396 30.4621 30.5445 30.0054 30.6317 29.5353C30.7178 29.0608 30.6381 28.5711 30.4059 28.1484C30.354 28.0614 30.1917 27.8774 30.0914 27.9911C30.0613 28.0246 30.0679 28.1869 30.0579 28.2371C30.0371 28.3242 30.0085 28.4093 29.9726 28.4913C29.8169 28.8119 29.6088 29.1042 29.3569 29.3563Z" fill="white"/>
<path d="M27.4178 40.3201C27.4379 42.9483 27.5299 45.5799 27.3375 48.1997C27.2656 49.1817 27.1535 50.1754 27.3375 51.1457C27.5517 52.3319 28.174 53.3958 28.7963 54.4331C29.0874 54.3862 29.2296 54.06 29.3233 53.7806L30.5211 50.1855C30.597 49.9968 30.64 49.7965 30.6483 49.5933C30.6298 49.3695 30.5732 49.1505 30.481 48.9458C29.5993 46.5585 29.6361 43.9471 29.4873 41.4059C29.3499 39.0829 29.0491 36.7724 28.5872 34.4916C28.4915 34.1027 28.4393 33.7043 28.4316 33.3038C28.4326 33.0135 28.4943 32.7267 28.6128 32.4616C28.7312 32.1966 28.9037 31.9592 29.1192 31.7647C28.7846 31.2227 28.4015 30.8981 28.1154 30.4766C27.7261 30.817 27.4321 31.2528 27.2622 31.7413C27.2622 31.7413 27.913 32.4289 27.8043 33.3206C27.5501 35.6451 27.4211 37.9817 27.4178 40.3201Z" fill="#3E3E54"/>
<path d="M27.4178 40.3201C27.4379 42.9483 27.5299 45.5799 27.3375 48.1997C27.2656 49.1817 27.1535 50.1754 27.3375 51.1457C27.5517 52.3319 28.174 53.3958 28.7963 54.4331C29.0874 54.3862 29.2296 54.06 29.3233 53.7806L30.5211 50.1855C30.597 49.9968 30.64 49.7965 30.6483 49.5933C30.6298 49.3695 30.5732 49.1505 30.481 48.9458C29.5993 46.5585 29.6361 43.9471 29.4873 41.4059C29.3499 39.0829 29.0491 36.7724 28.5872 34.4916C28.4915 34.1027 28.4393 33.7043 28.4316 33.3038C28.4326 33.0135 28.4943 32.7267 28.6128 32.4616C28.7312 32.1966 28.9037 31.9592 29.1192 31.7647C28.7846 31.2227 28.4015 30.8981 28.1154 30.4766C27.7261 30.817 27.4321 31.2528 27.2622 31.7413C27.2622 31.7413 27.913 32.4289 27.8043 33.3206C27.5501 35.6451 27.4211 37.9817 27.4178 40.3201Z" fill="url(#paint27_linear)"/>
<path d="M24.9086 41.8148C24.9956 41.2862 24.9738 40.7441 25.0759 40.2205C25.1721 39.7408 25.3675 39.2864 25.6495 38.8865C25.9316 38.4867 26.294 38.1501 26.7137 37.8985C26.9579 38.5158 26.6601 39.1984 26.5464 39.8525C26.5096 40.0616 26.5263 40.3359 26.7254 40.4129C26.8927 40.4765 27.06 40.351 27.2022 40.2322L31.418 36.5518C31.6622 37.3431 31.0984 38.1277 30.7086 38.8587C30.6381 38.9746 30.5925 39.104 30.5748 39.2385C30.5796 39.4074 30.6219 39.5731 30.6986 39.7237C31.1642 40.8697 31.2987 42.1235 31.0867 43.3422C31.0064 43.7939 30.8626 44.2657 30.5112 44.5618C30.2726 44.7369 30.003 44.8652 29.7166 44.9399L25.8421 46.2163C25.774 46.2567 25.6982 46.2826 25.6196 46.2923C25.541 46.302 25.4612 46.2954 25.3853 46.2727C25.3094 46.2501 25.239 46.212 25.1786 46.1608C25.1181 46.1097 25.0689 46.0465 25.034 45.9754C24.5723 45.3732 23.9015 44.5116 24.0152 43.6935C24.1056 42.9976 24.7864 42.5727 24.9086 41.8148Z" fill="url(#paint28_linear)"/>
<path d="M23.1385 43.5762C23.0568 43.766 23.0092 43.9688 22.9979 44.1751C22.9578 44.9614 23.4446 45.6808 24.0017 46.2379C24.1166 46.3645 24.2538 46.4688 24.4065 46.5457C24.6893 46.6711 25.0138 46.6159 25.3166 46.5591C25.4203 46.539 25.5408 46.5072 25.5826 46.4102C25.6445 46.2629 25.4789 46.1274 25.3467 46.0371C24.8969 45.7022 24.5784 45.2204 24.4467 44.6753C24.3712 44.39 24.328 44.097 24.3179 43.8021C24.3179 43.5963 24.3781 43.2834 24.2342 43.1095C23.8712 42.6778 23.2857 43.2416 23.1385 43.5762Z" fill="white"/>
<path d="M24.9566 41.4414C25.0888 41.8128 25.3732 42.3046 25.5438 42.661C25.6659 42.9298 25.7715 43.2058 25.86 43.4874C26.0912 44.1233 26.2757 44.7753 26.4121 45.4381C26.4388 45.5886 26.5877 46.1675 26.5526 46.318L25.7161 46.3615C25.686 46.3615 25.5271 45.9416 25.4987 45.9282C25.4683 45.9093 25.4449 45.8812 25.4317 45.8479C25.0386 45.1202 24.9416 44.272 24.6438 43.5058C24.5417 43.2737 24.4518 43.0363 24.3744 42.7948C24.2899 42.5435 24.2899 42.2715 24.3744 42.0202C24.4782 41.8011 24.7408 41.4983 24.9566 41.4414Z" fill="white"/>
<path d="M20.3649 30.9451C20.3166 30.8154 20.2234 30.7074 20.1022 30.6406C20.0052 30.6005 20.3465 30.2525 20.2461 30.2809C19.2741 30.5469 18.3623 32.0041 18.0913 32.9744C17.4907 35.1492 17.1528 37.3709 16.8166 39.5942L15.7492 46.644C15.6355 47.3884 15.5234 48.1329 15.4247 48.8807C15.3695 49.304 15.3209 49.7439 15.4581 50.1488C15.7007 50.8564 16.4786 51.2697 17.2264 51.3048C17.9742 51.3399 18.7003 51.0672 19.3912 50.7812C21.5861 49.8701 23.6882 48.7497 25.6681 47.4353C25.8758 47.327 26.0392 47.1495 26.1298 46.9334C26.1627 46.7766 26.1569 46.6141 26.1131 46.46C25.7604 44.7546 25.1447 43.1145 24.2879 41.5984C23.132 42.5943 21.846 43.4284 20.4652 44.0777C21.5058 41.4328 21.2783 38.4817 21.0357 35.6494C20.9052 34.1304 21.0591 32.3035 20.3649 30.9451Z" fill="#6E71FF"/>
<path d="M20.3649 30.9451C20.3166 30.8154 20.2234 30.7074 20.1022 30.6406C20.0052 30.6005 20.3465 30.2525 20.2461 30.2809C19.2741 30.5469 18.3623 32.0041 18.0913 32.9744C17.4907 35.1492 17.1528 37.3709 16.8166 39.5942L15.7492 46.644C15.6355 47.3884 15.5234 48.1329 15.4247 48.8807C15.3695 49.304 15.3209 49.7439 15.4581 50.1488C15.7007 50.8564 16.4786 51.2697 17.2264 51.3048C17.9742 51.3399 18.7003 51.0672 19.3912 50.7812C21.5861 49.8701 23.6882 48.7497 25.6681 47.4353C25.8758 47.327 26.0392 47.1495 26.1298 46.9334C26.1627 46.7766 26.1569 46.6141 26.1131 46.46C25.7604 44.7546 25.1447 43.1145 24.2879 41.5984C23.132 42.5943 21.846 43.4284 20.4652 44.0777C21.5058 41.4328 21.2783 38.4817 21.0357 35.6494C20.9052 34.1304 21.0591 32.3035 20.3649 30.9451Z" fill="url(#paint29_linear)"/>
<path d="M47.9397 36.6049C47.2822 39.1327 46.3203 41.5718 45.36 44.0026C44.8397 45.3226 44.2291 46.7462 42.9828 47.4238C42.5945 47.6497 42.1451 47.748 41.6979 47.7048C41.4123 47.6623 41.1384 47.5615 40.8933 47.4087C40.8324 47.3803 40.776 47.3431 40.726 47.2983C40.4733 47.1218 40.2479 46.9094 40.0568 46.6676C39.493 46.0971 38.8506 45.3912 38.7184 45.2523C37.8937 44.3757 37.1107 43.4238 36.6791 42.2996L36.2291 38.1691L36.1333 35.6006L36.1388 35.8922C36.6841 36.8725 38.3136 39.755 39.6971 41.7776C40.5787 43.0674 41.36 44.006 41.7046 43.8855C41.7194 43.8815 41.7335 43.8753 41.7465 43.8671C42.7736 43.3301 45.345 36.0193 45.345 36.0193L47.9397 36.6049Z" fill="#6E71FF"/>
<path d="M47.9397 36.6049C47.2822 39.1327 46.3203 41.5718 45.36 44.0026C44.8397 45.3226 44.2291 46.7462 42.9828 47.4238C42.5945 47.6497 42.1451 47.748 41.6979 47.7048C41.4123 47.6623 41.1384 47.5615 40.8933 47.4087C40.8324 47.3803 40.776 47.3431 40.726 47.2983C40.4733 47.1218 40.2479 46.9094 40.0568 46.6676C39.493 46.0971 38.8506 45.3912 38.7184 45.2523C37.8937 44.3757 37.1107 43.4238 36.6791 42.2996L36.2291 38.1691L36.1333 35.6006L36.1388 35.8922C36.6841 36.8725 38.3136 39.755 39.6971 41.7776C40.5787 43.0674 41.36 44.006 41.7046 43.8855C41.7194 43.8815 41.7335 43.8753 41.7465 43.8671C42.7736 43.3301 45.345 36.0193 45.345 36.0193L47.9397 36.6049Z" fill="url(#paint30_linear)"/>
<defs>
<linearGradient id="paint0_linear" x1="55.2321" y1="13.0333" x2="55.3191" y2="30.5122" gradientUnits="userSpaceOnUse">
<stop offset="0.01"/>
<stop offset="1" stop-opacity="0"/>
</linearGradient>
<linearGradient id="paint1_linear" x1="55.0884" y1="20.7998" x2="55.6847" y2="20.8169" gradientUnits="userSpaceOnUse">
<stop offset="0.38383" stop-opacity="0.75"/>
<stop offset="0.908533" stop-opacity="0"/>
</linearGradient>
<linearGradient id="paint2_linear" x1="1495.62" y1="385.124" x2="1503.28" y2="1312.69" gradientUnits="userSpaceOnUse">
<stop offset="0.01"/>
<stop offset="1" stop-opacity="0"/>
</linearGradient>
<linearGradient id="paint3_linear" x1="44.473" y1="20.8385" x2="45.0695" y2="20.8578" gradientUnits="userSpaceOnUse">
<stop offset="0.38383" stop-opacity="0.75"/>
<stop offset="0.908533" stop-opacity="0"/>
</linearGradient>
<linearGradient id="paint4_linear" x1="50.4441" y1="14.7855" x2="50.4221" y2="17.7412" gradientUnits="userSpaceOnUse">
<stop offset="0.38383" stop-opacity="0.75"/>
<stop offset="0.908533" stop-opacity="0"/>
</linearGradient>
<linearGradient id="paint5_linear" x1="39.0459" y1="47.8627" x2="18.9749" y2="43.7367" gradientUnits="userSpaceOnUse">
<stop offset="0.079127"/>
<stop offset="0.83" stop-opacity="0.07"/>
<stop offset="1" stop-opacity="0"/>
</linearGradient>
<linearGradient id="paint6_linear" x1="26.0968" y1="27.6838" x2="30.3553" y2="27.6838" gradientUnits="userSpaceOnUse">
<stop stop-color="#E5C5D5"/>
<stop offset="0.42" stop-color="#EAD4D1"/>
<stop offset="1" stop-color="#F0E9CB"/>
</linearGradient>
<linearGradient id="paint7_linear" x1="28.4757" y1="21.5693" x2="23.4147" y2="30.281" gradientUnits="userSpaceOnUse">
<stop offset="0.01" stop-opacity="0.53"/>
<stop offset="0.83" stop-opacity="0.07"/>
<stop offset="1" stop-opacity="0"/>
</linearGradient>
<linearGradient id="paint8_linear" x1="23.5398" y1="20.6299" x2="33.0152" y2="20.6299" gradientUnits="userSpaceOnUse">
<stop stop-color="#E5C5D5"/>
<stop offset="0.42" stop-color="#EAD4D1"/>
<stop offset="1" stop-color="#F0E9CB"/>
</linearGradient>
<linearGradient id="paint9_linear" x1="22.2847" y1="21.0375" x2="24.2091" y2="21.0375" gradientUnits="userSpaceOnUse">
<stop stop-color="#E5C5D5"/>
<stop offset="0.42" stop-color="#EAD4D1"/>
<stop offset="1" stop-color="#F0E9CB"/>
</linearGradient>
<linearGradient id="paint10_linear" x1="32.7286" y1="20.0193" x2="34.3147" y2="20.0193" gradientUnits="userSpaceOnUse">
<stop stop-color="#E5C5D5"/>
<stop offset="0.42" stop-color="#EAD4D1"/>
<stop offset="1" stop-color="#F0E9CB"/>
</linearGradient>
<linearGradient id="paint11_linear" x1="35.6352" y1="7.45416" x2="19.6372" y2="4.37633" gradientUnits="userSpaceOnUse">
<stop offset="0.079127"/>
<stop offset="0.83" stop-opacity="0.07"/>
<stop offset="1" stop-opacity="0"/>
</linearGradient>
<linearGradient id="paint12_linear" x1="34.778" y1="7.15568" x2="29.9871" y2="6.84573" gradientUnits="userSpaceOnUse">
<stop offset="0.079127"/>
<stop offset="0.83" stop-opacity="0.07"/>
<stop offset="1" stop-opacity="0"/>
</linearGradient>
<linearGradient id="paint13_linear" x1="33.4734" y1="18.1812" x2="31.2381" y2="20.4682" gradientUnits="userSpaceOnUse">
<stop offset="0.01" stop-opacity="0.53"/>
<stop offset="0.83" stop-opacity="0.07"/>
<stop offset="1" stop-opacity="0"/>
</linearGradient>
<linearGradient id="paint14_linear" x1="228.848" y1="131.956" x2="221.345" y2="141.791" gradientUnits="userSpaceOnUse">
<stop offset="0.01"/>
<stop offset="1" stop-opacity="0"/>
</linearGradient>
<linearGradient id="paint15_linear" x1="53.5028" y1="23.8549" x2="39.0807" y2="23.4559" gradientUnits="userSpaceOnUse">
<stop offset="0.079127"/>
<stop offset="0.83" stop-opacity="0.07"/>
<stop offset="1" stop-opacity="0"/>
</linearGradient>
<linearGradient id="paint16_linear" x1="44.3939" y1="32.4092" x2="56.6331" y2="32.4092" gradientUnits="userSpaceOnUse">
<stop stop-color="#E5C5D5"/>
<stop offset="0.42" stop-color="#EAD4D1"/>
<stop offset="1" stop-color="#F0E9CB"/>
</linearGradient>
<linearGradient id="paint17_linear" x1="24.2075" y1="61.9474" x2="32.5096" y2="2.23692" gradientUnits="userSpaceOnUse">
<stop stop-opacity="0"/>
<stop offset="0.639117" stop-opacity="0.75"/>
<stop offset="1"/>
</linearGradient>
<linearGradient id="paint18_linear" x1="35.0814" y1="61.9875" x2="42.9594" y2="2.29611" gradientUnits="userSpaceOnUse">
<stop stop-opacity="0"/>
<stop offset="0.639117" stop-opacity="0.75"/>
<stop offset="1"/>
</linearGradient>
<linearGradient id="paint19_linear" x1="29.0572" y1="10.9603" x2="22.3791" y2="10.9114" gradientUnits="userSpaceOnUse">
<stop offset="0.079127"/>
<stop offset="0.83" stop-opacity="0.07"/>
<stop offset="1" stop-opacity="0"/>
</linearGradient>
<linearGradient id="paint20_linear" x1="37.0777" y1="11.9567" x2="30.0356" y2="11.8992" gradientUnits="userSpaceOnUse">
<stop offset="0.079127"/>
<stop offset="0.83" stop-opacity="0.07"/>
<stop offset="1" stop-opacity="0"/>
</linearGradient>
<linearGradient id="paint21_linear" x1="50.2698" y1="4.11585" x2="36.2312" y2="18.3873" gradientUnits="userSpaceOnUse">
<stop offset="0.38383" stop-opacity="0.75"/>
<stop offset="0.908533" stop-opacity="0"/>
</linearGradient>
<linearGradient id="paint22_linear" x1="44.5461" y1="23.7671" x2="44.4853" y2="26.8324" gradientUnits="userSpaceOnUse">
<stop offset="0.38383" stop-opacity="0.75"/>
<stop offset="0.908533" stop-opacity="0"/>
</linearGradient>
<linearGradient id="paint23_linear" x1="55.3" y1="23.7671" x2="55.2392" y2="26.8324" gradientUnits="userSpaceOnUse">
<stop offset="0.38383" stop-opacity="0.75"/>
<stop offset="0.908533" stop-opacity="0"/>
</linearGradient>
<linearGradient id="paint24_linear" x1="50.5233" y1="26.7398" x2="50.3829" y2="32.1888" gradientUnits="userSpaceOnUse">
<stop offset="0.38383" stop-opacity="0.75"/>
<stop offset="0.908533" stop-opacity="0"/>
</linearGradient>
<linearGradient id="paint25_linear" x1="32.6161" y1="4.51356" x2="19.4219" y2="2.43411" gradientUnits="userSpaceOnUse">
<stop offset="0.079127"/>
<stop offset="0.83" stop-opacity="0.07"/>
<stop offset="1" stop-opacity="0"/>
</linearGradient>
<linearGradient id="paint26_linear" x1="46.1936" y1="17.1768" x2="35.9627" y2="17.0185" gradientUnits="userSpaceOnUse">
<stop offset="0.079127"/>
<stop offset="0.83" stop-opacity="0.07"/>
<stop offset="1" stop-opacity="0"/>
</linearGradient>
<linearGradient id="paint27_linear" x1="31.1552" y1="15.349" x2="26.6404" y2="15.2679" gradientUnits="userSpaceOnUse">
<stop offset="0.079127"/>
<stop offset="0.83" stop-opacity="0.07"/>
<stop offset="1" stop-opacity="0"/>
</linearGradient>
<linearGradient id="paint28_linear" x1="24.0026" y1="41.4249" x2="31.4825" y2="41.4249" gradientUnits="userSpaceOnUse">
<stop stop-color="#E5C5D5"/>
<stop offset="0.42" stop-color="#EAD4D1"/>
<stop offset="1" stop-color="#F0E9CB"/>
</linearGradient>
<linearGradient id="paint29_linear" x1="21.9703" y1="53.5971" x2="24.6343" y2="12.2819" gradientUnits="userSpaceOnUse">
<stop stop-opacity="0"/>
<stop offset="0.639117" stop-opacity="0.75"/>
<stop offset="1"/>
</linearGradient>
<linearGradient id="paint30_linear" x1="55.5159" y1="27.3964" x2="35.7846" y2="26.5185" gradientUnits="userSpaceOnUse">
<stop offset="0.079127"/>
<stop offset="0.83" stop-opacity="0.07"/>
<stop offset="1" stop-opacity="0"/>
</linearGradient>
</defs>
</svg>
