<svg width="24" height="24" viewBox="0 0 24 24" fill="none" xmlns="http://www.w3.org/2000/svg">
<g opacity="0.8">
<path fill-rule="evenodd" clip-rule="evenodd" d="M11.9149 14.1428L14.1189 11.9387C14.7276 11.33 14.8786 10.4001 14.4936 9.6301L14.3687 9.38034C13.9837 8.61036 14.1346 7.68042 14.7433 7.07169L17.4761 4.33889C17.6714 4.14363 17.988 4.14363 18.1832 4.33889C18.2212 4.37689 18.2529 4.42077 18.2769 4.46884L19.3809 6.67679C20.2254 8.3659 19.8944 10.4059 18.559 11.7413L12.5602 17.7401C11.1067 19.1936 8.95663 19.7012 7.0065 19.0512L4.59202 18.2463C4.33005 18.159 4.18847 17.8758 4.27579 17.6139C4.30034 17.5402 4.34169 17.4733 4.39658 17.4184L7.04785 14.7672C7.65657 14.1584 8.58652 14.0075 9.35649 14.3925L9.60626 14.5174C10.3762 14.9024 11.3062 14.7515 11.9149 14.1428V14.1428Z" fill="black"/>
</g>
</svg>
