<svg width="80" height="80" viewBox="0 0 80 80" fill="none" xmlns="http://www.w3.org/2000/svg">
<path opacity="0.18" d="M79.7815 61.9819C79.1779 65.5889 77.3093 68.7223 75.1079 71.2654C71.1931 75.7604 66.2175 78.6782 60.8685 79.6157C58.0771 80.094 55.2432 80.0217 52.4266 79.9424C40.2397 79.5947 27.6775 80.0264 15.5408 78.5121C6.50507 77.3852 0.593432 65.8572 0.0537243 55.6474C0.0343799 55.2811 0.0208389 54.9171 0.0131012 54.5532C-0.224834 45.2043 2.81029 36.1074 6.49926 27.8411C7.88953 24.7007 9.43268 21.6623 11.1206 18.7419C15.3667 11.4765 20.6883 5.20968 27.5072 2.15794C34.6646 -1.04779 42.65 -0.322185 50.0337 1.99462C52.6549 2.81588 55.2954 3.86113 57.4368 5.86996C62.1975 10.3192 63.4123 18.1842 65.7433 24.885C66.1495 26.0516 66.5983 27.2018 67.078 28.3264C69.8598 34.8755 73.6957 40.762 76.7231 47.1805C77.8161 49.4973 78.8162 51.9914 79.4178 54.5578C79.9885 56.9866 80.1974 59.4924 79.7815 61.9819Z" fill="#6E71FF"/>
<path opacity="0.28" d="M67 27.7063V42.6667H11V18.3307C11.4388 17.5973 11.8905 16.8754 12.3551 16.1648C12.5397 15.8772 12.7288 15.5919 12.9224 15.3089C13.3095 14.7308 13.707 14.1632 14.1149 13.6064C16.5193 10.2993 19.2295 7.36888 22.296 5.09573C22.6445 4.83859 22.9981 4.5883 23.3569 4.34486C24.6534 3.46997 26.0085 2.72192 27.4087 2.10822C27.8463 1.91651 28.2896 1.73849 28.7348 1.57416C35.1233 -0.781151 42.1081 -0.251661 48.6747 1.57416C49.1006 1.69284 49.5258 1.81761 49.9505 1.94846C50.7248 2.17669 51.4818 2.43459 52.2348 2.72672C52.5936 2.86365 52.9479 3.00896 53.2976 3.16263C54.7547 3.77649 56.1251 4.64509 57.363 5.73933C59.5971 7.77969 61.051 10.5572 62.2028 13.6064C62.4138 14.1632 62.6152 14.7338 62.8088 15.3089C62.9578 15.7449 63.1011 16.1853 63.2424 16.6281C64.0613 19.198 64.7911 21.85 65.672 24.3399C66.0708 25.4856 66.5141 26.6062 67 27.7063Z" fill="#6E71FF"/>
<path d="M24.0752 5.9856V13.1991H15.8965C18.3029 10.3961 21.0111 7.91228 24.0752 5.9856Z" fill="url(#paint0_linear)"/>
<path d="M35.0743 3.00073V13.199H25.1353V5.34719C26.4308 4.60632 27.7849 3.97293 29.184 3.45339C29.6212 3.2909 30.0642 3.14001 30.5091 3.00073H35.0743Z" fill="url(#paint1_linear)"/>
<path d="M24.0753 14.6423V24.8386H14.1382V15.3599C14.3226 15.1162 14.5115 14.8744 14.705 14.6345L24.0753 14.6423Z" fill="url(#paint2_linear)"/>
<path d="M35.0724 14.6423H25.1353V24.8387H35.0724V14.6423Z" fill="url(#paint3_linear)"/>
<path d="M24.0753 26.2837H14.1382V36.48H24.0753V26.2837Z" fill="url(#paint4_linear)"/>
<path d="M35.0724 26.2837H25.1353V36.48H35.0724V26.2837Z" fill="url(#paint5_linear)"/>
<path d="M53.983 3.97762V13.199H44.0459V3.00073H50.4295C50.8551 3.10132 51.28 3.20707 51.7043 3.31798C52.4645 3.51722 53.2305 3.73001 53.983 3.97762Z" fill="url(#paint6_linear)"/>
<path d="M63.9433 13.1993H55.0449V4.34741C56.5008 4.8677 57.8702 5.60392 59.1072 6.53138C61.3357 8.26075 62.7884 10.6149 63.9433 13.1993Z" fill="url(#paint7_linear)"/>
<path d="M53.983 14.6423H44.0459V24.8387H53.983V14.6423Z" fill="url(#paint8_linear)"/>
<path d="M64.9821 15.7604V24.8387H55.0449V14.6423H64.5487C64.6977 15.0195 64.8408 15.3852 64.9821 15.7604Z" fill="url(#paint9_linear)"/>
<path d="M53.983 26.2837H44.0459V36.48H53.983V26.2837Z" fill="url(#paint10_linear)"/>
<path d="M64.9821 26.2837H55.0449V36.48H64.9821V26.2837Z" fill="url(#paint11_linear)"/>
<path opacity="0.41" d="M79.7814 61.285C79.1778 65.2539 77.3088 68.7017 75.1071 71.5C70 76.1667 66.2152 78.5456 60.8654 79.5772C58.0735 80.1034 55.2391 80.0239 52.4221 79.9366C40.2332 79.5541 28.1667 79.9366 15.5303 78.3629C6.49303 77.1229 1 67.5 0.0406298 53.204C0.0212823 52.801 0.00773901 52.4005 0 52H78.6667C79.5 54.6667 80.1974 58.5458 79.7814 61.285Z" fill="#6E71FF"/>
<path d="M65.084 54.4077H13.1138V72.0632H65.084V54.4077Z" fill="#6E71FF"/>
<path d="M65.084 54.4077H13.1138V72.0632H65.084V54.4077Z" fill="url(#paint12_linear)"/>
<path d="M65.084 54.6187H13.1138V57.9768H65.084V54.6187Z" fill="url(#paint13_linear)"/>
<path d="M36.9476 24.5808H40.9112C42.2638 24.5829 43.5604 25.1212 44.5167 26.0778C45.4729 27.0344 46.0108 28.3312 46.0123 29.6838V39.8666H31.8311V29.6838C31.8318 29.0128 31.9648 28.3484 32.2223 27.7288C32.4799 27.1091 32.857 26.5462 33.3322 26.0724C33.8073 25.5985 34.3712 25.2228 34.9915 24.9669C35.6119 24.711 36.2765 24.5798 36.9476 24.5808Z" fill="#3F3D56"/>
<path d="M36.9476 24.5808H40.9112C42.2638 24.5829 43.5604 25.1212 44.5167 26.0778C45.4729 27.0344 46.0108 28.3312 46.0123 29.6838V39.8666H31.8311V29.6838C31.8318 29.0128 31.9648 28.3484 32.2223 27.7288C32.4799 27.1091 32.857 26.5462 33.3322 26.0724C33.8073 25.5985 34.3712 25.2228 34.9915 24.9669C35.6119 24.711 36.2765 24.5798 36.9476 24.5808Z" fill="url(#paint14_linear)"/>
<path d="M36.3651 35.1449L31.1229 36.8859C30.7053 37.2139 30.4202 37.6817 30.3201 38.2032C30.1576 39.0718 31.2196 42.4589 31.3801 44.1864C31.5407 45.9138 31.7341 48.2061 31.7341 48.2061L32.74 52.6727H44.5748L45.2828 44.3102C45.2828 44.3102 47.0238 38.3928 47.0238 37.7505C47.0145 37.3306 46.9272 36.9161 46.7665 36.528L41.2825 34.9031L36.3651 35.1449Z" fill="#6E71FF"/>
<path d="M36.3652 35.1449L31.1229 36.8859C30.7053 37.2139 30.4202 37.6817 30.3201 38.2032C30.1576 39.0718 31.2196 42.4589 31.3801 44.1864C31.5407 45.9138 31.7341 48.2061 31.7341 48.2061L32.74 52.6727H44.5748L45.2828 44.3102C45.2828 44.3102 47.0238 38.3928 47.0238 37.7505C47.0145 37.3306 46.9272 36.9161 46.7665 36.528L41.2825 34.9031L36.3652 35.1449Z" fill="url(#paint15_linear)"/>
<path d="M36.7985 35.0151L36.3652 35.1447L36.8798 48.4265L40.9962 48.4594L41.2206 35.0886L36.7985 35.0151Z" fill="white"/>
<path d="M38.0057 37.2513L38.5202 37.8935C38.5168 38.1616 38.4731 38.4277 38.3906 38.6828C38.263 39.0368 37.3306 46.7861 37.3306 46.7861L38.7775 48.6199L40.4179 46.3373L39.3559 37.9264L39.7583 37.0269L39.1954 36.4156L38.6324 36.3499L38.0057 37.2513Z" fill="#62021D"/>
<path d="M66.3061 53.4424H11.5059L14.303 46.4958H61.7718L66.3061 53.4424Z" fill="#6E71FF"/>
<path d="M66.3061 53.4424H11.5059L14.303 46.4958H61.7718L66.3061 53.4424Z" fill="url(#paint16_linear)"/>
<path d="M53.4267 47.3568L52.9837 48.2331C52.9763 48.247 52.9727 48.2626 52.9732 48.2784C52.9737 48.2941 52.9782 48.3095 52.9864 48.3229C52.9946 48.3364 53.0061 48.3475 53.0199 48.3552C53.0337 48.3628 53.0492 48.3667 53.065 48.3666C53.0818 48.3666 53.0984 48.3619 53.1127 48.353C53.1271 48.3441 53.1387 48.3314 53.1462 48.3163L53.5969 47.4439C53.6027 47.4327 53.6061 47.4204 53.6068 47.4078C53.6076 47.3952 53.6057 47.3826 53.6014 47.3708C53.597 47.359 53.5902 47.3482 53.5815 47.3391C53.5727 47.33 53.5622 47.3229 53.5505 47.3181C53.5399 47.3122 53.5282 47.3084 53.5161 47.3071C53.5041 47.3059 53.4918 47.3071 53.4802 47.3107C53.4686 47.3143 53.4579 47.3203 53.4487 47.3282C53.4395 47.3361 53.432 47.3459 53.4267 47.3568Z" fill="#6E71FF"/>
<path d="M52.9781 47.8075L51.653 50.4306C51.634 50.4719 51.6256 50.5172 51.6285 50.5625C51.6315 50.6079 51.6457 50.6517 51.6699 50.6902C51.6941 50.7286 51.7275 50.7604 51.7672 50.7826C51.8068 50.8048 51.8513 50.8168 51.8967 50.8175C51.947 50.8172 51.9963 50.8032 52.0393 50.7769C52.0822 50.7507 52.1172 50.7132 52.1404 50.6685L53.4945 48.0551C53.5116 48.0217 53.5215 47.9851 53.5238 47.9477C53.526 47.9103 53.5205 47.8728 53.5077 47.8376C53.4948 47.8023 53.4748 47.7702 53.4489 47.743C53.423 47.7159 53.3918 47.6944 53.3572 47.6798L53.334 47.6682C53.2683 47.6397 53.194 47.6383 53.1273 47.6644C53.0606 47.6905 53.0069 47.7419 52.9781 47.8075Z" fill="#6E71FF"/>
<path d="M52.9781 47.8075L51.653 50.4306C51.634 50.4719 51.6256 50.5172 51.6285 50.5625C51.6315 50.6079 51.6457 50.6517 51.6699 50.6902C51.6941 50.7286 51.7275 50.7604 51.7672 50.7826C51.8068 50.8048 51.8513 50.8168 51.8967 50.8175C51.947 50.8172 51.9963 50.8032 52.0393 50.7769C52.0822 50.7507 52.1172 50.7132 52.1404 50.6685L53.4945 48.0551C53.5116 48.0217 53.5215 47.9851 53.5238 47.9477C53.526 47.9103 53.5205 47.8728 53.5077 47.8376C53.4948 47.8023 53.4748 47.7702 53.4489 47.743C53.423 47.7159 53.3918 47.6944 53.3572 47.6798L53.334 47.6682C53.2683 47.6397 53.194 47.6383 53.1273 47.6644C53.0606 47.6905 53.0069 47.7419 52.9781 47.8075Z" fill="black"/>
<path d="M40.8761 45.8903C40.5344 45.804 40.1807 45.7752 39.8296 45.8052C39.5015 45.7968 39.1819 45.9098 38.932 46.1224C38.5857 46.4803 38.6844 47.0896 38.9823 47.4939C39.2802 47.8982 39.7212 48.1536 40.1004 48.4766C40.2481 48.626 40.4193 48.7502 40.6072 48.8442C40.7572 48.8968 40.9145 48.9255 41.0734 48.9293C41.444 48.9703 41.8186 48.958 42.1857 48.8925C42.557 48.8237 42.8883 48.6162 43.1123 48.3122C43.4199 47.8595 43.4257 46.6931 42.8627 46.5267C42.5262 46.4281 42.1973 46.4455 41.853 46.2946C41.5368 46.138 41.2104 46.003 40.8761 45.8903Z" fill="#FFDAD2"/>
<path d="M37.6867 45.9815C37.843 45.911 38.0084 45.8629 38.178 45.8383C38.3686 45.8171 38.5614 45.8441 38.7389 45.9167C38.9163 45.9894 39.0727 46.1054 39.1936 46.2542C39.3101 46.4064 39.3835 46.5871 39.4059 46.7774C39.4284 46.9677 39.3992 47.1605 39.3213 47.3356C39.1719 47.5779 38.9996 47.8052 38.8067 48.0146C38.6036 48.2873 38.4779 48.6143 38.2419 48.8561C37.6867 49.4248 36.6208 49.4364 35.8838 49.3416C35.7093 49.3273 35.5402 49.2744 35.3887 49.1867C35.2371 49.0991 35.1069 48.9789 35.0075 48.8348C34.7077 48.3338 34.9224 47.5213 35.288 47.1073C35.5143 46.852 35.8683 46.7881 36.1701 46.6527L37.5126 46.0569L37.6867 45.9815Z" fill="#FFDAD2"/>
<path d="M37.4584 33.425C37.4584 33.425 37.5552 34.5334 36.7601 34.8468C35.9651 35.1602 38.2071 38.0077 40.716 35.5471C40.7802 35.5545 40.8452 35.5482 40.9067 35.5284C40.9682 35.5087 41.0248 35.476 41.0726 35.4326C41.1204 35.3891 41.1584 35.336 41.184 35.2766C41.2096 35.2173 41.2221 35.1532 41.2209 35.0886C41.246 34.5818 40.0873 34.9435 40.1357 33.2548C40.184 31.566 37.677 32.5081 37.4584 33.425Z" fill="#FFDAD2"/>
<path d="M38.0559 34.9417C38.317 35.3034 38.7929 35.5626 39.2165 35.4079C39.4792 35.2799 39.699 35.0782 39.8491 34.8276C40.089 34.4987 40.3424 34.1331 40.323 33.7269C40.3251 33.6708 40.3149 33.6149 40.2932 33.5631C40.2715 33.5113 40.2388 33.4649 40.1973 33.427C40.1289 33.3805 40.0496 33.3525 39.9671 33.3458C39.307 33.2462 38.6328 33.2984 37.9959 33.4986C37.6342 33.6108 37.5278 33.6514 37.6477 34.0228C37.7353 34.3484 37.873 34.6584 38.0559 34.9417Z" fill="url(#paint17_linear)"/>
<path d="M36.0594 28.8425C36.0594 28.8425 36.011 31.9762 37.073 33.3284C38.135 34.6805 39.6535 35.0694 40.8354 33.3284C41.3848 32.5198 41.704 29.4924 41.4873 29.034C41.2707 28.5755 38.2781 26.3084 37.0246 27.4187C35.7711 28.5291 36.0594 28.8425 36.0594 28.8425Z" fill="#FFDAD2"/>
<path d="M36.0674 26.6119C35.8414 26.7775 35.6452 26.9803 35.487 27.2116C35.3295 27.4464 35.2609 27.7297 35.2936 28.0105C35.3635 28.2832 35.4737 28.544 35.6205 28.7843C35.9107 29.384 35.9706 30.0668 36.1854 30.6955C36.2653 30.1797 36.3298 29.6561 36.3788 29.1247C36.6413 29.2357 36.9237 29.2917 37.2087 29.2892C38.586 29.3627 39.9672 29.3182 41.3445 29.2737C41.3607 29.6417 41.3302 30.0102 41.2536 30.3705C41.2081 30.6219 41.2454 30.8812 41.36 31.1095C41.6791 30.8116 41.4335 30.2196 41.7642 29.9333C41.8411 29.883 41.9113 29.8232 41.9732 29.7554C42.0776 29.6084 42.0099 29.3975 42.0796 29.2311C42.1516 29.1049 42.254 28.9985 42.3775 28.9216C42.7373 28.6315 42.9578 28.1092 42.7643 27.6913C42.6219 27.4469 42.4152 27.2462 42.1666 27.111L41.6404 26.7609C41.4586 26.6409 41.1704 26.4765 40.975 26.374C40.7235 26.2463 40.5262 26.0335 40.2883 25.8827C39.872 25.6594 39.4065 25.5437 38.9342 25.5461C38.1004 25.4996 37.2203 25.5461 36.5065 25.989C36.3904 26.0522 36.2904 26.1412 36.2142 26.2492C36.1381 26.3573 36.0878 26.4814 36.0674 26.6119Z" fill="#3F3D56"/>
<path d="M39.3833 32.2199C39.4384 32.2112 39.4945 32.2112 39.5496 32.2199C39.7315 32.2644 39.8185 32.4656 39.8785 32.6416C39.8611 32.5894 39.0544 32.6706 38.9693 32.6764C38.6559 32.6977 38.3387 32.7596 38.0272 32.7635C37.8996 32.0903 39.0119 32.2393 39.3833 32.2199Z" fill="#3F3D56"/>
<path d="M36.0674 26.6119C35.8414 26.7775 35.6452 26.9803 35.487 27.2116C35.3295 27.4464 35.2609 27.7297 35.2936 28.0105C35.3635 28.2832 35.4737 28.544 35.6205 28.7843C35.9107 29.384 35.9706 30.0668 36.1854 30.6955C36.2653 30.1797 36.3298 29.6561 36.3788 29.1247C36.6413 29.2357 36.9237 29.2917 37.2087 29.2892C38.586 29.3627 39.9672 29.3182 41.3445 29.2737C41.3607 29.6417 41.3302 30.0102 41.2536 30.3705C41.2081 30.6219 41.2454 30.8812 41.36 31.1095C41.6791 30.8116 41.4335 30.2196 41.7642 29.9333C41.8411 29.883 41.9113 29.8232 41.9732 29.7554C42.0776 29.6084 42.0099 29.3975 42.0796 29.2311C42.1516 29.1049 42.254 28.9985 42.3775 28.9216C42.7373 28.6315 42.9578 28.1092 42.7643 27.6913C42.6219 27.4469 42.4152 27.2462 42.1666 27.111L41.6404 26.7609C41.4586 26.6409 41.1704 26.4765 40.975 26.374C40.7235 26.2463 40.5262 26.0335 40.2883 25.8827C39.872 25.6594 39.4065 25.5437 38.9342 25.5461C38.1004 25.4996 37.2203 25.5461 36.5065 25.989C36.3904 26.0522 36.2904 26.1412 36.2142 26.2492C36.1381 26.3573 36.0878 26.4814 36.0674 26.6119Z" fill="url(#paint18_linear)"/>
<path d="M39.3833 32.2199C39.4384 32.2112 39.4945 32.2112 39.5496 32.2199C39.7315 32.2644 39.8185 32.4656 39.8785 32.6416C39.8611 32.5894 39.0544 32.6706 38.9693 32.6764C38.6559 32.6977 38.3387 32.7596 38.0272 32.7635C37.8996 32.0903 39.0119 32.2393 39.3833 32.2199Z" fill="url(#paint19_linear)"/>
<path d="M37.2663 34.3167C37.2663 34.3167 38.6398 36.3903 38.9531 36.4639L37.4578 37.9108C37.4578 37.9108 36.421 35.5895 36.5893 34.9434L37.2663 34.3167Z" fill="white"/>
<path d="M40.3967 34.4348C40.2245 34.9861 39.6984 36.4504 38.9536 36.464L40.2574 38.0115C40.2574 38.0115 41.2943 36.5394 41.2691 34.9068L40.625 34.3709C40.6069 34.3563 40.5857 34.3462 40.5629 34.3414C40.5402 34.3367 40.5167 34.3375 40.4943 34.3437C40.4719 34.35 40.4514 34.3615 40.4344 34.3774C40.4174 34.3932 40.4045 34.4129 40.3967 34.4348Z" fill="white"/>
<path d="M30.5851 37.5008C30.5851 37.5008 26.84 45.5867 26.9368 46.3102C27.0335 47.0336 26.7433 47.3722 26.9851 47.7571C27.2269 48.1421 34.4133 49.5426 34.4133 49.5426L35.0884 46.5036L31.6645 45.6834L30.8907 45.459C32.3241 43.4163 32.8425 40.3657 32.0243 38.0076C31.6703 36.9669 30.999 37.1429 30.5851 37.5008Z" fill="#6E71FF"/>
<path d="M30.5851 37.5008C30.5851 37.5008 26.84 45.5867 26.9368 46.3102C27.0335 47.0336 26.7433 47.3722 26.9851 47.7571C27.2269 48.1421 34.4133 49.5426 34.4133 49.5426L35.0884 46.5036L31.6645 45.6834L30.8907 45.459C32.3241 43.4163 32.8425 40.3657 32.0243 38.0076C31.6703 36.9669 30.999 37.1429 30.5851 37.5008Z" fill="url(#paint20_linear)"/>
<path d="M46.8961 36.6554C46.8961 36.6554 51.6703 45.194 51.5755 45.9174C51.4807 46.6409 51.7689 46.9794 51.5271 47.3663C51.2853 47.7532 44.097 49.1499 44.097 49.1499L43.4219 46.1109L46.8477 45.2907L46.281 44.486C45.7494 43.7283 45.3909 42.863 45.2308 41.9515C45.0707 41.0399 45.1129 40.1043 45.3544 39.2108C45.7761 37.6575 46.3429 36.1776 46.8961 36.6554Z" fill="#6E71FF"/>
<path d="M46.8961 36.6554C46.8961 36.6554 51.6703 45.194 51.5755 45.9174C51.4807 46.6409 51.7689 46.9794 51.5271 47.3663C51.2853 47.7532 44.097 49.1499 44.097 49.1499L43.4219 46.1109L46.8477 45.2907L46.281 44.486C45.7494 43.7283 45.3909 42.863 45.2308 41.9515C45.0707 41.0399 45.1129 40.1043 45.3544 39.2108C45.7761 37.6575 46.3429 36.1776 46.8961 36.6554Z" fill="url(#paint21_linear)"/>
<path d="M35.0905 46.5017L35.6824 46.61L35.0944 49.3434L34.5005 49.2138L35.0905 46.5017Z" fill="white"/>
<path d="M43.4721 46.2715L42.9092 46.4166L43.5359 49.2312L44.0969 49.1499L43.4721 46.2715Z" fill="white"/>
<path d="M39.1371 45.5731C39.6497 45.4977 41.1141 45.8981 41.0715 45.96C40.9477 46.1844 40.3558 46.7222 40.1759 46.904C40.084 47.0068 39.9721 47.0898 39.847 47.1478C39.7328 47.1895 39.6126 47.213 39.4911 47.2174C39.0338 47.2574 38.5747 47.2742 38.1157 47.2677C38.0072 47.2745 37.8988 47.2538 37.8004 47.2077C37.4812 47.0143 37.2297 46.4069 37.4367 46.1535C37.7191 45.8227 38.7367 45.6312 39.1371 45.5731Z" fill="#FFDAD2"/>
<path d="M66.3255 53.4426H11.5059V54.6961H66.3255V53.4426Z" fill="#6E71FF"/>
<path d="M32.7306 52.5757H16.2339L17.0057 48.7166H32.249L32.7306 52.5757Z" fill="#6E71FF"/>
<path d="M32.6668 52.6667H16.3335L17.0983 48.6667H32.1888L32.6668 52.6667Z" fill="url(#paint22_linear)"/>
<path d="M52.7436 50.4846H50.3469C49.9965 50.4846 49.7124 50.7687 49.7124 51.1191C49.7124 51.4695 49.9965 51.7536 50.3469 51.7536H52.7436C53.0941 51.7536 53.3781 51.4695 53.3781 51.1191C53.3781 50.7687 53.0941 50.4846 52.7436 50.4846Z" fill="#6E71FF"/>
<path d="M52.7436 50.4846H50.3469C49.9965 50.4846 49.7124 50.7687 49.7124 51.1191C49.7124 51.4695 49.9965 51.7536 50.3469 51.7536H52.7436C53.0941 51.7536 53.3781 51.4695 53.3781 51.1191C53.3781 50.7687 53.0941 50.4846 52.7436 50.4846Z" fill="url(#paint23_linear)"/>
<path d="M55.402 43.3545C55.2975 43.1939 55.3556 42.9347 55.1892 42.8418C55.1151 42.8139 55.0361 42.8014 54.9571 42.8051C54.6437 42.778 54.4154 42.5033 54.2452 42.2383C54.0884 42.0107 53.9664 41.761 53.8835 41.4974C53.8012 41.2315 53.8012 40.947 53.8835 40.6811C53.8957 40.6326 53.9177 40.587 53.9479 40.5471C53.9781 40.5073 54.0161 40.4739 54.0595 40.449C54.1535 40.4207 54.2546 40.4275 54.3439 40.4683C54.8192 40.6524 55.2329 40.9668 55.5374 41.3755C55.698 41.5787 55.8043 41.8205 55.9591 42.0236C56.1854 42.3176 56.228 41.8301 56.2067 41.658C56.1871 41.5029 56.2264 41.3462 56.317 41.2189C56.3472 41.1834 56.3708 41.1428 56.3866 41.0989C56.3921 41.0606 56.3888 41.0216 56.3769 40.9848C56.3112 40.772 56.1081 40.6192 56.0558 40.4045C56.0343 40.2757 56.0402 40.1439 56.0732 40.0176C56.1429 39.65 56.2493 38.9749 56.6439 38.8028C56.7483 38.7663 56.8609 38.7604 56.9685 38.7857C57.0761 38.8111 57.1742 38.8667 57.2513 38.9459C57.4517 39.1586 57.6324 39.3891 57.791 39.6346C57.8766 39.7573 57.93 39.8995 57.9463 40.0483C57.9625 40.197 57.941 40.3474 57.8839 40.4857C57.794 40.6237 57.7286 40.7762 57.6904 40.9364C57.6672 41.2982 58.1276 41.5593 58.0908 41.9191C58.0541 42.2789 57.6208 42.4105 57.5221 42.7335C57.4525 42.9656 57.6769 43.573 57.9922 43.4589C58.2127 43.3777 58.3481 42.7296 58.4429 42.5246C58.7623 41.848 59.1723 41.218 59.6616 40.6521C59.7893 40.5051 60.0078 40.3542 60.1568 40.4799C60.1862 40.5108 60.2092 40.5472 60.2245 40.5871C60.2398 40.6269 60.247 40.6694 60.2458 40.712C60.2405 41.0071 60.1656 41.2967 60.0272 41.5574L59.1528 43.575C59.9679 42.7014 61.0372 42.1065 62.2092 41.8746C62.7064 41.776 62.3214 42.66 61.9945 42.7567C61.8301 42.8051 61.6405 42.7915 61.5051 42.896C61.4029 43.0016 61.329 43.1314 61.2904 43.2732C61.1903 43.501 61.0306 43.6975 60.828 43.8419C60.505 44.0702 60.0988 44.1437 59.7293 44.2868C59.4674 44.3743 59.2363 44.5355 59.0638 44.7511C58.9188 44.9446 58.9284 45.2115 58.7834 45.4088C58.6383 45.6061 58.323 45.6177 58.0657 45.6023C57.7374 45.5853 57.4105 45.5478 57.0869 45.4901C56.8528 45.4417 56.4311 45.3798 56.3131 45.1612C56.1462 44.9155 56.045 44.6311 56.0191 44.3352C56.0191 44.1205 56.0906 43.8768 55.9572 43.7104C55.8237 43.544 55.5239 43.5363 55.402 43.3545Z" fill="#6E71FF"/>
<path d="M55.402 43.3545C55.2975 43.1939 55.3556 42.9347 55.1892 42.8418C55.1151 42.8139 55.0361 42.8014 54.9571 42.8051C54.6437 42.778 54.4154 42.5033 54.2452 42.2383C54.0884 42.0107 53.9664 41.761 53.8835 41.4974C53.8012 41.2315 53.8012 40.947 53.8835 40.6811C53.8957 40.6326 53.9177 40.587 53.9479 40.5471C53.9781 40.5073 54.0161 40.4739 54.0595 40.449C54.1535 40.4207 54.2546 40.4275 54.3439 40.4683C54.8192 40.6524 55.2329 40.9668 55.5374 41.3755C55.698 41.5787 55.8043 41.8205 55.9591 42.0236C56.1854 42.3176 56.228 41.8301 56.2067 41.658C56.1871 41.5029 56.2264 41.3462 56.317 41.2189C56.3472 41.1834 56.3708 41.1428 56.3866 41.0989C56.3921 41.0606 56.3888 41.0216 56.3769 40.9848C56.3112 40.772 56.1081 40.6192 56.0558 40.4045C56.0343 40.2757 56.0402 40.1439 56.0732 40.0176C56.1429 39.65 56.2493 38.9749 56.6439 38.8028C56.7483 38.7663 56.8609 38.7604 56.9685 38.7857C57.0761 38.8111 57.1742 38.8667 57.2513 38.9459C57.4517 39.1586 57.6324 39.3891 57.791 39.6346C57.8766 39.7573 57.93 39.8995 57.9463 40.0483C57.9625 40.197 57.941 40.3474 57.8839 40.4857C57.794 40.6237 57.7286 40.7762 57.6904 40.9364C57.6672 41.2982 58.1276 41.5593 58.0908 41.9191C58.0541 42.2789 57.6208 42.4105 57.5221 42.7335C57.4525 42.9656 57.6769 43.573 57.9922 43.4589C58.2127 43.3777 58.3481 42.7296 58.4429 42.5246C58.7623 41.848 59.1723 41.218 59.6616 40.6521C59.7893 40.5051 60.0078 40.3542 60.1568 40.4799C60.1862 40.5108 60.2092 40.5472 60.2245 40.5871C60.2398 40.6269 60.247 40.6694 60.2458 40.712C60.2405 41.0071 60.1656 41.2967 60.0272 41.5574L59.1528 43.575C59.9679 42.7014 61.0372 42.1065 62.2092 41.8746C62.7064 41.776 62.3214 42.66 61.9945 42.7567C61.8301 42.8051 61.6405 42.7915 61.5051 42.896C61.4029 43.0016 61.329 43.1314 61.2904 43.2732C61.1903 43.501 61.0306 43.6975 60.828 43.8419C60.505 44.0702 60.0988 44.1437 59.7293 44.2868C59.4674 44.3743 59.2363 44.5355 59.0638 44.7511C58.9188 44.9446 58.9284 45.2115 58.7834 45.4088C58.6383 45.6061 58.323 45.6177 58.0657 45.6023C57.7374 45.5853 57.4105 45.5478 57.0869 45.4901C56.8528 45.4417 56.4311 45.3798 56.3131 45.1612C56.1462 44.9155 56.045 44.6311 56.0191 44.3352C56.0191 44.1205 56.0906 43.8768 55.9572 43.7104C55.8237 43.544 55.5239 43.5363 55.402 43.3545Z" fill="url(#paint24_linear)"/>
<path d="M57.6904 48.7477C58.6968 48.7477 59.5126 47.9319 59.5126 46.9255C59.5126 45.9191 58.6968 45.1033 57.6904 45.1033C56.684 45.1033 55.8682 45.9191 55.8682 46.9255C55.8682 47.9319 56.684 48.7477 57.6904 48.7477Z" fill="#6E71FF"/>
<path d="M59.5107 45.0083C59.4953 45.4805 59.2969 45.9283 58.9574 46.2569C58.6179 46.5855 58.1639 46.7693 57.6914 46.7693C57.2189 46.7693 56.7649 46.5855 56.4254 46.2569C56.0859 45.9283 55.8875 45.4805 55.8721 45.0083H59.5107Z" fill="#6E71FF"/>
<path d="M59.5165 46.9273C59.5167 47.2113 59.4505 47.4915 59.3232 47.7454C59.1959 47.9993 59.011 48.2199 58.7832 48.3896C58.5555 48.5594 58.2912 48.6735 58.0115 48.723C57.7318 48.7724 57.4444 48.7558 57.1723 48.6744C56.9001 48.593 56.6508 48.4492 56.4441 48.2543C56.2375 48.0594 56.0792 47.8189 55.9821 47.552C55.8849 47.2851 55.8514 46.9992 55.8844 46.7171C55.9173 46.435 56.0158 46.1645 56.1719 45.9272C55.9927 45.6529 55.8905 45.3356 55.8759 45.0083H59.5146C59.4994 45.3357 59.3965 45.6531 59.2167 45.9272C59.4129 46.2237 59.5172 46.5716 59.5165 46.9273Z" fill="url(#paint25_linear)"/>
<defs>
<linearGradient id="paint0_linear" x1="19.6435" y1="1.56931" x2="21.1194" y2="36.1684" gradientUnits="userSpaceOnUse">
<stop offset="0.02" stop-color="white" stop-opacity="0"/>
<stop offset="0.58" stop-color="white" stop-opacity="0.39"/>
<stop offset="1" stop-color="white"/>
</linearGradient>
<linearGradient id="paint1_linear" x1="29.6887" y1="-3.24295" x2="32.1148" y2="45.6413" gradientUnits="userSpaceOnUse">
<stop offset="0.02" stop-color="white" stop-opacity="0"/>
<stop offset="0.58" stop-color="white" stop-opacity="0.39"/>
<stop offset="1" stop-color="white"/>
</linearGradient>
<linearGradient id="paint2_linear" x1="18.6907" y1="8.38729" x2="21.12" y2="57.2992" gradientUnits="userSpaceOnUse">
<stop offset="0.02" stop-color="white" stop-opacity="0"/>
<stop offset="0.58" stop-color="white" stop-opacity="0.39"/>
<stop offset="1" stop-color="white"/>
</linearGradient>
<linearGradient id="paint3_linear" x1="29.6878" y1="8.39984" x2="32.1134" y2="57.2748" gradientUnits="userSpaceOnUse">
<stop offset="0.02" stop-color="white" stop-opacity="0"/>
<stop offset="0.58" stop-color="white" stop-opacity="0.39"/>
<stop offset="1" stop-color="white"/>
</linearGradient>
<linearGradient id="paint4_linear" x1="18.6907" y1="20.0412" x2="21.1164" y2="68.9162" gradientUnits="userSpaceOnUse">
<stop offset="0.02" stop-color="white" stop-opacity="0"/>
<stop offset="0.58" stop-color="white" stop-opacity="0.39"/>
<stop offset="1" stop-color="white"/>
</linearGradient>
<linearGradient id="paint5_linear" x1="29.6878" y1="20.0412" x2="32.1134" y2="68.9162" gradientUnits="userSpaceOnUse">
<stop offset="0.02" stop-color="white" stop-opacity="0"/>
<stop offset="0.58" stop-color="white" stop-opacity="0.39"/>
<stop offset="1" stop-color="white"/>
</linearGradient>
<linearGradient id="paint6_linear" x1="48.5985" y1="-3.24295" x2="51.025" y2="45.6413" gradientUnits="userSpaceOnUse">
<stop offset="0.02" stop-color="white" stop-opacity="0"/>
<stop offset="0.58" stop-color="white" stop-opacity="0.39"/>
<stop offset="1" stop-color="white"/>
</linearGradient>
<linearGradient id="paint7_linear" x1="59.1216" y1="-1.07198" x2="61.1634" y2="41.3649" gradientUnits="userSpaceOnUse">
<stop offset="0.02" stop-color="white" stop-opacity="0"/>
<stop offset="0.58" stop-color="white" stop-opacity="0.39"/>
<stop offset="1" stop-color="white"/>
</linearGradient>
<linearGradient id="paint8_linear" x1="48.5985" y1="8.39984" x2="51.0241" y2="57.2748" gradientUnits="userSpaceOnUse">
<stop offset="0.02" stop-color="white" stop-opacity="0"/>
<stop offset="0.58" stop-color="white" stop-opacity="0.39"/>
<stop offset="1" stop-color="white"/>
</linearGradient>
<linearGradient id="paint9_linear" x1="59.5975" y1="8.39984" x2="62.0231" y2="57.2748" gradientUnits="userSpaceOnUse">
<stop offset="0.02" stop-color="white" stop-opacity="0"/>
<stop offset="0.58" stop-color="white" stop-opacity="0.39"/>
<stop offset="1" stop-color="white"/>
</linearGradient>
<linearGradient id="paint10_linear" x1="48.5985" y1="20.0412" x2="51.0241" y2="68.9162" gradientUnits="userSpaceOnUse">
<stop offset="0.02" stop-color="white" stop-opacity="0"/>
<stop offset="0.58" stop-color="white" stop-opacity="0.39"/>
<stop offset="1" stop-color="white"/>
</linearGradient>
<linearGradient id="paint11_linear" x1="59.5975" y1="20.0412" x2="62.0231" y2="68.9162" gradientUnits="userSpaceOnUse">
<stop offset="0.02" stop-color="white" stop-opacity="0"/>
<stop offset="0.58" stop-color="white" stop-opacity="0.39"/>
<stop offset="1" stop-color="white"/>
</linearGradient>
<linearGradient id="paint12_linear" x1="39.0002" y1="33.3333" x2="37.7088" y2="88.5479" gradientUnits="userSpaceOnUse">
<stop stop-opacity="0"/>
<stop offset="0.932855" stop-opacity="0.75"/>
<stop offset="1"/>
</linearGradient>
<linearGradient id="paint13_linear" x1="39.0002" y1="50.3333" x2="39.0228" y2="61.1185" gradientUnits="userSpaceOnUse">
<stop stop-opacity="0"/>
<stop offset="0.932855" stop-opacity="0.75"/>
<stop offset="1"/>
</linearGradient>
<linearGradient id="paint14_linear" x1="2939.56" y1="2693.94" x2="2824.85" y2="1857.52" gradientUnits="userSpaceOnUse">
<stop offset="0.01"/>
<stop offset="0.83" stop-opacity="0.07"/>
<stop offset="1" stop-opacity="0"/>
</linearGradient>
<linearGradient id="paint15_linear" x1="39.5086" y1="50.0051" x2="38.7851" y2="39.8765" gradientUnits="userSpaceOnUse">
<stop offset="0.01"/>
<stop offset="1" stop-opacity="0"/>
</linearGradient>
<linearGradient id="paint16_linear" x1="39" y1="26.8332" x2="38.5739" y2="59.9369" gradientUnits="userSpaceOnUse">
<stop stop-opacity="0"/>
<stop offset="0.932855" stop-opacity="0.75"/>
<stop offset="1"/>
</linearGradient>
<linearGradient id="paint17_linear" x1="39.3365" y1="31.0902" x2="38.5647" y2="36.6362" gradientUnits="userSpaceOnUse">
<stop offset="0.01"/>
<stop offset="0.12" stop-opacity="0.75"/>
<stop offset="1" stop-opacity="0"/>
</linearGradient>
<linearGradient id="paint18_linear" x1="1572.64" y1="555.193" x2="1560.31" y2="936.65" gradientUnits="userSpaceOnUse">
<stop offset="0.01"/>
<stop offset="0.83" stop-opacity="0.07"/>
<stop offset="1" stop-opacity="0"/>
</linearGradient>
<linearGradient id="paint19_linear" x1="405.232" y1="109.499" x2="423.139" y2="109.499" gradientUnits="userSpaceOnUse">
<stop offset="0.01"/>
<stop offset="0.83" stop-opacity="0.07"/>
<stop offset="1" stop-opacity="0"/>
</linearGradient>
<linearGradient id="paint20_linear" x1="30.9998" y1="52.6667" x2="30.4466" y2="40.6982" gradientUnits="userSpaceOnUse">
<stop offset="0.01"/>
<stop offset="1" stop-opacity="0"/>
</linearGradient>
<linearGradient id="paint21_linear" x1="47.6667" y1="51.4999" x2="46.9769" y2="40.1235" gradientUnits="userSpaceOnUse">
<stop offset="0.01"/>
<stop offset="1" stop-opacity="0"/>
</linearGradient>
<linearGradient id="paint22_linear" x1="15.5002" y1="50.6667" x2="31.8309" y2="50.873" gradientUnits="userSpaceOnUse">
<stop offset="0.02" stop-color="white" stop-opacity="0"/>
<stop offset="0.58" stop-color="white" stop-opacity="0.39"/>
<stop offset="1" stop-color="white"/>
</linearGradient>
<linearGradient id="paint23_linear" x1="51.6665" y1="49.8332" x2="51.5708" y2="52.6634" gradientUnits="userSpaceOnUse">
<stop stop-opacity="0"/>
<stop offset="0.932855" stop-opacity="0.75"/>
<stop offset="1"/>
</linearGradient>
<linearGradient id="paint24_linear" x1="58.9444" y1="16.0415" x2="41.9115" y2="44.6437" gradientUnits="userSpaceOnUse">
<stop offset="0.52893"/>
<stop offset="0.83" stop-opacity="0.07"/>
<stop offset="1" stop-opacity="0"/>
</linearGradient>
<linearGradient id="paint25_linear" x1="55.6861" y1="46.8795" x2="59.3306" y2="46.8905" gradientUnits="userSpaceOnUse">
<stop offset="0.02" stop-color="white" stop-opacity="0"/>
<stop offset="0.58" stop-color="white" stop-opacity="0.39"/>
<stop offset="1" stop-color="white"/>
</linearGradient>
</defs>
</svg>
