<svg width="80" height="80" viewBox="0 0 80 80" fill="none" xmlns="http://www.w3.org/2000/svg">
<g clip-path="url(#clip0)">
<path opacity="0.18" d="M79.7526 61.839C79.5395 64.2269 79.1607 66.6908 78.0125 68.5899C76.9846 70.3068 75.4478 71.3754 73.9207 72.3073C63.9222 78.3619 52.6137 79.904 41.5655 79.9952C33.0545 80.0711 24.3305 79.2912 16.5376 74.8978C9.01107 70.6562 2.43349 62.4898 0.578984 52.2646C0.511906 51.905 0.454693 51.5429 0.399452 51.1757C-0.0819305 47.8661 -0.0641745 44.4425 0.119303 41.0695C0.472448 34.5819 1.53386 27.8436 4.76346 22.8222C7.61427 18.3831 11.7928 15.8078 15.5926 12.7413C18.8735 10.0926 21.9393 6.99309 25.3741 4.69128C29.9117 1.65259 34.984 0.163629 40.0819 0.00916238C48.9046 -0.244062 56.3108 4.82043 64.7626 6.66643C73.6149 8.59347 73.8379 16.922 74.6941 26.8408C75.1203 31.7382 76.886 36.2506 78.0875 40.9328C79.8115 47.6656 80.3796 54.7977 79.7526 61.839Z" fill="#6E71FF"/><mask id="mask0" mask-type="alpha" maskUnits="userSpaceOnUse" x="0" y="0" width="80" height="80">
<path d="M79.7526 61.839C79.5395 64.2269 79.1607 66.6908 78.0125 68.5899C76.9846 70.3068 75.4478 71.3754 73.9207 72.3073C63.9222 78.3619 52.6137 79.904 41.5655 79.9952C33.0545 80.0711 24.3305 79.2912 16.5376 74.8978C9.01107 70.6562 2.43349 62.4898 0.578984 52.2646C0.511906 51.905 0.454693 51.5429 0.399452 51.1757C-0.0819305 47.8661 -0.0641745 44.4425 0.119303 41.0695C0.472448 34.5819 1.53386 27.8436 4.76346 22.8222C7.61427 18.3831 11.7928 15.8078 15.5926 12.7413C18.8735 10.0926 21.9393 6.99309 25.3741 4.69128C29.9117 1.65259 34.984 0.163629 40.0819 0.00916238C48.9046 -0.244062 56.3108 4.82043 64.7626 6.66643C73.6149 8.59347 73.8379 16.922 74.6941 26.8408C75.1203 31.7382 76.886 36.2506 78.0875 40.9328C79.8115 47.6656 80.3796 54.7977 79.7526 61.839Z" fill="#6E71FF"/>
</mask>
<g mask="url(#mask0)">
<path opacity="0.37" d="M77.0878 58.3604C76.8564 60.8405 76.4509 63.4023 75.2155 65.3795C74.1096 67.162 72.4559 68.2757 70.8129 69.2419C60.0549 75.537 47.898 77.1404 36.0001 77.2352C26.8426 77.3168 17.458 76.5033 9.07316 71.9353C0.977042 67.5253 -6.10228 59.0397 -8.09766 48.4004H77.2172C77.4366 51.7177 77.3932 55.0536 77.0878 58.3604Z" fill="#6E71FF"/>
<path opacity="0.74" d="M19.0422 57.4451C18.4781 58.058 17.9141 58.7141 17.9141 59.4342C17.9028 60.7503 19.7321 61.7204 21.5389 62.2054C23.9303 62.8465 26.538 63.0007 29.1062 63.1267C39.0705 63.6211 49.0762 63.8167 59.0726 64.0122C63.158 64.093 67.2922 64.1682 71.2799 63.5704C72.7651 63.3466 74.3876 62.9368 75.0024 61.9986C75.7695 60.8255 74.5888 59.3665 75.3897 58.2065C75.8127 57.5936 76.7377 57.1556 76.984 56.4994C77.2754 55.7173 76.4388 54.9033 75.369 54.5423C74.2992 54.1813 73.0528 54.1663 71.8552 54.1493C63.183 54.0654 54.5096 54.0027 45.835 53.9613L28.4105 53.8598C26.6057 53.8504 22.6556 53.2958 21.114 54.0309C19.8525 54.625 19.9013 56.5051 19.0422 57.4451Z" fill="#6E71FF"/>
<path d="M13.5418 49.1896H22.1591V41.938H13.5418C12.5802 41.938 11.658 42.32 10.978 43C10.298 43.6799 9.91602 44.6022 9.91602 45.5638C9.91602 46.5254 10.298 47.4476 10.978 48.1276C11.658 48.8076 12.5802 49.1896 13.5418 49.1896Z" fill="#6E71FF"/>
<path d="M13.5418 49.1896H22.1591V41.938H13.5418C12.5802 41.938 11.658 42.32 10.978 43C10.298 43.6799 9.91602 44.6022 9.91602 45.5638C9.91602 46.5254 10.298 47.4476 10.978 48.1276C11.658 48.8076 12.5802 49.1896 13.5418 49.1896Z" fill="url(#paint0_linear)"/>
<path d="M13.8567 56.5381C11.9897 61.3896 11.0337 66.5439 11.0366 71.7423L34.6849 83.5744L91.9523 83.6872L118.046 71.7423C118.047 66.5441 117.091 61.3901 115.226 56.5381H13.8567Z" fill="#6E71FF"/>
<path d="M13.8567 56.5381C11.9897 61.3896 11.0337 66.5439 11.0366 71.7423L34.6849 83.5744L91.9523 83.6872L118.046 71.7423C118.047 66.5441 117.091 61.3901 115.226 56.5381H13.8567Z" fill="url(#paint1_linear)"/>
<path d="M86.4772 22H42.7139C38.7062 21.9998 34.7979 23.247 31.5312 25.5687C28.2646 27.8904 25.8016 31.1713 24.4842 34.9562L21.2935 44.1133H107.91L104.715 34.9562C103.398 31.1697 100.933 27.8875 97.6651 25.5656C94.3967 23.2437 90.4864 21.9975 86.4772 22Z" fill="#6E71FF"/>
<path d="M103.724 44.1134H24.1738L27.3968 34.7306C28.4157 31.7812 30.3296 29.2232 32.8717 27.4134C35.4137 25.6037 38.4572 24.6323 41.5776 24.6348H86.9122C90.1841 24.6346 93.3662 25.7052 95.9725 27.6831C98.5789 29.661 100.466 32.4375 101.347 35.5887L103.724 44.1134Z" fill="#3E3E54"/>
<path d="M103.724 44.1134H24.1738L27.3968 34.7306C28.4157 31.7812 30.3296 29.2232 32.8717 27.4134C35.4137 25.6037 38.4572 24.6323 41.5776 24.6348H86.9122C90.1841 24.6346 93.3662 25.7052 95.9725 27.6831C98.5789 29.661 100.466 32.4375 101.347 35.5887L103.724 44.1134Z" fill="url(#paint2_linear)"/>
<path d="M13.856 56.5375C47.1219 60.7278 80.7792 60.7752 114.057 56.6786L115.193 56.5375C113.557 52.2873 111.244 48.3297 108.344 44.8182L107.752 44.1011H21.2929L20.6966 44.8182C17.8006 48.3311 15.4907 52.2884 13.856 56.5375Z" fill="#6E71FF"/>
<path d="M13.856 56.5375C47.1219 60.7278 80.7792 60.7752 114.057 56.6786L115.193 56.5375C113.557 52.2873 111.244 48.3297 108.344 44.8182L107.752 44.1011H21.2929L20.6966 44.8182C17.8006 48.3311 15.4907 52.2884 13.856 56.5375Z" fill="url(#paint3_linear)"/>
<path d="M118.751 79.9401L118.03 71.7539H116.877L106.133 74.8721C98.2629 77.1597 90.1085 78.3208 81.9127 78.3206H45.9851C37.7893 78.3208 29.6348 77.1597 21.7647 74.8721L11.0203 71.7539L10.2992 79.9401C10.1265 81.9065 10.3648 83.8873 10.9988 85.7566C11.6328 87.6259 12.6487 89.3429 13.9819 90.7986C15.3152 92.2542 16.9366 93.4166 18.7432 94.2119C20.5498 95.0072 22.5021 95.418 24.476 95.4183H104.574C106.548 95.418 108.5 95.0072 110.307 94.2119C112.113 93.4166 113.735 92.2542 115.068 90.7986C116.401 89.3429 117.417 87.6259 118.051 85.7566C118.685 83.8873 118.923 81.9065 118.751 79.9401Z" fill="#6E71FF"/>
<path d="M118.751 79.9401L118.03 71.7539H116.877L106.133 74.8721C98.2629 77.1597 90.1085 78.3208 81.9127 78.3206H45.9851C37.7893 78.3208 29.6348 77.1597 21.7647 74.8721L11.0203 71.7539L10.2992 79.9401C10.1265 81.9065 10.3648 83.8873 10.9988 85.7566C11.6328 87.6259 12.6487 89.3429 13.9819 90.7986C15.3152 92.2542 16.9366 93.4166 18.7432 94.2119C20.5498 95.0072 22.5021 95.418 24.476 95.4183H104.574C106.548 95.418 108.5 95.0072 110.307 94.2119C112.113 93.4166 113.735 92.2542 115.068 90.7986C116.401 89.3429 117.417 87.6259 118.051 85.7566C118.685 83.8873 118.923 81.9065 118.751 79.9401Z" fill="url(#paint4_linear)"/>
<path d="M64.5254 60.9126H43.0889L47.3633 73.2242H64.5254H81.6835L85.9619 60.9126H64.5254Z" fill="#6E71FF"/>
<path d="M64.5254 60.9126H43.0889L47.3633 73.2242H64.5254H81.6835L85.9619 60.9126H64.5254Z" fill="url(#paint5_linear)"/>
<path d="M64.5255 61.8877H44.6602L48.6203 72.2494H64.5255H80.4306L84.3908 61.8877H64.5255Z" fill="#6E71FF"/>
<path d="M64.5255 61.8877H44.6602L48.6203 72.2494H64.5255H80.4306L84.3908 61.8877H64.5255Z" fill="url(#paint6_linear)"/>
<path d="M84.2297 63.0723H44.6602V64.3695H84.2297V63.0723Z" fill="#6E71FF"/>
<path d="M84.2297 63.0723H44.6602V64.3695H84.2297V63.0723Z" fill="url(#paint7_linear)"/>
<path d="M83.125 66.4204H45.9404V67.7176H83.125V66.4204Z" fill="#6E71FF"/>
<path d="M83.125 66.4204H45.9404V67.7176H83.125V66.4204Z" fill="url(#paint8_linear)"/>
<path d="M81.7152 69.7681H46.8472V71.0653H81.7152V69.7681Z" fill="#6E71FF"/>
<path d="M81.7152 69.7681H46.8472V71.0653H81.7152V69.7681Z" fill="url(#paint9_linear)"/>
<path d="M87.9351 59.0435L103.723 44.1133H24.1694L40.969 59.0193C56.6107 59.9358 72.2924 59.9439 87.9351 59.0435Z" fill="#6E71FF"/>
<path d="M87.9351 59.0435L103.723 44.1133H24.1694L40.969 59.0193C56.6107 59.9358 72.2924 59.9439 87.9351 59.0435Z" fill="url(#paint10_linear)"/>
<path opacity="0.2" d="M19.7983 44.8305H12.6958C12.4575 44.8305 12.229 44.7358 12.0605 44.5674C11.892 44.3989 11.7974 44.1704 11.7974 43.9321C11.7974 43.6938 11.892 43.4653 12.0605 43.2968C12.229 43.1283 12.4575 43.0337 12.6958 43.0337H19.7983C20.0366 43.0337 20.2651 43.1283 20.4336 43.2968C20.602 43.4653 20.6967 43.6938 20.6967 43.9321C20.6967 44.1704 20.602 44.3989 20.4336 44.5674C20.2651 44.7358 20.0366 44.8305 19.7983 44.8305Z" fill="white"/>
<path d="M40.0909 61.0059C40.0909 61.0059 19.4117 59.4549 17.1678 60.313C14.9238 61.1711 13.542 68.7731 13.542 68.7731L44.5627 72.9106L40.0909 61.0059Z" fill="#6E71FF"/>
<path d="M40.0909 61.0059C40.0909 61.0059 19.4117 59.4549 17.1678 60.313C14.9238 61.1711 13.542 68.7731 13.542 68.7731L44.5627 72.9106L40.0909 61.0059Z" fill="url(#paint11_linear)"/>
<path d="M56.0203 44.1135H34.189C34.2405 44.0312 34.2984 43.9531 34.3622 43.8799C34.9651 43.2003 35.6039 42.5535 36.2758 41.9421C36.8666 41.3373 37.528 40.8057 38.2458 40.3588C39.7807 39.4645 41.5131 39.3638 43.2857 39.1502L43.5435 39.122H43.7248L44.1639 39.0616C45.2822 38.9059 46.4136 38.8667 47.54 38.9448L47.9428 38.973C48.8872 39.055 49.8235 39.2126 50.7427 39.4443C51.9457 39.6953 53.0781 40.2099 54.0583 40.951C55.0212 41.7568 55.5207 42.8526 55.9921 43.9081C56.0117 43.9381 56.0245 43.9721 56.0293 44.0076C56.0342 44.0432 56.0311 44.0794 56.0203 44.1135Z" fill="#6E71FF"/>
<path d="M56.0203 44.1135H34.189C34.2405 44.0312 34.2984 43.9531 34.3622 43.8799C34.9651 43.2003 35.6039 42.5535 36.2758 41.9421C36.8666 41.3373 37.528 40.8057 38.2458 40.3588C39.7807 39.4645 41.5131 39.3638 43.2857 39.1502L43.5435 39.122H43.7248L44.1639 39.0616C45.2822 38.9059 46.4136 38.8667 47.54 38.9448L47.9428 38.973C48.8872 39.055 49.8235 39.2126 50.7427 39.4443C51.9457 39.6953 53.0781 40.2099 54.0583 40.951C55.0212 41.7568 55.5207 42.8526 55.9921 43.9081C56.0117 43.9381 56.0245 43.9721 56.0293 44.0076C56.0342 44.0432 56.0311 44.0794 56.0203 44.1135Z" fill="url(#paint12_linear)"/>
<path d="M43.3705 40.7576C43.5704 41.0673 43.8704 41.2991 44.2205 41.4143C45.0474 41.6771 45.9195 41.7676 46.7827 41.6802C47.0735 41.6931 47.3625 41.6292 47.6207 41.4949C47.7507 41.3847 47.8544 41.2469 47.9241 41.0914C47.9938 40.9359 48.0278 40.7668 48.0236 40.5965C48.0953 39.7225 47.9572 38.844 47.6207 38.0342C47.5772 37.9001 47.4961 37.7812 47.387 37.6918C47.2736 37.6246 47.1473 37.5821 47.0164 37.5669C46.2107 37.4179 44.4179 37.164 43.7612 37.8086C43.2859 38.288 43.0683 40.1976 43.3705 40.7576Z" fill="url(#paint13_linear)"/>
<path d="M44.4905 40.6805C44.8812 40.9061 45.3244 41.0248 45.7756 41.0248C46.2268 41.0248 46.67 40.9061 47.0608 40.6805C47.237 40.5844 47.3865 40.4459 47.4959 40.2776C47.6193 40.0139 47.66 39.7189 47.6127 39.4316C47.6245 39.1369 47.5237 38.8488 47.3307 38.6258C47.1504 38.4842 46.9368 38.3912 46.7103 38.3559C46.0162 38.1936 45.2995 38.1513 44.5912 38.231C44.273 38.2421 43.9655 38.3488 43.7089 38.5372C43.6281 38.6399 43.5719 38.7597 43.5446 38.8876C43.5174 39.0154 43.5199 39.1477 43.5518 39.2745C43.5927 39.5642 43.6984 39.8411 43.8609 40.0845C44.0233 40.3279 44.2385 40.5316 44.4905 40.6805Z" fill="url(#paint14_linear)" fill-opacity="0.3"/>
<path d="M49.3772 37.1197C49.0698 37.85 48.5789 38.4886 47.9521 38.9735C47.3253 39.4584 46.5839 39.7732 45.7998 39.8874C44.5912 39.98 43.2658 39.0212 42.738 37.8207C42.2103 36.6201 42.1337 32.0073 42.1337 32.0073C42.1171 31.6971 42.1883 31.3885 42.3392 31.117C42.5043 30.7826 42.8105 29.7754 43.2295 29.4813C45.1584 29.0453 47.1644 29.084 49.0751 29.5941C49.4779 29.9003 49.6794 30.8712 49.768 31.0525C49.8113 31.161 49.8398 31.2748 49.8526 31.3909C50.0137 32.5028 49.9412 35.6774 49.3772 37.1197Z" fill="url(#paint15_linear)"/>
<path d="M42.0768 33.2401C41.9492 33.1663 41.8005 33.1373 41.6545 33.1577C41.5085 33.1782 41.3735 33.2469 41.2711 33.3529C41.1948 33.4843 41.165 33.6376 41.1865 33.788C41.186 33.938 41.1995 34.0877 41.2267 34.2352C41.3356 34.6412 41.5644 35.0048 41.8834 35.2786C41.963 35.3564 42.0541 35.4216 42.1533 35.472C42.2587 35.5231 42.3794 35.5331 42.4917 35.5002C42.5713 35.464 42.6402 35.4079 42.6917 35.3373C42.7432 35.2668 42.7756 35.1841 42.7858 35.0973C42.8548 34.7278 42.8171 34.3463 42.6771 33.9975C42.5669 33.6852 42.3557 33.4186 42.0768 33.2401Z" fill="url(#paint16_linear)"/>
<path d="M50.0902 33.1717C50.2176 33.0981 50.3658 33.0688 50.5116 33.0885C50.6575 33.1082 50.7926 33.1757 50.8959 33.2804C50.973 33.4116 51.0042 33.5647 50.9846 33.7155C50.9837 33.8656 50.9689 34.0153 50.9403 34.1627C50.8315 34.5687 50.6026 34.9324 50.2836 35.2061C50.2061 35.2865 50.1146 35.352 50.0137 35.3995C49.9088 35.452 49.7881 35.4635 49.6753 35.4317C49.5926 35.3932 49.5218 35.3333 49.4701 35.2582C49.4184 35.1832 49.3877 35.0956 49.3812 35.0047C49.3116 34.6349 49.3508 34.2529 49.494 33.9049C49.6064 33.6014 49.816 33.3436 50.0902 33.1717Z" fill="url(#paint17_linear)"/>
<path d="M49.9089 33.3565C49.8966 33.2818 49.8805 33.2079 49.8605 33.1349C49.7485 32.7388 49.5987 32.3543 49.4133 31.9867C49.1192 31.3542 48.8292 30.7298 48.5391 30.0973C48.4908 30.0006 48.4465 29.8999 48.4021 29.8032C48.4021 29.8032 48.4021 29.8032 48.4021 29.8314C48.3547 29.8764 48.2964 29.9083 48.2329 29.924C47.8378 30.0546 47.434 30.1569 47.0243 30.2302C46.4858 30.2956 45.9398 30.2628 45.4129 30.1335C44.9657 30.0207 44.5064 29.6863 44.031 29.7025H43.9626C43.7325 29.7006 43.5083 29.7757 43.3258 29.9158C43.1433 30.056 43.0129 30.2532 42.9554 30.476C42.8592 31.5034 42.6065 32.5101 42.2061 33.4612C41.6944 33.1591 41.638 32.5588 41.634 32.0391C41.63 31.5194 41.634 30.9634 41.634 30.4276C41.615 30.167 41.6493 29.9051 41.7347 29.6581C41.7915 29.5243 41.881 29.407 41.9951 29.3168C42.1091 29.2267 42.244 29.1668 42.3874 29.1425C42.6331 29.1022 42.9191 29.1747 43.1286 29.0579C43.2061 28.9991 43.2695 28.9237 43.3141 28.8373C43.3587 28.7509 43.3834 28.6555 43.3865 28.5583C43.432 28.171 43.5951 27.8068 43.8538 27.5149C44.442 26.9146 45.5579 26.8743 46.4402 27.112C47.3225 27.3497 48.0879 27.8412 48.9581 28.1313C49.5423 28.3287 50.2191 28.4616 50.5937 28.8846C50.7705 29.106 50.8859 29.37 50.9281 29.6501C51.0504 30.3047 51.0222 30.9786 50.8456 31.6207C50.669 32.2628 50.3487 32.8564 49.9089 33.3565Z" fill="#3E3E54"/>
<path d="M50.0984 32.8489C50.0426 32.9615 49.9612 33.0594 49.8607 33.135C49.7487 32.7388 49.5989 32.3543 49.4135 31.9868L48.4023 29.8032C48.6015 29.6988 48.8166 29.628 49.0389 29.5938C49.3379 29.5442 49.6444 29.6136 49.8929 29.7871C50.0617 29.9327 50.1814 30.1269 50.2354 30.3431C50.3227 30.6853 50.3647 31.0374 50.3603 31.3905C50.4183 31.8918 50.3272 32.3991 50.0984 32.8489Z" fill="url(#paint18_linear)"/>
<path d="M49.6065 29.4895C49.22 29.633 48.8595 29.8385 48.539 30.0978C48.4906 30.0012 48.4463 29.9004 48.402 29.8038C48.402 29.8038 48.402 29.8038 48.402 29.832C48.3545 29.8769 48.2962 29.9088 48.2328 29.9246C47.8377 30.0552 47.4338 30.1575 47.0242 30.2308C46.4856 30.2961 45.9396 30.2634 45.4127 30.1341C44.9655 30.0213 44.5063 29.6869 44.0309 29.703H43.9624C43.9624 29.6386 44.0148 29.5701 44.0389 29.4976C44.2686 28.849 44.4217 28.289 45.2717 28.0875C45.7723 27.98 46.2935 28.022 46.7704 28.2084C47.2058 28.4247 47.6639 28.5922 48.1361 28.708C48.4297 28.7156 48.7221 28.748 49.0103 28.8046C49.1633 28.8524 49.3001 28.9418 49.4054 29.0627C49.5106 29.1836 49.5803 29.3314 49.6065 29.4895Z" fill="#575776"/>
<path d="M45.1427 39.71C41.9963 39.71 39.3494 41.5913 38.6484 44.1133H40.127C40.7917 42.2722 42.7899 40.9347 45.1427 40.9347C47.4954 40.9347 49.4976 42.2722 50.1664 44.1133H51.649C50.9399 41.5913 48.289 39.71 45.1427 39.71Z" fill="url(#paint19_linear)"/>
<path d="M41.2917 41.2856C41.6054 41.5241 41.8847 41.8047 42.1216 42.1196C42.1594 42.1531 42.1889 42.1949 42.2078 42.2417C42.2267 42.2886 42.2344 42.3391 42.2304 42.3895C42.2062 42.4983 42.0773 42.5506 41.9685 42.5748C41.7232 42.6273 41.4687 42.619 41.2273 42.5506C41.3128 42.6228 41.3715 42.7216 41.3942 42.8312C41.4168 42.9408 41.402 43.0548 41.3522 43.1549C41.296 43.2523 41.2083 43.3277 41.1036 43.3687C40.999 43.4097 40.8834 43.4139 40.7761 43.3805C40.8194 43.4329 40.8509 43.4939 40.8684 43.5596C40.886 43.6252 40.8891 43.6939 40.8776 43.7608C40.8661 43.8278 40.8403 43.8915 40.8019 43.9475C40.7635 44.0036 40.7135 44.0507 40.6552 44.0856C40.4069 44.2126 40.1261 44.2617 39.8495 44.2266L38.5321 44.1943C38.34 44.2085 38.1484 44.162 37.9842 44.0614C37.8775 43.9706 37.8062 43.845 37.7828 43.7069C37.7321 43.2865 37.8228 42.8613 38.0406 42.4983C38.1955 42.0885 38.4359 41.7163 38.7456 41.4065C39.0988 41.1116 39.5387 40.9402 39.9984 40.9184C40.458 40.8966 40.9122 41.0255 41.2917 41.2856Z" fill="url(#paint20_linear)"/>
<path d="M50.0699 42.6551C49.7577 42.7695 49.4803 42.9624 49.2642 43.2151C49.1908 43.307 49.1485 43.4199 49.1433 43.5374C49.1393 43.5957 49.1515 43.654 49.1785 43.7059C49.2055 43.7578 49.2463 43.8012 49.2964 43.8315C49.4938 43.9443 49.7436 43.7751 49.9652 43.8315C49.943 43.8894 49.9435 43.9535 49.9667 44.0111C49.9899 44.0686 50.0339 44.1153 50.09 44.1417C50.204 44.1915 50.3293 44.2096 50.4526 44.194L51.8828 44.1497C51.9604 44.1574 52.0384 44.139 52.1044 44.0973C52.1426 44.0581 52.1677 44.008 52.1764 43.9539C52.185 43.8998 52.1768 43.8444 52.1527 43.7952C52.056 43.5293 51.7499 43.3923 51.6612 43.1063C51.5726 42.8203 51.6612 42.2764 51.1778 42.2079C50.8434 42.1636 50.36 42.5181 50.0699 42.6551Z" fill="url(#paint21_linear)"/>
<path d="M41.5776 24.6348L58.0186 44.0569L75.1364 43.9401L60.4318 24.9812L41.5776 24.6348Z" fill="url(#paint22_linear)"/>
</g>
</g>
<defs>
<linearGradient id="paint0_linear" x1="15.5602" y1="33.6833" x2="16.7647" y2="59.0195" gradientUnits="userSpaceOnUse">
<stop offset="0.01"/>
<stop offset="0.83" stop-opacity="0.07"/>
<stop offset="1" stop-opacity="0"/>
</linearGradient>
<linearGradient id="paint1_linear" x1="64.2416" y1="24.0292" x2="61.9342" y2="94.8905" gradientUnits="userSpaceOnUse">
<stop offset="0.01"/>
<stop offset="0.83" stop-opacity="0.07"/>
<stop offset="1" stop-opacity="0"/>
</linearGradient>
<linearGradient id="paint2_linear" x1="115.547" y1="12.3349" x2="32.3138" y2="-30.5498" gradientUnits="userSpaceOnUse">
<stop offset="0.079127"/>
<stop offset="0.83" stop-opacity="0.07"/>
<stop offset="1" stop-opacity="0"/>
</linearGradient>
<linearGradient id="paint3_linear" x1="71.7571" y1="-23.1229" x2="59.4336" y2="37.31" gradientUnits="userSpaceOnUse">
<stop stop-opacity="0"/>
<stop offset="0.01"/>
<stop offset="0.83" stop-opacity="0.07"/>
</linearGradient>
<linearGradient id="paint4_linear" x1="60.2918" y1="44.816" x2="61.7414" y2="127.658" gradientUnits="userSpaceOnUse">
<stop offset="0.01"/>
<stop offset="0.83" stop-opacity="0.07"/>
<stop offset="1" stop-opacity="0"/>
</linearGradient>
<linearGradient id="paint5_linear" x1="113.286" y1="79.3749" x2="64.8548" y2="51.7747" gradientUnits="userSpaceOnUse">
<stop offset="0.02" stop-color="white" stop-opacity="0"/>
<stop offset="0.58" stop-color="white" stop-opacity="0.39"/>
<stop offset="1" stop-color="white"/>
</linearGradient>
<linearGradient id="paint6_linear" x1="8464.38" y1="1619.05" x2="8472.47" y2="2387.19" gradientUnits="userSpaceOnUse">
<stop offset="0.01"/>
<stop offset="0.83" stop-opacity="0.07"/>
<stop offset="1" stop-opacity="0"/>
</linearGradient>
<linearGradient id="paint7_linear" x1="109.448" y1="65.0176" x2="107.164" y2="53.6125" gradientUnits="userSpaceOnUse">
<stop offset="0.02" stop-color="white" stop-opacity="0"/>
<stop offset="0.58" stop-color="white" stop-opacity="0.39"/>
<stop offset="1" stop-color="white"/>
</linearGradient>
<linearGradient id="paint8_linear" x1="106.824" y1="68.3657" x2="104.405" y2="57.0188" gradientUnits="userSpaceOnUse">
<stop offset="0.02" stop-color="white" stop-opacity="0"/>
<stop offset="0.58" stop-color="white" stop-opacity="0.39"/>
<stop offset="1" stop-color="white"/>
</linearGradient>
<linearGradient id="paint9_linear" x1="103.938" y1="71.7134" x2="101.373" y2="60.4338" gradientUnits="userSpaceOnUse">
<stop offset="0.02" stop-color="white" stop-opacity="0"/>
<stop offset="0.58" stop-color="white" stop-opacity="0.39"/>
<stop offset="1" stop-color="white"/>
</linearGradient>
<linearGradient id="paint10_linear" x1="71.4157" y1="-7.74695" x2="58.668" y2="78.7806" gradientUnits="userSpaceOnUse">
<stop offset="0.01"/>
<stop offset="0.83" stop-opacity="0.07"/>
<stop offset="1" stop-opacity="0"/>
</linearGradient>
<linearGradient id="paint11_linear" x1="64.333" y1="79.3335" x2="24.1719" y2="63.4752" gradientUnits="userSpaceOnUse">
<stop offset="0.02" stop-color="white" stop-opacity="0"/>
<stop offset="0.58" stop-color="white" stop-opacity="0.39"/>
<stop offset="1" stop-color="white"/>
</linearGradient>
<linearGradient id="paint12_linear" x1="47.5623" y1="44.6805" x2="47.6433" y2="34.4068" gradientUnits="userSpaceOnUse">
<stop stop-opacity="0"/>
<stop offset="0.639117" stop-opacity="0.75"/>
<stop offset="1"/>
</linearGradient>
<linearGradient id="paint13_linear" x1="43.2316" y1="39.5516" x2="48.0454" y2="39.5516" gradientUnits="userSpaceOnUse">
<stop stop-color="#E5C5D5"/>
<stop offset="0.42" stop-color="#EAD4D1"/>
<stop offset="1" stop-color="#F0E9CB"/>
</linearGradient>
<linearGradient id="paint14_linear" x1="45.6386" y1="35.7984" x2="42.4856" y2="43.3712" gradientUnits="userSpaceOnUse">
<stop offset="0.01" stop-opacity="0.53"/>
<stop offset="0.83" stop-opacity="0.07"/>
<stop offset="1" stop-opacity="0"/>
</linearGradient>
<linearGradient id="paint15_linear" x1="42.1315" y1="34.5378" x2="49.933" y2="34.5378" gradientUnits="userSpaceOnUse">
<stop stop-color="#E5C5D5"/>
<stop offset="0.42" stop-color="#EAD4D1"/>
<stop offset="1" stop-color="#F0E9CB"/>
</linearGradient>
<linearGradient id="paint16_linear" x1="41.1797" y1="34.3355" x2="42.8206" y2="34.3355" gradientUnits="userSpaceOnUse">
<stop stop-color="#E5C5D5"/>
<stop offset="0.42" stop-color="#EAD4D1"/>
<stop offset="1" stop-color="#F0E9CB"/>
</linearGradient>
<linearGradient id="paint17_linear" x1="49.3477" y1="34.2661" x2="50.9914" y2="34.2661" gradientUnits="userSpaceOnUse">
<stop stop-color="#E5C5D5"/>
<stop offset="0.42" stop-color="#EAD4D1"/>
<stop offset="1" stop-color="#F0E9CB"/>
</linearGradient>
<linearGradient id="paint18_linear" x1="419.04" y1="439.751" x2="391.346" y2="441.759" gradientUnits="userSpaceOnUse">
<stop offset="0.01"/>
<stop offset="0.83" stop-opacity="0.07"/>
<stop offset="1" stop-opacity="0"/>
</linearGradient>
<linearGradient id="paint19_linear" x1="2236" y1="575.684" x2="2231.27" y2="891.813" gradientUnits="userSpaceOnUse">
<stop offset="0.01"/>
<stop offset="0.83" stop-opacity="0.07"/>
<stop offset="1" stop-opacity="0"/>
</linearGradient>
<linearGradient id="paint20_linear" x1="37.7692" y1="42.577" x2="42.2345" y2="42.577" gradientUnits="userSpaceOnUse">
<stop stop-color="#E5C5D5"/>
<stop offset="0.42" stop-color="#EAD4D1"/>
<stop offset="1" stop-color="#F0E9CB"/>
</linearGradient>
<linearGradient id="paint21_linear" x1="49.1427" y1="43.2019" x2="52.1818" y2="43.2019" gradientUnits="userSpaceOnUse">
<stop stop-color="#E5C5D5"/>
<stop offset="0.42" stop-color="#EAD4D1"/>
<stop offset="1" stop-color="#F0E9CB"/>
</linearGradient>
<linearGradient id="paint22_linear" x1="60.037" y1="9.86972" x2="51.9635" y2="127.337" gradientUnits="userSpaceOnUse">
<stop offset="0.02" stop-color="white" stop-opacity="0"/>
<stop offset="0.39" stop-color="white" stop-opacity="0.39"/>
<stop offset="1" stop-color="white"/>
</linearGradient>
<clipPath id="clip0">
<path d="M0 0H80V80H0V0Z" fill="white"/>
</clipPath>
</defs>
</svg>
