<?xml version="1.0" encoding="UTF-8" standalone="no"?>
<!DOCTYPE svg PUBLIC "-//W3C//DTD SVG 1.1//EN" "http://www.w3.org/Graphics/SVG/1.1/DTD/svg11.dtd">
<svg version="1.1" xmlns="http://www.w3.org/2000/svg" xmlns:xlink="http://www.w3.org/1999/xlink" preserveAspectRatio="xMidYMid meet" viewBox="703 -1 228 364" width="224" height="360"><defs><path d="M724 224C726.67 224 728 225.33 728 228C728 237.6 728 242.93 728 244C728 246.67 726.67 248 724 248C714.4 248 709.07 248 708 248C705.33 248 704 246.67 704 244C704 234.4 704 229.07 704 228C704 225.33 705.33 224 708 224C717.6 224 722.93 224 724 224Z" id="hi73dUCEJ"></path><path d="M724 312C726.67 312 728 313.33 728 316C728 325.6 728 330.93 728 332C728 334.67 726.67 336 724 336C714.4 336 709.07 336 708 336C705.33 336 704 334.67 704 332C704 322.4 704 317.07 704 316C704 313.33 705.33 312 708 312C717.6 312 722.93 312 724 312Z" id="bdRF3S4zh"></path><path d="M724 136C726.67 136 728 137.33 728 140C728 149.6 728 154.93 728 156C728 158.67 726.67 160 724 160C714.4 160 709.07 160 708 160C705.33 160 704 158.67 704 156C704 146.4 704 141.07 704 140C704 137.33 705.33 136 708 136C717.6 136 722.93 136 724 136Z" id="d9nDtRJqb"></path><path d="M724 48C726.67 48 728 49.33 728 52C728 61.6 728 66.93 728 68C728 70.67 726.67 72 724 72C714.4 72 709.07 72 708 72C705.33 72 704 70.67 704 68C704 58.4 704 53.07 704 52C704 49.33 705.33 48 708 48C717.6 48 722.93 48 724 48Z" id="clb3Tr1Gb"></path><path d="M844 48C846.67 48 848 49.33 848 52C848 56.8 848 59.47 848 60C848 62.67 846.67 64 844 64C791.2 64 761.87 64 756 64C753.33 64 752 62.67 752 60C752 55.2 752 52.53 752 52C752 49.33 753.33 48 756 48C808.8 48 838.13 48 844 48Z" id="ezFYjVuoX"></path><path d="M844 136C846.67 136 848 137.33 848 140C848 144.8 848 147.47 848 148C848 150.67 846.67 152 844 152C791.2 152 761.87 152 756 152C753.33 152 752 150.67 752 148C752 143.2 752 140.53 752 140C752 137.33 753.33 136 756 136C808.8 136 838.13 136 844 136Z" id="l5vGVmPB8"></path><path d="M844 224C846.67 224 848 225.33 848 228C848 232.8 848 235.47 848 236C848 238.67 846.67 240 844 240C791.2 240 761.87 240 756 240C753.33 240 752 238.67 752 236C752 231.2 752 228.53 752 228C752 225.33 753.33 224 756 224C808.8 224 838.13 224 844 224Z" id="f4Hh1k6DHu"></path><path d="M844 312C846.67 312 848 313.33 848 316C848 320.8 848 323.47 848 324C848 326.67 846.67 328 844 328C791.2 328 761.87 328 756 328C753.33 328 752 326.67 752 324C752 319.2 752 316.53 752 316C752 313.33 753.33 312 756 312C808.8 312 838.13 312 844 312Z" id="bbVQtktyV"></path><path d="M908 72C910.67 72 912 73.33 912 76C912 85.6 912 90.93 912 92C912 94.67 910.67 96 908 96C816.8 96 766.13 96 756 96C753.33 96 752 94.67 752 92C752 82.4 752 77.07 752 76C752 73.33 753.33 72 756 72C847.2 72 897.87 72 908 72Z" id="f1RJbiiKVU"></path><path d="M908 160C910.67 160 912 161.33 912 164C912 173.6 912 178.93 912 180C912 182.67 910.67 184 908 184C816.8 184 766.13 184 756 184C753.33 184 752 182.67 752 180C752 170.4 752 165.07 752 164C752 161.33 753.33 160 756 160C847.2 160 897.87 160 908 160Z" id="f5adzv6SFm"></path><path d="M908 248C910.67 248 912 249.33 912 252C912 261.6 912 266.93 912 268C912 270.67 910.67 272 908 272C816.8 272 766.13 272 756 272C753.33 272 752 270.67 752 268C752 258.4 752 253.07 752 252C752 249.33 753.33 248 756 248C847.2 248 897.87 248 908 248Z" id="bEPTOyVld"></path><path d="M908 336C910.67 336 912 337.33 912 340C912 349.6 912 354.93 912 356C912 358.67 910.67 360 908 360C816.8 360 766.13 360 756 360C753.33 360 752 358.67 752 356C752 346.4 752 341.07 752 340C752 337.33 753.33 336 756 336C847.2 336 897.87 336 908 336Z" id="bABPvRBqT"></path><path d="M924 0C926.67 0 928 1.33 928 4C928 13.6 928 18.93 928 20C928 22.67 926.67 24 924 24C794.4 24 722.4 24 708 24C705.33 24 704 22.67 704 20C704 10.4 704 5.07 704 4C704 1.33 705.33 0 708 0C837.6 0 909.6 0 924 0Z" id="ePJeIy0D"></path></defs><g><g><use xlink:href="#hi73dUCEJ" opacity="1" fill="#e5e5fb" fill-opacity="1"></use><g><use xlink:href="#hi73dUCEJ" opacity="1" fill-opacity="0" stroke="#000000" stroke-width="1" stroke-opacity="0"></use></g></g><g><use xlink:href="#bdRF3S4zh" opacity="1" fill="#e5e5fb" fill-opacity="1"></use><g><use xlink:href="#bdRF3S4zh" opacity="1" fill-opacity="0" stroke="#000000" stroke-width="1" stroke-opacity="0"></use></g></g><g><use xlink:href="#d9nDtRJqb" opacity="1" fill="#e5e5fb" fill-opacity="1"></use><g><use xlink:href="#d9nDtRJqb" opacity="1" fill-opacity="0" stroke="#000000" stroke-width="1" stroke-opacity="0"></use></g></g><g><use xlink:href="#clb3Tr1Gb" opacity="1" fill="#e5e5fb" fill-opacity="1"></use><g><use xlink:href="#clb3Tr1Gb" opacity="1" fill-opacity="0" stroke="#000000" stroke-width="1" stroke-opacity="0"></use></g></g><g><use xlink:href="#ezFYjVuoX" opacity="1" fill="#e5e5fb" fill-opacity="1"></use><g><use xlink:href="#ezFYjVuoX" opacity="1" fill-opacity="0" stroke="#000000" stroke-width="1" stroke-opacity="0"></use></g></g><g><use xlink:href="#l5vGVmPB8" opacity="1" fill="#e5e5fb" fill-opacity="1"></use><g><use xlink:href="#l5vGVmPB8" opacity="1" fill-opacity="0" stroke="#000000" stroke-width="1" stroke-opacity="0"></use></g></g><g><use xlink:href="#f4Hh1k6DHu" opacity="1" fill="#e5e5fb" fill-opacity="1"></use><g><use xlink:href="#f4Hh1k6DHu" opacity="1" fill-opacity="0" stroke="#000000" stroke-width="1" stroke-opacity="0"></use></g></g><g><use xlink:href="#bbVQtktyV" opacity="1" fill="#e5e5fb" fill-opacity="1"></use><g><use xlink:href="#bbVQtktyV" opacity="1" fill-opacity="0" stroke="#000000" stroke-width="1" stroke-opacity="0"></use></g></g><g><use xlink:href="#f1RJbiiKVU" opacity="1" fill="#e5e5fb" fill-opacity="1"></use><g><use xlink:href="#f1RJbiiKVU" opacity="1" fill-opacity="0" stroke="#000000" stroke-width="1" stroke-opacity="0"></use></g></g><g><use xlink:href="#f5adzv6SFm" opacity="1" fill="#e5e5fb" fill-opacity="1"></use><g><use xlink:href="#f5adzv6SFm" opacity="1" fill-opacity="0" stroke="#000000" stroke-width="1" stroke-opacity="0"></use></g></g><g><use xlink:href="#bEPTOyVld" opacity="1" fill="#e5e5fb" fill-opacity="1"></use><g><use xlink:href="#bEPTOyVld" opacity="1" fill-opacity="0" stroke="#000000" stroke-width="1" stroke-opacity="0"></use></g></g><g><use xlink:href="#bABPvRBqT" opacity="1" fill="#e5e5fb" fill-opacity="1"></use><g><use xlink:href="#bABPvRBqT" opacity="1" fill-opacity="0" stroke="#000000" stroke-width="1" stroke-opacity="0"></use></g></g><g><use xlink:href="#ePJeIy0D" opacity="1" fill="#e5e5fb" fill-opacity="1"></use><g><use xlink:href="#ePJeIy0D" opacity="1" fill-opacity="0" stroke="#000000" stroke-width="1" stroke-opacity="0"></use></g></g></g></svg>