<svg width="80" height="80" viewBox="0 0 80 80" fill="none" xmlns="http://www.w3.org/2000/svg">
<g clip-path="url(#clip0)">
<path opacity="0.24" d="M71.3478 51.3287C73.0832 55.5375 74.8514 60.5265 73.3675 64.89C72.3217 67.9549 69.9395 69.8024 67.6514 71.3228C63.8601 73.8332 59.9369 75.9877 55.9117 77.77C53.4441 78.8581 50.9082 79.8154 48.3101 79.9765C42.2255 80.3419 36.5667 76.3613 30.8689 73.5421C24.8187 70.5461 18.4515 68.7869 11.9914 68.3266C10.1902 68.1958 8.36085 68.1671 6.63528 67.473C2.46536 65.7914 -0.45615 59.9202 0.0588362 54.258C0.432262 50.129 2.37017 46.477 3.17438 42.49C3.33455 41.7147 3.44195 40.9224 3.49533 40.1223C3.7394 36.247 2.51295 32.1451 3.70401 28.5761C4.34225 26.6791 5.59067 25.2384 6.92817 24.1392C11.0773 20.7201 16.2846 19.9479 20.2885 16.2577C23.0404 13.7177 25.0027 10.0035 27.253 6.72171C29.5034 3.43988 32.3394 0.410135 35.6966 0.0399917C40.3339 -0.473741 44.9908 4.0637 48.315 7.80821C51.8796 11.8208 55.7847 14.4341 60.3793 16.1348C61.8499 16.6789 63.3436 17.1112 64.8385 17.5564H64.847C66.7618 18.1307 68.6728 18.7242 70.5155 19.6017C73.7971 21.1716 76.9651 23.836 78.5198 27.9284C79.418 30.288 79.7206 32.9524 79.9 35.5865C80.1441 39.0965 80.0709 43.0707 78.1659 45.5676C76.6527 47.5523 74.284 48.1714 72.5816 49.7668C72.5157 49.8226 72.4498 49.8849 72.3839 49.9519C71.986 50.3377 71.6364 50.8022 71.3478 51.3287Z" fill="#6E71FF"/>
<path d="M78.3332 45.3333C76.8233 47.3359 74.1984 48.2235 72.4998 49.8333C62.0429 50.7493 51.7081 46.9392 41.2219 46.028C33.585 45.3745 25.9237 46.0908 18.2868 45.4115C7.75796 44.4698 17.9215 38.3702 22.2489 35.6689C23.6552 34.79 25.1651 33.8981 26.703 34.1911C27.6454 34.3795 28.5184 35.0089 29.4621 35.215C33.2976 36.0633 36.1079 30.0137 39.9531 29.2152C41.5519 28.8836 43.2176 29.5018 44.8017 29.0397C49.5955 27.6312 51.1041 17.4491 56.0148 17.3783C57.0571 17.3654 58.0762 17.8612 59.1185 17.8387C59.9015 17.8274 60.6661 17.5167 61.432 17.322C62.5657 17.0435 63.7205 16.9451 64.8718 17.029H64.8803C66.7908 17.6085 68.6976 18.2074 70.5362 19.0927C73.8104 20.6768 76.9713 23.3652 78.5226 27.4943C79.4187 29.8752 79.7207 32.5636 79.8997 35.2214C80.1432 38.7485 80.2339 42.8092 78.3332 45.3333Z" fill="#9A9CFF"/>
<path d="M78.3332 45.3333C76.8233 47.3359 74.1984 48.2235 72.4998 49.8333C62.0429 50.7493 51.7081 46.9392 41.2219 46.028C33.585 45.3745 25.9237 46.0908 18.2868 45.4115C7.75796 44.4698 17.9215 38.3702 22.2489 35.6689C23.6552 34.79 25.1651 33.8981 26.703 34.1911C27.6454 34.3795 28.5184 35.0089 29.4621 35.215C33.2976 36.0633 36.1079 30.0137 39.9531 29.2152C41.5519 28.8836 43.2176 29.5018 44.8017 29.0397C49.5955 27.6312 51.1041 17.4491 56.0148 17.3783C57.0571 17.3654 58.0762 17.8612 59.1185 17.8387C59.9015 17.8274 60.6661 17.5167 61.432 17.322C62.5657 17.0435 63.7205 16.9451 64.8718 17.029H64.8803C66.7908 17.6085 68.6976 18.2074 70.5362 19.0927C73.8104 20.6768 76.9713 23.3652 78.5226 27.4943C79.4187 29.8752 79.7207 32.5636 79.8997 35.2214C80.1432 38.7485 80.2339 42.8092 78.3332 45.3333Z" fill="url(#paint0_linear)" fill-opacity="0.7"/>
<path opacity="0.6" d="M74.6343 62.1576C74.5631 63.0551 74.3876 63.9323 74.114 64.7577C73.0576 67.9171 70.6512 69.8216 68.3398 71.3889C64.5099 73.9767 60.5468 76.1976 56.4806 78.0349C55.7409 78.3638 55.0013 78.6928 54.2456 78.9724C52.4642 79.673 50.6496 80.1943 48.8017 80.3095C42.6551 80.6861 36.9388 76.5827 31.183 73.6766C25.0713 70.5882 18.6392 68.7748 12.1134 68.3003C10.2938 68.1654 8.44593 68.1358 6.7028 67.4204C2.49045 65.687 -0.460792 59.6347 0.0594348 53.7979C0.436661 49.5415 2.39429 45.7769 3.20668 41.667C4.0425 41.7246 5.06446 41.7936 6.23928 41.8709L8.01569 41.9861C9.69718 42.0995 11.608 42.2393 13.6938 42.3873C30.1426 43.5731 57.431 45.7605 67.3129 47.9594C69.257 48.3853 71.0112 48.8064 72.5903 49.2142L73.1204 49.3475C72.718 49.7477 71.8977 50.2638 71.6066 50.8094C72.9521 54.3094 74.9449 58.3502 74.6343 62.1576Z" fill="#6E71FF"/>
<path d="M74.0002 61.7352C73.9295 62.6033 73.7553 63.4519 73.4838 64.2503C72.4352 67.3062 70.2943 69.317 68.0002 70.833C64.1988 73.3361 60.7027 75.8892 56.6668 77.6663C55.9327 77.9845 54.5138 77.7292 53.7637 77.9997C52.4276 77.7101 51.1196 77.112 49.8251 76.5504C49.0004 76.1941 48.161 75.8489 47.2935 75.8489C46.9008 75.8489 46.5068 75.9157 46.1177 75.86C45.6344 75.7932 45.1841 75.5339 44.7387 75.2746C40.4489 72.8237 36.1608 70.3638 31.8742 67.8948C29.3378 66.4408 26.783 64.9677 24.4888 62.9283C23.0206 61.627 21.6832 60.111 20.2468 58.7556C17.1316 55.8158 13.6151 53.7143 10.1255 51.6256C8.20204 50.4791 6.27942 49.3306 4.35761 48.1799L5.95925 46.7481C5.08237 46.0927 4.20712 45.4421 3.3335 44.7962C4.87396 44.5751 6.41931 44.346 7.96467 44.1249C7.35289 43.4536 6.74111 42.7807 6.12076 42.1157C5.88339 41.85 5.64235 41.5923 5.40498 41.333C5.85525 41.8198 6.85979 42.06 7.88391 42.227C8.83217 42.3861 9.79878 42.4784 10.3543 42.6582C12.0599 43.2118 13.757 43.8529 15.4259 44.5862C18.5778 45.9798 21.5168 48.0621 24.6503 49.4796C29.8174 51.8228 35.5241 51.896 40.8185 54.0722C50.9413 58.2338 61.421 60.7526 72.0192 61.5713C72.6775 61.6207 73.3407 61.67 74.0002 61.7352Z" fill="url(#paint1_linear)"/>
<path d="M16.4933 43.0646C16.163 42.8405 15.79 42.6663 15.5245 42.3692C14.9663 41.7456 15.0531 40.798 14.772 40.0131C14.6096 39.5762 14.333 39.1896 13.9704 38.8927C13.6077 38.5958 13.172 38.3992 12.7076 38.3228C12.3191 38.2639 11.8917 38.287 11.5523 38.0821C11.1288 37.826 10.9786 37.3048 10.7597 36.8643C9.81946 34.973 6.89893 34.4352 5.3344 35.8694C5.43413 34.973 4.43947 34.2265 3.53935 34.3455C2.63923 34.4646 1.93468 35.2291 1.62514 36.0755C1.3156 36.9219 1.32467 37.8413 1.33892 38.7403L1.42569 44.532C1.42569 44.7881 1.43864 45.0558 1.58111 45.267C1.72357 45.4783 1.99555 45.5974 2.24422 45.696C5.79893 47.1003 9.36745 48.4722 12.9498 49.8116C14.7397 50.4817 16.533 51.1433 18.3298 51.7964C19.7091 52.2971 21.5391 53.333 23 53.333C23.0208 51.813 20.5056 50.1612 19.7505 48.8704C18.6484 46.9919 18.4282 44.3771 16.4933 43.0646Z" fill="url(#paint2_linear)"/>
<path d="M26.9064 53.4404C26.9064 53.4404 23.7156 57.4869 26.8484 63.0708C26.8484 63.0708 25.7091 64.6662 24.6261 63.1272C23.5432 61.5882 22.8599 53.0408 25.5383 51.2745C28.2166 49.5083 26.9064 53.4404 26.9064 53.4404Z" fill="#606161"/>
<path d="M26.9064 53.4404C26.9064 53.4404 23.7156 57.4869 26.8484 63.0708C26.8484 63.0708 25.7091 64.6662 24.6261 63.1272C23.5432 61.5882 22.8599 53.0408 25.5383 51.2745C28.2166 49.5083 26.9064 53.4404 26.9064 53.4404Z" fill="url(#paint3_linear)"/>
<path d="M30.2338 55.6951C30.1665 54.2987 29.9909 52.7566 28.9346 51.8398C28.3219 51.3054 27.5132 50.4121 26.6936 50.5093C25.7109 50.6315 24.8364 51.3477 24.3428 52.1862C23.7159 53.266 23.5905 54.5652 23.5592 55.8158C23.518 57.5918 23.6381 59.368 23.9181 61.1223C24.0748 62.1426 24.3365 63.2177 25.084 63.9339C25.8316 64.6501 26.9286 64.8507 27.9677 64.9181C28.4708 64.9541 29.0052 64.9478 29.4314 64.6751C30.0803 64.2442 30.19 63.3509 30.2323 62.5735C30.3436 60.2854 30.3436 57.9832 30.2338 55.6951ZM25.6138 63.4966C24.6421 63.4966 23.8522 60.8857 23.8522 57.6682C23.8522 54.4508 24.6358 51.8461 25.6138 51.8461C26.5917 51.8461 27.3769 54.4508 27.3769 57.6682C27.3769 60.8857 26.5933 63.4966 25.6138 63.4966Z" fill="#606161"/>
<path d="M30.2338 55.6951C30.1665 54.2987 29.9909 52.7566 28.9346 51.8398C28.3219 51.3054 27.5132 50.4121 26.6936 50.5093C25.7109 50.6315 24.8364 51.3477 24.3428 52.1862C23.7159 53.266 23.5905 54.5652 23.5592 55.8158C23.518 57.5918 23.6381 59.368 23.9181 61.1223C24.0748 62.1426 24.3365 63.2177 25.084 63.9339C25.8316 64.6501 26.9286 64.8507 27.9677 64.9181C28.4708 64.9541 29.0052 64.9478 29.4314 64.6751C30.0803 64.2442 30.19 63.3509 30.2323 62.5735C30.3436 60.2854 30.3436 57.9832 30.2338 55.6951ZM25.6138 63.4966C24.6421 63.4966 23.8522 60.8857 23.8522 57.6682C23.8522 54.4508 24.6358 51.8461 25.6138 51.8461C26.5917 51.8461 27.3769 54.4508 27.3769 57.6682C27.3769 60.8857 26.5933 63.4966 25.6138 63.4966Z" fill="url(#paint4_linear)"/>
<path d="M24.0371 46.7893C23.7848 47.1231 23.5669 47.504 23.5466 47.9224C23.5262 48.3408 23.7754 48.7938 24.1829 48.8894C24.6718 49.0038 25.1639 48.5916 25.6576 48.6856C25.7711 48.7258 25.892 48.7402 26.0118 48.7279C26.1889 48.6794 26.2609 48.4709 26.3017 48.2907C26.391 47.8911 26.4584 47.4867 26.5195 47.0808C26.5729 46.8171 26.5729 46.5453 26.5195 46.2816C26.0525 44.5624 24.6326 45.9979 24.0371 46.7893Z" fill="#6E71FF"/>
<path d="M23.1337 44.8836C23.0693 45.0757 23.0533 45.2807 23.0871 45.4805C23.1208 45.6803 23.2034 45.8687 23.3274 46.029C23.4514 46.1893 23.613 46.3165 23.7979 46.3993C23.9828 46.4822 24.1854 46.5182 24.3875 46.504C24.5943 46.4752 24.7986 46.4306 24.9987 46.3708C25.3806 46.2783 25.7758 46.2533 26.1663 46.2972C26.2256 46.3114 26.2879 46.3053 26.3434 46.2799C26.4264 46.2266 26.4233 46.106 26.4076 46.0088C26.3026 45.338 26.0236 43.9385 25.2651 43.7191C24.5066 43.4997 23.3657 44.1909 23.1337 44.8836Z" fill="#606161"/>
<path d="M23.1337 44.8836C23.0693 45.0757 23.0533 45.2807 23.0871 45.4805C23.1208 45.6803 23.2034 45.8687 23.3274 46.029C23.4514 46.1893 23.613 46.3165 23.7979 46.3993C23.9828 46.4822 24.1854 46.5182 24.3875 46.504C24.5943 46.4752 24.7986 46.4306 24.9987 46.3708C25.3806 46.2783 25.7758 46.2533 26.1663 46.2972C26.2256 46.3114 26.2879 46.3053 26.3434 46.2799C26.4264 46.2266 26.4233 46.106 26.4076 46.0088C26.3026 45.338 26.0236 43.9385 25.2651 43.7191C24.5066 43.4997 23.3657 44.1909 23.1337 44.8836Z" fill="url(#paint5_linear)"/>
<path d="M19.9501 53.5547C19.4454 53.3462 18.853 53.1582 18.3829 53.4308C17.8312 53.7443 17.756 54.5028 17.7466 55.1407C17.7466 55.65 17.7466 56.2063 18.06 56.6013C18.2763 56.8708 18.6038 57.0197 18.9188 57.1592L25.7957 60.2168C26.0652 60.3359 26.41 60.444 26.6232 60.2434C26.7167 60.1373 26.7753 60.0048 26.7909 59.8642C27.1607 57.9287 26.0386 57.0887 24.6125 56.1029C23.1536 55.0897 21.5906 54.2354 19.9501 53.5547Z" fill="#6E71FF"/>
<path d="M19.9917 54.4326C19.4871 54.2758 18.8947 54.1364 18.4245 54.3401C17.8729 54.5767 17.7977 55.1394 17.7883 55.6142C17.7804 55.9935 17.7883 56.4088 18.1017 56.7034C18.358 56.8977 18.6505 57.0389 18.9621 57.1187C21.2533 57.8788 23.507 59.3676 25.7951 60.1277C26.0646 60.2171 26.4094 60.297 26.6225 60.1465C26.7105 60.0757 26.77 59.9756 26.7902 59.8644C27.1601 58.4226 25.8389 57.7957 24.4128 57.0592C22.9553 56.3053 21.631 54.9388 19.9917 54.4326Z" fill="url(#paint6_linear)" fill-opacity="0.5"/>
<path d="M26.8708 61.4523C26.8433 61.6787 26.7313 61.8863 26.5574 62.0338C26.375 62.1783 26.1475 62.2538 25.9149 62.2469C25.8537 62.2469 25.7863 62.2469 25.7205 62.2344C25.3811 62.1776 25.0503 62.0775 24.7363 61.9366C24.0108 61.6454 23.2662 61.404 22.5078 61.2141C21.6756 61.0151 20.8027 60.8631 20.0974 60.3772C19.7398 60.1309 19.4633 59.7841 19.3029 59.3805C19.2127 59.1888 19.166 58.9796 19.166 58.7677C19.166 58.5559 19.2127 58.3467 19.3029 58.155C19.8373 57.0579 20.9531 57.5046 21.7681 57.8932C22.9027 58.4465 24.0499 58.9903 25.1971 59.5153C25.7205 59.7519 26.2659 60.0058 26.6076 60.4681C26.8192 60.7499 26.9136 61.1026 26.8708 61.4523Z" fill="#6E71FF"/>
<path d="M26.5539 62.0947C26.3576 62.2035 26.1357 62.2576 25.9113 62.2514C25.8502 62.2514 25.7828 62.2514 25.717 62.2388C25.3775 62.1821 25.0468 62.082 24.7328 61.9411C24.0072 61.6499 23.2626 61.4085 22.5042 61.2186C21.672 61.0196 20.7991 60.8675 20.0939 60.3817C19.7362 60.1354 19.4597 59.7885 19.2993 59.385C19.8337 58.6202 20.9496 58.9242 21.7645 59.2032C22.8992 59.5919 24.0463 59.968 25.1935 60.3331C25.717 60.5024 26.2624 60.6795 26.604 61.007C26.7354 61.1265 26.8268 61.2835 26.8657 61.4568C26.8904 61.5826 26.8733 61.713 26.817 61.8282C26.7607 61.9433 26.6683 62.0369 26.5539 62.0947Z" fill="url(#paint7_linear)" fill-opacity="0.5"/>
<path d="M23.9841 49.4823C23.303 50.8366 22.7641 52.2578 22.3761 53.7231C22.3009 54.0068 22.2461 54.35 22.4529 54.56C22.6598 54.77 22.9779 54.7167 23.2005 54.56C23.4092 54.3857 23.5745 54.1652 23.6832 53.9159C23.9748 53.4056 24.2147 52.8675 24.3994 52.3095C24.3451 53.3321 24.6013 54.3471 25.1344 55.2214C25.346 54.6666 25.1814 54.0476 25.0686 53.4646C24.9371 52.7821 24.8803 52.0874 24.8993 51.3927C25.2817 51.4633 25.5262 51.8394 25.661 52.2045C25.7958 52.5697 25.8694 52.9709 26.1155 53.2718C26.2722 53.0446 26.2722 52.7499 26.2722 52.4741V49.2112C26.2832 49.1047 26.2596 48.9975 26.2048 48.9056C26.1193 48.8191 26.0036 48.7691 25.882 48.7661C25.1031 48.6627 24.3633 48.7254 23.9841 49.4823Z" fill="#6E71FF"/>
<path d="M23.9841 49.4823C23.303 50.8366 22.7641 52.2578 22.3761 53.7231C22.3009 54.0068 22.2461 54.35 22.4529 54.56C22.6598 54.77 22.9779 54.7167 23.2005 54.56C23.4092 54.3857 23.5745 54.1652 23.6832 53.9159C23.9748 53.4056 24.2147 52.8675 24.3994 52.3095C24.3451 53.3321 24.6013 54.3471 25.1344 55.2214C25.346 54.6666 25.1814 54.0476 25.0686 53.4646C24.9371 52.7821 24.8803 52.0874 24.8993 51.3927C25.2817 51.4633 25.5262 51.8394 25.661 52.2045C25.7958 52.5697 25.8694 52.9709 26.1155 53.2718C26.2722 53.0446 26.2722 52.7499 26.2722 52.4741V49.2112C26.2832 49.1047 26.2596 48.9975 26.2048 48.9056C26.1193 48.8191 26.0036 48.7691 25.882 48.7661C25.1031 48.6627 24.3633 48.7254 23.9841 49.4823Z" fill="url(#paint8_linear)"/>
<path d="M26.593 27.9861C26.267 28.3183 26.0006 28.7038 25.6965 29.0565C24.7186 30.1911 23.2877 31.1142 23.0433 32.592C23.0122 32.7153 23.0072 32.8437 23.0288 32.9689C23.0504 33.0942 23.0981 33.2135 23.1686 33.3192C23.3199 33.4713 23.516 33.5708 23.7281 33.6029C25.0362 33.9158 26.4103 33.7982 27.6461 33.2675C26.2137 34.3003 25.7482 36.1919 25.4254 37.9283C25.2765 38.7323 25.1543 39.6319 25.6119 40.3073C26.2388 41.2383 27.5866 41.2477 28.7071 41.1536L32.9495 40.8026C33.5764 40.7509 34.2158 40.6976 34.8082 40.4797C35.4006 40.2619 35.9522 39.8529 36.2045 39.2824C36.565 38.4659 36.2641 37.5256 36.286 36.6323C36.3126 35.7477 36.6596 34.9028 37.2624 34.2548C37.348 34.1532 37.455 34.0719 37.5758 34.0166C37.7287 33.9725 37.8897 33.965 38.046 33.9947L43.4074 34.5761C44.1283 34.6545 44.8743 34.7328 45.567 34.515C46.2597 34.2972 46.8912 33.7063 46.9148 32.9807C46.9278 32.8003 46.8822 32.6206 46.7847 32.4682C46.6634 32.3184 46.5051 32.2028 46.3255 32.1329C44.4449 31.2443 42.1082 31.3289 40.5112 29.9968C39.8953 29.4843 39.4392 28.7916 38.7873 28.334C38.1776 27.9061 37.4411 27.7071 36.7202 27.5237C35.0417 27.0865 33.0153 26.165 31.2726 26.27C29.627 26.3672 27.7778 26.7699 26.593 27.9861Z" fill="#6E71FF"/>
<path d="M26.593 27.9861C26.267 28.3183 26.0006 28.7038 25.6965 29.0565C24.7186 30.1911 23.2877 31.1142 23.0433 32.592C23.0122 32.7153 23.0072 32.8437 23.0288 32.9689C23.0504 33.0942 23.0981 33.2135 23.1686 33.3192C23.3199 33.4713 23.516 33.5708 23.7281 33.6029C25.0362 33.9158 26.4103 33.7982 27.6461 33.2675C26.2137 34.3003 25.7482 36.1919 25.4254 37.9283C25.2765 38.7323 25.1543 39.6319 25.6119 40.3073C26.2388 41.2383 27.5866 41.2477 28.7071 41.1536L32.9495 40.8026C33.5764 40.7509 34.2158 40.6976 34.8082 40.4797C35.4006 40.2619 35.9522 39.8529 36.2045 39.2824C36.565 38.4659 36.2641 37.5256 36.286 36.6323C36.3126 35.7477 36.6596 34.9028 37.2624 34.2548C37.348 34.1532 37.455 34.0719 37.5758 34.0166C37.7287 33.9725 37.8897 33.965 38.046 33.9947L43.4074 34.5761C44.1283 34.6545 44.8743 34.7328 45.567 34.515C46.2597 34.2972 46.8912 33.7063 46.9148 32.9807C46.9278 32.8003 46.8822 32.6206 46.7847 32.4682C46.6634 32.3184 46.5051 32.2028 46.3255 32.1329C44.4449 31.2443 42.1082 31.3289 40.5112 29.9968C39.8953 29.4843 39.4392 28.7916 38.7873 28.334C38.1776 27.9061 37.4411 27.7071 36.7202 27.5237C35.0417 27.0865 33.0153 26.165 31.2726 26.27C29.627 26.3672 27.7778 26.7699 26.593 27.9861Z" fill="url(#paint9_linear)"/>
<path d="M36.2676 37.7289C36.2967 37.9358 36.2801 38.1465 36.219 38.3464C36.1502 38.5012 36.0499 38.64 35.9244 38.7538C35.392 39.281 34.7189 39.6434 33.9858 39.7976C33.967 38.0455 34.5641 36.3497 35.0719 34.676C35.3248 33.8801 35.5212 33.0673 35.6596 32.2437C35.7865 31.4178 35.6329 30.5856 35.7238 29.7832C35.9667 31.037 35.915 32.4286 36.0012 33.709L36.2676 37.7289Z" fill="url(#paint10_linear)"/>
<path d="M31.5219 32.4712C30.7743 33.0903 29.3278 33.924 28.3875 34.2139C27.9612 34.3487 27.5083 34.3942 27.0914 34.5587C26.7714 34.698 26.4676 34.8719 26.1856 35.0775L22.2676 37.7182C22.2294 37.7387 22.1979 37.7697 22.1767 37.8075C22.1266 37.9204 22.2629 38.0207 22.3757 38.0677C23.3035 38.4563 24.6842 39.9201 25.6104 40.3072C25.0776 39.2807 25.6512 37.3123 26.2561 36.5459C27.1729 35.3831 28.621 34.8079 29.9437 34.1434C31.2398 33.493 32.5923 32.5872 33.0107 31.1172C33.148 30.6295 33.23 30.128 33.2552 29.6221C32.6565 30.2678 32.5186 31.6438 31.5219 32.4712Z" fill="#6E71FF"/>
<path d="M31.5219 32.4712C30.7743 33.0903 29.3278 33.924 28.3875 34.2139C27.9612 34.3487 27.5083 34.3942 27.0914 34.5587C26.7714 34.698 26.4676 34.8719 26.1856 35.0775L22.2676 37.7182C22.2294 37.7387 22.1979 37.7697 22.1767 37.8075C22.1266 37.9204 22.2629 38.0207 22.3757 38.0677C23.3035 38.4563 24.6842 39.9201 25.6104 40.3072C25.0776 39.2807 25.6512 37.3123 26.2561 36.5459C27.1729 35.3831 28.621 34.8079 29.9437 34.1434C31.2398 33.493 32.5923 32.5872 33.0107 31.1172C33.148 30.6295 33.23 30.128 33.2552 29.6221C32.6565 30.2678 32.5186 31.6438 31.5219 32.4712Z" fill="url(#paint11_linear)"/>
<path d="M37.8226 32.8871C37.2913 32.5737 36.7976 32.1975 36.2178 32.0001C35.6708 31.8136 35.0831 31.8042 34.5064 31.7948C31.2999 31.7493 28.0809 31.7039 24.8932 31.9828C24.4842 32.0189 23.9717 32.1537 23.9153 32.5596C23.873 32.8526 24.1269 33.1206 24.4105 33.2052C24.7008 33.2679 25.001 33.2679 25.2913 33.2052C26.4319 33.0725 27.58 33.0149 28.7281 33.0329L34.0566 32.9999C34.3636 32.9867 34.6712 33.0083 34.9734 33.0642C35.4107 33.1614 35.8009 33.398 36.2178 33.561C37.064 33.8948 37.995 33.923 38.9039 33.9465C39.2722 33.9575 39.8317 33.7287 39.36 33.3776C39.2033 33.2617 38.8193 33.3008 38.625 33.246C38.3436 33.1601 38.0741 33.0396 37.8226 32.8871Z" fill="#6E71FF"/>
<path d="M37.8226 32.8871C37.2913 32.5737 36.7976 32.1975 36.2178 32.0001C35.6708 31.8136 35.0831 31.8042 34.5064 31.7948C31.2999 31.7493 28.0809 31.7039 24.8932 31.9828C24.4842 32.0189 23.9717 32.1537 23.9153 32.5596C23.873 32.8526 24.1269 33.1206 24.4105 33.2052C24.7008 33.2679 25.001 33.2679 25.2913 33.2052C26.4319 33.0725 27.58 33.0149 28.7281 33.0329L34.0566 32.9999C34.3636 32.9867 34.6712 33.0083 34.9734 33.0642C35.4107 33.1614 35.8009 33.398 36.2178 33.561C37.064 33.8948 37.995 33.923 38.9039 33.9465C39.2722 33.9575 39.8317 33.7287 39.36 33.3776C39.2033 33.2617 38.8193 33.3008 38.625 33.246C38.3436 33.1601 38.0741 33.0396 37.8226 32.8871Z" fill="#6E71FF"/>
<path d="M37.8336 32.8978C37.3023 32.5922 36.8086 32.2083 36.2288 32.0108C35.6818 31.8243 35.0941 31.8133 34.5174 31.8055C31.3109 31.7601 28.0919 31.7146 24.9042 31.9936C24.4952 32.0296 23.9827 32.1628 23.9247 32.5703C23.884 32.8634 24.1379 33.1314 24.4215 33.216C24.7118 33.2786 25.012 33.2786 25.3023 33.216C26.4429 33.0832 27.591 33.0256 28.7391 33.0436L34.0598 33.0107C34.3673 32.9975 34.6754 33.0191 34.9781 33.0749C35.4138 33.1721 35.8056 33.4072 36.2225 33.5717C37.0688 33.9056 37.9981 33.9338 38.9087 33.9573C39.2754 33.9682 39.8364 33.7379 39.3647 33.3884C39.208 33.2724 38.824 33.3116 38.6297 33.2567C38.3505 33.1704 38.0831 33.0498 37.8336 32.8978Z" fill="url(#paint12_linear)"/>
<path d="M29.3624 31.8162C29.3172 31.608 29.2075 31.4194 29.049 31.2771C28.9691 31.208 28.8692 31.1665 28.7639 31.1586C28.6587 31.1507 28.5537 31.1769 28.4644 31.2332C28.4017 31.2787 28.3547 31.3445 28.2889 31.3899C28.1985 31.4379 28.0981 31.4636 27.9958 31.4652L24.338 31.7786C24.1693 31.7793 24.0035 31.8218 23.8553 31.9024C23.7623 31.9714 23.6885 32.0631 23.641 32.1687C23.5936 32.2744 23.574 32.3904 23.5842 32.5058C23.6071 32.736 23.6787 32.9588 23.7942 33.1593C23.8257 33.2335 23.8753 33.2987 23.9384 33.3489C24.0301 33.396 24.1339 33.414 24.2361 33.4006L27.5398 33.2909C27.7268 33.2726 27.9157 33.2901 28.0961 33.3426C29.3201 33.7924 29.6664 32.9211 29.3624 31.8162Z" fill="url(#paint13_linear)"/>
<path d="M29.0504 32.0792C29.0268 32.0579 28.9973 32.0442 28.9658 32.04C28.9393 32.0423 28.9136 32.0504 28.8906 32.0637C28.8676 32.0769 28.8478 32.0951 28.8325 32.1168C28.6652 32.2993 28.5162 32.4977 28.3875 32.7092C28.3801 32.7262 28.3674 32.7403 28.3512 32.7494C28.3351 32.7584 28.3165 32.7619 28.2981 32.7594L24.4961 32.7108C24.4553 32.7135 24.4143 32.7082 24.3754 32.6951C24.3154 32.6638 24.269 32.6113 24.2454 32.5478C24.1952 32.4334 24.1592 32.2877 24.0401 32.2516C23.921 32.2156 23.6216 32.2516 23.6013 32.3676C23.5926 32.5207 23.6183 32.6739 23.6765 32.8158C23.7047 32.8863 23.7313 33.0336 23.7611 33.1042C23.8154 33.1841 23.8797 33.2567 23.9523 33.3204C23.9914 33.3451 24.0362 33.3592 24.0824 33.3612C25.5618 33.5493 27.1384 33.1606 28.6272 33.3377C28.7558 33.3681 28.8908 33.3572 29.0128 33.3063C29.0882 33.2555 29.1513 33.1886 29.1977 33.1104C29.3065 32.9513 29.3518 32.7571 29.3245 32.5662C29.2972 32.3753 29.1994 32.2016 29.0504 32.0792Z" fill="url(#paint14_linear)"/>
<path d="M25.0343 43.6083C25.3022 44.3308 25.7928 44.9576 26.0341 45.6895C26.2551 46.3587 26.2551 47.0765 26.2567 47.7801C26.2671 52.3334 26.4379 56.8819 26.7691 61.4257C26.7761 61.8616 26.8577 62.2931 27.0105 62.7014C27.186 63.0995 27.5308 63.4505 27.9618 63.5116C28.6404 63.6088 29.2155 62.9788 29.4616 62.3409C29.8816 61.2768 29.7954 60.0858 30.0242 58.9636C30.2891 57.6629 30.9818 56.4107 30.8297 55.0927C30.7623 54.5018 30.7686 53.386 30.6103 52.814C30.2797 51.6245 30.5837 51.5414 30.6103 50.3065C30.6354 49.2016 30.7169 47.0796 30.7812 45.9763C30.836 45.0485 30.3455 44.4687 30.9144 43.7337C31.2403 43.3152 31.698 43.0159 32.0443 42.6178C32.3907 42.2197 34.2588 40.6243 34.1146 40.5632C33.9704 40.5021 31.7544 40.7858 31.5804 40.8046C30.3919 40.9389 29.189 40.8615 28.0276 40.5758C27.2205 40.3783 25.904 39.9896 25.2239 40.7074C24.5923 41.375 24.749 42.8388 25.0343 43.6083Z" fill="#606161"/>
<path d="M25.0343 43.6083C25.3022 44.3308 25.7928 44.9576 26.0341 45.6895C26.2551 46.3587 26.2551 47.0765 26.2567 47.7801C26.2671 52.3334 26.4379 56.8819 26.7691 61.4257C26.7761 61.8616 26.8577 62.2931 27.0105 62.7014C27.186 63.0995 27.5308 63.4505 27.9618 63.5116C28.6404 63.6088 29.2155 62.9788 29.4616 62.3409C29.8816 61.2768 29.7954 60.0858 30.0242 58.9636C30.2891 57.6629 30.9818 56.4107 30.8297 55.0927C30.7623 54.5018 30.7686 53.386 30.6103 52.814C30.2797 51.6245 30.5837 51.5414 30.6103 50.3065C30.6354 49.2016 30.7169 47.0796 30.7812 45.9763C30.836 45.0485 30.3455 44.4687 30.9144 43.7337C31.2403 43.3152 31.698 43.0159 32.0443 42.6178C32.3907 42.2197 34.2588 40.6243 34.1146 40.5632C33.9704 40.5021 31.7544 40.7858 31.5804 40.8046C30.3919 40.9389 29.189 40.8615 28.0276 40.5758C27.2205 40.3783 25.904 39.9896 25.2239 40.7074C24.5923 41.375 24.749 42.8388 25.0343 43.6083Z" fill="url(#paint15_linear)"/>
<path d="M48.5812 42.2257L55.4377 59.8237C55.4377 59.8237 55.6806 60.8549 56.5912 60.5509C57.1647 60.3484 57.6838 60.0165 58.1082 59.5808L50.6437 41.9233L49.8601 40.4062L46.7649 34.1562L45.9813 34.3992L45.6177 36.0369L48.5812 42.2257Z" fill="#6E71FF"/>
<path d="M48.5812 42.2257L55.4377 59.8237C55.4377 59.8237 55.6806 60.8549 56.5912 60.5509C57.1647 60.3484 57.6838 60.0165 58.1082 59.5808L50.6437 41.9233L49.8601 40.4062L46.7649 34.1562L45.9813 34.3992L45.6177 36.0369L48.5812 42.2257Z" fill="url(#paint16_linear)"/>
<path d="M30.5589 51.3732L30.7156 46.8017C30.7539 46.222 30.7355 45.6399 30.6608 45.0637C30.6059 44.7299 30.515 44.3898 30.5855 44.0607C30.7015 43.5279 31.1999 43.1831 31.5259 42.7474C32.0179 42.0954 32.1277 41.2382 32.4803 40.5016C33.0272 39.367 34.1399 38.5834 35.3279 38.1618C36.5158 37.7402 37.7884 37.6336 39.0437 37.5349C40.5999 37.408 42.0511 36.4238 43.612 36.3768C45.173 36.3297 46.8389 36.8892 47.7275 38.1728C48.812 39.7399 48.5111 41.956 49.5627 43.5435C49.8354 43.9526 50.1895 44.313 50.3666 44.7738C50.6581 45.5574 50.3416 46.4381 49.8667 47.1246C49.3918 47.811 48.7697 48.3783 48.3215 49.0851C47.2636 50.773 47.425 52.9122 47.4579 54.9041C47.5096 58.0732 47.1407 61.2351 46.3609 64.3073C46.2912 64.6744 46.1489 65.0239 45.9425 65.3353C45.4723 65.9622 44.5759 66.1064 43.7891 66.0468C43.0024 65.9873 42.2094 65.782 41.4383 65.9152C40.2739 66.1174 39.3195 67.0514 38.1472 67.169C37.2931 67.2536 36.4641 66.8916 35.6805 66.5421L31.9224 64.8291C31.3503 64.5705 30.7626 64.2994 30.3411 63.834C29.5951 63.0096 29.5465 61.7512 29.8317 60.6761C30.1169 59.601 30.6843 58.6246 31.0526 57.5746C31.4208 56.5246 31.5697 55.3131 31.0322 54.3383C30.8755 54.0453 30.6529 53.7851 30.5119 53.4811C30.2078 52.8385 30.5354 52.0816 30.5589 51.3732Z" fill="#6E71FF"/>
<path d="M30.5589 51.3732L30.7156 46.8017C30.7539 46.222 30.7355 45.6399 30.6608 45.0637C30.6059 44.7299 30.515 44.3898 30.5855 44.0607C30.7015 43.5279 31.1999 43.1831 31.5259 42.7474C32.0179 42.0954 32.1277 41.2382 32.4803 40.5016C33.0272 39.367 34.1399 38.5834 35.3279 38.1618C36.5158 37.7402 37.7884 37.6336 39.0437 37.5349C40.5999 37.408 42.0511 36.4238 43.612 36.3768C45.173 36.3297 46.8389 36.8892 47.7275 38.1728C48.812 39.7399 48.5111 41.956 49.5627 43.5435C49.8354 43.9526 50.1895 44.313 50.3666 44.7738C50.6581 45.5574 50.3416 46.4381 49.8667 47.1246C49.3918 47.811 48.7697 48.3783 48.3215 49.0851C47.2636 50.773 47.425 52.9122 47.4579 54.9041C47.5096 58.0732 47.1407 61.2351 46.3609 64.3073C46.2912 64.6744 46.1489 65.0239 45.9425 65.3353C45.4723 65.9622 44.5759 66.1064 43.7891 66.0468C43.0024 65.9873 42.2094 65.782 41.4383 65.9152C40.2739 66.1174 39.3195 67.0514 38.1472 67.169C37.2931 67.2536 36.4641 66.8916 35.6805 66.5421L31.9224 64.8291C31.3503 64.5705 30.7626 64.2994 30.3411 63.834C29.5951 63.0096 29.5465 61.7512 29.8317 60.6761C30.1169 59.601 30.6843 58.6246 31.0526 57.5746C31.4208 56.5246 31.5697 55.3131 31.0322 54.3383C30.8755 54.0453 30.6529 53.7851 30.5119 53.4811C30.2078 52.8385 30.5354 52.0816 30.5589 51.3732Z" fill="url(#paint17_linear)"/>
<path d="M39.6852 38.6794C39.8953 39.5314 39.9829 40.409 39.9454 41.2857C39.8467 40.7952 39.1775 40.7137 38.6838 40.8046C37.7335 40.9837 36.832 41.3625 36.0388 41.9157C35.2457 42.469 34.5789 43.1842 34.0825 44.0142L37.0759 46.6784C37.1809 45.7381 35.9678 44.8777 36.3722 44.022C36.5477 43.6506 36.9677 43.4735 37.3517 43.3277L40.6585 42.074C41.5392 42.635 41.6301 43.9186 41.2853 44.9059C40.9406 45.8932 40.2933 46.7552 39.9846 47.7519C39.7228 48.5966 39.7197 49.4978 39.5332 50.3613C39.0944 52.3893 37.6933 54.0489 36.7123 55.8747C35.6382 57.8655 35.0477 60.0812 34.9884 62.3425C34.9648 63.2577 35.0416 64.2153 35.5118 65.0067C35.982 65.7982 36.9442 66.3451 37.8234 66.0881L38.1102 63.5445C38.3954 61.0198 38.7669 58.3023 40.519 56.4608C41.6818 58.8116 40.229 62.1168 42.0423 64.01C42.3557 64.336 42.7977 64.5977 43.2428 64.5115C43.8148 64.3987 44.1282 63.7843 44.299 63.2264C45.1563 60.4431 44.5999 57.3792 45.4086 54.5802C45.7941 53.2512 46.4727 52.0319 47.0683 50.7829C47.6826 49.4915 49.5758 47.2379 50.0115 45.876C50.3484 44.8291 50.3986 45.0532 50.0977 43.9954C49.7513 42.7777 47.5901 41.5082 47.0354 40.4065C46.3286 39.0211 46.5025 36.2237 44.7128 36.0889C43.7537 36.0168 43.1456 36.1594 42.2774 36.6452C40.439 37.6561 39.2182 36.7753 39.6852 38.6794Z" fill="url(#paint18_linear)" fill-opacity="0.5"/>
<path d="M48.3176 49.0791C47.2597 50.767 47.4212 52.9062 47.4541 54.8981L48.3176 49.0791Z" fill="url(#paint19_linear)"/>
<path d="M64.9312 61.1232C64.2276 52.278 58.9336 45.4842 53.1099 45.945C47.2862 46.4057 43.141 53.9596 43.8462 62.8048C44.5515 71.6501 49.8376 78.4391 55.666 77.9784C61.4944 77.5176 65.6365 69.9763 64.9312 61.1232ZM54.301 74.3284C51.48 72.9383 49.1151 68.0596 48.6418 62.0886C48.1325 55.7572 49.9285 50.2986 52.7761 48.8176C55.597 50.2077 57.9682 55.0942 58.4415 61.0574C58.9508 67.3889 57.1533 72.8474 54.301 74.3284Z" fill="#606161"/>
<path d="M64.9312 61.1232C64.2276 52.278 58.9336 45.4842 53.1099 45.945C47.2862 46.4057 43.141 53.9596 43.8462 62.8048C44.5515 71.6501 49.8376 78.4391 55.666 77.9784C61.4944 77.5176 65.6365 69.9763 64.9312 61.1232ZM54.301 74.3284C51.48 72.9383 49.1151 68.0596 48.6418 62.0886C48.1325 55.7572 49.9285 50.2986 52.7761 48.8176C55.597 50.2077 57.9682 55.0942 58.4415 61.0574C58.9508 67.3889 57.1533 72.8474 54.301 74.3284Z" fill="url(#paint20_linear)"/>
<path d="M54.301 74.3285C53.8944 74.5515 53.4452 74.6861 52.983 74.7234C49.3957 75.0087 46.0137 69.3511 45.4369 62.0887C44.8602 54.8263 47.3003 48.7143 50.8892 48.4291C51.54 48.3821 52.191 48.5167 52.7698 48.8177C49.9222 50.2987 48.1262 55.7573 48.6356 62.0887C49.1151 68.0582 51.4832 72.9384 54.301 74.3285Z" fill="#606161"/>
<path d="M54.301 74.3285C53.8944 74.5515 53.4452 74.6861 52.983 74.7234C49.3957 75.0087 46.0137 69.3511 45.4369 62.0887C44.8602 54.8263 47.3003 48.7143 50.8892 48.4291C51.54 48.3821 52.191 48.5167 52.7698 48.8177C49.9222 50.2987 48.1262 55.7573 48.6356 62.0887C49.1151 68.0582 51.4832 72.9384 54.301 74.3285Z" fill="url(#paint21_linear)"/>
<path d="M45.4324 32.5998C47.4838 32.6187 49.4616 33.3176 51.3877 34.0103C51.5238 34.0411 51.6437 34.1208 51.7247 34.2344C51.7586 34.3216 51.7597 34.4182 51.7277 34.5062C51.6957 34.5941 51.6328 34.6674 51.5507 34.7124C51.3818 34.7959 51.1927 34.8296 51.0053 34.8096C49.2892 34.7657 47.7017 33.9931 46.0044 33.8223C45.4825 33.7705 44.2445 34.0307 44.0141 33.3615C43.7759 32.6547 44.9889 32.5951 45.4324 32.5998Z" fill="#6E71FF"/>
<path d="M38.1029 24.513C38.092 24.9335 37.9546 25.3408 37.7086 25.6819C37.4625 26.023 37.1193 26.282 36.7238 26.425C36.4754 26.4885 36.2305 26.5654 35.9904 26.6554C35.8322 26.7136 35.6963 26.8199 35.6017 26.9594C35.4967 27.135 35.4475 27.3383 35.4606 27.5424C35.4606 28.058 35.5829 28.5736 35.6252 29.0908C35.6283 29.143 35.6283 29.1953 35.6252 29.2475C35.644 29.7177 35.5578 30.2129 35.2553 30.5718C35.1626 30.6936 35.038 30.7874 34.8953 30.8427C34.7525 30.898 34.5973 30.9127 34.4467 30.8852C34.174 30.8131 33.9922 30.564 33.8402 30.3336C33.2446 29.4183 32.7729 28.4281 32.4375 27.3888C32.3954 27.2493 32.343 27.1131 32.2808 26.9814C32.2407 26.9116 32.2061 26.8387 32.1774 26.7635C32.1612 26.6497 32.1698 26.5337 32.2024 26.4234C32.305 26.0173 32.4327 25.618 32.5848 25.2277C32.697 24.9969 32.7671 24.748 32.7917 24.4927C32.8042 24.0068 32.4689 23.5884 32.367 23.1088C32.2745 22.6716 32.3905 22.2218 32.5128 21.7908C32.5586 21.5929 32.641 21.4053 32.7557 21.2376C32.8754 21.0937 33.0238 20.9763 33.1913 20.8928C34.116 20.3772 35.213 20.2957 36.2693 20.3286C36.5481 20.3277 36.8251 20.3732 37.089 20.4634C37.2189 20.5123 37.336 20.5901 37.4316 20.6908C37.5271 20.7915 37.5986 20.9125 37.6406 21.0448C37.7143 21.3363 37.6406 21.6717 37.672 21.9679C37.6892 22.1748 37.7315 22.3754 37.7628 22.5822C37.8475 23.2248 38.1092 23.8626 38.1029 24.513Z" fill="url(#paint22_linear)"/>
<path d="M33.176 21.9729C33.1869 22.4751 33.2451 22.9752 33.3499 23.4664L32.8625 22.7502C32.8396 22.7054 32.8079 22.6655 32.7695 22.633C32.731 22.6004 32.6865 22.5758 32.6384 22.5606C32.5798 22.5574 32.5219 22.5748 32.4747 22.6097C32.4275 22.6446 32.394 22.6948 32.3798 22.7518C32.3552 22.8668 32.3639 22.9864 32.4049 23.0966C32.5616 23.6263 32.8892 24.1121 32.9048 24.6638C32.9048 24.8001 32.8719 24.9631 32.7481 25.007C32.585 24.5291 32.3799 24.0665 32.1353 23.6247C31.8752 23.1546 31.5696 22.7126 31.3659 22.2143C31.1622 21.7175 31.0645 21.1837 31.0791 20.6471C31.0739 20.4715 31.1144 20.2977 31.1966 20.1424C31.264 20.0343 31.3643 19.9497 31.4285 19.8384C31.4928 19.7271 31.51 19.6112 31.5649 19.503C31.7216 19.1896 32.0977 19.0689 32.4394 18.9921C33.1604 18.8301 33.8949 18.7351 34.6334 18.7085C35.0608 18.6764 35.4905 18.7134 35.906 18.8182C36.3248 18.9241 36.6894 19.1815 36.9294 19.5406C37.0187 19.6864 37.0861 19.8541 37.177 19.992C37.2561 20.0922 37.3294 20.1968 37.3964 20.3054C37.4297 20.3592 37.4492 20.4205 37.453 20.4837C37.4569 20.5469 37.4449 20.61 37.4184 20.6674C37.3134 20.8492 37.0516 20.8398 36.8448 20.8054C36.1944 20.6972 35.5174 20.5812 34.8826 20.7615C34.641 20.8558 34.3913 20.9282 34.1367 20.9777C33.9564 20.9966 33.7856 20.9307 33.6085 20.9386C33.1415 20.9527 33.176 21.6328 33.176 21.9729Z" fill="#6E71FF"/>
<path d="M33.176 21.9729C33.1869 22.4751 33.2451 22.9752 33.3499 23.4664L32.8625 22.7502C32.8396 22.7054 32.8079 22.6655 32.7695 22.633C32.731 22.6004 32.6865 22.5758 32.6384 22.5606C32.5798 22.5574 32.5219 22.5748 32.4747 22.6097C32.4275 22.6446 32.394 22.6948 32.3798 22.7518C32.3552 22.8668 32.3639 22.9864 32.4049 23.0966C32.5616 23.6263 32.8892 24.1121 32.9048 24.6638C32.9048 24.8001 32.8719 24.9631 32.7481 25.007C32.585 24.5291 32.3799 24.0665 32.1353 23.6247C31.8752 23.1546 31.5696 22.7126 31.3659 22.2143C31.1622 21.7175 31.0645 21.1837 31.0791 20.6471C31.0739 20.4715 31.1144 20.2977 31.1966 20.1424C31.264 20.0343 31.3643 19.9497 31.4285 19.8384C31.4928 19.7271 31.51 19.6112 31.5649 19.503C31.7216 19.1896 32.0977 19.0689 32.4394 18.9921C33.1604 18.8301 33.8949 18.7351 34.6334 18.7085C35.0608 18.6764 35.4905 18.7134 35.906 18.8182C36.3248 18.9241 36.6894 19.1815 36.9294 19.5406C37.0187 19.6864 37.0861 19.8541 37.177 19.992C37.2561 20.0922 37.3294 20.1968 37.3964 20.3054C37.4297 20.3592 37.4492 20.4205 37.453 20.4837C37.4569 20.5469 37.4449 20.61 37.4184 20.6674C37.3134 20.8492 37.0516 20.8398 36.8448 20.8054C36.1944 20.6972 35.5174 20.5812 34.8826 20.7615C34.641 20.8558 34.3913 20.9282 34.1367 20.9777C33.9564 20.9966 33.7856 20.9307 33.6085 20.9386C33.1415 20.9527 33.176 21.6328 33.176 21.9729Z" fill="url(#paint23_linear)"/>
<path d="M45.9102 35.3406C45.9154 35.4981 45.8661 35.6525 45.7707 35.7779C45.5764 36.0443 45.2175 36.2277 44.9025 36.3546C44.1737 36.6398 43.409 36.9313 42.6316 36.8342C42.0612 36.7621 41.5346 36.4816 41.0347 36.2073C40.6162 35.9832 40.1962 35.7575 39.7809 35.5271C39.0161 35.115 38.2388 34.684 37.6856 34.0101C36.8847 33.0384 37.6856 32.3708 38.3783 31.6593C38.5328 31.4994 38.6994 31.3516 38.8766 31.2174C39.499 30.7227 40.2357 30.3924 41.019 30.2567C41.5346 30.172 42.0941 30.1783 42.5674 30.4134C42.8973 30.6107 43.1876 30.868 43.4231 31.1719C44.3923 32.2988 45.1883 33.5639 45.7848 34.9253C45.8536 35.0542 45.8962 35.1953 45.9102 35.3406Z" fill="#6E71FF"/>
<path d="M45.9107 35.3406C45.9159 35.4981 45.8667 35.6525 45.7713 35.7779C45.6211 35.8674 45.4638 35.9444 45.3011 36.0083C44.5724 36.2998 43.806 36.5913 43.0302 36.4941C42.4535 36.422 41.9332 36.1415 41.427 35.8672C41.0086 35.6431 40.5948 35.4112 40.1732 35.1871C39.4147 34.7749 38.6311 34.3376 38.0842 33.67C37.2833 32.6921 38.0842 32.0307 38.7706 31.3192C38.8052 31.2832 38.8418 31.2492 38.8803 31.2174C39.5027 30.7227 40.2393 30.3924 41.0227 30.2567C41.5383 30.172 42.0978 30.1783 42.571 30.4134C42.901 30.6107 43.1912 30.868 43.4267 31.1719C44.396 32.2988 45.192 33.5639 45.7885 34.9253C45.8562 35.0544 45.8977 35.1955 45.9107 35.3406Z" fill="url(#paint24_linear)"/>
<path d="M38.6895 35.793L46.2762 59.1629C46.2762 59.1629 47.2463 62.0748 47.5504 62.6217C47.8544 63.1687 49.1881 62.7424 49.3103 62.4995C49.4326 62.2566 49.735 61.5294 49.735 61.5294L42.0887 40.4663L40.1469 35.0047C40.1469 35.0047 38.6895 34.5799 38.6895 35.793Z" fill="#6E71FF"/>
<path d="M38.6895 35.793L46.2762 59.1629C46.2762 59.1629 47.2463 62.0748 47.5504 62.6217C47.8544 63.1687 49.1881 62.7424 49.3103 62.4995C49.4326 62.2566 49.735 61.5294 49.735 61.5294L42.0887 40.4663L40.1469 35.0047C40.1469 35.0047 38.6895 34.5799 38.6895 35.793Z" fill="url(#paint25_linear)"/>
<path d="M47.5261 46.077C47.7883 45.7364 48.0969 45.4341 48.4429 45.179C48.8896 44.8828 49.4224 44.7527 49.9443 44.6352C52.1149 44.1478 54.45 43.8046 56.5108 44.6352C56.7879 44.7269 57.0345 44.8927 57.2239 45.1147C57.3963 45.3483 57.4355 45.7024 57.2427 45.9187C57.0734 46.1083 56.7914 46.1381 56.5375 46.1507C54.287 46.2651 51.966 46.1177 49.8518 46.8951C48.3646 47.4405 47.0763 48.4152 45.8727 49.4449C45.0891 50.1204 45.1283 48.8854 45.4809 48.4419C46.125 47.6379 46.8554 46.87 47.5261 46.077Z" fill="#6E71FF"/>
<path d="M47.5261 46.077C47.7883 45.7364 48.0969 45.4341 48.4429 45.179C48.8896 44.8828 49.4224 44.7527 49.9443 44.6352C52.1149 44.1478 54.45 43.8046 56.5108 44.6352C56.7879 44.7269 57.0345 44.8927 57.2239 45.1147C57.3963 45.3483 57.4355 45.7024 57.2427 45.9187C57.0734 46.1083 56.7914 46.1381 56.5375 46.1507C54.287 46.2651 51.966 46.1177 49.8518 46.8951C48.3646 47.4405 47.0763 48.4152 45.8727 49.4449C45.0891 50.1204 45.1283 48.8854 45.4809 48.4419C46.125 47.6379 46.8554 46.87 47.5261 46.077Z" fill="url(#paint26_linear)"/>
<path d="M34.5857 42.089C33.4887 42.7253 32.3368 43.4744 31.0643 43.4243C30.7881 43.3904 30.5091 43.3862 30.2321 43.4117C29.9578 43.4619 29.682 43.6437 29.6334 43.9179C29.541 44.4304 30.229 44.7015 30.7493 44.6827C31.6896 44.6404 32.6644 44.2894 33.5232 44.6608C33.8356 44.813 34.1235 45.0111 34.3773 45.2485L37.9301 48.2544C38.1872 48.4722 38.4536 48.7026 38.5743 49.016C38.6949 49.3295 38.6479 49.6821 38.6918 50.0159C38.7357 50.3497 38.9269 50.7196 39.2607 50.7634C39.7653 50.8277 40.0067 50.1805 40.1305 49.6868C40.3156 48.9457 40.6314 48.2436 41.0629 47.6134C41.3685 47.1683 41.7353 46.7514 41.9202 46.2452C42.1051 45.739 42.0565 45.0918 41.6318 44.7595C41.5759 44.7112 41.511 44.6743 41.4408 44.6512C41.3706 44.6281 41.2965 44.6191 41.2228 44.6247C41.0749 44.658 40.9402 44.7343 40.8357 44.8442C40.0392 45.5521 39.3914 46.4114 38.93 47.372L35.3333 44.363C35.1468 44.2063 34.9462 44.0261 34.9227 43.7847C34.8914 43.4494 35.2064 43.1955 35.4916 43.0152C36.6292 42.2982 37.8287 41.6846 39.0757 41.1816C39.4503 41.0249 40.6915 40.5845 40.5661 39.9921C40.4408 39.3997 39.0366 40.0877 38.6714 40.2162C37.2539 40.7113 35.8861 41.3383 34.5857 42.089Z" fill="#6E71FF"/>
<path d="M38.3817 51.8186C37.6513 52.4752 37.2235 53.3968 36.8395 54.301C35.8197 56.6948 34.9656 59.1559 34.2834 61.6668C34.0045 62.6933 33.7522 63.7653 33.9387 64.8122C34.1252 65.8591 34.8664 66.8777 35.9149 67.0658C36.103 67.0987 36.338 67.0846 36.4352 66.9185C36.5324 66.7524 36.4242 66.5345 36.3286 66.359C35.871 65.5206 35.7519 64.5395 35.7237 63.5835C35.6306 60.1755 36.5649 56.8183 38.4052 53.9484C38.833 53.2839 39.3455 52.6226 40.0648 52.3029C40.5209 52.1007 42.016 51.6149 41.0428 51.1463C40.2278 50.7513 38.9741 51.2795 38.3817 51.8186Z" fill="#6E71FF"/>
<path d="M40.8252 52.48C40.4083 53.2918 39.9115 54.1522 40.0416 55.0533C40.086 55.3494 40.1981 55.6313 40.3692 55.877C40.5403 56.1227 40.7658 56.3257 41.0282 56.47C41.2905 56.6144 41.5826 56.6963 41.8817 56.7093C42.1809 56.7224 42.479 56.6662 42.7529 56.5453C43.0036 56.4356 43.223 56.2726 43.4769 56.1613C43.7444 56.0427 44.0344 55.9832 44.327 55.9867C44.6196 55.9902 44.908 56.0567 45.1726 56.1817C45.1993 55.909 44.9736 55.6614 44.7134 55.5705C44.4468 55.5003 44.1681 55.4896 43.8969 55.5391L42.4582 55.6958C42.0022 55.746 41.5007 55.7836 41.1261 55.5203C40.6936 55.2163 40.5901 54.6161 40.6293 54.0895C40.703 53.1147 41.134 52.1963 41.6746 51.3798C42.0179 50.8626 42.4128 50.3658 42.615 49.7781C42.7889 49.2751 42.8375 48.54 42.3814 48.2109C41.8094 49.6026 41.5289 51.1024 40.8252 52.48Z" fill="#6E71FF"/>
<path d="M33.2758 47.0775C33.2264 47.2054 33.1891 47.3376 33.1646 47.4725C33.1557 47.597 33.161 47.7221 33.1802 47.8455L33.489 50.3263C33.5061 50.577 33.5589 50.824 33.6457 51.0598C33.71 51.2165 33.8024 51.3528 33.8588 51.508C33.9326 51.7747 33.9502 52.0538 33.9106 52.3276L33.7225 54.774C33.7227 54.8821 33.6997 54.989 33.6551 55.0875C33.4984 55.3758 33.0361 55.3319 32.8214 55.0875C32.6067 54.843 32.5706 54.4904 32.5455 54.1659L32.4217 52.5517C32.3713 52.0967 32.3687 51.6376 32.4139 51.182C32.4546 50.8795 32.5377 50.5849 32.5847 50.284C32.8402 48.64 32.0158 46.9741 32.2462 45.327C32.2561 45.1972 32.2963 45.0716 32.3637 44.9602C32.6615 44.5387 33.3041 44.7879 33.4608 45.164C33.6692 45.6138 33.4247 46.6246 33.2758 47.0775Z" fill="#6E71FF"/>
<path d="M28.8027 54.7521C28.2542 55.3288 27.9016 56.0591 27.5693 56.78C27.4047 57.1205 27.2608 57.4706 27.1384 57.8285C26.7622 58.985 26.8108 60.2357 26.9221 61.4471C26.9628 61.8749 27.0161 62.32 27.2559 62.6758C27.3713 62.8468 27.525 62.9885 27.7047 63.0896C27.8845 63.1908 28.0853 63.2486 28.2914 63.2585C28.4974 63.2684 28.7029 63.2301 28.8915 63.1466C29.0801 63.0631 29.2467 62.9368 29.3779 62.7776C29.6114 62.4956 29.7164 62.1335 29.8339 61.7856C30.1928 60.7199 30.7084 59.7138 31.1175 58.6653C31.5265 57.6169 31.8321 56.4995 31.7443 55.3742C31.6973 54.7944 31.4811 53.8932 30.804 53.8368C30.0533 53.7804 29.2964 54.2317 28.8027 54.7521Z" fill="url(#paint27_linear)"/>
<path d="M43.6144 36.4378C43.4241 36.6232 43.2476 36.8222 43.0863 37.0334C42.6821 37.5109 42.3812 38.0669 42.2024 38.6664C41.8999 39.8684 42.4626 41.2037 43.4562 41.9355C44.4498 42.6674 45.8195 42.8179 47.0043 42.4527C47.2214 42.3975 47.4233 42.2941 47.5951 42.1502C47.7542 41.979 47.8783 41.7783 47.9603 41.5594C48.1687 41.0971 48.3803 40.6191 48.4132 40.116C48.4264 39.6505 48.3409 39.1874 48.1624 38.7573C47.7817 37.7359 47.1802 36.8112 46.4009 36.0492C45.9308 35.5915 45.7207 35.4458 45.0672 35.6229C44.5244 35.7735 44.0259 36.0531 43.6144 36.4378Z" fill="#6E71FF"/>
<path d="M46.9655 42.6659C48.8125 42.6659 50.3099 41.0662 50.3099 39.0927C50.3099 37.1193 48.8125 35.5195 46.9655 35.5195C45.1184 35.5195 43.6211 37.1193 43.6211 39.0927C43.6211 41.0662 45.1184 42.6659 46.9655 42.6659Z" fill="#6E71FF"/>
<path d="M46.9655 42.6659C48.8125 42.6659 50.3099 41.0662 50.3099 39.0927C50.3099 37.1193 48.8125 35.5195 46.9655 35.5195C45.1184 35.5195 43.6211 37.1193 43.6211 39.0927C43.6211 41.0662 45.1184 42.6659 46.9655 42.6659Z" fill="url(#paint28_linear)"/>
<path d="M47.175 42.3263C48.8577 42.3263 50.2217 40.8697 50.2217 39.0728C50.2217 37.276 48.8577 35.8193 47.175 35.8193C45.4924 35.8193 44.1284 37.276 44.1284 39.0728C44.1284 40.8697 45.4924 42.3263 47.175 42.3263Z" fill="url(#paint29_linear)"/>
<path d="M32.7256 22.5277L33.644 22.0999L38.0885 21.8867C38.0885 21.8867 38.1747 22.8051 38.0039 22.9979C37.8331 23.1906 37.0636 23.0198 36.8708 22.6343L36.6781 22.2064L36.3364 22.2707C36.3364 22.2707 36.3787 23.2753 35.6531 23.3395C34.9275 23.4038 34.2646 23.4257 34.1784 23.211C34.0195 22.9217 33.8409 22.6436 33.644 22.3788L32.8604 22.7502L32.7256 22.5277Z" fill="#606161"/>
<path d="M32.7256 22.5277L33.644 22.0999L38.0885 21.8867C38.0885 21.8867 38.1747 22.8051 38.0039 22.9979C37.8331 23.1906 37.0636 23.0198 36.8708 22.6343L36.6781 22.2064L36.3364 22.2707C36.3364 22.2707 36.3787 23.2753 35.6531 23.3395C34.9275 23.4038 34.2646 23.4257 34.1784 23.211C34.0195 22.9217 33.8409 22.6436 33.644 22.3788L32.8604 22.7502L32.7256 22.5277Z" fill="url(#paint30_linear)"/>
<path d="M27.9815 32.4986C27.9699 32.6818 27.9219 32.8607 27.8405 33.0252C27.7985 33.1071 27.7363 33.1771 27.6598 33.2283C27.5833 33.2796 27.495 33.3105 27.4032 33.3182C27.2042 33.3182 27.0161 33.1819 26.8187 33.2132C26.7434 33.2324 26.6691 33.2554 26.5961 33.2822C26.383 33.3371 26.1573 33.2383 25.9395 33.2728C25.8392 33.2869 25.7467 33.3308 25.648 33.3543C25.4617 33.3929 25.2678 33.3644 25.1006 33.2737C24.9334 33.1831 24.8036 33.0362 24.7343 32.8591C24.6716 32.6804 24.6716 32.4767 24.5682 32.3168C24.482 32.1852 24.3237 32.0661 24.3597 31.9125C24.3782 31.8516 24.4135 31.7973 24.4616 31.7558C25.0885 31.154 25.9724 31.19 26.7732 31.1038C27.6305 31.0192 28.074 31.6993 27.9815 32.4986Z" fill="url(#paint31_linear)"/>
<path d="M46.7352 32.1082C47.0077 32.0716 47.2845 32.0822 47.5533 32.1396C47.9931 32.215 48.4268 32.3223 48.851 32.4608C49.0303 32.5123 49.2028 32.5849 49.365 32.6771C49.5721 32.8055 49.7431 32.9845 49.8619 33.1973C49.9806 33.4101 50.0431 33.6496 50.0436 33.8932C50.0504 34.0899 49.9895 34.283 49.8712 34.4402C49.6126 34.7536 49.1331 34.738 48.7287 34.6925C48.2962 34.6455 47.8041 34.5624 47.5753 34.1926C47.4342 33.9653 47.4311 33.6832 47.3966 33.409C47.3621 33.1347 47.2665 32.8542 47.0283 32.7335C46.8638 32.6489 46.1946 32.7335 46.1428 32.522C46.0833 32.2869 46.5566 32.1396 46.7352 32.1082Z" fill="url(#paint32_linear)"/>
<path d="M49.6313 53.8702C51.9821 53.6932 54.347 55.3998 54.9159 57.6926C54.49 57.2324 53.9343 56.9127 53.3224 56.7758C52.7105 56.6389 52.0714 56.6914 51.49 56.9263C52.7046 57.7493 53.6201 58.9435 54.0994 60.3302L53.5807 60.0324C53.9147 61.2511 53.9994 62.5246 53.8298 63.7768C53.6601 65.029 53.2396 66.234 52.5933 67.3199L54.2232 64.6259C54.1621 65.6947 53.9803 66.7949 53.3942 67.6898C52.808 68.5846 51.7314 69.2303 50.6782 69.036C51.392 69.3022 52.1567 69.4032 52.9151 69.3316C53.6734 69.2599 54.4057 69.0174 55.057 68.6222C54.7017 69.4142 54.3099 70.1889 53.8816 70.9464C55.0925 69.4304 55.9798 67.6823 56.4887 65.81C56.9976 63.9378 57.1173 61.981 56.8404 60.0607C56.9669 61.4241 56.9522 62.7969 56.7966 64.1573C57.3887 62.2567 57.5355 60.2453 57.2257 58.2788C56.9159 56.3124 56.1578 54.4436 55.01 52.8171C55.2474 53.8266 55.2693 54.8749 55.0742 55.8935C54.4599 54.4376 53.6214 52.792 52.0699 52.4895C52.4554 52.6275 52.8535 52.5992 53.1027 52.3595C51.8489 52.0351 50.3382 52.8155 49.6313 53.8702Z" fill="url(#paint33_linear)" fill-opacity="0.5"/>
<path d="M31.5788 25.1544C31.245 25.3487 31.1087 25.7813 31.1338 26.159C31.1588 26.5367 31.3015 26.9097 31.4018 27.2826C31.5598 27.969 31.6423 28.6706 31.6478 29.3749C32.2525 29.2804 32.8709 29.4079 33.389 29.7337C33.1194 29.0473 32.9611 24.3473 31.5788 25.1544Z" fill="#6E71FF"/>
<path d="M37.9599 28.5632C37.1356 28.6212 36.4915 29.3248 35.6844 29.5035C35.5961 29.2916 35.5518 29.0639 35.5543 28.8343L35.4853 27.6699C35.4744 27.4646 35.4493 27.0649 35.628 26.9129C35.8959 26.6825 36.1138 26.9474 36.3724 27.1323C36.9535 27.5483 37.486 28.0282 37.9599 28.5632Z" fill="#6E71FF"/>
<path d="M31.5788 25.1544C31.245 25.3487 31.1087 25.7813 31.1338 26.159C31.1588 26.5367 31.3015 26.9097 31.4018 27.2826C31.5598 27.969 31.6423 28.6706 31.6478 29.3749C32.2525 29.2804 32.8709 29.4079 33.389 29.7337C33.1194 29.0473 32.9611 24.3473 31.5788 25.1544Z" fill="url(#paint34_linear)"/>
<path d="M37.9599 28.5632C37.1356 28.6212 36.4915 29.3248 35.6844 29.5035C35.5961 29.2916 35.5518 29.0639 35.5543 28.8343L35.4853 27.6699C35.4744 27.4646 35.4493 27.0649 35.628 26.9129C35.8959 26.6825 36.1138 26.9474 36.3724 27.1323C36.9535 27.5483 37.486 28.0282 37.9599 28.5632Z" fill="url(#paint35_linear)"/>
<path d="M35.959 27.1113C35.836 27.4995 35.8028 27.9105 35.8619 28.3134C35.9041 28.4777 35.9247 28.6468 35.923 28.8164C35.9221 28.9022 35.8985 28.9862 35.8548 29.0599C35.811 29.1336 35.7486 29.1945 35.6738 29.2364C35.6606 29.243 35.6462 29.2467 35.6315 29.2474C35.6346 29.1952 35.6346 29.1429 35.6315 29.0907C35.5892 28.5735 35.4622 28.0579 35.4669 27.5423C35.4538 27.3382 35.503 27.1349 35.608 26.9593C35.7025 26.8198 35.8385 26.7135 35.9966 26.6553C36.0077 26.6558 36.0183 26.6602 36.0264 26.6678C36.1534 26.7885 36.0139 26.9405 35.959 27.1113Z" fill="url(#paint36_linear)"/>
<path d="M35.6012 26.9591C35.4962 27.1346 35.447 27.3379 35.4602 27.5421C35.4602 28.0577 35.5824 28.5733 35.6247 29.0905C35.6278 29.1427 35.6278 29.195 35.6247 29.2472C35.5356 29.2645 35.4436 29.2609 35.356 29.2367C35.2685 29.2125 35.1877 29.1684 35.1201 29.1077C34.8351 28.8571 34.6129 28.543 34.4713 28.1909C34.3543 27.9675 34.2784 27.7249 34.2472 27.4747C34.2329 27.3482 34.2467 27.2201 34.2876 27.0996C34.3285 26.979 34.3955 26.869 34.4838 26.7773C34.7079 26.5767 35.0417 26.5579 35.3458 26.5892C35.4602 26.6002 35.8488 26.5892 35.9836 26.6551C35.8278 26.7144 35.6941 26.8206 35.6012 26.9591Z" fill="url(#paint37_linear)" fill-opacity="0.5"/>
</g>
<defs>
<linearGradient id="paint0_linear" x1="43.5447" y1="9.00813" x2="69.6065" y2="143.735" gradientUnits="userSpaceOnUse">
<stop stop-color="#010101" stop-opacity="0"/>
<stop offset="0.95" stop-color="#010101"/>
</linearGradient>
<linearGradient id="paint1_linear" x1="35.1499" y1="32.4463" x2="65.3135" y2="181.772" gradientUnits="userSpaceOnUse">
<stop stop-color="#010101" stop-opacity="0"/>
<stop offset="0.95" stop-color="#010101"/>
</linearGradient>
<linearGradient id="paint2_linear" x1="1.33374" y1="43.8342" x2="23" y2="43.8342" gradientUnits="userSpaceOnUse">
<stop stop-color="white" stop-opacity="0"/>
<stop offset="0.95" stop-color="white"/>
</linearGradient>
<linearGradient id="paint3_linear" x1="765.36" y1="3826.27" x2="941.417" y2="4896.75" gradientUnits="userSpaceOnUse">
<stop stop-color="#010101" stop-opacity="0"/>
<stop offset="0.95" stop-color="#010101"/>
</linearGradient>
<linearGradient id="paint4_linear" x1="1351.93" y1="5576.4" x2="1767.19" y2="5209.33" gradientUnits="userSpaceOnUse">
<stop stop-color="#010101" stop-opacity="0"/>
<stop offset="0.95" stop-color="#010101"/>
</linearGradient>
<linearGradient id="paint5_linear" x1="26.9138" y1="41.8912" x2="22.5792" y2="41.2443" gradientUnits="userSpaceOnUse">
<stop offset="0.079127"/>
<stop offset="0.83" stop-opacity="0.07"/>
<stop offset="1" stop-opacity="0"/>
</linearGradient>
<linearGradient id="paint6_linear" x1="23.3377" y1="60.883" x2="23.5959" y2="49.0664" gradientUnits="userSpaceOnUse">
<stop stop-opacity="0"/>
<stop offset="0.639117" stop-opacity="0.75"/>
<stop offset="1"/>
</linearGradient>
<linearGradient id="paint7_linear" x1="23.9387" y1="62.6166" x2="24.0353" y2="56.0079" gradientUnits="userSpaceOnUse">
<stop stop-opacity="0"/>
<stop offset="0.639117" stop-opacity="0.75"/>
<stop offset="1"/>
</linearGradient>
<linearGradient id="paint8_linear" x1="24.737" y1="55.9283" x2="25.4284" y2="43.1541" gradientUnits="userSpaceOnUse">
<stop stop-opacity="0"/>
<stop offset="0.639117" stop-opacity="0.75"/>
<stop offset="1"/>
</linearGradient>
<linearGradient id="paint9_linear" x1="37.6494" y1="42.8175" x2="38.2575" y2="13.374" gradientUnits="userSpaceOnUse">
<stop stop-opacity="0"/>
<stop offset="0.639117" stop-opacity="0.75"/>
<stop offset="1"/>
</linearGradient>
<linearGradient id="paint10_linear" x1="640.564" y1="1917.39" x2="674.157" y2="1917.39" gradientUnits="userSpaceOnUse">
<stop stop-color="#010101" stop-opacity="0"/>
<stop offset="0.95" stop-color="#010101"/>
</linearGradient>
<linearGradient id="paint11_linear" x1="2871.86" y1="2246.25" x2="2492.71" y2="1941.24" gradientUnits="userSpaceOnUse">
<stop stop-color="#010101" stop-opacity="0"/>
<stop offset="0.95" stop-color="#010101"/>
</linearGradient>
<linearGradient id="paint12_linear" x1="3952.13" y1="395.832" x2="3951.44" y2="429.882" gradientUnits="userSpaceOnUse">
<stop stop-color="white" stop-opacity="0"/>
<stop offset="0.95" stop-color="white"/>
</linearGradient>
<linearGradient id="paint13_linear" x1="33.1847" y1="29.609" x2="23.6082" y2="28.5066" gradientUnits="userSpaceOnUse">
<stop offset="0.079127"/>
<stop offset="0.83" stop-opacity="0.07"/>
<stop offset="1" stop-opacity="0"/>
</linearGradient>
<linearGradient id="paint14_linear" x1="32.9546" y1="31.1177" x2="23.8255" y2="29.3992" gradientUnits="userSpaceOnUse">
<stop offset="0.079127"/>
<stop offset="0.83" stop-opacity="0.07"/>
<stop offset="1" stop-opacity="0"/>
</linearGradient>
<linearGradient id="paint15_linear" x1="37.8337" y1="26.3338" x2="26.4467" y2="24.922" gradientUnits="userSpaceOnUse">
<stop offset="0.079127"/>
<stop offset="0.83" stop-opacity="0.07"/>
<stop offset="1" stop-opacity="0"/>
</linearGradient>
<linearGradient id="paint16_linear" x1="47.8335" y1="46.3337" x2="52.2029" y2="44.4774" gradientUnits="userSpaceOnUse">
<stop offset="0.02" stop-color="white" stop-opacity="0"/>
<stop offset="0.58" stop-color="white" stop-opacity="0.39"/>
<stop offset="1" stop-color="white"/>
</linearGradient>
<linearGradient id="paint17_linear" x1="42.4104" y1="70.5351" x2="45.3782" y2="9.90102" gradientUnits="userSpaceOnUse">
<stop stop-opacity="0"/>
<stop offset="0.639117" stop-opacity="0.75"/>
<stop offset="1"/>
</linearGradient>
<linearGradient id="paint18_linear" x1="42.9998" y1="75.0005" x2="48.1397" y2="10.4434" gradientUnits="userSpaceOnUse">
<stop stop-opacity="0"/>
<stop offset="0.639117" stop-opacity="0.75"/>
<stop offset="1"/>
</linearGradient>
<linearGradient id="paint19_linear" x1="359.495" y1="1784.42" x2="364.569" y2="1784.42" gradientUnits="userSpaceOnUse">
<stop stop-color="#010101" stop-opacity="0"/>
<stop offset="0.95" stop-color="#010101"/>
</linearGradient>
<linearGradient id="paint20_linear" x1="68.1665" y1="25.6672" x2="40.2365" y2="23.3338" gradientUnits="userSpaceOnUse">
<stop offset="0.079127"/>
<stop offset="0.83" stop-opacity="0.07"/>
<stop offset="1" stop-opacity="0"/>
</linearGradient>
<linearGradient id="paint21_linear" x1="59.9553" y1="30.7553" x2="45.2036" y2="30.529" gradientUnits="userSpaceOnUse">
<stop offset="0.079127"/>
<stop offset="0.83" stop-opacity="0.07"/>
<stop offset="1" stop-opacity="0"/>
</linearGradient>
<linearGradient id="paint22_linear" x1="32.1727" y1="25.6148" x2="38.1029" y2="25.6148" gradientUnits="userSpaceOnUse">
<stop stop-color="#E5C6D6"/>
<stop offset="0.42" stop-color="#EAD4D0"/>
<stop offset="1" stop-color="#F0E9CB"/>
</linearGradient>
<linearGradient id="paint23_linear" x1="34.9815" y1="25.6939" x2="35.3883" y2="13.2588" gradientUnits="userSpaceOnUse">
<stop stop-opacity="0"/>
<stop offset="0.639117" stop-opacity="0.75"/>
<stop offset="1"/>
</linearGradient>
<linearGradient id="paint24_linear" x1="42.7465" y1="37.1997" x2="43.0641" y2="24.7665" gradientUnits="userSpaceOnUse">
<stop stop-opacity="0"/>
<stop offset="0.639117" stop-opacity="0.75"/>
<stop offset="1"/>
</linearGradient>
<linearGradient id="paint25_linear" x1="41.0006" y1="49.0008" x2="44.4706" y2="47.9537" gradientUnits="userSpaceOnUse">
<stop offset="0.02" stop-color="white" stop-opacity="0"/>
<stop offset="0.58" stop-color="white" stop-opacity="0.39"/>
<stop offset="1" stop-color="white"/>
</linearGradient>
<linearGradient id="paint26_linear" x1="47.3337" y1="53.0008" x2="54.5639" y2="43.1702" gradientUnits="userSpaceOnUse">
<stop offset="0.02" stop-color="white" stop-opacity="0"/>
<stop offset="0.58" stop-color="white" stop-opacity="0.39"/>
<stop offset="1" stop-color="white"/>
</linearGradient>
<linearGradient id="paint27_linear" x1="32.4904" y1="47.8787" x2="26.0071" y2="47.452" gradientUnits="userSpaceOnUse">
<stop offset="0.079127"/>
<stop offset="0.83" stop-opacity="0.07"/>
<stop offset="1" stop-opacity="0"/>
</linearGradient>
<linearGradient id="paint28_linear" x1="41.6667" y1="41.8332" x2="47.1346" y2="38.9884" gradientUnits="userSpaceOnUse">
<stop offset="0.02" stop-color="white" stop-opacity="0"/>
<stop offset="0.58" stop-color="white" stop-opacity="0.39"/>
<stop offset="1" stop-color="white"/>
</linearGradient>
<linearGradient id="paint29_linear" x1="47.1863" y1="46.4366" x2="47.6109" y2="38.7269" gradientUnits="userSpaceOnUse">
<stop offset="0.02" stop-color="white" stop-opacity="0"/>
<stop offset="0.58" stop-color="white" stop-opacity="0.39"/>
<stop offset="1" stop-color="white"/>
</linearGradient>
<linearGradient id="paint30_linear" x1="1493.81" y1="168.173" x2="1496.03" y2="212.328" gradientUnits="userSpaceOnUse">
<stop stop-color="#010101" stop-opacity="0"/>
<stop offset="0.95" stop-color="#010101"/>
</linearGradient>
<linearGradient id="paint31_linear" x1="762.066" y1="422.747" x2="846.565" y2="422.747" gradientUnits="userSpaceOnUse">
<stop stop-color="#E5C6D6"/>
<stop offset="0.42" stop-color="#EAD4D0"/>
<stop offset="1" stop-color="#F0E9CB"/>
</linearGradient>
<linearGradient id="paint32_linear" x1="1381" y1="504.583" x2="1478.35" y2="504.583" gradientUnits="userSpaceOnUse">
<stop stop-color="#E5C6D6"/>
<stop offset="0.42" stop-color="#EAD4D0"/>
<stop offset="1" stop-color="#F0E9CB"/>
</linearGradient>
<linearGradient id="paint33_linear" x1="53.5219" y1="82.7341" x2="56.2328" y2="60.8931" gradientUnits="userSpaceOnUse">
<stop offset="0.02" stop-color="white" stop-opacity="0"/>
<stop offset="0.58" stop-color="white" stop-opacity="0.39"/>
<stop offset="1" stop-color="white"/>
</linearGradient>
<linearGradient id="paint34_linear" x1="32.5134" y1="30.2424" x2="33.141" y2="21.0676" gradientUnits="userSpaceOnUse">
<stop stop-opacity="0"/>
<stop offset="0.639117" stop-opacity="0.75"/>
<stop offset="1"/>
</linearGradient>
<linearGradient id="paint35_linear" x1="36.9974" y1="29.7953" x2="37.1859" y2="24.5142" gradientUnits="userSpaceOnUse">
<stop stop-opacity="0"/>
<stop offset="0.639117" stop-opacity="0.75"/>
<stop offset="1"/>
</linearGradient>
<linearGradient id="paint36_linear" x1="201.708" y1="414.206" x2="212.762" y2="411.576" gradientUnits="userSpaceOnUse">
<stop stop-color="#010101" stop-opacity="0"/>
<stop offset="0.95" stop-color="#010101"/>
</linearGradient>
<linearGradient id="paint37_linear" x1="36.2425" y1="24.8843" x2="33.9515" y2="24.6965" gradientUnits="userSpaceOnUse">
<stop offset="0.079127"/>
<stop offset="0.83" stop-opacity="0.07"/>
<stop offset="1" stop-opacity="0"/>
</linearGradient>
<clipPath id="clip0">
<rect width="80" height="80" fill="white"/>
</clipPath>
</defs>
</svg>
