<svg width="100" height="98" viewBox="0 0 100 98" fill="none" xmlns="http://www.w3.org/2000/svg">
<path opacity="0.18" d="M43.2078 92.4318C39.1546 89.8645 35.9583 83.6438 31.8877 81.1364C26.728 77.98 22.6827 78.4792 16.8481 78.9091C15.2272 79.0315 12.9348 77.6561 11.414 76.9968C10.0498 76.4024 5.94134 73.2277 5.04279 71.9091C-0.052597 64.4443 -0.0654449 53.2646 2.84341 44.3864C3.89642 41.1697 5.48031 38.1428 5.92197 34.7314C6.938 26.8995 3.34229 21.899 4.16251 14.0371C4.72818 8.62525 8.26144 3.98756 12.5954 1.77985C16.9293 -0.427857 21.9463 -0.41537 26.537 0.908257C31.5519 2.34926 36.1621 5.25874 41.1313 6.90204C50.5323 9.99383 60.5904 8.36302 70.2851 9.76906C79.9798 11.1751 90.5622 17.2913 92.4812 28.2998C93.6408 34.9479 91.3498 41.9856 92.8249 48.5513C94.0672 54.0731 97.8289 58.5609 98.808 64.1551C101.419 79.1845 86.6613 83.4051 78.3394 88.9494C68.1595 95.7299 53.664 99.0574 43.2078 92.4318Z" fill="#6E71FF"/>
<path d="M41.5091 33.5735C41.5536 34.2396 41.3937 34.9033 41.0501 35.4787C40.3323 36.7567 38.8639 37.705 37.3783 38.084C35.211 38.6296 32.9248 38.3627 30.7075 38.6551C28.6397 38.9305 26.6696 39.6917 24.9633 40.8746C23.1187 42.1594 21.1672 44.0323 18.9792 43.4238C17.1209 42.914 16.2581 40.341 17.4435 38.8352C14.5222 38.4966 11.5613 38.887 8.83328 39.9705C7.74277 40.4038 6.67295 40.9562 5.50134 41.031C4.32972 41.1057 3.00626 40.5415 2.69222 39.43C2.33331 38.1775 3.39795 36.9301 4.59027 36.3539C5.20502 36.0772 5.83938 35.8449 6.48832 35.6588C7.10301 35.4725 7.69453 35.2188 8.25179 34.9026C8.5343 34.7301 8.78904 34.517 9.00756 34.2703C9.69776 33.5073 10.0429 32.4468 9.5045 31.614C9.20731 31.1946 8.78529 30.8763 8.29665 30.7031C6.77131 30.1015 5.02682 30.3802 3.43936 29.9638C1.8519 29.5474 0.366239 27.7545 1.27903 26.3949C2.08657 25.2171 3.75513 25.2545 5.61867 25.5451C7.64096 25.8544 9.88411 26.4696 11.4854 26.1467C12.4361 25.9547 13.1608 25.4329 13.4818 24.3232C14.0426 22.3755 10.6416 19.5765 13.5888 18.069C15.4868 17.102 17.5695 19.6699 19.5728 18.8389C20.9895 18.2492 21.1913 16.3882 21.2483 14.8739C21.3052 13.3597 21.7659 11.4749 23.2757 11.1707C24.3852 10.9481 25.474 11.8403 25.864 12.8889C25.9886 13.2267 26.0669 13.5794 26.0969 13.9375C26.1557 14.6947 26.132 15.4559 26.0262 16.2081C25.9693 16.7604 25.9192 17.3433 26.1642 17.8345C26.568 18.64 27.4428 18.8083 28.3435 18.6026C29.1262 18.4179 29.8424 18.0252 30.4142 17.4674C31.584 16.3015 32.7746 14.6955 34.438 14.8569C35.5786 14.9674 36.2843 15.8495 36.5984 16.9541C36.8571 17.8846 36.8678 18.8651 36.6294 19.8008C36.1014 21.7858 34.9539 23.7827 35.5027 25.7626C36.393 29.0019 41.2745 30.2357 41.5091 33.5735Z" fill="#8181FB"/>
<path d="M41.5092 33.5736C41.5536 34.2396 41.3937 34.9034 41.0502 35.4787C40.627 35.6502 40.1886 35.7828 39.7405 35.8747C37.5733 36.3216 35.287 36.1041 33.0697 36.3403C31.0494 36.5509 29.0943 37.1675 27.3255 38.152C25.4793 39.1938 23.5294 40.72 21.3484 40.2356C19.49 39.8209 18.6204 37.7237 19.7954 36.4967C16.8919 36.218 13.9612 36.5328 11.1869 37.4212C10.1033 37.7747 9.02658 38.2217 7.85497 38.2829C6.68335 38.3441 5.39785 38.8233 5.08208 37.9226C4.77494 37.049 5.50483 36.1857 6.46249 35.6656C6.62671 35.567 6.80003 35.484 6.98014 35.4175C7.69195 35.0978 8.3709 34.7113 9.0076 34.2636C9.52631 33.9078 10.0656 33.5821 10.6227 33.288C11.7443 32.7306 12.569 31.507 11.8702 30.6079C11.5993 30.2544 11.1403 30.0182 10.6624 29.8635C9.13184 29.3741 7.39426 29.6035 5.80679 29.2619C4.21933 28.9203 2.72677 27.4622 3.63956 26.3728C4.07439 25.8527 4.77322 25.6233 5.61699 25.5672C7.63928 25.8765 9.88243 26.4917 11.4837 26.1688C13.5301 26.3864 15.2953 26.2487 15.8492 24.6852C16.4031 23.1216 13.0021 20.8273 15.9493 19.5986C17.8474 18.8117 19.9369 20.9021 21.9333 20.2257C23.3569 19.7413 23.5519 18.2288 23.6157 16.9966C23.6796 15.7645 24.1299 14.2112 25.6345 13.9698C25.7885 13.9451 25.9449 13.9388 26.1004 13.9511C26.157 14.7039 26.1322 15.4605 26.0262 16.2081C25.9693 16.7604 25.9193 17.3433 26.1643 17.8345C26.568 18.6401 27.4429 18.8083 28.3436 18.6027C28.33 18.8779 28.3958 19.1513 28.5334 19.3912C29.2702 20.5809 31.6065 20.0421 32.7781 19.087C33.8997 18.1761 35.0334 16.9355 36.5949 16.9541C36.8537 17.8846 36.8644 18.8651 36.626 19.8008C36.098 21.7858 34.9505 23.7827 35.4992 25.7627C36.3931 29.0019 41.2745 30.2357 41.5092 33.5736Z" fill="url(#paint0_linear)"/>
<path d="M14.3034 14.5544C13.8358 14.1686 13.4113 13.6163 13.5027 13.0249C13.5272 12.8606 13.5902 12.7042 13.6868 12.5681C13.7834 12.432 13.9109 12.3199 14.0591 12.2409C14.2074 12.1619 14.3724 12.118 14.5409 12.1128C14.7094 12.1075 14.8768 12.1411 15.0299 12.2108C15.5838 12.4606 15.8253 13.1235 15.8271 13.7251C15.8271 14.0429 15.8512 15.0218 15.5027 15.1798C15.1541 15.3379 14.5364 14.7465 14.3034 14.5544Z" fill="#8181FB"/>
<path d="M1.82304 31.8112C1.60598 31.9032 1.43474 32.0761 1.34679 32.2921C1.00168 32.9719 1.06035 33.9169 1.68327 34.3672C2.64613 35.0623 4.44416 34.8992 4.58048 33.5175C4.69954 32.3533 2.83249 31.49 1.82304 31.8112Z" fill="#8181FB"/>
<path d="M10.2962 13.188C10.2565 12.8753 9.97695 12.6527 9.71812 12.4658C9.26947 12.1411 8.64309 11.8131 8.20308 12.1513C7.90628 12.3791 7.87177 12.8311 8.02017 13.171C8.19496 13.5031 8.4418 13.7932 8.74318 14.0208C8.9508 14.2314 9.20461 14.3924 9.48517 14.4916C9.77334 14.5663 10.1288 14.4763 10.2565 14.2128C10.3842 13.9494 10.3272 13.5228 10.6189 13.4702" fill="#8181FB"/>
<path d="M2.42455 20.9463C2.34427 20.8636 2.24349 20.803 2.13216 20.7705C2.02083 20.7379 1.9028 20.7345 1.78973 20.7606C1.67665 20.7866 1.57243 20.8413 1.48737 20.9192C1.4023 20.9971 1.33933 21.0954 1.30466 21.2046C1.20458 21.5105 1.34435 21.8453 1.54451 22.0985C1.6755 22.2864 1.87308 22.4191 2.09842 22.4707C2.49184 22.5268 2.84213 22.1648 2.92841 21.7909C2.98282 21.5837 2.95762 21.364 2.85766 21.174C2.80855 21.0821 2.73365 21.0059 2.64188 20.9547C2.5501 20.9035 2.44532 20.8793 2.34 20.8851" fill="#8181FB"/>
<path d="M10.1297 16.3678C10.0753 16.3125 10.0073 16.2719 9.93229 16.2499C9.8573 16.228 9.77783 16.2254 9.70154 16.2425C9.62526 16.2596 9.55472 16.2957 9.49673 16.3474C9.43874 16.3991 9.39525 16.4647 9.37045 16.5378C9.34595 16.6447 9.34806 16.7558 9.3766 16.8618C9.40515 16.9677 9.45928 17.0653 9.53438 17.1462C9.62322 17.2747 9.75828 17.3652 9.91228 17.3994C10.1797 17.4385 10.4179 17.1921 10.4765 16.932C10.5146 16.7911 10.4974 16.6412 10.4282 16.5123C10.3931 16.4492 10.3402 16.3975 10.2759 16.3634C10.2116 16.3293 10.1386 16.3143 10.0658 16.3202" fill="#8181FB"/>
<path opacity="0.35" d="M26.301 71.9822C31.9693 71.6304 38.5141 72.0366 42.0031 76.4536C43.3593 78.1718 44.0841 80.3387 45.6042 81.9192C48.5773 85.0157 53.5122 84.9528 57.8294 84.6656C62.3675 84.3648 67.349 83.8702 70.5067 80.6446C74.6945 76.3669 74.2062 68.6682 79.1635 65.2811C81.1565 63.9215 83.6654 63.5612 85.8757 62.5806C88.0861 61.6 90.1895 59.4875 89.7271 57.1422C89.2198 54.5573 86.1035 53.4968 83.4894 52.9801C64.6319 49.2782 45.2443 49.0207 26.2924 52.2205C21.3851 53.0515 16.3052 54.2123 12.4884 57.3615C9.39283 59.9107 5.78653 66.3943 9.3031 69.8545C12.9077 73.4064 21.851 72.2593 26.301 71.9822Z" fill="#6E71FF"/>
<path d="M22.111 46.6172C54.5505 39.0051 70.7098 54.7272 72.2352 66.0441C73.5103 75.5002 68.9015 88.6662 51.9001 84.4701C39.0555 81.2989 50.0366 71.6848 38.9209 69.416C30.585 67.7165 13.9805 69.6845 7.01806 65.7314C6.27091 65.3066 -10.3232 54.2275 22.111 46.6172Z" fill="#8181FB"/>
<path d="M22.1114 46.6172C54.5509 39.0051 70.7102 54.7272 72.2355 66.0441C73.5107 75.5002 68.9019 88.6662 51.9005 84.4701C39.0558 81.2989 50.0369 71.6848 38.9212 69.416C30.4663 67.6876 13.4839 69.7423 6.71474 65.5513C6.09701 65.1689 -10.3229 54.2275 22.1114 46.6172Z" fill="url(#paint1_linear)"/>
<path opacity="0.85" d="M5.13054 61.4368C5.13054 61.4368 -10.3231 51.4234 22.1112 43.813C54.5455 36.2026 70.71 51.9247 72.2353 63.24C73.5105 72.696 68.9017 85.8637 51.9003 81.666C39.0556 78.4947 50.0367 68.8806 38.9211 66.6118C29.6896 64.727 10.3174 67.346 5.13054 61.4368Z" fill="#8181FB"/>
<path d="M22.6439 51.1735C22.6653 51.5283 22.5749 51.8809 22.385 52.1831C21.6845 53.4356 19.5673 54.4383 17.0118 54.5879C14.3321 54.7578 12.0079 53.9268 11.2625 52.6674C11.1111 52.4265 11.0217 52.153 11.0019 51.8703C10.9018 50.1708 13.4176 48.6413 16.6357 48.456C19.8537 48.2708 22.5369 49.4808 22.6439 51.1735Z" fill="url(#paint2_linear)"/>
<path d="M40.5345 47.1679C40.5553 47.5251 40.4669 47.8803 40.2809 48.1876C39.5734 49.4401 37.4649 50.4343 34.9077 50.5839C32.2297 50.7538 29.9037 49.9228 29.16 48.6634C29.0047 48.425 28.9149 48.1509 28.8995 47.8681C28.7977 46.1686 31.3152 44.639 34.5263 44.4521C37.7375 44.2651 40.4327 45.4752 40.5345 47.1679Z" fill="url(#paint3_linear)"/>
<path d="M36.2016 55.1776C36.2214 55.533 36.1305 55.8858 35.941 56.1888C35.2405 57.4397 33.125 58.4424 30.5678 58.5919C27.8881 58.7619 25.5639 57.9308 24.8184 56.6715C24.6661 56.4312 24.5771 56.1572 24.5596 55.8744C24.4578 54.1749 26.9753 52.6454 30.1917 52.4601C33.408 52.2749 36.0929 53.4849 36.2016 55.1776Z" fill="url(#paint4_linear)"/>
<path d="M55.7221 51.5066C55.743 51.8621 55.652 52.2152 55.4615 52.5178C54.761 53.7687 52.6455 54.7731 50.0883 54.9226C47.4104 55.0926 45.0844 54.2598 44.3407 53.0005C44.1884 52.7607 44.0988 52.4874 44.0801 52.2051C43.9783 50.5056 46.4958 48.9761 49.7139 48.7908C52.932 48.6056 55.6134 49.8139 55.7221 51.5066Z" fill="url(#paint5_linear)"/>
<path d="M67.7184 59.0185C67.7406 59.3756 67.6528 59.731 67.4665 60.0382C66.7591 61.289 64.6419 62.2934 62.0864 62.4413C59.3998 62.6112 57.0824 61.7802 56.337 60.514C56.1878 60.2758 56.1007 60.0049 56.0834 59.7255C55.9764 58.026 58.4991 56.4964 61.7102 56.3112C64.9214 56.1259 67.6097 57.3258 67.7184 59.0185Z" fill="url(#paint6_linear)"/>
<path d="M62.3883 68.935C62.4082 69.2887 62.3204 69.6402 62.1364 69.9445C61.4359 71.1971 59.3187 72.1998 56.7632 72.3493C54.0766 72.5193 51.7506 71.6882 51.0069 70.4221C50.8575 70.1833 50.7703 69.9118 50.7533 69.6318C50.6463 67.9323 53.169 66.4028 56.3801 66.2175C59.5913 66.0323 62.2814 67.2423 62.3883 68.935Z" fill="url(#paint7_linear)"/>
<path d="M51.3826 59.5164C51.4024 59.8718 51.3115 60.2246 51.122 60.5276C50.4215 61.7785 48.306 62.7829 45.7557 62.9307C43.0691 63.1007 40.7431 62.2696 39.9994 61.0035C39.8498 60.7656 39.7632 60.4944 39.7475 60.2149C39.6388 58.5154 42.1632 56.9995 45.3727 56.8006C48.5821 56.6018 51.2739 57.8237 51.3826 59.5164Z" fill="url(#paint8_linear)"/>
<path d="M22.3853 52.183C21.6847 53.4356 19.5675 54.4383 17.0121 54.5878C14.3324 54.7578 12.0081 53.9267 11.2627 52.6674C11.9632 51.4149 14.0787 50.4122 16.6359 50.2626C19.3156 50.0995 21.633 50.9237 22.3853 52.183Z" fill="#3D3D8E"/>
<path d="M40.28 48.179C39.5726 49.4315 37.464 50.4257 34.9068 50.5753C32.2288 50.7452 29.9029 49.9142 29.1592 48.6548C29.8597 47.404 31.9683 46.3996 34.5255 46.2518C37.2121 46.0937 39.5295 46.9197 40.28 48.179Z" fill="#3D3D8E"/>
<path d="M35.941 56.1888C35.2404 57.4396 33.1249 58.4423 30.5677 58.5919C27.888 58.7618 25.5638 57.9308 24.8184 56.6715C25.5189 55.4206 27.6361 54.4162 30.1916 54.2667C32.8713 54.1069 35.1904 54.9295 35.941 56.1888Z" fill="#3D3D8E"/>
<path d="M55.4607 52.5178C54.7602 53.7687 52.6447 54.7731 50.0875 54.9226C47.4095 55.0926 45.0835 54.2598 44.3398 53.0005C45.0404 51.7497 47.1559 50.747 49.7131 50.5974C52.3928 50.4326 54.7101 51.2585 55.4607 52.5178Z" fill="#3D3D8E"/>
<path d="M67.4654 60.0296C66.758 61.2804 64.6408 62.2849 62.0853 62.4327C59.3987 62.6027 57.0814 61.7716 56.3359 60.5055C57.0365 59.2546 59.152 58.2587 61.7092 58.1007C64.3958 57.9375 66.7131 58.7635 67.4654 60.0296Z" fill="#3D3D8E"/>
<path d="M62.1285 69.9446C61.428 71.1971 59.3108 72.1998 56.7553 72.3494C54.0687 72.5193 51.7427 71.6883 50.999 70.4221C51.6996 69.1696 53.815 68.1669 56.3722 68.0173C59.0588 67.8542 61.3848 68.6785 62.1285 69.9446Z" fill="#3D3D8E"/>
<path d="M51.1216 60.5276C50.4211 61.7785 48.3056 62.7829 45.7553 62.9307C43.0687 63.1007 40.7427 62.2696 39.999 61.0035C40.7065 59.7526 42.8168 58.7567 45.3722 58.6072C48.0519 58.4423 50.371 59.2683 51.1216 60.5276Z" fill="#3D3D8E"/>
<path d="M22.3853 52.183C21.6847 53.4356 19.5675 54.4383 17.0121 54.5878C14.3324 54.7578 12.0081 53.9267 11.2627 52.6674C11.9632 51.4149 14.0787 50.4122 16.6359 50.2626C19.3156 50.0995 21.633 50.9237 22.3853 52.183Z" fill="url(#paint9_linear)"/>
<path d="M40.28 48.179C39.5726 49.4315 37.464 50.4257 34.9068 50.5753C32.2288 50.7452 29.9029 49.9142 29.1592 48.6548C29.8597 47.404 31.9683 46.3996 34.5255 46.2518C37.2121 46.0937 39.5295 46.9197 40.28 48.179Z" fill="url(#paint10_linear)"/>
<path d="M35.941 56.1888C35.2404 57.4396 33.1249 58.4423 30.5677 58.5919C27.888 58.7618 25.5638 57.9308 24.8184 56.6715C25.5189 55.4206 27.6361 54.4162 30.1916 54.2667C32.8713 54.1069 35.1904 54.9295 35.941 56.1888Z" fill="url(#paint11_linear)"/>
<path d="M55.4607 52.5178C54.7602 53.7687 52.6447 54.7731 50.0875 54.9226C47.4095 55.0926 45.0835 54.2598 44.3398 53.0005C45.0404 51.7497 47.1559 50.747 49.7131 50.5974C52.3928 50.4326 54.7101 51.2585 55.4607 52.5178Z" fill="url(#paint12_linear)"/>
<path d="M67.4654 60.0296C66.758 61.2804 64.6408 62.2849 62.0853 62.4327C59.3987 62.6027 57.0814 61.7716 56.3359 60.5055C57.0365 59.2546 59.152 58.2587 61.7092 58.1007C64.3958 57.9375 66.7131 58.7635 67.4654 60.0296Z" fill="url(#paint13_linear)"/>
<path d="M62.1285 69.9446C61.428 71.1971 59.3108 72.1998 56.7553 72.3494C54.0687 72.5193 51.7427 71.6883 50.999 70.4221C51.6996 69.1696 53.815 68.1669 56.3722 68.0173C59.0588 67.8542 61.3848 68.6785 62.1285 69.9446Z" fill="url(#paint14_linear)"/>
<path d="M51.1216 60.5276C50.4211 61.7785 48.3056 62.7829 45.7553 62.9307C43.0687 63.1007 40.7427 62.2696 39.999 61.0035C40.7065 59.7526 42.8168 58.7567 45.3722 58.6072C48.0519 58.4423 50.371 59.2683 51.1216 60.5276Z" fill="url(#paint15_linear)"/>
<path d="M73.785 31.8571C73.785 31.8571 72.8049 31.1671 72.6323 30.924C72.4598 30.681 73.0706 29.9468 72.8912 29.7871C72.7117 29.6273 72.0474 29.2925 72.1129 28.973C72.1785 28.6535 73.2829 29.3877 73.785 29.7548C74.2871 30.1219 74.7427 31.0991 74.7427 31.0991C74.7427 31.0991 74.6133 32.0406 73.785 31.8571Z" fill="#E7CAD4"/>
<path d="M66.658 35.5517L87.6522 20.2443L95.0322 14.7668C95.0322 14.7668 95.3877 13.6316 94.323 13.7183C93.2584 13.8049 57.6716 37.2988 57.6716 37.2988L55.0713 39.5082L57.7907 42.535L66.658 35.5517Z" fill="#8181FB"/>
<path d="M66.658 35.5517L87.6522 20.2443L95.0322 14.7668C95.0322 14.7668 95.3877 13.6316 94.323 13.7183C93.2584 13.8049 57.6716 37.2988 57.6716 37.2988L55.0713 39.5082L57.7907 42.535L66.658 35.5517Z" fill="url(#paint16_linear)"/>
<path d="M83.8807 27.5624C83.8807 27.5624 85.7787 26.9931 85.9754 27.1817C86.1722 27.3704 84.4794 39.187 84.3932 39.6918C84.3069 40.1965 81.4857 40.0317 80.2882 39.6918C79.4907 39.4553 78.7177 39.1452 77.9795 38.7655C77.9795 38.7655 79.3599 27.9703 79.6135 27.8021C79.8672 27.6338 81.729 27.486 81.729 27.486L83.8807 27.5624Z" fill="#6E71FF"/>
<path d="M79.8709 27.6916C79.5741 27.7935 79.309 27.9691 79.1013 28.2014C78.8459 28.5413 76.7925 32.5827 77.0496 33.424C77.3067 34.2652 78.1919 34.8821 78.449 34.7139C78.7061 34.5456 79.1875 33.0025 79.2721 32.666C79.3566 32.3295 79.524 31.2197 79.524 31.2197L79.8709 27.6916Z" fill="#6E71FF"/>
<path d="M76.999 56.2058C76.999 56.2058 76.6367 57.5484 76.4676 57.647C76.2984 57.7455 75.7066 57.4362 75.3632 57.1915C75.0198 56.9468 75.1423 56.425 75.1423 56.425L75.2925 56.0154L76.999 56.2058Z" fill="#E7CAD4"/>
<path d="M85.989 55.4869C85.989 55.4869 86.7448 57.3852 86.6775 57.5671C86.6102 57.7489 85.8147 57.4838 85.3833 57.511C84.9519 57.5382 84.7983 56.8924 84.7983 56.8924L84.6465 56.4862L85.989 55.4869Z" fill="#E7CAD4"/>
<path d="M84.0515 26.5512C84.0515 26.5512 83.7944 27.6457 83.879 28.0671C83.9635 28.4886 83.2802 29.6681 82.4243 29.6681C81.5684 29.6681 81.5615 28.2354 81.5615 28.0671C81.5615 27.8989 81.8186 27.8156 81.7341 27.3873C81.6495 26.9591 83.9652 26.0464 84.0515 26.5512Z" fill="#E7CAD4"/>
<path d="M81.7425 27.3941C81.7656 27.4925 81.7651 27.5949 81.7411 27.6931C81.7172 27.7913 81.6704 27.8827 81.6045 27.96C81.7922 28.1452 82.0432 28.2549 82.3085 28.2676C82.8262 28.2676 83.5906 27.8462 83.934 27.0882L83.9512 27.0457C83.9996 26.7687 84.0513 26.5512 84.0513 26.5512C83.9651 26.0464 81.6563 26.9726 81.7425 27.3941Z" fill="#E7CAD4"/>
<path d="M83.863 27.9108C83.863 27.9108 83.1728 29.4998 82.5861 29.6681C82.5861 29.6681 82.4256 29.753 82.8536 30.008C83.2815 30.2629 84.479 28.9883 84.3082 28.0705C84.2898 27.9525 84.241 27.8412 84.1663 27.7472C84.0917 27.6531 83.9938 27.5795 83.882 27.5335L83.863 27.9108Z" fill="white"/>
<path d="M81.7432 27.5624C81.7432 27.5624 81.5534 28.7316 82.0331 29.5372C82.0331 29.5372 81.8278 29.8363 81.6569 29.8363C81.4861 29.8363 81.0581 28.8251 81.229 28.0671C81.3291 27.6253 81.6569 27.4417 81.7432 27.5624Z" fill="white"/>
<path d="M84.3925 39.6917L83.4573 47.0199L86.3716 56.4947C86.3716 56.4947 85.8367 56.787 84.7255 56.702L80.7758 47.3326L80.7206 41.3844L79.4369 46.522L76.978 56.5405C76.978 56.5405 75.727 56.8108 74.9902 56.289L76.6157 46.522L77.984 38.7723L84.3925 39.6917Z" fill="#0A0A0D"/>
<path d="M81.229 24.109C81.229 24.109 81.0565 26.2979 81.229 26.8877C81.4016 27.4774 81.9193 27.9839 82.4266 27.9839C82.9339 27.9839 83.7104 27.5624 84.052 26.8044C84.3937 26.0464 84.5697 24.1923 84.48 23.939C84.3903 23.6858 83.8778 22.8905 82.5128 23.0128C81.5707 23.0978 81.229 23.7708 81.229 24.109Z" fill="#E7CAD4"/>
<path d="M81.229 24.109C81.229 24.109 81.0565 26.2979 81.229 26.8877C81.4016 27.4774 81.9193 27.9839 82.4266 27.9839C82.9339 27.9839 83.7104 27.5624 84.052 26.8044C84.3937 26.0464 84.5697 24.1923 84.48 23.939C84.3903 23.6858 83.8778 22.8905 82.5128 23.0128C81.5707 23.0978 81.229 23.7708 81.229 24.109Z" fill="url(#paint17_linear)"/>
<path d="M84.3758 25.1882C84.3501 25.227 84.3159 25.2597 84.2757 25.2838C84.2355 25.3079 84.1904 25.3229 84.1436 25.3276C84.0968 25.3323 84.0495 25.3267 84.0052 25.3111C83.9609 25.2955 83.9207 25.2704 83.8875 25.2375C83.8249 25.1657 83.7798 25.0807 83.7556 24.9892C83.7313 24.8976 83.7286 24.8017 83.7477 24.709C83.7719 24.5203 83.8357 24.3385 83.8478 24.1498C83.8516 24.1285 83.8509 24.1067 83.8459 24.0857C83.8408 24.0647 83.8315 24.0448 83.8185 24.0275C83.8013 24.0136 83.7814 24.0033 83.76 23.9975C83.7386 23.9916 83.7162 23.9903 83.6942 23.9935C83.4354 23.9935 83.1317 24.1005 82.9522 23.9187C82.8435 23.8116 82.8125 23.623 82.6675 23.5788C82.5485 23.5363 82.4225 23.6162 82.3103 23.674C82.0409 23.809 81.7294 23.8381 81.4389 23.7555C81.4081 23.7502 81.3786 23.7389 81.3523 23.7223C81.3259 23.7057 81.3032 23.684 81.2854 23.6587C81.2663 23.6148 81.2609 23.5663 81.2698 23.5193C81.2882 23.3681 81.3395 23.2225 81.4202 23.0926C81.5009 22.9627 81.6091 22.8514 81.7375 22.7664C81.9561 22.6383 82.1993 22.5561 82.4518 22.5251C82.7422 22.474 83.0356 22.4405 83.3301 22.4248C83.4873 22.4042 83.6473 22.4241 83.7943 22.4826C83.9315 22.5702 84.0547 22.6773 84.1601 22.8004C84.3327 22.9534 84.5415 23.0621 84.6778 23.2491C84.7813 23.4003 85.0074 23.3969 85.0867 23.7589C85.154 24.0835 85.1989 24.4116 85.2593 24.7379C85.3197 25.0642 85.1782 25.4007 85.1092 25.7253C84.966 26.3898 84.966 26.3898 84.7209 26.6175C84.5736 26.7421 84.4092 26.8456 84.2326 26.9251C84.1709 26.9662 84.0952 26.9814 84.0221 26.9676C83.9531 26.9438 83.9254 26.8282 83.9945 26.7976" fill="#3E3E54"/>
<path d="M84.0875 25.5281C84.0875 25.5281 84.1738 25.0183 84.5154 25.1882C84.8571 25.3582 84.4309 26.2827 84.2583 26.3677C84.1813 26.4138 84.093 26.4384 84.0029 26.4391" fill="#E7CAD4"/>
<path d="M84.0875 25.5281C84.0875 25.5281 84.1738 25.0183 84.5154 25.1882C84.8571 25.3582 84.4309 26.2827 84.2583 26.3677C84.1813 26.4138 84.093 26.4384 84.0029 26.4391" fill="url(#paint18_linear)"/>
<path d="M78.6631 34.0324L74.5131 30.5807C74.5131 30.5807 73.5468 30.6912 73.502 31.8231C73.502 31.8231 75.4087 34.1769 77.362 35.3614C78.2058 35.873 78.8684 34.2227 78.6631 34.0324Z" fill="#6E71FF"/>
<path d="M78.4486 34.7088L79.2096 29.8363L78.2295 35.1014L78.4486 34.7088Z" fill="url(#paint19_linear)"/>
<path d="M73.465 57.042C73.2489 57.0949 73.0482 57.1961 72.8783 57.3377C72.7955 57.411 72.7409 57.5102 72.7237 57.6185C72.7064 57.7268 72.7275 57.8377 72.7834 57.9325C72.853 58.0006 72.9366 58.0532 73.0286 58.0869C73.1205 58.1206 73.2187 58.1346 73.3166 58.128C74.3224 58.1954 75.3322 58.1761 76.3346 58.0702C76.374 58.0683 76.4124 58.0572 76.4467 58.0379C76.4968 58.0022 76.6693 57.8985 76.678 57.8374L76.8091 56.8669C76.5019 56.923 76.0274 57.0165 75.7185 56.9638C75.3199 56.8941 75.1629 56.5083 74.7781 56.5831C74.3398 56.6698 73.8912 56.9026 73.465 57.042Z" fill="#8181FB"/>
<path d="M83.4633 57.3479C83.2473 57.4007 83.0465 57.5019 82.8766 57.6436C82.7937 57.7165 82.739 57.8153 82.7217 57.9234C82.7044 58.0316 82.7256 58.1422 82.7817 58.2367C82.8512 58.305 82.9348 58.358 83.0267 58.392C83.1187 58.426 83.2169 58.4402 83.3149 58.4338C84.3207 58.5013 85.3305 58.482 86.3329 58.3761C86.3724 58.3742 86.4108 58.3631 86.4451 58.3438C86.4951 58.3081 86.8454 58.1347 86.8523 58.0735C86.8972 57.7506 86.6314 57.2765 86.5986 57.0538C86.2915 57.1116 86.0258 57.3292 85.7169 57.2765C85.3183 57.2068 85.1613 56.8193 84.7765 56.8958C84.3382 56.9757 83.8895 57.2085 83.4633 57.3479Z" fill="#8181FB"/>
<path d="M87.6443 21.3813C87.7461 21.0089 87.7461 20.6167 87.6443 20.2443C87.5304 19.8603 87.3318 19.5057 87.0628 19.206C86.7939 19.1182 86.5042 19.1141 86.2328 19.1941C85.8584 19.3385 86.3864 19.9996 86.3381 20.314C86.2898 20.6284 85.9826 19.7515 85.8014 19.828C85.6203 19.9044 86.0827 21.1128 86.4278 21.264" fill="#E7CAD4"/>
<path d="M84.0183 31.546C84.0183 31.546 85.3004 31.2163 85.718 30.4396C86.1355 29.6629 88.3563 26.0872 88.2908 25.2544C88.2148 24.2925 87.742 21.1331 87.742 21.1331C87.742 21.1331 87.6903 20.8748 87.0708 20.953C86.4513 21.0312 86.3547 21.3813 86.3547 21.3813L86.2995 25.0913L84.4117 28.5039C84.4117 28.5039 83.6404 30.8509 84.0183 31.546Z" fill="#6E71FF"/>
<path d="M56.663 38.0381C56.1143 38.0619 55.8002 38.6534 55.355 38.9678C55.0341 39.1938 54.632 39.2754 54.2818 39.4572C53.9315 39.6391 53.6106 39.9926 53.6899 40.3733C53.7428 40.556 53.8399 40.7234 53.9729 40.861L56.0038 43.3117C56.1263 43.4613 56.2972 43.6261 56.4852 43.5751C56.5491 43.5521 56.6078 43.5168 56.6578 43.4715L58.97 41.6343C59.1977 41.4541 59.4497 41.2213 59.4169 40.9358C59.3792 40.7623 59.2883 40.6045 59.1563 40.4837C58.5386 39.7937 57.7449 38.0381 56.663 38.0381Z" fill="#8181FB"/>
<path d="M56.663 38.0381C56.1143 38.0619 55.8002 38.6534 55.355 38.9678C55.0341 39.1938 54.632 39.2754 54.2818 39.4572C53.9315 39.6391 53.6106 39.9926 53.6899 40.3733C53.7428 40.556 53.8399 40.7234 53.9729 40.861L56.0038 43.3117C56.1263 43.4613 56.2972 43.6261 56.4852 43.5751C56.5491 43.5521 56.6078 43.5168 56.6578 43.4715L58.97 41.6343C59.1977 41.4541 59.4497 41.2213 59.4169 40.9358C59.3792 40.7623 59.2883 40.6045 59.1563 40.4837C58.5386 39.7937 57.7449 38.0381 56.663 38.0381Z" fill="url(#paint20_linear)"/>
<path d="M51.9933 41.1805C51.467 41.794 51.1029 42.5248 50.6888 43.2199C50.2747 43.915 49.7829 44.5931 49.1359 45.0894C48.4888 45.5856 47.6364 45.8745 46.8271 45.7284L47.2326 46.4558C49.2873 46.6677 51.364 46.5006 53.3564 45.9629C54.233 45.7267 55.1216 45.3987 55.7618 44.7733C56.402 44.1478 56.7333 43.1247 56.3398 42.3192C55.9464 41.5136 54.9819 41.1142 54.3814 40.4497C54.0156 40.0435 53.9086 39.9892 53.3461 40.205C52.8198 40.4142 52.3548 40.7495 51.9933 41.1805Z" fill="white"/>
<path d="M50.3088 44.4197C50.3112 44.3887 50.3069 44.3575 50.2961 44.3282C50.2854 44.2989 50.2686 44.2722 50.2466 44.2497C50.1535 44.1784 50.0292 44.2735 49.943 44.35C49.4253 44.8106 48.6764 44.8378 47.9896 44.9024C47.3028 44.9669 46.5229 45.159 46.2088 45.764C46.0363 46.0835 46.0363 46.4591 46.0466 46.8177C46.0466 47.4074 46.0604 48.0073 46.2848 48.5597C46.3555 48.7296 46.5212 48.9285 46.6972 48.8554C46.7424 48.8279 46.7812 48.7913 46.811 48.7479C46.8407 48.7046 46.8607 48.6554 46.8697 48.6039C46.9733 48.2827 47.0423 47.9343 47.2683 47.681C47.6134 47.2952 48.2036 47.2647 48.7247 47.2001C49.5864 47.0977 50.4184 46.8261 51.1715 46.4013C51.3614 46.2925 51.5736 46.1158 51.5167 45.9051C51.4597 45.6943 51.1405 45.6365 50.9144 45.7079C50.6884 45.7793 50.4727 45.9238 50.2432 45.8779C50.2535 45.6484 50.1845 45.4207 50.2018 45.1981C50.2139 44.9295 50.3277 44.6916 50.3088 44.4197Z" fill="#8181FB"/>
<path d="M50.3088 44.4197C50.3112 44.3887 50.3069 44.3575 50.2961 44.3282C50.2854 44.2989 50.2686 44.2722 50.2466 44.2497C50.1535 44.1784 50.0292 44.2735 49.943 44.35C49.4253 44.8106 48.6764 44.8378 47.9896 44.9024C47.3028 44.9669 46.5229 45.159 46.2088 45.764C46.0363 46.0835 46.0363 46.4591 46.0466 46.8177C46.0466 47.4074 46.0604 48.0073 46.2848 48.5597C46.3555 48.7296 46.5212 48.9285 46.6972 48.8554C46.7424 48.8279 46.7812 48.7913 46.811 48.7479C46.8407 48.7046 46.8607 48.6554 46.8697 48.6039C46.9733 48.2827 47.0423 47.9343 47.2683 47.681C47.6134 47.2952 48.2036 47.2647 48.7247 47.2001C49.5864 47.0977 50.4184 46.8261 51.1715 46.4013C51.3614 46.2925 51.5736 46.1158 51.5167 45.9051C51.4597 45.6943 51.1405 45.6365 50.9144 45.7079C50.6884 45.7793 50.4727 45.9238 50.2432 45.8779C50.2535 45.6484 50.1845 45.4207 50.2018 45.1981C50.2139 44.9295 50.3277 44.6916 50.3088 44.4197Z" fill="url(#paint21_linear)"/>
<path d="M47.1469 46.1192C47.395 45.8866 47.6886 45.7062 48.0097 45.589C48.5015 45.3915 49.019 45.2634 49.5472 45.2083C49.7046 45.207 49.8595 45.1691 49.9993 45.0978C50.0332 45.084 50.0641 45.0637 50.0902 45.0381C50.1162 45.0125 50.1368 44.9821 50.1509 44.9486C50.165 44.9152 50.1723 44.8793 50.1723 44.8431C50.1724 44.8069 50.1651 44.771 50.1511 44.7375C50.137 44.704 50.1164 44.6736 50.0905 44.648C50.0645 44.6223 50.0336 44.602 49.9996 44.5881C49.9657 44.5742 49.9293 44.5671 49.8925 44.567C49.8557 44.567 49.8193 44.5741 49.7853 44.588C49.6631 44.6292 49.547 44.6864 49.4402 44.7579C48.9622 45.0111 48.3962 45.0247 47.8596 45.0978C47.3229 45.1709 46.7466 45.3731 46.4791 45.8371C46.3066 46.1481 46.2893 46.5169 46.2893 46.8823C46.2669 47.3629 46.3181 47.8442 46.4412 48.3099C46.4636 48.3795 46.5102 48.4628 46.5844 48.456C46.6235 48.4469 46.6576 48.4231 46.6793 48.3897C46.9933 48.0039 46.6983 47.6521 46.6983 47.2307C46.6976 46.8172 46.8583 46.4194 47.1469 46.1192Z" fill="url(#paint22_linear)"/>
<path d="M47.1157 49.3143C46.8414 49.4333 46.7706 49.7766 46.7396 50.0689C46.6875 50.5324 46.6846 51.0001 46.7309 51.4642C46.7316 51.5653 46.7532 51.6653 46.7944 51.7579C46.8356 51.8506 46.8957 51.9339 46.9708 52.0029C47.0442 52.0496 47.1288 52.0763 47.216 52.0805C47.3033 52.0847 47.3901 52.0661 47.4677 52.0267C47.6234 51.9454 47.7495 51.8182 47.8284 51.663C48.1252 51.1328 47.8888 50.7198 47.8129 50.1828C47.7663 49.8667 47.6144 49.0985 47.1157 49.3143Z" fill="url(#paint23_linear)"/>
<path d="M46.1572 49.4112C46.0825 49.4299 46.0133 49.4655 45.9549 49.515C45.8965 49.5645 45.8506 49.6267 45.8207 49.6967C45.7918 49.7426 45.7725 49.7938 45.7639 49.8472C45.7553 49.9006 45.7576 49.9552 45.7707 50.0077C45.7982 50.0751 45.8502 50.1299 45.9167 50.1613C45.9831 50.1928 46.059 50.1986 46.1296 50.1777C46.1976 50.1522 46.2569 50.1084 46.3008 50.0513C46.3448 49.9942 46.3715 49.9261 46.3781 49.8547C46.3896 49.7104 46.3453 49.5671 46.2539 49.4537" fill="url(#paint24_linear)"/>
<path d="M23.6963 33.9865C23.6963 33.9865 24.4055 34.6952 24.7316 34.7343C25.0578 34.7733 27.4925 34.0409 27.6961 33.8658C27.8997 33.6908 28.0671 32.6099 28.0671 32.6099L23.6963 33.9865Z" fill="#8181FB"/>
<path d="M23.6963 33.9865C23.6963 33.9865 24.4055 34.6952 24.7316 34.7343C25.0578 34.7733 27.4925 34.0409 27.6961 33.8658C27.8997 33.6908 28.0671 32.6099 28.0671 32.6099L23.6963 33.9865Z" fill="url(#paint25_linear)"/>
<path d="M27.7211 28.2405C27.7222 28.2924 27.7345 28.3434 27.7573 28.3901C28.1455 29.1039 24.8377 34.1684 22.0303 30.4567C21.7903 30.1344 21.5773 29.7934 21.3936 29.437C21.3936 29.437 14.9644 22.639 16.595 18.3342C18.217 14.0531 24.4357 12.6068 27.7849 16.8046C30.2662 19.9045 27.6106 26.9353 27.7211 28.2405Z" fill="#8181FB"/>
<path d="M27.7211 28.2405C27.7222 28.2924 27.7345 28.3434 27.7573 28.3901C28.1455 29.1039 24.8377 34.1684 22.0303 30.4567C21.7903 30.1344 21.5773 29.7934 21.3936 29.437C21.3936 29.437 14.9644 22.639 16.595 18.3342C18.217 14.0531 24.4357 12.6068 27.7849 16.8046C30.2662 19.9045 27.6106 26.9353 27.7211 28.2405Z" fill="url(#paint26_linear)"/>
<path d="M27.7572 28.39C28.1455 29.1038 24.8377 34.1683 22.0303 30.4566C22.7275 29.6625 23.6097 29.0467 24.6014 28.662C25.5931 28.2772 26.6647 28.1349 27.7244 28.2472C27.7254 28.2965 27.7366 28.3451 27.7572 28.39Z" fill="url(#paint27_linear)"/>
<path d="M22.6526 31.7398C22.7016 31.7891 22.7356 31.8509 22.7509 31.9183C22.7513 31.9837 22.7359 32.0484 22.7061 32.1069C22.6487 32.2719 22.6443 32.4502 22.6934 32.6177C22.7425 32.7852 22.8427 32.9338 22.9804 33.0433C22.6871 33.2133 22.7595 33.6993 23.0339 33.9016C23.3083 34.1038 23.681 34.1055 24.0226 34.0715C25.3746 33.9718 26.6891 33.5876 27.8774 32.9447C28.3312 32.6966 28.8126 32.3346 28.8368 31.8231C28.7123 31.7136 28.5642 31.6334 28.4037 31.5885C28.4986 31.3846 28.5762 31.0957 28.3812 30.9733C28.3174 30.9342 28.238 30.9257 28.1724 30.8884C28.1004 30.8341 28.0458 30.7605 28.0152 30.6763C27.9845 30.5922 27.9793 30.5012 27.9999 30.4142C28.0416 30.24 28.051 30.0598 28.0275 29.8822C27.9931 29.7724 27.9204 29.678 27.8222 29.6158C27.724 29.5536 27.6066 29.5276 27.4909 29.5423C26.4746 30.3479 25.3288 31.1977 24.0278 31.1229C23.4273 31.0838 21.6984 30.5298 22.6526 31.7398Z" fill="#8181FB"/>
<path d="M22.6526 31.7398C22.7016 31.7891 22.7356 31.8509 22.7509 31.9183C22.7513 31.9837 22.7359 32.0484 22.7061 32.1069C22.6487 32.2719 22.6443 32.4502 22.6934 32.6177C22.7425 32.7852 22.8427 32.9338 22.9804 33.0433C22.6871 33.2133 22.7595 33.6993 23.0339 33.9016C23.3083 34.1038 23.681 34.1055 24.0226 34.0715C25.3746 33.9718 26.6891 33.5876 27.8774 32.9447C28.3312 32.6966 28.8126 32.3346 28.8368 31.8231C28.7123 31.7136 28.5642 31.6334 28.4037 31.5885C28.4986 31.3846 28.5762 31.0957 28.3812 30.9733C28.3174 30.9342 28.238 30.9257 28.1724 30.8884C28.1004 30.8341 28.0458 30.7605 28.0152 30.6763C27.9845 30.5922 27.9793 30.5012 27.9999 30.4142C28.0416 30.24 28.051 30.0598 28.0275 29.8822C27.9931 29.7724 27.9204 29.678 27.8222 29.6158C27.724 29.5536 27.6066 29.5276 27.4909 29.5423C26.4746 30.3479 25.3288 31.1977 24.0278 31.1229C23.4273 31.0838 21.6984 30.5298 22.6526 31.7398Z" fill="url(#paint28_linear)"/>
<path d="M26.4203 30.4328L25.9958 30.4566L25.8716 28.3663C25.6386 24.4183 25.2159 23.6196 24.9846 23.4938C24.9674 23.4853 24.9467 23.4734 24.8897 23.4938C24.8169 23.536 24.7549 23.5942 24.7086 23.6637C24.8821 23.8103 25.0316 23.9822 25.152 24.1736C25.3832 24.5492 25.416 24.901 25.2435 25.1389C25.1971 25.2181 25.1268 25.2811 25.0424 25.3192C24.958 25.3573 24.8636 25.3685 24.7724 25.3513C24.4411 25.2698 24.2323 24.8007 24.1771 24.3979C24.1479 24.204 24.1549 24.0064 24.1978 23.815C24.0666 23.7319 23.9116 23.6931 23.756 23.7045C23.5576 23.7266 23.4109 23.9068 23.3229 24.2263C23.2874 24.3513 23.2603 24.4784 23.2418 24.607C23.7388 24.8415 24.1788 25.4159 24.1046 25.7966C24.0955 25.8779 24.0608 25.9543 24.0054 26.0153C23.9501 26.0762 23.8767 26.1186 23.7957 26.1365C23.6826 26.1626 23.5645 26.1586 23.4535 26.1249C23.3425 26.0911 23.2426 26.0288 23.1642 25.9445C23.0313 25.8204 22.7915 25.5094 22.7897 24.9146C22.65 24.9146 22.4895 24.9961 22.3756 25.3241C22.0305 26.2929 23.951 29.5916 24.7172 30.7795L24.3583 31.0039C24.0649 30.5501 21.5076 26.5223 21.9735 25.1882C22.1806 24.5934 22.5568 24.4863 22.826 24.4982C22.8475 24.3681 22.8763 24.2393 22.9122 24.1124C23.0848 23.4955 23.4299 23.3221 23.6956 23.2881C23.9277 23.2654 24.1612 23.3147 24.3634 23.4292C24.4475 23.3082 24.5584 23.2076 24.6878 23.1352C24.7641 23.0898 24.8511 23.0649 24.9401 23.0631C25.0292 23.0613 25.1171 23.0827 25.1952 23.125C25.58 23.3323 26.0579 24.1124 26.3012 28.3408L26.4203 30.4328ZM23.2194 25.0811C23.2267 25.2908 23.31 25.4909 23.4541 25.6454C23.4797 25.6761 23.5122 25.7005 23.549 25.7167C23.5859 25.7329 23.626 25.7405 23.6663 25.7388C23.7008 25.5978 23.4972 25.2783 23.2194 25.0811ZM24.5809 24.1277C24.5778 24.1981 24.5813 24.2686 24.5912 24.3384C24.6395 24.697 24.8 24.9197 24.8639 24.9435C24.8639 24.9435 24.8777 24.9282 24.8984 24.901C24.9639 24.8109 24.9208 24.6138 24.7879 24.3911C24.7275 24.2971 24.6582 24.2089 24.5809 24.1277Z" fill="white"/>
<defs>
<linearGradient id="paint0_linear" x1="32.0672" y1="44.95" x2="-0.464124" y2="-9.92658" gradientUnits="userSpaceOnUse">
<stop stop-color="#010101" stop-opacity="0"/>
<stop offset="0.343135" stop-color="#010101" stop-opacity="0.54"/>
<stop offset="0.725668" stop-color="#010101"/>
</linearGradient>
<linearGradient id="paint1_linear" x1="18.6949" y1="102.223" x2="57.8097" y2="17.3868" gradientUnits="userSpaceOnUse">
<stop stop-color="#010101" stop-opacity="0"/>
<stop offset="0.68377" stop-color="#010101"/>
</linearGradient>
<linearGradient id="paint2_linear" x1="2193.01" y1="824.944" x2="2231.59" y2="3590.51" gradientUnits="userSpaceOnUse">
<stop stop-color="#010101" stop-opacity="0"/>
<stop offset="0.95" stop-color="#010101"/>
</linearGradient>
<linearGradient id="paint3_linear" x1="3423.18" y1="804.001" x2="3461.76" y2="3569.7" gradientUnits="userSpaceOnUse">
<stop stop-color="#010101" stop-opacity="0"/>
<stop offset="0.95" stop-color="#010101"/>
</linearGradient>
<linearGradient id="paint4_linear" x1="3113.74" y1="816.291" x2="3152.33" y2="3581.85" gradientUnits="userSpaceOnUse">
<stop stop-color="#010101" stop-opacity="0"/>
<stop offset="0.95" stop-color="#010101"/>
</linearGradient>
<linearGradient id="paint5_linear" x1="4456.88" y1="794.165" x2="4495.43" y2="3559.71" gradientUnits="userSpaceOnUse">
<stop stop-color="#010101" stop-opacity="0"/>
<stop offset="0.95" stop-color="#010101"/>
</linearGradient>
<linearGradient id="paint6_linear" x1="5262.02" y1="790.39" x2="5300.57" y2="3555.24" gradientUnits="userSpaceOnUse">
<stop stop-color="#010101" stop-opacity="0"/>
<stop offset="0.95" stop-color="#010101"/>
</linearGradient>
<linearGradient id="paint7_linear" x1="4878.66" y1="805.728" x2="4917.27" y2="3571.28" gradientUnits="userSpaceOnUse">
<stop stop-color="#010101" stop-opacity="0"/>
<stop offset="0.95" stop-color="#010101"/>
</linearGradient>
<linearGradient id="paint8_linear" x1="4143.12" y1="806.527" x2="4181.71" y2="3572.43" gradientUnits="userSpaceOnUse">
<stop stop-color="#010101" stop-opacity="0"/>
<stop offset="0.95" stop-color="#010101"/>
</linearGradient>
<linearGradient id="paint9_linear" x1="2097.75" y1="539.651" x2="2122.01" y2="3416.38" gradientUnits="userSpaceOnUse">
<stop stop-color="#010101" stop-opacity="0"/>
<stop offset="0.95" stop-color="#010101"/>
</linearGradient>
<linearGradient id="paint10_linear" x1="3273.78" y1="525.538" x2="3298.02" y2="3400.36" gradientUnits="userSpaceOnUse">
<stop stop-color="#010101" stop-opacity="0"/>
<stop offset="0.95" stop-color="#010101"/>
</linearGradient>
<linearGradient id="paint11_linear" x1="2979.09" y1="536.235" x2="3003.34" y2="3412.47" gradientUnits="userSpaceOnUse">
<stop stop-color="#010101" stop-opacity="0"/>
<stop offset="0.95" stop-color="#010101"/>
</linearGradient>
<linearGradient id="paint12_linear" x1="4260.82" y1="522.025" x2="4285.09" y2="3399.02" gradientUnits="userSpaceOnUse">
<stop stop-color="#010101" stop-opacity="0"/>
<stop offset="0.95" stop-color="#010101"/>
</linearGradient>
<linearGradient id="paint13_linear" x1="5039.23" y1="523.793" x2="5063.55" y2="3404.98" gradientUnits="userSpaceOnUse">
<stop stop-color="#010101" stop-opacity="0"/>
<stop offset="0.95" stop-color="#010101"/>
</linearGradient>
<linearGradient id="paint14_linear" x1="4675.85" y1="536.731" x2="4700.18" y2="3417.93" gradientUnits="userSpaceOnUse">
<stop stop-color="#010101" stop-opacity="0"/>
<stop offset="0.95" stop-color="#010101"/>
</linearGradient>
<linearGradient id="paint15_linear" x1="3966.27" y1="532.302" x2="3990.52" y2="3408.21" gradientUnits="userSpaceOnUse">
<stop stop-color="#010101" stop-opacity="0"/>
<stop offset="0.95" stop-color="#010101"/>
</linearGradient>
<linearGradient id="paint16_linear" x1="76.0896" y1="28.4291" x2="74.4137" y2="25.6702" gradientUnits="userSpaceOnUse">
<stop stop-color="white" stop-opacity="0"/>
<stop offset="0.95" stop-color="white"/>
</linearGradient>
<linearGradient id="paint17_linear" x1="82.8289" y1="21.3182" x2="82.8278" y2="27.9839" gradientUnits="userSpaceOnUse">
<stop stop-color="#FFFACC"/>
<stop offset="1" stop-color="#FFFCE3" stop-opacity="0"/>
</linearGradient>
<linearGradient id="paint18_linear" x1="84.6072" y1="23.7045" x2="84.4506" y2="27.5229" gradientUnits="userSpaceOnUse">
<stop stop-color="#FFFCC0"/>
<stop offset="1" stop-color="#FFFEE2" stop-opacity="0"/>
</linearGradient>
<linearGradient id="paint19_linear" x1="607.099" y1="783.056" x2="645.502" y2="783.994" gradientUnits="userSpaceOnUse">
<stop stop-color="#010101" stop-opacity="0"/>
<stop offset="0.95" stop-color="#010101"/>
</linearGradient>
<linearGradient id="paint20_linear" x1="2461.65" y1="1126.75" x2="2659.92" y2="1368.7" gradientUnits="userSpaceOnUse">
<stop stop-color="#010101" stop-opacity="0"/>
<stop offset="0.95" stop-color="#010101"/>
</linearGradient>
<linearGradient id="paint21_linear" x1="2029.88" y1="1070.61" x2="2215.09" y2="1301.12" gradientUnits="userSpaceOnUse">
<stop stop-color="#010101" stop-opacity="0"/>
<stop offset="0.95" stop-color="#010101"/>
</linearGradient>
<linearGradient id="paint22_linear" x1="1459.9" y1="892.217" x2="1701.78" y2="1276.89" gradientUnits="userSpaceOnUse">
<stop stop-color="white" stop-opacity="0"/>
<stop offset="0.95" stop-color="white"/>
</linearGradient>
<linearGradient id="paint23_linear" x1="511.164" y1="772.341" x2="520.592" y2="772.341" gradientUnits="userSpaceOnUse">
<stop stop-color="#010101" stop-opacity="0"/>
<stop offset="0.95" stop-color="#010101"/>
</linearGradient>
<linearGradient id="paint24_linear" x1="268.498" y1="246.173" x2="270.747" y2="246.173" gradientUnits="userSpaceOnUse">
<stop stop-color="#010101" stop-opacity="0"/>
<stop offset="0.95" stop-color="#010101"/>
</linearGradient>
<linearGradient id="paint25_linear" x1="1441.25" y1="45.0412" x2="1552" y2="10.2994" gradientUnits="userSpaceOnUse">
<stop stop-color="#010101" stop-opacity="0"/>
<stop offset="0.95" stop-color="#010101"/>
</linearGradient>
<linearGradient id="paint26_linear" x1="4235.12" y1="1236.58" x2="5094.64" y2="966.943" gradientUnits="userSpaceOnUse">
<stop stop-color="white" stop-opacity="0"/>
<stop offset="0.95" stop-color="white"/>
</linearGradient>
<linearGradient id="paint27_linear" x1="1981.76" y1="66.9884" x2="2066.6" y2="253.082" gradientUnits="userSpaceOnUse">
<stop stop-color="#010101" stop-opacity="0"/>
<stop offset="0.95" stop-color="#010101"/>
</linearGradient>
<linearGradient id="paint28_linear" x1="2250.6" y1="287.265" x2="2324.4" y2="-21.2396" gradientUnits="userSpaceOnUse">
<stop stop-color="#010101" stop-opacity="0"/>
<stop offset="0.95" stop-color="#010101"/>
</linearGradient>
</defs>
</svg>
