<svg width="98" height="98" viewBox="0 0 98 98" fill="none" xmlns="http://www.w3.org/2000/svg">
<path opacity="0.18" d="M97.7323 75.9278C96.993 80.3464 94.7039 84.1848 92.0072 87.3001C87.2115 92.8065 81.1164 96.3809 74.5639 97.5293C71.1445 98.1152 67.6729 98.0266 64.2226 97.9294C49.2936 97.5035 33.9049 98.0323 19.0375 96.1774C7.96871 94.7969 0.726954 80.6751 0.0658123 68.1681C0.0421154 67.7194 0.0255276 67.2735 0.0160489 66.8276C-0.275422 55.3753 3.44261 44.2316 7.9616 34.1053C9.66467 30.2584 11.555 26.5363 13.6228 22.9588C18.8242 14.0587 25.3432 6.38186 33.6964 2.64347C42.4642 -1.28354 52.2462 -0.394676 61.2913 2.44341C64.5022 3.44946 67.7369 4.72988 70.3601 7.1907C76.1919 12.6411 77.6801 22.2757 80.5355 30.4841C81.0331 31.9132 81.5829 33.3222 82.1706 34.6998C85.5782 42.7225 90.2773 49.9335 93.9858 57.7961C95.3247 60.6341 96.5498 63.6895 97.2868 66.8334C97.9859 69.8086 98.2418 72.8782 97.7323 75.9278Z" fill="#6E71FF"/>
<path opacity="0.28" d="M82.0746 33.9402V52.2667H13.4746V22.4551C14.0121 21.5567 14.5655 20.6723 15.1346 19.8019C15.3607 19.4496 15.5923 19.1001 15.8295 18.7535C16.3038 18.0452 16.7907 17.35 17.2903 16.6678C20.2357 12.6167 23.5558 9.02688 27.3122 6.24227C27.7391 5.92727 28.1723 5.62067 28.6118 5.32245C30.2 4.25072 31.8601 3.33435 33.5753 2.58257C34.1113 2.34772 34.6544 2.12965 35.1998 1.92835C43.0257 -0.95691 51.582 -0.308285 59.6261 1.92835C60.1478 2.07373 60.6688 2.22657 61.1889 2.38686C62.1375 2.66644 63.0648 2.98237 63.9873 3.34023C64.4268 3.50798 64.8608 3.68598 65.2892 3.87423C67.0741 4.6262 68.7529 5.69024 70.2693 7.03068C73.006 9.53012 74.787 12.9326 76.1981 16.6678C76.4566 17.35 76.7032 18.0489 76.9403 18.7535C77.1229 19.2875 77.2984 19.827 77.4715 20.3694C78.4747 23.5175 79.3687 26.7662 80.4478 29.8164C80.9363 31.2199 81.4794 32.5926 82.0746 33.9402Z" fill="#6E71FF"/>
<path d="M29.4926 7.33246V16.169H19.4736C22.4215 12.7353 25.739 9.69265 29.4926 7.33246Z" fill="url(#paint0_linear)"/>
<path d="M42.9654 3.67599V16.1689H30.79V6.5504C32.3771 5.64284 34.0359 4.86693 35.7498 4.2305C36.2853 4.03145 36.828 3.84661 37.373 3.67599H42.9654Z" fill="url(#paint1_linear)"/>
<path d="M29.4923 17.9369V30.4274H17.3193V18.816C17.5452 18.5174 17.7767 18.2212 18.0136 17.9274L29.4923 17.9369Z" fill="url(#paint2_linear)"/>
<path d="M42.963 17.9368H30.79V30.4273H42.963V17.9368Z" fill="url(#paint3_linear)"/>
<path d="M29.4923 32.1975H17.3193V44.688H29.4923V32.1975Z" fill="url(#paint4_linear)"/>
<path d="M42.963 32.1975H30.79V44.688H42.963V32.1975Z" fill="url(#paint5_linear)"/>
<path d="M66.13 4.87268V16.1689H53.957V3.67599H61.7769C62.2983 3.79922 62.8188 3.92876 63.3385 4.06462C64.2698 4.3087 65.2082 4.56936 66.13 4.87268Z" fill="url(#paint6_linear)"/>
<path d="M78.3302 16.1691H67.4297V5.32547C69.2132 5.96283 70.8907 6.86469 72.406 8.00083C75.1358 10.1193 76.9155 13.0032 78.3302 16.1691Z" fill="url(#paint7_linear)"/>
<path d="M66.13 17.9368H53.957V30.4273H66.13V17.9368Z" fill="url(#paint8_linear)"/>
<path d="M79.6027 19.3064V30.4273H67.4297V17.9368H79.0719C79.2543 18.3989 79.4297 18.8467 79.6027 19.3064Z" fill="url(#paint9_linear)"/>
<path d="M66.13 32.1975H53.957V44.688H66.13V32.1975Z" fill="url(#paint10_linear)"/>
<path d="M79.6027 32.1975H67.4297V44.688H79.6027V32.1975Z" fill="url(#paint11_linear)"/>
<path opacity="0.41" d="M97.7323 75.0741C96.9928 79.9361 94.7033 84.1596 92.0062 87.5875C85.75 93.3042 81.1136 96.2184 74.5601 97.482C71.1401 98.1267 67.6679 98.0292 64.2171 97.9223C49.2856 97.4537 34.5042 97.9223 19.0246 95.9945C7.95396 94.4755 1.225 82.6875 0.0497715 65.1749C0.0260708 64.6812 0.00948028 64.1906 0 63.7H96.3667C97.3875 66.9666 98.2418 71.7186 97.7323 75.0741Z" fill="#6E71FF"/>
<path d="M79.728 66.6494H16.0645V88.2774H79.728V66.6494Z" fill="#6E71FF"/>
<path d="M79.728 66.6494H16.0645V88.2774H79.728V66.6494Z" fill="url(#paint12_linear)"/>
<path d="M79.728 66.9078H16.0645V71.0216H79.728V66.9078Z" fill="url(#paint13_linear)"/>
<path d="M45.2609 30.1116H50.1164C51.7733 30.1141 53.3616 30.7736 54.533 31.9455C55.7044 33.1173 56.3633 34.7059 56.3652 36.3628V48.8367H38.9932V36.3628C38.9941 35.5407 39.157 34.7269 39.4725 33.9678C39.788 33.2088 40.25 32.5193 40.832 31.9388C41.4141 31.3582 42.1048 30.8981 42.8647 30.5846C43.6246 30.2711 44.4389 30.1104 45.2609 30.1116Z" fill="#3F3D56"/>
<path d="M45.2609 30.1116H50.1164C51.7733 30.1141 53.3616 30.7736 54.533 31.9455C55.7044 33.1173 56.3633 34.7059 56.3652 36.3628V48.8367H38.9932V36.3628C38.9941 35.5407 39.157 34.7269 39.4725 33.9678C39.788 33.2088 40.25 32.5193 40.832 31.9388C41.4141 31.3582 42.1048 30.8981 42.8647 30.5846C43.6246 30.2711 44.4389 30.1104 45.2609 30.1116Z" fill="url(#paint14_linear)"/>
<path d="M44.5479 43.0524L38.1261 45.1851C37.6146 45.5869 37.2653 46.16 37.1427 46.7988C36.9437 47.8628 38.2446 52.0121 38.4413 54.1282C38.638 56.2443 38.8749 59.0524 38.8749 59.0524L40.1072 64.5239H54.6048L55.4721 54.2799C55.4721 54.2799 57.6048 47.031 57.6048 46.2443C57.5934 45.7299 57.4865 45.2221 57.2896 44.7467L50.5716 42.7562L44.5479 43.0524Z" fill="#6E71FF"/>
<path d="M44.5479 43.0524L38.1261 45.1851C37.6146 45.5869 37.2653 46.16 37.1427 46.7988C36.9437 47.8628 38.2446 52.0121 38.4413 54.1282C38.638 56.2443 38.8749 59.0524 38.8749 59.0524L40.1072 64.5239H54.6048L55.4721 54.2799C55.4721 54.2799 57.6048 47.031 57.6048 46.2443C57.5934 45.7299 57.4865 45.2221 57.2896 44.7467L50.5716 42.7562L44.5479 43.0524Z" fill="url(#paint15_linear)"/>
<path d="M45.0787 42.8936L44.5479 43.0523L45.1782 59.3225L50.2208 59.3627L50.4957 42.9836L45.0787 42.8936Z" fill="white"/>
<path d="M46.5565 45.633L47.1868 46.4197C47.1827 46.7481 47.1291 47.074 47.0281 47.3865C46.8717 47.8202 45.7295 57.313 45.7295 57.313L47.502 59.5595L49.5115 56.7633L48.2105 46.46L48.7034 45.3581L48.0139 44.6093L47.3243 44.5287L46.5565 45.633Z" fill="#62021D"/>
<path d="M81.2251 65.467H14.0947L17.5213 56.9575H75.6705L81.2251 65.467Z" fill="#6E71FF"/>
<path d="M81.2251 65.467H14.0947L17.5213 56.9575H75.6705L81.2251 65.467Z" fill="url(#paint16_linear)"/>
<path d="M65.4482 58.0121L64.9055 59.0856C64.8965 59.1026 64.8921 59.1217 64.8926 59.141C64.8932 59.1603 64.8988 59.1791 64.9088 59.1956C64.9189 59.2121 64.933 59.2257 64.9499 59.2351C64.9667 59.2445 64.9858 59.2493 65.0051 59.2491C65.0257 59.2491 65.046 59.2433 65.0636 59.2324C65.0812 59.2215 65.0953 59.206 65.1046 59.1875L65.6567 58.1188C65.6638 58.105 65.6679 58.09 65.6688 58.0746C65.6698 58.0592 65.6675 58.0437 65.6622 58.0292C65.6568 58.0147 65.6485 58.0015 65.6378 57.9904C65.627 57.9793 65.6141 57.9706 65.5998 57.9647C65.5869 57.9574 65.5725 57.9528 65.5577 57.9513C65.5429 57.9497 65.528 57.9512 65.5138 57.9556C65.4995 57.9601 65.4864 57.9674 65.4751 57.9771C65.4638 57.9868 65.4547 57.9987 65.4482 58.0121Z" fill="#6E71FF"/>
<path d="M64.899 58.5641L63.2758 61.7774C63.2525 61.8279 63.2422 61.8835 63.2458 61.939C63.2495 61.9945 63.2669 62.0482 63.2965 62.0953C63.3262 62.1424 63.3671 62.1813 63.4157 62.2086C63.4642 62.2358 63.5187 62.2505 63.5744 62.2513C63.636 62.2509 63.6964 62.2338 63.749 62.2016C63.8016 62.1694 63.8445 62.1235 63.8729 62.0688L65.5317 58.8674C65.5526 58.8265 65.5648 58.7817 65.5675 58.7358C65.5703 58.69 65.5636 58.644 65.5478 58.6009C65.532 58.5577 65.5075 58.5183 65.4758 58.4851C65.444 58.4518 65.4058 58.4255 65.3635 58.4077L65.335 58.3935C65.2546 58.3585 65.1635 58.3568 65.0818 58.3887C65.0001 58.4207 64.9343 58.4838 64.899 58.5641Z" fill="#6E71FF"/>
<path d="M64.899 58.5641L63.2758 61.7774C63.2525 61.8279 63.2422 61.8835 63.2458 61.939C63.2495 61.9945 63.2669 62.0482 63.2965 62.0953C63.3262 62.1424 63.3671 62.1813 63.4157 62.2086C63.4642 62.2358 63.5187 62.2505 63.5744 62.2513C63.636 62.2509 63.6964 62.2338 63.749 62.2016C63.8016 62.1694 63.8445 62.1235 63.8729 62.0688L65.5317 58.8674C65.5526 58.8265 65.5648 58.7817 65.5675 58.7358C65.5703 58.69 65.5636 58.644 65.5478 58.6009C65.532 58.5577 65.5075 58.5183 65.4758 58.4851C65.444 58.4518 65.4058 58.4255 65.3635 58.4077L65.335 58.3935C65.2546 58.3585 65.1635 58.3568 65.0818 58.3887C65.0001 58.4207 64.9343 58.4838 64.899 58.5641Z" fill="black"/>
<path d="M50.0744 56.2157C49.6558 56.11 49.2225 56.0748 48.7924 56.1114C48.3905 56.1012 47.999 56.2396 47.6928 56.5001C47.2687 56.9385 47.3895 57.6849 47.7544 58.1802C48.1194 58.6754 48.6597 58.9882 49.1241 59.384C49.305 59.567 49.5148 59.7191 49.745 59.8342C49.9287 59.8987 50.1214 59.9338 50.3161 59.9385C50.7701 59.9888 51.2289 59.9736 51.6786 59.8934C52.1335 59.8091 52.5393 59.555 52.8137 59.1825C53.1905 58.628 53.1976 57.1991 52.508 56.9953C52.0957 56.8745 51.6928 56.8958 51.271 56.711C50.8837 56.5192 50.4839 56.3537 50.0744 56.2157Z" fill="url(#paint17_linear)"/>
<path d="M46.1657 56.3272C46.3571 56.2409 46.5597 56.1819 46.7675 56.1519C47.001 56.1259 47.2372 56.1589 47.4546 56.2479C47.672 56.3369 47.8635 56.4791 48.0116 56.6614C48.1544 56.8477 48.2442 57.0691 48.2717 57.3022C48.2993 57.5353 48.2634 57.7715 48.168 57.986C47.985 58.2828 47.7739 58.5613 47.5377 58.8178C47.2889 59.1519 47.1348 59.5524 46.8457 59.8486C46.1657 60.5453 44.86 60.5595 43.9571 60.4434C43.7434 60.4258 43.5362 60.361 43.3506 60.2537C43.1649 60.1463 43.0054 59.999 42.8837 59.8225C42.5164 59.2088 42.7794 58.2135 43.2273 57.7064C43.5045 57.3936 43.9382 57.3154 44.3078 57.1495L45.9524 56.4197L46.1657 56.3272Z" fill="url(#paint18_linear)"/>
<path d="M45.8861 40.9455C45.8861 40.9455 46.0046 42.3033 45.0307 42.6872C44.0567 43.0711 46.8032 46.5593 49.8766 43.545C49.9552 43.5542 50.0349 43.5464 50.1102 43.5222C50.1856 43.498 50.2549 43.458 50.3135 43.4048C50.3721 43.3516 50.4186 43.2864 50.4499 43.2138C50.4812 43.1411 50.4966 43.0626 50.4951 42.9834C50.5259 42.3626 49.1065 42.8057 49.1657 40.737C49.225 38.6683 46.1539 39.8223 45.8861 40.9455Z" fill="url(#paint19_linear)"/>
<path d="M46.6193 42.8035C46.9392 43.2466 47.5221 43.5641 48.0411 43.3746C48.3628 43.2177 48.6321 42.9707 48.816 42.6637C49.1098 42.2608 49.4202 41.8129 49.3965 41.3153C49.399 41.2466 49.3866 41.1781 49.36 41.1147C49.3334 41.0513 49.2933 40.9944 49.2425 40.948C49.1587 40.891 49.0615 40.8567 48.9605 40.8485C48.1518 40.7264 47.326 40.7905 46.5458 41.0357C46.1027 41.1731 45.9723 41.2229 46.1193 41.6779C46.2265 42.0767 46.3952 42.4565 46.6193 42.8035Z" fill="url(#paint20_linear)"/>
<path d="M44.1727 35.3319C44.1727 35.3319 44.1135 39.1708 45.4144 40.8272C46.7154 42.4836 48.5756 42.9599 50.0234 40.8272C50.6964 39.8366 51.0874 36.1281 50.822 35.5665C50.5566 35.0049 46.8907 32.2276 45.3552 33.5878C43.8197 34.948 44.1727 35.3319 44.1727 35.3319Z" fill="url(#paint21_linear)"/>
<path d="M44.1832 32.5996C43.9064 32.8025 43.666 33.0509 43.4723 33.3342C43.2793 33.6218 43.1953 33.9688 43.2353 34.3129C43.321 34.647 43.456 34.9664 43.6358 35.2607C43.9913 35.9953 44.0647 36.8318 44.3277 37.602C44.4257 36.9701 44.5047 36.3287 44.5647 35.6778C44.8862 35.8138 45.2322 35.8823 45.5813 35.8792C47.2685 35.9693 48.9604 35.9148 50.6476 35.8603C50.6675 36.311 50.6301 36.7625 50.5363 37.2039C50.4806 37.5118 50.5263 37.8294 50.6666 38.1091C51.0576 37.7442 50.7566 37.019 51.1619 36.6683C51.256 36.6067 51.342 36.5334 51.4178 36.4503C51.5457 36.2702 51.4628 36.0119 51.5481 35.8081C51.6364 35.6534 51.7618 35.5231 51.9131 35.429C52.3538 35.0735 52.624 34.4337 52.387 33.9219C52.2125 33.6224 51.9592 33.3766 51.6548 33.211L51.0102 32.7821C50.7875 32.6351 50.4344 32.4337 50.195 32.3081C49.887 32.1517 49.6453 31.8911 49.3538 31.7062C48.8439 31.4327 48.2737 31.291 47.695 31.2939C46.6737 31.237 45.5955 31.2939 44.7211 31.8366C44.5789 31.9139 44.4564 32.023 44.3631 32.1553C44.2698 32.2876 44.2083 32.4397 44.1832 32.5996Z" fill="#3F3D56"/>
<path d="M48.2439 39.4694C48.3114 39.4587 48.3802 39.4587 48.4477 39.4694C48.6704 39.5239 48.7771 39.7704 48.8505 39.986C48.8292 39.922 47.841 40.0215 47.7368 40.0287C47.3529 40.0547 46.9643 40.1306 46.5827 40.1353C46.4263 39.3106 47.7889 39.4931 48.2439 39.4694Z" fill="#3F3D56"/>
<path d="M44.1832 32.5996C43.9064 32.8025 43.666 33.0509 43.4723 33.3342C43.2793 33.6218 43.1953 33.9688 43.2353 34.3129C43.321 34.647 43.456 34.9664 43.6358 35.2607C43.9913 35.9953 44.0647 36.8318 44.3277 37.602C44.4257 36.9701 44.5047 36.3287 44.5647 35.6778C44.8862 35.8138 45.2322 35.8823 45.5813 35.8792C47.2685 35.9693 48.9604 35.9148 50.6476 35.8603C50.6675 36.311 50.6301 36.7625 50.5363 37.2039C50.4806 37.5118 50.5263 37.8294 50.6666 38.1091C51.0576 37.7442 50.7566 37.019 51.1619 36.6683C51.256 36.6067 51.342 36.5334 51.4178 36.4503C51.5457 36.2702 51.4628 36.0119 51.5481 35.8081C51.6364 35.6534 51.7618 35.5231 51.9131 35.429C52.3538 35.0735 52.624 34.4337 52.387 33.9219C52.2125 33.6224 51.9592 33.3766 51.6548 33.211L51.0102 32.7821C50.7875 32.6351 50.4344 32.4337 50.195 32.3081C49.887 32.1517 49.6453 31.8911 49.3538 31.7062C48.8439 31.4327 48.2737 31.291 47.695 31.2939C46.6737 31.237 45.5955 31.2939 44.7211 31.8366C44.5789 31.9139 44.4564 32.023 44.3631 32.1553C44.2698 32.2876 44.2083 32.4397 44.1832 32.5996Z" fill="url(#paint22_linear)"/>
<path d="M48.2439 39.4694C48.3114 39.4587 48.3802 39.4587 48.4477 39.4694C48.6704 39.5239 48.7771 39.7704 48.8505 39.986C48.8292 39.922 47.841 40.0215 47.7368 40.0287C47.3529 40.0547 46.9643 40.1306 46.5827 40.1353C46.4263 39.3106 47.7889 39.4931 48.2439 39.4694Z" fill="url(#paint23_linear)"/>
<path d="M45.6518 42.038C45.6518 42.038 47.3343 44.5783 47.7182 44.6683L45.8864 46.4408C45.8864 46.4408 44.6163 43.5972 44.8224 42.8058L45.6518 42.038Z" fill="white"/>
<path d="M49.4865 42.1826C49.2756 42.858 48.6311 44.6518 47.7188 44.6684L49.3159 46.5641C49.3159 46.5641 50.586 44.7608 50.5552 42.7608L49.7661 42.1044C49.7441 42.0864 49.718 42.074 49.6902 42.0682C49.6623 42.0624 49.6335 42.0634 49.6061 42.0711C49.5787 42.0787 49.5535 42.0929 49.5327 42.1123C49.5119 42.1317 49.4961 42.1558 49.4865 42.1826Z" fill="white"/>
<path d="M37.4666 45.9385C37.4666 45.9385 32.879 55.8437 32.9974 56.73C33.1159 57.6162 32.7605 58.0309 33.0567 58.5025C33.3529 58.974 42.1562 60.6897 42.1562 60.6897L42.9832 56.9669L38.7889 55.9622L37.841 55.6873C39.597 53.1849 40.232 49.448 39.2297 46.5593C38.796 45.2845 37.9737 45.5001 37.4666 45.9385Z" fill="#6E71FF"/>
<path d="M37.4666 45.9385C37.4666 45.9385 32.879 55.8437 32.9974 56.73C33.1159 57.6162 32.7605 58.0309 33.0567 58.5025C33.3529 58.974 42.1562 60.6897 42.1562 60.6897L42.9832 56.9669L38.7889 55.9622L37.841 55.6873C39.597 53.1849 40.232 49.448 39.2297 46.5593C38.796 45.2845 37.9737 45.5001 37.4666 45.9385Z" fill="url(#paint24_linear)"/>
<path d="M57.4473 44.903C57.4473 44.903 63.2957 55.3627 63.1796 56.249C63.0634 57.1352 63.4165 57.5499 63.1203 58.0239C62.8241 58.4978 54.0184 60.2087 54.0184 60.2087L53.1914 56.4859L57.3881 55.4812L56.6938 54.4954C56.0427 53.5673 55.6035 52.5073 55.4073 51.3907C55.2112 50.274 55.2629 49.1278 55.5587 48.0333C56.0753 46.1305 56.7696 44.3177 57.4473 44.903Z" fill="#6E71FF"/>
<path d="M57.4473 44.903C57.4473 44.903 63.2957 55.3627 63.1796 56.249C63.0634 57.1352 63.4165 57.5499 63.1203 58.0239C62.8241 58.4978 54.0184 60.2087 54.0184 60.2087L53.1914 56.4859L57.3881 55.4812L56.6938 54.4954C56.0427 53.5673 55.6035 52.5073 55.4073 51.3907C55.2112 50.274 55.2629 49.1278 55.5587 48.0333C56.0753 46.1305 56.7696 44.3177 57.4473 44.903Z" fill="url(#paint25_linear)"/>
<path d="M42.9864 56.9647L43.7115 57.0974L42.9912 60.4457L42.2637 60.287L42.9864 56.9647Z" fill="white"/>
<path d="M53.254 56.6826L52.5645 56.8603L53.3322 60.3082L54.0194 60.2087L53.254 56.6826Z" fill="white"/>
<path d="M81.2487 65.4671H14.0947V67.0027H81.2487V65.4671Z" fill="#6E71FF"/>
<path d="M40.0953 64.4054H19.8867L20.8322 59.6779H39.5052L40.0953 64.4054Z" fill="#6E71FF"/>
<path d="M40.0171 64.5167H20.0088L20.9457 59.6167H39.4316L40.0171 64.5167Z" fill="url(#paint26_linear)"/>
<path d="M64.6117 61.8438H61.6757C61.2464 61.8438 60.8984 62.1917 60.8984 62.621C60.8984 63.0503 61.2464 63.3983 61.6757 63.3983H64.6117C65.041 63.3983 65.389 63.0503 65.389 62.621C65.389 62.1917 65.041 61.8438 64.6117 61.8438Z" fill="#6E71FF"/>
<path d="M64.6117 61.8438H61.6757C61.2464 61.8438 60.8984 62.1917 60.8984 62.621C60.8984 63.0503 61.2464 63.3983 61.6757 63.3983H64.6117C65.041 63.3983 65.389 63.0503 65.389 62.621C65.389 62.1917 65.041 61.8438 64.6117 61.8438Z" fill="url(#paint27_linear)"/>
<path d="M67.8674 53.1091C67.7394 52.9124 67.8105 52.5949 67.6067 52.4811C67.516 52.4469 67.4192 52.4316 67.3224 52.4361C66.9385 52.4029 66.6589 52.0665 66.4503 51.7418C66.2582 51.4631 66.1088 51.1571 66.0072 50.8342C65.9065 50.5085 65.9065 50.1599 66.0072 49.8342C66.0223 49.7748 66.0491 49.719 66.0861 49.6701C66.1232 49.6213 66.1697 49.5804 66.2228 49.5499C66.338 49.5152 66.4618 49.5236 66.5712 49.5736C67.1534 49.7991 67.6602 50.1843 68.0333 50.6849C68.23 50.9337 68.3603 51.23 68.5499 51.4788C68.8271 51.839 68.8792 51.2418 68.8532 51.0309C68.8291 50.841 68.8774 50.649 68.9883 50.493C69.0253 50.4496 69.0542 50.3998 69.0736 50.3461C69.0802 50.2992 69.0762 50.2514 69.0617 50.2063C68.9811 49.9456 68.7323 49.7584 68.6683 49.4954C68.642 49.3376 68.6493 49.1761 68.6897 49.0214C68.775 48.5712 68.9053 47.7442 69.3887 47.5333C69.5166 47.4886 69.6545 47.4814 69.7863 47.5124C69.9182 47.5435 70.0384 47.6116 70.1328 47.7086C70.3783 47.9692 70.5996 48.2515 70.7939 48.5522C70.8988 48.7025 70.9642 48.8768 70.9841 49.059C71.004 49.2412 70.9777 49.4255 70.9077 49.5949C70.7976 49.764 70.7174 49.9507 70.6707 50.147C70.6423 50.5901 71.2063 50.9101 71.1612 51.3508C71.1162 51.7916 70.5854 51.9527 70.4646 52.3484C70.3792 52.6328 70.6541 53.3769 71.0404 53.2371C71.3105 53.1375 71.4764 52.3437 71.5925 52.0925C71.9837 51.2637 72.486 50.492 73.0854 49.7987C73.2418 49.6186 73.5096 49.4338 73.692 49.5878C73.7281 49.6256 73.7563 49.6702 73.775 49.7191C73.7937 49.7679 73.8026 49.8199 73.801 49.8721C73.7945 50.2336 73.7028 50.5884 73.5333 50.9077L72.4622 53.3792C73.4606 52.3091 74.7705 51.5804 76.2063 51.2963C76.8153 51.1755 76.3437 52.2584 75.9432 52.3769C75.7418 52.4361 75.5096 52.4195 75.3437 52.5475C75.2185 52.6769 75.128 52.8359 75.0807 53.0096C74.9581 53.2886 74.7624 53.5293 74.5143 53.7063C74.1186 53.9859 73.6209 54.0759 73.1683 54.2513C72.8475 54.3584 72.5645 54.5559 72.3532 54.82C72.1755 55.057 72.1873 55.384 72.0096 55.6257C71.8319 55.8674 71.4456 55.8816 71.1304 55.8627C70.7283 55.8419 70.3278 55.7959 69.9314 55.7252C69.6446 55.666 69.1281 55.5901 68.9835 55.3224C68.7791 55.0213 68.6551 54.673 68.6233 54.3105C68.6233 54.0475 68.711 53.7489 68.5475 53.5451C68.384 53.3413 68.0167 53.3319 67.8674 53.1091Z" fill="#6E71FF"/>
<path d="M67.8674 53.1091C67.7394 52.9124 67.8105 52.5949 67.6067 52.4811C67.516 52.4469 67.4192 52.4316 67.3224 52.4361C66.9385 52.4029 66.6589 52.0665 66.4503 51.7418C66.2582 51.4631 66.1088 51.1571 66.0072 50.8342C65.9065 50.5085 65.9065 50.1599 66.0072 49.8342C66.0223 49.7748 66.0491 49.719 66.0861 49.6701C66.1232 49.6213 66.1697 49.5804 66.2228 49.5499C66.338 49.5152 66.4618 49.5236 66.5712 49.5736C67.1534 49.7991 67.6602 50.1843 68.0333 50.6849C68.23 50.9337 68.3603 51.23 68.5499 51.4788C68.8271 51.839 68.8792 51.2418 68.8532 51.0309C68.8291 50.841 68.8774 50.649 68.9883 50.493C69.0253 50.4496 69.0542 50.3998 69.0736 50.3461C69.0802 50.2992 69.0762 50.2514 69.0617 50.2063C68.9811 49.9456 68.7323 49.7584 68.6683 49.4954C68.642 49.3376 68.6493 49.1761 68.6897 49.0214C68.775 48.5712 68.9053 47.7442 69.3887 47.5333C69.5166 47.4886 69.6545 47.4814 69.7863 47.5124C69.9182 47.5435 70.0384 47.6116 70.1328 47.7086C70.3783 47.9692 70.5996 48.2515 70.7939 48.5522C70.8988 48.7025 70.9642 48.8768 70.9841 49.059C71.004 49.2412 70.9777 49.4255 70.9077 49.5949C70.7976 49.764 70.7174 49.9507 70.6707 50.147C70.6423 50.5901 71.2063 50.9101 71.1612 51.3508C71.1162 51.7916 70.5854 51.9527 70.4646 52.3484C70.3792 52.6328 70.6541 53.3769 71.0404 53.2371C71.3105 53.1375 71.4764 52.3437 71.5925 52.0925C71.9837 51.2637 72.486 50.492 73.0854 49.7987C73.2418 49.6186 73.5096 49.4338 73.692 49.5878C73.7281 49.6256 73.7563 49.6702 73.775 49.7191C73.7937 49.7679 73.8026 49.8199 73.801 49.8721C73.7945 50.2336 73.7028 50.5884 73.5333 50.9077L72.4622 53.3792C73.4606 52.3091 74.7705 51.5804 76.2063 51.2963C76.8153 51.1755 76.3437 52.2584 75.9432 52.3769C75.7418 52.4361 75.5096 52.4195 75.3437 52.5475C75.2185 52.6769 75.128 52.8359 75.0807 53.0096C74.9581 53.2886 74.7624 53.5293 74.5143 53.7063C74.1186 53.9859 73.6209 54.0759 73.1683 54.2513C72.8475 54.3584 72.5645 54.5559 72.3532 54.82C72.1755 55.057 72.1873 55.384 72.0096 55.6257C71.8319 55.8674 71.4456 55.8816 71.1304 55.8627C70.7283 55.8419 70.3278 55.7959 69.9314 55.7252C69.6446 55.666 69.1281 55.5901 68.9835 55.3224C68.7791 55.0213 68.6551 54.673 68.6233 54.3105C68.6233 54.0475 68.711 53.7489 68.5475 53.5451C68.384 53.3413 68.0167 53.3319 67.8674 53.1091Z" fill="url(#paint28_linear)"/>
<path d="M70.6697 59.7159C71.9026 59.7159 72.902 58.7165 72.902 57.4836C72.902 56.2508 71.9026 55.2514 70.6697 55.2514C69.4369 55.2514 68.4375 56.2508 68.4375 57.4836C68.4375 58.7165 69.4369 59.7159 70.6697 59.7159Z" fill="#6E71FF"/>
<path d="M72.8997 55.1352C72.8809 55.7137 72.6378 56.2622 72.2219 56.6647C71.806 57.0673 71.2499 57.2923 70.6711 57.2923C70.0922 57.2923 69.5361 57.0673 69.1202 56.6647C68.7043 56.2622 68.4612 55.7137 68.4424 55.1352H72.8997Z" fill="#6E71FF"/>
<path d="M72.9068 57.4859C72.9071 57.8338 72.826 58.177 72.67 58.4881C72.514 58.7991 72.2875 59.0694 72.0085 59.2773C71.7296 59.4852 71.4058 59.6251 71.0632 59.6856C70.7205 59.7462 70.3685 59.7258 70.0351 59.6262C69.7017 59.5265 69.3963 59.3502 69.1431 59.1115C68.89 58.8728 68.6962 58.5782 68.5771 58.2513C68.4581 57.9243 68.4171 57.574 68.4575 57.2284C68.4978 56.8828 68.6185 56.5515 68.8097 56.2608C68.5902 55.9248 68.4649 55.5361 68.4471 55.1352H72.9045C72.8858 55.5363 72.7598 55.925 72.5395 56.2608C72.7799 56.6241 72.9076 57.0503 72.9068 57.4859Z" fill="url(#paint29_linear)"/>
<defs>
<linearGradient id="paint0_linear" x1="24.0637" y1="1.92251" x2="25.8717" y2="44.3064" gradientUnits="userSpaceOnUse">
<stop offset="0.02" stop-color="white" stop-opacity="0"/>
<stop offset="0.58" stop-color="white" stop-opacity="0.39"/>
<stop offset="1" stop-color="white"/>
</linearGradient>
<linearGradient id="paint1_linear" x1="36.368" y1="-3.97251" x2="39.34" y2="55.9107" gradientUnits="userSpaceOnUse">
<stop offset="0.02" stop-color="white" stop-opacity="0"/>
<stop offset="0.58" stop-color="white" stop-opacity="0.39"/>
<stop offset="1" stop-color="white"/>
</linearGradient>
<linearGradient id="paint2_linear" x1="22.8962" y1="10.2745" x2="25.8721" y2="70.1916" gradientUnits="userSpaceOnUse">
<stop offset="0.02" stop-color="white" stop-opacity="0"/>
<stop offset="0.58" stop-color="white" stop-opacity="0.39"/>
<stop offset="1" stop-color="white"/>
</linearGradient>
<linearGradient id="paint3_linear" x1="36.3669" y1="10.2897" x2="39.3383" y2="70.1616" gradientUnits="userSpaceOnUse">
<stop offset="0.02" stop-color="white" stop-opacity="0"/>
<stop offset="0.58" stop-color="white" stop-opacity="0.39"/>
<stop offset="1" stop-color="white"/>
</linearGradient>
<linearGradient id="paint4_linear" x1="22.8962" y1="24.5505" x2="25.8676" y2="84.4223" gradientUnits="userSpaceOnUse">
<stop offset="0.02" stop-color="white" stop-opacity="0"/>
<stop offset="0.58" stop-color="white" stop-opacity="0.39"/>
<stop offset="1" stop-color="white"/>
</linearGradient>
<linearGradient id="paint5_linear" x1="36.3669" y1="24.5505" x2="39.3383" y2="84.4223" gradientUnits="userSpaceOnUse">
<stop offset="0.02" stop-color="white" stop-opacity="0"/>
<stop offset="0.58" stop-color="white" stop-opacity="0.39"/>
<stop offset="1" stop-color="white"/>
</linearGradient>
<linearGradient id="paint6_linear" x1="59.5339" y1="-3.97251" x2="62.5064" y2="55.9107" gradientUnits="userSpaceOnUse">
<stop offset="0.02" stop-color="white" stop-opacity="0"/>
<stop offset="0.58" stop-color="white" stop-opacity="0.39"/>
<stop offset="1" stop-color="white"/>
</linearGradient>
<linearGradient id="paint7_linear" x1="72.4236" y1="-1.31329" x2="74.9249" y2="50.6719" gradientUnits="userSpaceOnUse">
<stop offset="0.02" stop-color="white" stop-opacity="0"/>
<stop offset="0.58" stop-color="white" stop-opacity="0.39"/>
<stop offset="1" stop-color="white"/>
</linearGradient>
<linearGradient id="paint8_linear" x1="59.5339" y1="10.2897" x2="62.5053" y2="70.1616" gradientUnits="userSpaceOnUse">
<stop offset="0.02" stop-color="white" stop-opacity="0"/>
<stop offset="0.58" stop-color="white" stop-opacity="0.39"/>
<stop offset="1" stop-color="white"/>
</linearGradient>
<linearGradient id="paint9_linear" x1="73.0066" y1="10.2897" x2="75.978" y2="70.1616" gradientUnits="userSpaceOnUse">
<stop offset="0.02" stop-color="white" stop-opacity="0"/>
<stop offset="0.58" stop-color="white" stop-opacity="0.39"/>
<stop offset="1" stop-color="white"/>
</linearGradient>
<linearGradient id="paint10_linear" x1="59.5339" y1="24.5505" x2="62.5053" y2="84.4223" gradientUnits="userSpaceOnUse">
<stop offset="0.02" stop-color="white" stop-opacity="0"/>
<stop offset="0.58" stop-color="white" stop-opacity="0.39"/>
<stop offset="1" stop-color="white"/>
</linearGradient>
<linearGradient id="paint11_linear" x1="73.0066" y1="24.5505" x2="75.978" y2="84.4223" gradientUnits="userSpaceOnUse">
<stop offset="0.02" stop-color="white" stop-opacity="0"/>
<stop offset="0.58" stop-color="white" stop-opacity="0.39"/>
<stop offset="1" stop-color="white"/>
</linearGradient>
<linearGradient id="paint12_linear" x1="47.7753" y1="40.8333" x2="46.1933" y2="108.471" gradientUnits="userSpaceOnUse">
<stop stop-opacity="0"/>
<stop offset="0.932855" stop-opacity="0.75"/>
<stop offset="1"/>
</linearGradient>
<linearGradient id="paint13_linear" x1="47.7753" y1="61.6583" x2="47.803" y2="74.8701" gradientUnits="userSpaceOnUse">
<stop stop-opacity="0"/>
<stop offset="0.932855" stop-opacity="0.75"/>
<stop offset="1"/>
</linearGradient>
<linearGradient id="paint14_linear" x1="3600.95" y1="3300.08" x2="3460.44" y2="2275.46" gradientUnits="userSpaceOnUse">
<stop offset="0.01"/>
<stop offset="0.83" stop-opacity="0.07"/>
<stop offset="1" stop-opacity="0"/>
</linearGradient>
<linearGradient id="paint15_linear" x1="48.3986" y1="61.2562" x2="47.5124" y2="48.8486" gradientUnits="userSpaceOnUse">
<stop offset="0.01"/>
<stop offset="1" stop-opacity="0"/>
</linearGradient>
<linearGradient id="paint16_linear" x1="47.775" y1="32.8708" x2="47.2531" y2="73.4228" gradientUnits="userSpaceOnUse">
<stop stop-opacity="0"/>
<stop offset="0.932855" stop-opacity="0.75"/>
<stop offset="1"/>
</linearGradient>
<linearGradient id="paint17_linear" x1="47.424" y1="58.0327" x2="53.0726" y2="58.0327" gradientUnits="userSpaceOnUse">
<stop stop-color="#E5C5D5"/>
<stop offset="0.42" stop-color="#EAD4D1"/>
<stop offset="1" stop-color="#F0E9CB"/>
</linearGradient>
<linearGradient id="paint18_linear" x1="42.7101" y1="58.321" x2="48.2846" y2="58.321" gradientUnits="userSpaceOnUse">
<stop stop-color="#E5C5D5"/>
<stop offset="0.42" stop-color="#EAD4D1"/>
<stop offset="1" stop-color="#F0E9CB"/>
</linearGradient>
<linearGradient id="paint19_linear" x1="44.8312" y1="42.1778" x2="50.4995" y2="42.1778" gradientUnits="userSpaceOnUse">
<stop stop-color="#E5C5D5"/>
<stop offset="0.42" stop-color="#EAD4D1"/>
<stop offset="1" stop-color="#F0E9CB"/>
</linearGradient>
<linearGradient id="paint20_linear" x1="48.188" y1="38.0854" x2="47.2425" y2="44.8793" gradientUnits="userSpaceOnUse">
<stop offset="0.01"/>
<stop offset="0.12" stop-opacity="0.75"/>
<stop offset="1" stop-opacity="0"/>
</linearGradient>
<linearGradient id="paint21_linear" x1="44.1379" y1="37.7359" x2="50.9106" y2="37.7359" gradientUnits="userSpaceOnUse">
<stop stop-color="#E5C5D5"/>
<stop offset="0.42" stop-color="#EAD4D1"/>
<stop offset="1" stop-color="#F0E9CB"/>
</linearGradient>
<linearGradient id="paint22_linear" x1="1926.48" y1="680.111" x2="1911.38" y2="1147.4" gradientUnits="userSpaceOnUse">
<stop offset="0.01"/>
<stop offset="0.83" stop-opacity="0.07"/>
<stop offset="1" stop-opacity="0"/>
</linearGradient>
<linearGradient id="paint23_linear" x1="496.408" y1="134.137" x2="518.344" y2="134.137" gradientUnits="userSpaceOnUse">
<stop offset="0.01"/>
<stop offset="0.83" stop-opacity="0.07"/>
<stop offset="1" stop-opacity="0"/>
</linearGradient>
<linearGradient id="paint24_linear" x1="37.9747" y1="64.5167" x2="37.2969" y2="49.8553" gradientUnits="userSpaceOnUse">
<stop offset="0.01"/>
<stop offset="1" stop-opacity="0"/>
</linearGradient>
<linearGradient id="paint25_linear" x1="58.3913" y1="63.0875" x2="57.5463" y2="49.1514" gradientUnits="userSpaceOnUse">
<stop offset="0.01"/>
<stop offset="1" stop-opacity="0"/>
</linearGradient>
<linearGradient id="paint26_linear" x1="18.988" y1="62.0667" x2="38.9931" y2="62.3193" gradientUnits="userSpaceOnUse">
<stop offset="0.02" stop-color="white" stop-opacity="0"/>
<stop offset="0.58" stop-color="white" stop-opacity="0.39"/>
<stop offset="1" stop-color="white"/>
</linearGradient>
<linearGradient id="paint27_linear" x1="63.2922" y1="61.0458" x2="63.175" y2="64.5127" gradientUnits="userSpaceOnUse">
<stop stop-opacity="0"/>
<stop offset="0.932855" stop-opacity="0.75"/>
<stop offset="1"/>
</linearGradient>
<linearGradient id="paint28_linear" x1="72.2069" y1="19.6507" x2="51.3416" y2="54.6885" gradientUnits="userSpaceOnUse">
<stop offset="0.52893"/>
<stop offset="0.83" stop-opacity="0.07"/>
<stop offset="1" stop-opacity="0"/>
</linearGradient>
<linearGradient id="paint29_linear" x1="68.2146" y1="57.4274" x2="72.679" y2="57.4409" gradientUnits="userSpaceOnUse">
<stop offset="0.02" stop-color="white" stop-opacity="0"/>
<stop offset="0.58" stop-color="white" stop-opacity="0.39"/>
<stop offset="1" stop-color="white"/>
</linearGradient>
</defs>
</svg>
