<svg width="48" height="48" viewBox="0 0 48 48" fill="none" xmlns="http://www.w3.org/2000/svg">
<g clip-path="url(#clip0)">
<path opacity="0.24" d="M47.9989 34.7941C48.0754 40.5371 44.2375 45.9982 39.4521 46.9612C37.2125 47.4139 34.9276 46.9776 32.6532 46.8583C27.7059 46.6031 22.77 47.8583 17.8314 47.99C16.8316 48.0168 15.8302 47.99 14.8278 47.9067C11.5323 47.6117 8.31402 46.5797 5.34395 44.8654C4.07711 44.135 2.84072 43.2625 1.91843 42.0073C-0.0601366 39.3179 -0.250685 35.3816 0.206979 31.863C0.664642 28.3444 1.67133 24.9049 1.72266 21.3431C1.75921 18.8564 1.32764 16.3965 1.21714 13.9128C1.10664 11.4292 1.36158 8.7954 2.59797 6.78505C3.83435 4.7747 5.8921 3.67282 7.95332 3.19338C10.0146 2.71394 12.1297 2.7767 14.2292 2.62237C18.5718 2.30755 22.8239 1.05545 27.1413 0.430947C33.5799 -0.502209 43.9338 -0.803659 44.6464 9.16064C44.7011 9.98478 44.7162 10.8119 44.6917 11.6381C44.629 14.3902 44.2714 17.1527 44.5673 19.8842C45.1206 25.0171 47.9293 29.6222 47.9989 34.7941Z" fill="#6E71FF"/>
<path opacity="0.24" d="M47.9991 35.7661C48.0767 41.0904 44.1848 46.1534 39.332 47.0462C37.0609 47.4659 34.7439 47.0614 32.4375 46.9508C27.4206 46.7142 22.4152 47.8779 17.4071 48C16.1806 46.7495 14.3473 41.189 13.1958 39.8631C12.8429 39.4501 12.4705 38.9923 12.4017 38.4324C12.3523 38.0155 12.4767 37.5978 12.6002 37.2C14.743 30.4104 18.339 28.2762 22.0869 22.356C23.8375 19.5899 25.7486 16.9573 27.7056 14.3619C29.0353 12.6011 30.7567 9.17492 33.1169 9.00704C35.0404 8.86969 37.2709 10.7774 38.9402 11.5929C40.832 12.5172 42.7395 13.4052 44.6454 14.2999C44.5818 16.8514 44.2192 19.4125 44.5192 21.9449C45.0803 26.7017 47.9285 30.9711 47.9991 35.7661Z" fill="#6E71FF"/>
<path d="M26.255 9.69544L25.1692 9.35437L25.4659 6.79893H25.5529C25.6608 6.71192 25.9757 6.33517 25.8913 6.05587C25.8156 5.80007 25.4084 5.6974 25.0787 5.65476C24.6106 5.5956 24.3043 5.64867 24.1921 5.80703C24.0415 6.02107 24.2399 6.42305 24.3295 6.55965L24.353 6.59533L24.1894 9.0655L22.9844 8.73313L23.0522 8.48863L23.9249 8.73313L24.0624 6.64492C23.9754 6.5031 23.7144 5.99932 23.9484 5.6626C24.1224 5.41549 24.5088 5.32761 25.0987 5.40157C26.0201 5.51903 26.1967 5.90013 26.1837 6.19944C26.1706 6.49875 25.9174 6.86592 25.7269 7.00253L25.4737 9.17774L26.3333 9.44747L26.255 9.69544Z" fill="#6E71FF"/>
<path d="M26.255 9.69544L25.1692 9.35437L25.4659 6.79893H25.5529C25.6608 6.71192 25.9757 6.33517 25.8913 6.05587C25.8156 5.80007 25.4084 5.6974 25.0787 5.65476C24.6106 5.5956 24.3043 5.64867 24.1921 5.80703C24.0415 6.02107 24.2399 6.42305 24.3295 6.55965L24.353 6.59533L24.1894 9.0655L22.9844 8.73313L23.0522 8.48863L23.9249 8.73313L24.0624 6.64492C23.9754 6.5031 23.7144 5.99932 23.9484 5.6626C24.1224 5.41549 24.5088 5.32761 25.0987 5.40157C26.0201 5.51903 26.1967 5.90013 26.1837 6.19944C26.1706 6.49875 25.9174 6.86592 25.7269 7.00253L25.4737 9.17774L26.3333 9.44747L26.255 9.69544Z" fill="url(#paint0_linear)"/>
<path d="M35.133 40.0666H13.2878L11.9287 38.9476L13.2878 9.48307L33.774 8.36414L35.133 9.48307V40.0666Z" fill="#6E71FF"/>
<path d="M35.133 40.0666H13.2878L11.9287 38.9476L13.2878 9.48307L33.774 8.36414L35.133 9.48307V40.0666Z" fill="url(#paint1_linear)"/>
<path d="M34.4135 39.5332L12.9415 39.5872L11.9287 38.9476L12.6483 9.37692L33.1344 8.258L34.4935 9.37692L34.4135 39.5332Z" fill="url(#paint2_linear)"/>
<path d="M33.7739 8.36414H11.9287V38.9476H33.7739V8.36414Z" fill="white"/>
<path d="M18.8136 10.4924C18.8023 10.5698 18.7971 10.6664 18.8598 10.7099C18.8939 10.7305 18.933 10.7413 18.9729 10.7412C20.9853 10.9154 23.0122 10.8029 24.993 10.4071C25.3193 10.3419 25.7143 10.1922 25.7378 9.86072C25.7595 9.56663 25.4767 9.20728 25.7047 9.02282C25.7902 8.97161 25.8878 8.94426 25.9875 8.94365C26.1682 8.91726 26.3408 8.85114 26.4929 8.75004C26.6451 8.64893 26.7729 8.51537 26.8671 8.35895L21.155 8.31283C20.5999 8.30848 19.5889 8.0753 19.1921 8.57386C18.885 8.95583 18.8136 10.0382 18.8136 10.4924Z" fill="url(#paint3_linear)"/>
<path d="M25.1423 9.7093H19.2284L18.8281 6.03319L24.7821 5.99316L25.1423 9.7093Z" fill="#6E71FF"/>
<path d="M24.7832 5.99316L26.9819 7.08599L26.6617 8.36415H25.0364L24.7832 5.99316Z" fill="#6E71FF"/>
<path d="M24.7832 5.99316L26.9819 7.08599L26.6617 8.36415H25.0364L24.7832 5.99316Z" fill="url(#paint4_linear)"/>
<path d="M23.4595 9.65189L22.3214 9.60751L21.9281 6.76581L22.0099 6.74493C22.0908 6.6179 22.2944 6.12021 22.1387 5.84352C21.9977 5.5912 21.5775 5.60077 21.2494 5.65385C20.7822 5.72867 20.5003 5.87659 20.435 6.08106C20.348 6.356 20.6447 6.73014 20.7665 6.85108L20.7987 6.88241L21.2973 9.59185H20.0479V9.3082H20.9571L20.536 7.01988C20.4176 6.89198 20.027 6.42909 20.1653 5.99492C20.2662 5.67734 20.616 5.46852 21.2094 5.37368C22.1282 5.22663 22.3997 5.58424 22.4676 5.91139C22.5354 6.23854 22.3875 6.70839 22.2405 6.91199L22.5746 9.33257L23.4751 9.36824L23.4595 9.65189Z" fill="#6E71FF"/>
<path d="M23.4595 9.65189L22.3214 9.60751L21.9281 6.76581L22.0099 6.74493C22.0908 6.6179 22.2944 6.12021 22.1387 5.84352C21.9977 5.5912 21.5775 5.60077 21.2494 5.65385C20.7822 5.72867 20.5003 5.87659 20.435 6.08106C20.348 6.356 20.6447 6.73014 20.7665 6.85108L20.7987 6.88241L21.2973 9.59185H20.0479V9.3082H20.9571L20.536 7.01988C20.4176 6.89198 20.027 6.42909 20.1653 5.99492C20.2662 5.67734 20.616 5.46852 21.2094 5.37368C22.1282 5.22663 22.3997 5.58424 22.4676 5.91139C22.5354 6.23854 22.3875 6.70839 22.2405 6.91199L22.5746 9.33257L23.4751 9.36824L23.4595 9.65189Z" fill="url(#paint5_linear)"/>
<path d="M21.946 13.0261H15.2324V21.4981H21.946V13.0261Z" fill="#6E71FF"/>
<path d="M21.946 13.0261H15.2324V21.4981H21.946V13.0261Z" fill="url(#paint6_linear)"/>
<path d="M30.8171 14.1989H24.3697C24.1785 14.1989 24.0234 14.354 24.0234 14.5452C24.0234 14.7365 24.1785 14.8915 24.3697 14.8915H30.8171C31.0083 14.8915 31.1634 14.7365 31.1634 14.5452C31.1634 14.354 31.0083 14.1989 30.8171 14.1989Z" fill="#6E71FF"/>
<path d="M30.8171 14.1989H24.3697C24.1785 14.1989 24.0234 14.354 24.0234 14.5452C24.0234 14.7365 24.1785 14.8915 24.3697 14.8915H30.8171C31.0083 14.8915 31.1634 14.7365 31.1634 14.5452C31.1634 14.354 31.0083 14.1989 30.8171 14.1989Z" fill="url(#paint7_linear)"/>
<path d="M30.8171 15.7173H24.3697C24.1785 15.7173 24.0234 15.8723 24.0234 16.0636C24.0234 16.2548 24.1785 16.4099 24.3697 16.4099H30.8171C31.0083 16.4099 31.1634 16.2548 31.1634 16.0636C31.1634 15.8723 31.0083 15.7173 30.8171 15.7173Z" fill="#6E71FF"/>
<path d="M30.8171 15.7173H24.3697C24.1785 15.7173 24.0234 15.8723 24.0234 16.0636C24.0234 16.2548 24.1785 16.4099 24.3697 16.4099H30.8171C31.0083 16.4099 31.1634 16.2548 31.1634 16.0636C31.1634 15.8723 31.0083 15.7173 30.8171 15.7173Z" fill="url(#paint8_linear)"/>
<path d="M30.8171 17.9281H24.3697C24.1785 17.9281 24.0234 18.0832 24.0234 18.2744C24.0234 18.4657 24.1785 18.6207 24.3697 18.6207H30.8171C31.0083 18.6207 31.1634 18.4657 31.1634 18.2744C31.1634 18.0832 31.0083 17.9281 30.8171 17.9281Z" fill="#6E71FF"/>
<path d="M30.8171 17.9281H24.3697C24.1785 17.9281 24.0234 18.0832 24.0234 18.2744C24.0234 18.4657 24.1785 18.6207 24.3697 18.6207H30.8171C31.0083 18.6207 31.1634 18.4657 31.1634 18.2744C31.1634 18.0832 31.0083 17.9281 30.8171 17.9281Z" fill="url(#paint9_linear)"/>
<path d="M30.8171 19.4465H24.3697C24.1785 19.4465 24.0234 19.6015 24.0234 19.7928C24.0234 19.984 24.1785 20.1391 24.3697 20.1391H30.8171C31.0083 20.1391 31.1634 19.984 31.1634 19.7928C31.1634 19.6015 31.0083 19.4465 30.8171 19.4465Z" fill="#6E71FF"/>
<path d="M30.8171 19.4465H24.3697C24.1785 19.4465 24.0234 19.6015 24.0234 19.7928C24.0234 19.984 24.1785 20.1391 24.3697 20.1391H30.8171C31.0083 20.1391 31.1634 19.984 31.1634 19.7928C31.1634 19.6015 31.0083 19.4465 30.8171 19.4465Z" fill="url(#paint10_linear)"/>
<path d="M26.7419 26.4803H20.2945C20.1033 26.4803 19.9482 26.6353 19.9482 26.8266C19.9482 27.0178 20.1033 27.1729 20.2945 27.1729H26.7419C26.9331 27.1729 27.0882 27.0178 27.0882 26.8266C27.0882 26.6353 26.9331 26.4803 26.7419 26.4803Z" fill="#6E71FF"/>
<path d="M26.7419 26.4803H20.2945C20.1033 26.4803 19.9482 26.6353 19.9482 26.8266C19.9482 27.0178 20.1033 27.1729 20.2945 27.1729H26.7419C26.9331 27.1729 27.0882 27.0178 27.0882 26.8266C27.0882 26.6353 26.9331 26.4803 26.7419 26.4803Z" fill="url(#paint11_linear)"/>
<path d="M26.7419 27.9985H20.2945C20.1033 27.9985 19.9482 28.1536 19.9482 28.3448C19.9482 28.5361 20.1033 28.6911 20.2945 28.6911H26.7419C26.9331 28.6911 27.0882 28.5361 27.0882 28.3448C27.0882 28.1536 26.9331 27.9985 26.7419 27.9985Z" fill="#6E71FF"/>
<path d="M26.7419 27.9985H20.2945C20.1033 27.9985 19.9482 28.1536 19.9482 28.3448C19.9482 28.5361 20.1033 28.6911 20.2945 28.6911H26.7419C26.9331 28.6911 27.0882 28.5361 27.0882 28.3448C27.0882 28.1536 26.9331 27.9985 26.7419 27.9985Z" fill="url(#paint12_linear)"/>
<path d="M26.7419 31.5945H20.2945C20.1033 31.5945 19.9482 31.7496 19.9482 31.9408C19.9482 32.1321 20.1033 32.2871 20.2945 32.2871H26.7419C26.9331 32.2871 27.0882 32.1321 27.0882 31.9408C27.0882 31.7496 26.9331 31.5945 26.7419 31.5945Z" fill="#6E71FF"/>
<path d="M26.7419 31.5945H20.2945C20.1033 31.5945 19.9482 31.7496 19.9482 31.9408C19.9482 32.1321 20.1033 32.2871 20.2945 32.2871H26.7419C26.9331 32.2871 27.0882 32.1321 27.0882 31.9408C27.0882 31.7496 26.9331 31.5945 26.7419 31.5945Z" fill="url(#paint13_linear)"/>
<path d="M26.7419 33.1129H20.2945C20.1033 33.1129 19.9482 33.2679 19.9482 33.4592C19.9482 33.6504 20.1033 33.8055 20.2945 33.8055H26.7419C26.9331 33.8055 27.0882 33.6504 27.0882 33.4592C27.0882 33.2679 26.9331 33.1129 26.7419 33.1129Z" fill="#6E71FF"/>
<path d="M26.7419 33.1129H20.2945C20.1033 33.1129 19.9482 33.2679 19.9482 33.4592C19.9482 33.6504 20.1033 33.8055 20.2945 33.8055H26.7419C26.9331 33.8055 27.0882 33.6504 27.0882 33.4592C27.0882 33.2679 26.9331 33.1129 26.7419 33.1129Z" fill="url(#paint14_linear)"/>
<path d="M30.8165 22.644H15.4186C15.2273 22.644 15.0723 22.7991 15.0723 22.9903C15.0723 23.1816 15.2273 23.3366 15.4186 23.3366H30.8165C31.0077 23.3366 31.1628 23.1816 31.1628 22.9903C31.1628 22.7991 31.0077 22.644 30.8165 22.644Z" fill="#6E71FF"/>
<path d="M30.8165 22.644H15.4186C15.2273 22.644 15.0723 22.7991 15.0723 22.9903C15.0723 23.1816 15.2273 23.3366 15.4186 23.3366H30.8165C31.0077 23.3366 31.1628 23.1816 31.1628 22.9903C31.1628 22.7991 31.0077 22.644 30.8165 22.644Z" fill="url(#paint15_linear)"/>
<path d="M30.8165 24.1623H15.4186C15.2273 24.1623 15.0723 24.3173 15.0723 24.5086C15.0723 24.6998 15.2273 24.8549 15.4186 24.8549H30.8165C31.0077 24.8549 31.1628 24.6998 31.1628 24.5086C31.1628 24.3173 31.0077 24.1623 30.8165 24.1623Z" fill="#6E71FF"/>
<path d="M30.8165 24.1623H15.4186C15.2273 24.1623 15.0723 24.3173 15.0723 24.5086C15.0723 24.6998 15.2273 24.8549 15.4186 24.8549H30.8165C31.0077 24.8549 31.1628 24.6998 31.1628 24.5086C31.1628 24.3173 31.0077 24.1623 30.8165 24.1623Z" fill="url(#paint16_linear)"/>
<path d="M18.6694 26.0539H15.8721V28.5311H18.6694V26.0539Z" fill="#6E71FF"/>
<path d="M18.6694 26.0539H15.8721V28.5311H18.6694V26.0539Z" fill="url(#paint17_linear)"/>
<path d="M18.6694 31.4885H15.8721V33.9656H18.6694V31.4885Z" fill="#6E71FF"/>
<path d="M18.6694 31.4885H15.8721V33.9656H18.6694V31.4885Z" fill="url(#paint18_linear)"/>
</g>
<defs>
<linearGradient id="paint0_linear" x1="24.599" y1="-0.372807" x2="23.5645" y2="12.356" gradientUnits="userSpaceOnUse">
<stop offset="0.38383" stop-opacity="0.75"/>
<stop offset="0.908533" stop-opacity="0"/>
</linearGradient>
<linearGradient id="paint1_linear" x1="26.1358" y1="43.5177" x2="28.955" y2="-18.9002" gradientUnits="userSpaceOnUse">
<stop stop-opacity="0"/>
<stop offset="0.639117" stop-opacity="0.75"/>
<stop offset="1"/>
</linearGradient>
<linearGradient id="paint2_linear" x1="25.7442" y1="42.9977" x2="28.5753" y2="-18.6812" gradientUnits="userSpaceOnUse">
<stop stop-opacity="0"/>
<stop offset="0.639117" stop-opacity="0.75"/>
<stop offset="1"/>
</linearGradient>
<linearGradient id="paint3_linear" x1="20.9006" y1="11.6" x2="22.4187" y2="4.29778" gradientUnits="userSpaceOnUse">
<stop stop-opacity="0"/>
<stop offset="0.799692" stop-opacity="0.51"/>
<stop offset="0.99"/>
</linearGradient>
<linearGradient id="paint4_linear" x1="26.614" y1="7.00183" x2="24.2184" y2="6.90109" gradientUnits="userSpaceOnUse">
<stop stop-opacity="0"/>
<stop offset="0.639117" stop-opacity="0.75"/>
<stop offset="1"/>
</linearGradient>
<linearGradient id="paint5_linear" x1="21.7002" y1="-0.399987" x2="20.6923" y2="12.3122" gradientUnits="userSpaceOnUse">
<stop offset="0.38383" stop-opacity="0.75"/>
<stop offset="0.908533" stop-opacity="0"/>
</linearGradient>
<linearGradient id="paint6_linear" x1="16.2953" y1="6.88431" x2="25.7167" y2="7.20952" gradientUnits="userSpaceOnUse">
<stop stop-opacity="0"/>
<stop offset="0.87783" stop-opacity="0.75"/>
<stop offset="1"/>
</linearGradient>
<linearGradient id="paint7_linear" x1="25.1538" y1="13.6968" x2="33.5021" y2="17.4457" gradientUnits="userSpaceOnUse">
<stop stop-opacity="0"/>
<stop offset="0.87783" stop-opacity="0.75"/>
<stop offset="1"/>
</linearGradient>
<linearGradient id="paint8_linear" x1="25.1538" y1="15.2152" x2="33.5021" y2="18.964" gradientUnits="userSpaceOnUse">
<stop stop-opacity="0"/>
<stop offset="0.87783" stop-opacity="0.75"/>
<stop offset="1"/>
</linearGradient>
<linearGradient id="paint9_linear" x1="25.1538" y1="17.426" x2="33.5021" y2="21.1749" gradientUnits="userSpaceOnUse">
<stop stop-opacity="0"/>
<stop offset="0.87783" stop-opacity="0.75"/>
<stop offset="1"/>
</linearGradient>
<linearGradient id="paint10_linear" x1="25.1538" y1="18.9444" x2="33.5021" y2="22.6932" gradientUnits="userSpaceOnUse">
<stop stop-opacity="0"/>
<stop offset="0.87783" stop-opacity="0.75"/>
<stop offset="1"/>
</linearGradient>
<linearGradient id="paint11_linear" x1="21.0787" y1="25.9782" x2="29.4269" y2="29.727" gradientUnits="userSpaceOnUse">
<stop stop-opacity="0"/>
<stop offset="0.87783" stop-opacity="0.75"/>
<stop offset="1"/>
</linearGradient>
<linearGradient id="paint12_linear" x1="21.0787" y1="27.4965" x2="29.4268" y2="31.2453" gradientUnits="userSpaceOnUse">
<stop stop-opacity="0"/>
<stop offset="0.87783" stop-opacity="0.75"/>
<stop offset="1"/>
</linearGradient>
<linearGradient id="paint13_linear" x1="21.0787" y1="31.0925" x2="29.4268" y2="34.8413" gradientUnits="userSpaceOnUse">
<stop stop-opacity="0"/>
<stop offset="0.87783" stop-opacity="0.75"/>
<stop offset="1"/>
</linearGradient>
<linearGradient id="paint14_linear" x1="21.0787" y1="32.6108" x2="29.4268" y2="36.3596" gradientUnits="userSpaceOnUse">
<stop stop-opacity="0"/>
<stop offset="0.87783" stop-opacity="0.75"/>
<stop offset="1"/>
</linearGradient>
<linearGradient id="paint15_linear" x1="17.6198" y1="22.142" x2="28.7886" y2="33.4448" gradientUnits="userSpaceOnUse">
<stop stop-opacity="0"/>
<stop offset="0.87783" stop-opacity="0.75"/>
<stop offset="1"/>
</linearGradient>
<linearGradient id="paint16_linear" x1="17.6198" y1="23.6602" x2="28.7887" y2="34.963" gradientUnits="userSpaceOnUse">
<stop stop-opacity="0"/>
<stop offset="0.87783" stop-opacity="0.75"/>
<stop offset="1"/>
</linearGradient>
<linearGradient id="paint17_linear" x1="16.3149" y1="24.2581" x2="20.2357" y2="24.451" gradientUnits="userSpaceOnUse">
<stop stop-opacity="0"/>
<stop offset="0.87783" stop-opacity="0.75"/>
<stop offset="1"/>
</linearGradient>
<linearGradient id="paint18_linear" x1="16.3149" y1="29.6927" x2="20.2357" y2="29.8856" gradientUnits="userSpaceOnUse">
<stop stop-opacity="0"/>
<stop offset="0.87783" stop-opacity="0.75"/>
<stop offset="1"/>
</linearGradient>
<clipPath id="clip0">
<path d="M0 0H48V48H0V0Z" fill="white"/>
</clipPath>
</defs>
</svg>
