<svg width="98" height="98" viewBox="0 0 98 98" fill="none" xmlns="http://www.w3.org/2000/svg">
<g clip-path="url(#clip0)">
<path d="M2.8974 45.2819C4.8128 41.1017 7.69893 36.816 10.3828 34.7412C13.0667 32.6664 46.1417 2.51468 61.4237 2.51477C76.7058 2.51486 74.0752 6.43836 79.6884 10.6749C86.5361 15.8401 92.3937 24.6889 93.4234 35.3753C94.1377 42.7093 92.5652 50.3032 93.8093 57.4997C94.761 63.0093 97.3057 67.8766 97.8846 73.4838C98.5511 79.9188 96.2821 86.7562 92.3182 90.2609C88.3544 93.7657 83.3477 93.865 78.6456 93.6779C66.3129 93.1813 73.7546 89.8415 41.6752 93.5124C9.59583 97.1832 1.20854 70.7986 1.20854 70.7986C-0.686484 62.3802 -0.517478 52.7318 2.8974 45.2819Z" fill="#E5E5FF"/>
<path d="M79.0848 83.757H67.7183C67.4634 83.757 67.2568 83.9636 67.2568 84.2184V84.3395C67.2568 84.5943 67.4634 84.801 67.7183 84.801H79.0848C79.3396 84.801 79.5462 84.5943 79.5462 84.3395V84.2184C79.5462 83.9636 79.3396 83.757 79.0848 83.757Z" fill="url(#paint0_linear)"/>
<path d="M56.2718 61.7255H35.29V78.0434H56.2718V61.7255Z" fill="#6E71FF"/>
<path d="M56.2718 61.7255H35.29V78.0434H56.2718V61.7255Z" fill="url(#paint1_linear)"/>
<path d="M89.3093 24.586V66.2463C89.3093 67.7607 88.7077 69.2131 87.6368 70.284C86.5659 71.3549 85.1135 71.9565 83.5991 71.9565H11.4712C9.95672 71.9562 8.50436 71.3545 7.43337 70.2837C6.36238 69.213 5.7604 67.7607 5.75977 66.2463V24.586C5.75977 23.0716 6.36137 21.6191 7.43225 20.5483C8.50312 19.4774 9.95553 18.8758 11.47 18.8758H83.5991C84.3486 18.8755 85.0909 19.0228 85.7835 19.3094C86.4762 19.5959 87.1056 20.0161 87.6358 20.5459C88.166 21.0757 88.5867 21.7047 88.8739 22.3971C89.161 23.0895 89.3089 23.8316 89.3093 24.5812V24.586Z" fill="#6E71FF"/>
<path d="M89.3093 24.5861V66.2464C89.3093 67.7609 88.7077 69.2133 87.6368 70.2842C86.5659 71.355 85.1135 71.9566 83.5991 71.9566H11.4712C10.2145 71.9589 8.99243 71.5455 7.9952 70.7808C7.22917 69.7843 6.81559 68.5617 6.81936 67.3048V25.6493C6.81936 24.1349 7.42097 22.6825 8.49184 21.6116C9.56271 20.5407 11.0151 19.9391 12.5296 19.9391H84.6635C85.9203 19.9353 87.1429 20.3489 88.1394 21.115C88.9018 22.1112 89.3131 23.3317 89.3093 24.5861Z" fill="url(#paint2_linear)"/>
<path d="M89.3093 61.7255V66.2466C89.3093 67.7611 88.7077 69.2135 87.6368 70.2844C86.5659 71.3552 85.1135 71.9568 83.5991 71.9568H11.4712C10.7213 71.957 9.97873 71.8094 9.28588 71.5226C8.59302 71.2358 7.96345 70.8153 7.43309 70.2852C6.90274 69.7551 6.482 69.1257 6.19489 68.4329C5.90778 67.7402 5.75992 66.9977 5.75977 66.2478V61.7255H89.3093Z" fill="url(#paint3_linear)"/>
<path d="M78.2887 64.8083C78.309 66.365 78.1187 67.9173 77.723 69.423C77.5192 70.1973 77.2531 70.9812 76.7545 71.6033C76.6522 71.7325 76.5391 71.8528 76.4165 71.9628H68.2335C68.5655 70.5245 69.0294 68.7194 68.8664 68.5072C68.1257 67.5388 67.8428 66.3054 67.5863 65.1128C67.3717 64.1143 67.1632 63.0895 67.3034 62.0767C67.3202 61.9568 67.3406 61.8369 67.3645 61.7303C67.7133 60.1313 70.3299 59.7969 71.4542 59.7813L72.4131 61.7303C72.4131 62.6724 76.4692 59.2264 77.18 59.9827C77.5875 60.4166 77.844 61.0435 78.0058 61.7303C78.2468 62.7707 78.2779 63.9585 78.2887 64.8083Z" fill="url(#paint4_linear)"/>
<path d="M69.8651 63.6217L68.585 60.8744C69.4566 60.3172 70.4325 59.9428 71.4532 59.7741C71.5517 59.7462 71.657 59.7552 71.7493 59.7993C71.8087 59.8458 71.8549 59.9069 71.8835 59.9767C72.4085 61.0003 72.9335 62.0251 73.3542 63.0931C73.5508 63.5917 73.7246 64.1419 73.5652 64.6513C73.3698 65.277 72.743 65.6485 72.1652 65.9578C70.3349 66.9466 70.4152 64.8083 69.8651 63.6217Z" fill="white"/>
<path opacity="0.09" d="M72.5266 62.8724C72.1455 63.5028 71.895 64.2028 71.5474 64.8525C71.4886 64.9616 71.3999 65.0862 71.2765 65.073C71.2246 65.0638 71.176 65.0415 71.135 65.0083C70.7611 64.7526 70.4112 64.4634 70.0898 64.1441C70.0898 64.8501 70.5201 65.4758 70.9289 66.0523C70.9555 66.0958 70.9921 66.1323 71.0356 66.159C71.0735 66.1746 71.1144 66.1816 71.1554 66.1793C71.6345 66.1833 72.1056 66.0556 72.517 65.8102C72.5435 65.7978 72.5659 65.7783 72.5818 65.7538C72.5948 65.7262 72.5998 65.6955 72.5962 65.6651C72.583 64.9759 72.5158 64.2568 72.7867 63.6275C72.8694 63.4333 72.9833 63.2523 73.0492 63.051C73.0924 62.9179 73.1787 62.4912 72.9653 62.4445C72.7951 62.4025 72.5962 62.7573 72.5266 62.8724Z" fill="url(#paint5_linear)"/>
<path d="M63.647 78.4641C63.648 78.6482 63.6138 78.8309 63.5464 79.0022C63.4385 79.285 63.2471 79.5281 62.9977 79.6994C62.7483 79.8707 62.4526 79.962 62.15 79.9611H29.4278C29.1254 79.9612 28.83 79.8696 28.5808 79.6984C28.3315 79.5272 28.1399 79.2845 28.0314 79.0022C27.9639 78.8309 27.9297 78.6482 27.9307 78.4641C27.9305 78.2676 27.9691 78.0731 28.0441 77.8915C28.1191 77.71 28.2292 77.545 28.368 77.406C28.5068 77.2669 28.6716 77.1566 28.853 77.0813C29.0344 77.006 29.2289 76.9671 29.4254 76.967H62.1476C62.3442 76.9667 62.5389 77.0051 62.7207 77.08C62.9024 77.155 63.0676 77.265 63.2069 77.4038C63.3461 77.5426 63.4566 77.7074 63.5322 77.8889C63.6077 78.0704 63.6467 78.2651 63.647 78.4617V78.4641Z" fill="#6E71FF"/>
<path d="M63.647 78.4641C63.648 78.6482 63.6138 78.8309 63.5464 79.0022C63.4385 79.285 63.2471 79.5281 62.9977 79.6994C62.7483 79.8707 62.4526 79.962 62.15 79.9611H29.4278C29.1254 79.9612 28.83 79.8696 28.5808 79.6984C28.3315 79.5272 28.1399 79.2845 28.0314 79.0022C27.9639 78.8309 27.9297 78.6482 27.9307 78.4641C27.9305 78.2676 27.9691 78.0731 28.0441 77.8915C28.1191 77.71 28.2292 77.545 28.368 77.406C28.5068 77.2669 28.6716 77.1566 28.853 77.0813C29.0344 77.006 29.2289 76.9671 29.4254 76.967H62.1476C62.3442 76.9667 62.5389 77.0051 62.7207 77.08C62.9024 77.155 63.0676 77.265 63.2069 77.4038C63.3461 77.5426 63.4566 77.7074 63.5322 77.8889C63.6077 78.0704 63.6467 78.2651 63.647 78.4617V78.4641Z" fill="url(#paint6_linear)"/>
<path d="M63.5404 79.0021C63.4325 79.2849 63.2411 79.5281 62.9917 79.6994C62.7423 79.8706 62.4466 79.9619 62.144 79.961H29.4218C29.1194 79.9611 28.8241 79.8695 28.5748 79.6983C28.3255 79.5271 28.1339 79.2844 28.0254 79.0021C28.0997 78.8063 28.2149 78.6285 28.3634 78.4808C28.5023 78.3416 28.6672 78.2312 28.8488 78.1559C29.0305 78.0806 29.2252 78.0419 29.4218 78.0421H62.144C62.4465 78.0421 62.7419 78.1339 62.9912 78.3053C63.2405 78.4767 63.432 78.7197 63.5404 79.0021Z" fill="#6E71FF"/>
<path d="M18.3499 41.5228C18.3495 43.196 18.9929 44.8053 20.1469 46.017C21.3008 47.2287 22.8767 47.95 24.548 48.0312V51.2771C22.0139 51.1976 19.6102 50.1351 17.8458 48.3145C16.0814 46.4939 15.0947 44.0581 15.0947 41.5228C15.0947 38.9874 16.0814 36.5516 17.8458 34.731C19.6102 32.9104 22.0139 31.8479 24.548 31.7684V35.0143C22.8767 35.0956 21.3008 35.8168 20.1469 37.0285C18.9929 38.2402 18.3495 39.8495 18.3499 41.5228Z" fill="url(#paint7_linear)" fill-opacity="0.15"/>
<path d="M34.6261 41.5228C34.6275 42.953 34.3139 44.366 33.7075 45.6614C33.1012 46.9567 32.217 48.1026 31.1178 49.0177L29.0238 46.539C30.0555 45.6833 30.7983 44.5303 31.1509 43.2371C31.5035 41.9439 31.4488 40.5735 30.9942 39.3125C30.5396 38.0516 29.7072 36.9615 28.6105 36.1908C27.5138 35.4201 26.2062 35.0063 24.8658 35.0059C24.7603 35.0059 24.656 35.0059 24.5518 35.0143V31.778H24.8658C27.4516 31.7783 29.9316 32.8046 31.7615 34.6316C33.5914 36.4586 34.6217 38.937 34.6261 41.5228Z" fill="url(#paint8_linear)" fill-opacity="0.75"/>
<path d="M31.1178 49.0225C29.3652 50.4896 27.1514 51.2917 24.8658 51.2879C24.7603 51.2879 24.656 51.2879 24.5518 51.2819V48.036C24.656 48.036 24.7603 48.0432 24.8658 48.0432C26.3846 48.0455 27.856 47.5148 29.0238 46.5438L31.1178 49.0225Z" fill="url(#paint9_linear)"/>
<path d="M82.974 44.046H41.9766V44.2845H82.974V44.046Z" fill="url(#paint10_linear)"/>
<path d="M41.5283 35.4694C41.5283 35.4694 49.3277 34.3031 51.2994 30.808C53.2711 27.3128 57.3057 26.505 60.5288 33.1381C63.7518 39.7712 68.9562 40.3993 70.8369 38.1579C72.7175 35.9165 75.1399 27.8498 78.4564 27.67C81.773 27.4902 82.9692 33.9448 82.9692 33.9448V42.1025H41.9766L41.5283 35.4694Z" fill="#6E71FF"/>
<path d="M54.7062 47.2737H42.2754V48.1703H54.7062V47.2737Z" fill="url(#paint11_linear)" fill-opacity="0.55"/>
<path d="M54.7062 49.9143H42.2754V50.8109H54.7062V49.9143Z" fill="url(#paint12_linear)"/>
<path d="M54.7062 52.5547H42.2754V53.4513H54.7062V52.5547Z" fill="url(#paint13_linear)"/>
<path d="M61.9382 47.2737H60.3848V48.1703H61.9382V47.2737Z" fill="url(#paint14_linear)" fill-opacity="0.55"/>
<path d="M61.9382 49.9143H60.3848V50.8109H61.9382V49.9143Z" fill="url(#paint15_linear)"/>
<path d="M61.9382 52.5547H60.3848V53.4513H61.9382V52.5547Z" fill="url(#paint16_linear)"/>
<path d="M75.1365 57.0353C75.1365 57.0353 76.6552 54.167 77.71 54.378C78.7647 54.5889 79.8195 55.6857 79.4815 56.5295C79.1435 57.3733 77.3947 58.9351 77.3408 59.6938C77.2868 60.4526 76.0223 60.1158 76.0223 60.1158L75.8114 58.512C75.8114 58.512 75.0514 57.8372 75.1365 57.0353Z" fill="url(#paint17_linear)"/>
<path d="M77.8544 53.7018C78.166 53.6012 78.504 53.6455 78.8229 53.7138C79.1417 53.7821 79.4881 53.89 79.7171 54.1333C80.0419 54.4785 80.067 55.0023 80.2576 55.4374C80.4218 55.8138 80.7167 56.135 80.8078 56.5354C80.8771 56.8812 80.8106 57.2405 80.622 57.5386C80.4333 57.8334 80.1737 58.0762 79.8669 58.2446C79.5984 58.4004 79.3047 58.5131 79.0446 58.6833C78.7845 58.8535 78.5832 59.0621 78.341 59.2359C78.1065 59.4253 77.8118 59.5243 77.5104 59.5151C77.3944 59.5077 77.2843 59.4617 77.1976 59.3845C77.0357 59.2287 77.0441 58.971 77.0621 58.7468C77.0861 58.4759 77.1093 58.2046 77.1316 57.933C77.2963 57.9413 77.4612 57.9198 77.6183 57.8694C77.6965 57.8431 77.7664 57.7966 77.8211 57.7348C77.8758 57.673 77.9133 57.5979 77.9299 57.517C77.9623 57.2773 77.7178 57.0652 77.4732 57.0376C77.2287 57.01 76.9938 57.1179 76.7708 57.221C76.6774 57.028 76.8152 56.8063 76.953 56.6409C77.1483 56.4088 77.3589 56.1902 77.5835 55.9864C77.6631 55.9279 77.7246 55.8481 77.7609 55.7563C77.8232 55.5357 77.6015 55.3523 77.5068 55.1785C77.4365 55.0316 77.383 54.8772 77.3474 54.7183C77.2131 54.2604 77.369 53.8577 77.8544 53.7018Z" fill="#3F3D56"/>
<path d="M79.1093 68.7937C79.0493 69.1905 78.9738 69.5956 78.7725 69.9432C78.1732 70.9728 76.7672 71.1262 75.5758 71.1011C74.9992 71.0903 74.3652 71.0351 73.8785 70.7607C73.6915 70.6595 73.5281 70.5198 73.3991 70.3507C73.073 69.9132 73.0395 69.3283 73.0551 68.7829C73.073 68.2184 73.127 67.6407 73.1354 67.0725C73.1462 66.3689 73.085 65.6797 72.7974 65.0457C72.6368 64.6981 73.3319 63.4479 73.4758 63.0979C73.7155 62.531 72.9843 62.8846 73.2181 62.3176C73.4758 61.6931 73.7491 61.0471 74.2549 60.6036C75.0388 59.9204 76.1727 59.8784 77.2155 59.8724C77.3833 59.8724 77.6158 59.9491 77.575 60.1122C78.3745 60.3315 78.8012 61.6224 78.9618 62.4339C79.377 64.5295 79.4269 66.6811 79.1093 68.7937Z" fill="#6E71FF"/>
<path d="M74.7628 70.7067C74.4689 70.7546 74.1709 70.7726 73.8734 70.7606C73.6864 70.6595 73.5229 70.5197 73.3939 70.3507C73.0679 69.9132 73.0344 69.3283 73.0499 68.7829C73.0679 68.2184 73.1219 67.6406 73.1302 67.0725L74.7592 63.8015C74.7592 63.8015 75.3381 70.5832 74.7628 70.7067Z" fill="url(#paint18_linear)"/>
<path d="M76.7396 71.0482L77.9382 70.7066C77.9382 70.7066 78.2702 71.053 77.9382 72.4134C77.6062 73.7739 77.5019 83.2345 77.5019 83.2345H76.4231L75.4642 74.4439C75.4642 74.4439 73.3762 81.9112 73.2492 83.2405H71.9727C71.9727 83.2405 72.4185 71.3323 73.3978 70.3566C73.3978 70.3506 73.9767 70.6335 76.7396 71.0482Z" fill="#3F3D56"/>
<path d="M72.8249 63.3065C72.8249 63.3065 72.3682 66.6842 71.7845 66.6314C71.2008 66.5787 70.1939 64.5362 70.1939 64.5362C69.9656 64.622 69.7704 64.7782 69.6368 64.9823C69.5032 65.1864 69.438 65.4277 69.4508 65.6713C69.4508 66.5763 70.3522 67.4249 70.3522 67.4249C70.3522 67.4249 72.952 69.2816 73.6915 67.8025C74.4311 66.3234 74.9261 62.7683 74.9261 62.7683C74.9261 62.7683 76.0216 60.0115 74.9177 60.1996C73.4074 60.4418 72.8249 63.3065 72.8249 63.3065Z" fill="#6E71FF"/>
<path d="M69.4593 64.2606C69.2679 63.7734 69.2492 63.2352 69.4066 62.736C69.4789 62.7826 69.532 62.8536 69.5564 62.9361L69.88 63.6709C69.9881 63.576 70.0822 63.4663 70.1593 63.3449C70.1986 63.3684 70.2297 63.4035 70.2483 63.4453C70.267 63.4871 70.2723 63.5336 70.2636 63.5786C70.2442 63.6682 70.2161 63.7557 70.1797 63.8399C70.1232 64.0739 70.1199 64.3176 70.1701 64.5531C70.0896 64.6265 70.0043 64.6946 69.9148 64.7568C69.8381 64.8096 69.7374 64.9102 69.6751 64.8443C69.6127 64.7784 69.6068 64.6118 69.5756 64.5375C69.5444 64.4632 69.4965 64.3541 69.4593 64.2606Z" fill="url(#paint19_linear)"/>
<path d="M73.2361 83.2346L73.0779 84.5051H70.2324C70.2324 84.5051 70.423 83.6145 71.9728 83.2346H73.2361Z" fill="#3F3D56"/>
<path d="M77.5509 83.2346L77.6516 84.5051H74.5352C74.5352 84.5051 74.7245 83.6145 76.2755 83.2346H77.5509Z" fill="#3F3D56"/>
</g>
<defs>
<linearGradient id="paint0_linear" x1="86.7198" y1="87.29" x2="78.1915" y2="75.7277" gradientUnits="userSpaceOnUse">
<stop offset="0.01"/>
<stop offset="0.83" stop-opacity="0.07"/>
<stop offset="1" stop-opacity="0"/>
</linearGradient>
<linearGradient id="paint1_linear" x1="45.6521" y1="60.6671" x2="45.8954" y2="78.0194" gradientUnits="userSpaceOnUse">
<stop offset="0.01"/>
<stop offset="0.97" stop-color="#3F3D56" stop-opacity="0"/>
</linearGradient>
<linearGradient id="paint2_linear" x1="49.0706" y1="63.981" x2="45.6737" y2="3.0674" gradientUnits="userSpaceOnUse">
<stop offset="0.03" stop-color="white" stop-opacity="0"/>
<stop offset="1" stop-color="white"/>
</linearGradient>
<linearGradient id="paint3_linear" x1="18.9875" y1="54.3083" x2="123.191" y2="91.3742" gradientUnits="userSpaceOnUse">
<stop stop-opacity="0"/>
<stop offset="0.87783" stop-opacity="0.75"/>
<stop offset="1"/>
</linearGradient>
<linearGradient id="paint4_linear" x1="8912.47" y1="-2000.22" x2="5743.37" y2="-1898.88" gradientUnits="userSpaceOnUse">
<stop/>
<stop offset="0.97" stop-color="#3F3D56" stop-opacity="0.35"/>
</linearGradient>
<linearGradient id="paint5_linear" x1="70.0898" y1="64.3107" x2="73.0984" y2="64.3107" gradientUnits="userSpaceOnUse">
<stop stop-color="#183866"/>
<stop offset="1" stop-color="#1A7FC1"/>
</linearGradient>
<linearGradient id="paint6_linear" x1="-1.42907" y1="78.3999" x2="70.8761" y2="87.6948" gradientUnits="userSpaceOnUse">
<stop offset="0.01"/>
<stop offset="0.97" stop-color="#3F3D56" stop-opacity="0"/>
</linearGradient>
<linearGradient id="paint7_linear" x1="2478.99" y1="7903.91" x2="4.45393" y2="7931.45" gradientUnits="userSpaceOnUse">
<stop stop-color="white" stop-opacity="0"/>
<stop offset="1" stop-color="white"/>
</linearGradient>
<linearGradient id="paint8_linear" x1="2650.33" y1="6988.34" x2="13.3602" y2="7023.73" gradientUnits="userSpaceOnUse">
<stop offset="0.03" stop-color="white" stop-opacity="0"/>
<stop offset="1" stop-color="white"/>
</linearGradient>
<linearGradient id="paint9_linear" x1="1311.49" y1="1832.99" x2="1537.65" y2="2628.38" gradientUnits="userSpaceOnUse">
<stop offset="0.03" stop-color="white" stop-opacity="0.44"/>
<stop offset="0.927083" stop-color="white"/>
</linearGradient>
<linearGradient id="paint10_linear" x1="54.6136" y1="26.224" x2="65.8036" y2="51.7615" gradientUnits="userSpaceOnUse">
<stop stop-color="white" stop-opacity="0"/>
<stop offset="1" stop-color="white"/>
</linearGradient>
<linearGradient id="paint11_linear" x1="5041.22" y1="261.836" x2="5041.41" y2="481.52" gradientUnits="userSpaceOnUse">
<stop offset="0.03" stop-color="white" stop-opacity="0.55"/>
<stop offset="1" stop-color="white"/>
</linearGradient>
<linearGradient id="paint12_linear" x1="48.4147" y1="44.2185" x2="48.7791" y2="73.5833" gradientUnits="userSpaceOnUse">
<stop offset="0.03" stop-color="white" stop-opacity="0"/>
<stop offset="0.45" stop-color="white" stop-opacity="0.45"/>
<stop offset="1" stop-color="white"/>
</linearGradient>
<linearGradient id="paint13_linear" x1="5059.99" y1="416.106" x2="5060.19" y2="635.788" gradientUnits="userSpaceOnUse">
<stop offset="0.03" stop-color="white" stop-opacity="0.75"/>
<stop offset="1" stop-color="white"/>
</linearGradient>
<linearGradient id="paint14_linear" x1="685.073" y1="261.836" x2="686.641" y2="481.509" gradientUnits="userSpaceOnUse">
<stop offset="0.03" stop-color="white" stop-opacity="0.55"/>
<stop offset="1" stop-color="white"/>
</linearGradient>
<linearGradient id="paint15_linear" x1="61.152" y1="44.2185" x2="64.0398" y2="73.301" gradientUnits="userSpaceOnUse">
<stop offset="0.03" stop-color="white" stop-opacity="0"/>
<stop offset="0.45" stop-color="white" stop-opacity="0.45"/>
<stop offset="1" stop-color="white"/>
</linearGradient>
<linearGradient id="paint16_linear" x1="687.419" y1="416.106" x2="688.992" y2="635.777" gradientUnits="userSpaceOnUse">
<stop offset="0.03" stop-color="white" stop-opacity="0.75"/>
<stop offset="1" stop-color="white"/>
</linearGradient>
<linearGradient id="paint17_linear" x1="75.1293" y1="57.2786" x2="79.5462" y2="57.2786" gradientUnits="userSpaceOnUse">
<stop stop-color="#ECC4D7"/>
<stop offset="0.16" stop-color="#EDCBD5"/>
<stop offset="0.42" stop-color="#EFD4D1"/>
<stop offset="0.7" stop-color="#F2EAC9"/>
</linearGradient>
<linearGradient id="paint18_linear" x1="74.2534" y1="71.5222" x2="75.4217" y2="60.1809" gradientUnits="userSpaceOnUse">
<stop stop-opacity="0"/>
<stop offset="0.423317" stop-opacity="0.75"/>
<stop offset="1"/>
</linearGradient>
<linearGradient id="paint19_linear" x1="631.416" y1="1320.73" x2="639.2" y2="1320.73" gradientUnits="userSpaceOnUse">
<stop stop-color="#ECC4D7"/>
<stop offset="0.16" stop-color="#EDCBD5"/>
<stop offset="0.42" stop-color="#EFD4D1"/>
<stop offset="0.7" stop-color="#F2EAC9"/>
</linearGradient>
<clipPath id="clip0">
<path d="M0 0H98V98H0V0Z" fill="white"/>
</clipPath>
</defs>
</svg>
