<svg width="16" height="16" viewBox="0 0 16 16" fill="none" xmlns="http://www.w3.org/2000/svg">
<path d="M7.3678 3.26508H3.19284C2.87648 3.26508 2.57308 3.39074 2.34938 3.61443C2.12567 3.83812 2 4.1415 2 4.45785V12.8072C2 13.1236 2.12567 13.427 2.34938 13.6507C2.57308 13.8743 2.87648 14 3.19284 14H11.5428C11.8591 14 12.1625 13.8743 12.3862 13.6507C12.6099 13.427 12.7356 13.1236 12.7356 12.8072V8.63254" stroke="#111111" stroke-linecap="round" stroke-linejoin="round"/>
<path d="M11.8401 2.37055C12.0773 2.13329 12.3991 2 12.7347 2C13.0703 2 13.3921 2.13329 13.6293 2.37055C13.8666 2.6078 13.9999 2.92959 13.9999 3.26512C13.9999 3.60066 13.8666 3.92245 13.6293 4.1597L7.96332 9.82536L5.57764 10.4217L6.17406 8.03621L11.8401 2.37055Z" stroke="#111111" stroke-linecap="round" stroke-linejoin="round"/>
</svg>
