<svg width="98" height="98" viewBox="0 0 98 98" fill="none" xmlns="http://www.w3.org/2000/svg">
<g clip-path="url(#clip0)">
<path opacity="0.18" d="M34.0058 3.32737C29.6476 6.87123 27.4019 12.5619 23.6508 16.8053C18.1641 23.0191 9.75793 25.8113 4.67847 32.3879C-1.1946 39.9847 -1.22125 51.3339 2.82291 60.1595C4.89923 64.6996 8.02798 69.3439 7.0631 74.2728C6.59873 76.6641 5.19802 78.7528 4.64612 81.122C3.67361 85.2933 5.55772 89.7993 8.61225 92.6436C11.6668 95.4879 15.7109 96.887 19.7361 97.5785C32.9952 99.8536 46.4009 95.1732 59.8313 94.9226C63.7917 94.8465 67.7712 95.1572 71.7049 94.6661C81.9686 93.3872 91.3072 86.4338 96.4552 77.0009C97.2507 75.5477 97.9777 73.9722 97.9967 72.2944C98.0234 70.5846 97.3288 68.967 96.6798 67.3996C94.5863 62.3564 92.8088 57.1087 92.2283 51.6426C91.6155 45.8998 92.3464 40.0829 91.9486 34.3181C91.2254 23.8549 85.9385 13.059 76.6874 9.17234C69.1681 6.01333 60.1396 8.35854 52.8982 4.53806C49.8532 2.9345 48.8445 0.481053 45.082 0.0841721C41.192 -0.328744 37.1155 0.791743 34.0058 3.32737Z" fill="#6E71FF"/>
<path d="M43.1635 21.4079C43.1635 21.4079 39.5741 23.0422 39.1517 23.4083C38.771 23.7403 39.7987 46.3985 39.8767 47.5067C39.9548 48.6149 45.6965 48.7989 48.1858 48.2988C49.8446 47.9406 51.4675 47.4189 53.0331 46.7406C53.0331 46.7406 53.8191 23.3363 53.33 22.9222C52.8409 22.5081 48.0888 20.9578 48.0888 20.9578L43.1635 21.4079Z" fill="#5759C9"/>
<path d="M51.7861 22.6881C51.7861 22.6881 52.8823 22.6121 53.6284 23.0882C54.3744 23.5643 61.3932 30.0135 61.5682 31.9118C61.7433 33.8102 60.3331 35.0104 59.7184 34.8804C59.1037 34.7504 57.2101 32.796 56.7857 32.1819C56.3613 31.5678 52.5988 30.7496 52.5988 30.7496L51.7861 22.6881Z" fill="#5759C9"/>
<path d="M39.6063 34.3363C39.6071 34.4672 39.6553 34.5929 39.7413 34.6877C39.8272 34.7825 39.9443 34.8392 40.0687 34.8464C42.3639 35.3645 44.6058 33.9462 46.9048 33.4461C47.9477 33.2241 49.0458 33.1861 50.0031 32.696C51.1754 32.0959 51.9614 30.9116 52.6922 29.7754L54.5953 26.8309C54.8979 26.3588 55.2082 25.7447 54.9246 25.2606C54.7038 24.8845 54.1995 24.7925 53.7979 24.9265C53.3964 25.0606 53.0766 25.3686 52.7607 25.6607C51.1756 27.1231 49.4347 28.3878 47.5728 29.4294C46.782 29.8942 45.9446 30.2652 45.0759 30.5356C43.5534 30.9757 40.8281 30.6056 39.2903 30.6756C39.2827 30.6836 39.416 33.2421 39.6063 34.3363Z" fill="url(#paint0_linear)"/>
<path d="M59.6763 28.9473C60.1138 29.156 60.4936 29.4781 60.7801 29.8835C61.2768 30.5956 62.1332 31.6298 62.3026 32.4839C62.5043 33.4741 61.6631 34.8744 60.6945 35.0524C60.0991 35.147 59.4906 35.0762 58.9294 34.847C58.3682 34.6179 57.8738 34.2384 57.4953 33.7462C57.1249 33.2449 56.8717 32.6591 56.756 32.0362C56.6403 31.4132 56.6654 30.7704 56.8292 30.1595C57.2231 28.6532 58.5725 28.4192 59.6763 28.9473Z" fill="#8181FB"/>
<path d="M49.3267 84.9791C49.3267 84.9791 49.2761 87.7061 49.5159 88.0442C49.7557 88.3822 51.1107 88.2722 51.95 88.0762C52.7893 87.8801 53.2467 87.2063 53.2467 87.2063L52.9929 85.493L49.3267 84.9791Z" fill="#030303"/>
<path d="M38.0567 83.0944C38.0567 83.0944 37.286 87.3801 37.4878 87.7342C37.6895 88.0882 39.2006 87.2101 40.0494 87.1C40.8982 86.99 40.98 85.5498 40.98 85.5498L41.1597 84.2937L38.0567 83.0944Z" fill="#030303"/>
<path d="M43.0049 19.1935C43.0049 19.1935 43.3208 21.608 43.0696 22.5021C42.8184 23.3963 43.985 26.0728 45.715 26.2368C47.4449 26.4008 47.7113 23.3083 47.7437 22.9442C47.7761 22.5801 47.2717 22.3441 47.521 21.4559C47.7703 20.5678 43.2713 18.1173 43.0049 19.1935Z" fill="#E8CDD3"/>
<path d="M47.521 21.4539C47.3307 22.144 47.5838 22.4401 47.6961 22.7062C47.2806 23.0679 46.7527 23.256 46.2136 23.2342C45.1745 23.1342 43.6938 22.078 43.1419 20.3737L43.1134 20.2797C43.0658 19.6696 43.0049 19.1915 43.0049 19.1915C43.2713 18.1173 47.7722 20.5618 47.521 21.4539Z" fill="#DAC1C3"/>
<path d="M43.1328 22.1621C43.1328 22.1621 44.2328 25.7287 45.3918 26.2048C45.3918 26.2048 45.7002 26.4169 44.7886 26.8809C43.877 27.345 41.6864 24.3865 42.2041 22.4181C42.2614 22.1675 42.3789 21.9365 42.5456 21.7473C42.7122 21.5582 42.9223 21.4172 43.1557 21.3379L43.1328 22.1621Z" fill="white"/>
<path d="M47.4906 21.818C47.4906 21.818 47.6581 24.3785 46.5391 26.0188C46.5391 26.0188 46.8969 26.7069 47.2432 26.7389C47.5896 26.7709 48.642 24.6706 48.4365 23.0003C48.3147 22.0321 47.6867 21.574 47.4906 21.818Z" fill="white"/>
<path d="M40.0488 47.5267L39.3352 62.8216L37.9668 84.0255C37.9668 84.0255 38.7528 85.0156 41.0118 85.0476L45.0864 63.4777L47.001 52.5157L48.6529 63.2016L49.3399 85.4717C49.3399 85.4717 50.9405 85.5057 53.0168 85.7038L54.3642 63.7417L53.032 46.7386L40.0488 47.5267Z" fill="#040405"/>
<path d="M40.0488 47.5267L39.3352 62.8216L37.9668 84.0255C37.9668 84.0255 38.7528 85.0156 41.0118 85.0476L45.0864 63.4777L47.001 52.5157L48.6529 63.2016L49.3399 85.4717C49.3399 85.4717 50.9405 85.5057 53.0168 85.7038L54.3642 63.7417L53.032 46.7386L40.0488 47.5267Z" fill="url(#paint1_linear)"/>
<path d="M49.1698 14.4567C49.1698 14.4567 49.1108 19.2196 48.654 20.4578C48.1973 21.696 47.0668 22.6942 46.0277 22.5942C44.9886 22.4942 43.5098 21.438 42.9579 19.7356C42.406 18.0333 42.4022 13.9926 42.623 13.4685C42.8438 12.9444 44.0351 11.3181 46.7756 11.8442C48.6654 12.2083 49.2326 13.7285 49.1698 14.4567Z" fill="#E8CDD3"/>
<path d="M49.1698 14.4567C49.1698 14.4567 49.1108 19.2196 48.654 20.4578C48.1973 21.696 47.0668 22.6942 46.0277 22.5942C44.9886 22.4942 43.5098 21.438 42.9579 19.7356C42.406 18.0333 42.4022 13.9926 42.623 13.4685C42.8438 12.9444 44.0351 11.3181 46.7756 11.8442C48.6654 12.2083 49.2326 13.7285 49.1698 14.4567Z" fill="url(#paint2_linear)"/>
<path d="M47.3139 10.606C46.9819 10.2128 46.5822 9.88908 46.1359 9.65179C45.6902 9.44941 45.2111 9.34068 44.7257 9.33173C43.795 9.28572 42.7464 9.52176 42.2364 10.3319C41.9052 10.866 41.8691 11.5321 41.9052 12.1783C41.9172 12.2643 41.9067 12.3521 41.8748 12.4323C41.7796 12.6203 41.5208 12.5823 41.3191 12.5803C40.5178 12.5803 39.9754 13.5805 40.1543 14.3987C40.3903 15.4769 41.3952 15.6909 41.8424 16.5311C41.9147 16.6671 42.0156 16.8191 42.164 16.8231C42.3544 16.8231 42.4552 16.6031 42.5104 16.423C42.7883 15.4629 42.6646 14.5607 43.3212 13.7145C43.363 13.6482 43.4267 13.6004 43.5 13.5805C43.7246 13.5545 43.7589 13.9946 43.9834 14.0286C44.189 13.7525 44.484 13.4405 44.8037 13.5465C44.99 13.6426 45.1421 13.799 45.2376 13.9926C45.4994 14.3773 45.832 14.7029 46.2158 14.9499C46.5996 15.1969 47.0267 15.3603 47.4717 15.4305C47.9167 15.5006 48.3706 15.4761 48.8065 15.3583C49.2423 15.2405 49.6511 15.0318 50.0088 14.7447C50.2622 14.5632 50.4515 14.2988 50.5474 13.9926C50.652 13.5805 50.4731 13.1544 50.2885 12.7744C50.1511 12.4426 49.9577 12.1396 49.7176 11.8802C49.595 11.7512 49.444 11.6561 49.278 11.6034C49.1119 11.5507 48.936 11.542 48.766 11.5781C48.6274 11.6479 48.4742 11.6795 48.3207 11.6702C48.2201 11.6299 48.1323 11.5606 48.0676 11.4701C47.8126 11.1921 47.569 10.89 47.3139 10.606Z" fill="#3E3E54"/>
<path d="M42.7046 16.593C42.7046 16.593 42.6247 15.4848 41.9015 15.7829C41.1783 16.081 41.8711 18.1653 42.2022 18.3834C42.3485 18.4982 42.5226 18.5675 42.7046 18.5834" fill="#E8CDD3"/>
<path d="M42.7046 16.593C42.7046 16.593 42.6247 15.4848 41.9015 15.7829C41.1783 16.081 41.8711 18.1653 42.2022 18.3834C42.3485 18.4982 42.5226 18.5675 42.7046 18.5834" fill="url(#paint3_linear)"/>
<path d="M58.9534 32.0999C58.9534 32.0999 58.038 30.6356 60.0725 29.1133C62.1069 27.591 68.3777 23.3823 68.3777 23.3823L68.7755 25.8127C68.7755 25.8127 62.7273 33.9962 61.1515 33.7302C60.6912 33.6525 60.2538 33.4653 59.8728 33.1827C59.4918 32.9001 59.1773 32.5298 58.9534 32.0999Z" fill="#E8CDD3"/>
<path d="M58.9534 32.0999C58.9534 32.0999 58.038 30.6356 60.0725 29.1133C62.1069 27.591 68.3777 23.3823 68.3777 23.3823L68.7755 25.8127C68.7755 25.8127 62.7273 33.9962 61.1515 33.7302C60.6912 33.6525 60.2538 33.4653 59.8728 33.1827C59.4918 32.9001 59.1773 32.5298 58.9534 32.0999Z" fill="url(#paint4_linear)"/>
<path d="M68.3779 23.3823C68.5349 23.092 68.7057 22.8103 68.8899 22.5382C69.006 22.3681 69.1525 22.2301 69.2705 22.0681C69.4475 21.824 69.379 21.3459 69.3923 21.0399C69.3919 20.7003 69.4689 20.3656 69.6169 20.0637C69.6436 20.0069 69.687 19.9606 69.7406 19.9317C69.7764 19.9198 69.8146 19.9184 69.8511 19.9275C69.8877 19.9367 69.9212 19.9561 69.948 19.9837C70.0021 20.0402 70.0437 20.1085 70.0698 20.1837C70.2067 20.508 70.2904 20.8543 70.3172 21.2079C70.3343 21.47 70.4086 21.678 70.6617 21.57C70.9029 21.4692 71.1536 21.3954 71.4096 21.3499C71.6399 21.3079 72.3612 21.1499 72.4487 21.51C72.6086 22.1581 71.6171 24.5325 71.5543 24.7106C71.4915 24.8886 68.7738 25.8248 68.7738 25.8248L68.3779 23.3823Z" fill="#E8CDD3"/>
<path d="M68.3779 23.3823C68.5349 23.092 68.7057 22.8103 68.8899 22.5382C69.006 22.3681 69.1525 22.2301 69.2705 22.0681C69.4475 21.824 69.379 21.3459 69.3923 21.0399C69.3919 20.7003 69.4689 20.3656 69.6169 20.0637C69.6436 20.0069 69.687 19.9606 69.7406 19.9317C69.7764 19.9198 69.8146 19.9184 69.8511 19.9275C69.8877 19.9367 69.9212 19.9561 69.948 19.9837C70.0021 20.0402 70.0437 20.1085 70.0698 20.1837C70.2067 20.508 70.2904 20.8543 70.3172 21.2079C70.3343 21.47 70.4086 21.678 70.6617 21.57C70.9029 21.4692 71.1536 21.3954 71.4096 21.3499C71.6399 21.3079 72.3612 21.1499 72.4487 21.51C72.6086 22.1581 71.6171 24.5325 71.5543 24.7106C71.4915 24.8886 68.7738 25.8248 68.7738 25.8248L68.3779 23.3823Z" fill="url(#paint5_linear)"/>
<path d="M34.6166 88.1281C34.4605 88.2822 34.295 88.4762 34.3273 88.6982C34.3597 88.9203 34.5557 89.0503 34.7422 89.1443C36.0363 89.7965 37.5589 89.6864 38.9672 89.3824C39.4886 89.2704 40.0348 89.1143 40.4002 88.7063C40.6036 88.4641 40.7497 88.1748 40.8265 87.8621C40.9396 87.4547 40.9777 87.0283 40.9388 86.6059C40.9415 86.5226 40.9257 86.4399 40.8927 86.3642C40.8596 86.2885 40.8103 86.2219 40.7485 86.1698C40.6661 86.1286 40.5751 86.11 40.484 86.1158C39.5457 86.0938 38.1907 85.7677 37.3286 86.1618C36.319 86.6398 35.4002 87.306 34.6166 88.1281Z" fill="#030303"/>
<path d="M50.1042 86.9679C49.884 86.9091 49.6529 86.9126 49.4343 86.9779C49.3027 87.0439 49.1899 87.1453 49.1074 87.2717C49.0248 87.3981 48.9755 87.5452 48.9643 87.6981C48.945 88.0046 48.9785 88.3122 49.0632 88.6062C49.1 88.8593 49.194 89.0994 49.3373 89.3064C49.5381 89.5146 49.7967 89.6505 50.0757 89.6944C50.6012 89.8044 51.1348 89.8667 51.6705 89.8805L55.0391 90.0705C55.2891 90.1157 55.5464 90.0654 55.7641 89.9285C55.8785 89.8112 55.9521 89.6569 55.9731 89.4905C55.9942 89.324 55.9615 89.1549 55.8802 89.0103C55.7098 88.7259 55.4751 88.4902 55.197 88.3242C54.55 87.8741 53.6345 87.124 52.8543 86.9999C52.4832 86.9359 52.0207 87.078 51.6401 87.08C51.1262 87.0837 50.6127 87.0462 50.1042 86.9679Z" fill="#030303"/>
<path d="M79.9523 38.397C79.9385 38.3137 79.9406 38.2283 79.9586 38.1459C79.9766 38.0635 80.01 37.9856 80.057 37.9169C80.51 37.3787 80.856 36.7507 81.0746 36.0698C81.2933 35.3889 81.3802 34.6689 81.3302 33.9522C81.2715 32.6963 80.75 31.5136 79.8761 30.6548C79.0022 29.796 77.8446 29.3285 76.6484 29.3514L66.0137 29.5334C66.0126 29.4271 66.0183 29.3208 66.0309 29.2153C66.1869 28.1331 66.3335 27.053 66.5009 25.9768C66.7369 24.5493 66.6817 23.0854 66.3392 21.682C65.8672 19.7456 65.125 17.9193 64.3238 16.1109C63.9165 15.1868 63.3398 14.4886 62.4473 14.0686C60.6564 13.2264 58.9112 13.1924 57.2365 14.3646C56.165 15.1128 55.5465 16.0969 55.6302 17.5332C55.7178 19.1335 55.6797 20.7158 55.7216 22.3121C55.75 22.7001 55.6947 23.0899 55.5598 23.4523C55.4133 23.7984 55.1792 24.0784 55.0365 24.4345C54.9053 24.7165 54.7599 24.991 54.6006 25.2566C54.3076 25.8207 54.0126 26.3808 53.7024 26.9329C52.7908 28.5752 51.9305 30.2535 50.8039 31.7518C50.3548 32.3519 49.8695 32.924 49.3842 33.4981C49.2528 33.6542 49.1025 33.7502 48.8817 33.5721C48.4071 33.2144 47.83 33.0386 47.2469 33.0741C43.0803 33.1407 38.915 33.2107 34.751 33.2841C33.08 33.3121 31.9172 34.6643 32.0504 36.4187C32.1817 38.019 32.3302 39.6193 32.4729 41.2036C32.5966 42.6578 32.7089 44.1121 32.8535 45.5603C33.0096 47.3027 33.1828 49.045 33.3446 50.7853C33.4587 51.9695 33.5501 53.1517 33.6681 54.336C33.7086 54.5082 33.7727 54.6733 33.8584 54.8261L33.6947 54.8541C33.7785 55.4542 33.7594 56.1143 33.9707 56.6704C34.6082 58.3327 35.8396 58.5947 37.2231 58.4527C37.2517 58.4527 37.2669 58.3647 37.2878 58.3167C37.4685 58.3823 37.6555 58.4265 37.8455 58.4487C41.1531 58.3967 44.4665 58.3467 47.7741 58.2767C48.2761 58.2884 48.7697 58.1393 49.1892 57.8492C49.6086 57.5591 49.9342 57.1417 50.1226 56.6524C50.2693 56.241 50.3882 55.8192 50.4785 55.3902C50.6274 55.4544 50.7724 55.5286 50.9124 55.6122C51.3425 55.8762 51.7821 56.1583 52.1837 56.4483C52.2683 56.5142 52.3588 56.5711 52.4539 56.6184C52.6486 56.6855 52.8496 56.7305 53.0534 56.7524C53.2849 56.8093 53.5217 56.8395 53.7595 56.8424C56.3668 56.8144 58.9683 56.7644 61.5623 56.7204C64.7577 56.6644 67.9702 56.6204 71.1731 56.5444L72.2027 56.5184C72.6737 56.5048 73.1349 56.3739 73.5482 56.1363C74.2677 55.6913 74.9462 55.177 75.5751 54.6C77.0976 53.1998 77.7751 51.4614 77.2765 49.319C77.2677 49.136 77.3203 48.9555 77.4249 48.8089C77.6838 48.4089 77.9749 48.0328 78.2261 47.6287C78.287 47.5327 78.2452 47.3687 78.2471 47.2387C78.4964 47.3867 78.4755 47.1226 78.5135 47.0166C78.9132 45.9784 78.8941 44.9102 78.6715 43.836C78.6556 43.7532 78.6563 43.6677 78.6733 43.5851C78.6903 43.5025 78.7234 43.4245 78.7704 43.3559C80.0513 41.9397 80.3729 40.2714 79.9523 38.397ZM47.422 38.5551L47.677 54.8921C47.6866 55.4462 47.6866 55.4462 47.148 55.4542C43.7433 55.5142 40.3405 55.5662 36.9377 55.6362C36.557 55.6482 36.4428 55.5322 36.4086 55.1441C36.2614 53.2771 36.0997 51.4101 35.9233 49.5431C35.7748 47.9068 35.6036 46.2705 35.4608 44.6342C35.3314 43.2339 35.2248 41.8337 35.103 40.4194C34.9927 39.1372 34.8823 37.8529 34.751 36.5707C34.711 36.2066 34.829 36.1266 35.1582 36.1286C37.973 36.0906 40.782 36.0366 43.5967 35.9886C44.5483 35.9726 45.4999 35.9606 46.4628 35.9626C46.5269 35.9576 46.5913 35.9644 46.6532 35.9826C46.7652 36.0286 46.8595 36.1123 46.9215 36.2206C47.1312 36.4692 47.264 36.779 47.3021 37.1088C47.3071 37.2107 47.3243 37.3115 47.3535 37.4089C47.3706 37.4909 47.3878 37.5669 47.4068 37.6549C47.4336 37.9548 47.44 38.2563 47.4258 38.5571L47.422 38.5551ZM77.2574 36.7547C77.0919 36.8647 76.9073 36.9448 76.7474 37.0588C76.3972 37.3068 76.3668 37.5489 76.6751 37.8449C77.5467 38.7071 77.954 40.3914 76.7322 41.5576C76.342 41.9175 75.9165 42.2327 75.4628 42.4978C75.0194 42.7658 74.9623 43.0439 75.3638 43.3659C75.5677 43.5167 75.7396 43.7103 75.8687 43.9344C75.9977 44.1586 76.0812 44.4084 76.1137 44.6682C76.1403 44.8682 76.1936 45.0683 76.2355 45.2683C76.0204 46.6405 75.1697 47.4387 74.0297 47.9828C73.5882 48.1828 73.5482 48.4109 73.906 48.7329C74.3152 49.0722 74.6063 49.5441 74.7339 50.0752C74.9813 51.1374 74.4998 51.8755 73.8204 52.5436C73.6758 52.6877 73.5159 52.8077 73.3713 52.9437C72.7299 53.5438 72.0048 53.7639 71.1294 53.7659C67.384 53.7839 63.6386 53.8719 59.8876 53.9419C59.7658 53.9419 59.642 53.9759 59.5183 53.9899C59.3829 53.9677 59.2462 53.9543 59.1092 53.9499L56.97 53.9859L55.8891 54.0059C55.5694 54.0437 55.2464 54.0383 54.928 53.9899C54.8651 53.9779 54.8006 53.9779 54.7377 53.9899C54.5221 54.0344 54.3041 54.0652 54.0849 54.0819C53.8842 54.0777 53.6858 54.0364 53.4987 53.9599C53.1346 53.7887 52.7856 53.5838 52.4558 53.3478C52.138 53.1477 51.8316 52.9277 51.5042 52.7477C51.3781 52.6685 51.2343 52.6258 51.0875 52.6236C50.6326 52.6236 50.1835 52.6236 49.7305 52.6417C49.4565 52.6577 49.3765 52.5596 49.3708 52.2716C49.3708 50.6913 49.3271 49.105 49.3023 47.5267C49.2509 44.1801 49.2053 40.8375 49.1406 37.4909C49.1406 37.1008 49.2034 36.8587 49.5707 36.6707C50.9847 35.9446 51.9857 34.7424 52.903 33.4361C54.1039 31.6862 55.1973 29.8575 56.1764 27.9611L56.7988 26.8009C57.2993 25.8507 57.7941 24.8986 58.2851 23.9344C58.3726 23.7386 58.4168 23.5245 58.4145 23.3083C58.4121 23.2218 58.3973 23.1361 58.3708 23.0542C58.3581 22.9648 58.353 22.8745 58.3555 22.7842L58.346 22.136C58.346 21.7066 58.3409 21.2766 58.3308 20.8458L58.2908 18.2573C58.2813 17.9633 58.2756 17.6692 58.2718 17.3792C58.2647 17.2719 58.2827 17.1644 58.3242 17.0661C58.3656 16.9678 58.4293 16.8816 58.5097 16.8151C59.4822 15.9149 60.7478 16.1229 61.6498 16.7851C61.8992 16.9691 61.9905 17.3992 62.1409 17.7252C62.8264 19.2262 63.3824 20.7887 63.8023 22.3941C64.1068 23.5943 64.0364 24.7945 63.8423 25.9948C63.539 27.8458 63.2333 29.6981 62.9249 31.5518C62.8831 31.8058 62.8545 32.0659 62.8203 32.3519C62.8997 32.3635 62.9798 32.3695 63.0601 32.3699C67.58 32.2919 72.1057 32.2319 76.6294 32.1319C77.9864 32.0959 78.9132 33.3641 78.6943 34.7184C78.5402 35.6585 78.0054 36.2866 77.2612 36.7587L77.2574 36.7547Z" fill="#8181FB"/>
<path opacity="0.54" d="M79.8855 37.975C79.8708 37.8918 79.8723 37.8064 79.8899 37.7238C79.9076 37.6413 79.9411 37.5634 79.9882 37.4949C80.4413 36.9562 80.7874 36.3278 81.0064 35.6467C81.2253 34.9655 81.3127 34.2453 81.2633 33.5282C81.2061 32.2706 80.6855 31.0858 79.8116 30.2248C78.9377 29.3638 77.7793 28.8941 76.5816 28.9153L65.9431 29.1014C65.9441 28.9937 65.9505 28.8862 65.9621 28.7793C66.1201 27.6971 66.2628 26.6209 66.4341 25.5447C66.6694 24.1164 66.6136 22.6519 66.2704 21.2479C65.7985 19.3116 65.0543 17.4812 64.2569 15.6729C63.8478 14.7487 63.2749 14.0526 62.3804 13.6365C60.5858 12.7904 58.8444 12.7543 57.1658 13.9306C56.0944 14.6767 55.4797 15.6589 55.5615 17.1011C55.651 18.6874 55.6091 20.2797 55.651 21.878C55.6799 22.2656 55.6266 22.655 55.4949 23.0182C55.3446 23.3643 55.1143 23.6424 54.9677 24.0024C54.8355 24.2826 54.6901 24.5557 54.5319 24.8206C54.2388 25.3867 53.9438 25.9468 53.6317 26.4989C52.7239 28.1412 51.8637 29.8195 50.7371 31.3178C50.286 31.9179 49.8026 32.488 49.3173 33.0621C49.2925 33.1065 49.2584 33.1445 49.2176 33.173C49.1768 33.2016 49.1304 33.22 49.0818 33.227C49.0332 33.2339 48.9838 33.2292 48.9372 33.2131C48.8907 33.197 48.8482 33.17 48.813 33.1341C48.3381 32.7801 47.7633 32.6053 47.182 32.638C43.0116 32.7034 38.8437 32.77 34.6784 32.838C33.0132 32.868 31.8466 34.2223 31.9836 35.9726C32.113 37.5729 32.2633 39.1732 32.4061 40.7735C32.5298 42.2218 32.6383 43.678 32.7753 45.1263C32.9313 46.8706 33.1026 48.6069 33.2663 50.3493C33.3824 51.5335 33.4718 52.7157 33.5936 53.8999C33.6347 54.0732 33.6988 54.2395 33.7839 54.394L33.6203 54.416C33.7021 55.0341 33.6888 55.6782 33.9 56.2383C34.5338 57.8946 35.7632 58.1607 37.1487 58.0167C37.1753 58.0167 37.1887 57.9307 37.2172 57.8806C37.3954 57.9476 37.5808 57.9913 37.7691 58.0107C41.0787 57.9607 44.3958 57.9107 47.6997 57.8446C48.2018 57.8557 48.6953 57.7058 49.1144 57.4149C49.5336 57.1241 49.8586 56.706 50.0462 56.2163C50.1969 55.8063 50.316 55.3842 50.4021 54.9541C50.551 55.02 50.6965 55.0941 50.8379 55.1761C51.268 55.4422 51.7058 55.7222 52.1073 56.0163C52.1946 56.0782 52.2862 56.1331 52.3814 56.1803C52.576 56.248 52.777 56.2936 52.9809 56.3164C53.2118 56.3737 53.4478 56.4052 53.685 56.4104C56.2904 56.3824 58.892 56.3324 61.4993 56.2884C64.6928 56.2303 67.8995 56.1883 71.1082 56.1083L72.1378 56.0883C72.6085 56.0718 73.0688 55.9389 73.4814 55.7002C74.1981 55.2608 74.8741 54.7518 75.5006 54.18C77.0232 52.7797 77.7045 51.0454 77.2135 48.901C77.2034 48.7175 77.2568 48.5363 77.3638 48.3909C77.6169 47.9908 77.91 47.6168 78.1631 47.2067C78.224 47.1147 78.1841 46.9486 78.1841 46.8206C78.4353 46.9706 78.4086 46.7046 78.4486 46.5986C78.8139 45.582 78.8691 44.4711 78.6066 43.42C78.5915 43.3368 78.5929 43.2513 78.6105 43.1687C78.6282 43.0861 78.6618 43.0083 78.7093 42.9399C79.9806 41.5116 80.3004 39.8473 79.8855 37.975ZM47.0792 55.0341C43.6745 55.0901 40.2755 55.1401 36.8689 55.2122C36.4883 55.2262 36.3722 55.1041 36.338 54.7181C36.1933 52.8517 36.0296 50.9954 35.8527 49.129C35.7099 47.4947 35.5329 45.8584 35.3883 44.2241C35.2665 42.8099 35.1561 41.4116 35.0343 40.0054C34.9239 38.7211 34.8154 37.4369 34.686 36.1526C34.6442 35.7946 34.7603 35.7166 35.0895 35.7166C37.9061 35.6726 40.7114 35.6226 43.5299 35.5725C44.4815 35.5585 45.433 35.5445 46.396 35.5505C46.4597 35.5413 46.5245 35.5461 46.5863 35.5645C46.6956 35.6144 46.7883 35.6973 46.8528 35.8026C47.067 36.0492 47.2033 36.3594 47.2429 36.6908C47.2474 36.793 47.2634 36.8944 47.2905 36.9928C47.3095 37.0788 47.3305 37.1508 47.3438 37.2428C47.372 37.5386 47.3765 37.8364 47.3571 38.133L47.6178 54.466C47.6178 55.0181 47.6178 55.0181 47.0792 55.0341ZM78.6199 34.2883C78.4638 35.2345 77.931 35.8586 77.1868 36.3327C77.0232 36.4407 76.8386 36.5187 76.6749 36.6347C76.3266 36.8848 76.2943 37.1288 76.6064 37.4229C77.4742 38.283 77.8834 39.9694 76.6616 41.1316C76.2709 41.4925 75.8454 41.8096 75.3922 42.0777C74.9487 42.3438 74.8936 42.6238 75.297 42.9459C75.4998 43.0964 75.6706 43.2894 75.7987 43.5129C75.9268 43.7364 76.0094 43.9854 76.0411 44.2441C76.0678 44.4442 76.123 44.6542 76.1629 44.8442C75.9517 46.2205 75.0991 47.0166 73.9591 47.5627C73.5157 47.7628 73.4757 47.9848 73.8373 48.3089C74.2456 48.6474 74.5354 49.1188 74.6614 49.6491C74.9088 50.7173 74.4311 51.4495 73.7479 52.1236C73.6051 52.2676 73.4472 52.3816 73.3044 52.5237C72.6631 53.1238 71.9323 53.3418 71.0587 53.3418C67.3115 53.3638 63.5718 53.4498 59.8188 53.5218C59.6951 53.5218 59.5733 53.5559 59.4496 53.5639C59.3259 53.5719 59.1699 53.5278 59.0404 53.5278L56.8975 53.5639L55.8203 53.5859C55.4999 53.6247 55.1759 53.6173 54.8574 53.5639C54.7943 53.5537 54.7301 53.5537 54.667 53.5639C54.4509 53.6093 54.2322 53.6407 54.0124 53.6579C53.8135 53.6535 53.617 53.6122 53.4319 53.5358C53.0682 53.367 52.7187 53.1662 52.3871 52.9357C52.0674 52.7357 51.759 52.5117 51.4355 52.3356C51.312 52.2522 51.1674 52.2097 51.0206 52.2136C50.5696 52.1996 50.1185 52.1996 49.6618 52.2276C49.3877 52.2416 49.3059 52.1416 49.3059 51.8535C49.3059 50.2772 49.2583 48.691 49.2393 47.1127C49.1841 43.7621 49.1365 40.4194 49.0756 37.0768C49.0756 36.6907 49.1365 36.4467 49.5038 36.2527C50.9179 35.5285 51.9208 34.3303 52.8343 33.0181C54.0384 31.2703 55.1331 29.4421 56.1115 27.5451C56.3152 27.157 56.5264 26.7769 56.7319 26.3889C57.2306 25.4347 57.7292 24.4805 58.2202 23.5203C58.3067 23.3249 58.3509 23.1118 58.3496 22.8962C58.347 22.8086 58.3329 22.7218 58.3077 22.6382C58.2948 22.5501 58.2884 22.4612 58.2887 22.3721V21.72C58.2887 21.2899 58.2887 20.8598 58.2754 20.4278L58.2335 17.8453C58.2202 17.5512 58.2202 17.2452 58.2145 16.9631C58.202 16.8562 58.2157 16.7477 58.2544 16.6479C58.293 16.5481 58.3553 16.4604 58.4352 16.393C59.4039 15.4889 60.6733 15.6969 61.5754 16.357C61.8266 16.543 61.9161 16.9731 62.0664 17.2952C62.7537 18.7937 63.3111 20.3543 63.7317 21.958C64.0381 23.1583 63.9639 24.3585 63.7716 25.5587C63.4652 27.409 63.1588 29.2534 62.8505 31.1117C62.8106 31.3698 62.782 31.6278 62.7477 31.9119C62.8271 31.925 62.9072 31.9316 62.9875 31.9319C67.5056 31.8539 72.0293 31.7958 76.555 31.6958C76.8639 31.6881 77.1706 31.7537 77.4521 31.8876C77.7337 32.0216 77.9829 32.2204 78.1813 32.4695C78.3797 32.7186 78.5221 33.0114 78.598 33.3263C78.674 33.6412 78.6814 33.97 78.6199 34.2883Z" fill="url(#paint6_linear)"/>
<path d="M36.9443 55.812C40.349 55.74 43.748 55.6899 47.1527 55.6319C47.697 55.6119 47.697 55.6119 47.6932 55.0658L47.3666 38.7203C47.3266 38.3885 47.1421 36.648 46.9281 36.4004C46.863 36.2962 46.7704 36.2142 46.6617 36.1644C46.6003 36.1435 46.535 36.1387 46.4714 36.1504C45.5065 36.1424 44.5549 36.1564 43.6034 36.1724L43.3375 36.1771C40.6085 36.2255 37.8929 36.2737 35.163 36.3144C34.8356 36.3144 34.7196 36.3944 34.7595 36.7525C34.8889 38.0367 34.9993 39.3209 35.1078 40.6052C35.2315 42.0114 35.34 43.4097 35.4618 44.8219C35.6064 46.4582 35.7834 48.0925 35.9261 49.7288C36.105 51.5932 36.2687 53.4515 36.4114 55.3159C36.4457 55.7039 36.5637 55.826 36.9443 55.812Z" fill="white"/>
<path d="M33.4214 38.9556C34.9862 39.6395 36.5806 40.2562 38.2045 40.8055C38.6119 40.96 39.0381 41.063 39.4726 41.112C40.4515 41.1811 41.3746 40.7177 42.2399 40.2693C42.6793 40.0394 43.188 39.6863 43.1129 39.2079C43.0717 39.0508 42.985 38.9085 42.8631 38.7976C42.7412 38.6866 42.5892 38.6118 42.4249 38.5819C42.0966 38.5279 41.7629 38.5104 41.4305 38.5296C40.2357 38.5109 39.118 38.0008 38.0677 37.4346C36.8767 36.79 35.7166 36.0425 34.8513 35.0223C34.7445 34.8645 34.5979 34.7359 34.4254 34.6486C34.2706 34.6007 34.1051 34.5955 33.9475 34.6336C31.6137 35.0578 31.3362 38.0475 33.4214 38.9556Z" fill="url(#paint7_linear)"/>
<path d="M78.727 34.7195C78.5691 35.6657 78.0381 36.2898 77.294 36.7639C77.1303 36.8699 76.9457 36.9499 76.782 37.064C76.4337 37.316 76.4014 37.5601 76.7135 37.8541C77.5813 38.7143 77.9905 40.4006 76.7687 41.5628C76.3775 41.9231 75.9522 42.2401 75.4993 42.509C75.0559 42.775 75.0007 43.0531 75.4041 43.3771C75.6072 43.5272 75.7781 43.7202 75.9059 43.9437C76.0337 44.1673 76.1139 44.3742 76.1464 44.6754C76.1749 44.8754 76.2496 45.0367 76.2701 45.2755C76.3893 46.6634 75.2062 47.4499 74.0662 47.994C73.6228 48.194 73.5809 48.418 73.9425 48.7401C74.351 49.0797 74.6414 49.5515 74.7685 50.0824C75.014 51.1506 74.5363 51.8827 73.855 52.5568C73.7104 52.7008 73.5543 52.8149 73.4097 52.9569C72.7683 53.557 72.0394 53.773 71.1659 53.773C67.4186 53.795 63.6789 53.8811 59.926 53.9531C59.8023 53.9531 59.6805 53.9891 59.5568 53.9971C59.4211 53.9775 59.2845 53.9654 59.1476 53.9611C58.4301 53.9751 57.7202 53.9811 57.0046 53.9971L55.9256 54.0171C55.6059 54.0576 55.2824 54.0509 54.9645 53.9971C54.9015 53.9859 54.8372 53.9859 54.7742 53.9971C54.5573 54.042 54.3381 54.0727 54.1176 54.0891C53.9219 54.084 53.7287 54.0426 53.5467 53.9671C53.1815 53.7974 52.8318 53.5932 52.5018 53.357C52.1802 53.1569 51.8738 52.9349 51.5503 52.7568C51.4252 52.6754 51.2806 52.6331 51.1335 52.6348C50.6843 52.6208 50.2333 52.6208 49.7765 52.6488C49.5025 52.6648 49.4207 52.5628 49.4207 52.2768C49.4207 50.6985 49.3731 49.1142 49.3521 47.5359C49.2989 44.1859 49.2443 40.8407 49.1885 37.5C49.1885 37.112 49.2494 36.8679 49.6186 36.6759C51.0307 35.9498 52.0356 34.7515 52.9491 33.4393C54.1534 31.6921 55.2475 29.8639 56.2244 27.9663C56.4299 27.5802 56.6412 27.1982 56.8467 26.8121C57.3434 25.8579 57.842 24.9037 58.333 23.9416C58.4205 23.7465 58.4648 23.5331 58.4625 23.3174C58.4605 23.2299 58.447 23.1431 58.4225 23.0594C58.4089 22.9721 58.4019 22.8838 58.4015 22.7953V22.1412C58.4015 21.7111 58.4016 21.2811 58.3863 20.851L58.3464 18.2685C58.333 17.9745 58.333 17.6684 58.3254 17.3864C58.3177 17.2794 58.3356 17.1721 58.3775 17.0742C58.4194 16.9764 58.4839 16.8911 58.5652 16.8263C59.5339 15.9221 60.8033 16.1301 61.7035 16.7902C61.9566 16.9763 62.046 17.4084 62.1945 17.7304C62.8734 19.2284 63.4225 20.7877 63.835 22.3893C64.1433 23.5895 64.0672 24.7897 63.8769 25.9899C63.5705 27.8403 63.2621 29.6826 62.9557 31.5409C62.9139 31.799 62.8872 32.057 62.853 32.3411C62.9323 32.3548 63.0124 32.3621 63.0928 32.3631C67.6089 32.2851 72.1346 32.2271 76.6583 32.1271C76.9676 32.1187 77.2747 32.1838 77.5567 32.3175C77.8387 32.4512 78.0884 32.65 78.2872 32.8991C78.486 33.1483 78.6288 33.4414 78.705 33.7565C78.7811 34.0717 78.7887 34.4009 78.727 34.7195Z" fill="white"/>
<path d="M33.2306 34.3203L39.3644 38.083L40.63 41.0536L31.2646 37.1749L33.2306 34.3203Z" fill="#E8CDD3"/>
<path d="M33.2306 34.3203L39.3644 38.083L40.63 41.0536L31.2646 37.1749L33.2306 34.3203Z" fill="url(#paint8_linear)"/>
<path d="M39.3628 38.083C39.6358 37.8367 39.9287 37.6158 40.2382 37.4229C40.5237 37.2869 43.5402 38.5611 43.5535 38.9032C43.5668 39.2452 43.405 40.4814 43.0796 40.5975C42.7542 40.7135 40.6303 41.0536 40.6303 41.0536C40.6303 41.0536 38.4893 38.7431 39.3628 38.083Z" fill="#E8CDD3"/>
<path d="M39.3628 38.083C39.6358 37.8367 39.9287 37.6158 40.2382 37.4229C40.5237 37.2869 43.5402 38.5611 43.5535 38.9032C43.5668 39.2452 43.405 40.4814 43.0796 40.5975C42.7542 40.7135 40.6303 41.0536 40.6303 41.0536C40.6303 41.0536 38.4893 38.7431 39.3628 38.083Z" fill="url(#paint9_linear)"/>
<path d="M39.3264 23.2923C39.3264 23.2923 36.8085 24.2925 36.1329 26.0608C35.4573 27.8291 29.7498 35.9066 30.8517 37.2949C31.4093 37.997 32.6635 38.5671 32.6635 38.5671L36.3423 36.1487L35.5563 35.3485L39.1932 29.9335C39.1932 29.9335 40.2418 24.7086 39.3264 23.2923Z" fill="#5759C9"/>
<path d="M38.5167 49.7552C40.1591 49.7872 41.8205 49.7992 43.4249 49.4231C45.0292 49.047 46.5936 48.2389 47.6213 46.8906L48.236 47.8388C53.6102 49.332 59.1811 49.8881 64.7267 49.4851C65.5092 49.4442 66.2872 49.3345 67.0523 49.1571C68.3521 48.825 69.5511 48.1569 70.7349 47.5067L75.0474 45.1183C75.6944 45.2463 75.9418 46.1185 75.8467 46.7906C75.7515 47.4627 75.4489 48.1389 75.5174 48.825C75.5764 49.4131 75.8981 49.9312 76.0389 50.5053C76.2863 51.5295 75.8942 52.6437 75.2205 53.4278C74.5468 54.212 73.6219 54.7161 72.6799 55.0901C70.24 56.0603 67.5928 56.2763 64.9855 56.3924C62.7588 56.4904 60.5302 56.5224 58.3036 56.5564C56.9942 56.5744 55.6601 56.5904 54.4079 56.1883C53.266 55.8223 52.2402 55.1221 51.125 54.6641C50.796 54.5007 50.4305 54.4357 50.0687 54.476C49.8045 54.5425 49.5551 54.6621 49.3341 54.8281C48.0628 55.6782 46.8886 56.7184 45.4955 57.3265C43.5143 58.1907 41.2896 58.0987 39.1466 57.9927C37.4338 57.9086 35.4184 57.6486 34.5544 56.0843C34.3105 55.5858 34.141 55.0507 34.0519 54.498C33.8445 53.5158 32.381 49.2971 33.4582 48.847C33.9758 48.633 35.152 49.3851 35.7039 49.5051C36.6324 49.6773 37.5738 49.761 38.5167 49.7552Z" fill="url(#paint10_linear)"/>
</g>
<defs>
<linearGradient id="paint0_linear" x1="46.7887" y1="25.6367" x2="50.7435" y2="55.5474" gradientUnits="userSpaceOnUse">
<stop stop-color="#1B0A85" stop-opacity="0"/>
<stop offset="0.95" stop-color="#10093A" stop-opacity="0.44"/>
</linearGradient>
<linearGradient id="paint1_linear" x1="4554.47" y1="14675.8" x2="4647.93" y2="11176.5" gradientUnits="userSpaceOnUse">
<stop stop-color="#010101" stop-opacity="0"/>
<stop offset="0.95" stop-color="#010101" stop-opacity="0.44"/>
</linearGradient>
<linearGradient id="paint2_linear" x1="45.7339" y1="9.937" x2="46.0933" y2="25.8698" gradientUnits="userSpaceOnUse">
<stop stop-color="#FFF0A4"/>
<stop offset="1" stop-color="white" stop-opacity="0"/>
</linearGradient>
<linearGradient id="paint3_linear" x1="42.1403" y1="14.563" x2="42.1403" y2="21.5875" gradientUnits="userSpaceOnUse">
<stop stop-color="#FFF3B3"/>
<stop offset="1" stop-color="white" stop-opacity="0"/>
</linearGradient>
<linearGradient id="paint4_linear" x1="64.19" y1="18.5034" x2="63.6511" y2="26.8954" gradientUnits="userSpaceOnUse">
<stop stop-color="#FFFDCB"/>
<stop offset="1" stop-color="white" stop-opacity="0"/>
</linearGradient>
<linearGradient id="paint5_linear" x1="70.5603" y1="17.6468" x2="70.5603" y2="25.6992" gradientUnits="userSpaceOnUse">
<stop stop-color="#FFEEB4"/>
<stop offset="1" stop-color="white" stop-opacity="0"/>
</linearGradient>
<linearGradient id="paint6_linear" x1="56.3266" y1="65.446" x2="57.0351" y2="-0.935448" gradientUnits="userSpaceOnUse">
<stop stop-color="white" stop-opacity="0"/>
<stop offset="0.15" stop-color="white" stop-opacity="0.22"/>
<stop offset="0.32" stop-color="white" stop-opacity="0.45"/>
<stop offset="0.48" stop-color="white" stop-opacity="0.65"/>
<stop offset="0.64" stop-color="white" stop-opacity="0.8"/>
<stop offset="0.78" stop-color="white" stop-opacity="0.91"/>
<stop offset="0.91" stop-color="white" stop-opacity="0.98"/>
<stop offset="1" stop-color="white"/>
</linearGradient>
<linearGradient id="paint7_linear" x1="36.8863" y1="42.7021" x2="40.0607" y2="19.4711" gradientUnits="userSpaceOnUse">
<stop stop-color="#010101" stop-opacity="0"/>
<stop offset="0.95" stop-color="#010101"/>
</linearGradient>
<linearGradient id="paint8_linear" x1="35.9473" y1="34.3203" x2="35.9473" y2="41.0536" gradientUnits="userSpaceOnUse">
<stop stop-color="#FFFCB9"/>
<stop offset="1" stop-color="white" stop-opacity="0"/>
</linearGradient>
<linearGradient id="paint9_linear" x1="41.3235" y1="36.3217" x2="41.3568" y2="41.0535" gradientUnits="userSpaceOnUse">
<stop stop-color="#FFFDCC"/>
<stop offset="1" stop-color="white" stop-opacity="0"/>
</linearGradient>
<linearGradient id="paint10_linear" x1="13857.6" y1="2451.1" x2="13822.3" y2="8228.43" gradientUnits="userSpaceOnUse">
<stop stop-color="#010101" stop-opacity="0"/>
<stop offset="0.95" stop-color="#010101" stop-opacity="0.44"/>
</linearGradient>
<clipPath id="clip0">
<path d="M0 0H98V98H0V0Z" fill="white"/>
</clipPath>
</defs>
</svg>
