<svg width="98" height="98" viewBox="0 0 98 98" fill="none" xmlns="http://www.w3.org/2000/svg">
<path opacity="0.45" d="M36.469 13.0667H3.51498C1.57371 13.0667 0 14.706 0 16.7281V57.0367C0 59.0588 1.57371 60.6981 3.51498 60.6981H36.469C38.4103 60.6981 39.984 59.0588 39.984 57.0367V16.7281C39.984 14.706 38.4103 13.0667 36.469 13.0667Z" fill="#8181FB"/>
<path d="M12.0569 56.1424C15.361 56.1424 18.0395 53.3523 18.0395 49.9105C18.0395 46.4687 15.361 43.6785 12.0569 43.6785C8.75274 43.6785 6.07422 46.4687 6.07422 49.9105C6.07422 53.3523 8.75274 56.1424 12.0569 56.1424Z" fill="url(#paint0_linear)"/>
<path d="M29.117 17.5825H3.56152V19.0807H29.117V17.5825Z" fill="#6B6EF7"/>
<path opacity="0.51" d="M29.8885 37.2849H4.33301V38.7832H29.8885V37.2849Z" fill="#8181FB"/>
<path d="M22.499 34.7217H4.33301V36.22H22.499V34.7217Z" fill="#6B6EF7"/>
<path d="M37.1452 34.7217H24.9844V36.22H37.1452V34.7217Z" fill="#8181FB"/>
<path d="M37.1049 25.2381H18.4062V26.5702H37.1049V25.2381Z" fill="#6B6EF7"/>
<path opacity="0.51" d="M34.4936 27.6H14.4893V28.9321H34.4936V27.6Z" fill="#8181FB"/>
<path d="M16.9786 25.2381H4.68066V26.5702H16.9786V25.2381Z" fill="#6B6EF7"/>
<path d="M37.105 29.8945H10.0752V31.2265H37.105V29.8945Z" fill="#6B6EF7"/>
<path opacity="0.51" d="M8.64962 29.8945H4.68066V31.2265H8.64962V29.8945Z" fill="#8181FB"/>
<path opacity="0.51" d="M37.1038 32.2587H19.2637V33.5908H37.1038V32.2587Z" fill="#8181FB"/>
<path d="M16.9786 32.2587H4.68066V33.5908H16.9786V32.2587Z" fill="#6B6EF7"/>
<path d="M12.5894 27.5436H4.68066V28.8757H12.5894V27.5436Z" fill="#6B6EF7"/>
<path d="M13.3834 45.8133C13.0328 46.2605 12.9744 46.8855 13.0396 47.4521C13.0599 47.5548 13.0599 47.6607 13.0396 47.7634C13.0098 47.8499 12.964 47.9294 12.9047 47.9975C11.9524 49.2306 10.8857 50.3629 9.72013 51.378C9.68733 51.411 9.6483 51.4365 9.60551 51.4529C9.52921 51.4694 9.4498 51.4578 9.38077 51.4202C9.04365 51.282 8.68182 51.1322 8.32897 51.2212C8.16907 51.271 8.02277 51.3595 7.90206 51.4795C7.78135 51.5996 7.68967 51.7477 7.63452 51.9118C7.52549 52.2426 7.50759 52.5986 7.58283 52.9395C7.96639 52.6071 8.36568 52.295 8.7807 52.0031L9.37178 52.6141C9.40246 52.6385 9.42763 52.6695 9.44549 52.7051C9.46336 52.7407 9.47349 52.78 9.47516 52.8201C9.46365 52.8682 9.43953 52.912 9.40549 52.9466L8.53349 54.0188C8.8203 54.1384 9.13313 54.1737 9.43787 54.1208C9.74262 54.068 10.0276 53.929 10.2618 53.7191C10.7112 53.2743 10.7787 52.4432 10.3382 51.9961L13.6846 48.0888C13.9102 48.2626 14.1843 48.3545 14.4649 48.3502C14.7454 48.346 15.0169 48.2459 15.2376 48.0654C15.4519 47.8767 15.6175 47.6353 15.7196 47.363C15.8216 47.0908 15.8568 46.7963 15.8219 46.5063C15.4054 46.7663 15.0192 47.0758 14.6712 47.4286L13.997 46.5531C14.2352 46.319 15.1589 45.6728 14.5588 45.42C14.1633 45.2538 13.6396 45.4879 13.3834 45.8133Z" fill="#6B6EF7"/>
<path d="M32.7537 52.1295L33.075 51.0644C33.075 51.0644 31.8052 50.0202 31.767 50.0858L31.7153 49.3156L32.8773 48.028L32.3424 47.0611C32.3424 47.0611 30.7692 47.328 30.7692 47.4029C30.4656 47.1056 30.1386 46.8355 29.7915 46.5953L29.7421 44.8394L28.7083 44.5468C28.7083 44.5468 27.7621 45.914 27.825 45.9515C27.825 45.9515 27.0969 46.1106 26.7485 46.2254L25.5709 45.1812L24.6719 45.7852C24.6719 45.7852 24.9393 47.0892 25.045 47.3631C24.7933 47.6511 24.4786 47.9765 24.4786 47.9765L22.802 48.2574L22.6582 49.3624C22.6582 49.3624 23.8381 50.0273 24.0673 50.0952C24.0721 50.453 24.1251 50.8084 24.2247 51.151L23.31 52.6165L23.9999 53.4686C23.9999 53.4686 24.9146 53.1339 25.3124 52.9513C25.6832 53.3024 26.2114 53.7191 26.2114 53.7191L26.6339 55.4328L27.7037 55.4796C27.7037 55.4796 28.2183 54.2318 28.2723 53.9579C28.6164 53.918 28.9634 53.9133 29.3083 53.9439L30.8119 54.7656L31.5648 53.9696C31.3475 53.4637 31.1052 52.9698 30.8388 52.4901C30.9343 52.3692 31.0207 52.2408 31.0973 52.1061L32.7537 52.1295ZM27.7644 52.1693C27.3438 52.1698 26.9325 52.0403 26.5826 51.7972C26.2326 51.5542 25.9598 51.2085 25.7985 50.8038C25.6373 50.3992 25.5948 49.9538 25.6766 49.5241C25.7584 49.0943 25.9607 48.6995 26.258 48.3895C26.5552 48.0796 26.934 47.8684 27.3465 47.7828C27.759 47.6971 28.1866 47.7408 28.5752 47.9084C28.9638 48.0759 29.296 48.3598 29.5297 48.724C29.7634 49.0883 29.8882 49.5166 29.8882 49.9547C29.8876 50.5415 29.6637 51.104 29.2656 51.5192C28.8675 51.9343 28.3277 52.1681 27.7644 52.1693Z" fill="#5759C9"/>
<path opacity="0.24" d="M97.9977 71.038C98.1478 82.7633 90.6254 93.913 81.2459 95.8791C76.8563 96.8033 72.3781 95.9127 67.9202 95.669C58.2235 95.1481 48.549 97.7107 38.8694 97.9796C36.9099 98.0342 34.9471 97.9796 32.9825 97.8095C26.5232 97.2072 20.2154 95.1001 14.3941 91.6003C11.911 90.1089 9.48773 88.3276 7.68005 85.765C3.80205 80.2741 3.42858 72.2374 4.3256 65.0536C5.22262 57.8697 7.19572 50.8476 7.29634 43.5755C7.36797 38.4985 6.52211 33.4761 6.30552 28.4054C6.08894 23.3347 6.58861 17.9573 9.01193 13.8528C11.4353 9.74835 15.4684 7.49867 19.5084 6.51981C23.5484 5.54096 27.6942 5.66909 31.8092 5.35401C40.3207 4.71124 48.6548 2.15488 57.1168 0.87985C69.7364 -1.02534 90.0303 -1.6408 91.4269 18.703C91.5341 20.3856 91.5638 22.0743 91.5156 23.7611C91.3928 29.38 90.6919 35.02 91.2718 40.5969C92.3564 51.0766 97.8613 60.4786 97.9977 71.038Z" fill="#6E71FF"/>
<path d="M43.1189 81.1344C42.8478 81.9394 42.6091 82.8631 43.0023 83.6116C43.2652 84.0289 43.6193 84.3755 44.0355 84.6228L47.7776 87.2724C48.4962 87.7808 49.2582 88.3034 50.1205 88.3711C50.9828 88.4389 51.9617 87.8655 52.0349 86.9588C52.1217 85.9222 51.0777 85.2132 50.5896 84.3036C49.9497 83.1116 50.3022 81.6343 50.6357 80.3124C51.4767 76.9853 52.0911 73.6004 52.4742 70.1831C51.7068 69.8555 49.4724 68.3895 48.6779 68.6324C47.783 68.9149 46.9749 71.522 46.5763 72.3723C45.2289 75.2053 44.0736 78.1332 43.1189 81.1344Z" fill="#E6C9D4"/>
<path d="M50.2962 58.7773C49.3254 61.6499 48.295 64.5311 46.7385 67.1128C46.682 67.1876 46.6523 67.2804 46.6544 67.3755C46.6791 67.465 46.7328 67.5428 46.8063 67.5958C48.3709 69.0223 50.0603 70.5109 52.1184 70.8188C52.2526 70.8511 52.3931 70.8382 52.5198 70.7821C52.6385 70.6943 52.7262 70.5682 52.7692 70.4233C54.0817 67.2569 54.5454 63.7882 54.502 60.3591C54.4735 58.6462 54.3431 56.9368 54.1115 55.2408C54.0573 54.8284 54.0275 52.998 53.6831 52.7833C53.1597 52.4613 52.5848 53.5855 52.3571 53.9386C51.4134 55.4103 50.8548 57.1051 50.2962 58.7773Z" fill="white"/>
<path d="M54.5517 53.3029C54.5517 53.3029 53.3287 53.7802 52.3335 57.3675C51.3383 60.9549 48.9629 69.6492 48.9629 69.6492C48.9629 69.6492 52.6372 71.5615 53.5565 70.844C54.4757 70.1266 54.5517 53.3029 54.5517 53.3029Z" fill="url(#paint1_linear)"/>
<path d="M64.9753 49.6084C66.9765 49.5434 69.0021 49.6451 70.9274 50.21C72.8527 50.775 74.6831 51.8427 75.9467 53.4612C77.3459 55.2521 77.9588 57.5937 78.0998 59.8958C78.2408 62.1979 77.9479 64.5056 77.7256 66.8049C77.2046 72.1867 77.0668 77.6013 77.3134 83.0044C77.3731 84.298 78.0835 91.0518 77.2104 91.9755C76.668 92.5574 77.7527 93.1392 76.9799 93.3313C70.6617 94.9131 59.3106 94.1363 53.3286 91.4981C51.8074 90.8258 50.2807 89.8909 49.5323 88.3599C48.7188 86.7018 50.9152 80.1289 51.1783 78.2843C51.9755 72.6557 52.5504 66.997 52.9029 61.3081C53.0575 58.7914 52.8785 56.0797 53.3747 53.6081C53.7354 51.8144 54.8445 51.3258 56.4443 50.8851C59.2334 50.1293 62.0948 49.7011 64.9753 49.6084Z" fill="white"/>
<path d="M70.1733 79.0555C69.9645 80.1995 69.6906 81.3943 68.9395 82.2586C68.3453 82.8773 67.6185 83.3401 66.8189 83.6088C63.0497 85.0889 58.7517 84.8573 55.1398 86.716C54.885 86.8322 54.6504 86.9916 54.4456 87.1877C53.7487 87.9051 53.9439 89.1649 54.4971 90.0123C55.7255 91.8851 58.1145 92.4105 60.2702 92.7579C65.4387 93.6053 70.7156 94.2974 75.8814 93.4302C76.1624 93.409 76.4313 93.3019 76.6542 93.1223C76.8324 92.9067 76.9464 92.6417 76.9823 92.3596C78.1537 86.9419 77.2318 81.3011 77.2101 75.7478C77.2101 72.5446 77.4812 69.3386 77.2724 66.1439C77.1674 64.1559 76.7705 62.1964 76.0956 60.3336C75.6156 59.0682 74.211 56.2746 73.3676 58.8676C72.0281 62.9888 71.643 67.432 71.1603 71.7283C70.8973 74.1773 70.6153 76.6291 70.1733 79.0555Z" fill="url(#paint2_linear)"/>
<path d="M71.7897 88.9869H27.9636C26.734 88.9869 25.7373 90.0252 25.7373 91.306C25.7373 92.5868 26.734 93.625 27.9636 93.625H71.7897C73.0192 93.625 74.016 92.5868 74.016 91.306C74.016 90.0252 73.0192 88.9869 71.7897 88.9869Z" fill="#6E71FF"/>
<path d="M60.1402 53.9978C59.2426 53.8481 58.7382 52.9075 59.1396 50.6421C59.1829 50.3907 59.2399 50.1478 59.305 49.9049C59.305 49.8597 59.3294 49.8145 59.3402 49.7693C59.4378 49.4191 59.549 49.0688 59.6575 48.7214C59.9594 47.8876 60.1191 47.0053 60.1293 46.1142C60.1049 45.4645 60.0561 44.7894 60.2866 44.1906C60.508 43.6824 60.8552 43.2447 61.2926 42.9223C62.2607 42.1455 65.089 40.6852 65.6313 42.6144C65.8726 43.4392 65.6964 44.3996 65.6855 45.2442C65.6313 46.4544 65.8447 47.6615 66.3092 48.7722C66.9004 50.0094 62.3448 54.365 60.1402 53.9978Z" fill="#E6C9D4"/>
<path d="M59.5029 49.3964C59.5029 49.3964 64.5033 47.4191 65.4686 44.2922L60.1402 46.1084C60.1402 46.1084 60.0127 48.9698 59.5029 49.3964Z" fill="#D8BEC8"/>
<path d="M73.058 56.1587C72.5476 62.0683 73.4882 68.0161 75.7914 73.4428C75.8595 73.643 75.9741 73.8225 76.1249 73.9654C76.3681 74.1228 76.6528 74.196 76.9384 74.1744C79.1691 74.2244 81.3515 73.4945 83.1373 72.1011C83.6796 71.6746 84.1894 71.1294 84.2355 70.4656C84.2368 70.1098 84.1694 69.7573 84.0376 69.429C82.6532 65.2384 81.037 61.1349 79.1972 57.1389C78.5139 55.6588 77.5973 53.9244 75.9432 53.2719C73.9528 52.4895 73.1963 54.6108 73.058 56.1587Z" fill="white"/>
<path d="M63.37 59.5371C64.8533 57.9072 65.9407 55.9384 67.0145 53.9922C67.668 52.8059 68.3378 51.5659 68.43 50.1987C68.4532 50.0435 68.4295 49.8845 68.3622 49.744C68.2969 49.6459 68.2117 49.5639 68.1127 49.5039L66.0762 48.0661C66.041 49.3683 65.1434 50.4868 64.1184 51.2354C63.0337 52.0376 59.9289 52.916 60.5932 54.5798C60.7586 55.0006 63.1964 59.7263 63.37 59.5371Z" fill="#8181FB"/>
<path d="M58.1035 57.6446C58.8479 56.4701 59.5279 55.2526 60.14 53.9979C60.7521 52.7433 59.4703 51.1704 59.4703 50.1705C59.4703 49.1706 59.5597 49.0519 59.6682 48.7045C59.1746 48.7977 58.1144 49.4878 57.8568 49.8768C57.4377 50.5093 57.1395 51.2199 56.9782 51.9698C56.4684 54.0855 56.566 56.2944 56.6663 58.4665C56.6745 58.5965 56.7016 58.7603 56.8209 58.8027C56.888 58.8173 56.958 58.8073 57.0189 58.7744C57.4934 58.5711 57.8161 58.0993 58.1035 57.6446Z" fill="#8181FB"/>
<path d="M58.1035 57.6446C58.8479 56.4701 59.5279 55.2526 60.14 53.9979C60.7521 52.7433 59.4703 51.1704 59.4703 50.1705C59.4703 49.1706 59.5597 49.0519 59.6682 48.7045C59.1746 48.7977 58.1144 49.4878 57.8568 49.8768C57.4377 50.5093 57.1395 51.2199 56.9782 51.9698C56.4684 54.0855 56.566 56.2944 56.6663 58.4665C56.6745 58.5965 56.7016 58.7603 56.8209 58.8027C56.888 58.8173 56.958 58.8073 57.0189 58.7744C57.4934 58.5711 57.8161 58.0993 58.1035 57.6446Z" fill="url(#paint3_linear)"/>
<path d="M63.37 59.5371C64.8533 57.9072 65.9407 55.9384 67.0145 53.9922C67.668 52.8059 68.3378 51.5659 68.43 50.1987C68.4532 50.0435 68.4295 49.8845 68.3622 49.744C68.2969 49.6459 68.2117 49.5639 68.1127 49.5039L66.0762 48.0661C66.041 49.3683 65.1434 50.4868 64.1184 51.2354C63.0337 52.0376 59.9289 52.916 60.5932 54.5798C60.7586 55.0006 63.1964 59.7263 63.37 59.5371Z" fill="url(#paint4_linear)"/>
<path d="M74.9567 90.0491L86.8338 87.6849C87.5361 87.5437 88.2683 87.4024 88.8242 86.9222C89.5861 86.2839 89.8546 85.1653 89.7434 84.1512C89.6322 83.1372 89.2011 82.1966 88.7726 81.2757C87.086 77.6376 83.6638 71.107 83.6422 71.4883C81.565 71.9459 79.8458 71.9685 78.0615 73.1576C77.7543 73.3304 77.4948 73.5823 77.3077 73.8892C76.5945 75.3016 78.5442 77.3636 79.2058 78.4369C79.4595 78.78 79.6289 79.1824 79.6994 79.6092C79.7136 79.9108 79.6597 80.2117 79.5421 80.4877C78.8994 82.1316 76.6108 83.0892 75.2034 83.9337C73.3634 85.0926 71.3004 85.8141 69.1618 86.0466C67.5023 86.1935 65.8075 85.9703 64.1859 86.3573C63.1913 86.6041 62.2593 87.0708 61.4532 87.7259C60.647 88.3809 59.9856 89.2089 59.5137 90.1536C60.479 90.792 61.7345 90.422 62.8463 90.1311C64.9063 89.5989 67.0358 89.4204 69.151 89.6028C70.5231 89.7243 74.3059 91.3796 74.9567 90.0491Z" fill="#E6C9D4"/>
<path d="M74.9567 90.0491L86.8338 87.6849C87.5361 87.5437 88.2683 87.4024 88.8242 86.9222C89.5861 86.2839 89.8546 85.1653 89.7434 84.1512C89.6322 83.1372 89.2011 82.1966 88.7726 81.2757C87.086 77.6376 83.6638 71.107 83.6422 71.4883C81.565 71.9459 79.8458 71.9685 78.0615 73.1576C77.7543 73.3304 77.4948 73.5823 77.3077 73.8892C76.5945 75.3016 78.5442 77.3636 79.2058 78.4369C79.4595 78.78 79.6289 79.1824 79.6994 79.6092C79.7136 79.9108 79.6597 80.2117 79.5421 80.4877C78.8994 82.1316 76.6108 83.0892 75.2034 83.9337C73.3634 85.0926 71.3004 85.8141 69.1618 86.0466C67.5023 86.1935 65.8075 85.9703 64.1859 86.3573C63.1913 86.6041 62.2593 87.0708 61.4532 87.7259C60.647 88.3809 59.9856 89.2089 59.5137 90.1536C60.479 90.792 61.7345 90.422 62.8463 90.1311C64.9063 89.5989 67.0358 89.4204 69.151 89.6028C70.5231 89.7243 74.3059 91.3796 74.9567 90.0491Z" fill="url(#paint5_linear)"/>
<path d="M56.4134 93.7215H22.3614L13.3788 69.9789C13.2571 69.6622 13.2118 69.3193 13.2469 68.9801C13.282 68.6409 13.3965 68.3159 13.5803 68.0335C13.7641 67.7511 14.0116 67.52 14.3011 67.3605C14.5905 67.2009 14.9132 67.1178 15.2407 67.1184H41.9715C43.2661 67.1177 44.5308 67.5231 45.6011 68.2818C46.6713 69.0405 47.4974 70.1173 47.9718 71.372L56.4134 93.7215Z" fill="#010101"/>
<path d="M59.0554 16.2858C59.8689 15.7887 60.6824 15.2831 61.6016 15.0966C62.5209 14.9102 63.771 15.0232 64.3919 15.7463C63.5867 15.8053 62.8022 16.0385 62.0883 16.431C61.3744 16.8234 60.7469 17.3666 60.2458 18.0258C60.1993 18.1115 60.1254 18.1774 60.037 18.2122C59.9614 18.2205 59.8851 18.2058 59.8173 18.1699C59.4431 18.023 56.6393 18.6896 56.4766 18.3365C56.4847 18.3365 58.711 16.5033 59.0554 16.2858Z" fill="#8181FB"/>
<path d="M59.0554 16.2858C59.8689 15.7887 60.6824 15.2831 61.6016 15.0966C62.5209 14.9102 63.771 15.0232 64.3919 15.7463C63.5867 15.8053 62.8022 16.0385 62.0883 16.431C61.3744 16.8234 60.7469 17.3666 60.2458 18.0258C60.1993 18.1115 60.1254 18.1774 60.037 18.2122C59.9614 18.2205 59.8851 18.2058 59.8173 18.1699C59.4431 18.023 56.6393 18.6896 56.4766 18.3365C56.4847 18.3365 58.711 16.5033 59.0554 16.2858Z" fill="url(#paint6_linear)"/>
<path d="M52.9951 37.8267C54.8132 37.8267 56.2871 35.9348 56.2871 33.601C56.2871 31.2672 54.8132 29.3753 52.9951 29.3753C51.177 29.3753 49.7031 31.2672 49.7031 33.601C49.7031 35.9348 51.177 37.8267 52.9951 37.8267Z" fill="#8181FB"/>
<path d="M53.6702 37.9851C55.352 37.9851 56.7154 36.2348 56.7154 34.0757C56.7154 31.9167 55.352 30.1664 53.6702 30.1664C51.9884 30.1664 50.625 31.9167 50.625 34.0757C50.625 36.2348 51.9884 37.9851 53.6702 37.9851Z" fill="#8181FB"/>
<path d="M53.6702 37.9851C55.352 37.9851 56.7154 36.2348 56.7154 34.0757C56.7154 31.9167 55.352 30.1664 53.6702 30.1664C51.9884 30.1664 50.625 31.9167 50.625 34.0757C50.625 36.2348 51.9884 37.9851 53.6702 37.9851Z" fill="#18202D"/>
<path d="M52.5986 26.2002L53.3606 40.7218C53.3606 40.7218 53.6996 46.2016 58.9141 46.2553C65.1781 46.3203 67.0844 42.5267 68.0362 39.6399C68.988 36.7531 69.8476 28.2735 68.0362 25.929C66.2248 23.5846 56.0316 17.8138 52.5986 26.2002Z" fill="#E6C9D4"/>
<path d="M52.5986 26.2002L53.3606 40.7218C53.3606 40.7218 53.6996 46.2016 58.9141 46.2553C65.1781 46.3203 67.0844 42.5267 68.0362 39.6399C68.988 36.7531 69.8476 28.2735 68.0362 25.929C66.2248 23.5846 56.0316 17.8138 52.5986 26.2002Z" fill="url(#paint7_linear)"/>
<path d="M56.5605 17.4808C54.1037 17.4356 51.2971 18.6304 50.1772 21.0455C49.9084 21.6012 49.7622 22.2124 49.749 22.8345C49.7359 23.4565 49.8562 24.0738 50.1013 24.6413C50.1913 24.8082 50.2622 24.9855 50.3128 25.1695C50.3372 25.373 50.3372 25.5789 50.3128 25.7825C50.2914 26.2731 50.3864 26.7617 50.5893 27.2051C50.7921 27.6485 51.0967 28.033 51.4761 28.3247C51.9072 28.6495 52.4306 28.8529 52.775 29.2737L52.6421 26.5705C52.6114 26.4245 52.6376 26.2717 52.7148 26.1457C52.7921 26.0197 52.9142 25.9307 53.0543 25.8983L54.7057 25.0961C54.7057 25.0961 55.2155 25.4831 55.2779 25.5141C55.5519 25.6357 55.8478 25.6945 56.1456 25.6864C56.7928 25.7023 57.4402 25.6645 58.0817 25.5734C59.4674 25.3672 60.7934 24.839 62.0869 24.3136C62.0451 24.7313 61.8715 25.1227 61.5933 25.4266L65.8046 26.274C66.4214 27.1574 66.9186 28.125 67.2824 29.1495C67.5736 29.9502 67.7649 30.7865 67.8519 31.638C67.9646 32.7956 67.8605 33.965 67.5455 35.0813C67.8319 34.8538 68.0826 34.5812 68.2885 34.2734C68.6692 34.5488 69.0905 34.7578 69.5358 34.892C69.6285 34.9279 69.7289 34.9367 69.826 34.9174C70.0321 34.8581 70.0755 34.6039 70.0972 34.4005C70.2653 32.5786 71.5669 31.0392 72.1635 29.2992C72.8875 27.192 72.5214 24.8221 71.415 22.8702C71.0872 22.2518 70.6415 21.7096 70.1053 21.2771C68.1664 19.797 65.4114 20.4749 63.1987 19.701C62.1465 19.3338 61.3005 18.6361 60.2945 18.1757C59.1772 17.6813 57.778 17.5034 56.5605 17.4808Z" fill="#3F3D56"/>
<path d="M56.5605 17.4808C54.1037 17.4356 51.2971 18.6304 50.1772 21.0455C49.9084 21.6012 49.7622 22.2124 49.749 22.8345C49.7359 23.4565 49.8562 24.0738 50.1013 24.6413C50.1913 24.8082 50.2622 24.9855 50.3128 25.1695C50.3372 25.373 50.3372 25.5789 50.3128 25.7825C50.2914 26.2731 50.3864 26.7617 50.5893 27.2051C50.7921 27.6485 51.0967 28.033 51.4761 28.3247C51.9072 28.6495 52.4306 28.8529 52.775 29.2737L52.6421 26.5705C52.6114 26.4245 52.6376 26.2717 52.7148 26.1457C52.7921 26.0197 52.9142 25.9307 53.0543 25.8983L54.7057 25.0961C54.7057 25.0961 55.2155 25.4831 55.2779 25.5141C55.5519 25.6357 55.8478 25.6945 56.1456 25.6864C56.7928 25.7023 57.4402 25.6645 58.0817 25.5734C59.4674 25.3672 60.7934 24.839 62.0869 24.3136C62.0451 24.7313 61.8715 25.1227 61.5933 25.4266L65.8046 26.274C66.4214 27.1574 66.9186 28.125 67.2824 29.1495C67.5736 29.9502 67.7649 30.7865 67.8519 31.638C67.9646 32.7956 67.8605 33.965 67.5455 35.0813C67.8319 34.8538 68.0826 34.5812 68.2885 34.2734C68.6692 34.5488 69.0905 34.7578 69.5358 34.892C69.6285 34.9279 69.7289 34.9367 69.826 34.9174C70.0321 34.8581 70.0755 34.6039 70.0972 34.4005C70.2653 32.5786 71.5669 31.0392 72.1635 29.2992C72.8875 27.192 72.5214 24.8221 71.415 22.8702C71.0872 22.2518 70.6415 21.7096 70.1053 21.2771C68.1664 19.797 65.4114 20.4749 63.1987 19.701C62.1465 19.3338 61.3005 18.6361 60.2945 18.1757C59.1772 17.6813 57.778 17.5034 56.5605 17.4808Z" fill="url(#paint8_linear)"/>
<path d="M71.1278 38.304C72.9264 38.304 74.3845 36.431 74.3845 34.1207C74.3845 31.8103 72.9264 29.9373 71.1278 29.9373C69.3292 29.9373 67.8711 31.8103 67.8711 34.1207C67.8711 36.431 69.3292 38.304 71.1278 38.304Z" fill="#8181FB"/>
<path d="M71.1278 38.304C72.9264 38.304 74.3845 36.431 74.3845 34.1207C74.3845 31.8103 72.9264 29.9373 71.1278 29.9373C69.3292 29.9373 67.8711 31.8103 67.8711 34.1207C67.8711 36.431 69.3292 38.304 71.1278 38.304Z" fill="url(#paint9_linear)"/>
<path d="M72.3749 38.304C74.1735 38.304 75.6316 36.431 75.6316 34.1207C75.6316 31.8103 74.1735 29.9373 72.3749 29.9373C70.5763 29.9373 69.1182 31.8103 69.1182 34.1207C69.1182 36.431 70.5763 38.304 72.3749 38.304Z" fill="#8181FB"/>
<path d="M72.3995 30.2708L70.7725 30.4515L70.3847 30.4939L68.7577 22.1527C67.9117 18.8535 65.8427 16.3169 63.2476 15.3339C62.8458 15.188 62.4183 15.1349 61.9948 15.1786L60.8857 15.2831L61.4281 15.1334L62.5127 14.834C62.8517 14.7366 63.2026 14.6918 63.554 14.7012C66.4501 14.8114 69.197 17.2434 70.1922 20.729L72.3995 30.2708Z" fill="#8181FB"/>
<path d="M72.3995 30.2708L70.7725 30.4515L70.3847 30.4939L68.7577 22.1527C67.9117 18.8535 65.8427 16.3169 63.2476 15.3339C62.8458 15.188 62.4183 15.1349 61.9948 15.1786L60.8857 15.2831L61.4281 15.1334L62.5127 14.834C62.8517 14.7366 63.2026 14.6918 63.554 14.7012C66.4501 14.8114 69.197 17.2434 70.1922 20.729L72.3995 30.2708Z" fill="url(#paint10_linear)"/>
<path d="M72.3992 30.2708L70.7722 30.4515L69.1452 22.0905C68.2856 18.7574 66.1976 16.2011 63.5781 15.2097C63.1728 15.0583 62.7399 15.0043 62.3117 15.0515L61.4277 15.1334L62.5124 14.834C62.8513 14.7366 63.2022 14.6918 63.5537 14.7012C66.4498 14.8114 69.1967 17.2434 70.1919 20.729L72.3992 30.2708Z" fill="#8181FB"/>
<path d="M50.8467 25.4688C51.3267 24.4802 52.368 23.8927 53.4174 23.7147C54.4668 23.5368 55.5406 23.7006 56.5901 23.8673C55.5732 24.7147 52.7341 25.9773 52.6798 26.2033C52.6416 26.6032 52.637 27.0058 52.6663 27.4066C52.7042 27.9884 52.7232 28.5986 52.7205 29.1805C52.4586 28.9132 52.1652 28.6816 51.8473 28.4912C51.5741 28.3815 51.3251 28.2153 51.1152 28.0026C50.8409 27.6521 50.6696 27.2265 50.622 26.777C50.5744 26.3275 50.6524 25.8732 50.8467 25.4688Z" fill="url(#paint11_linear)"/>
<path d="M64.6572 44.2613C63.4322 44.2355 62.2173 44.0243 61.0507 43.6342C60.9126 43.5911 60.7966 43.4927 60.7282 43.3605C60.6598 43.2283 60.6446 43.0733 60.6859 42.9295C60.7273 42.7856 60.8218 42.6648 60.9487 42.5935C61.0756 42.5223 61.2244 42.5065 61.3625 42.5495C64.1555 43.4252 66.2571 43.3094 67.5994 42.2049C69.427 40.7107 69.3077 37.8634 69.3077 37.8352C69.3005 37.6853 69.3508 37.5387 69.4474 37.4274C69.544 37.3162 69.6791 37.2495 69.8229 37.242C69.9668 37.2345 70.1076 37.2868 70.2144 37.3875C70.3211 37.4881 70.3852 37.6289 70.3924 37.7787C70.3924 37.9171 70.5361 41.2445 68.2691 43.0975C67.3255 43.8715 66.1215 44.2594 64.6572 44.2613Z" fill="#8181FB"/>
<path d="M64.6572 44.2613C63.4322 44.2355 62.2173 44.0243 61.0507 43.6342C60.9126 43.5911 60.7966 43.4927 60.7282 43.3605C60.6598 43.2283 60.6446 43.0733 60.6859 42.9295C60.7273 42.7856 60.8218 42.6648 60.9487 42.5935C61.0756 42.5223 61.2244 42.5065 61.3625 42.5495C64.1555 43.4252 66.2571 43.3094 67.5994 42.2049C69.427 40.7107 69.3077 37.8634 69.3077 37.8352C69.3005 37.6853 69.3508 37.5387 69.4474 37.4274C69.544 37.3162 69.6791 37.2495 69.8229 37.242C69.9668 37.2345 70.1076 37.2868 70.2144 37.3875C70.3211 37.4881 70.3852 37.6289 70.3924 37.7787C70.3924 37.9171 70.5361 41.2445 68.2691 43.0975C67.3255 43.8715 66.1215 44.2594 64.6572 44.2613Z" fill="url(#paint12_linear)"/>
<path d="M61.3338 41.595C61.6449 41.7578 61.8887 42.0329 62.0198 42.3689C62.1391 42.8491 61.7812 43.3095 61.4124 43.6231C61.0954 43.9173 60.7055 44.113 60.287 44.188C59.6742 44.2643 59.0885 43.9197 58.5787 43.5553C58.2942 43.3745 58.0516 43.1305 57.8682 42.8406C57.3964 41.9763 58.0065 40.8634 58.8065 40.4962C59.6932 40.0979 60.6368 41.1176 61.3338 41.595Z" fill="#8181FB"/>
<path d="M61.3338 41.595C61.6449 41.7578 61.8887 42.0329 62.0198 42.3689C62.1391 42.8491 61.7812 43.3095 61.4124 43.6231C61.0954 43.9173 60.7055 44.113 60.287 44.188C59.6742 44.2643 59.0885 43.9197 58.5787 43.5553C58.2942 43.3745 58.0516 43.1305 57.8682 42.8406C57.3964 41.9763 58.0065 40.8634 58.8065 40.4962C59.6932 40.0979 60.6368 41.1176 61.3338 41.595Z" fill="url(#paint13_linear)"/>
<path d="M53.9112 93.9527H20.9777L12.2901 70.0038C12.1724 69.6844 12.1286 69.3384 12.1625 68.9963C12.1965 68.6542 12.3072 68.3263 12.485 68.0415C12.6627 67.7567 12.9021 67.5236 13.1821 67.3626C13.462 67.2017 13.7741 67.1179 14.0908 67.1184H39.9436C41.1957 67.1177 42.4189 67.5266 43.454 68.2919C44.4891 69.0572 45.2881 70.1434 45.7468 71.409L53.9112 93.9527Z" fill="#6E71FF"/>
<defs>
<linearGradient id="paint0_linear" x1="13.1289" y1="27.5884" x2="11.6734" y2="55.5231" gradientUnits="userSpaceOnUse">
<stop offset="0.02" stop-color="white" stop-opacity="0"/>
<stop offset="0.58" stop-color="white" stop-opacity="0.39"/>
<stop offset="0.68" stop-color="white" stop-opacity="0.68"/>
<stop offset="1" stop-color="white"/>
</linearGradient>
<linearGradient id="paint1_linear" x1="66.5779" y1="61.5678" x2="48.0002" y2="62.3515" gradientUnits="userSpaceOnUse">
<stop offset="0.01"/>
<stop offset="1" stop-color="#DEDEDE" stop-opacity="0"/>
</linearGradient>
<linearGradient id="paint2_linear" x1="10467.4" y1="16043.2" x2="3348.44" y2="11739.5" gradientUnits="userSpaceOnUse">
<stop offset="0.01"/>
<stop offset="1" stop-opacity="0"/>
</linearGradient>
<linearGradient id="paint3_linear" x1="58.25" y1="61.3279" x2="59.1325" y2="45.2311" gradientUnits="userSpaceOnUse">
<stop stop-color="white"/>
<stop offset="0.58548" stop-color="white" stop-opacity="0"/>
</linearGradient>
<linearGradient id="paint4_linear" x1="61.9708" y1="50.806" x2="67.9323" y2="56.2236" gradientUnits="userSpaceOnUse">
<stop offset="0.02" stop-color="white" stop-opacity="0"/>
<stop offset="0.58" stop-color="white" stop-opacity="0.39"/>
<stop offset="1" stop-color="white"/>
</linearGradient>
<linearGradient id="paint5_linear" x1="69.639" y1="64.2938" x2="75.0487" y2="90.4794" gradientUnits="userSpaceOnUse">
<stop stop-color="#FFF6A5"/>
<stop offset="1" stop-color="white" stop-opacity="0"/>
</linearGradient>
<linearGradient id="paint6_linear" x1="2011.5" y1="238.8" x2="2014.59" y2="313.443" gradientUnits="userSpaceOnUse">
<stop offset="0.01"/>
<stop offset="1" stop-opacity="0"/>
</linearGradient>
<linearGradient id="paint7_linear" x1="60.8475" y1="21.8049" x2="60.8475" y2="46.2561" gradientUnits="userSpaceOnUse">
<stop stop-color="#FBFCC3"/>
<stop offset="1" stop-color="white" stop-opacity="0"/>
</linearGradient>
<linearGradient id="paint8_linear" x1="6236.1" y1="1686.47" x2="5930.88" y2="2002.77" gradientUnits="userSpaceOnUse">
<stop offset="0.01"/>
<stop offset="1" stop-opacity="0"/>
</linearGradient>
<linearGradient id="paint9_linear" x1="1928.04" y1="931.526" x2="1833.14" y2="946.302" gradientUnits="userSpaceOnUse">
<stop offset="0.01"/>
<stop offset="1" stop-opacity="0"/>
</linearGradient>
<linearGradient id="paint10_linear" x1="3418.3" y1="1413.25" x2="3014.46" y2="1541.32" gradientUnits="userSpaceOnUse">
<stop offset="0.01"/>
<stop offset="1" stop-opacity="0"/>
</linearGradient>
<linearGradient id="paint11_linear" x1="1376.5" y1="707.507" x2="1387.14" y2="543.604" gradientUnits="userSpaceOnUse">
<stop offset="0.01"/>
<stop offset="1" stop-opacity="0"/>
</linearGradient>
<linearGradient id="paint12_linear" x1="2610.51" y1="1090.52" x2="2667.94" y2="1254.16" gradientUnits="userSpaceOnUse">
<stop offset="0.02" stop-color="white" stop-opacity="0"/>
<stop offset="0.58" stop-color="white" stop-opacity="0.39"/>
<stop offset="0.68" stop-color="white" stop-opacity="0.68"/>
<stop offset="1" stop-color="white"/>
</linearGradient>
<linearGradient id="paint13_linear" x1="1147.27" y1="633.646" x2="1104.09" y2="733.229" gradientUnits="userSpaceOnUse">
<stop offset="0.01"/>
<stop offset="1" stop-opacity="0"/>
</linearGradient>
</defs>
</svg>
