<svg width="108" height="108" viewBox="0 0 108 108" fill="none" xmlns="http://www.w3.org/2000/svg">
<g clip-path="url(#clip0)">
<path opacity="0.24" d="M96.3196 69.2938C98.6623 74.9757 101.049 81.7107 99.0461 87.6015C97.6342 91.7391 94.4184 94.2332 91.3294 96.2858C86.2111 99.6748 80.9148 102.583 75.4807 104.99C72.1496 106.458 68.7261 107.751 65.2187 107.968C57.0044 108.462 49.3651 103.088 41.673 99.2818C33.5053 95.2372 24.9095 92.8624 16.1884 92.2409C13.7567 92.0643 11.2872 92.0255 8.95763 91.0886C3.32824 88.8185 -0.615803 80.8923 0.0794288 73.2483C0.583554 67.6741 3.19973 62.7439 4.28541 57.3615C4.50164 56.3148 4.64664 55.2452 4.7187 54.1652C5.04819 48.9335 3.39249 43.3959 5.00042 38.5777C5.86204 36.0168 7.5474 34.0719 9.35303 32.5879C14.9544 27.9722 21.9842 26.9297 27.3895 21.9479C31.1045 18.5189 33.7537 13.5048 36.7916 9.07431C39.8295 4.64384 43.6583 0.553682 48.1904 0.0539889C54.4508 -0.639551 60.7376 5.486 65.2253 10.5411C70.0375 15.958 75.3094 19.486 81.5121 21.782C83.4973 22.5165 85.5138 23.1002 87.532 23.7011H87.5435C90.1284 24.4765 92.7083 25.2777 95.196 26.4623C99.626 28.5817 103.903 32.1787 106.002 37.7033C107.214 40.8888 107.623 44.4858 107.865 48.0418C108.195 52.7802 108.096 58.1455 105.524 61.5162C103.481 64.1956 100.283 65.0313 97.9852 67.1852C97.8962 67.2606 97.8072 67.3446 97.7183 67.435C97.181 67.9559 96.7092 68.583 96.3196 69.2938Z" fill="#6E71FF"/>
<path d="M105.75 61.2C103.712 63.9035 100.168 65.1018 97.8752 67.275C83.7583 68.5116 69.8063 63.3679 55.65 62.1379C45.3401 61.2555 34.9974 62.2226 24.6875 61.3055C10.4737 60.0342 24.1944 51.7998 30.0364 48.1531C31.935 46.9665 33.9733 45.7625 36.0494 46.158C37.3217 46.4123 38.5003 47.262 39.7742 47.5402C44.9522 48.6855 48.7461 40.5185 53.9371 39.4406C56.0954 38.9929 58.3442 39.8274 60.4827 39.2037C66.9543 37.3021 68.991 23.5563 75.6204 23.4607C77.0275 23.4433 78.4033 24.1127 79.8104 24.0823C80.8674 24.0671 81.8997 23.6476 82.9336 23.3847C84.4641 23.0087 86.023 22.8759 87.5773 22.9891H87.5888C90.168 23.7715 92.7421 24.5799 95.2243 25.7752C99.6444 27.9137 103.912 31.543 106.006 37.1174C107.216 40.3316 107.623 43.9609 107.865 47.5489C108.194 52.3105 108.316 57.7924 105.75 61.2Z" fill="#9A9CFF"/>
<path d="M105.75 61.2C103.712 63.9035 100.168 65.1018 97.8752 67.275C83.7583 68.5116 69.8063 63.3679 55.65 62.1379C45.3401 61.2555 34.9974 62.2226 24.6875 61.3055C10.4737 60.0342 24.1944 51.7998 30.0364 48.1531C31.935 46.9665 33.9733 45.7625 36.0494 46.158C37.3217 46.4123 38.5003 47.262 39.7742 47.5402C44.9522 48.6855 48.7461 40.5185 53.9371 39.4406C56.0954 38.9929 58.3442 39.8274 60.4827 39.2037C66.9543 37.3021 68.991 23.5563 75.6204 23.4607C77.0275 23.4433 78.4033 24.1127 79.8104 24.0823C80.8674 24.0671 81.8997 23.6476 82.9336 23.3847C84.4641 23.0087 86.023 22.8759 87.5773 22.9891H87.5888C90.168 23.7715 92.7421 24.5799 95.2243 25.7752C99.6444 27.9137 103.912 31.543 106.006 37.1174C107.216 40.3316 107.623 43.9609 107.865 47.5489C108.194 52.3105 108.316 57.7924 105.75 61.2Z" fill="url(#paint0_linear)" fill-opacity="0.7"/>
<path opacity="0.6" d="M100.756 83.9123C100.66 85.1239 100.423 86.3082 100.054 87.4225C98.6277 91.6876 95.3791 94.2587 92.2587 96.3746C87.0883 99.8681 81.7382 102.866 76.2488 105.347C75.2503 105.791 74.2517 106.235 73.2315 106.612C70.8267 107.558 68.377 108.262 65.8823 108.417C57.5844 108.926 49.8674 103.386 42.0971 99.463C33.8462 95.2937 25.163 92.8456 16.3531 92.205C13.8967 92.0229 11.402 91.9829 9.04878 91.0171C3.3621 88.677 -0.622069 80.5064 0.080237 72.6267C0.589492 66.8806 3.23229 61.7984 4.32902 56.25C5.45737 56.3277 6.83702 56.421 8.42303 56.5253L10.8212 56.6807C13.0912 56.8339 15.6708 57.0227 18.4866 57.2225C40.6925 58.8233 77.5319 61.7762 90.8724 64.7447C93.4969 65.3198 95.8651 65.8882 97.997 66.4388L98.7126 66.6186C98.1693 67.159 97.0618 67.8556 96.6689 68.5923C98.4854 73.3173 101.176 78.7724 100.756 83.9123Z" fill="#6E71FF"/>
<path d="M99.9 83.3429C99.8047 84.5149 99.5695 85.6604 99.2029 86.7383C97.7873 90.8638 94.8971 93.5783 91.8 95.625C86.6682 99.0041 81.9484 102.451 76.5 104.85C75.5089 105.28 73.5934 104.935 72.5808 105.3C70.777 104.909 69.0112 104.102 67.2636 103.344C66.1503 102.862 65.0172 102.396 63.8461 102.396C63.3158 102.396 62.7839 102.487 62.2587 102.411C61.6062 102.321 60.9983 101.971 60.3971 101.621C54.6059 98.3124 48.8168 94.9915 43.03 91.6584C39.6058 89.6955 36.1568 87.7069 33.0597 84.9536C31.0775 83.1969 29.2721 81.1502 27.3329 79.3205C23.1274 75.3517 18.3801 72.5148 13.6692 69.695C11.0725 68.1473 8.477 66.5967 5.88256 65.0433L8.04477 63.1104C6.86098 62.2256 5.67939 61.3472 4.5 60.4753C6.57962 60.1768 8.66585 59.8675 10.7521 59.569C9.92618 58.6627 9.10028 57.7543 8.26281 56.8566C7.94236 56.498 7.61696 56.15 7.29651 55.8C7.90437 56.4572 9.2605 56.7814 10.6431 57.0069C11.9232 57.2217 13.2281 57.3463 13.9781 57.5889C16.2807 58.3363 18.5717 59.2018 20.8248 60.1918C25.0798 62.0731 29.0475 64.8843 33.2777 66.7978C40.2533 69.9613 47.9573 70.06 55.1047 72.998C68.7706 78.616 82.9182 82.0164 97.2257 83.1217C98.1144 83.1883 99.0097 83.2549 99.9 83.3429Z" fill="url(#paint1_linear)"/>
<path d="M22.2655 58.1376C21.8197 57.8351 21.3161 57.5999 20.9577 57.1989C20.2041 56.357 20.3213 55.0778 19.9419 54.0181C19.7225 53.4283 19.3491 52.9064 18.8596 52.5056C18.37 52.1048 17.7818 51.8393 17.1549 51.7362C16.6303 51.6567 16.0533 51.6878 15.5953 51.4112C15.0235 51.0655 14.8207 50.3619 14.5252 49.7672C13.2558 47.214 9.31314 46.4879 7.20103 48.424C7.33566 47.214 5.99287 46.2061 4.77771 46.3669C3.56255 46.5277 2.6114 47.5597 2.19353 48.7024C1.77565 49.845 1.78789 51.0862 1.80712 52.2998L1.92427 60.1187C1.92427 60.4644 1.94175 60.8257 2.13408 61.1109C2.32641 61.3962 2.69358 61.5569 3.02928 61.69C7.82814 63.5858 12.6456 65.4378 17.4818 67.2461C19.8981 68.1507 22.3191 69.0439 24.7448 69.9255C26.6069 70.6015 29.0774 72 31.0496 72C31.0776 69.948 27.6822 67.718 26.6628 65.9755C25.1749 63.4395 24.8777 59.9095 22.2655 58.1376Z" fill="url(#paint2_linear)"/>
<path d="M36.3237 72.1443C36.3237 72.1443 32.0161 77.6071 36.2454 85.1454C36.2454 85.1454 34.7073 87.2992 33.2453 85.2215C31.7834 83.1439 30.8609 71.6048 34.4767 69.2204C38.0924 66.836 36.3237 72.1443 36.3237 72.1443Z" fill="#606161"/>
<path d="M36.3237 72.1443C36.3237 72.1443 32.0161 77.6071 36.2454 85.1454C36.2454 85.1454 34.7073 87.2992 33.2453 85.2215C31.7834 83.1439 30.8609 71.6048 34.4767 69.2204C38.0924 66.836 36.3237 72.1443 36.3237 72.1443Z" fill="url(#paint3_linear)"/>
<path d="M40.8154 75.1889C40.7244 73.3038 40.4875 71.2219 39.0615 69.9842C38.2343 69.2628 37.1425 68.0568 36.036 68.188C34.7095 68.353 33.5289 69.3199 32.8625 70.4518C32.0162 71.9095 31.8469 73.6634 31.8046 75.3518C31.749 77.7494 31.9111 80.1472 32.2891 82.5156C32.5007 83.8929 32.854 85.3443 33.8632 86.3112C34.8724 87.278 36.3534 87.5489 37.7561 87.6398C38.4352 87.6885 39.1567 87.68 39.7322 87.3119C40.6081 86.7301 40.7562 85.5241 40.8133 84.4747C40.9635 81.3858 40.9635 78.2778 40.8154 75.1889ZM34.5783 85.7209C33.2666 85.7209 32.2002 82.1961 32.2002 77.8525C32.2002 73.509 33.2581 69.9927 34.5783 69.9927C35.8985 69.9927 36.9585 73.509 36.9585 77.8525C36.9585 82.1961 35.9006 85.7209 34.5783 85.7209Z" fill="#606161"/>
<path d="M40.8154 75.1889C40.7244 73.3038 40.4875 71.2219 39.0615 69.9842C38.2343 69.2628 37.1425 68.0568 36.036 68.188C34.7095 68.353 33.5289 69.3199 32.8625 70.4518C32.0162 71.9095 31.8469 73.6634 31.8046 75.3518C31.749 77.7494 31.9111 80.1472 32.2891 82.5156C32.5007 83.8929 32.854 85.3443 33.8632 86.3112C34.8724 87.278 36.3534 87.5489 37.7561 87.6398C38.4352 87.6885 39.1567 87.68 39.7322 87.3119C40.6081 86.7301 40.7562 85.5241 40.8133 84.4747C40.9635 81.3858 40.9635 78.2778 40.8154 75.1889ZM34.5783 85.7209C33.2666 85.7209 32.2002 82.1961 32.2002 77.8525C32.2002 73.509 33.2581 69.9927 34.5783 69.9927C35.8985 69.9927 36.9585 73.509 36.9585 77.8525C36.9585 82.1961 35.9006 85.7209 34.5783 85.7209Z" fill="url(#paint4_linear)"/>
<path d="M32.4499 63.1654C32.1093 63.6161 31.8152 64.1302 31.7877 64.6951C31.7602 65.26 32.0966 65.8714 32.6467 66.0005C33.3068 66.1549 33.9711 65.5985 34.6376 65.7254C34.7908 65.7796 34.9541 65.7991 35.1157 65.7826C35.3548 65.717 35.4521 65.4356 35.5071 65.1923C35.6277 64.6528 35.7187 64.1069 35.8012 63.559C35.8732 63.2029 35.8732 62.836 35.8012 62.48C35.1707 60.159 33.2539 62.097 32.4499 63.1654Z" fill="#6E71FF"/>
<path d="M31.2308 60.5926C31.1438 60.852 31.1222 61.1288 31.1678 61.3985C31.2134 61.6682 31.3248 61.9226 31.4922 62.1389C31.6596 62.3553 31.8778 62.527 32.1275 62.6389C32.3771 62.7508 32.6505 62.7993 32.9234 62.7802C33.2026 62.7412 33.4784 62.6811 33.7485 62.6004C34.2641 62.4754 34.7975 62.4418 35.3247 62.501C35.4048 62.5201 35.489 62.512 35.5638 62.4777C35.6759 62.4057 35.6717 62.2428 35.6505 62.1117C35.5088 61.2061 35.1322 59.3168 34.1082 59.0206C33.0842 58.7244 31.544 59.6574 31.2308 60.5926Z" fill="#606161"/>
<path d="M31.2308 60.5926C31.1438 60.852 31.1222 61.1288 31.1678 61.3985C31.2134 61.6682 31.3248 61.9226 31.4922 62.1389C31.6596 62.3553 31.8778 62.527 32.1275 62.6389C32.3771 62.7508 32.6505 62.7993 32.9234 62.7802C33.2026 62.7412 33.4784 62.6811 33.7485 62.6004C34.2641 62.4754 34.7975 62.4418 35.3247 62.501C35.4048 62.5201 35.489 62.512 35.5638 62.4777C35.6759 62.4057 35.6717 62.2428 35.6505 62.1117C35.5088 61.2061 35.1322 59.3168 34.1082 59.0206C33.0842 58.7244 31.544 59.6574 31.2308 60.5926Z" fill="url(#paint5_linear)"/>
<path d="M26.9327 72.299C26.2514 72.0176 25.4517 71.7637 24.817 72.1319C24.0723 72.555 23.9707 73.579 23.958 74.4401C23.958 75.1277 23.958 75.8788 24.3812 76.4119C24.6731 76.7758 25.1153 76.9768 25.5406 77.1651L34.8243 81.2929C35.1882 81.4537 35.6537 81.5997 35.9414 81.3288C36.0677 81.1855 36.1468 81.0067 36.1678 80.8168C36.6671 78.2039 35.1522 77.0699 33.2269 75.7391C31.2575 74.3713 29.1475 73.218 26.9327 72.299Z" fill="#6E71FF"/>
<path d="M26.9896 73.4839C26.3083 73.2723 25.5086 73.084 24.8739 73.3591C24.1292 73.6785 24.0276 74.4381 24.0149 75.0791C24.0043 75.5911 24.0149 76.1518 24.4381 76.5495C24.7841 76.8118 25.179 77.0024 25.5996 77.1102C28.6927 78.1363 31.7351 80.1463 34.8241 81.1724C35.188 81.293 35.6534 81.4009 35.9412 81.1978C36.0599 81.1021 36.1403 80.967 36.1676 80.8169C36.6669 78.8705 34.8833 78.0242 32.958 77.0298C30.9904 76.0122 29.2026 74.1673 26.9896 73.4839Z" fill="url(#paint6_linear)" fill-opacity="0.5"/>
<path d="M36.2755 82.9601C36.2383 83.2657 36.0872 83.546 35.8524 83.7451C35.6062 83.9402 35.299 84.0421 34.985 84.0328C34.9024 84.0328 34.8115 84.0328 34.7226 84.0159C34.2643 83.9393 33.8178 83.8042 33.3939 83.6139C32.4144 83.2208 31.4093 82.8949 30.3854 82.6385C29.262 82.3699 28.0835 82.1646 27.1314 81.5088C26.6486 81.1763 26.2753 80.708 26.0588 80.1632C25.9371 79.9044 25.874 79.6219 25.874 79.3359C25.874 79.0499 25.9371 78.7675 26.0588 78.5087C26.7802 77.0277 28.2866 77.6307 29.3868 78.1553C30.9186 78.9022 32.4673 79.6364 34.016 80.3451C34.7226 80.6646 35.4589 81.0073 35.9201 81.6315C36.2058 82.0118 36.3332 82.488 36.2755 82.9601Z" fill="#6E71FF"/>
<path d="M35.8483 83.8275C35.5833 83.9744 35.2837 84.0475 34.9809 84.0391C34.8984 84.0391 34.8074 84.0391 34.7185 84.0222C34.2603 83.9456 33.8137 83.8105 33.3899 83.6202C32.4104 83.2271 31.4052 82.9012 30.3813 82.6449C29.2579 82.3762 28.0794 82.1709 27.1274 81.5151C26.6445 81.1826 26.2712 80.7143 26.0547 80.1695C26.7761 79.137 28.2825 79.5475 29.3827 79.9241C30.9145 80.4488 32.4632 80.9565 34.0119 81.4495C34.7185 81.678 35.4548 81.9171 35.916 82.3592C36.0934 82.5205 36.2168 82.7325 36.2693 82.9665C36.3027 83.1363 36.2796 83.3123 36.2036 83.4678C36.1275 83.6232 36.0028 83.7496 35.8483 83.8275Z" fill="url(#paint7_linear)" fill-opacity="0.5"/>
<path d="M32.3781 66.8005C31.4586 68.6287 30.7312 70.5473 30.2074 72.5256C30.1059 72.9085 30.0318 73.3719 30.3111 73.6554C30.5903 73.9389 31.0198 73.8669 31.3203 73.6554C31.6021 73.4201 31.8252 73.1223 31.9719 72.7858C32.3656 72.0969 32.6895 71.3705 32.9388 70.6172C32.8655 71.9976 33.2114 73.3679 33.9311 74.5482C34.2167 73.7992 33.9945 72.9635 33.8422 72.1765C33.6647 71.2552 33.5881 70.3174 33.6137 69.3795C34.1299 69.4747 34.46 69.9825 34.6419 70.4754C34.8239 70.9684 34.9233 71.51 35.2555 71.9162C35.4671 71.6095 35.4671 71.2117 35.4671 70.8393V66.4344C35.482 66.2907 35.4501 66.146 35.3761 66.0219C35.2606 65.9051 35.1044 65.8376 34.9403 65.8336C33.8887 65.6939 32.8901 65.7786 32.3781 66.8005Z" fill="#6E71FF"/>
<path d="M32.3781 66.8005C31.4586 68.6287 30.7312 70.5473 30.2074 72.5256C30.1059 72.9085 30.0318 73.3719 30.3111 73.6554C30.5903 73.9389 31.0198 73.8669 31.3203 73.6554C31.6021 73.4201 31.8252 73.1223 31.9719 72.7858C32.3656 72.0969 32.6895 71.3705 32.9388 70.6172C32.8655 71.9976 33.2114 73.3679 33.9311 74.5482C34.2167 73.7992 33.9945 72.9635 33.8422 72.1765C33.6647 71.2552 33.5881 70.3174 33.6137 69.3795C34.1299 69.4747 34.46 69.9825 34.6419 70.4754C34.8239 70.9684 34.9233 71.51 35.2555 71.9162C35.4671 71.6095 35.4671 71.2117 35.4671 70.8393V66.4344C35.482 66.2907 35.4501 66.146 35.3761 66.0219C35.2606 65.9051 35.1044 65.8376 34.9403 65.8336C33.8887 65.6939 32.8901 65.7786 32.3781 66.8005Z" fill="url(#paint8_linear)"/>
<path d="M35.9007 37.7812C35.4606 38.2298 35.1009 38.7502 34.6905 39.2263C33.3703 40.758 31.4387 42.0042 31.1086 43.9993C31.0666 44.1657 31.06 44.339 31.0891 44.5081C31.1183 44.6772 31.1826 44.8383 31.2779 44.981C31.482 45.1864 31.7468 45.3206 32.0332 45.3639C33.799 45.7864 35.6541 45.6276 37.3224 44.9112C35.3887 46.3054 34.7603 48.8591 34.3245 51.2033C34.1235 52.2887 33.9585 53.5031 34.5763 54.415C35.4225 55.6717 37.242 55.6844 38.7548 55.5574L44.482 55.0835C45.3283 55.0137 46.1915 54.9418 46.9912 54.6477C47.791 54.3536 48.5357 53.8014 48.8763 53.0313C49.3629 51.929 48.9567 50.6596 48.9864 49.4536C49.0223 48.2594 49.4907 47.1188 50.3044 46.2441C50.42 46.1069 50.5645 45.9971 50.7276 45.9225C50.9339 45.863 51.1513 45.8528 51.3623 45.8929L58.6001 46.6778C59.5734 46.7836 60.5805 46.8894 61.5156 46.5953C62.4507 46.3012 63.3034 45.5036 63.3351 44.524C63.3527 44.2805 63.2911 44.0378 63.1595 43.8322C62.9958 43.6299 62.7821 43.4738 62.5396 43.3794C60.0007 42.1798 56.8462 42.294 54.6903 40.4957C53.8588 39.8039 53.2432 38.8687 52.363 38.2509C51.54 37.6733 50.5456 37.4046 49.5724 37.1571C47.3065 36.5668 44.5709 35.3228 42.2182 35.4645C39.9967 35.5957 37.5002 36.1394 35.9007 37.7812Z" fill="#6E71FF"/>
<path d="M35.9007 37.7812C35.4606 38.2298 35.1009 38.7502 34.6905 39.2263C33.3703 40.758 31.4387 42.0042 31.1086 43.9993C31.0666 44.1657 31.06 44.339 31.0891 44.5081C31.1183 44.6772 31.1826 44.8383 31.2779 44.981C31.482 45.1864 31.7468 45.3206 32.0332 45.3639C33.799 45.7864 35.6541 45.6276 37.3224 44.9112C35.3887 46.3054 34.7603 48.8591 34.3245 51.2033C34.1235 52.2887 33.9585 53.5031 34.5763 54.415C35.4225 55.6717 37.242 55.6844 38.7548 55.5574L44.482 55.0835C45.3283 55.0137 46.1915 54.9418 46.9912 54.6477C47.791 54.3536 48.5357 53.8014 48.8763 53.0313C49.3629 51.929 48.9567 50.6596 48.9864 49.4536C49.0223 48.2594 49.4907 47.1188 50.3044 46.2441C50.42 46.1069 50.5645 45.9971 50.7276 45.9225C50.9339 45.863 51.1513 45.8528 51.3623 45.8929L58.6001 46.6778C59.5734 46.7836 60.5805 46.8894 61.5156 46.5953C62.4507 46.3012 63.3034 45.5036 63.3351 44.524C63.3527 44.2805 63.2911 44.0378 63.1595 43.8322C62.9958 43.6299 62.7821 43.4738 62.5396 43.3794C60.0007 42.1798 56.8462 42.294 54.6903 40.4957C53.8588 39.8039 53.2432 38.8687 52.363 38.2509C51.54 37.6733 50.5456 37.4046 49.5724 37.1571C47.3065 36.5668 44.5709 35.3228 42.2182 35.4645C39.9967 35.5957 37.5002 36.1394 35.9007 37.7812Z" fill="url(#paint9_linear)"/>
<path d="M48.9619 50.9344C49.0011 51.2137 48.9787 51.4982 48.8963 51.7679C48.8035 51.977 48.668 52.1643 48.4986 52.318C47.7799 53.0297 46.8712 53.5189 45.8814 53.7271C45.8561 51.3617 46.6621 49.0725 47.3476 46.813C47.6891 45.7385 47.9542 44.6412 48.141 43.5294C48.3124 42.4144 48.1051 41.2909 48.2278 40.2077C48.5557 41.9003 48.4859 43.779 48.6023 45.5076L48.9619 50.9344Z" fill="url(#paint10_linear)"/>
<path d="M42.5542 43.8364C41.545 44.6721 39.5922 45.7976 38.3228 46.189C37.7473 46.371 37.1359 46.4323 36.5731 46.6545C36.1411 46.8425 35.731 47.0773 35.3502 47.3548L30.061 50.9198C30.0094 50.9474 29.9668 50.9893 29.9383 51.0404C29.8706 51.1927 30.0546 51.3281 30.207 51.3916C31.4595 51.9163 33.3234 53.8923 34.5738 54.4149C33.8544 53.0291 34.6288 50.3718 35.4455 49.3372C36.6831 47.7673 38.6381 46.9909 40.4237 46.0938C42.1734 45.2158 43.9993 43.9929 44.5642 42.0084C44.7495 41.3501 44.8602 40.673 44.8942 39.99C44.086 40.8617 43.8998 42.7193 42.5542 43.8364Z" fill="#6E71FF"/>
<path d="M42.5542 43.8364C41.545 44.6721 39.5922 45.7976 38.3228 46.189C37.7473 46.371 37.1359 46.4323 36.5731 46.6545C36.1411 46.8425 35.731 47.0773 35.3502 47.3548L30.061 50.9198C30.0094 50.9474 29.9668 50.9893 29.9383 51.0404C29.8706 51.1927 30.0546 51.3281 30.207 51.3916C31.4595 51.9163 33.3234 53.8923 34.5738 54.4149C33.8544 53.0291 34.6288 50.3718 35.4455 49.3372C36.6831 47.7673 38.6381 46.9909 40.4237 46.0938C42.1734 45.2158 43.9993 43.9929 44.5642 42.0084C44.7495 41.3501 44.8602 40.673 44.8942 39.99C44.086 40.8617 43.8998 42.7193 42.5542 43.8364Z" fill="url(#paint11_linear)"/>
<path d="M51.0604 44.3968C50.3432 43.9737 49.6767 43.4659 48.8939 43.1993C48.1555 42.9475 47.3621 42.9348 46.5835 42.9222C42.2548 42.8608 37.9091 42.7994 33.6058 43.176C33.0536 43.2247 32.3617 43.4066 32.2856 43.9546C32.2284 44.3503 32.5712 44.712 32.9541 44.8263C33.346 44.9109 33.7513 44.9109 34.1432 44.8263C35.683 44.6471 37.2329 44.5693 38.7829 44.5936L45.9763 44.5491C46.3908 44.5313 46.8061 44.5604 47.214 44.6359C47.8043 44.7671 48.3311 45.0865 48.8939 45.3066C50.0364 45.7572 51.2931 45.7953 52.5202 45.827C53.0174 45.8418 53.7727 45.5329 53.1359 45.059C52.9243 44.9025 52.406 44.9554 52.1436 44.8813C51.7638 44.7654 51.4 44.6026 51.0604 44.3968Z" fill="#6E71FF"/>
<path d="M51.0604 44.3968C50.3432 43.9737 49.6767 43.4659 48.8939 43.1993C48.1555 42.9475 47.3621 42.9348 46.5835 42.9222C42.2548 42.8608 37.9091 42.7994 33.6058 43.176C33.0536 43.2247 32.3617 43.4066 32.2856 43.9546C32.2284 44.3503 32.5712 44.712 32.9541 44.8263C33.346 44.9109 33.7513 44.9109 34.1432 44.8263C35.683 44.6471 37.2329 44.5693 38.7829 44.5936L45.9763 44.5491C46.3908 44.5313 46.8061 44.5604 47.214 44.6359C47.8043 44.7671 48.3311 45.0865 48.8939 45.3066C50.0364 45.7572 51.2931 45.7953 52.5202 45.827C53.0174 45.8418 53.7727 45.5329 53.1359 45.059C52.9243 44.9025 52.406 44.9554 52.1436 44.8813C51.7638 44.7654 51.4 44.6026 51.0604 44.3968Z" fill="#6E71FF"/>
<path d="M51.0757 44.4118C50.3585 43.9992 49.6921 43.4808 48.9092 43.2143C48.1709 42.9625 47.3775 42.9477 46.5989 42.9371C42.2701 42.8757 37.9245 42.8144 33.6211 43.191C33.0689 43.2397 32.3771 43.4195 32.2988 43.9696C32.2438 44.3652 32.5865 44.727 32.9695 44.8412C33.3613 44.9258 33.7667 44.9258 34.1585 44.8412C35.6983 44.662 37.2482 44.5843 38.7983 44.6085L45.9811 44.5641C46.3963 44.5463 46.8122 44.5754 47.2209 44.6508C47.8091 44.782 48.338 45.0994 48.9008 45.3215C50.0433 45.7722 51.2979 45.8102 52.5271 45.842C53.0222 45.8568 53.7796 45.5458 53.1428 45.074C52.9312 44.9174 52.4129 44.9703 52.1505 44.8963C51.7736 44.7797 51.4126 44.617 51.0757 44.4118Z" fill="url(#paint12_linear)"/>
<path d="M39.6391 42.9518C39.578 42.6707 39.43 42.4161 39.216 42.2239C39.1082 42.1307 38.9733 42.0747 38.8312 42.064C38.6891 42.0533 38.5473 42.0886 38.4268 42.1647C38.3422 42.2261 38.2787 42.3149 38.1899 42.3763C38.0679 42.441 37.9323 42.4758 37.7942 42.4778L32.8562 42.901C32.6285 42.9019 32.4045 42.9593 32.2045 43.0681C32.0789 43.1612 31.9793 43.285 31.9153 43.4276C31.8512 43.5703 31.8248 43.7269 31.8385 43.8827C31.8695 44.1935 31.9661 44.4942 32.122 44.7649C32.1646 44.8651 32.2315 44.9531 32.3167 45.0209C32.4405 45.0845 32.5807 45.1088 32.7186 45.0907L37.1786 44.9426C37.4311 44.9178 37.686 44.9415 37.9296 45.0125C39.582 45.6197 40.0496 44.4433 39.6391 42.9518Z" fill="url(#paint13_linear)"/>
<path d="M39.2189 43.3072C39.1871 43.2783 39.1472 43.2599 39.1046 43.2543C39.0689 43.2574 39.0343 43.2682 39.0032 43.2862C38.9722 43.3041 38.9454 43.3286 38.9248 43.3579C38.699 43.6043 38.4977 43.8722 38.324 44.1577C38.314 44.1806 38.2968 44.1996 38.2751 44.2119C38.2533 44.2241 38.2281 44.2288 38.2034 44.2254L33.0706 44.1598C33.0155 44.1635 32.9601 44.1563 32.9077 44.1386C32.8266 44.0963 32.7641 44.0255 32.7321 43.9398C32.6644 43.7853 32.6158 43.5886 32.455 43.5399C32.2942 43.4912 31.8901 43.5399 31.8626 43.6965C31.8509 43.9032 31.8856 44.11 31.9641 44.3015C32.0022 44.3968 32.0382 44.5956 32.0784 44.6908C32.1517 44.7987 32.2384 44.8968 32.3365 44.9828C32.3892 45.0162 32.4498 45.0351 32.5121 45.0378C34.5093 45.2917 36.6377 44.767 38.6477 45.0061C38.8213 45.0472 39.0034 45.0324 39.1681 44.9638C39.2699 44.8952 39.3551 44.8048 39.4178 44.6993C39.5647 44.4844 39.6258 44.2223 39.589 43.9646C39.5522 43.7069 39.4201 43.4723 39.2189 43.3072Z" fill="url(#paint14_linear)"/>
<path d="M33.7962 58.8707C34.158 59.846 34.8202 60.6923 35.1461 61.6803C35.4444 62.5837 35.4444 63.5527 35.4465 64.5027C35.4606 70.6495 35.6912 76.79 36.1383 82.9242C36.1477 83.5126 36.2579 84.0951 36.4642 84.6464C36.7011 85.1838 37.1666 85.6577 37.7484 85.7402C38.6645 85.8714 39.441 85.0208 39.7731 84.1598C40.3401 82.7232 40.2238 81.1152 40.5327 79.6004C40.8902 77.8444 41.8254 76.1539 41.6201 74.3746C41.5292 73.577 41.5376 72.0706 41.3239 71.2983C40.8775 69.6925 41.288 69.5804 41.3239 67.9132C41.3578 66.4216 41.4678 63.557 41.5546 62.0675C41.6286 60.815 40.9664 60.0322 41.7344 59.0399C42.1745 58.475 42.7922 58.0709 43.2598 57.5335C43.7274 56.9961 46.2493 54.8424 46.0547 54.7598C45.86 54.6773 42.8684 55.0603 42.6336 55.0857C41.0291 55.267 39.4052 55.1625 37.8373 54.7768C36.7477 54.5102 34.9705 53.9855 34.0522 54.9545C33.1996 55.8558 33.4112 57.8318 33.7962 58.8707Z" fill="#606161"/>
<path d="M33.7962 58.8707C34.158 59.846 34.8202 60.6923 35.1461 61.6803C35.4444 62.5837 35.4444 63.5527 35.4465 64.5027C35.4606 70.6495 35.6912 76.79 36.1383 82.9242C36.1477 83.5126 36.2579 84.0951 36.4642 84.6464C36.7011 85.1838 37.1666 85.6577 37.7484 85.7402C38.6645 85.8714 39.441 85.0208 39.7731 84.1598C40.3401 82.7232 40.2238 81.1152 40.5327 79.6004C40.8902 77.8444 41.8254 76.1539 41.6201 74.3746C41.5292 73.577 41.5376 72.0706 41.3239 71.2983C40.8775 69.6925 41.288 69.5804 41.3239 67.9132C41.3578 66.4216 41.4678 63.557 41.5546 62.0675C41.6286 60.815 40.9664 60.0322 41.7344 59.0399C42.1745 58.475 42.7922 58.0709 43.2598 57.5335C43.7274 56.9961 46.2493 54.8424 46.0547 54.7598C45.86 54.6773 42.8684 55.0603 42.6336 55.0857C41.0291 55.267 39.4052 55.1625 37.8373 54.7768C36.7477 54.5102 34.9705 53.9855 34.0522 54.9545C33.1996 55.8558 33.4112 57.8318 33.7962 58.8707Z" fill="url(#paint15_linear)"/>
<path d="M65.5848 57.0044L74.841 80.7618C74.841 80.7618 75.169 82.1539 76.3982 81.7434C77.1724 81.4701 77.8732 81.0219 78.4462 80.4338L68.3691 56.5961L67.3112 54.5481L63.1327 46.1107L62.0748 46.4386L61.584 48.6495L65.5848 57.0044Z" fill="#6E71FF"/>
<path d="M65.5848 57.0044L74.841 80.7618C74.841 80.7618 75.169 82.1539 76.3982 81.7434C77.1724 81.4701 77.8732 81.0219 78.4462 80.4338L68.3691 56.5961L67.3112 54.5481L63.1327 46.1107L62.0748 46.4386L61.584 48.6495L65.5848 57.0044Z" fill="url(#paint16_linear)"/>
<path d="M41.2541 69.3541L41.4657 63.1826C41.5174 62.3999 41.4926 61.6141 41.3917 60.8362C41.3176 60.3856 41.1949 59.9265 41.2901 59.4822C41.4467 58.7628 42.1195 58.2974 42.5595 57.7092C43.2239 56.8291 43.372 55.6718 43.848 54.6774C44.5864 53.1456 46.0885 52.0878 47.6922 51.5186C49.296 50.9495 51.0139 50.8056 52.7086 50.6724C54.8095 50.501 56.7686 49.1723 58.8759 49.1088C60.9831 49.0454 63.2321 49.8007 64.4317 51.5335C65.8958 53.6492 65.4896 56.6408 66.9092 58.784C67.2774 59.3362 67.7555 59.8228 67.9946 60.4448C68.3881 61.5027 67.9607 62.6917 67.3197 63.6184C66.6786 64.5451 65.8387 65.311 65.2336 66.2651C63.8055 68.5438 64.0234 71.4317 64.0678 74.1208C64.1375 78.3991 63.6395 82.6677 62.5868 86.815C62.4927 87.3106 62.3007 87.7825 62.0219 88.203C61.3872 89.0492 60.177 89.2439 59.115 89.1635C58.0529 89.0831 56.9823 88.8059 55.9414 88.9858C54.3694 89.2587 53.081 90.5196 51.4984 90.6783C50.3453 90.7926 49.2261 90.3038 48.1683 89.832L43.0948 87.5196C42.3226 87.1705 41.5292 86.8045 40.9601 86.1761C39.953 85.0632 39.8874 83.3643 40.2725 81.9129C40.6575 80.4616 41.4234 79.1435 41.9206 77.7259C42.4178 76.3084 42.6188 74.673 41.8931 73.357C41.6815 72.9614 41.3811 72.6102 41.1907 72.1997C40.7802 71.3323 41.2224 70.3104 41.2541 69.3541Z" fill="#6E71FF"/>
<path d="M41.2541 69.3541L41.4657 63.1826C41.5174 62.3999 41.4926 61.6141 41.3917 60.8362C41.3176 60.3856 41.1949 59.9265 41.2901 59.4822C41.4467 58.7628 42.1195 58.2974 42.5595 57.7092C43.2239 56.8291 43.372 55.6718 43.848 54.6774C44.5864 53.1456 46.0885 52.0878 47.6922 51.5186C49.296 50.9495 51.0139 50.8056 52.7086 50.6724C54.8095 50.501 56.7686 49.1723 58.8759 49.1088C60.9831 49.0454 63.2321 49.8007 64.4317 51.5335C65.8958 53.6492 65.4896 56.6408 66.9092 58.784C67.2774 59.3362 67.7555 59.8228 67.9946 60.4448C68.3881 61.5027 67.9607 62.6917 67.3197 63.6184C66.6786 64.5451 65.8387 65.311 65.2336 66.2651C63.8055 68.5438 64.0234 71.4317 64.0678 74.1208C64.1375 78.3991 63.6395 82.6677 62.5868 86.815C62.4927 87.3106 62.3007 87.7825 62.0219 88.203C61.3872 89.0492 60.177 89.2439 59.115 89.1635C58.0529 89.0831 56.9823 88.8059 55.9414 88.9858C54.3694 89.2587 53.081 90.5196 51.4984 90.6783C50.3453 90.7926 49.2261 90.3038 48.1683 89.832L43.0948 87.5196C42.3226 87.1705 41.5292 86.8045 40.9601 86.1761C39.953 85.0632 39.8874 83.3643 40.2725 81.9129C40.6575 80.4616 41.4234 79.1435 41.9206 77.7259C42.4178 76.3084 42.6188 74.673 41.8931 73.357C41.6815 72.9614 41.3811 72.6102 41.1907 72.1997C40.7802 71.3323 41.2224 70.3104 41.2541 69.3541Z" fill="url(#paint17_linear)"/>
<path d="M53.5754 52.2166C53.859 53.3668 53.9773 54.5515 53.9266 55.7351C53.7933 55.0728 52.8899 54.9628 52.2234 55.0855C50.9405 55.3274 49.7235 55.8387 48.6527 56.5856C47.582 57.3325 46.6818 58.2981 46.0117 59.4185L50.0527 63.0152C50.1945 61.7458 48.5569 60.5843 49.1028 59.4291C49.3397 58.9277 49.9067 58.6886 50.4251 58.4918L54.8892 56.7993C56.0783 57.5567 56.201 59.2895 55.7355 60.6224C55.2701 61.9552 54.3963 63.1189 53.9795 64.4645C53.6262 65.6049 53.6219 66.8214 53.3702 67.9871C52.7778 70.7249 50.8863 72.9654 49.5619 75.4302C48.1119 78.1179 47.3147 81.109 47.2346 84.1618C47.2029 85.3973 47.3065 86.69 47.9412 87.7585C48.576 88.8269 49.875 89.5653 51.0619 89.2183L51.4491 85.7845C51.8342 82.3761 52.3356 78.7075 54.7009 76.2215C56.2708 79.3951 54.3095 83.8571 56.7574 86.4129C57.1806 86.8529 57.7772 87.2063 58.378 87.0899C59.1503 86.9376 59.5734 86.1082 59.804 85.355C60.9613 81.5975 60.2103 77.4613 61.302 73.6826C61.8224 71.8885 62.7385 70.2425 63.5425 68.5563C64.3719 66.8129 66.9276 63.7705 67.5158 61.932C67.9707 60.5187 68.0384 60.8212 67.6322 59.3931C67.1646 57.7492 64.247 56.0355 63.4981 54.5481C62.5439 52.6779 62.7787 48.9013 60.3626 48.7194C59.0678 48.622 58.2469 48.8146 57.0748 49.4704C54.593 50.8351 52.9449 49.646 53.5754 52.2166Z" fill="url(#paint18_linear)" fill-opacity="0.5"/>
<path d="M65.2293 66.2566C63.8012 68.5352 64.0191 71.4232 64.0636 74.1122L65.2293 66.2566Z" fill="url(#paint19_linear)"/>
<path d="M87.6572 82.5156C86.7073 70.5746 79.5604 61.403 71.6984 62.025C63.8364 62.647 58.2404 72.8447 59.1924 84.7858C60.1445 96.7268 67.2808 105.892 75.1491 105.27C83.0175 104.648 88.6093 94.4673 87.6572 82.5156ZM73.3063 100.343C69.4981 98.466 66.3055 91.8798 65.6665 83.8189C64.9789 75.2714 67.4035 67.9024 71.2478 65.9031C75.056 67.7797 78.2571 74.3765 78.8961 82.4268C79.5837 90.9742 77.1569 98.3433 73.3063 100.343Z" fill="#606161"/>
<path d="M87.6572 82.5156C86.7073 70.5746 79.5604 61.403 71.6984 62.025C63.8364 62.647 58.2404 72.8447 59.1924 84.7858C60.1445 96.7268 67.2808 105.892 75.1491 105.27C83.0175 104.648 88.6093 94.4673 87.6572 82.5156ZM73.3063 100.343C69.4981 98.466 66.3055 91.8798 65.6665 83.8189C64.9789 75.2714 67.4035 67.9024 71.2478 65.9031C75.056 67.7797 78.2571 74.3765 78.8961 82.4268C79.5837 90.9742 77.1569 98.3433 73.3063 100.343Z" fill="url(#paint20_linear)"/>
<path d="M73.307 100.343C72.758 100.644 72.1517 100.825 71.5277 100.876C66.6848 101.261 62.1191 93.6231 61.3405 83.8189C60.5619 74.0147 63.8561 65.7634 68.7011 65.3784C69.5796 65.315 70.4585 65.4966 71.2399 65.9031C67.3957 67.9024 64.9711 75.2714 65.6587 83.8189C66.3061 91.8776 69.5029 98.466 73.307 100.343Z" fill="#606161"/>
<path d="M73.307 100.343C72.758 100.644 72.1517 100.825 71.5277 100.876C66.6848 101.261 62.1191 93.6231 61.3405 83.8189C60.5619 74.0147 63.8561 65.7634 68.7011 65.3784C69.5796 65.315 70.4585 65.4966 71.2399 65.9031C67.3957 67.9024 64.9711 75.2714 65.6587 83.8189C66.3061 91.8776 69.5029 98.466 73.307 100.343Z" fill="url(#paint21_linear)"/>
<path d="M61.3341 44.0098C64.1035 44.0352 66.7736 44.9788 69.3738 45.914C69.5574 45.9555 69.7194 46.0632 69.8286 46.2165C69.8745 46.3343 69.876 46.4647 69.8327 46.5834C69.7895 46.7021 69.7046 46.8011 69.5938 46.8618C69.3658 46.9745 69.1104 47.0199 68.8575 46.993C66.5408 46.9337 64.3976 45.8907 62.1063 45.6601C61.4018 45.5903 59.7304 45.9415 59.4194 45.0381C59.0978 44.0839 60.7353 44.0035 61.3341 44.0098Z" fill="#6E71FF"/>
<path d="M51.4389 33.0925C51.4242 33.6601 51.2387 34.21 50.9065 34.6705C50.5744 35.131 50.1111 35.4806 49.5771 35.6736C49.2417 35.7594 48.9112 35.8632 48.5869 35.9846C48.3734 36.0632 48.1899 36.2068 48.0623 36.3951C47.9205 36.6321 47.8541 36.9066 47.8718 37.1821C47.8718 37.8782 48.0369 38.5743 48.094 39.2725C48.0982 39.3429 48.0982 39.4136 48.094 39.484C48.1194 40.1187 48.003 40.7873 47.5947 41.2718C47.4695 41.4363 47.3013 41.5628 47.1086 41.6375C46.9159 41.7122 46.7063 41.7321 46.503 41.6949C46.1348 41.5976 45.8894 41.2612 45.6842 40.9502C44.8802 39.7145 44.2434 38.3778 43.7906 36.9748C43.7337 36.7865 43.663 36.6026 43.5791 36.4247C43.5249 36.3305 43.4782 36.2322 43.4394 36.1306C43.4176 35.9769 43.4292 35.8204 43.4733 35.6715C43.6118 35.1233 43.7842 34.5841 43.9895 34.0572C44.1409 33.7457 44.2355 33.4097 44.2688 33.065C44.2857 32.4091 43.833 31.8442 43.6954 31.1968C43.5706 30.6065 43.7272 29.9993 43.8922 29.4175C43.9541 29.1503 44.0654 28.897 44.2201 28.6706C44.3818 28.4764 44.5821 28.3178 44.8083 28.2052C46.0566 27.5091 47.5376 27.3991 48.9635 27.4435C49.3399 27.4422 49.7139 27.5037 50.0701 27.6255C50.2454 27.6915 50.4036 27.7965 50.5326 27.9324C50.6616 28.0684 50.7581 28.2318 50.8148 28.4104C50.9142 28.8039 50.8148 29.2567 50.8571 29.6566C50.8804 29.9358 50.9375 30.2066 50.9798 30.4859C51.0941 31.3534 51.4474 32.2144 51.4389 33.0925Z" fill="url(#paint22_linear)"/>
<path d="M44.7878 29.6632C44.8026 30.3412 44.8812 31.0163 45.0227 31.6795L44.3647 30.7126C44.3337 30.652 44.291 30.5982 44.2391 30.5543C44.1871 30.5103 44.127 30.4771 44.0621 30.4566C43.983 30.4523 43.9048 30.4757 43.8411 30.5228C43.7774 30.57 43.7321 30.6378 43.713 30.7147C43.6798 30.8699 43.6915 31.0314 43.7469 31.1802C43.9585 31.8953 44.4006 32.5512 44.4218 33.2959C44.4218 33.48 44.3774 33.7 44.2102 33.7592C43.99 33.114 43.7132 32.4896 43.383 31.8932C43.0318 31.2585 42.6192 30.6618 42.3442 29.989C42.0692 29.3184 41.9373 28.5978 41.957 27.8733C41.9501 27.6363 42.0048 27.4016 42.1157 27.1921C42.2066 27.0461 42.3421 26.9318 42.4288 26.7816C42.5155 26.6314 42.5388 26.4748 42.6129 26.3289C42.8244 25.9057 43.3322 25.7428 43.7934 25.6391C44.7668 25.4204 45.7584 25.2922 46.7554 25.2562C47.3323 25.2129 47.9124 25.2629 48.4734 25.4043C49.0387 25.5473 49.5309 25.8948 49.8549 26.3796C49.9755 26.5764 50.0665 26.8028 50.1892 26.989C50.296 27.1242 50.3949 27.2655 50.4854 27.4121C50.5304 27.4847 50.5567 27.5674 50.5619 27.6527C50.567 27.738 50.5509 27.8233 50.515 27.9008C50.3733 28.1463 50.02 28.1336 49.7407 28.087C48.8627 27.941 47.9487 27.7845 47.0918 28.0278C46.7656 28.1552 46.4285 28.2529 46.0847 28.3197C45.8414 28.3451 45.6108 28.2563 45.3718 28.2668C44.7413 28.2859 44.7878 29.2041 44.7878 29.6632Z" fill="#6E71FF"/>
<path d="M44.7878 29.6632C44.8026 30.3412 44.8812 31.0163 45.0227 31.6795L44.3647 30.7126C44.3337 30.652 44.291 30.5982 44.2391 30.5543C44.1871 30.5103 44.127 30.4771 44.0621 30.4566C43.983 30.4523 43.9048 30.4757 43.8411 30.5228C43.7774 30.57 43.7321 30.6378 43.713 30.7147C43.6798 30.8699 43.6915 31.0314 43.7469 31.1802C43.9585 31.8953 44.4006 32.5512 44.4218 33.2959C44.4218 33.48 44.3774 33.7 44.2102 33.7592C43.99 33.114 43.7132 32.4896 43.383 31.8932C43.0318 31.2585 42.6192 30.6618 42.3442 29.989C42.0692 29.3184 41.9373 28.5978 41.957 27.8733C41.9501 27.6363 42.0048 27.4016 42.1157 27.1921C42.2066 27.0461 42.3421 26.9318 42.4288 26.7816C42.5155 26.6314 42.5388 26.4748 42.6129 26.3289C42.8244 25.9057 43.3322 25.7428 43.7934 25.6391C44.7668 25.4204 45.7584 25.2922 46.7554 25.2562C47.3323 25.2129 47.9124 25.2629 48.4734 25.4043C49.0387 25.5473 49.5309 25.8948 49.8549 26.3796C49.9755 26.5764 50.0665 26.8028 50.1892 26.989C50.296 27.1242 50.3949 27.2655 50.4854 27.4121C50.5304 27.4847 50.5567 27.5674 50.5619 27.6527C50.567 27.738 50.5509 27.8233 50.515 27.9008C50.3733 28.1463 50.02 28.1336 49.7407 28.087C48.8627 27.941 47.9487 27.7845 47.0918 28.0278C46.7656 28.1552 46.4285 28.2529 46.0847 28.3197C45.8414 28.3451 45.6108 28.2563 45.3718 28.2668C44.7413 28.2859 44.7878 29.2041 44.7878 29.6632Z" fill="url(#paint23_linear)"/>
<path d="M61.9796 47.71C61.9866 47.9226 61.9201 48.1311 61.7913 48.3003C61.529 48.66 61.0445 48.9075 60.6192 49.0789C59.6354 49.464 58.6029 49.8575 57.5536 49.7263C56.7834 49.629 56.0726 49.2503 55.3976 48.88C54.8327 48.5775 54.2657 48.2728 53.7051 47.9618C52.6726 47.4054 51.6232 46.8236 50.8764 45.9138C49.7952 44.6021 50.8764 43.7008 51.8115 42.7402C52.0201 42.5244 52.245 42.3249 52.4843 42.1436C53.3245 41.4759 54.319 41.0299 55.3765 40.8467C56.0726 40.7324 56.8279 40.7409 57.4668 41.0582C57.9123 41.3247 58.3041 41.672 58.622 42.0822C59.9305 43.6036 61.0051 45.3114 61.8104 47.1494C61.9032 47.3233 61.9607 47.5138 61.9796 47.71Z" fill="#6E71FF"/>
<path d="M61.9796 47.71C61.9866 47.9226 61.9201 48.1311 61.7913 48.3003C61.5885 48.4211 61.3762 48.5251 61.1566 48.6113C60.1727 49.0049 59.1382 49.3984 58.0909 49.2672C57.3123 49.1699 56.6099 48.7912 55.9265 48.4209C55.3616 48.1184 54.8031 47.8052 54.2339 47.5027C53.2099 46.9463 52.1521 46.356 51.4137 45.4547C50.3326 44.1345 51.4137 43.2417 52.3404 42.2811C52.3871 42.2325 52.4366 42.1866 52.4885 42.1436C53.3287 41.4759 54.3232 41.0299 55.3807 40.8467C56.0767 40.7324 56.832 40.7409 57.471 41.0582C57.9165 41.3247 58.3082 41.672 58.6262 42.0822C59.9347 43.6036 61.0092 45.3114 61.8145 47.1494C61.9059 47.3236 61.962 47.5141 61.9796 47.71Z" fill="url(#paint24_linear)"/>
<path d="M52.2305 48.3196L62.4726 79.8691C62.4726 79.8691 63.7822 83.8001 64.1927 84.5384C64.6031 85.2768 66.4036 84.7014 66.5686 84.3734C66.7337 84.0455 67.142 83.0638 67.142 83.0638L56.8194 54.6286L54.1981 47.2554C54.1981 47.2554 52.2305 46.682 52.2305 48.3196Z" fill="#6E71FF"/>
<path d="M52.2305 48.3196L62.4726 79.8691C62.4726 79.8691 63.7822 83.8001 64.1927 84.5384C64.6031 85.2768 66.4036 84.7014 66.5686 84.3734C66.7337 84.0455 67.142 83.0638 67.142 83.0638L56.8194 54.6286L54.1981 47.2554C54.1981 47.2554 52.2305 46.682 52.2305 48.3196Z" fill="url(#paint25_linear)"/>
<path d="M64.1602 62.2031C64.5141 61.7432 64.9308 61.3352 65.3978 60.9908C66.0008 60.5909 66.7202 60.4153 67.4247 60.2566C70.355 59.5986 73.5074 59.1353 76.2895 60.2566C76.6635 60.3804 76.9965 60.6043 77.2522 60.904C77.4849 61.2193 77.5378 61.6974 77.2776 61.9894C77.0491 62.2454 76.6682 62.2856 76.3255 62.3025C73.2873 62.457 70.154 62.2581 67.2999 63.3075C65.2921 64.0437 63.5529 65.3597 61.9281 66.7497C60.8702 67.6616 60.9231 65.9944 61.3992 65.3957C62.2687 64.3103 63.2546 63.2736 64.1602 62.2031Z" fill="#6E71FF"/>
<path d="M64.1602 62.2031C64.5141 61.7432 64.9308 61.3352 65.3978 60.9908C66.0008 60.5909 66.7202 60.4153 67.4247 60.2566C70.355 59.5986 73.5074 59.1353 76.2895 60.2566C76.6635 60.3804 76.9965 60.6043 77.2522 60.904C77.4849 61.2193 77.5378 61.6974 77.2776 61.9894C77.0491 62.2454 76.6682 62.2856 76.3255 62.3025C73.2873 62.457 70.154 62.2581 67.2999 63.3075C65.2921 64.0437 63.5529 65.3597 61.9281 66.7497C60.8702 67.6616 60.9231 65.9944 61.3992 65.3957C62.2687 64.3103 63.2546 63.2736 64.1602 62.2031Z" fill="url(#paint26_linear)"/>
<path d="M46.6912 56.8203C45.2102 57.6793 43.6551 58.6906 41.9372 58.6229C41.5644 58.5771 41.1877 58.5714 40.8137 58.6059C40.4435 58.6736 40.0711 58.9191 40.0055 59.2893C39.8807 59.9812 40.8095 60.3472 41.5119 60.3218C42.7813 60.2647 44.0973 59.7907 45.2567 60.2922C45.6785 60.4977 46.0671 60.7651 46.4098 61.0856L51.2061 65.1435C51.553 65.4376 51.9127 65.7486 52.0756 66.1717C52.2385 66.5949 52.1751 67.0709 52.2343 67.5216C52.2935 67.9722 52.5517 68.4715 53.0023 68.5308C53.6836 68.6175 54.0094 67.7437 54.1765 67.0773C54.4264 66.0768 54.8527 65.129 55.4354 64.2782C55.8479 63.6773 56.343 63.1145 56.5927 62.4311C56.8423 61.7478 56.7767 60.874 56.2034 60.4255C56.1279 60.3602 56.0403 60.3105 55.9455 60.2792C55.8507 60.248 55.7507 60.2359 55.6512 60.2435C55.4515 60.2884 55.2697 60.3915 55.1286 60.5397C54.0533 61.4955 53.1788 62.6555 52.5559 63.9523L47.7003 59.8902C47.4486 59.6786 47.1778 59.4353 47.146 59.1095C47.1037 58.6567 47.529 58.314 47.914 58.0707C49.4498 57.1027 51.0691 56.2743 52.7527 55.5953C53.2583 55.3837 54.9339 54.7892 54.7647 53.9895C54.5954 53.1897 52.6998 54.1185 52.2068 54.292C50.2932 54.9604 48.4466 55.8068 46.6912 56.8203Z" fill="#6E71FF"/>
<path d="M51.8151 69.9548C50.8292 70.8413 50.2516 72.0853 49.7332 73.3061C48.3565 76.5377 47.2035 79.8601 46.2825 83.2499C45.9059 84.6357 45.5653 86.0829 45.8171 87.4962C46.0688 88.9094 47.0696 90.2847 48.485 90.5385C48.7389 90.583 49.0562 90.5639 49.1874 90.3397C49.3186 90.1154 49.1726 89.8213 49.0435 89.5844C48.4257 88.4525 48.2649 87.128 48.2269 85.8374C48.1011 81.2366 49.3625 76.7044 51.8468 72.8301C52.4244 71.933 53.1163 71.0402 54.0874 70.6086C54.703 70.3356 56.7214 69.6798 55.4076 69.0472C54.3074 68.514 52.6148 69.227 51.8151 69.9548Z" fill="#6E71FF"/>
<path d="M55.1137 70.8477C54.5509 71.9437 53.8802 73.1052 54.0558 74.3217C54.1158 74.7215 54.2671 75.102 54.4981 75.4337C54.7291 75.7654 55.0335 76.0394 55.3877 76.2343C55.7418 76.4292 56.1361 76.5397 56.54 76.5573C56.9438 76.5749 57.3463 76.4992 57.716 76.3359C58.0545 76.1878 58.3507 75.9677 58.6935 75.8175C59.0547 75.6574 59.4461 75.577 59.8411 75.5818C60.2361 75.5865 60.6255 75.6763 60.9827 75.845C61.0187 75.4769 60.714 75.1426 60.3628 75.0199C60.0029 74.9252 59.6266 74.9107 59.2605 74.9776L57.3183 75.1892C56.7026 75.2569 56.0256 75.3076 55.5199 74.9522C54.936 74.5418 54.7963 73.7314 54.8492 73.0206C54.9487 71.7046 55.5305 70.4648 56.2604 69.3625C56.7238 68.6643 57.2569 67.9936 57.5299 67.2002C57.7647 66.5211 57.8303 65.5288 57.2146 65.0845C56.4424 66.9633 56.0637 68.988 55.1137 70.8477Z" fill="#6E71FF"/>
<path d="M44.9221 63.5546C44.8554 63.7272 44.8051 63.9057 44.7719 64.0878C44.7599 64.2559 44.767 64.4248 44.793 64.5913L45.2098 67.9405C45.233 68.2789 45.3042 68.6123 45.4214 68.9307C45.5082 69.1422 45.633 69.3263 45.7091 69.5357C45.8087 69.8958 45.8324 70.2726 45.779 70.6423L45.5251 73.9449C45.5253 74.0908 45.4943 74.2351 45.4341 74.368C45.2225 74.7573 44.5984 74.6981 44.3085 74.368C44.0187 74.038 43.97 73.5619 43.9362 73.124L43.769 70.9448C43.701 70.3305 43.6975 69.7107 43.7585 69.0957C43.8135 68.6873 43.9256 68.2896 43.9891 67.8834C44.3339 65.664 43.2211 63.415 43.5321 61.1914C43.5454 61.0162 43.5997 60.8466 43.6908 60.6963C44.0927 60.1272 44.9602 60.4636 45.1718 60.9714C45.4531 61.5786 45.1231 62.9432 44.9221 63.5546Z" fill="#6E71FF"/>
<path d="M38.8836 73.9153C38.1431 74.6939 37.6671 75.6798 37.2185 76.653C36.9962 77.1127 36.8019 77.5853 36.6367 78.0684C36.1289 79.6298 36.1945 81.3182 36.3447 82.9536C36.3997 83.5312 36.4717 84.1321 36.7954 84.6123C36.9511 84.8432 37.1586 85.0345 37.4013 85.171C37.6439 85.3076 37.9151 85.3857 38.1933 85.399C38.4714 85.4124 38.7488 85.3606 39.0034 85.2479C39.2581 85.1352 39.4829 84.9647 39.66 84.7499C39.9753 84.369 40.117 83.8803 40.2757 83.4106C40.7602 81.9719 41.4563 80.6136 42.0085 79.1982C42.5607 77.7828 42.9732 76.2743 42.8548 74.7552C42.7913 73.9724 42.4993 72.7559 41.5853 72.6797C40.5719 72.6036 39.55 73.2129 38.8836 73.9153Z" fill="url(#paint27_linear)"/>
<path d="M58.88 49.1912C58.623 49.4414 58.3847 49.7101 58.167 49.9952C57.6213 50.6398 57.2151 51.3904 56.9737 52.1997C56.5654 53.8225 57.3249 55.6251 58.6663 56.6131C60.0076 57.6012 61.8568 57.8043 63.4562 57.3113C63.7494 57.2367 64.022 57.0972 64.2539 56.903C64.4687 56.6718 64.6362 56.4009 64.7468 56.1053C65.0282 55.4812 65.3138 54.8359 65.3583 54.1568C65.3761 53.5283 65.2607 52.9032 65.0198 52.3225C64.5058 50.9436 63.6938 49.6953 62.6417 48.6665C62.007 48.0487 61.7235 47.852 60.8412 48.091C60.1084 48.2943 59.4355 48.6718 58.88 49.1912Z" fill="#6E71FF"/>
<path d="M63.4036 57.5991C65.8971 57.5991 67.9185 55.4394 67.9185 52.7752C67.9185 50.1111 65.8971 47.9514 63.4036 47.9514C60.9101 47.9514 58.8887 50.1111 58.8887 52.7752C58.8887 55.4394 60.9101 57.5991 63.4036 57.5991Z" fill="#6E71FF"/>
<path d="M63.4036 57.5991C65.8971 57.5991 67.9185 55.4394 67.9185 52.7752C67.9185 50.1111 65.8971 47.9514 63.4036 47.9514C60.9101 47.9514 58.8887 50.1111 58.8887 52.7752C58.8887 55.4394 60.9101 57.5991 63.4036 57.5991Z" fill="url(#paint28_linear)"/>
<path d="M63.6862 57.1399C65.9577 57.1399 67.7991 55.1734 67.7991 52.7477C67.7991 50.3219 65.9577 48.3555 63.6862 48.3555C61.4147 48.3555 59.5732 50.3219 59.5732 52.7477C59.5732 55.1734 61.4147 57.1399 63.6862 57.1399Z" fill="url(#paint29_linear)"/>
<path d="M44.1797 30.4121L45.4195 29.8345L51.4197 29.5468C51.4197 29.5468 51.536 30.7866 51.3054 31.0468C51.0748 31.307 50.036 31.0764 49.7757 30.5559L49.5155 29.9784L49.0543 30.0651C49.0543 30.0651 49.1114 31.4213 48.1318 31.508C47.1523 31.5948 46.2573 31.6244 46.141 31.3345C45.9265 30.944 45.6854 30.5686 45.4195 30.2111L44.3616 30.7125L44.1797 30.4121Z" fill="#606161"/>
<path d="M44.1797 30.4121L45.4195 29.8345L51.4197 29.5468C51.4197 29.5468 51.536 30.7866 51.3054 31.0468C51.0748 31.307 50.036 31.0764 49.7757 30.5559L49.5155 29.9784L49.0543 30.0651C49.0543 30.0651 49.1114 31.4213 48.1318 31.508C47.1523 31.5948 46.2573 31.6244 46.141 31.3345C45.9265 30.944 45.6854 30.5686 45.4195 30.2111L44.3616 30.7125L44.1797 30.4121Z" fill="url(#paint30_linear)"/>
<path d="M37.7754 43.8722C37.7597 44.1195 37.695 44.3611 37.585 44.5831C37.5283 44.6937 37.4443 44.7881 37.3411 44.8574C37.2378 44.9266 37.1186 44.9683 36.9947 44.9787C36.726 44.9787 36.4721 44.7947 36.2055 44.837C36.1039 44.8629 36.0036 44.8939 35.9051 44.9301C35.6174 45.0041 35.3127 44.8708 35.0186 44.9174C34.8832 44.9364 34.7584 44.9957 34.6251 45.0274C34.3737 45.0795 34.1119 45.041 33.8861 44.9186C33.6604 44.7963 33.4852 44.598 33.3916 44.3588C33.307 44.1176 33.307 43.8426 33.1674 43.6268C33.051 43.4491 32.8373 43.2883 32.886 43.081C32.9109 42.9988 32.9585 42.9254 33.0235 42.8694C33.8698 42.0569 35.0631 42.1056 36.1442 41.9892C37.3015 41.875 37.9002 42.7932 37.7754 43.8722Z" fill="url(#paint31_linear)"/>
<path d="M63.0918 43.3456C63.4597 43.2962 63.8333 43.3105 64.1963 43.3879C64.79 43.4897 65.3754 43.6347 65.9481 43.8216C66.1901 43.8911 66.4231 43.9891 66.642 44.1136C66.9216 44.2869 67.1525 44.5286 67.3128 44.8158C67.4731 45.1031 67.5575 45.4264 67.5581 45.7554C67.5673 46.0209 67.4851 46.2815 67.3254 46.4938C66.9763 46.9169 66.3289 46.8958 65.783 46.8344C65.1991 46.7709 64.5348 46.6588 64.2259 46.1595C64.0355 45.8527 64.0312 45.4719 63.9847 45.1016C63.9381 44.7314 63.8091 44.3527 63.4875 44.1898C63.2653 44.0755 62.3619 44.1898 62.2921 43.9041C62.2117 43.5868 62.8507 43.3879 63.0918 43.3456Z" fill="url(#paint32_linear)"/>
<path d="M67.002 72.7242C70.1755 72.4851 73.3681 74.7891 74.1361 77.8844C73.5612 77.2632 72.8109 76.8315 71.9848 76.6467C71.1588 76.4619 70.296 76.5328 69.5112 76.8499C71.1509 77.961 72.3868 79.5731 73.0338 81.4452L72.3335 81.0432C72.7845 82.6884 72.8989 84.4076 72.6698 86.0981C72.4408 87.7885 71.8731 89.4153 71.0006 90.8812L73.201 87.2443C73.1185 88.6872 72.8731 90.1725 72.0818 91.3805C71.2905 92.5886 69.837 93.4603 68.4152 93.1979C69.3788 93.5573 70.4112 93.6938 71.435 93.597C72.4588 93.5003 73.4474 93.1729 74.3265 92.6394C73.847 93.7085 73.3181 94.7544 72.7398 95.777C74.3745 93.7305 75.5724 91.3705 76.2594 88.8429C76.9464 86.3154 77.108 83.6738 76.7342 81.0813C76.9049 82.9219 76.8851 84.7752 76.675 86.6117C77.4743 84.0459 77.6726 81.3305 77.2543 78.6758C76.8361 76.0211 75.8126 73.4982 74.2631 71.3025C74.5837 72.6653 74.6132 74.0805 74.3498 75.4556C73.5205 73.4901 72.3886 71.2686 70.294 70.8603C70.8145 71.0465 71.3519 71.0084 71.6883 70.6847C69.9957 70.2467 67.9561 71.3003 67.002 72.7242Z" fill="url(#paint33_linear)" fill-opacity="0.5"/>
<path d="M42.6311 33.9581C42.1805 34.2205 41.9964 34.8044 42.0303 35.3143C42.0641 35.8242 42.2567 36.3277 42.3921 36.8313C42.6054 37.7579 42.7168 38.705 42.7242 39.6558C43.5406 39.5283 44.3754 39.7004 45.0748 40.1403C44.7109 39.2136 44.4972 32.8685 42.6311 33.9581Z" fill="#6E71FF"/>
<path d="M51.2467 38.56C50.1339 38.6382 49.2643 39.5882 48.1747 39.8294C48.0555 39.5433 47.9958 39.2359 47.9991 38.926L47.906 37.354C47.8912 37.0768 47.8574 36.5373 48.0986 36.3321C48.4604 36.0211 48.7544 36.3787 49.1035 36.6283C49.888 37.1899 50.607 37.8378 51.2467 38.56Z" fill="#6E71FF"/>
<path d="M42.6311 33.9581C42.1805 34.2205 41.9964 34.8044 42.0303 35.3143C42.0641 35.8242 42.2567 36.3277 42.3921 36.8313C42.6054 37.7579 42.7168 38.705 42.7242 39.6558C43.5406 39.5283 44.3754 39.7004 45.0748 40.1403C44.7109 39.2136 44.4972 32.8685 42.6311 33.9581Z" fill="url(#paint34_linear)"/>
<path d="M51.2467 38.56C50.1339 38.6382 49.2643 39.5882 48.1747 39.8294C48.0555 39.5433 47.9958 39.2359 47.9991 38.926L47.906 37.354C47.8912 37.0768 47.8574 36.5373 48.0986 36.3321C48.4604 36.0211 48.7544 36.3787 49.1035 36.6283C49.888 37.1899 50.607 37.8378 51.2467 38.56Z" fill="url(#paint35_linear)"/>
<path d="M48.5451 36.6004C48.379 37.1244 48.3342 37.6793 48.4139 38.2232C48.471 38.445 48.4987 38.6733 48.4964 38.9023C48.4952 39.0181 48.4634 39.1314 48.4044 39.231C48.3453 39.3305 48.261 39.4128 48.16 39.4693C48.1422 39.4781 48.1228 39.4832 48.1029 39.4841C48.1071 39.4137 48.1071 39.343 48.1029 39.2726C48.0458 38.5744 47.8744 37.8783 47.8807 37.1822C47.863 36.9067 47.9294 36.6322 48.0712 36.3952C48.1988 36.2069 48.3823 36.0633 48.5959 35.9847C48.6108 35.9855 48.6251 35.9915 48.6361 36.0017C48.8074 36.1646 48.6191 36.3698 48.5451 36.6004Z" fill="url(#paint36_linear)"/>
<path d="M48.0619 36.3952C47.9202 36.6322 47.8538 36.9067 47.8715 37.1822C47.8715 37.8783 48.0365 38.5744 48.0937 39.2726C48.0978 39.343 48.0978 39.4137 48.0937 39.4841C47.9733 39.5075 47.8491 39.5027 47.7309 39.47C47.6127 39.4374 47.5037 39.3777 47.4124 39.2958C47.0276 38.9575 46.7276 38.5335 46.5365 38.0581C46.3786 37.7565 46.2762 37.4291 46.234 37.0913C46.2147 36.9205 46.2333 36.7476 46.2885 36.5848C46.3437 36.4221 46.4342 36.2735 46.5534 36.1498C46.856 35.879 47.3066 35.8536 47.7171 35.8959C47.8715 35.9107 48.3962 35.8959 48.5782 35.9847C48.3677 36.0648 48.1874 36.2082 48.0619 36.3952Z" fill="url(#paint37_linear)" fill-opacity="0.5"/>
</g>
<defs>
<linearGradient id="paint0_linear" x1="58.7857" y1="12.161" x2="93.9692" y2="194.042" gradientUnits="userSpaceOnUse">
<stop stop-color="#010101" stop-opacity="0"/>
<stop offset="0.95" stop-color="#010101"/>
</linearGradient>
<linearGradient id="paint1_linear" x1="47.4522" y1="43.8029" x2="88.173" y2="245.392" gradientUnits="userSpaceOnUse">
<stop stop-color="#010101" stop-opacity="0"/>
<stop offset="0.95" stop-color="#010101"/>
</linearGradient>
<linearGradient id="paint2_linear" x1="1.80013" y1="59.1765" x2="31.0496" y2="59.1765" gradientUnits="userSpaceOnUse">
<stop stop-color="white" stop-opacity="0"/>
<stop offset="0.95" stop-color="white"/>
</linearGradient>
<linearGradient id="paint3_linear" x1="1033.24" y1="5165.47" x2="1270.91" y2="6610.61" gradientUnits="userSpaceOnUse">
<stop stop-color="#010101" stop-opacity="0"/>
<stop offset="0.95" stop-color="#010101"/>
</linearGradient>
<linearGradient id="paint4_linear" x1="1825.1" y1="7528.14" x2="2385.7" y2="7032.59" gradientUnits="userSpaceOnUse">
<stop stop-color="#010101" stop-opacity="0"/>
<stop offset="0.95" stop-color="#010101"/>
</linearGradient>
<linearGradient id="paint5_linear" x1="36.3339" y1="56.5528" x2="30.4823" y2="55.6796" gradientUnits="userSpaceOnUse">
<stop offset="0.079127"/>
<stop offset="0.83" stop-opacity="0.07"/>
<stop offset="1" stop-opacity="0"/>
</linearGradient>
<linearGradient id="paint6_linear" x1="31.5066" y1="82.192" x2="31.8552" y2="66.2395" gradientUnits="userSpaceOnUse">
<stop stop-opacity="0"/>
<stop offset="0.639117" stop-opacity="0.75"/>
<stop offset="1"/>
</linearGradient>
<linearGradient id="paint7_linear" x1="32.3178" y1="84.5322" x2="32.4482" y2="75.6104" gradientUnits="userSpaceOnUse">
<stop stop-opacity="0"/>
<stop offset="0.639117" stop-opacity="0.75"/>
<stop offset="1"/>
</linearGradient>
<linearGradient id="paint8_linear" x1="33.3945" y1="75.5025" x2="34.328" y2="58.2574" gradientUnits="userSpaceOnUse">
<stop stop-opacity="0"/>
<stop offset="0.639117" stop-opacity="0.75"/>
<stop offset="1"/>
</linearGradient>
<linearGradient id="paint9_linear" x1="50.8269" y1="57.8037" x2="51.6478" y2="18.055" gradientUnits="userSpaceOnUse">
<stop stop-opacity="0"/>
<stop offset="0.639117" stop-opacity="0.75"/>
<stop offset="1"/>
</linearGradient>
<linearGradient id="paint10_linear" x1="864.762" y1="2588.48" x2="910.113" y2="2588.48" gradientUnits="userSpaceOnUse">
<stop stop-color="#010101" stop-opacity="0"/>
<stop offset="0.95" stop-color="#010101"/>
</linearGradient>
<linearGradient id="paint11_linear" x1="3877.02" y1="3032.44" x2="3365.16" y2="2620.67" gradientUnits="userSpaceOnUse">
<stop stop-color="#010101" stop-opacity="0"/>
<stop offset="0.95" stop-color="#010101"/>
</linearGradient>
<linearGradient id="paint12_linear" x1="5335.37" y1="534.373" x2="5334.45" y2="580.339" gradientUnits="userSpaceOnUse">
<stop stop-color="white" stop-opacity="0"/>
<stop offset="0.95" stop-color="white"/>
</linearGradient>
<linearGradient id="paint13_linear" x1="44.7992" y1="39.972" x2="31.871" y2="38.4837" gradientUnits="userSpaceOnUse">
<stop offset="0.079127"/>
<stop offset="0.83" stop-opacity="0.07"/>
<stop offset="1" stop-opacity="0"/>
</linearGradient>
<linearGradient id="paint14_linear" x1="44.4896" y1="42.0091" x2="32.1653" y2="39.6891" gradientUnits="userSpaceOnUse">
<stop offset="0.079127"/>
<stop offset="0.83" stop-opacity="0.07"/>
<stop offset="1" stop-opacity="0"/>
</linearGradient>
<linearGradient id="paint15_linear" x1="51.0754" y1="35.5501" x2="35.7031" y2="33.6442" gradientUnits="userSpaceOnUse">
<stop offset="0.079127"/>
<stop offset="0.83" stop-opacity="0.07"/>
<stop offset="1" stop-opacity="0"/>
</linearGradient>
<linearGradient id="paint16_linear" x1="64.5753" y1="62.5502" x2="70.474" y2="60.0443" gradientUnits="userSpaceOnUse">
<stop offset="0.02" stop-color="white" stop-opacity="0"/>
<stop offset="0.58" stop-color="white" stop-opacity="0.39"/>
<stop offset="1" stop-color="white"/>
</linearGradient>
<linearGradient id="paint17_linear" x1="57.2537" y1="95.2227" x2="61.2603" y2="13.3666" gradientUnits="userSpaceOnUse">
<stop stop-opacity="0"/>
<stop offset="0.639117" stop-opacity="0.75"/>
<stop offset="1"/>
</linearGradient>
<linearGradient id="paint18_linear" x1="58.0501" y1="101.25" x2="64.9889" y2="14.098" gradientUnits="userSpaceOnUse">
<stop stop-opacity="0"/>
<stop offset="0.639117" stop-opacity="0.75"/>
<stop offset="1"/>
</linearGradient>
<linearGradient id="paint19_linear" x1="485.318" y1="2408.97" x2="492.168" y2="2408.97" gradientUnits="userSpaceOnUse">
<stop stop-color="#010101" stop-opacity="0"/>
<stop offset="0.95" stop-color="#010101"/>
</linearGradient>
<linearGradient id="paint20_linear" x1="92.0248" y1="34.6499" x2="54.3194" y2="31.5" gradientUnits="userSpaceOnUse">
<stop offset="0.079127"/>
<stop offset="0.83" stop-opacity="0.07"/>
<stop offset="1" stop-opacity="0"/>
</linearGradient>
<linearGradient id="paint21_linear" x1="80.9403" y1="41.5188" x2="61.0255" y2="41.2132" gradientUnits="userSpaceOnUse">
<stop offset="0.079127"/>
<stop offset="0.83" stop-opacity="0.07"/>
<stop offset="1" stop-opacity="0"/>
</linearGradient>
<linearGradient id="paint22_linear" x1="43.4331" y1="34.5798" x2="51.4389" y2="34.5798" gradientUnits="userSpaceOnUse">
<stop stop-color="#E5C6D6"/>
<stop offset="0.42" stop-color="#EAD4D0"/>
<stop offset="1" stop-color="#F0E9CB"/>
</linearGradient>
<linearGradient id="paint23_linear" x1="47.2252" y1="34.6865" x2="47.7744" y2="17.8992" gradientUnits="userSpaceOnUse">
<stop stop-opacity="0"/>
<stop offset="0.639117" stop-opacity="0.75"/>
<stop offset="1"/>
</linearGradient>
<linearGradient id="paint24_linear" x1="57.7079" y1="50.2197" x2="58.1366" y2="33.435" gradientUnits="userSpaceOnUse">
<stop stop-opacity="0"/>
<stop offset="0.639117" stop-opacity="0.75"/>
<stop offset="1"/>
</linearGradient>
<linearGradient id="paint25_linear" x1="55.3506" y1="66.1502" x2="60.0351" y2="64.7365" gradientUnits="userSpaceOnUse">
<stop offset="0.02" stop-color="white" stop-opacity="0"/>
<stop offset="0.58" stop-color="white" stop-opacity="0.39"/>
<stop offset="1" stop-color="white"/>
</linearGradient>
<linearGradient id="paint26_linear" x1="63.9003" y1="71.5502" x2="73.6612" y2="58.2788" gradientUnits="userSpaceOnUse">
<stop offset="0.02" stop-color="white" stop-opacity="0"/>
<stop offset="0.58" stop-color="white" stop-opacity="0.39"/>
<stop offset="1" stop-color="white"/>
</linearGradient>
<linearGradient id="paint27_linear" x1="43.8619" y1="64.6362" x2="35.1096" y2="64.0603" gradientUnits="userSpaceOnUse">
<stop offset="0.079127"/>
<stop offset="0.83" stop-opacity="0.07"/>
<stop offset="1" stop-opacity="0"/>
</linearGradient>
<linearGradient id="paint28_linear" x1="56.2502" y1="56.4748" x2="63.6319" y2="52.6344" gradientUnits="userSpaceOnUse">
<stop offset="0.02" stop-color="white" stop-opacity="0"/>
<stop offset="0.58" stop-color="white" stop-opacity="0.39"/>
<stop offset="1" stop-color="white"/>
</linearGradient>
<linearGradient id="paint29_linear" x1="63.7014" y1="62.6887" x2="64.2745" y2="52.2807" gradientUnits="userSpaceOnUse">
<stop offset="0.02" stop-color="white" stop-opacity="0"/>
<stop offset="0.58" stop-color="white" stop-opacity="0.39"/>
<stop offset="1" stop-color="white"/>
</linearGradient>
<linearGradient id="paint30_linear" x1="2016.64" y1="227.034" x2="2019.64" y2="286.643" gradientUnits="userSpaceOnUse">
<stop stop-color="#010101" stop-opacity="0"/>
<stop offset="0.95" stop-color="#010101"/>
</linearGradient>
<linearGradient id="paint31_linear" x1="1028.79" y1="570.708" x2="1142.86" y2="570.708" gradientUnits="userSpaceOnUse">
<stop stop-color="#E5C6D6"/>
<stop offset="0.42" stop-color="#EAD4D0"/>
<stop offset="1" stop-color="#F0E9CB"/>
</linearGradient>
<linearGradient id="paint32_linear" x1="1864.35" y1="681.188" x2="1995.77" y2="681.188" gradientUnits="userSpaceOnUse">
<stop stop-color="#E5C6D6"/>
<stop offset="0.42" stop-color="#EAD4D0"/>
<stop offset="1" stop-color="#F0E9CB"/>
</linearGradient>
<linearGradient id="paint33_linear" x1="72.2542" y1="111.69" x2="75.914" y2="82.2051" gradientUnits="userSpaceOnUse">
<stop offset="0.02" stop-color="white" stop-opacity="0"/>
<stop offset="0.58" stop-color="white" stop-opacity="0.39"/>
<stop offset="1" stop-color="white"/>
</linearGradient>
<linearGradient id="paint34_linear" x1="43.8928" y1="40.8269" x2="44.74" y2="28.4409" gradientUnits="userSpaceOnUse">
<stop stop-opacity="0"/>
<stop offset="0.639117" stop-opacity="0.75"/>
<stop offset="1"/>
</linearGradient>
<linearGradient id="paint35_linear" x1="49.9473" y1="40.2233" x2="50.2018" y2="33.0938" gradientUnits="userSpaceOnUse">
<stop stop-opacity="0"/>
<stop offset="0.639117" stop-opacity="0.75"/>
<stop offset="1"/>
</linearGradient>
<linearGradient id="paint36_linear" x1="272.308" y1="559.178" x2="287.23" y2="555.628" gradientUnits="userSpaceOnUse">
<stop stop-color="#010101" stop-opacity="0"/>
<stop offset="0.95" stop-color="#010101"/>
</linearGradient>
<linearGradient id="paint37_linear" x1="48.9277" y1="33.5943" x2="45.8348" y2="33.3407" gradientUnits="userSpaceOnUse">
<stop offset="0.079127"/>
<stop offset="0.83" stop-opacity="0.07"/>
<stop offset="1" stop-opacity="0"/>
</linearGradient>
<clipPath id="clip0">
<path d="M0 0H108V108H0V0Z" fill="white"/>
</clipPath>
</defs>
</svg>
