<svg width="315" height="315" viewBox="0 0 315 315" fill="none" xmlns="http://www.w3.org/2000/svg">
<path opacity="0.18" d="M178.189 299.974C191.474 291.421 203.146 279.698 216.488 271.344C233.398 260.829 252.485 256.017 271.607 257.449C276.92 257.857 282.446 258.714 287.43 256.517C291.901 254.537 295.359 250.319 298.304 245.926C315.004 221.057 319.639 185.846 310.106 156.267C306.654 145.551 301.463 135.467 300.016 124.101C296.686 98.0093 313.885 72.9572 311.197 46.7652C309.343 28.7353 297.762 13.2847 283.558 5.92964C269.354 -1.42542 252.911 -1.38382 237.865 3.02589C221.429 7.82664 206.32 17.5197 190.033 22.9944C159.222 33.2948 126.257 27.8617 94.483 32.546C62.709 37.2302 28.0257 57.6064 21.7365 94.2819C17.9359 116.43 25.4444 139.877 20.6098 161.75C16.5383 180.146 4.20944 195.098 1.00067 213.735C-7.55607 263.806 40.8109 277.867 68.0855 296.338C101.45 318.927 143.92 322.047 178.189 299.974Z" fill="#6E71FF"/>
<path d="M196.097 208.435C196.507 212.208 196.899 216.111 195.766 219.762C193.762 226.175 187.532 230.219 181.537 233.233C169.443 239.315 156.373 243.541 143.764 248.517C139.53 250.198 134.79 252.568 133.779 257.004C133.326 258.99 133.718 261.125 133.012 263.025C132.306 264.924 129.614 266.318 128.289 264.767C127.794 264.04 127.549 263.171 127.592 262.293L127.043 252.15C126.86 248.761 126.677 245.301 127.531 242.008C128.385 238.714 130.433 235.56 133.561 234.235C134.615 233.8 135.748 233.573 136.82 233.155C140.793 231.613 143.224 227.692 145.62 224.154C151.258 215.85 158.691 208.104 168.275 205.281C165.266 200.648 163.244 195.444 162.335 189.994C161.426 184.545 161.651 178.966 162.995 173.607C164.398 168.153 167.238 162.724 172.127 159.927C174.011 158.853 176.147 158.3 178.316 158.326C180.485 158.352 182.607 158.956 184.465 160.075C188.822 162.89 189.458 167.978 190.608 172.684C193.509 184.421 194.808 196.445 196.097 208.435Z" fill="#3E3E54"/>
<path d="M196.097 208.888C196.507 212.669 196.899 216.564 195.766 220.215C193.762 226.628 187.532 230.671 181.537 233.695C169.443 239.803 156.373 244.012 143.764 249.013C139.53 250.686 134.79 253.056 133.779 257.5C133.326 259.478 133.718 261.622 133.012 263.521C132.306 265.421 129.614 266.806 128.289 265.264C127.794 264.537 127.549 263.668 127.592 262.789L127.043 252.647C126.86 249.248 126.677 245.798 127.531 242.504C128.385 239.211 130.433 236.056 133.561 234.732C134.615 234.287 135.748 234.07 136.82 233.651C140.793 232.1 143.224 228.179 145.62 224.65C151.258 216.347 158.691 208.6 168.275 205.777C165.266 201.142 163.244 195.937 162.335 190.486C161.427 185.035 161.652 179.455 162.995 174.095C164.398 168.641 167.238 163.221 172.127 160.424C174.011 159.349 176.147 158.797 178.316 158.823C180.485 158.849 182.607 159.453 184.465 160.572C188.822 163.386 189.458 168.475 190.608 173.18C193.509 184.908 194.808 196.924 196.097 208.888Z" fill="#3E3E54"/>
<path d="M196.097 208.888C196.507 212.669 196.899 216.564 195.766 220.215C193.762 226.628 187.532 230.671 181.537 233.695C169.443 239.803 156.373 244.012 143.764 249.013C139.53 250.686 134.79 253.056 133.779 257.5C133.326 259.478 133.718 261.622 133.012 263.521C132.306 265.421 129.614 266.806 128.289 265.264C127.794 264.537 127.549 263.668 127.592 262.789L127.043 252.647C126.86 249.248 126.677 245.798 127.531 242.504C128.385 239.211 130.433 236.056 133.561 234.732C134.615 234.287 135.748 234.07 136.82 233.651C140.793 232.1 143.224 228.179 145.62 224.65C151.258 216.347 158.691 208.6 168.275 205.777C165.266 201.142 163.244 195.937 162.335 190.486C161.427 185.035 161.652 179.455 162.995 174.095C164.398 168.641 167.238 163.221 172.127 160.424C174.011 159.349 176.147 158.797 178.316 158.823C180.485 158.849 182.607 159.453 184.465 160.572C188.822 163.386 189.458 168.475 190.608 173.18C193.509 184.908 194.808 196.924 196.097 208.888Z" fill="url(#paint0_linear)"/>
<path d="M174.184 161.47C174.188 169.269 172.33 176.955 168.764 183.89C166.908 187.489 164.59 190.922 163.536 194.808C156.365 220.469 127.271 234.716 105.557 250.949C96.7387 257.536 87.0581 264.228 83.1109 274.336C82.5794 275.712 82.0392 277.263 80.6973 277.952C78.7716 278.928 76.3406 277.333 75.6522 275.338C74.9639 273.342 75.5651 271.164 76.1489 269.125L79.2509 258.259C79.5063 257.019 80.0363 255.852 80.8019 254.844C81.7277 253.979 82.7832 253.264 83.93 252.726C91.9289 248.073 94.4471 238.253 98.6121 230.167C103.394 220.993 110.798 213.449 119.882 208.497C122.287 207.181 124.866 206.005 126.713 204.009C128.56 202.014 129.588 199.13 130.503 196.455C133.567 187.534 137.083 178.774 141.038 170.21C142.615 166.786 151.729 151.04 154.396 148.296C161.236 141.281 167.562 154.247 174.184 161.47Z" fill="#3E3E54"/>
<path d="M207.304 94.8995C207.304 96.0061 207.225 97.1475 207.225 98.2977C207.225 101.983 206.877 106.044 204.263 108.641C202.268 110.619 199.375 111.307 196.708 112.178C177.399 118.487 165.061 137.125 147.965 148.086C144.341 150.404 140.123 152.443 135.932 151.964C135.423 151.91 134.919 151.817 134.425 151.685C131.671 150.97 129.362 149.132 126.731 148.078C121.503 145.995 115.621 147.154 110.358 149.036C105.095 150.918 99.998 153.48 94.4563 154.264C88.9145 155.048 82.5886 153.567 79.4953 148.905C77.8223 146.361 77.317 143.233 76.01 140.488C71.235 130.581 57.5026 128.15 51.4381 119.036C51.3335 118.879 51.2202 118.713 51.1244 118.548C50.2195 117.081 49.5492 115.481 49.1377 113.808C49.0132 113.358 48.9143 112.901 48.8415 112.44C48.268 109.125 48.6146 105.716 49.8435 102.585L50.0004 102.175C51.1473 99.5743 52.8344 97.2472 54.9496 95.3483C57.0648 93.4494 59.5598 92.0222 62.2689 91.1614C69.8408 88.7826 78.014 90.8739 85.952 90.7257C94.2646 90.5689 102.586 87.9287 110.768 89.3577C117.146 90.4643 122.967 93.9671 128.805 96.8426C133.658 99.2213 138.564 101.199 143.914 101.025C148.671 100.894 153.211 99.0471 157.489 96.9384C165.331 93.0871 172.781 88.2773 181.015 85.245C187.176 82.9708 194.016 81.7596 200.542 82.9185C207.461 84.1907 207.469 89.0615 207.304 94.8995Z" fill="#6E71FF"/>
<path d="M195.373 103.796C193.552 105.939 190.738 106.889 188.15 107.987C176.587 112.91 173.991 127.688 165.382 137.073C160.075 142.85 142.962 149.829 142.727 147.964C142.369 145.394 138.37 151.049 135.956 151.964C135.447 151.91 134.943 151.817 134.449 151.685C131.696 150.97 129.386 149.132 126.755 148.078C121.527 145.995 115.645 147.154 110.382 149.036C105.12 150.918 100.022 153.48 94.4804 154.264C88.9387 155.048 82.6128 153.567 79.5195 148.905C77.8465 146.361 77.3411 143.233 76.0341 140.488C72.8624 133.892 65.7174 130.616 59.4786 126.468C56.3266 124.555 53.5915 122.027 51.4361 119.036C51.3315 118.879 51.2183 118.713 51.1224 118.548C50.2175 117.081 49.5472 115.482 49.1357 113.808C51.1092 111.673 53.5235 109.993 56.2111 108.885C63.5478 105.844 71.8952 107.22 79.7373 106.375C88.0064 105.504 96.0663 102.158 104.344 102.89C116.125 103.901 126.633 112.997 138.326 111.647C143.067 111.098 147.423 108.858 151.501 106.419C159.003 101.905 165.983 96.4679 173.903 92.7299C179.837 89.9416 186.547 88.1118 193.16 88.7304C194.563 88.8216 195.928 89.2203 197.16 89.898C197.229 90.9959 197.273 92.1374 197.377 93.2788C197.752 96.9036 197.752 100.982 195.373 103.796Z" fill="url(#paint1_linear)"/>
<path d="M172.058 128.899C166.751 134.676 151.285 144.888 145.151 149.611C143.094 151.205 138.363 151.048 135.941 151.963C135.432 151.91 134.928 151.817 134.433 151.685C131.68 150.97 129.371 149.131 126.739 148.077C121.511 145.995 115.63 147.154 110.367 149.036C105.104 150.918 100.006 153.479 94.4647 154.264C88.923 155.048 82.5971 153.567 79.5038 148.905C77.8308 146.361 77.3254 143.232 76.0184 140.488C72.8467 133.892 65.7017 130.615 59.4629 126.468C59.9822 126.061 60.6083 125.813 61.2655 125.754C61.9227 125.695 62.5828 125.828 63.1661 126.137C69.3178 130.337 77.6391 128.942 84.6534 126.442C91.6677 123.941 98.6733 120.464 106.097 120.952C114.462 121.492 121.694 126.999 129.876 128.899C135.862 130.264 142.129 129.652 147.739 127.156C150.797 125.797 164.346 112.875 167.048 114.844C168.041 115.567 178.375 109.372 178.715 110.557C178.976 111.472 172.058 127.975 172.058 128.899Z" fill="url(#paint2_linear)"/>
<path d="M269.6 52.9093C270.109 53.453 270.447 54.1348 270.571 54.8694C270.695 55.6039 270.599 56.3587 270.297 57.0395C269.668 58.3852 268.78 59.5934 267.683 60.5945C258.612 69.8918 246.3 78.4396 237.247 87.7282C232.507 92.599 231.426 93.54 226.407 98.132C223.122 101.138 219.707 104.048 216.979 107.569C214.496 110.793 212.265 119.123 210.436 122.756L201.26 141.054C198.123 147.293 194.969 153.567 190.804 159.17C190.08 160.306 189.09 161.248 187.92 161.914C186.767 162.372 185.535 162.597 184.295 162.577C177.882 162.942 171.312 164.006 165.126 162.237C158.939 160.468 153.284 154.665 154.347 148.295C154.857 146.126 155.742 144.062 156.961 142.196L168.053 122.634C171.399 116.744 174.737 110.854 178.196 105.024C180.906 100.467 183.764 95.8578 187.85 92.477C191.458 89.4883 195.823 87.6149 200.128 85.7764C209.25 81.8727 218.426 78.4135 226.86 73.1854C235.43 67.8545 244.373 63.1487 253.619 59.1046C258.859 56.8216 264.186 54.7565 269.6 52.9093Z" fill="white"/>
<path d="M225.031 86.4907C226.164 85.419 226.347 83.7111 227.053 82.3257C228.055 80.3564 230.05 79.1453 231.915 77.969C239.182 73.3091 245.726 67.6078 251.337 61.0475C243.295 63.0951 236.246 67.8265 229.379 72.4795L217.921 80.2345C213.373 83.319 208.755 86.4559 205.252 90.6906C204.954 91.0009 204.746 91.3865 204.651 91.8059C204.503 92.8602 205.644 93.5486 206.489 94.2108C210.079 97.0078 212.737 98.6721 214.558 93.4789C215.316 91.3092 216.135 89.9935 218.287 88.8782C220.439 87.7629 223.315 88.1114 225.031 86.4907Z" fill="url(#paint3_linear)" fill-opacity="0.3"/>
<path d="M206.898 101.957C208.049 102.359 209.137 102.923 210.13 103.63C210.6 103.979 211.109 104.271 211.647 104.501C211.915 104.616 212.204 104.674 212.496 104.674C212.788 104.674 213.077 104.616 213.346 104.501C213.459 104.446 213.553 104.358 213.616 104.248C213.672 104.094 213.672 103.924 213.616 103.769C212.93 101.706 212.055 99.7111 211.002 97.8093C210.885 97.5701 210.726 97.3544 210.531 97.1732C210.205 96.9569 209.825 96.8362 209.433 96.8246C208.299 96.7034 207.154 96.7297 206.026 96.9031C205.379 96.9744 204.77 97.2454 204.284 97.6786C203.935 98.0857 203.704 98.5794 203.613 99.1076C203.357 100.005 203.295 100.946 203.43 101.87C203.97 101.87 204.554 101.634 205.129 101.634C205.731 101.658 206.326 101.767 206.898 101.957Z" fill="url(#paint4_linear)"/>
<path d="M192.921 93.4165C192.015 95.6284 191.556 97.9974 191.57 100.387C191.373 102.13 191.603 103.894 192.241 105.528C192.288 105.656 192.369 105.767 192.476 105.851C192.659 105.935 192.865 105.953 193.06 105.903C194.151 105.756 195.259 105.815 196.328 106.077C196.4 106.089 196.466 106.123 196.519 106.173C196.574 106.234 196.607 106.31 196.615 106.391L197.016 108.465C198.55 116.307 195.805 125.177 189.418 129.995C187.261 131.447 184.957 132.665 182.543 133.629C178.343 135.572 174.23 137.986 171.137 141.393C168.044 144.8 166.04 149.496 166.623 154.097C172.438 151.147 177.593 147.048 181.776 142.046C184.747 138.482 187.239 134.448 190.821 131.503C192.938 129.76 195.413 128.427 197.234 126.371C200.719 122.45 201.146 116.786 201.408 111.558C201.765 104.239 201.608 95.7256 195.866 91.1859C195.282 91.5431 193.234 92.7456 192.921 93.4165Z" fill="url(#paint5_linear)" fill-opacity="0.3"/>
<path d="M277.565 43.49C279.169 42.9672 281.051 42.7581 282.427 43.7253C283.236 44.3598 283.842 45.2169 284.17 46.1912C285.041 48.4393 285.146 51.2189 283.612 53.0923C282.587 54.1654 281.329 54.9882 279.935 55.4972C277.097 56.9184 274.11 58.023 271.03 58.7908C269.166 59.1917 266.325 59.2875 265.34 57.205C264.469 55.3577 266.316 53.3188 267.327 51.9159C269.95 48.3086 273.235 44.9278 277.565 43.49Z" fill="url(#paint6_linear)"/>
<path d="M149.158 110.488C144.148 113.276 139.016 116.421 136.14 121.371C133.457 125.989 133.099 131.583 133.195 136.924C133.233 142.815 133.944 148.682 135.313 154.412C135.469 155.048 135.731 155.771 136.349 155.972C136.813 156.057 137.291 155.967 137.691 155.719C139.662 154.748 141.4 153.363 142.786 151.657C144.171 149.951 145.171 147.966 145.716 145.838C146.091 144.313 146.23 142.745 146.509 141.211C147.241 137.811 148.319 134.494 149.725 131.313C150.211 129.877 150.943 128.535 151.885 127.348C152.917 126.321 154.116 125.478 155.432 124.856C162.664 120.9 169.966 117.066 177.337 113.354C180.085 112.104 182.679 110.54 185.066 108.693C187.471 106.819 189.118 104.139 189.702 101.147C190.146 98.1929 192.377 91.562 188.56 91.8059C184.744 92.0499 176.919 95.3784 173.477 96.8771C164.956 100.624 157.244 105.965 149.158 110.488Z" fill="white"/>
<path d="M190.488 97.1297C190.235 98.6197 189.852 100.136 189.704 101.19C189.115 104.178 187.469 106.854 185.068 108.727C182.681 110.575 180.087 112.139 177.339 113.389C169.979 117.101 162.678 120.935 155.434 124.891C154.12 125.515 152.92 126.358 151.887 127.383C150.936 128.565 150.204 129.908 149.726 131.347C148.322 134.529 147.245 137.846 146.511 141.246C146.232 142.779 146.093 144.348 145.71 145.873C145.158 147.997 144.157 149.979 142.774 151.683C141.391 153.388 139.658 154.776 137.693 155.754C137.294 156.004 136.813 156.091 136.351 155.998C135.733 155.806 135.48 155.074 135.323 154.447C133.949 148.706 133.236 142.827 133.197 136.924C133.093 131.574 133.459 125.997 136.142 121.371C139.026 116.413 144.159 113.267 149.151 110.487C157.272 105.965 164.958 100.624 173.479 96.9119C176.965 95.4219 184.807 92.1108 188.562 91.832C191.028 91.6751 190.976 94.3763 190.488 97.1297Z" fill="white"/>
<path d="M184.928 92.9901C186.93 94.9798 189.112 96.7795 191.446 98.3663C193.793 99.9751 196.614 100.746 199.453 100.553C199.95 100.492 200.542 100.318 200.664 99.8302C200.786 99.3422 200.316 98.8804 199.915 98.558C197.737 96.8153 195.968 94.2623 195.95 91.4653C195.95 90.1234 196.308 88.6857 195.645 87.5181C194.774 86.063 192.822 85.8364 191.141 85.9148C189.457 85.9926 187.781 86.2024 186.13 86.5422C184.736 86.8297 173.496 91.8225 174.908 92.1711C175.143 92.2321 180.563 88.9558 184.928 92.9901Z" fill="#6E71FF"/>
<path d="M185.333 89.2273C184.789 89.0497 184.275 88.7912 183.808 88.4605C183.576 88.2952 183.395 88.0675 183.287 87.8038C183.179 87.54 183.148 87.2511 183.198 86.9705C183.291 86.6671 183.462 86.3936 183.694 86.1776C185.367 84.4349 187.877 83.764 190.264 83.3109C193.706 82.6574 197.497 82.3088 200.511 84.0864C200.895 84.3129 201.304 84.6702 201.235 85.1145C201.171 85.3609 201.027 85.5788 200.825 85.7332C199.562 86.9182 198.054 87.7721 196.73 88.8787C195.405 89.9853 194.804 91.7803 193.541 92.8869C191.162 94.9694 187.676 90.177 185.333 89.2273Z" fill="url(#paint7_linear)"/>
<path d="M190.485 97.1293C190.233 98.6193 189.849 100.135 189.701 101.19C189.112 104.178 187.466 106.853 185.066 108.727C182.678 110.574 180.085 112.139 177.337 113.389C169.977 117.1 162.675 120.934 155.431 124.89C154.117 125.515 152.918 126.357 151.885 127.382C150.934 128.564 150.202 129.907 149.724 131.347C148.319 134.529 147.242 137.845 146.509 141.245C146.23 142.779 146.09 144.347 145.707 145.872C145.144 148.123 144.064 150.211 142.553 151.972C142.01 148.193 141.718 144.383 141.681 140.566C141.586 135.224 141.943 129.63 144.627 125.012C147.502 120.063 152.634 116.917 157.644 114.12C165.765 109.607 173.442 104.266 181.964 100.562C183.889 99.6823 187.253 98.2533 190.485 97.1293Z" fill="url(#paint8_linear)"/>
<path d="M126.657 165.06C127.845 163.533 129.359 162.292 131.088 161.427C132.817 160.561 134.718 160.094 136.652 160.058C138.435 159.805 140.253 159.975 141.958 160.555C143.246 161.093 144.346 162 145.121 163.16C145.896 164.321 146.311 165.685 146.315 167.081C146.334 168.043 146.027 168.983 145.443 169.747C145.152 170.127 144.755 170.412 144.303 170.567C143.85 170.722 143.362 170.74 142.899 170.619C142.763 170.584 142.637 170.517 142.532 170.422C142.427 170.328 142.347 170.21 142.298 170.078C142.259 169.924 142.259 169.762 142.298 169.608C142.59 168.276 142.496 166.889 142.028 165.608C141.789 164.969 141.399 164.397 140.89 163.942C140.382 163.487 139.77 163.161 139.109 162.994C137.906 162.9 136.697 163.003 135.527 163.299C133.785 163.831 130.796 165.042 129.777 166.515C128.757 167.987 128.679 170.497 127.119 171.603C126.065 172.344 124.374 172.849 123.634 171.237C122.893 169.625 125.646 166.201 126.657 165.06Z" fill="#3E3E54"/>
<path d="M213.715 100.014C213.802 100.397 213.837 100.885 213.523 101.103C213.381 101.186 213.218 101.23 213.053 101.23C212.888 101.23 212.725 101.186 212.582 101.103C211.119 100.432 210.09 98.9072 208.513 98.5674C207.548 98.4891 206.577 98.4891 205.612 98.5674C204.644 98.5151 203.538 97.9226 203.512 96.9554C203.512 96.1973 204.122 95.6048 204.697 95.1081C205.725 94.2368 206.666 93.2522 207.659 92.3373C208.897 91.2045 209.132 91.1697 210.16 92.5638C211.823 94.7893 213.031 97.3209 213.715 100.014Z" fill="white"/>
<path d="M198.884 99.4037C198.746 99.4538 198.626 99.5413 198.535 99.6564C198.472 99.7799 198.448 99.9196 198.466 100.057C198.56 101.145 198.972 102.181 199.651 103.037C200.287 103.909 201.036 104.71 201.62 105.651C202.531 105.207 203.306 104.525 203.861 103.677C204.416 102.828 204.732 101.846 204.774 100.833C204.809 100.447 204.767 100.058 204.651 99.6882C204.534 99.3187 204.345 98.9761 204.094 98.6805C202.77 97.2863 200.217 98.7589 198.884 99.4037Z" fill="#6E71FF"/>
<path d="M199.486 115.533C199.204 118.584 197.917 121.456 195.826 123.697C194.239 125.17 192.36 126.292 190.311 126.991C186.102 128.603 181.597 129.283 177.241 130.328C172.884 131.374 168.44 132.846 164.99 135.757C160.363 139.669 158.019 145.673 156.694 151.572L164.458 150.7C164.918 150.68 165.369 150.565 165.782 150.36C166.243 150.028 166.611 149.584 166.854 149.071C169.634 144.322 173.189 139.913 177.79 136.872C182.05 134.084 187.017 132.594 191.574 130.337C196.131 128.08 200.558 124.691 202.074 119.828C202.591 117.97 202.849 116.05 202.841 114.121C202.91 111.568 202.841 109.006 202.693 106.453C202.692 104.7 202.287 102.97 201.507 101.4C200.479 103.595 199.216 105.443 199.451 107.882C199.741 110.424 199.753 112.989 199.486 115.533Z" fill="#6E71FF"/>
<path d="M138.074 150.666C136.962 151.449 136.119 152.557 135.661 153.838C134.38 156.547 133.047 159.484 133.535 162.447C133.634 163.238 133.957 163.985 134.467 164.599C134.877 164.991 135.371 165.285 135.912 165.457C136.452 165.629 137.025 165.675 137.586 165.592C138.707 165.415 139.786 165.04 140.776 164.485C142.675 163.536 144.662 162.298 145.359 160.294C145.951 158.552 145.446 156.687 144.949 154.936C144.618 153.794 144.078 150.439 142.971 149.829C142.065 149.359 138.946 150.187 138.074 150.666Z" fill="url(#paint9_linear)"/>
<path d="M157.087 167.212C157.753 167.152 158.425 167.235 159.056 167.456C159.642 167.749 160.139 168.194 160.494 168.745C161.858 170.8 162.473 173.261 162.237 175.716C161.987 178.15 161.461 180.547 160.668 182.861L155.44 200.288C155.057 202.027 154.268 203.651 153.14 205.028C151.162 207.084 148.008 207.328 145.158 207.398C133.291 207.703 121.414 207.18 109.564 206.527C106.749 206.514 103.954 206.05 101.286 205.15C99.7177 204.523 98.1667 203.407 97.7136 201.821C97.5392 201.049 97.5126 200.251 97.6352 199.469C97.9535 197.057 98.425 194.667 99.0468 192.315C100.371 186.852 101.713 181.336 104.118 176.247C104.812 174.559 105.875 173.046 107.229 171.821C108.094 171.144 109.062 170.608 110.095 170.235C115.062 168.327 120.36 169.547 125.527 169.05C132.3 168.4 139.079 167.92 145.864 167.612C149.588 167.409 153.329 167.276 157.087 167.212Z" fill="#3E3E54"/>
<path d="M155.817 167.369C156.483 167.313 157.154 167.396 157.786 167.613C158.375 167.906 158.875 168.351 159.233 168.903C160.592 170.959 161.207 173.419 160.976 175.873C160.723 178.307 160.194 180.704 159.398 183.018L154.17 200.445C153.787 202.184 152.999 203.808 151.87 205.185C149.892 207.242 146.738 207.486 143.888 207.564C132.021 207.86 120.153 207.338 108.294 206.693C105.479 206.68 102.684 206.216 100.016 205.316C98.4567 204.689 96.8969 203.573 96.4438 201.987C96.2724 201.215 96.2487 200.416 96.3741 199.635C96.6903 197.223 97.1589 194.834 97.777 192.481C99.1014 187.018 100.443 181.502 102.848 176.414C103.545 174.726 104.607 173.214 105.959 171.987C106.822 171.309 107.791 170.777 108.826 170.41C113.792 168.493 119.09 169.713 124.266 169.216C131.027 168.566 137.804 168.086 144.594 167.779C148.318 167.581 152.059 167.445 155.817 167.369Z" fill="url(#paint10_linear)"/>
<path d="M205.044 78.988C205.322 78.6872 205.533 78.3308 205.663 77.9424C205.737 77.5743 205.737 77.1951 205.663 76.827C205.279 74.4657 204.504 72.1305 204.661 69.7343C204.868 67.1723 206.039 64.7842 207.937 63.0511C209.834 61.3467 212.21 60.2695 214.742 59.9665C216.383 59.6746 218.075 59.9448 219.543 60.7333C221.478 61.9271 222.366 64.2187 222.88 66.4493C223.395 68.68 223.708 70.9978 224.954 72.8886C225.294 73.4027 225.73 73.9952 225.547 74.6313C225.433 74.8935 225.28 75.1373 225.094 75.3545C223.769 77.2888 225.346 80.2514 223.996 82.1684C223.653 82.6158 223.216 82.9818 222.715 83.2401C220.571 84.4077 217.966 84.2422 215.64 84.9828C213.416 85.7907 211.449 87.1774 209.941 88.9997C208.373 90.7424 207.083 92.7378 205.663 94.6111C205.119 95.5264 204.308 96.2538 203.34 96.696C202.371 97.1383 201.291 97.2742 200.243 97.0858C199.903 97.1498 199.554 97.1457 199.215 97.0736C198.877 97.0016 198.556 96.8631 198.271 96.6661C197.987 96.4691 197.744 96.2177 197.558 95.9262C197.371 95.6348 197.244 95.3092 197.185 94.9684C196.663 93.6785 196.352 92.3136 196.261 90.9254C196.191 88.1806 197.812 87.2396 199.467 85.4359C201.408 83.3331 203.267 81.1838 205.044 78.988Z" fill="url(#paint11_linear)"/>
<path d="M217.588 55.8972C215.754 54.9891 213.672 54.7104 211.663 55.1043C210.453 55.23 209.273 55.5661 208.178 56.0976C205.093 57.6834 203.534 61.2647 200.623 63.1468C199.569 63.8351 198.332 64.2969 197.504 65.238C197.104 65.687 196.817 66.2244 196.666 66.8061C196.514 67.3878 196.503 67.9971 196.633 68.584C196.809 69.0386 196.887 69.5259 196.859 70.013C196.68 70.526 196.382 70.9891 195.988 71.3635C195.49 72.016 195.208 72.808 195.183 73.6284C195.158 74.4489 195.391 75.2565 195.848 75.9381C197.051 77.6808 199.43 78.1252 200.841 79.6587C201.564 80.4429 202.148 81.5583 203.211 81.689C203.948 81.6863 204.655 81.3954 205.18 80.8786C206.636 79.7284 207.978 78.1687 208.091 76.3128C208.091 75.6767 208.012 75.0319 208.091 74.3958C208.095 74.0753 208.181 73.7612 208.341 73.4835C208.502 73.2059 208.73 72.9739 209.006 72.81C209.355 72.6932 209.731 72.6795 210.088 72.7707C210.445 72.8619 210.768 73.054 211.019 73.3241C211.559 73.8207 211.942 74.4655 212.474 74.9709C212.512 75.0195 212.569 75.0508 212.63 75.058C212.661 75.056 212.69 75.0481 212.717 75.0346C212.744 75.0212 212.768 75.0024 212.787 74.9796C213.053 74.6645 213.226 74.2819 213.288 73.8743C213.349 73.4667 213.297 73.0501 213.136 72.6706C212.801 71.9156 212.572 71.1181 212.456 70.3005C212.485 69.7595 212.628 69.2308 212.878 68.7499C213.127 68.2689 213.477 67.847 213.903 67.5122C214.713 66.7977 215.645 66.2575 216.517 65.5517C217.876 64.3841 219.601 62.2319 220.002 60.4369C220.403 58.6419 219.096 56.7685 217.588 55.8972Z" fill="#3E3E54"/>
<path d="M200.156 95.7173C200.818 96.3621 201.646 97.2596 201.175 98.0612C200.705 98.8629 199.738 98.645 198.927 98.5666C198.298 98.4783 197.658 98.5209 197.046 98.6919C196.434 98.8628 195.864 99.1584 195.372 99.56C194.126 100.728 193.873 102.801 192.392 103.664C191.701 99.4204 191.724 95.091 192.462 90.8552C192.559 90.2154 192.722 89.5876 192.95 88.9818C193.458 87.948 194.142 87.0104 194.971 86.211C195.537 85.7846 196.214 85.5307 196.92 85.4797C197.626 85.4287 198.332 85.5828 198.953 85.9234C198.953 85.9234 197.002 88.8163 197.115 89.7225C197.433 92.0036 198.503 94.1134 200.156 95.7173Z" fill="white"/>
<path d="M130.233 100.502C130.233 102.681 127.497 103.927 125.353 103.5C123.21 103.073 121.432 101.652 119.471 100.711C113.024 97.6268 105.46 100.11 98.324 100.18C89.6106 100.276 81.0888 96.6335 72.3405 96.7903C66.2208 96.9152 60.281 98.883 55.2971 102.437C54.7696 102.737 54.2785 103.096 53.8332 103.508C53.598 103.77 51.2192 108.214 48.8317 112.431C48.2583 109.116 48.6049 105.708 49.8338 102.576L49.9906 102.166C51.1395 99.5663 52.8283 97.2403 54.9451 95.3429C57.0618 93.4455 59.558 92.0201 62.2678 91.1614C69.8398 88.7827 78.013 90.8739 85.9509 90.7258C94.2635 90.5689 102.585 87.9287 110.767 89.3577C117.145 90.4643 122.966 93.9671 128.804 96.8426C129.117 97.3915 129.396 97.9492 129.675 98.5156C130.004 99.1288 130.195 99.8071 130.233 100.502Z" fill="url(#paint12_linear)"/>
<defs>
<linearGradient id="paint0_linear" x1="206.858" y1="91.1899" x2="115.292" y2="83.6808" gradientUnits="userSpaceOnUse">
<stop offset="0.079127"/>
<stop offset="0.83" stop-opacity="0.07"/>
<stop offset="1" stop-opacity="0"/>
</linearGradient>
<linearGradient id="paint1_linear" x1="72.6347" y1="40.87" x2="279.181" y2="61.1482" gradientUnits="userSpaceOnUse">
<stop stop-opacity="0"/>
<stop offset="0.87783" stop-opacity="0.75"/>
<stop offset="1"/>
</linearGradient>
<linearGradient id="paint2_linear" x1="132.48" y1="159.259" x2="133.542" y2="72.3528" gradientUnits="userSpaceOnUse">
<stop stop-opacity="0"/>
<stop offset="0.639117" stop-opacity="0.75"/>
<stop offset="1"/>
</linearGradient>
<linearGradient id="paint3_linear" x1="228.666" y1="30.7969" x2="185.87" y2="123.297" gradientUnits="userSpaceOnUse">
<stop offset="0.01" stop-opacity="0.53"/>
<stop offset="0.83" stop-opacity="0.07"/>
<stop offset="1" stop-opacity="0"/>
</linearGradient>
<linearGradient id="paint4_linear" x1="208.213" y1="103.351" x2="212.257" y2="86.6822" gradientUnits="userSpaceOnUse">
<stop stop-opacity="0"/>
<stop offset="0.72" stop-opacity="0.51"/>
<stop offset="0.99"/>
</linearGradient>
<linearGradient id="paint5_linear" x1="184.53" y1="38.0324" x2="86.1938" y2="128.687" gradientUnits="userSpaceOnUse">
<stop offset="0.01" stop-opacity="0.53"/>
<stop offset="0.83" stop-opacity="0.07"/>
<stop offset="1" stop-opacity="0"/>
</linearGradient>
<linearGradient id="paint6_linear" x1="265.114" y1="51.0359" x2="284.815" y2="51.0359" gradientUnits="userSpaceOnUse">
<stop stop-color="#E5C5D5"/>
<stop offset="0.42" stop-color="#EAD4D1"/>
<stop offset="1" stop-color="#F0E9CB"/>
</linearGradient>
<linearGradient id="paint7_linear" x1="5154.84" y1="1127.45" x2="5432.54" y2="1424.97" gradientUnits="userSpaceOnUse">
<stop stop-opacity="0"/>
<stop offset="0.99"/>
</linearGradient>
<linearGradient id="paint8_linear" x1="12569.6" y1="7022.07" x2="12345.4" y2="12855" gradientUnits="userSpaceOnUse">
<stop stop-opacity="0"/>
<stop offset="0.99"/>
</linearGradient>
<linearGradient id="paint9_linear" x1="133.432" y1="157.662" x2="145.635" y2="157.662" gradientUnits="userSpaceOnUse">
<stop stop-color="#E5C5D5"/>
<stop offset="0.42" stop-color="#EAD4D1"/>
<stop offset="1" stop-color="#F0E9CB"/>
</linearGradient>
<linearGradient id="paint10_linear" x1="170.644" y1="141.906" x2="88.3201" y2="125.223" gradientUnits="userSpaceOnUse">
<stop offset="0.079127"/>
<stop offset="0.83" stop-opacity="0.07"/>
<stop offset="1" stop-opacity="0"/>
</linearGradient>
<linearGradient id="paint11_linear" x1="196.26" y1="78.5127" x2="225.61" y2="78.5127" gradientUnits="userSpaceOnUse">
<stop stop-color="#E5C5D5"/>
<stop offset="0.42" stop-color="#EAD4D1"/>
<stop offset="1" stop-color="#F0E9CB"/>
</linearGradient>
<linearGradient id="paint12_linear" x1="87.8156" y1="101.382" x2="80.5573" y2="81.0277" gradientUnits="userSpaceOnUse">
<stop offset="0.02" stop-color="white" stop-opacity="0"/>
<stop offset="1" stop-color="white"/>
</linearGradient>
</defs>
</svg>
