<svg width="315" height="315" viewBox="0 0 315 315" fill="none" xmlns="http://www.w3.org/2000/svg">
<g clip-path="url(#clip0)">
<path opacity="0.18" d="M178.189 299.974C191.474 291.421 203.146 279.698 216.488 271.344C233.398 260.829 252.485 256.017 271.607 257.449C276.92 257.857 282.446 258.714 287.43 256.517C291.901 254.537 295.359 250.319 298.304 245.926C315.004 221.057 319.639 185.846 310.106 156.267C306.654 145.551 301.463 135.467 300.016 124.101C296.686 98.0093 313.885 72.9572 311.197 46.7652C309.343 28.7353 297.762 13.2847 283.558 5.92964C269.354 -1.42542 252.911 -1.38382 237.865 3.02589C221.429 7.82664 206.32 17.5197 190.033 22.9944C159.222 33.2948 126.257 27.8617 94.483 32.546C62.709 37.2302 28.0257 57.6064 21.7365 94.2819C17.9359 116.43 25.4444 139.877 20.6098 161.75C16.5383 180.146 4.20944 195.098 1.00067 213.735C-7.55607 263.806 40.8109 277.867 68.0855 296.338C101.45 318.927 143.92 322.047 178.189 299.974Z" fill="#6E71FF"/>
<path d="M29.5 274.5C87 323 159.667 324.982 205.5 319C159.018 311.475 146.933 297.233 113.829 266.571C50.8987 208.284 186.044 114.923 187.761 113.745L186.033 102.964C186.033 102.964 188.702 100.51 180 102.964C171.221 105.461 85.8434 167.967 64.5 196C51.793 212.712 34.0767 222.726 29.5 274.5Z" fill="white" fill-opacity="0.2"/>
<path d="M29.5 274.5C87 323 159.667 324.982 205.5 319C159.018 311.475 146.933 297.233 113.829 266.571C50.8987 208.284 186.044 114.923 187.761 113.745L186.033 102.964C186.033 102.964 188.702 100.51 180 102.964C171.221 105.461 85.8434 167.967 64.5 196C51.793 212.712 34.0767 222.726 29.5 274.5Z" fill="url(#paint0_linear)"/>
<path d="M189.7 111.373C189.7 111.373 202.667 114.734 201.244 118.338C199.82 121.943 193.855 125.624 185.569 129.883L185.864 134C185.864 134 207.76 127.368 210.351 118.428C211.091 115.816 211.219 113.069 210.725 110.399C210.231 107.73 209.129 105.21 207.503 103.036L189.7 111.373Z" fill="#8181FB"/>
<path d="M189.7 111.373C189.7 111.373 202.667 114.734 201.244 118.338C199.82 121.943 193.855 125.624 185.569 129.883L185.864 134C185.864 134 207.76 127.368 210.351 118.428C211.091 115.816 211.219 113.069 210.725 110.399C210.231 107.73 209.129 105.21 207.503 103.036L189.7 111.373Z" fill="url(#paint1_linear)"/>
<path d="M186.313 97.5975C186.313 97.5975 177.462 102.831 176.051 104.011C174.64 105.191 174.666 109.039 178.014 113.092C183.055 119.172 187.224 117.62 187.224 117.62L195.753 108.77L186.313 97.5975Z" fill="#8181FB"/>
<path d="M186.313 97.5975C186.313 97.5975 177.462 102.831 176.051 104.011C174.64 105.191 174.666 109.039 178.014 113.092C183.055 119.172 187.224 117.62 187.224 117.62L195.753 108.77L186.313 97.5975Z" fill="url(#paint2_linear)"/>
<path d="M179.297 103.164C187.34 89.6579 198.045 77.9276 210.761 68.6858C232.208 52.9216 263.89 41.2363 274.459 44.5713C285.029 47.9063 271.624 72.9828 227.641 97.0203C226.705 97.5205 220.394 100.997 219.419 101.42L188.827 114.247C188.827 114.247 183.081 113.965 179.297 103.164Z" fill="#8181FB"/>
<path d="M179.297 103.164C187.34 89.6579 198.045 77.9276 210.761 68.6858C232.208 52.9216 263.89 41.2363 274.459 44.5713C285.029 47.9063 271.624 72.9828 227.641 97.0203C226.705 97.5205 220.394 100.997 219.419 101.42L188.827 114.247C188.827 114.247 183.081 113.965 179.297 103.164Z" fill="url(#paint3_linear)"/>
<path d="M197.125 80.448C197.125 80.448 187.621 71.0202 176.962 75.6892C166.302 80.3582 151 103.126 151 103.126L156.285 103.421C156.285 103.421 173.922 86.669 177.103 88.0286C180.284 89.3883 180.54 100.945 180.54 100.945C180.54 100.945 187.916 99.9961 193.162 91.3893C198.408 82.7825 197.125 80.448 197.125 80.448Z" fill="#8181FB"/>
<path d="M197.125 80.448C197.125 80.448 187.621 71.0202 176.962 75.6892C166.302 80.3582 151 103.126 151 103.126L156.285 103.421C156.285 103.421 173.922 86.669 177.103 88.0286C180.284 89.3883 180.54 100.945 180.54 100.945C180.54 100.945 187.916 99.9961 193.162 91.3893C198.408 82.7825 197.125 80.448 197.125 80.448Z" fill="url(#paint4_linear)"/>
<path d="M252.692 72.7519C256.609 72.7519 259.785 69.5761 259.785 65.6586C259.785 61.7411 256.609 58.5654 252.692 58.5654C248.774 58.5654 245.599 61.7411 245.599 65.6586C245.599 69.5761 248.774 72.7519 252.692 72.7519Z" fill="url(#paint5_linear)"/>
<path d="M236.016 171.942C227.663 168.057 217.956 166.813 209.151 169.436C200.347 172.059 192.678 178.892 189.872 187.646C189.095 190.069 188.652 192.658 187.157 194.747C185.227 197.403 181.936 198.639 179.371 200.703C171.385 207.126 172.78 220.868 180.415 227.709C188.051 234.551 199.562 235.411 209.469 232.788C219.852 244.441 237.261 249.278 252.172 244.65C255.079 249.052 261.444 250.005 266.414 248.225C271.384 246.446 275.286 242.595 279.011 238.853L290.38 227.45C296.737 221.077 303.161 214.603 307.663 206.809C312.166 199.015 314.572 189.601 312.275 180.913C311.201 176.858 309.158 173.125 306.322 170.035C303.486 166.944 299.941 164.589 295.993 163.171C292.046 161.753 287.812 161.316 283.658 161.897C279.504 162.477 275.553 164.058 272.145 166.504C270.691 157.19 262.956 155.87 254.093 157.716C251.888 158.167 232.508 170.304 236.016 171.942Z" fill="white" fill-opacity="0.1"/>
<path d="M236.016 171.942C227.663 168.057 217.956 166.813 209.151 169.436C200.347 172.059 192.678 178.892 189.872 187.646C189.095 190.069 188.652 192.658 187.157 194.747C185.227 197.403 181.936 198.639 179.371 200.703C171.385 207.126 172.78 220.868 180.415 227.709C188.051 234.551 199.562 235.411 209.469 232.788C219.852 244.441 237.261 249.278 252.172 244.65C255.079 249.052 261.444 250.005 266.414 248.225C271.384 246.446 275.286 242.595 279.011 238.853L290.38 227.45C296.737 221.077 303.161 214.603 307.663 206.809C312.166 199.015 314.572 189.601 312.275 180.913C311.201 176.858 309.158 173.125 306.322 170.035C303.486 166.944 299.941 164.589 295.993 163.171C292.046 161.753 287.812 161.316 283.658 161.897C279.504 162.477 275.553 164.058 272.145 166.504C270.691 157.19 262.956 155.87 254.093 157.716C251.888 158.167 232.508 170.304 236.016 171.942Z" fill="url(#paint6_linear)"/>
<path d="M92.9691 76.1057C97.2377 73.7584 102.158 72.0793 106.953 73.0567C111.748 74.034 116.033 78.3945 115.557 83.2479C117.674 83.0255 119.804 83.5352 121.591 84.692C123.378 85.8487 124.715 87.5828 125.379 89.6054C126.043 91.628 125.994 93.8171 125.241 95.8081C124.487 97.7991 123.074 99.4719 121.237 100.548C126.333 104.365 126.132 112.752 121.939 117.539C117.745 122.325 110.845 123.929 104.497 123.461C98.1483 122.994 92.092 120.746 85.9689 119.009C84.3318 118.413 82.5724 118.232 80.8483 118.483C78.9771 118.917 77.5069 120.287 75.9699 121.465C72.5151 124.117 68.5299 125.995 64.2851 126.971C60.0403 127.947 55.6352 127.998 51.369 127.12C48.6065 126.636 46.0164 125.444 43.8509 123.662C40.9355 121.047 39.6073 117.063 39.1646 113.17C37.9701 102.686 43.3413 91.1586 53.19 87.2742C53.19 87.2742 54.5099 81.8027 54.8607 81.1679C55.9596 79.0805 57.4919 77.252 59.3549 75.8049C62.6963 73.207 67.0317 71.8371 70.9996 70.5506C78.7015 68.0279 90.7638 64.4944 92.9691 76.1057Z" fill="url(#paint7_linear)"/>
</g>
<defs>
<linearGradient id="paint0_linear" x1="117.5" y1="101" x2="117.5" y2="321.398" gradientUnits="userSpaceOnUse">
<stop stop-color="white"/>
<stop offset="1" stop-color="white" stop-opacity="0"/>
</linearGradient>
<linearGradient id="paint1_linear" x1="203.574" y1="125.045" x2="184.136" y2="100.797" gradientUnits="userSpaceOnUse">
<stop stop-opacity="0"/>
<stop offset="0.95"/>
</linearGradient>
<linearGradient id="paint2_linear" x1="5967.09" y1="4364.04" x2="6288.84" y2="4364.04" gradientUnits="userSpaceOnUse">
<stop stop-opacity="0"/>
<stop offset="0.95"/>
</linearGradient>
<linearGradient id="paint3_linear" x1="236.627" y1="84.2214" x2="211.062" y2="53.2627" gradientUnits="userSpaceOnUse">
<stop offset="0.02" stop-color="white" stop-opacity="0"/>
<stop offset="0.32" stop-color="white" stop-opacity="0.39"/>
<stop offset="0.68" stop-color="white" stop-opacity="0.68"/>
<stop offset="1" stop-color="white"/>
</linearGradient>
<linearGradient id="paint4_linear" x1="13725.2" y1="5254.74" x2="13261.9" y2="6574.72" gradientUnits="userSpaceOnUse">
<stop offset="0.02" stop-color="white" stop-opacity="0"/>
<stop offset="0.32" stop-color="white" stop-opacity="0.39"/>
<stop offset="0.68" stop-color="white" stop-opacity="0.68"/>
<stop offset="1" stop-color="white"/>
</linearGradient>
<linearGradient id="paint5_linear" x1="5427.6" y1="1971.55" x2="5326.43" y2="1588.13" gradientUnits="userSpaceOnUse">
<stop offset="0.02" stop-color="white" stop-opacity="0"/>
<stop offset="0.32" stop-color="white" stop-opacity="0.39"/>
<stop offset="0.68" stop-color="white" stop-opacity="0.68"/>
<stop offset="1" stop-color="white"/>
</linearGradient>
<linearGradient id="paint6_linear" x1="243.579" y1="157" x2="243.579" y2="249.071" gradientUnits="userSpaceOnUse">
<stop stop-color="white"/>
<stop offset="1" stop-color="white" stop-opacity="0"/>
</linearGradient>
<linearGradient id="paint7_linear" x1="74.3827" y1="113.471" x2="116.802" y2="69.2893" gradientUnits="userSpaceOnUse">
<stop offset="0.02" stop-color="white" stop-opacity="0"/>
<stop offset="0.32" stop-color="white" stop-opacity="0.39"/>
<stop offset="0.66" stop-color="white" stop-opacity="0.68"/>
<stop offset="1" stop-color="white"/>
</linearGradient>
<clipPath id="clip0">
<path d="M0 0H315V315H0V0Z" fill="white"/>
</clipPath>
</defs>
</svg>
