<svg width="107" height="98" viewBox="0 0 107 98" fill="none" xmlns="http://www.w3.org/2000/svg">
<path opacity="0.24" d="M93.464 76.0765C93.4225 76.2445 93.3843 76.4232 93.3377 76.5912C93.0701 77.6924 92.7542 78.7618 92.3923 79.7913C92.0941 80.6397 91.7656 81.4597 91.4086 82.2474C88.529 88.629 83.8798 92.9145 78.9763 93.5625C74.5165 94.1439 70.0816 91.8931 65.6102 91.9625C62.1673 92.0131 58.7975 93.4372 55.4377 94.5759C46.5006 97.5942 37.3473 98.6244 28.2352 97.6374C21.9077 96.9547 15.4407 95.1839 10.0487 89.8291C8.20179 87.9845 6.54287 85.6945 5.1303 83.0394C4.60193 82.0473 4.11247 81.0035 3.66474 79.914C2.63872 77.4478 1.87349 74.7267 1.39994 71.8603C1.01392 69.5316 0.863017 67.1187 0.952966 64.7133C1.04892 62.6358 1.28003 60.5801 1.64254 58.5798C1.72562 58.0757 1.82034 57.5691 1.91505 57.0624C2.10946 56.017 2.32048 54.9716 2.52985 53.9262C2.87214 52.2462 3.20779 50.5608 3.47532 48.8594C3.54843 48.4033 3.61821 47.95 3.68136 47.494C4.2164 43.5711 4.34601 39.5496 4.51217 35.5441C4.61187 33.224 4.73317 30.9146 4.95416 28.6105C5.51081 22.9863 6.65567 6.08426 19.392 2.28944C31.4355 -1.31071 43.8794 0.857381 56.1223 0.140018C62.9732 -0.265332 70.5552 -0.265333 75.6996 7.0123C80.1245 13.2792 81.4322 23.0876 83.7817 31.9067C84.3124 33.9275 84.9287 35.8877 85.6261 37.7736C85.7724 38.1629 85.9203 38.5416 86.0781 38.9203C86.3656 39.6376 86.6713 40.347 86.987 41.0377C88.9727 45.3979 91.3072 49.3874 92.8193 54.2196C94.893 60.9559 95.0974 69.0602 93.464 76.0765Z" fill="#6E71FF"/>
<path d="M93.7965 67.7838C92.6262 77.8952 89.4455 83.816 84.0442 87.8994C80.5333 90.5535 77.8027 90.5535 71.5612 89.7369C66.8801 88.3077 60.9382 88.4975 57.3228 90.3494C47.7058 95.258 35.5306 95.6295 25.7253 94.0244C18.9164 92.9141 10.788 90.5535 5.44043 80.9577C2.70978 76.0577 2.70428 69.6464 3.34072 69.2045C3.65882 68.0909 6.68433 68.1429 9.54519 68.0909C26.4088 68.0909 44.3019 67.8508 62.0452 67.7727C68.7575 67.7178 76.3339 66.0996 83.0486 66.0534C85.677 66.0534 91.2414 63.3254 93.7965 67.7838Z" fill="#6E71FF"/>
<path d="M4.76732 68.3996C4.17745 68.4709 3.48289 68.6274 3.25359 69.2014C3.08743 69.6136 3.23697 70.0884 3.41975 70.4902C4.61113 73.0661 7.23151 74.6507 9.90007 75.2403C12.5686 75.8299 15.3435 75.5725 18.0686 75.3603C41.5905 73.5288 65.2885 75.2664 88.7722 72.9653C90.1015 72.8348 91.6418 72.5583 92.2931 71.3355C92.898 70.2032 92.4028 68.6987 91.4623 67.8447C90.5219 66.9907 89.2707 66.6533 88.0527 66.422C81.0889 65.1036 73.9555 66.4446 66.9102 67.1264C58.5124 67.9404 50.0697 67.8134 41.6536 67.6082C37.4564 67.5056 33.2591 67.3821 29.0602 67.3455C26.9416 67.3282 24.8214 67.3247 22.7045 67.3716C21.3054 67.4012 20.0459 67.8934 18.6718 67.9595C14.0209 68.1665 9.43814 67.836 4.76732 68.3996Z" fill="url(#paint0_linear)"/>
<path d="M106.039 49.5483L62.5618 63.4106L56.9043 41.2102L104.126 37.9662L106.039 49.5483Z" fill="url(#paint1_linear)"/>
<path d="M41.4862 45.4762L39.9629 49.2539H41.2544L42.7777 45.5797L41.4862 45.4762Z" fill="#8181FB"/>
<path d="M63.5409 45.4213L62.0176 49.2022H63.3091L64.8324 45.528L63.5409 45.4213Z" fill="#8181FB"/>
<path d="M79.6237 45.4893C78.2792 46.9142 76.7951 48.1869 75.1959 49.2863C74.5779 49.7068 73.9074 50.1725 73.7251 50.9035C73.6398 51.4291 73.7054 51.9694 73.9136 52.456C74.9024 55.3281 76.7779 57.7635 78.122 60.4739C78.1662 60.5448 78.1879 60.6286 78.1838 60.7132C78.1549 60.8095 78.0919 60.8905 78.0077 60.9396L77.1209 61.6253C74.856 59.8302 73.1041 57.4368 71.4263 55.0273C70.2769 53.3648 69.112 51.5536 69.0193 49.503C68.9685 48.9726 69.0438 48.4373 69.2384 47.9447C69.433 47.4521 69.7409 47.0175 70.1347 46.6795C70.6701 46.1719 71.3019 45.7884 71.9886 45.5539C73.0546 45.1917 74.201 45.2046 75.3226 45.2305C76.5585 45.2499 77.9273 45.3372 78.7554 46.2881" fill="#606161"/>
<path d="M79.6237 45.4893C78.2792 46.9142 76.7951 48.1869 75.1959 49.2863C74.5779 49.7068 73.9074 50.1725 73.7251 50.9035C73.6398 51.4291 73.7054 51.9694 73.9136 52.456C74.9024 55.3281 76.7779 57.7635 78.122 60.4739C78.1662 60.5448 78.1879 60.6286 78.1838 60.7132C78.1549 60.8095 78.0919 60.8905 78.0077 60.9396L77.1209 61.6253C74.856 59.8302 73.1041 57.4368 71.4263 55.0273C70.2769 53.3648 69.112 51.5536 69.0193 49.503C68.9685 48.9726 69.0438 48.4373 69.2384 47.9447C69.433 47.4521 69.7409 47.0175 70.1347 46.6795C70.6701 46.1719 71.3019 45.7884 71.9886 45.5539C73.0546 45.1917 74.201 45.2046 75.3226 45.2305C76.5585 45.2499 77.9273 45.3372 78.7554 46.2881" fill="url(#paint2_linear)"/>
<path d="M77.2821 62.8415C77.3236 63.0258 77.333 63.2164 77.3099 63.4042C77.2648 63.599 77.1874 63.784 77.0813 63.9508C76.8121 64.4416 76.5786 64.953 76.383 65.4807C76.3186 65.609 76.3032 65.7581 76.3397 65.8979C76.4262 66.1178 76.7167 66.1372 76.9422 66.0984C77.6036 65.9873 78.2252 65.695 78.7436 65.251C78.8453 65.1749 78.9288 65.0753 78.9877 64.9599C79.0339 64.8442 79.057 64.7198 79.0557 64.5944C79.0896 63.5195 78.7615 62.4663 78.1288 61.6189C78.0697 61.5254 77.9874 61.4505 77.8908 61.4022C77.6405 61.2987 77.2729 61.5671 77.1771 61.8129C77.0813 62.0588 77.2327 62.5471 77.2821 62.8415Z" fill="#212224"/>
<path d="M77.5875 67.1528C77.5875 67.1528 75.369 64.3066 75.1527 64.3325C74.9365 64.3583 74.6553 64.7691 74.6553 64.7691L77.1797 67.2563L77.5875 67.1528Z" fill="#606161"/>
<path d="M76.9443 66.6287L77.3677 67.9548L79.7746 66.784L79.4286 65.5873L76.9443 66.6287Z" fill="#8181FB"/>
<path d="M76.9443 66.6287L77.3677 67.9548L79.7746 66.784L79.4286 65.5873L76.9443 66.6287Z" fill="url(#paint3_linear)"/>
<path d="M54.275 66.7387C54.275 66.7387 52.0565 63.8925 51.8402 63.9184C51.6239 63.9442 51.3428 64.3518 51.3428 64.3518L53.8641 66.8389L54.275 66.7387Z" fill="#606161"/>
<path d="M53.6318 66.2116L54.0551 67.5377L56.4621 66.3701L56.1161 65.1734L53.6318 66.2116Z" fill="#8181FB"/>
<path d="M53.6318 66.2116L54.0551 67.5377L56.4621 66.3701L56.1161 65.1734L53.6318 66.2116Z" fill="url(#paint4_linear)"/>
<path d="M34.1569 66.9975C34.1569 66.9975 31.9384 64.1513 31.7221 64.1772C31.5058 64.2031 31.2246 64.6138 31.2246 64.6138L33.7459 67.101L34.1569 66.9975Z" fill="#606161"/>
<path d="M57.268 45.4893C55.9248 46.9157 54.4406 48.1885 52.8402 49.2863C52.2222 49.7068 51.5517 50.1725 51.3694 50.9035C51.2836 51.4294 51.3503 51.9702 51.561 52.456C52.5498 55.3281 54.4253 57.7635 55.7694 60.4739C55.8142 60.5444 55.8349 60.6288 55.8281 60.7132C55.7994 60.8086 55.7377 60.8894 55.6551 60.9396L54.7683 61.6253C52.5003 59.8302 50.7515 57.4368 49.0737 55.0273C47.9212 53.3648 46.7594 51.5536 46.6636 49.503C46.6132 48.9723 46.6889 48.4369 46.8841 47.9442C47.0792 47.4516 47.3877 47.0171 47.7821 46.6795C48.3166 46.1706 48.9487 45.7869 49.636 45.5539C50.702 45.1917 51.8453 45.2046 52.9669 45.2305C54.2028 45.2499 55.5747 45.3372 56.3997 46.2881" fill="#606161"/>
<path d="M57.268 45.4893C55.9248 46.9157 54.4406 48.1885 52.8402 49.2863C52.2222 49.7068 51.5517 50.1725 51.3694 50.9035C51.2836 51.4294 51.3503 51.9702 51.561 52.456C52.5498 55.3281 54.4253 57.7635 55.7694 60.4739C55.8142 60.5444 55.8349 60.6288 55.8281 60.7132C55.7994 60.8086 55.7377 60.8894 55.6551 60.9396L54.7683 61.6253C52.5003 59.8302 50.7515 57.4368 49.0737 55.0273C47.9212 53.3648 46.7594 51.5536 46.6636 49.503C46.6132 48.9723 46.6889 48.4369 46.8841 47.9442C47.0792 47.4516 47.3877 47.0171 47.7821 46.6795C48.3166 46.1706 48.9487 45.7869 49.636 45.5539C50.702 45.1917 51.8453 45.2046 52.9669 45.2305C54.2028 45.2499 55.5747 45.3372 56.3997 46.2881" fill="url(#paint5_linear)"/>
<path d="M55.0288 62.4953C55.0702 62.6796 55.0797 62.8702 55.0566 63.0581C55.0099 63.2477 54.9337 63.428 54.831 63.5917C54.5612 64.0822 54.3278 64.5937 54.1327 65.1215C54.0678 65.2484 54.0513 65.3964 54.0864 65.5355C54.176 65.7587 54.4664 65.7781 54.7044 65.7393C55.3657 65.6282 55.9873 65.3359 56.5057 64.8919C56.6074 64.8158 56.6909 64.7162 56.7498 64.6008C56.7962 64.4853 56.8183 64.3606 56.8147 64.2354C56.8489 63.1604 56.5208 62.107 55.8878 61.2598C55.8273 61.1656 55.7441 61.0898 55.6468 61.0398C55.3965 60.9363 55.0288 61.208 54.9361 61.4538C54.8434 61.6996 54.9794 62.201 55.0288 62.4953Z" fill="#010101"/>
<path d="M36.5176 47.3781L35.9336 49.1182C35.9336 49.1182 36.3693 49.5095 36.6288 49.3543C36.8884 49.199 37.5558 47.4137 37.5558 47.4137L36.5176 47.3781Z" fill="#8181FB"/>
<path d="M35.1235 46.2557C34.8763 46.3624 34.6013 46.5177 34.5518 46.7926C34.5406 46.9112 34.5609 47.0308 34.6106 47.1381C34.6602 47.2454 34.7372 47.3362 34.833 47.4006C35.2841 47.7629 35.9083 47.7241 36.4768 47.682C36.9125 47.6562 37.3481 47.6562 37.7838 47.682C38.1075 47.7144 38.4334 47.7144 38.7571 47.682C39.0823 47.644 39.3843 47.4871 39.6099 47.2389C39.75 47.0589 39.8336 46.838 39.8491 46.6064C39.8646 46.3748 39.8112 46.1438 39.6964 45.9452C39.406 45.46 38.7973 45.3274 38.2875 45.3954C37.5969 45.4889 36.9155 45.6458 36.2512 45.8643C35.8712 45.9549 35.4942 46.0972 35.1235 46.2557Z" fill="#606161"/>
<path d="M35.1235 46.2557C34.8763 46.3624 34.6013 46.5177 34.5518 46.7926C34.5406 46.9112 34.5609 47.0308 34.6106 47.1381C34.6602 47.2454 34.7372 47.3362 34.833 47.4006C35.2841 47.7629 35.9083 47.7241 36.4768 47.682C36.9125 47.6562 37.3481 47.6562 37.7838 47.682C38.1075 47.7144 38.4334 47.7144 38.7571 47.682C39.0823 47.644 39.3843 47.4871 39.6099 47.2389C39.75 47.0589 39.8336 46.838 39.8491 46.6064C39.8646 46.3748 39.8112 46.1438 39.6964 45.9452C39.406 45.46 38.7973 45.3274 38.2875 45.3954C37.5969 45.4889 36.9155 45.6458 36.2512 45.8643C35.8712 45.9549 35.4942 46.0972 35.1235 46.2557Z" fill="url(#paint6_linear)"/>
<path d="M55.3926 47.3781L54.8086 49.1182C54.8086 49.1182 55.2443 49.5095 55.5069 49.3543C55.7695 49.199 56.4339 47.4137 56.4339 47.4137L55.3926 47.3781Z" fill="#8181FB"/>
<path d="M53.9994 46.2557C53.7522 46.3624 53.4772 46.5177 53.4278 46.7926C53.4166 46.9112 53.4369 47.0308 53.4865 47.1381C53.5362 47.2454 53.6131 47.3362 53.709 47.4006C54.1601 47.7629 54.7842 47.7241 55.3528 47.682C55.7884 47.6562 56.2241 47.6562 56.6598 47.682C56.9835 47.7144 57.3094 47.7144 57.6331 47.682C57.9583 47.644 58.2603 47.4871 58.4859 47.2389C58.626 47.0589 58.7096 46.838 58.725 46.6064C58.7405 46.3748 58.6872 46.1438 58.5724 45.9452C58.282 45.46 57.6733 45.3274 57.1665 45.3954C56.4808 45.481 55.8036 45.6293 55.1427 45.8385C54.7472 45.9549 54.3702 46.0972 53.9994 46.2557Z" fill="#606161"/>
<path d="M53.9994 46.2557C53.7522 46.3624 53.4772 46.5177 53.4278 46.7926C53.4166 46.9112 53.4369 47.0308 53.4865 47.1381C53.5362 47.2454 53.6131 47.3362 53.709 47.4006C54.1601 47.7629 54.7842 47.7241 55.3528 47.682C55.7884 47.6562 56.2241 47.6562 56.6598 47.682C56.9835 47.7144 57.3094 47.7144 57.6331 47.682C57.9583 47.644 58.2603 47.4871 58.4859 47.2389C58.626 47.0589 58.7096 46.838 58.725 46.6064C58.7405 46.3748 58.6872 46.1438 58.5724 45.9452C58.282 45.46 57.6733 45.3274 57.1665 45.3954C56.4808 45.481 55.8036 45.6293 55.1427 45.8385C54.7472 45.9549 54.3702 46.0972 53.9994 46.2557Z" fill="url(#paint7_linear)"/>
<path d="M78.6406 47.3781L78.0566 49.1182C78.0566 49.1182 78.4923 49.5095 78.7519 49.3543C79.0114 49.199 79.6788 47.4137 79.6788 47.4137L78.6406 47.3781Z" fill="#8181FB"/>
<path d="M77.2477 46.2557C77.0005 46.3624 76.7255 46.5177 76.676 46.7926C76.6645 46.9109 76.6844 47.0303 76.7334 47.1375C76.7825 47.2448 76.8589 47.3358 76.9541 47.4006C77.4083 47.7629 78.0325 47.7241 78.601 47.682C79.0367 47.6562 79.4724 47.6562 79.908 47.682C80.2317 47.7144 80.5576 47.7144 80.8813 47.682C81.2065 47.644 81.5085 47.4871 81.7341 47.2389C81.8743 47.0589 81.9578 46.838 81.9733 46.6064C81.9888 46.3748 81.9355 46.1438 81.8206 45.9452C81.5302 45.46 80.9215 45.3274 80.4117 45.3954C79.7211 45.4889 79.0397 45.6458 78.3755 45.8643C78.0078 45.9549 77.6184 46.0972 77.2477 46.2557Z" fill="#606161"/>
<path d="M77.2477 46.2557C77.0005 46.3624 76.7255 46.5177 76.676 46.7926C76.6645 46.9109 76.6844 47.0303 76.7334 47.1375C76.7825 47.2448 76.8589 47.3358 76.9541 47.4006C77.4083 47.7629 78.0325 47.7241 78.601 47.682C79.0367 47.6562 79.4724 47.6562 79.908 47.682C80.2317 47.7144 80.5576 47.7144 80.8813 47.682C81.2065 47.644 81.5085 47.4871 81.7341 47.2389C81.8743 47.0589 81.9578 46.838 81.9733 46.6064C81.9888 46.3748 81.9355 46.1438 81.8206 45.9452C81.5302 45.46 80.9215 45.3274 80.4117 45.3954C79.7211 45.4889 79.0397 45.6458 78.3755 45.8643C78.0078 45.9549 77.6184 46.0972 77.2477 46.2557Z" fill="url(#paint8_linear)"/>
<path d="M14.431 74.1357C12.431 74.1338 10.4766 73.5112 8.81464 72.3467C7.15271 71.1822 5.85793 69.528 5.09401 67.5933C4.33009 65.6587 4.13132 63.5303 4.52283 61.4774C4.91434 59.4245 5.87856 57.5392 7.29357 56.0598C8.70859 54.5804 10.5109 53.5734 12.4726 53.1661C14.4343 52.7588 16.4673 52.9695 18.3146 53.7715C20.1619 54.5735 21.7406 55.9308 22.8511 57.6719C23.9615 59.4129 24.5539 61.4595 24.5533 63.553C24.55 66.3609 23.4821 69.0526 21.5842 71.0369C19.6862 73.0211 17.1134 74.1357 14.431 74.1357ZM14.431 54.4451C12.7099 54.4445 11.0274 54.9781 9.59609 55.9785C8.16481 56.9789 7.0491 58.4011 6.39006 60.0653C5.73103 61.7295 5.55828 63.5609 5.89366 65.3278C6.22905 67.0948 7.05749 68.718 8.27423 69.9921C9.49096 71.2661 11.0413 72.1339 12.7292 72.4856C14.4172 72.8373 16.1668 72.6571 17.7569 71.9678C19.347 71.2786 20.7061 70.1112 21.6623 68.6134C22.6185 67.1155 23.1289 65.3545 23.1289 63.553C23.1256 61.139 22.2083 58.8249 20.5779 57.1177C18.9475 55.4104 16.7371 54.4494 14.431 54.4451Z" fill="#606161"/>
<path d="M87.7468 74.1357C85.7465 74.1357 83.7912 73.5147 82.128 72.3514C80.4649 71.1881 79.1687 69.5346 78.4033 67.6001C77.638 65.6655 77.4379 63.5369 77.8283 61.4833C78.2188 59.4298 79.1823 57.5436 80.5969 56.0632C82.0116 54.5829 83.8138 53.5749 85.7758 53.1668C87.7377 52.7587 89.7712 52.9688 91.6191 53.7705C93.4669 54.5723 95.0462 55.9296 96.157 57.6709C97.2679 59.4121 97.8605 61.4591 97.8599 63.553C97.8566 66.3592 96.79 69.0494 94.894 71.0334C92.9981 73.0174 90.4277 74.1331 87.7468 74.1357ZM87.7468 54.4451C86.0259 54.4451 84.3437 54.9793 82.9128 55.9801C81.482 56.9809 80.3667 58.4033 79.7082 60.0676C79.0496 61.7318 78.8773 63.5631 79.213 65.3298C79.5488 67.0966 80.3775 68.7194 81.5943 69.9932C82.8112 71.267 84.3615 72.1344 86.0494 72.4858C87.7372 72.8373 89.4867 72.6569 91.0766 71.9675C92.6665 71.2782 94.0254 70.1108 94.9815 68.613C95.9375 67.1152 96.4478 65.3543 96.4478 63.553C96.4454 61.1382 95.5279 58.8231 93.8967 57.1156C92.2654 55.4081 90.0537 54.4477 87.7468 54.4451Z" fill="#606161"/>
<path d="M14.431 74.1357C12.431 74.1338 10.4766 73.5112 8.81464 72.3467C7.15271 71.1822 5.85793 69.528 5.09401 67.5933C4.33009 65.6587 4.13132 63.5303 4.52283 61.4774C4.91434 59.4245 5.87856 57.5392 7.29357 56.0598C8.70859 54.5804 10.5109 53.5734 12.4726 53.1661C14.4343 52.7588 16.4673 52.9695 18.3146 53.7715C20.1619 54.5735 21.7406 55.9308 22.8511 57.6719C23.9615 59.4129 24.5539 61.4595 24.5533 63.553C24.55 66.3609 23.4821 69.0526 21.5842 71.0369C19.6862 73.0211 17.1134 74.1357 14.431 74.1357ZM14.431 54.4451C12.7099 54.4445 11.0274 54.9781 9.59609 55.9785C8.16481 56.9789 7.0491 58.4011 6.39006 60.0653C5.73103 61.7295 5.55828 63.5609 5.89366 65.3278C6.22905 67.0948 7.05749 68.718 8.27423 69.9921C9.49096 71.2661 11.0413 72.1339 12.7292 72.4856C14.4172 72.8373 16.1668 72.6571 17.7569 71.9678C19.347 71.2786 20.7061 70.1112 21.6623 68.6134C22.6185 67.1155 23.1289 65.3545 23.1289 63.553C23.1256 61.139 22.2083 58.8249 20.5779 57.1177C18.9475 55.4104 16.7371 54.4494 14.431 54.4451Z" fill="url(#paint9_linear)"/>
<path d="M87.7468 74.1357C85.7465 74.1357 83.7912 73.5147 82.128 72.3514C80.4649 71.1881 79.1687 69.5346 78.4033 67.6001C77.638 65.6655 77.4379 63.5369 77.8283 61.4833C78.2188 59.4298 79.1823 57.5436 80.5969 56.0632C82.0116 54.5829 83.8138 53.5749 85.7758 53.1668C87.7377 52.7587 89.7712 52.9688 91.6191 53.7705C93.4669 54.5723 95.0462 55.9296 96.157 57.6709C97.2679 59.4121 97.8605 61.4591 97.8599 63.553C97.8566 66.3592 96.79 69.0494 94.894 71.0334C92.9981 73.0174 90.4277 74.1331 87.7468 74.1357ZM87.7468 54.4451C86.0259 54.4451 84.3437 54.9793 82.9128 55.9801C81.482 56.9809 80.3667 58.4033 79.7082 60.0676C79.0496 61.7318 78.8773 63.5631 79.213 65.3298C79.5488 67.0966 80.3775 68.7194 81.5943 69.9932C82.8112 71.267 84.3615 72.1344 86.0494 72.4858C87.7372 72.8373 89.4867 72.6569 91.0766 71.9675C92.6665 71.2782 94.0254 70.1108 94.9815 68.613C95.9375 67.1152 96.4478 65.3543 96.4478 63.553C96.4454 61.1382 95.5279 58.8231 93.8967 57.1156C92.2654 55.4081 90.0537 54.4477 87.7468 54.4451Z" fill="url(#paint10_linear)"/>
<path d="M25.9619 35.4888C24.7878 36.721 23.0729 37.1383 21.562 37.8628C20.9718 38.1474 20.3631 38.5323 20.119 39.1565C20.0139 39.4675 19.9687 39.7973 19.9861 40.1268C19.9644 40.2103 19.963 40.2983 19.9822 40.3825C20.0013 40.4668 20.0403 40.5446 20.0957 40.609C20.151 40.6734 20.2209 40.7222 20.2989 40.7509C20.377 40.7797 20.4606 40.7875 20.5423 40.7736C22.1762 40.7957 23.8035 40.5513 25.3656 40.0492C27.0804 39.4993 28.7644 38.5808 29.7964 37.0412C30.0222 36.7218 30.1888 36.3608 30.2877 35.9771C30.3603 35.5797 30.379 35.1736 30.3433 34.7707C30.3393 33.9698 30.2522 33.1716 30.0838 32.3903C29.9354 31.8113 29.6234 30.8799 29.1012 30.55C28.579 30.2201 28.1464 31.4426 27.9487 31.8437C27.3585 33.1148 26.9167 34.4861 25.9619 35.4888Z" fill="#8181FB"/>
<path d="M31.8511 27.115C31.8511 27.115 31.8789 28.3538 31.8511 29.2594C31.8511 29.9354 31.6193 31.2323 30.2443 31.2323C28.8694 31.2323 28.6994 29.5796 28.7334 29.2594C28.6969 28.7804 28.6969 28.2991 28.7334 27.8201C28.8385 27.0309 31.7769 26.5652 31.8511 27.115Z" fill="#F0CAC5"/>
<path d="M31.8728 29.1461C31.9714 29.1037 32.0815 29.1014 32.1816 29.1397C32.2817 29.178 32.3644 29.2541 32.4136 29.3531C32.6206 29.7154 32.6329 30.4399 32.4136 31.4296C32.3488 31.8651 32.2118 32.2854 32.0088 32.6716C32.0088 32.6716 31.1096 31.339 30.4639 31.284C30.4762 31.284 31.7245 31.0285 31.8728 29.1461Z" fill="#F1FCFF"/>
<path d="M27.6987 22.7455C27.6987 22.7455 28.0417 23.8484 27.7234 24.3627C26.5431 26.3033 27.2167 26.1027 27.6554 26.1448C27.7111 26.1448 27.6338 26.52 27.7914 27.2315C27.9181 27.7943 27.5411 29.0718 29.1942 28.5252C29.6669 28.3732 31.9596 27.6972 32.1234 26.2095C32.3273 24.3497 33.418 22.0048 31.2675 21.2092C28.6905 20.2874 27.8501 21.0184 27.6987 22.7455Z" fill="#F0CAC5"/>
<path d="M28.879 20.1612C28.879 20.1612 27.6987 20.2486 27.2939 20.7175C26.7965 21.2965 26.7069 21.9369 27.2291 22.4544C27.7512 22.9719 29.12 22.4802 30.0748 23.1012C31.0296 23.7222 30.013 25.307 30.4888 25.6467C30.9647 25.9863 30.6804 24.9642 31.3107 24.7055C31.9411 24.4467 32.1975 25.5561 31.5363 26.3744C30.8751 27.1927 31.4961 27.7166 31.9256 27.8525C32.3551 27.9883 33.3964 24.2947 33.3099 22.9428C33.2234 21.5908 32.5868 21.6135 32.5868 21.6135C32.5868 21.6135 32.559 19.5014 28.879 20.1612Z" fill="#3E3E54"/>
<path d="M28.7148 28.6611C28.7148 28.6611 30.3926 28.0142 31.1496 27.6487C31.1496 27.6487 29.5738 29.2174 28.7581 29.2077L28.7148 28.6611Z" fill="#E3B3AF"/>
<path d="M27.6797 26.2612C27.6797 26.2612 28.9156 26.355 29.6294 25.886C30.3431 25.417 30.6892 25.1227 30.7726 25.5981C30.856 26.0736 31.1774 26.8724 30.856 27.4384C30.5347 28.0045 28.8291 29.3208 28.3842 28.978C27.9392 28.6351 27.6426 28.2212 27.7199 27.7425C27.7565 27.2486 27.743 26.7521 27.6797 26.2612Z" fill="#3E3E54"/>
<path d="M27.9062 26.8757C27.9062 26.8757 28.1442 27.1732 28.7158 26.8757C29.2874 26.5781 29.3708 26.1156 29.6427 26.5781C29.9146 27.0406 29.2936 27.956 28.5644 27.9818C27.8352 28.0077 27.9526 27.4837 27.9062 26.8757Z" fill="#F0CAC5"/>
<path d="M30.6935 29.7284C30.6199 30.027 30.4813 30.3037 30.2887 30.537C29.9797 30.8798 29.4823 30.9736 29.1146 31.2518C28.027 32.083 28.7005 34.0527 28.889 35.175C29.1935 36.7278 29.4 38.2998 29.507 39.881C29.541 40.8092 29.507 41.7601 29.782 42.6398C29.9763 43.1986 30.2781 43.7097 30.6687 44.1414C31.0594 44.5732 31.5305 44.9163 32.053 45.1497C33.1008 45.6059 34.2528 45.7329 35.3684 45.5152C36.1595 45.4186 36.8991 45.0553 37.4757 44.4802C37.985 43.8434 38.2755 43.0462 38.3007 42.2161C38.4645 40.0653 37.6611 37.976 36.8763 35.9804C35.8721 33.435 34.8462 30.6114 32.7081 28.8649C32.3527 28.577 31.8862 28.328 31.4721 28.4962C31.2988 28.5916 31.1472 28.7251 31.0278 28.8875C30.9083 29.05 30.8238 29.2375 30.78 29.4373C30.7522 29.5344 30.7337 29.6314 30.6935 29.7284Z" fill="#8181FB"/>
<path d="M30.6935 29.7284C30.6199 30.027 30.4813 30.3037 30.2887 30.537C29.9797 30.8798 29.4823 30.9736 29.1146 31.2518C28.027 32.083 28.7005 34.0527 28.889 35.175C29.1935 36.7278 29.4 38.2998 29.507 39.881C29.541 40.8092 29.507 41.7601 29.782 42.6398C29.9763 43.1986 30.2781 43.7097 30.6687 44.1414C31.0594 44.5732 31.5305 44.9163 32.053 45.1497C33.1008 45.6059 34.2528 45.7329 35.3684 45.5152C36.1595 45.4186 36.8991 45.0553 37.4757 44.4802C37.985 43.8434 38.2755 43.0462 38.3007 42.2161C38.4645 40.0653 37.6611 37.976 36.8763 35.9804C35.8721 33.435 34.8462 30.6114 32.7081 28.8649C32.3527 28.577 31.8862 28.328 31.4721 28.4962C31.2988 28.5916 31.1472 28.7251 31.0278 28.8875C30.9083 29.05 30.8238 29.2375 30.78 29.4373C30.7522 29.5344 30.7337 29.6314 30.6935 29.7284Z" fill="url(#paint11_linear)"/>
<path d="M36.4984 45.9808C35.1545 47.4063 33.6703 48.6791 32.0707 49.7779C31.4527 50.1984 30.7822 50.6609 30.5999 51.3951C30.5139 51.921 30.5806 52.4618 30.7915 52.9475C31.7802 55.8229 33.6558 58.2583 34.9998 60.9687C35.0447 61.0392 35.0654 61.1236 35.0585 61.208C35.0299 61.3034 34.9681 61.3842 34.8855 61.4344L33.9987 62.1201C31.7308 60.325 29.9819 57.9316 28.3041 55.5221C27.1516 53.8596 25.9898 52.0484 25.8941 49.9946C25.8437 49.4639 25.9194 48.9284 26.1146 48.4358C26.3097 47.9431 26.6182 47.5087 27.0126 47.171C27.5481 46.6643 28.1799 46.2818 28.8665 46.0487C29.9325 45.6865 31.0757 45.6994 32.1973 45.7253C33.4333 45.7447 34.8052 45.8288 35.6302 46.7829" fill="#606161"/>
<path d="M36.4984 45.9808C35.1545 47.4063 33.6703 48.6791 32.0707 49.7779C31.4527 50.1984 30.7822 50.6609 30.5999 51.3951C30.5139 51.921 30.5806 52.4618 30.7915 52.9475C31.7802 55.8229 33.6558 58.2583 34.9998 60.9687C35.0447 61.0392 35.0654 61.1236 35.0585 61.208C35.0299 61.3034 34.9681 61.3842 34.8855 61.4344L33.9987 62.1201C31.7308 60.325 29.9819 57.9316 28.3041 55.5221C27.1516 53.8596 25.9898 52.0484 25.8941 49.9946C25.8437 49.4639 25.9194 48.9284 26.1146 48.4358C26.3097 47.9431 26.6182 47.5087 27.0126 47.171C27.5481 46.6643 28.1799 46.2818 28.8665 46.0487C29.9325 45.6865 31.0757 45.6994 32.1973 45.7253C33.4333 45.7447 34.8052 45.8288 35.6302 46.7829" fill="url(#paint12_linear)"/>
<path d="M34.2555 62.9804C34.2996 63.1643 34.3101 63.3553 34.2864 63.5432C34.2403 63.7321 34.164 63.9114 34.0608 64.0736C33.7912 64.5659 33.5568 65.0783 33.3594 65.6067C33.2952 65.7339 33.2798 65.882 33.3162 66.0207C33.4058 66.2439 33.6962 66.2633 33.9341 66.2245C34.5951 66.1119 35.2163 65.8197 35.7355 65.3771C35.8347 65.2982 35.9177 65.1992 35.9796 65.086C36.0259 64.9704 36.0481 64.8458 36.0445 64.7205C36.0786 63.6455 35.7505 62.5922 35.1175 61.7449C35.0582 61.6497 34.9748 61.5736 34.8765 61.525C34.6262 61.4215 34.2586 61.6932 34.1659 61.9358C34.0392 62.2366 34.2091 62.6894 34.2555 62.9804Z" fill="#010101"/>
<path d="M18.8552 41.1003C18.767 41.3972 18.7377 41.7099 18.769 42.0191C18.8004 42.3284 18.8917 42.6276 19.0375 42.8986C19.1131 43.0439 19.2186 43.1699 19.3465 43.2673C19.6315 43.4223 19.9587 43.4703 20.2734 43.4031C20.3426 43.4054 20.41 43.3799 20.4619 43.332C20.4884 43.2978 20.5046 43.2562 20.5082 43.2123C20.57 42.8662 20.4001 42.5008 20.4866 42.1612C20.5978 41.731 21.0737 41.4916 21.2004 41.0679C21.3703 40.4825 20.74 39.6901 20.1653 39.6998C19.5906 39.7095 19.0128 40.5731 18.8552 41.1003Z" fill="#F0CAC5"/>
<path d="M14.8912 63.996C14.7735 63.9968 14.6574 63.9665 14.5538 63.9079C14.4502 63.8494 14.3623 63.7645 14.2983 63.6611C14.2343 63.5576 14.1962 63.439 14.1875 63.3161C14.1788 63.1932 14.1998 63.07 14.2485 62.9578L21.5344 45.8385C21.5719 45.7499 21.6257 45.67 21.6928 45.6032C21.7598 45.5364 21.8388 45.4841 21.9252 45.4493C22.0115 45.4144 22.1036 45.3978 22.1961 45.4002C22.2886 45.4026 22.3798 45.424 22.4644 45.4633C22.549 45.5026 22.6254 45.559 22.6892 45.6291C22.753 45.6993 22.803 45.782 22.8362 45.8724C22.8695 45.9628 22.8855 46.0592 22.8832 46.156C22.8809 46.2529 22.8604 46.3483 22.8228 46.4369L15.537 63.5788C15.4786 63.7056 15.3868 63.8123 15.2723 63.8862C15.1579 63.9601 15.0257 63.9982 14.8912 63.996Z" fill="#8181FB"/>
<path d="M30.295 64.8661L19.8235 51.2043C19.7067 51.0516 19.6527 50.8566 19.6732 50.6622C19.6938 50.4678 19.7873 50.2899 19.9332 50.1677C20.079 50.0455 20.2653 49.9889 20.451 50.0104C20.6368 50.0319 20.8067 50.1298 20.9235 50.2825L29.9582 62.0652L35.6435 48.9467C35.7209 48.7683 35.8629 48.6294 36.0382 48.5606C36.2135 48.4917 36.4077 48.4986 36.5782 48.5796C36.7486 48.6607 36.8813 48.8093 36.9471 48.9928C37.0129 49.1763 37.0063 49.3796 36.9289 49.558L30.295 64.8661Z" fill="#8181FB"/>
<path d="M30.3344 64.6364C30.1475 64.6364 29.9683 64.5587 29.8362 64.4205C29.7041 64.2822 29.6299 64.0946 29.6299 63.899C29.6299 63.7034 29.7041 63.5159 29.8362 63.3776C29.9683 63.2393 30.1475 63.1616 30.3344 63.1616L49.4358 63.1422L54.1694 49.212C54.1999 49.12 54.2475 49.0354 54.3096 48.963C54.3716 48.8905 54.4469 48.8318 54.5309 48.7903C54.615 48.7487 54.7061 48.7251 54.7989 48.7209C54.8918 48.7166 54.9845 48.7319 55.0717 48.7656C55.2475 48.8321 55.3911 48.9688 55.471 49.1458C55.5509 49.3227 55.5606 49.5256 55.4981 49.71L50.4307 64.6203L30.3467 64.6364H30.3344Z" fill="#8181FB"/>
<path d="M50.0785 64.6365C49.8917 64.6365 49.7125 64.5588 49.5804 64.4205C49.4482 64.2822 49.374 64.0946 49.374 63.8991C49.374 63.7035 49.4482 63.5159 49.5804 63.3776C49.7125 63.2393 49.8917 63.1616 50.0785 63.1616L73.2771 63.1422L78.0076 49.212C78.0381 49.1204 78.0856 49.0361 78.1474 48.964C78.2093 48.8918 78.2842 48.8333 78.3679 48.7918C78.4516 48.7502 78.5423 48.7265 78.6348 48.7221C78.7274 48.7176 78.8198 48.7324 78.9068 48.7656C79.0832 48.8315 79.2275 48.9679 79.308 49.1449C79.3885 49.322 79.3987 49.5252 79.3363 49.7101L74.2689 64.6203L54.1849 64.6365H50.0785Z" fill="#8181FB"/>
<path d="M54.8958 50.1984L20.7839 49.9235C20.6047 49.911 20.4367 49.8278 20.314 49.6905C20.1913 49.5533 20.123 49.3724 20.123 49.1844C20.123 48.9964 20.1913 48.8155 20.314 48.6783C20.4367 48.5411 20.6047 48.4578 20.7839 48.4454L55.6992 48.7268L54.8958 50.1984Z" fill="#8181FB"/>
<path d="M73.3728 64.8983C73.1932 64.8891 73.0237 64.8087 72.8988 64.6734C72.7738 64.5381 72.7027 64.3581 72.6999 64.1699C72.6972 63.9817 72.763 63.7995 72.8839 63.6603C73.0049 63.521 73.1719 63.4352 73.3512 63.4203L85.5591 63.0095L78.3382 50.4732L44.2263 50.2016C44.0471 50.1891 43.8791 50.1059 43.7564 49.9687C43.6337 49.8314 43.5654 49.6505 43.5654 49.4625C43.5654 49.2745 43.6337 49.0936 43.7564 48.9564C43.8791 48.8191 44.0471 48.7359 44.2263 48.7235L79.1415 49.0016L88.0156 64.4067L73.4006 64.8983H73.3728Z" fill="#8181FB"/>
<path d="M23.8122 45.8386L20.4134 45.5151L20.537 43.2511L19.61 42.6042C19.5342 42.5522 19.4692 42.4847 19.4188 42.4058C19.3684 42.3269 19.3337 42.2382 19.3167 42.145C19.2997 42.0517 19.3008 41.9559 19.3198 41.8631C19.3389 41.7703 19.3756 41.6825 19.4277 41.6048C19.5355 41.4462 19.6981 41.3378 19.8811 41.3027C20.064 41.2677 20.2528 41.3088 20.4072 41.4173L21.9923 42.5234L21.9089 44.2311L22.944 44.3249L23.6268 42.7336L25.5672 42.4393C25.7502 42.4093 25.9371 42.456 26.0875 42.5692C26.2378 42.6824 26.3395 42.853 26.3706 43.0441C26.3832 43.1387 26.3779 43.2349 26.3549 43.3272C26.3318 43.4196 26.2916 43.5063 26.2365 43.5823C26.1814 43.6584 26.1124 43.7223 26.0336 43.7703C25.9548 43.8184 25.8677 43.8497 25.7774 43.8624L24.6032 44.0403L23.8122 45.8386Z" fill="#8181FB"/>
<path d="M23.8122 45.8386L20.4134 45.5151L20.537 43.2511L19.61 42.6042C19.5342 42.5522 19.4692 42.4847 19.4188 42.4058C19.3684 42.3269 19.3337 42.2382 19.3167 42.145C19.2997 42.0517 19.3008 41.9559 19.3198 41.8631C19.3389 41.7703 19.3756 41.6825 19.4277 41.6048C19.5355 41.4462 19.6981 41.3378 19.8811 41.3027C20.064 41.2677 20.2528 41.3088 20.4072 41.4173L21.9923 42.5234L21.9089 44.2311L22.944 44.3249L23.6268 42.7336L25.5672 42.4393C25.7502 42.4093 25.9371 42.456 26.0875 42.5692C26.2378 42.6824 26.3395 42.853 26.3706 43.0441C26.3832 43.1387 26.3779 43.2349 26.3549 43.3272C26.3318 43.4196 26.2916 43.5063 26.2365 43.5823C26.1814 43.6584 26.1124 43.7223 26.0336 43.7703C25.9548 43.8184 25.8677 43.8497 25.7774 43.8624L24.6032 44.0403L23.8122 45.8386Z" fill="url(#paint13_linear)"/>
<path d="M43.8158 45.8385L40.417 45.5151L40.5313 43.2316L39.6043 42.5848C39.5283 42.533 39.463 42.4657 39.4123 42.3869C39.3616 42.3081 39.3266 42.2194 39.3093 42.1262C39.292 42.033 39.2928 41.937 39.3116 41.8441C39.3305 41.7512 39.367 41.6632 39.4189 41.5854C39.5272 41.4265 39.6904 41.318 39.8739 41.283C40.0573 41.248 40.2466 41.2891 40.4015 41.3978L41.9866 42.5039L41.9001 44.2116L42.9383 44.3054L43.618 42.7239L45.5616 42.4295C45.7443 42.3988 45.9312 42.4452 46.0813 42.5586C46.2313 42.672 46.3322 42.8431 46.3618 43.0344C46.3749 43.1289 46.3698 43.2253 46.347 43.3179C46.3241 43.4104 46.2839 43.4973 46.2287 43.5734C46.1735 43.6495 46.1044 43.7134 46.0254 43.7614C45.9464 43.8093 45.8591 43.8403 45.7686 43.8526L44.5975 44.0305L43.8158 45.8385Z" fill="#8181FB"/>
<path d="M43.8158 45.8385L40.417 45.5151L40.5313 43.2316L39.6043 42.5848C39.5283 42.533 39.463 42.4657 39.4123 42.3869C39.3616 42.3081 39.3266 42.2194 39.3093 42.1262C39.292 42.033 39.2928 41.937 39.3116 41.8441C39.3305 41.7512 39.367 41.6632 39.4189 41.5854C39.5272 41.4265 39.6904 41.318 39.8739 41.283C40.0573 41.248 40.2466 41.2891 40.4015 41.3978L41.9866 42.5039L41.9001 44.2116L42.9383 44.3054L43.618 42.7239L45.5616 42.4295C45.7443 42.3988 45.9312 42.4452 46.0813 42.5586C46.2313 42.672 46.3322 42.8431 46.3618 43.0344C46.3749 43.1289 46.3698 43.2253 46.347 43.3179C46.3241 43.4104 46.2839 43.4973 46.2287 43.5734C46.1735 43.6495 46.1044 43.7134 46.0254 43.7614C45.9464 43.8093 45.8591 43.8403 45.7686 43.8526L44.5975 44.0305L43.8158 45.8385Z" fill="url(#paint14_linear)"/>
<path d="M66.0129 45.8386L62.6141 45.5152L62.7284 43.2317L61.8014 42.5849C61.7256 42.5328 61.6606 42.4653 61.6102 42.3864C61.5598 42.3075 61.5251 42.2188 61.5081 42.1256C61.4911 42.0323 61.4922 41.9365 61.5112 41.8437C61.5303 41.7509 61.567 41.6631 61.6191 41.5854C61.7269 41.4268 61.8895 41.3184 62.0725 41.2833C62.2554 41.2483 62.4442 41.2894 62.5986 41.3979L64.1837 42.504L64.1034 44.2214L65.1385 44.3152L65.8213 42.7336L67.7618 42.4393C67.9447 42.4093 68.1316 42.456 68.282 42.5692C68.4323 42.6824 68.534 42.853 68.5651 43.0441C68.5777 43.1387 68.5724 43.2349 68.5494 43.3273C68.5264 43.4196 68.4861 43.5063 68.431 43.5824C68.3759 43.6584 68.3069 43.7223 68.2281 43.7703C68.1493 43.8184 68.0623 43.8497 67.9719 43.8624L66.7977 44.0403L66.0129 45.8386Z" fill="#8181FB"/>
<path d="M66.0129 45.8386L62.6141 45.5152L62.7284 43.2317L61.8014 42.5849C61.7256 42.5328 61.6606 42.4653 61.6102 42.3864C61.5598 42.3075 61.5251 42.2188 61.5081 42.1256C61.4911 42.0323 61.4922 41.9365 61.5112 41.8437C61.5303 41.7509 61.567 41.6631 61.6191 41.5854C61.7269 41.4268 61.8895 41.3184 62.0725 41.2833C62.2554 41.2483 62.4442 41.2894 62.5986 41.3979L64.1837 42.504L64.1034 44.2214L65.1385 44.3152L65.8213 42.7336L67.7618 42.4393C67.9447 42.4093 68.1316 42.456 68.282 42.5692C68.4323 42.6824 68.534 42.853 68.5651 43.0441C68.5777 43.1387 68.5724 43.2349 68.5494 43.3273C68.5264 43.4196 68.4861 43.5063 68.431 43.5824C68.3759 43.6584 68.3069 43.7223 68.2281 43.7703C68.1493 43.8184 68.0623 43.8497 67.9719 43.8624L66.7977 44.0403L66.0129 45.8386Z" fill="url(#paint15_linear)"/>
<path d="M19.4023 52.7599C19.3683 52.7599 18.2745 52.5109 18.2405 52.5044C18.1045 52.4753 18.0304 52.3621 18.0798 52.2554L20.3107 47.3554C20.3455 47.2987 20.3964 47.2548 20.4563 47.2299C20.5161 47.2049 20.5819 47.2002 20.6444 47.2163C20.7803 47.2487 21.9081 47.6109 21.8587 47.7176L19.6309 52.6306C19.6056 52.6698 19.5715 52.7021 19.5317 52.7246C19.4919 52.7471 19.4475 52.7592 19.4023 52.7599Z" fill="#8181FB"/>
<path d="M19.2356 52.5853C19.2017 52.5853 18.1078 52.3363 18.0708 52.3298C17.9348 52.2975 17.8638 52.1875 17.9132 52.0808L20.141 47.1808C20.176 47.1235 20.2274 47.0792 20.2879 47.0542C20.3483 47.0292 20.4148 47.0249 20.4778 47.0417C20.6137 47.0708 21.7415 47.4363 21.6921 47.543L19.4612 52.443C19.438 52.4846 19.4052 52.5194 19.3658 52.5443C19.3263 52.5691 19.2816 52.5833 19.2356 52.5853Z" fill="url(#paint16_linear)"/>
<path d="M32.1666 30.7472C31.5085 31.1547 31.1563 31.9374 30.9029 32.6878C30.3375 34.3793 30.0656 36.2035 29.1664 37.7269C28.6513 38.5969 27.9513 39.3308 27.1209 39.8712C26.5926 40.2173 25.9993 40.4922 25.576 40.9774C25.1527 41.4625 24.958 42.2711 25.3752 42.7627C25.7923 43.2543 26.4813 43.2252 27.0653 43.0667C29.565 42.3875 31.3293 40.0944 32.7352 37.8271C33.3818 36.8664 33.8879 35.8101 34.2368 34.6931C34.5953 33.3961 34.4408 29.3435 32.1666 30.7472Z" fill="#8181FB"/>
<path d="M24.2227 42.6042C23.9294 42.8828 23.7155 43.2411 23.6048 43.6392C23.5498 43.8377 23.539 44.0467 23.5733 44.2502C23.6076 44.4538 23.686 44.6464 23.8025 44.8132C23.9225 44.9783 24.0899 45.0988 24.28 45.157C24.4702 45.2152 24.6732 45.208 24.8592 45.1367C24.9892 45.0697 25.1106 44.9861 25.2208 44.8876L26.3516 43.94C26.4988 43.8302 26.6255 43.6932 26.7255 43.5357C26.9943 43.0408 26.6297 41.9994 26.1075 41.7859C25.5112 41.5336 24.6244 42.1999 24.2227 42.6042Z" fill="#F0CAC5"/>
<path d="M25.397 46.0649C25.0135 46.2388 24.6621 46.4819 24.3588 46.7829C23.8848 47.3749 23.6518 48.1379 23.7099 48.9079C23.7803 49.9044 23.9885 50.8849 24.3279 51.8188L25.9871 57.1004C26.0175 57.2145 26.0633 57.3234 26.1231 57.4239C26.4506 57.9446 27.3003 57.7182 27.5939 57.1748C27.8874 56.6314 27.7978 55.9619 27.7206 55.3442C27.4792 53.4373 27.3964 51.5122 27.4734 49.5903C27.4615 49.4523 27.5002 49.3147 27.5815 49.2054C27.6702 49.1335 27.7783 49.0927 27.8905 49.089C29.3211 48.937 30.7641 49.1084 32.1977 49.0631C33.6314 49.0178 35.13 48.7397 36.2578 47.8017C37.3856 46.8638 38.0097 45.1496 37.3794 43.7976C37.2656 43.5238 37.0692 43.2965 36.8201 43.1508C36.5468 43.0408 36.2518 43.0031 35.9612 43.0408C34.2803 43.1217 32.7014 43.1314 31.0885 43.665C30.109 43.9885 29.1419 44.341 28.1871 44.7421C27.4857 45.0396 26.1416 46.0649 25.397 46.0649Z" fill="#3E3E54"/>
<path d="M25.397 46.0649C25.0135 46.2388 24.6621 46.4819 24.3588 46.7829C23.8848 47.3749 23.6518 48.1379 23.7099 48.9079C23.7803 49.9044 23.9885 50.8849 24.3279 51.8188L25.9871 57.1004C26.0175 57.2145 26.0633 57.3234 26.1231 57.4239C26.4506 57.9446 27.3003 57.7182 27.5939 57.1748C27.8874 56.6314 27.7978 55.9619 27.7206 55.3442C27.4792 53.4373 27.3964 51.5122 27.4734 49.5903C27.4615 49.4523 27.5002 49.3147 27.5815 49.2054C27.6702 49.1335 27.7783 49.0927 27.8905 49.089C29.3211 48.937 30.7641 49.1084 32.1977 49.0631C33.6314 49.0178 35.13 48.7397 36.2578 47.8017C37.3856 46.8638 38.0097 45.1496 37.3794 43.7976C37.2656 43.5238 37.0692 43.2965 36.8201 43.1508C36.5468 43.0408 36.2518 43.0031 35.9612 43.0408C34.2803 43.1217 32.7014 43.1314 31.0885 43.665C30.109 43.9885 29.1419 44.341 28.1871 44.7421C27.4857 45.0396 26.1416 46.0649 25.397 46.0649Z" fill="url(#paint17_linear)"/>
<path d="M26.7379 58.7305C26.6805 58.8764 26.5954 59.0084 26.4876 59.1187C26.1753 59.4744 25.8213 59.7874 25.434 60.0501C25.2508 60.1538 25.0898 60.2959 24.9612 60.4674C24.9143 60.5431 24.8823 60.6279 24.8669 60.7167C24.8515 60.8055 24.8531 60.8967 24.8716 60.9849C24.8891 61.0965 24.948 61.1964 25.0354 61.263C25.1677 61.3287 25.3187 61.3402 25.4587 61.2954C26.2131 61.1314 26.9414 60.8559 27.6216 60.4771C27.7378 60.4197 27.8494 60.3527 27.9553 60.2765C28.1863 60.0977 28.3651 59.8549 28.4715 59.5755C28.5779 59.2961 28.6078 58.9912 28.5578 58.695C28.5424 58.6088 28.5164 58.5251 28.4806 58.4459C28.4343 58.3542 28.3795 58.2675 28.3168 58.1872C28.1249 57.8757 27.9023 57.5863 27.6525 57.3236C27.6333 57.3019 27.6087 57.2862 27.5814 57.2783C27.5472 57.2791 27.5139 57.2904 27.4856 57.3107C27.3466 57.3948 27.2106 57.4853 27.0778 57.5791C26.9449 57.6729 26.8337 57.715 26.7688 57.8217C26.6637 58.0772 26.8306 58.4524 26.7379 58.7305Z" fill="#3E3E54"/>
<path d="M46.7322 35.0004C45.5581 36.2294 43.8432 36.6466 42.3354 37.3743C41.7421 37.659 41.1334 38.0406 40.8893 38.6681C40.7837 38.979 40.7396 39.3091 40.7596 39.6384C40.7477 39.7465 40.7612 39.856 40.7989 39.9575C40.8366 40.0589 40.8973 40.1492 40.9758 40.2206C41.0804 40.274 41.1966 40.2974 41.3126 40.2885C42.9476 40.3105 44.5758 40.0661 46.139 39.564C47.8507 39.0141 49.5378 38.0956 50.5667 36.5561C50.7925 36.2366 50.9591 35.8757 51.058 35.492C51.1307 35.0946 51.1494 34.6884 51.1136 34.2856C51.1096 33.4846 51.0225 32.6864 50.8541 31.9051C50.7057 31.3294 50.3937 30.3947 49.8715 30.0648C49.3493 29.7349 48.9167 30.9574 48.719 31.3585C48.1288 32.6231 47.687 33.9977 46.7322 35.0004Z" fill="#8181FB"/>
<path d="M49.7451 28.6449C49.1735 29.6669 49.1766 30.9283 49.294 32.1056C49.5319 34.5475 50.1777 36.9571 50.2704 39.3925C50.3044 40.3175 50.2704 41.2684 50.5454 42.1482C50.7396 42.707 51.0414 43.2181 51.4321 43.6498C51.8227 44.0815 52.2939 44.4247 52.8164 44.658C53.8685 45.1185 55.0264 45.2467 56.1473 45.0267C56.9377 44.9299 57.6769 44.568 58.2545 43.995C58.7633 43.3578 59.0537 42.5609 59.0795 41.7309C59.2433 39.5801 58.443 37.4907 57.6551 35.4984C56.8116 33.3605 55.9402 31.1741 54.5436 29.3532C53.9473 28.577 53.2305 27.6455 52.2664 27.432C51.7779 27.3361 51.273 27.4013 50.8214 27.6185C50.3698 27.8358 49.9937 28.1944 49.7451 28.6449Z" fill="#8181FB"/>
<path d="M49.7451 28.6449C49.1735 29.6669 49.1766 30.9283 49.294 32.1056C49.5319 34.5475 50.1777 36.9571 50.2704 39.3925C50.3044 40.3175 50.2704 41.2684 50.5454 42.1482C50.7396 42.707 51.0414 43.2181 51.4321 43.6498C51.8227 44.0815 52.2939 44.4247 52.8164 44.658C53.8685 45.1185 55.0264 45.2467 56.1473 45.0267C56.9377 44.9299 57.6769 44.568 58.2545 43.995C58.7633 43.3578 59.0537 42.5609 59.0795 41.7309C59.2433 39.5801 58.443 37.4907 57.6551 35.4984C56.8116 33.3605 55.9402 31.1741 54.5436 29.3532C53.9473 28.577 53.2305 27.6455 52.2664 27.432C51.7779 27.3361 51.273 27.4013 50.8214 27.6185C50.3698 27.8358 49.9937 28.1944 49.7451 28.6449Z" fill="url(#paint18_linear)"/>
<path d="M44.9923 42.1126C44.7001 42.391 44.4864 42.7478 44.3743 43.1443C44.3193 43.3428 44.3086 43.5519 44.3429 43.7554C44.3771 43.9589 44.4555 44.1515 44.572 44.3184C44.692 44.4834 44.8594 44.6039 45.0496 44.6621C45.2397 44.7203 45.4427 44.7132 45.6288 44.6418C45.7593 44.5761 45.8809 44.4923 45.9903 44.3928L47.1212 43.4451C47.2683 43.3354 47.395 43.1984 47.495 43.0408C47.7638 42.546 47.3992 41.5078 46.8771 41.2911C46.2807 41.042 45.3939 41.7115 44.9923 42.1126Z" fill="#F0CAC5"/>
<path d="M39.2853 40.2205C39.1965 40.5175 39.1671 40.8305 39.199 41.1399C39.2309 41.4493 39.3234 41.7485 39.4707 42.0188C39.5461 42.1644 39.6516 42.2904 39.7797 42.3875C40.0649 42.542 40.3919 42.59 40.7067 42.5234C40.7749 42.5254 40.8413 42.5 40.892 42.4522C40.9183 42.4175 40.9353 42.3763 40.9415 42.3325C41.0002 41.9865 40.8302 41.621 40.9199 41.2814C41.028 40.8512 41.5069 40.6119 41.6305 40.1849C41.8005 39.6028 41.1701 38.8104 40.5954 38.8201C40.0207 38.8298 39.446 39.6933 39.2853 40.2205Z" fill="#F0CAC5"/>
<path d="M46.1821 45.5733C45.7992 45.7484 45.448 45.9913 45.1439 46.2914C44.67 46.8846 44.4371 47.6486 44.495 48.4195C44.5648 49.4161 44.7729 50.3967 45.113 51.3304L46.7723 56.6121C46.8047 56.7253 46.8503 56.834 46.9082 56.9355C47.2357 57.453 48.0854 57.2266 48.379 56.6832C48.6725 56.1399 48.5829 55.4704 48.5057 54.8526C48.2643 52.9458 48.1816 51.0206 48.2585 49.0987C48.2469 48.9608 48.2855 48.8233 48.3666 48.7139C48.455 48.6418 48.5636 48.6021 48.6756 48.6007C50.1031 48.4454 51.5461 48.6168 52.9798 48.5748C54.4134 48.5327 55.912 48.2514 57.0398 47.3102C58.1676 46.369 58.7917 44.658 58.1614 43.3061C58.049 43.0313 57.8522 42.8036 57.6022 42.6592C57.3295 42.5466 57.034 42.5077 56.7432 42.546C55.0623 42.6269 53.4834 42.6398 51.8736 43.1702C50.891 43.4937 49.9239 43.8462 48.9691 44.2473C48.2554 44.5448 46.9113 45.5733 46.1821 45.5733Z" fill="#3E3E54"/>
<path d="M69.0839 35.0004C67.9097 36.2294 66.1949 36.6466 64.687 37.3743C64.0969 37.659 63.4882 38.0406 63.2441 38.6681C63.1361 38.9784 63.0908 39.3088 63.1112 39.6384C63.0997 39.7468 63.1137 39.8565 63.1519 39.9579C63.1902 40.0594 63.2515 40.1496 63.3306 40.2206C63.434 40.274 63.5493 40.2974 63.6643 40.2885C65.2992 40.3105 66.9275 40.0661 68.4906 39.564C70.2055 39.0141 71.8895 38.0956 72.9215 36.5561C73.1464 36.2365 73.312 35.8755 73.4097 35.492C73.4818 35.0945 73.5016 34.6886 73.4684 34.2856C73.4633 33.4845 73.3752 32.6863 73.2057 31.9051C73.0605 31.3294 72.7484 30.3947 72.2232 30.0648C71.6979 29.7349 71.2684 30.9574 71.0737 31.3585C70.4805 32.6231 70.0387 33.9977 69.0839 35.0004Z" fill="#8181FB"/>
<path d="M72.1002 28.6449C71.5255 29.6669 71.5317 30.9283 71.646 32.1056C71.887 34.5475 72.5297 36.9571 72.6224 39.3926C72.6595 40.3176 72.6224 41.2685 72.8974 42.1482C73.0922 42.7067 73.3942 43.2175 73.7847 43.6492C74.1753 44.0809 74.6462 44.4242 75.1685 44.658C76.2216 45.1186 77.3805 45.2468 78.5024 45.0267C79.2924 44.9284 80.0312 44.5666 80.6097 43.995C81.1172 43.3571 81.4074 42.5606 81.4347 41.731C81.5954 39.5801 80.7951 37.4908 80.0072 35.4984C79.1667 33.3605 78.2923 31.1741 76.8988 29.3532C76.2993 28.577 75.5856 27.6455 74.6185 27.432C74.1304 27.3359 73.6258 27.401 73.1747 27.6183C72.7235 27.8356 72.348 28.1943 72.1002 28.6449Z" fill="#8181FB"/>
<path d="M75.2917 30.2589C74.6336 30.6632 74.2783 31.4459 74.028 32.1995C73.4626 33.8878 73.1906 35.7152 72.2884 37.2386C71.7728 38.1071 71.0742 38.8406 70.246 39.3829C69.7146 39.729 69.1244 40.0007 68.7011 40.4858C68.2778 40.971 68.0986 41.7795 68.5003 42.2712C68.902 42.7628 69.6064 42.7369 70.1904 42.5784C72.6901 41.8992 74.4544 39.6061 75.8603 37.3388C76.5075 36.3773 77.0137 35.3198 77.3619 34.2015C77.7173 32.9013 77.5659 28.8584 75.2917 30.2589Z" fill="#8181FB"/>
<path d="M67.3478 42.1126C67.0564 42.3916 66.8428 42.7482 66.7299 43.1443C66.6753 43.3431 66.6651 43.5523 66.6999 43.7558C66.7347 43.9593 66.8137 44.1518 66.9307 44.3184C67.0507 44.4834 67.218 44.6039 67.4082 44.6621C67.5984 44.7203 67.8014 44.7132 67.9874 44.6418C68.1174 44.5767 68.2381 44.4929 68.3458 44.3928L69.4767 43.4451C69.6246 43.3362 69.7514 43.1991 69.8506 43.0408C70.1225 42.546 69.7548 41.5078 69.2326 41.2911C68.6363 41.042 67.7464 41.7115 67.3478 42.1126Z" fill="#C8A59C"/>
<path d="M61.6314 40.2205C61.5444 40.5178 61.516 40.8305 61.5478 41.1396C61.5797 41.4487 61.6712 41.7478 61.8168 42.0188C61.8924 42.1642 61.9979 42.2901 62.1258 42.3875C62.4108 42.5425 62.738 42.5905 63.0527 42.5234C63.1219 42.5256 63.1893 42.5002 63.2412 42.4522C63.2677 42.4181 63.2839 42.3764 63.2875 42.3325C63.3493 41.9865 63.1794 41.621 63.2659 41.2814C63.3772 40.8512 63.853 40.6119 63.9766 40.1849C64.1496 39.6028 63.5193 38.8104 62.9446 38.8201C62.3699 38.8298 61.7982 39.6933 61.6314 40.2205Z" fill="#C8A59C"/>
<path d="M68.5182 45.5733C68.1366 45.7492 67.7866 45.992 67.4831 46.2913C67.2464 46.5838 67.0672 46.9224 66.9559 47.2876C66.8445 47.6528 66.8032 48.0375 66.8342 48.4195C66.9054 49.4158 67.1135 50.3962 67.4522 51.3304L69.1114 56.612C69.1449 56.7254 69.1916 56.834 69.2505 56.9354C69.578 57.4529 70.4277 57.2265 70.7182 56.6832C71.0086 56.1398 70.9252 55.4703 70.8449 54.8525C70.6035 52.9457 70.5207 51.0205 70.5977 49.0987C70.5888 48.9605 70.6283 48.8237 70.7089 48.7138C70.7972 48.6415 70.9058 48.6018 71.0179 48.6006C72.4454 48.4454 73.8884 48.6168 75.3251 48.5747C76.7619 48.5327 78.2574 48.2513 79.3821 47.3101C80.5068 46.3689 81.134 44.658 80.5068 43.306C80.3934 43.0319 80.1968 42.8045 79.9475 42.6591C79.6747 42.5469 79.3794 42.508 79.0886 42.5459C77.4077 42.6268 75.8257 42.6397 74.2159 43.1702C73.2364 43.4936 72.2662 43.8461 71.3114 44.2472C70.6069 44.5448 69.2659 45.5733 68.5182 45.5733Z" fill="#3E3E54"/>
<path d="M46.1821 45.5733C45.7992 45.7484 45.448 45.9913 45.1439 46.2914C44.67 46.8846 44.4371 47.6486 44.495 48.4195C44.5648 49.4161 44.7729 50.3967 45.113 51.3304L46.7723 56.6121C46.8047 56.7253 46.8503 56.834 46.9082 56.9355C47.2357 57.453 48.0854 57.2266 48.379 56.6832C48.6725 56.1399 48.5829 55.4704 48.5057 54.8526C48.2643 52.9458 48.1816 51.0206 48.2585 49.0987C48.2469 48.9608 48.2855 48.8233 48.3666 48.7139C48.455 48.6418 48.5636 48.6021 48.6756 48.6007C50.1031 48.4454 51.5461 48.6168 52.9798 48.5748C54.4134 48.5327 55.912 48.2514 57.0398 47.3102C58.1676 46.369 58.7917 44.658 58.1614 43.3061C58.049 43.0313 57.8522 42.8036 57.6022 42.6592C57.3295 42.5466 57.034 42.5077 56.7432 42.546C55.0623 42.6269 53.4834 42.6398 51.8736 43.1702C50.891 43.4937 49.9239 43.8462 48.9691 44.2473C48.2554 44.5448 46.9113 45.5733 46.1821 45.5733Z" fill="url(#paint19_linear)"/>
<path d="M68.5182 45.5733C68.1366 45.7492 67.7866 45.992 67.4831 46.2913C67.2464 46.5838 67.0672 46.9224 66.9559 47.2876C66.8445 47.6528 66.8032 48.0375 66.8342 48.4195C66.9054 49.4158 67.1135 50.3962 67.4522 51.3304L69.1114 56.612C69.1449 56.7254 69.1916 56.834 69.2505 56.9354C69.578 57.4529 70.4277 57.2265 70.7182 56.6832C71.0086 56.1398 70.9252 55.4703 70.8449 54.8525C70.6035 52.9457 70.5207 51.0205 70.5977 49.0987C70.5888 48.9605 70.6283 48.8237 70.7089 48.7138C70.7972 48.6415 70.9058 48.6018 71.0179 48.6006C72.4454 48.4454 73.8884 48.6168 75.3251 48.5747C76.7619 48.5327 78.2574 48.2513 79.3821 47.3101C80.5068 46.3689 81.134 44.658 80.5068 43.306C80.3934 43.0319 80.1968 42.8045 79.9475 42.6591C79.6747 42.5469 79.3794 42.508 79.0886 42.5459C77.4077 42.6268 75.8257 42.6397 74.2159 43.1702C73.2364 43.4936 72.2662 43.8461 71.3114 44.2472C70.6069 44.5448 69.2659 45.5733 68.5182 45.5733Z" fill="url(#paint20_linear)"/>
<path d="M47.5076 58.2422C47.4502 58.387 47.365 58.518 47.2573 58.6271C46.9443 58.9829 46.5904 59.2969 46.2037 59.5618C46.02 59.6633 45.8588 59.8044 45.7309 59.9758C45.6375 60.1293 45.6053 60.3151 45.6413 60.4933C45.6589 60.6049 45.7177 60.7049 45.8051 60.7714C45.9374 60.8371 46.0884 60.8486 46.2284 60.8038C46.9827 60.6409 47.711 60.3665 48.3913 59.9887C48.5069 59.929 48.6184 59.8609 48.725 59.7849C48.9555 59.6063 49.1339 59.3641 49.2403 59.0853C49.3468 58.8066 49.3769 58.5023 49.3275 58.2066C49.3131 58.1202 49.2871 58.0364 49.2503 57.9575C49.2033 57.8652 49.1485 57.7776 49.0865 57.6956C48.8947 57.386 48.6731 57.0977 48.4253 56.8352C48.406 56.812 48.38 56.796 48.3511 56.79C48.3165 56.7878 48.2823 56.7994 48.2554 56.8223C48.1163 56.9064 47.9804 56.9937 47.8506 57.0875C47.7208 57.1813 47.6034 57.2266 47.5416 57.3301C47.4335 57.5888 47.6003 57.9608 47.5076 58.2422Z" fill="#3E3E54"/>
<path d="M69.7606 58.5883C69.704 58.7327 69.6199 58.8637 69.5135 58.9731C69.1986 59.3283 68.8438 59.6422 68.4567 59.9079C68.2728 60.0106 68.1117 60.1527 67.984 60.3251C67.8904 60.4774 67.8582 60.6623 67.8944 60.8394C67.9142 60.9509 67.9739 61.0504 68.0612 61.1175C68.1931 61.1845 68.3442 61.1973 68.4845 61.1531C69.2386 60.988 69.9667 60.7125 70.6474 60.3348C70.763 60.2751 70.8746 60.207 70.9811 60.131C71.2116 59.9524 71.3901 59.7102 71.4965 59.4314C71.6029 59.1526 71.6331 58.8484 71.5837 58.5527C71.5688 58.4668 71.5439 58.3832 71.5095 58.3036C71.4626 58.2106 71.4067 58.1228 71.3426 58.0417C71.1508 57.7321 70.9293 57.4438 70.6814 57.1813C70.6614 57.1591 70.6356 57.1433 70.6073 57.136C70.5726 57.1342 70.5386 57.1457 70.5115 57.1684C70.3724 57.2525 70.2396 57.3398 70.1067 57.4336C69.9738 57.5274 69.8595 57.5727 69.7977 57.6762C69.6865 57.9349 69.8533 58.3069 69.7606 58.5883Z" fill="#3E3E54"/>
<path d="M76.0888 22.6322C75.8633 21.759 75.1619 20.7111 73.4377 20.4944C72.2018 20.3423 71.658 20.6658 71.5622 21.0539C71.4992 21.1427 71.4569 21.2457 71.4386 21.3547L71.3984 21.0895C71.3428 21.8172 71.1389 23.774 71.1574 24.8833C71.176 25.9927 71.5993 27.1474 72.3748 27.0859C73.1504 27.0245 74.995 25.7922 75.3905 25.2715C75.786 24.7507 76.3175 23.5217 76.0888 22.6322Z" fill="#C8A59C"/>
<path d="M73.3357 27.7943C73.4388 27.9287 73.5827 28.0223 73.7435 28.0595L74.3151 28.26C74.4798 28.3279 74.6543 28.3662 74.8311 28.3732C74.9202 28.3771 75.0087 28.3576 75.0886 28.3163C75.1685 28.2751 75.2372 28.2134 75.2884 28.1371C75.3515 28.0004 75.3782 27.8485 75.3657 27.6973C75.404 26.8938 75.3195 26.0891 75.1154 25.3136C75.0881 25.1916 75.0159 25.0858 74.9146 25.0192C74.832 24.9932 74.7438 24.9932 74.6612 25.0192C74.1483 25.126 73.4593 25.5464 73.3017 26.1124C73.2718 26.3274 73.277 26.5461 73.3171 26.7593C73.3295 27.0536 73.1719 27.5064 73.3357 27.7943Z" fill="#C8A59C"/>
<path d="M47.3317 24.7217C47.3503 25.2392 47.9095 25.5206 48.1814 25.9507C48.4533 26.3809 48.441 27.0407 48.8179 27.4062C49.1949 27.7717 49.8283 27.6617 50.3629 27.4353C50.5297 27.3609 50.6719 28.383 50.8016 28.5123C51.2527 28.9554 52.0376 28.3765 52.5072 28.0919C52.5982 28.0459 52.676 27.9756 52.7328 27.8881C52.7379 27.5158 52.7142 27.1437 52.6617 26.7755C52.6277 25.8052 52.5783 24.8058 52.5134 23.8226C52.493 23.2509 52.4164 22.683 52.2848 22.1278C52.1872 21.7176 52 21.3367 51.7379 21.0152C51.517 20.7744 51.2458 20.5906 50.9455 20.4784C50.6452 20.3661 50.3241 20.3284 50.0075 20.3683C49.3661 20.459 48.7834 20.8069 48.3823 21.3386C48.0196 21.8559 47.8052 22.4707 47.7643 23.111C47.6809 23.6188 47.3132 24.2074 47.3317 24.7217Z" fill="#F0CAC5"/>
<path d="M46.4414 20.0804C46.4817 20.5708 46.6872 21.0302 47.0211 21.3767C47.355 21.7233 47.7956 21.9344 48.2644 21.9725C48.7866 22.0113 49.3953 21.8722 49.7692 22.2538C49.8588 22.3476 49.936 22.4673 50.0596 22.4932C50.1386 22.5044 50.2186 22.5044 50.2975 22.4932C50.7085 22.4738 50.9155 23.0042 50.9773 23.4279C51.2585 23.3632 51.0823 22.7131 51.3697 22.7066C51.4293 22.7082 51.4864 22.7324 51.5304 22.7746C51.6231 22.8581 51.6981 22.9611 51.7504 23.0768C51.8028 23.1926 51.8313 23.3186 51.8342 23.4466C51.8371 23.5746 51.8143 23.7019 51.7673 23.8201C51.7203 23.9383 51.6501 24.0449 51.5613 24.133C51.8931 24.5626 52.0857 25.0916 52.1113 25.6434C52.1267 26.1092 52.1329 26.7366 52.5655 26.8304C52.6625 26.8437 52.7612 26.8317 52.8528 26.7956C52.9444 26.7595 53.0261 26.7004 53.0908 26.6234C53.6469 26.0477 53.4368 25.0257 53.8632 24.3432C54.1289 23.9195 54.6202 23.6608 54.7902 23.1853C54.8767 22.8991 54.8767 22.5918 54.7902 22.3056C54.6042 21.5681 54.1766 20.9225 53.582 20.4814C53.3285 20.3255 53.0904 20.1435 52.8714 19.9381C52.7127 19.7342 52.5691 19.5179 52.4419 19.2912C51.586 17.9522 50.279 18.0945 48.9287 18.1398C47.8071 18.1495 46.3981 18.6055 46.4414 20.0804Z" fill="#3E3E54"/>
<path d="M30.3404 66.3539C29.824 66.3539 29.3192 66.1936 28.8899 65.8933C28.4605 65.593 28.1259 65.1662 27.9282 64.6668C27.7306 64.1674 27.6789 63.6179 27.7797 63.0877C27.8804 62.5576 28.1291 62.0706 28.4942 61.6884C28.8594 61.3062 29.3246 61.0459 29.831 60.9404C30.3375 60.835 30.8625 60.8891 31.3396 61.096C31.8166 61.3028 32.2244 61.6531 32.5113 62.1025C32.7982 62.552 32.9513 63.0804 32.9513 63.6209C32.9505 64.3455 32.6752 65.0401 32.1857 65.5525C31.6962 66.0648 31.0326 66.3531 30.3404 66.3539ZM30.3404 62.366C30.1033 62.366 29.8715 62.4396 29.6744 62.5775C29.4772 62.7154 29.3235 62.9114 29.2328 63.1407C29.1421 63.37 29.1183 63.6223 29.1646 63.8657C29.2108 64.1092 29.325 64.3328 29.4927 64.5083C29.6604 64.6838 29.874 64.8033 30.1065 64.8517C30.3391 64.9001 30.5801 64.8753 30.7992 64.7803C31.0183 64.6853 31.2055 64.5245 31.3372 64.3181C31.469 64.1117 31.5393 63.8691 31.5393 63.6209C31.5393 63.2881 31.413 62.9689 31.1881 62.7336C30.9633 62.4982 30.6584 62.366 30.3404 62.366Z" fill="#8181FB"/>
<path d="M30.3404 66.6644C29.8239 66.6644 29.319 66.504 28.8895 66.2036C28.4601 65.9031 28.1255 65.4761 27.9279 64.9765C27.7304 64.4769 27.6789 63.9273 27.7799 63.397C27.8809 62.8668 28.1299 62.3798 28.4953 61.9977C28.8608 61.6156 29.3263 61.3556 29.8329 61.2505C30.3396 61.1454 30.8647 61.2 31.3417 61.4074C31.8187 61.6147 32.2263 61.9655 32.5128 62.4154C32.7993 62.8652 32.9519 63.394 32.9513 63.9346C32.9505 64.6589 32.6751 65.3532 32.1855 65.8651C31.696 66.3769 31.0323 66.6644 30.3404 66.6644ZM30.3404 62.6797C30.1033 62.6797 29.8715 62.7533 29.6744 62.8912C29.4772 63.0291 29.3235 63.2251 29.2328 63.4544C29.1421 63.6837 29.1183 63.936 29.1646 64.1795C29.2108 64.4229 29.325 64.6465 29.4927 64.822C29.6603 64.9975 29.874 65.117 30.1065 65.1654C30.3391 65.2139 30.5801 65.189 30.7992 65.094C31.0183 64.999 31.2055 64.8382 31.3372 64.6318C31.469 64.4255 31.5393 64.1828 31.5393 63.9346C31.5393 63.6018 31.413 63.2826 31.1881 63.0473C30.9633 62.8119 30.6584 62.6797 30.3404 62.6797Z" fill="url(#paint21_linear)"/>
<path d="M50.4088 66.3539C49.8924 66.3539 49.3876 66.1936 48.9582 65.8933C48.5289 65.593 48.1942 65.1662 47.9966 64.6668C47.799 64.1674 47.7473 63.6179 47.848 63.0877C47.9488 62.5576 48.1974 62.0706 48.5626 61.6884C48.9277 61.3062 49.3929 61.0459 49.8994 60.9404C50.4059 60.835 50.9309 60.8891 51.4079 61.096C51.885 61.3028 52.2928 61.6531 52.5797 62.1025C52.8666 62.552 53.0197 63.0804 53.0197 63.6209C53.0189 64.3455 52.7435 65.0401 52.2541 65.5525C51.7646 66.0648 51.101 66.3531 50.4088 66.3539ZM50.4088 62.366C50.1717 62.366 49.9399 62.4396 49.7427 62.5775C49.5456 62.7154 49.3919 62.9114 49.3012 63.1407C49.2104 63.37 49.1867 63.6223 49.233 63.8657C49.2792 64.1092 49.3934 64.3328 49.5611 64.5083C49.7287 64.6838 49.9423 64.8033 50.1749 64.8517C50.4074 64.9001 50.6485 64.8753 50.8676 64.7803C51.0866 64.6853 51.2739 64.5245 51.4056 64.3181C51.5373 64.1117 51.6076 63.8691 51.6076 63.6209C51.6076 63.2881 51.4813 62.9689 51.2565 62.7336C51.0317 62.4982 50.7267 62.366 50.4088 62.366Z" fill="#8181FB"/>
<path d="M50.4088 66.6644C49.8922 66.6644 49.3873 66.504 48.9579 66.2036C48.5285 65.9031 48.1938 65.4761 47.9963 64.9765C47.7988 64.4769 47.7473 63.9273 47.8482 63.397C47.9492 62.8668 48.1982 62.3798 48.5637 61.9977C48.9291 61.6156 49.3946 61.3556 49.9013 61.2505C50.408 61.1454 50.933 61.2 51.4101 61.4074C51.8871 61.6147 52.2947 61.9655 52.5812 62.4154C52.8677 62.8652 53.0203 63.394 53.0197 63.9346C53.0189 64.6589 52.7434 65.3532 52.2539 65.8651C51.7643 66.3769 51.1007 66.6644 50.4088 66.6644ZM50.4088 62.6797C50.1717 62.6797 49.9399 62.7533 49.7427 62.8912C49.5456 63.0291 49.3919 63.2251 49.3012 63.4544C49.2104 63.6837 49.1867 63.936 49.2329 64.1795C49.2792 64.4229 49.3934 64.6465 49.5611 64.822C49.7287 64.9975 49.9423 65.117 50.1749 65.1654C50.4074 65.2139 50.6485 65.189 50.8676 65.094C51.0866 64.999 51.2739 64.8382 51.4056 64.6318C51.5373 64.4255 51.6076 64.1828 51.6076 63.9346C51.6076 63.6018 51.4813 63.2826 51.2565 63.0473C51.0317 62.8119 50.7267 62.6797 50.4088 62.6797Z" fill="url(#paint22_linear)"/>
<path d="M73.3113 66.3539C72.7947 66.3546 72.2897 66.1948 71.8599 65.8949C71.4301 65.595 71.095 65.1684 70.8969 64.669C70.6988 64.1697 70.6467 63.6201 70.7471 63.0897C70.8475 62.5593 71.0959 62.0721 71.4609 61.6895C71.8259 61.307 72.2911 61.0464 72.7977 60.9407C73.3042 60.8349 73.8294 60.8889 74.3066 61.0956C74.7839 61.3024 75.1918 61.6527 75.4789 62.1022C75.7659 62.5517 75.9191 63.0802 75.9191 63.6209C75.9183 64.3449 75.6434 65.0391 75.1546 65.5514C74.6658 66.0636 74.0029 66.3522 73.3113 66.3539ZM73.3113 62.366C73.0742 62.366 72.8424 62.4396 72.6452 62.5775C72.4481 62.7154 72.2944 62.9114 72.2037 63.1407C72.1129 63.37 72.0892 63.6223 72.1355 63.8657C72.1817 64.1092 72.2959 64.3328 72.4636 64.5083C72.6312 64.6838 72.8448 64.8033 73.0774 64.8517C73.3099 64.9001 73.551 64.8753 73.7701 64.7803C73.9891 64.6853 74.1764 64.5245 74.3081 64.3181C74.4398 64.1117 74.5101 63.8691 74.5101 63.6209C74.5101 63.2881 74.3838 62.9689 74.159 62.7335C73.9342 62.4982 73.6292 62.366 73.3113 62.366Z" fill="#8181FB"/>
<path d="M73.3113 66.6644C72.7946 66.6651 72.2894 66.5052 71.8596 66.2052C71.4297 65.9051 71.0946 65.4783 70.8966 64.9788C70.6986 64.4792 70.6466 63.9295 70.7473 63.399C70.8479 62.8686 71.0967 62.3813 71.462 61.9989C71.8273 61.6165 72.2928 61.3561 72.7996 61.2508C73.3063 61.1454 73.8316 61.1998 74.3088 61.4071C74.786 61.6143 75.1937 61.9651 75.4804 62.415C75.767 62.865 75.9197 63.3938 75.9191 63.9346C75.9175 64.6581 75.6422 65.3514 75.1535 65.863C74.6648 66.3745 74.0024 66.6627 73.3113 66.6644ZM73.3113 62.6797C73.0742 62.6797 72.8424 62.7533 72.6452 62.8912C72.4481 63.0291 72.2944 63.2251 72.2037 63.4544C72.1129 63.6837 72.0892 63.936 72.1355 64.1795C72.1817 64.4229 72.2959 64.6465 72.4636 64.822C72.6312 64.9975 72.8448 65.117 73.0774 65.1654C73.3099 65.2139 73.551 65.189 73.7701 65.094C73.9891 64.999 74.1764 64.8382 74.3081 64.6318C74.4398 64.4255 74.5101 64.1828 74.5101 63.9346C74.5101 63.6018 74.3838 63.2826 74.159 63.0473C73.9342 62.8119 73.6292 62.6797 73.3113 62.6797Z" fill="url(#paint23_linear)"/>
<path d="M27.9092 61.4215C27.9092 61.4215 30.0288 64.3486 30.242 64.3324C30.4552 64.3162 30.7549 63.9152 30.7549 63.9152L28.3232 61.3277L27.9092 61.4215Z" fill="#606161"/>
<path d="M25.666 61.1693L26.0862 62.4953L28.4963 61.3245L28.1503 60.1278L25.666 61.1693Z" fill="#8181FB"/>
<path d="M25.666 61.1693L26.0862 62.4953L28.4963 61.3245L28.1503 60.1278L25.666 61.1693Z" fill="url(#paint24_linear)"/>
<path d="M33.5137 66.4735L33.9339 67.7996L36.344 66.6288L35.9979 65.4321L33.5137 66.4735Z" fill="#8181FB"/>
<path d="M33.5137 66.4735L33.9339 67.7996L36.344 66.6288L35.9979 65.4321L33.5137 66.4735Z" fill="url(#paint25_linear)"/>
<path d="M48.0361 61.1596C48.0361 61.1596 50.1558 64.0898 50.369 64.0704C50.5822 64.051 50.8819 63.6532 50.8819 63.6532L48.4502 61.0658L48.0361 61.1596Z" fill="#606161"/>
<path d="M45.7832 60.9104L46.2034 62.2332L48.6135 61.0656L48.2643 59.8689L45.7832 60.9104Z" fill="#8181FB"/>
<path d="M45.7832 60.9104L46.2034 62.2332L48.6135 61.0656L48.2643 59.8689L45.7832 60.9104Z" fill="url(#paint26_linear)"/>
<path d="M71.3398 61.5767C71.3398 61.5767 73.4595 64.507 73.6758 64.4876C73.8921 64.4682 74.1887 64.0736 74.1887 64.0736L71.7539 61.4861L71.3398 61.5767Z" fill="#606161"/>
<path d="M69.0967 61.3244L69.52 62.6505L71.927 61.4797L71.5809 60.2862L69.0967 61.3244Z" fill="#8181FB"/>
<path d="M69.0967 61.3244L69.52 62.6505L71.927 61.4797L71.5809 60.2862L69.0967 61.3244Z" fill="url(#paint27_linear)"/>
<path d="M52.9362 30.2589C52.278 30.6632 51.9258 31.4459 51.6724 32.1995C51.107 33.8878 50.8351 35.7152 49.9359 37.2386C49.4195 38.1064 48.721 38.8397 47.8935 39.3829C47.3621 39.729 46.7688 40.0007 46.3486 40.4858C45.9284 40.971 45.7306 41.7795 46.1478 42.2712C46.5649 42.7628 47.2539 42.7369 47.8379 42.5784C50.3376 41.8992 52.1019 39.6061 53.5078 37.3388C54.1538 36.3766 54.6599 35.3193 55.0094 34.2015C55.3648 32.9013 55.2103 28.8584 52.9362 30.2589Z" fill="#8181FB"/>
<path d="M72.9865 19.9834C72.3839 20.0352 71.6362 20.0643 71.2963 20.6044C70.8823 21.2675 71.4075 21.5553 71.9483 21.7267C72.9277 22.0502 73.0328 23.1434 73.3016 24.0166C73.4085 24.4728 73.6629 24.8762 74.0216 25.1583C74.2255 25.3007 74.4696 25.3362 74.6735 25.4818C74.9695 25.7028 75.1799 26.0276 75.2668 26.3971C75.3435 26.7832 75.4628 27.1588 75.6221 27.5162C75.8872 27.9235 76.2493 28.2513 76.6726 28.4671C77.0229 28.7012 77.4099 28.8687 77.8159 28.9619C78.4432 29.025 79.0753 28.9135 79.6481 28.6385C79.8194 28.5524 80.0053 28.503 80.195 28.4929C80.7976 28.4929 81.1436 29.2659 81.7245 29.4341C82.1664 29.5603 82.6515 29.3791 83.0964 29.4729C83.6408 29.6389 84.1998 29.7473 84.7649 29.7964C85.3886 29.8376 86.0063 29.6487 86.5107 29.2627C86.7557 29.0637 86.9299 28.7844 87.0055 28.4696C87.0811 28.1548 87.0537 27.8225 86.9278 27.5259C86.6405 26.976 86.0009 26.7787 85.5003 26.4133C85.246 26.2206 85.0306 25.977 84.8668 25.6966C84.7029 25.4163 84.5937 25.1047 84.5455 24.7799C84.4745 24.256 84.5455 23.6997 84.3509 23.221C84.2161 22.9694 84.0342 22.7488 83.8159 22.5726C83.5977 22.3965 83.3477 22.2682 83.081 22.1957C82.4847 21.9827 81.8569 21.883 81.2271 21.9014C80.3001 21.9337 79.3361 22.2248 78.4153 22.0114C77.4945 21.7979 76.7128 21.0411 75.8909 20.4848C75.0165 19.8929 74.3027 19.8379 73.314 19.9834H72.9865Z" fill="#3E3E54"/>
<path d="M72.9865 19.9834C72.3839 20.0352 71.6362 20.0643 71.2963 20.6044C70.8823 21.2675 71.4075 21.5553 71.9483 21.7267C72.9277 22.0502 73.0328 23.1434 73.3016 24.0166C73.4085 24.4728 73.6629 24.8762 74.0216 25.1583C74.2255 25.3007 74.4696 25.3362 74.6735 25.4818C74.9695 25.7028 75.1799 26.0276 75.2668 26.3971C75.3435 26.7832 75.4628 27.1588 75.6221 27.5162C75.8872 27.9235 76.2493 28.2513 76.6726 28.4671C77.0229 28.7012 77.4099 28.8687 77.8159 28.9619C78.4432 29.025 79.0753 28.9135 79.6481 28.6385C79.8194 28.5524 80.0053 28.503 80.195 28.4929C80.7976 28.4929 81.1436 29.2659 81.7245 29.4341C82.1664 29.5603 82.6515 29.3791 83.0964 29.4729C83.6408 29.6389 84.1998 29.7473 84.7649 29.7964C85.3886 29.8376 86.0063 29.6487 86.5107 29.2627C86.7557 29.0637 86.9299 28.7844 87.0055 28.4696C87.0811 28.1548 87.0537 27.8225 86.9278 27.5259C86.6405 26.976 86.0009 26.7787 85.5003 26.4133C85.246 26.2206 85.0306 25.977 84.8668 25.6966C84.7029 25.4163 84.5937 25.1047 84.5455 24.7799C84.4745 24.256 84.5455 23.6997 84.3509 23.221C84.2161 22.9694 84.0342 22.7488 83.8159 22.5726C83.5977 22.3965 83.3477 22.2682 83.081 22.1957C82.4847 21.9827 81.8569 21.883 81.2271 21.9014C80.3001 21.9337 79.3361 22.2248 78.4153 22.0114C77.4945 21.7979 76.7128 21.0411 75.8909 20.4848C75.0165 19.8929 74.3027 19.8379 73.314 19.9834H72.9865Z" fill="url(#paint28_linear)"/>
<defs>
<linearGradient id="paint0_linear" x1="47.7734" y1="76.0856" x2="48.2048" y2="52.2368" gradientUnits="userSpaceOnUse">
<stop stop-color="#010101" stop-opacity="0"/>
<stop offset="0.95" stop-color="#010101"/>
</linearGradient>
<linearGradient id="paint1_linear" x1="22111.3" y1="-22576.2" x2="26790.3" y2="-21249.2" gradientUnits="userSpaceOnUse">
<stop stop-color="white" stop-opacity="0"/>
<stop offset="0.95" stop-color="white"/>
</linearGradient>
<linearGradient id="paint2_linear" x1="78.9964" y1="64.8725" x2="71.482" y2="47.3245" gradientUnits="userSpaceOnUse">
<stop stop-color="#0D0D14"/>
<stop offset="0.47" stop-color="#010101" stop-opacity="0.47"/>
<stop offset="0.95" stop-color="#010101"/>
</linearGradient>
<linearGradient id="paint3_linear" x1="890.261" y1="668.998" x2="916.187" y2="668.998" gradientUnits="userSpaceOnUse">
<stop stop-color="#010101" stop-opacity="0"/>
<stop offset="0.47" stop-color="#010101" stop-opacity="0.47"/>
<stop offset="0.95" stop-color="#010101"/>
</linearGradient>
<linearGradient id="paint4_linear" x1="653.397" y1="664.729" x2="679.323" y2="664.729" gradientUnits="userSpaceOnUse">
<stop stop-color="#010101" stop-opacity="0"/>
<stop offset="0.47" stop-color="#010101" stop-opacity="0.47"/>
<stop offset="0.95" stop-color="#010101"/>
</linearGradient>
<linearGradient id="paint5_linear" x1="2183.62" y1="5056.65" x2="2583.5" y2="4668.45" gradientUnits="userSpaceOnUse">
<stop stop-color="#010101" stop-opacity="0"/>
<stop offset="0.47" stop-color="#010101" stop-opacity="0.47"/>
<stop offset="0.95" stop-color="#010101"/>
</linearGradient>
<linearGradient id="paint6_linear" x1="903.318" y1="682.706" x2="901.472" y2="668.305" gradientUnits="userSpaceOnUse">
<stop stop-color="#010101" stop-opacity="0"/>
<stop offset="0.47" stop-color="#010101" stop-opacity="0.47"/>
<stop offset="0.95" stop-color="#010101"/>
</linearGradient>
<linearGradient id="paint7_linear" x1="1246.14" y1="682.706" x2="1244.3" y2="668.305" gradientUnits="userSpaceOnUse">
<stop stop-color="#010101" stop-opacity="0"/>
<stop offset="0.47" stop-color="#010101" stop-opacity="0.47"/>
<stop offset="0.95" stop-color="#010101"/>
</linearGradient>
<linearGradient id="paint8_linear" x1="1668.44" y1="682.706" x2="1666.59" y2="668.305" gradientUnits="userSpaceOnUse">
<stop stop-color="#010101" stop-opacity="0"/>
<stop offset="0.47" stop-color="#010101" stop-opacity="0.47"/>
<stop offset="0.95" stop-color="#010101"/>
</linearGradient>
<linearGradient id="paint9_linear" x1="1789.08" y1="7719.51" x2="1846.26" y2="5559.47" gradientUnits="userSpaceOnUse">
<stop stop-color="#010101" stop-opacity="0"/>
<stop offset="0.47" stop-color="#010101" stop-opacity="0.47"/>
<stop offset="0.95" stop-color="#010101"/>
</linearGradient>
<linearGradient id="paint10_linear" x1="6659.81" y1="7804.62" x2="6716.99" y2="5644.59" gradientUnits="userSpaceOnUse">
<stop stop-color="#010101" stop-opacity="0"/>
<stop offset="0.47" stop-color="#010101" stop-opacity="0.47"/>
<stop offset="0.95" stop-color="#010101"/>
</linearGradient>
<linearGradient id="paint11_linear" x1="1413.52" y1="3701.26" x2="3827.34" y2="8565.6" gradientUnits="userSpaceOnUse">
<stop stop-color="#010101" stop-opacity="0"/>
<stop offset="0.47" stop-color="#010101" stop-opacity="0.47"/>
<stop offset="0.95" stop-color="#010101"/>
</linearGradient>
<linearGradient id="paint12_linear" x1="1470.45" y1="5099.15" x2="1763.12" y2="4678.79" gradientUnits="userSpaceOnUse">
<stop stop-color="#010101" stop-opacity="0"/>
<stop offset="0.47" stop-color="#010101" stop-opacity="0.47"/>
<stop offset="0.95" stop-color="#010101"/>
</linearGradient>
<linearGradient id="paint13_linear" x1="853.515" y1="1193.08" x2="825.328" y2="1325.55" gradientUnits="userSpaceOnUse">
<stop stop-color="#010101" stop-opacity="0"/>
<stop offset="0.47" stop-color="#010101" stop-opacity="0.47"/>
<stop offset="0.95" stop-color="#010101"/>
</linearGradient>
<linearGradient id="paint14_linear" x1="1331.21" y1="1198.05" x2="1302.82" y2="1331.02" gradientUnits="userSpaceOnUse">
<stop stop-color="#010101" stop-opacity="0"/>
<stop offset="0.47" stop-color="#010101" stop-opacity="0.47"/>
<stop offset="0.95" stop-color="#010101"/>
</linearGradient>
<linearGradient id="paint15_linear" x1="1862.47" y1="1197.98" x2="1834.07" y2="1330.97" gradientUnits="userSpaceOnUse">
<stop stop-color="#010101" stop-opacity="0"/>
<stop offset="0.47" stop-color="#010101" stop-opacity="0.47"/>
<stop offset="0.95" stop-color="#010101"/>
</linearGradient>
<linearGradient id="paint16_linear" x1="431.453" y1="1611.56" x2="375.351" y2="1591.45" gradientUnits="userSpaceOnUse">
<stop stop-color="#010101" stop-opacity="0"/>
<stop offset="0.47" stop-color="#010101" stop-opacity="0.47"/>
<stop offset="0.95" stop-color="#010101"/>
</linearGradient>
<linearGradient id="paint17_linear" x1="1685.05" y1="4186.22" x2="2313.53" y2="4186.22" gradientUnits="userSpaceOnUse">
<stop stop-color="#010101" stop-opacity="0"/>
<stop offset="0.47" stop-color="#010101" stop-opacity="0.47"/>
<stop offset="0.95" stop-color="#010101"/>
</linearGradient>
<linearGradient id="paint18_linear" x1="2215.31" y1="4125.03" x2="1598.07" y2="5573.28" gradientUnits="userSpaceOnUse">
<stop stop-color="#010101" stop-opacity="0"/>
<stop offset="0.47" stop-color="#010101" stop-opacity="0.47"/>
<stop offset="0.95" stop-color="#010101"/>
</linearGradient>
<linearGradient id="paint19_linear" x1="2641.57" y1="4164.68" x2="3269.92" y2="4164.68" gradientUnits="userSpaceOnUse">
<stop stop-color="#010101" stop-opacity="0"/>
<stop offset="0.47" stop-color="#010101" stop-opacity="0.47"/>
<stop offset="0.95" stop-color="#010101"/>
</linearGradient>
<linearGradient id="paint20_linear" x1="3672.64" y1="4164.62" x2="4301.35" y2="4164.62" gradientUnits="userSpaceOnUse">
<stop stop-color="#010101" stop-opacity="0"/>
<stop offset="0.47" stop-color="#010101" stop-opacity="0.47"/>
<stop offset="0.95" stop-color="#010101"/>
</linearGradient>
<linearGradient id="paint21_linear" x1="718.526" y1="1831.92" x2="806.723" y2="1831.92" gradientUnits="userSpaceOnUse">
<stop stop-color="#010101" stop-opacity="0"/>
<stop offset="0.47" stop-color="#010101" stop-opacity="0.47"/>
<stop offset="0.95" stop-color="#010101"/>
</linearGradient>
<linearGradient id="paint22_linear" x1="1077.76" y1="1831.92" x2="1165.95" y2="1831.92" gradientUnits="userSpaceOnUse">
<stop stop-color="#010101" stop-opacity="0"/>
<stop offset="0.47" stop-color="#010101" stop-opacity="0.47"/>
<stop offset="0.95" stop-color="#010101"/>
</linearGradient>
<linearGradient id="paint23_linear" x1="1487.64" y1="1831.92" x2="1575.84" y2="1831.92" gradientUnits="userSpaceOnUse">
<stop stop-color="#010101" stop-opacity="0"/>
<stop offset="0.47" stop-color="#010101" stop-opacity="0.47"/>
<stop offset="0.95" stop-color="#010101"/>
</linearGradient>
<linearGradient id="paint24_linear" x1="369.264" y1="623.573" x2="395.189" y2="623.573" gradientUnits="userSpaceOnUse">
<stop stop-color="#010101" stop-opacity="0"/>
<stop offset="0.47" stop-color="#010101" stop-opacity="0.47"/>
<stop offset="0.95" stop-color="#010101"/>
</linearGradient>
<linearGradient id="paint25_linear" x1="449.002" y1="667.708" x2="474.927" y2="667.708" gradientUnits="userSpaceOnUse">
<stop stop-color="#010101" stop-opacity="0"/>
<stop offset="0.47" stop-color="#010101" stop-opacity="0.47"/>
<stop offset="0.95" stop-color="#010101"/>
</linearGradient>
<linearGradient id="paint26_linear" x1="573.662" y1="620.657" x2="599.588" y2="620.657" gradientUnits="userSpaceOnUse">
<stop stop-color="#010101" stop-opacity="0"/>
<stop offset="0.47" stop-color="#010101" stop-opacity="0.47"/>
<stop offset="0.95" stop-color="#010101"/>
</linearGradient>
<linearGradient id="paint27_linear" x1="810.526" y1="624.098" x2="836.452" y2="624.098" gradientUnits="userSpaceOnUse">
<stop stop-color="#010101" stop-opacity="0"/>
<stop offset="0.47" stop-color="#010101" stop-opacity="0.47"/>
<stop offset="0.95" stop-color="#010101"/>
</linearGradient>
<linearGradient id="paint28_linear" x1="4982.94" y1="1776.12" x2="4826.3" y2="2377.87" gradientUnits="userSpaceOnUse">
<stop stop-color="#010101" stop-opacity="0"/>
<stop offset="0.47" stop-color="#010101" stop-opacity="0.47"/>
<stop offset="0.95" stop-color="#010101"/>
</linearGradient>
</defs>
</svg>
