<svg width="48" height="48" viewBox="0 0 48 48" fill="none" xmlns="http://www.w3.org/2000/svg">
<path d="M39.5556 4H8.44444C5.98985 4 4 5.98985 4 8.44444V39.5556C4 42.0102 5.98985 44 8.44444 44H39.5556C42.0102 44 44 42.0102 44 39.5556V8.44444C44 5.98985 42.0102 4 39.5556 4Z" fill="#D9D9FE" stroke="#8181FB" stroke-linejoin="round" stroke-dasharray="2 3"/>
<path d="M16.061 19.3509C17.8777 19.3509 19.3504 17.8781 19.3504 16.0614C19.3504 14.2447 17.8777 12.7719 16.061 12.7719C14.2442 12.7719 12.7715 14.2447 12.7715 16.0614C12.7715 17.8781 14.2442 19.3509 16.061 19.3509Z" stroke="#8181FB" stroke-linecap="round" stroke-linejoin="round"/>
<path d="M43.4735 30.3158L32.5086 19.3509L8.38574 43.4737" stroke="#8181FB" stroke-linecap="round" stroke-linejoin="round"/>
</svg>
