<svg width="20" height="20" viewBox="0 0 20 20" fill="none" xmlns="http://www.w3.org/2000/svg">
<circle cx="10" cy="10" r="9.5" fill="#D9D9FE" fill-opacity="0.4" stroke="#6E71FF"/>
<path fill-rule="evenodd" clip-rule="evenodd" d="M10 6.25C10.2117 6.25 10.3833 6.4216 10.3833 6.63329V9.61671H13.3667C13.5784 9.61671 13.75 9.78832 13.75 10C13.75 10.2117 13.5784 10.3833 13.3667 10.3833H10.3833V13.3667C10.3833 13.5784 10.2117 13.75 10 13.75C9.78832 13.75 9.61671 13.5784 9.61671 13.3667V10.3833H6.63329C6.4216 10.3833 6.25 10.2117 6.25 10C6.25 9.78832 6.4216 9.61671 6.63329 9.61671H9.61671V6.63329C9.61671 6.4216 9.78832 6.25 10 6.25Z" fill="#6E71FF"/>
</svg>
