<svg width="32" height="32" viewBox="0 0 32 32" fill="none" xmlns="http://www.w3.org/2000/svg">
<rect width="32" height="32" rx="4" fill="#FFD1D1"/>
<path fill-rule="evenodd" clip-rule="evenodd" d="M15.1006 9.66731C15.3752 9.51273 15.6849 9.43152 16 9.43152C16.3151 9.43152 16.6249 9.51273 16.8994 9.66731C17.174 9.82189 17.4041 10.0446 17.5675 10.314L17.569 10.3164L23.2197 19.75C23.3798 20.0272 23.4645 20.3415 23.4654 20.6616C23.4662 20.9817 23.3833 21.2965 23.2248 21.5746C23.0663 21.8527 22.8377 22.0845 22.5618 22.2468C22.2859 22.4092 21.9723 22.4965 21.6522 22.5L21.6467 22.5L10.3479 22.5C10.0277 22.4965 9.71415 22.4092 9.43825 22.2468C9.16235 22.0845 8.93377 21.8527 8.77524 21.5746C8.61672 21.2965 8.53378 20.9817 8.53468 20.6616C8.53557 20.3415 8.62027 20.0272 8.78035 19.75L8.78436 19.743L14.4311 10.3164L14.86 10.5733L14.4325 10.314C14.5959 10.0446 14.826 9.82189 15.1006 9.66731ZM15.2882 10.8316C15.2879 10.832 15.2877 10.8323 15.2875 10.8327L9.64458 20.2531C9.57296 20.3784 9.53508 20.5201 9.53467 20.6644C9.53426 20.8099 9.57196 20.953 9.64402 21.0794C9.71608 21.2058 9.81998 21.3112 9.94539 21.385C10.0701 21.4584 10.2117 21.498 10.3564 21.5H21.6436C21.7883 21.498 21.9299 21.4584 22.0546 21.385C22.18 21.3112 22.284 21.2058 22.356 21.0794C22.4281 20.953 22.4658 20.8099 22.4654 20.6644C22.465 20.5201 22.4271 20.3784 22.3554 20.2531L16.7125 10.8327C16.7123 10.8323 16.7121 10.832 16.7119 10.8316C16.6376 10.7096 16.5333 10.6088 16.4088 10.5387C16.284 10.4684 16.1432 10.4315 16 10.4315C15.8568 10.4315 15.716 10.4684 15.5912 10.5387C15.4667 10.6088 15.3624 10.7096 15.2882 10.8316Z" fill="#FF6E6E"/>
<path fill-rule="evenodd" clip-rule="evenodd" d="M16 13.5C16.2761 13.5 16.5 13.7239 16.5 14V16.6667C16.5 16.9428 16.2761 17.1667 16 17.1667C15.7239 17.1667 15.5 16.9428 15.5 16.6667V14C15.5 13.7239 15.7239 13.5 16 13.5Z" fill="#FF6E6E"/>
<path fill-rule="evenodd" clip-rule="evenodd" d="M15.5 19.3334C15.5 19.0572 15.7239 18.8334 16 18.8334H16.0067C16.2828 18.8334 16.5067 19.0572 16.5067 19.3334C16.5067 19.6095 16.2828 19.8334 16.0067 19.8334H16C15.7239 19.8334 15.5 19.6095 15.5 19.3334Z" fill="#FF6E6E"/>
</svg>
