<svg width="16" height="16" viewBox="0 0 16 16" fill="none" xmlns="http://www.w3.org/2000/svg">
<path d="M14 7.66668C14.0023 8.54659 13.7967 9.4146 13.4 10.2C12.9296 11.1412 12.2065 11.9328 11.3116 12.4862C10.4168 13.0396 9.38548 13.3329 8.33332 13.3333C7.45341 13.3356 6.5854 13.13 5.79999 12.7333L2 14L3.26666 10.2C2.86995 9.4146 2.66437 8.54659 2.66667 7.66668C2.66707 6.61452 2.96041 5.58325 3.51381 4.68838C4.06721 3.79352 4.85883 3.0704 5.79999 2.60002C6.5854 2.20331 7.45341 1.99772 8.33332 2.00002H8.66666C10.0562 2.07668 11.3687 2.66319 12.3527 3.64726C13.3368 4.63132 13.9233 5.94378 14 7.33334V7.66668Z" stroke="#6E71FF" stroke-linecap="round" stroke-linejoin="round"/>
</svg>
