<svg width="16" height="16" viewBox="0 0 16 16" fill="none" xmlns="http://www.w3.org/2000/svg">
<path d="M2 4.40039H3.33333H14" stroke="#FF6E6E" stroke-linecap="round" stroke-linejoin="round"/>
<path d="M5.33301 4.4V3.2C5.33301 2.88174 5.47348 2.57652 5.72353 2.35147C5.97358 2.12643 6.31272 2 6.66634 2H9.33301C9.68663 2 10.0258 2.12643 10.2758 2.35147C10.5259 2.57652 10.6663 2.88174 10.6663 3.2V4.4M12.6663 4.4V12.8C12.6663 13.1183 12.5259 13.4235 12.2758 13.6485C12.0258 13.8736 11.6866 14 11.333 14H4.66634C4.31272 14 3.97358 13.8736 3.72353 13.6485C3.47348 13.4235 3.33301 13.1183 3.33301 12.8V4.4H12.6663Z" stroke="#FF6E6E" stroke-linecap="round" stroke-linejoin="round"/>
</svg>
