<svg width="24" height="24" viewBox="0 0 24 24" fill="none" xmlns="http://www.w3.org/2000/svg">
<rect x="0.5" y="0.5" width="23" height="23" rx="3.5" fill="#111111" stroke="#111111"/>
<path fill-rule="evenodd" clip-rule="evenodd" d="M14.3333 6.66667H15.9999C16.3666 6.66667 16.6666 6.96667 16.6666 7.33333C16.6666 7.7 16.3666 8 15.9999 8H7.99992C7.63325 8 7.33325 7.7 7.33325 7.33333C7.33325 6.96667 7.63325 6.66667 7.99992 6.66667H9.66659L10.1399 6.19333C10.2599 6.07333 10.4333 6 10.6066 6H13.3933C13.5666 6 13.7399 6.07333 13.8599 6.19333L14.3333 6.66667ZM9.33325 18C8.59992 18 7.99992 17.4 7.99992 16.6667V10C7.99992 9.26667 8.59992 8.66667 9.33325 8.66667H14.6666C15.3999 8.66667 15.9999 9.26667 15.9999 10V16.6667C15.9999 17.4 15.3999 18 14.6666 18H9.33325Z" fill="white"/>
</svg>
