<svg width="232" height="232" viewBox="0 0 232 232" fill="none" xmlns="http://www.w3.org/2000/svg">
<g clip-path="url(#clip0)">
<path opacity="0.18" d="M176.918 12.5879C171.705 10.2194 166.953 6.48037 161.766 4.05502C154.725 0.770702 147.119 -0.0124825 139.584 0.000149539C115.285 0.000149539 90.4966 8.46991 71.5063 27.4242C63.9405 34.9592 57.1424 44.2374 48.0866 48.4376C40.9198 51.7724 32.4954 51.8545 26.6973 58.0884C20.2123 65.036 19.4092 77.1565 19.9901 87.8305C20.5709 98.5046 21.9598 109.779 18.3133 119.455C16.1718 125.139 12.5 129.63 9.48984 134.657C5.4103 141.482 2.54792 149.32 1.0956 157.645C-0.356724 165.97 -0.365247 174.587 1.07061 182.916C2.50646 191.245 5.35332 199.093 9.41935 205.93C13.4854 212.767 18.6761 218.435 24.6417 222.551C36.5662 230.762 50.7028 232.252 64.3243 231.968C76.7589 231.709 89.7643 229.884 100.083 221.199C106.729 215.597 111.952 207.386 119.169 203.028C127.871 197.786 138.023 198.935 147.685 198.86C159.129 198.758 170.857 196.636 180.842 189.638C190.827 182.64 198.822 170.115 199.731 155.854C200.423 144.908 197.065 133.495 199.999 123.156C201.115 119.221 203.08 115.754 205.186 112.52C212.934 100.576 223.191 90.6853 228.085 76.5375C230.737 68.8825 231.621 60.4506 231.934 52.1198C232.318 41.6289 231.186 29.5401 224.302 23.5146C218.06 18.0513 210.373 20.5777 203.337 19.3145C194.691 17.7418 185.155 16.3144 176.918 12.5879Z" fill="#6E71FF"/>
<path d="M76.7726 125.411C76.7726 125.411 52.0349 119.344 35.461 133.11C18.8872 146.877 37.7984 141.051 43.8486 142.918C49.8988 144.786 59.0189 148.286 59.0189 148.286C59.0189 148.286 84.2431 136.37 76.7726 125.411Z" fill="#3E3E54"/>
<path d="M76.7726 125.411C76.7726 125.411 52.0349 119.344 35.461 133.11C18.8872 146.877 37.7984 141.051 43.8486 142.918C49.8988 144.786 59.0189 148.286 59.0189 148.286C59.0189 148.286 84.2431 136.37 76.7726 125.411Z" fill="#3E3E54"/>
<path d="M76.7726 125.411C76.7726 125.411 52.0349 119.344 35.461 133.11C18.8872 146.877 37.7984 141.051 43.8486 142.918C49.8988 144.786 59.0189 148.286 59.0189 148.286C59.0189 148.286 84.2431 136.37 76.7726 125.411Z" fill="url(#paint0_linear)"/>
<path d="M68.1054 164.686C68.1054 164.686 83.6671 154.42 93.3128 157.529L101.404 160.017C101.404 160.017 96.4274 191.454 68.7261 194.255C68.7261 194.255 62.8156 194.876 69.3523 183.983C75.8891 173.091 68.1054 164.686 68.1054 164.686Z" fill="#3E3E54"/>
<path d="M68.1054 164.686C68.1054 164.686 83.6671 154.42 93.3128 157.529L101.404 160.017C101.404 160.017 96.4274 191.454 68.7261 194.255C68.7261 194.255 62.8156 194.876 69.3523 183.983C75.8891 173.091 68.1054 164.686 68.1054 164.686Z" fill="#3E3E54"/>
<path d="M68.1054 164.686C68.1054 164.686 83.6671 154.42 93.3128 157.529L101.404 160.017C101.404 160.017 96.4274 191.454 68.7261 194.255C68.7261 194.255 62.8156 194.876 69.3523 183.983C75.8891 173.091 68.1054 164.686 68.1054 164.686Z" fill="url(#paint1_linear)"/>
<path d="M111.447 62.2579C112.56 62.8503 113.758 63.2689 114.998 63.4992C116.826 63.7397 118.644 63.1581 120.416 62.6605C122.48 62.0834 124.572 61.6113 126.684 61.2458C127.848 61.0501 129.206 60.9438 130.039 61.8049C130.873 62.6661 130.705 64.1535 129.978 65.1096C129.251 66.0658 128.127 66.6138 127.042 67.1338L120.679 70.1701C119.59 70.7316 118.452 71.1921 117.279 71.5457C112.431 72.8542 107.399 70.4274 103.177 67.7266C101.55 66.6753 99.7883 65.2886 99.7212 63.3538C99.7421 62.5861 99.9012 61.8284 100.191 61.1172C100.418 60.2347 100.877 59.4293 101.522 58.7854C103.445 57.1247 109.507 61.3464 111.447 62.2579Z" fill="#6E71FF"/>
<path d="M111.313 62.3248C112.426 62.9172 113.624 63.3358 114.864 63.5661C116.692 63.8066 118.509 63.225 120.282 62.7274C122.353 62.1488 124.453 61.6785 126.573 61.3183C127.73 61.117 129.094 61.0107 129.928 61.8774C130.761 62.7441 130.593 64.2204 129.866 65.1765C129.139 66.1327 128.015 66.6807 126.93 67.2007L120.567 70.237C119.478 70.7985 118.34 71.259 117.167 71.6126C112.319 72.9211 107.287 70.4943 103.065 67.7935C101.438 66.7478 99.6765 65.3555 99.6094 63.4207C99.6263 62.6526 99.7855 61.8942 100.079 61.1841C100.296 60.3126 100.74 59.514 101.365 58.8691C103.311 57.1916 109.35 61.4189 111.313 62.3248Z" fill="url(#paint2_linear)"/>
<path d="M124.095 85.8714C122.289 88.6673 119.968 91.1332 117.664 93.5544C115.361 95.9757 113.057 98.3577 109.993 99.4928C108.483 100.052 106.693 100.242 105.318 99.3922C103.825 98.4751 103.21 96.5125 103.489 94.779C103.864 93.0515 104.723 91.4667 105.967 90.2106C106.92 89.0335 107.98 87.946 109.131 86.9618C110.395 86.0001 111.737 86.0504 113.387 85.9329C116.951 85.6749 120.528 85.6543 124.095 85.8714Z" fill="#3E3E54"/>
<path d="M124.095 85.8714C122.289 88.6673 119.968 91.1332 117.664 93.5544C115.361 95.9757 113.057 98.3577 109.993 99.4928C108.483 100.052 106.693 100.242 105.318 99.3922C103.825 98.4751 103.21 96.5125 103.489 94.779C103.864 93.0515 104.723 91.4667 105.967 90.2106C106.92 89.0335 107.98 87.946 109.131 86.9618C110.395 86.0001 111.737 86.0504 113.387 85.9329C116.951 85.6749 120.528 85.6543 124.095 85.8714Z" fill="#3E3E54"/>
<path d="M124.095 85.8714C122.289 88.6673 119.968 91.1332 117.664 93.5544C115.361 95.9757 113.057 98.3577 109.993 99.4928C108.483 100.052 106.693 100.242 105.318 99.3922C103.825 98.4751 103.21 96.5125 103.489 94.779C103.864 93.0515 104.723 91.4667 105.967 90.2106C106.92 89.0335 107.98 87.946 109.131 86.9618C110.395 86.0001 111.737 86.0504 113.387 85.9329C116.951 85.6749 120.528 85.6543 124.095 85.8714Z" fill="url(#paint3_linear)"/>
<path d="M219.216 60.8264C218.993 62.1777 218.699 63.5161 218.332 64.8357C216.395 71.752 213.651 78.4165 210.157 84.6918C202.374 98.9675 188.115 117.683 162.259 135.017C121.663 162.338 86.0324 166.89 72.8862 167.578C69.4082 167.774 67.5014 167.701 67.5014 167.701L55.5967 149.248C55.5967 149.248 69.0168 129.269 93.2401 108.317C104.411 98.5941 116.534 90.0216 129.424 82.7291C137.138 78.3828 145.125 74.5389 153.334 71.2214C164.601 66.6014 176.355 63.2754 188.372 61.3073C207.837 58.2766 219.216 60.8264 219.216 60.8264Z" fill="#6E71FF"/>
<path d="M123.804 90.8091C123.245 91.8436 124.984 95.1427 125.935 95.8417C126.885 96.5406 128.048 96.96 128.731 97.933C128.868 98.1024 128.965 98.3001 129.017 98.5119C129.068 98.7237 129.071 98.9442 129.027 99.1576C128.848 99.7838 128.132 100.063 127.512 100.276L110.826 105.409C110.364 105.507 109.936 105.725 109.585 106.041C108.914 106.757 109.249 108.009 110.015 108.608C110.845 109.141 111.828 109.384 112.811 109.301C118.207 109.301 124.134 107.064 128.652 109.994C129.937 110.912 131.052 112.048 131.946 113.349C135.132 117.577 137.572 122.318 139.159 127.368C139.646 128.922 140.048 130.617 139.489 132.149C136.849 131.069 134.579 129.245 132.958 126.898C130.934 123.946 129.894 120.154 126.947 118.13C124.794 116.648 122.009 116.453 119.404 116.671C116.798 116.889 114.231 117.543 111.62 117.577C105.805 117.649 100.437 114.781 95.3146 111.985C94.2466 111.426 93.0332 110.593 93.0108 109.374C93.0083 109.039 93.089 108.708 93.2457 108.412C104.417 98.6891 116.54 90.1166 129.43 82.8242C137.144 78.4778 145.13 74.6339 153.34 71.3164C155.554 74.4645 124.045 90.3786 123.804 90.8091Z" fill="url(#paint4_linear)"/>
<path d="M219.009 61.0272C219.009 61.0272 217.627 70.8127 209.95 84.8927C207.481 84.1191 205.054 83.2158 202.681 82.1863C192.94 78.0149 188.925 64.3767 188.187 61.5473C207.629 58.483 219.009 61.0272 219.009 61.0272Z" fill="url(#paint5_linear)"/>
<path opacity="0.31" d="M172.676 97.0381C177.802 97.0381 181.958 92.8823 181.958 87.7559C181.958 82.6294 177.802 78.4736 172.676 78.4736C167.549 78.4736 163.394 82.6294 163.394 87.7559C163.394 92.8823 167.549 97.0381 172.676 97.0381Z" fill="#3E3E54"/>
<path opacity="0.31" d="M148.168 111.274C153.294 111.274 157.45 107.119 157.45 101.992C157.45 96.8658 153.294 92.71 148.168 92.71C143.041 92.71 138.885 96.8658 138.885 101.992C138.885 107.119 143.041 111.274 148.168 111.274Z" fill="#3E3E54"/>
<path opacity="0.31" d="M121.327 129.481C126.454 129.481 130.609 125.326 130.609 120.199C130.609 115.073 126.454 110.917 121.327 110.917C116.201 110.917 112.045 115.073 112.045 120.199C112.045 125.326 116.201 129.481 121.327 129.481Z" fill="#3E3E54"/>
<path d="M57.6214 143.131L73.1832 168.025L64.7788 171.14L52.0186 149.668L57.6214 143.131Z" fill="#3E3E54"/>
<path d="M103.199 113.439C110.552 115.217 118.224 113.299 125.644 111.817C126.407 111.599 127.213 111.588 127.982 111.784C128.86 112.091 129.447 112.902 129.961 113.679C132.525 117.574 134.661 121.734 136.33 126.087C137.337 128.71 138.282 131.562 140.518 133.261C142.755 134.961 146.747 134.581 147.558 131.891C143.739 121.15 139.037 110.749 134.339 100.36C133.915 99.4204 133.445 98.4251 132.573 97.8715C131.809 97.4684 130.959 97.2555 130.095 97.2508L103.613 94.9638C97.6635 94.4494 88.7167 93.661 90.713 101.937C92.0885 107.707 97.6075 112.086 103.199 113.439Z" fill="#3E3E54"/>
<path d="M103.199 113.439C110.552 115.217 118.224 113.299 125.644 111.817C126.407 111.599 127.213 111.588 127.982 111.784C128.86 112.091 129.447 112.902 129.961 113.679C132.525 117.574 134.661 121.734 136.33 126.087C137.337 128.71 138.282 131.562 140.518 133.261C142.755 134.961 146.747 134.581 147.558 131.891C143.739 121.15 139.037 110.749 134.339 100.36C133.915 99.4204 133.445 98.4251 132.573 97.8715C131.809 97.4684 130.959 97.2555 130.095 97.2508L103.613 94.9638C97.6635 94.4494 88.7167 93.661 90.713 101.937C92.0885 107.707 97.6075 112.086 103.199 113.439Z" fill="#3E3E54"/>
<path d="M103.199 113.439C110.552 115.217 118.224 113.299 125.644 111.817C126.407 111.599 127.213 111.588 127.982 111.784C128.86 112.091 129.447 112.902 129.961 113.679C132.525 117.574 134.661 121.734 136.33 126.087C137.337 128.71 138.282 131.562 140.518 133.261C142.755 134.961 146.747 134.581 147.558 131.891C143.739 121.15 139.037 110.749 134.339 100.36C133.915 99.4204 133.445 98.4251 132.573 97.8715C131.809 97.4684 130.959 97.2555 130.095 97.2508L103.613 94.9638C97.6635 94.4494 88.7167 93.661 90.713 101.937C92.0885 107.707 97.6075 112.086 103.199 113.439Z" fill="url(#paint6_linear)"/>
<path d="M109.842 90.5465C109.842 92.3526 109.842 94.2203 109.031 95.8419C107.997 97.9667 105.765 99.3031 103.439 99.8455C102.703 100.011 101.955 100.121 101.203 100.175C99.5972 100.246 97.9889 100.211 96.3881 100.069C93.3183 99.8679 89.8347 99.4485 88.0006 96.977C86.7145 95.238 86.6026 92.923 86.5523 90.759C86.4181 84.843 86.3902 78.9269 86.3454 73.0109C86.3454 69.6279 84.9755 65.0651 85.4563 61.8275C85.6188 60.4908 86.1395 59.2229 86.9634 58.1579C87.7872 57.0929 88.8836 56.2703 90.1366 55.7773C94.6715 53.8369 101.259 55.2628 104.474 58.9589C107.052 61.9114 108.047 65.9094 108.651 69.7845C109.752 76.6231 109.836 83.6016 109.842 90.5465Z" fill="#6E71FF"/>
<path d="M99.7544 79.273C100.045 83.7464 100.202 88.2197 100.224 92.6931C100.189 93.9261 100.248 95.1599 100.403 96.3836C100.554 97.3174 101.152 98.1786 101.259 99.0621C101.305 99.4344 101.293 99.8115 101.225 100.18C99.6197 100.251 98.0113 100.216 96.4106 100.074C93.3407 99.8729 89.8571 99.4535 88.023 96.9819C86.7369 95.2429 86.6251 92.928 86.5748 90.764C86.4406 84.8479 86.4126 78.9319 86.3679 73.0159C86.3679 69.6329 84.9979 65.0701 85.4788 61.8325C85.6413 60.4958 86.162 59.2279 86.9858 58.1629C87.8097 57.0979 88.9061 56.2753 90.1591 55.7822C90.5184 55.9 90.8665 56.0497 91.1991 56.2296C93.1618 57.2696 94.6436 59.0254 95.9968 60.7924C96.703 61.6716 97.3035 62.6306 97.7862 63.6498C98.298 64.986 98.6144 66.389 98.7256 67.8156C99.0723 70.7512 99.3518 73.6981 99.5811 76.6505C99.7041 78.2274 99.2847 79.2227 100.985 79.5246C102.43 79.7771 103.891 79.9322 105.357 79.9887C106.85 80.0558 108.617 79.8825 109.406 78.6132C109.668 78.123 109.784 77.5676 109.74 77.0133C109.695 76.459 109.492 75.9293 109.154 75.4874C108.46 74.6146 107.519 73.9715 106.453 73.6421C105.413 73.2619 104.317 73.0494 103.266 72.6971C102.198 72.3708 101.212 71.8198 100.375 71.0811C99.5318 70.3354 99.0007 69.2991 98.8877 68.179" fill="url(#paint7_linear)"/>
<path d="M93.0556 54.838C92.9964 55.3752 93.019 55.9181 93.1227 56.4485C93.4526 57.7625 94.7051 58.6236 95.9465 59.166C96.7125 59.5015 97.7358 59.7252 98.2894 59.0822C98.72 58.5845 98.6137 57.8352 98.4795 57.1866L97.7414 53.6582C97.6061 52.8686 97.3906 52.0948 97.0984 51.3488C96.774 50.5939 94.6324 47.5185 93.5476 48.3013C93.0947 48.6256 93.2848 50.84 93.2569 51.3935L93.0556 54.838Z" fill="url(#paint8_linear)"/>
<path d="M93.1677 48.4016C93.4733 49.8599 94.1384 51.2188 95.1024 52.3549C96.0804 53.4941 97.4608 54.2113 98.9551 54.3567C99.4999 54.4202 100.051 54.3127 100.532 54.0492C101.123 53.5865 101.555 52.9513 101.768 52.2319C103.037 49.1509 104.323 45.7623 103.361 42.5638C103.12 41.5682 102.497 40.7069 101.628 40.165C100.697 39.7673 99.6557 39.7099 98.6867 40.0028C97.0092 40.3831 94.4929 41.2554 93.4081 42.6868C92.3233 44.1183 92.7986 46.8303 93.1677 48.4016Z" fill="url(#paint9_linear)"/>
<path d="M99.3236 34.5174C98.0945 33.9655 96.7415 33.7478 95.4013 33.8862C94.0611 34.0247 92.7812 34.5144 91.6909 35.3058C90.2818 36.3627 89.2753 37.8836 87.8382 38.8957C86.485 39.8519 84.8466 40.2881 83.3313 40.9591C83.1468 41.0373 82.9399 41.1548 82.9063 41.3505C82.8504 41.6524 83.2027 41.8481 83.3425 42.1221C83.5549 42.5415 83.2139 43.0224 82.8951 43.3747L81.0722 45.3653C80.8487 45.5597 80.697 45.8236 80.6417 46.1146C80.5802 46.8807 81.6649 47.0988 82.431 47.0317L84.9585 46.808C83.4725 47.8076 82.1867 49.0764 81.1673 50.5488C81.7265 51.1416 82.7609 50.862 83.4487 50.4091C84.1365 49.9561 84.7907 49.2907 85.6071 49.3354C84.3825 51.3093 88.2184 51.231 89.3647 51.2031C90.3388 51.1427 91.2902 50.8839 92.1606 50.4426C92.5783 50.2802 92.9587 50.0348 93.2789 49.7213C93.4398 49.565 93.5596 49.3716 93.6279 49.158C93.6962 48.9444 93.7108 48.7173 93.6704 48.4967C93.6065 48.3037 93.5261 48.1166 93.4299 47.9375C93.2699 47.5854 93.1899 47.2022 93.1957 46.8154C93.2015 46.4287 93.2929 46.048 93.4635 45.7008C93.5194 45.5946 93.5921 45.4772 93.7151 45.4604C93.8151 45.4569 93.9127 45.4908 93.9891 45.5554L94.8334 46.1146C94.7878 44.9799 95.1924 43.8731 95.959 43.0353C96.7257 42.1974 97.7923 41.6964 98.9266 41.6412C100.671 41.5462 103.864 42.4073 103.445 39.5611C103.109 37.4251 101.23 35.3841 99.3236 34.5174Z" fill="#3E3E54"/>
<path d="M102.12 41.613C102.45 41.4616 102.73 41.2176 102.924 40.9107C103.119 40.6037 103.22 40.247 103.216 39.8836C103.212 39.5203 103.102 39.1659 102.901 38.8635C102.699 38.5611 102.414 38.3235 102.081 38.1797C101.275 37.7494 100.364 37.5556 99.4526 37.6205C97.9218 37.5863 96.4033 37.9019 95.0128 38.5432C93.1116 39.4937 91.7361 41.2439 89.9803 42.4574C88.4913 43.3941 86.8566 44.0763 85.1435 44.476C84.3553 44.6087 83.6088 44.9226 82.9627 45.393C82.862 45.4881 82.7614 45.6167 82.8061 45.7453C82.8384 45.8039 82.8845 45.8538 82.9403 45.8907C83.1553 46.0377 83.3996 46.1363 83.6564 46.1798C83.9132 46.2232 84.1763 46.2104 84.4277 46.1423C84.7185 46.064 84.9869 45.9074 85.2553 45.8068C86.0945 45.6 86.9714 45.6 87.8107 45.8068C88.9872 46.0328 90.1987 46.0004 91.3614 45.7117C92.3376 45.34 93.2742 44.8717 94.1573 44.3138C94.505 44.1444 94.8892 44.0637 95.2756 44.0789C94.9802 44.7062 94.8328 45.3931 94.8451 46.0864L94.0007 45.5272C93.9574 45.494 93.9079 45.4699 93.855 45.4565C93.8021 45.443 93.7471 45.4404 93.6932 45.4489C93.5757 45.4489 93.4975 45.5831 93.4415 45.6894C93.2725 46.037 93.1819 46.4175 93.1761 46.804C93.1703 47.1905 93.2495 47.5735 93.408 47.926C93.5047 48.1041 93.5834 48.2915 93.6429 48.4852C93.6877 48.7048 93.6764 48.9322 93.6099 49.1463C93.5435 49.3604 93.424 49.5542 93.2626 49.7098C92.9379 50.0191 92.5588 50.2656 92.1443 50.4367C91.2724 50.8733 90.3216 51.13 89.3484 51.1916C88.2301 51.1916 84.3774 51.2978 85.5964 49.324C84.78 49.324 84.0866 49.9782 83.438 50.3976C82.7893 50.817 81.7605 51.1245 81.1566 50.5374C82.1744 49.0636 83.4605 47.7946 84.9477 46.7965L82.4203 47.0202C81.6486 47.0873 80.5694 46.8692 80.6309 46.1031C80.6864 45.8135 80.8358 45.5501 81.0559 45.3539L82.8844 43.3632C83.2031 43.0109 83.5442 42.53 83.3317 42.1107C83.1919 41.8367 82.8397 41.6354 82.8956 41.339C82.9291 41.1377 83.136 41.0259 83.3205 40.942C84.8303 40.2766 86.4743 39.8237 87.8275 38.8898C89.2701 37.8777 90.2766 36.3456 91.6802 35.3C92.769 34.5054 94.0488 34.0134 95.3895 33.874C96.7301 33.7345 98.0838 33.9526 99.3128 34.5059C101.214 35.395 103.098 37.4136 103.412 39.5385C103.618 40.9196 103.009 41.4341 102.12 41.613Z" fill="#3E3E54"/>
<path d="M102.12 41.613C102.45 41.4616 102.73 41.2176 102.924 40.9107C103.119 40.6037 103.22 40.247 103.216 39.8836C103.212 39.5203 103.102 39.1659 102.901 38.8635C102.699 38.5611 102.414 38.3235 102.081 38.1797C101.275 37.7494 100.364 37.5556 99.4526 37.6205C97.9218 37.5863 96.4033 37.9019 95.0128 38.5432C93.1116 39.4937 91.7361 41.2439 89.9803 42.4574C88.4913 43.3941 86.8566 44.0763 85.1435 44.476C84.3553 44.6087 83.6088 44.9226 82.9627 45.393C82.862 45.4881 82.7614 45.6167 82.8061 45.7453C82.8384 45.8039 82.8845 45.8538 82.9403 45.8907C83.1553 46.0377 83.3996 46.1363 83.6564 46.1798C83.9132 46.2232 84.1763 46.2104 84.4277 46.1423C84.7185 46.064 84.9869 45.9074 85.2553 45.8068C86.0945 45.6 86.9714 45.6 87.8107 45.8068C88.9872 46.0328 90.1987 46.0004 91.3614 45.7117C92.3376 45.34 93.2742 44.8717 94.1573 44.3138C94.505 44.1444 94.8892 44.0637 95.2756 44.0789C94.9802 44.7062 94.8328 45.3931 94.8451 46.0864L94.0007 45.5272C93.9574 45.494 93.9079 45.4699 93.855 45.4565C93.8021 45.443 93.7471 45.4404 93.6932 45.4489C93.5757 45.4489 93.4975 45.5831 93.4415 45.6894C93.2725 46.037 93.1819 46.4175 93.1761 46.804C93.1703 47.1905 93.2495 47.5735 93.408 47.926C93.5047 48.1041 93.5834 48.2915 93.6429 48.4852C93.6877 48.7048 93.6764 48.9322 93.6099 49.1463C93.5435 49.3604 93.424 49.5542 93.2626 49.7098C92.9379 50.0191 92.5588 50.2656 92.1443 50.4367C91.2724 50.8733 90.3216 51.13 89.3484 51.1916C88.2301 51.1916 84.3774 51.2978 85.5964 49.324C84.78 49.324 84.0866 49.9782 83.438 50.3976C82.7893 50.817 81.7605 51.1245 81.1566 50.5374C82.1744 49.0636 83.4605 47.7946 84.9477 46.7965L82.4203 47.0202C81.6486 47.0873 80.5694 46.8692 80.6309 46.1031C80.6864 45.8135 80.8358 45.5501 81.0559 45.3539L82.8844 43.3632C83.2031 43.0109 83.5442 42.53 83.3317 42.1107C83.1919 41.8367 82.8397 41.6354 82.8956 41.339C82.9291 41.1377 83.136 41.0259 83.3205 40.942C84.8303 40.2766 86.4743 39.8237 87.8275 38.8898C89.2701 37.8777 90.2766 36.3456 91.6802 35.3C92.769 34.5054 94.0488 34.0134 95.3895 33.874C96.7301 33.7345 98.0838 33.9526 99.3128 34.5059C101.214 35.395 103.098 37.4136 103.412 39.5385C103.618 40.9196 103.009 41.4341 102.12 41.613Z" fill="url(#paint10_linear)"/>
<path d="M133.724 58.6451C135.306 58.2816 137.151 58.6451 138.152 59.9312C138.279 60.0749 138.357 60.2549 138.376 60.4456C138.381 60.4891 138.378 60.5333 138.366 60.5754C138.354 60.6175 138.333 60.6568 138.306 60.6907C138.278 60.7247 138.244 60.7527 138.205 60.773C138.166 60.7934 138.123 60.8057 138.08 60.8091H136.911C136.117 61.2971 135.381 61.875 134.719 62.5313C133.755 63.3175 132.613 63.8534 131.392 64.0914C129.77 64.4102 127.757 63.3086 129.015 61.5472C130 60.1661 132.102 59.0197 133.724 58.6451Z" fill="url(#paint11_linear)"/>
<path d="M130.917 73.0555C131.176 73.1803 131.403 73.3642 131.579 73.5924C131.755 73.8206 131.874 74.0867 131.929 74.3695C131.938 74.4638 131.92 74.5586 131.879 74.6435C131.728 74.9007 131.353 74.8392 131.057 74.7889C129.127 74.4422 127.293 75.9464 125.331 75.9073C124.433 75.8841 123.579 75.5132 122.949 74.8728C122.389 74.2745 121.83 73.1449 122.143 72.3062C122.473 71.3444 123.592 71.3276 124.464 71.2997C126.743 71.2152 128.994 71.8277 130.917 73.0555Z" fill="url(#paint12_linear)"/>
<path d="M143.683 52.0926L151.288 46.3387C151.288 46.3387 153.155 45.7125 153.782 46.4953C154.408 47.2781 153.703 71.1324 153.703 71.1324L144.287 75.5666L143.683 52.0926Z" fill="#6E71FF"/>
<path d="M143.795 52.159L151.416 46.4051C151.416 46.4051 153.284 45.7789 153.91 46.5617C154.537 47.3445 153.72 71.1652 153.72 71.1652L144.416 75.6386L143.795 52.159Z" fill="url(#paint13_linear)"/>
<path d="M146.048 52.0473L153.91 46.5674C153.91 46.5674 152.507 45.5553 151.416 46.4109C150.326 47.2664 143.795 52.1592 143.795 52.1592L146.048 52.0473Z" fill="url(#paint14_linear)"/>
<path d="M143.392 136.851C143.454 137.002 143.543 137.141 143.655 137.259C143.796 137.376 143.963 137.459 144.142 137.499C144.6 137.627 145.08 137.653 145.55 137.576C146.019 137.498 146.466 137.32 146.859 137.052C147.186 136.844 147.441 136.542 147.592 136.185C147.733 135.629 147.696 135.042 147.485 134.508L147.021 132.897C147.018 132.875 147.008 132.853 146.993 132.836C146.954 132.836 146.904 132.836 146.865 132.836C145.517 133.641 143.929 132.836 142.643 133.395C141.558 133.921 142.995 136.034 143.392 136.851Z" fill="url(#paint15_linear)"/>
<path d="M144.958 136.739C144.505 136.767 144.054 136.829 143.61 136.924C143.389 136.978 143.186 137.087 143.02 137.242C142.853 137.396 142.729 137.591 142.66 137.807C142.622 138.233 142.734 138.659 142.978 139.01C143.303 139.608 143.627 140.206 143.974 140.793C144.16 141.187 144.458 141.517 144.829 141.744C145.206 141.894 145.62 141.925 146.015 141.833C147.203 141.605 148.358 141.23 149.453 140.715C151.69 139.772 153.91 138.763 156.113 137.69C156.477 137.511 156.879 137.282 156.952 136.885C156.971 136.746 156.955 136.605 156.908 136.474C156.86 136.342 156.781 136.224 156.678 136.13C156.468 135.945 156.225 135.8 155.962 135.705C154.392 135.103 152.741 134.74 151.064 134.626C150.471 134.564 149.476 134.285 148.922 134.553C148.369 134.821 147.837 135.481 147.245 135.839C146.555 136.298 145.775 136.604 144.958 136.739Z" fill="#3E3E54"/>
<path d="M122.317 75.5379C121.343 76.1265 120.258 76.5073 119.13 76.6562L113.063 77.8808C111.731 78.2161 110.359 78.3667 108.986 78.3281C107.74 78.192 106.518 77.8892 105.352 77.4279C100.644 75.7504 93.1786 73.7765 89.5664 70.1195C86.832 67.3236 87.503 61.7878 91.037 60.4011C91.7095 60.1406 92.4316 60.0337 93.1507 60.088C96.1478 60.2781 98.1832 63.0348 100.487 64.9751C105.43 69.1913 112.33 69.9238 118.828 70.4047H118.962H119.398C121.076 70.5277 123.145 70.9639 123.603 72.5687C123.888 73.7038 123.251 74.8836 122.317 75.5379Z" fill="#6E71FF"/>
<path d="M127.842 84.7248L144.415 75.6439L146.048 52.0692C146.048 52.0692 143.532 51.0291 143.325 53.4168C143.118 55.8045 141.357 73.7483 141.357 73.7483L127.042 81.3195C127.042 81.3195 124.911 83.4723 127.842 84.7248Z" fill="#6E71FF"/>
<path d="M64.7669 167.912C60.8504 173.921 54.9799 178.405 48.1396 180.613L50.74 175.055C47.4768 179.079 44.188 183.123 40.3231 186.583C36.4582 190.042 31.9457 192.913 26.9183 194.203C26.4084 193.466 26.954 192.481 27.4945 191.764C31.0725 187.019 35.0449 182.582 39.3696 178.5C29.4116 184.276 19.4128 190.073 8.7002 194.3C15.5877 184.777 23.8327 176.307 33.1746 169.157L26.6073 170.844C34.3313 161.902 43.6403 154.452 54.0695 148.866C58.3474 154.704 61.7586 161.364 64.7669 167.912Z" fill="#6E71FF"/>
<path d="M64.7669 167.912C60.8504 173.921 54.9799 178.405 48.1396 180.613L50.74 175.055C47.4768 179.079 44.188 183.123 40.3231 186.583C36.4582 190.042 31.9457 192.913 26.9183 194.203C26.4084 193.466 26.954 192.481 27.4945 191.764C31.0725 187.019 35.0449 182.582 39.3696 178.5C29.4116 184.276 19.4128 190.073 8.7002 194.3C15.5877 184.777 23.8327 176.307 33.1746 169.157L26.6073 170.844C34.3313 161.902 43.6403 154.452 54.0695 148.866C58.3474 154.704 61.7586 161.364 64.7669 167.912Z" fill="url(#paint16_linear)"/>
<path d="M41.6901 164.067C41.4273 164.43 41.1645 164.917 41.3938 165.302C41.57 165.522 41.817 165.674 42.0927 165.733L44.2455 166.443C41.4726 168.882 38.9169 171.558 36.6073 174.439C36.2214 174.92 35.8468 175.653 36.2885 176.083C36.498 176.255 36.7612 176.348 37.0322 176.346C40.0238 176.614 42.8141 174.959 45.3639 173.371C44.9006 175.056 44.0976 176.627 43.0042 177.99C45.8895 177.431 48.5008 175.938 50.8326 174.199C53.1643 172.46 55.3619 170.469 57.7663 168.786L56.9723 170.855C58.4438 169.886 59.7125 168.64 60.7075 167.187C60.9473 166.926 61.0986 166.597 61.1398 166.245C61.181 165.894 61.1099 165.538 60.9368 165.23C59.7374 161.98 58.021 158.946 55.8539 156.244C55.4817 155.722 55.0058 155.282 54.456 154.952C52.7002 154.029 49.0376 157.032 47.6285 158.067C45.3466 159.743 43.3427 161.768 41.6901 164.067Z" fill="#6E71FF"/>
<path d="M41.6901 164.067C41.4273 164.43 41.1645 164.917 41.3938 165.302C41.57 165.522 41.817 165.674 42.0927 165.733L44.2455 166.443C41.4726 168.882 38.9169 171.558 36.6073 174.439C36.2214 174.92 35.8468 175.653 36.2885 176.083C36.498 176.255 36.7612 176.348 37.0322 176.346C40.0238 176.614 42.8141 174.959 45.3639 173.371C44.9006 175.056 44.0976 176.627 43.0042 177.99C45.8895 177.431 48.5008 175.938 50.8326 174.199C53.1643 172.46 55.3619 170.469 57.7663 168.786L56.9723 170.855C58.4438 169.886 59.7125 168.64 60.7075 167.187C60.9473 166.926 61.0986 166.597 61.1398 166.245C61.181 165.894 61.1099 165.538 60.9368 165.23C59.7374 161.98 58.021 158.946 55.8539 156.244C55.4817 155.722 55.0058 155.282 54.456 154.952C52.7002 154.029 49.0376 157.032 47.6285 158.067C45.3466 159.743 43.3427 161.768 41.6901 164.067Z" fill="url(#paint17_linear)"/>
<path d="M121.316 72.5407C120.981 72.6721 120.619 72.7238 120.26 72.6917C116.524 72.6917 112.761 72.6358 109.076 71.9815C105.391 71.3273 101.757 70.0189 98.8489 67.6759C96.7968 65.9984 95.1752 63.9239 93.1174 62.2911C92.5583 61.827 91.1044 61.2455 91.0317 60.4011C91.7042 60.1406 92.4263 60.0337 93.1454 60.088C96.1426 60.2781 98.1779 63.0348 100.482 64.9751C105.425 69.1913 112.325 69.9238 118.823 70.4047H118.957C119.779 70.4731 120.578 70.7152 121.3 71.1148C121.523 71.2236 121.697 71.4136 121.786 71.646C121.823 71.8264 121.796 72.014 121.711 72.177C121.625 72.34 121.486 72.4684 121.316 72.5407Z" fill="url(#paint18_linear)"/>
<path d="M219.014 61.0225L218.326 64.8361C216.397 71.7542 213.655 78.4194 210.157 84.6923C202.368 98.9679 188.114 117.655 162.264 135.018C121.662 162.339 86.0321 166.89 72.886 167.584L68.4126 161.371C171.233 131.014 195.523 82.4332 198.353 82.0306C201.182 81.628 209.693 60.9834 209.693 60.9834L219.014 61.0225Z" fill="url(#paint19_linear)"/>
</g>
<defs>
<linearGradient id="paint0_linear" x1="85.4891" y1="108.793" x2="24.2114" y2="93.0359" gradientUnits="userSpaceOnUse">
<stop offset="0.079127"/>
<stop offset="0.83" stop-opacity="0.07"/>
<stop offset="1" stop-opacity="0"/>
</linearGradient>
<linearGradient id="paint1_linear" x1="106.625" y1="133.377" x2="60.7595" y2="127.93" gradientUnits="userSpaceOnUse">
<stop offset="0.079127"/>
<stop offset="0.83" stop-opacity="0.07"/>
<stop offset="1" stop-opacity="0"/>
</linearGradient>
<linearGradient id="paint2_linear" x1="118.513" y1="73.4471" x2="118.898" y2="46.8223" gradientUnits="userSpaceOnUse">
<stop stop-opacity="0"/>
<stop offset="0.639117" stop-opacity="0.75"/>
<stop offset="1"/>
</linearGradient>
<linearGradient id="paint3_linear" x1="127.167" y1="76.7251" x2="100.685" y2="71.8782" gradientUnits="userSpaceOnUse">
<stop offset="0.079127"/>
<stop offset="0.83" stop-opacity="0.07"/>
<stop offset="1" stop-opacity="0"/>
</linearGradient>
<linearGradient id="paint4_linear" x1="130.016" y1="138.771" x2="134.005" y2="18.8887" gradientUnits="userSpaceOnUse">
<stop stop-opacity="0"/>
<stop offset="0.639117" stop-opacity="0.75"/>
<stop offset="1"/>
</linearGradient>
<linearGradient id="paint5_linear" x1="201.067" y1="66.6994" x2="222.249" y2="87.1555" gradientUnits="userSpaceOnUse">
<stop stop-opacity="0"/>
<stop offset="0.639117" stop-opacity="0.75"/>
<stop offset="1"/>
</linearGradient>
<linearGradient id="paint6_linear" x1="156.049" y1="69.6542" x2="82.8291" y2="56.3333" gradientUnits="userSpaceOnUse">
<stop offset="0.079127"/>
<stop offset="0.83" stop-opacity="0.07"/>
<stop offset="1" stop-opacity="0"/>
</linearGradient>
<linearGradient id="paint7_linear" x1="100.299" y1="105.053" x2="105.563" y2="17.7079" gradientUnits="userSpaceOnUse">
<stop stop-opacity="0"/>
<stop offset="0.639117" stop-opacity="0.75"/>
<stop offset="1"/>
</linearGradient>
<linearGradient id="paint8_linear" x1="93.0276" y1="53.8315" x2="98.5969" y2="53.8315" gradientUnits="userSpaceOnUse">
<stop stop-color="#E5C5D5"/>
<stop offset="0.42" stop-color="#EAD4D1"/>
<stop offset="1" stop-color="#F0E9CB"/>
</linearGradient>
<linearGradient id="paint9_linear" x1="92.7475" y1="47.0935" x2="103.696" y2="47.0935" gradientUnits="userSpaceOnUse">
<stop stop-color="#E5C5D5"/>
<stop offset="0.42" stop-color="#EAD4D1"/>
<stop offset="1" stop-color="#F0E9CB"/>
</linearGradient>
<linearGradient id="paint10_linear" x1="106.844" y1="22.8712" x2="77.4336" y2="17.9928" gradientUnits="userSpaceOnUse">
<stop offset="0.079127"/>
<stop offset="0.83" stop-opacity="0.07"/>
<stop offset="1" stop-opacity="0"/>
</linearGradient>
<linearGradient id="paint11_linear" x1="128.628" y1="61.3278" x2="138.378" y2="61.3278" gradientUnits="userSpaceOnUse">
<stop stop-color="#E5C5D5"/>
<stop offset="0.42" stop-color="#EAD4D1"/>
<stop offset="1" stop-color="#F0E9CB"/>
</linearGradient>
<linearGradient id="paint12_linear" x1="-11379.2" y1="-8029.62" x2="-11228.1" y2="-7948.48" gradientUnits="userSpaceOnUse">
<stop stop-color="#E5C5D5"/>
<stop offset="0.42" stop-color="#EAD4D1"/>
<stop offset="1" stop-color="#F0E9CB"/>
</linearGradient>
<linearGradient id="paint13_linear" x1="150.133" y1="78.8468" x2="155.557" y2="21.2152" gradientUnits="userSpaceOnUse">
<stop stop-opacity="0"/>
<stop offset="0.639117" stop-opacity="0.75"/>
<stop offset="1"/>
</linearGradient>
<linearGradient id="paint14_linear" x1="149.988" y1="52.8223" x2="150.227" y2="40.8087" gradientUnits="userSpaceOnUse">
<stop stop-opacity="0"/>
<stop offset="0.639117" stop-opacity="0.75"/>
<stop offset="1"/>
</linearGradient>
<linearGradient id="paint15_linear" x1="1797.63" y1="1178.2" x2="1850.47" y2="1178.2" gradientUnits="userSpaceOnUse">
<stop stop-color="#E5C5D5"/>
<stop offset="0.42" stop-color="#EAD4D1"/>
<stop offset="1" stop-color="#F0E9CB"/>
</linearGradient>
<linearGradient id="paint16_linear" x1="85.1826" y1="169.995" x2="6.92649" y2="172.713" gradientUnits="userSpaceOnUse">
<stop offset="0.02" stop-color="white" stop-opacity="0"/>
<stop offset="0.58" stop-color="white" stop-opacity="0.39"/>
<stop offset="0.68" stop-color="white" stop-opacity="0.68"/>
<stop offset="1" stop-color="white"/>
</linearGradient>
<linearGradient id="paint17_linear" x1="83.1336" y1="146.45" x2="39.4065" y2="171.673" gradientUnits="userSpaceOnUse">
<stop offset="0.02" stop-color="white" stop-opacity="0"/>
<stop offset="0.58" stop-color="white" stop-opacity="0.39"/>
<stop offset="0.68" stop-color="white" stop-opacity="0.68"/>
<stop offset="1" stop-color="white"/>
</linearGradient>
<linearGradient id="paint18_linear" x1="7706.4" y1="1057.96" x2="7535.08" y2="2054.58" gradientUnits="userSpaceOnUse">
<stop offset="0.02" stop-color="white" stop-opacity="0"/>
<stop offset="0.58" stop-color="white" stop-opacity="0.39"/>
<stop offset="0.68" stop-color="white" stop-opacity="0.68"/>
<stop offset="1" stop-color="white"/>
</linearGradient>
<linearGradient id="paint19_linear" x1="193.817" y1="106.334" x2="30.1056" y2="95.8456" gradientUnits="userSpaceOnUse">
<stop stop-opacity="0"/>
<stop offset="0.639117" stop-opacity="0.75"/>
<stop offset="1"/>
</linearGradient>
<clipPath id="clip0">
<rect width="232" height="232" fill="white"/>
</clipPath>
</defs>
</svg>
