<svg width="80" height="80" viewBox="0 0 80 80" fill="none" xmlns="http://www.w3.org/2000/svg">
<g opacity="0.18">
<path d="M79.9832 51.5758C79.9605 52.229 79.9194 52.8822 79.8511 53.5484C79.368 58.371 77.593 63.187 73.7673 66.2896C69.2239 69.9713 62.7801 70.5135 56.8263 70.3044C50.8724 70.0954 44.7658 69.3247 39.0672 70.9859C35.9478 71.896 33.0928 73.5028 29.9803 74.4303C24.056 76.1939 17.3912 75.3208 12.0731 72.2792C6.75494 69.2376 2.83126 64.1211 1.18386 58.4123C0.875923 57.3387 0.636987 56.248 0.468397 55.1465C-0.470369 49.1155 0.450168 42.8451 0.315733 36.6944C0.197248 31.2273 -0.739239 25.5665 1.31146 20.4565C2.6786 17.0535 5.28071 14.2449 8.25879 12.0219C18.6786 4.26006 31.8009 0.079759 44.9436 0.00137837C52.7727 -0.0465209 60.775 1.14661 67.6449 4.7347C69.8778 5.89952 71.9992 7.34738 73.5691 9.24594C74.738 10.6655 75.572 12.3115 76.2578 13.9923C77.4443 16.9106 78.2108 19.9692 78.5364 23.0845C78.9556 27.132 78.6252 31.2165 78.7938 35.277C79.0285 40.7245 80.1496 46.1305 79.9832 51.5758Z" fill="white"/>
<path d="M79.9832 51.5758C79.9605 52.229 79.9194 52.8822 79.8511 53.5484C79.368 58.371 77.593 63.187 73.7673 66.2896C69.2239 69.9713 62.7801 70.5135 56.8263 70.3044C50.8724 70.0954 44.7658 69.3247 39.0672 70.9859C35.9478 71.896 33.0928 73.5028 29.9803 74.4303C24.056 76.1939 17.3912 75.3208 12.0731 72.2792C6.75494 69.2376 2.83126 64.1211 1.18386 58.4123C0.875923 57.3387 0.636987 56.248 0.468397 55.1465C-0.470369 49.1155 0.450168 42.8451 0.315733 36.6944C0.197248 31.2273 -0.739239 25.5665 1.31146 20.4565C2.6786 17.0535 5.28071 14.2449 8.25879 12.0219C18.6786 4.26006 31.8009 0.079759 44.9436 0.00137837C52.7727 -0.0465209 60.775 1.14661 67.6449 4.7347C69.8778 5.89952 71.9992 7.34738 73.5691 9.24594C74.738 10.6655 75.572 12.3115 76.2578 13.9923C77.4443 16.9106 78.2108 19.9692 78.5364 23.0845C78.9556 27.132 78.6252 31.2165 78.7938 35.277C79.0285 40.7245 80.1496 46.1305 79.9832 51.5758Z" fill="#6E71FF"/>
</g>
<path d="M80.0002 52.333L79.9727 52.6594C79.5679 57.3232 78.4062 61.9621 76.1444 65.6134C75.4887 66.6792 74.7345 67.6509 73.8964 68.5096C69.3363 73.1872 62.8689 73.876 56.8933 73.6105C50.9176 73.3449 44.7887 72.3657 39.0691 74.4763C35.9383 75.6325 33.0728 77.674 29.9489 78.8524C24.003 81.093 17.3138 79.9837 11.9761 76.1194C8.46478 73.5395 5.55312 69.9224 3.51458 65.6079C2.44729 63.3773 1.61961 60.9911 1.05158 58.5071C0.742515 57.143 0.502705 55.7574 0.333496 54.3578L30.5824 53.5861L80.0002 52.333Z" fill="#B9BAFF"/>
<path d="M37.3333 32.6153C31.1464 32.8964 24.9155 31.9241 18.6988 31.9486C12.9394 31.9744 7.04003 32.8358 1.51767 31.193C0.748195 30.9622 -0.172846 30.4013 0.0279438 29.6237C2.64339 29.0035 4.8456 27.2691 7.36259 26.3072C9.65635 25.4336 12.1499 25.2166 14.5612 25.6805C16.0017 25.9668 17.4513 26.4877 18.9009 26.2569C20.0991 26.0661 21.1458 25.3749 22.2482 24.8797C22.9426 24.5638 23.8234 24.4026 24.7808 24.333C27.1125 25.3452 29.6684 26.0093 31.8874 27.2588C34.1816 28.5522 35.9939 30.4154 37.3333 32.6153Z" fill="url(#paint0_linear)"/>
<path d="M80.0002 52.667C79.5953 57.2273 78.4332 61.7633 76.1709 65.3337H3.5154C2.44783 63.1525 1.61994 60.8193 1.05177 58.3904C0.742621 57.0566 0.502748 55.7016 0.333496 54.3332L30.5902 53.5785L80.0002 52.667Z" fill="url(#paint1_linear)"/>
<path d="M37.3287 44.7124C37.6646 47.8473 36.5534 54.2953 33.0748 55.5668C32.2194 55.8795 31.2916 55.9182 30.3793 55.9467C26.8129 56.0638 23.2448 56.0931 19.6749 56.0345C18.2473 56.0412 16.8212 55.9428 15.4081 55.7399C14.7207 55.6262 14.01 55.453 13.475 55.0059C12.5731 54.2461 12.4258 52.7963 13.0331 51.7832C13.6404 50.7702 14.8654 50.2326 16.0439 50.2714C15.5662 50.3044 15.0885 50.206 14.6628 49.9869C14.237 49.7678 13.8793 49.4364 13.6285 49.0285C13.3777 48.6206 13.2433 48.1518 13.24 47.673C13.2366 47.1942 13.3644 46.7235 13.6094 46.3122C14.439 44.9218 16.2816 44.6065 17.8917 44.4333C16.8786 43.2187 16.124 41.7223 16.0826 40.1407C16.0413 38.5591 16.8321 36.9025 18.2483 36.197C19.6646 35.4914 21.6545 36.0005 22.3239 37.4349C21.807 34.7497 22.5099 31.7984 24.3733 29.7955C26.0479 27.9864 29.4386 26.5728 31.8679 27.6556C34.1938 28.6894 35.0596 32.2196 35.5739 34.4267C36.3676 37.8163 36.9537 41.2513 37.3287 44.7124Z" fill="#6E71FF"/>
<path d="M37.3287 44.7124C37.6646 47.8473 36.5534 54.2953 33.0748 55.5668C32.2194 55.8795 31.2916 55.9182 30.3793 55.9467C26.8129 56.0638 23.2448 56.0931 19.6749 56.0345C18.2473 56.0412 16.8212 55.9428 15.4081 55.7399C14.7207 55.6262 14.01 55.453 13.475 55.0059C12.5731 54.2461 12.4258 52.7963 13.0331 51.7832C13.6404 50.7702 14.8654 50.2326 16.0439 50.2714C15.5662 50.3044 15.0885 50.206 14.6628 49.9869C14.237 49.7678 13.8793 49.4364 13.6285 49.0285C13.3777 48.6206 13.2433 48.1518 13.24 47.673C13.2366 47.1942 13.3644 46.7235 13.6094 46.3122C14.439 44.9218 16.2816 44.6065 17.8917 44.4333C16.8786 43.2187 16.124 41.7223 16.0826 40.1407C16.0413 38.5591 16.8321 36.9025 18.2483 36.197C19.6646 35.4914 21.6545 36.0005 22.3239 37.4349C21.807 34.7497 22.5099 31.7984 24.3733 29.7955C26.0479 27.9864 29.4386 26.5728 31.8679 27.6556C34.1938 28.6894 35.0596 32.2196 35.5739 34.4267C36.3676 37.8163 36.9537 41.2513 37.3287 44.7124Z" fill="url(#paint2_linear)"/>
<path d="M62.9421 9.87793H57.7734V22.7972H62.9421V9.87793Z" fill="#6E71FF"/>
<path d="M62.9421 9.87793H57.7734V22.7972H62.9421V9.87793Z" fill="url(#paint3_linear)"/>
<path d="M63.3973 8.0459H57.3164C56.9852 8.0459 56.7168 8.31434 56.7168 8.64547V9.92214C56.7168 10.2533 56.9852 10.5217 57.3164 10.5217H63.3973C63.7285 10.5217 63.9969 10.2533 63.9969 9.92214V8.64547C63.9969 8.31434 63.7285 8.0459 63.3973 8.0459Z" fill="#6E71FF"/>
<path d="M44.7456 6.64746L26.1201 25.1877V30.4391V54.8794H65.5239V30.4391V26.9399L44.7456 6.64746Z" fill="#6E71FF"/>
<path d="M44.7456 6.64746L26.1201 25.1877V30.4391V54.8794H65.5239V30.4391V26.9399L44.7456 6.64746Z" fill="url(#paint4_linear)"/>
<g style="mix-blend-mode:multiply" opacity="0.2">
<g style="mix-blend-mode:multiply" opacity="0.2">
<path d="M45.2861 5.38379L26.123 24.4926V27.5344L45.2861 9.36629L65.5294 28.5578V26.6453C65.6424 26.646 65.7529 26.6126 65.8466 26.5494C65.9402 26.4862 66.0126 26.3962 66.0542 26.2911C66.0958 26.1861 66.1048 26.071 66.0798 25.9608C66.0549 25.8506 65.9972 25.7505 65.9145 25.6736L45.2861 5.38379Z" fill="#6E71FF"/>
</g>
</g>
<path d="M67.0588 54.8789H24.5874V58.0008H67.0588V54.8789Z" fill="#6E71FF"/>
<path d="M46.2811 35.1504H31.1006V47.7466H46.2811V35.1504Z" fill="#6E71FF"/>
<path d="M46.2811 35.1504H31.1006V47.7466H46.2811V35.1504Z" fill="url(#paint5_linear)"/>
<path d="M61.4591 34.585H51.4473V54.88H61.4591V34.585Z" fill="#6E71FF"/>
<path d="M60.6497 35.877H52.2583V53.8279H60.6497V35.877Z" fill="#6E71FF"/>
<path d="M60.6497 35.877H52.2583V53.8279H60.6497V35.877Z" fill="url(#paint6_linear)"/>
<path d="M61.7517 33.4551H51.2126C50.9714 33.4551 50.7759 33.6506 50.7759 33.8918V34.7137C50.7759 34.9549 50.9714 35.1504 51.2126 35.1504H61.7517C61.9929 35.1504 62.1884 34.9549 62.1884 34.7137V33.8918C62.1884 33.6506 61.9929 33.4551 61.7517 33.4551Z" fill="#6E71FF"/>
<path d="M44.3955 5.36292L23.8575 25.3375C23.6811 25.5173 23.5611 25.7447 23.5123 25.9918C23.4635 26.2389 23.4879 26.4949 23.5827 26.7283C23.6774 26.9617 23.8383 27.1623 24.0455 27.3055C24.2528 27.4487 24.4973 27.5282 24.7491 27.5342C25.0784 27.5345 25.3951 27.4077 25.633 27.1801L44.4058 9.317C44.6433 9.09045 44.9589 8.96405 45.2871 8.96405C45.6153 8.96405 45.9309 9.09045 46.1683 9.317L64.9411 27.1801C65.1783 27.4073 65.494 27.5341 65.8224 27.5342C66.0742 27.5282 66.3188 27.4487 66.526 27.3055C66.7333 27.1623 66.8942 26.9617 66.9889 26.7283C67.0836 26.4949 67.1081 26.2389 67.0592 25.9918C67.0104 25.7447 66.8904 25.5173 66.714 25.3375L46.1787 5.36292C45.9402 5.13024 45.6202 5 45.2871 5C44.9539 5 44.6339 5.13024 44.3955 5.36292Z" fill="#6E71FF"/>
<path d="M46.7176 34.585H30.6636V35.1509H46.7176V34.585Z" fill="#6E71FF"/>
<path d="M35.3125 35.1504H34.8008V46.6973H35.3125V35.1504Z" fill="#6E71FF"/>
<path d="M38.9463 35.1504H38.4346V46.6973H38.9463V35.1504Z" fill="#6E71FF"/>
<path d="M42.5801 35.1504H42.0684V46.6973H42.5801V35.1504Z" fill="#6E71FF"/>
<path d="M46.2811 41.2334H31.1006V41.665H46.2811V41.2334Z" fill="#6E71FF"/>
<path d="M45.8181 46.8909C46.0636 46.7627 46.2716 46.5728 46.4216 46.3399C46.5716 46.107 46.6584 45.8391 46.6735 45.5626C46.6735 45.3041 46.5831 45.0095 46.3376 44.9733C46.2331 44.9686 46.1294 44.9927 46.0378 45.0431C45.7587 45.1754 45.5098 45.3637 45.3064 45.5961C45.3814 45.3449 45.412 45.0826 45.3969 44.8208C45.3978 44.676 45.3528 44.5346 45.2683 44.4169C45.1838 44.2992 45.0641 44.2114 44.9265 44.166C44.789 44.1207 44.6406 44.1201 44.5026 44.1644C44.3647 44.2086 44.2444 44.2955 44.1589 44.4125C43.9621 44.6489 43.8224 44.9275 43.7506 45.2266C43.5887 44.7936 43.3073 44.4155 42.9391 44.136C42.8776 44.0847 42.8051 44.0485 42.7272 44.03C42.6369 44.025 42.547 44.0465 42.4688 44.092C42.2407 44.209 42.0472 44.3836 41.9076 44.5985C41.7679 44.8134 41.687 45.0611 41.6728 45.317C41.6477 45.2248 41.5952 45.1424 41.5224 45.0805C41.4495 45.0187 41.3595 44.9804 41.2645 44.9707C41.2176 44.9698 41.1712 44.9794 41.1285 44.9988C41.0859 45.0183 41.0482 45.047 41.0181 45.083C40.9881 45.119 40.9666 45.1613 40.9551 45.2067C40.9436 45.2521 40.9425 45.2995 40.9518 45.3455C40.772 45.1582 40.5454 45.0224 40.2954 44.9524C40.0454 44.8824 39.7812 44.8807 39.5304 44.9475C39.2831 45.0255 39.0713 45.1883 38.9323 45.4072C38.7933 45.6261 38.736 45.887 38.7706 46.144C38.7093 46.1192 38.6433 46.108 38.5772 46.1112C38.5112 46.1145 38.4466 46.1321 38.3881 46.1628C38.3295 46.1936 38.2783 46.2367 38.2382 46.2893C38.198 46.3418 38.1698 46.4025 38.1555 46.4671C38.1349 46.6001 38.1434 46.736 38.1804 46.8654C38.2175 46.9948 38.2821 47.1146 38.37 47.2165" fill="#6E71FF"/>
<path d="M31.2245 46.8647L30.6404 46.3736C30.5124 46.2881 30.4204 46.1584 30.382 46.0092C30.3562 45.7508 30.6404 45.5828 30.8989 45.6242C31.1394 45.6914 31.3534 45.8313 31.5114 46.0247C31.439 45.4872 31.4003 44.8592 31.7957 44.4741C31.9538 44.3438 32.1463 44.262 32.3499 44.2386C32.5535 44.2152 32.7595 44.2513 32.9431 44.3423C33.3076 44.5336 33.5937 44.8463 33.752 45.2262C33.9303 44.6603 34.2776 44.1625 34.747 43.7996C34.7796 43.7623 34.8201 43.7327 34.8655 43.713C34.911 43.6933 34.9602 43.684 35.0097 43.6858C35.0592 43.6875 35.1077 43.7002 35.1517 43.723C35.1957 43.7459 35.234 43.7782 35.2639 43.8177C35.4602 44.0049 35.6153 44.231 35.7194 44.4815C35.8235 44.732 35.8744 45.0015 35.8686 45.2727C35.9422 45.1035 36.0332 44.9424 36.14 44.792C36.1662 44.7446 36.2083 44.708 36.2589 44.6886C36.339 44.6654 36.4139 44.7274 36.4734 44.7842C36.6284 44.9367 36.7835 45.1383 36.7318 45.3476C36.8172 45.0042 36.9961 44.6911 37.2487 44.4431C37.5071 44.2183 37.9878 44.1976 38.1816 44.4896C38.2696 44.6466 38.3024 44.8287 38.2747 45.0065C38.2396 45.385 38.1175 45.7503 37.918 46.0738C37.918 45.9472 38.1093 45.8981 38.2101 45.9731C38.2558 46.0159 38.29 46.0697 38.3094 46.1293C38.3289 46.189 38.3329 46.2526 38.3212 46.3142C38.3212 46.4382 38.2643 46.5597 38.2592 46.6863" fill="#6E71FF"/>
<path d="M45.8181 46.8909C46.0636 46.7627 46.2716 46.5728 46.4216 46.3399C46.5716 46.107 46.6584 45.8391 46.6735 45.5626C46.6735 45.3041 46.5831 45.0095 46.3376 44.9733C46.2331 44.9686 46.1294 44.9927 46.0378 45.0431C45.7587 45.1754 45.5098 45.3637 45.3064 45.5961C45.3814 45.3449 45.412 45.0826 45.3969 44.8208C45.3978 44.676 45.3528 44.5346 45.2683 44.4169C45.1838 44.2992 45.0641 44.2114 44.9265 44.166C44.789 44.1207 44.6406 44.1201 44.5026 44.1644C44.3647 44.2086 44.2444 44.2955 44.1589 44.4125C43.9621 44.6489 43.8224 44.9275 43.7506 45.2266C43.5887 44.7936 43.3073 44.4155 42.9391 44.136C42.8776 44.0847 42.8051 44.0485 42.7272 44.03C42.6369 44.025 42.547 44.0465 42.4688 44.092C42.2407 44.209 42.0472 44.3836 41.9076 44.5985C41.7679 44.8134 41.687 45.0611 41.6728 45.317C41.6477 45.2248 41.5952 45.1424 41.5224 45.0805C41.4495 45.0187 41.3595 44.9804 41.2645 44.9707C41.2176 44.9698 41.1712 44.9794 41.1285 44.9988C41.0859 45.0183 41.0482 45.047 41.0181 45.083C40.9881 45.119 40.9666 45.1613 40.9551 45.2067C40.9436 45.2521 40.9425 45.2995 40.9518 45.3455C40.772 45.1582 40.5454 45.0224 40.2954 44.9524C40.0454 44.8824 39.7812 44.8807 39.5304 44.9475C39.2831 45.0255 39.0713 45.1883 38.9323 45.4072C38.7933 45.6261 38.736 45.887 38.7706 46.144C38.7093 46.1192 38.6433 46.108 38.5772 46.1112C38.5112 46.1145 38.4466 46.1321 38.3881 46.1628C38.3295 46.1936 38.2783 46.2367 38.2382 46.2893C38.198 46.3418 38.1698 46.4025 38.1555 46.4671C38.1349 46.6001 38.1434 46.736 38.1804 46.8654C38.2175 46.9948 38.2821 47.1146 38.37 47.2165" fill="url(#paint7_linear)"/>
<path d="M46.234 46.6973H31.1491C30.621 46.6973 30.1929 47.1254 30.1929 47.6535V49.2945C30.1929 49.8226 30.621 50.2508 31.1491 50.2508H46.234C46.7621 50.2508 47.1902 49.8226 47.1902 49.2945V47.6535C47.1902 47.1254 46.7621 46.6973 46.234 46.6973Z" fill="#6E71FF"/>
<path d="M31.2245 46.8647L30.6404 46.3736C30.5124 46.2881 30.4204 46.1584 30.382 46.0092C30.3562 45.7508 30.6404 45.5828 30.8989 45.6242C31.1394 45.6914 31.3534 45.8313 31.5114 46.0247C31.439 45.4872 31.4003 44.8592 31.7957 44.4741C31.9538 44.3438 32.1463 44.262 32.3499 44.2386C32.5535 44.2152 32.7595 44.2513 32.9431 44.3423C33.3076 44.5336 33.5937 44.8463 33.752 45.2262C33.9303 44.6603 34.2776 44.1625 34.747 43.7996C34.7796 43.7623 34.8201 43.7327 34.8655 43.713C34.911 43.6933 34.9602 43.684 35.0097 43.6858C35.0592 43.6875 35.1077 43.7002 35.1517 43.723C35.1957 43.7459 35.234 43.7782 35.2639 43.8177C35.4602 44.0049 35.6153 44.231 35.7194 44.4815C35.8235 44.732 35.8744 45.0015 35.8686 45.2727C35.9422 45.1035 36.0332 44.9424 36.14 44.792C36.1662 44.7446 36.2083 44.708 36.2589 44.6886C36.339 44.6654 36.4139 44.7274 36.4734 44.7842C36.6284 44.9367 36.7835 45.1383 36.7318 45.3476C36.8172 45.0042 36.9961 44.6911 37.2487 44.4431C37.5071 44.2183 37.9878 44.1976 38.1816 44.4896C38.2696 44.6466 38.3024 44.8287 38.2747 45.0065C38.2396 45.385 38.1175 45.7503 37.918 46.0738C37.918 45.9472 38.1093 45.8981 38.2101 45.9731C38.2558 46.0159 38.29 46.0697 38.3094 46.1293C38.3289 46.189 38.3329 46.2526 38.3212 46.3142C38.3212 46.4382 38.2643 46.5597 38.2592 46.6863" fill="url(#paint8_linear)"/>
<defs>
<linearGradient id="paint0_linear" x1="19860.2" y1="899.75" x2="19792.7" y2="2234.44" gradientUnits="userSpaceOnUse">
<stop stop-color="white" stop-opacity="0.27"/>
<stop offset="0.95" stop-color="white"/>
</linearGradient>
<linearGradient id="paint1_linear" x1="130.34" y1="44.1638" x2="8.76571" y2="9.66602" gradientUnits="userSpaceOnUse">
<stop offset="0.079127"/>
<stop offset="0.83" stop-opacity="0.07"/>
<stop offset="1" stop-opacity="0"/>
</linearGradient>
<linearGradient id="paint2_linear" x1="25.1362" y1="-7.99984" x2="-24.5333" y2="51.0792" gradientUnits="userSpaceOnUse">
<stop offset="0.01"/>
<stop offset="0.83" stop-opacity="0.07"/>
<stop offset="1" stop-opacity="0"/>
</linearGradient>
<linearGradient id="paint3_linear" x1="60.3553" y1="4.48139" x2="56.0643" y2="30.0409" gradientUnits="userSpaceOnUse">
<stop/>
<stop offset="0.571801" stop-opacity="0"/>
</linearGradient>
<linearGradient id="paint4_linear" x1="45.8027" y1="-13.4997" x2="35.7744" y2="99.1072" gradientUnits="userSpaceOnUse">
<stop stop-opacity="0"/>
<stop offset="0.932855" stop-opacity="0.75"/>
<stop offset="1"/>
</linearGradient>
<linearGradient id="paint5_linear" x1="39.2077" y1="31.217" x2="38.7555" y2="40.1744" gradientUnits="userSpaceOnUse">
<stop offset="0.02" stop-color="white" stop-opacity="0"/>
<stop offset="0.58" stop-color="white" stop-opacity="0.39"/>
<stop offset="1" stop-color="white"/>
</linearGradient>
<linearGradient id="paint6_linear" x1="56.4696" y1="65.167" x2="58.7944" y2="44.0901" gradientUnits="userSpaceOnUse">
<stop offset="0.02" stop-color="white" stop-opacity="0"/>
<stop offset="0.58" stop-color="white" stop-opacity="0.39"/>
<stop offset="1" stop-color="white"/>
</linearGradient>
<linearGradient id="paint7_linear" x1="43.2098" y1="33.4334" x2="38.509" y2="50.1763" gradientUnits="userSpaceOnUse">
<stop offset="0.52893"/>
<stop offset="0.83" stop-opacity="0.07"/>
<stop offset="1" stop-opacity="0"/>
</linearGradient>
<linearGradient id="paint8_linear" x1="34.4696" y1="40.9995" x2="32.195" y2="50.4219" gradientUnits="userSpaceOnUse">
<stop offset="0.01"/>
<stop offset="0.83" stop-opacity="0.07"/>
<stop offset="1" stop-opacity="0"/>
</linearGradient>
</defs>
</svg>
