<svg width="80" height="80" viewBox="0 0 80 80" fill="none" xmlns="http://www.w3.org/2000/svg">
<path opacity="0.24" d="M79.9981 57.9902C80.1257 67.5619 73.7292 76.6636 65.7534 78.2686C62.0208 79.0231 58.2127 78.2961 54.422 78.0972C46.1766 77.6719 37.9499 79.7639 29.719 79.9834C28.0527 80.0279 26.3836 79.9834 24.7131 79.8445C19.2205 79.3528 13.8567 77.6328 8.90658 74.7757C6.79518 73.5583 4.73453 72.1042 3.19739 70.0122C-0.100228 65.5299 -0.417808 58.9693 0.344964 53.105C1.10774 47.2406 2.78555 41.5082 2.8711 35.5718C2.93201 31.4273 2.21274 27.3274 2.02857 23.1881C1.84441 19.0487 2.2693 14.659 4.32994 11.3084C6.39059 7.95784 9.82016 6.12136 13.2555 5.3223C16.6909 4.52323 20.2162 4.62783 23.7154 4.37062C30.953 3.84591 38.0398 1.75909 45.2354 0.718245C55.9664 -0.837015 73.2231 -1.33943 74.4107 15.2677C74.5019 16.6413 74.5271 18.0199 74.4861 19.3968C74.3817 23.9837 73.7857 28.5878 74.2788 33.1404C75.2011 41.6952 79.8821 49.3703 79.9981 57.9902Z" fill="#6E71FF"/>
<path opacity="0.24" d="M79.9978 59.6101C80.1272 68.484 73.6406 76.9223 65.5527 78.4103C61.7675 79.1097 57.9059 78.4357 54.0619 78.2513C45.7004 77.857 37.358 79.7965 29.0111 80C26.9671 77.9159 23.9114 68.6483 21.9924 66.4385C21.4042 65.7502 20.7836 64.9871 20.6689 64.0539C20.5865 63.3592 20.7939 62.6629 20.9998 62C24.5711 50.684 30.5643 47.127 36.8109 37.26C39.7285 32.6498 42.9137 28.2622 46.1753 23.9365C48.3915 21.0018 51.2605 15.2915 55.1942 15.0117C58.4 14.7828 62.1175 17.9623 64.8997 19.3215C68.0526 20.862 71.2319 22.342 74.4083 23.8332C74.3024 28.0857 73.698 32.3541 74.198 36.5749C75.1332 44.5029 79.8801 51.6185 79.9978 59.6101Z" fill="#6E71FF"/>
<path d="M43.7592 16.1587L41.9494 15.5903L42.4439 11.3312H42.5889C42.7687 11.1862 43.2937 10.5583 43.153 10.0928C43.0269 9.66643 42.3482 9.49531 41.7986 9.42425C41.0184 9.32564 40.508 9.4141 40.3209 9.67803C40.07 10.0348 40.4007 10.7047 40.55 10.9324L40.5892 10.9919L40.3166 15.1088L38.3081 14.5549L38.4212 14.1474L39.8757 14.5549L40.1048 11.0745C39.9598 10.8381 39.5248 9.99851 39.9149 9.4373C40.2049 9.02546 40.8488 8.879 41.8319 9.00226C43.3676 9.19803 43.662 9.83319 43.6403 10.332C43.6185 10.8309 43.1965 11.4429 42.8789 11.6705L42.457 15.2959L43.8897 15.7454L43.7592 16.1587Z" fill="#6E71FF"/>
<path d="M43.7592 16.1587L41.9494 15.5903L42.4439 11.3312H42.5889C42.7687 11.1862 43.2937 10.5583 43.153 10.0928C43.0269 9.66643 42.3482 9.49531 41.7986 9.42425C41.0184 9.32564 40.508 9.4141 40.3209 9.67803C40.07 10.0348 40.4007 10.7047 40.55 10.9324L40.5892 10.9919L40.3166 15.1088L38.3081 14.5549L38.4212 14.1474L39.8757 14.5549L40.1048 11.0745C39.9598 10.8381 39.5248 9.99851 39.9149 9.4373C40.2049 9.02546 40.8488 8.879 41.8319 9.00226C43.3676 9.19803 43.662 9.83319 43.6403 10.332C43.6185 10.8309 43.1965 11.4429 42.8789 11.6705L42.457 15.2959L43.8897 15.7454L43.7592 16.1587Z" fill="url(#paint0_linear)"/>
<path d="M58.5552 66.7778H22.1465L19.8813 64.9129L22.1465 15.8053L56.2901 13.9404L58.5552 15.8053V66.7778Z" fill="#6E71FF"/>
<path d="M58.5552 66.7778H22.1465L19.8813 64.9129L22.1465 15.8053L56.2901 13.9404L58.5552 15.8053V66.7778Z" fill="url(#paint1_linear)"/>
<path d="M57.3559 65.889L21.5693 65.9789L19.8813 64.9131L21.0806 15.6286L55.2242 13.7637L57.4893 15.6286L57.3559 65.889Z" fill="url(#paint2_linear)"/>
<path d="M56.2901 13.9404H19.8813V64.9129H56.2901V13.9404Z" fill="white"/>
<path d="M31.3549 17.4875C31.3361 17.6165 31.3274 17.7775 31.4318 17.85C31.4887 17.8843 31.5539 17.9023 31.6203 17.9022C34.9743 18.1924 38.3525 18.0049 41.6538 17.3453C42.1976 17.2366 42.856 16.9872 42.8952 16.4347C42.9314 15.9445 42.4601 15.3456 42.84 15.0382C42.9825 14.9528 43.1453 14.9072 43.3113 14.9062C43.6126 14.8622 43.9003 14.752 44.1538 14.5835C44.4073 14.415 44.6203 14.1924 44.7774 13.9317L35.2573 13.8549C34.3321 13.8476 32.647 13.459 31.9857 14.2899C31.4738 14.9265 31.3549 16.7305 31.3549 17.4875Z" fill="url(#paint3_linear)"/>
<path d="M41.9045 16.1818H32.0479L31.3809 10.055L41.3042 9.98828L41.9045 16.1818Z" fill="#6E71FF"/>
<path d="M41.3042 9.98828L44.9687 11.8097L44.4351 13.9399H41.7262L41.3042 9.98828Z" fill="#6E71FF"/>
<path d="M41.3042 9.98828L44.9687 11.8097L44.4351 13.9399H41.7262L41.3042 9.98828Z" fill="url(#paint4_linear)"/>
<path d="M39.0986 16.0865L37.2018 16.0125L36.5464 11.2763L36.6827 11.2415C36.8175 11.0298 37.1569 10.2003 36.8973 9.73919C36.6624 9.31864 35.9619 9.3346 35.4152 9.42306C34.6365 9.54777 34.1667 9.79429 34.0579 10.1351C33.9129 10.5933 34.4074 11.2169 34.6104 11.4185L34.6641 11.4707L35.495 15.9864H33.4126V15.5137H34.928L34.2261 11.6998C34.0289 11.4866 33.3778 10.7151 33.6084 9.99151C33.7766 9.46221 34.3595 9.11417 35.3485 8.95611C36.8799 8.71103 37.3323 9.30704 37.4454 9.8523C37.5586 10.3976 37.312 11.1806 37.067 11.52L37.6238 15.5543L39.1247 15.6137L39.0986 16.0865Z" fill="#6E71FF"/>
<path d="M39.0986 16.0865L37.2018 16.0125L36.5464 11.2763L36.6827 11.2415C36.8175 11.0298 37.1569 10.2003 36.8973 9.73919C36.6624 9.31864 35.9619 9.3346 35.4152 9.42306C34.6365 9.54777 34.1667 9.79429 34.0579 10.1351C33.9129 10.5933 34.4074 11.2169 34.6104 11.4185L34.6641 11.4707L35.495 15.9864H33.4126V15.5137H34.928L34.2261 11.6998C34.0289 11.4866 33.3778 10.7151 33.6084 9.99151C33.7766 9.46221 34.3595 9.11417 35.3485 8.95611C36.8799 8.71103 37.3323 9.30704 37.4454 9.8523C37.5586 10.3976 37.312 11.1806 37.067 11.52L37.6238 15.5543L39.1247 15.6137L39.0986 16.0865Z" fill="url(#paint5_linear)"/>
<path d="M36.577 21.71H25.3877V35.83H36.577V21.71Z" fill="#6E71FF"/>
<path d="M36.577 21.71H25.3877V35.83H36.577V21.71Z" fill="url(#paint6_linear)"/>
<path d="M51.3623 23.665H40.6167C40.298 23.665 40.0396 23.9234 40.0396 24.2422C40.0396 24.5609 40.298 24.8193 40.6167 24.8193H51.3623C51.681 24.8193 51.9394 24.5609 51.9394 24.2422C51.9394 23.9234 51.681 23.665 51.3623 23.665Z" fill="#6E71FF"/>
<path d="M51.3623 23.665H40.6167C40.298 23.665 40.0396 23.9234 40.0396 24.2422C40.0396 24.5609 40.298 24.8193 40.6167 24.8193H51.3623C51.681 24.8193 51.9394 24.5609 51.9394 24.2422C51.9394 23.9234 51.681 23.665 51.3623 23.665Z" fill="url(#paint7_linear)"/>
<path d="M51.3623 26.1953H40.6167C40.298 26.1953 40.0396 26.4537 40.0396 26.7725C40.0396 27.0912 40.298 27.3496 40.6167 27.3496H51.3623C51.681 27.3496 51.9394 27.0912 51.9394 26.7725C51.9394 26.4537 51.681 26.1953 51.3623 26.1953Z" fill="#6E71FF"/>
<path d="M51.3623 26.1953H40.6167C40.298 26.1953 40.0396 26.4537 40.0396 26.7725C40.0396 27.0912 40.298 27.3496 40.6167 27.3496H51.3623C51.681 27.3496 51.9394 27.0912 51.9394 26.7725C51.9394 26.4537 51.681 26.1953 51.3623 26.1953Z" fill="url(#paint8_linear)"/>
<path d="M51.3623 29.8799H40.6167C40.298 29.8799 40.0396 30.1383 40.0396 30.457C40.0396 30.7758 40.298 31.0342 40.6167 31.0342H51.3623C51.681 31.0342 51.9394 30.7758 51.9394 30.457C51.9394 30.1383 51.681 29.8799 51.3623 29.8799Z" fill="#6E71FF"/>
<path d="M51.3623 29.8799H40.6167C40.298 29.8799 40.0396 30.1383 40.0396 30.457C40.0396 30.7758 40.298 31.0342 40.6167 31.0342H51.3623C51.681 31.0342 51.9394 30.7758 51.9394 30.457C51.9394 30.1383 51.681 29.8799 51.3623 29.8799Z" fill="url(#paint9_linear)"/>
<path d="M51.3623 32.4111H40.6167C40.298 32.4111 40.0396 32.6695 40.0396 32.9883C40.0396 33.307 40.298 33.5654 40.6167 33.5654H51.3623C51.681 33.5654 51.9394 33.307 51.9394 32.9883C51.9394 32.6695 51.681 32.4111 51.3623 32.4111Z" fill="#6E71FF"/>
<path d="M51.3623 32.4111H40.6167C40.298 32.4111 40.0396 32.6695 40.0396 32.9883C40.0396 33.307 40.298 33.5654 40.6167 33.5654H51.3623C51.681 33.5654 51.9394 33.307 51.9394 32.9883C51.9394 32.6695 51.681 32.4111 51.3623 32.4111Z" fill="url(#paint10_linear)"/>
<path d="M44.5688 44.1338H33.8233C33.5045 44.1338 33.2461 44.3922 33.2461 44.7109C33.2461 45.0297 33.5045 45.2881 33.8233 45.2881H44.5688C44.8876 45.2881 45.146 45.0297 45.146 44.7109C45.146 44.3922 44.8876 44.1338 44.5688 44.1338Z" fill="#6E71FF"/>
<path d="M44.5688 44.1338H33.8233C33.5045 44.1338 33.2461 44.3922 33.2461 44.7109C33.2461 45.0297 33.5045 45.2881 33.8233 45.2881H44.5688C44.8876 45.2881 45.146 45.0297 45.146 44.7109C45.146 44.3922 44.8876 44.1338 44.5688 44.1338Z" fill="url(#paint11_linear)"/>
<path d="M44.5688 46.6641H33.8233C33.5045 46.6641 33.2461 46.9225 33.2461 47.2412C33.2461 47.56 33.5045 47.8184 33.8233 47.8184H44.5688C44.8876 47.8184 45.146 47.56 45.146 47.2412C45.146 46.9225 44.8876 46.6641 44.5688 46.6641Z" fill="#6E71FF"/>
<path d="M44.5688 46.6641H33.8233C33.5045 46.6641 33.2461 46.9225 33.2461 47.2412C33.2461 47.56 33.5045 47.8184 33.8233 47.8184H44.5688C44.8876 47.8184 45.146 47.56 45.146 47.2412C45.146 46.9225 44.8876 46.6641 44.5688 46.6641Z" fill="url(#paint12_linear)"/>
<path d="M44.5688 52.6572H33.8233C33.5045 52.6572 33.2461 52.9156 33.2461 53.2344C33.2461 53.5531 33.5045 53.8115 33.8233 53.8115H44.5688C44.8876 53.8115 45.146 53.5531 45.146 53.2344C45.146 52.9156 44.8876 52.6572 44.5688 52.6572Z" fill="#6E71FF"/>
<path d="M44.5688 52.6572H33.8233C33.5045 52.6572 33.2461 52.9156 33.2461 53.2344C33.2461 53.5531 33.5045 53.8115 33.8233 53.8115H44.5688C44.8876 53.8115 45.146 53.5531 45.146 53.2344C45.146 52.9156 44.8876 52.6572 44.5688 52.6572Z" fill="url(#paint13_linear)"/>
<path d="M44.5688 55.1885H33.8233C33.5045 55.1885 33.2461 55.4469 33.2461 55.7656C33.2461 56.0844 33.5045 56.3428 33.8233 56.3428H44.5688C44.8876 56.3428 45.146 56.0844 45.146 55.7656C45.146 55.4469 44.8876 55.1885 44.5688 55.1885Z" fill="#6E71FF"/>
<path d="M44.5688 55.1885H33.8233C33.5045 55.1885 33.2461 55.4469 33.2461 55.7656C33.2461 56.0844 33.5045 56.3428 33.8233 56.3428H44.5688C44.8876 56.3428 45.146 56.0844 45.146 55.7656C45.146 55.4469 44.8876 55.1885 44.5688 55.1885Z" fill="url(#paint14_linear)"/>
<path d="M51.3609 37.7402H25.6978C25.379 37.7402 25.1206 37.9986 25.1206 38.3174C25.1206 38.6361 25.379 38.8946 25.6978 38.8946H51.3609C51.6797 38.8946 51.9381 38.6361 51.9381 38.3174C51.9381 37.9986 51.6797 37.7402 51.3609 37.7402Z" fill="#6E71FF"/>
<path d="M51.3609 37.7402H25.6978C25.379 37.7402 25.1206 37.9986 25.1206 38.3174C25.1206 38.6361 25.379 38.8946 25.6978 38.8946H51.3609C51.6797 38.8946 51.9381 38.6361 51.9381 38.3174C51.9381 37.9986 51.6797 37.7402 51.3609 37.7402Z" fill="url(#paint15_linear)"/>
<path d="M51.3609 40.2705H25.6978C25.379 40.2705 25.1206 40.5289 25.1206 40.8477C25.1206 41.1664 25.379 41.4248 25.6978 41.4248H51.3609C51.6797 41.4248 51.9381 41.1664 51.9381 40.8477C51.9381 40.5289 51.6797 40.2705 51.3609 40.2705Z" fill="#6E71FF"/>
<path d="M51.3609 40.2705H25.6978C25.379 40.2705 25.1206 40.5289 25.1206 40.8477C25.1206 41.1664 25.379 41.4248 25.6978 41.4248H51.3609C51.6797 41.4248 51.9381 41.1664 51.9381 40.8477C51.9381 40.5289 51.6797 40.2705 51.3609 40.2705Z" fill="url(#paint16_linear)"/>
<path d="M31.1158 43.4229H26.4536V47.5514H31.1158V43.4229Z" fill="#6E71FF"/>
<path d="M31.1158 43.4229H26.4536V47.5514H31.1158V43.4229Z" fill="url(#paint17_linear)"/>
<path d="M31.1158 52.4805H26.4536V56.609H31.1158V52.4805Z" fill="#6E71FF"/>
<path d="M31.1158 52.4805H26.4536V56.609H31.1158V52.4805Z" fill="url(#paint18_linear)"/>
<path d="M27.7206 33.3406C27.0462 33.8351 26.4415 34.724 26.5605 35.5535C29.8624 35.3911 32.9962 35.581 35.866 35.539C35.808 34.7849 35.5049 33.8264 34.98 33.2826C34.7065 33.03 34.3916 32.8264 34.049 32.6808C33.35 32.3371 32.6409 31.9948 31.8738 31.8353C30.3424 31.5119 28.9256 32.4589 27.7206 33.3406Z" fill="white"/>
<path d="M33.5215 28.297C33.5342 28.4181 33.5208 28.5406 33.4823 28.6561C33.4438 28.7717 33.381 28.8777 33.2982 28.9669C33.2596 29.0129 33.2095 29.0479 33.1531 29.0685C32.8631 29.1627 32.8501 28.5769 32.9327 28.4101C33.0313 28.2201 33.478 27.9199 33.5215 28.297Z" fill="url(#paint19_linear)"/>
<path d="M28.369 27.9688C28.3562 28.0898 28.3694 28.2122 28.4076 28.3277C28.4459 28.4433 28.5084 28.5493 28.5909 28.6388C28.6303 28.6838 28.6801 28.7186 28.7359 28.7403C29.0259 28.8345 29.039 28.2472 28.9549 28.0819C28.8591 27.8963 28.4125 27.5918 28.369 27.9688Z" fill="url(#paint20_linear)"/>
<path d="M30.5777 23.4152C30.8475 23.0833 31.2372 22.8712 31.6624 22.825C32.0743 22.7815 32.5325 22.9236 32.7529 23.2716C32.8953 23.5386 32.9606 23.8398 32.9414 24.1417C32.967 24.4217 32.9232 24.7036 32.8138 24.9625C32.68 25.2066 32.462 25.3937 32.2004 25.4889C31.5972 25.7267 30.8851 25.5339 30.4182 25.1046C29.9512 24.6754 30.2123 23.8589 30.5777 23.4152Z" fill="#606161"/>
<path d="M30.5777 23.4152C30.8475 23.0833 31.2372 22.8712 31.6624 22.825C32.0743 22.7815 32.5325 22.9236 32.7529 23.2716C32.8953 23.5386 32.9606 23.8398 32.9414 24.1417C32.967 24.4217 32.9232 24.7036 32.8138 24.9625C32.68 25.2066 32.462 25.3937 32.2004 25.4889C31.5972 25.7267 30.8851 25.5339 30.4182 25.1046C29.9512 24.6754 30.2123 23.8589 30.5777 23.4152Z" fill="#3E3E54"/>
<path d="M30.5777 23.4152C30.8475 23.0833 31.2372 22.8712 31.6624 22.825C32.0743 22.7815 32.5325 22.9236 32.7529 23.2716C32.8953 23.5386 32.9606 23.8398 32.9414 24.1417C32.967 24.4217 32.9232 24.7036 32.8138 24.9625C32.68 25.2066 32.462 25.3937 32.2004 25.4889C31.5972 25.7267 30.8851 25.5339 30.4182 25.1046C29.9512 24.6754 30.2123 23.8589 30.5777 23.4152Z" fill="url(#paint21_linear)"/>
<path d="M32.0278 29.9357C32.0278 29.9357 32.0452 31.8528 32.4817 32.2559C32.9182 32.659 30.7328 34.5428 29.8076 32.4401C29.8076 32.4401 30.3456 31.5323 30.1615 30.0024C29.9773 28.4725 32.0278 29.9357 32.0278 29.9357Z" fill="url(#paint22_linear)"/>
<path d="M32.0917 30.3896V30.8102C32.0917 30.8102 30.9824 32.4053 30.5285 31.8702C30.0746 31.3351 30.208 31.2148 30.208 31.2148L30.1587 30.0039L32.0917 30.3896Z" fill="url(#paint23_linear)"/>
<path d="M33.0851 27.1948C33.0851 27.1948 33.4041 30.1212 31.8394 30.7013C30.2747 31.2813 29.3423 30.4489 28.913 29.0365C28.4838 27.6241 29.1407 24.7731 30.7982 25.0501C32.4557 25.327 33.0851 27.1948 33.0851 27.1948Z" fill="url(#paint24_linear)"/>
<path d="M33.3333 28.1774C33.4046 28.0762 33.4509 27.9593 33.4681 27.8367C33.5699 27.2874 33.5257 26.7211 33.3399 26.1943C33.1541 25.6675 32.8333 25.1987 32.4095 24.8349C32.2374 24.6832 32.0381 24.5656 31.8222 24.4883C31.607 24.4245 31.382 24.4 31.158 24.4158C30.4516 24.4376 29.7703 24.6828 29.212 25.1162C28.9363 25.3354 28.7092 25.6095 28.545 25.921C28.3807 26.2325 28.2829 26.5747 28.2578 26.926C28.2383 27.1341 28.2723 27.3437 28.3564 27.535C28.3989 27.6303 28.4632 27.7143 28.544 27.7802C28.6249 27.8462 28.72 27.8924 28.8219 27.915C29.183 27.9773 29.2816 27.6438 29.5745 27.4219C30.0095 27.0869 30.1545 26.5895 31.1551 26.6736C32.7822 26.81 32.8982 28.7125 33.3333 28.1774Z" fill="#3E3E54"/>
<path d="M33.3333 28.1774C33.4046 28.0762 33.4509 27.9593 33.4681 27.8367C33.5699 27.2874 33.5257 26.7211 33.3399 26.1943C33.1541 25.6675 32.8333 25.1987 32.4095 24.8349C32.2374 24.6832 32.0381 24.5656 31.8222 24.4883C31.607 24.4245 31.382 24.4 31.158 24.4158C30.4516 24.4376 29.7703 24.6828 29.212 25.1162C28.9363 25.3354 28.7092 25.6095 28.545 25.921C28.3807 26.2325 28.2829 26.5747 28.2578 26.926C28.2383 27.1341 28.2723 27.3437 28.3564 27.535C28.3989 27.6303 28.4632 27.7143 28.544 27.7802C28.6249 27.8462 28.72 27.8924 28.8219 27.915C29.183 27.9773 29.2816 27.6438 29.5745 27.4219C30.0095 27.0869 30.1545 26.5895 31.1551 26.6736C32.7822 26.81 32.8982 28.7125 33.3333 28.1774Z" fill="url(#paint25_linear)"/>
<path d="M28.6593 28.1773C28.6402 28.1598 28.6249 28.1385 28.6144 28.1149C28.6077 28.0873 28.6038 28.0592 28.6028 28.0308C28.5989 28.003 28.5856 27.9774 28.5651 27.9583C28.5541 27.9494 28.541 27.9433 28.527 27.9408C28.5131 27.9383 28.4987 27.9393 28.4853 27.9438C28.4739 27.9491 28.4638 27.9568 28.4555 27.9663C28.4473 27.9758 28.4411 27.9869 28.4374 27.9989C28.4311 28.0231 28.4277 28.0479 28.4273 28.0729C28.4175 28.1692 28.432 28.2664 28.4693 28.3556C28.5048 28.417 28.5504 28.4719 28.6042 28.5181C28.6135 28.5295 28.6249 28.5389 28.6379 28.5459C28.6508 28.5528 28.665 28.5572 28.6796 28.5587C28.6984 28.5574 28.7165 28.5509 28.7318 28.5398C28.7389 28.5362 28.7453 28.5313 28.7507 28.5253C28.752 28.5181 28.752 28.5107 28.7507 28.5036C28.763 28.4374 28.763 28.3696 28.7507 28.3034C28.7336 28.2531 28.7018 28.2092 28.6593 28.1773Z" fill="url(#paint26_linear)"/>
<path d="M33.188 28.4929C33.2071 28.4754 33.2224 28.4542 33.233 28.4305C33.2398 28.4035 33.2437 28.3758 33.2446 28.3479C33.248 28.3197 33.262 28.2938 33.2837 28.2754C33.2941 28.2658 33.3068 28.2592 33.3206 28.2564C33.3344 28.2536 33.3488 28.2547 33.362 28.2594C33.3733 28.265 33.3833 28.2727 33.3915 28.2822C33.3997 28.2916 33.406 28.3026 33.4099 28.3145C33.4162 28.3392 33.4196 28.3645 33.42 28.3899C33.4298 28.4862 33.4154 28.5834 33.378 28.6727C33.3424 28.7336 33.2968 28.788 33.2431 28.8337C33.224 28.8566 33.1972 28.8715 33.1677 28.8757C33.1487 28.874 33.1307 28.867 33.1155 28.8554C33.1078 28.8528 33.1012 28.8477 33.0967 28.8409C33.0952 28.8338 33.0952 28.8264 33.0967 28.8192C33.0843 28.7535 33.0843 28.6862 33.0967 28.6205C33.1137 28.5698 33.1455 28.5254 33.188 28.4929Z" fill="url(#paint27_linear)"/>
<defs>
<linearGradient id="paint0_linear" x1="40.9991" y1="-0.621703" x2="39.275" y2="20.593" gradientUnits="userSpaceOnUse">
<stop offset="0.38383" stop-opacity="0.75"/>
<stop offset="0.908533" stop-opacity="0"/>
</linearGradient>
<linearGradient id="paint1_linear" x1="43.5598" y1="72.5298" x2="48.2585" y2="-31.5" gradientUnits="userSpaceOnUse">
<stop stop-opacity="0"/>
<stop offset="0.639117" stop-opacity="0.75"/>
<stop offset="1"/>
</linearGradient>
<linearGradient id="paint2_linear" x1="42.9072" y1="71.6632" x2="47.6256" y2="-31.1349" gradientUnits="userSpaceOnUse">
<stop stop-opacity="0"/>
<stop offset="0.639117" stop-opacity="0.75"/>
<stop offset="1"/>
</linearGradient>
<linearGradient id="paint3_linear" x1="34.8332" y1="19.3335" x2="37.3633" y2="7.1631" gradientUnits="userSpaceOnUse">
<stop stop-opacity="0"/>
<stop offset="0.799692" stop-opacity="0.51"/>
<stop offset="0.99"/>
</linearGradient>
<linearGradient id="paint4_linear" x1="44.3556" y1="11.6694" x2="40.3628" y2="11.5015" gradientUnits="userSpaceOnUse">
<stop stop-opacity="0"/>
<stop offset="0.639117" stop-opacity="0.75"/>
<stop offset="1"/>
</linearGradient>
<linearGradient id="paint5_linear" x1="36.1665" y1="-0.666669" x2="34.4867" y2="20.5203" gradientUnits="userSpaceOnUse">
<stop offset="0.38383" stop-opacity="0.75"/>
<stop offset="0.908533" stop-opacity="0"/>
</linearGradient>
<linearGradient id="paint6_linear" x1="27.1592" y1="11.4737" x2="42.8616" y2="12.0157" gradientUnits="userSpaceOnUse">
<stop stop-opacity="0"/>
<stop offset="0.87783" stop-opacity="0.75"/>
<stop offset="1"/>
</linearGradient>
<linearGradient id="paint7_linear" x1="41.9236" y1="22.8282" x2="55.8372" y2="29.0763" gradientUnits="userSpaceOnUse">
<stop stop-opacity="0"/>
<stop offset="0.87783" stop-opacity="0.75"/>
<stop offset="1"/>
</linearGradient>
<linearGradient id="paint8_linear" x1="41.9236" y1="25.3585" x2="55.8372" y2="31.6066" gradientUnits="userSpaceOnUse">
<stop stop-opacity="0"/>
<stop offset="0.87783" stop-opacity="0.75"/>
<stop offset="1"/>
</linearGradient>
<linearGradient id="paint9_linear" x1="41.9236" y1="29.0431" x2="55.8372" y2="35.2911" gradientUnits="userSpaceOnUse">
<stop stop-opacity="0"/>
<stop offset="0.87783" stop-opacity="0.75"/>
<stop offset="1"/>
</linearGradient>
<linearGradient id="paint10_linear" x1="41.9236" y1="31.5743" x2="55.8372" y2="37.8224" gradientUnits="userSpaceOnUse">
<stop stop-opacity="0"/>
<stop offset="0.87783" stop-opacity="0.75"/>
<stop offset="1"/>
</linearGradient>
<linearGradient id="paint11_linear" x1="35.1301" y1="43.297" x2="49.0438" y2="49.545" gradientUnits="userSpaceOnUse">
<stop stop-opacity="0"/>
<stop offset="0.87783" stop-opacity="0.75"/>
<stop offset="1"/>
</linearGradient>
<linearGradient id="paint12_linear" x1="35.1301" y1="45.8272" x2="49.0438" y2="52.0753" gradientUnits="userSpaceOnUse">
<stop stop-opacity="0"/>
<stop offset="0.87783" stop-opacity="0.75"/>
<stop offset="1"/>
</linearGradient>
<linearGradient id="paint13_linear" x1="35.1301" y1="51.8204" x2="49.0438" y2="58.0685" gradientUnits="userSpaceOnUse">
<stop stop-opacity="0"/>
<stop offset="0.87783" stop-opacity="0.75"/>
<stop offset="1"/>
</linearGradient>
<linearGradient id="paint14_linear" x1="35.1301" y1="54.3517" x2="49.0438" y2="60.5997" gradientUnits="userSpaceOnUse">
<stop stop-opacity="0"/>
<stop offset="0.87783" stop-opacity="0.75"/>
<stop offset="1"/>
</linearGradient>
<linearGradient id="paint15_linear" x1="29.3664" y1="36.9034" x2="47.9812" y2="55.7415" gradientUnits="userSpaceOnUse">
<stop stop-opacity="0"/>
<stop offset="0.87783" stop-opacity="0.75"/>
<stop offset="1"/>
</linearGradient>
<linearGradient id="paint16_linear" x1="29.3664" y1="39.4337" x2="47.9815" y2="58.2717" gradientUnits="userSpaceOnUse">
<stop stop-opacity="0"/>
<stop offset="0.87783" stop-opacity="0.75"/>
<stop offset="1"/>
</linearGradient>
<linearGradient id="paint17_linear" x1="27.1917" y1="40.4299" x2="33.7264" y2="40.7513" gradientUnits="userSpaceOnUse">
<stop stop-opacity="0"/>
<stop offset="0.87783" stop-opacity="0.75"/>
<stop offset="1"/>
</linearGradient>
<linearGradient id="paint18_linear" x1="27.1917" y1="49.4875" x2="33.7264" y2="49.8089" gradientUnits="userSpaceOnUse">
<stop stop-opacity="0"/>
<stop offset="0.87783" stop-opacity="0.75"/>
<stop offset="1"/>
</linearGradient>
<linearGradient id="paint19_linear" x1="33.5258" y1="28.5972" x2="32.8921" y2="28.5972" gradientUnits="userSpaceOnUse">
<stop stop-color="#E4C5D5"/>
<stop offset="0.42" stop-color="#E9D3CF"/>
<stop offset="1" stop-color="#EFE8CA"/>
</linearGradient>
<linearGradient id="paint20_linear" x1="28.3643" y1="28.2698" x2="29.0004" y2="28.2698" gradientUnits="userSpaceOnUse">
<stop stop-color="#E5C5D5"/>
<stop offset="0.42" stop-color="#EAD4D1"/>
<stop offset="1" stop-color="#F0E9CB"/>
</linearGradient>
<linearGradient id="paint21_linear" x1="33.3619" y1="21.0654" x2="29.737" y2="20.6069" gradientUnits="userSpaceOnUse">
<stop offset="0.079127"/>
<stop offset="0.83" stop-opacity="0.07"/>
<stop offset="1" stop-opacity="0"/>
</linearGradient>
<linearGradient id="paint22_linear" x1="29.8077" y1="31.3613" x2="32.5406" y2="31.3613" gradientUnits="userSpaceOnUse">
<stop stop-color="#E5C5D5"/>
<stop offset="0.42" stop-color="#EAD4D1"/>
<stop offset="1" stop-color="#F0E9CB"/>
</linearGradient>
<linearGradient id="paint23_linear" x1="31.4421" y1="32.3328" x2="30.1804" y2="26.1016" gradientUnits="userSpaceOnUse">
<stop offset="0.12" stop-color="#010101" stop-opacity="0"/>
<stop offset="0.95" stop-color="#010101"/>
</linearGradient>
<linearGradient id="paint24_linear" x1="28.7853" y1="27.96" x2="33.1149" y2="27.96" gradientUnits="userSpaceOnUse">
<stop stop-color="#E5C5D5"/>
<stop offset="0.42" stop-color="#EAD4D1"/>
<stop offset="1" stop-color="#F0E9CB"/>
</linearGradient>
<linearGradient id="paint25_linear" x1="34.3047" y1="21.9731" x2="27.5289" y2="20.8065" gradientUnits="userSpaceOnUse">
<stop offset="0.079127"/>
<stop offset="0.83" stop-opacity="0.07"/>
<stop offset="1" stop-opacity="0"/>
</linearGradient>
<linearGradient id="paint26_linear" x1="28.4243" y1="28.2491" x2="28.7602" y2="28.2491" gradientUnits="userSpaceOnUse">
<stop stop-color="#E5C5D5"/>
<stop offset="0.42" stop-color="#EAD4D1"/>
<stop offset="1" stop-color="#F0E9CB"/>
</linearGradient>
<linearGradient id="paint27_linear" x1="33.0874" y1="28.5654" x2="33.4232" y2="28.5654" gradientUnits="userSpaceOnUse">
<stop stop-color="#E5C5D5"/>
<stop offset="0.42" stop-color="#EAD4D1"/>
<stop offset="1" stop-color="#F0E9CB"/>
</linearGradient>
</defs>
</svg>
