<svg width="48" height="48" viewBox="0 0 48 48" fill="none" xmlns="http://www.w3.org/2000/svg">
<path opacity="0.18" d="M47.8515 37.1034C47.7237 38.5361 47.4964 40.0145 46.8075 41.154C46.1908 42.1841 45.2687 42.8252 44.3524 43.3844C38.3533 47.0171 31.5682 47.9424 24.9393 47.9971C19.8327 48.0427 14.5983 47.5747 9.92256 44.9387C5.40664 42.3937 1.46009 37.4939 0.34739 31.3587C0.307144 31.143 0.272815 30.9257 0.239671 30.7054C-0.0491583 28.7196 -0.0385047 26.6655 0.0715819 24.6417C0.283469 20.7491 0.920314 16.7062 2.85808 13.6933C4.56856 11.0299 7.0757 9.4847 9.35555 7.64477C11.3241 6.05554 13.1636 4.19586 15.2245 2.81477C17.947 0.991553 20.9904 0.0981776 24.0492 0.00549743C29.3428 -0.146437 33.7865 2.89226 38.8576 3.99986C44.169 5.15608 44.3027 10.1532 44.8165 16.1045C45.0722 19.0429 46.1316 21.7504 46.8525 24.5597C47.8869 28.5993 48.2277 32.8786 47.8515 37.1034Z" fill="#6E71FF"/>
<path opacity="0.37" d="M48 34.7212C48 36.2998 47.7882 39.602 47.1 40.8498C46.2 42.7069 45.1 42.9855 44.2 43.6355C37.6 47.4427 31.1916 47.9366 24.564 47.9964C19.463 48.0479 14.2354 47.5345 9.56476 44.6519C2.80271 40.4784 1.11149 36.5139 0 29.7998H47.7C47.8 31.0998 48 32.7712 48 34.7212Z" fill="#6E71FF"/>
<path d="M7.49263 35.1157C7.13891 35.5 6.78519 35.9115 6.78519 36.3631C6.77811 37.1885 7.92535 37.7969 9.05843 38.1011C10.5582 38.5031 12.1936 38.5998 13.8042 38.6788C20.0532 38.9889 26.3282 39.1115 32.5973 39.2341C35.1594 39.2848 37.7522 39.332 40.253 38.9571C41.1845 38.8168 42.202 38.5597 42.5876 37.9714C43.0686 37.2356 42.3282 36.3207 42.8305 35.5932C43.0957 35.2088 43.6758 34.9341 43.8303 34.5226C44.0131 34.0321 43.4884 33.5216 42.8175 33.2952C42.1466 33.0688 41.3649 33.0594 40.6138 33.0488C35.1752 32.9961 29.7357 32.9568 24.2955 32.9308L13.3679 32.8672C12.236 32.8613 9.7588 32.5135 8.79196 32.9745C8.00081 33.3471 8.03146 34.5261 7.49263 35.1157Z" fill="url(#paint0_linear)"/>
<path d="M9.42383 32.2432H14.7391V36.8238C14.7391 36.9841 14.7075 37.1428 14.6462 37.2908C14.5848 37.4389 14.495 37.5734 14.3816 37.6868C14.2683 37.8001 14.1338 37.89 13.9857 37.9513C13.8377 38.0126 13.679 38.0442 13.5187 38.0442H10.6442C10.4839 38.0442 10.3252 38.0126 10.1772 37.9513C10.0291 37.89 9.89457 37.8001 9.78126 37.6868C9.66794 37.5734 9.57805 37.4389 9.51672 37.2908C9.45539 37.1428 9.42383 36.9841 9.42383 36.8238V32.2432Z" fill="#111111"/>
<path d="M35.4258 32.2432H40.7422V36.8238C40.7422 36.9841 40.7106 37.1428 40.6493 37.2908C40.588 37.4389 40.4981 37.5734 40.3848 37.6868C40.2715 37.8001 40.1369 37.89 39.9889 37.9513C39.8408 38.0126 39.6821 38.0442 39.5219 38.0442H36.6461C36.4859 38.0442 36.3272 38.0126 36.1791 37.9513C36.0311 37.89 35.8965 37.8001 35.7832 37.6868C35.6699 37.5734 35.58 37.4389 35.5187 37.2908C35.4573 37.1428 35.4258 36.9841 35.4258 36.8238V32.2432Z" fill="#111111"/>
<path d="M10.1617 21.7634H12.6838V19.6411H10.1617C9.88031 19.6411 9.6104 19.7529 9.41139 19.9519C9.21239 20.1509 9.10059 20.4208 9.10059 20.7023C9.10059 20.9837 9.21239 21.2536 9.41139 21.4526C9.6104 21.6516 9.88031 21.7634 10.1617 21.7634Z" fill="#6E71FF"/>
<path d="M39.9097 21.7634H37.3877V19.6411H39.9097C40.1912 19.6411 40.4611 19.7529 40.6601 19.9519C40.8591 20.1509 40.9709 20.4208 40.9709 20.7023C40.9709 20.9837 40.8591 21.2536 40.6601 21.4526C40.4611 21.6516 40.1912 21.7634 39.9097 21.7634Z" fill="#6E71FF"/>
<path d="M10.2541 23.9141C9.70766 25.334 9.42786 26.8425 9.42871 28.3639L16.3498 31.8268L33.1103 31.8598L40.7471 28.3639C40.7474 26.8425 40.4676 25.3341 39.9218 23.9141H10.2541Z" fill="#6E71FF"/>
<path d="M10.2541 23.9141C9.70766 25.334 9.42786 26.8425 9.42871 28.3639L16.3498 31.8268L33.1103 31.8598L40.7471 28.3639C40.7474 26.8425 40.4676 25.3341 39.9218 23.9141H10.2541Z" fill="url(#paint1_linear)"/>
<path d="M31.508 13.8062H18.6998C17.5269 13.8061 16.383 14.1711 15.427 14.8506C14.4709 15.5301 13.7501 16.4903 13.3645 17.598L12.4307 20.2781H37.7806L36.8456 17.598C36.4601 16.4898 35.7389 15.5292 34.7823 14.8497C33.8258 14.1702 32.6813 13.8054 31.508 13.8062Z" fill="#6E71FF"/>
<path d="M36.5553 20.2779H13.2734L14.2167 17.5319C14.5149 16.6687 15.075 15.92 15.819 15.3904C16.563 14.8607 17.4537 14.5764 18.367 14.5771H31.6351C32.5926 14.5771 33.5239 14.8904 34.2868 15.4693C35.0496 16.0482 35.602 16.8608 35.8597 17.783L36.5553 20.2779Z" fill="url(#paint2_linear)"/>
<path d="M10.2539 23.9142C19.9898 25.1406 29.8403 25.1544 39.5797 23.9555L39.9122 23.9142C39.4334 22.6703 38.7565 21.512 37.9078 20.4843L37.7344 20.2744H12.4305L12.256 20.4843C11.4084 21.5124 10.7323 22.6706 10.2539 23.9142Z" fill="#6E71FF"/>
<path d="M10.2539 23.9142C19.9898 25.1406 29.8403 25.1544 39.5797 23.9555L39.9122 23.9142C39.4334 22.6703 38.7565 21.512 37.9078 20.4843L37.7344 20.2744H12.4305L12.256 20.4843C11.4084 21.5124 10.7323 22.6706 10.2539 23.9142Z" fill="url(#paint3_linear)"/>
<path d="M40.9537 30.7635L40.7427 28.3677H40.4055L37.2609 29.2803C34.9576 29.9498 32.571 30.2896 30.1723 30.2896H19.6574C17.2587 30.2896 14.8722 29.9498 12.5689 29.2803L9.42428 28.3677L9.21323 30.7635C9.1627 31.339 9.23243 31.9187 9.41798 32.4658C9.60354 33.0129 9.90086 33.5154 10.2911 33.9415C10.6813 34.3675 11.1558 34.7077 11.6845 34.9404C12.2133 35.1732 12.7847 35.2934 13.3624 35.2935H36.8046C37.3823 35.2934 37.9537 35.1732 38.4824 34.9404C39.0111 34.7077 39.4857 34.3675 39.8759 33.9415C40.2661 33.5154 40.5634 33.0129 40.749 32.4658C40.9345 31.9187 41.0042 31.339 40.9537 30.7635Z" fill="#6E71FF"/>
<path d="M40.9537 30.7635L40.7427 28.3677H40.4055L37.2609 29.2803C34.9576 29.9498 32.571 30.2896 30.1723 30.2896H19.6574C17.2587 30.2896 14.8722 29.9498 12.5689 29.2803L9.42428 28.3677L9.21323 30.7635C9.1627 31.339 9.23243 31.9187 9.41798 32.4658C9.60354 33.0129 9.90086 33.5154 10.2911 33.9415C10.6813 34.3675 11.1558 34.7077 11.6845 34.9404C12.2133 35.1732 12.7847 35.2934 13.3624 35.2935H36.8046C37.3823 35.2934 37.9537 35.1732 38.4824 34.9404C39.0111 34.7077 39.4857 34.3675 39.8759 33.9415C40.2661 33.5154 40.5634 33.0129 40.749 32.4658C40.9345 31.9187 41.0042 31.339 40.9537 30.7635Z" fill="url(#paint4_linear)"/>
<path d="M25.0834 25.1943H18.8096L20.0606 28.7976H25.0834H30.105L31.3572 25.1943H25.0834Z" fill="white"/>
<path d="M25.0835 25.48H19.2695L20.4286 28.5126H25.0835H29.7385L30.8975 25.48H25.0835Z" fill="#6E71FF"/>
<path d="M25.0835 25.48H19.2695L20.4286 28.5126H25.0835H29.7385L30.8975 25.48H25.0835Z" fill="url(#paint5_linear)"/>
<path d="M30.8503 25.8267H19.2695V26.2063H30.8503V25.8267Z" fill="white"/>
<path d="M30.5273 26.8062H19.6445V27.1858H30.5273V26.8062Z" fill="white"/>
<path d="M30.114 27.7861H19.9092V28.1658H30.114V27.7861Z" fill="white"/>
<path d="M34.2493 34.3525H15.9219C15.9219 33.1876 17.5065 32.2432 19.4591 32.2432H30.7062C32.6611 32.2432 34.2434 33.1864 34.2434 34.3525H34.2493Z" fill="#111111"/>
<path d="M31.9347 24.6475L36.5555 20.2778H13.2725L18.1892 24.6404C22.767 24.9086 27.3566 24.911 31.9347 24.6475Z" fill="#6E71FF"/>
<path d="M31.9347 24.6475L36.5555 20.2778H13.2725L18.1892 24.6404C22.767 24.9086 27.3566 24.911 31.9347 24.6475Z" fill="url(#paint6_linear)"/>
<path opacity="0.2" d="M11.993 20.4878H9.9143C9.84456 20.4878 9.77769 20.4601 9.72838 20.4108C9.67907 20.3615 9.65137 20.2946 9.65137 20.2248C9.65137 20.1551 9.67907 20.0882 9.72838 20.0389C9.77769 19.9896 9.84456 19.9619 9.9143 19.9619H11.993C12.0627 19.9619 12.1296 19.9896 12.1789 20.0389C12.2282 20.0882 12.2559 20.1551 12.2559 20.2248C12.2559 20.2946 12.2282 20.3615 12.1789 20.4108C12.1296 20.4601 12.0627 20.4878 11.993 20.4878Z" fill="white"/>
<path opacity="0.2" d="M40.2176 20.4878H38.1389C38.0692 20.4878 38.0023 20.4601 37.953 20.4108C37.9037 20.3615 37.876 20.2946 37.876 20.2248C37.876 20.1551 37.9037 20.0882 37.953 20.0389C38.0023 19.9896 38.0692 19.9619 38.1389 19.9619H40.2176C40.2521 19.9619 40.2863 19.9687 40.3182 19.9819C40.3501 19.9951 40.3791 20.0145 40.4035 20.0389C40.4279 20.0633 40.4473 20.0923 40.4605 20.1242C40.4737 20.1561 40.4805 20.1903 40.4805 20.2248C40.4805 20.2594 40.4737 20.2936 40.4605 20.3255C40.4473 20.3574 40.4279 20.3864 40.4035 20.4108C40.3791 20.4352 40.3501 20.4546 40.3182 20.4678C40.2863 20.481 40.2521 20.4878 40.2176 20.4878Z" fill="white"/>
<path d="M17.9322 25.2219C17.9322 25.2219 11.88 24.7679 11.2233 25.0191C10.5665 25.2702 10.1621 27.4951 10.1621 27.4951L19.2409 28.706L17.9322 25.2219Z" fill="white"/>
<path d="M32.2492 25.2219C32.2492 25.2219 38.3025 24.7679 38.9581 25.0191C39.6137 25.2702 40.0193 27.4951 40.0193 27.4951L30.9404 28.706L32.2492 25.2219Z" fill="white"/>
<path d="M19.2198 19.2732C19.3342 19.3393 19.4639 19.374 19.5959 19.374C19.728 19.374 19.8577 19.3393 19.9721 19.2732C20.0236 19.2451 20.0674 19.2046 20.0994 19.1553C20.1355 19.0782 20.1474 18.9918 20.1336 18.9077C20.137 18.8215 20.1075 18.7372 20.0511 18.6719C19.9983 18.6305 19.9358 18.6033 19.8695 18.5929C19.6664 18.5454 19.4566 18.533 19.2493 18.5564C19.1562 18.5596 19.0662 18.5908 18.9911 18.646C18.9674 18.676 18.951 18.7111 18.943 18.7485C18.935 18.7859 18.9357 18.8247 18.9451 18.8618C18.9571 18.9466 18.988 19.0276 19.0355 19.0988C19.0831 19.1701 19.1461 19.2297 19.2198 19.2732Z" fill="url(#paint7_linear)"/>
<path d="M20.8606 16.9812C20.8443 17.0141 20.8205 17.0428 20.7911 17.0649C20.7583 16.949 20.7145 16.8364 20.6602 16.7289L20.3643 16.0898C20.4225 16.0592 20.4855 16.0385 20.5506 16.0285C20.6381 16.014 20.7278 16.0343 20.8005 16.0851C20.8499 16.1277 20.8849 16.1845 20.9007 16.2478C20.9263 16.3479 20.9386 16.451 20.9373 16.5544C20.9543 16.7011 20.9276 16.8495 20.8606 16.9812Z" fill="url(#paint8_linear)"/>
<path d="M20.7173 15.9977C20.6042 16.0397 20.4986 16.0998 20.4048 16.1757C20.3907 16.1474 20.3777 16.1179 20.3648 16.0896C20.3648 16.0896 20.3648 16.0896 20.3648 16.0979C20.3509 16.1111 20.3338 16.1204 20.3152 16.125C20.1996 16.1632 20.0814 16.1932 19.9615 16.2146C19.8039 16.2337 19.6441 16.2242 19.4899 16.1863C19.359 16.1533 19.2246 16.0554 19.0855 16.0602H19.0654C19.0654 16.0413 19.0808 16.0213 19.0878 16C19.155 15.8102 19.1998 15.6463 19.4486 15.5874C19.5951 15.5559 19.7477 15.5682 19.8872 15.6227C20.0147 15.686 20.1487 15.7351 20.2869 15.7689C20.3729 15.7712 20.4585 15.7806 20.5428 15.7972C20.5876 15.8112 20.6276 15.8374 20.6584 15.8728C20.6892 15.9081 20.7096 15.9514 20.7173 15.9977Z" fill="url(#paint9_linear)"/>
<path d="M18.3672 14.5771L23.179 20.2614L28.1888 20.2272L23.8852 14.6785L18.3672 14.5771Z" fill="url(#paint10_linear)"/>
<defs>
<linearGradient id="paint0_linear" x1="65.5123" y1="54.8425" x2="5.41561" y2="20.9936" gradientUnits="userSpaceOnUse">
<stop offset="0.079127"/>
<stop offset="0.83" stop-opacity="0.07"/>
<stop offset="1" stop-opacity="0"/>
</linearGradient>
<linearGradient id="paint1_linear" x1="25.0002" y1="14.3997" x2="24.3249" y2="35.1386" gradientUnits="userSpaceOnUse">
<stop offset="0.01"/>
<stop offset="0.83" stop-opacity="0.07"/>
<stop offset="1" stop-opacity="0"/>
</linearGradient>
<linearGradient id="paint2_linear" x1="5165.08" y1="298.99" x2="5130.3" y2="2366.57" gradientUnits="userSpaceOnUse">
<stop offset="0.01"/>
<stop offset="0.83" stop-opacity="0.07"/>
<stop offset="1" stop-opacity="0"/>
</linearGradient>
<linearGradient id="paint3_linear" x1="27.1998" y1="0.600009" x2="23.5931" y2="18.2869" gradientUnits="userSpaceOnUse">
<stop stop-opacity="0"/>
<stop offset="0.01"/>
<stop offset="0.83" stop-opacity="0.07"/>
</linearGradient>
<linearGradient id="paint4_linear" x1="23.8446" y1="20.4838" x2="24.2688" y2="44.7291" gradientUnits="userSpaceOnUse">
<stop offset="0.01"/>
<stop offset="0.83" stop-opacity="0.07"/>
<stop offset="1" stop-opacity="0"/>
</linearGradient>
<linearGradient id="paint5_linear" x1="2483.47" y1="481.215" x2="2485.84" y2="706.027" gradientUnits="userSpaceOnUse">
<stop offset="0.01"/>
<stop offset="0.83" stop-opacity="0.07"/>
<stop offset="1" stop-opacity="0"/>
</linearGradient>
<linearGradient id="paint6_linear" x1="27.1" y1="5.0999" x2="23.3691" y2="30.4239" gradientUnits="userSpaceOnUse">
<stop offset="0.01"/>
<stop offset="0.83" stop-opacity="0.07"/>
<stop offset="1" stop-opacity="0"/>
</linearGradient>
<linearGradient id="paint7_linear" x1="222.747" y1="124.58" x2="222.132" y2="135.975" gradientUnits="userSpaceOnUse">
<stop offset="0.01"/>
<stop offset="0.83" stop-opacity="0.07"/>
<stop offset="1" stop-opacity="0"/>
</linearGradient>
<linearGradient id="paint8_linear" x1="128.84" y1="136.069" x2="120.734" y2="136.657" gradientUnits="userSpaceOnUse">
<stop offset="0.01"/>
<stop offset="0.83" stop-opacity="0.07"/>
<stop offset="1" stop-opacity="0"/>
</linearGradient>
<linearGradient id="paint9_linear" x1="301.535" y1="94.0754" x2="301.909" y2="85.6825" gradientUnits="userSpaceOnUse">
<stop offset="0.01"/>
<stop offset="0.83" stop-opacity="0.07"/>
<stop offset="1" stop-opacity="0"/>
</linearGradient>
<linearGradient id="paint10_linear" x1="23.7697" y1="10.2559" x2="21.4068" y2="44.6351" gradientUnits="userSpaceOnUse">
<stop offset="0.02" stop-color="white" stop-opacity="0"/>
<stop offset="0.39" stop-color="white" stop-opacity="0.39"/>
<stop offset="1" stop-color="white"/>
</linearGradient>
</defs>
</svg>
