<svg width="64" height="64" viewBox="0 0 64 64" fill="none" xmlns="http://www.w3.org/2000/svg">
<path opacity="0.18" d="M63.8021 49.4712C63.6316 51.3815 63.3286 53.3526 62.41 54.8719C61.5877 56.2454 60.3582 57.1003 59.1366 57.8458C51.1378 62.6895 42.0909 63.9232 33.2524 63.9961C26.4436 64.0569 19.4644 63.433 13.2301 59.9182C7.20885 56.525 1.94679 49.9918 0.463187 41.8116C0.409525 41.524 0.363754 41.2343 0.319562 40.9406C-0.0655444 38.2928 -0.0513396 35.554 0.0954425 32.8556C0.377959 27.6655 1.22709 22.2749 3.81077 18.2577C6.09142 14.7065 9.43426 12.6463 12.4741 10.193C15.0988 8.07405 17.5515 5.59447 20.2993 3.75303C23.9294 1.32207 27.9872 0.130903 32.0655 0.00732991C39.1237 -0.19525 45.0487 3.85634 51.8101 5.33315C58.892 6.87478 59.0703 13.5376 59.7553 21.4727C60.0962 25.3905 61.5088 29.0005 62.47 32.7462C63.8492 38.1325 64.3036 43.8381 63.8021 49.4712Z" fill="#6E71FF"/>
<path opacity="0.37" d="M64 46.2952C64 48.4 63.7176 52.803 62.8 54.4667C61.6 56.9429 60.1333 57.3143 58.9333 58.181C50.1333 63.2571 41.5888 63.9158 32.752 63.9955C25.9506 64.0642 18.9805 63.3797 12.753 59.5361C3.73695 53.9714 1.48199 48.6854 0 39.7333H63.6C63.7333 41.4667 64 43.6952 64 46.2952Z" fill="#6E71FF"/>
<path d="M9.99017 46.8207C9.51854 47.3332 9.04692 47.8819 9.04692 48.484C9.03749 49.5845 10.5671 50.3957 12.0779 50.8013C14.0776 51.3374 16.2581 51.4663 18.4056 51.5716C26.7376 51.9851 35.1043 52.1486 43.4631 52.3121C46.8793 52.3797 50.3363 52.4425 53.6707 51.9426C54.9126 51.7555 56.2694 51.4128 56.7834 50.6283C57.4248 49.6474 56.4376 48.4274 57.1073 47.4574C57.461 46.9449 58.2345 46.5786 58.4404 46.03C58.6841 45.376 57.9845 44.6953 57.09 44.3934C56.1955 44.0916 55.1532 44.079 54.1517 44.0649C46.9002 43.9946 39.6476 43.9422 32.394 43.9077L17.8239 43.8228C16.3147 43.8149 13.0117 43.3511 11.7226 43.9658C10.6677 44.4626 10.7086 46.0347 9.99017 46.8207Z" fill="url(#paint0_linear)"/>
<path d="M12.5654 42.9907H19.6524V49.0983C19.6524 49.312 19.6103 49.5236 19.5286 49.721C19.4468 49.9184 19.3269 50.0978 19.1758 50.2488C19.0247 50.3999 18.8454 50.5198 18.648 50.6016C18.4506 50.6833 18.239 50.7254 18.0253 50.7254H14.1925C13.9789 50.7254 13.7673 50.6833 13.5699 50.6016C13.3725 50.5198 13.1931 50.3999 13.042 50.2488C12.8909 50.0978 12.7711 49.9184 12.6893 49.721C12.6075 49.5236 12.5654 49.312 12.5654 49.0983V42.9907Z" fill="#090909"/>
<path d="M47.2344 42.9907H54.3229V49.0983C54.3229 49.312 54.2808 49.5236 54.1991 49.721C54.1173 49.9184 53.9974 50.0978 53.8464 50.2488C53.6953 50.3999 53.5159 50.5198 53.3185 50.6016C53.1211 50.6833 52.9095 50.7254 52.6958 50.7254H48.8615C48.6478 50.7254 48.4362 50.6833 48.2388 50.6016C48.0414 50.5198 47.862 50.3999 47.7109 50.2488C47.5599 50.0978 47.44 49.9184 47.3582 49.721C47.2765 49.5236 47.2344 49.312 47.2344 49.0983V42.9907Z" fill="#090909"/>
<path d="M13.5496 29.0181H16.9123V26.1883H13.5496C13.1744 26.1883 12.8145 26.3374 12.5492 26.6027C12.2838 26.868 12.1348 27.2279 12.1348 27.6032C12.1348 27.9784 12.2838 28.3383 12.5492 28.6036C12.8145 28.869 13.1744 29.0181 13.5496 29.0181Z" fill="#6E71FF"/>
<path d="M53.2133 29.0181H49.8506V26.1883H53.2133C53.5885 26.1883 53.9484 26.3374 54.2138 26.6027C54.4791 26.868 54.6282 27.2279 54.6282 27.6032C54.6282 27.9784 54.4791 28.3383 54.2138 28.6036C53.9484 28.869 53.5885 29.0181 53.2133 29.0181Z" fill="#6E71FF"/>
<path d="M13.6718 31.8856C12.9432 33.7788 12.5702 35.7902 12.5713 37.8187L21.7995 42.4359L44.1467 42.4799L54.3292 37.8187C54.3295 35.7902 53.9565 33.779 53.2287 31.8856H13.6718Z" fill="#6E71FF"/>
<path d="M13.6718 31.8856C12.9432 33.7788 12.5702 35.7902 12.5713 37.8187L21.7995 42.4359L44.1467 42.4799L54.3292 37.8187C54.3295 35.7902 53.9565 33.779 53.2287 31.8856H13.6718Z" fill="url(#paint1_linear)"/>
<path d="M42.0106 18.4081H24.933C23.3691 18.4081 21.844 18.8948 20.5693 19.8007C19.2945 20.7067 18.3334 21.987 17.8193 23.464L16.5742 27.0374H50.3742L49.1275 23.464C48.6134 21.9864 47.6519 20.7056 46.3765 19.7995C45.1011 18.8935 43.5751 18.4072 42.0106 18.4081Z" fill="#6E71FF"/>
<path d="M48.7407 27.0371H17.6982L18.9559 23.3757C19.3535 22.2247 20.1004 21.2266 21.0924 20.5203C22.0843 19.8141 23.272 19.4351 24.4897 19.436H42.1804C43.4572 19.436 44.6989 19.8537 45.716 20.6256C46.7331 21.3974 47.4696 22.4809 47.8132 23.7106L48.7407 27.0371Z" fill="url(#paint2_linear)"/>
<path d="M13.6719 31.8857C26.6531 33.5209 39.7871 33.5394 52.7729 31.9408L53.2162 31.8857C52.5778 30.2272 51.6753 28.6828 50.5437 27.3125L50.3126 27.0327H16.574L16.3413 27.3125C15.2112 28.6834 14.3098 30.2276 13.6719 31.8857Z" fill="#6E71FF"/>
<path d="M13.6719 31.8857C26.6531 33.5209 39.7871 33.5394 52.7729 31.9408L53.2162 31.8857C52.5778 30.2272 51.6753 28.6828 50.5437 27.3125L50.3126 27.0327H16.574L16.3413 27.3125C15.2112 28.6834 14.3098 30.2276 13.6719 31.8857Z" fill="url(#paint3_linear)"/>
<path d="M54.6046 41.0181L54.3232 37.8236H53.8736L49.6809 39.0404C46.6098 39.9331 43.4277 40.3862 40.2294 40.3861H26.2096C23.0113 40.3862 19.8292 39.9331 16.7581 39.0404L12.5654 37.8236L12.284 41.0181C12.2166 41.7854 12.3096 42.5584 12.557 43.2878C12.8044 44.0173 13.2008 44.6873 13.7211 45.2553C14.2414 45.8233 14.8741 46.2769 15.5791 46.5873C16.2841 46.8976 17.0459 47.058 17.8162 47.0581H49.0725C49.8427 47.058 50.6046 46.8976 51.3095 46.5873C52.0145 46.2769 52.6473 45.8233 53.1675 45.2553C53.6878 44.6873 54.0842 44.0173 54.3316 43.2878C54.579 42.5584 54.672 41.7854 54.6046 41.0181Z" fill="#6E71FF"/>
<path d="M54.6046 41.0181L54.3232 37.8236H53.8736L49.6808 39.0404C46.6097 39.9331 43.4277 40.3862 40.2294 40.3861H26.2096C23.0113 40.3862 19.8292 39.9331 16.7581 39.0404L12.5654 37.8236L12.284 41.0181C12.2166 41.7854 12.3096 42.5584 12.557 43.2878C12.8044 44.0173 13.2008 44.6873 13.7211 45.2553C14.2414 45.8233 14.8741 46.2769 15.5791 46.5873C16.2841 46.8976 17.0459 47.058 17.8162 47.0581H49.0724C49.8427 47.058 50.6046 46.8976 51.3095 46.5873C52.0145 46.2769 52.6473 45.8233 53.1675 45.2553C53.6878 44.6873 54.0842 44.0173 54.3316 43.2878C54.579 42.5584 54.672 41.7854 54.6046 41.0181Z" fill="url(#paint4_linear)"/>
<path d="M33.4442 33.5927H25.0791L26.7471 38.397H33.4442H40.1397L41.8093 33.5927H33.4442Z" fill="white"/>
<path d="M33.4444 33.9734H25.6924L27.2377 38.0168H33.4444H39.651L41.1963 33.9734H33.4444Z" fill="#6E71FF"/>
<path d="M33.4444 33.9734H25.6924L27.2377 38.0168H33.4444H39.651L41.1963 33.9734H33.4444Z" fill="url(#paint5_linear)"/>
<path d="M41.1335 34.4355H25.6924V34.9417H41.1335V34.4355Z" fill="white"/>
<path d="M40.7028 35.7418H26.1924V36.248H40.7028V35.7418Z" fill="white"/>
<path d="M40.1523 37.0485H26.5459V37.5547H40.1523V37.0485Z" fill="white"/>
<path d="M45.666 45.8032H21.2295C21.2295 44.25 23.3424 42.9907 25.9458 42.9907H40.9419C43.5484 42.9907 45.6582 44.2484 45.6582 45.8032H45.666Z" fill="#090909"/>
<path d="M42.5793 32.8636L48.7403 27.0374H17.6963L24.2519 32.8541C30.3557 33.2118 36.4751 33.2149 42.5793 32.8636Z" fill="#6E71FF"/>
<path d="M42.5793 32.8636L48.7403 27.0374H17.6963L24.2519 32.8541C30.3557 33.2118 36.4751 33.2149 42.5793 32.8636Z" fill="url(#paint6_linear)"/>
<path opacity="0.2" d="M15.9903 27.3172H13.2187C13.1258 27.3172 13.0366 27.2803 12.9708 27.2145C12.9051 27.1488 12.8682 27.0596 12.8682 26.9666C12.8682 26.8736 12.9051 26.7845 12.9708 26.7187C13.0366 26.653 13.1258 26.616 13.2187 26.616H15.9903C16.0833 26.616 16.1725 26.653 16.2382 26.7187C16.304 26.7845 16.3409 26.8736 16.3409 26.9666C16.3409 27.0596 16.304 27.1488 16.2382 27.2145C16.1725 27.2803 16.0833 27.3172 15.9903 27.3172Z" fill="white"/>
<path opacity="0.2" d="M53.6232 27.3172H50.8516C50.7586 27.3172 50.6694 27.2803 50.6037 27.2145C50.5379 27.1488 50.501 27.0596 50.501 26.9666C50.501 26.8736 50.5379 26.7845 50.6037 26.7187C50.6694 26.653 50.7586 26.616 50.8516 26.616H53.6232C53.6692 26.616 53.7148 26.6251 53.7573 26.6427C53.7998 26.6603 53.8385 26.6862 53.871 26.7187C53.9036 26.7513 53.9294 26.7899 53.947 26.8324C53.9647 26.875 53.9737 26.9206 53.9737 26.9666C53.9737 27.0126 53.9647 27.0582 53.947 27.1008C53.9294 27.1433 53.9036 27.182 53.871 27.2145C53.8385 27.2471 53.7998 27.2729 53.7573 27.2905C53.7148 27.3081 53.6692 27.3172 53.6232 27.3172Z" fill="white"/>
<path d="M23.9089 33.6291C23.9089 33.6291 15.8394 33.0238 14.9637 33.3587C14.0881 33.6935 13.5488 36.6601 13.5488 36.6601L25.6539 38.2746L23.9089 33.6291Z" fill="white"/>
<path d="M42.9989 33.6291C42.9989 33.6291 51.07 33.0238 51.9441 33.3587C52.8182 33.6935 53.359 36.6601 53.359 36.6601L41.2539 38.2746L42.9989 33.6291Z" fill="white"/>
<path d="M25.6264 25.6979C25.7789 25.7859 25.9518 25.8323 26.1279 25.8323C26.304 25.8323 26.4769 25.7859 26.6294 25.6979C26.6982 25.6604 26.7565 25.6064 26.7992 25.5407C26.8474 25.4378 26.8633 25.3227 26.8448 25.2106C26.8494 25.0956 26.81 24.9832 26.7347 24.8961C26.6644 24.8409 26.581 24.8046 26.4926 24.7908C26.2218 24.7275 25.9421 24.711 25.6657 24.7421C25.5416 24.7464 25.4216 24.788 25.3214 24.8616C25.2899 24.9016 25.268 24.9484 25.2573 24.9983C25.2467 25.0482 25.2476 25.0998 25.2601 25.1492C25.2761 25.2623 25.3173 25.3704 25.3807 25.4653C25.4441 25.5603 25.5281 25.6398 25.6264 25.6979Z" fill="url(#paint7_linear)"/>
<path d="M27.8142 22.6414C27.7924 22.6853 27.7606 22.7236 27.7214 22.753C27.6777 22.5984 27.6193 22.4484 27.5469 22.305L27.1523 21.4529C27.2301 21.4121 27.314 21.3845 27.4007 21.3712C27.5174 21.3518 27.637 21.3789 27.734 21.4466C27.7999 21.5034 27.8466 21.5792 27.8677 21.6636C27.9017 21.7971 27.9181 21.9345 27.9164 22.0723C27.939 22.2679 27.9035 22.4659 27.8142 22.6414Z" fill="url(#paint8_linear)"/>
<path d="M27.6234 21.3303C27.4726 21.3863 27.3319 21.4665 27.2068 21.5677C27.1879 21.53 27.1706 21.4907 27.1533 21.4529C27.1533 21.4529 27.1533 21.4529 27.1533 21.4639C27.1348 21.4815 27.1121 21.4939 27.0873 21.5001C26.9331 21.5511 26.7755 21.591 26.6157 21.6196C26.4055 21.6451 26.1925 21.6323 25.9868 21.5818C25.8123 21.5378 25.6331 21.4073 25.4476 21.4136H25.4209C25.4209 21.3885 25.4413 21.3618 25.4508 21.3335C25.5404 21.0804 25.6001 20.8618 25.9318 20.7832C26.1272 20.7413 26.3305 20.7577 26.5166 20.8304C26.6866 20.9148 26.8653 20.9802 27.0496 21.0253C27.1641 21.0283 27.2783 21.0409 27.3907 21.0631C27.4504 21.0817 27.5038 21.1166 27.5449 21.1638C27.586 21.2109 27.6131 21.2686 27.6234 21.3303Z" fill="url(#paint9_linear)"/>
<path d="M24.4893 19.436L30.905 27.0151L37.5848 26.9695L31.8466 19.5712L24.4893 19.436Z" fill="url(#paint10_linear)"/>
<defs>
<linearGradient id="paint0_linear" x1="87.3497" y1="73.1232" x2="7.22081" y2="27.9914" gradientUnits="userSpaceOnUse">
<stop offset="0.079127"/>
<stop offset="0.83" stop-opacity="0.07"/>
<stop offset="1" stop-opacity="0"/>
</linearGradient>
<linearGradient id="paint1_linear" x1="33.3333" y1="19.1998" x2="32.4329" y2="46.8517" gradientUnits="userSpaceOnUse">
<stop offset="0.01"/>
<stop offset="0.83" stop-opacity="0.07"/>
<stop offset="1" stop-opacity="0"/>
</linearGradient>
<linearGradient id="paint2_linear" x1="6886.78" y1="398.653" x2="6840.4" y2="3155.42" gradientUnits="userSpaceOnUse">
<stop offset="0.01"/>
<stop offset="0.83" stop-opacity="0.07"/>
<stop offset="1" stop-opacity="0"/>
</linearGradient>
<linearGradient id="paint3_linear" x1="36.2664" y1="0.800182" x2="31.4575" y2="24.3827" gradientUnits="userSpaceOnUse">
<stop stop-opacity="0"/>
<stop offset="0.01"/>
<stop offset="0.83" stop-opacity="0.07"/>
</linearGradient>
<linearGradient id="paint4_linear" x1="31.7924" y1="27.3117" x2="32.3581" y2="59.6389" gradientUnits="userSpaceOnUse">
<stop offset="0.01"/>
<stop offset="0.83" stop-opacity="0.07"/>
<stop offset="1" stop-opacity="0"/>
</linearGradient>
<linearGradient id="paint5_linear" x1="3311.29" y1="641.619" x2="3314.45" y2="941.369" gradientUnits="userSpaceOnUse">
<stop offset="0.01"/>
<stop offset="0.83" stop-opacity="0.07"/>
<stop offset="1" stop-opacity="0"/>
</linearGradient>
<linearGradient id="paint6_linear" x1="36.133" y1="6.80018" x2="31.1585" y2="40.5655" gradientUnits="userSpaceOnUse">
<stop offset="0.01"/>
<stop offset="0.83" stop-opacity="0.07"/>
<stop offset="1" stop-opacity="0"/>
</linearGradient>
<linearGradient id="paint7_linear" x1="296.995" y1="166.106" x2="296.177" y2="181.3" gradientUnits="userSpaceOnUse">
<stop offset="0.01"/>
<stop offset="0.83" stop-opacity="0.07"/>
<stop offset="1" stop-opacity="0"/>
</linearGradient>
<linearGradient id="paint8_linear" x1="171.786" y1="181.425" x2="160.979" y2="182.209" gradientUnits="userSpaceOnUse">
<stop offset="0.01"/>
<stop offset="0.83" stop-opacity="0.07"/>
<stop offset="1" stop-opacity="0"/>
</linearGradient>
<linearGradient id="paint9_linear" x1="402.046" y1="125.434" x2="402.545" y2="114.243" gradientUnits="userSpaceOnUse">
<stop offset="0.01"/>
<stop offset="0.83" stop-opacity="0.07"/>
<stop offset="1" stop-opacity="0"/>
</linearGradient>
<linearGradient id="paint10_linear" x1="31.6926" y1="13.6743" x2="28.5421" y2="59.5133" gradientUnits="userSpaceOnUse">
<stop offset="0.02" stop-color="white" stop-opacity="0"/>
<stop offset="0.39" stop-color="white" stop-opacity="0.39"/>
<stop offset="1" stop-color="white"/>
</linearGradient>
</defs>
</svg>
