<svg viewBox="0 0 24 24" fill="none" xmlns="http://www.w3.org/2000/svg">
<path fill-rule="evenodd" clip-rule="evenodd" d="M5.63593 5.63604C5.99517 5.2768 6.57761 5.2768 6.93685 5.63604L11.9999 10.6991L17.0629 5.63604C17.4222 5.2768 18.0046 5.2768 18.3639 5.63604C18.7231 5.99528 18.7231 6.57772 18.3639 6.93696L13.3008 12L18.3639 17.063C18.7231 17.4223 18.7231 18.0047 18.3639 18.364C18.0046 18.7232 17.4222 18.7232 17.0629 18.364L11.9999 13.3009L6.93685 18.364C6.57761 18.7232 5.99517 18.7232 5.63593 18.364C5.27669 18.0047 5.27669 17.4223 5.63593 17.063L10.699 12L5.63593 6.93696C5.27669 6.57772 5.27669 5.99528 5.63593 5.63604Z" fill="#111111"/>
</svg>
