<svg width="48" height="48" viewBox="0 0 48 48" fill="none" xmlns="http://www.w3.org/2000/svg">
<g clip-path="url(#clip0)">
<path opacity="0.24" d="M44.3115 41.1985C43.7509 41.628 43.1386 41.9788 42.4905 42.242C41.3687 42.6963 40.1737 42.8996 39.0224 43.2497C38.5113 43.4035 38.0098 43.59 37.5177 43.7933C34.5378 45.0183 31.803 46.9614 28.6682 47.6706C22.8595 48.9948 17.2454 45.9844 11.6932 44.7078C6.93595 43.6167 3.06977 46.2254 1.14903 38.3319C0.346344 35.0458 -0.647273 31.5663 0.567676 28.413C1.78262 25.2598 3.49343 22.3476 4.65234 19.1785C6.3071 14.6525 6.9198 9.43818 10.1761 5.98442C12.4312 3.59297 15.6543 2.43841 18.847 2.02876C22.0397 1.61911 25.2723 1.88196 28.4868 1.89585C32.3587 1.90874 36.4832 1.62506 39.8317 3.66042C41.0127 4.38949 42.0305 5.37397 42.817 6.54776C43.6034 7.72155 44.1402 9.05746 44.3913 10.4658C45.0563 14.353 43.4775 18.383 44.1871 22.2633C44.8454 25.8758 47.4168 28.8991 47.9193 32.5413C48.3753 35.8205 46.8611 39.2604 44.3115 41.1985Z" fill="#6E71FF"/>
<path d="M38.0046 8.3218V38.9207C38.0049 39.3056 37.9293 39.6869 37.7822 40.0426C37.6351 40.3984 37.4194 40.7217 37.1474 40.9941C36.8753 41.2664 36.5523 41.4826 36.1967 41.6301C35.8412 41.7777 35.46 41.8538 35.0751 41.854H15.7499C15.3649 41.8539 14.9837 41.7779 14.628 41.6304C14.2724 41.4829 13.9494 41.2668 13.6773 40.9943C13.4052 40.7219 13.1895 40.3986 13.0425 40.0428C12.8954 39.687 12.8199 39.3057 12.8203 38.9207V8.3218C12.8203 7.54483 13.129 6.79969 13.6784 6.25029C14.2278 5.70089 14.9729 5.39224 15.7499 5.39224H35.0751C35.8519 5.39275 36.5967 5.70156 37.146 6.25085C37.6953 6.80014 38.0041 7.54499 38.0046 8.3218Z" fill="#6E71FF"/>
<path d="M17.5728 25.9143C16.9915 27.3392 15.729 28.3034 14.6366 29.3227C14.0743 29.847 13.6401 30.4322 13.1386 31.0002C13.0475 31.0984 12.9406 31.1806 12.8223 31.2434V25.4223C12.9777 24.9283 13.0774 24.4185 13.1196 23.9024C13.3096 24.5284 13.2241 25.2921 13.7066 25.7367C14.0173 26.0274 14.4742 26.0787 14.8988 26.0977C15.7942 26.1341 16.6908 26.0726 17.5728 25.9143Z" fill="url(#paint0_linear)"/>
<path d="M35.4001 8.00177H14.9492V38.6481H35.4001V8.00177Z" fill="url(#paint1_linear)"/>
<path d="M35.6981 7.75958V38.3176H17.8092C17.8092 38.3176 15.3299 37.7961 15.1988 33.6174C15.0677 29.4387 15.3299 7.75958 15.3299 7.75958H35.6981Z" fill="white"/>
<path d="M34.5738 24.293C34.6944 24.7119 34.7068 25.1774 34.9538 25.5355C35.291 26.0181 35.954 26.1463 36.543 26.115C36.6206 26.1142 36.6974 26.0997 36.77 26.0722C36.8512 26.0298 36.9204 25.9678 36.9714 25.8917C37.3333 25.4054 37.3267 24.7271 37.1481 24.1477C36.9004 23.354 36.3763 22.6755 35.6709 22.2355C35.2853 21.9961 33.6153 21.2951 33.4358 21.9505C33.2848 22.5148 34.4095 23.7231 34.5738 24.293Z" fill="#F5C7C8"/>
<path d="M34.5738 24.293C34.6944 24.7119 34.7068 25.1774 34.9538 25.5355C35.291 26.0181 35.954 26.1463 36.543 26.115C36.6206 26.1142 36.6974 26.0997 36.77 26.0722C36.8512 26.0298 36.9204 25.9678 36.9714 25.8917C37.3333 25.4054 37.3267 24.7271 37.1481 24.1477C36.9004 23.354 36.3763 22.6755 35.6709 22.2355C35.2853 21.9961 33.6153 21.2951 33.4358 21.9505C33.2848 22.5148 34.4095 23.7231 34.5738 24.293Z" fill="url(#paint2_linear)"/>
<path d="M35.2509 41.6099C35.1863 38.6176 35.1112 35.5608 34.0863 32.7481C33.504 31.1494 32.6253 29.6627 32.1503 28.0289C31.7761 26.7417 31.8654 25.3748 31.8768 24.0335C31.8825 23.323 31.8872 22.5972 31.6668 21.9218C31.4768 21.3319 31.113 20.7914 31.0342 20.1759C31.8644 20.781 32.744 21.4535 33.0452 22.4357C33.1915 22.9107 33.1858 23.4218 33.2646 23.9138C33.5192 25.5059 34.6287 26.8025 35.419 28.2075C37.1555 31.2966 37.3721 34.9918 37.355 38.535C37.355 39.3025 37.3322 40.0995 36.9949 40.7901C36.6577 41.4807 36.007 41.7486 35.2509 41.6099Z" fill="url(#paint3_linear)"/>
<path d="M17.1347 28.1274C15.6814 29.7508 13.43 30.5459 12.1286 32.2937C10.9659 33.8497 10.7484 35.8911 10.1604 37.7444C9.50876 39.7991 8.38406 41.6647 7.266 43.5085C7.11876 43.7507 6.95537 44.0063 6.69035 44.1117C6.46046 44.2067 6.20209 44.1602 5.96176 44.1117C4.15026 43.7317 2.16682 42.7761 1.76025 40.9684C1.50093 39.8114 1.97589 38.6174 2.53729 37.5725C4.48558 33.9333 7.55667 30.9173 9.04805 27.0673C10.0227 24.5528 10.5242 21.7021 12.918 20.1082C12.9161 20.1242 12.9161 20.1405 12.918 20.1566C12.8002 21.1531 13.013 23.3037 12.8544 24.834C12.8497 24.8896 12.8529 24.9456 12.8639 25.0002C12.9313 25.3071 13.1964 25.6937 13.3179 25.9264C13.6884 26.6199 14.7105 26.4669 15.4553 26.2114C16.2 25.9559 17.2155 25.7858 17.5992 26.4764C17.889 27.0093 17.5413 27.6705 17.1347 28.1274Z" fill="#F5C7C8"/>
<path d="M19.3266 38.2881C19.3144 38.2973 19.3026 38.3071 19.2915 38.3176H17.8086C17.8086 38.3176 15.3293 37.7961 15.1982 33.6174C15.1982 33.6174 16.0902 36.4291 19.1471 35.8278C19.1471 35.8278 17.5275 38.4677 19.3266 38.2881Z" fill="white"/>
<path d="M19.3266 38.2881C19.3144 38.2973 19.3026 38.3071 19.2915 38.3176H17.8086C17.8086 38.3176 15.3293 37.7961 15.1982 33.6174C15.1982 33.6174 16.0902 36.4291 19.1471 35.8278C19.1471 35.8278 17.5275 38.4677 19.3266 38.2881Z" fill="url(#paint4_linear)"/>
<path d="M33.1511 15.8283H18.5774C18.4284 15.8283 18.3076 15.9491 18.3076 16.0981C18.3076 16.2471 18.4284 16.3679 18.5774 16.3679H33.1511C33.3001 16.3679 33.4209 16.2471 33.4209 16.0981C33.4209 15.9491 33.3001 15.8283 33.1511 15.8283Z" fill="url(#paint5_linear)"/>
<path d="M33.1511 17.4468H18.5774C18.4284 17.4468 18.3076 17.5676 18.3076 17.7166C18.3076 17.8656 18.4284 17.9864 18.5774 17.9864H33.1511C33.3001 17.9864 33.4209 17.8656 33.4209 17.7166C33.4209 17.5676 33.3001 17.4468 33.1511 17.4468Z" fill="url(#paint6_linear)"/>
<path d="M33.1511 19.0666H18.5774C18.4284 19.0666 18.3076 19.1874 18.3076 19.3364C18.3076 19.4854 18.4284 19.6061 18.5774 19.6061H33.1511C33.3001 19.6061 33.4209 19.4854 33.4209 19.3364C33.4209 19.1874 33.3001 19.0666 33.1511 19.0666Z" fill="url(#paint7_linear)"/>
<path d="M33.1511 20.6862H18.5774C18.4284 20.6862 18.3076 20.8069 18.3076 20.9559C18.3076 21.1049 18.4284 21.2257 18.5774 21.2257H33.1511C33.3001 21.2257 33.4209 21.1049 33.4209 20.9559C33.4209 20.8069 33.3001 20.6862 33.1511 20.6862Z" fill="url(#paint8_linear)"/>
<path d="M29.9336 6.52676V7.40829C29.9339 7.66346 29.8838 7.91618 29.7863 8.15198C29.6887 8.38778 29.5457 8.60203 29.3652 8.78246C29.1848 8.9629 28.9705 9.10598 28.7347 9.20351C28.4989 9.30105 28.2462 9.35113 27.9911 9.35088H22.7931C22.5378 9.35113 22.2849 9.30107 22.049 9.20357C21.813 9.10607 21.5986 8.96303 21.4179 8.78263C21.2372 8.60223 21.0939 8.38801 20.9961 8.15219C20.8982 7.91638 20.8478 7.66359 20.8477 7.40829V6.52676C20.8482 6.01121 21.0534 5.51697 21.4182 5.15269C21.783 4.78841 22.2775 4.58392 22.7931 4.58417H27.9911C28.2462 4.58404 28.4989 4.6342 28.7346 4.73178C28.9703 4.82936 29.1845 4.97245 29.3649 5.15286C29.5454 5.33327 29.6884 5.54747 29.786 5.78321C29.8836 6.01896 29.9338 6.27162 29.9336 6.52676Z" fill="#6E71FF"/>
<path d="M20.8623 6.5039V7.38638C20.8616 7.64192 20.9113 7.89509 21.0086 8.13138C21.1059 8.36767 21.2488 8.58243 21.4293 8.76335C21.6098 8.94426 21.8242 9.08777 22.0603 9.18565C22.2963 9.28352 22.5494 9.33384 22.8049 9.33372H23.1953C22.9398 9.33384 22.6867 9.28352 22.4507 9.18565C22.2146 9.08777 22.0002 8.94426 21.8197 8.76335C21.6393 8.58243 21.4963 8.36767 21.399 8.13138C21.3017 7.89509 21.252 7.64192 21.2527 7.38638V6.5039C21.2526 6.24876 21.3028 5.9961 21.4003 5.76036C21.4979 5.52461 21.641 5.31041 21.8214 5.13C22.0018 4.94959 22.216 4.80651 22.4518 4.70893C22.6875 4.61135 22.9402 4.56119 23.1953 4.56131H22.8049C22.5498 4.56119 22.2971 4.61135 22.0614 4.70893C21.8256 4.80651 21.6114 4.94959 21.431 5.13C21.2506 5.31041 21.1075 5.52461 21.0099 5.76036C20.9123 5.9961 20.8622 6.24876 20.8623 6.5039Z" fill="url(#paint9_linear)"/>
<path d="M29.9338 6.52676V7.40829C29.9341 7.66346 29.884 7.91618 29.7865 8.15198C29.6889 8.38778 29.5458 8.60203 29.3654 8.78246C29.185 8.9629 28.9707 9.10598 28.7349 9.20351C28.4991 9.30105 28.2464 9.35113 27.9912 9.35088H23.1827C22.9274 9.35113 22.6746 9.30107 22.4386 9.20357C22.2027 9.10607 21.9882 8.96303 21.8076 8.78263C21.6269 8.60223 21.4835 8.38801 21.3857 8.15219C21.2879 7.91638 21.2374 7.66359 21.2373 7.40829V6.52676C21.2378 6.01121 21.443 5.51697 21.8078 5.15269C22.1727 4.78841 22.6672 4.58392 23.1827 4.58417H27.9912C28.2464 4.58404 28.499 4.6342 28.7348 4.73178C28.9705 4.82936 29.1847 4.97245 29.3651 5.15286C29.5455 5.33327 29.6886 5.54747 29.7862 5.78321C29.8838 6.01896 29.934 6.27162 29.9338 6.52676Z" fill="url(#paint10_linear)"/>
<path d="M12.8502 23.2336C12.8455 23.2892 12.8487 23.3452 12.8597 23.3999C12.6773 23.2783 12.4703 22.8822 12.2898 22.4062C12.1786 22.1146 11.8975 20.7059 11.8975 20.3934C11.8975 19.6743 12.3924 19.073 12.9129 18.5562C12.7961 19.5527 13.007 21.7033 12.8502 23.2336Z" fill="url(#paint11_linear)"/>
<path d="M44.3122 41.3314C43.7515 41.7427 43.1393 42.0787 42.4912 42.3307C41.3693 42.7658 40.1743 42.9605 39.023 43.2958C38.5119 43.4431 38.0104 43.6216 37.5183 43.8164C36.9275 39.3147 35.7676 34.8387 33.5562 30.8975C32.9815 29.8687 32.5436 29.0119 32.1665 27.8938C31.7894 26.7757 31.9765 23.7559 32.3451 23.6989C32.972 23.5964 33.3776 24.3278 33.58 24.9291C33.9191 25.9094 34.2259 26.8071 35.1454 27.3989C35.5387 27.6544 36.082 27.8112 36.4554 27.5262C36.6404 27.3668 36.7637 27.1477 36.804 26.9068C36.9702 26.1364 36.6311 25.3157 36.0659 24.7657C35.5007 24.2157 34.7427 23.9108 33.9761 23.7407C33.5353 23.6458 33.0584 23.5812 32.7231 23.28C32.4552 23.0378 32.3213 22.6065 32.5189 22.3064C32.6946 22.0375 33.7395 22.6483 34.053 22.6027C34.7455 22.5077 34.7806 22.37 35.4779 22.3767C36.1751 22.3833 36.8933 22.447 37.5421 22.7148C38.207 22.9998 38.7722 23.4814 39.2994 23.983C40.1173 24.7629 40.8516 24.9994 41.5612 25.8828C42.0086 26.4423 42.4399 27.0294 42.6792 27.7076C43.1077 28.9216 42.8616 30.2572 42.7372 31.5415C42.426 34.8094 42.9367 38.1032 44.2229 41.1234C44.2476 41.1908 44.2837 41.2611 44.3122 41.3314Z" fill="#F5C7C8"/>
<path d="M36.9813 29.3436C37.5512 30.3002 38.2656 31.1589 38.9761 32.0129C39.1756 32.2522 39.4995 32.5144 39.7598 32.3425C39.9583 32.2104 39.9498 31.9188 39.9004 31.6861C39.6885 30.6944 39.1404 29.7995 38.465 29.0406C37.7896 28.2816 36.9936 27.6461 36.2004 27.0134C36.228 27.0353 35.9202 27.4627 36.0494 27.6917C36.2679 28.0697 36.7523 28.9579 36.9813 29.3436Z" fill="url(#paint12_linear)"/>
<path d="M31.1498 22.3502C31.1498 22.3502 36.7496 28.3556 37.8942 29.5477C39.0389 30.7399 39.9841 31.6167 39.9841 31.6167C39.9841 31.6167 41.1088 31.7288 41.1534 31.3469C41.1981 30.965 32.6298 22.6428 31.7749 22.2381L30.9199 21.8334L31.1498 22.3502Z" fill="#6E71FF"/>
<path d="M41.1575 31.3469C41.1357 31.5369 40.845 31.6053 40.56 31.6243C40.3701 31.6354 40.1796 31.6322 39.9901 31.6148C39.9901 31.6148 39.0449 30.7399 37.9003 29.5478C36.7556 28.3556 31.1558 22.3493 31.1558 22.3493L30.9316 21.8315L31.7866 22.2381C32.6339 22.6437 41.2069 30.9631 41.1575 31.3469Z" fill="url(#paint13_linear)"/>
<path d="M40.6626 31.5701L40.56 31.6243C40.3701 31.6354 40.1796 31.6322 39.9901 31.6148C39.9901 31.6148 39.0449 30.7399 37.9003 29.5478C36.7556 28.3556 31.1558 22.3493 31.1558 22.3493L30.9316 21.8315L40.6626 31.5701Z" fill="#6E71FF"/>
<path d="M39.3269 30.6241C39.2613 30.7504 39.1644 30.9176 39.0286 30.8758C38.993 30.8629 38.9606 30.8425 38.9336 30.816L36.8143 28.9921C36.7735 29.3198 37.0699 29.5782 37.3264 29.7863C37.798 30.1658 38.2345 30.587 38.6306 31.0449C38.7417 31.1731 38.8586 31.3109 39.021 31.3641C39.1834 31.4173 39.401 31.3394 39.4266 31.1741C39.4273 31.1391 39.4348 31.1046 39.4485 31.0724C39.4675 31.0466 39.4935 31.0269 39.5235 31.0155L39.8674 30.8473C40.0012 30.791 40.124 30.7116 40.2302 30.6127C40.2827 30.5626 40.3213 30.4998 40.3423 30.4304C40.3633 30.361 40.3659 30.2873 40.3499 30.2166C40.1847 29.6685 39.4418 30.3999 39.3269 30.6241Z" fill="white"/>
<path d="M40.5591 31.747C40.7168 31.8952 40.9029 32.0377 41.1195 32.0472C41.1584 32.0514 41.1977 32.0467 41.2344 32.0334C41.2711 32.02 41.3043 31.9984 41.3313 31.9703C41.3527 31.9386 41.3656 31.9019 41.3686 31.8638C41.3716 31.8256 41.3646 31.7874 41.3484 31.7527C41.3153 31.6835 41.2699 31.6207 41.2145 31.5675L40.9951 31.3281C40.9238 31.2321 40.8241 31.161 40.7101 31.1248C40.5819 31.102 40.2865 31.1999 40.2599 31.35C40.2333 31.5001 40.4736 31.6606 40.5591 31.747Z" fill="white"/>
</g>
<defs>
<linearGradient id="paint0_linear" x1="12.8223" y1="27.5738" x2="17.5728" y2="27.5738" gradientUnits="userSpaceOnUse">
<stop stop-color="#010101" stop-opacity="0"/>
<stop offset="0.95" stop-color="#010101"/>
</linearGradient>
<linearGradient id="paint1_linear" x1="17.3611" y1="50.6285" x2="33.7339" y2="-6.58617" gradientUnits="userSpaceOnUse">
<stop stop-color="#010101" stop-opacity="0"/>
<stop offset="0.47" stop-color="#010101" stop-opacity="0.47"/>
<stop offset="0.95" stop-color="#010101"/>
</linearGradient>
<linearGradient id="paint2_linear" x1="1497.31" y1="1123.57" x2="2058.27" y2="742.454" gradientUnits="userSpaceOnUse">
<stop stop-color="#010101" stop-opacity="0"/>
<stop offset="0.47" stop-color="#010101" stop-opacity="0.47"/>
<stop offset="0.95" stop-color="#010101"/>
</linearGradient>
<linearGradient id="paint3_linear" x1="2279.08" y1="6959.95" x2="4203.93" y2="6653.22" gradientUnits="userSpaceOnUse">
<stop stop-color="#010101" stop-opacity="0"/>
<stop offset="0.47" stop-color="#010101" stop-opacity="0.47"/>
<stop offset="0.95" stop-color="#010101"/>
</linearGradient>
<linearGradient id="paint4_linear" x1="922.943" y1="1656.55" x2="460.27" y2="2158.55" gradientUnits="userSpaceOnUse">
<stop stop-color="#010101" stop-opacity="0"/>
<stop offset="0.95" stop-color="#010101"/>
</linearGradient>
<linearGradient id="paint5_linear" x1="42.9706" y1="15.4661" x2="33.3749" y2="3.33966" gradientUnits="userSpaceOnUse">
<stop offset="0.079127"/>
<stop offset="0.83" stop-opacity="0.07"/>
<stop offset="1" stop-opacity="0"/>
</linearGradient>
<linearGradient id="paint6_linear" x1="42.9706" y1="17.0846" x2="33.375" y2="4.95817" gradientUnits="userSpaceOnUse">
<stop offset="0.079127"/>
<stop offset="0.83" stop-opacity="0.07"/>
<stop offset="1" stop-opacity="0"/>
</linearGradient>
<linearGradient id="paint7_linear" x1="42.9706" y1="18.7044" x2="33.3749" y2="6.5779" gradientUnits="userSpaceOnUse">
<stop offset="0.079127"/>
<stop offset="0.83" stop-opacity="0.07"/>
<stop offset="1" stop-opacity="0"/>
</linearGradient>
<linearGradient id="paint8_linear" x1="42.9706" y1="20.3239" x2="33.3748" y2="8.19744" gradientUnits="userSpaceOnUse">
<stop offset="0.079127"/>
<stop offset="0.83" stop-opacity="0.07"/>
<stop offset="1" stop-opacity="0"/>
</linearGradient>
<linearGradient id="paint9_linear" x1="531.909" y1="276.159" x2="766.438" y2="286.487" gradientUnits="userSpaceOnUse">
<stop stop-color="#010101" stop-opacity="0"/>
<stop offset="0.47" stop-color="#010101" stop-opacity="0.47"/>
<stop offset="0.95" stop-color="#010101"/>
</linearGradient>
<linearGradient id="paint10_linear" x1="25.8948" y1="2.02603" x2="25.3571" y2="10.62" gradientUnits="userSpaceOnUse">
<stop stop-color="white" stop-opacity="0"/>
<stop offset="0.95" stop-color="white"/>
</linearGradient>
<linearGradient id="paint11_linear" x1="144.7" y1="973.578" x2="422.037" y2="999.014" gradientUnits="userSpaceOnUse">
<stop stop-color="#010101" stop-opacity="0"/>
<stop offset="0.95" stop-color="#010101"/>
</linearGradient>
<linearGradient id="paint12_linear" x1="1741.49" y1="1527.48" x2="1264.63" y2="1590.46" gradientUnits="userSpaceOnUse">
<stop stop-color="#010101" stop-opacity="0"/>
<stop offset="0.47" stop-color="#010101" stop-opacity="0.47"/>
<stop offset="0.95" stop-color="#010101"/>
</linearGradient>
<linearGradient id="paint13_linear" x1="4219.24" y1="2361.79" x2="4041.15" y2="2573.24" gradientUnits="userSpaceOnUse">
<stop stop-color="white" stop-opacity="0"/>
<stop offset="0.95" stop-color="white"/>
</linearGradient>
<clipPath id="clip0">
<rect width="48" height="48" fill="white"/>
</clipPath>
</defs>
</svg>
