<svg width="8" height="12" viewBox="0 0 8 12" fill="none" xmlns="http://www.w3.org/2000/svg">
<path fill-rule="evenodd" clip-rule="evenodd" d="M2.00008 0.666992C1.26675 0.666992 0.666748 1.26699 0.666748 2.00033C0.666748 2.73366 1.26675 3.33366 2.00008 3.33366C2.73341 3.33366 3.33342 2.73366 3.33342 2.00033C3.33342 1.26699 2.73341 0.666992 2.00008 0.666992ZM0.666748 6.00033C0.666748 5.26699 1.26675 4.66699 2.00008 4.66699C2.73341 4.66699 3.33342 5.26699 3.33342 6.00033C3.33342 6.73366 2.73341 7.33366 2.00008 7.33366C1.26675 7.33366 0.666748 6.73366 0.666748 6.00033ZM2.00008 11.3337C2.73341 11.3337 3.33342 10.7337 3.33342 10.0003C3.33342 9.26699 2.73341 8.66699 2.00008 8.66699C1.26675 8.66699 0.666748 9.26699 0.666748 10.0003C0.666748 10.7337 1.26675 11.3337 2.00008 11.3337ZM7.33341 2.00033C7.33341 2.73366 6.73341 3.33366 6.00008 3.33366C5.26675 3.33366 4.66675 2.73366 4.66675 2.00033C4.66675 1.26699 5.26675 0.666992 6.00008 0.666992C6.73341 0.666992 7.33341 1.26699 7.33341 2.00033ZM6.00008 4.66699C5.26675 4.66699 4.66675 5.26699 4.66675 6.00033C4.66675 6.73366 5.26675 7.33366 6.00008 7.33366C6.73341 7.33366 7.33341 6.73366 7.33341 6.00033C7.33341 5.26699 6.73341 4.66699 6.00008 4.66699ZM4.66675 10.0003C4.66675 9.26699 5.26675 8.66699 6.00008 8.66699C6.73341 8.66699 7.33341 9.26699 7.33341 10.0003C7.33341 10.7337 6.73341 11.3337 6.00008 11.3337C5.26675 11.3337 4.66675 10.7337 4.66675 10.0003Z" fill="#DADADA"/>
</svg>
