<svg width="14" height="14" viewBox="0 0 14 14" fill="none" xmlns="http://www.w3.org/2000/svg">
<path d="M11.6667 5.25H6.41667C5.77233 5.25 5.25 5.77233 5.25 6.41667V11.6667C5.25 12.311 5.77233 12.8333 6.41667 12.8333H11.6667C12.311 12.8333 12.8333 12.311 12.8333 11.6667V6.41667C12.8333 5.77233 12.311 5.25 11.6667 5.25Z" stroke="#111111" stroke-linecap="round" stroke-linejoin="round"/>
<path d="M2.91699 8.74984H2.33366C2.02424 8.74984 1.72749 8.62692 1.5087 8.40813C1.28991 8.18934 1.16699 7.89259 1.16699 7.58317V2.33317C1.16699 2.02375 1.28991 1.72701 1.5087 1.50821C1.72749 1.28942 2.02424 1.1665 2.33366 1.1665H7.58366C7.89308 1.1665 8.18982 1.28942 8.40862 1.50821C8.62741 1.72701 8.75033 2.02375 8.75033 2.33317V2.9165" stroke="#111111" stroke-linecap="round" stroke-linejoin="round"/>
</svg>
