<svg width="32" height="32" viewBox="0 0 32 32" fill="none" xmlns="http://www.w3.org/2000/svg">
<circle cx="16" cy="16" r="16" fill="#D9D9FE"/>
<path d="M19.4126 18.2527L20.1998 17.4655C20.3725 17.2933 20.6665 17.4164 20.6665 17.6588V20.3932C20.6665 20.5444 20.5442 20.6667 20.3931 20.6667H17.6587C17.4151 20.6667 17.2938 20.3714 17.4654 20.1999L18.2526 19.4127L16.3561 17.5168L16.165 17.3257L16.3561 17.1298L17.1297 16.3562L17.3217 16.1616L17.5164 16.3562L19.4126 18.2527Z" fill="#111111"/>
<path d="M13.7469 12.5875L15.6434 14.4836L15.835 14.6753L15.6434 14.8703L14.8698 15.6439L14.6811 15.8326L14.4832 15.6439L12.5872 13.7477L11.7998 14.5347C11.6263 14.7075 11.333 14.5832 11.333 14.3413V11.6069C11.333 11.4558 11.4553 11.3335 11.6064 11.3335H14.3408C14.5845 11.3335 14.7057 11.6288 14.5341 11.8003L13.7469 12.5875Z" fill="#111111"/>
</svg>
