<svg width="32" height="32" viewBox="0 0 32 32" fill="none" xmlns="http://www.w3.org/2000/svg">
<circle cx="16" cy="16" r="16" fill="#D9D9FE"/>
<path d="M14.7708 18.4428H17.2187V18.2232C17.2316 16.9637 17.6837 16.3759 18.7042 15.7624C19.912 15.0454 20.7 14.096 20.7 12.5782C20.7 10.3176 18.8786 9 16.3145 9C13.9699 9 12.0581 10.2272 12 12.8107H14.6352C14.6739 11.7579 15.4555 11.196 16.3016 11.196C17.1735 11.196 17.8775 11.7773 17.8775 12.6751C17.8775 13.5212 17.2639 14.0831 16.4695 14.5869C15.3844 15.2715 14.7773 15.9626 14.7708 18.2232V18.4428ZM16.0432 22.5764C16.8699 22.5764 17.5869 21.8853 17.5933 21.0263C17.5869 20.1802 16.8699 19.4891 16.0432 19.4891C15.1906 19.4891 14.4866 20.1802 14.4931 21.0263C14.4866 21.8853 15.1906 22.5764 16.0432 22.5764Z" fill="#111111"/>
</svg>
