<svg width="64" height="64" viewBox="0 0 64 64" fill="none" xmlns="http://www.w3.org/2000/svg">
<g clip-path="url(#clip0)">
<path opacity="0.18" d="M63.9866 41.2607C63.9684 41.7832 63.9356 42.3057 63.8809 42.8387C63.4944 46.6968 62.0744 50.5496 59.0139 53.0317C55.3791 55.9771 50.2241 56.4108 45.461 56.2436C40.6979 56.0763 35.8127 55.4597 31.2537 56.7887C28.7583 57.5168 26.4742 58.8022 23.9842 59.5442C19.2448 60.9551 13.913 60.2566 9.65848 57.8234C5.40395 55.3901 2.26501 51.2969 0.947091 46.7299C0.700738 45.871 0.50959 44.9984 0.374717 44.1172C-0.376296 39.2924 0.360134 34.2761 0.252586 29.3555C0.157798 24.9819 -0.591391 20.4532 1.04917 16.3652C2.14288 13.6428 4.22457 11.3959 6.60703 9.61753C14.9429 3.40805 25.4407 0.0638072 35.9549 0.0011027C42.2182 -0.0372167 48.62 0.917285 54.1159 3.78776C55.9023 4.71962 57.5993 5.87791 58.8553 7.39675C59.7904 8.5324 60.4576 9.84919 61.0062 11.1939C61.9554 13.5285 62.5686 15.9754 62.8291 18.4676C63.1645 21.7056 62.9002 24.9732 63.0351 28.2216C63.2228 32.5796 64.1197 36.9044 63.9866 41.2607Z" fill="#6E71FF"/>
<path d="M63.9999 41.8667L63.978 42.1278C63.6542 45.8588 62.7248 49.57 60.9154 52.491C60.3908 53.3437 59.7874 54.121 59.1169 54.808C55.4689 58.5501 50.295 59.1011 45.5144 58.8887C40.7339 58.6762 35.8307 57.8928 31.2551 59.5813C28.7505 60.5063 26.4581 62.1395 23.959 63.0822C19.2022 64.8747 13.8508 63.9873 9.58071 60.8958C6.77163 58.8319 4.4423 55.9382 2.81147 52.4866C1.95763 50.7021 1.29549 48.7932 0.841072 46.806C0.593817 45.7147 0.401968 44.6062 0.266602 43.4866L24.4657 42.8692L63.9999 41.8667Z" fill="#B9BAFF"/>
<path d="M63.9999 42.1333C63.676 45.7816 62.7464 49.4103 60.9365 52.2666H2.81213C1.95807 50.5217 1.29576 48.6551 0.841221 46.712C0.593902 45.645 0.402003 44.561 0.266602 43.4662L24.472 42.8625L63.9999 42.1333Z" fill="url(#paint0_linear)"/>
<path d="M39.8042 35.8421C40.0239 37.8926 39.297 42.1102 37.0217 42.9419C36.4622 43.1464 35.8554 43.1718 35.2586 43.1903C32.9259 43.267 30.592 43.2861 28.257 43.2478C27.3232 43.2522 26.3904 43.1878 25.4661 43.0551C25.0165 42.9807 24.5516 42.8675 24.2017 42.575C23.6117 42.0781 23.5154 41.1297 23.9126 40.4671C24.3099 39.8045 25.1111 39.4529 25.882 39.4782C25.5695 39.4998 25.2571 39.4355 24.9786 39.2921C24.7001 39.1488 24.4662 38.932 24.3021 38.6652C24.138 38.3984 24.0502 38.0918 24.0479 37.7786C24.0457 37.4654 24.1293 37.1576 24.2896 36.8885C24.8322 35.9791 26.0375 35.7728 27.0906 35.6596C26.428 34.8651 25.9344 33.8863 25.9073 32.8518C25.8803 31.8173 26.3975 30.7337 27.3239 30.2723C28.2502 29.8108 29.5518 30.1438 29.9896 31.082C29.6516 29.3256 30.1114 27.3952 31.3301 26.0851C32.4255 24.9018 34.6433 23.9772 36.2323 24.6855C37.7537 25.3616 38.32 27.6707 38.6564 29.1143C39.1755 31.3315 39.5589 33.5783 39.8042 35.8421Z" fill="#6E71FF"/>
<path d="M39.8042 35.8421C40.0239 37.8926 39.297 42.1102 37.0217 42.9419C36.4622 43.1464 35.8554 43.1718 35.2586 43.1903C32.9259 43.267 30.592 43.2861 28.257 43.2478C27.3232 43.2522 26.3904 43.1878 25.4661 43.0551C25.0165 42.9807 24.5516 42.8675 24.2017 42.575C23.6117 42.0781 23.5154 41.1297 23.9126 40.4671C24.3099 39.8045 25.1111 39.4529 25.882 39.4782C25.5695 39.4998 25.2571 39.4355 24.9786 39.2921C24.7001 39.1488 24.4662 38.932 24.3021 38.6652C24.138 38.3984 24.0502 38.0918 24.0479 37.7786C24.0457 37.4654 24.1293 37.1576 24.2896 36.8885C24.8322 35.9791 26.0375 35.7728 27.0906 35.6596C26.428 34.8651 25.9344 33.8863 25.9073 32.8518C25.8803 31.8173 26.3975 30.7337 27.3239 30.2723C28.2502 29.8108 29.5518 30.1438 29.9896 31.082C29.6516 29.3256 30.1114 27.3952 31.3301 26.0851C32.4255 24.9018 34.6433 23.9772 36.2323 24.6855C37.7537 25.3616 38.32 27.6707 38.6564 29.1143C39.1755 31.3315 39.5589 33.5783 39.8042 35.8421Z" fill="url(#paint1_linear)"/>
<path d="M56.5576 13.0572H53.1768V21.5075H56.5576V13.0572Z" fill="#6E71FF"/>
<path d="M56.5576 13.0572H53.1768V21.5075H56.5576V13.0572Z" fill="url(#paint2_linear)"/>
<path d="M56.855 11.859H52.8775C52.6609 11.859 52.4854 12.0346 52.4854 12.2512V13.0862C52.4854 13.3028 52.6609 13.4784 52.8775 13.4784H56.855C57.0716 13.4784 57.2472 13.3028 57.2472 13.0862V12.2512C57.2472 12.0346 57.0716 11.859 56.855 11.859Z" fill="#6E71FF"/>
<path d="M44.6554 10.9442L32.4727 23.0712V26.5061V42.4923H58.2463V26.5061V24.2173L44.6554 10.9442Z" fill="#6E71FF"/>
<path d="M44.6554 10.9442L32.4727 23.0712V26.5061V42.4923H58.2463V26.5061V24.2173L44.6554 10.9442Z" fill="url(#paint3_linear)"/>
<g style="mix-blend-mode:multiply" opacity="0.2">
<g style="mix-blend-mode:multiply" opacity="0.2">
<path d="M45.009 10.1179L32.4746 22.6168V24.6064L45.009 12.7228L58.2499 25.2758V24.0249C58.3238 24.0254 58.3961 24.0035 58.4574 23.9621C58.5186 23.9208 58.566 23.8619 58.5932 23.7932C58.6204 23.7245 58.6263 23.6492 58.61 23.5771C58.5936 23.5051 58.5559 23.4396 58.5018 23.3893L45.009 10.1179Z" fill="#6E71FF"/>
</g>
</g>
<path d="M59.2508 42.4922H31.4707V44.5343H59.2508V42.4922Z" fill="#6E71FF"/>
<path d="M45.6599 29.5876H35.7305V37.8266H45.6599V29.5876Z" fill="#6E71FF"/>
<path d="M45.6599 29.5876H35.7305V37.8266H45.6599V29.5876Z" fill="url(#paint4_linear)"/>
<path d="M55.5877 29.2174H49.0391V42.4922H55.5877V29.2174Z" fill="#6E71FF"/>
<path d="M55.0591 30.0629H49.5703V41.8044H55.0591V30.0629Z" fill="#6E71FF"/>
<path d="M55.0591 30.0629H49.5703V41.8044H55.0591V30.0629Z" fill="url(#paint5_linear)"/>
<path d="M55.7788 28.4789H48.8853C48.7275 28.4789 48.5996 28.6068 48.5996 28.7646V29.3021C48.5996 29.4599 48.7275 29.5878 48.8853 29.5878H55.7788C55.9365 29.5878 56.0644 29.4599 56.0644 29.3021V28.7646C56.0644 28.6068 55.9365 28.4789 55.7788 28.4789Z" fill="#6E71FF"/>
<path d="M44.4265 10.1041L30.9928 23.1692C30.8774 23.2869 30.799 23.4356 30.767 23.5973C30.7351 23.7589 30.7511 23.9263 30.813 24.079C30.875 24.2317 30.9802 24.3629 31.1158 24.4565C31.2513 24.5502 31.4113 24.6022 31.576 24.6061C31.7914 24.6063 31.9985 24.5234 32.1541 24.3745L44.4332 12.6904C44.5886 12.5422 44.795 12.4595 45.0097 12.4595C45.2244 12.4595 45.4308 12.5422 45.5861 12.6904L57.8652 24.3745C58.0203 24.5231 58.2268 24.6061 58.4417 24.6061C58.6064 24.6022 58.7663 24.5502 58.9019 24.4565C59.0374 24.3629 59.1427 24.2317 59.2046 24.079C59.2666 23.9263 59.2826 23.7589 59.2507 23.5973C59.2187 23.4356 59.1402 23.2869 59.0248 23.1692L45.5929 10.1041C45.4369 9.95189 45.2276 9.8667 45.0097 9.8667C44.7918 9.8667 44.5825 9.95189 44.4265 10.1041Z" fill="#6E71FF"/>
<path d="M45.9451 29.2174H35.4443V29.5876H45.9451V29.2174Z" fill="#6E71FF"/>
<path d="M38.4861 29.5876H38.1514V37.1403H38.4861V29.5876Z" fill="#6E71FF"/>
<path d="M40.8621 29.5876H40.5273V37.1403H40.8621V29.5876Z" fill="#6E71FF"/>
<path d="M43.239 29.5876H42.9043V37.1403H43.239V29.5876Z" fill="#6E71FF"/>
<path d="M45.6599 33.567H35.7305V33.8493H45.6599V33.567Z" fill="#6E71FF"/>
<path d="M45.3571 37.2672C45.5177 37.1833 45.6537 37.0591 45.7518 36.9068C45.8499 36.7545 45.9067 36.5792 45.9166 36.3983C45.9166 36.2293 45.8575 36.0366 45.6969 36.0129C45.6286 36.0098 45.5607 36.0256 45.5008 36.0586C45.3182 36.1451 45.1554 36.2682 45.0224 36.4203C45.0714 36.256 45.0915 36.0844 45.0816 35.9132C45.0822 35.8184 45.0527 35.7259 44.9975 35.649C44.9422 35.572 44.8639 35.5146 44.7739 35.4849C44.684 35.4552 44.5869 35.4548 44.4967 35.4838C44.4064 35.5128 44.3277 35.5696 44.2719 35.6461C44.1431 35.8007 44.0517 35.9829 44.0048 36.1786C43.8988 35.8954 43.7148 35.648 43.474 35.4652C43.4338 35.4317 43.3863 35.408 43.3354 35.3959C43.2763 35.3926 43.2175 35.4067 43.1663 35.4365C43.0172 35.513 42.8906 35.6272 42.7993 35.7677C42.7079 35.9083 42.655 36.0704 42.6457 36.2377C42.6293 36.1774 42.595 36.1235 42.5473 36.083C42.4996 36.0426 42.4408 36.0176 42.3786 36.0112C42.348 36.0106 42.3176 36.0169 42.2897 36.0296C42.2618 36.0423 42.2371 36.0611 42.2175 36.0847C42.1979 36.1082 42.1838 36.1358 42.1762 36.1656C42.1687 36.1953 42.168 36.2263 42.1741 36.2563C42.0565 36.1338 41.9083 36.045 41.7447 35.9993C41.5812 35.9535 41.4084 35.9524 41.2443 35.996C41.0826 36.0471 40.9441 36.1535 40.8532 36.2967C40.7622 36.4399 40.7248 36.6106 40.7474 36.7787C40.7073 36.7624 40.6641 36.7551 40.6209 36.7572C40.5777 36.7593 40.5355 36.7708 40.4972 36.791C40.4589 36.8111 40.4254 36.8393 40.3991 36.8737C40.3729 36.908 40.3544 36.9477 40.345 36.99C40.3316 37.077 40.3372 37.1658 40.3614 37.2505C40.3856 37.3351 40.4279 37.4135 40.4854 37.4802" fill="#6E71FF"/>
<path d="M35.8119 37.2503L35.4299 36.9292C35.3461 36.8732 35.2859 36.7884 35.2608 36.6908C35.2439 36.5218 35.4299 36.4119 35.5989 36.4389C35.7563 36.4829 35.8962 36.5744 35.9995 36.7009C35.9522 36.3493 35.9269 35.9386 36.1855 35.6867C36.2889 35.6015 36.4148 35.548 36.548 35.5327C36.6812 35.5174 36.8159 35.5409 36.936 35.6005C37.1744 35.7256 37.3616 35.9301 37.4651 36.1786C37.5818 35.8085 37.8089 35.4828 38.1159 35.2455C38.1373 35.2211 38.1637 35.2018 38.1935 35.1889C38.2232 35.176 38.2554 35.1699 38.2878 35.171C38.3202 35.1722 38.3519 35.1805 38.3806 35.1954C38.4094 35.2104 38.4345 35.2315 38.454 35.2573C38.5824 35.3798 38.6839 35.5277 38.752 35.6915C38.8201 35.8554 38.8533 36.0316 38.8496 36.209C38.8977 36.0984 38.9572 35.993 39.0271 35.8946C39.0442 35.8636 39.0718 35.8397 39.1048 35.827C39.1572 35.8118 39.2063 35.8524 39.2451 35.8896C39.3466 35.9893 39.448 36.1211 39.4142 36.2581C39.47 36.0334 39.5871 35.8286 39.7523 35.6664C39.9213 35.5193 40.2357 35.5058 40.3625 35.6968C40.4201 35.7995 40.4415 35.9186 40.4233 36.0349C40.4004 36.2825 40.3206 36.5214 40.1901 36.7331C40.1901 36.6502 40.3152 36.6181 40.3811 36.6671C40.411 36.6952 40.4334 36.7304 40.4461 36.7694C40.4588 36.8084 40.4614 36.85 40.4538 36.8903C40.4538 36.9714 40.4166 37.0509 40.4132 37.1337" fill="#6E71FF"/>
<path d="M45.3571 37.2672C45.5177 37.1833 45.6537 37.0591 45.7518 36.9068C45.8499 36.7545 45.9067 36.5792 45.9166 36.3983C45.9166 36.2293 45.8575 36.0366 45.6969 36.0129C45.6286 36.0098 45.5607 36.0256 45.5008 36.0586C45.3182 36.1451 45.1554 36.2682 45.0224 36.4203C45.0714 36.256 45.0915 36.0844 45.0816 35.9132C45.0822 35.8184 45.0527 35.7259 44.9975 35.649C44.9422 35.572 44.8639 35.5146 44.7739 35.4849C44.684 35.4552 44.5869 35.4548 44.4967 35.4838C44.4064 35.5128 44.3277 35.5696 44.2719 35.6461C44.1431 35.8007 44.0517 35.9829 44.0048 36.1786C43.8988 35.8954 43.7148 35.648 43.474 35.4652C43.4338 35.4317 43.3863 35.408 43.3354 35.3959C43.2763 35.3926 43.2175 35.4067 43.1663 35.4365C43.0172 35.513 42.8906 35.6272 42.7993 35.7677C42.7079 35.9083 42.655 36.0704 42.6457 36.2377C42.6293 36.1774 42.595 36.1235 42.5473 36.083C42.4996 36.0426 42.4408 36.0176 42.3786 36.0112C42.348 36.0106 42.3176 36.0169 42.2897 36.0296C42.2618 36.0423 42.2371 36.0611 42.2175 36.0847C42.1979 36.1082 42.1838 36.1358 42.1762 36.1656C42.1687 36.1953 42.168 36.2263 42.1741 36.2563C42.0565 36.1338 41.9083 36.045 41.7447 35.9993C41.5812 35.9535 41.4084 35.9524 41.2443 35.996C41.0826 36.0471 40.9441 36.1535 40.8532 36.2967C40.7622 36.4399 40.7248 36.6106 40.7474 36.7787C40.7073 36.7624 40.6641 36.7551 40.6209 36.7572C40.5777 36.7593 40.5355 36.7708 40.4972 36.791C40.4589 36.8111 40.4254 36.8393 40.3991 36.8737C40.3729 36.908 40.3544 36.9477 40.345 36.99C40.3316 37.077 40.3372 37.1658 40.3614 37.2505C40.3856 37.3351 40.4279 37.4135 40.4854 37.4802" fill="url(#paint6_linear)"/>
<path d="M45.6291 37.1407H35.7622C35.4167 37.1407 35.1367 37.4207 35.1367 37.7661V38.8395C35.1367 39.185 35.4167 39.465 35.7622 39.465H45.6291C45.9745 39.465 46.2545 39.185 46.2545 38.8395V37.7661C46.2545 37.4207 45.9745 37.1407 45.6291 37.1407Z" fill="#6E71FF"/>
<path d="M35.8119 37.2503L35.4299 36.9292C35.3461 36.8732 35.2859 36.7884 35.2608 36.6908C35.2439 36.5218 35.4299 36.4119 35.5989 36.4389C35.7563 36.4829 35.8962 36.5744 35.9995 36.7009C35.9522 36.3493 35.9269 35.9386 36.1855 35.6867C36.2889 35.6015 36.4148 35.548 36.548 35.5327C36.6812 35.5174 36.8159 35.5409 36.936 35.6005C37.1744 35.7256 37.3616 35.9301 37.4651 36.1786C37.5818 35.8085 37.8089 35.4828 38.1159 35.2455C38.1373 35.2211 38.1637 35.2018 38.1935 35.1889C38.2232 35.176 38.2554 35.1699 38.2878 35.171C38.3202 35.1722 38.3519 35.1805 38.3806 35.1954C38.4094 35.2104 38.4345 35.2315 38.454 35.2573C38.5824 35.3798 38.6839 35.5277 38.752 35.6915C38.8201 35.8554 38.8533 36.0316 38.8496 36.209C38.8977 36.0984 38.9572 35.993 39.0271 35.8946C39.0442 35.8636 39.0718 35.8397 39.1048 35.827C39.1572 35.8118 39.2063 35.8524 39.2451 35.8896C39.3466 35.9893 39.448 36.1211 39.4142 36.2581C39.47 36.0334 39.5871 35.8286 39.7523 35.6664C39.9213 35.5193 40.2357 35.5058 40.3625 35.6968C40.4201 35.7995 40.4415 35.9186 40.4233 36.0349C40.4004 36.2825 40.3206 36.5214 40.1901 36.7331C40.1901 36.6502 40.3152 36.6181 40.3811 36.6671C40.411 36.6952 40.4334 36.7304 40.4461 36.7694C40.4588 36.8084 40.4614 36.85 40.4538 36.8903C40.4538 36.9714 40.4166 37.0509 40.4132 37.1337" fill="url(#paint7_linear)"/>
<path d="M12.6609 51.8275C10.0329 51.8068 7.37622 51.9262 4.80441 51.3885C4.75016 50.6565 5.23256 49.966 5.85504 49.5783C6.47752 49.1906 7.22134 49.0525 7.94839 48.9588C10.2538 48.6628 12.5849 48.721 14.9131 48.7861C20.2895 48.9348 25.6656 49.0992 31.0414 49.2794C33.7293 49.3688 36.4172 49.4625 39.1051 49.5605C40.7821 49.6207 41.7617 49.9907 42.8538 50.7631C42.9744 50.8465 43.0686 50.9628 43.1252 51.0982C43.1818 51.2335 43.1984 51.3823 43.173 51.5267C43.1477 51.6712 43.0815 51.8054 42.9823 51.9135C42.883 52.0215 42.7549 52.0988 42.6131 52.1363C38.1541 53.3004 32.968 52.9985 28.5061 52.7607C23.2244 52.4816 17.9574 51.868 12.6609 51.8275Z" fill="url(#paint8_linear)"/>
<path d="M30.0034 50.6932C29.5309 50.7731 29.0751 50.9299 28.6045 51.0167C28.0126 51.1262 27.401 51.1213 26.7973 51.1154C22.3677 51.0475 17.9446 50.7512 13.5456 50.2275C13.2501 50.2096 12.96 50.1401 12.6883 50.0224C12.424 49.8902 12.2148 49.6712 11.9771 49.4956C11.2421 48.953 10.2694 48.8445 9.3579 48.9155C8.44638 48.9865 7.55359 49.2164 6.64206 49.2746C6.51365 49.2943 6.38227 49.2747 6.26522 49.2183C6.05509 49.0911 6.04819 48.7942 6.06792 48.5505C6.14881 47.6192 6.31158 46.6081 7.00411 45.9856C7.74004 45.3197 8.83407 45.295 9.8255 45.3088C10.6384 45.3197 11.4582 45.3315 12.2513 45.5061C13.0928 45.6956 13.881 46.0685 14.7087 46.3101C16.37 46.7935 18.1348 46.7334 19.8641 46.6692L29.446 46.3131C30.7709 46.2648 32.1214 46.2145 33.3979 46.5735C34.6745 46.9326 36.6465 48.1283 36.5281 49.7047C36.4295 51.0592 36.1966 51.586 35.2733 51.513C34.1526 51.4192 31.1241 50.5018 30.0034 50.6932Z" fill="#6E71FF"/>
<path d="M30.0034 50.6932C29.5309 50.7731 29.0751 50.9299 28.6045 51.0167C28.0126 51.1262 27.401 51.1213 26.7973 51.1154C22.3677 51.0475 17.9446 50.7512 13.5456 50.2275C13.2501 50.2096 12.96 50.1401 12.6883 50.0224C12.424 49.8902 12.2148 49.6712 11.9771 49.4956C11.2421 48.953 10.2694 48.8445 9.3579 48.9155C8.44638 48.9865 7.55359 49.2164 6.64207 49.2746C6.51366 49.2943 6.38227 49.2747 6.26522 49.2183C6.0551 49.0911 6.04819 48.7942 6.06792 48.5505C6.14881 47.6192 6.31159 46.6081 7.00411 45.9856C7.74004 45.3197 8.83407 45.295 9.8255 45.3088C10.6384 45.3197 11.4582 45.3315 12.2513 45.5061C13.0928 45.6956 13.881 46.0685 14.7087 46.3101C16.37 46.7935 18.1348 46.7334 19.8641 46.6692L29.446 46.3131C30.7709 46.2648 32.1214 46.2145 33.3979 46.5735C34.6745 46.9326 36.6465 48.1283 36.5281 49.7047C36.4295 51.0592 36.1966 51.586 35.2733 51.513C34.1526 51.4192 31.1241 50.5018 30.0034 50.6932Z" fill="url(#paint9_linear)"/>
<path d="M35.2757 51.508L35.4592 51.5199C37.9393 51.6994 41.5755 50.9793 42.0756 50.7257C42.5758 50.4722 42.9734 49.3762 42.7662 47.9162C42.6508 48.5949 42.3825 49.0625 42.0756 49.2154C41.5735 49.4689 37.9393 50.1891 35.4592 50.0096H35.4444C35.4552 50.12 35.4592 50.2315 35.4592 50.3469C35.4594 50.7412 35.3974 51.133 35.2757 51.508Z" fill="#6E71FF"/>
<path d="M12.4895 50.3273L16.7492 50.7604C16.7492 50.7604 22.7974 50.9754 28.0762 51.1826C28.0121 50.9073 27.979 50.6257 27.9775 50.3431C27.9766 50.118 27.997 49.8934 28.0387 49.6723C22.7678 49.4651 16.7462 49.25 16.7462 49.25L12.6138 48.8288C12.6335 48.9812 12.6437 49.1348 12.6443 49.2885C12.6466 49.6407 12.5943 49.9911 12.4895 50.3273Z" fill="#6E71FF"/>
<path d="M35.2757 51.508L35.4592 51.5199C37.9393 51.6994 41.5755 50.9793 42.0756 50.7257C42.5758 50.4722 42.9734 49.3762 42.7662 47.9162C42.6508 48.5949 42.3825 49.0625 42.0756 49.2154C41.5735 49.4689 37.9393 50.1891 35.4592 50.0096H35.4444C35.4552 50.12 35.4592 50.2315 35.4592 50.3469C35.4594 50.7412 35.3974 51.133 35.2757 51.508Z" fill="url(#paint10_linear)"/>
<path d="M12.4895 50.3272L16.7492 50.7603C16.7492 50.7603 22.7974 50.9754 28.0762 51.1825C28.0121 50.9072 27.979 50.6257 27.9775 50.343C27.9766 50.118 27.997 49.8933 28.0387 49.6722C22.7678 49.465 16.7462 49.25 16.7462 49.25L12.6138 48.8287C12.6335 48.9812 12.6437 49.1347 12.6443 49.2884C12.6466 49.6406 12.5943 49.991 12.4895 50.3272Z" fill="url(#paint11_linear)"/>
<path d="M6.17331 49.3495V49.2923C6.17331 47.4525 7.6215 45.953 9.40805 45.953C10.945 45.953 12.2334 47.0608 12.5649 48.5406C12.5892 48.638 12.6073 48.7369 12.6191 48.8366L16.7516 49.2578C16.7516 49.2578 22.7692 49.4728 28.044 49.68C28.044 49.6484 28.0559 49.6218 28.0598 49.5952C28.2345 48.7529 28.6941 47.9965 29.3613 47.4535C30.0285 46.9104 30.8625 46.614 31.7227 46.614C32.5829 46.614 33.4169 46.9104 34.0841 47.4535C34.7513 47.9965 35.2109 48.7529 35.3856 49.5952C35.4138 49.732 35.4342 49.8703 35.4467 50.0095H35.4615C37.9416 50.189 41.5778 49.4689 42.078 49.2154C42.3848 49.0625 42.6531 48.5949 42.7686 47.9161C42.7686 47.9043 42.7686 47.8964 42.7686 47.8856C42.5496 46.4058 41.7258 45.7271 40.5716 44.8274C39.5447 44.0264 36.1324 43.0754 34.8252 42.7301L34.4573 42.6315C33.9364 42.4934 31.042 41.0945 28.9763 40.0784C27.5501 39.377 25.9945 38.9777 24.4068 38.9054C23.7163 38.8749 22.9192 38.8403 22.0875 38.8068C20.5575 38.7456 18.8982 38.6884 17.5102 38.6687C13.8148 38.6154 10.3876 39.6424 10.2002 39.6966C10.0128 39.7509 8.87731 41.5286 8.39097 42.1224C7.90462 42.7163 6.3134 44.1201 6.3134 44.1201C6.3134 44.1201 5.82014 44.1734 5.49263 46.1513C5.49263 46.1858 5.48079 46.2164 5.47783 46.2499C5.31067 47.3339 5.55907 48.4409 6.17331 49.3495Z" fill="#6E71FF"/>
<path d="M42.457 47.2049C41.5692 47.5798 40.5827 47.6844 39.6208 47.6873C39.1531 47.7026 38.6854 47.6538 38.2309 47.5423C37.7926 47.4028 37.3708 47.2159 36.9731 46.9849C35.8425 46.3832 34.7091 45.7877 33.5726 45.1984C33.0794 44.9419 32.5772 44.6844 32.0366 44.5562C31.5197 44.4338 30.984 44.4319 30.4533 44.4309L26.1807 44.424C22.1361 44.4171 18.0826 43.1198 14.0468 42.9097C12.0929 42.8081 10.1348 42.818 8.18203 42.9393C8.91222 42.6162 9.59069 42.187 10.1955 41.6657C10.3661 41.5187 10.5398 41.3481 10.5832 41.1271C10.6217 40.9298 10.5467 40.7226 10.5536 40.5194C10.5664 40.1445 10.8633 39.8289 11.2076 39.6759C11.5519 39.523 11.9376 39.5082 12.3125 39.4944C15.5574 39.3714 18.8024 39.2524 22.0473 39.1373C23.3406 39.0929 24.6398 39.0505 25.9243 39.2103C30.1929 39.743 33.8528 42.4263 37.9033 43.8755C38.8543 44.2168 39.8359 44.492 40.7297 44.9606C41.6234 45.4292 42.0881 46.2648 42.457 47.2049Z" fill="url(#paint12_linear)" fill-opacity="0.2"/>
<path d="M22.0807 38.8116C22.134 38.8965 22.3145 38.9685 22.6598 39.0267C24.8981 39.4026 28.8658 42.2614 30.4531 42.8563C32.0404 43.4512 34.77 42.9096 34.77 42.9096C34.7885 42.8503 34.8037 42.79 34.8154 42.729L34.4475 42.6304C33.9266 42.4923 31.0322 41.0934 28.9665 40.0773C27.5403 39.3759 25.9847 38.9766 24.397 38.9044C23.7055 38.8768 22.9123 38.8422 22.0807 38.8116Z" fill="url(#paint13_linear)"/>
<path d="M28.7847 43.3222C28.8321 43.3604 28.8661 43.4126 28.8818 43.4714C28.8976 43.5302 28.8942 43.5925 28.8723 43.6492C28.8503 43.706 28.8109 43.7543 28.7597 43.7872C28.7085 43.8201 28.6482 43.8358 28.5874 43.8322C25.5895 43.6349 16.0756 42.9937 15.171 42.8122C14.0918 42.5961 11.7183 42.3811 11.3237 41.6284C10.9291 40.8757 11.1708 40.0273 11.1708 40.0273C11.1708 40.0273 18.3189 38.7626 21.9029 39.5656C24.7164 40.193 27.4609 42.2558 28.7847 43.3222Z" fill="url(#paint14_linear)"/>
<path d="M39.7383 46.2302C39.7383 46.2302 37.1122 44.1793 36.5371 44.0352C35.962 43.8912 32.4352 43.9997 32.4352 43.9997C32.4352 43.9997 33.4789 44.7889 34.0906 45.0069C34.7022 45.2249 38.9116 46.3742 39.7383 46.2302Z" fill="url(#paint15_linear)"/>
<path d="M31.745 53.0665C30.1312 53.0665 28.823 51.7583 28.823 50.1445C28.823 48.5307 30.1312 47.2225 31.745 47.2225C33.3588 47.2225 34.667 48.5307 34.667 50.1445C34.667 51.7583 33.3588 53.0665 31.745 53.0665Z" fill="#606161"/>
<path d="M31.745 53.0665C30.1312 53.0665 28.823 51.7583 28.823 50.1445C28.823 48.5307 30.1312 47.2225 31.745 47.2225C33.3588 47.2225 34.667 48.5307 34.667 50.1445C34.667 51.7583 33.3588 53.0665 31.745 53.0665Z" fill="url(#paint16_linear)"/>
<path d="M31.7104 52.2745C30.5548 52.2745 29.618 51.3377 29.618 50.1822C29.618 49.0266 30.5548 48.0898 31.7104 48.0898C32.8659 48.0898 33.8027 49.0266 33.8027 50.1822C33.8027 51.3377 32.8659 52.2745 31.7104 52.2745Z" fill="#6E71FF"/>
<path d="M9.39219 52.0596C7.87212 52.0596 6.63985 50.8273 6.63985 49.3073C6.63985 47.7872 7.87212 46.5549 9.39219 46.5549C10.9123 46.5549 12.1445 47.7872 12.1445 49.3073C12.1445 50.8273 10.9123 52.0596 9.39219 52.0596Z" fill="#606161"/>
<path d="M9.39219 52.0596C7.87212 52.0596 6.63985 50.8273 6.63985 49.3073C6.63985 47.7872 7.87212 46.5549 9.39219 46.5549C10.9123 46.5549 12.1445 47.7872 12.1445 49.3073C12.1445 50.8273 10.9123 52.0596 9.39219 52.0596Z" fill="url(#paint17_linear)"/>
<path d="M9.36002 51.3135C8.27145 51.3135 7.38899 50.431 7.38899 49.3425C7.38899 48.2539 8.27145 47.3715 9.36002 47.3715C10.4486 47.3715 11.3311 48.2539 11.3311 49.3425C11.3311 50.431 10.4486 51.3135 9.36002 51.3135Z" fill="#6E71FF"/>
<path d="M31.7022 51.9658C30.7428 51.9658 29.965 51.1881 29.965 50.2286C29.965 49.2692 30.7428 48.4914 31.7022 48.4914C32.6617 48.4914 33.4395 49.2692 33.4395 50.2286C33.4395 51.1881 32.6617 51.9658 31.7022 51.9658Z" fill="url(#paint18_linear)"/>
<path d="M9.35132 50.9083C8.48123 50.9083 7.77587 50.2029 7.77587 49.3328C7.77587 48.4627 8.48123 47.7574 9.35132 47.7574C10.2214 47.7574 10.9268 48.4627 10.9268 49.3328C10.9268 50.2029 10.2214 50.9083 9.35132 50.9083Z" fill="url(#paint19_linear)"/>
</g>
<defs>
<linearGradient id="paint0_linear" x1="104.272" y1="35.3307" x2="7.01236" y2="7.73254" gradientUnits="userSpaceOnUse">
<stop offset="0.079127"/>
<stop offset="0.83" stop-opacity="0.07"/>
<stop offset="1" stop-opacity="0"/>
</linearGradient>
<linearGradient id="paint1_linear" x1="31.8292" y1="1.36355" x2="-0.659204" y2="40.0066" gradientUnits="userSpaceOnUse">
<stop offset="0.01"/>
<stop offset="0.83" stop-opacity="0.07"/>
<stop offset="1" stop-opacity="0"/>
</linearGradient>
<linearGradient id="paint2_linear" x1="54.8655" y1="9.52737" x2="52.0588" y2="26.2456" gradientUnits="userSpaceOnUse">
<stop/>
<stop offset="0.571801" stop-opacity="0"/>
</linearGradient>
<linearGradient id="paint3_linear" x1="45.3469" y1="-2.23384" x2="38.7875" y2="71.4213" gradientUnits="userSpaceOnUse">
<stop stop-opacity="0"/>
<stop offset="0.932855" stop-opacity="0.75"/>
<stop offset="1"/>
</linearGradient>
<linearGradient id="paint4_linear" x1="41.0333" y1="27.0148" x2="40.7375" y2="32.8737" gradientUnits="userSpaceOnUse">
<stop offset="0.02" stop-color="white" stop-opacity="0"/>
<stop offset="0.58" stop-color="white" stop-opacity="0.39"/>
<stop offset="1" stop-color="white"/>
</linearGradient>
<linearGradient id="paint5_linear" x1="52.3249" y1="49.2212" x2="53.8455" y2="35.435" gradientUnits="userSpaceOnUse">
<stop offset="0.02" stop-color="white" stop-opacity="0"/>
<stop offset="0.58" stop-color="white" stop-opacity="0.39"/>
<stop offset="1" stop-color="white"/>
</linearGradient>
<linearGradient id="paint6_linear" x1="43.651" y1="28.4648" x2="40.5763" y2="39.4161" gradientUnits="userSpaceOnUse">
<stop offset="0.52893"/>
<stop offset="0.83" stop-opacity="0.07"/>
<stop offset="1" stop-opacity="0"/>
</linearGradient>
<linearGradient id="paint7_linear" x1="37.9345" y1="33.414" x2="36.4467" y2="39.5771" gradientUnits="userSpaceOnUse">
<stop offset="0.01"/>
<stop offset="0.83" stop-opacity="0.07"/>
<stop offset="1" stop-opacity="0"/>
</linearGradient>
<linearGradient id="paint8_linear" x1="-16997.5" y1="973.103" x2="-17012" y2="3572.97" gradientUnits="userSpaceOnUse">
<stop stop-color="#010101" stop-opacity="0"/>
<stop offset="0.95" stop-color="#010101"/>
</linearGradient>
<linearGradient id="paint9_linear" x1="21.3332" y1="41.8666" x2="21.5554" y2="55.7297" gradientUnits="userSpaceOnUse">
<stop offset="0.177626" stop-opacity="0"/>
<stop offset="0.771169"/>
<stop offset="0.932855" stop-opacity="0.75"/>
</linearGradient>
<linearGradient id="paint10_linear" x1="38.9337" y1="45.8667" x2="39.3742" y2="54.9305" gradientUnits="userSpaceOnUse">
<stop offset="0.177626" stop-opacity="0"/>
<stop offset="0.771169"/>
<stop offset="0.932855" stop-opacity="0.75"/>
</linearGradient>
<linearGradient id="paint11_linear" x1="20.2671" y1="47.2001" x2="20.3684" y2="53.3832" gradientUnits="userSpaceOnUse">
<stop offset="0.177626" stop-opacity="0"/>
<stop offset="0.771169"/>
<stop offset="0.932855" stop-opacity="0.75"/>
</linearGradient>
<linearGradient id="paint12_linear" x1="-14953.2" y1="2805.87" x2="-14951.6" y2="1232.59" gradientUnits="userSpaceOnUse">
<stop stop-color="white" stop-opacity="0"/>
<stop offset="0.95" stop-color="white"/>
</linearGradient>
<linearGradient id="paint13_linear" x1="38.9334" y1="44.2666" x2="22.4086" y2="39.3529" gradientUnits="userSpaceOnUse">
<stop stop-opacity="0"/>
<stop offset="0.177626" stop-opacity="0"/>
<stop offset="0.771169"/>
<stop offset="0.932855" stop-opacity="0.75"/>
</linearGradient>
<linearGradient id="paint14_linear" x1="35.0663" y1="47.4669" x2="8.52574" y2="40.2507" gradientUnits="userSpaceOnUse">
<stop offset="0.177626" stop-opacity="0"/>
<stop offset="0.771169"/>
<stop offset="0.932855" stop-opacity="0.75"/>
</linearGradient>
<linearGradient id="paint15_linear" x1="36.0732" y1="47.6842" x2="36.0295" y2="44.9728" gradientUnits="userSpaceOnUse">
<stop offset="0.02" stop-color="white" stop-opacity="0"/>
<stop offset="0.58" stop-color="white" stop-opacity="0.39"/>
<stop offset="1" stop-color="white"/>
</linearGradient>
<linearGradient id="paint16_linear" x1="-1931.5" y1="1927.36" x2="-2225.63" y2="1642.87" gradientUnits="userSpaceOnUse">
<stop stop-color="#010101" stop-opacity="0"/>
<stop offset="0.95" stop-color="#010101"/>
</linearGradient>
<linearGradient id="paint17_linear" x1="-3107.52" y1="1602.51" x2="-3414.68" y2="1602.51" gradientUnits="userSpaceOnUse">
<stop stop-color="#010101" stop-opacity="0"/>
<stop offset="0.95" stop-color="#010101"/>
</linearGradient>
<linearGradient id="paint18_linear" x1="31.7335" y1="43.7335" x2="32.6712" y2="56.5984" gradientUnits="userSpaceOnUse">
<stop offset="0.177626" stop-opacity="0"/>
<stop offset="0.771169"/>
<stop offset="0.932855" stop-opacity="0.75"/>
</linearGradient>
<linearGradient id="paint19_linear" x1="9.37965" y1="43.4425" x2="10.2301" y2="55.1094" gradientUnits="userSpaceOnUse">
<stop offset="0.177626" stop-opacity="0"/>
<stop offset="0.771169"/>
<stop offset="0.932855" stop-opacity="0.75"/>
</linearGradient>
<clipPath id="clip0">
<rect width="64" height="64" fill="white"/>
</clipPath>
</defs>
</svg>
