<svg width="64" height="64" viewBox="0 0 64 64" fill="none" xmlns="http://www.w3.org/2000/svg">
<path opacity="0.18" d="M59.0821 54.5779C58.3345 55.1729 57.5182 55.6589 56.6541 56.0234C55.1583 56.6527 53.5649 56.9344 52.0298 57.4194C51.3484 57.6324 50.6797 57.8907 50.0236 58.1724C46.0504 59.8694 42.404 62.5611 38.2243 63.5436C30.4793 65.3779 22.9939 61.2077 15.5909 59.4393C9.24793 57.9278 4.09302 61.5416 1.53204 50.6069C0.461792 46.0547 -0.863031 41.2345 0.756901 36.8664C2.37683 32.4983 4.65791 28.4641 6.20312 24.0741C8.40947 17.8043 9.2264 10.5809 13.5682 5.79649C16.575 2.48366 20.8724 0.884272 25.1293 0.316791C29.3863 -0.250691 33.6964 0.113432 37.9824 0.132669C43.1449 0.150531 48.6443 -0.242446 53.109 2.5771C54.6835 3.58706 56.0407 4.95085 57.0893 6.57687C58.1379 8.2029 58.8536 10.0535 59.1884 12.0044C60.075 17.3893 57.97 22.9721 58.9161 28.3474C59.7939 33.3516 63.2224 37.5397 63.8925 42.5852C64.5004 47.1278 62.4815 51.893 59.0821 54.5779Z" fill="#6E71FF"/>
<path d="M19.7746 47.6242L18.9863 46.6676C19.4882 46.2531 20.0198 45.8469 20.5647 45.4597L21.2828 46.4702C20.7622 46.8405 20.2548 47.2289 19.7746 47.6242ZM22.8679 45.4219L22.2189 44.3648C22.7808 44.0202 23.3607 43.6903 23.9438 43.3839L24.5202 44.4816C23.9619 44.7753 23.4055 45.0917 22.8679 45.4219ZM26.2317 43.6538L25.7293 42.5204C26.3329 42.2528 26.9516 42.0025 27.568 41.7766L27.9943 42.9409C27.4033 43.1573 26.8105 43.397 26.2317 43.6538ZM46.7284 42.3672C46.1114 42.2038 45.486 42.0551 44.8703 41.9252L45.1259 40.712C45.7628 40.8464 46.4089 40.9998 47.0457 41.1684L46.7284 42.3672ZM29.799 42.3478L29.4515 41.1575C30.0854 40.9723 30.732 40.8067 31.3726 40.6653L31.6402 41.8761C31.0262 42.0116 30.4069 42.1702 29.799 42.3478ZM42.9929 41.5813C42.3632 41.4835 41.7269 41.403 41.1009 41.3416L41.2219 40.1077C41.8703 40.1713 42.5303 40.2548 43.183 40.3559L42.9929 41.5813ZM33.5092 41.5269L33.3214 40.3015C33.9704 40.2022 34.6328 40.1229 35.2903 40.066L35.3968 41.3011C34.7666 41.3559 34.1315 41.4318 33.5092 41.5269ZM39.1998 41.2117C38.5526 41.1866 37.9174 41.1838 37.2956 41.1966L37.2678 39.9573C37.9108 39.9416 38.5732 39.9461 39.2482 39.973L39.1998 41.2117Z" fill="url(#paint0_linear)"/>
<path d="M17.762 49.513L16.8218 48.7044C16.8315 48.6935 17.0609 48.4277 17.5011 47.9966L18.3681 48.8829C17.9757 49.2669 17.7717 49.5018 17.762 49.513Z" fill="url(#paint1_linear)"/>
<path d="M48.8828 43.0278L50.0273 43.387L50.2332 42.8118C50.2332 42.8118 50.3561 42.4701 50.5177 41.881L49.3226 41.5522C49.2959 41.6476 49.2711 41.7357 49.2475 41.8162L48.8828 43.0278Z" fill="url(#paint2_linear)"/>
<path d="M50.9226 40.1415L49.7056 39.9066C49.8134 39.3475 49.8987 38.7856 49.9592 38.2367L51.1919 38.3729C51.1279 38.9548 51.0371 39.5497 50.9226 40.1415ZM51.3101 36.5806L50.0702 36.5594L50.0732 36.2457C50.0732 35.7829 50.0526 35.3258 50.0127 34.8881L51.2477 34.7748C51.2913 35.2504 51.3131 35.7451 51.3131 36.2457L51.3101 36.5806ZM49.7547 33.2545C49.6288 32.7081 49.4623 32.1841 49.2606 31.6973L50.4061 31.2226C50.6337 31.7727 50.8215 32.3624 50.9631 32.9754L49.7547 33.2545ZM48.502 30.2737C48.2036 29.8284 47.8579 29.414 47.4746 29.0422L48.3379 28.1522C48.7835 28.5842 49.1855 29.0658 49.5325 29.5835L48.502 30.2737ZM46.2098 28.0484C45.7679 27.7672 45.2823 27.5162 44.7652 27.3028L45.2387 26.1567C45.8224 26.398 46.3726 26.6823 46.8758 27.0023L46.2098 28.0484ZM43.1996 26.7878C42.6843 26.6564 42.1341 26.5496 41.5631 26.4709L41.7326 25.2424C42.3496 25.3278 42.9465 25.4434 43.506 25.5866L43.1996 26.7878ZM39.8879 26.3174C39.3508 26.2911 38.7884 26.2841 38.1938 26.2965L38.166 25.0571C38.7866 25.0429 39.3824 25.0514 39.9485 25.0786L39.8879 26.3174Z" fill="url(#paint3_linear)"/>
<path d="M35.557 26.4746L35.4238 25.242C35.7447 25.2072 36.0583 25.1774 36.3658 25.1523L36.4676 26.388C36.171 26.4126 35.8671 26.441 35.557 26.4746Z" fill="url(#paint4_linear)"/>
<path d="M50.5106 43.5866C51.1268 41.4851 51.7776 39.9685 52.328 38.9133C52.701 38.1984 53.444 37.1161 54.017 36.5487C55.1737 35.4036 55.8204 33.7446 55.5848 31.9418C55.2662 29.5036 53.2615 27.5384 50.8181 27.2621C47.5237 26.8895 44.7324 29.457 44.7324 32.6763C44.7324 34.1873 45.3478 35.5542 46.341 36.5413C46.924 37.1207 47.6818 38.2266 48.0599 38.9565C48.6055 40.0099 49.2471 41.5138 49.8549 43.5867C49.9513 43.915 50.4143 43.915 50.5106 43.5866Z" fill="#6E71FF"/>
<path d="M50.5106 43.5866C51.1268 41.4851 51.7776 39.9685 52.328 38.9133C52.701 38.1984 53.444 37.1161 54.017 36.5487C55.1737 35.4036 55.8204 33.7446 55.5848 31.9418C55.2662 29.5036 53.2615 27.5384 50.8181 27.2621C47.5237 26.8895 44.7324 29.457 44.7324 32.6763C44.7324 34.1873 45.3478 35.5542 46.341 36.5413C46.924 37.1207 47.6818 38.2266 48.0599 38.9565C48.6055 40.0099 49.2471 41.5138 49.8549 43.5867C49.9513 43.915 50.4143 43.915 50.5106 43.5866Z" fill="url(#paint5_linear)"/>
<path d="M36.5609 26.6951C37.1614 24.7079 37.7955 23.2737 38.3319 22.2758C38.6952 21.5997 39.4193 20.5762 39.9776 20.0396C41.1047 18.9567 41.7349 17.3879 41.5053 15.6831C41.1948 13.3774 39.2414 11.519 36.8606 11.2577C33.6505 10.9054 30.9307 13.3333 30.9307 16.3777C30.9307 17.8066 31.5303 19.0992 32.4981 20.0327C33.0661 20.5806 33.8045 21.6264 34.173 22.3166C34.7046 23.3127 35.3298 24.7349 35.922 26.6952C36.0159 27.0057 36.4671 27.0057 36.5609 26.6951Z" fill="#6E71FF"/>
<path d="M36.5609 26.6951C37.1614 24.7079 37.7955 23.2737 38.3319 22.2758C38.6952 21.5997 39.4192 20.5762 39.9776 20.0396C41.1047 18.9567 41.7349 17.3879 41.5053 15.6831C41.1948 13.3774 39.2414 11.519 36.8606 11.2577C33.6505 10.9054 30.9307 13.3333 30.9307 16.3777C30.9307 17.8066 31.5303 19.0992 32.4981 20.0327C33.0661 20.5806 33.8045 21.6264 34.173 22.3166C34.7046 23.3127 35.3298 24.7349 35.922 26.6952C36.0159 27.0057 36.4671 27.0057 36.5609 26.6951Z" fill="url(#paint6_linear)"/>
<path d="M18.3069 50.0772C19.6435 46.3028 21.0205 43.7027 22.1175 41.9954C22.9338 40.7249 23.9753 39.5943 25.1213 38.5581C26.9328 36.9202 28.0571 34.6438 28.0508 32.1103C28.0394 27.4109 23.9453 23.3879 18.812 23.0394C13.1155 22.6526 8.30236 26.6818 8.16903 31.8364C8.10631 34.2607 9.09088 36.4891 10.7449 38.1607C11.8398 39.2673 12.8374 40.4534 13.593 41.7749C14.6002 43.5367 15.8409 46.2045 16.9806 50.043C17.1609 50.6505 18.0954 50.6747 18.3069 50.0772Z" fill="#6E71FF"/>
<path d="M18.3069 50.0772C19.6436 46.3028 21.0205 43.7027 22.1175 41.9954C22.9338 40.7249 23.9753 39.5943 25.1213 38.5581C26.9328 36.9202 28.0571 34.6438 28.0508 32.1103C28.0394 27.4109 23.9453 23.3879 18.812 23.0394C13.1155 22.6526 8.30236 26.6818 8.16903 31.8364C8.10631 34.2607 9.09088 36.4891 10.7449 38.1607C11.8398 39.2673 12.8374 40.4534 13.593 41.7749C14.6002 43.5367 15.8409 46.2045 16.9806 50.043C17.1609 50.6505 18.0954 50.6747 18.3069 50.0772Z" fill="url(#paint7_linear)"/>
<path d="M36.25 25.9286C36.821 23.9814 37.424 22.5761 37.9341 21.5984C38.2796 20.9359 38.9681 19.9331 39.4991 19.4073C40.5708 18.3463 41.1701 16.809 40.9518 15.1386C40.6565 12.8794 38.799 11.0584 36.535 10.8024C33.4824 10.4573 30.896 12.8362 30.896 15.8192C30.896 17.2193 31.4662 18.4859 32.3865 19.4005C32.9267 19.9374 33.6289 20.9621 33.9792 21.6384C34.4848 22.6144 35.0793 24.0079 35.6425 25.9287C35.7318 26.233 36.1608 26.233 36.25 25.9286Z" fill="#6E71FF"/>
<path d="M35.9462 19.2346C37.8241 19.2346 39.3464 17.7123 39.3464 15.8344C39.3464 13.9564 37.8241 12.4341 35.9462 12.4341C34.0683 12.4341 32.5459 13.9564 32.5459 15.8344C32.5459 17.7123 34.0683 19.2346 35.9462 19.2346Z" fill="url(#paint8_linear)"/>
<path d="M17.9244 48.4751C19.0567 44.6626 20.2537 42.0246 21.2159 40.2873C21.932 38.9946 22.8572 37.836 23.88 36.7692C25.4969 35.083 26.4707 32.7754 26.4051 30.2398C26.2836 25.5366 22.4466 21.6159 17.7468 21.4C12.5312 21.1604 8.22754 25.3178 8.22754 30.4805C8.22754 32.9085 9.18007 35.1134 10.7313 36.7437C11.7581 37.823 12.698 38.9843 13.4198 40.2874C14.382 42.0247 15.579 44.6627 16.7113 48.4752C16.8905 49.0786 17.7452 49.0786 17.9244 48.4751Z" fill="#6E71FF"/>
<path d="M17.3197 36.6301C20.6999 36.6301 23.4401 33.8899 23.4401 30.5096C23.4401 27.1294 20.6999 24.3892 17.3197 24.3892C13.9394 24.3892 11.1992 27.1294 11.1992 30.5096C11.1992 33.8899 13.9394 36.6301 17.3197 36.6301Z" fill="url(#paint9_linear)"/>
<path d="M50.3169 42.4833C50.8879 40.5361 51.4909 39.1308 52.001 38.1531C52.3465 37.4906 53.035 36.4878 53.566 35.962C54.6377 34.901 55.237 33.3637 55.0187 31.6933C54.7235 29.4341 52.8659 27.6131 50.6019 27.3571C47.5493 27.0119 44.9629 29.3909 44.9629 32.3739C44.9629 33.774 45.5331 35.0406 46.4534 35.9552C46.9936 36.4921 47.6958 37.5168 48.0461 38.1931C48.5517 39.1692 49.1462 40.5626 49.7094 42.4834C49.7987 42.7877 50.2277 42.7877 50.3169 42.4833Z" fill="#6E71FF"/>
<path d="M50.0111 35.7903C51.889 35.7903 53.4114 34.2679 53.4114 32.39C53.4114 30.5121 51.889 28.9897 50.0111 28.9897C48.1332 28.9897 46.6108 30.5121 46.6108 32.39C46.6108 34.2679 48.1332 35.7903 50.0111 35.7903Z" fill="url(#paint10_linear)"/>
<defs>
<linearGradient id="paint0_linear" x1="17.7287" y1="50.7292" x2="17.1286" y2="52.0293" gradientUnits="userSpaceOnUse">
<stop stop-color="white"/>
<stop offset="1" stop-color="white" stop-opacity="0"/>
</linearGradient>
<linearGradient id="paint1_linear" x1="17.5949" y1="47.9966" x2="15.0281" y2="49.529" gradientUnits="userSpaceOnUse">
<stop stop-color="white"/>
<stop offset="1" stop-color="white" stop-opacity="0"/>
</linearGradient>
<linearGradient id="paint2_linear" x1="49.7003" y1="41.5522" x2="48.4327" y2="43.5778" gradientUnits="userSpaceOnUse">
<stop offset="0.661091" stop-color="white"/>
<stop offset="1" stop-color="white" stop-opacity="0"/>
</linearGradient>
<linearGradient id="paint3_linear" x1="44.7396" y1="25.0503" x2="44.7396" y2="40.1415" gradientUnits="userSpaceOnUse">
<stop stop-color="white"/>
<stop offset="1" stop-color="white" stop-opacity="0"/>
</linearGradient>
<linearGradient id="paint4_linear" x1="35.9457" y1="25.1523" x2="36.1309" y2="32.3266" gradientUnits="userSpaceOnUse">
<stop stop-color="white"/>
<stop offset="1" stop-color="white" stop-opacity="0"/>
</linearGradient>
<linearGradient id="paint5_linear" x1="50.1827" y1="27.2261" x2="50.1827" y2="43.8329" gradientUnits="userSpaceOnUse">
<stop stop-color="white"/>
<stop offset="1" stop-color="white" stop-opacity="0"/>
</linearGradient>
<linearGradient id="paint6_linear" x1="36.2414" y1="11.2236" x2="36.2414" y2="26.9281" gradientUnits="userSpaceOnUse">
<stop stop-color="white"/>
<stop offset="1" stop-color="white" stop-opacity="0"/>
</linearGradient>
<linearGradient id="paint7_linear" x1="16.9229" y1="12.8258" x2="17.4699" y2="50.5144" gradientUnits="userSpaceOnUse">
<stop stop-color="white"/>
<stop offset="1" stop-color="white" stop-opacity="0"/>
</linearGradient>
<linearGradient id="paint8_linear" x1="35.5313" y1="18.1248" x2="33.031" y2="27.5261" gradientUnits="userSpaceOnUse">
<stop stop-color="white"/>
<stop offset="1" stop-color="white" stop-opacity="0"/>
</linearGradient>
<linearGradient id="paint9_linear" x1="17.3197" y1="24.3892" x2="17.7286" y2="42.3783" gradientUnits="userSpaceOnUse">
<stop offset="0.627151" stop-color="white"/>
<stop offset="1" stop-color="white" stop-opacity="0"/>
</linearGradient>
<linearGradient id="paint10_linear" x1="50.0111" y1="28.9897" x2="50.0331" y2="40.8781" gradientUnits="userSpaceOnUse">
<stop offset="0.49559" stop-color="white"/>
<stop offset="1" stop-color="white" stop-opacity="0"/>
</linearGradient>
</defs>
</svg>
