<svg width="64" height="64" viewBox="0 0 64 64" fill="none" xmlns="http://www.w3.org/2000/svg">
<path opacity="0.18" d="M63.8021 49.4712C63.6316 51.3815 63.3286 53.3526 62.41 54.8719C61.5877 56.2454 60.3582 57.1003 59.1366 57.8458C51.1378 62.6895 42.0909 63.9232 33.2524 63.9961C26.4436 64.0569 19.4644 63.433 13.2301 59.9182C7.20885 56.525 1.94679 49.9918 0.463187 41.8116C0.409525 41.524 0.363754 41.2343 0.319562 40.9406C-0.0655444 38.2928 -0.0513396 35.554 0.0954425 32.8556C0.377959 27.6655 1.22709 22.2749 3.81077 18.2577C6.09142 14.7065 9.43426 12.6463 12.4741 10.193C15.0988 8.07405 17.5515 5.59447 20.2993 3.75303C23.9294 1.32207 27.9872 0.130903 32.0655 0.00732991C39.1237 -0.19525 45.0487 3.85634 51.8101 5.33315C58.892 6.87478 59.0703 13.5376 59.7553 21.4727C60.0962 25.3905 61.5088 29.0005 62.47 32.7462C63.8492 38.1325 64.3036 43.8381 63.8021 49.4712Z" fill="#6E71FF"/>
<mask id="mask0" mask-type="alpha" maskUnits="userSpaceOnUse" x="0" y="0" width="64" height="64">
<path d="M63.8021 49.4712C63.6316 51.3815 63.3286 53.3526 62.41 54.8719C61.5877 56.2454 60.3582 57.1003 59.1366 57.8458C51.1378 62.6895 42.0909 63.9232 33.2524 63.9961C26.4436 64.0569 19.4644 63.433 13.2301 59.9182C7.20886 56.525 1.94679 49.9918 0.463187 41.8116C0.409525 41.524 0.363754 41.2343 0.319562 40.9406C-0.0655444 38.2928 -0.0513396 35.554 0.0954425 32.8556C0.377959 27.6655 1.22709 22.2749 3.81077 18.2577C6.09142 14.7065 9.43426 12.6463 12.4741 10.193C15.0988 8.07405 17.5515 5.59447 20.2993 3.75303C23.9294 1.32207 27.9872 0.130903 32.0656 0.0073299C39.1237 -0.19525 45.0487 3.85634 51.8101 5.33315C58.892 6.87478 59.0703 13.5376 59.7553 21.4727C60.0962 25.3905 61.5088 29.0005 62.47 32.7462C63.8492 38.1325 64.3037 43.8381 63.8021 49.4712Z" fill="#6E71FF"/>
</mask>
<g mask="url(#mask0)">
<path opacity="0.37" d="M61.6703 46.6882C61.4852 48.6723 61.1609 50.7217 60.1725 52.3035C59.2878 53.7295 57.9649 54.6204 56.6505 55.3934C48.044 60.4295 38.3185 61.7122 28.8002 61.7881C21.4742 61.8534 13.9665 61.2025 7.25863 57.5482C0.781732 54.0202 -4.88173 47.2316 -6.47803 38.7202H61.7739C61.9494 41.374 61.9147 44.0428 61.6703 46.6882Z" fill="#6E71FF"/>
<path opacity="0.74" d="M15.234 45.9562C14.7828 46.4465 14.3316 46.9714 14.3316 47.5475C14.3226 48.6003 15.786 49.3764 17.2314 49.7645C19.1446 50.2773 21.2307 50.4007 23.2852 50.5014C31.2567 50.897 39.2613 51.0534 47.2584 51.2098C50.5267 51.2745 53.8341 51.3347 57.0242 50.8564C58.2124 50.6774 59.5104 50.3495 60.0022 49.599C60.6159 48.6605 59.6713 47.4933 60.312 46.5653C60.6505 46.075 61.3905 45.7246 61.5875 45.1996C61.8206 44.574 61.1513 43.9227 60.2955 43.6339C59.4397 43.3451 58.4425 43.3331 57.4844 43.3196C50.5467 43.2524 43.608 43.2023 36.6683 43.1692L22.7287 43.0879C21.2848 43.0804 18.1248 42.6367 16.8915 43.2248C15.8823 43.7001 15.9214 45.2042 15.234 45.9562Z" fill="#6E71FF"/>
<path d="M10.8337 39.3516H17.7276V33.5503H10.8337C10.0644 33.5503 9.32666 33.8559 8.78268 34.3999C8.23871 34.9438 7.93311 35.6816 7.93311 36.4509C7.93311 37.2202 8.23871 37.958 8.78268 38.502C9.32666 39.046 10.0644 39.3516 10.8337 39.3516Z" fill="#6E71FF"/>
<path d="M10.8337 39.3516H17.7276V33.5503H10.8337C10.0644 33.5503 9.32666 33.8559 8.78268 34.3999C8.23871 34.9438 7.93311 35.6816 7.93311 36.4509C7.93311 37.2202 8.23871 37.958 8.78268 38.502C9.32666 39.046 10.0644 39.3516 10.8337 39.3516Z" fill="url(#paint0_linear)"/>
<path d="M11.0852 45.2305C9.59159 49.1117 8.82678 53.2351 8.82911 57.3938L27.7477 66.8595L73.5616 66.9498L94.4366 57.3938C94.4373 53.2353 93.6726 49.1121 92.1805 45.2305H11.0852Z" fill="#6E71FF"/>
<path d="M11.0852 45.2305C9.59159 49.1117 8.82678 53.2351 8.82911 57.3938L27.7477 66.8595L73.5616 66.9498L94.4366 57.3938C94.4373 53.2353 93.6726 49.1121 92.1805 45.2305H11.0852Z" fill="url(#paint1_linear)"/>
<path d="M69.1817 17.6001H34.171C30.9649 17.5999 27.8382 18.5977 25.2249 20.4551C22.6116 22.3124 20.6412 24.9371 19.5872 27.965L17.0347 35.2908H86.3276L83.7719 27.965C82.7179 24.9358 80.7467 22.3101 78.132 20.4526C75.5173 18.5951 72.389 17.5981 69.1817 17.6001Z" fill="#6E71FF"/>
<path d="M82.9789 35.2909H19.3389L21.9172 27.7847C22.7323 25.4251 24.2635 23.3788 26.2971 21.9309C28.3308 20.4831 30.7655 19.706 33.2619 19.708H69.5296C72.1471 19.7079 74.6927 20.5643 76.7779 22.1466C78.863 23.729 80.373 25.9502 81.0773 28.4712L82.9789 35.2909Z" fill="#3E3E54"/>
<path d="M82.9789 35.2909H19.3389L21.9172 27.7847C22.7323 25.4251 24.2635 23.3788 26.2971 21.9309C28.3308 20.4831 30.7655 19.706 33.2619 19.708H69.5296C72.1471 19.7079 74.6927 20.5643 76.7779 22.1466C78.863 23.729 80.373 25.9502 81.0773 28.4712L82.9789 35.2909Z" fill="url(#paint2_linear)"/>
<path d="M11.085 45.2304C37.6977 48.5826 64.6236 48.6205 91.2457 45.3432L92.1546 45.2304C90.8458 41.8302 88.9956 38.6642 86.6756 35.8549L86.2018 35.2812H17.0345L16.5575 35.8549C14.2407 38.6652 12.3927 41.8311 11.085 45.2304Z" fill="#6E71FF"/>
<path d="M11.085 45.2304C37.6977 48.5826 64.6236 48.6205 91.2457 45.3432L92.1546 45.2304C90.8458 41.8302 88.9956 38.6642 86.6756 35.8549L86.2018 35.2812H17.0345L16.5575 35.8549C14.2407 38.6652 12.3927 41.8311 11.085 45.2304Z" fill="url(#paint3_linear)"/>
<path d="M95.0007 63.9523L94.4238 57.4033H93.502L84.9065 59.8979C78.6104 61.728 72.0869 62.6568 65.5302 62.6567H36.7881C30.2315 62.6568 23.7079 61.728 17.4119 59.8979L8.81634 57.4033L8.23944 63.9523C8.10132 65.5254 8.29192 67.11 8.79913 68.6055C9.30633 70.1009 10.119 71.4746 11.1856 72.6391C12.2522 73.8035 13.5494 74.7335 14.9947 75.3697C16.44 76.0059 18.0018 76.3346 19.5809 76.3348H83.6592C85.2383 76.3346 86.8002 76.0059 88.2455 75.3697C89.6908 74.7335 90.9879 73.8035 92.0545 72.6391C93.1211 71.4746 93.9338 70.1009 94.441 68.6055C94.9482 67.11 95.1388 65.5254 95.0007 63.9523Z" fill="#6E71FF"/>
<path d="M95.0007 63.9523L94.4238 57.4033H93.502L84.9065 59.8979C78.6104 61.728 72.0869 62.6568 65.5302 62.6567H36.7881C30.2315 62.6568 23.7079 61.728 17.4119 59.8979L8.81634 57.4033L8.23944 63.9523C8.10132 65.5254 8.29192 67.11 8.79913 68.6055C9.30633 70.1009 10.119 71.4746 11.1856 72.6391C12.2522 73.8035 13.5494 74.7335 14.9947 75.3697C16.44 76.0059 18.0018 76.3346 19.5809 76.3348H83.6592C85.2383 76.3346 86.8002 76.0059 88.2455 75.3697C89.6908 74.7335 90.9879 73.8035 92.0545 72.6391C93.1211 71.4746 93.9338 70.1009 94.441 68.6055C94.9482 67.11 95.1388 65.5254 95.0007 63.9523Z" fill="url(#paint4_linear)"/>
<path d="M51.6199 48.7305H34.4707L37.8902 58.5797H51.6199H65.3464L68.7691 48.7305H51.6199Z" fill="#6E71FF"/>
<path d="M51.6199 48.7305H34.4707L37.8902 58.5797H51.6199H65.3464L68.7691 48.7305H51.6199Z" fill="url(#paint5_linear)"/>
<path d="M51.6203 49.5103H35.728L38.8962 57.7996H51.6203H64.3444L67.5126 49.5103H51.6203Z" fill="#6E71FF"/>
<path d="M51.6203 49.5103H35.728L38.8962 57.7996H51.6203H64.3444L67.5126 49.5103H51.6203Z" fill="url(#paint6_linear)"/>
<path d="M67.3837 50.458H35.728V51.4958H67.3837V50.458Z" fill="#6E71FF"/>
<path d="M67.3837 50.458H35.728V51.4958H67.3837V50.458Z" fill="url(#paint7_linear)"/>
<path d="M66.5001 53.1362H36.7524V54.174H66.5001V53.1362Z" fill="#6E71FF"/>
<path d="M66.5001 53.1362H36.7524V54.174H66.5001V53.1362Z" fill="url(#paint8_linear)"/>
<path d="M65.372 55.8145H37.4775V56.8522H65.372V55.8145Z" fill="#6E71FF"/>
<path d="M65.372 55.8145H37.4775V56.8522H65.372V55.8145Z" fill="url(#paint9_linear)"/>
<path d="M70.348 47.2347L82.9786 35.2905H19.3354L32.7751 47.2154C45.2885 47.9486 57.8339 47.955 70.348 47.2347Z" fill="#6E71FF"/>
<path d="M70.348 47.2347L82.9786 35.2905H19.3354L32.7751 47.2154C45.2885 47.9486 57.8339 47.955 70.348 47.2347Z" fill="url(#paint10_linear)"/>
<path opacity="0.2" d="M15.8392 35.8647H10.1572C9.96657 35.8647 9.78377 35.789 9.64898 35.6542C9.5142 35.5194 9.43848 35.3366 9.43848 35.146C9.43848 34.9553 9.5142 34.7725 9.64898 34.6378C9.78377 34.503 9.96657 34.4272 10.1572 34.4272H15.8392C16.0298 34.4272 16.2126 34.503 16.3474 34.6378C16.4822 34.7725 16.5579 34.9553 16.5579 35.146C16.5579 35.3366 16.4822 35.5194 16.3474 35.6542C16.2126 35.789 16.0298 35.8647 15.8392 35.8647Z" fill="white"/>
<path d="M32.0731 48.8048C32.0731 48.8048 15.5298 47.564 13.7346 48.2505C11.9394 48.9369 10.834 55.0186 10.834 55.0186L35.6505 58.3286L32.0731 48.8048Z" fill="#6E71FF"/>
<path d="M32.0731 48.8048C32.0731 48.8048 15.5298 47.564 13.7346 48.2505C11.9394 48.9369 10.834 55.0186 10.834 55.0186L35.6505 58.3286L32.0731 48.8048Z" fill="url(#paint11_linear)"/>
<path d="M44.8161 35.2908H27.3511C27.3923 35.2249 27.4386 35.1624 27.4897 35.1038C27.972 34.5602 28.483 34.0427 29.0205 33.5536C29.4932 33.0697 30.0223 32.6445 30.5966 32.287C31.8245 31.5715 33.2104 31.4909 34.6284 31.3201L34.8347 31.2975H34.9797L35.331 31.2492C36.2257 31.1246 37.1308 31.0933 38.0319 31.1557L38.3542 31.1783C39.1097 31.2439 39.8587 31.37 40.5941 31.5554C41.5565 31.7561 42.4624 32.1678 43.2466 32.7607C44.0168 33.4053 44.4165 34.282 44.7936 35.1264C44.8093 35.1504 44.8195 35.1776 44.8234 35.206C44.8273 35.2345 44.8248 35.2634 44.8161 35.2908Z" fill="#6E71FF"/>
<path d="M44.8161 35.2908H27.3511C27.3923 35.2249 27.4386 35.1624 27.4897 35.1038C27.972 34.5602 28.483 34.0427 29.0205 33.5536C29.4932 33.0697 30.0223 32.6445 30.5966 32.287C31.8245 31.5715 33.2104 31.4909 34.6284 31.3201L34.8347 31.2975H34.9797L35.331 31.2492C36.2257 31.1246 37.1308 31.0933 38.0319 31.1557L38.3542 31.1783C39.1097 31.2439 39.8587 31.37 40.5941 31.5554C41.5565 31.7561 42.4624 32.1678 43.2466 32.7607C44.0168 33.4053 44.4165 34.282 44.7936 35.1264C44.8093 35.1504 44.8195 35.1776 44.8234 35.206C44.8273 35.2345 44.8248 35.2634 44.8161 35.2908Z" fill="url(#paint12_linear)"/>
<path d="M34.6962 32.6061C34.8561 32.8538 35.0961 33.0392 35.3762 33.1314C36.0378 33.3416 36.7354 33.414 37.426 33.3441C37.6586 33.3545 37.8898 33.3034 38.0964 33.1959C38.2004 33.1078 38.2833 32.9975 38.3391 32.8731C38.3949 32.7487 38.4221 32.6134 38.4187 32.4772C38.4761 31.778 38.3656 31.0752 38.0964 30.4274C38.0615 30.3201 37.9967 30.225 37.9094 30.1534C37.8187 30.0997 37.7177 30.0656 37.6129 30.0535C36.9683 29.9343 35.5341 29.7312 35.0088 30.2469C34.6285 30.6304 34.4545 32.1581 34.6962 32.6061Z" fill="url(#paint13_linear)"/>
<path d="M35.5925 32.5446C35.9051 32.725 36.2597 32.8201 36.6206 32.8201C36.9815 32.8201 37.3361 32.725 37.6487 32.5446C37.7897 32.4677 37.9093 32.3569 37.9968 32.2223C38.0956 32.0113 38.1281 31.7753 38.0903 31.5455C38.0997 31.3097 38.019 31.0792 37.8647 30.9009C37.7204 30.7875 37.5495 30.7132 37.3683 30.6849C36.8131 30.5551 36.2397 30.5213 35.6731 30.585C35.4185 30.5938 35.1725 30.6792 34.9672 30.83C34.9026 30.9121 34.8576 31.008 34.8358 31.1102C34.814 31.2125 34.816 31.3184 34.8415 31.4198C34.8743 31.6516 34.9588 31.8731 35.0888 32.0678C35.2188 32.2625 35.3909 32.4255 35.5925 32.5446Z" fill="url(#paint14_linear)" fill-opacity="0.3"/>
<path d="M39.5018 29.6959C39.2558 30.2802 38.8631 30.7911 38.3617 31.179C37.8603 31.5669 37.2671 31.8187 36.6398 31.9101C35.6729 31.9842 34.6126 31.2172 34.1904 30.2567C33.7682 29.2963 33.707 25.606 33.707 25.606C33.6937 25.3579 33.7507 25.111 33.8713 24.8938C34.0035 24.6263 34.2484 23.8205 34.5836 23.5853C36.1267 23.2365 37.7315 23.2674 39.26 23.6755C39.5823 23.9204 39.7435 24.6972 39.8144 24.8422C39.849 24.929 39.8718 25.02 39.8821 25.1129C40.011 26.0025 39.953 28.5421 39.5018 29.6959Z" fill="url(#paint15_linear)"/>
<path d="M33.6615 26.592C33.5594 26.5329 33.4405 26.5097 33.3237 26.5261C33.2069 26.5425 33.0989 26.5974 33.0169 26.6822C32.956 26.7873 32.9321 26.9099 32.9493 27.0303C32.9489 27.1503 32.9597 27.27 32.9815 27.388C33.0685 27.7128 33.2516 28.0038 33.5068 28.2228C33.5705 28.285 33.6433 28.3372 33.7228 28.3775C33.8071 28.4184 33.9036 28.4264 33.9935 28.4C34.0571 28.3711 34.1122 28.3262 34.1535 28.2698C34.1947 28.2133 34.2206 28.1472 34.2288 28.0777C34.284 27.7821 34.2538 27.4769 34.1418 27.1979C34.0536 26.9481 33.8846 26.7348 33.6615 26.592Z" fill="url(#paint16_linear)"/>
<path d="M40.0721 26.5371C40.174 26.4783 40.2926 26.4549 40.4092 26.4706C40.5259 26.4863 40.634 26.5404 40.7167 26.6241C40.7783 26.7291 40.8032 26.8515 40.7876 26.9722C40.7869 27.0923 40.775 27.2121 40.7521 27.33C40.6651 27.6548 40.482 27.9457 40.2268 28.1647C40.1648 28.229 40.0916 28.2814 40.0108 28.3194C39.9269 28.3614 39.8304 28.3706 39.7401 28.3452C39.674 28.3144 39.6174 28.2664 39.576 28.2064C39.5346 28.1463 39.5101 28.0763 39.5048 28.0036C39.4492 27.7077 39.4806 27.4021 39.5951 27.1237C39.685 26.8809 39.8527 26.6747 40.0721 26.5371Z" fill="url(#paint17_linear)"/>
<path d="M39.9272 26.6855C39.9174 26.6257 39.9045 26.5666 39.8885 26.5082C39.7989 26.1913 39.6791 25.8837 39.5308 25.5897C39.2955 25.0837 39.0635 24.5841 38.8314 24.0781C38.7927 24.0008 38.7573 23.9202 38.7218 23.8428C38.7218 23.8428 38.7218 23.8428 38.7218 23.8654C38.6839 23.9014 38.6372 23.9269 38.5865 23.9395C38.2704 24.044 37.9473 24.1258 37.6196 24.1845C37.1887 24.2367 36.7519 24.2105 36.3304 24.1071C35.9727 24.0169 35.6052 23.7494 35.2249 23.7623H35.1701C34.9861 23.7607 34.8068 23.8208 34.6607 23.9329C34.5147 24.0451 34.4104 24.2028 34.3644 24.3811C34.2874 25.203 34.0853 26.0084 33.765 26.7693C33.3556 26.5275 33.3105 26.0473 33.3073 25.6316C33.3041 25.2158 33.3073 24.771 33.3073 24.3424C33.2921 24.1339 33.3195 23.9244 33.3879 23.7268C33.4333 23.6198 33.5049 23.5259 33.5962 23.4538C33.6874 23.3817 33.7953 23.3337 33.91 23.3143C34.1066 23.282 34.3354 23.3401 34.503 23.2466C34.565 23.1996 34.6157 23.1393 34.6514 23.0701C34.6871 23.001 34.7068 22.9247 34.7093 22.847C34.7457 22.5371 34.8762 22.2457 35.0831 22.0122C35.5537 21.532 36.4464 21.4998 37.1523 21.6899C37.8581 21.8801 38.4704 22.2733 39.1666 22.5053C39.6339 22.6632 40.1754 22.7696 40.4751 23.108C40.6165 23.2851 40.7088 23.4963 40.7426 23.7204C40.8404 24.2441 40.8178 24.7832 40.6766 25.2969C40.5353 25.8106 40.279 26.2854 39.9272 26.6855Z" fill="#3E3E54"/>
<path d="M40.079 26.2792C40.0343 26.3693 39.9692 26.4477 39.8889 26.5081C39.7992 26.1912 39.6794 25.8836 39.5311 25.5895L38.7222 23.8427C38.8815 23.7591 39.0536 23.7025 39.2314 23.6751C39.4706 23.6354 39.7158 23.691 39.9146 23.8298C40.0497 23.9462 40.1454 24.1016 40.1886 24.2746C40.2585 24.5483 40.2921 24.83 40.2885 25.1125C40.3349 25.5136 40.262 25.9194 40.079 26.2792Z" fill="url(#paint18_linear)"/>
<path d="M39.6852 23.5915C39.376 23.7063 39.0876 23.8707 38.8312 24.0782C38.7925 24.0008 38.757 23.9203 38.7216 23.8429C38.7216 23.8429 38.7216 23.8429 38.7216 23.8655C38.6836 23.9014 38.637 23.927 38.5862 23.9396C38.2701 24.0441 37.947 24.1259 37.6193 24.1845C37.1885 24.2368 36.7517 24.2106 36.3302 24.1072C35.9724 24.0169 35.605 23.7494 35.2247 23.7623H35.1699C35.1699 23.7108 35.2118 23.656 35.2312 23.598C35.4149 23.0791 35.5373 22.6311 36.2174 22.4699C36.6178 22.3839 37.0348 22.4175 37.4163 22.5666C37.7647 22.7396 38.1311 22.8737 38.5089 22.9663C38.7438 22.9724 38.9777 22.9983 39.2082 23.0436C39.3307 23.0819 39.4401 23.1533 39.5243 23.25C39.6085 23.3468 39.6642 23.465 39.6852 23.5915Z" fill="#575776"/>
<path d="M36.1143 31.7681C33.5972 31.7681 31.4797 33.2732 30.9189 35.2907H32.1018C32.6335 33.8179 34.2321 32.7478 36.1143 32.7478C37.9965 32.7478 39.5983 33.8179 40.1333 35.2907H41.3194C40.7521 33.2732 38.6314 31.7681 36.1143 31.7681Z" fill="url(#paint19_linear)"/>
<path d="M33.0335 33.0286C33.2844 33.2194 33.5078 33.4439 33.6974 33.6957C33.7276 33.7225 33.7512 33.756 33.7663 33.7935C33.7814 33.8309 33.7876 33.8714 33.7844 33.9117C33.7651 33.9987 33.6619 34.0406 33.5749 34.0599C33.3786 34.1019 33.1751 34.0953 32.9819 34.0406C33.0503 34.0983 33.0973 34.1774 33.1154 34.265C33.1336 34.3527 33.1217 34.4439 33.0818 34.524C33.0369 34.6019 32.9668 34.6622 32.883 34.695C32.7993 34.7278 32.7068 34.7312 32.6209 34.7045C32.6556 34.7464 32.6808 34.7952 32.6948 34.8477C32.7089 34.9002 32.7114 34.9552 32.7022 35.0087C32.693 35.0623 32.6723 35.1133 32.6416 35.1581C32.6109 35.2029 32.5709 35.2406 32.5243 35.2685C32.3256 35.3701 32.101 35.4094 31.8797 35.3813L30.8258 35.3555C30.6721 35.3669 30.5188 35.3297 30.3875 35.2492C30.3021 35.1765 30.245 35.0761 30.2263 34.9656C30.1857 34.6293 30.2583 34.2891 30.4326 33.9987C30.5565 33.6709 30.7488 33.3731 30.9966 33.1253C31.2792 32.8894 31.6311 32.7523 31.9988 32.7348C32.3665 32.7174 32.7298 32.8205 33.0335 33.0286Z" fill="url(#paint20_linear)"/>
<path d="M40.0558 34.124C39.8061 34.2155 39.5841 34.3698 39.4112 34.572C39.3525 34.6455 39.3187 34.7358 39.3146 34.8298C39.3114 34.8765 39.3211 34.9231 39.3427 34.9647C39.3643 35.0062 39.397 35.0409 39.437 35.0651C39.595 35.1553 39.7948 35.02 39.972 35.0651C39.9543 35.1114 39.9547 35.1628 39.9733 35.2088C39.9918 35.2548 40.0271 35.2921 40.0719 35.3132C40.1631 35.3531 40.2633 35.3676 40.362 35.3551L41.5062 35.3197C41.5683 35.3258 41.6306 35.3111 41.6834 35.2778C41.714 35.2464 41.7341 35.2063 41.741 35.1631C41.7479 35.1198 41.7413 35.0754 41.7221 35.0361C41.6447 34.8234 41.3998 34.7138 41.3289 34.485C41.258 34.2561 41.3289 33.821 40.9421 33.7662C40.6746 33.7308 40.2879 34.0144 40.0558 34.124Z" fill="url(#paint21_linear)"/>
<path d="M33.2622 19.708L46.415 35.2458L60.1092 35.1523L48.3455 19.9852L33.2622 19.708Z" fill="url(#paint22_linear)"/>
</g>
<defs>
<linearGradient id="paint0_linear" x1="12.4484" y1="26.9465" x2="13.4121" y2="47.2155" gradientUnits="userSpaceOnUse">
<stop offset="0.01"/>
<stop offset="0.83" stop-opacity="0.07"/>
<stop offset="1" stop-opacity="0"/>
</linearGradient>
<linearGradient id="paint1_linear" x1="51.3931" y1="19.2234" x2="49.5472" y2="75.9124" gradientUnits="userSpaceOnUse">
<stop offset="0.01"/>
<stop offset="0.83" stop-opacity="0.07"/>
<stop offset="1" stop-opacity="0"/>
</linearGradient>
<linearGradient id="paint2_linear" x1="92.4375" y1="9.86808" x2="25.8509" y2="-24.4397" gradientUnits="userSpaceOnUse">
<stop offset="0.079127"/>
<stop offset="0.83" stop-opacity="0.07"/>
<stop offset="1" stop-opacity="0"/>
</linearGradient>
<linearGradient id="paint3_linear" x1="57.4059" y1="-18.4979" x2="47.5471" y2="29.8484" gradientUnits="userSpaceOnUse">
<stop stop-opacity="0"/>
<stop offset="0.01"/>
<stop offset="0.83" stop-opacity="0.07"/>
</linearGradient>
<linearGradient id="paint4_linear" x1="48.2336" y1="35.853" x2="49.3932" y2="102.127" gradientUnits="userSpaceOnUse">
<stop offset="0.01"/>
<stop offset="0.83" stop-opacity="0.07"/>
<stop offset="1" stop-opacity="0"/>
</linearGradient>
<linearGradient id="paint5_linear" x1="90.6285" y1="63.5003" x2="51.8834" y2="41.4202" gradientUnits="userSpaceOnUse">
<stop offset="0.02" stop-color="white" stop-opacity="0"/>
<stop offset="0.58" stop-color="white" stop-opacity="0.39"/>
<stop offset="1" stop-color="white"/>
</linearGradient>
<linearGradient id="paint6_linear" x1="6771.51" y1="1295.24" x2="6777.98" y2="1909.75" gradientUnits="userSpaceOnUse">
<stop offset="0.01"/>
<stop offset="0.83" stop-opacity="0.07"/>
<stop offset="1" stop-opacity="0"/>
</linearGradient>
<linearGradient id="paint7_linear" x1="87.5587" y1="52.0143" x2="85.7309" y2="42.8902" gradientUnits="userSpaceOnUse">
<stop offset="0.02" stop-color="white" stop-opacity="0"/>
<stop offset="0.58" stop-color="white" stop-opacity="0.39"/>
<stop offset="1" stop-color="white"/>
</linearGradient>
<linearGradient id="paint8_linear" x1="85.4591" y1="54.6925" x2="83.524" y2="45.6149" gradientUnits="userSpaceOnUse">
<stop offset="0.02" stop-color="white" stop-opacity="0"/>
<stop offset="0.58" stop-color="white" stop-opacity="0.39"/>
<stop offset="1" stop-color="white"/>
</linearGradient>
<linearGradient id="paint9_linear" x1="83.1499" y1="57.3707" x2="81.0985" y2="48.347" gradientUnits="userSpaceOnUse">
<stop offset="0.02" stop-color="white" stop-opacity="0"/>
<stop offset="0.58" stop-color="white" stop-opacity="0.39"/>
<stop offset="1" stop-color="white"/>
</linearGradient>
<linearGradient id="paint10_linear" x1="57.1324" y1="-6.19766" x2="46.9343" y2="63.0244" gradientUnits="userSpaceOnUse">
<stop offset="0.01"/>
<stop offset="0.83" stop-opacity="0.07"/>
<stop offset="1" stop-opacity="0"/>
</linearGradient>
<linearGradient id="paint11_linear" x1="51.4668" y1="63.4669" x2="19.3379" y2="50.7803" gradientUnits="userSpaceOnUse">
<stop offset="0.02" stop-color="white" stop-opacity="0"/>
<stop offset="0.58" stop-color="white" stop-opacity="0.39"/>
<stop offset="1" stop-color="white"/>
</linearGradient>
<linearGradient id="paint12_linear" x1="38.0498" y1="35.7443" x2="38.1145" y2="27.5253" gradientUnits="userSpaceOnUse">
<stop stop-opacity="0"/>
<stop offset="0.639117" stop-opacity="0.75"/>
<stop offset="1"/>
</linearGradient>
<linearGradient id="paint13_linear" x1="34.5851" y1="31.6413" x2="38.4361" y2="31.6413" gradientUnits="userSpaceOnUse">
<stop stop-color="#E5C5D5"/>
<stop offset="0.42" stop-color="#EAD4D1"/>
<stop offset="1" stop-color="#F0E9CB"/>
</linearGradient>
<linearGradient id="paint14_linear" x1="36.5109" y1="28.6389" x2="33.9885" y2="34.6972" gradientUnits="userSpaceOnUse">
<stop offset="0.01" stop-opacity="0.53"/>
<stop offset="0.83" stop-opacity="0.07"/>
<stop offset="1" stop-opacity="0"/>
</linearGradient>
<linearGradient id="paint15_linear" x1="33.7052" y1="27.6305" x2="39.9464" y2="27.6305" gradientUnits="userSpaceOnUse">
<stop stop-color="#E5C5D5"/>
<stop offset="0.42" stop-color="#EAD4D1"/>
<stop offset="1" stop-color="#F0E9CB"/>
</linearGradient>
<linearGradient id="paint16_linear" x1="32.9439" y1="27.4683" x2="34.2566" y2="27.4683" gradientUnits="userSpaceOnUse">
<stop stop-color="#E5C5D5"/>
<stop offset="0.42" stop-color="#EAD4D1"/>
<stop offset="1" stop-color="#F0E9CB"/>
</linearGradient>
<linearGradient id="paint17_linear" x1="39.4781" y1="27.4127" x2="40.793" y2="27.4127" gradientUnits="userSpaceOnUse">
<stop stop-color="#E5C5D5"/>
<stop offset="0.42" stop-color="#EAD4D1"/>
<stop offset="1" stop-color="#F0E9CB"/>
</linearGradient>
<linearGradient id="paint18_linear" x1="335.231" y1="351.801" x2="313.076" y2="353.408" gradientUnits="userSpaceOnUse">
<stop offset="0.01"/>
<stop offset="0.83" stop-opacity="0.07"/>
<stop offset="1" stop-opacity="0"/>
</linearGradient>
<linearGradient id="paint19_linear" x1="1788.8" y1="460.547" x2="1785.02" y2="713.451" gradientUnits="userSpaceOnUse">
<stop offset="0.01"/>
<stop offset="0.83" stop-opacity="0.07"/>
<stop offset="1" stop-opacity="0"/>
</linearGradient>
<linearGradient id="paint20_linear" x1="30.2154" y1="34.0617" x2="33.7877" y2="34.0617" gradientUnits="userSpaceOnUse">
<stop stop-color="#E5C5D5"/>
<stop offset="0.42" stop-color="#EAD4D1"/>
<stop offset="1" stop-color="#F0E9CB"/>
</linearGradient>
<linearGradient id="paint21_linear" x1="39.314" y1="34.5614" x2="41.7454" y2="34.5614" gradientUnits="userSpaceOnUse">
<stop stop-color="#E5C5D5"/>
<stop offset="0.42" stop-color="#EAD4D1"/>
<stop offset="1" stop-color="#F0E9CB"/>
</linearGradient>
<linearGradient id="paint22_linear" x1="48.0297" y1="7.89597" x2="41.5709" y2="101.87" gradientUnits="userSpaceOnUse">
<stop offset="0.02" stop-color="white" stop-opacity="0"/>
<stop offset="0.39" stop-color="white" stop-opacity="0.39"/>
<stop offset="1" stop-color="white"/>
</linearGradient>
</defs>
</svg>
