<svg width="64" height="64" viewBox="0 0 64 64" fill="none" xmlns="http://www.w3.org/2000/svg">
<g clip-path="url(#clip0)">
<path opacity="0.18" d="M4.91795 54.5779C5.66551 55.1729 6.48181 55.6589 7.34595 56.0234C8.84175 56.6527 10.4351 56.9344 11.9702 57.4194C12.6516 57.6324 13.3203 57.8907 13.9764 58.1724C17.9496 59.8694 21.596 62.5611 25.7757 63.5436C33.5207 65.3779 41.0061 61.2077 48.4091 59.4393C54.7521 57.9278 59.907 61.5416 62.468 50.6069C63.5382 46.0547 64.863 41.2345 63.2431 36.8665C61.6232 32.4984 59.3421 28.4641 57.7969 24.0741C55.5905 17.8043 54.7736 10.5809 50.4318 5.79649C47.425 2.48366 43.1276 0.884272 38.8707 0.316791C34.6137 -0.250691 30.3036 0.113432 26.0176 0.132669C20.8551 0.150531 15.3557 -0.242446 10.8911 2.5771C9.31646 3.58706 7.9593 4.95085 6.91071 6.57687C5.86212 8.2029 5.14638 10.0535 4.81156 12.0044C3.92496 17.3893 6.02999 22.9721 5.08387 28.3474C4.20615 33.3516 0.777569 37.5397 0.107559 42.5852C-0.500389 47.1278 1.5185 51.893 4.91795 54.5779Z" fill="#6E71FF"/>
<circle cx="31.9999" cy="31.9999" r="15.3846" fill="#6E71FF"/>
<circle cx="31.9999" cy="31.9999" r="15.3846" fill="url(#paint0_linear)" fill-opacity="0.9"/>
<path fill-rule="evenodd" clip-rule="evenodd" d="M31.8395 26.0703C32.2821 26.0703 32.6408 26.4291 32.6408 26.8716V31.1985H37.128C37.5705 31.1985 37.9293 31.5573 37.9293 31.9998C37.9293 32.4423 37.5705 32.8011 37.128 32.8011H32.6408V37.128C32.6408 37.5705 32.2821 37.9293 31.8395 37.9293C31.397 37.9293 31.0383 37.5705 31.0383 37.128V32.8011H26.8716C26.4291 32.8011 26.0703 32.4423 26.0703 31.9998C26.0703 31.5573 26.4291 31.1985 26.8716 31.1985H31.0383V26.8716C31.0383 26.4291 31.397 26.0703 31.8395 26.0703Z" fill="#6E71FF"/>
<path fill-rule="evenodd" clip-rule="evenodd" d="M31.8395 26.0703C32.2821 26.0703 32.6408 26.4291 32.6408 26.8716V31.1985H37.128C37.5705 31.1985 37.9293 31.5573 37.9293 31.9998C37.9293 32.4423 37.5705 32.8011 37.128 32.8011H32.6408V37.128C32.6408 37.5705 32.2821 37.9293 31.8395 37.9293C31.397 37.9293 31.0383 37.5705 31.0383 37.128V32.8011H26.8716C26.4291 32.8011 26.0703 32.4423 26.0703 31.9998C26.0703 31.5573 26.4291 31.1985 26.8716 31.1985H31.0383V26.8716C31.0383 26.4291 31.397 26.0703 31.8395 26.0703Z" fill="url(#paint1_linear)"/>
</g>
<defs>
<linearGradient id="paint0_linear" x1="31.9999" y1="11.0063" x2="31.9999" y2="47.3845" gradientUnits="userSpaceOnUse">
<stop stop-color="#222222"/>
<stop offset="1" stop-color="#212121" stop-opacity="0"/>
</linearGradient>
<linearGradient id="paint1_linear" x1="31.9998" y1="26.0703" x2="31.9999" y2="45.0177" gradientUnits="userSpaceOnUse">
<stop offset="0.693013" stop-color="white"/>
<stop offset="1" stop-color="white" stop-opacity="0"/>
</linearGradient>
<clipPath id="clip0">
<rect width="64" height="64" fill="white"/>
</clipPath>
</defs>
</svg>
