<svg width="64" height="64" viewBox="0 0 64 64" fill="none" xmlns="http://www.w3.org/2000/svg">
<path opacity="0.18" d="M1.89218 29.9634C3.14305 27.0347 5.02787 24.0321 6.7806 22.5784C8.53333 21.1248 30.1333 -6.04026e-05 40.1135 0C50.0936 6.04044e-05 48.3756 2.74894 52.0414 5.7171C56.5134 9.33596 60.3388 15.5356 61.0112 23.0227C61.4777 28.161 60.4507 33.4814 61.2632 38.5234C61.8848 42.3835 63.5466 45.7936 63.9247 49.7222C64.3599 54.2307 62.8781 59.021 60.2895 61.4765C57.7008 63.932 54.4312 64.0016 51.3604 63.8705C43.3064 63.5225 48.1663 61.1827 27.2165 63.7545C6.26667 66.3264 0.78925 47.8408 0.78925 47.8408C-0.448316 41.9428 -0.337945 35.183 1.89218 29.9634Z" fill="#6E71FF"/>
<path d="M20.3899 47.7727L19.6016 46.8161C20.1034 46.4016 20.635 45.9953 21.18 45.6082L21.8981 46.6186C21.3774 46.989 20.87 47.3773 20.3899 47.7727ZM23.4831 45.5704L22.8341 44.5132C23.396 44.1687 23.976 43.8387 24.5591 43.5324L25.1354 44.63C24.5772 44.9238 24.0208 45.2401 23.4831 45.5704ZM26.847 43.8022L26.3445 42.6689C26.9481 42.4012 27.5669 42.1509 28.1833 41.9251L28.6095 43.0893C28.0185 43.3058 27.4258 43.5455 26.847 43.8022ZM47.3436 42.5156C46.7266 42.3522 46.1012 42.2035 45.4856 42.0737L45.7411 40.8604C46.378 40.9948 47.0241 41.1483 47.661 41.3169L47.3436 42.5156ZM30.4143 42.4962L30.0667 41.306C30.7006 41.1208 31.3472 40.9551 31.9878 40.8137L32.2554 42.0246C31.6414 42.16 31.0222 42.3186 30.4143 42.4962ZM43.6081 41.7297C42.9784 41.6319 42.3421 41.5514 41.7161 41.49L41.8372 40.2561C42.4855 40.3197 43.1455 40.4033 43.7982 40.5044L43.6081 41.7297ZM34.1244 41.6753L33.9367 40.45C34.5856 40.3506 35.248 40.2713 35.9055 40.2144L36.012 41.4495C35.3819 41.5043 34.7468 41.5802 34.1244 41.6753ZM39.815 41.3602C39.1678 41.3351 38.5326 41.3323 37.9108 41.3451L37.883 40.1057C38.526 40.09 39.1884 40.0945 39.8634 40.1214L39.815 41.3602Z" fill="#6E71FF"/>
<path d="M20.3899 47.7727L19.6016 46.8161C20.1034 46.4016 20.635 45.9953 21.18 45.6082L21.8981 46.6186C21.3774 46.989 20.87 47.3773 20.3899 47.7727ZM23.4831 45.5704L22.8341 44.5132C23.396 44.1687 23.976 43.8387 24.5591 43.5324L25.1354 44.63C24.5772 44.9238 24.0208 45.2401 23.4831 45.5704ZM26.847 43.8022L26.3445 42.6689C26.9481 42.4012 27.5669 42.1509 28.1833 41.9251L28.6095 43.0893C28.0185 43.3058 27.4258 43.5455 26.847 43.8022ZM47.3436 42.5156C46.7266 42.3522 46.1012 42.2035 45.4856 42.0737L45.7411 40.8604C46.378 40.9948 47.0241 41.1483 47.661 41.3169L47.3436 42.5156ZM30.4143 42.4962L30.0667 41.306C30.7006 41.1208 31.3472 40.9551 31.9878 40.8137L32.2554 42.0246C31.6414 42.16 31.0222 42.3186 30.4143 42.4962ZM43.6081 41.7297C42.9784 41.6319 42.3421 41.5514 41.7161 41.49L41.8372 40.2561C42.4855 40.3197 43.1455 40.4033 43.7982 40.5044L43.6081 41.7297ZM34.1244 41.6753L33.9367 40.45C34.5856 40.3506 35.248 40.2713 35.9055 40.2144L36.012 41.4495C35.3819 41.5043 34.7468 41.5802 34.1244 41.6753ZM39.815 41.3602C39.1678 41.3351 38.5326 41.3323 37.9108 41.3451L37.883 40.1057C38.526 40.09 39.1884 40.0945 39.8634 40.1214L39.815 41.3602Z" fill="url(#paint0_linear)" fill-opacity="0.4"/>
<path d="M49.7695 43.6699C50.5489 41.0121 51.372 39.0939 52.0682 37.7593C52.5399 36.8551 53.4797 35.4862 54.2044 34.7685C55.6673 33.3202 56.4853 31.222 56.1873 28.9419C55.7843 25.8581 53.2488 23.3726 50.1585 23.0231C45.9917 22.5518 42.4614 25.7992 42.4614 29.8709C42.4614 31.782 43.2397 33.5108 44.4959 34.7593C45.2332 35.4921 46.1917 36.8908 46.6699 37.8139C47.36 39.1462 48.1715 41.0483 48.9402 43.6701C49.0621 44.0854 49.6478 44.0854 49.7695 43.6699Z" fill="#6E71FF"/>
<path d="M49.7695 43.6699C50.5489 41.0121 51.372 39.0939 52.0682 37.7593C52.5399 36.8551 53.4797 35.4862 54.2044 34.7685C55.6673 33.3202 56.4853 31.222 56.1873 28.9419C55.7843 25.8581 53.2488 23.3726 50.1585 23.0231C45.9917 22.5518 42.4614 25.7992 42.4614 29.8709C42.4614 31.782 43.2397 33.5108 44.4959 34.7593C45.2332 35.4921 46.1917 36.8908 46.6699 37.8139C47.36 39.1462 48.1715 41.0483 48.9402 43.6701C49.0621 44.0854 49.6478 44.0854 49.7695 43.6699Z" fill="url(#paint1_linear)"/>
<path d="M18.9222 50.2257C20.2588 46.4512 21.6357 43.8511 22.7327 42.1438C23.5491 40.8733 24.5906 39.7427 25.7365 38.7065C27.548 37.0687 28.6723 34.7922 28.6661 32.2587C28.6547 27.5594 24.5606 23.5363 19.4273 23.1878C13.7307 22.801 8.9176 26.8303 8.78426 31.9848C8.72155 34.4091 9.70611 36.6375 11.3601 38.3092C12.455 39.4158 13.4527 40.6018 14.2082 41.9234C15.2155 43.6851 16.4561 46.3529 17.5958 50.1915C17.7762 50.799 18.7106 50.8231 18.9222 50.2257Z" fill="#6E71FF"/>
<path d="M18.9222 50.2257C20.2588 46.4512 21.6357 43.8511 22.7327 42.1438C23.5491 40.8733 24.5906 39.7427 25.7365 38.7065C27.548 37.0687 28.6723 34.7922 28.6661 32.2587C28.6547 27.5594 24.5606 23.5363 19.4273 23.1878C13.7307 22.801 8.9176 26.8303 8.78426 31.9848C8.72155 34.4091 9.70611 36.6375 11.3601 38.3092C12.455 39.4158 13.4527 40.6018 14.2082 41.9234C15.2155 43.6851 16.4561 46.3529 17.5958 50.1915C17.7762 50.799 18.7106 50.8231 18.9222 50.2257Z" fill="url(#paint2_linear)"/>
<path d="M18.5396 48.6235C19.672 44.8111 20.8689 42.173 21.8312 40.4358C22.5473 39.143 23.4724 37.9844 24.4953 36.9177C26.1122 35.2314 27.0859 32.9238 27.0203 30.3883C26.8988 25.685 23.0619 21.7644 18.362 21.5484C13.1465 21.3088 8.84277 25.4663 8.84277 30.6289C8.84277 33.0569 9.79531 35.2618 11.3465 36.8922C12.3734 37.9714 13.3132 39.1327 14.035 40.4359C14.9972 42.1731 16.1942 44.8112 17.3266 48.6236C17.5058 49.227 18.3604 49.227 18.5396 48.6235Z" fill="#6E71FF"/>
<path d="M17.9349 36.7785C21.3151 36.7785 24.0554 34.0383 24.0554 30.6581C24.0554 27.2778 21.3151 24.5376 17.9349 24.5376C14.5547 24.5376 11.8145 27.2778 11.8145 30.6581C11.8145 34.0383 14.5547 36.7785 17.9349 36.7785Z" fill="url(#paint3_linear)"/>
<path d="M49.5246 42.2746C50.2468 39.8119 51.0094 38.0345 51.6545 36.7978C52.0916 35.9599 52.9624 34.6916 53.6339 34.0266C54.9895 32.6846 55.7474 30.7404 55.4713 28.6276C55.0979 25.7702 52.7485 23.4671 49.885 23.1433C46.0241 22.7066 42.7529 25.7156 42.7529 29.4884C42.7529 31.2592 43.4741 32.8612 44.6381 34.018C45.3213 34.697 46.2094 35.9931 46.6525 36.8484C47.292 38.0829 48.0439 39.8454 48.7562 42.2747C48.8691 42.6595 49.4118 42.6595 49.5246 42.2746Z" fill="#6E71FF"/>
<path d="M49.138 33.8092C51.5132 33.8092 53.4386 31.8838 53.4386 29.5086C53.4386 27.1335 51.5132 25.208 49.138 25.208C46.7628 25.208 44.8374 27.1335 44.8374 29.5086C44.8374 31.8838 46.7628 33.8092 49.138 33.8092Z" fill="#6E71FF"/>
<path d="M49.138 33.8092C51.5132 33.8092 53.4386 31.8838 53.4386 29.5086C53.4386 27.1335 51.5132 25.208 49.138 25.208C46.7628 25.208 44.8374 27.1335 44.8374 29.5086C44.8374 31.8838 46.7628 33.8092 49.138 33.8092Z" fill="url(#paint4_linear)"/>
<defs>
<linearGradient id="paint0_linear" x1="18.3439" y1="50.8776" x2="17.7438" y2="52.1778" gradientUnits="userSpaceOnUse">
<stop/>
<stop offset="1" stop-color="#828282" stop-opacity="0"/>
</linearGradient>
<linearGradient id="paint1_linear" x1="49.3548" y1="22.9775" x2="49.3548" y2="43.9815" gradientUnits="userSpaceOnUse">
<stop stop-color="white"/>
<stop offset="1" stop-color="white" stop-opacity="0"/>
</linearGradient>
<linearGradient id="paint2_linear" x1="17.5382" y1="12.9743" x2="18.0851" y2="50.6628" gradientUnits="userSpaceOnUse">
<stop stop-color="white"/>
<stop offset="1" stop-color="white" stop-opacity="0"/>
</linearGradient>
<linearGradient id="paint3_linear" x1="17.9349" y1="24.5376" x2="18.3439" y2="42.5267" gradientUnits="userSpaceOnUse">
<stop offset="0.627151" stop-color="white"/>
<stop offset="1" stop-color="white" stop-opacity="0"/>
</linearGradient>
<linearGradient id="paint4_linear" x1="49.138" y1="25.208" x2="49.1658" y2="40.2442" gradientUnits="userSpaceOnUse">
<stop offset="0.49559" stop-color="white"/>
<stop offset="1" stop-color="white" stop-opacity="0"/>
</linearGradient>
</defs>
</svg>
