<svg width="64" height="64" viewBox="0 0 64 64" fill="none" xmlns="http://www.w3.org/2000/svg">
<path opacity="0.18" d="M59.0821 54.5779C58.3345 55.1729 57.5182 55.6589 56.6541 56.0234C55.1583 56.6527 53.5649 56.9344 52.0298 57.4194C51.3484 57.6324 50.6797 57.8907 50.0236 58.1724C46.0504 59.8694 42.404 62.5611 38.2243 63.5436C30.4793 65.3779 22.9939 61.2077 15.5909 59.4393C9.24793 57.9278 4.09302 61.5416 1.53204 50.6069C0.461792 46.0547 -0.863031 41.2345 0.756901 36.8664C2.37683 32.4983 4.65791 28.4641 6.20312 24.0741C8.40947 17.8043 9.2264 10.5809 13.5682 5.79649C16.575 2.48366 20.8724 0.884272 25.1293 0.316791C29.3863 -0.250691 33.6964 0.113432 37.9824 0.132669C43.1449 0.150531 48.6443 -0.242446 53.109 2.5771C54.6835 3.58706 56.0407 4.95085 57.0893 6.57687C58.1379 8.2029 58.8536 10.0535 59.1884 12.0044C60.075 17.3893 57.97 22.9721 58.9161 28.3474C59.7939 33.3516 63.2224 37.5397 63.8925 42.5852C64.5004 47.1278 62.4815 51.893 59.0821 54.5779Z" fill="#6E71FF"/>
<path d="M44.8939 35.0307L43.871 26.3979L41.9542 26.643L41.955 26.6416L38.239 24.4689C37.8427 24.2371 37.3878 24.1363 36.9349 24.1798L31.0674 24.7436C30.3462 24.8129 29.7017 25.2405 29.3378 25.8912L25.2023 33.2866C24.8969 33.8326 25.1366 34.533 25.7053 34.7561L25.8745 34.8225C26.1999 34.9502 26.5344 35.0241 26.8687 35.0531L26.3447 35.5272L25.2963 36.4762L22.3147 39.1187C21.7839 39.5991 21.7287 40.4349 22.1911 40.9864L22.4936 41.3463C23.0873 42.0538 24.1208 42.1272 24.803 41.5102L25.9426 42.8682C26.3131 43.3102 26.8559 43.5058 27.3774 43.4391C27.6908 43.399 27.9966 43.2641 28.2519 43.032L29.3902 44.3901C29.7621 44.8333 30.3048 45.0275 30.8263 44.9608C31.1397 44.9207 31.4456 44.787 31.701 44.5551L32.3196 45.1105C32.9136 45.8192 33.9482 45.8925 34.6304 45.2754L35.4713 44.5132L42.5413 38.7925L42.5489 38.7852L45.3383 38.7824L44.8939 35.0307Z" fill="#E6C8D4"/>
<path d="M44.8939 35.0307L43.871 26.3979L41.9542 26.643L41.955 26.6416L38.239 24.4689C37.8427 24.2371 37.3878 24.1363 36.9349 24.1798L31.0674 24.7436C30.3462 24.8129 29.7017 25.2405 29.3378 25.8912L25.2023 33.2866C24.8969 33.8326 25.1366 34.533 25.7053 34.7561L25.8745 34.8225C26.1999 34.9502 26.5344 35.0241 26.8687 35.0531L26.3447 35.5272L25.2963 36.4762L22.3147 39.1187C21.7839 39.5991 21.7287 40.4349 22.1911 40.9864L22.4936 41.3463C23.0873 42.0538 24.1208 42.1272 24.803 41.5102L25.9426 42.8682C26.3131 43.3102 26.8559 43.5058 27.3774 43.4391C27.6908 43.399 27.9966 43.2641 28.2519 43.032L29.3902 44.3901C29.7621 44.8333 30.3048 45.0275 30.8263 44.9608C31.1397 44.9207 31.4456 44.787 31.701 44.5551L32.3196 45.1105C32.9136 45.8192 33.9482 45.8925 34.6304 45.2754L35.4713 44.5132L42.5413 38.7925L42.5489 38.7852L45.3383 38.7824L44.8939 35.0307Z" fill="url(#paint0_linear)"/>
<path d="M41.8639 36.561L41.8563 36.5683L34.7864 42.289L33.9454 43.0512C33.2633 43.6683 32.2286 43.595 31.6347 42.8863L31.016 42.3309C30.7606 42.5629 30.4547 42.6966 30.1413 42.7366C29.6199 42.8033 29.0772 42.6091 28.7053 42.1659L27.567 40.8078C27.3115 41.0398 27.0058 41.1748 26.6924 41.2149C26.1709 41.2816 25.6281 41.0861 25.2576 40.644L24.118 39.286C23.534 39.8143 22.6931 39.8349 22.0905 39.3862C21.7814 39.8704 21.8061 40.5267 22.1914 40.9863L22.4939 41.3462C23.0876 42.0536 24.1211 42.1271 24.8033 41.51L25.9429 42.868C26.3134 43.3101 26.8562 43.5056 27.3777 43.4389C27.6911 43.3989 27.9968 43.2639 28.2522 43.0319L29.3905 44.39C29.7624 44.8332 30.3051 45.0275 30.8266 44.9608C31.14 44.9207 31.4458 44.787 31.7013 44.555L32.3199 45.1105C32.9138 45.8191 33.9485 45.8924 34.6307 45.2754L35.4716 44.5131L42.5415 38.7924L42.5492 38.7852L45.3386 38.7823L45.03 36.1777L41.8639 36.561Z" fill="#D2B2C2"/>
<path d="M43.1515 40.2957L39.3636 36.9023L38.3102 35.9593L37.5564 35.2849L34.3157 32.3826L34.69 29.0725C34.8166 27.953 34.1383 26.9049 33.0926 26.6043L26.0283 24.5734C25.2808 24.3585 24.4908 24.7189 24.1372 25.436L23.2489 27.2377L19.4355 26.9688L18.4587 35.6075L18.0342 39.3616L21.7461 39.6181L21.7538 39.6254L29.5084 46.5701L30.3534 47.3276C31.0388 47.9407 32.0731 47.8615 32.6633 47.1494L33.7942 45.786C34.0508 46.0165 34.3575 46.1484 34.6711 46.1868C35.1929 46.2505 35.7346 46.0531 36.1041 45.6078L37.2352 44.2431C37.4918 44.4736 37.7983 44.6069 38.1119 44.6452C38.6337 44.7089 39.1755 44.5103 39.5437 44.066L40.6759 42.7014C41.3613 43.3146 42.3944 43.2352 42.9844 42.5243L43.285 42.1626C43.7444 41.6086 43.6848 40.773 43.1515 40.2957Z" fill="#E6C9D4"/>
<path d="M43.1515 40.2957L39.3636 36.9023L38.3102 35.9593L37.5564 35.2849L34.3157 32.3826L34.69 29.0725C34.8166 27.953 34.1383 26.9049 33.0926 26.6043L26.0283 24.5734C25.2808 24.3585 24.4908 24.7189 24.1372 25.436L23.2489 27.2377L19.4355 26.9688L18.4587 35.6075L18.0342 39.3616L21.7461 39.6181L21.7538 39.6254L29.5084 46.5701L30.3534 47.3276C31.0388 47.9407 32.0731 47.8615 32.6633 47.1494L33.7942 45.786C34.0508 46.0165 34.3575 46.1484 34.6711 46.1868C35.1929 46.2505 35.7346 46.0531 36.1041 45.6078L37.2352 44.2431C37.4918 44.4736 37.7983 44.6069 38.1119 44.6452C38.6337 44.7089 39.1755 44.5103 39.5437 44.066L40.6759 42.7014C41.3613 43.3146 42.3944 43.2352 42.9844 42.5243L43.285 42.1626C43.7444 41.6086 43.6848 40.773 43.1515 40.2957Z" fill="url(#paint1_linear)"/>
<path d="M43.1514 40.2953L41.9976 39.2617C42.3726 39.7784 42.3649 40.5133 41.9417 41.0237L41.6226 41.4077C40.9963 42.1622 39.8996 42.2466 39.172 41.5957L37.97 43.0442C37.5792 43.5158 37.0041 43.7266 36.4501 43.659C36.1172 43.6184 35.7918 43.4769 35.5194 43.2322L34.3186 44.6809C33.9264 45.1536 33.3514 45.3631 32.7975 45.2956C32.4646 45.2549 32.139 45.1148 31.8666 44.8701L30.666 46.3175C30.4398 46.5905 30.1518 46.7744 29.8423 46.8692L30.3534 47.3273C31.0388 47.9405 32.0731 47.8612 32.6632 47.1491L33.7941 45.7857C34.0508 46.0162 34.3574 46.1482 34.671 46.1865C35.1929 46.2502 35.7346 46.0528 36.104 45.6075L37.2351 44.2429C37.4917 44.4734 37.7982 44.6067 38.1119 44.6449C38.6337 44.7086 39.1755 44.51 39.5436 44.0657L40.6759 42.7012C41.3613 43.3143 42.3943 43.2349 42.9843 42.5241L43.2849 42.1623C43.7443 41.6083 43.6847 40.7727 43.1514 40.2953Z" fill="#E5C6D5"/>
<path d="M41.0594 42.2468L38.9838 40.3874C38.7373 40.1665 38.3647 40.1951 38.1519 40.4514C37.9392 40.7077 37.9668 41.0947 38.2135 41.3157L40.2854 43.1719L40.6759 42.7012C40.8318 42.8407 41.0062 42.9424 41.1887 43.011C41.3234 42.7618 41.2757 42.4406 41.0594 42.2468Z" fill="#E5C6D5"/>
<path d="M37.7407 44.552C37.8828 44.3015 37.8373 43.974 37.6179 43.7774L35.7534 42.1072C35.5066 41.8862 35.1343 41.9148 34.9214 42.1711C34.7087 42.4275 34.7363 42.8144 34.983 43.0355L36.8476 44.7057C36.8483 44.7063 36.8491 44.7069 36.8499 44.7076L37.2351 44.2428C37.3887 44.3808 37.5605 44.4832 37.7407 44.552Z" fill="#E5C6D5"/>
<path d="M21.9394 39.6091L21.4901 40.2255C21.0008 40.8968 21.1279 41.853 21.774 42.3614C22.42 42.8697 23.3404 42.7377 23.8298 42.0665L24.2791 41.45C24.7683 40.7788 24.6412 39.8225 23.9951 39.3141C23.3491 38.8058 22.4286 38.9379 21.9394 39.6091Z" fill="#E5C6D5"/>
<path d="M21.9394 39.6091L21.4901 40.2255C21.0008 40.8968 21.1279 41.853 21.774 42.3614C22.42 42.8697 23.3404 42.7377 23.8298 42.0665L24.2791 41.45C24.7683 40.7788 24.6412 39.8225 23.9951 39.3141C23.3491 38.8058 22.4286 38.9379 21.9394 39.6091Z" fill="url(#paint2_linear)" fill-opacity="0.85"/>
<path d="M24.676 40.9055L23.8299 42.0664C23.3406 42.7376 23.4677 43.6939 24.1138 44.2023C24.7599 44.7106 25.6803 44.5785 26.1696 43.9073L27.0157 42.7464C27.505 42.0752 27.3779 41.1189 26.7318 40.6105C26.0857 40.1022 25.1653 40.2343 24.676 40.9055Z" fill="#E5C6D5"/>
<path d="M24.676 40.9055L23.8299 42.0664C23.3406 42.7376 23.4677 43.6939 24.1138 44.2023C24.7599 44.7106 25.6803 44.5785 26.1696 43.9073L27.0157 42.7464C27.505 42.0752 27.3779 41.1189 26.7318 40.6105C26.0857 40.1022 25.1653 40.2343 24.676 40.9055Z" fill="url(#paint3_linear)" fill-opacity="0.85"/>
<path d="M27.3224 42.3255L26.1693 43.9075C25.68 44.5788 25.8071 45.535 26.4532 46.0434C27.0992 46.5517 28.0196 46.4197 28.509 45.7484L29.6621 44.1664C30.1514 43.4951 30.0243 42.5389 29.3782 42.0305C28.7322 41.5221 27.8118 41.6542 27.3224 42.3255Z" fill="#E5C6D5"/>
<path d="M27.3224 42.3255L26.1693 43.9075C25.68 44.5788 25.8071 45.535 26.4532 46.0434C27.0992 46.5517 28.0196 46.4197 28.509 45.7484L29.6621 44.1664C30.1514 43.4951 30.0243 42.5389 29.3782 42.0305C28.7322 41.5221 27.8118 41.6542 27.3224 42.3255Z" fill="url(#paint4_linear)" fill-opacity="0.85"/>
<path d="M29.7292 44.0745L28.5091 45.7483C28.0198 46.4195 28.1469 47.3758 28.793 47.8842C29.4391 48.3925 30.3595 48.2604 30.8488 47.5892L32.0689 45.9154C32.5582 45.2441 32.4311 44.2879 31.785 43.7795C31.1388 43.2712 30.2185 43.4032 29.7292 44.0745Z" fill="#E5C6D5"/>
<path d="M29.7292 44.0745L28.5091 45.7483C28.0198 46.4195 28.1469 47.3758 28.793 47.8842C29.4391 48.3925 30.3595 48.2604 30.8488 47.5892L32.0689 45.9154C32.5582 45.2441 32.4311 44.2879 31.785 43.7795C31.1388 43.2712 30.2185 43.4032 29.7292 44.0745Z" fill="url(#paint5_linear)" fill-opacity="0.85"/>
<path d="M41.9551 26.6416L38.2391 24.4689C37.8427 24.2371 37.3878 24.1363 36.9349 24.1798L31.0675 24.7436C30.3462 24.8129 29.7017 25.2405 29.3379 25.8912L25.2024 33.2866C24.897 33.8327 25.1367 34.533 25.7054 34.7561L25.8745 34.8225C27.3904 35.4173 29.1024 34.9111 30.0896 33.5762L31.6741 31.4338C31.6741 31.4338 35.4828 36.0155 39.6762 30.6649" fill="#EECBC9"/>
<path d="M41.9551 26.6416L38.2391 24.4689C37.8427 24.2371 37.3878 24.1363 36.9349 24.1798L31.0675 24.7436C30.3462 24.8129 29.7017 25.2405 29.3379 25.8912L25.2024 33.2866C24.897 33.8327 25.1367 34.533 25.7054 34.7561L25.8745 34.8225C27.3904 35.4173 29.1024 34.9111 30.0896 33.5762L31.6741 31.4338C31.6741 31.4338 35.4828 36.0155 39.6762 30.6649" fill="url(#paint6_linear)" fill-opacity="0.73"/>
<path d="M52.2619 39.9368L50.3183 23.5335C50.2992 23.3722 50.2192 23.2254 50.0959 23.1254C49.9726 23.0253 49.8162 22.9804 49.6608 23.0002L45.1161 23.5815C43.9357 23.7325 43.0936 24.853 43.239 26.0793L44.7996 39.2509C44.9339 40.3848 45.866 41.2182 46.9388 41.2182C47.0262 41.2182 47.1149 41.2126 47.2038 41.2012L51.7486 40.62C52.0718 40.5785 52.3017 40.2727 52.2619 39.9368Z" fill="#6E71FF"/>
<path d="M52.2619 39.9368L50.3183 23.5335C50.2992 23.3722 50.2192 23.2254 50.0959 23.1254C49.9726 23.0253 49.8162 22.9804 49.6608 23.0002L45.1161 23.5815C43.9357 23.7325 43.0936 24.853 43.239 26.0793L44.7996 39.2509C44.9339 40.3848 45.866 41.2182 46.9388 41.2182C47.0262 41.2182 47.1149 41.2126 47.2038 41.2012L51.7486 40.62C52.0718 40.5785 52.3017 40.2727 52.2619 39.9368Z" fill="url(#paint7_linear)"/>
<path d="M52.262 39.9366L52.0486 38.1361C51.9519 38.2836 51.7974 38.389 51.6136 38.4125L46.8495 39.0218C46.7562 39.0338 46.6633 39.0396 46.5716 39.0396C45.7694 39.0396 45.0427 38.5949 44.6406 37.9087L44.7996 39.2507C44.934 40.3846 45.866 41.2179 46.9388 41.2179C47.0263 41.2179 47.1149 41.2124 47.2038 41.201L51.7486 40.6197C52.0719 40.5784 52.3018 40.2726 52.262 39.9366Z" fill="#6E71FF"/>
<path d="M52.262 39.9366L52.0486 38.1361C51.9519 38.2836 51.7974 38.389 51.6136 38.4125L46.8495 39.0218C46.7562 39.0338 46.6633 39.0396 46.5716 39.0396C45.7694 39.0396 45.0427 38.5949 44.6406 37.9087L44.7996 39.2507C44.934 40.3846 45.866 41.2179 46.9388 41.2179C47.0263 41.2179 47.1149 41.2124 47.2038 41.201L51.7486 40.6197C52.0719 40.5784 52.3018 40.2726 52.262 39.9366Z" fill="url(#paint8_linear)"/>
<path d="M19.1503 23.5815L14.6055 23.0002C14.45 22.9803 14.2938 23.0254 14.1705 23.1254C14.0471 23.2254 13.9672 23.3722 13.948 23.5335L12.0045 39.9369C11.9647 40.2728 12.1946 40.5786 12.5178 40.62L17.0626 41.2013C17.1516 41.2126 17.2401 41.2182 17.3276 41.2182C18.4003 41.2182 19.3324 40.3848 19.4668 39.2509L21.0274 26.0793C21.1727 24.853 20.3307 23.7325 19.1503 23.5815Z" fill="#6E71FF"/>
<path d="M19.1503 23.5815L14.6055 23.0002C14.45 22.9803 14.2938 23.0254 14.1705 23.1254C14.0471 23.2254 13.9672 23.3722 13.948 23.5335L12.0045 39.9369C11.9647 40.2728 12.1946 40.5786 12.5178 40.62L17.0626 41.2013C17.1516 41.2126 17.2401 41.2182 17.3276 41.2182C18.4003 41.2182 19.3324 40.3848 19.4668 39.2509L21.0274 26.0793C21.1727 24.853 20.3307 23.7325 19.1503 23.5815Z" fill="url(#paint9_linear)"/>
<path d="M12.0045 39.9366L12.2178 38.1361C12.3146 38.2836 12.469 38.389 12.6529 38.4125L17.417 39.0218C17.5103 39.0338 17.6032 39.0396 17.6949 39.0396C18.4971 39.0396 19.2238 38.5949 19.6259 37.9087L19.4668 39.2507C19.3325 40.3846 18.4005 41.2179 17.3277 41.2179C17.2402 41.2179 17.1516 41.2124 17.0626 41.201L12.5179 40.6197C12.1945 40.5784 11.9647 40.2726 12.0045 39.9366Z" fill="#6E71FF"/>
<path d="M12.0045 39.9366L12.2178 38.1361C12.3146 38.2836 12.469 38.389 12.6529 38.4125L17.417 39.0218C17.5103 39.0338 17.6032 39.0396 17.6949 39.0396C18.4971 39.0396 19.2238 38.5949 19.6259 37.9087L19.4668 39.2507C19.3325 40.3846 18.4005 41.2179 17.3277 41.2179C17.2402 41.2179 17.1516 41.2124 17.0626 41.201L12.5179 40.6197C12.1945 40.5784 11.9647 40.2726 12.0045 39.9366Z" fill="url(#paint10_linear)"/>
<path d="M48.5157 37.4732C49.1454 37.4732 49.6559 36.9429 49.6559 36.2886C49.6559 35.6344 49.1454 35.104 48.5157 35.104C47.886 35.104 47.3755 35.6344 47.3755 36.2886C47.3755 36.9429 47.886 37.4732 48.5157 37.4732Z" fill="white"/>
<path d="M15.7354 37.4732C16.3651 37.4732 16.8756 36.9429 16.8756 36.2886C16.8756 35.6344 16.3651 35.104 15.7354 35.104C15.1057 35.104 14.5952 35.6344 14.5952 36.2886C14.5952 36.9429 15.1057 37.4732 15.7354 37.4732Z" fill="white"/>
<defs>
<linearGradient id="paint0_linear" x1="31.1892" y1="18.8438" x2="44.2788" y2="44.967" gradientUnits="userSpaceOnUse">
<stop stop-color="#F2BE8E"/>
<stop offset="1" stop-color="#FFDDDD" stop-opacity="0"/>
</linearGradient>
<linearGradient id="paint1_linear" x1="23.2069" y1="22.4803" x2="42.7236" y2="50.7173" gradientUnits="userSpaceOnUse">
<stop stop-color="#FFD7B3"/>
<stop offset="1" stop-color="white" stop-opacity="0"/>
</linearGradient>
<linearGradient id="paint2_linear" x1="22.8846" y1="39.0049" x2="22.8846" y2="42.6707" gradientUnits="userSpaceOnUse">
<stop stop-color="#FDDBC8"/>
<stop offset="1" stop-color="#FFEDC9" stop-opacity="0"/>
</linearGradient>
<linearGradient id="paint3_linear" x1="25.4228" y1="40.3013" x2="25.4228" y2="44.5115" gradientUnits="userSpaceOnUse">
<stop stop-color="#FDDBC8"/>
<stop offset="1" stop-color="#FFEDC9" stop-opacity="0"/>
</linearGradient>
<linearGradient id="paint4_linear" x1="27.9157" y1="41.7212" x2="27.9157" y2="46.3527" gradientUnits="userSpaceOnUse">
<stop stop-color="#FDDBC8"/>
<stop offset="1" stop-color="#FFEDC9" stop-opacity="0"/>
</linearGradient>
<linearGradient id="paint5_linear" x1="30.289" y1="43.4702" x2="30.289" y2="48.1934" gradientUnits="userSpaceOnUse">
<stop stop-color="#FDDBC8"/>
<stop offset="1" stop-color="#FFEDC9" stop-opacity="0"/>
</linearGradient>
<linearGradient id="paint6_linear" x1="33.512" y1="24.1699" x2="33.512" y2="35.0692" gradientUnits="userSpaceOnUse">
<stop stop-color="#FFE092"/>
<stop offset="1" stop-color="#FFC9C9" stop-opacity="0"/>
</linearGradient>
<linearGradient id="paint7_linear" x1="47.7445" y1="22.9956" x2="47.7445" y2="41.2182" gradientUnits="userSpaceOnUse">
<stop stop-color="#1B1B1B"/>
<stop offset="1" stop-color="#606060" stop-opacity="0"/>
</linearGradient>
<linearGradient id="paint8_linear" x1="48.4536" y1="37.9087" x2="48.4536" y2="41.2179" gradientUnits="userSpaceOnUse">
<stop stop-color="#303030"/>
<stop offset="1" stop-color="#2C2C2C" stop-opacity="0"/>
</linearGradient>
<linearGradient id="paint9_linear" x1="16.5219" y1="22.9956" x2="16.4797" y2="48.7905" gradientUnits="userSpaceOnUse">
<stop stop-color="#0E0E0E"/>
<stop offset="1" stop-color="white" stop-opacity="0"/>
<stop offset="1" stop-color="#434343" stop-opacity="0"/>
</linearGradient>
<linearGradient id="paint10_linear" x1="15.8129" y1="37.9087" x2="15.8129" y2="41.2179" gradientUnits="userSpaceOnUse">
<stop stop-color="#494949"/>
<stop offset="1" stop-color="#2E2E2E" stop-opacity="0"/>
</linearGradient>
</defs>
</svg>
