<svg width="64" height="64" viewBox="0 0 64 64" fill="none" xmlns="http://www.w3.org/2000/svg">
<path opacity="0.18" d="M4.91793 54.5779C5.6655 55.1729 6.4818 55.6589 7.34594 56.0234C8.84174 56.6527 10.4351 56.9344 11.9701 57.4194C12.6516 57.6324 13.3203 57.8907 13.9764 58.1724C17.9496 59.8694 21.596 62.5611 25.7757 63.5436C33.5207 65.3779 41.0061 61.2077 48.4091 59.4393C54.7521 57.9278 59.907 61.5416 62.468 50.6069C63.5382 46.0547 64.863 41.2345 63.2431 36.8664C61.6232 32.4984 59.3421 28.4641 57.7969 24.0741C55.5905 17.8043 54.7736 10.5809 50.4318 5.79649C47.425 2.48366 43.1276 0.884272 38.8707 0.316791C34.6137 -0.250691 30.3036 0.113432 26.0176 0.132669C20.8551 0.150531 15.3557 -0.242446 10.891 2.5771C9.31645 3.58706 7.95929 4.95085 6.91069 6.57687C5.86211 8.2029 5.14636 10.0535 4.81155 12.0044C3.92495 17.3893 6.02998 22.9721 5.08386 28.3474C4.20613 33.3516 0.777554 37.5397 0.107544 42.5852C-0.500404 47.1278 1.51848 51.893 4.91793 54.5779Z" fill="#6E71FF"/>
<path d="M31.8462 50.769C41.7873 50.769 49.8462 42.7102 49.8462 32.769C49.8462 22.8279 41.7873 14.769 31.8462 14.769C21.9051 14.769 13.8462 22.8279 13.8462 32.769C13.8462 42.7102 21.9051 50.769 31.8462 50.769Z" fill="#6E71FF"/>
<path d="M49.8462 32.769C49.8462 22.8438 41.7714 14.769 31.8462 14.769V50.769C41.7714 50.769 49.8462 42.6943 49.8462 32.769Z" fill="#6E71FF"/>
<path d="M49.8462 32.769C49.8462 22.8438 41.7714 14.769 31.8462 14.769V50.769C41.7714 50.769 49.8462 42.6943 49.8462 32.769Z" fill="url(#paint0_linear)" fill-opacity="0.5"/>
<path d="M31.8463 28.1755C30.0189 28.1755 28.5322 26.6888 28.5322 24.8614C28.5322 23.0341 30.0189 21.5474 31.8463 21.5474C33.6736 21.5474 35.1603 23.0341 35.1603 24.8614C35.1603 26.6888 33.6736 28.1755 31.8463 28.1755Z" fill="url(#paint1_linear)"/>
<path d="M31.8463 30.5845C30.0189 30.5845 28.5322 32.0712 28.5322 33.8985V40.6766C28.5322 42.504 30.0189 43.9907 31.8463 43.9907C33.6736 43.9907 35.1603 42.504 35.1603 40.6766V33.8985C35.1603 32.0711 33.6736 30.5845 31.8463 30.5845Z" fill="url(#paint2_linear)"/>
<path d="M35.1602 24.8614C35.1602 23.0341 33.6735 21.5474 31.8462 21.5474V28.1755C33.6735 28.1755 35.1602 26.6888 35.1602 24.8614Z" fill="#6E71FF"/>
<path d="M35.1602 24.8614C35.1602 23.0341 33.6735 21.5474 31.8462 21.5474V28.1755C33.6735 28.1755 35.1602 26.6888 35.1602 24.8614Z" fill="url(#paint3_linear)"/>
<path d="M35.1602 40.6771V33.899C35.1602 32.0716 33.6735 30.585 31.8462 30.585V43.9912C33.6735 43.9912 35.1602 42.5045 35.1602 40.6771Z" fill="#6E71FF"/>
<path d="M35.1602 40.6771V33.899C35.1602 32.0716 33.6735 30.585 31.8462 30.585V43.9912C33.6735 43.9912 35.1602 42.5045 35.1602 40.6771Z" fill="url(#paint4_linear)"/>
<defs>
<linearGradient id="paint0_linear" x1="40.8462" y1="8.65186" x2="40.8462" y2="62.2651" gradientUnits="userSpaceOnUse">
<stop/>
<stop offset="1" stop-opacity="0"/>
</linearGradient>
<linearGradient id="paint1_linear" x1="31.8463" y1="28.656" x2="31.8463" y2="32.8747" gradientUnits="userSpaceOnUse">
<stop stop-color="white"/>
<stop offset="1" stop-color="white" stop-opacity="0"/>
</linearGradient>
<linearGradient id="paint2_linear" x1="31.8463" y1="43.9837" x2="31.8463" y2="43.9907" gradientUnits="userSpaceOnUse">
<stop stop-color="white"/>
<stop offset="1" stop-color="white" stop-opacity="0"/>
</linearGradient>
<linearGradient id="paint3_linear" x1="33.5337" y1="20.0778" x2="33.5337" y2="34.9841" gradientUnits="userSpaceOnUse">
<stop stop-color="white"/>
<stop offset="1" stop-color="white" stop-opacity="0"/>
</linearGradient>
<linearGradient id="paint4_linear" x1="33.5337" y1="28.656" x2="33.5337" y2="54.4607" gradientUnits="userSpaceOnUse">
<stop stop-color="white"/>
<stop offset="1" stop-color="white" stop-opacity="0"/>
</linearGradient>
</defs>
</svg>
