<svg width="64" height="64" viewBox="0 0 64 64" fill="none" xmlns="http://www.w3.org/2000/svg">
<path opacity="0.18" d="M1.89218 29.9634C3.14305 27.0347 5.02787 24.0321 6.7806 22.5784C8.53333 21.1248 30.1333 -6.04026e-05 40.1135 0C50.0936 6.04044e-05 48.3756 2.74894 52.0414 5.7171C56.5134 9.33596 60.3388 15.5356 61.0112 23.0227C61.4777 28.161 60.4507 33.4814 61.2632 38.5234C61.8848 42.3835 63.5466 45.7936 63.9247 49.7222C64.3599 54.2307 62.8781 59.021 60.2895 61.4765C57.7008 63.932 54.4312 64.0016 51.3604 63.8705C43.3064 63.5225 48.1663 61.1827 27.2165 63.7545C6.26667 66.3264 0.78925 47.8408 0.78925 47.8408C-0.448316 41.9428 -0.337945 35.183 1.89218 29.9634Z" fill="#6E71FF"/>
<path d="M33.1943 21.104L40.5896 23.2583L32.6972 50.3526L24.5283 47.0952L33.1943 21.104Z" fill="#6E71FF"/>
<path d="M33.1943 21.104L40.5896 23.2583L32.6972 50.3526L24.5283 47.0952L33.1943 21.104Z" fill="url(#paint0_linear)" fill-opacity="0.5"/>
<path d="M33.9238 44.7153L33.6545 45.6398L30.4191 44.6973C30.1638 44.6229 30.0171 44.3557 30.0915 44.1004C30.1659 43.8451 30.4331 43.6985 30.6884 43.7728L33.9238 44.7153Z" fill="#6E71FF"/>
<path d="M33.9238 44.7153L33.6545 45.6398L30.4191 44.6973C30.1638 44.6229 30.0171 44.3557 30.0915 44.1004C30.1659 43.8451 30.4331 43.6985 30.6884 43.7728L33.9238 44.7153Z" fill="url(#paint1_linear)"/>
<path d="M35.5396 39.1689L35.2703 40.0934L32.0348 39.1509C31.7795 39.0765 31.6329 38.8093 31.7072 38.554C31.7816 38.2988 32.0488 38.1521 32.3041 38.2265L35.5396 39.1689Z" fill="#6E71FF"/>
<path d="M35.5396 39.1689L35.2703 40.0934L32.0348 39.1509C31.7795 39.0765 31.6329 38.8093 31.7072 38.554C31.7816 38.2988 32.0488 38.1521 32.3041 38.2265L35.5396 39.1689Z" fill="url(#paint2_linear)"/>
<path d="M37.1553 33.6226L36.886 34.547L33.6505 33.6045C33.3953 33.5301 33.2486 33.2629 33.323 33.0076C33.3973 32.7524 33.6645 32.6057 33.9198 32.6801L37.1553 33.6226Z" fill="#6E71FF"/>
<path d="M37.1553 33.6226L36.886 34.547L33.6505 33.6045C33.3953 33.5301 33.2486 33.2629 33.323 33.0076C33.3973 32.7524 33.6645 32.6057 33.9198 32.6801L37.1553 33.6226Z" fill="url(#paint3_linear)"/>
<path d="M34.7319 41.9419L34.4627 42.8663L33.076 42.4624C32.8208 42.388 32.6741 42.1208 32.7485 41.8655C32.8228 41.6103 33.09 41.4636 33.3453 41.538L34.7319 41.9419Z" fill="#6E71FF"/>
<path d="M34.7319 41.9419L34.4627 42.8663L33.076 42.4624C32.8208 42.388 32.6741 42.1208 32.7485 41.8655C32.8228 41.6103 33.09 41.4636 33.3453 41.538L34.7319 41.9419Z" fill="url(#paint4_linear)"/>
<path d="M36.3477 36.3955L36.0784 37.3199L34.6917 36.916C34.4365 36.8417 34.2898 36.5744 34.3642 36.3192C34.4385 36.0639 34.7058 35.9172 34.961 35.9916L36.3477 36.3955Z" fill="#6E71FF"/>
<path d="M36.3477 36.3955L36.0784 37.3199L34.6917 36.916C34.4365 36.8417 34.2898 36.5744 34.3642 36.3192C34.4385 36.0639 34.7058 35.9172 34.961 35.9916L36.3477 36.3955Z" fill="url(#paint5_linear)"/>
<path d="M38.2324 29.9248L37.9631 30.8492L36.5765 30.4453C36.3212 30.3709 36.1746 30.1037 36.2489 29.8485C36.3233 29.5932 36.5905 29.4465 36.8458 29.5209L38.2324 29.9248Z" fill="#6E71FF"/>
<path d="M38.2324 29.9248L37.9631 30.8492L36.5765 30.4453C36.3212 30.3709 36.1746 30.1037 36.2489 29.8485C36.3233 29.5932 36.5905 29.4465 36.8458 29.5209L38.2324 29.9248Z" fill="url(#paint6_linear)"/>
<path d="M37.3472 16.2656L40.5731 23.2603L13.6874 35.6601L10.4614 28.6655L37.3472 16.2656Z" fill="#6E71FF"/>
<path d="M23.0864 31.3252L22.2121 31.7284L20.8007 28.6683C20.6894 28.4268 20.7948 28.1408 21.0363 28.0295C21.2777 27.9181 21.5637 28.0236 21.6751 28.265L23.0864 31.3252Z" fill="#6E71FF"/>
<path d="M23.0864 31.3252L22.2121 31.7284L20.8007 28.6683C20.6894 28.4268 20.7948 28.1408 21.0363 28.0295C21.2777 27.9181 21.5637 28.0236 21.6751 28.265L23.0864 31.3252Z" fill="url(#paint7_linear)"/>
<path d="M17.4033 33.9463L16.529 34.3495L15.1176 31.2894C15.0063 31.0479 15.1117 30.7619 15.3532 30.6506C15.5946 30.5392 15.8806 30.6447 15.992 30.8861L17.4033 33.9463Z" fill="url(#paint8_linear)"/>
<path d="M28.3325 28.9058L27.4582 29.309L26.0468 26.2488C25.9355 26.0074 26.0409 25.7214 26.2824 25.6101C26.5238 25.4987 26.8098 25.6042 26.9212 25.8456L28.3325 28.9058Z" fill="#6E71FF"/>
<path d="M28.3325 28.9058L27.4582 29.309L26.0468 26.2488C25.9355 26.0074 26.0409 25.7214 26.2824 25.6101C26.5238 25.4987 26.8098 25.6042 26.9212 25.8456L28.3325 28.9058Z" fill="url(#paint9_linear)"/>
<path d="M33.5786 26.4863L32.7043 26.8896L31.2929 23.8294C31.1816 23.588 31.287 23.302 31.5285 23.1906C31.7699 23.0793 32.0559 23.1847 32.1672 23.4262L33.5786 26.4863Z" fill="#6E71FF"/>
<path d="M33.5786 26.4863L32.7043 26.8896L31.2929 23.8294C31.1816 23.588 31.287 23.302 31.5285 23.1906C31.7699 23.0793 32.0559 23.1847 32.1672 23.4262L33.5786 26.4863Z" fill="url(#paint10_linear)"/>
<path d="M25.7095 30.1152L24.8351 30.5185L24.2303 29.207C24.1189 28.9655 24.2244 28.6795 24.4658 28.5682C24.7073 28.4568 24.9932 28.5623 25.1046 28.8037L25.7095 30.1152Z" fill="#6E71FF"/>
<path d="M25.7095 30.1152L24.8351 30.5185L24.2303 29.207C24.1189 28.9655 24.2244 28.6795 24.4658 28.5682C24.7073 28.4568 24.9932 28.5623 25.1046 28.8037L25.7095 30.1152Z" fill="url(#paint11_linear)"/>
<path d="M20.2451 32.6357L19.3708 33.039L18.7659 31.7275C18.6546 31.486 18.76 31.2 19.0015 31.0887C19.2429 30.9773 19.5289 31.0828 19.6402 31.3242L20.2451 32.6357Z" fill="url(#paint12_linear)"/>
<path d="M30.9556 27.6958L30.0812 28.099L29.4764 26.7875C29.365 26.5461 29.4705 26.2601 29.7119 26.1488C29.9533 26.0374 30.2393 26.1429 30.3507 26.3843L30.9556 27.6958Z" fill="#6E71FF"/>
<path d="M30.9556 27.6958L30.0812 28.099L29.4764 26.7875C29.365 26.5461 29.4705 26.2601 29.7119 26.1488C29.9533 26.0374 30.2393 26.1429 30.3507 26.3843L30.9556 27.6958Z" fill="url(#paint13_linear)"/>
<path d="M37.0762 24.873L36.2018 25.2763L35.597 23.9648C35.4856 23.7233 35.5911 23.4374 35.8325 23.326C36.074 23.2146 36.36 23.3201 36.4713 23.5615L37.0762 24.873Z" fill="#6E71FF"/>
<path d="M37.0762 24.873L36.2018 25.2763L35.597 23.9648C35.4856 23.7233 35.5911 23.4374 35.8325 23.326C36.074 23.2146 36.36 23.3201 36.4713 23.5615L37.0762 24.873Z" fill="url(#paint14_linear)"/>
<path d="M24.5283 47.0952L27.7543 54.0899L55.2958 41.3876L52.0698 34.393L24.5283 47.0952Z" fill="#6E71FF"/>
<path d="M45.2407 46.0249L46.1151 45.6217L44.7037 42.5615C44.5923 42.3201 44.3063 42.2146 44.0649 42.326C43.8235 42.4373 43.718 42.7233 43.8294 42.9647L45.2407 46.0249Z" fill="#6E71FF"/>
<path d="M45.2407 46.0249L46.1151 45.6217L44.7037 42.5615C44.5923 42.3201 44.3063 42.2146 44.0649 42.326C43.8235 42.4373 43.718 42.7233 43.8294 42.9647L45.2407 46.0249Z" fill="url(#paint15_linear)"/>
<path d="M50.4863 43.6055L51.3607 43.2022L49.9493 40.1421C49.8379 39.9006 49.5519 39.7952 49.3105 39.9065C49.0691 40.0179 48.9636 40.3039 49.075 40.5453L50.4863 43.6055Z" fill="url(#paint16_linear)"/>
<path d="M39.9946 48.4443L40.869 48.0411L39.4576 44.9809C39.3462 44.7395 39.0603 44.634 38.8188 44.7454C38.5774 44.8567 38.4719 45.1427 38.5833 45.3842L39.9946 48.4443Z" fill="#6E71FF"/>
<path d="M39.7764 48.5454L40.6507 48.1422L39.2393 45.082C39.128 44.8406 38.842 44.7351 38.6006 44.8465C38.3591 44.9578 38.2537 45.2438 38.365 45.4853L39.7764 48.5454Z" fill="url(#paint17_linear)"/>
<path d="M34.7485 50.8643L35.6229 50.461L34.2115 47.4008C34.1002 47.1594 33.8142 47.0539 33.5727 47.1653C33.3313 47.2767 33.2258 47.5626 33.3372 47.8041L34.7485 50.8643Z" fill="#6E71FF"/>
<path d="M34.0928 51.1665L34.9671 50.7633L33.5557 47.7031C33.4444 47.4616 33.1584 47.3562 32.917 47.4675C32.6755 47.5789 32.5701 47.8649 32.6814 48.1063L34.0928 51.1665Z" fill="url(#paint18_linear)"/>
<path d="M42.6177 47.2349L43.492 46.8316L42.8871 45.5201C42.7758 45.2787 42.4898 45.1732 42.2484 45.2846C42.0069 45.3959 41.9015 45.6819 42.0128 45.9234L42.6177 47.2349Z" fill="#6E71FF"/>
<path d="M42.6177 47.2349L43.492 46.8316L42.8871 45.5201C42.7758 45.2787 42.4898 45.1732 42.2484 45.2846C42.0069 45.3959 41.9015 45.6819 42.0128 45.9234L42.6177 47.2349Z" fill="url(#paint19_linear)"/>
<path d="M47.8638 44.8154L48.7381 44.4122L48.1332 43.1007C48.0219 42.8592 47.7359 42.7538 47.4944 42.8651C47.253 42.9765 47.1476 43.2625 47.2589 43.5039L47.8638 44.8154Z" fill="url(#paint20_linear)"/>
<path d="M53.1094 42.396L53.9837 41.9927L53.3788 40.6812C53.2675 40.4398 52.9815 40.3343 52.74 40.4457C52.4986 40.5571 52.3931 40.8431 52.5045 41.0845L53.1094 42.396Z" fill="url(#paint21_linear)"/>
<path d="M37.3716 49.6543L38.2459 49.251L37.641 47.9395C37.5297 47.6981 37.2437 47.5927 37.0023 47.704C36.7608 47.8154 36.6554 48.1014 36.7667 48.3428L37.3716 49.6543Z" fill="#6E71FF"/>
<path d="M37.1528 49.7554L38.0272 49.3521L37.4223 48.0406C37.3109 47.7992 37.0249 47.6937 36.7835 47.8051C36.5421 47.9164 36.4366 48.2024 36.548 48.4439L37.1528 49.7554Z" fill="url(#paint22_linear)"/>
<path d="M31.2515 52.4771L32.1258 52.0738L31.5209 50.7623C31.4096 50.5209 31.1236 50.4154 30.8821 50.5268C30.6407 50.6381 30.5352 50.9241 30.6466 51.1655L31.2515 52.4771Z" fill="#6E71FF"/>
<path d="M31.2515 52.4771L32.1258 52.0738L31.5209 50.7623C31.4096 50.5209 31.1236 50.4154 30.8821 50.5268C30.6407 50.6381 30.5352 50.9241 30.6466 51.1655L31.2515 52.4771Z" fill="url(#paint23_linear)"/>
<defs>
<linearGradient id="paint0_linear" x1="38.2332" y1="18.5435" x2="19.9302" y2="61.6599" gradientUnits="userSpaceOnUse">
<stop stop-color="#3D3D3D"/>
<stop offset="1" stop-opacity="0"/>
</linearGradient>
<linearGradient id="paint1_linear" x1="34.7136" y1="45.4468" x2="28.8204" y2="43.7302" gradientUnits="userSpaceOnUse">
<stop stop-color="#242424"/>
<stop offset="1" stop-opacity="0"/>
</linearGradient>
<linearGradient id="paint2_linear" x1="36.2138" y1="39.8668" x2="29.8921" y2="37.8999" gradientUnits="userSpaceOnUse">
<stop stop-color="#242424"/>
<stop offset="1" stop-opacity="0"/>
</linearGradient>
<linearGradient id="paint3_linear" x1="37.7139" y1="34.2867" x2="31.9363" y2="32.6037" gradientUnits="userSpaceOnUse">
<stop stop-color="#242424"/>
<stop offset="1" stop-opacity="0"/>
</linearGradient>
<linearGradient id="paint4_linear" x1="35.1751" y1="42.5724" x2="31.7085" y2="41.5626" gradientUnits="userSpaceOnUse">
<stop stop-color="#242424"/>
<stop offset="1" stop-opacity="0"/>
</linearGradient>
<linearGradient id="paint5_linear" x1="37.1374" y1="37.127" x2="32.9775" y2="35.9152" gradientUnits="userSpaceOnUse">
<stop stop-color="#242424"/>
<stop offset="1" stop-opacity="0"/>
</linearGradient>
<linearGradient id="paint6_linear" x1="38.3289" y1="30.4543" x2="35.5556" y2="29.6465" gradientUnits="userSpaceOnUse">
<stop stop-color="#242424"/>
<stop offset="1" stop-opacity="0"/>
</linearGradient>
<linearGradient id="paint7_linear" x1="23.0525" y1="32.4012" x2="20.4818" y2="26.8273" gradientUnits="userSpaceOnUse">
<stop stop-color="#242424"/>
<stop offset="1" stop-opacity="0"/>
</linearGradient>
<linearGradient id="paint8_linear" x1="17.3694" y1="35.0222" x2="14.7987" y2="29.4484" gradientUnits="userSpaceOnUse">
<stop stop-color="#242424"/>
<stop offset="1" stop-opacity="0"/>
</linearGradient>
<linearGradient id="paint9_linear" x1="28.2482" y1="29.8724" x2="25.5852" y2="23.811" gradientUnits="userSpaceOnUse">
<stop stop-color="#242424"/>
<stop offset="1" stop-opacity="0"/>
</linearGradient>
<linearGradient id="paint10_linear" x1="33.4439" y1="27.3437" x2="30.9236" y2="21.8791" gradientUnits="userSpaceOnUse">
<stop stop-color="#242424"/>
<stop offset="1" stop-opacity="0"/>
</linearGradient>
<linearGradient id="paint11_linear" x1="25.5243" y1="30.8633" x2="24.0122" y2="27.5846" gradientUnits="userSpaceOnUse">
<stop stop-color="#242424"/>
<stop offset="1" stop-opacity="0"/>
</linearGradient>
<linearGradient id="paint12_linear" x1="20.06" y1="33.3838" x2="18.5478" y2="30.1051" gradientUnits="userSpaceOnUse">
<stop stop-color="#242424"/>
<stop offset="1" stop-opacity="0"/>
</linearGradient>
<linearGradient id="paint13_linear" x1="30.9216" y1="28.7718" x2="29.107" y2="24.8373" gradientUnits="userSpaceOnUse">
<stop stop-color="#242424"/>
<stop offset="1" stop-opacity="0"/>
</linearGradient>
<linearGradient id="paint14_linear" x1="36.7398" y1="25.2933" x2="35.5301" y2="22.6703" gradientUnits="userSpaceOnUse">
<stop stop-color="#242424"/>
<stop offset="1" stop-opacity="0"/>
</linearGradient>
<linearGradient id="paint15_linear" x1="46.0811" y1="46.6976" x2="43.5105" y2="41.1237" gradientUnits="userSpaceOnUse">
<stop stop-color="#242424"/>
<stop offset="1" stop-opacity="0"/>
</linearGradient>
<linearGradient id="paint16_linear" x1="51.3267" y1="44.2782" x2="48.756" y2="38.7043" gradientUnits="userSpaceOnUse">
<stop stop-color="#242424"/>
<stop offset="1" stop-opacity="0"/>
</linearGradient>
<linearGradient id="paint17_linear" x1="40.5664" y1="49.1088" x2="37.6848" y2="43.1482" gradientUnits="userSpaceOnUse">
<stop stop-color="#242424"/>
<stop offset="1" stop-opacity="0"/>
</linearGradient>
<linearGradient id="paint18_linear" x1="34.8324" y1="51.6206" x2="32.3121" y2="46.156" gradientUnits="userSpaceOnUse">
<stop stop-color="#242424"/>
<stop offset="1" stop-opacity="0"/>
</linearGradient>
<linearGradient id="paint19_linear" x1="43.3069" y1="47.5797" x2="41.7947" y2="44.3009" gradientUnits="userSpaceOnUse">
<stop stop-color="#242424"/>
<stop offset="1" stop-opacity="0"/>
</linearGradient>
<linearGradient id="paint20_linear" x1="48.553" y1="45.1603" x2="47.0408" y2="41.8815" gradientUnits="userSpaceOnUse">
<stop stop-color="#242424"/>
<stop offset="1" stop-opacity="0"/>
</linearGradient>
<linearGradient id="paint21_linear" x1="53.7986" y1="42.7408" x2="52.2864" y2="39.4621" gradientUnits="userSpaceOnUse">
<stop stop-color="#242424"/>
<stop offset="1" stop-opacity="0"/>
</linearGradient>
<linearGradient id="paint22_linear" x1="37.9932" y1="50.4281" x2="36.1786" y2="46.4936" gradientUnits="userSpaceOnUse">
<stop stop-color="#242424"/>
<stop offset="1" stop-opacity="0"/>
</linearGradient>
<linearGradient id="paint23_linear" x1="31.7894" y1="52.494" x2="30.5797" y2="49.871" gradientUnits="userSpaceOnUse">
<stop stop-color="#242424"/>
<stop offset="1" stop-opacity="0"/>
</linearGradient>
</defs>
</svg>
