<svg width="64" height="64" viewBox="0 0 64 64" fill="none" xmlns="http://www.w3.org/2000/svg">
<path opacity="0.18" d="M63.8252 49.5855C63.3423 52.4711 61.8474 54.9778 60.0863 57.0123C56.9544 60.6084 52.974 62.9426 48.6948 63.6926C46.4617 64.0752 44.1945 64.0173 41.9413 63.9539C32.1917 63.6758 22.142 64.0211 12.4327 62.8097C5.20405 61.9082 0.474745 52.6858 0.0429794 44.5179C0.027504 44.2249 0.0166711 43.9337 0.0104809 43.6425C-0.179868 36.1634 2.24824 28.8859 5.19941 22.2729C6.31162 19.7606 7.54614 17.3299 8.8965 14.9935C12.2934 9.18119 16.5507 4.16774 22.0058 1.72635C27.7317 -0.838232 34.12 -0.257748 40.027 1.5957C42.1239 2.25271 44.2363 3.0889 45.9495 4.69597C49.758 8.2554 50.7298 14.5474 52.5946 19.908C52.9196 20.8413 53.2786 21.7615 53.6624 22.6611C55.8878 27.9004 58.9566 32.6096 61.3785 37.7444C62.2529 39.5978 63.053 41.5931 63.5342 43.6463C63.9908 45.5893 64.1579 47.5939 63.8252 49.5855Z" fill="#6E71FF"/>
<path opacity="0.28" d="M53.5998 22.165V34.1333H8.7998V14.6645C9.15085 14.0778 9.51222 13.5003 9.88391 12.9318C10.0316 12.7018 10.1828 12.4736 10.3377 12.2472C10.6474 11.7846 10.9654 11.3306 11.2917 10.8851C13.2152 8.23947 15.3834 5.8951 17.8366 4.07658C18.1154 3.87087 18.3983 3.67064 18.6853 3.47589C19.7225 2.77598 20.8066 2.17754 21.9268 1.68658C22.2768 1.53321 22.6315 1.39079 22.9877 1.25933C28.0985 -0.624921 33.6863 -0.201329 38.9396 1.25933C39.2803 1.35427 39.6205 1.45409 39.9602 1.55877C40.5797 1.74135 41.1852 1.94767 41.7877 2.18137C42.0747 2.29092 42.3581 2.40717 42.6379 2.53011C43.8035 3.02119 44.8999 3.71607 45.8902 4.59146C47.6775 6.22375 48.8406 8.44578 49.7621 10.8851C49.9309 11.3306 50.0919 11.787 50.2468 12.2472C50.3661 12.5959 50.4807 12.9483 50.5937 13.3025C51.2488 15.3584 51.8327 17.48 52.5374 19.4719C52.8564 20.3885 53.2111 21.285 53.5998 22.165Z" fill="#6E71FF"/>
<path d="M19.2603 4.78857V10.5593H12.7173C14.6424 8.31696 16.809 6.32992 19.2603 4.78857Z" fill="url(#paint0_linear)"/>
<path d="M28.0592 2.40088V10.5595H20.1079V4.27804C21.1443 3.68535 22.2276 3.17863 23.3469 2.763C23.6967 2.63301 24.051 2.5123 24.407 2.40088H28.0592Z" fill="url(#paint1_linear)"/>
<path d="M19.2603 11.7137V19.8708H11.3105V12.2878C11.4581 12.0929 11.6092 11.8994 11.764 11.7075L19.2603 11.7137Z" fill="url(#paint2_linear)"/>
<path d="M28.0576 11.7139H20.1079V19.8709H28.0576V11.7139Z" fill="url(#paint3_linear)"/>
<path d="M19.2603 21.0269H11.3105V29.1839H19.2603V21.0269Z" fill="url(#paint4_linear)"/>
<path d="M28.0576 21.0269H20.1079V29.1839H28.0576V21.0269Z" fill="url(#paint5_linear)"/>
<path d="M43.1865 3.18239V10.5595H35.2368V2.40088H40.3437C40.6841 2.48135 41.0241 2.56595 41.3635 2.65468C41.9717 2.81407 42.5845 2.9843 43.1865 3.18239Z" fill="url(#paint6_linear)"/>
<path d="M51.1548 10.5596H44.0361V3.47803C45.2008 3.89426 46.2964 4.48323 47.286 5.2252C49.0687 6.6087 50.2309 8.49205 51.1548 10.5596Z" fill="url(#paint7_linear)"/>
<path d="M43.1865 11.7139H35.2368V19.8709H43.1865V11.7139Z" fill="url(#paint8_linear)"/>
<path d="M51.9858 12.6083V19.8709H44.0361V11.7139H51.6392C51.7583 12.0156 51.8729 12.3081 51.9858 12.6083Z" fill="url(#paint9_linear)"/>
<path d="M43.1865 21.0269H35.2368V29.1839H43.1865V21.0269Z" fill="url(#paint10_linear)"/>
<path d="M51.9858 21.0269H44.0361V29.1839H51.9858V21.0269Z" fill="url(#paint11_linear)"/>
<path opacity="0.41" d="M63.8252 49.0281C63.3422 52.2032 61.8471 54.9615 60.0857 57.2001C56 60.9334 52.9722 62.8366 48.6923 63.6618C46.4588 64.0829 44.1913 64.0192 41.9377 63.9494C32.1865 63.6433 22.5333 63.9494 12.4242 62.6904C5.19442 61.6984 0.8 54.0001 0.0325038 42.5633C0.0170258 42.2409 0.00619121 41.9205 0 41.6001H62.9333C63.6 43.7334 64.1579 46.8367 63.8252 49.0281Z" fill="#6E71FF"/>
<path d="M52.0669 43.5264H10.4907V57.6507H52.0669V43.5264Z" fill="#6E71FF"/>
<path d="M52.0669 43.5264H10.4907V57.6507H52.0669V43.5264Z" fill="url(#paint12_linear)"/>
<path d="M52.0669 43.6948H10.4907V46.3814H52.0669V43.6948Z" fill="url(#paint13_linear)"/>
<path d="M29.5581 19.6646H32.729C33.8111 19.6662 34.8483 20.0969 35.6133 20.8622C36.3783 21.6275 36.8086 22.6649 36.8099 23.747V31.8932H25.4648V23.747C25.4655 23.2101 25.5718 22.6786 25.7779 22.1829C25.9839 21.6872 26.2856 21.2369 26.6657 20.8578C27.0459 20.4787 27.4969 20.1782 27.9932 19.9734C28.4895 19.7687 29.0212 19.6637 29.5581 19.6646Z" fill="#6E71FF"/>
<path d="M29.5581 19.6646H32.729C33.8111 19.6662 34.8483 20.0969 35.6133 20.8622C36.3783 21.6275 36.8086 22.6649 36.8099 23.747V31.8932H25.4648V23.747C25.4655 23.2101 25.5718 22.6786 25.7779 22.1829C25.9839 21.6872 26.2856 21.2369 26.6657 20.8578C27.0459 20.4787 27.4969 20.1782 27.9932 19.9734C28.4895 19.7687 29.0212 19.6637 29.5581 19.6646Z" fill="url(#paint14_linear)"/>
<path d="M29.5581 19.6646H32.729C33.8111 19.6662 34.8483 20.0969 35.6133 20.8622C36.3783 21.6275 36.8086 22.6649 36.8099 23.747V31.8932H25.4648V23.747C25.4655 23.2101 25.5718 22.6786 25.7779 22.1829C25.9839 21.6872 26.2856 21.2369 26.6657 20.8578C27.0459 20.4787 27.4969 20.1782 27.9932 19.9734C28.4895 19.7687 29.0212 19.6637 29.5581 19.6646Z" fill="url(#paint15_linear)"/>
<path d="M29.0922 28.1158L24.8984 29.5086C24.5643 29.771 24.3362 30.1453 24.2562 30.5625C24.1262 31.2573 24.9758 33.967 25.1042 35.349C25.2327 36.731 25.3874 38.5648 25.3874 38.5648L26.1921 42.1381H35.66L36.2264 35.448C36.2264 35.448 37.6192 30.7141 37.6192 30.2003C37.6117 29.8644 37.5419 29.5328 37.4133 29.2223L33.0261 27.9224L29.0922 28.1158Z" fill="#6E71FF"/>
<path d="M29.0922 28.1158L24.8984 29.5086C24.5643 29.771 24.3362 30.1453 24.2562 30.5625C24.1262 31.2573 24.9758 33.967 25.1042 35.349C25.2327 36.731 25.3874 38.5648 25.3874 38.5648L26.1921 42.1381H35.66L36.2264 35.448C36.2264 35.448 37.6192 30.7141 37.6192 30.2003C37.6117 29.8644 37.5419 29.5328 37.4133 29.2223L33.0261 27.9224L29.0922 28.1158Z" fill="url(#paint16_linear)"/>
<path d="M29.4389 28.0122L29.0923 28.1159L29.5039 38.7413L32.7971 38.7676L32.9766 28.071L29.4389 28.0122Z" fill="url(#paint17_linear)"/>
<path d="M30.4044 29.8012L30.816 30.315C30.8133 30.5295 30.7783 30.7423 30.7123 30.9464C30.6102 31.2296 29.8643 37.4291 29.8643 37.4291L31.0218 38.8961L32.3341 37.07L31.4845 30.3413L31.8064 29.6217L31.3561 29.1327L30.9058 29.0801L30.4044 29.8012Z" fill="#6E71FF"/>
<path d="M53.0448 42.754H9.20459L11.4423 37.1968H49.4174L53.0448 42.754Z" fill="#6E71FF"/>
<path d="M53.0448 42.754H9.20459L11.4423 37.1968H49.4174L53.0448 42.754Z" fill="url(#paint18_linear)"/>
<path d="M42.7413 37.8854L42.3869 38.5864C42.381 38.5975 42.3781 38.61 42.3785 38.6226C42.3788 38.6352 42.3825 38.6475 42.389 38.6583C42.3956 38.669 42.4048 38.6779 42.4158 38.684C42.4269 38.6901 42.4393 38.6933 42.4519 38.6932C42.4654 38.6932 42.4786 38.6894 42.4901 38.6823C42.5016 38.6752 42.5108 38.665 42.5169 38.6529L42.8775 37.955C42.8821 37.946 42.8848 37.9362 42.8854 37.9261C42.886 37.9161 42.8845 37.906 42.881 37.8965C42.8775 37.8871 42.8721 37.8784 42.8651 37.8712C42.8581 37.8639 42.8496 37.8582 42.8403 37.8544C42.8318 37.8496 42.8225 37.8466 42.8128 37.8456C42.8031 37.8446 42.7934 37.8456 42.7841 37.8485C42.7748 37.8514 42.7662 37.8561 42.7589 37.8625C42.7515 37.8688 42.7455 37.8766 42.7413 37.8854Z" fill="#6E71FF"/>
<path d="M42.3823 38.2461L41.3223 40.3446C41.3071 40.3776 41.3003 40.4139 41.3027 40.4501C41.3051 40.4864 41.3165 40.5215 41.3358 40.5522C41.3552 40.583 41.3819 40.6084 41.4136 40.6262C41.4453 40.644 41.4809 40.6536 41.5173 40.6541C41.5575 40.6538 41.597 40.6426 41.6313 40.6216C41.6657 40.6006 41.6937 40.5707 41.7123 40.5349L42.7955 38.4442C42.8092 38.4175 42.8171 38.3882 42.8189 38.3583C42.8207 38.3283 42.8163 38.2983 42.806 38.2701C42.7957 38.242 42.7797 38.2162 42.759 38.1945C42.7383 38.1728 42.7133 38.1556 42.6857 38.144L42.6671 38.1347C42.6145 38.1118 42.5551 38.1107 42.5017 38.1316C42.4483 38.1525 42.4054 38.1937 42.3823 38.2461Z" fill="#6E71FF"/>
<path d="M42.3823 38.2461L41.3223 40.3446C41.3071 40.3776 41.3003 40.4139 41.3027 40.4501C41.3051 40.4864 41.3165 40.5215 41.3358 40.5522C41.3552 40.583 41.3819 40.6084 41.4136 40.6262C41.4453 40.644 41.4809 40.6536 41.5173 40.6541C41.5575 40.6538 41.597 40.6426 41.6313 40.6216C41.6657 40.6006 41.6937 40.5707 41.7123 40.5349L42.7955 38.4442C42.8092 38.4175 42.8171 38.3882 42.8189 38.3583C42.8207 38.3283 42.8163 38.2983 42.806 38.2701C42.7957 38.242 42.7797 38.2162 42.759 38.1945C42.7383 38.1728 42.7133 38.1556 42.6857 38.144L42.6671 38.1347C42.6145 38.1118 42.5551 38.1107 42.5017 38.1316C42.4483 38.1525 42.4054 38.1937 42.3823 38.2461Z" fill="url(#paint19_linear)"/>
<path d="M32.7012 36.7125C32.4278 36.6435 32.1449 36.6205 31.8639 36.6444C31.6015 36.6378 31.3458 36.7281 31.1459 36.8982C30.8689 37.1845 30.9478 37.672 31.1861 37.9954C31.4244 38.3189 31.7773 38.5231 32.0806 38.7816C32.1988 38.9011 32.3357 39.0005 32.4861 39.0756C32.606 39.1177 32.7319 39.1407 32.859 39.1437C33.1555 39.1766 33.4552 39.1667 33.7489 39.1143C34.0459 39.0593 34.3109 38.8933 34.4901 38.65C34.7362 38.2879 34.7408 37.3548 34.2905 37.2217C34.0212 37.1427 33.7581 37.1567 33.4827 37.036C33.2297 36.9107 32.9686 36.8027 32.7012 36.7125Z" fill="url(#paint20_linear)"/>
<path d="M30.1494 36.7852C30.2744 36.7288 30.4067 36.6903 30.5424 36.6707C30.6949 36.6537 30.8492 36.6752 30.9911 36.7334C31.1331 36.7915 31.2581 36.8844 31.3549 37.0034C31.4481 37.1251 31.5068 37.2697 31.5248 37.4219C31.5427 37.5741 31.5193 37.7284 31.457 37.8685C31.3375 38.0623 31.1997 38.2442 31.0454 38.4117C30.8829 38.6299 30.7823 38.8914 30.5935 39.0848C30.1494 39.5398 29.2967 39.5491 28.7071 39.4733C28.5675 39.4618 28.4322 39.4195 28.3109 39.3494C28.1897 39.2793 28.0855 39.1831 28.006 39.0678C27.7662 38.667 27.9379 38.017 28.2304 37.6859C28.4115 37.4816 28.6947 37.4305 28.9361 37.3222L30.0101 36.8456L30.1494 36.7852Z" fill="url(#paint21_linear)"/>
<path d="M29.9668 26.7401C29.9668 26.7401 30.0442 27.6268 29.4082 27.8775C28.7721 28.1282 30.5657 30.4062 32.5729 28.4378C32.6242 28.4437 32.6763 28.4386 32.7255 28.4228C32.7747 28.407 32.8199 28.3809 32.8582 28.3461C32.8965 28.3114 32.9268 28.2689 32.9473 28.2214C32.9678 28.1739 32.9778 28.1227 32.9768 28.071C32.9969 27.6655 32.0699 27.9549 32.1086 26.6039C32.1473 25.2529 30.1417 26.0066 29.9668 26.7401Z" fill="url(#paint22_linear)"/>
<path d="M30.4448 27.9533C30.6537 28.2426 31.0344 28.45 31.3733 28.3262C31.5835 28.2238 31.7593 28.0625 31.8794 27.8619C32.0713 27.5989 32.274 27.3064 32.2585 26.9814C32.2602 26.9365 32.252 26.8918 32.2347 26.8504C32.2173 26.809 32.1911 26.7718 32.1579 26.7415C32.1032 26.7043 32.0398 26.6819 31.9738 26.6765C31.4457 26.5968 30.9063 26.6386 30.3968 26.7988C30.1074 26.8885 30.0223 26.921 30.1183 27.2182C30.1883 27.4787 30.2985 27.7267 30.4448 27.9533Z" fill="url(#paint23_linear)"/>
<path d="M28.8476 23.0741C28.8476 23.0741 28.8089 25.5811 29.6585 26.6628C30.5081 27.7445 31.7229 28.0556 32.6685 26.6628C33.108 26.0159 33.3633 23.594 33.19 23.2273C33.0167 22.8605 30.6226 21.0468 29.6198 21.9351C28.617 22.8234 28.8476 23.0741 28.8476 23.0741Z" fill="url(#paint24_linear)"/>
<path d="M28.8539 21.2894C28.6731 21.4219 28.5161 21.5842 28.3896 21.7692C28.2636 21.957 28.2087 22.1836 28.2349 22.4083C28.2908 22.6265 28.379 22.8351 28.4964 23.0273C28.7285 23.5071 28.7765 24.0534 28.9483 24.5563C29.0123 24.1436 29.0638 23.7248 29.103 23.2997C29.313 23.3885 29.539 23.4333 29.7669 23.4312C30.8688 23.49 31.9737 23.4545 33.0756 23.4189C33.0886 23.7132 33.0641 24.0081 33.0028 24.2963C32.9665 24.4974 32.9964 24.7048 33.088 24.8875C33.3433 24.6492 33.1468 24.1756 33.4114 23.9466C33.4729 23.9063 33.529 23.8585 33.5785 23.8042C33.6621 23.6866 33.6079 23.5179 33.6636 23.3848C33.7213 23.2838 33.8032 23.1987 33.902 23.1372C34.1898 22.9051 34.3662 22.4872 34.2115 22.153C34.0975 21.9574 33.9321 21.7968 33.7333 21.6887L33.3124 21.4086C33.1669 21.3127 32.9363 21.1811 32.78 21.0991C32.5788 20.997 32.421 20.8267 32.2306 20.706C31.8976 20.5274 31.5252 20.4348 31.1474 20.4368C30.4804 20.3996 29.7762 20.4368 29.2052 20.7911C29.1123 20.8417 29.0323 20.9129 28.9714 20.9993C28.9105 21.0857 28.8703 21.185 28.8539 21.2894Z" fill="#6E71FF"/>
<path d="M31.5065 25.7757C31.5506 25.7688 31.5955 25.7688 31.6396 25.7757C31.7851 25.8113 31.8547 25.9723 31.9027 26.1131C31.8888 26.0713 31.2434 26.1363 31.1753 26.141C30.9246 26.158 30.6708 26.2075 30.4217 26.2106C30.3196 25.6721 31.2094 25.7912 31.5065 25.7757Z" fill="#6E71FF"/>
<path d="M28.8539 21.2894C28.6731 21.4219 28.5161 21.5842 28.3896 21.7692C28.2636 21.957 28.2087 22.1836 28.2349 22.4083C28.2908 22.6265 28.379 22.8351 28.4964 23.0273C28.7285 23.5071 28.7765 24.0534 28.9483 24.5563C29.0123 24.1436 29.0638 23.7248 29.103 23.2997C29.313 23.3885 29.539 23.4333 29.7669 23.4312C30.8688 23.49 31.9737 23.4545 33.0756 23.4189C33.0886 23.7132 33.0641 24.0081 33.0028 24.2963C32.9665 24.4974 32.9964 24.7048 33.088 24.8875C33.3433 24.6492 33.1468 24.1756 33.4114 23.9466C33.4729 23.9063 33.529 23.8585 33.5785 23.8042C33.6621 23.6866 33.6079 23.5179 33.6636 23.3848C33.7213 23.2838 33.8032 23.1987 33.902 23.1372C34.1898 22.9051 34.3662 22.4872 34.2115 22.153C34.0975 21.9574 33.9321 21.7968 33.7333 21.6887L33.3124 21.4086C33.1669 21.3127 32.9363 21.1811 32.78 21.0991C32.5788 20.997 32.421 20.8267 32.2306 20.706C31.8976 20.5274 31.5252 20.4348 31.1474 20.4368C30.4804 20.3996 29.7762 20.4368 29.2052 20.7911C29.1123 20.8417 29.0323 20.9129 28.9714 20.9993C28.9105 21.0857 28.8703 21.185 28.8539 21.2894Z" fill="url(#paint25_linear)"/>
<path d="M31.5065 25.7757C31.5506 25.7688 31.5955 25.7688 31.6396 25.7757C31.7851 25.8113 31.8547 25.9723 31.9027 26.1131C31.8888 26.0713 31.2434 26.1363 31.1753 26.141C30.9246 26.158 30.6708 26.2075 30.4217 26.2106C30.3196 25.6721 31.2094 25.7912 31.5065 25.7757Z" fill="url(#paint26_linear)"/>
<path d="M29.8133 27.4536C29.8133 27.4536 30.912 29.1126 31.1627 29.1714L29.9665 30.3289C29.9665 30.3289 29.137 28.4719 29.2716 27.955L29.8133 27.4536Z" fill="url(#paint27_linear)"/>
<path d="M32.3171 27.5478C32.1793 27.9889 31.7584 29.1604 31.1626 29.1712L32.2056 30.4092C32.2056 30.4092 33.0351 29.2315 33.015 27.9254L32.4997 27.4968C32.4853 27.485 32.4683 27.4769 32.4501 27.4731C32.4319 27.4694 32.413 27.47 32.3951 27.475C32.3772 27.48 32.3608 27.4892 32.3472 27.5019C32.3336 27.5146 32.3233 27.5303 32.3171 27.5478Z" fill="url(#paint28_linear)"/>
<path d="M24.4684 30.0007C24.4684 30.0007 21.4723 36.4694 21.5497 37.0482C21.6271 37.627 21.3949 37.8978 21.5884 38.2058C21.7818 38.5137 27.5309 39.6342 27.5309 39.6342L28.071 37.203L25.3319 36.5468L24.7129 36.3673C25.8596 34.7331 26.2743 32.2926 25.6197 30.4062C25.3365 29.5736 24.7995 29.7144 24.4684 30.0007Z" fill="#6E71FF"/>
<path d="M24.4684 30.0007C24.4684 30.0007 21.4723 36.4694 21.5497 37.0482C21.6271 37.627 21.3949 37.8978 21.5884 38.2058C21.7818 38.5137 27.5309 39.6342 27.5309 39.6342L28.071 37.203L25.3319 36.5468L24.7129 36.3673C25.8596 34.7331 26.2743 32.2926 25.6197 30.4062C25.3365 29.5736 24.7995 29.7144 24.4684 30.0007Z" fill="url(#paint29_linear)"/>
<path d="M37.5167 29.3244C37.5167 29.3244 41.336 36.1553 41.2602 36.7341C41.1843 37.3128 41.4149 37.5837 41.2215 37.8932C41.028 38.2027 35.2774 39.32 35.2774 39.32L34.7373 36.8888L37.478 36.2327L37.0246 35.5889C36.5993 34.9827 36.3125 34.2905 36.1844 33.5613C36.0564 32.832 36.0901 32.0835 36.2833 31.3687C36.6207 30.1261 37.0741 28.9422 37.5167 29.3244Z" fill="#6E71FF"/>
<path d="M37.5167 29.3244C37.5167 29.3244 41.336 36.1553 41.2602 36.7341C41.1843 37.3128 41.4149 37.5837 41.2215 37.8932C41.028 38.2027 35.2774 39.32 35.2774 39.32L34.7373 36.8888L37.478 36.2327L37.0246 35.5889C36.5993 34.9827 36.3125 34.2905 36.1844 33.5613C36.0564 32.832 36.0901 32.0835 36.2833 31.3687C36.6207 30.1261 37.0741 28.9422 37.5167 29.3244Z" fill="url(#paint30_linear)"/>
<path d="M28.0726 37.2017L28.5461 37.2883L28.0757 39.475L27.6006 39.3713L28.0726 37.2017Z" fill="url(#paint31_linear)"/>
<path d="M34.7775 37.0171L34.3271 37.1332L34.8285 39.3848L35.2773 39.3198L34.7775 37.0171Z" fill="url(#paint32_linear)"/>
<path d="M53.0603 42.7539H9.20459V43.7567H53.0603V42.7539Z" fill="#6E71FF"/>
<path d="M26.1842 42.0605H12.9868L13.6043 38.9731H25.7989L26.1842 42.0605Z" fill="#6E71FF"/>
<path d="M26.1336 42.1331H13.0669L13.6787 38.9331H25.7512L26.1336 42.1331Z" fill="url(#paint33_linear)"/>
<path d="M42.195 40.3877H40.2776C39.9973 40.3877 39.77 40.615 39.77 40.8953C39.77 41.1756 39.9973 41.4029 40.2776 41.4029H42.195C42.4753 41.4029 42.7026 41.1756 42.7026 40.8953C42.7026 40.615 42.4753 40.3877 42.195 40.3877Z" fill="#6E71FF"/>
<path d="M42.195 40.3877H40.2776C39.9973 40.3877 39.77 40.615 39.77 40.8953C39.77 41.1756 39.9973 41.4029 40.2776 41.4029H42.195C42.4753 41.4029 42.7026 41.1756 42.7026 40.8953C42.7026 40.615 42.4753 40.3877 42.195 40.3877Z" fill="url(#paint34_linear)"/>
<path d="M44.3213 34.6835C44.2377 34.555 44.2842 34.3477 44.1511 34.2734C44.0918 34.251 44.0286 34.241 43.9654 34.244C43.7147 34.2223 43.5321 34.0026 43.3959 33.7905C43.2704 33.6085 43.1729 33.4087 43.1065 33.1978C43.0407 32.9851 43.0407 32.7575 43.1065 32.5448C43.1163 32.506 43.1338 32.4695 43.158 32.4376C43.1822 32.4057 43.2126 32.379 43.2473 32.3591C43.3225 32.3364 43.4034 32.3419 43.4748 32.3745C43.855 32.5218 44.186 32.7734 44.4296 33.1003C44.5581 33.2628 44.6432 33.4563 44.767 33.6188C44.948 33.854 44.9821 33.464 44.9651 33.3263C44.9494 33.2023 44.9809 33.0769 45.0533 32.975C45.0775 32.9466 45.0964 32.9141 45.109 32.879C45.1134 32.8484 45.1107 32.8172 45.1013 32.7877C45.0486 32.6175 44.8861 32.4952 44.8444 32.3235C44.8272 32.2205 44.8319 32.115 44.8583 32.014C44.914 31.7199 44.9991 31.1798 45.3148 31.0421C45.3983 31.0129 45.4884 31.0082 45.5745 31.0285C45.6606 31.0488 45.7391 31.0932 45.8007 31.1566C45.9611 31.3268 46.1056 31.5112 46.2325 31.7075C46.301 31.8057 46.3437 31.9195 46.3567 32.0385C46.3697 32.1575 46.3525 32.2779 46.3068 32.3885C46.2349 32.4989 46.1826 32.6209 46.152 32.749C46.1335 33.0384 46.5018 33.2474 46.4724 33.5352C46.443 33.823 46.0963 33.9283 46.0174 34.1867C45.9617 34.3724 46.1412 34.8583 46.3935 34.767C46.5699 34.702 46.6782 34.1836 46.754 34.0196C47.0095 33.4783 47.3375 32.9743 47.729 32.5216C47.8311 32.4039 48.006 32.2832 48.1251 32.3838C48.1487 32.4085 48.1671 32.4377 48.1793 32.4696C48.1915 32.5014 48.1973 32.5354 48.1963 32.5695C48.1921 32.8056 48.1322 33.0373 48.0215 33.2458L47.322 34.8599C47.974 34.161 48.8295 33.6851 49.7671 33.4996C50.1648 33.4207 49.8568 34.1279 49.5953 34.2053C49.4638 34.244 49.3121 34.2331 49.2038 34.3167C49.122 34.4012 49.0629 34.505 49.032 34.6185C48.9519 34.8007 48.8242 34.9579 48.6621 35.0734C48.4037 35.2561 48.0787 35.3149 47.7831 35.4294C47.5736 35.4993 47.3888 35.6283 47.2508 35.8008C47.1347 35.9555 47.1425 36.1691 47.0264 36.327C46.9103 36.4848 46.6581 36.4941 46.4523 36.4817C46.1896 36.4681 45.9281 36.4381 45.6692 36.392C45.4819 36.3533 45.1446 36.3037 45.0502 36.1289C44.9167 35.9323 44.8357 35.7048 44.815 35.4681C44.815 35.2963 44.8722 35.1013 44.7654 34.9682C44.6587 34.8351 44.4188 34.8289 44.3213 34.6835Z" fill="#6E71FF"/>
<path d="M44.3213 34.6835C44.2377 34.555 44.2842 34.3477 44.1511 34.2734C44.0918 34.251 44.0286 34.241 43.9654 34.244C43.7147 34.2223 43.5321 34.0026 43.3959 33.7905C43.2704 33.6085 43.1729 33.4087 43.1065 33.1978C43.0407 32.9851 43.0407 32.7575 43.1065 32.5448C43.1163 32.506 43.1338 32.4695 43.158 32.4376C43.1822 32.4057 43.2126 32.379 43.2473 32.3591C43.3225 32.3364 43.4034 32.3419 43.4748 32.3745C43.855 32.5218 44.186 32.7734 44.4296 33.1003C44.5581 33.2628 44.6432 33.4563 44.767 33.6188C44.948 33.854 44.9821 33.464 44.9651 33.3263C44.9494 33.2023 44.9809 33.0769 45.0533 32.975C45.0775 32.9466 45.0964 32.9141 45.109 32.879C45.1134 32.8484 45.1107 32.8172 45.1013 32.7877C45.0486 32.6175 44.8861 32.4952 44.8444 32.3235C44.8272 32.2205 44.8319 32.115 44.8583 32.014C44.914 31.7199 44.9991 31.1798 45.3148 31.0421C45.3983 31.0129 45.4884 31.0082 45.5745 31.0285C45.6606 31.0488 45.7391 31.0932 45.8007 31.1566C45.9611 31.3268 46.1056 31.5112 46.2325 31.7075C46.301 31.8057 46.3437 31.9195 46.3567 32.0385C46.3697 32.1575 46.3525 32.2779 46.3068 32.3885C46.2349 32.4989 46.1826 32.6209 46.152 32.749C46.1335 33.0384 46.5018 33.2474 46.4724 33.5352C46.443 33.823 46.0963 33.9283 46.0174 34.1867C45.9617 34.3724 46.1412 34.8583 46.3935 34.767C46.5699 34.702 46.6782 34.1836 46.754 34.0196C47.0095 33.4783 47.3375 32.9743 47.729 32.5216C47.8311 32.4039 48.006 32.2832 48.1251 32.3838C48.1487 32.4085 48.1671 32.4377 48.1793 32.4696C48.1915 32.5014 48.1973 32.5354 48.1963 32.5695C48.1921 32.8056 48.1322 33.0373 48.0215 33.2458L47.322 34.8599C47.974 34.161 48.8295 33.6851 49.7671 33.4996C50.1648 33.4207 49.8568 34.1279 49.5953 34.2053C49.4638 34.244 49.3121 34.2331 49.2038 34.3167C49.122 34.4012 49.0629 34.505 49.032 34.6185C48.9519 34.8007 48.8242 34.9579 48.6621 35.0734C48.4037 35.2561 48.0787 35.3149 47.7831 35.4294C47.5736 35.4993 47.3888 35.6283 47.2508 35.8008C47.1347 35.9555 47.1425 36.1691 47.0264 36.327C46.9103 36.4848 46.6581 36.4941 46.4523 36.4817C46.1896 36.4681 45.9281 36.4381 45.6692 36.392C45.4819 36.3533 45.1446 36.3037 45.0502 36.1289C44.9167 35.9323 44.8357 35.7048 44.815 35.4681C44.815 35.2963 44.8722 35.1013 44.7654 34.9682C44.6587 34.8351 44.4188 34.8289 44.3213 34.6835Z" fill="url(#paint35_linear)"/>
<path d="M46.1521 38.9981C46.9572 38.9981 47.6099 38.3454 47.6099 37.5403C47.6099 36.7352 46.9572 36.0825 46.1521 36.0825C45.347 36.0825 44.6943 36.7352 44.6943 37.5403C44.6943 38.3454 45.347 38.9981 46.1521 38.9981Z" fill="#6E71FF"/>
<path d="M47.6087 36.0068C47.5964 36.3846 47.4376 36.7428 47.166 37.0057C46.8944 37.2686 46.5312 37.4156 46.1532 37.4156C45.7752 37.4156 45.412 37.2686 45.1404 37.0057C44.8688 36.7428 44.7101 36.3846 44.6978 36.0068H47.6087Z" fill="#6E71FF"/>
<path d="M47.6133 37.542C47.6135 37.7692 47.5605 37.9934 47.4587 38.1965C47.3568 38.3996 47.2089 38.5761 47.0267 38.7119C46.8445 38.8477 46.6331 38.939 46.4093 38.9786C46.1855 39.0181 45.9556 39.0048 45.7379 38.9397C45.5202 38.8746 45.3207 38.7595 45.1554 38.6036C44.9901 38.4477 44.8635 38.2553 44.7857 38.0418C44.708 37.8283 44.6812 37.5996 44.7076 37.3739C44.734 37.1482 44.8127 36.9318 44.9376 36.7419C44.7943 36.5225 44.7125 36.2687 44.7009 36.0068H47.6118C47.5996 36.2688 47.5173 36.5227 47.3734 36.7419C47.5304 36.9792 47.6138 37.2575 47.6133 37.542Z" fill="url(#paint36_linear)"/>
<defs>
<linearGradient id="paint0_linear" x1="15.7149" y1="1.25554" x2="16.8956" y2="28.9348" gradientUnits="userSpaceOnUse">
<stop offset="0.02" stop-color="white" stop-opacity="0"/>
<stop offset="0.58" stop-color="white" stop-opacity="0.39"/>
<stop offset="1" stop-color="white"/>
</linearGradient>
<linearGradient id="paint1_linear" x1="23.7507" y1="-2.59406" x2="25.6915" y2="36.5133" gradientUnits="userSpaceOnUse">
<stop offset="0.02" stop-color="white" stop-opacity="0"/>
<stop offset="0.58" stop-color="white" stop-opacity="0.39"/>
<stop offset="1" stop-color="white"/>
</linearGradient>
<linearGradient id="paint2_linear" x1="14.9526" y1="6.70974" x2="16.896" y2="45.8392" gradientUnits="userSpaceOnUse">
<stop offset="0.02" stop-color="white" stop-opacity="0"/>
<stop offset="0.58" stop-color="white" stop-opacity="0.39"/>
<stop offset="1" stop-color="white"/>
</linearGradient>
<linearGradient id="paint3_linear" x1="23.75" y1="6.71987" x2="25.6905" y2="45.8199" gradientUnits="userSpaceOnUse">
<stop offset="0.02" stop-color="white" stop-opacity="0"/>
<stop offset="0.58" stop-color="white" stop-opacity="0.39"/>
<stop offset="1" stop-color="white"/>
</linearGradient>
<linearGradient id="paint4_linear" x1="14.9526" y1="16.0329" x2="16.8931" y2="55.1328" gradientUnits="userSpaceOnUse">
<stop offset="0.02" stop-color="white" stop-opacity="0"/>
<stop offset="0.58" stop-color="white" stop-opacity="0.39"/>
<stop offset="1" stop-color="white"/>
</linearGradient>
<linearGradient id="paint5_linear" x1="23.75" y1="16.0329" x2="25.6905" y2="55.1328" gradientUnits="userSpaceOnUse">
<stop offset="0.02" stop-color="white" stop-opacity="0"/>
<stop offset="0.58" stop-color="white" stop-opacity="0.39"/>
<stop offset="1" stop-color="white"/>
</linearGradient>
<linearGradient id="paint6_linear" x1="38.8789" y1="-2.59406" x2="40.8201" y2="36.5133" gradientUnits="userSpaceOnUse">
<stop offset="0.02" stop-color="white" stop-opacity="0"/>
<stop offset="0.58" stop-color="white" stop-opacity="0.39"/>
<stop offset="1" stop-color="white"/>
</linearGradient>
<linearGradient id="paint7_linear" x1="47.2975" y1="-0.85749" x2="48.9309" y2="33.092" gradientUnits="userSpaceOnUse">
<stop offset="0.02" stop-color="white" stop-opacity="0"/>
<stop offset="0.58" stop-color="white" stop-opacity="0.39"/>
<stop offset="1" stop-color="white"/>
</linearGradient>
<linearGradient id="paint8_linear" x1="38.8789" y1="6.71987" x2="40.8194" y2="45.8199" gradientUnits="userSpaceOnUse">
<stop offset="0.02" stop-color="white" stop-opacity="0"/>
<stop offset="0.58" stop-color="white" stop-opacity="0.39"/>
<stop offset="1" stop-color="white"/>
</linearGradient>
<linearGradient id="paint9_linear" x1="47.6782" y1="6.71987" x2="49.6187" y2="45.8199" gradientUnits="userSpaceOnUse">
<stop offset="0.02" stop-color="white" stop-opacity="0"/>
<stop offset="0.58" stop-color="white" stop-opacity="0.39"/>
<stop offset="1" stop-color="white"/>
</linearGradient>
<linearGradient id="paint10_linear" x1="38.8789" y1="16.0329" x2="40.8194" y2="55.1328" gradientUnits="userSpaceOnUse">
<stop offset="0.02" stop-color="white" stop-opacity="0"/>
<stop offset="0.58" stop-color="white" stop-opacity="0.39"/>
<stop offset="1" stop-color="white"/>
</linearGradient>
<linearGradient id="paint11_linear" x1="47.6782" y1="16.0329" x2="49.6187" y2="55.1328" gradientUnits="userSpaceOnUse">
<stop offset="0.02" stop-color="white" stop-opacity="0"/>
<stop offset="0.58" stop-color="white" stop-opacity="0.39"/>
<stop offset="1" stop-color="white"/>
</linearGradient>
<linearGradient id="paint12_linear" x1="31.1998" y1="26.6669" x2="30.1667" y2="70.8385" gradientUnits="userSpaceOnUse">
<stop stop-opacity="0"/>
<stop offset="0.932855" stop-opacity="0.75"/>
<stop offset="1"/>
</linearGradient>
<linearGradient id="paint13_linear" x1="31.1998" y1="40.2666" x2="31.2179" y2="48.8947" gradientUnits="userSpaceOnUse">
<stop stop-opacity="0"/>
<stop offset="0.932855" stop-opacity="0.75"/>
<stop offset="1"/>
</linearGradient>
<linearGradient id="paint14_linear" x1="31.2" y1="16.6665" x2="31.2" y2="43.5998" gradientUnits="userSpaceOnUse">
<stop stop-color="#1F1F1F"/>
<stop offset="1" stop-opacity="0"/>
</linearGradient>
<linearGradient id="paint15_linear" x1="2351.65" y1="2155.15" x2="2259.88" y2="1486.02" gradientUnits="userSpaceOnUse">
<stop offset="0.01"/>
<stop offset="0.83" stop-opacity="0.07"/>
<stop offset="1" stop-opacity="0"/>
</linearGradient>
<linearGradient id="paint16_linear" x1="31.607" y1="40.004" x2="31.0282" y2="31.9011" gradientUnits="userSpaceOnUse">
<stop offset="0.01"/>
<stop offset="1" stop-opacity="0"/>
</linearGradient>
<linearGradient id="paint17_linear" x1="31.0344" y1="28.0122" x2="31.0344" y2="38.7676" gradientUnits="userSpaceOnUse">
<stop offset="0.9999" stop-color="white"/>
<stop offset="1" stop-color="white" stop-opacity="0"/>
</linearGradient>
<linearGradient id="paint18_linear" x1="31.1999" y1="21.4667" x2="30.859" y2="47.9496" gradientUnits="userSpaceOnUse">
<stop stop-opacity="0"/>
<stop offset="0.932855" stop-opacity="0.75"/>
<stop offset="1"/>
</linearGradient>
<linearGradient id="paint19_linear" x1="42.7999" y1="38.0002" x2="31.8666" y2="43.4668" gradientUnits="userSpaceOnUse">
<stop/>
<stop offset="1" stop-opacity="0"/>
</linearGradient>
<linearGradient id="paint20_linear" x1="30.9703" y1="37.8991" x2="34.6592" y2="37.8991" gradientUnits="userSpaceOnUse">
<stop stop-color="#E5C5D5"/>
<stop offset="0.42" stop-color="#EAD4D1"/>
<stop offset="1" stop-color="#F0E9CB"/>
</linearGradient>
<linearGradient id="paint21_linear" x1="27.8927" y1="38.0872" x2="31.5332" y2="38.0872" gradientUnits="userSpaceOnUse">
<stop stop-color="#E5C5D5"/>
<stop offset="0.42" stop-color="#EAD4D1"/>
<stop offset="1" stop-color="#F0E9CB"/>
</linearGradient>
<linearGradient id="paint22_linear" x1="29.2779" y1="27.5448" x2="32.9797" y2="27.5448" gradientUnits="userSpaceOnUse">
<stop stop-color="#E5C5D5"/>
<stop offset="0.42" stop-color="#EAD4D1"/>
<stop offset="1" stop-color="#F0E9CB"/>
</linearGradient>
<linearGradient id="paint23_linear" x1="31.4693" y1="24.8721" x2="30.8518" y2="29.3089" gradientUnits="userSpaceOnUse">
<stop offset="0.01"/>
<stop offset="0.12" stop-opacity="0.75"/>
<stop offset="1" stop-opacity="0"/>
</linearGradient>
<linearGradient id="paint24_linear" x1="28.8248" y1="24.644" x2="33.2478" y2="24.644" gradientUnits="userSpaceOnUse">
<stop stop-color="#E5C5D5"/>
<stop offset="0.42" stop-color="#EAD4D1"/>
<stop offset="1" stop-color="#F0E9CB"/>
</linearGradient>
<linearGradient id="paint25_linear" x1="1258.11" y1="444.154" x2="1248.25" y2="749.32" gradientUnits="userSpaceOnUse">
<stop offset="0.01"/>
<stop offset="0.83" stop-opacity="0.07"/>
<stop offset="1" stop-opacity="0"/>
</linearGradient>
<linearGradient id="paint26_linear" x1="324.185" y1="87.5993" x2="338.511" y2="87.5993" gradientUnits="userSpaceOnUse">
<stop offset="0.01"/>
<stop offset="0.83" stop-opacity="0.07"/>
<stop offset="1" stop-opacity="0"/>
</linearGradient>
<linearGradient id="paint27_linear" x1="30.2098" y1="27.4536" x2="30.2098" y2="30.3289" gradientUnits="userSpaceOnUse">
<stop offset="0.9999" stop-color="white"/>
<stop offset="1" stop-color="white" stop-opacity="0"/>
</linearGradient>
<linearGradient id="paint28_linear" x1="32.089" y1="27.4707" x2="32.089" y2="30.4092" gradientUnits="userSpaceOnUse">
<stop offset="0.9999" stop-color="white"/>
<stop offset="1" stop-color="white" stop-opacity="0"/>
</linearGradient>
<linearGradient id="paint29_linear" x1="24.8002" y1="42.1334" x2="24.3575" y2="32.5586" gradientUnits="userSpaceOnUse">
<stop offset="0.01"/>
<stop offset="1" stop-opacity="0"/>
</linearGradient>
<linearGradient id="paint30_linear" x1="38.1331" y1="41.2" x2="37.5813" y2="32.0989" gradientUnits="userSpaceOnUse">
<stop offset="0.01"/>
<stop offset="1" stop-opacity="0"/>
</linearGradient>
<linearGradient id="paint31_linear" x1="28.0734" y1="37.2017" x2="28.0734" y2="39.475" gradientUnits="userSpaceOnUse">
<stop offset="0.9999" stop-color="white"/>
<stop offset="1" stop-color="white" stop-opacity="0"/>
</linearGradient>
<linearGradient id="paint32_linear" x1="34.8022" y1="37.0171" x2="34.8022" y2="39.3848" gradientUnits="userSpaceOnUse">
<stop offset="0.9999" stop-color="white"/>
<stop offset="1" stop-color="white" stop-opacity="0"/>
</linearGradient>
<linearGradient id="paint33_linear" x1="12.4002" y1="40.5331" x2="25.4648" y2="40.6981" gradientUnits="userSpaceOnUse">
<stop offset="0.02" stop-color="white" stop-opacity="0"/>
<stop offset="0.58" stop-color="white" stop-opacity="0.39"/>
<stop offset="1" stop-color="white"/>
</linearGradient>
<linearGradient id="paint34_linear" x1="41.3333" y1="39.8666" x2="41.2567" y2="42.1307" gradientUnits="userSpaceOnUse">
<stop stop-opacity="0"/>
<stop offset="0.932855" stop-opacity="0.75"/>
<stop offset="1"/>
</linearGradient>
<linearGradient id="paint35_linear" x1="47.1553" y1="12.8331" x2="33.5289" y2="35.7149" gradientUnits="userSpaceOnUse">
<stop offset="0.52893"/>
<stop offset="0.83" stop-opacity="0.07"/>
<stop offset="1" stop-opacity="0"/>
</linearGradient>
<linearGradient id="paint36_linear" x1="44.549" y1="37.5038" x2="47.4645" y2="37.5126" gradientUnits="userSpaceOnUse">
<stop offset="0.02" stop-color="white" stop-opacity="0"/>
<stop offset="0.58" stop-color="white" stop-opacity="0.39"/>
<stop offset="1" stop-color="white"/>
</linearGradient>
</defs>
</svg>
