<svg width="64" height="64" viewBox="0 0 64 64" fill="none" xmlns="http://www.w3.org/2000/svg">
<path opacity="0.18" d="M59.0821 54.5779C58.3345 55.1729 57.5182 55.6589 56.6541 56.0234C55.1583 56.6527 53.5649 56.9344 52.0298 57.4194C51.3484 57.6324 50.6797 57.8907 50.0236 58.1724C46.0504 59.8694 42.404 62.5611 38.2243 63.5436C30.4793 65.3779 22.9939 61.2077 15.5909 59.4393C9.24793 57.9278 4.09302 61.5416 1.53204 50.6069C0.461792 46.0547 -0.863031 41.2345 0.756901 36.8664C2.37683 32.4983 4.65791 28.4641 6.20312 24.0741C8.40947 17.8043 9.2264 10.5809 13.5682 5.79649C16.575 2.48366 20.8724 0.884272 25.1293 0.316791C29.3863 -0.250691 33.6964 0.113432 37.9824 0.132669C43.1449 0.150531 48.6443 -0.242446 53.109 2.5771C54.6835 3.58706 56.0407 4.95085 57.0893 6.57687C58.1379 8.2029 58.8536 10.0535 59.1884 12.0044C60.075 17.3893 57.97 22.9721 58.9161 28.3474C59.7939 33.3516 63.2224 37.5397 63.8925 42.5852C64.5004 47.1278 62.4815 51.893 59.0821 54.5779Z" fill="#6E71FF"/>
<path d="M22.6426 42.7845C22.6426 42.7845 24.2733 39.0993 26.5067 38.6218C28.5939 38.1755 35.3476 38.2685 35.3476 38.2685C36.1993 38.2685 37.016 38.6104 37.6183 39.2191C38.2205 39.8278 38.5589 40.6534 38.559 41.5143H40.7925L45.9128 38.6218C46.8122 38.1133 47.8255 37.8463 48.856 37.8462H49.5366C49.6593 37.8462 49.7792 37.8832 49.8811 37.9525C49.9829 38.0217 50.062 38.1201 50.1082 38.235C50.1544 38.3499 50.1658 38.4762 50.1407 38.5976C50.1156 38.7191 50.0553 38.8302 49.9674 38.9168L43.1123 45.6728C41.6098 47.1537 39.6576 48.0797 37.5706 48.3013L22.6426 48.9942V42.7845Z" fill="#E5C6D5"/>
<path d="M22.6426 42.7845C22.6426 42.7845 24.2733 39.0993 26.5067 38.6218C28.5939 38.1755 35.3476 38.2685 35.3476 38.2685C36.1993 38.2685 37.016 38.6104 37.6183 39.2191C38.2205 39.8278 38.5589 40.6534 38.559 41.5143H40.7925L45.9128 38.6218C46.8122 38.1133 47.8255 37.8463 48.856 37.8462H49.5366C49.6593 37.8462 49.7792 37.8832 49.8811 37.9525C49.9829 38.0217 50.062 38.1201 50.1082 38.235C50.1544 38.3499 50.1658 38.4762 50.1407 38.5976C50.1156 38.7191 50.0553 38.8302 49.9674 38.9168L43.1123 45.6728C41.6098 47.1537 39.6576 48.0797 37.5706 48.3013L22.6426 48.9942V42.7845Z" fill="url(#paint0_linear)"/>
<path d="M30.1838 44.1179C30.0092 44.1175 29.8407 44.0525 29.7102 43.9352C29.5798 43.8179 29.4962 43.6564 29.4753 43.4812C29.4545 43.3059 29.4978 43.129 29.597 42.9838C29.6962 42.8386 29.8446 42.735 30.0141 42.6927L37.6909 40.7874C37.8752 40.7417 38.0699 40.7719 38.2322 40.8713C38.3945 40.9708 38.5111 41.1313 38.5563 41.3176C38.6015 41.5039 38.5716 41.7007 38.4733 41.8648C38.3749 42.0288 38.2161 42.1466 38.0318 42.1923L30.3555 44.0968C30.2993 44.1109 30.2416 44.118 30.1838 44.1179Z" fill="#E5C6D5"/>
<path d="M30.1838 44.1179C30.0092 44.1175 29.8407 44.0525 29.7102 43.9352C29.5798 43.8179 29.4962 43.6564 29.4753 43.4812C29.4545 43.3059 29.4978 43.129 29.597 42.9838C29.6962 42.8386 29.8446 42.735 30.0141 42.6927L37.6909 40.7874C37.8752 40.7417 38.0699 40.7719 38.2322 40.8713C38.3945 40.9708 38.5111 41.1313 38.5563 41.3176C38.6015 41.5039 38.5716 41.7007 38.4733 41.8648C38.3749 42.0288 38.2161 42.1466 38.0318 42.1923L30.3555 44.0968C30.2993 44.1109 30.2416 44.118 30.1838 44.1179Z" fill="url(#paint1_linear)" fill-opacity="0.7"/>
<path d="M10.769 41.4893H19.0467V51.0964H10.769V41.4893Z" fill="#6E71FF"/>
<path d="M10.769 41.4893H19.0467V51.0964H10.769V41.4893Z" fill="url(#paint2_linear)" fill-opacity="0.4"/>
<path d="M21.7343 40.8599L18.9701 40.8745C18.8756 40.875 18.7857 40.9148 18.7199 40.9852C18.6542 41.0556 18.618 41.1508 18.6194 41.2499L18.7639 51.3224C18.7668 51.5287 18.9287 51.6951 19.1253 51.694L21.8894 51.6795C21.9436 51.6792 21.9969 51.6754 22.0493 51.6683C22.6908 51.582 23.1818 51.0031 23.1718 50.3069L23.0558 42.2188C23.0451 41.4657 22.4522 40.8562 21.7343 40.8599Z" fill="#6E71FF"/>
<path d="M21.7343 40.8599L18.9701 40.8745C18.8756 40.875 18.7857 40.9148 18.7199 40.9852C18.6542 41.0556 18.618 41.1508 18.6194 41.2499L18.7639 51.3224C18.7668 51.5287 18.9287 51.6951 19.1253 51.694L21.8894 51.6795C21.9436 51.6792 21.9969 51.6754 22.0493 51.6683C22.6908 51.582 23.1818 51.0031 23.1718 50.3069L23.0558 42.2188C23.0451 41.4657 22.4522 40.8562 21.7343 40.8599Z" fill="url(#paint3_linear)"/>
<path d="M18.7638 51.3222L18.748 50.2166C18.8176 50.298 18.9184 50.3493 19.0302 50.3487L21.9278 50.3334C21.9845 50.3331 22.0405 50.3291 22.0954 50.3217C22.5751 50.2571 22.9743 49.9298 23.16 49.4826L23.1718 50.3067C23.1818 51.0029 22.6909 51.5818 22.0493 51.6681C21.997 51.6752 21.9435 51.679 21.8894 51.6793L19.1253 51.6938C18.9286 51.6949 18.7668 51.5285 18.7638 51.3222Z" fill="#6E71FF"/>
<path d="M18.7638 51.3222L18.748 50.2166C18.8176 50.298 18.9184 50.3493 19.0302 50.3487L21.9278 50.3334C21.9845 50.3331 22.0405 50.3291 22.0953 50.3217C22.5751 50.2571 22.9743 49.9298 23.16 49.4826L23.1718 50.3067C23.1818 51.0029 22.6908 51.5818 22.0493 51.6681C21.997 51.6752 21.9435 51.679 21.8894 51.6793L19.1253 51.6938C18.9286 51.6949 18.7668 51.5285 18.7638 51.3222Z" fill="url(#paint4_linear)"/>
<path d="M20.7988 49.5328C21.1754 49.4821 21.4384 49.1204 21.3863 48.7249C21.3342 48.3294 20.9867 48.0499 20.6101 48.1006C20.2335 48.1513 19.9705 48.513 20.0226 48.9085C20.0747 49.304 20.4222 49.5835 20.7988 49.5328Z" fill="white"/>
<path d="M36.3074 34.501C41.859 32.4242 45.5382 27.1196 45.5382 21.1924V17.5999C43.6349 17.5999 42.0921 16.0571 42.0921 14.1538H36.3074H30.5228C30.5228 16.0571 28.9799 17.5999 27.0767 17.5999V21.1923C27.0767 27.1196 30.7559 32.4242 36.3074 34.501Z" fill="#6E71FF"/>
<path d="M36.3074 34.501C41.859 32.4242 45.5382 27.1196 45.5382 21.1924V17.5999C43.6349 17.5999 42.0921 16.0571 42.0921 14.1538H36.3074H30.5228C30.5228 16.0571 28.9799 17.5999 27.0767 17.5999V21.1923C27.0767 27.1196 30.7559 32.4242 36.3074 34.501Z" fill="url(#paint5_linear)" fill-opacity="0.7"/>
<path fill-rule="evenodd" clip-rule="evenodd" d="M31.9614 24.8551L35.0215 27.9151L36.3075 26.6291V26.6293L40.6536 22.2832L38.9675 20.5972L38.9675 20.5972L38.9674 20.5972L35.0215 24.5431L33.6475 23.169L31.9614 24.8551Z" fill="#6E71FF"/>
<path fill-rule="evenodd" clip-rule="evenodd" d="M31.9614 24.8551L35.0215 27.9151L36.3075 26.6291V26.6293L40.6536 22.2832L38.9675 20.5972L38.9675 20.5972L38.9674 20.5972L35.0215 24.5431L33.6475 23.169L31.9614 24.8551Z" fill="url(#paint6_linear)"/>
<defs>
<linearGradient id="paint0_linear" x1="36.4195" y1="36.6342" x2="34.8014" y2="49.8012" gradientUnits="userSpaceOnUse">
<stop stop-color="#F9D7A9"/>
<stop offset="1" stop-color="white" stop-opacity="0"/>
</linearGradient>
<linearGradient id="paint1_linear" x1="32.3316" y1="36.5312" x2="31.0269" y2="45.7729" gradientUnits="userSpaceOnUse">
<stop stop-color="#F6D1B9"/>
<stop offset="1" stop-color="white" stop-opacity="0"/>
</linearGradient>
<linearGradient id="paint2_linear" x1="14.9079" y1="41.4893" x2="14.9079" y2="51.0964" gradientUnits="userSpaceOnUse">
<stop stop-color="#2B2B2B"/>
<stop offset="1" stop-color="#202020" stop-opacity="0"/>
</linearGradient>
<linearGradient id="paint3_linear" x1="20.1158" y1="40.7174" x2="22.189" y2="56.3084" gradientUnits="userSpaceOnUse">
<stop stop-color="#0E0E0E"/>
<stop offset="1" stop-color="white" stop-opacity="0"/>
<stop offset="1" stop-color="#434343" stop-opacity="0"/>
</linearGradient>
<linearGradient id="paint4_linear" x1="20.8798" y1="49.7896" x2="21.1491" y2="51.7894" gradientUnits="userSpaceOnUse">
<stop stop-color="#494949"/>
<stop offset="1" stop-color="#2E2E2E" stop-opacity="0"/>
</linearGradient>
<linearGradient id="paint5_linear" x1="36.3074" y1="14.1538" x2="36.3074" y2="34.501" gradientUnits="userSpaceOnUse">
<stop stop-color="#040404"/>
<stop offset="1" stop-color="white" stop-opacity="0"/>
</linearGradient>
<linearGradient id="paint6_linear" x1="35.8184" y1="25.5012" x2="35.9162" y2="41.4463" gradientUnits="userSpaceOnUse">
<stop stop-color="white"/>
<stop offset="1" stop-color="white" stop-opacity="0"/>
</linearGradient>
</defs>
</svg>
