<svg width="64" height="64" viewBox="0 0 64 64" fill="none" xmlns="http://www.w3.org/2000/svg">
<path opacity="0.18" d="M63.9866 41.2607C63.9684 41.7832 63.9356 42.3057 63.8809 42.8387C63.4944 46.6968 62.0744 50.5496 59.0139 53.0317C55.3791 55.9771 50.2241 56.4108 45.461 56.2435C40.6979 56.0763 35.8127 55.4597 31.2537 56.7887C28.7583 57.5168 26.4742 58.8022 23.9842 59.5442C19.2448 60.9551 13.913 60.2566 9.65848 57.8233C5.40395 55.3901 2.26501 51.2969 0.947091 46.7299C0.700738 45.8709 0.50959 44.9984 0.374717 44.1172C-0.376296 39.2924 0.360134 34.2761 0.252586 29.3555C0.157798 24.9819 -0.591391 20.4532 1.04917 16.3652C2.14288 13.6428 4.22457 11.3959 6.60703 9.61753C14.9429 3.40805 25.4407 0.0638072 35.9549 0.0011027C42.2182 -0.0372167 48.62 0.917285 54.1159 3.78776C55.9023 4.71962 57.5993 5.87791 58.8553 7.39675C59.7904 8.5324 60.4576 9.84919 61.0062 11.1939C61.9554 13.5285 62.5686 15.9754 62.8291 18.4676C63.1645 21.7056 62.9002 24.9732 63.0351 28.2216C63.2228 32.5796 64.1197 36.9044 63.9866 41.2607Z" fill="#6E71FF"/>
<path opacity="0.3" d="M63.9999 40.9434L63.978 41.2045C63.6542 44.9355 62.7248 48.6466 60.9153 51.5677C60.3908 52.4203 59.7874 53.1977 59.1169 53.8847C55.4689 57.6267 50.295 58.1778 45.5144 57.9653C40.7339 57.7529 35.8307 56.9695 31.2551 58.658C28.7505 59.583 26.4581 61.2161 23.9589 62.1589C19.2022 63.9513 13.8508 63.0639 9.58071 59.9725C6.77163 57.9085 4.4423 55.0149 2.81147 51.5633C1.95763 49.7788 1.29549 47.8698 0.841072 45.8826C0.593817 44.7914 0.401968 43.6828 0.266602 42.5632L24.4657 41.9458L63.9999 40.9434Z" fill="#6E71FF"/>
<path d="M29.8667 26.0926C24.9171 26.3175 19.9324 25.5397 14.959 25.5593C10.3515 25.5799 5.63203 26.269 1.21414 24.9548C0.598556 24.7701 -0.138277 24.3214 0.022355 23.6994C2.11471 23.2032 3.87648 21.8157 5.89007 21.0461C7.72508 20.3473 9.71996 20.1736 11.649 20.5448C12.8014 20.7738 13.961 21.1906 15.1207 21.0059C16.0793 20.8532 16.9167 20.3003 17.7986 19.9042C18.3541 19.6514 19.0588 19.5225 19.8246 19.4668C21.69 20.2766 23.7347 20.8078 25.5099 21.8074C27.3453 22.8421 28.7951 24.3327 29.8667 26.0926Z" fill="url(#paint0_linear)"/>
<path d="M29.863 35.7696C30.1318 38.2774 29.2428 43.4358 26.4599 44.453C25.7756 44.7032 25.0334 44.7342 24.3036 44.7569C21.4504 44.8507 18.5959 44.8741 15.74 44.8272C14.598 44.8326 13.4571 44.7538 12.3266 44.5915C11.7766 44.5006 11.2081 44.362 10.7801 44.0044C10.0586 43.3965 9.9407 42.2367 10.4266 41.4262C10.9124 40.6158 11.8924 40.1857 12.8352 40.2167C12.453 40.2431 12.0709 40.1644 11.7303 39.9892C11.3897 39.8139 11.1036 39.5487 10.9029 39.2224C10.7023 38.8961 10.5948 38.5211 10.5921 38.138C10.5894 37.7549 10.6916 37.3784 10.8876 37.0493C11.5513 35.937 13.0254 35.6848 14.3134 35.5463C13.503 34.5745 12.8993 33.3775 12.8662 32.1122C12.8331 30.8469 13.4658 29.5216 14.5988 28.9572C15.7317 28.3927 17.3237 28.8 17.8592 29.9475C17.4457 27.7994 18.008 25.4383 19.4987 23.836C20.8384 22.3888 23.551 21.2578 25.4944 22.1241C27.3552 22.9511 28.0478 25.7753 28.4592 27.5409C29.0942 30.2527 29.563 33.0007 29.863 35.7696Z" fill="#6E71FF"/>
<path d="M29.863 35.7696C30.1318 38.2774 29.2428 43.4358 26.4599 44.453C25.7756 44.7032 25.0334 44.7342 24.3036 44.7569C21.4504 44.8507 18.5959 44.8741 15.74 44.8272C14.598 44.8326 13.4571 44.7538 12.3266 44.5915C11.7766 44.5006 11.2081 44.362 10.7801 44.0044C10.0586 43.3965 9.9407 42.2367 10.4266 41.4262C10.9124 40.6158 11.8924 40.1857 12.8352 40.2167C12.453 40.2431 12.0709 40.1644 11.7303 39.9892C11.3897 39.8139 11.1036 39.5487 10.9029 39.2224C10.7023 38.8961 10.5948 38.5211 10.5921 38.138C10.5894 37.7549 10.6916 37.3784 10.8876 37.0493C11.5513 35.937 13.0254 35.6848 14.3134 35.5463C13.503 34.5745 12.8993 33.3775 12.8662 32.1122C12.8331 30.8469 13.4658 29.5216 14.5988 28.9572C15.7317 28.3927 17.3237 28.8 17.8592 29.9475C17.4457 27.7994 18.008 25.4383 19.4987 23.836C20.8384 22.3888 23.551 21.2578 25.4944 22.1241C27.3552 22.9511 28.0478 25.7753 28.4592 27.5409C29.0942 30.2527 29.563 33.0007 29.863 35.7696Z" fill="url(#paint1_linear)"/>
<path d="M50.3537 7.90234H46.2188V18.2377H50.3537V7.90234Z" fill="#6E71FF"/>
<path d="M50.3537 7.90234H46.2188V18.2377H50.3537V7.90234Z" fill="url(#paint2_linear)"/>
<path d="M50.718 6.43652H45.8532C45.5883 6.43652 45.3735 6.65127 45.3735 6.91618V7.93752C45.3735 8.20243 45.5883 8.41718 45.8532 8.41718H50.718C50.9829 8.41718 51.1976 8.20243 51.1976 7.93752V6.91618C51.1976 6.65127 50.9829 6.43652 50.718 6.43652Z" fill="#6E71FF"/>
<path d="M35.7969 5.31787L20.8965 20.15V24.3512V43.9034H52.4195V24.3512V21.5518L35.7969 5.31787Z" fill="#6E71FF"/>
<path d="M35.7969 5.31787L20.8965 20.15V24.3512V43.9034H52.4195V24.3512V21.5518L35.7969 5.31787Z" fill="url(#paint3_linear)"/>
<g style="mix-blend-mode:multiply" opacity="0.2">
<g style="mix-blend-mode:multiply" opacity="0.2">
<path d="M36.2289 4.30713L20.8984 19.5942V22.0276L36.2289 7.49313L52.4235 22.8463V21.3164C52.5139 21.3169 52.6023 21.2902 52.6772 21.2396C52.7522 21.189 52.8101 21.117 52.8434 21.033C52.8766 20.949 52.8838 20.8569 52.8638 20.7687C52.8439 20.6806 52.7978 20.6005 52.7316 20.539L36.2289 4.30713Z" fill="#6E71FF"/>
</g>
</g>
<path d="M53.647 43.9033H19.6699V46.4008H53.647V43.9033Z" fill="#6E71FF"/>
<path d="M37.0248 28.1201H24.8804V38.1971H37.0248V28.1201Z" fill="#6E71FF"/>
<path d="M37.0248 28.1201H24.8804V38.1971H37.0248V28.1201Z" fill="url(#paint4_linear)"/>
<path d="M49.1672 27.6675H41.1577V43.9035H49.1672V27.6675Z" fill="#6E71FF"/>
<path d="M48.5198 28.7012H41.8066V43.062H48.5198V28.7012Z" fill="#6E71FF"/>
<path d="M48.5198 28.7012H41.8066V43.062H48.5198V28.7012Z" fill="url(#paint5_linear)"/>
<path d="M49.4012 26.7642H40.97C40.777 26.7642 40.6206 26.9206 40.6206 27.1136V27.771C40.6206 27.964 40.777 28.1204 40.97 28.1204H49.4012C49.5942 28.1204 49.7506 27.964 49.7506 27.771V27.1136C49.7506 26.9206 49.5942 26.7642 49.4012 26.7642Z" fill="#6E71FF"/>
<path d="M35.5162 4.29034L19.0858 20.27C18.9447 20.4138 18.8487 20.5958 18.8097 20.7935C18.7706 20.9912 18.7901 21.1959 18.8659 21.3827C18.9417 21.5694 19.0704 21.7299 19.2362 21.8444C19.402 21.9589 19.5977 22.0225 19.7991 22.0273C20.0625 22.0276 20.3158 21.9262 20.5062 21.7441L35.5244 7.4536C35.7144 7.27236 35.9669 7.17124 36.2295 7.17124C36.492 7.17124 36.7445 7.27236 36.9345 7.4536L51.9527 21.7441C52.1424 21.9258 52.395 22.0273 52.6577 22.0273C52.8592 22.0225 53.0548 21.9589 53.2206 21.8444C53.3864 21.7299 53.5151 21.5694 53.5909 21.3827C53.6667 21.1959 53.6863 20.9912 53.6472 20.7935C53.6081 20.5958 53.5121 20.4138 53.371 20.27L36.9427 4.29034C36.752 4.10419 36.496 4 36.2295 4C35.9629 4 35.7069 4.10419 35.5162 4.29034Z" fill="#6E71FF"/>
<path d="M37.3745 27.6675H24.5312V28.1203H37.3745V27.6675Z" fill="#6E71FF"/>
<path d="M28.2502 28.1201H27.8408V37.3577H28.2502V28.1201Z" fill="#6E71FF"/>
<path d="M31.1569 28.1201H30.7476V37.3577H31.1569V28.1201Z" fill="#6E71FF"/>
<path d="M34.0637 28.1201H33.6543V37.3577H34.0637V28.1201Z" fill="#6E71FF"/>
<path d="M37.0248 32.9873H24.8804V33.3326H37.0248V32.9873Z" fill="#6E71FF"/>
<path d="M36.6545 37.5129C36.8509 37.4103 37.0173 37.2584 37.1373 37.0721C37.2573 36.8858 37.3267 36.6715 37.3388 36.4502C37.3388 36.2435 37.2665 36.0078 37.0701 35.9788C36.9865 35.975 36.9035 35.9944 36.8302 36.0347C36.607 36.1405 36.4078 36.2911 36.2451 36.4771C36.3051 36.2761 36.3296 36.0662 36.3175 35.8569C36.3182 35.741 36.2822 35.6278 36.2146 35.5337C36.147 35.4396 36.0513 35.3693 35.9412 35.333C35.8312 35.2967 35.7125 35.2962 35.6021 35.3317C35.4918 35.3671 35.3955 35.4366 35.3272 35.5302C35.1697 35.7193 35.0579 35.9422 35.0005 36.1815C34.8709 35.8351 34.6458 35.5326 34.3513 35.309C34.3021 35.268 34.2441 35.239 34.1818 35.2242C34.1095 35.2202 34.0376 35.2374 33.975 35.2738C33.7926 35.3674 33.6378 35.5071 33.5261 35.679C33.4143 35.8509 33.3496 36.0491 33.3382 36.2538C33.3182 36.18 33.2762 36.1141 33.2179 36.0646C33.1596 36.0152 33.0876 35.9845 33.0116 35.9768C32.9741 35.976 32.9369 35.9837 32.9028 35.9993C32.8687 36.0148 32.8385 36.0378 32.8145 36.0666C32.7905 36.0954 32.7733 36.1292 32.7641 36.1655C32.7549 36.2019 32.754 36.2398 32.7614 36.2766C32.6176 36.1267 32.4363 36.0181 32.2363 35.9621C32.0363 35.9061 31.825 35.9048 31.6243 35.9582C31.4265 36.0206 31.257 36.1508 31.1458 36.326C31.0346 36.5011 30.9888 36.7098 31.0164 36.9154C30.9674 36.8955 30.9146 36.8866 30.8618 36.8892C30.8089 36.8918 30.7573 36.9058 30.7104 36.9305C30.6636 36.9551 30.6227 36.9896 30.5905 37.0316C30.5584 37.0737 30.5358 37.1222 30.5244 37.1739C30.5079 37.2803 30.5147 37.389 30.5444 37.4925C30.574 37.596 30.6257 37.6918 30.696 37.7734" fill="#6E71FF"/>
<path d="M24.9795 37.492L24.5123 37.0992C24.4098 37.0308 24.3362 36.927 24.3055 36.8077C24.2848 36.6009 24.5123 36.4665 24.719 36.4996C24.9115 36.5534 25.0826 36.6653 25.209 36.8201C25.1511 36.39 25.1201 35.8876 25.4364 35.5796C25.563 35.4753 25.717 35.4099 25.8798 35.3912C26.0427 35.3725 26.2075 35.4013 26.3544 35.4741C26.6459 35.6272 26.8748 35.8773 27.0015 36.1812C27.1442 35.7285 27.4219 35.3303 27.7975 35.04C27.8236 35.0101 27.856 34.9865 27.8923 34.9707C27.9287 34.955 27.9681 34.9475 28.0077 34.9489C28.0473 34.9503 28.0861 34.9605 28.1213 34.9787C28.1564 34.997 28.1871 35.0229 28.211 35.0544C28.368 35.2042 28.4922 35.3851 28.5754 35.5855C28.6587 35.7859 28.6994 36.0015 28.6948 36.2184C28.7537 36.0831 28.8264 35.9542 28.9119 35.8339C28.9329 35.796 28.9665 35.7667 29.007 35.7512C29.0711 35.7326 29.131 35.7822 29.1786 35.8277C29.3026 35.9497 29.4267 36.1109 29.3853 36.2784C29.4537 36.0036 29.5968 35.7531 29.7988 35.5548C30.0056 35.3749 30.3901 35.3584 30.5452 35.592C30.6156 35.7176 30.6418 35.8632 30.6196 36.0055C30.5916 36.3083 30.4939 36.6005 30.3343 36.8594C30.3343 36.7581 30.4873 36.7188 30.5679 36.7787C30.6046 36.813 30.6319 36.8561 30.6475 36.9038C30.663 36.9515 30.6662 37.0024 30.6569 37.0516C30.6569 37.1509 30.6114 37.2481 30.6072 37.3494" fill="#6E71FF"/>
<path d="M36.6545 37.5129C36.8509 37.4103 37.0173 37.2584 37.1373 37.0721C37.2573 36.8858 37.3267 36.6715 37.3388 36.4502C37.3388 36.2435 37.2665 36.0078 37.0701 35.9788C36.9865 35.975 36.9035 35.9944 36.8302 36.0347C36.607 36.1405 36.4078 36.2911 36.2451 36.4771C36.3051 36.2761 36.3296 36.0662 36.3175 35.8569C36.3182 35.741 36.2822 35.6278 36.2146 35.5337C36.147 35.4396 36.0513 35.3693 35.9412 35.333C35.8312 35.2967 35.7125 35.2962 35.6021 35.3317C35.4918 35.3671 35.3955 35.4366 35.3272 35.5302C35.1697 35.7193 35.0579 35.9422 35.0005 36.1815C34.8709 35.8351 34.6458 35.5326 34.3513 35.309C34.3021 35.268 34.2441 35.239 34.1818 35.2242C34.1095 35.2202 34.0376 35.2374 33.975 35.2738C33.7926 35.3674 33.6378 35.5071 33.5261 35.679C33.4143 35.8509 33.3496 36.0491 33.3382 36.2538C33.3182 36.18 33.2762 36.1141 33.2179 36.0646C33.1596 36.0152 33.0876 35.9845 33.0116 35.9768C32.9741 35.976 32.9369 35.9837 32.9028 35.9993C32.8687 36.0148 32.8385 36.0378 32.8145 36.0666C32.7905 36.0954 32.7733 36.1292 32.7641 36.1655C32.7549 36.2019 32.754 36.2398 32.7614 36.2766C32.6176 36.1267 32.4363 36.0181 32.2363 35.9621C32.0363 35.9061 31.825 35.9048 31.6243 35.9582C31.4265 36.0206 31.257 36.1508 31.1458 36.326C31.0346 36.5011 30.9888 36.7098 31.0164 36.9154C30.9674 36.8955 30.9146 36.8866 30.8618 36.8892C30.8089 36.8918 30.7573 36.9058 30.7104 36.9305C30.6636 36.9551 30.6227 36.9896 30.5905 37.0316C30.5584 37.0737 30.5358 37.1222 30.5244 37.1739C30.5079 37.2803 30.5147 37.389 30.5444 37.4925C30.574 37.596 30.6257 37.6918 30.696 37.7734" fill="url(#paint6_linear)"/>
<path d="M36.9877 37.3579H24.9198C24.4973 37.3579 24.1548 37.7004 24.1548 38.1229V39.4357C24.1548 39.8582 24.4973 40.2007 24.9198 40.2007H36.9877C37.4102 40.2007 37.7527 39.8582 37.7527 39.4357V38.1229C37.7527 37.7004 37.4102 37.3579 36.9877 37.3579Z" fill="#6E71FF"/>
<path d="M24.9795 37.492L24.5123 37.0992C24.4098 37.0308 24.3362 36.927 24.3055 36.8077C24.2848 36.6009 24.5123 36.4665 24.719 36.4996C24.9115 36.5534 25.0826 36.6653 25.209 36.8201C25.1511 36.39 25.1201 35.8876 25.4364 35.5796C25.563 35.4753 25.717 35.4099 25.8798 35.3912C26.0427 35.3725 26.2075 35.4013 26.3544 35.4741C26.6459 35.6272 26.8748 35.8773 27.0015 36.1812C27.1442 35.7285 27.4219 35.3303 27.7975 35.04C27.8236 35.0101 27.856 34.9865 27.8923 34.9707C27.9287 34.955 27.9681 34.9475 28.0077 34.9489C28.0473 34.9503 28.0861 34.9605 28.1213 34.9787C28.1564 34.997 28.1871 35.0229 28.211 35.0544C28.368 35.2042 28.4922 35.3851 28.5754 35.5855C28.6587 35.7859 28.6994 36.0015 28.6948 36.2184C28.7537 36.0831 28.8264 35.9542 28.9119 35.8339C28.9329 35.796 28.9665 35.7667 29.007 35.7512C29.0711 35.7326 29.131 35.7822 29.1786 35.8277C29.3026 35.9497 29.4267 36.1109 29.3853 36.2784C29.4537 36.0036 29.5968 35.7531 29.7988 35.5548C30.0056 35.3749 30.3901 35.3584 30.5452 35.592C30.6156 35.7176 30.6418 35.8632 30.6196 36.0055C30.5916 36.3083 30.4939 36.6005 30.3343 36.8594C30.3343 36.7581 30.4873 36.7188 30.5679 36.7787C30.6046 36.813 30.6319 36.8561 30.6475 36.9038C30.663 36.9515 30.6662 37.0024 30.6569 37.0516C30.6569 37.1509 30.6114 37.2481 30.6072 37.3494" fill="url(#paint7_linear)"/>
<defs>
<linearGradient id="paint0_linear" x1="15888.2" y1="719.8" x2="15834.2" y2="1787.55" gradientUnits="userSpaceOnUse">
<stop stop-color="white" stop-opacity="0.27"/>
<stop offset="0.95" stop-color="white"/>
</linearGradient>
<linearGradient id="paint1_linear" x1="20.1091" y1="-6.40026" x2="-19.6266" y2="40.863" gradientUnits="userSpaceOnUse">
<stop offset="0.01"/>
<stop offset="0.83" stop-opacity="0.07"/>
<stop offset="1" stop-opacity="0"/>
</linearGradient>
<linearGradient id="paint2_linear" x1="48.2842" y1="3.58512" x2="44.8514" y2="24.0327" gradientUnits="userSpaceOnUse">
<stop/>
<stop offset="0.571801" stop-opacity="0"/>
</linearGradient>
<linearGradient id="paint3_linear" x1="36.6426" y1="-10.7998" x2="28.6199" y2="79.2857" gradientUnits="userSpaceOnUse">
<stop stop-opacity="0"/>
<stop offset="0.932855" stop-opacity="0.75"/>
<stop offset="1"/>
</linearGradient>
<linearGradient id="paint4_linear" x1="31.3661" y1="24.9734" x2="31.0043" y2="32.1393" gradientUnits="userSpaceOnUse">
<stop offset="0.02" stop-color="white" stop-opacity="0"/>
<stop offset="0.58" stop-color="white" stop-opacity="0.39"/>
<stop offset="1" stop-color="white"/>
</linearGradient>
<linearGradient id="paint5_linear" x1="45.1757" y1="52.1332" x2="47.0356" y2="35.2717" gradientUnits="userSpaceOnUse">
<stop offset="0.02" stop-color="white" stop-opacity="0"/>
<stop offset="0.58" stop-color="white" stop-opacity="0.39"/>
<stop offset="1" stop-color="white"/>
</linearGradient>
<linearGradient id="paint6_linear" x1="34.5679" y1="26.7469" x2="30.8072" y2="40.1412" gradientUnits="userSpaceOnUse">
<stop offset="0.52893"/>
<stop offset="0.83" stop-opacity="0.07"/>
<stop offset="1" stop-opacity="0"/>
</linearGradient>
<linearGradient id="paint7_linear" x1="27.5756" y1="32.7999" x2="25.7559" y2="40.3378" gradientUnits="userSpaceOnUse">
<stop offset="0.01"/>
<stop offset="0.83" stop-opacity="0.07"/>
<stop offset="1" stop-opacity="0"/>
</linearGradient>
</defs>
</svg>
