<svg width="64" height="64" viewBox="0 0 64 64" fill="none" xmlns="http://www.w3.org/2000/svg">
<path opacity="0.18" d="M4.91793 54.5779C5.66549 55.1729 6.4818 55.6589 7.34593 56.0234C8.84174 56.6527 10.4351 56.9344 11.9701 57.4194C12.6516 57.6324 13.3203 57.8907 13.9764 58.1724C17.9496 59.8694 21.596 62.5611 25.7757 63.5436C33.5207 65.3779 41.0061 61.2077 48.4091 59.4393C54.7521 57.9278 59.907 61.5416 62.468 50.6069C63.5382 46.0547 64.863 41.2345 63.2431 36.8665C61.6232 32.4984 59.3421 28.4641 57.7969 24.0741C55.5905 17.8043 54.7736 10.5809 50.4318 5.79649C47.425 2.48366 43.1276 0.884272 38.8707 0.316791C34.6137 -0.250691 30.3036 0.113432 26.0176 0.132669C20.8551 0.150531 15.3557 -0.242446 10.891 2.5771C9.31645 3.58706 7.95929 4.95085 6.91069 6.57687C5.8621 8.2029 5.14636 10.0535 4.81154 12.0044C3.92495 17.3893 6.02998 22.9721 5.08386 28.3474C4.20613 33.3516 0.777554 37.5397 0.10754 42.5852C-0.500404 47.1278 1.51848 51.893 4.91793 54.5779Z" fill="#6E71FF"/>
<path d="M30.1963 35.4981C30.7637 35.4981 31.2237 35.0381 31.2237 34.4707C31.2237 33.9033 30.7637 33.4434 30.1963 33.4434C29.6289 33.4434 29.1689 33.9033 29.1689 34.4707C29.1689 35.0381 29.6289 35.4981 30.1963 35.4981Z" fill="#6E71FF"/>
<path d="M30.7099 33.5812C30.0283 33.1869 29.1689 33.6791 29.1689 34.4708C29.1689 35.2637 30.029 35.7542 30.7099 35.3604C30.0256 34.9644 30.0256 33.9772 30.7099 33.5812Z" fill="white"/>
<path d="M30.7099 33.5812C30.0283 33.1869 29.1689 33.6791 29.1689 34.4708C29.1689 35.2637 30.029 35.7542 30.7099 35.3604C30.0256 34.9644 30.0256 33.9772 30.7099 33.5812Z" fill="white"/>
<path d="M30.7099 33.5812C30.0283 33.1869 29.1689 33.6791 29.1689 34.4708C29.1689 35.2637 30.029 35.7543 30.7099 35.3604C30.0256 34.9644 30.0256 33.9772 30.7099 33.5812Z" fill="#6E71FF"/>
<path d="M32.8922 35.2316C32.6853 35.0373 32.36 35.0475 32.1656 35.2545L30.9342 36.5659C30.4503 36.5659 29.9707 36.5659 29.4884 36.5659L28.257 35.2545C28.0626 35.0475 27.7372 35.0373 27.5303 35.2316C27.3234 35.426 27.3132 35.7512 27.5074 35.9582L28.913 37.4551V41.6241C28.913 41.8967 29.134 42.1176 29.4066 42.1176C29.9419 42.1176 30.4793 42.1176 31.016 42.1176C31.2886 42.1176 31.5095 41.8966 31.5095 41.6241C31.5095 40.7996 31.5095 38.2922 31.5095 37.455L32.9151 35.9582C33.1095 35.7512 33.0992 35.426 32.8922 35.2316Z" fill="white"/>
<path d="M32.8922 35.2316C32.6853 35.0373 32.36 35.0475 32.1656 35.2545L30.9342 36.5659C30.4503 36.5659 29.9707 36.5659 29.4884 36.5659L28.257 35.2545C28.0626 35.0475 27.7372 35.0373 27.5303 35.2316C27.3234 35.426 27.3132 35.7512 27.5074 35.9582L28.913 37.4551V41.6241C28.913 41.8967 29.134 42.1176 29.4066 42.1176C29.9419 42.1176 30.4793 42.1176 31.016 42.1176C31.2886 42.1176 31.5095 41.8966 31.5095 41.6241C31.5095 40.7996 31.5095 38.2922 31.5095 37.455L32.9151 35.9582C33.1095 35.7512 33.0992 35.426 32.8922 35.2316Z" fill="white"/>
<path d="M32.8922 35.2316C32.6853 35.0373 32.36 35.0475 32.1656 35.2545L30.9342 36.5659C30.4503 36.5659 29.9707 36.5659 29.4884 36.5659L28.257 35.2545C28.0626 35.0475 27.7372 35.0373 27.5303 35.2316C27.3234 35.426 27.3132 35.7512 27.5074 35.9582L28.913 37.4551V41.6242C28.913 41.8967 29.134 42.1176 29.4066 42.1176C29.9419 42.1176 30.4793 42.1176 31.016 42.1176C31.2886 42.1176 31.5095 41.8966 31.5095 41.6242C31.5095 40.7996 31.5095 38.2922 31.5095 37.455L32.9151 35.9582C33.1095 35.7512 33.0992 35.426 32.8922 35.2316Z" fill="#6E71FF"/>
<path d="M23.7971 27.5239C24.8484 27.5239 25.7007 26.6717 25.7007 25.6203C25.7007 24.569 24.8484 23.7168 23.7971 23.7168C22.7458 23.7168 21.8936 24.569 21.8936 25.6203C21.8936 26.6717 22.7458 27.5239 23.7971 27.5239Z" fill="#6E71FF"/>
<path d="M22.7093 25.6204C22.7093 24.7091 23.3497 23.9479 24.205 23.7611C23.011 23.5005 21.8936 24.4108 21.8936 25.6204C21.8936 26.8318 23.0129 27.7403 24.205 27.4798C23.3497 27.293 22.7093 26.5317 22.7093 25.6204Z" fill="#6E71FF"/>
<path d="M24.8032 28.4229H22.7913C21.761 28.4229 20.9229 29.261 20.9229 30.2913V34.8603C20.9229 35.1039 21.1213 35.3021 21.3649 35.3021H21.7155C21.4736 37.5027 21.4583 37.4072 21.542 37.5009C21.6207 37.5886 21.6527 37.5687 22.2888 37.5687V41.6752C22.2888 41.9189 22.4871 42.1172 22.7309 42.1172H23.3551C23.5254 42.1172 23.6735 42.0205 23.7473 41.8791H23.8472C23.921 42.0204 24.069 42.1172 24.2394 42.1172H24.8636C25.1073 42.1172 25.3057 41.9188 25.3057 41.6752V37.5687C25.3078 37.5687 25.9013 37.5687 25.9013 37.5687C26.0292 37.5687 26.1268 37.452 26.1012 37.3241L25.879 35.3021H26.2296C26.4734 35.3021 26.6717 35.1038 26.6717 34.8601V30.2913C26.6717 29.261 25.8335 28.4229 24.8032 28.4229Z" fill="#6E71FF"/>
<path d="M37.2566 26.5215H34.9653C33.7901 26.5215 32.8374 27.4743 32.8374 28.6494V33.8528C32.8376 34.1307 33.0629 34.356 33.3409 34.356H34.3932V41.614C34.3932 41.892 34.6185 42.1174 34.8966 42.1174H35.6075C35.8856 42.1174 36.111 41.892 36.111 41.614C36.111 41.892 36.3364 42.1174 36.6145 42.1174H37.3254C37.6034 42.1174 37.8288 41.892 37.8288 41.614V34.356H38.8811C39.1591 34.356 39.3845 34.1306 39.3845 33.8525C39.3845 33.773 39.3845 28.7286 39.3845 28.6494C39.3845 27.4743 38.4318 26.5215 37.2566 26.5215Z" fill="#6E71FF"/>
<path d="M36.1105 25.6539C37.162 25.6539 38.0142 24.8017 38.0142 23.7503C38.0142 22.699 37.162 21.8467 36.1105 21.8467C35.0593 21.8467 34.207 22.699 34.207 23.7503C34.207 24.8017 35.0593 25.6539 36.1105 25.6539Z" fill="#6E71FF"/>
<path d="M38.0145 23.7503C38.0145 22.6812 37.1337 21.8229 36.0712 21.8477C35.5346 22.9111 35.1702 24.0762 35.0156 25.3068C36.2646 26.1876 38.0145 25.2994 38.0145 23.7503Z" fill="#6E71FF"/>
<path d="M35.9414 22.1149C36.1158 22.0109 36.308 21.9337 36.5127 21.8896C36.3713 21.8593 36.2254 21.8441 36.071 21.8477C36.0265 21.9361 35.9835 22.0253 35.9414 22.1149Z" fill="white"/>
<path d="M35.9414 22.1149C36.1158 22.0109 36.308 21.9337 36.5127 21.8896C36.3713 21.8593 36.2254 21.8441 36.071 21.8477C36.0265 21.9361 35.9835 22.0253 35.9414 22.1149Z" fill="white"/>
<path d="M36.5129 25.611C35.8959 25.4782 35.39 25.0467 35.1543 24.4751C35.0804 24.8316 35.0156 25.2672 35.0156 25.3068C35.7388 25.8166 36.4682 25.611 36.5129 25.611Z" fill="white"/>
<path d="M36.5129 25.611C35.8959 25.4782 35.39 25.0467 35.1543 24.4751C35.0804 24.8316 35.0156 25.2672 35.0156 25.3068C35.7388 25.8166 36.4682 25.611 36.5129 25.611Z" fill="white"/>
<path d="M23.1046 41.6752V37.8241C23.1046 37.6319 23.0184 37.5805 22.9543 37.5687C22.4869 37.5687 22.4358 37.5879 22.3578 37.5009C22.2768 37.4103 22.2912 37.4867 22.4939 35.6423C22.5343 35.2736 22.2985 35.3021 22.1807 35.3021C21.937 35.3021 21.7387 35.1039 21.7386 34.8603V30.2913C21.7386 29.261 22.5768 28.4229 23.6071 28.4229H22.7913C21.761 28.4229 20.9229 29.261 20.9229 30.2913V34.8603C20.9229 35.1039 21.1213 35.3021 21.3649 35.3021H21.7155C21.4736 37.5027 21.4583 37.4072 21.542 37.5009C21.5808 37.5441 21.636 37.5687 21.694 37.5687H22.2888V41.6752C22.2888 41.9189 22.4871 42.1172 22.7309 42.1172C23.4183 42.1172 23.3805 42.1209 23.4492 42.1061C23.2523 42.0616 23.1046 41.8854 23.1046 41.6752Z" fill="#6E71FF"/>
<path d="M35.2088 41.6139V34.918C35.2088 34.4865 35.0082 34.3787 34.868 34.356H34.3931V41.6139C34.3931 41.8919 34.6184 42.1173 34.8965 42.1173C35.6621 42.1173 35.6202 42.1187 35.6598 42.1146C35.4064 42.0884 35.2088 41.8742 35.2088 41.6139Z" fill="white"/>
<path d="M35.2088 41.6139V34.918C35.2088 34.4865 35.0082 34.3787 34.868 34.356H34.3931V41.6139C34.3931 41.8919 34.6184 42.1173 34.8965 42.1173C35.6621 42.1173 35.6202 42.1187 35.6598 42.1146C35.4064 42.0884 35.2088 41.8742 35.2088 41.6139Z" fill="white"/>
<path d="M35.2088 41.6139V34.918C35.2088 34.4865 35.0081 34.3787 34.868 34.356H34.3931V41.6139C34.3931 41.8919 34.6184 42.1174 34.8965 42.1174C35.6621 42.1174 35.6202 42.1187 35.6598 42.1146C35.4064 42.0884 35.2088 41.8742 35.2088 41.6139Z" fill="#6E71FF"/>
<path d="M32.8735 35.215C32.6661 35.0383 32.3545 35.0533 32.166 35.2541L30.9346 36.5655H31.4508C31.6659 36.5571 31.6707 36.4981 32.8735 35.215Z" fill="#6E71FF"/>
<path d="M29.5797 37.6866C29.5797 37.4351 29.467 37.2876 29.4299 37.2458L28.1136 35.8441C27.9267 35.645 27.9217 35.3413 28.0912 35.1361C27.5835 34.9112 27.1245 35.5495 27.5079 35.958L28.9135 37.4549V41.6239C28.9135 41.8964 29.1345 42.1174 29.407 42.1174C29.5317 42.1174 29.6022 42.1174 29.7302 42.1174C29.6372 42.0242 29.5797 41.8957 29.5797 41.7538V37.6866H29.5797Z" fill="#6E71FF"/>
<path d="M35.0111 23.7504C35.0111 22.8371 35.6544 22.0743 36.5126 21.8897C35.3204 21.6333 34.207 22.5431 34.207 23.7504C34.207 24.9594 35.3225 25.8674 36.5126 25.6111C35.6544 25.4265 35.0111 24.6637 35.0111 23.7504Z" fill="#6E71FF"/>
<path d="M46.1536 55.4243C51.7052 53.3475 55.3844 48.0429 55.3844 42.1157V38.5233C53.4811 38.5233 51.9383 36.9804 51.9383 35.0771H46.1536H40.369C40.369 36.9804 38.8261 38.5233 36.9229 38.5233V42.1157C36.9229 48.0429 40.6021 53.3475 46.1536 55.4243Z" fill="#6E71FF"/>
<path d="M46.1536 55.4243C51.7052 53.3475 55.3844 48.0429 55.3844 42.1157V38.5233C53.4811 38.5233 51.9383 36.9804 51.9383 35.0771H46.1536H40.369C40.369 36.9804 38.8261 38.5233 36.9229 38.5233V42.1157C36.9229 48.0429 40.6021 53.3475 46.1536 55.4243Z" fill="url(#paint0_linear)" fill-opacity="0.7"/>
<path fill-rule="evenodd" clip-rule="evenodd" d="M41.8076 45.7784L44.8677 48.8385L46.1537 47.5525V47.5526L50.4997 43.2066L48.8137 41.5205L48.8137 41.5206L48.8136 41.5205L44.8677 45.4664L43.4936 44.0924L41.8076 45.7784Z" fill="#6E71FF"/>
<path fill-rule="evenodd" clip-rule="evenodd" d="M41.8076 45.7784L44.8677 48.8385L46.1537 47.5525V47.5526L50.4997 43.2066L48.8137 41.5205L48.8137 41.5206L48.8136 41.5205L44.8677 45.4664L43.4936 44.0924L41.8076 45.7784Z" fill="url(#paint1_linear)"/>
<defs>
<linearGradient id="paint0_linear" x1="46.1536" y1="35.0771" x2="46.1536" y2="55.4243" gradientUnits="userSpaceOnUse">
<stop stop-color="#040404"/>
<stop offset="1" stop-color="white" stop-opacity="0"/>
</linearGradient>
<linearGradient id="paint1_linear" x1="45.6645" y1="46.4245" x2="45.7624" y2="62.3697" gradientUnits="userSpaceOnUse">
<stop stop-color="white"/>
<stop offset="1" stop-color="white" stop-opacity="0"/>
</linearGradient>
</defs>
</svg>
