<svg width="64" height="64" viewBox="0 0 64 64" fill="none" xmlns="http://www.w3.org/2000/svg">
<path opacity="0.18" d="M63.9985 46.3922C64.1006 54.0495 58.9833 61.3309 52.6027 62.6149C49.6166 63.2185 46.5702 62.6368 43.5376 62.4777C36.9412 62.1375 30.3599 63.8111 23.7752 63.9867C22.4422 64.0224 21.1069 63.9867 19.7705 63.8756C15.3764 63.4822 11.0854 62.1062 7.12526 59.8206C5.43614 58.8466 3.78763 57.6833 2.55791 56.0098C-0.0801822 52.4239 -0.334246 47.1755 0.275972 42.484C0.88619 37.7925 2.22844 33.2066 2.29688 28.4575C2.34561 25.1419 1.77019 21.8619 1.62286 18.5505C1.47553 15.239 1.81544 11.7272 3.46395 9.04673C5.11247 6.36627 7.85613 4.89709 10.6044 4.25784C13.3527 3.61858 16.173 3.70226 18.9723 3.4965C24.7624 3.07673 30.4319 1.40727 36.1883 0.574596C44.7732 -0.669612 58.5785 -1.07155 59.5286 12.2142C59.6015 13.313 59.6217 14.4159 59.5889 15.5174C59.5054 19.187 59.0286 22.8702 59.423 26.5123C60.1609 33.3561 63.9057 39.4962 63.9985 46.3922Z" fill="#6E71FF"/>
<path opacity="0.24" d="M63.9984 47.6881C64.102 54.7872 58.9127 61.5378 52.4423 62.7282C49.4142 63.2878 46.3249 62.7486 43.2497 62.601C36.5605 62.2856 29.8866 63.8372 23.2091 64C21.5739 62.3327 19.1293 54.9186 17.5941 53.1508C17.1235 52.6001 16.6271 51.9897 16.5353 51.2431C16.4694 50.6874 16.6353 50.1303 16.8 49.6C19.6571 40.5472 24.4517 37.7016 29.4489 29.808C31.783 26.1199 34.3311 22.6097 36.9405 19.1492C38.7134 16.8015 41.0086 12.2332 44.1556 12.0094C46.7202 11.8263 49.6942 14.3698 51.92 15.4572C54.4423 16.6896 56.9857 17.8736 59.5268 19.0665C59.4421 22.4686 58.9586 25.8833 59.3586 29.2599C60.1068 35.6023 63.9043 41.2948 63.9984 47.6881Z" fill="#6E71FF"/>
<path d="M35.0073 12.9275L33.5595 12.4727L33.9551 9.06544H34.0711C34.215 8.94943 34.635 8.4471 34.5224 8.0747C34.4215 7.73363 33.8786 7.59674 33.4389 7.53989C32.8147 7.461 32.4064 7.53177 32.2567 7.74291C32.056 8.0283 32.3205 8.56427 32.44 8.74641L32.4713 8.79397L32.2532 12.0875L30.6465 11.6444L30.737 11.3184L31.9006 11.6444L32.0839 8.8601C31.9679 8.671 31.6198 7.99929 31.9319 7.55033C32.1639 7.22086 32.679 7.10369 33.4656 7.2023C34.6941 7.35891 34.9296 7.86704 34.9122 8.26612C34.8948 8.6652 34.5572 9.15477 34.3032 9.33691L33.9656 12.2372L35.1118 12.5968L35.0073 12.9275Z" fill="#6E71FF"/>
<path d="M35.0073 12.9275L33.5595 12.4727L33.9551 9.06544H34.0711C34.215 8.94943 34.635 8.4471 34.5224 8.0747C34.4215 7.73363 33.8786 7.59674 33.4389 7.53989C32.8147 7.461 32.4064 7.53177 32.2567 7.74291C32.056 8.0283 32.3205 8.56427 32.44 8.74641L32.4713 8.79397L32.2532 12.0875L30.6465 11.6444L30.737 11.3184L31.9006 11.6444L32.0839 8.8601C31.9679 8.671 31.6198 7.99929 31.9319 7.55033C32.1639 7.22086 32.679 7.10369 33.4656 7.2023C34.6941 7.35891 34.9296 7.86704 34.9122 8.26612C34.8948 8.6652 34.5572 9.15477 34.3032 9.33691L33.9656 12.2372L35.1118 12.5968L35.0073 12.9275Z" fill="url(#paint0_linear)"/>
<path d="M46.8444 53.4223H17.7174L15.9053 51.9303L17.7174 12.6443L45.0323 11.1523L46.8444 12.6443V53.4223Z" fill="#6E71FF"/>
<path d="M46.8444 53.4223H17.7174L15.9053 51.9303L17.7174 12.6443L45.0323 11.1523L46.8444 12.6443V53.4223Z" fill="url(#paint1_linear)"/>
<path d="M45.8849 52.711L17.2556 52.783L15.9053 51.9303L16.8647 12.5026L44.1796 11.0107L45.9917 12.5026L45.8849 52.711Z" fill="url(#paint2_linear)"/>
<path d="M45.0323 11.1523H15.9053V51.9303H45.0323V11.1523Z" fill="url(#paint3_linear)"/>
<path d="M25.084 13.9901C25.069 14.0933 25.062 14.2221 25.1455 14.2801C25.191 14.3075 25.2432 14.322 25.2963 14.3219C27.9795 14.554 30.6821 14.404 33.3232 13.8764C33.7582 13.7894 34.2849 13.5898 34.3162 13.1478C34.3452 12.7557 33.9682 12.2766 34.2721 12.0306C34.3861 11.9623 34.5163 11.9259 34.6492 11.9251C34.8901 11.8899 35.1203 11.8017 35.3231 11.6669C35.5259 11.5321 35.6963 11.354 35.8221 11.1455L28.2059 11.084C27.4658 11.0782 26.1177 10.7673 25.5887 11.432C25.1792 11.9413 25.084 13.3845 25.084 13.9901Z" fill="url(#paint4_linear)"/>
<path d="M33.5234 12.9456H25.6381L25.1045 8.04409L33.0431 7.99072L33.5234 12.9456Z" fill="#6E71FF"/>
<path d="M33.0435 7.99072L35.9751 9.44783L35.5481 11.152H33.3811L33.0435 7.99072Z" fill="#6E71FF"/>
<path d="M33.0435 7.99072L35.9751 9.44783L35.5481 11.152H33.3811L33.0435 7.99072Z" fill="url(#paint5_linear)"/>
<path d="M31.2788 12.8693L29.7614 12.8101L29.237 9.02117L29.346 8.99332C29.4539 8.82395 29.7254 8.16036 29.5177 7.79145C29.3298 7.45501 28.7695 7.46777 28.3321 7.53854C27.7091 7.63831 27.3332 7.83553 27.2462 8.10816C27.1302 8.47475 27.5258 8.9736 27.6882 9.13486L27.7312 9.17662L28.3959 12.7892H26.73V12.411H27.9423L27.3808 9.35992C27.223 9.18938 26.7021 8.5722 26.8866 7.99331C27.0212 7.56986 27.4875 7.29144 28.2787 7.16498C29.5038 6.96893 29.8658 7.44573 29.9563 7.88194C30.0467 8.31814 29.8495 8.9446 29.6535 9.21607L30.0989 12.4435L31.2997 12.4911L31.2788 12.8693Z" fill="#6E71FF"/>
<path d="M31.2788 12.8693L29.7614 12.8101L29.237 9.02117L29.346 8.99332C29.4539 8.82395 29.7254 8.16036 29.5177 7.79145C29.3298 7.45501 28.7695 7.46777 28.3321 7.53854C27.7091 7.63831 27.3332 7.83553 27.2462 8.10816C27.1302 8.47475 27.5258 8.9736 27.6882 9.13486L27.7312 9.17662L28.3959 12.7892H26.73V12.411H27.9423L27.3808 9.35992C27.223 9.18938 26.7021 8.5722 26.8866 7.99331C27.0212 7.56986 27.4875 7.29144 28.2787 7.16498C29.5038 6.96893 29.8658 7.44573 29.9563 7.88194C30.0467 8.31814 29.8495 8.9446 29.6535 9.21607L30.0989 12.4435L31.2997 12.4911L31.2788 12.8693Z" fill="url(#paint6_linear)"/>
<path d="M29.2615 17.3682H20.3101V28.6642H29.2615V17.3682Z" fill="#6E71FF"/>
<path d="M29.2615 17.3682H20.3101V28.6642H29.2615V17.3682Z" fill="url(#paint7_linear)"/>
<path d="M41.0899 18.9321H32.4935C32.2385 18.9321 32.0317 19.1389 32.0317 19.3939C32.0317 19.6489 32.2385 19.8556 32.4935 19.8556H41.0899C41.3449 19.8556 41.5517 19.6489 41.5517 19.3939C41.5517 19.1389 41.3449 18.9321 41.0899 18.9321Z" fill="#6E71FF"/>
<path d="M41.0899 18.9321H32.4935C32.2385 18.9321 32.0317 19.1389 32.0317 19.3939C32.0317 19.6489 32.2385 19.8556 32.4935 19.8556H41.0899C41.3449 19.8556 41.5517 19.6489 41.5517 19.3939C41.5517 19.1389 41.3449 18.9321 41.0899 18.9321Z" fill="url(#paint8_linear)"/>
<path d="M41.0899 20.9565H32.4935C32.2385 20.9565 32.0317 21.1633 32.0317 21.4183C32.0317 21.6733 32.2385 21.88 32.4935 21.88H41.0899C41.3449 21.88 41.5517 21.6733 41.5517 21.4183C41.5517 21.1633 41.3449 20.9565 41.0899 20.9565Z" fill="#6E71FF"/>
<path d="M41.0899 20.9565H32.4935C32.2385 20.9565 32.0317 21.1633 32.0317 21.4183C32.0317 21.6733 32.2385 21.88 32.4935 21.88H41.0899C41.3449 21.88 41.5517 21.6733 41.5517 21.4183C41.5517 21.1633 41.3449 20.9565 41.0899 20.9565Z" fill="url(#paint9_linear)"/>
<path d="M41.0899 23.9043H32.4935C32.2385 23.9043 32.0317 24.111 32.0317 24.366C32.0317 24.621 32.2385 24.8277 32.4935 24.8277H41.0899C41.3449 24.8277 41.5517 24.621 41.5517 24.366C41.5517 24.111 41.3449 23.9043 41.0899 23.9043Z" fill="#6E71FF"/>
<path d="M41.0899 23.9043H32.4935C32.2385 23.9043 32.0317 24.111 32.0317 24.366C32.0317 24.621 32.2385 24.8277 32.4935 24.8277H41.0899C41.3449 24.8277 41.5517 24.621 41.5517 24.366C41.5517 24.111 41.3449 23.9043 41.0899 23.9043Z" fill="url(#paint10_linear)"/>
<path d="M41.0899 25.9287H32.4935C32.2385 25.9287 32.0317 26.1354 32.0317 26.3904C32.0317 26.6454 32.2385 26.8522 32.4935 26.8522H41.0899C41.3449 26.8522 41.5517 26.6454 41.5517 26.3904C41.5517 26.1354 41.3449 25.9287 41.0899 25.9287Z" fill="#6E71FF"/>
<path d="M41.0899 25.9287H32.4935C32.2385 25.9287 32.0317 26.1354 32.0317 26.3904C32.0317 26.6454 32.2385 26.8522 32.4935 26.8522H41.0899C41.3449 26.8522 41.5517 26.6454 41.5517 26.3904C41.5517 26.1354 41.3449 25.9287 41.0899 25.9287Z" fill="url(#paint11_linear)"/>
<path d="M35.6548 35.3071H27.0584C26.8034 35.3071 26.5967 35.5138 26.5967 35.7689C26.5967 36.0239 26.8034 36.2306 27.0584 36.2306H35.6548C35.9099 36.2306 36.1166 36.0239 36.1166 35.7689C36.1166 35.5138 35.9099 35.3071 35.6548 35.3071Z" fill="#6E71FF"/>
<path d="M35.6548 35.3071H27.0584C26.8034 35.3071 26.5967 35.5138 26.5967 35.7689C26.5967 36.0239 26.8034 36.2306 27.0584 36.2306H35.6548C35.9099 36.2306 36.1166 36.0239 36.1166 35.7689C36.1166 35.5138 35.9099 35.3071 35.6548 35.3071Z" fill="url(#paint12_linear)"/>
<path d="M35.6548 37.3315H27.0584C26.8034 37.3315 26.5967 37.5383 26.5967 37.7933C26.5967 38.0483 26.8034 38.255 27.0584 38.255H35.6548C35.9099 38.255 36.1166 38.0483 36.1166 37.7933C36.1166 37.5383 35.9099 37.3315 35.6548 37.3315Z" fill="#6E71FF"/>
<path d="M35.6548 37.3315H27.0584C26.8034 37.3315 26.5967 37.5383 26.5967 37.7933C26.5967 38.0483 26.8034 38.255 27.0584 38.255H35.6548C35.9099 38.255 36.1166 38.0483 36.1166 37.7933C36.1166 37.5383 35.9099 37.3315 35.6548 37.3315Z" fill="url(#paint13_linear)"/>
<path d="M35.6548 42.126H27.0584C26.8034 42.126 26.5967 42.3327 26.5967 42.5877C26.5967 42.8427 26.8034 43.0494 27.0584 43.0494H35.6548C35.9099 43.0494 36.1166 42.8427 36.1166 42.5877C36.1166 42.3327 35.9099 42.126 35.6548 42.126Z" fill="#6E71FF"/>
<path d="M35.6548 42.126H27.0584C26.8034 42.126 26.5967 42.3327 26.5967 42.5877C26.5967 42.8427 26.8034 43.0494 27.0584 43.0494H35.6548C35.9099 43.0494 36.1166 42.8427 36.1166 42.5877C36.1166 42.3327 35.9099 42.126 35.6548 42.126Z" fill="url(#paint14_linear)"/>
<path d="M35.6548 44.1504H27.0584C26.8034 44.1504 26.5967 44.3571 26.5967 44.6121C26.5967 44.8671 26.8034 45.0738 27.0584 45.0738H35.6548C35.9099 45.0738 36.1166 44.8671 36.1166 44.6121C36.1166 44.3571 35.9099 44.1504 35.6548 44.1504Z" fill="#6E71FF"/>
<path d="M35.6548 44.1504H27.0584C26.8034 44.1504 26.5967 44.3571 26.5967 44.6121C26.5967 44.8671 26.8034 45.0738 27.0584 45.0738H35.6548C35.9099 45.0738 36.1166 44.8671 36.1166 44.6121C36.1166 44.3571 35.9099 44.1504 35.6548 44.1504Z" fill="url(#paint15_linear)"/>
<path d="M41.0889 30.1919H20.5584C20.3034 30.1919 20.0967 30.3986 20.0967 30.6536C20.0967 30.9086 20.3034 31.1153 20.5584 31.1153H41.0889C41.3439 31.1153 41.5507 30.9086 41.5507 30.6536C41.5507 30.3986 41.3439 30.1919 41.0889 30.1919Z" fill="#6E71FF"/>
<path d="M41.0889 30.1919H20.5584C20.3034 30.1919 20.0967 30.3986 20.0967 30.6536C20.0967 30.9086 20.3034 31.1153 20.5584 31.1153H41.0889C41.3439 31.1153 41.5507 30.9086 41.5507 30.6536C41.5507 30.3986 41.3439 30.1919 41.0889 30.1919Z" fill="url(#paint16_linear)"/>
<path d="M41.0889 32.2163H20.5584C20.3034 32.2163 20.0967 32.423 20.0967 32.678C20.0967 32.933 20.3034 33.1398 20.5584 33.1398H41.0889C41.3439 33.1398 41.5507 32.933 41.5507 32.678C41.5507 32.423 41.3439 32.2163 41.0889 32.2163Z" fill="#6E71FF"/>
<path d="M41.0889 32.2163H20.5584C20.3034 32.2163 20.0967 32.423 20.0967 32.678C20.0967 32.933 20.3034 33.1398 20.5584 33.1398H41.0889C41.3439 33.1398 41.5507 32.933 41.5507 32.678C41.5507 32.423 41.3439 32.2163 41.0889 32.2163Z" fill="url(#paint17_linear)"/>
<path d="M24.8924 34.7388H21.1626V38.0416H24.8924V34.7388Z" fill="#6E71FF"/>
<path d="M24.8924 34.7388H21.1626V38.0416H24.8924V34.7388Z" fill="url(#paint18_linear)"/>
<path d="M24.8924 41.9849H21.1626V45.2877H24.8924V41.9849Z" fill="#6E71FF"/>
<path d="M24.8924 41.9849H21.1626V45.2877H24.8924V41.9849Z" fill="url(#paint19_linear)"/>
<path d="M22.1765 26.6721C21.637 27.0677 21.1532 27.7788 21.2484 28.4424C23.8899 28.3125 26.3969 28.4644 28.6928 28.4308C28.6464 27.8275 28.4039 27.0607 27.984 26.6257C27.7652 26.4236 27.5133 26.2607 27.2392 26.1442C26.68 25.8693 26.1127 25.5955 25.499 25.4679C24.2739 25.2092 23.1405 25.9667 22.1765 26.6721Z" fill="url(#paint20_linear)"/>
<path d="M26.8173 22.6373C26.8274 22.7342 26.8168 22.8322 26.7859 22.9246C26.7551 23.0171 26.7049 23.1018 26.6386 23.1733C26.6077 23.21 26.5677 23.238 26.5226 23.2545C26.2906 23.3299 26.2801 22.8612 26.3463 22.7278C26.4252 22.5758 26.7825 22.3357 26.8173 22.6373Z" fill="url(#paint21_linear)"/>
<path d="M22.6952 22.3752C22.685 22.4721 22.6955 22.57 22.7261 22.6624C22.7567 22.7548 22.8067 22.8396 22.8727 22.9112C22.9043 22.9472 22.9441 22.9751 22.9887 22.9924C23.2207 23.0678 23.2312 22.598 23.1639 22.4657C23.0873 22.3172 22.73 22.0736 22.6952 22.3752Z" fill="url(#paint22_linear)"/>
<path d="M24.4624 18.7327C24.6782 18.4672 24.99 18.2975 25.3301 18.2605C25.6596 18.2257 26.0262 18.3394 26.2025 18.6178C26.3164 18.8313 26.3686 19.0723 26.3533 19.3139C26.3738 19.5378 26.3387 19.7633 26.2513 19.9705C26.1442 20.1658 25.9698 20.3154 25.7605 20.3916C25.2779 20.5819 24.7083 20.4276 24.3347 20.0842C23.9612 19.7408 24.17 19.0876 24.4624 18.7327Z" fill="#6E71FF"/>
<path d="M24.4624 18.7327C24.6782 18.4672 24.99 18.2975 25.3301 18.2605C25.6596 18.2257 26.0262 18.3394 26.2025 18.6178C26.3164 18.8313 26.3686 19.0723 26.3533 19.3139C26.3738 19.5378 26.3387 19.7633 26.2513 19.9705C26.1442 20.1658 25.9698 20.3154 25.7605 20.3916C25.2779 20.5819 24.7083 20.4276 24.3347 20.0842C23.9612 19.7408 24.17 19.0876 24.4624 18.7327Z" fill="url(#paint23_linear)"/>
<path d="M25.6223 23.9481C25.6223 23.9481 25.6362 25.4818 25.9854 25.8043C26.3346 26.1268 24.5863 27.6338 23.8462 25.9517C23.8462 25.9517 24.2766 25.2254 24.1293 24.0015C23.9819 22.7776 25.6223 23.9481 25.6223 23.9481Z" fill="url(#paint24_linear)"/>
<path d="M25.6734 24.3115V24.648C25.6734 24.648 24.7859 25.9241 24.4228 25.496C24.0597 25.0679 24.1664 24.9716 24.1664 24.9716L24.127 24.0029L25.6734 24.3115Z" fill="url(#paint25_linear)"/>
<path d="M26.4683 21.7558C26.4683 21.7558 26.7235 24.0969 25.4717 24.5609C24.22 25.025 23.474 24.3591 23.1306 23.2291C22.7872 22.0992 23.3128 19.8184 24.6388 20.04C25.9648 20.2615 26.4683 21.7558 26.4683 21.7558Z" fill="url(#paint26_linear)"/>
<path d="M26.6667 22.5423C26.7238 22.4613 26.7608 22.3679 26.7746 22.2697C26.856 21.8303 26.8207 21.3773 26.672 20.9558C26.5234 20.5344 26.2668 20.1594 25.9277 19.8683C25.7901 19.747 25.6306 19.6529 25.4579 19.591C25.2857 19.54 25.1057 19.5204 24.9265 19.533C24.3614 19.5505 23.8163 19.7467 23.3697 20.0933C23.1492 20.2687 22.9675 20.488 22.8361 20.7372C22.7047 20.9864 22.6265 21.2602 22.6063 21.5412C22.5908 21.7076 22.6179 21.8753 22.6852 22.0284C22.7192 22.1046 22.7707 22.1718 22.8353 22.2246C22.9 22.2774 22.9761 22.3143 23.0576 22.3324C23.3465 22.3822 23.4253 22.1154 23.6597 21.9379C24.0077 21.6699 24.1237 21.272 24.9242 21.3393C26.2259 21.4484 26.3187 22.9704 26.6667 22.5423Z" fill="#6E71FF"/>
<path d="M26.6667 22.5423C26.7238 22.4613 26.7608 22.3679 26.7746 22.2697C26.856 21.8303 26.8207 21.3773 26.672 20.9558C26.5234 20.5344 26.2668 20.1594 25.9277 19.8683C25.7901 19.747 25.6306 19.6529 25.4579 19.591C25.2857 19.54 25.1057 19.5204 24.9265 19.533C24.3614 19.5505 23.8163 19.7467 23.3697 20.0933C23.1492 20.2687 22.9675 20.488 22.8361 20.7372C22.7047 20.9864 22.6265 21.2602 22.6063 21.5412C22.5908 21.7076 22.6179 21.8753 22.6852 22.0284C22.7192 22.1046 22.7707 22.1718 22.8353 22.2246C22.9 22.2774 22.9761 22.3143 23.0576 22.3324C23.3465 22.3822 23.4253 22.1154 23.6597 21.9379C24.0077 21.6699 24.1237 21.272 24.9242 21.3393C26.2259 21.4484 26.3187 22.9704 26.6667 22.5423Z" fill="url(#paint27_linear)"/>
<path d="M22.9273 22.5423C22.912 22.5283 22.8998 22.5113 22.8913 22.4924C22.8859 22.4704 22.8828 22.4478 22.882 22.4251C22.8789 22.4029 22.8683 22.3824 22.8518 22.3671C22.8431 22.36 22.8326 22.3552 22.8214 22.3531C22.8103 22.3511 22.7988 22.3519 22.788 22.3555C22.7789 22.3598 22.7708 22.3659 22.7642 22.3735C22.7576 22.3811 22.7527 22.39 22.7498 22.3996C22.7447 22.4189 22.742 22.4388 22.7416 22.4588C22.7338 22.5358 22.7454 22.6136 22.7753 22.685C22.8037 22.7341 22.8402 22.778 22.8832 22.8149C22.8906 22.824 22.8997 22.8316 22.9101 22.8372C22.9204 22.8428 22.9318 22.8462 22.9435 22.8474C22.9586 22.8464 22.973 22.8412 22.9853 22.8323C22.991 22.8294 22.9961 22.8255 23.0003 22.8207C23.0014 22.815 23.0014 22.8091 23.0003 22.8033C23.0102 22.7504 23.0102 22.6961 23.0003 22.6432C22.9867 22.603 22.9612 22.5678 22.9273 22.5423Z" fill="url(#paint28_linear)"/>
<path d="M26.5502 22.7939C26.5655 22.7799 26.5777 22.763 26.5862 22.744C26.5916 22.7224 26.5947 22.7002 26.5955 22.6779C26.5982 22.6553 26.6094 22.6346 26.6268 22.6199C26.6351 22.6122 26.6453 22.607 26.6563 22.6048C26.6674 22.6025 26.6788 22.6033 26.6894 22.6072C26.6984 22.6116 26.7064 22.6178 26.713 22.6253C26.7196 22.6329 26.7246 22.6417 26.7277 22.6512C26.7328 22.671 26.7355 22.6912 26.7358 22.7116C26.7437 22.7886 26.7321 22.8664 26.7022 22.9378C26.6738 22.9865 26.6373 23.03 26.5943 23.0666C26.579 23.0849 26.5575 23.0968 26.534 23.1002C26.5188 23.0988 26.5043 23.0932 26.4922 23.084C26.4861 23.0818 26.4808 23.0778 26.4771 23.0724C26.4759 23.0666 26.4759 23.0607 26.4771 23.055C26.4673 23.0024 26.4673 22.9485 26.4771 22.896C26.4908 22.8555 26.5162 22.8199 26.5502 22.7939Z" fill="url(#paint29_linear)"/>
<defs>
<linearGradient id="paint0_linear" x1="32.7993" y1="-0.496874" x2="31.42" y2="16.4749" gradientUnits="userSpaceOnUse">
<stop offset="0.38383" stop-opacity="0.75"/>
<stop offset="0.908533" stop-opacity="0"/>
</linearGradient>
<linearGradient id="paint1_linear" x1="34.848" y1="58.0238" x2="38.607" y2="-25.2" gradientUnits="userSpaceOnUse">
<stop stop-opacity="0"/>
<stop offset="0.639117" stop-opacity="0.75"/>
<stop offset="1"/>
</linearGradient>
<linearGradient id="paint2_linear" x1="34.3259" y1="57.3303" x2="38.1007" y2="-24.9081" gradientUnits="userSpaceOnUse">
<stop stop-opacity="0"/>
<stop offset="0.639117" stop-opacity="0.75"/>
<stop offset="1"/>
</linearGradient>
<linearGradient id="paint3_linear" x1="30.4688" y1="11.1523" x2="30.4688" y2="51.9303" gradientUnits="userSpaceOnUse">
<stop offset="0.9999" stop-color="white"/>
<stop offset="1" stop-color="white" stop-opacity="0"/>
</linearGradient>
<linearGradient id="paint4_linear" x1="27.8666" y1="15.4669" x2="29.8907" y2="5.73058" gradientUnits="userSpaceOnUse">
<stop stop-opacity="0"/>
<stop offset="0.799692" stop-opacity="0.51"/>
<stop offset="0.99"/>
</linearGradient>
<linearGradient id="paint5_linear" x1="35.4846" y1="9.33562" x2="32.2903" y2="9.20129" gradientUnits="userSpaceOnUse">
<stop stop-opacity="0"/>
<stop offset="0.639117" stop-opacity="0.75"/>
<stop offset="1"/>
</linearGradient>
<linearGradient id="paint6_linear" x1="28.9331" y1="-0.533236" x2="27.5893" y2="16.4163" gradientUnits="userSpaceOnUse">
<stop offset="0.38383" stop-opacity="0.75"/>
<stop offset="0.908533" stop-opacity="0"/>
</linearGradient>
<linearGradient id="paint7_linear" x1="21.7273" y1="9.17916" x2="34.2891" y2="9.61277" gradientUnits="userSpaceOnUse">
<stop stop-opacity="0"/>
<stop offset="0.87783" stop-opacity="0.75"/>
<stop offset="1"/>
</linearGradient>
<linearGradient id="paint8_linear" x1="33.539" y1="18.2627" x2="44.6699" y2="23.2611" gradientUnits="userSpaceOnUse">
<stop stop-opacity="0"/>
<stop offset="0.87783" stop-opacity="0.75"/>
<stop offset="1"/>
</linearGradient>
<linearGradient id="paint9_linear" x1="33.539" y1="20.2871" x2="44.6699" y2="25.2856" gradientUnits="userSpaceOnUse">
<stop stop-opacity="0"/>
<stop offset="0.87783" stop-opacity="0.75"/>
<stop offset="1"/>
</linearGradient>
<linearGradient id="paint10_linear" x1="33.539" y1="23.2348" x2="44.6699" y2="28.2333" gradientUnits="userSpaceOnUse">
<stop stop-opacity="0"/>
<stop offset="0.87783" stop-opacity="0.75"/>
<stop offset="1"/>
</linearGradient>
<linearGradient id="paint11_linear" x1="33.539" y1="25.2593" x2="44.6699" y2="30.2577" gradientUnits="userSpaceOnUse">
<stop stop-opacity="0"/>
<stop offset="0.87783" stop-opacity="0.75"/>
<stop offset="1"/>
</linearGradient>
<linearGradient id="paint12_linear" x1="28.1039" y1="34.6377" x2="39.2348" y2="39.6361" gradientUnits="userSpaceOnUse">
<stop stop-opacity="0"/>
<stop offset="0.87783" stop-opacity="0.75"/>
<stop offset="1"/>
</linearGradient>
<linearGradient id="paint13_linear" x1="28.1039" y1="36.6621" x2="39.2348" y2="41.6605" gradientUnits="userSpaceOnUse">
<stop stop-opacity="0"/>
<stop offset="0.87783" stop-opacity="0.75"/>
<stop offset="1"/>
</linearGradient>
<linearGradient id="paint14_linear" x1="28.1039" y1="41.4565" x2="39.2348" y2="46.455" gradientUnits="userSpaceOnUse">
<stop stop-opacity="0"/>
<stop offset="0.87783" stop-opacity="0.75"/>
<stop offset="1"/>
</linearGradient>
<linearGradient id="paint15_linear" x1="28.1039" y1="43.4809" x2="39.2348" y2="48.4794" gradientUnits="userSpaceOnUse">
<stop stop-opacity="0"/>
<stop offset="0.87783" stop-opacity="0.75"/>
<stop offset="1"/>
</linearGradient>
<linearGradient id="paint16_linear" x1="23.4933" y1="29.5224" x2="38.3852" y2="44.5929" gradientUnits="userSpaceOnUse">
<stop stop-opacity="0"/>
<stop offset="0.87783" stop-opacity="0.75"/>
<stop offset="1"/>
</linearGradient>
<linearGradient id="paint17_linear" x1="23.4933" y1="31.5468" x2="38.3854" y2="46.6173" gradientUnits="userSpaceOnUse">
<stop stop-opacity="0"/>
<stop offset="0.87783" stop-opacity="0.75"/>
<stop offset="1"/>
</linearGradient>
<linearGradient id="paint18_linear" x1="21.7531" y1="32.3444" x2="26.9808" y2="32.6015" gradientUnits="userSpaceOnUse">
<stop stop-opacity="0"/>
<stop offset="0.87783" stop-opacity="0.75"/>
<stop offset="1"/>
</linearGradient>
<linearGradient id="paint19_linear" x1="21.7531" y1="39.5905" x2="26.9808" y2="39.8476" gradientUnits="userSpaceOnUse">
<stop stop-opacity="0"/>
<stop offset="0.87783" stop-opacity="0.75"/>
<stop offset="1"/>
</linearGradient>
<linearGradient id="paint20_linear" x1="24.9646" y1="25.416" x2="24.9646" y2="28.4424" gradientUnits="userSpaceOnUse">
<stop offset="0.9999" stop-color="white"/>
<stop offset="1" stop-color="white" stop-opacity="0"/>
</linearGradient>
<linearGradient id="paint21_linear" x1="26.8208" y1="22.8774" x2="26.3138" y2="22.8774" gradientUnits="userSpaceOnUse">
<stop stop-color="#E4C5D5"/>
<stop offset="0.42" stop-color="#E9D3CF"/>
<stop offset="1" stop-color="#EFE8CA"/>
</linearGradient>
<linearGradient id="paint22_linear" x1="22.6914" y1="22.6161" x2="23.2003" y2="22.6161" gradientUnits="userSpaceOnUse">
<stop stop-color="#E5C5D5"/>
<stop offset="0.42" stop-color="#EAD4D1"/>
<stop offset="1" stop-color="#F0E9CB"/>
</linearGradient>
<linearGradient id="paint23_linear" x1="26.6897" y1="16.8528" x2="20.9361" y2="15.8705" gradientUnits="userSpaceOnUse">
<stop offset="0.079127"/>
<stop offset="0.83" stop-opacity="0.07"/>
<stop offset="1" stop-opacity="0"/>
</linearGradient>
<linearGradient id="paint24_linear" x1="23.8462" y1="25.0887" x2="26.0325" y2="25.0887" gradientUnits="userSpaceOnUse">
<stop stop-color="#E5C5D5"/>
<stop offset="0.42" stop-color="#EAD4D1"/>
<stop offset="1" stop-color="#F0E9CB"/>
</linearGradient>
<linearGradient id="paint25_linear" x1="25.1537" y1="25.8661" x2="24.1444" y2="20.8811" gradientUnits="userSpaceOnUse">
<stop offset="0.12" stop-color="#010101" stop-opacity="0"/>
<stop offset="0.95" stop-color="#010101"/>
</linearGradient>
<linearGradient id="paint26_linear" x1="23.0284" y1="22.3679" x2="26.4921" y2="22.3679" gradientUnits="userSpaceOnUse">
<stop stop-color="#E5C5D5"/>
<stop offset="0.42" stop-color="#EAD4D1"/>
<stop offset="1" stop-color="#F0E9CB"/>
</linearGradient>
<linearGradient id="paint27_linear" x1="29.0669" y1="17.8668" x2="18.2691" y2="15.6451" gradientUnits="userSpaceOnUse">
<stop offset="0.079127"/>
<stop offset="0.83" stop-opacity="0.07"/>
<stop offset="1" stop-opacity="0"/>
</linearGradient>
<linearGradient id="paint28_linear" x1="22.7393" y1="22.5998" x2="23.0079" y2="22.5998" gradientUnits="userSpaceOnUse">
<stop stop-color="#E5C5D5"/>
<stop offset="0.42" stop-color="#EAD4D1"/>
<stop offset="1" stop-color="#F0E9CB"/>
</linearGradient>
<linearGradient id="paint29_linear" x1="26.4697" y1="22.8519" x2="26.7384" y2="22.8519" gradientUnits="userSpaceOnUse">
<stop stop-color="#E5C5D5"/>
<stop offset="0.42" stop-color="#EAD4D1"/>
<stop offset="1" stop-color="#F0E9CB"/>
</linearGradient>
</defs>
</svg>
