<svg width="64" height="64" viewBox="0 0 64 64" fill="none" xmlns="http://www.w3.org/2000/svg">
<path opacity="0.18" d="M63.8021 49.4712C63.6316 51.3815 63.3286 53.3526 62.41 54.8719C61.5877 56.2454 60.3582 57.1003 59.1366 57.8458C51.1378 62.6895 42.0909 63.9232 33.2524 63.9961C26.4436 64.0569 19.4644 63.433 13.2301 59.9182C7.20885 56.525 1.94679 49.9918 0.463187 41.8116C0.409525 41.524 0.363754 41.2343 0.319562 40.9406C-0.0655444 38.2928 -0.0513396 35.554 0.0954425 32.8556C0.377959 27.6655 1.22709 22.2749 3.81077 18.2577C6.09142 14.7065 9.43426 12.6463 12.4741 10.193C15.0988 8.07405 17.5515 5.59447 20.2993 3.75303C23.9294 1.32207 27.9872 0.130903 32.0655 0.00732991C39.1237 -0.19525 45.0487 3.85634 51.8101 5.33315C58.892 6.87478 59.0703 13.5376 59.7553 21.4727C60.0962 25.3905 61.5088 29.0005 62.47 32.7462C63.8492 38.1325 64.3036 43.8381 63.8021 49.4712Z" fill="#6E71FF"/>
<path opacity="0.37" d="M64 46.2953C64 48.4001 63.7176 52.803 62.8 54.4667C61.6 56.9429 60.1333 57.3144 58.9333 58.181C50.1333 63.2572 41.5888 63.9158 32.752 63.9956C25.9506 64.0642 18.9805 63.3797 12.753 59.5361C3.73695 53.9715 1.48199 48.6855 0 39.7334H63.6C63.7333 41.4667 64 43.6953 64 46.2953Z" fill="#6E71FF"/>
<path d="M9.99017 46.8206C9.51854 47.3331 9.04692 47.8817 9.04692 48.4838C9.03749 49.5843 10.5671 50.3955 12.0779 50.8011C14.0776 51.3372 16.2581 51.4661 18.4056 51.5714C26.7376 51.9849 35.1043 52.1484 43.4631 52.3119C46.8792 52.3795 50.3363 52.4423 53.6707 51.9424C54.9126 51.7553 56.2693 51.4126 56.7834 50.6282C57.4248 49.6472 56.4376 48.4272 57.1073 47.4572C57.461 46.9447 58.2345 46.5785 58.4404 46.0298C58.6841 45.3758 57.9845 44.6951 57.09 44.3932C56.1954 44.0914 55.1532 44.0788 54.1517 44.0647C46.9002 43.9945 39.6476 43.9421 32.394 43.9075L17.8239 43.8226C16.3147 43.8147 13.0117 43.351 11.7226 43.9656C10.6677 44.4624 10.7086 46.0345 9.99017 46.8206Z" fill="url(#paint0_linear)"/>
<path opacity="0.74" d="M17.2242 31.8055C17.0154 32.0469 16.8067 32.3053 16.8067 32.5888C16.8025 33.1071 17.4796 33.4892 18.1484 33.6802C19.0336 33.9327 19.9988 33.9934 20.9494 34.043C24.6377 34.2377 28.3414 34.3147 32.0415 34.3917C33.5537 34.4236 35.084 34.4532 36.56 34.2177C37.1098 34.1296 37.7104 33.9682 37.9379 33.5988C38.2219 33.1367 37.7848 32.5622 38.0813 32.1053C38.2379 31.864 38.5803 31.6915 38.6714 31.4331C38.7793 31.125 38.4696 30.8044 38.0736 30.6623C37.6777 30.5201 37.2163 30.5142 36.773 30.5075C33.563 30.4745 30.3525 30.4498 27.1416 30.4335L20.6919 30.3935C20.0238 30.3898 18.5617 30.1714 17.9911 30.4609C17.5241 30.6949 17.5422 31.4353 17.2242 31.8055Z" fill="#6E71FF"/>
<path d="M14.2549 42.6558H20.9773V48.8196C20.9773 49.0353 20.9373 49.2488 20.8598 49.448C20.7822 49.6473 20.6685 49.8283 20.5252 49.9808C20.3819 50.1333 20.2118 50.2542 20.0245 50.3367C19.8372 50.4193 19.6365 50.4617 19.4339 50.4617H15.7983C15.5956 50.4617 15.3949 50.4193 15.2077 50.3367C15.0204 50.2542 14.8503 50.1333 14.7069 49.9808C14.5636 49.8283 14.4499 49.6473 14.3724 49.448C14.2948 49.2488 14.2549 49.0353 14.2549 48.8196V42.6558Z" fill="#090909"/>
<path d="M47.1406 42.6558H53.8645V48.8196C53.8645 49.0353 53.8246 49.2488 53.747 49.448C53.6695 49.6473 53.5558 49.8283 53.4125 49.9808C53.2691 50.1333 53.099 50.2542 52.9117 50.3367C52.7245 50.4193 52.5238 50.4617 52.3211 50.4617H48.684C48.4813 50.4617 48.2806 50.4193 48.0934 50.3367C47.9061 50.2542 47.736 50.1333 47.5927 49.9808C47.4494 49.8283 47.3357 49.6473 47.2581 49.448C47.1805 49.2488 47.1406 49.0353 47.1406 48.8196V42.6558Z" fill="#090909"/>
<path d="M15.1883 28.5541H18.378V25.6982H15.1883C14.8323 25.6982 14.491 25.8487 14.2393 26.1165C13.9876 26.3843 13.8462 26.7475 13.8462 27.1262C13.8462 27.5049 13.9876 27.8681 14.2393 28.1359C14.491 28.4036 14.8323 28.5541 15.1883 28.5541Z" fill="#6E71FF"/>
<path d="M52.8118 28.5541H49.6221V25.6982H52.8118C53.1677 25.6982 53.5091 25.8487 53.7608 26.1165C54.0125 26.3843 54.1539 26.7475 54.1539 27.1262C54.1539 27.5049 54.0125 27.8681 53.7608 28.1359C53.5091 28.4036 53.1677 28.5541 52.8118 28.5541Z" fill="#6E71FF"/>
<path d="M15.1883 28.5541H18.378V25.6982H15.1883C14.8323 25.6982 14.491 25.8487 14.2393 26.1165C13.9876 26.3843 13.8462 26.7475 13.8462 27.1262C13.8462 27.5049 13.9876 27.8681 14.2393 28.1359C14.491 28.4036 14.8323 28.5541 15.1883 28.5541Z" fill="url(#paint1_linear)"/>
<path d="M52.8118 28.5541H49.6221V25.6982H52.8118C53.1677 25.6982 53.5091 25.8487 53.7608 26.1165C54.0125 26.3843 54.1539 26.7475 54.1539 27.1262C54.1539 27.5049 54.0125 27.8681 53.7608 28.1359C53.5091 28.4036 53.1677 28.5541 52.8118 28.5541Z" fill="url(#paint2_linear)"/>
<path d="M15.3046 31.4478C14.6135 33.3584 14.2597 35.3883 14.2607 37.4355L23.0142 42.0953L44.2118 42.1397L53.8703 37.4355C53.8707 35.3883 53.5169 33.3586 52.8265 31.4478H15.3046Z" fill="#6E71FF"/>
<path d="M15.3046 31.4478C14.6135 33.3584 14.2597 35.3883 14.2607 37.4355L23.0142 42.0953L44.2118 42.1397L53.8703 37.4355C53.8707 35.3883 53.5169 33.3586 52.8265 31.4478H15.3046Z" fill="url(#paint3_linear)"/>
<path d="M42.1854 17.8462H25.9864C24.503 17.8461 23.0563 18.3373 21.8471 19.2516C20.638 20.166 19.7263 21.4581 19.2387 22.9486L18.0576 26.5549H50.1187L48.9362 22.9486C48.4485 21.4574 47.5364 20.1648 46.3267 19.2504C45.1169 18.336 43.6694 17.8452 42.1854 17.8462Z" fill="#6E71FF"/>
<path d="M48.5695 26.5549H19.124L20.317 22.8598C20.6941 21.6982 21.4026 20.6908 22.3435 19.9781C23.2845 19.2654 24.411 18.8828 25.5661 18.8838H42.3467C43.5578 18.8837 44.7356 19.3053 45.7004 20.0843C46.6651 20.8632 47.3638 21.9567 47.6897 23.1977L48.5695 26.5549Z" fill="url(#paint4_linear)"/>
<path d="M48.5695 26.5549H19.124L20.317 22.8598C20.6941 21.6982 21.4026 20.6908 22.3435 19.9781C23.2845 19.2654 24.411 18.8828 25.5661 18.8838H42.3467C43.5578 18.8837 44.7356 19.3053 45.7004 20.0843C46.6651 20.8632 47.3638 21.9567 47.6897 23.1977L48.5695 26.5549Z" fill="url(#paint5_linear)"/>
<path d="M15.3042 31.4481C27.6176 33.0983 40.0759 33.117 52.3937 31.5036L52.8142 31.4481C52.2086 29.7742 51.3525 28.2156 50.2791 26.8327L50.0599 26.5503H18.057L17.8363 26.8327C16.7643 28.2162 15.9093 29.7747 15.3042 31.4481Z" fill="#6E71FF"/>
<path d="M15.3042 31.4481C27.6176 33.0983 40.0759 33.117 52.3937 31.5036L52.8142 31.4481C52.2086 29.7742 51.3525 28.2156 50.2791 26.8327L50.0599 26.5503H18.057L17.8363 26.8327C16.7643 28.2162 15.9093 29.7747 15.3042 31.4481Z" fill="url(#paint6_linear)"/>
<path d="M54.1314 40.6644L53.8645 37.4404H53.438L49.4609 38.6684C46.5478 39.5694 43.5294 40.0266 40.4958 40.0266H27.1971C24.1634 40.0266 21.1451 39.5694 18.232 38.6684L14.2549 37.4404L13.988 40.6644C13.9241 41.4388 14.0122 42.2188 14.2469 42.955C14.4816 43.6912 14.8576 44.3674 15.3511 44.9407C15.8446 45.5139 16.4448 45.9717 17.1135 46.2849C17.7823 46.5981 18.5049 46.7599 19.2355 46.76H48.8838C49.6145 46.7599 50.3371 46.5981 51.0058 46.2849C51.6746 45.9717 52.2747 45.5139 52.7682 44.9407C53.2617 44.3674 53.6378 43.6912 53.8725 42.955C54.1071 42.2188 54.1953 41.4388 54.1314 40.6644Z" fill="#6E71FF"/>
<path d="M54.1314 40.6644L53.8645 37.4404H53.438L49.4609 38.6684C46.5478 39.5694 43.5294 40.0266 40.4958 40.0266H27.1971C24.1634 40.0266 21.1451 39.5694 18.232 38.6684L14.2549 37.4404L13.988 40.6644C13.9241 41.4388 14.0122 42.2188 14.2469 42.955C14.4816 43.6912 14.8576 44.3674 15.3511 44.9407C15.8446 45.5139 16.4448 45.9717 17.1135 46.2849C17.7823 46.5981 18.5049 46.7599 19.2355 46.76H48.8838C49.6145 46.7599 50.3371 46.5981 51.0058 46.2849C51.6746 45.9717 52.2747 45.5139 52.7682 44.9407C53.2617 44.3674 53.6378 43.6912 53.8725 42.955C54.1071 42.2188 54.1953 41.4388 54.1314 40.6644Z" fill="url(#paint7_linear)"/>
<path d="M34.0593 33.1709H26.1245L27.7067 38.0195H34.0593H40.4103L41.994 33.1709H34.0593Z" fill="#6E71FF"/>
<path d="M34.0593 33.1709H26.1245L27.7067 38.0195H34.0593H40.4103L41.994 33.1709H34.0593Z" fill="url(#paint8_linear)"/>
<path d="M34.0597 33.5552H26.7065L28.1724 37.6358H34.0597H39.947L41.4129 33.5552H34.0597Z" fill="#6E71FF"/>
<path d="M34.0597 33.5552H26.7065L28.1724 37.6358H34.0597H39.947L41.4129 33.5552H34.0597Z" fill="url(#paint9_linear)"/>
<path d="M41.3532 34.0215H26.7065V34.5324H41.3532V34.0215Z" fill="#6E71FF"/>
<path d="M41.3532 34.0215H26.7065V34.5324H41.3532V34.0215Z" fill="url(#paint10_linear)"/>
<path d="M40.9446 35.3398H27.1807V35.8507H40.9446V35.3398Z" fill="#6E71FF"/>
<path d="M40.9446 35.3398H27.1807V35.8507H40.9446V35.3398Z" fill="url(#paint11_linear)"/>
<path d="M40.4225 36.6582H27.5161V37.1691H40.4225V36.6582Z" fill="#6E71FF"/>
<path d="M40.4225 36.6582H27.5161V37.1691H40.4225V36.6582Z" fill="url(#paint12_linear)"/>
<path d="M45.6521 45.4942H22.4727C22.4727 43.9266 24.4768 42.6558 26.9463 42.6558H41.171C43.6434 42.6558 45.6446 43.925 45.6446 45.4942H45.6521Z" fill="#6E71FF"/>
<path d="M45.6521 45.4942H22.4727C22.4727 43.9266 24.4768 42.6558 26.9463 42.6558H41.171C43.6434 42.6558 45.6446 43.925 45.6446 45.4942H45.6521Z" fill="url(#paint13_linear)"/>
<path d="M42.725 32.4346L48.5691 26.5547H19.1221L25.3404 32.425C31.1302 32.786 36.9349 32.7892 42.725 32.4346Z" fill="#6E71FF"/>
<path d="M42.725 32.4346L48.5691 26.5547H19.1221L25.3404 32.425C31.1302 32.786 36.9349 32.7892 42.725 32.4346Z" fill="url(#paint14_linear)"/>
<path d="M25.0161 33.2078C25.0161 33.2078 17.3617 32.597 16.5311 32.9349C15.7005 33.2729 15.189 36.2667 15.189 36.2667L26.6713 37.8961L25.0161 33.2078Z" fill="#6E71FF"/>
<path d="M25.0161 33.2078C25.0161 33.2078 17.3617 32.597 16.5311 32.9349C15.7005 33.2729 15.189 36.2667 15.189 36.2667L26.6713 37.8961L25.0161 33.2078Z" fill="url(#paint15_linear)"/>
<path d="M43.123 33.2078C43.123 33.2078 50.7789 32.597 51.608 32.9349C52.4371 33.2729 52.9501 36.2667 52.9501 36.2667L41.4678 37.8961L43.123 33.2078Z" fill="white"/>
<path d="M28.7196 22.1187C28.6989 22.163 28.6688 22.2016 28.6316 22.2313C28.5901 22.0753 28.5347 21.9239 28.4661 21.7792L28.0918 20.9192C28.1655 20.8781 28.2451 20.8502 28.3274 20.8367C28.4381 20.8172 28.5516 20.8445 28.6436 20.9129C28.706 20.9702 28.7503 21.0467 28.7703 21.1318C28.8026 21.2666 28.8182 21.4053 28.8165 21.5443C28.838 21.7418 28.8043 21.9415 28.7196 22.1187Z" fill="url(#paint16_linear)"/>
<path d="M25.5659 18.8838L31.6516 26.5327L37.9877 26.4867L32.5448 19.0202L25.5659 18.8838Z" fill="url(#paint17_linear)"/>
<defs>
<linearGradient id="paint0_linear" x1="87.3497" y1="73.123" x2="7.22082" y2="27.9912" gradientUnits="userSpaceOnUse">
<stop offset="0.079127"/>
<stop offset="0.83" stop-opacity="0.07"/>
<stop offset="1" stop-opacity="0"/>
</linearGradient>
<linearGradient id="paint1_linear" x1="15.9354" y1="22.4474" x2="16.44" y2="32.4224" gradientUnits="userSpaceOnUse">
<stop offset="0.01"/>
<stop offset="0.83" stop-opacity="0.07"/>
<stop offset="1" stop-opacity="0"/>
</linearGradient>
<linearGradient id="paint2_linear" x1="1560.3" y1="342.41" x2="1565.68" y2="522.258" gradientUnits="userSpaceOnUse">
<stop offset="0.01"/>
<stop offset="0.83" stop-opacity="0.07"/>
<stop offset="1" stop-opacity="0"/>
</linearGradient>
<linearGradient id="paint3_linear" x1="33.9546" y1="18.645" x2="32.9879" y2="46.5479" gradientUnits="userSpaceOnUse">
<stop offset="0.01"/>
<stop offset="0.83" stop-opacity="0.07"/>
<stop offset="1" stop-opacity="0"/>
</linearGradient>
<linearGradient id="paint4_linear" x1="28.7791" y1="14.3308" x2="37.2187" y2="32.9588" gradientUnits="userSpaceOnUse">
<stop/>
<stop offset="1" stop-color="#161616" stop-opacity="0"/>
</linearGradient>
<linearGradient id="paint5_linear" x1="52.9459" y1="14.0398" x2="21.3645" y2="-1.25396" gradientUnits="userSpaceOnUse">
<stop offset="0.079127"/>
<stop offset="0.83" stop-opacity="0.07"/>
<stop offset="1" stop-opacity="0"/>
</linearGradient>
<linearGradient id="paint6_linear" x1="36.7363" y1="0.0759207" x2="31.5997" y2="23.751" gradientUnits="userSpaceOnUse">
<stop stop-opacity="0"/>
<stop offset="0.01"/>
<stop offset="0.83" stop-opacity="0.07"/>
</linearGradient>
<linearGradient id="paint7_linear" x1="32.4928" y1="26.8317" x2="33.1001" y2="59.4555" gradientUnits="userSpaceOnUse">
<stop offset="0.01"/>
<stop offset="0.83" stop-opacity="0.07"/>
<stop offset="1" stop-opacity="0"/>
</linearGradient>
<linearGradient id="paint8_linear" x1="52.1081" y1="40.4418" x2="33.6537" y2="30.5571" gradientUnits="userSpaceOnUse">
<stop offset="0.02" stop-color="white" stop-opacity="0"/>
<stop offset="0.58" stop-color="white" stop-opacity="0.39"/>
<stop offset="1" stop-color="white"/>
</linearGradient>
<linearGradient id="paint9_linear" x1="3143.27" y1="646.799" x2="3146.66" y2="949.305" gradientUnits="userSpaceOnUse">
<stop offset="0.01"/>
<stop offset="0.83" stop-opacity="0.07"/>
<stop offset="1" stop-opacity="0"/>
</linearGradient>
<linearGradient id="paint10_linear" x1="50.688" y1="34.7876" x2="49.7355" y2="30.3187" gradientUnits="userSpaceOnUse">
<stop offset="0.02" stop-color="white" stop-opacity="0"/>
<stop offset="0.58" stop-color="white" stop-opacity="0.39"/>
<stop offset="1" stop-color="white"/>
</linearGradient>
<linearGradient id="paint11_linear" x1="49.7167" y1="36.1059" x2="48.709" y2="31.6628" gradientUnits="userSpaceOnUse">
<stop offset="0.02" stop-color="white" stop-opacity="0"/>
<stop offset="0.58" stop-color="white" stop-opacity="0.39"/>
<stop offset="1" stop-color="white"/>
</linearGradient>
<linearGradient id="paint12_linear" x1="48.6482" y1="37.4243" x2="47.5807" y2="33.0108" gradientUnits="userSpaceOnUse">
<stop offset="0.02" stop-color="white" stop-opacity="0"/>
<stop offset="0.58" stop-color="white" stop-opacity="0.39"/>
<stop offset="1" stop-color="white"/>
</linearGradient>
<linearGradient id="paint13_linear" x1="34.2245" y1="41.9264" x2="34.2245" y2="50.0117" gradientUnits="userSpaceOnUse">
<stop stop-color="#0C0C0C"/>
<stop offset="1" stop-color="#050505" stop-opacity="0"/>
</linearGradient>
<linearGradient id="paint14_linear" x1="36.6103" y1="6.13093" x2="31.2839" y2="40.1122" gradientUnits="userSpaceOnUse">
<stop offset="0.01"/>
<stop offset="0.83" stop-opacity="0.07"/>
<stop offset="1" stop-opacity="0"/>
</linearGradient>
<linearGradient id="paint15_linear" x1="33.9893" y1="40.4256" x2="18.8861" y2="34.8204" gradientUnits="userSpaceOnUse">
<stop offset="0.02" stop-color="white" stop-opacity="0"/>
<stop offset="0.58" stop-color="white" stop-opacity="0.39"/>
<stop offset="1" stop-color="white"/>
</linearGradient>
<linearGradient id="paint16_linear" x1="165.286" y1="182.367" x2="155.028" y2="183.066" gradientUnits="userSpaceOnUse">
<stop offset="0.01"/>
<stop offset="0.83" stop-opacity="0.07"/>
<stop offset="1" stop-opacity="0"/>
</linearGradient>
<linearGradient id="paint17_linear" x1="32.3987" y1="13.069" x2="29.0179" y2="59.3018" gradientUnits="userSpaceOnUse">
<stop offset="0.02" stop-color="white" stop-opacity="0"/>
<stop offset="0.39" stop-color="white" stop-opacity="0.39"/>
<stop offset="1" stop-color="white"/>
</linearGradient>
</defs>
</svg>
