<svg width="64" height="64" viewBox="0 0 64 64" fill="none" xmlns="http://www.w3.org/2000/svg">
<g clip-path="url(#clip0)">
<path opacity="0.18" d="M4.91795 54.5779C5.66551 55.1729 6.48181 55.6589 7.34595 56.0234C8.84175 56.6527 10.4351 56.9344 11.9702 57.4194C12.6516 57.6324 13.3203 57.8907 13.9764 58.1724C17.9496 59.8694 21.596 62.5611 25.7757 63.5436C33.5207 65.3779 41.0061 61.2077 48.4091 59.4393C54.7521 57.9278 59.907 61.5416 62.468 50.6069C63.5382 46.0547 64.863 41.2345 63.2431 36.8665C61.6232 32.4984 59.3421 28.4641 57.7969 24.0741C55.5905 17.8043 54.7736 10.5809 50.4318 5.79649C47.425 2.48366 43.1276 0.884272 38.8707 0.316791C34.6137 -0.250691 30.3036 0.113432 26.0176 0.132669C20.8551 0.150531 15.3557 -0.242446 10.8911 2.5771C9.31646 3.58706 7.9593 4.95085 6.91071 6.57687C5.86212 8.2029 5.14638 10.0535 4.81156 12.0044C3.92496 17.3893 6.02999 22.9721 5.08387 28.3474C4.20615 33.3516 0.777569 37.5397 0.107559 42.5852C-0.500389 47.1278 1.5185 51.893 4.91795 54.5779Z" fill="#6E71FF"/>
<path d="M37.1934 38.0245V33.1089H24.5532V38.0245L30.8733 43.6424L37.1934 38.0245Z" fill="#E5C5D5"/>
<path d="M46.9661 40.3241L38.2764 38.2795C38.1452 38.2486 38.0245 38.1962 37.9115 38.1326L30.8734 42.2382L24.1098 37.9341C23.9347 38.0989 23.7174 38.2214 23.4705 38.2796L14.7809 40.3242C13.512 40.6228 12.6152 41.755 12.6152 43.0585V48.5584C12.6152 49.3341 13.244 49.9629 14.0197 49.9629H47.727C48.5027 49.9629 49.1315 49.3341 49.1315 48.5584V43.0585C49.1316 41.7549 48.2349 40.6226 46.9661 40.3241Z" fill="#6E71FF"/>
<path d="M46.9661 40.3241L38.2764 38.2795C38.1452 38.2486 38.0245 38.1962 37.9115 38.1326L30.8734 42.2382L24.1098 37.9341C23.9347 38.0989 23.7174 38.2214 23.4705 38.2796L14.7809 40.3242C13.512 40.6228 12.6152 41.755 12.6152 43.0585V48.5584C12.6152 49.3341 13.244 49.9629 14.0197 49.9629H47.727C48.5027 49.9629 49.1314 49.3341 49.1314 48.5584V43.0585C49.1316 41.7549 48.2349 40.6226 46.9661 40.3241Z" fill="url(#paint0_linear)"/>
<path d="M24.5532 33.109V38.2954C32.5149 41.1638 37.1934 33.9847 37.1934 33.9847V33.1089H24.5532V33.109Z" fill="#D1B4C2"/>
<path d="M21.7446 16.9575L22.3566 30.4203C22.4137 31.678 23.0304 32.8443 24.0375 33.5997L26.9411 35.7774C27.6705 36.3244 28.5575 36.6202 29.4692 36.6202H32.2782C33.1899 36.6202 34.0769 36.3244 34.8062 35.7774L37.7098 33.5997C38.717 32.8443 39.3337 31.6781 39.3908 30.4203L40.0027 16.9575H21.7446Z" fill="#E5C5D5"/>
<path d="M21.7446 16.9575L22.3566 30.4203C22.4137 31.678 23.0304 32.8443 24.0375 33.5997L26.9411 35.7774C27.6705 36.3244 28.5575 36.6202 29.4692 36.6202H32.2782C33.1899 36.6202 34.0769 36.3244 34.8062 35.7774L37.7098 33.5997C38.717 32.8443 39.3337 31.6781 39.3908 30.4203L40.0027 16.9575H21.7446Z" fill="url(#paint1_linear)"/>
<path d="M28.767 19.7665C31.576 19.7665 35.7894 19.0643 36.7887 16.9575H21.7446L22.3566 30.4203C22.4137 31.678 23.0304 32.8443 24.0376 33.5997L26.9412 35.7774C27.6705 36.3244 28.5576 36.6201 29.4693 36.6201H30.8737C29.4693 36.6201 26.6603 33.8112 26.6603 30.3C26.6603 28.5828 26.6603 23.9799 26.6603 21.8732C26.6603 21.171 27.3625 19.7665 28.767 19.7665Z" fill="#E5C5D5"/>
<path d="M28.767 19.7665C31.576 19.7665 35.7894 19.0643 36.7887 16.9575H21.7446L22.3566 30.4203C22.4137 31.678 23.0304 32.8443 24.0376 33.5997L26.9412 35.7774C27.6705 36.3244 28.5576 36.6201 29.4693 36.6201H30.8737C29.4693 36.6201 26.6603 33.8112 26.6603 30.3C26.6603 28.5828 26.6603 23.9799 26.6603 21.8732C26.6603 21.171 27.3625 19.7665 28.767 19.7665Z" fill="url(#paint2_linear)"/>
<path d="M17.771 45.4055L13.2206 41.3179C12.8393 41.8007 12.6157 42.4082 12.6157 43.0587V48.5586C12.6157 49.3343 13.2445 49.963 14.0202 49.963H18.9358V48.0176C18.9358 47.021 18.5123 46.0714 17.771 45.4055Z" fill="#6E71FF"/>
<path d="M17.771 45.4055L13.2206 41.3179C12.8393 41.8007 12.6157 42.4082 12.6157 43.0587V48.5586C12.6157 49.3343 13.2445 49.963 14.0202 49.963H18.9358V48.0176C18.9358 47.021 18.5123 46.0714 17.771 45.4055Z" fill="url(#paint3_linear)"/>
<path d="M43.9764 45.4055L48.5268 41.3179C48.9081 41.8007 49.1316 42.4082 49.1316 43.0587V48.5586C49.1316 49.3343 48.5028 49.963 47.7272 49.963H42.8115V48.0176C42.8115 47.021 43.235 46.0714 43.9764 45.4055Z" fill="#6E71FF"/>
<path d="M43.9764 45.4055L48.5268 41.3179C48.9081 41.8007 49.1316 42.4082 49.1316 43.0587V48.5586C49.1316 49.3343 48.5028 49.963 47.7272 49.963H42.8115V48.0176C42.8115 47.021 43.235 46.0714 43.9764 45.4055Z" fill="url(#paint4_linear)"/>
<path d="M32.6289 49.9628H29.1177L29.5566 43.6426H32.19L32.6289 49.9628Z" fill="#6E71FF"/>
<path d="M32.6289 42.2383H29.1177V43.5599C29.1177 43.9936 29.4691 44.345 29.9028 44.345H31.8437C32.2773 44.345 32.6288 43.9936 32.6288 43.5599V42.2383H32.6289Z" fill="#6E71FF"/>
<path d="M32.6289 42.2383H29.1177V43.5599C29.1177 43.9936 29.4691 44.345 29.9028 44.345H31.8437C32.2773 44.345 32.6288 43.9936 32.6288 43.5599V42.2383H32.6289Z" fill="url(#paint5_linear)"/>
<path d="M24.4548 36.4611L30.8736 42.2379C30.8736 42.2379 29.076 43.1454 26.8577 44.9744C26.4001 45.3517 25.7079 45.1988 25.4624 44.6589L22.4468 38.0245L23.4008 36.5936C23.6382 36.2372 24.1365 36.1747 24.4548 36.4611Z" fill="#6E71FF"/>
<path d="M24.4548 36.4611L30.8736 42.2379C30.8736 42.2379 29.076 43.1454 26.8577 44.9744C26.4001 45.3517 25.7079 45.1988 25.4624 44.6589L22.4468 38.0245L23.4008 36.5936C23.6382 36.2372 24.1365 36.1747 24.4548 36.4611Z" fill="url(#paint6_linear)"/>
<path d="M37.2923 36.4611L30.8735 42.2379C30.8735 42.2379 32.6711 43.1454 34.8894 44.9744C35.347 45.3517 36.0392 45.1988 36.2847 44.6589L39.3003 38.0245L38.3463 36.5936C38.1088 36.2372 37.6105 36.1747 37.2923 36.4611Z" fill="#6E71FF"/>
<path d="M37.2923 36.4611L30.8735 42.2379C30.8735 42.2379 32.6711 43.1454 34.8894 44.9744C35.347 45.3517 36.0392 45.1988 36.2847 44.6589L39.3003 38.0245L38.3463 36.5936C38.1088 36.2372 37.6105 36.1747 37.2923 36.4611Z" fill="url(#paint7_linear)"/>
<path d="M35.1309 12.3054L35.7892 16.9577C38.7943 17.5588 39.2274 22.2749 39.2898 23.6219C39.3011 23.8664 39.3791 24.1024 39.5118 24.3081L40.6584 26.0868C40.6584 26.0868 40.2659 23.1461 42.0628 21.1711C42.0628 21.1711 42.6799 9.49642 35.1309 12.3054Z" fill="#6E71FF"/>
<path d="M35.1309 12.3054L35.7892 16.9577C38.7943 17.5588 39.2274 22.2749 39.2898 23.6219C39.3011 23.8664 39.3791 24.1024 39.5118 24.3081L40.6584 26.0868C40.6584 26.0868 40.2659 23.1461 42.0628 21.1711C42.0628 21.1711 42.6799 9.49642 35.1309 12.3054Z" fill="url(#paint8_linear)"/>
<path d="M41.3627 25.7873L40.5699 28.9584C40.4759 29.3343 40.1383 29.5979 39.7508 29.5979C39.325 29.5979 38.9659 29.2808 38.913 28.8583L38.5075 25.6149C38.399 24.7467 39.0759 23.98 39.9508 23.98H39.9514C40.8978 23.9801 41.5922 24.8692 41.3627 25.7873Z" fill="#E5C5D5"/>
<path d="M22.4175 11.0472L23.4562 11.7567C18.76 15.224 19.6377 21.1711 19.6377 21.1711C21.0422 22.5756 21.0422 26.0868 21.0422 26.0868L22.4466 24.6823C22.4466 24.6823 21.9046 20.6252 24.5533 19.0644C27.0111 17.6161 29.1617 18.3622 31.3562 18.3622C37.2374 18.3622 38.8833 16.1457 38.5981 13.4465C38.4504 12.0499 36.315 9.14059 30.8735 9.23311C28.6775 9.27042 24.5535 9.93534 22.4175 11.0472Z" fill="#6E71FF"/>
<path d="M22.4175 11.0472L23.4562 11.7567C18.76 15.224 19.6377 21.1711 19.6377 21.1711C21.0422 22.5756 21.0422 26.0868 21.0422 26.0868L22.4466 24.6823C22.4466 24.6823 21.9046 20.6252 24.5533 19.0644C27.0111 17.6161 29.1617 18.3622 31.3562 18.3622C37.2374 18.3622 38.8833 16.1457 38.5981 13.4465C38.4504 12.0499 36.315 9.14059 30.8735 9.23311C28.6775 9.27042 24.5535 9.93534 22.4175 11.0472Z" fill="url(#paint9_linear)"/>
<path d="M22.0078 17.7478C22.0078 17.7478 21.2617 14.8071 23.4562 11.7568C18.76 15.2241 19.6377 21.1712 19.6377 21.1712C21.0422 22.5757 21.0422 26.0869 21.0422 26.0869L22.4466 24.6824C22.4466 24.6824 21.9046 20.6253 24.5533 19.0645C27.0111 17.6162 29.1617 18.3623 31.3562 18.3623C32.3127 18.3623 33.1462 18.2983 33.8886 18.1885C29.3594 18.3403 26.6895 14.9095 22.0078 17.7478Z" fill="#6E71FF"/>
<path d="M22.0078 17.7478C22.0078 17.7478 21.2617 14.8071 23.4562 11.7568C18.76 15.2241 19.6377 21.1712 19.6377 21.1712C21.0422 22.5757 21.0422 26.0869 21.0422 26.0869L22.4466 24.6824C22.4466 24.6824 21.9046 20.6253 24.5533 19.0645C27.0111 17.6162 29.1617 18.3623 31.3562 18.3623C32.3127 18.3623 33.1462 18.2983 33.8886 18.1885C29.3594 18.3403 26.6895 14.9095 22.0078 17.7478Z" fill="url(#paint10_linear)"/>
<path d="M20.3845 25.7873L21.1772 28.9584C21.2712 29.3343 21.6088 29.5979 21.9963 29.5979C22.4222 29.5979 22.7813 29.2808 22.8341 28.8583L23.2396 25.6149C23.3481 24.7467 22.6713 23.98 21.7963 23.98H21.7957C20.8493 23.9801 20.155 24.8692 20.3845 25.7873Z" fill="#E5C5D5"/>
<path d="M40.0026 48.5581H35.087C34.6992 48.5581 34.3848 48.8725 34.3848 49.2603V49.9626H40.7049V49.2603C40.7049 48.8726 40.3904 48.5581 40.0026 48.5581Z" fill="#6E71FF"/>
<path d="M40.0027 48.5581H35.087C34.6992 48.5581 34.3848 48.8725 34.3848 49.2603V49.9626H40.7049V49.2603C40.7049 48.8726 40.3904 48.5581 40.0027 48.5581Z" fill="url(#paint11_linear)"/>
<path d="M40.2854 53.0379L38.5019 51.2544L37.9042 51.8521C37.7233 52.0331 37.5873 52.2539 37.5072 52.4969L36.0178 57.0148C35.9587 57.1942 36.129 57.3646 36.3084 57.3054L40.8263 55.8161C41.0693 55.736 41.2902 55.6 41.4711 55.4191L42.0688 54.8214L40.2854 53.0379Z" fill="#E7CBD8"/>
<path d="M40.2854 53.0379L38.5019 51.2544L37.9042 51.8521C37.7233 52.0331 37.5873 52.2539 37.5072 52.4969L36.0178 57.0148C35.9587 57.1942 36.129 57.3646 36.3084 57.3054L40.8263 55.8161C41.0693 55.736 41.2902 55.6 41.4711 55.4191L42.0688 54.8214L40.2854 53.0379Z" fill="url(#paint12_linear)"/>
<path d="M41.3566 55.5331C41.5183 55.3714 41.5992 55.1592 41.5992 54.9469C41.5992 54.7355 41.5183 54.5233 41.3566 54.3616L41.3392 54.3441C41.1444 54.1493 40.877 54.0721 40.6243 54.1116C40.5586 54.1222 40.4974 54.0988 40.4552 54.0565C40.4129 54.0142 40.3899 53.9536 40.4001 53.8884C40.3996 53.8879 40.4001 53.8875 40.4001 53.8875C40.4028 53.871 40.4046 53.8544 40.4065 53.8379C40.407 53.8291 40.4078 53.8208 40.4083 53.8122C40.4097 53.7942 40.4102 53.7763 40.4102 53.7579C40.4102 53.5466 40.3293 53.3343 40.1676 53.1726L40.1501 53.1551C40.14 53.145 40.1295 53.1354 40.1189 53.1257C40.1102 53.1179 40.101 53.1097 40.0918 53.1023C40.0775 53.0899 40.0628 53.0789 40.0476 53.0683C40.0398 53.0623 40.0311 53.0564 40.0228 53.0508C40.0109 53.0425 39.998 53.0343 39.9852 53.0269C39.9728 53.0201 39.9608 53.0137 39.9489 53.0072C39.9328 52.9985 39.9167 52.9907 39.9007 52.9838C39.8874 52.9778 39.8735 52.9723 39.8602 52.9672C39.8478 52.9622 39.835 52.9576 39.8216 52.9535C39.789 52.9429 39.7555 52.9342 39.7215 52.9278C39.7054 52.9245 39.6898 52.9218 39.6742 52.9199C39.6581 52.9176 39.642 52.9163 39.6264 52.9154C39.6103 52.914 39.5947 52.9131 39.5781 52.9131C39.5621 52.9126 39.5465 52.9126 39.5308 52.9135C39.4982 52.9149 39.467 52.9176 39.4352 52.9227C39.3695 52.9333 39.3084 52.9098 39.2662 52.8676C39.2239 52.8253 39.2004 52.7642 39.211 52.6985C39.2179 52.6558 39.2211 52.6122 39.2211 52.569C39.2211 52.3576 39.1403 52.1454 38.9786 51.9837L38.9611 51.9662C38.6376 51.6427 38.113 51.6427 37.7896 51.9662L47.8665 41.8892L51.4335 45.4561L41.3566 55.5331Z" fill="#6E71FF"/>
<path d="M41.3566 55.5331C41.5183 55.3714 41.5992 55.1592 41.5992 54.9469C41.5992 54.7355 41.5183 54.5233 41.3566 54.3616L41.3392 54.3441C41.1444 54.1493 40.877 54.0721 40.6243 54.1116C40.5586 54.1222 40.4974 54.0988 40.4552 54.0565C40.4129 54.0142 40.3899 53.9536 40.4001 53.8884C40.3996 53.8879 40.4001 53.8875 40.4001 53.8875C40.4028 53.871 40.4046 53.8544 40.4065 53.8379C40.407 53.8291 40.4078 53.8208 40.4083 53.8122C40.4097 53.7942 40.4102 53.7763 40.4102 53.7579C40.4102 53.5466 40.3293 53.3343 40.1676 53.1726L40.1501 53.1551C40.14 53.145 40.1295 53.1354 40.1189 53.1257C40.1102 53.1179 40.101 53.1097 40.0918 53.1023C40.0775 53.0899 40.0628 53.0789 40.0476 53.0683C40.0398 53.0623 40.0311 53.0564 40.0228 53.0508C40.0109 53.0425 39.998 53.0343 39.9852 53.0269C39.9728 53.0201 39.9608 53.0137 39.9489 53.0072C39.9328 52.9985 39.9167 52.9907 39.9007 52.9838C39.8874 52.9778 39.8735 52.9723 39.8602 52.9672C39.8478 52.9622 39.835 52.9576 39.8216 52.9535C39.789 52.9429 39.7555 52.9342 39.7215 52.9278C39.7054 52.9245 39.6898 52.9218 39.6742 52.9199C39.6581 52.9176 39.642 52.9163 39.6264 52.9154C39.6103 52.914 39.5947 52.9131 39.5781 52.9131C39.5621 52.9126 39.5465 52.9126 39.5308 52.9135C39.4982 52.9149 39.467 52.9176 39.4352 52.9227C39.3695 52.9333 39.3084 52.9098 39.2662 52.8676C39.2239 52.8253 39.2004 52.7642 39.211 52.6985C39.2179 52.6558 39.2211 52.6122 39.2211 52.569C39.2211 52.3576 39.1403 52.1454 38.9786 51.9837L38.9611 51.9662C38.6376 51.6427 38.113 51.6427 37.7896 51.9662L47.8665 41.8892L51.4335 45.4561L41.3566 55.5331Z" fill="url(#paint13_linear)"/>
<path d="M50.2445 44.2675L40.4552 54.0569C40.4129 54.0146 40.3899 53.954 40.4 53.8888C40.3996 53.8883 40.4 53.8879 40.4 53.8879C40.4028 53.8713 40.4046 53.8548 40.4064 53.8383C40.4069 53.8295 40.4078 53.8213 40.4083 53.8126C40.4096 53.7946 40.4101 53.7767 40.4101 53.7583C40.4101 53.547 40.3293 53.3347 40.1676 53.173L40.1501 53.1556C40.14 53.1455 40.1294 53.1358 40.1188 53.1261C40.1101 53.1183 40.1009 53.1101 40.0917 53.1027C40.0775 53.0903 40.0628 53.0793 40.0476 53.0687C40.0393 53.0623 40.0311 53.0568 40.0228 53.0512C40.0108 53.043 39.998 53.0347 39.9852 53.0274C39.9732 53.0209 39.9613 53.0136 39.9489 53.0076C39.9328 52.9989 39.9167 52.9911 39.9006 52.9842C39.8873 52.9782 39.8735 52.9727 39.8602 52.9676C39.8478 52.9626 39.8349 52.958 39.8216 52.9539C39.789 52.9433 39.7554 52.9346 39.7214 52.9282C39.7063 52.925 39.6902 52.9227 39.6741 52.9203C39.6585 52.9185 39.6429 52.9167 39.6263 52.9158C39.6107 52.9139 39.5947 52.9135 39.5781 52.9135C39.562 52.913 39.5459 52.9135 39.5308 52.9139C39.4981 52.9153 39.4669 52.918 39.4352 52.9231C39.3695 52.9337 39.3084 52.9102 39.2661 52.868L49.0555 43.0786L50.2445 44.2675Z" fill="#6E71FF"/>
<path d="M50.2445 44.2675L40.4552 54.0569C40.4129 54.0146 40.3899 53.954 40.4 53.8888C40.3996 53.8883 40.4 53.8879 40.4 53.8879C40.4028 53.8713 40.4046 53.8548 40.4064 53.8383C40.4069 53.8296 40.4078 53.8213 40.4083 53.8126C40.4096 53.7946 40.4101 53.7767 40.4101 53.7583C40.4101 53.547 40.3293 53.3347 40.1676 53.173L40.1501 53.1556C40.14 53.1455 40.1294 53.1358 40.1188 53.1261C40.1101 53.1183 40.1009 53.1101 40.0917 53.1027C40.0775 53.0903 40.0628 53.0793 40.0476 53.0687C40.0393 53.0623 40.0311 53.0568 40.0228 53.0512C40.0108 53.043 39.998 53.0347 39.9852 53.0274C39.9732 53.0209 39.9613 53.0136 39.9489 53.0076C39.9328 52.9989 39.9167 52.9911 39.9006 52.9842C39.8873 52.9782 39.8735 52.9727 39.8602 52.9676C39.8478 52.9626 39.8349 52.958 39.8216 52.9539C39.789 52.9433 39.7554 52.9346 39.7214 52.9282C39.7063 52.925 39.6902 52.9227 39.6741 52.9204C39.6585 52.9185 39.6429 52.9167 39.6263 52.9158C39.6107 52.9139 39.5947 52.9135 39.5781 52.9135C39.562 52.913 39.5459 52.9135 39.5308 52.9139C39.4981 52.9153 39.4669 52.918 39.4352 52.9231C39.3695 52.9337 39.3084 52.9102 39.2661 52.868L49.0555 43.0786L50.2445 44.2675Z" fill="url(#paint14_linear)"/>
<path d="M47.867 41.8896L37.79 51.9666C38.1135 51.6432 38.6381 51.6432 38.9616 51.9666L38.979 51.9841C39.1407 52.1458 39.2216 52.3581 39.2216 52.5694C39.2216 52.6126 39.2184 52.6563 39.2115 52.699C39.201 52.7647 39.2244 52.8258 39.2666 52.868L49.056 43.0787L47.867 41.8896Z" fill="#6E71FF"/>
<path d="M47.867 41.8896L37.79 51.9666C38.1135 51.6432 38.6381 51.6432 38.9616 51.9666L38.979 51.9841C39.1407 52.1458 39.2216 52.358 39.2216 52.5694C39.2216 52.6126 39.2184 52.6562 39.2115 52.699C39.201 52.7647 39.2244 52.8258 39.2666 52.868L49.056 43.0787L47.867 41.8896Z" fill="url(#paint15_linear)"/>
<path d="M52.6535 44.2368L49.0864 40.6698L50.2038 39.5525C50.7145 39.0418 51.5425 39.0418 52.0532 39.5525L53.7708 41.2701C54.2815 41.7808 54.2815 42.6088 53.7708 43.1195L52.6535 44.2368Z" fill="#6E71FF"/>
<path d="M52.6535 44.2368L49.0864 40.6698L50.2038 39.5525C50.7145 39.0418 51.5425 39.0418 52.0532 39.5525L53.7708 41.2701C54.2815 41.7808 54.2815 42.6088 53.7708 43.1195L52.6535 44.2368Z" fill="url(#paint16_linear)"/>
<path d="M52.813 44.0773L49.246 40.5103L47.8667 41.8895L51.4337 45.4565L52.813 44.0773Z" fill="#6E71FF"/>
<path d="M52.813 44.0773L49.246 40.5103L47.8667 41.8895L51.4337 45.4565L52.813 44.0773Z" fill="url(#paint17_linear)"/>
<path d="M52.813 44.0773L49.246 40.5103L47.8667 41.8895L51.4337 45.4565L52.813 44.0773Z" fill="url(#paint18_linear)"/>
<path d="M50.8444 46.0459L47.2773 42.4789L47.8667 41.8896L51.4337 45.4567L50.8444 46.0459Z" fill="#6E71FF"/>
<path d="M50.8444 46.0459L47.2773 42.4789L47.8667 41.8896L51.4337 45.4566L50.8444 46.0459Z" fill="url(#paint19_linear)" fill-opacity="0.5"/>
<path d="M36.395 55.8706L36.0178 57.015C35.9587 57.1944 36.129 57.3648 36.3084 57.3056L37.4528 56.9284L36.395 55.8706Z" fill="#6E71FF"/>
<path d="M36.395 55.8706L36.0178 57.015C35.9587 57.1944 36.129 57.3648 36.3084 57.3056L37.4528 56.9284L36.395 55.8706Z" fill="url(#paint20_linear)"/>
</g>
<defs>
<linearGradient id="paint0_linear" x1="30.8733" y1="46.1043" x2="32.7826" y2="71.0446" gradientUnits="userSpaceOnUse">
<stop stop-color="white"/>
<stop offset="1" stop-color="white" stop-opacity="0"/>
</linearGradient>
<linearGradient id="paint1_linear" x1="30.8737" y1="16.9575" x2="29.9189" y2="41.7683" gradientUnits="userSpaceOnUse">
<stop stop-color="#FFE3CA"/>
<stop offset="1" stop-color="#FFE3FF" stop-opacity="0"/>
</linearGradient>
<linearGradient id="paint2_linear" x1="29.2667" y1="16.9575" x2="29.2667" y2="36.6201" gradientUnits="userSpaceOnUse">
<stop stop-color="#FFDCBB"/>
<stop offset="1" stop-color="#FFE3CA" stop-opacity="0"/>
</linearGradient>
<linearGradient id="paint3_linear" x1="15.7758" y1="41.3179" x2="17.1903" y2="69.7719" gradientUnits="userSpaceOnUse">
<stop offset="0.206142" stop-color="white"/>
<stop offset="1" stop-color="white" stop-opacity="0"/>
</linearGradient>
<linearGradient id="paint4_linear" x1="45.9887" y1="45.6669" x2="45.9887" y2="69.9708" gradientUnits="userSpaceOnUse">
<stop stop-color="white"/>
<stop offset="1" stop-color="white" stop-opacity="0"/>
</linearGradient>
<linearGradient id="paint5_linear" x1="30.8733" y1="42.2383" x2="30.8733" y2="44.345" gradientUnits="userSpaceOnUse">
<stop stop-color="#333333"/>
<stop offset="1" stop-opacity="0"/>
</linearGradient>
<linearGradient id="paint6_linear" x1="26.6602" y1="36.2808" x2="26.6569" y2="69.2544" gradientUnits="userSpaceOnUse">
<stop stop-color="white"/>
<stop offset="1" stop-color="white" stop-opacity="0"/>
</linearGradient>
<linearGradient id="paint7_linear" x1="35.0869" y1="36.2808" x2="35.0898" y2="73.5901" gradientUnits="userSpaceOnUse">
<stop offset="0.0216172" stop-color="white"/>
<stop offset="1" stop-color="white" stop-opacity="0"/>
</linearGradient>
<linearGradient id="paint8_linear" x1="39.1471" y1="12.6915" x2="38.5902" y2="33.296" gradientUnits="userSpaceOnUse">
<stop/>
<stop offset="1" stop-color="#030303" stop-opacity="0"/>
</linearGradient>
<linearGradient id="paint9_linear" x1="29.1008" y1="9.23096" x2="29.1008" y2="26.0868" gradientUnits="userSpaceOnUse">
<stop/>
<stop offset="1" stop-opacity="0"/>
</linearGradient>
<linearGradient id="paint10_linear" x1="26.7307" y1="11.7568" x2="26.7307" y2="26.0869" gradientUnits="userSpaceOnUse">
<stop offset="0.116629" stop-color="#020202"/>
<stop offset="1" stop-color="#1C1C1C" stop-opacity="0"/>
</linearGradient>
<linearGradient id="paint11_linear" x1="37.5448" y1="48.5581" x2="37.556" y2="55.1734" gradientUnits="userSpaceOnUse">
<stop stop-color="white"/>
<stop offset="1" stop-color="white" stop-opacity="0"/>
</linearGradient>
<linearGradient id="paint12_linear" x1="39.0373" y1="51.2544" x2="39.0373" y2="57.3174" gradientUnits="userSpaceOnUse">
<stop stop-color="#FADAAB"/>
<stop offset="1" stop-color="white" stop-opacity="0"/>
</linearGradient>
<linearGradient id="paint13_linear" x1="44.6115" y1="41.8892" x2="44.6115" y2="55.5331" gradientUnits="userSpaceOnUse">
<stop stop-color="#141414"/>
<stop offset="1" stop-opacity="0"/>
</linearGradient>
<linearGradient id="paint14_linear" x1="50.1549" y1="42.553" x2="37.5436" y2="54.7029" gradientUnits="userSpaceOnUse">
<stop stop-color="#101010"/>
<stop offset="1" stop-opacity="0"/>
</linearGradient>
<linearGradient id="paint15_linear" x1="49.8478" y1="42.8607" x2="34.1606" y2="54.8568" gradientUnits="userSpaceOnUse">
<stop offset="0.0522431" stop-color="#0F0F0F"/>
<stop offset="1" stop-color="#131313" stop-opacity="0"/>
</linearGradient>
<linearGradient id="paint16_linear" x1="54.6146" y1="40.2682" x2="51.6201" y2="44.2368" gradientUnits="userSpaceOnUse">
<stop/>
<stop offset="1" stop-opacity="0"/>
</linearGradient>
<linearGradient id="paint17_linear" x1="53.6577" y1="42.4303" x2="52.2753" y2="43.724" gradientUnits="userSpaceOnUse">
<stop stop-color="white"/>
<stop offset="1" stop-color="white" stop-opacity="0"/>
</linearGradient>
<linearGradient id="paint18_linear" x1="50.3399" y1="40.5103" x2="50.3399" y2="45.4565" gradientUnits="userSpaceOnUse">
<stop stop-color="white"/>
<stop offset="1" stop-color="white" stop-opacity="0"/>
</linearGradient>
<linearGradient id="paint19_linear" x1="49.3555" y1="41.8896" x2="49.3555" y2="46.0459" gradientUnits="userSpaceOnUse">
<stop stop-color="white"/>
<stop offset="1" stop-color="white" stop-opacity="0"/>
</linearGradient>
<linearGradient id="paint20_linear" x1="36.7293" y1="55.8706" x2="36.7147" y2="58.434" gradientUnits="userSpaceOnUse">
<stop stop-color="#010101"/>
<stop offset="1" stop-opacity="0"/>
</linearGradient>
<clipPath id="clip0">
<rect width="64" height="64" fill="white"/>
</clipPath>
</defs>
</svg>
