<svg width="26" height="24" viewBox="0 0 26 24" fill="none" xmlns="http://www.w3.org/2000/svg">
<path d="M12.9201 13C13.489 13 13.9501 12.5523 13.9501 12C13.9501 11.4477 13.489 11 12.9201 11C12.3513 11 11.8901 11.4477 11.8901 12C11.8901 12.5523 12.3513 13 12.9201 13Z" fill="#111111" stroke="#111111" stroke-width="2" stroke-linecap="round" stroke-linejoin="round"/>
<path d="M5.71018 13C6.27903 13 6.74018 12.5523 6.74018 12C6.74018 11.4477 6.27903 11 5.71018 11C5.14132 11 4.68018 11.4477 4.68018 12C4.68018 12.5523 5.14132 13 5.71018 13Z" fill="#111111" stroke="#111111" stroke-width="2" stroke-linecap="round" stroke-linejoin="round"/>
<path d="M20.1301 13C20.699 13 21.1601 12.5523 21.1601 12C21.1601 11.4477 20.699 11 20.1301 11C19.5612 11 19.1001 11.4477 19.1001 12C19.1001 12.5523 19.5612 13 20.1301 13Z" fill="#111111" stroke="#111111" stroke-width="2" stroke-linecap="round" stroke-linejoin="round"/>
</svg>
