<svg width="12" height="12" viewBox="0 0 12 12" fill="none" xmlns="http://www.w3.org/2000/svg">
<path d="M9.5 11.25C10.4665 11.25 11.25 10.4665 11.25 9.5C11.25 8.5335 10.4665 7.75 9.5 7.75C8.5335 7.75 7.75 8.5335 7.75 9.5C7.75 10.4665 8.5335 11.25 9.5 11.25Z" stroke="#111111" stroke-linecap="round" stroke-linejoin="round"/>
<path d="M2.5 4.25C3.4665 4.25 4.25 3.4665 4.25 2.5C4.25 1.5335 3.4665 0.75 2.5 0.75C1.5335 0.75 0.75 1.5335 0.75 2.5C0.75 3.4665 1.5335 4.25 2.5 4.25Z" stroke="#111111" stroke-linecap="round" stroke-linejoin="round"/>
<path d="M6.58301 2.5H8.33301C8.64243 2.5 8.93917 2.62292 9.15796 2.84171C9.37676 3.0605 9.49967 3.35725 9.49967 3.66667V7.75" stroke="#111111" stroke-linecap="round" stroke-linejoin="round"/>
<path d="M2.5 4.25V11.25" stroke="#111111" stroke-linecap="round" stroke-linejoin="round"/>
</svg>
