<svg width="14" height="14" viewBox="0 0 14 14" fill="none" xmlns="http://www.w3.org/2000/svg">
<path d="M1 3.40039H2.33333H13" stroke="#FF6E6E" stroke-linecap="round" stroke-linejoin="round"/>
<path d="M4.33301 3.4V2.2C4.33301 1.88174 4.47348 1.57652 4.72353 1.35147C4.97358 1.12643 5.31272 1 5.66634 1H8.33301C8.68663 1 9.02577 1.12643 9.27582 1.35147C9.52587 1.57652 9.66634 1.88174 9.66634 2.2V3.4M11.6663 3.4V11.8C11.6663 12.1183 11.5259 12.4235 11.2758 12.6485C11.0258 12.8736 10.6866 13 10.333 13H3.66634C3.31272 13 2.97358 12.8736 2.72353 12.6485C2.47348 12.4235 2.33301 12.1183 2.33301 11.8V3.4H11.6663Z" stroke="#FF6E6E" stroke-linecap="round" stroke-linejoin="round"/>
</svg>
