<svg width="24" height="24" viewBox="0 0 24 24" fill="none" xmlns="http://www.w3.org/2000/svg">
<path d="M0 4C0 1.79086 1.79086 0 4 0H20C22.2091 0 24 1.79086 24 4V20C24 22.2091 22.2091 24 20 24H4C1.79086 24 0 22.2091 0 20V4Z" fill="#6E71FF"/>
<path fill-rule="evenodd" clip-rule="evenodd" d="M15.2046 5.86364C15.2046 5.52473 14.9298 5.25 14.5909 5.25C14.252 5.25 13.9773 5.52473 13.9773 5.86364V6.47728H10.2955V5.86364C10.2955 5.52473 10.0207 5.25 9.68184 5.25C9.34294 5.25 9.0682 5.52473 9.0682 5.86364V6.47728H7.84091C6.8242 6.47728 6 7.30148 6 8.31818V10.7727V16.9091C6 17.9258 6.8242 18.75 7.84091 18.75H16.4318C17.4485 18.75 18.2727 17.9258 18.2727 16.9091V10.7727V8.31818C18.2727 7.30148 17.4485 6.47728 16.4318 6.47728H15.2046V5.86364ZM17.0455 10.1591V8.31818C17.0455 7.97928 16.7707 7.70455 16.4318 7.70455H15.2046V8.31818C15.2046 8.65708 14.9298 8.93182 14.5909 8.93182C14.252 8.93182 13.9773 8.65708 13.9773 8.31818V7.70455H10.2955V8.31818C10.2955 8.65708 10.0207 8.93182 9.68184 8.93182C9.34294 8.93182 9.0682 8.65708 9.0682 8.31818V7.70455H7.84091C7.50201 7.70455 7.22727 7.97928 7.22727 8.31818V10.1591H17.0455ZM7.22727 11.3864H17.0455V16.9091C17.0455 17.248 16.7707 17.5227 16.4318 17.5227H7.84091C7.50201 17.5227 7.22727 17.248 7.22727 16.9091V11.3864Z" fill="white"/>
</svg>
