<svg width="24" height="24" viewBox="0 0 24 24" fill="none" xmlns="http://www.w3.org/2000/svg">
<path d="M0 4C0 1.79086 1.79086 0 4 0H20C22.2091 0 24 1.79086 24 4V20C24 22.2091 22.2091 24 20 24H4C1.79086 24 0 22.2091 0 20V4Z" fill="#6E71FF"/>
<path fill-rule="evenodd" clip-rule="evenodd" d="M5.10133 7.23428C5.21703 6.84763 5.5778 6.5625 6 6.5625L18 6.5625C18.4222 6.5625 18.783 6.84766 18.8987 7.23434L12.0001 12.0634L5.10133 7.23428ZM5.0625 8.58034L5.0625 16.5C5.0625 17.0143 5.48566 17.4375 6 17.4375H18C18.5143 17.4375 18.9375 17.0143 18.9375 16.5V8.58041L12.3226 13.2108C12.1289 13.3464 11.8712 13.3464 11.6775 13.2108L5.0625 8.58034ZM20.0625 7.50996V16.5C20.0625 17.6357 19.1357 18.5625 18 18.5625H6C4.86434 18.5625 3.9375 17.6357 3.9375 16.5L3.9375 7.5C3.9375 6.36434 4.86434 5.4375 6 5.4375L18 5.4375C19.1314 5.4375 20.0555 6.35733 20.0625 7.4871C20.0626 7.49472 20.0626 7.50235 20.0625 7.50996Z" fill="white"/>
</svg>
