<svg width="24" height="24" viewBox="0 0 24 24" fill="none" xmlns="http://www.w3.org/2000/svg">
<path d="M0 4C0 1.79086 1.79086 0 4 0H20C22.2091 0 24 1.79086 24 4V20C24 22.2091 22.2091 24 20 24H4C1.79086 24 0 22.2091 0 20V4Z" fill="#6E71FF"/>
<path fill-rule="evenodd" clip-rule="evenodd" d="M8.64283 7.14283C9.61467 6.17098 10.9328 5.625 12.3072 5.625C13.6816 5.625 14.9997 6.17098 15.9715 7.14283C16.9434 8.11467 17.4894 9.43278 17.4894 10.8072C17.4894 12.8151 16.185 14.7525 14.7712 16.2448C14.0758 16.9788 13.3785 17.5795 12.8544 17.9968C12.6372 18.1697 12.4506 18.3106 12.3072 18.4157C12.1638 18.3106 11.9771 18.1697 11.76 17.9968C11.2359 17.5795 10.5386 16.9788 9.84319 16.2448C8.4294 14.7525 7.125 12.8151 7.125 10.8072C7.125 9.43278 7.67098 8.11467 8.64283 7.14283ZM11.9949 19.5729C11.995 19.573 11.9952 19.5731 12.3072 19.1051L11.9952 19.5731C12.1841 19.699 12.4303 19.699 12.6192 19.5731L12.3072 19.1051C12.6192 19.5731 12.6193 19.573 12.6195 19.5729L12.62 19.5726L12.6212 19.5717L12.6254 19.569L12.6397 19.5592C12.652 19.5509 12.6695 19.5389 12.692 19.5234C12.7369 19.4922 12.8017 19.4468 12.8834 19.3878C13.0467 19.2698 13.2782 19.0974 13.5552 18.8769C14.1082 18.4365 14.8471 17.8004 15.5879 17.0185C17.0464 15.4789 18.6144 13.2673 18.6144 10.8072C18.6144 9.13441 17.9499 7.53016 16.767 6.34733C15.5842 5.1645 13.98 4.5 12.3072 4.5C10.6344 4.5 9.03016 5.1645 7.84733 6.34733C6.6645 7.53016 6 9.13441 6 10.8072C6 13.2673 7.56794 15.4789 9.02649 17.0185C9.76727 17.8004 10.5061 18.4365 11.0592 18.8769C11.3361 19.0974 11.5676 19.2698 11.731 19.3878C11.8127 19.4468 11.8774 19.4922 11.9224 19.5234C11.9449 19.5389 11.9624 19.5509 11.9747 19.5592L11.989 19.569L11.9931 19.5717L11.9944 19.5726L11.9949 19.5729ZM10.9548 10.8072C10.9548 10.0603 11.5603 9.45479 12.3072 9.45479C13.0541 9.45479 13.6596 10.0603 13.6596 10.8072C13.6596 11.5541 13.0541 12.1596 12.3072 12.1596C11.5603 12.1596 10.9548 11.5541 10.9548 10.8072ZM12.3072 8.32979C10.939 8.32979 9.82979 9.43895 9.82979 10.8072C9.82979 12.1754 10.939 13.2846 12.3072 13.2846C13.6754 13.2846 14.7846 12.1754 14.7846 10.8072C14.7846 9.43895 13.6754 8.32979 12.3072 8.32979Z" fill="white"/>
</svg>
