<svg width="24" height="24" viewBox="0 0 24 24" fill="none" xmlns="http://www.w3.org/2000/svg">
<path d="M0 4C0 1.79086 1.79086 0 4 0H20C22.2091 0 24 1.79086 24 4V20C24 22.2091 22.2091 24 20 24H4C1.79086 24 0 22.2091 0 20V4Z" fill="#6E71FF"/>
<path d="M9.81234 16.5V15.864H10.7963C11.0043 15.864 11.1563 15.808 11.2523 15.696C11.3483 15.584 11.3963 15.38 11.3963 15.084V9.07203C11.0923 9.44003 10.8163 9.74003 10.5683 9.97203C10.3283 10.204 10.0883 10.32 9.84834 10.32C9.65634 10.32 9.49234 10.24 9.35634 10.08C9.22034 9.92003 9.15234 9.70403 9.15234 9.43203C9.39234 9.36803 9.66034 9.27203 9.95634 9.14403C10.2603 9.01603 10.6083 8.80403 11.0003 8.50803L11.8403 7.88403L13.1843 7.88403V15.084C13.1843 15.332 13.2243 15.524 13.3043 15.66C13.3843 15.796 13.5483 15.864 13.7963 15.864H14.7683V16.5H9.81234Z" fill="white"/>
</svg>
