<svg width="24" height="24" viewBox="0 0 24 24" fill="none" xmlns="http://www.w3.org/2000/svg">
<path d="M0 4C0 1.79086 1.79086 0 4 0H20C22.2091 0 24 1.79086 24 4V20C24 22.2091 22.2091 24 20 24H4C1.79086 24 0 22.2091 0 20V4Z" fill="#6E71FF"/>
<path fill-rule="evenodd" clip-rule="evenodd" d="M4.5 10.5C4.5 10.0858 4.83579 9.75 5.25 9.75L15.75 9.75C16.1642 9.75 16.5 10.0858 16.5 10.5C16.5 10.9142 16.1642 11.25 15.75 11.25L5.25 11.25C4.83579 11.25 4.5 10.9142 4.5 10.5Z" fill="white"/>
<path fill-rule="evenodd" clip-rule="evenodd" d="M4.5 7.5C4.5 7.08579 4.83579 6.75 5.25 6.75L18.75 6.75C19.1642 6.75 19.5 7.08579 19.5 7.5C19.5 7.91421 19.1642 8.25 18.75 8.25L5.25 8.25C4.83579 8.25 4.5 7.91421 4.5 7.5Z" fill="white"/>
<path fill-rule="evenodd" clip-rule="evenodd" d="M4.5 13.5C4.5 13.0858 4.83579 12.75 5.25 12.75L18.75 12.75C19.1642 12.75 19.5 13.0858 19.5 13.5C19.5 13.9142 19.1642 14.25 18.75 14.25L5.25 14.25C4.83579 14.25 4.5 13.9142 4.5 13.5Z" fill="white"/>
<path fill-rule="evenodd" clip-rule="evenodd" d="M4.5 16.5C4.5 16.0858 4.83579 15.75 5.25 15.75L15.75 15.75C16.1642 15.75 16.5 16.0858 16.5 16.5C16.5 16.9142 16.1642 17.25 15.75 17.25H5.25C4.83579 17.25 4.5 16.9142 4.5 16.5Z" fill="white"/>
</svg>
