<svg width="24" height="24" viewBox="0 0 24 24" fill="none" xmlns="http://www.w3.org/2000/svg">
<path d="M0 4C0 1.79086 1.79086 0 4 0H20C22.2091 0 24 1.79086 24 4V20C24 22.2091 22.2091 24 20 24H4C1.79086 24 0 22.2091 0 20V4Z" fill="#6E71FF"/>
<path fill-rule="evenodd" clip-rule="evenodd" d="M8.45455 10.7727V8.93182C8.45455 7.95534 8.84245 7.01885 9.53293 6.32838C10.2234 5.6379 11.1599 5.25 12.1364 5.25C13.1128 5.25 14.0493 5.6379 14.7398 6.32838C15.4303 7.01885 15.8182 7.95534 15.8182 8.93182V10.7727H16.4318C17.4485 10.7727 18.2727 11.5969 18.2727 12.6136V16.9091C18.2727 17.9258 17.4485 18.75 16.4318 18.75H7.84091C6.8242 18.75 6 17.9258 6 16.9091L6 12.6136C6 11.5969 6.8242 10.7727 7.84091 10.7727H8.45455ZM10.4007 7.19619C10.8611 6.73588 11.4854 6.47727 12.1364 6.47727C12.7874 6.47727 13.4117 6.73588 13.872 7.19619C14.3323 7.65651 14.5909 8.28083 14.5909 8.93182V10.7727H9.68182V8.93182C9.68182 8.28083 9.94042 7.65651 10.4007 7.19619ZM7.84091 12C7.50201 12 7.22727 12.2747 7.22727 12.6136L7.22727 16.9091C7.22727 17.248 7.50201 17.5227 7.84091 17.5227H16.4318C16.7707 17.5227 17.0455 17.248 17.0455 16.9091V12.6136C17.0455 12.2747 16.7707 12 16.4318 12H7.84091Z" fill="white"/>
</svg>
