<svg width="24" height="24" viewBox="0 0 24 24" fill="none" xmlns="http://www.w3.org/2000/svg">
<path d="M0 4C0 1.79086 1.79086 0 4 0H20C22.2091 0 24 1.79086 24 4V20C24 22.2091 22.2091 24 20 24H4C1.79086 24 0 22.2091 0 20V4Z" fill="#6E71FF"/>
<path fill-rule="evenodd" clip-rule="evenodd" d="M11.1426 9.25342C11.5312 8.72977 11.6705 8.17788 11.2311 7.69073C10.2449 6.31075 9.5816 5.45737 9.16558 5.0464C8.37466 4.2651 7.07358 4.37079 6.38859 5.04574C6.02067 5.40826 5.89612 5.53275 5.51834 5.91646C3.41411 8.02182 4.69738 12.4725 8.10879 15.8873C11.5194 19.3012 15.9697 20.5852 18.0783 18.4754C18.4269 18.1393 18.7221 17.844 18.9549 17.598C19.6261 16.8885 19.728 15.6448 18.9504 14.8368C18.5518 14.4226 17.738 13.7913 16.2999 12.7627C15.8595 12.3689 15.3373 12.4542 14.8585 12.7683C14.6282 12.9194 14.4606 13.0723 14.1442 13.389L13.5695 13.964C13.4938 14.0398 12.466 13.5251 11.4683 12.5264C10.47 11.5271 9.95567 10.4993 10.031 10.424L10.6061 9.84857C10.7065 9.74806 10.7545 9.6994 10.8161 9.6347C10.9443 9.49991 11.0505 9.37758 11.1426 9.25342ZM14.6295 15.0247L15.2043 14.4496C15.3785 14.2753 15.4914 14.1681 15.5832 14.0941C16.843 14.9988 17.5725 15.5676 17.8705 15.8773C18.0495 16.0632 18.0217 16.4024 17.8661 16.5668C17.6509 16.7943 17.3712 17.0741 17.0281 17.4051C15.6645 18.7692 12.0722 17.7328 9.16909 14.8268C6.2651 11.92 5.22916 8.3271 6.58239 6.97311C6.95864 6.59098 7.07785 6.47184 7.44051 6.11449C7.57649 5.98051 7.94688 5.95042 8.1123 6.11382C8.4326 6.43023 9.02675 7.19099 9.90078 8.4085C9.85553 8.46467 9.79902 8.52815 9.73024 8.60043C9.67977 8.65348 9.63771 8.69611 9.54578 8.78814L8.97126 9.36297C7.9939 10.3402 8.82626 12.0035 10.408 13.5868C11.9886 15.169 13.6525 16.0023 14.6295 15.0247Z" fill="white"/>
</svg>
