<svg width="24" height="24" viewBox="0 0 24 24" fill="none" xmlns="http://www.w3.org/2000/svg">
<path d="M0 4C0 1.79086 1.79086 0 4 0H20C22.2091 0 24 1.79086 24 4V20C24 22.2091 22.2091 24 20 24H4C1.79086 24 0 22.2091 0 20V4Z" fill="#6E71FF"/>
<path d="M18.8953 11.9473C18.8953 15.7842 15.7848 18.8947 11.9479 18.8947C8.11094 18.8947 5.00049 15.7842 5.00049 11.9473C5.00049 8.11033 8.11094 4.99988 11.9479 4.99988C15.7848 4.99988 18.8953 8.11033 18.8953 11.9473Z" fill="#6E71FF"/>
<path fill-rule="evenodd" clip-rule="evenodd" d="M11.9479 18.2631C15.436 18.2631 18.2637 15.4354 18.2637 11.9473C18.2637 8.45915 15.436 5.63146 11.9479 5.63146C8.45976 5.63146 5.63207 8.45915 5.63207 11.9473C5.63207 15.4354 8.45976 18.2631 11.9479 18.2631ZM11.9479 18.8947C15.7848 18.8947 18.8953 15.7842 18.8953 11.9473C18.8953 8.11033 15.7848 4.99988 11.9479 4.99988C8.11094 4.99988 5.00049 8.11033 5.00049 11.9473C5.00049 15.7842 8.11094 18.8947 11.9479 18.8947Z" fill="white"/>
<path d="M11.9478 18.8947C12.8601 18.8947 13.7635 18.715 14.6064 18.3658C15.4493 18.0167 16.2152 17.505 16.8603 16.8598C17.5054 16.2147 18.0172 15.4488 18.3663 14.6059C18.7155 13.763 18.8952 12.8596 18.8952 11.9473C18.8952 11.0349 18.7155 10.1315 18.3663 9.28862C18.0172 8.44573 17.5054 7.67985 16.8603 7.03472C16.2152 6.3896 15.4493 5.87786 14.6064 5.52872C13.7635 5.17958 12.8601 4.99988 11.9478 4.99988L11.9478 11.9473L11.9478 18.8947Z" fill="white"/>
<path fill-rule="evenodd" clip-rule="evenodd" d="M12.5793 18.2314C13.1921 18.1699 13.7937 18.0189 14.3647 17.7823C15.131 17.4649 15.8272 16.9997 16.4137 16.4132C17.0002 15.8268 17.4654 15.1305 17.7828 14.3642C18.1002 13.598 18.2636 12.7767 18.2636 11.9473C18.2636 11.1179 18.1002 10.2966 17.7828 9.53032C17.4654 8.76405 17.0002 8.0678 16.4137 7.48132C15.8272 6.89484 15.131 6.42962 14.3647 6.11222C13.7937 5.87569 13.1921 5.7247 12.5793 5.66312V18.2314ZM12.5793 18.8659C13.2752 18.8024 13.9587 18.6341 14.6064 18.3658C15.4493 18.0167 16.2152 17.505 16.8603 16.8598C17.5054 16.2147 18.0172 15.4488 18.3663 14.6059C18.7155 13.763 18.8952 12.8596 18.8952 11.9473C18.8952 11.0349 18.7155 10.1315 18.3663 9.28862C18.0172 8.44573 17.5054 7.67985 16.8603 7.03472C16.2152 6.3896 15.4493 5.87786 14.6064 5.52872C13.9587 5.26041 13.2752 5.09217 12.5793 5.02865C12.3697 5.00951 12.159 4.99988 11.9478 4.99988V18.8947C12.159 18.8947 12.3697 18.885 12.5793 18.8659Z" fill="white"/>
</svg>
