<svg width="14" height="14" viewBox="0 0 14 14" fill="none" xmlns="http://www.w3.org/2000/svg">
<path fill-rule="evenodd" clip-rule="evenodd" d="M8.33331 3.00001C8.33331 3.19163 8.35352 3.37852 8.39193 3.55868L5.01127 5.24901C4.5224 4.68793 3.8026 4.33334 2.99998 4.33334C1.52722 4.33334 0.333313 5.52725 0.333313 7.00001C0.333313 8.47277 1.52722 9.66668 2.99998 9.66668C3.8026 9.66668 4.5224 9.31209 5.01127 8.75101L8.39193 10.4413C8.35352 10.6215 8.33331 10.8084 8.33331 11C8.33331 12.4728 9.52722 13.6667 11 13.6667C12.4727 13.6667 13.6666 12.4728 13.6666 11C13.6666 9.52725 12.4727 8.33334 11 8.33334C10.1974 8.33334 9.47756 8.68793 8.98869 9.24901L5.60803 7.55868C5.64644 7.37852 5.66665 7.19163 5.66665 7.00001C5.66665 6.80839 5.64644 6.6215 5.60803 6.44134L8.98868 4.75101C9.47756 5.31209 10.1974 5.66668 11 5.66668C12.4727 5.66668 13.6666 4.47277 13.6666 3.00001C13.6666 1.52725 12.4727 0.333344 11 0.333344C9.52722 0.333344 8.33331 1.52725 8.33331 3.00001ZM4.33331 7.00001C4.33331 7.73639 3.73636 8.33334 2.99998 8.33334C2.2636 8.33334 1.66665 7.73639 1.66665 7.00001C1.66665 6.26363 2.2636 5.66668 2.99998 5.66668C3.73636 5.66668 4.33331 6.26363 4.33331 7.00001ZM11 4.33334C11.7364 4.33334 12.3333 3.73639 12.3333 3.00001C12.3333 2.26363 11.7364 1.66668 11 1.66668C10.2636 1.66668 9.66665 2.26363 9.66665 3.00001C9.66665 3.73639 10.2636 4.33334 11 4.33334ZM12.3333 11C12.3333 11.7364 11.7364 12.3333 11 12.3333C10.2636 12.3333 9.66665 11.7364 9.66665 11C9.66665 10.2636 10.2636 9.66668 11 9.66668C11.7364 9.66668 12.3333 10.2636 12.3333 11Z" fill="#6E71FF"/>
</svg>
