<svg width="12" height="14" viewBox="0 0 12 14" fill="none" xmlns="http://www.w3.org/2000/svg">
<path d="M3.33301 3.4V2.2C3.33301 1.88174 3.47348 1.57652 3.72353 1.35147C3.97358 1.12643 4.31272 1 4.66634 1H7.33301C7.68663 1 8.02577 1.12643 8.27582 1.35147C8.52587 1.57652 8.66634 1.88174 8.66634 2.2V3.4M10.6663 3.4V11.8C10.6663 12.1183 10.5259 12.4235 10.2758 12.6485C10.0258 12.8736 9.68663 13 9.33301 13H2.66634C2.31272 13 1.97358 12.8736 1.72353 12.6485C1.47348 12.4235 1.33301 12.1183 1.33301 11.8V3.4H10.6663Z" stroke="#ccc" stroke-linecap="round" stroke-linejoin="round"/>
</svg>
