<svg width="64" height="64" viewBox="0 0 64 64" fill="none" xmlns="http://www.w3.org/2000/svg">
<path opacity="0.18" d="M63.8299 47.9457C63.7718 48.7592 63.6904 49.5714 63.5857 50.3822C63.1274 53.9211 62.0863 57.5569 59.7355 59.9594C58.1396 61.5912 56.0668 62.5166 53.9696 63.0736C50.608 63.9636 47.1185 63.9806 43.6638 63.9911C34.9806 64.0225 26.2486 64.0474 17.6352 62.6385C11.1318 61.5755 3.7351 59.8441 0.852727 52.115C0.48043 51.0716 0.243043 49.9734 0.147836 48.854C0.0675765 48.0754 0.0315177 47.2877 0.0163963 46.5065C-0.0871806 41.9427 0.300269 37.3815 1.17028 32.9226C1.56925 30.8727 2.08105 28.8228 3.0244 27.014C4.52142 24.1423 6.97923 22.1055 9.3056 20.0477C12.7037 17.0399 15.9538 13.8257 19.0415 10.4194C22.666 6.42052 26.3346 1.97336 31.2433 0.532921C34.7933 -0.507763 38.5434 0.179036 42.161 0.871078C46.4357 1.68895 50.779 2.53041 54.6803 4.6642C58.5816 6.798 62.0514 10.4417 63.1972 15.1497C63.7101 17.2599 63.7392 19.475 63.7648 21.6612L63.9742 39.2925C64.0091 42.1813 64.0428 45.0753 63.8299 47.9457Z" fill="#6E71FF"/>
<path d="M63.7333 42.6583C63.6753 43.7398 63.5942 44.8195 63.4898 45.8974C63.0331 50.6018 61.9955 55.4352 59.6527 58.629C58.0622 60.7983 55.9964 62.0284 53.9063 62.7689C50.5561 63.952 47.0783 63.9747 43.6353 63.9886C34.9815 64.0304 26.279 64.0635 17.6948 62.1905C11.2134 60.7774 3.84173 58.4757 0.969108 48.2008C0.59807 46.8138 0.361486 45.3539 0.266602 43.8658C10.1759 41.6756 21.0288 42.789 30.9021 42.4841C37.6629 42.275 44.4252 42.1588 51.189 42.1356C55.3693 42.1234 59.5704 42.16 63.7333 42.6583Z" fill="#6E71FF"/>
<path d="M63.7333 42.6583C63.6753 43.7398 63.5942 44.8195 63.4898 45.8974C63.0331 50.6018 61.9955 55.4352 59.6527 58.629C58.0622 60.7983 55.9964 62.0284 53.9063 62.7689C50.5561 63.952 47.0783 63.9747 43.6353 63.9886C34.9815 64.0304 26.279 64.0635 17.6948 62.1905C11.2134 60.7774 3.84173 58.4757 0.969108 48.2008C0.59807 46.8138 0.361486 45.3539 0.266602 43.8658C10.1759 41.6756 21.0288 42.789 30.9021 42.4841C37.6629 42.275 44.4252 42.1588 51.189 42.1356C55.3693 42.1234 59.5704 42.16 63.7333 42.6583Z" fill="url(#paint0_linear)"/>
<path d="M25.4748 57.6232C26.2995 57.6232 26.3007 56.3438 25.4748 56.3438C24.649 56.3438 24.6478 57.6232 25.4748 57.6232Z" fill="url(#paint1_linear)"/>
<path d="M19.4155 36.6968L4.17334 33.2119L19.3562 39.2371L19.4155 36.6968Z" fill="#6E71FF"/>
<path d="M21.3893 33.1861L5.43408 25.6104L20.8449 35.6683L21.3893 33.1861Z" fill="#6E71FF"/>
<path d="M23.0891 27.9982L9.54395 16.6631L21.9387 30.2641L23.0891 27.9982Z" fill="#6E71FF"/>
<path d="M30.2005 26.5386L26.0259 9.37598L27.9312 27.6796L30.2005 26.5386Z" fill="#6E71FF"/>
<path d="M39.527 26.5893L40.3377 8.94629L37.0273 27.0476L39.527 26.5893Z" fill="#6E71FF"/>
<path d="M43.4199 30.173L56.8312 18.6797L41.375 28.6667L43.4199 30.173Z" fill="#6E71FF"/>
<path d="M41.0859 39.4118L60.5411 31.6406L42.6434 35.9223L41.0859 39.4118Z" fill="#6E71FF"/>
<path d="M15.4366 30.3629C15.3119 30.0373 15.2605 29.6881 15.2861 29.3403C15.3116 28.9925 15.4134 28.6546 15.5843 28.3507C15.6925 28.1622 15.8321 27.9738 15.8298 27.7563C15.8121 27.6144 15.7781 27.4751 15.7286 27.341C15.6757 27.1149 15.6983 26.8777 15.7928 26.6656C15.8873 26.4535 16.0485 26.2781 16.252 26.1662C15.8891 25.9701 15.5937 25.6693 15.4043 25.3029C15.2149 24.9365 15.1402 24.5215 15.19 24.1121C14.7422 24.0318 14.2839 23.8678 13.9885 23.5154C13.693 23.1629 13.6232 22.5848 13.9361 22.2463C13.4127 21.9486 12.8648 21.6275 12.5554 21.1029C12.246 20.5783 12.2786 19.7909 12.7881 19.4652C12.5734 19.39 12.385 19.2541 12.2459 19.0741C12.1068 18.8941 12.0228 18.6777 12.0041 18.4509C12.0073 18.3139 11.9952 18.177 11.968 18.0426C11.9249 17.9299 11.8623 17.8255 11.7831 17.7344L9.77197 15.1475C10.8062 15.6056 11.718 16.301 12.4333 17.1772C12.759 17.5762 13.0463 18.0147 13.4383 18.3485C13.7744 18.6335 14.1792 18.8348 14.4758 19.1628C14.7724 19.4908 14.9341 20.0189 14.6759 20.3794C15.5041 20.6039 15.924 21.7566 15.4413 22.4732C15.8379 22.1335 16.4881 22.365 16.7812 22.8023C17.0744 23.2397 17.1011 23.798 17.1197 24.3261C17.257 23.9178 17.863 23.8608 18.1805 24.1493C18.4981 24.4378 18.5795 24.9053 18.5749 25.3369C19.0401 24.6948 20.087 24.6204 20.6278 25.1915C20.8147 25.0692 21.0254 24.9881 21.246 24.9536C21.4667 24.9191 21.6921 24.932 21.9073 24.9914C22.2295 25.081 22.6832 25.2159 22.8076 24.8995C22.8344 24.8149 22.8392 24.7248 22.8216 24.6378C22.7611 24.1725 22.5738 23.7247 22.5006 23.2583C22.4273 22.7919 22.5006 22.2545 22.8495 21.9497C22.9135 21.8951 22.9891 21.8427 23.0089 21.7613C23.0132 21.7166 23.0083 21.6715 22.9942 21.6288C22.9802 21.5862 22.9575 21.5469 22.9274 21.5135C22.7425 21.2495 22.5227 21.0076 22.3912 20.7121C22.2598 20.4167 22.2342 20.0445 22.4308 19.7897C22.5064 19.6932 22.6145 19.6094 22.632 19.4861C22.6494 19.3628 22.5517 19.2314 22.4936 19.1081C22.4581 19.0205 22.4417 18.9263 22.4454 18.8318C22.4492 18.7373 22.4731 18.6447 22.5155 18.5602C22.5578 18.4756 22.6177 18.4011 22.6912 18.3416C22.7646 18.282 22.8499 18.2388 22.9414 18.2148C22.8245 18.0962 22.7497 17.9425 22.7287 17.7773C22.7077 17.6121 22.7416 17.4446 22.8251 17.3005C22.34 14.1146 21.905 10.2738 21.42 7.08789C22.8867 11.8697 24.3895 16.7306 27.1486 20.8761C27.7569 20.4946 28.6782 21.1692 28.5153 21.8788C28.2199 21.1216 29.0725 20.2689 29.8611 20.405C30.6497 20.5411 31.1836 21.3751 31.2278 22.1893C32.4875 20.8354 35.0721 21.303 35.7979 23.0152C35.9235 21.6194 38.1592 21.1181 38.8454 22.3371L39.698 16.8411C39.7923 16.2362 39.89 15.6198 40.1563 15.0707C40.3959 14.5752 40.7635 14.1553 41.0182 13.668C42.107 11.5859 41.145 8.42205 43.0712 7.11232C42.1986 12.1364 41.9641 17.2507 42.3733 22.3336C43.8447 23.2769 44.5159 25.3346 43.8936 26.9863C44.3461 26.1534 45.7233 26.1174 46.2199 26.9258C46.1811 26.5759 46.2523 26.2226 46.4237 25.915C46.595 25.6075 46.8581 25.3611 47.1761 25.2101C47.5025 25.0793 47.8623 25.057 48.2023 25.1467C48.5424 25.2363 48.8445 25.4331 49.0639 25.7079C49.2291 25.2962 49.4128 24.86 49.7723 24.6087C50.1317 24.3575 50.7249 24.4017 50.9052 24.8065C50.9525 24.677 51.025 24.5581 51.1183 24.4567C51.2117 24.3553 51.3242 24.2733 51.4494 24.2155C51.5745 24.1577 51.7099 24.1251 51.8476 24.1198C51.9854 24.1144 52.1229 24.1363 52.2521 24.1842C52.3254 23.5049 52.7942 22.9477 53.2408 22.4394L60.5409 14.1123C58.8702 16.4136 57.5256 18.9347 56.5454 21.6043C56.229 22.4673 55.7393 23.5107 54.8355 23.5188C54.468 25.2473 53.6526 27.0374 52.0928 27.8133C52.5988 28.9683 51.9102 30.499 50.7214 30.8619C51.1343 31.8018 50.6691 33.0382 49.7467 33.4558C51.8997 35.5495 52.365 39.039 51.3681 41.8958C50.3713 44.7525 48.1217 47.0114 45.5883 48.5898C40.2377 51.9246 33.3878 52.5144 27.4894 50.3567C22.4796 48.5247 18.0177 44.5222 16.6428 39.281C15.86 36.2998 16.5405 33.236 15.4366 30.3629Z" fill="#6E71FF"/>
<path d="M15.4366 30.3629C15.3119 30.0373 15.2605 29.6881 15.2861 29.3403C15.3116 28.9925 15.4134 28.6546 15.5843 28.3507C15.6925 28.1622 15.8321 27.9738 15.8298 27.7563C15.8121 27.6144 15.7781 27.4751 15.7286 27.341C15.6757 27.1149 15.6983 26.8777 15.7928 26.6656C15.8873 26.4535 16.0485 26.2781 16.252 26.1662C15.8891 25.9701 15.5937 25.6693 15.4043 25.3029C15.2149 24.9365 15.1402 24.5215 15.19 24.1121C14.7422 24.0318 14.2839 23.8678 13.9885 23.5154C13.693 23.1629 13.6232 22.5848 13.9361 22.2463C13.4127 21.9486 12.8648 21.6275 12.5554 21.1029C12.246 20.5783 12.2786 19.7909 12.7881 19.4652C12.5734 19.39 12.385 19.2541 12.2459 19.0741C12.1068 18.8941 12.0228 18.6777 12.0041 18.4509C12.0073 18.3139 11.9952 18.177 11.968 18.0426C11.9249 17.9299 11.8623 17.8255 11.7831 17.7344L9.77197 15.1475C10.8062 15.6056 11.718 16.301 12.4333 17.1772C12.759 17.5762 13.0463 18.0147 13.4383 18.3485C13.7744 18.6335 14.1792 18.8348 14.4758 19.1628C14.7724 19.4908 14.9341 20.0189 14.6759 20.3794C15.5041 20.6039 15.924 21.7566 15.4413 22.4732C15.8379 22.1335 16.4881 22.365 16.7812 22.8023C17.0744 23.2397 17.1011 23.798 17.1197 24.3261C17.257 23.9178 17.863 23.8608 18.1805 24.1493C18.4981 24.4378 18.5795 24.9053 18.5749 25.3369C19.0401 24.6948 20.087 24.6204 20.6278 25.1915C20.8147 25.0692 21.0254 24.9881 21.246 24.9536C21.4667 24.9191 21.6921 24.932 21.9073 24.9914C22.2295 25.081 22.6832 25.2159 22.8076 24.8995C22.8344 24.8149 22.8392 24.7248 22.8216 24.6378C22.7611 24.1725 22.5738 23.7247 22.5006 23.2583C22.4273 22.7919 22.5006 22.2545 22.8495 21.9497C22.9135 21.8951 22.9891 21.8427 23.0089 21.7613C23.0132 21.7166 23.0083 21.6715 22.9942 21.6288C22.9802 21.5862 22.9575 21.5469 22.9274 21.5135C22.7425 21.2495 22.5227 21.0076 22.3912 20.7121C22.2598 20.4167 22.2342 20.0445 22.4308 19.7897C22.5064 19.6932 22.6145 19.6094 22.632 19.4861C22.6494 19.3628 22.5517 19.2314 22.4936 19.1081C22.4581 19.0205 22.4417 18.9263 22.4454 18.8318C22.4492 18.7373 22.4731 18.6447 22.5155 18.5602C22.5578 18.4756 22.6177 18.4011 22.6912 18.3416C22.7646 18.282 22.8499 18.2388 22.9414 18.2148C22.8245 18.0962 22.7497 17.9425 22.7287 17.7773C22.7077 17.6121 22.7416 17.4446 22.8251 17.3005C22.34 14.1146 21.905 10.2738 21.42 7.08789C22.8867 11.8697 24.3895 16.7306 27.1486 20.8761C27.7569 20.4946 28.6782 21.1692 28.5153 21.8788C28.2199 21.1216 29.0725 20.2689 29.8611 20.405C30.6497 20.5411 31.1836 21.3751 31.2278 22.1893C32.4875 20.8354 35.0721 21.303 35.7979 23.0152C35.9235 21.6194 38.1592 21.1181 38.8454 22.3371L39.698 16.8411C39.7923 16.2362 39.89 15.6198 40.1563 15.0707C40.3959 14.5752 40.7635 14.1553 41.0182 13.668C42.107 11.5859 41.145 8.42205 43.0712 7.11232C42.1986 12.1364 41.9641 17.2507 42.3733 22.3336C43.8447 23.2769 44.5159 25.3346 43.8936 26.9863C44.3461 26.1534 45.7233 26.1174 46.2199 26.9258C46.1811 26.5759 46.2523 26.2226 46.4237 25.915C46.595 25.6075 46.8581 25.3611 47.1761 25.2101C47.5025 25.0793 47.8623 25.057 48.2023 25.1467C48.5424 25.2363 48.8445 25.4331 49.0639 25.7079C49.2291 25.2962 49.4128 24.86 49.7723 24.6087C50.1317 24.3575 50.7249 24.4017 50.9052 24.8065C50.9525 24.677 51.025 24.5581 51.1183 24.4567C51.2117 24.3553 51.3242 24.2733 51.4494 24.2155C51.5745 24.1577 51.7099 24.1251 51.8476 24.1198C51.9854 24.1144 52.1229 24.1363 52.2521 24.1842C52.3254 23.5049 52.7942 22.9477 53.2408 22.4394L60.5409 14.1123C58.8702 16.4136 57.5256 18.9347 56.5454 21.6043C56.229 22.4673 55.7393 23.5107 54.8355 23.5188C54.468 25.2473 53.6526 27.0374 52.0928 27.8133C52.5988 28.9683 51.9102 30.499 50.7214 30.8619C51.1343 31.8018 50.6691 33.0382 49.7467 33.4558C51.8997 35.5495 52.365 39.039 51.3681 41.8958C50.3713 44.7525 48.1217 47.0114 45.5883 48.5898C40.2377 51.9246 33.3878 52.5144 27.4894 50.3567C22.4796 48.5247 18.0177 44.5222 16.6428 39.281C15.86 36.2998 16.5405 33.236 15.4366 30.3629Z" fill="url(#paint2_linear)"/>
<path d="M14.7388 34.4112C13.4721 32.7711 14.1933 29.9795 16.0846 29.192C16.3172 29.0978 16.5569 29.0245 16.7383 28.8559C16.9407 28.6698 17.0361 28.3906 17.1582 28.1475C17.3792 27.708 17.7063 27.3304 18.1098 27.0489C18.5133 26.7675 18.9806 26.591 19.4694 26.5354C19.7788 26.5051 20.108 26.5202 20.379 26.3644C20.628 26.2225 20.7827 25.9608 20.9374 25.7165C23.0601 22.3607 27.2825 20.5357 31.1244 21.3127C32.4574 19.7587 34.9512 19.4179 36.6378 20.559C37.1868 20.0091 37.8869 19.6348 38.6491 19.4839C39.4113 19.3329 40.2012 19.4119 40.9183 19.711C42.3362 20.3322 43.3075 21.8873 43.2598 23.4599C44.6835 23.3436 46.0107 24.8174 45.7769 26.2516C46.2394 26.054 46.7443 25.9766 47.2448 26.0264C47.7452 26.0762 48.225 26.2517 48.6395 26.5365C49.0523 26.8343 49.3857 27.2289 49.6104 27.6856C49.8351 28.1423 49.9443 28.6472 49.9282 29.156C50.6517 28.8431 51.4462 29.4433 51.8882 30.1051C52.3711 30.8463 52.6658 31.6942 52.7469 32.5751C52.828 33.456 52.6929 34.3434 52.3535 35.1603C52.1208 35.7046 51.7916 36.2188 51.6928 36.805C51.6172 37.2552 51.6823 37.7146 51.7219 38.1694C51.8567 39.7116 51.6989 41.2653 51.2566 42.7488C50.8658 44.0504 50.2365 45.3078 49.2466 46.2244C47.9183 47.4492 46.0956 47.9273 44.3346 48.2622C38.7118 49.3324 32.811 49.337 27.3627 47.5643C24.4478 46.6092 21.7139 45.1713 19.2752 43.3106C18.112 42.422 17.0908 41.3542 15.8904 40.519C15.5263 40.2666 15.1006 40.0409 14.9331 39.5978C14.8578 39.3573 14.8442 39.1017 14.8935 38.8545C14.9621 38.3497 15.0401 38.3892 14.8447 37.981C14.2736 36.7945 13.6547 35.6151 14.7388 34.4112Z" fill="#6E71FF"/>
<path d="M14.7388 34.4112C13.4721 32.7711 14.1933 29.9795 16.0846 29.192C16.3172 29.0978 16.5569 29.0245 16.7383 28.8559C16.9407 28.6698 17.0361 28.3906 17.1582 28.1475C17.3792 27.708 17.7063 27.3304 18.1098 27.0489C18.5133 26.7675 18.9806 26.591 19.4694 26.5354C19.7788 26.5051 20.108 26.5202 20.379 26.3644C20.628 26.2225 20.7827 25.9608 20.9374 25.7165C23.0601 22.3607 27.2825 20.5357 31.1244 21.3127C32.4574 19.7587 34.9512 19.4179 36.6378 20.559C37.1868 20.0091 37.8869 19.6348 38.6491 19.4839C39.4113 19.3329 40.2012 19.4119 40.9183 19.711C42.3362 20.3322 43.3075 21.8873 43.2598 23.4599C44.6835 23.3436 46.0107 24.8174 45.7769 26.2516C46.2394 26.054 46.7443 25.9766 47.2448 26.0264C47.7452 26.0762 48.225 26.2517 48.6395 26.5365C49.0523 26.8343 49.3857 27.2289 49.6104 27.6856C49.8351 28.1423 49.9443 28.6472 49.9282 29.156C50.6517 28.8431 51.4462 29.4433 51.8882 30.1051C52.3711 30.8463 52.6658 31.6942 52.7469 32.5751C52.828 33.456 52.6929 34.3434 52.3535 35.1603C52.1208 35.7046 51.7916 36.2188 51.6928 36.805C51.6172 37.2552 51.6823 37.7146 51.7219 38.1694C51.8567 39.7116 51.6989 41.2653 51.2566 42.7488C50.8658 44.0504 50.2365 45.3078 49.2466 46.2244C47.9183 47.4492 46.0956 47.9273 44.3346 48.2622C38.7118 49.3324 32.811 49.337 27.3627 47.5643C24.4478 46.6092 21.7139 45.1713 19.2752 43.3106C18.112 42.422 17.0908 41.3542 15.8904 40.519C15.5263 40.2666 15.1006 40.0409 14.9331 39.5978C14.8578 39.3573 14.8442 39.1017 14.8935 38.8545C14.9621 38.3497 15.0401 38.3892 14.8447 37.981C14.2736 36.7945 13.6547 35.6151 14.7388 34.4112Z" fill="url(#paint3_linear)"/>
<path d="M15.3054 36.2346C14.0946 34.6702 14.7843 31.9984 16.5931 31.2446C16.8106 31.1539 17.0444 31.0841 17.2188 30.9236C17.4119 30.7456 17.5027 30.4828 17.6201 30.2455C17.8316 29.8253 18.1443 29.4643 18.5302 29.1952C18.916 28.9262 19.3628 28.7574 19.8302 28.7043C20.1268 28.6752 20.4408 28.6903 20.7002 28.5414C20.9329 28.4053 21.0864 28.1552 21.2341 27.9215C23.2638 24.7134 27.3001 22.9687 30.9745 23.7108C32.2482 22.2254 34.6327 21.8997 36.2448 22.9908C36.7691 22.4642 37.4382 22.1056 38.1669 21.9606C38.8956 21.8156 39.651 21.8908 40.3369 22.1765C41.6931 22.7709 42.6213 24.2563 42.576 25.7603C43.9369 25.6509 45.2059 27.0584 44.9826 28.4356C45.4248 28.2467 45.9075 28.1727 46.386 28.2203C46.8645 28.2679 47.3232 28.4355 47.7195 28.7078C48.114 28.9927 48.4327 29.3699 48.6476 29.8065C48.8626 30.2431 48.9672 30.7257 48.9525 31.2121C49.6434 30.9131 50.403 31.4866 50.8252 32.1193C51.2867 32.8293 51.5677 33.6412 51.644 34.4845C51.7202 35.3278 51.5893 36.177 51.2625 36.9581C51.0392 37.4792 50.7263 37.9712 50.6321 38.5307C50.56 38.9611 50.6216 39.4008 50.66 39.8358C50.7888 41.3082 50.638 42.7917 50.2157 44.2082C49.8423 45.4528 49.241 46.6578 48.2941 47.5302C47.0239 48.7015 45.2815 49.1586 43.5984 49.4797C38.2222 50.5021 32.5809 50.5067 27.371 48.8085C24.5862 47.895 21.9743 46.5208 19.6441 44.7432C18.5297 43.8941 17.5504 42.8728 16.407 42.0749C16.058 41.833 15.6521 41.6178 15.4915 41.1944C15.42 40.9643 15.4072 40.72 15.4543 40.4837C15.5195 40.001 15.5951 40.0382 15.4078 39.6485C14.8611 38.5133 14.2737 37.385 15.3054 36.2346Z" fill="url(#paint4_linear)"/>
<path d="M28.8655 22.1065C27.9756 20.8806 26.2448 20.3746 24.8525 20.9341C23.4602 21.4935 22.532 23.0662 22.7007 24.5806C21.2955 24.6062 20.0498 25.9636 20.1184 27.3943C18.49 27.7782 16.9034 28.7285 16.1322 30.2441C15.361 31.7597 15.6321 33.8662 16.9988 34.8537C15.5557 34.3085 14.0709 33.8807 12.559 33.5742C13.7747 34.3529 14.908 35.2531 15.9415 36.2612C15.4112 36.2914 14.8792 36.2484 14.3607 36.1332L15.8333 37.4127L13.935 37.308L15.5355 38.5061L11.3818 38.2386C12.5518 38.8585 13.789 39.3424 15.0691 39.6809C14.6828 40.1132 14.4232 40.6437 14.3189 41.214C14.2147 41.7843 14.2698 42.3723 14.4782 42.9133C14.6972 43.4441 15.0617 43.9023 15.5296 44.235C15.9976 44.5678 16.55 44.7616 17.1232 44.7942C15.8263 46.204 16.0543 48.6141 17.2756 50.0924C18.497 51.5708 20.4511 52.2338 22.3424 52.3641C24.2337 52.4944 26.1239 52.1629 28.0129 51.9954C30.9208 51.7395 33.8415 51.8791 36.7576 51.9279C39.1153 51.971 41.6231 51.9163 43.6028 50.6112C43.805 50.4572 44.0283 50.333 44.2659 50.2425C44.6962 50.1134 45.1522 50.2623 45.5977 50.3123C46.1325 50.3646 46.6717 50.2766 47.1622 50.0572C47.6528 49.8377 48.0777 49.4943 48.3951 49.0607C48.7075 48.6149 48.902 48.0974 48.9606 47.5562C49.0192 47.015 48.9399 46.4678 48.7301 45.9655C49.3745 45.7108 49.7107 44.8535 49.4152 44.2208C50.3923 43.9114 51.2693 43.1937 51.6485 42.2236C52.0277 41.2535 51.8346 40.0438 51.0809 39.3378C51.4515 39.1844 51.7751 38.9358 52.0188 38.6172C52.2625 38.2985 52.4176 37.9211 52.4685 37.5232C52.512 37.1231 52.4499 36.7185 52.2882 36.35C52.1266 35.9814 51.8711 35.6616 51.5473 35.4225C51.8914 35.067 52.1247 34.6191 52.2187 34.1333C52.3127 33.6476 52.2633 33.1449 52.0765 32.6867C51.8782 32.2393 51.5509 31.8611 51.1365 31.6007C50.7221 31.3402 50.2394 31.2093 49.7502 31.2246C49.8048 30.7636 49.7194 30.2969 49.5051 29.8851C49.2908 29.4733 48.9575 29.1355 48.5486 28.9157C48.1349 28.7166 47.6697 28.6503 47.2168 28.7259C46.7639 28.8015 46.3454 29.0153 46.0187 29.338C45.2639 27.9271 42.9677 27.8038 42.0721 29.1263C41.9056 28.9687 41.6932 28.8685 41.4657 28.8402C41.2382 28.812 41.0077 28.8572 40.8077 28.9693C41.1776 27.8305 40.3018 26.4568 39.1293 26.3405C39.8807 25.9066 39.8202 24.6771 39.1967 24.0688C38.5733 23.4605 37.6334 23.3418 36.7715 23.3709C36.7787 23.0249 36.6694 22.6864 36.4612 22.4099C36.253 22.1334 35.958 21.9348 35.6235 21.846C35.2858 21.7791 34.9354 21.8295 34.6302 21.9887C34.325 22.148 34.0833 22.4066 33.945 22.7219C32.6655 21.4063 30.4229 21.219 28.9434 22.3054C28.8365 21.9619 28.8189 21.5968 28.8922 21.2446" fill="#6E71FF"/>
<path d="M28.8655 22.1065C27.9756 20.8806 26.2448 20.3746 24.8525 20.9341C23.4602 21.4935 22.532 23.0662 22.7007 24.5806C21.2955 24.6062 20.0498 25.9636 20.1184 27.3943C18.49 27.7782 16.9034 28.7285 16.1322 30.2441C15.361 31.7597 15.6321 33.8662 16.9988 34.8537C15.5557 34.3085 14.0709 33.8807 12.559 33.5742C13.7747 34.3529 14.908 35.2531 15.9415 36.2612C15.4112 36.2914 14.8792 36.2484 14.3607 36.1332L15.8333 37.4127L13.935 37.308L15.5355 38.5061L11.3818 38.2386C12.5518 38.8585 13.789 39.3424 15.0691 39.6809C14.6828 40.1132 14.4232 40.6437 14.3189 41.214C14.2147 41.7843 14.2698 42.3723 14.4782 42.9133C14.6972 43.4441 15.0617 43.9023 15.5296 44.235C15.9976 44.5678 16.55 44.7616 17.1232 44.7942C15.8263 46.204 16.0543 48.6141 17.2756 50.0924C18.497 51.5708 20.4511 52.2338 22.3424 52.3641C24.2337 52.4944 26.1239 52.1629 28.0129 51.9954C30.9208 51.7395 33.8415 51.8791 36.7576 51.9279C39.1153 51.971 41.6231 51.9163 43.6028 50.6112C43.805 50.4572 44.0283 50.333 44.2659 50.2425C44.6962 50.1134 45.1522 50.2623 45.5977 50.3123C46.1325 50.3646 46.6717 50.2766 47.1622 50.0572C47.6528 49.8377 48.0777 49.4943 48.3951 49.0607C48.7075 48.6149 48.902 48.0974 48.9606 47.5562C49.0192 47.015 48.9399 46.4678 48.7301 45.9655C49.3745 45.7108 49.7107 44.8535 49.4152 44.2208C50.3923 43.9114 51.2693 43.1937 51.6485 42.2236C52.0277 41.2535 51.8346 40.0438 51.0809 39.3378C51.4515 39.1844 51.7751 38.9358 52.0188 38.6172C52.2625 38.2985 52.4176 37.9211 52.4685 37.5232C52.512 37.1231 52.4499 36.7185 52.2882 36.35C52.1266 35.9814 51.8711 35.6616 51.5473 35.4225C51.8914 35.067 52.1247 34.6191 52.2187 34.1333C52.3127 33.6476 52.2633 33.1449 52.0765 32.6867C51.8782 32.2393 51.5509 31.8611 51.1365 31.6007C50.7221 31.3402 50.2394 31.2093 49.7502 31.2246C49.8048 30.7636 49.7194 30.2969 49.5051 29.8851C49.2908 29.4733 48.9575 29.1355 48.5486 28.9157C48.1349 28.7166 47.6697 28.6503 47.2168 28.7259C46.7639 28.8015 46.3454 29.0153 46.0187 29.338C45.2639 27.9271 42.9677 27.8038 42.0721 29.1263C41.9056 28.9687 41.6932 28.8685 41.4657 28.8402C41.2382 28.812 41.0077 28.8572 40.8077 28.9693C41.1776 27.8305 40.3018 26.4568 39.1293 26.3405C39.8807 25.9066 39.8202 24.6771 39.1967 24.0688C38.5733 23.4605 37.6334 23.3418 36.7715 23.3709C36.7787 23.0249 36.6694 22.6864 36.4612 22.4099C36.253 22.1334 35.958 21.9348 35.6235 21.846C35.2858 21.7791 34.9354 21.8295 34.6302 21.9887C34.325 22.148 34.0833 22.4066 33.945 22.7219C32.6655 21.4063 30.4229 21.219 28.9434 22.3054C28.8365 21.9619 28.8189 21.5968 28.8922 21.2446" fill="url(#paint5_linear)"/>
<path d="M29.0595 24.2089C28.2232 23.0574 26.5959 22.5804 25.2885 23.1074C23.9811 23.6343 23.1134 25.1103 23.2669 26.5341C21.9467 26.5573 20.7754 27.8333 20.8405 29.1768C19.3063 29.5374 17.8163 30.4307 17.0951 31.8521C16.3739 33.2735 16.6298 35.2567 17.9093 36.1826C16.5531 35.6708 15.1578 35.2689 13.737 34.981C14.8793 35.7127 15.9444 36.5584 16.916 37.5051C16.4179 37.5346 15.9181 37.4954 15.4306 37.3888L16.8136 38.5868L15.0305 38.4845L16.5345 39.6093L12.6309 39.365C13.7305 39.9472 14.8931 40.4019 16.0959 40.7201C15.7328 41.1261 15.4888 41.6246 15.3909 42.1605C15.293 42.6964 15.345 43.2489 15.5411 43.7571C15.7472 44.2558 16.0898 44.6862 16.5295 44.999C16.9692 45.3117 17.4881 45.4941 18.0268 45.5252C16.8078 46.8488 17.0218 49.1135 18.1699 50.5024C19.3179 51.8912 21.1534 52.5147 22.9307 52.6368C24.7081 52.7589 26.4831 52.4472 28.2581 52.2878C30.988 52.0471 33.7354 52.1715 36.4747 52.2239C38.6847 52.2634 41.046 52.2134 42.9059 50.9862C43.0957 50.8403 43.3057 50.7228 43.5293 50.6373C43.933 50.521 44.3622 50.6559 44.7809 50.7036C45.2833 50.7525 45.7897 50.6698 46.2504 50.4636C46.7112 50.2574 47.1103 49.9348 47.4085 49.5276C47.7018 49.1087 47.8845 48.6225 47.9396 48.1142C47.9947 47.6058 47.9204 47.0917 47.7237 46.6197C48.3286 46.3801 48.645 45.5729 48.367 44.9761C49.2859 44.6854 50.1117 44.0119 50.4607 43.1011C50.8096 42.1903 50.6363 41.0516 49.9279 40.3886C50.2762 40.2445 50.5801 40.0109 50.8089 39.7114C51.0377 39.4119 51.1832 39.0573 51.2307 38.6834C51.2724 38.307 51.2146 37.9262 51.0629 37.5792C50.9112 37.2322 50.6711 36.931 50.3665 36.706C50.6891 36.3718 50.9076 35.9509 50.9951 35.4946C51.0827 35.0384 51.0356 34.5665 50.8596 34.1366C50.672 33.7182 50.3643 33.3651 49.9756 33.1219C49.5868 32.8788 49.1346 32.7567 48.6764 32.771C48.7277 32.3379 48.6476 31.8994 48.4463 31.5126C48.2451 31.1257 47.9321 30.8083 47.5481 30.6017C47.1592 30.4148 46.7221 30.3525 46.2965 30.4235C45.871 30.4945 45.4777 30.6953 45.1706 30.9983C44.461 29.6735 42.3045 29.5571 41.4624 30.7994C41.306 30.6514 41.1064 30.5573 40.8927 30.531C40.679 30.5046 40.4625 30.5473 40.2748 30.6529C40.6237 29.5827 39.7991 28.2916 38.6975 28.1823C39.4036 27.774 39.3466 26.619 38.7603 26.0479C38.1741 25.4767 37.2924 25.3639 36.4817 25.3953C36.4886 25.0702 36.3861 24.7521 36.1906 24.4922C35.995 24.2323 35.7178 24.0457 35.4034 23.9623C35.0861 23.8998 34.7569 23.9473 34.4702 24.097C34.1834 24.2467 33.9563 24.4897 33.8262 24.7858C32.6223 23.5494 30.5169 23.3737 29.1316 24.3938C29.0307 24.0711 29.0138 23.728 29.0828 23.397" fill="url(#paint6_linear)"/>
<path d="M24.018 39.6907L14.002 37.4004L23.9785 41.3598L24.018 39.6907Z" fill="url(#paint7_linear)" fill-opacity="0.5"/>
<path d="M25.3154 37.3846L14.8306 32.4062L24.9571 39.0154L25.3154 37.3846Z" fill="url(#paint8_linear)" fill-opacity="0.5"/>
<path d="M26.4315 33.9751L17.5298 26.5273L25.6755 35.464L26.4315 33.9751Z" fill="url(#paint9_linear)" fill-opacity="0.5"/>
<path d="M31.1057 33.0154L28.3618 21.7373L29.6134 33.7657L31.1057 33.0154Z" fill="url(#paint10_linear)" fill-opacity="0.5"/>
<path d="M37.2332 33.0486L37.7659 21.4541L35.5908 33.3487L37.2332 33.0486Z" fill="url(#paint11_linear)" fill-opacity="0.5"/>
<path d="M39.7912 35.4031L48.6046 27.8506L38.4478 34.4132L39.7912 35.4031Z" fill="url(#paint12_linear)" fill-opacity="0.5"/>
<path d="M38.2578 41.4743L51.0411 36.3691L39.2802 39.1817L38.2578 41.4743Z" fill="url(#paint13_linear)" fill-opacity="0.5"/>
<path d="M16.382 47.2737C16.1098 45.4778 16.9066 43.5516 18.3594 42.5047C18.138 41.9972 18.0602 41.4387 18.1345 40.89C18.2087 40.3414 18.4321 39.8236 18.7804 39.3932C18.9177 39.2292 19.0817 39.0617 19.098 38.8465C19.0926 38.684 19.05 38.5248 18.9735 38.3813C18.8002 37.9391 18.7448 37.4595 18.8127 36.9895C18.8806 36.5195 19.0695 36.0752 19.3608 35.7002C19.6568 35.3366 20.0448 35.0591 20.4844 34.8965C20.924 34.7338 21.3992 34.692 21.8605 34.7754C21.3371 34.3102 21.3301 33.3668 21.8465 32.8911C22.363 32.4154 23.2796 32.5154 23.6844 33.0923C23.8631 32.8023 24.1297 32.5769 24.4454 32.4489C24.761 32.3209 25.1093 32.2969 25.4396 32.3805C25.7671 32.4822 26.0546 32.684 26.2615 32.9575C26.4685 33.231 26.5846 33.5625 26.5934 33.9054C26.6542 33.6504 26.7926 33.4205 26.9896 33.2475C27.1866 33.0746 27.4325 32.9671 27.6933 32.9399C27.954 32.9127 28.2168 32.9671 28.4452 33.0957C28.6737 33.2243 28.8566 33.4206 28.9686 33.6576C29.1944 33.1118 29.5783 32.6461 30.0711 32.3204C30.5638 31.9947 31.1428 31.824 31.7334 31.8303C32.324 31.8365 32.8992 32.0195 33.385 32.3555C33.8707 32.6916 34.2447 33.1653 34.4588 33.7158C34.6214 33.4479 34.8661 33.2395 35.1565 33.1218C35.447 33.004 35.7677 32.9831 36.071 33.0621C36.0791 32.2921 36.9806 31.6895 37.6773 31.9862C37.5726 31.5488 37.8541 31.087 38.2414 30.8695C38.6288 30.652 39.094 30.6369 39.5337 30.6787C40.3061 30.7532 41.0854 31.0126 41.653 31.5523C42.2207 32.092 42.5347 32.9481 42.3114 33.7018C43.3001 32.9004 44.9087 33.4866 45.5171 34.6149C46.1254 35.7432 45.9393 37.1599 45.4531 38.3487C45.8744 38.7161 46.1962 39.1838 46.3887 39.7086C46.5813 40.2333 46.6383 40.7982 46.5546 41.3508C46.462 41.8995 46.2313 42.4156 45.8841 42.8505C45.537 43.2854 45.0848 43.6247 44.5703 43.8365C44.8203 44.0506 45.0112 44.3253 45.1248 44.6342C45.2385 44.9431 45.271 45.276 45.2193 45.6011C45.1623 45.9239 45.0226 46.2265 44.8139 46.4792C44.6051 46.732 44.3345 46.9264 44.0282 47.0434C44.1769 47.2821 44.2599 47.5558 44.2689 47.8368C44.2779 48.1178 44.2125 48.3963 44.0794 48.6439C43.9428 48.8863 43.743 49.087 43.5013 49.2246C43.2595 49.3623 42.985 49.4317 42.7069 49.4256C43.0849 49.6117 43.2303 50.1165 43.1233 50.5306C43.0163 50.9447 42.7197 51.2785 42.4009 51.5577C40.9784 52.8058 39.058 53.2687 37.1981 53.5269C32.1813 54.2248 27.0727 53.7084 22.0896 52.7999C21.1707 52.6324 20.802 52.3079 20.1855 51.6368C19.7761 51.1901 19.355 51.1099 18.8409 50.8377C17.5486 50.1502 16.5995 48.7312 16.382 47.2737Z" fill="#6E71FF"/>
<path d="M16.382 47.2737C16.1098 45.4778 16.9066 43.5516 18.3594 42.5047C18.138 41.9972 18.0602 41.4387 18.1345 40.89C18.2087 40.3414 18.4321 39.8236 18.7804 39.3932C18.9177 39.2292 19.0817 39.0617 19.098 38.8465C19.0926 38.684 19.05 38.5248 18.9735 38.3813C18.8002 37.9391 18.7448 37.4595 18.8127 36.9895C18.8806 36.5195 19.0695 36.0752 19.3608 35.7002C19.6568 35.3366 20.0448 35.0591 20.4844 34.8965C20.924 34.7338 21.3992 34.692 21.8605 34.7754C21.3371 34.3102 21.3301 33.3668 21.8465 32.8911C22.363 32.4154 23.2796 32.5154 23.6844 33.0923C23.8631 32.8023 24.1297 32.5769 24.4454 32.4489C24.761 32.3209 25.1093 32.2969 25.4396 32.3805C25.7671 32.4822 26.0546 32.684 26.2615 32.9575C26.4685 33.231 26.5846 33.5625 26.5934 33.9054C26.6542 33.6504 26.7926 33.4205 26.9896 33.2475C27.1866 33.0746 27.4325 32.9671 27.6933 32.9399C27.954 32.9127 28.2168 32.9671 28.4452 33.0957C28.6737 33.2243 28.8566 33.4206 28.9686 33.6576C29.1944 33.1118 29.5783 32.6461 30.0711 32.3204C30.5638 31.9947 31.1428 31.824 31.7334 31.8303C32.324 31.8365 32.8992 32.0195 33.385 32.3555C33.8707 32.6916 34.2447 33.1653 34.4588 33.7158C34.6214 33.4479 34.8661 33.2395 35.1565 33.1218C35.447 33.004 35.7677 32.9831 36.071 33.0621C36.0791 32.2921 36.9806 31.6895 37.6773 31.9862C37.5726 31.5488 37.8541 31.087 38.2414 30.8695C38.6288 30.652 39.094 30.6369 39.5337 30.6787C40.3061 30.7532 41.0854 31.0126 41.653 31.5523C42.2207 32.092 42.5347 32.9481 42.3114 33.7018C43.3001 32.9004 44.9087 33.4866 45.5171 34.6149C46.1254 35.7432 45.9393 37.1599 45.4531 38.3487C45.8744 38.7161 46.1962 39.1838 46.3887 39.7086C46.5813 40.2333 46.6383 40.7982 46.5546 41.3508C46.462 41.8995 46.2313 42.4156 45.8841 42.8505C45.537 43.2854 45.0848 43.6247 44.5703 43.8365C44.8203 44.0506 45.0112 44.3253 45.1248 44.6342C45.2385 44.9431 45.271 45.276 45.2193 45.6011C45.1623 45.9239 45.0226 46.2265 44.8139 46.4792C44.6051 46.732 44.3345 46.9264 44.0282 47.0434C44.1769 47.2821 44.2599 47.5558 44.2689 47.8368C44.2779 48.1178 44.2125 48.3963 44.0794 48.6439C43.9428 48.8863 43.743 49.087 43.5013 49.2246C43.2595 49.3623 42.985 49.4317 42.7069 49.4256C43.0849 49.6117 43.2303 50.1165 43.1233 50.5306C43.0163 50.9447 42.7197 51.2785 42.4009 51.5577C40.9784 52.8058 39.058 53.2687 37.1981 53.5269C32.1813 54.2248 27.0727 53.7084 22.0896 52.7999C21.1707 52.6324 20.802 52.3079 20.1855 51.6368C19.7761 51.1901 19.355 51.1099 18.8409 50.8377C17.5486 50.1502 16.5995 48.7312 16.382 47.2737Z" fill="url(#paint14_linear)"/>
<path d="M19.3487 48.3388C19.2451 47.6019 19.3408 46.8507 19.626 46.1634C19.9112 45.476 20.3753 44.8777 20.9701 44.4305C20.7891 44.0142 20.7259 43.5561 20.7874 43.1063C20.849 42.6564 21.0329 42.2322 21.3191 41.8797C21.4354 41.7459 21.5668 41.6087 21.5796 41.433C21.5749 41.3005 21.5399 41.1708 21.4773 41.0538C21.3354 40.6915 21.2901 40.2984 21.3458 39.9133C21.4014 39.5281 21.5562 39.164 21.7948 38.8566C22.0371 38.5585 22.3551 38.331 22.7154 38.1978C23.0757 38.0646 23.4652 38.0306 23.8431 38.0994C23.7409 37.9987 23.6596 37.8789 23.6037 37.7468C23.5478 37.6147 23.5185 37.4729 23.5174 37.3295C23.5163 37.186 23.5435 37.0438 23.5974 36.9108C23.6513 36.7779 23.7308 36.6569 23.8315 36.5547C23.94 36.4625 24.0662 36.3934 24.2023 36.3516C24.3384 36.3098 24.4816 36.2963 24.6231 36.3117C24.7647 36.3272 24.9016 36.3713 25.0255 36.4415C25.1493 36.5117 25.2576 36.6064 25.3436 36.7199C25.4902 36.4826 25.7087 36.2983 25.9672 36.1937C26.2258 36.0891 26.511 36.0697 26.7813 36.1383C27.0497 36.2216 27.2853 36.3869 27.4549 36.6109C27.6245 36.835 27.7197 37.1066 27.727 37.3875C27.7769 37.1785 27.8905 36.9902 28.052 36.8485C28.2136 36.7069 28.4151 36.6188 28.6289 36.5966C28.8426 36.5744 29.0579 36.6191 29.2452 36.7245C29.4324 36.8299 29.5823 36.9909 29.6741 37.1851C29.8588 36.7377 30.1732 36.3559 30.5768 36.0888C30.9805 35.8217 31.4549 35.6816 31.9389 35.6866C32.4228 35.6916 32.8942 35.8415 33.2923 36.1169C33.6903 36.3923 33.9968 36.7805 34.1721 37.2317C34.3056 37.0123 34.5062 36.8418 34.7442 36.7454C34.9822 36.6491 35.245 36.6319 35.4935 36.6966C35.5004 36.0662 36.2391 35.5718 36.809 35.8149C36.7241 35.4567 36.9556 35.0775 37.2743 34.9007C37.593 34.7239 37.9722 34.7087 38.3339 34.7436C38.9667 34.8053 39.6053 35.017 40.0694 35.459C40.5335 35.901 40.7929 36.6001 40.6091 37.2212C41.4233 36.564 42.7377 37.0444 43.2367 37.9691C43.7357 38.8938 43.5856 40.0547 43.1843 41.0294C43.5296 41.3302 43.7933 41.7133 43.9511 42.1431C44.1088 42.573 44.1556 43.0357 44.087 43.4884C44.0111 43.9384 43.8217 44.3617 43.5368 44.7183C43.2519 45.0748 42.8808 45.3529 42.4585 45.5262C42.6635 45.7015 42.8201 45.9266 42.9131 46.1797C43.0062 46.4329 43.0327 46.7057 42.9901 46.9721C42.9433 47.2366 42.8289 47.4844 42.6578 47.6915C42.4868 47.8986 42.2651 48.0579 42.0142 48.1538C42.136 48.3495 42.204 48.5739 42.2114 48.8043C42.2187 49.0346 42.1652 49.2629 42.0561 49.4659C41.9439 49.6642 41.7801 49.8284 41.582 49.9411C41.384 50.0537 41.1591 50.1106 40.9313 50.1056C41.2419 50.258 41.3605 50.6721 41.2733 51.0118C41.186 51.3514 40.9418 51.6248 40.6812 51.8527C39.518 52.8752 37.9408 53.2555 36.417 53.466C32.3064 54.0348 28.1201 53.6149 24.0362 52.8705C23.2837 52.7333 22.9812 52.4681 22.4764 51.9167C22.1414 51.5515 21.796 51.4852 21.3749 51.2618C20.3059 50.6954 19.5301 49.5334 19.3487 48.3388Z" fill="url(#paint15_linear)"/>
<path d="M23.3811 49.8821L13.3662 47.5918L23.3427 51.5512L23.3811 49.8821Z" fill="url(#paint16_linear)" fill-opacity="0.5"/>
<path d="M24.6775 47.576L14.1938 42.5977L24.3193 49.2068L24.6775 47.576Z" fill="url(#paint17_linear)" fill-opacity="0.5"/>
<path d="M25.7946 44.1677L16.894 36.7188L25.0386 45.6566L25.7946 44.1677Z" fill="url(#paint18_linear)" fill-opacity="0.5"/>
<path d="M30.468 43.2076L27.7241 31.9307L28.9757 43.9578L30.468 43.2076Z" fill="url(#paint19_linear)" fill-opacity="0.5"/>
<path d="M36.5955 43.2408L37.1283 31.6475L34.9531 43.542L36.5955 43.2408Z" fill="url(#paint20_linear)" fill-opacity="0.5"/>
<path d="M39.1542 45.5964L47.9664 38.0439L37.8096 44.6054L39.1542 45.5964Z" fill="url(#paint21_linear)" fill-opacity="0.5"/>
<path d="M37.6206 51.6669L50.4039 46.5605L38.643 49.3743L37.6206 51.6669Z" fill="url(#paint22_linear)" fill-opacity="0.5"/>
<path d="M22.9161 50.4872C22.8464 49.9924 22.9124 49.4879 23.107 49.0275C23.3017 48.5672 23.6176 48.1684 24.0211 47.8736C23.8968 47.596 23.8527 47.2891 23.8938 46.9877C23.9349 46.6864 24.0596 46.4025 24.2538 46.1684C24.2979 46.1399 24.3359 46.1028 24.3654 46.0592C24.3948 46.0157 24.4152 45.9667 24.4253 45.9151C24.4354 45.8636 24.435 45.8105 24.4241 45.759C24.4132 45.7076 24.3921 45.6589 24.3619 45.6159C24.2615 45.3742 24.2285 45.1098 24.2664 44.8509C24.3042 44.5919 24.4115 44.3481 24.5769 44.1452C24.7423 43.9424 24.9595 43.7882 25.2055 43.699C25.4515 43.6097 25.7171 43.5888 25.9741 43.6385C25.9003 43.5743 25.841 43.4951 25.8001 43.4063C25.7591 43.3175 25.7374 43.221 25.7365 43.1232C25.7355 43.0254 25.7553 42.9285 25.7946 42.8389C25.8338 42.7493 25.8916 42.6691 25.9641 42.6034C26.0366 42.5378 26.1222 42.4883 26.2152 42.4581C26.3083 42.428 26.4066 42.4179 26.5039 42.4285C26.6011 42.4392 26.695 42.4703 26.7793 42.5199C26.8636 42.5694 26.9364 42.6363 26.993 42.7161C27.091 42.5516 27.2402 42.4237 27.4177 42.352C27.5953 42.2803 27.7914 42.2688 27.9762 42.3192C28.1609 42.3696 28.324 42.4791 28.4406 42.6311C28.5571 42.783 28.6207 42.9689 28.6215 43.1604C28.658 43.0199 28.7366 42.894 28.8468 42.7994C28.957 42.7049 29.0934 42.6463 29.2378 42.6315C29.3822 42.6167 29.5277 42.6463 29.6548 42.7166C29.7818 42.7868 29.8844 42.8942 29.9487 43.0243C30.0791 42.7243 30.2951 42.4694 30.5696 42.2914C30.8441 42.1135 31.165 42.0203 31.4921 42.0237C31.8193 42.027 32.1382 42.1267 32.409 42.3103C32.6798 42.4938 32.8905 42.7531 33.0148 43.0557C33.1076 42.9082 33.245 42.7939 33.4071 42.7295C33.5691 42.6651 33.7474 42.6539 33.9162 42.6975C33.9162 42.2764 34.4234 41.9449 34.813 42.1078C34.7936 41.9855 34.8137 41.8602 34.8704 41.7502C34.9271 41.6402 35.0174 41.5511 35.1283 41.4959C35.3529 41.3903 35.604 41.3538 35.8494 41.3912C36.2859 41.4172 36.7018 41.5856 37.0335 41.8705C37.3511 42.1659 37.5267 42.6335 37.4011 43.0488C37.9536 42.6091 38.8527 42.9324 39.1924 43.5489C39.532 44.1654 39.425 44.9447 39.1563 45.5949C39.3934 45.7918 39.5748 46.0471 39.6827 46.3357C39.7905 46.6243 39.821 46.9361 39.7712 47.2402C39.7213 47.5442 39.5929 47.8299 39.3985 48.069C39.2041 48.308 38.9506 48.4921 38.6631 48.6029C38.8038 48.7175 38.9115 48.8675 38.9751 49.0374C39.0388 49.2074 39.0561 49.3912 39.0253 49.57C38.9946 49.7489 38.9168 49.9163 38.8 50.0552C38.6832 50.1941 38.5316 50.2994 38.3607 50.3605C38.4452 50.4901 38.4925 50.6405 38.4974 50.7952C38.5022 50.9498 38.4645 51.1029 38.3882 51.2376C38.312 51.3723 38.2002 51.4834 38.0651 51.5589C37.93 51.6344 37.7768 51.6713 37.6221 51.6655C37.8338 51.7679 37.9141 52.0447 37.8547 52.2715C37.7793 52.4956 37.6383 52.6917 37.4499 52.8345C36.6555 53.5185 35.5831 53.772 34.542 53.9128C31.7399 54.2943 28.8855 54.0128 26.102 53.515C25.5891 53.4231 25.3832 53.2451 25.0389 52.8776C24.8063 52.6321 24.5736 52.5879 24.2887 52.439C23.927 52.2389 23.6155 51.9592 23.3778 51.6211C23.14 51.283 22.9821 50.8953 22.9161 50.4872Z" fill="#6E71FF"/>
<path d="M22.9161 50.4872C22.8464 49.9924 22.9124 49.4879 23.107 49.0275C23.3017 48.5672 23.6176 48.1684 24.0211 47.8736C23.8968 47.596 23.8527 47.2891 23.8938 46.9877C23.9349 46.6864 24.0596 46.4025 24.2538 46.1684C24.2979 46.1399 24.3359 46.1028 24.3654 46.0592C24.3948 46.0157 24.4152 45.9667 24.4253 45.9151C24.4354 45.8636 24.435 45.8105 24.4241 45.759C24.4132 45.7076 24.3921 45.6589 24.3619 45.6159C24.2615 45.3742 24.2285 45.1098 24.2664 44.8509C24.3042 44.5919 24.4115 44.3481 24.5769 44.1452C24.7423 43.9424 24.9595 43.7882 25.2055 43.699C25.4515 43.6097 25.7171 43.5888 25.9741 43.6385C25.9003 43.5743 25.841 43.4951 25.8001 43.4063C25.7591 43.3175 25.7374 43.221 25.7365 43.1232C25.7355 43.0254 25.7553 42.9285 25.7946 42.8389C25.8338 42.7493 25.8916 42.6691 25.9641 42.6034C26.0366 42.5378 26.1222 42.4883 26.2152 42.4581C26.3083 42.428 26.4066 42.4179 26.5039 42.4285C26.6011 42.4392 26.695 42.4703 26.7793 42.5199C26.8636 42.5694 26.9364 42.6363 26.993 42.7161C27.091 42.5516 27.2402 42.4237 27.4177 42.352C27.5953 42.2803 27.7914 42.2688 27.9762 42.3192C28.1609 42.3696 28.324 42.4791 28.4406 42.6311C28.5571 42.783 28.6207 42.9689 28.6215 43.1604C28.658 43.0199 28.7366 42.894 28.8468 42.7994C28.957 42.7049 29.0934 42.6463 29.2378 42.6315C29.3822 42.6167 29.5277 42.6463 29.6548 42.7166C29.7818 42.7868 29.8844 42.8942 29.9487 43.0243C30.0791 42.7243 30.2951 42.4694 30.5696 42.2914C30.8441 42.1135 31.165 42.0203 31.4921 42.0237C31.8193 42.027 32.1382 42.1267 32.409 42.3103C32.6798 42.4938 32.8905 42.7531 33.0148 43.0557C33.1076 42.9082 33.245 42.7939 33.4071 42.7295C33.5691 42.6651 33.7474 42.6539 33.9162 42.6975C33.9162 42.2764 34.4234 41.9449 34.813 42.1078C34.7936 41.9855 34.8137 41.8602 34.8704 41.7502C34.9271 41.6402 35.0174 41.5511 35.1283 41.4959C35.3529 41.3903 35.604 41.3538 35.8494 41.3912C36.2859 41.4172 36.7018 41.5856 37.0335 41.8705C37.3511 42.1659 37.5267 42.6335 37.4011 43.0488C37.9536 42.6091 38.8527 42.9324 39.1924 43.5489C39.532 44.1654 39.425 44.9447 39.1563 45.5949C39.3934 45.7918 39.5748 46.0471 39.6827 46.3357C39.7905 46.6243 39.821 46.9361 39.7712 47.2402C39.7213 47.5442 39.5929 47.8299 39.3985 48.069C39.2041 48.308 38.9506 48.4921 38.6631 48.6029C38.8038 48.7175 38.9115 48.8675 38.9751 49.0374C39.0388 49.2074 39.0561 49.3912 39.0253 49.57C38.9946 49.7489 38.9168 49.9163 38.8 50.0552C38.6832 50.1941 38.5316 50.2994 38.3607 50.3605C38.4452 50.4901 38.4925 50.6405 38.4974 50.7952C38.5022 50.9498 38.4645 51.1029 38.3882 51.2376C38.312 51.3723 38.2002 51.4834 38.0651 51.5589C37.93 51.6344 37.7768 51.6713 37.6221 51.6655C37.8338 51.7679 37.9141 52.0447 37.8547 52.2715C37.7793 52.4956 37.6383 52.6917 37.4499 52.8345C36.6555 53.5185 35.5831 53.772 34.542 53.9128C31.7399 54.2943 28.8855 54.0128 26.102 53.515C25.5891 53.4231 25.3832 53.2451 25.0389 52.8776C24.8063 52.6321 24.5736 52.5879 24.2887 52.439C23.927 52.2389 23.6155 51.9592 23.3778 51.6211C23.14 51.283 22.9821 50.8953 22.9161 50.4872Z" fill="url(#paint23_linear)"/>
<path d="M24.404 51.2509C24.3503 50.8689 24.4014 50.4795 24.5518 50.1242C24.7021 49.769 24.9462 49.4613 25.2578 49.2339C25.1618 49.0196 25.128 48.7827 25.1601 48.5502C25.1921 48.3176 25.2889 48.0987 25.4393 47.9184C25.5074 47.8566 25.5549 47.7754 25.5753 47.6857C25.5724 47.6174 25.5541 47.5506 25.5218 47.4903C25.4447 47.3038 25.4195 47.0999 25.4488 46.9002C25.4782 46.7006 25.5611 46.5126 25.6887 46.3562C25.8164 46.1998 25.9839 46.0809 26.1737 46.0121C26.3634 45.9433 26.5682 45.9272 26.7664 45.9654C26.7092 45.916 26.6631 45.855 26.6312 45.7865C26.5993 45.7179 26.5823 45.6434 26.5814 45.5678C26.5804 45.4922 26.5956 45.4172 26.6258 45.3479C26.656 45.2786 26.7006 45.2165 26.7566 45.1657C26.8126 45.1149 26.8788 45.0766 26.9507 45.0533C27.0227 45.03 27.0987 45.0222 27.1739 45.0305C27.249 45.0389 27.3216 45.063 27.3867 45.1015C27.4518 45.1399 27.508 45.1918 27.5516 45.2536C27.6277 45.1278 27.7427 45.0303 27.8792 44.9758C28.0157 44.9214 28.1663 44.9129 28.3081 44.9517C28.4498 44.9905 28.5751 45.0744 28.6649 45.1908C28.7546 45.3072 28.804 45.4497 28.8055 45.5967C28.8337 45.4883 28.8943 45.3912 28.9793 45.3183C29.0643 45.2454 29.1695 45.2003 29.2809 45.1889C29.3923 45.1775 29.5045 45.2004 29.6025 45.2546C29.7004 45.3088 29.7795 45.3916 29.8291 45.492C29.9278 45.2583 30.0939 45.0592 30.3061 44.9201C30.5183 44.781 30.7671 44.7082 31.0208 44.7108C31.2745 44.7134 31.5217 44.7914 31.731 44.9348C31.9402 45.0783 32.1022 45.2807 32.1961 45.5164C32.2675 45.4018 32.3739 45.3131 32.4996 45.2635C32.6252 45.2138 32.7635 45.2059 32.894 45.2408C32.9005 45.1617 32.9249 45.0851 32.9653 45.0169C33.0057 44.9486 33.0612 44.8904 33.1274 44.8467C33.1936 44.803 33.2689 44.775 33.3475 44.7646C33.4262 44.7543 33.5062 44.762 33.5814 44.7871C33.5666 44.6928 33.5822 44.5962 33.6259 44.5113C33.6696 44.4264 33.7392 44.3576 33.8245 44.3149C33.9981 44.2332 34.192 44.2049 34.3817 44.2335C34.7183 44.2536 35.0391 44.3835 35.2948 44.6033C35.4202 44.7147 35.5129 44.8581 35.5629 45.0181C35.6129 45.1782 35.6183 45.3489 35.5786 45.5118C36.0043 45.1733 36.6976 45.4211 36.9605 45.898C37.2233 46.3749 37.1419 46.9739 36.9325 47.4775C37.1154 47.6293 37.2554 47.8262 37.3386 48.0487C37.4218 48.2713 37.4454 48.5117 37.4069 48.7462C37.3685 48.9807 37.2694 49.201 37.1194 49.3853C36.9695 49.5696 36.7739 49.7115 36.5522 49.7969C36.6608 49.8853 36.7439 50.001 36.7931 50.1321C36.8423 50.2632 36.8557 50.405 36.8321 50.543C36.8084 50.681 36.7485 50.8102 36.6584 50.9175C36.5683 51.0247 36.4514 51.106 36.3195 51.1532C36.3849 51.2531 36.4215 51.3691 36.4253 51.4884C36.4292 51.6077 36.4002 51.7258 36.3415 51.8298C36.2828 51.9338 36.1966 52.0196 36.0925 52.0779C35.9883 52.1362 35.8701 52.1648 35.7508 52.1605C35.8278 52.2073 35.8872 52.2784 35.9196 52.3626C35.952 52.4468 35.9556 52.5393 35.9299 52.6257C35.8725 52.7987 35.7637 52.95 35.6182 53.0596C35.0052 53.5877 34.177 53.7831 33.3756 53.8924C31.2144 54.1855 29.0125 53.9692 26.8618 53.5854C26.4652 53.5144 26.307 53.3771 26.0406 53.0933C25.8638 52.9037 25.6824 52.87 25.459 52.7548C25.1811 52.6 24.9418 52.3843 24.759 52.1239C24.5763 51.8634 24.455 51.5649 24.404 51.2509Z" fill="url(#paint24_linear)"/>
<path opacity="0.26" d="M13.3671 46.5047C12.3843 46.9025 11.8876 48.4356 12.7693 49.0253C9.5205 49.051 6.32579 49.8593 3.45576 51.3819C3.06842 51.5878 2.65317 51.8471 2.55081 52.2775C2.3333 53.1836 3.58487 53.6582 4.51425 53.7268C21.8025 54.9877 39.1849 55.4076 56.4789 54.1735C57.7863 54.0804 59.5276 53.4651 59.3124 52.1728L56.6371 51.7552C58.2656 51.4738 59.9638 50.5386 60.4104 48.9427C60.8571 47.3468 59.2473 45.3694 57.7107 45.9929L58.9576 45.4183C56.6681 44.5798 54.2237 44.2492 51.7937 44.4494C51.1539 44.5029 50.299 44.9577 50.5863 45.5323C52.8307 46.136 54.9986 46.9946 57.0477 48.0913C55.231 49.9483 52.9533 51.2891 50.4479 51.9763C47.5516 52.7649 44.4971 52.6416 41.4984 52.5125C34.7869 52.2228 28.0743 51.9309 21.3826 51.3493C19.4761 51.1818 17.5266 50.9771 15.7993 50.1408C15.2329 49.8663 14.6176 49.3207 14.8223 48.7264C14.9781 48.2762 15.5085 48.1099 15.9354 47.8935C18.0035 46.8385 14.2605 46.1476 13.3671 46.5047Z" fill="#6E71FF"/>
<path opacity="0.26" d="M6.61015 39.8226L4.96775 41.1672C4.66604 41.3932 4.39506 41.6575 4.16167 41.9535C3.41957 42.9888 3.87553 44.6579 5.03986 45.172C5.78778 45.5012 6.64969 45.3826 7.45344 45.528C8.19555 45.6617 8.87484 46.0188 9.57856 46.2887C11.2675 46.9366 13.1006 47.082 14.9047 47.1948C21.3545 47.5961 27.8159 47.667 34.2832 47.7171C38.9486 47.7531 43.6211 47.7775 48.2691 47.3914C52.8846 47.0087 57.8583 46.0107 60.8977 42.5177C61.2652 42.0955 61.6084 41.6186 61.6945 41.0649C61.8282 40.2146 61.3071 39.369 60.6069 38.8665C59.9067 38.364 59.0529 38.1383 58.2189 37.922C58.6469 37.6649 58.2096 37.024 57.7792 36.7739C57.0197 36.3319 56.2078 35.94 55.3366 35.8434C54.4653 35.7469 53.5139 35.9935 52.9358 36.6576C53.6208 37.1762 54.4108 37.539 55.2505 37.7208C54.7852 37.8371 54.684 38.5199 54.9667 38.906C55.2493 39.2922 55.746 39.4469 56.2136 39.5539C56.6812 39.6609 57.179 39.7552 57.5326 40.0785C55.9844 42.6107 53.0684 44.0484 50.1407 44.5335C47.213 45.0185 44.2155 44.6777 41.2587 44.4032C31.8963 43.5366 22.4874 43.3249 13.0878 43.1132C12.7598 43.1063 12.3981 43.1132 12.1503 43.3261C11.9026 43.5389 11.9247 44.0473 12.2457 44.1147C11.2217 44.1302 10.2085 43.9047 9.28777 43.4564C8.79691 43.2179 8.30721 42.8806 8.12459 42.3676C7.94198 41.8547 8.21067 41.1568 8.75154 41.0881L8.28627 40.2123C9.90153 39.4686 11.4803 38.6517 13.0227 37.7615C11.0034 36.104 8.18624 38.535 6.61015 39.8226Z" fill="#6E71FF"/>
<path d="M54.2348 12.9365C53.7812 13.6344 53.0344 14.0799 52.2795 14.4277C51.5246 14.7755 50.729 15.0523 50.0439 15.5211C50.016 15.5397 49.9869 15.5618 49.9834 15.5944C49.9834 15.6109 49.987 15.6272 49.9938 15.6422C50.0006 15.6573 50.0105 15.6707 50.0229 15.6816L50.5778 16.3272C50.5998 16.3624 50.6327 16.3897 50.6715 16.4047C50.7102 16.4198 50.7529 16.422 50.793 16.4109C51.7828 16.3051 52.6959 15.8026 53.6835 15.6804C53.9489 15.6663 54.2119 15.6222 54.4674 15.549C54.5085 15.5375 54.5457 15.5154 54.5756 15.485C54.6041 15.4473 54.6221 15.4028 54.6279 15.3559C54.7164 14.9476 54.7978 14.4475 54.7385 14.0299C54.7129 13.8519 54.5826 13.6984 54.5 13.5402C54.4605 13.4623 54.1894 13.0063 54.2348 12.9365Z" fill="#6E71FF"/>
<path d="M54.2348 12.9365C53.7812 13.6344 53.0344 14.0799 52.2795 14.4277C51.5246 14.7755 50.729 15.0523 50.0439 15.5211C50.016 15.5397 49.9869 15.5618 49.9834 15.5944C49.9834 15.6109 49.987 15.6272 49.9938 15.6422C50.0006 15.6573 50.0105 15.6707 50.0229 15.6816L50.5778 16.3272C50.5998 16.3624 50.6327 16.3897 50.6715 16.4047C50.7102 16.4198 50.7529 16.422 50.793 16.4109C51.7828 16.3051 52.6959 15.8026 53.6835 15.6804C53.9489 15.6663 54.2119 15.6222 54.4674 15.549C54.5085 15.5375 54.5457 15.5154 54.5756 15.485C54.6041 15.4473 54.6221 15.4028 54.6279 15.3559C54.7164 14.9476 54.7978 14.4475 54.7385 14.0299C54.7129 13.8519 54.5826 13.6984 54.5 13.5402C54.4605 13.4623 54.1894 13.0063 54.2348 12.9365Z" fill="url(#paint25_linear)"/>
<path d="M54.0027 14.9322L50.0293 15.6301L50.9459 13.1851L54.2865 12.9443L54.0027 14.9322Z" fill="#6E71FF"/>
<path d="M45.1859 14.314C45.1166 14.3202 45.05 14.3442 44.9928 14.3837C44.9128 14.4619 44.8654 14.5675 44.8602 14.6792C44.7501 15.4173 44.9016 16.1707 45.2882 16.809C45.3039 16.8389 45.3266 16.8644 45.3545 16.8834C45.3911 16.8997 45.432 16.9034 45.4708 16.8939C45.7035 16.8555 45.8907 16.7043 46.1083 16.6287C46.3537 16.5438 46.6201 16.5577 46.8794 16.5414C47.1388 16.5251 47.4145 16.467 47.5925 16.2774C47.7422 16.0938 47.8162 15.86 47.7995 15.6237C47.8044 15.311 47.6971 15.0069 47.4971 14.7664C47.019 14.2337 45.8524 14.2069 45.1859 14.314Z" fill="#6E71FF"/>
<path d="M45.1859 14.314C45.1166 14.3202 45.05 14.3442 44.9928 14.3837C44.9128 14.4619 44.8654 14.5675 44.8602 14.6792C44.7501 15.4173 44.9016 16.1707 45.2882 16.809C45.3039 16.8389 45.3266 16.8644 45.3545 16.8834C45.3911 16.8997 45.432 16.9034 45.4708 16.8939C45.7035 16.8555 45.8907 16.7043 46.1083 16.6287C46.3537 16.5438 46.6201 16.5577 46.8794 16.5414C47.1388 16.5251 47.4145 16.467 47.5925 16.2774C47.7422 16.0938 47.8162 15.86 47.7995 15.6237C47.8044 15.311 47.6971 15.0069 47.4971 14.7664C47.019 14.2337 45.8524 14.2069 45.1859 14.314Z" fill="url(#paint26_linear)"/>
<path d="M46.7189 13.3146C46.7092 13.3015 46.6968 13.2906 46.6826 13.2826C46.6684 13.2746 46.6527 13.2696 46.6365 13.2681C46.6202 13.2666 46.6039 13.2685 46.5884 13.2737C46.573 13.2789 46.5588 13.2872 46.5468 13.2983C46.0955 13.5503 45.6542 13.819 45.2231 14.1044C45.1667 14.1343 45.1203 14.18 45.0893 14.2358C45.0703 14.2875 45.0651 14.3432 45.0742 14.3975C45.1222 15.0343 45.2436 15.6635 45.4359 16.2725C46.0396 15.948 46.7643 15.9666 47.4215 15.7758C48.63 15.4257 47.1458 13.7275 46.7189 13.3146Z" fill="#6E71FF"/>
<path d="M48.7028 17.5977C48.723 17.5811 48.7489 17.5732 48.7749 17.5756C48.7976 17.5832 48.8169 17.5984 48.8296 17.6187C49.0995 17.9525 49.3763 17.9769 49.6438 18.3166C49.6728 18.453 49.6838 18.5926 49.6764 18.7318C49.6658 18.7558 49.6473 18.7755 49.6241 18.7877C49.4315 18.9011 49.2251 18.989 49.0099 19.0494L48.3609 19.2599L47.9223 18.7877C47.8386 18.6969 47.6897 18.5434 47.6979 18.4073C47.706 18.291 47.6234 18.0025 47.6979 17.942C47.9631 17.728 48.419 17.7664 48.7028 17.5977Z" fill="#6E71FF"/>
<path d="M48.7028 17.5977C48.723 17.5811 48.7489 17.5732 48.7749 17.5756C48.7976 17.5832 48.8169 17.5984 48.8296 17.6187C49.0995 17.9525 49.3763 17.9769 49.6438 18.3166C49.6728 18.453 49.6838 18.5926 49.6764 18.7318C49.6658 18.7558 49.6473 18.7755 49.6241 18.7877C49.4315 18.9011 49.2251 18.989 49.0099 19.0494L48.3609 19.2599L47.9223 18.7877C47.8386 18.6969 47.6897 18.5434 47.6979 18.4073C47.706 18.291 47.6234 18.0025 47.6979 17.942C47.9631 17.728 48.419 17.7664 48.7028 17.5977Z" fill="url(#paint27_linear)"/>
<path d="M48.6694 17.1852C48.6903 17.1701 48.7157 17.1623 48.7415 17.1631C48.7641 17.1708 48.7834 17.186 48.7961 17.2062L49.6104 18.2088C49.625 18.2217 49.6362 18.238 49.6429 18.2563C49.6496 18.2746 49.6516 18.2943 49.6488 18.3135C49.6383 18.3379 49.6199 18.3581 49.5964 18.3705C49.4038 18.4836 49.1974 18.5712 48.9823 18.6311L48.3332 18.8416L47.8889 18.367C47.8051 18.2763 47.6562 18.1239 47.6644 17.9878C47.6725 17.8715 47.7935 17.8285 47.8726 17.7657C48.1261 17.5562 48.3922 17.3624 48.6694 17.1852Z" fill="#6E71FF"/>
<path d="M50.0857 45.2171C50.4056 44.4494 51.0605 43.8748 51.7397 43.3967C52.419 42.9186 53.1518 42.5034 53.7416 41.9172C53.7547 41.9074 53.7656 41.895 53.7736 41.8808C53.7816 41.8666 53.7866 41.8508 53.7881 41.8346C53.7846 41.8183 53.7779 41.8029 53.7683 41.7893C53.7587 41.7757 53.7464 41.7642 53.7323 41.7555L53.0693 41.2216C53.0421 41.1957 53.0095 41.1762 52.9739 41.1646C52.9296 41.1571 52.8841 41.1619 52.8424 41.1785C51.8886 41.46 51.0814 42.1195 50.1322 42.4185C49.8734 42.4799 49.6225 42.5709 49.3843 42.6895C49.3467 42.7084 49.3143 42.7364 49.2901 42.7709C49.2691 42.8139 49.2595 42.8616 49.2622 42.9093C49.2494 43.3257 49.2622 43.8329 49.3925 44.2319C49.4506 44.4028 49.6053 44.5308 49.7158 44.6704C49.7682 44.732 50.1183 45.1345 50.0857 45.2171Z" fill="#6E71FF"/>
<path d="M50.0857 45.2171C50.4056 44.4494 51.0605 43.8748 51.7397 43.3967C52.419 42.9186 53.1518 42.5034 53.7416 41.9172C53.7547 41.9074 53.7656 41.895 53.7736 41.8808C53.7816 41.8666 53.7866 41.8508 53.7881 41.8346C53.7846 41.8183 53.7779 41.8029 53.7683 41.7893C53.7587 41.7757 53.7464 41.7642 53.7323 41.7555L53.0693 41.2216C53.0421 41.1957 53.0095 41.1762 52.9739 41.1646C52.9296 41.1571 52.8841 41.1619 52.8424 41.1785C51.8886 41.46 51.0814 42.1195 50.1322 42.4185C49.8734 42.4799 49.6225 42.5709 49.3843 42.6895C49.3467 42.7084 49.3143 42.7364 49.2901 42.7709C49.2691 42.8139 49.2595 42.8616 49.2622 42.9093C49.2494 43.3257 49.2622 43.8329 49.3925 44.2319C49.4506 44.4028 49.6053 44.5308 49.7158 44.6704C49.7682 44.732 50.1183 45.1345 50.0857 45.2171Z" fill="url(#paint28_linear)"/>
<path d="M49.9531 43.2057L53.7358 41.8018L53.2751 44.3724L50.0334 45.2122L49.9531 43.2057Z" fill="#6E71FF"/>
<path d="M58.7377 42.2215C58.8045 42.202 58.8656 42.1665 58.9156 42.118C58.9799 42.0263 59.0073 41.9138 58.9924 41.8028C58.9676 41.057 58.6824 40.3434 58.1863 39.7859C58.1656 39.7594 58.1389 39.7383 58.1084 39.7242C58.0694 39.7155 58.0286 39.7196 57.9921 39.7358C57.7757 39.8138 57.614 39.9975 57.4105 40.1115C57.1848 40.2395 56.9196 40.2744 56.6672 40.3372C56.4148 40.4 56.1543 40.507 56.0135 40.7245C55.8996 40.9323 55.8692 41.1756 55.9286 41.405C55.9799 41.7131 56.14 41.9925 56.3799 42.1925C56.9499 42.6321 58.1026 42.446 58.7377 42.2215Z" fill="#6E71FF"/>
<path d="M58.7377 42.2215C58.8045 42.202 58.8656 42.1665 58.9156 42.118C58.9799 42.0263 59.0073 41.9138 58.9924 41.8028C58.9676 41.057 58.6824 40.3434 58.1863 39.7859C58.1656 39.7594 58.1389 39.7383 58.1084 39.7242C58.0694 39.7155 58.0286 39.7196 57.9921 39.7358C57.7757 39.8138 57.614 39.9975 57.4105 40.1115C57.1848 40.2395 56.9196 40.2744 56.6672 40.3372C56.4148 40.4 56.1543 40.507 56.0135 40.7245C55.8996 40.9323 55.8692 41.1756 55.9286 41.405C55.9799 41.7131 56.14 41.9925 56.3799 42.1925C56.9499 42.6321 58.1026 42.446 58.7377 42.2215Z" fill="url(#paint29_linear)"/>
<path d="M57.4106 43.4816C57.4322 43.4984 57.4579 43.5092 57.4851 43.513C57.5225 43.5099 57.5573 43.4928 57.5828 43.4653C57.9821 43.1365 58.3675 42.7926 58.739 42.4336C58.7893 42.4008 58.8264 42.3513 58.8437 42.2938C58.8609 42.2363 58.8572 42.1745 58.8332 42.1195C58.6705 41.5012 58.4363 40.9039 58.1353 40.3398C57.6002 40.7679 56.8849 40.8807 56.2742 41.1878C55.1506 41.7496 56.9163 43.1524 57.4106 43.4816Z" fill="#6E71FF"/>
<path d="M54.6867 39.6266C54.67 39.6465 54.6462 39.659 54.6204 39.6615C54.5962 39.6587 54.5738 39.6471 54.5576 39.6289C54.2319 39.3498 53.9562 39.3754 53.627 39.095C53.574 38.9665 53.5381 38.8316 53.52 38.6937C53.5261 38.6679 53.5409 38.6449 53.5619 38.6286C53.7305 38.482 53.9179 38.3584 54.1191 38.261L54.7193 37.9365L55.2357 38.3215C55.3346 38.396 55.5102 38.5193 55.5253 38.6554C55.537 38.7717 55.6719 39.0404 55.6044 39.1206C55.3904 39.3649 54.9333 39.401 54.6867 39.6266Z" fill="#6E71FF"/>
<path d="M54.6867 39.6266C54.67 39.6465 54.6462 39.659 54.6204 39.6615C54.5962 39.6587 54.5738 39.6471 54.5576 39.6289C54.2319 39.3498 53.9562 39.3754 53.627 39.095C53.574 38.9665 53.5381 38.8316 53.52 38.6937C53.5261 38.6679 53.5409 38.6449 53.5619 38.6286C53.7305 38.482 53.9179 38.3584 54.1191 38.261L54.7193 37.9365L55.2357 38.3215C55.3346 38.396 55.5102 38.5193 55.5253 38.6554C55.537 38.7717 55.6719 39.0404 55.6044 39.1206C55.3904 39.3649 54.9333 39.401 54.6867 39.6266Z" fill="url(#paint30_linear)"/>
<path d="M54.7937 40.029C54.7767 40.0485 54.7531 40.0609 54.7274 40.0639C54.7034 40.0604 54.6812 40.0489 54.6646 40.0313L53.6875 39.1915C53.6573 39.1659 53.6247 39.1345 53.6294 39.0949C53.6357 39.0695 53.6505 39.047 53.6712 39.031C53.8401 38.8846 54.0274 38.7611 54.2284 38.6634L54.8286 38.3389L55.345 38.7239C55.4439 38.7983 55.6195 38.9216 55.6347 39.0565C55.6463 39.1729 55.5358 39.2368 55.4695 39.3136C55.2591 39.5657 55.0334 39.8046 54.7937 40.029Z" fill="#6E71FF"/>
<path d="M37.8009 17.8194C37.3089 17.8578 36.8273 17.667 36.3911 17.4367C35.9549 17.2064 35.535 16.9319 35.0663 16.7795C35.0573 16.7755 35.0476 16.7734 35.0378 16.7734C35.028 16.7734 35.0183 16.7755 35.0093 16.7795C34.9942 16.7921 34.9846 16.81 34.9825 16.8295L34.879 17.325C34.875 17.347 34.875 17.3694 34.879 17.3913C34.887 17.4166 34.9019 17.4392 34.922 17.4565C35.3292 17.8857 35.8968 18.1334 36.312 18.5545C36.4155 18.6754 36.5326 18.7839 36.661 18.8779C36.6813 18.8923 36.7049 18.9015 36.7296 18.9046C36.7583 18.9049 36.7864 18.8972 36.811 18.8825C37.0545 18.7778 37.2789 18.6336 37.4752 18.4556C37.5392 18.3679 37.588 18.27 37.6194 18.166C37.6346 18.1148 37.752 17.8229 37.8009 17.8194Z" fill="#6E71FF"/>
<path d="M37.8009 17.8194C37.3089 17.8578 36.8273 17.667 36.3911 17.4367C35.9549 17.2064 35.535 16.9319 35.0663 16.7795C35.0573 16.7755 35.0476 16.7734 35.0378 16.7734C35.028 16.7734 35.0183 16.7755 35.0093 16.7795C34.9942 16.7921 34.9846 16.81 34.9825 16.8295L34.879 17.325C34.875 17.347 34.875 17.3694 34.879 17.3913C34.887 17.4166 34.9019 17.4392 34.922 17.4565C35.3292 17.8857 35.8968 18.1334 36.312 18.5545C36.4155 18.6754 36.5326 18.7839 36.661 18.8779C36.6813 18.8923 36.7049 18.9015 36.7296 18.9046C36.7583 18.9049 36.7864 18.8972 36.811 18.8825C37.0545 18.7778 37.2789 18.6336 37.4752 18.4556C37.5392 18.3679 37.588 18.27 37.6194 18.166C37.6346 18.1148 37.752 17.8229 37.8009 17.8194Z" fill="url(#paint31_linear)"/>
<path d="M36.7761 18.4312L35.0093 16.8109L36.4935 16.3584L37.816 17.8461L36.7761 18.4312Z" fill="#6E71FF"/>
<path d="M33.8773 14.0521C33.8488 14.0218 33.8132 13.999 33.7738 13.9858C33.7079 13.9768 33.641 13.993 33.5865 14.0312C33.1986 14.2462 32.8981 14.5902 32.7374 15.0036C32.729 15.0218 32.7253 15.0418 32.7269 15.0618C32.732 15.0853 32.7451 15.1063 32.7641 15.1211C32.8759 15.198 32.9938 15.2657 33.1166 15.3235C33.2379 15.4192 33.3458 15.5307 33.4376 15.655C33.53 15.7804 33.6662 15.8664 33.8191 15.8958C33.96 15.9002 34.0973 15.8507 34.203 15.7573C34.3522 15.6462 34.4566 15.4853 34.4973 15.3037C34.5787 14.8873 34.1634 14.3278 33.8773 14.0521Z" fill="#6E71FF"/>
<path d="M33.8773 14.0521C33.8488 14.0218 33.8132 13.999 33.7738 13.9858C33.7079 13.9768 33.641 13.993 33.5865 14.0312C33.1986 14.2462 32.8981 14.5902 32.7374 15.0036C32.729 15.0218 32.7253 15.0418 32.7269 15.0618C32.732 15.0853 32.7451 15.1063 32.7641 15.1211C32.8759 15.198 32.9938 15.2657 33.1166 15.3235C33.2379 15.4192 33.3458 15.5307 33.4376 15.655C33.53 15.7804 33.6662 15.8664 33.8191 15.8958C33.96 15.9002 34.0973 15.8507 34.203 15.7573C34.3522 15.6462 34.4566 15.4853 34.4973 15.3037C34.5787 14.8873 34.1634 14.3278 33.8773 14.0521Z" fill="url(#paint32_linear)"/>
<path d="M34.9021 14.4128C34.9062 14.3971 34.9062 14.3807 34.9021 14.3651C34.8901 14.3462 34.8714 14.3325 34.8498 14.3267C34.5683 14.2046 34.281 14.0941 33.9914 13.994C33.9604 13.9759 33.9239 13.9696 33.8887 13.9762C33.8534 13.9828 33.8217 14.002 33.7994 14.0301C33.5165 14.2829 33.2639 14.5679 33.0469 14.8792C33.4179 15.0467 33.6715 15.3945 33.9995 15.6353C34.5986 16.0784 34.8614 14.764 34.9021 14.4128Z" fill="#6E71FF"/>
<path d="M33.6021 16.8987C33.6096 16.8996 33.6167 16.9023 33.6229 16.9065C33.6292 16.9107 33.6343 16.9164 33.6378 16.923C33.6413 16.9297 33.6432 16.9371 33.6433 16.9446C33.6434 16.9521 33.6416 16.9595 33.6382 16.9662C33.5788 17.214 33.6672 17.3535 33.6068 17.6013C33.5535 17.665 33.4916 17.721 33.423 17.7676C33.4082 17.7721 33.3924 17.7721 33.3776 17.7676C33.2534 17.7177 33.1361 17.6521 33.0287 17.5722L32.6948 17.3396L32.7588 16.9616C32.7716 16.8894 32.789 16.7627 32.8565 16.7185C32.924 16.6743 33.0205 16.5358 33.0787 16.551C33.2729 16.6033 33.4183 16.8278 33.6021 16.8987Z" fill="#6E71FF"/>
<path d="M33.6021 16.8987C33.6096 16.8996 33.6167 16.9023 33.6229 16.9065C33.6292 16.9107 33.6343 16.9164 33.6378 16.923C33.6413 16.9297 33.6432 16.9371 33.6433 16.9446C33.6434 16.9521 33.6416 16.9595 33.6382 16.9662C33.5788 17.214 33.6672 17.3535 33.6068 17.6013C33.5535 17.665 33.4916 17.721 33.423 17.7676C33.4082 17.7721 33.3924 17.7721 33.3776 17.7676C33.2534 17.7177 33.1361 17.6521 33.0287 17.5722L32.6948 17.3396L32.7588 16.9616C32.7716 16.8894 32.789 16.7627 32.8565 16.7185C32.924 16.6743 33.0205 16.5358 33.0787 16.551C33.2729 16.6033 33.4183 16.8278 33.6021 16.8987Z" fill="url(#paint33_linear)"/>
<path d="M33.7857 16.7319C33.8005 16.7362 33.8133 16.7457 33.8217 16.7586C33.827 16.7717 33.827 16.7863 33.8217 16.7993L33.6426 17.5449C33.6426 17.567 33.6287 17.5926 33.6066 17.6007C33.592 17.6064 33.5758 17.6064 33.5612 17.6007C33.4369 17.5515 33.3196 17.4862 33.2122 17.4065L32.8784 17.1739L32.9424 16.797C32.954 16.7237 32.9726 16.5981 33.0401 16.5527C33.1076 16.5074 33.1622 16.5527 33.2204 16.5713C33.4118 16.6136 33.6006 16.6672 33.7857 16.7319Z" fill="#6E71FF"/>
<path d="M10.2754 23.1173C10.5418 23.4593 10.6348 23.9036 10.6778 24.3351C10.7209 24.7667 10.722 25.2063 10.836 25.6239C10.839 25.6412 10.8486 25.6566 10.8628 25.667C10.8711 25.6694 10.8798 25.6702 10.8884 25.6692C10.897 25.6682 10.9053 25.6654 10.9128 25.6611L11.3257 25.4983C11.344 25.4916 11.3609 25.4818 11.3757 25.4692C11.39 25.4505 11.3992 25.4285 11.4025 25.4052C11.5188 24.8993 11.4269 24.3642 11.5351 23.8559C11.5729 23.7227 11.5959 23.5858 11.6037 23.4476C11.6049 23.4256 11.6005 23.4036 11.5909 23.3836C11.577 23.3627 11.5577 23.3458 11.5351 23.3348C11.3407 23.207 11.1265 23.1122 10.9012 23.0545C10.8057 23.0505 10.7102 23.0623 10.6185 23.0894C10.5743 23.0987 10.3021 23.1545 10.2754 23.1173Z" fill="#6E71FF"/>
<path d="M10.2754 23.1173C10.5418 23.4593 10.6348 23.9036 10.6778 24.3351C10.7209 24.7667 10.722 25.2063 10.836 25.6239C10.839 25.6412 10.8486 25.6566 10.8628 25.667C10.8711 25.6694 10.8798 25.6702 10.8884 25.6692C10.897 25.6682 10.9053 25.6654 10.9128 25.6611L11.3257 25.4983C11.344 25.4916 11.3609 25.4818 11.3757 25.4692C11.39 25.4505 11.3992 25.4285 11.4025 25.4052C11.5188 24.8993 11.4269 24.3642 11.5351 23.8559C11.5729 23.7227 11.5959 23.5858 11.6037 23.4476C11.6049 23.4256 11.6005 23.4036 11.5909 23.3836C11.577 23.3627 11.5577 23.3458 11.5351 23.3348C11.3407 23.207 11.1265 23.1122 10.9012 23.0545C10.8057 23.0505 10.7102 23.0623 10.6185 23.0894C10.5743 23.0987 10.3021 23.1545 10.2754 23.1173Z" fill="url(#paint34_linear)"/>
<path d="M11.2191 23.5738L10.8876 25.6524L9.83838 24.7835L10.2885 23.0957L11.2191 23.5738Z" fill="#6E71FF"/>
<path d="M9.41328 27.8172C9.40456 27.8524 9.40456 27.8891 9.41328 27.9243C9.43857 27.9774 9.48304 28.0189 9.53774 28.0406C9.88251 28.2212 10.2797 28.2751 10.6602 28.1929C10.6774 28.1903 10.6938 28.1835 10.7079 28.1732C10.7228 28.1577 10.7319 28.1376 10.7335 28.1162C10.7359 27.996 10.7285 27.8758 10.7114 27.7568C10.723 27.6216 10.7527 27.4885 10.7998 27.3613C10.8469 27.2326 10.8436 27.0909 10.7905 26.9646C10.7257 26.8598 10.6233 26.7837 10.5043 26.7518C10.3513 26.6947 10.1828 26.6947 10.0298 26.7518C9.68546 26.8995 9.47493 27.4706 9.41328 27.8172Z" fill="#6E71FF"/>
<path d="M9.41328 27.8172C9.40456 27.8524 9.40456 27.8891 9.41328 27.9243C9.43857 27.9774 9.48304 28.0189 9.53774 28.0406C9.88251 28.2212 10.2797 28.2751 10.6602 28.1929C10.6774 28.1903 10.6938 28.1835 10.7079 28.1732C10.7228 28.1577 10.7319 28.1376 10.7335 28.1162C10.7359 27.996 10.7285 27.8758 10.7114 27.7568C10.723 27.6216 10.7527 27.4885 10.7998 27.3613C10.8469 27.2326 10.8436 27.0909 10.7905 26.9646C10.7257 26.8598 10.6233 26.7837 10.5043 26.7518C10.3513 26.6947 10.1828 26.6947 10.0298 26.7518C9.68546 26.8995 9.47493 27.4706 9.41328 27.8172Z" fill="url(#paint35_linear)"/>
<path d="M9.18215 26.891C9.16863 26.896 9.1569 26.9049 9.14842 26.9166C9.14193 26.9346 9.14193 26.9543 9.14842 26.9724C9.19611 27.2388 9.2531 27.5016 9.32057 27.7633C9.32605 27.7961 9.34055 27.8267 9.36244 27.8517C9.38528 27.8687 9.41144 27.8806 9.43921 27.8866C9.76145 27.9714 10.0925 28.0182 10.4256 28.0262C10.3686 27.6773 10.5012 27.3202 10.5186 26.9631C10.5512 26.3082 9.45898 26.7502 9.18215 26.891Z" fill="#6E71FF"/>
<path d="M11.6318 26.6421C11.6272 26.6294 11.6272 26.6154 11.6318 26.6026C11.6401 26.5931 11.651 26.5862 11.6632 26.5828C11.8738 26.5072 11.9331 26.3746 12.1436 26.2979C12.2154 26.3076 12.2857 26.3259 12.353 26.3525C12.3635 26.3619 12.3705 26.3747 12.3728 26.3886C12.3958 26.5034 12.4036 26.6207 12.396 26.7375L12.3902 27.0923L12.082 27.2284C12.0227 27.254 11.9215 27.3028 11.8563 27.2749C11.7912 27.247 11.6446 27.2423 11.6237 27.1923C11.5702 27.0283 11.669 26.8108 11.6318 26.6421Z" fill="#6E71FF"/>
<path d="M11.6318 26.6421C11.6272 26.6294 11.6272 26.6154 11.6318 26.6026C11.6401 26.5931 11.651 26.5862 11.6632 26.5828C11.8738 26.5072 11.9331 26.3746 12.1436 26.2979C12.2154 26.3076 12.2857 26.3259 12.353 26.3525C12.3635 26.3619 12.3705 26.3747 12.3728 26.3886C12.3958 26.5034 12.4036 26.6207 12.396 26.7375L12.3902 27.0923L12.082 27.2284C12.0227 27.254 11.9215 27.3028 11.8563 27.2749C11.7912 27.247 11.6446 27.2423 11.6237 27.1923C11.5702 27.0283 11.669 26.8108 11.6318 26.6421Z" fill="url(#paint36_linear)"/>
<path d="M11.4214 26.588C11.4168 26.5752 11.4168 26.5612 11.4214 26.5485C11.429 26.5387 11.4397 26.5317 11.4517 26.5287L12.0844 26.2961C12.0934 26.2915 12.1034 26.2891 12.1135 26.2891C12.1236 26.2891 12.1336 26.2915 12.1426 26.2961C12.1524 26.3059 12.1589 26.3185 12.1612 26.3321C12.1842 26.4469 12.192 26.5642 12.1845 26.6811V27.0358L11.8762 27.1719C11.8181 27.1987 11.7169 27.2464 11.6517 27.2184C11.5866 27.1905 11.5947 27.1277 11.5773 27.0777C11.5156 26.9177 11.4635 26.7542 11.4214 26.588Z" fill="#6E71FF"/>
<path d="M5.73486 39.6178C6.1664 39.5771 6.59212 39.7341 6.97829 39.933C7.36447 40.1319 7.73552 40.3645 8.14961 40.4925C8.16566 40.4989 8.18357 40.4989 8.19962 40.4925C8.20669 40.4873 8.21262 40.4806 8.21702 40.473C8.22142 40.4654 8.22421 40.457 8.22521 40.4483L8.30896 40.0121C8.31302 39.9933 8.31302 39.9739 8.30896 39.9551C8.3016 39.933 8.28833 39.9132 8.27058 39.8981C7.9065 39.527 7.40518 39.3165 7.03529 38.9536C6.94369 38.8493 6.84025 38.756 6.72705 38.6756C6.70919 38.6628 6.68837 38.6548 6.66656 38.6523C6.64166 38.6531 6.61732 38.6599 6.59561 38.6721C6.38256 38.7662 6.18646 38.8947 6.01519 39.0525C5.96033 39.1304 5.91867 39.2169 5.89189 39.3084C5.87793 39.3537 5.78255 39.6131 5.73486 39.6178Z" fill="#6E71FF"/>
<path d="M5.73486 39.6178C6.1664 39.5771 6.59212 39.7341 6.97829 39.933C7.36447 40.1319 7.73552 40.3645 8.14961 40.4925C8.16566 40.4989 8.18357 40.4989 8.19962 40.4925C8.20669 40.4873 8.21262 40.4806 8.21702 40.473C8.22142 40.4654 8.22421 40.457 8.22521 40.4483L8.30896 40.0121C8.31302 39.9933 8.31302 39.9739 8.30896 39.9551C8.3016 39.933 8.28833 39.9132 8.27058 39.8981C7.9065 39.527 7.40518 39.3165 7.03529 38.9536C6.94369 38.8493 6.84025 38.756 6.72705 38.6756C6.70919 38.6628 6.68837 38.6548 6.66656 38.6523C6.64166 38.6531 6.61732 38.6599 6.59561 38.6721C6.38256 38.7662 6.18646 38.8947 6.01519 39.0525C5.96033 39.1304 5.91867 39.2169 5.89189 39.3084C5.87793 39.3537 5.78255 39.6131 5.73486 39.6178Z" fill="url(#paint37_linear)"/>
<path d="M6.624 39.0654L8.19777 40.4624L6.90083 40.8811L5.72021 39.5935L6.624 39.0654Z" fill="#6E71FF"/>
<path d="M9.23062 42.8695C9.25561 42.8956 9.28684 42.9148 9.32134 42.9253C9.37933 42.9325 9.43788 42.9175 9.48535 42.8835C9.82288 42.6894 10.0817 42.3832 10.217 42.0181C10.2239 42.0019 10.2271 41.9844 10.2263 41.9669C10.2208 41.9464 10.209 41.9281 10.1926 41.9145C10.0922 41.8482 9.98682 41.7899 9.87734 41.7401C9.76957 41.6579 9.67333 41.5617 9.5912 41.4539C9.50793 41.3456 9.38724 41.2722 9.25272 41.248C9.13012 41.2483 9.01213 41.2948 8.92238 41.3783C8.79301 41.4781 8.70351 41.6209 8.66997 41.7808C8.60367 42.146 8.97123 42.6311 9.23062 42.8695Z" fill="#6E71FF"/>
<path d="M9.23062 42.8695C9.25561 42.8956 9.28684 42.9148 9.32134 42.9253C9.37933 42.9325 9.43788 42.9175 9.48535 42.8835C9.82288 42.6894 10.0817 42.3832 10.217 42.0181C10.2239 42.0019 10.2271 41.9844 10.2263 41.9669C10.2208 41.9464 10.209 41.9281 10.1926 41.9145C10.0922 41.8482 9.98682 41.7899 9.87734 41.7401C9.76957 41.6579 9.67333 41.5617 9.5912 41.4539C9.50793 41.3456 9.38724 41.2722 9.25272 41.248C9.13012 41.2483 9.01213 41.2948 8.92238 41.3783C8.79301 41.4781 8.70351 41.6209 8.66997 41.7808C8.60367 42.146 8.97123 42.6311 9.23062 42.8695Z" fill="url(#paint38_linear)"/>
<path d="M8.32634 42.5671C8.32411 42.5753 8.32363 42.5839 8.32494 42.5923C8.32624 42.6007 8.32929 42.6087 8.3339 42.6158C8.33851 42.623 8.34457 42.6291 8.35168 42.6337C8.3588 42.6383 8.36681 42.6414 8.37519 42.6428C8.62527 42.7451 8.87768 42.8382 9.13474 42.9219C9.16515 42.9349 9.19865 42.939 9.23129 42.9335C9.25825 42.9244 9.28259 42.9088 9.30224 42.8882C9.54697 42.662 9.76476 42.4083 9.95129 42.1321C9.62327 41.9902 9.39529 41.6878 9.1045 41.4807C8.57409 41.1015 8.35658 42.2589 8.32634 42.5671Z" fill="#6E71FF"/>
<path d="M9.43309 40.3684C9.41986 40.3654 9.40825 40.3575 9.40052 40.3463C9.39644 40.3343 9.39644 40.3212 9.40052 40.3091C9.44937 40.0904 9.37028 39.9706 9.41913 39.7508C9.46551 39.6952 9.51865 39.6455 9.57732 39.6031C9.5905 39.5985 9.60485 39.5985 9.61803 39.6031C9.72666 39.6453 9.82946 39.7012 9.92395 39.7694L10.2194 39.9671L10.1694 40.2986C10.1589 40.3626 10.1449 40.4743 10.0868 40.5138C10.0286 40.5534 9.94488 40.6755 9.8937 40.6639C9.72621 40.6278 9.59593 40.4278 9.43309 40.3684Z" fill="#6E71FF"/>
<path d="M9.43309 40.3684C9.41986 40.3654 9.40825 40.3575 9.40052 40.3463C9.39644 40.3343 9.39644 40.3212 9.40052 40.3091C9.44937 40.0904 9.37028 39.9706 9.41913 39.7508C9.46551 39.6952 9.51865 39.6455 9.57732 39.6031C9.5905 39.5985 9.60485 39.5985 9.61803 39.6031C9.72666 39.6453 9.82946 39.7012 9.92395 39.7694L10.2194 39.9671L10.1694 40.2986C10.1589 40.3626 10.1449 40.4743 10.0868 40.5138C10.0286 40.5534 9.94488 40.6755 9.8937 40.6639C9.72621 40.6278 9.59593 40.4278 9.43309 40.3684Z" fill="url(#paint39_linear)"/>
<path d="M9.27177 40.5155C9.25888 40.5123 9.24765 40.5044 9.24036 40.4934C9.23629 40.4813 9.23629 40.4682 9.24036 40.4561L9.38809 39.8001C9.38809 39.7803 9.39855 39.7582 9.41833 39.7501C9.4312 39.7461 9.445 39.7461 9.45788 39.7501C9.56662 39.7921 9.66945 39.848 9.76379 39.9164L10.0604 40.1142L10.0104 40.448C10.0011 40.512 9.98712 40.6236 9.9278 40.6632C9.86847 40.7027 9.82078 40.6632 9.7696 40.6504C9.60113 40.6153 9.43489 40.5703 9.27177 40.5155Z" fill="#6E71FF"/>
<path d="M24.3315 28.0254C24.4932 28.4278 24.4618 28.8803 24.3839 29.3049C24.3059 29.7294 24.1873 30.154 24.1826 30.5844C24.1815 30.5928 24.1822 30.6015 24.1846 30.6097C24.187 30.6179 24.1911 30.6255 24.1966 30.6321C24.211 30.6415 24.2286 30.6448 24.2455 30.6414L24.6875 30.5972C24.7068 30.5962 24.7258 30.5915 24.7433 30.5832C24.7625 30.5696 24.7778 30.5511 24.7875 30.5297C25.0387 30.0749 25.0969 29.5352 25.34 29.0757C25.4132 28.958 25.4729 28.8323 25.518 28.7012C25.5238 28.6799 25.5238 28.6574 25.518 28.6361C25.5102 28.6125 25.4966 28.5913 25.4784 28.5744C25.3267 28.3981 25.1467 28.2483 24.9457 28.1312C24.8549 28.1013 24.7598 28.0864 24.6642 28.087C24.6258 28.087 24.3478 28.0661 24.3315 28.0254Z" fill="#6E71FF"/>
<path d="M24.3315 28.0254C24.4932 28.4278 24.4618 28.8803 24.3839 29.3049C24.3059 29.7294 24.1873 30.154 24.1826 30.5844C24.1815 30.5928 24.1822 30.6015 24.1846 30.6097C24.187 30.6179 24.1911 30.6255 24.1966 30.6321C24.211 30.6415 24.2286 30.6448 24.2455 30.6414L24.6875 30.5972C24.7068 30.5962 24.7258 30.5915 24.7433 30.5832C24.7625 30.5696 24.7778 30.5511 24.7875 30.5297C25.0387 30.0749 25.0969 29.5352 25.34 29.0757C25.4132 28.958 25.4729 28.8323 25.518 28.7012C25.5238 28.6799 25.5238 28.6574 25.518 28.6361C25.5102 28.6125 25.4966 28.5913 25.4784 28.5744C25.3267 28.3981 25.1467 28.2483 24.9457 28.1312C24.8549 28.1013 24.7598 28.0864 24.6642 28.087C24.6258 28.087 24.3478 28.0661 24.3315 28.0254Z" fill="url(#paint40_linear)"/>
<path d="M25.1136 28.7212L24.2238 30.6288L23.4526 29.5052L24.3494 28.0059L25.1136 28.7212Z" fill="#6E71FF"/>
<path d="M22.2144 32.3059C22.1962 32.3373 22.1866 32.373 22.1865 32.4094C22.196 32.4669 22.2267 32.5188 22.2726 32.5548C22.5557 32.8219 22.9229 32.9823 23.3113 33.0084C23.3286 33.0101 23.346 33.0081 23.3625 33.0026C23.381 32.9917 23.3953 32.9749 23.4032 32.9549C23.4382 32.8408 23.4638 32.7241 23.48 32.6059C23.5285 32.4794 23.5935 32.3597 23.6731 32.25C23.7538 32.1398 23.79 32.0031 23.7743 31.8673C23.7403 31.7483 23.6626 31.6465 23.5567 31.5824C23.4245 31.4867 23.2623 31.4417 23.0996 31.4556C22.7274 31.4986 22.368 31.9895 22.2144 32.3059Z" fill="#6E71FF"/>
<path d="M22.2144 32.3059C22.1962 32.3373 22.1866 32.373 22.1865 32.4094C22.196 32.4669 22.2267 32.5188 22.2726 32.5548C22.5557 32.8219 22.9229 32.9823 23.3113 33.0084C23.3286 33.0101 23.346 33.0081 23.3625 33.0026C23.381 32.9917 23.3953 32.9749 23.4032 32.9549C23.4382 32.8408 23.4638 32.7241 23.48 32.6059C23.5285 32.4794 23.5935 32.3597 23.6731 32.25C23.7538 32.1398 23.79 32.0031 23.7743 31.8673C23.7403 31.7483 23.6626 31.6465 23.5567 31.5824C23.4245 31.4867 23.2623 31.4417 23.0996 31.4556C22.7274 31.4986 22.368 31.9895 22.2144 32.3059Z" fill="url(#paint41_linear)"/>
<path d="M22.2444 31.3521C22.2305 31.3536 22.2172 31.3588 22.206 31.3672C22.1934 31.3822 22.1864 31.4011 22.1862 31.4207C22.1599 31.6898 22.1428 31.9589 22.135 32.2279C22.1321 32.2606 22.1377 32.2935 22.1513 32.3233C22.1682 32.347 22.1905 32.3661 22.2165 32.3792C22.5029 32.5491 22.8081 32.6849 23.1261 32.7839C23.1679 32.4292 23.3924 32.1256 23.5076 31.7871C23.7193 31.166 22.5491 31.2928 22.2444 31.3521Z" fill="#6E71FF"/>
<path d="M24.6683 31.7853C24.6675 31.7717 24.6721 31.7583 24.6811 31.7481C24.6909 31.74 24.7033 31.7359 24.716 31.7364C24.9393 31.7213 25.0324 31.6108 25.2557 31.5957C25.3229 31.6233 25.3859 31.6601 25.443 31.705C25.4503 31.7168 25.4532 31.7309 25.4511 31.7446C25.4421 31.8609 25.4179 31.9754 25.379 32.0854L25.2755 32.425L24.9428 32.4716C24.8788 32.4809 24.7683 32.4995 24.7102 32.4541C24.652 32.4088 24.5147 32.3646 24.5113 32.3122C24.5089 32.1401 24.6578 31.9574 24.6683 31.7853Z" fill="#6E71FF"/>
<path d="M24.6683 31.7853C24.6675 31.7717 24.6721 31.7583 24.6811 31.7481C24.6909 31.74 24.7033 31.7359 24.716 31.7364C24.9393 31.7213 25.0324 31.6108 25.2557 31.5957C25.3229 31.6233 25.3859 31.6601 25.443 31.705C25.4503 31.7168 25.4532 31.7309 25.4511 31.7446C25.4421 31.8609 25.4179 31.9754 25.379 32.0854L25.2755 32.425L24.9428 32.4716C24.8788 32.4809 24.7683 32.4995 24.7102 32.4541C24.652 32.4088 24.5147 32.3646 24.5113 32.3122C24.5089 32.1401 24.6578 31.9574 24.6683 31.7853Z" fill="url(#paint42_linear)"/>
<path d="M24.4814 31.6743C24.4808 31.6607 24.4854 31.6474 24.4942 31.6371C24.5045 31.63 24.5167 31.6263 24.5291 31.6266L25.2003 31.5801C25.22 31.5801 25.2445 31.5801 25.2561 31.5952C25.2634 31.6066 25.2663 31.6202 25.2642 31.6336C25.2554 31.7499 25.2311 31.8645 25.1921 31.9744L25.0886 32.3152L24.7559 32.3606C24.692 32.3699 24.5815 32.3885 24.5233 32.3431C24.4651 32.2978 24.4942 32.2408 24.4907 32.1884C24.4772 32.0174 24.4741 31.8457 24.4814 31.6743Z" fill="#6E71FF"/>
<path d="M44.3472 33.6444C44.781 33.6328 45.194 33.8212 45.5673 34.0422C45.9407 34.2632 46.2943 34.5238 46.6991 34.6785C46.7067 34.6821 46.7151 34.684 46.7235 34.684C46.732 34.684 46.7403 34.6821 46.7479 34.6785C46.7551 34.6736 46.7612 34.6673 46.7656 34.6598C46.77 34.6524 46.7727 34.6441 46.7735 34.6354L46.8899 34.2062C46.8967 34.1876 46.8991 34.1677 46.8968 34.1481C46.8906 34.1256 46.8785 34.1051 46.8619 34.0887C46.5235 33.6944 46.0372 33.4513 45.6918 33.064C45.6076 32.9542 45.5112 32.8543 45.4045 32.7662C45.387 32.7527 45.3667 32.7432 45.3452 32.7383C45.3202 32.738 45.2955 32.7436 45.2731 32.7546C45.0542 32.8358 44.8508 32.9538 44.6717 33.1035C44.6116 33.1773 44.5644 33.2607 44.5321 33.3501C44.5077 33.3908 44.3914 33.6432 44.3472 33.6444Z" fill="#6E71FF"/>
<path d="M44.3472 33.6444C44.781 33.6328 45.194 33.8212 45.5673 34.0422C45.9407 34.2632 46.2943 34.5238 46.6991 34.6785C46.7067 34.6821 46.7151 34.684 46.7235 34.684C46.732 34.684 46.7403 34.6821 46.7479 34.6785C46.7551 34.6736 46.7612 34.6673 46.7656 34.6598C46.77 34.6524 46.7727 34.6441 46.7735 34.6354L46.8899 34.2062C46.8967 34.1876 46.8991 34.1677 46.8968 34.1481C46.8906 34.1256 46.8785 34.1051 46.8619 34.0887C46.5235 33.6944 46.0372 33.4513 45.6918 33.064C45.6076 32.9542 45.5112 32.8543 45.4045 32.7662C45.387 32.7527 45.3667 32.7432 45.3452 32.7383C45.3202 32.738 45.2955 32.7436 45.2731 32.7546C45.0542 32.8358 44.8508 32.9538 44.6717 33.1035C44.6116 33.1773 44.5644 33.2607 44.5321 33.3501C44.5077 33.3908 44.3914 33.6432 44.3472 33.6444Z" fill="url(#paint43_linear)"/>
<path d="M45.2718 33.1523L46.749 34.6528L45.4277 34.9832L44.3354 33.6199L45.2718 33.1523Z" fill="#6E71FF"/>
<path d="M47.6194 37.1227C47.6426 37.1508 47.6727 37.1724 47.7067 37.1855C47.764 37.1966 47.8233 37.1858 47.873 37.1552C48.2223 36.9837 48.5008 36.6958 48.6605 36.341C48.6684 36.3255 48.6728 36.3084 48.6733 36.291C48.6691 36.2701 48.6586 36.251 48.643 36.2363C48.5473 36.1634 48.4458 36.0985 48.3395 36.0421C48.2375 35.9527 48.1483 35.8497 48.0742 35.7362C47.9989 35.6209 47.8831 35.5379 47.7497 35.5035C47.6266 35.4936 47.5042 35.531 47.4077 35.6082C47.2716 35.6984 47.1725 35.8347 47.1286 35.9921C47.0425 36.3596 47.3763 36.8691 47.6194 37.1227Z" fill="#6E71FF"/>
<path d="M47.6194 37.1227C47.6426 37.1508 47.6727 37.1724 47.7067 37.1855C47.764 37.1966 47.8233 37.1858 47.873 37.1552C48.2223 36.9837 48.5008 36.6958 48.6605 36.341C48.6684 36.3255 48.6728 36.3084 48.6733 36.291C48.6691 36.2701 48.6586 36.251 48.643 36.2363C48.5473 36.1634 48.4458 36.0985 48.3395 36.0421C48.2375 35.9527 48.1483 35.8497 48.0742 35.7362C47.9989 35.6209 47.8831 35.5379 47.7497 35.5035C47.6266 35.4936 47.5042 35.531 47.4077 35.6082C47.2716 35.6984 47.1725 35.8347 47.1286 35.9921C47.0425 36.3596 47.3763 36.8691 47.6194 37.1227Z" fill="url(#paint44_linear)"/>
<path d="M46.7365 36.7611C46.7324 36.7748 46.7324 36.7894 46.7365 36.803C46.7458 36.8203 46.7611 36.8335 46.7795 36.8402C47.0214 36.9566 47.268 37.0729 47.5181 37.1694C47.5474 37.1847 47.5806 37.1911 47.6135 37.188C47.6412 37.1806 47.6667 37.1666 47.6879 37.1473C47.9468 36.9373 48.181 36.6985 48.3858 36.4355C48.0671 36.2726 47.8601 35.9562 47.5844 35.7306C47.0749 35.3153 46.7876 36.4552 46.7365 36.7611Z" fill="#6E71FF"/>
<path d="M47.9873 34.6403C47.9808 34.6386 47.9747 34.6356 47.9695 34.6314C47.9643 34.6272 47.96 34.6219 47.9571 34.6159C47.9525 34.6043 47.9525 34.5914 47.9571 34.5798C48.021 34.3646 47.9501 34.239 48.0129 34.0238C48.063 33.971 48.1197 33.9248 48.1816 33.8866C48.1951 33.8843 48.2091 33.8868 48.2211 33.8935C48.3271 33.9421 48.4261 34.0047 48.5154 34.0796L48.798 34.296L48.7248 34.624C48.7108 34.6868 48.6899 34.7962 48.6282 34.8322C48.5666 34.8683 48.477 34.9846 48.4258 34.9695C48.2618 34.9194 48.1455 34.7112 47.9873 34.6403Z" fill="#6E71FF"/>
<path d="M47.9873 34.6403C47.9808 34.6386 47.9747 34.6356 47.9695 34.6314C47.9643 34.6272 47.96 34.6219 47.9571 34.6159C47.9525 34.6043 47.9525 34.5914 47.9571 34.5798C48.021 34.3646 47.9501 34.239 48.0129 34.0238C48.063 33.971 48.1197 33.9248 48.1816 33.8866C48.1951 33.8843 48.2091 33.8868 48.2211 33.8935C48.3271 33.9421 48.4261 34.0047 48.5154 34.0796L48.798 34.296L48.7248 34.624C48.7108 34.6868 48.6899 34.7962 48.6282 34.8322C48.5666 34.8683 48.477 34.9846 48.4258 34.9695C48.2618 34.9194 48.1455 34.7112 47.9873 34.6403Z" fill="url(#paint45_linear)"/>
<path d="M47.8189 34.7771C47.8073 34.7713 47.7934 34.7655 47.7887 34.7527C47.7846 34.741 47.7846 34.7283 47.7887 34.7166L47.9783 34.071C47.9783 34.0513 47.9934 34.0292 48.012 34.0234C48.0255 34.0211 48.0393 34.0231 48.0516 34.0292C48.1576 34.0781 48.2566 34.1411 48.3459 34.2164L48.6285 34.4316L48.5552 34.7608C48.5413 34.8236 48.5203 34.933 48.4587 34.969C48.397 35.0051 48.3528 34.9609 48.3017 34.9458C48.1375 34.8992 47.9763 34.8429 47.8189 34.7771Z" fill="#6E71FF"/>
<path d="M30.5399 42.4766C30.5748 42.045 30.8063 41.6542 31.0657 41.3064C31.3251 40.9586 31.6205 40.6341 31.8182 40.2491C31.823 40.242 31.8263 40.234 31.8279 40.2256C31.8295 40.2172 31.8294 40.2086 31.8275 40.2002C31.8233 40.1926 31.8175 40.186 31.8104 40.1807C31.8034 40.1755 31.7954 40.1719 31.7868 40.17L31.3716 40.0118C31.3537 40.0036 31.3343 39.9993 31.3146 39.999C31.2914 40.0029 31.2697 40.0129 31.2518 40.0281C30.8237 40.3224 30.5306 40.7795 30.1084 41.0819C29.9902 41.1547 29.8805 41.2405 29.7815 41.3378C29.7662 41.3536 29.7546 41.3727 29.7478 41.3937C29.7447 41.418 29.7475 41.4427 29.7559 41.4658C29.8134 41.6916 29.9081 41.9062 30.0363 42.1009C30.1038 42.1688 30.1825 42.2246 30.2689 42.266C30.305 42.2916 30.5434 42.4335 30.5399 42.4766Z" fill="#6E71FF"/>
<path d="M30.5399 42.4766C30.5748 42.045 30.8063 41.6542 31.0657 41.3064C31.3251 40.9586 31.6205 40.6341 31.8182 40.2491C31.823 40.242 31.8263 40.234 31.8279 40.2256C31.8295 40.2172 31.8294 40.2086 31.8275 40.2002C31.8233 40.1926 31.8175 40.186 31.8104 40.1807C31.8034 40.1755 31.7954 40.1719 31.7868 40.17L31.3716 40.0118C31.3537 40.0036 31.3343 39.9993 31.3146 39.999C31.2914 40.0029 31.2697 40.0129 31.2518 40.0281C30.8237 40.3224 30.5306 40.7795 30.1084 41.0819C29.9902 41.1547 29.8805 41.2405 29.7815 41.3378C29.7662 41.3536 29.7546 41.3727 29.7478 41.3937C29.7447 41.418 29.7475 41.4427 29.7559 41.4658C29.8134 41.6916 29.9081 41.9062 30.0363 42.1009C30.1038 42.1688 30.1825 42.2246 30.2689 42.266C30.305 42.2916 30.5434 42.4335 30.5399 42.4766Z" fill="url(#paint46_linear)"/>
<path d="M30.1489 41.5041L31.7971 40.1943L31.9856 41.5436L30.5142 42.4858L30.1489 41.5041Z" fill="#6E71FF"/>
<path d="M34.346 39.5935C34.3761 39.5732 34.4006 39.5456 34.417 39.5132C34.434 39.4574 34.4295 39.3972 34.4042 39.3445C34.2711 38.9784 34.0138 38.6706 33.6772 38.4745C33.663 38.4648 33.6466 38.4588 33.6295 38.457C33.608 38.4587 33.5876 38.4673 33.5714 38.4815C33.4902 38.569 33.4159 38.6627 33.3492 38.7618C33.2496 38.8538 33.1381 38.9321 33.0177 38.9944C32.8964 39.0576 32.8031 39.1638 32.756 39.2922C32.7339 39.413 32.7584 39.5377 32.8246 39.6411C32.8994 39.7854 33.0231 39.8984 33.1736 39.9598C33.526 40.0866 34.0669 39.8075 34.346 39.5935Z" fill="#6E71FF"/>
<path d="M34.346 39.5935C34.3761 39.5732 34.4006 39.5456 34.417 39.5132C34.434 39.4574 34.4295 39.3972 34.4042 39.3445C34.2711 38.9784 34.0138 38.6706 33.6772 38.4745C33.663 38.4648 33.6466 38.4588 33.6295 38.457C33.608 38.4587 33.5876 38.4673 33.5714 38.4815C33.4902 38.569 33.4159 38.6627 33.3492 38.7618C33.2496 38.8538 33.1381 38.9321 33.0177 38.9944C32.8964 39.0576 32.8031 39.1638 32.756 39.2922C32.7339 39.413 32.7584 39.5377 32.8246 39.6411C32.8994 39.7854 33.0231 39.8984 33.1736 39.9598C33.526 40.0866 34.0669 39.8075 34.346 39.5935Z" fill="url(#paint47_linear)"/>
<path d="M33.8924 40.4314C33.9061 40.4354 33.9206 40.4354 33.9343 40.4314C33.9521 40.4233 33.9665 40.4094 33.975 40.3918C34.1193 40.1592 34.2542 39.9266 34.381 39.6939C34.3989 39.6661 34.409 39.634 34.41 39.6009C34.406 39.5724 34.3943 39.5455 34.3763 39.5229C34.1958 39.2427 33.9835 38.9844 33.7436 38.7529C33.547 39.0519 33.2108 39.224 32.9572 39.4753C32.4908 39.9394 33.5935 40.3488 33.8924 40.4314Z" fill="#6E71FF"/>
<path d="M31.9164 38.9628C31.9141 38.969 31.9105 38.9747 31.9059 38.9795C31.9013 38.9843 31.8958 38.9881 31.8897 38.9907C31.8774 38.9929 31.8647 38.9908 31.8536 38.9849C31.6466 38.8988 31.514 38.957 31.3069 38.8686C31.2604 38.813 31.2213 38.7516 31.1906 38.686C31.1895 38.6723 31.1932 38.6588 31.2011 38.6476C31.2605 38.5474 31.3333 38.4559 31.4174 38.3754L31.6629 38.1172L31.9804 38.2242C32.0421 38.2451 32.1491 38.2777 32.1782 38.3405C32.2072 38.4033 32.3131 38.5068 32.2945 38.5557C32.2235 38.7185 32.0037 38.8128 31.9164 38.9628Z" fill="#6E71FF"/>
<path d="M31.9164 38.9628C31.9141 38.969 31.9105 38.9747 31.9059 38.9795C31.9013 38.9843 31.8958 38.9881 31.8897 38.9907C31.8774 38.9929 31.8647 38.9908 31.8536 38.9849C31.6466 38.8988 31.514 38.957 31.3069 38.8686C31.2604 38.813 31.2213 38.7516 31.1906 38.686C31.1895 38.6723 31.1932 38.6588 31.2011 38.6476C31.2605 38.5474 31.3333 38.4559 31.4174 38.3754L31.6629 38.1172L31.9804 38.2242C32.0421 38.2451 32.1491 38.2777 32.1782 38.3405C32.2072 38.4033 32.3131 38.5068 32.2945 38.5557C32.2235 38.7185 32.0037 38.8128 31.9164 38.9628Z" fill="url(#paint48_linear)"/>
<path d="M32.0352 39.1452C32.0293 39.1575 32.0195 39.1673 32.0072 39.1732C31.9949 39.1752 31.9822 39.1732 31.9712 39.1673L31.3501 38.9091C31.3314 38.901 31.3105 38.8905 31.307 38.8707C31.3055 38.8569 31.3088 38.8429 31.3163 38.8312C31.3768 38.7315 31.4499 38.64 31.5338 38.559L31.7781 38.3008L32.0968 38.4078C32.1585 38.4287 32.2655 38.4613 32.2945 38.5241C32.3236 38.5869 32.2748 38.6288 32.2538 38.6776C32.191 38.838 32.118 38.9942 32.0352 39.1452Z" fill="#6E71FF"/>
<defs>
<linearGradient id="paint0_linear" x1="103.837" y1="27.4546" x2="0.949914" y2="13.9818" gradientUnits="userSpaceOnUse">
<stop offset="0.079127"/>
<stop offset="0.83" stop-opacity="0.07"/>
<stop offset="1" stop-opacity="0"/>
</linearGradient>
<linearGradient id="paint1_linear" x1="303.518" y1="748.297" x2="314.54" y2="756.512" gradientUnits="userSpaceOnUse">
<stop offset="0.01"/>
<stop offset="0.13" stop-opacity="0.69"/>
<stop offset="1" stop-opacity="0"/>
</linearGradient>
<linearGradient id="paint2_linear" x1="74.2668" y1="23.8661" x2="-3.20874" y2="20.8955" gradientUnits="userSpaceOnUse">
<stop stop-opacity="0"/>
<stop offset="0.639117" stop-opacity="0.75"/>
<stop offset="1"/>
</linearGradient>
<linearGradient id="paint3_linear" x1="68.2137" y1="30.579" x2="-9.17637" y2="26.2508" gradientUnits="userSpaceOnUse">
<stop stop-opacity="0"/>
<stop offset="0.639117" stop-opacity="0.75"/>
<stop offset="1"/>
</linearGradient>
<linearGradient id="paint4_linear" x1="66.4302" y1="32.5696" x2="-7.5585" y2="28.4324" gradientUnits="userSpaceOnUse">
<stop stop-opacity="0"/>
<stop offset="0.639117" stop-opacity="0.75"/>
<stop offset="1"/>
</linearGradient>
<linearGradient id="paint5_linear" x1="56.5335" y1="33.8672" x2="0.982526" y2="30.432" gradientUnits="userSpaceOnUse">
<stop stop-opacity="0"/>
<stop offset="0.639117" stop-opacity="0.75"/>
<stop offset="1"/>
</linearGradient>
<linearGradient id="paint6_linear" x1="66.6667" y1="34.1331" x2="-10.6214" y2="29.8434" gradientUnits="userSpaceOnUse">
<stop stop-opacity="0"/>
<stop offset="0.639117" stop-opacity="0.75"/>
<stop offset="1"/>
</linearGradient>
<linearGradient id="paint7_linear" x1="14.0021" y1="39.3803" x2="24.018" y2="39.3803" gradientUnits="userSpaceOnUse">
<stop stop-color="white" stop-opacity="0"/>
<stop offset="0.95" stop-color="white"/>
</linearGradient>
<linearGradient id="paint8_linear" x1="14.8307" y1="35.7112" x2="25.3153" y2="35.7112" gradientUnits="userSpaceOnUse">
<stop stop-color="white" stop-opacity="0"/>
<stop offset="0.95" stop-color="white"/>
</linearGradient>
<linearGradient id="paint9_linear" x1="17.5299" y1="30.9962" x2="26.4315" y2="30.9962" gradientUnits="userSpaceOnUse">
<stop stop-color="white" stop-opacity="0"/>
<stop offset="0.95" stop-color="white"/>
</linearGradient>
<linearGradient id="paint10_linear" x1="28.3618" y1="27.7522" x2="31.1057" y2="27.7522" gradientUnits="userSpaceOnUse">
<stop stop-color="white" stop-opacity="0"/>
<stop offset="0.95" stop-color="white"/>
</linearGradient>
<linearGradient id="paint11_linear" x1="35.5908" y1="27.4021" x2="37.7659" y2="27.4021" gradientUnits="userSpaceOnUse">
<stop stop-color="white" stop-opacity="0"/>
<stop offset="0.95" stop-color="white"/>
</linearGradient>
<linearGradient id="paint12_linear" x1="38.4479" y1="31.6273" x2="48.6045" y2="31.6273" gradientUnits="userSpaceOnUse">
<stop stop-color="white" stop-opacity="0"/>
<stop offset="0.95" stop-color="white"/>
</linearGradient>
<linearGradient id="paint13_linear" x1="38.258" y1="38.922" x2="51.041" y2="38.922" gradientUnits="userSpaceOnUse">
<stop stop-color="white" stop-opacity="0"/>
<stop offset="0.95" stop-color="white"/>
</linearGradient>
<linearGradient id="paint14_linear" x1="54.7999" y1="41.6001" x2="8.86379" y2="37.2255" gradientUnits="userSpaceOnUse">
<stop stop-opacity="0"/>
<stop offset="0.639117" stop-opacity="0.75"/>
<stop offset="1"/>
</linearGradient>
<linearGradient id="paint15_linear" x1="52.9337" y1="42.2664" x2="13.0638" y2="39.8758" gradientUnits="userSpaceOnUse">
<stop stop-opacity="0"/>
<stop offset="0.639117" stop-opacity="0.75"/>
<stop offset="1"/>
</linearGradient>
<linearGradient id="paint16_linear" x1="13.3663" y1="49.5718" x2="23.3811" y2="49.5718" gradientUnits="userSpaceOnUse">
<stop stop-color="white" stop-opacity="0"/>
<stop offset="0.95" stop-color="white"/>
</linearGradient>
<linearGradient id="paint17_linear" x1="14.194" y1="45.9026" x2="24.6774" y2="45.9026" gradientUnits="userSpaceOnUse">
<stop stop-color="white" stop-opacity="0"/>
<stop offset="0.95" stop-color="white"/>
</linearGradient>
<linearGradient id="paint18_linear" x1="16.8941" y1="41.1882" x2="25.7946" y2="41.1882" gradientUnits="userSpaceOnUse">
<stop stop-color="white" stop-opacity="0"/>
<stop offset="0.95" stop-color="white"/>
</linearGradient>
<linearGradient id="paint19_linear" x1="27.7242" y1="37.945" x2="30.468" y2="37.945" gradientUnits="userSpaceOnUse">
<stop stop-color="white" stop-opacity="0"/>
<stop offset="0.95" stop-color="white"/>
</linearGradient>
<linearGradient id="paint20_linear" x1="34.9531" y1="37.5955" x2="37.1282" y2="37.5955" gradientUnits="userSpaceOnUse">
<stop stop-color="white" stop-opacity="0"/>
<stop offset="0.95" stop-color="white"/>
</linearGradient>
<linearGradient id="paint21_linear" x1="37.8097" y1="41.8206" x2="47.9663" y2="41.8206" gradientUnits="userSpaceOnUse">
<stop stop-color="white" stop-opacity="0"/>
<stop offset="0.95" stop-color="white"/>
</linearGradient>
<linearGradient id="paint22_linear" x1="37.6207" y1="49.114" x2="50.4038" y2="49.114" gradientUnits="userSpaceOnUse">
<stop stop-color="white" stop-opacity="0"/>
<stop offset="0.95" stop-color="white"/>
</linearGradient>
<linearGradient id="paint23_linear" x1="44.0005" y1="46.5331" x2="18.6301" y2="44.949" gradientUnits="userSpaceOnUse">
<stop stop-opacity="0"/>
<stop offset="0.639117" stop-opacity="0.75"/>
<stop offset="1"/>
</linearGradient>
<linearGradient id="paint24_linear" x1="40.1329" y1="48.0004" x2="21.0714" y2="47.0306" gradientUnits="userSpaceOnUse">
<stop stop-opacity="0"/>
<stop offset="0.639117" stop-opacity="0.75"/>
<stop offset="1"/>
</linearGradient>
<linearGradient id="paint25_linear" x1="2201.49" y1="604.7" x2="2347.93" y2="801.721" gradientUnits="userSpaceOnUse">
<stop offset="0.01"/>
<stop offset="0.13" stop-opacity="0.69"/>
<stop offset="1" stop-opacity="0"/>
</linearGradient>
<linearGradient id="paint26_linear" x1="1215.98" y1="483.965" x2="1319.66" y2="571.804" gradientUnits="userSpaceOnUse">
<stop offset="0.01"/>
<stop offset="0.13" stop-opacity="0.69"/>
<stop offset="1" stop-opacity="0"/>
</linearGradient>
<linearGradient id="paint27_linear" x1="910.349" y1="362.25" x2="910.476" y2="414.105" gradientUnits="userSpaceOnUse">
<stop offset="0.01"/>
<stop offset="0.13" stop-opacity="0.69"/>
<stop offset="1" stop-opacity="0"/>
</linearGradient>
<linearGradient id="paint28_linear" x1="-23503.7" y1="5710.94" x2="-23713.4" y2="5551.83" gradientUnits="userSpaceOnUse">
<stop offset="0.01"/>
<stop offset="0.13" stop-opacity="0.69"/>
<stop offset="1" stop-opacity="0"/>
</linearGradient>
<linearGradient id="paint29_linear" x1="-15716.3" y1="3795.25" x2="-15838.8" y2="3724.81" gradientUnits="userSpaceOnUse">
<stop offset="0.01"/>
<stop offset="0.13" stop-opacity="0.69"/>
<stop offset="1" stop-opacity="0"/>
</linearGradient>
<linearGradient id="paint30_linear" x1="-10563.5" y1="2455.37" x2="-10573.3" y2="2403.15" gradientUnits="userSpaceOnUse">
<stop offset="0.01"/>
<stop offset="0.13" stop-opacity="0.69"/>
<stop offset="1" stop-opacity="0"/>
</linearGradient>
<linearGradient id="paint31_linear" x1="-30.2722" y1="6241.42" x2="-54.7066" y2="6327.36" gradientUnits="userSpaceOnUse">
<stop offset="0.01"/>
<stop offset="0.13" stop-opacity="0.69"/>
<stop offset="1" stop-opacity="0"/>
</linearGradient>
<linearGradient id="paint32_linear" x1="-950.351" y1="4373.02" x2="-948.015" y2="4424.9" gradientUnits="userSpaceOnUse">
<stop offset="0.01"/>
<stop offset="0.13" stop-opacity="0.69"/>
<stop offset="1" stop-opacity="0"/>
</linearGradient>
<linearGradient id="paint33_linear" x1="-773.187" y1="2480.98" x2="-790.848" y2="2494.65" gradientUnits="userSpaceOnUse">
<stop offset="0.01"/>
<stop offset="0.13" stop-opacity="0.69"/>
<stop offset="1" stop-opacity="0"/>
</linearGradient>
<linearGradient id="paint34_linear" x1="-4881.11" y1="-3402.56" x2="-4842.95" y2="-3440.01" gradientUnits="userSpaceOnUse">
<stop offset="0.01"/>
<stop offset="0.13" stop-opacity="0.69"/>
<stop offset="1" stop-opacity="0"/>
</linearGradient>
<linearGradient id="paint35_linear" x1="-2454.19" y1="-2657.65" x2="-2424.66" y2="-2678.96" gradientUnits="userSpaceOnUse">
<stop offset="0.01"/>
<stop offset="0.13" stop-opacity="0.69"/>
<stop offset="1" stop-opacity="0"/>
</linearGradient>
<linearGradient id="paint36_linear" x1="-1541.29" y1="-1476.32" x2="-1526.31" y2="-1471.21" gradientUnits="userSpaceOnUse">
<stop offset="0.01"/>
<stop offset="0.13" stop-opacity="0.69"/>
<stop offset="1" stop-opacity="0"/>
</linearGradient>
<linearGradient id="paint37_linear" x1="-8792.58" y1="-4337.87" x2="-8774.53" y2="-4403.5" gradientUnits="userSpaceOnUse">
<stop offset="0.01"/>
<stop offset="0.13" stop-opacity="0.69"/>
<stop offset="1" stop-opacity="0"/>
</linearGradient>
<linearGradient id="paint38_linear" x1="-6162.75" y1="-1694.38" x2="-6165.22" y2="-1734.19" gradientUnits="userSpaceOnUse">
<stop offset="0.01"/>
<stop offset="0.13" stop-opacity="0.69"/>
<stop offset="1" stop-opacity="0"/>
</linearGradient>
<linearGradient id="paint39_linear" x1="-3337.54" y1="-559.413" x2="-3324.24" y2="-570.072" gradientUnits="userSpaceOnUse">
<stop offset="0.01"/>
<stop offset="0.13" stop-opacity="0.69"/>
<stop offset="1" stop-opacity="0"/>
</linearGradient>
<linearGradient id="paint40_linear" x1="-2908.63" y1="-3053.2" x2="-2861.26" y2="-3078.79" gradientUnits="userSpaceOnUse">
<stop offset="0.01"/>
<stop offset="0.13" stop-opacity="0.69"/>
<stop offset="1" stop-opacity="0"/>
</linearGradient>
<linearGradient id="paint41_linear" x1="-1370.1" y1="-2122.16" x2="-1332.51" y2="-2134.03" gradientUnits="userSpaceOnUse">
<stop offset="0.01"/>
<stop offset="0.13" stop-opacity="0.69"/>
<stop offset="1" stop-opacity="0"/>
</linearGradient>
<linearGradient id="paint42_linear" x1="-669.481" y1="-1147.6" x2="-657.775" y2="-1139.46" gradientUnits="userSpaceOnUse">
<stop offset="0.01"/>
<stop offset="0.13" stop-opacity="0.69"/>
<stop offset="1" stop-opacity="0"/>
</linearGradient>
<linearGradient id="paint43_linear" x1="-8040.58" y1="-4759.92" x2="-8019.38" y2="-4827.03" gradientUnits="userSpaceOnUse">
<stop offset="0.01"/>
<stop offset="0.13" stop-opacity="0.69"/>
<stop offset="1" stop-opacity="0"/>
</linearGradient>
<linearGradient id="paint44_linear" x1="-5581.34" y1="-2198.8" x2="-5581.27" y2="-2238.79" gradientUnits="userSpaceOnUse">
<stop offset="0.01"/>
<stop offset="0.13" stop-opacity="0.69"/>
<stop offset="1" stop-opacity="0"/>
</linearGradient>
<linearGradient id="paint45_linear" x1="-3101.83" y1="-928.206" x2="-3087.53" y2="-938.159" gradientUnits="userSpaceOnUse">
<stop offset="0.01"/>
<stop offset="0.13" stop-opacity="0.69"/>
<stop offset="1" stop-opacity="0"/>
</linearGradient>
<linearGradient id="paint46_linear" x1="-9502.01" y1="3312.62" x2="-9572.92" y2="3298.86" gradientUnits="userSpaceOnUse">
<stop offset="0.01"/>
<stop offset="0.13" stop-opacity="0.69"/>
<stop offset="1" stop-opacity="0"/>
</linearGradient>
<linearGradient id="paint47_linear" x1="-7366.18" y1="2887.42" x2="-7405.97" y2="2879.79" gradientUnits="userSpaceOnUse">
<stop offset="0.01"/>
<stop offset="0.13" stop-opacity="0.69"/>
<stop offset="1" stop-opacity="0"/>
</linearGradient>
<linearGradient id="paint48_linear" x1="-4647.61" y1="1919.3" x2="-4654.35" y2="1906.97" gradientUnits="userSpaceOnUse">
<stop offset="0.01"/>
<stop offset="0.13" stop-opacity="0.69"/>
<stop offset="1" stop-opacity="0"/>
</linearGradient>
</defs>
</svg>
