<svg width="928" height="528" viewBox="0 0 928 528" fill="none" xmlns="http://www.w3.org/2000/svg">
<rect x="704" y="224" width="24" height="24" rx="4" fill="#E5E5FB"/>
<rect x="704" y="312" width="24" height="24" rx="4" fill="#E5E5FB"/>
<rect x="704" y="136" width="24" height="24" rx="4" fill="#E5E5FB"/>
<rect x="704" y="48" width="24" height="24" rx="4" fill="#E5E5FB"/>
<rect x="752" y="48" width="96" height="16" rx="4" fill="#E5E5FB"/>
<rect x="752" y="136" width="96" height="16" rx="4" fill="#E5E5FB"/>
<rect x="752" y="224" width="96" height="16" rx="4" fill="#E5E5FB"/>
<rect x="752" y="312" width="96" height="16" rx="4" fill="#E5E5FB"/>
<rect x="752" y="72" width="160" height="24" rx="4" fill="#E5E5FB"/>
<rect x="752" y="160" width="160" height="24" rx="4" fill="#E5E5FB"/>
<rect x="752" y="248" width="160" height="24" rx="4" fill="#E5E5FB"/>
<rect x="752" y="336" width="160" height="24" rx="4" fill="#E5E5FB"/>
<rect width="224" height="24" rx="4" fill="#E5E5FB"/>
<rect x="704" width="224" height="24" rx="4" fill="#E5E5FB"/>
<rect y="32" width="496" height="24" rx="4" fill="#E5E5FB"/>
<rect y="104" width="80" height="80" rx="4" fill="#E5E5FB"/>
<rect x="104" y="104" width="304" height="32" rx="4" fill="#E5E5FB"/>
<rect x="104" y="152" width="392" height="16" rx="4" fill="#E5E5FB"/>
<rect y="232" width="496" height="56" rx="4" fill="#E5E5FB"/>
<rect y="312" width="496" height="56" rx="4" fill="#E5E5FB"/>
<rect y="392" width="496" height="56" rx="4" fill="#E5E5FB"/>
<rect y="472" width="496" height="56" rx="4" fill="#E5E5FB"/>
</svg>
