<svg width="80" height="80" viewBox="0 0 80 80" fill="none" xmlns="http://www.w3.org/2000/svg">
<g clip-path="url(#clip0)">
<path opacity="0.24" d="M6.14766 68.2224C7.08212 68.9661 8.10249 69.5736 9.18266 70.0293C11.0524 70.8159 13.0441 71.168 14.9629 71.7743C15.8147 72.0405 16.6506 72.3634 17.4707 72.7155C22.4372 74.8367 26.9953 78.2014 32.2198 79.4295C41.9011 81.7224 51.2578 76.5096 60.5117 74.2991C68.4403 72.4098 74.884 76.927 78.0852 63.2587C79.423 57.5684 81.079 51.5432 79.0541 46.0831C77.0292 40.6229 74.1779 35.5802 72.2463 30.0926C69.4884 22.2554 68.4672 13.2262 63.04 7.24561C59.2815 3.10458 53.9097 1.10534 48.5886 0.395989C43.2674 -0.313363 37.8798 0.14179 32.5222 0.165836C26.0691 0.188164 19.1948 -0.303058 13.614 3.22137C11.6458 4.48382 9.94935 6.18856 8.63861 8.22109C7.32787 10.2536 6.4332 12.5669 6.01467 15.0055C4.90643 21.7367 7.53772 28.7151 6.35507 35.4342C5.25791 41.6895 0.972183 46.9247 0.134674 53.2315C-0.625267 58.9098 1.89835 64.8663 6.14766 68.2224Z" fill="#6E71FF"/>
<path d="M40.3448 20H40.3384C35.3257 20 31.2473 24.0784 31.2473 29.0911V39.6348H49.4295V29.0911C49.4295 24.0797 45.3549 20.0038 40.3448 20ZM44.5495 34.7549H36.1273V29.0911C36.1273 26.7683 38.0175 24.88 40.3384 24.88H40.3448C42.6631 24.8831 44.5495 26.7702 44.5495 29.0911V34.7549Z" fill="#3E3E54"/>
<path d="M49.4285 29.0911V39.6348H40.3438V34.7549H44.5485V29.0911C44.5485 26.7702 42.6621 24.8831 40.3438 24.88V20C45.3539 20.0038 49.4285 24.0797 49.4285 29.0911Z" fill="url(#paint0_linear)"/>
<path d="M53.2994 37.8097V51.0859C53.2994 55.8826 49.397 59.787 44.6002 59.787H35.3681C30.5694 59.787 26.667 55.8826 26.667 51.0859V37.8097C26.667 36.1392 28.0256 34.7793 29.6961 34.7793H50.271C51.9414 34.7793 53.2994 36.1392 53.2994 37.8097Z" fill="white"/>
<path d="M53.2989 51.0867C53.2989 55.8834 49.397 59.7876 44.6002 59.7876H35.3681C30.5694 59.7876 26.667 55.8833 26.667 51.0865C26.667 49.416 26.667 43.3066 26.667 41.667H53.2989C53.3771 42.6128 53.2989 49.4162 53.2989 51.0867Z" fill="#6E71FF"/>
<path d="M53.2989 51.0867C53.2989 55.8834 49.397 59.7876 44.6002 59.7876H35.3681C30.5694 59.7876 26.667 55.8833 26.667 51.0865C26.667 49.416 26.667 43.3066 26.667 41.667H53.2989C53.3771 42.6128 53.2989 49.4162 53.2989 51.0867Z" fill="url(#paint1_linear)"/>
</g>
<defs>
<linearGradient id="paint0_linear" x1="50.7787" y1="7.60144" x2="38.7908" y2="6.90167" gradientUnits="userSpaceOnUse">
<stop offset="0.079127"/>
<stop offset="0.83" stop-opacity="0.07"/>
<stop offset="1" stop-opacity="0"/>
</linearGradient>
<linearGradient id="paint1_linear" x1="30.8834" y1="39.5517" x2="67.9391" y2="43.2161" gradientUnits="userSpaceOnUse">
<stop stop-opacity="0"/>
<stop offset="0.87783" stop-opacity="0.75"/>
<stop offset="1"/>
</linearGradient>
<clipPath id="clip0">
<path d="M0 0H80V80H0V0Z" fill="white"/>
</clipPath>
</defs>
</svg>
