<svg width="64" height="64" viewBox="0 0 64 64" fill="none" xmlns="http://www.w3.org/2000/svg">
<g clip-path="url(#clip0)">
<path opacity="0.18" d="M59.8968 39.1994C60.264 34.2781 62.1279 29.072 60.2224 24.6225C59.7222 23.4604 59.0051 22.4645 58.2029 21.5384C57.1429 20.317 55.9355 19.2142 54.8801 17.9836C53.0125 15.8036 51.9444 13.1971 50.5055 10.8067C49.9094 9.79765 49.2312 8.87323 48.4824 8.04913C48.1845 7.72607 47.8831 7.40806 47.578 7.09507C45.0764 4.54899 42.261 2.36315 39.0594 1.09418C34.5194 -0.697726 29.1219 -0.410696 25.2882 2.86632C23.908 4.04582 22.7902 5.53907 21.7122 7.09624C20.8421 8.34778 20.0019 9.63302 19.0722 10.8067C18.2411 11.8619 17.3403 12.8287 16.2885 13.6038C14.7908 14.7089 13.067 15.3585 11.478 16.287C10.4586 16.8824 9.48893 17.6093 8.58391 18.4566C7.36917 19.5898 6.28285 20.9344 5.35611 22.4517C3.34654 25.7427 2.20971 29.7112 2.28658 33.7063C2.29834 34.3315 2.33813 34.9602 2.35351 35.5877C2.38359 36.2775 2.35265 36.9695 2.26126 37.6504C2.09304 38.766 1.67973 39.8141 1.25285 40.853C0.671325 42.2673 0.0626642 43.6664 0.00478267 45.2038C-0.09651 47.8463 1.4265 50.11 3.11592 52.0449C3.39809 52.3679 3.68569 52.6828 3.96967 52.9885C4.42187 53.4765 4.88763 53.9646 5.35702 54.4469L5.44745 54.5398C5.69888 54.7966 5.95121 55.0523 6.20715 55.3056C6.84927 55.9413 7.50677 56.5606 8.18055 57.151C8.48201 57.4136 8.78348 57.6689 9.08495 57.9168C9.78702 58.4958 10.5115 59.0287 11.2555 59.5134C13.0923 60.7127 15.054 61.5889 17.1648 61.9375C22.9467 62.8672 28.6977 59.5634 34.5293 60.0004C38.3558 60.2862 41.9246 62.1618 45.6326 63.2541C49.3406 64.3465 53.6465 64.5208 56.6364 61.8213C59.3921 59.338 60.2956 55.0476 60.3029 51.0804C60.3101 47.1131 59.6001 43.1539 59.8968 39.1994Z" fill="#6E71FF"/>
<path opacity="0.19" d="M13.613 52.1781C13.7271 52.4787 13.4917 52.8118 13.2038 52.9549C12.9159 53.0979 12.5828 53.1106 12.2713 53.1912C11.787 53.3161 11.3606 53.6004 10.8916 53.7751C10.248 54.015 9.54725 54.0413 8.86012 54.0648C6.78696 54.1363 4.57438 54.1716 2.81265 53.0762C2.74635 53.0436 2.69259 52.9902 2.65965 52.9241C2.64113 52.8585 2.64791 52.7884 2.67866 52.7276C2.82442 52.3918 3.24267 52.2895 3.60479 52.2324C5.3104 51.9663 7.05674 51.7255 8.78407 51.6648C9.68214 51.6349 13.2726 51.2728 13.613 52.1781Z" fill="url(#paint0_linear)"/>
<path opacity="0.18" d="M49.2066 52.3119C48.4217 52.4712 47.6821 52.798 46.9497 53.1266L44.012 54.4276C45.6506 55.3093 47.6395 54.9454 49.5009 54.9201C49.6638 54.9201 49.8394 54.9201 49.9689 55.0215C50.15 55.1636 50.1663 55.4325 50.2794 55.6353C50.4922 56.0191 51.0037 56.0961 51.4409 56.125C55.4007 56.383 59.3761 56.2563 63.3114 55.7466C63.4997 55.7222 63.697 55.6932 63.8491 55.58C64.3018 55.2424 63.9831 54.4629 63.4707 54.2221C62.9583 53.9813 62.3563 54.041 61.8122 53.8853C61.2681 53.7296 60.743 53.1538 60.9974 52.6459C58.754 52.6906 56.5107 52.6664 54.2673 52.5735C52.5744 52.5011 50.8968 51.9678 49.2066 52.3119Z" fill="#1D2741"/>
<path d="M55.8221 7.7334H7.93116C7.60291 7.73293 7.27779 7.79711 6.97434 7.92228C6.6709 8.04746 6.39508 8.23117 6.16264 8.46294C5.9302 8.69471 5.74569 8.97 5.61963 9.27308C5.49358 9.57615 5.42845 9.90109 5.42798 10.2293V44.6936H58.3225V10.233C58.3225 9.57004 58.0592 8.93426 57.5904 8.46551C57.1217 7.99675 56.4859 7.7334 55.823 7.7334H55.8221Z" fill="#6E71FF"/>
<path opacity="0.47" d="M15.0126 39.1259C14.922 40.0701 14.0747 40.7636 13.202 41.0606C12.7493 41.2145 12.2686 41.3005 11.8802 41.5811C11.4918 41.8618 11.2374 42.4294 11.4819 42.8485C11.779 42.8472 12.0697 42.9353 12.3161 43.1015C12.5625 43.2676 12.7532 43.5041 12.8634 43.7801C12.3048 44.6302 11.3153 45.0946 10.3285 45.2286C9.34171 45.3626 8.33681 45.2051 7.35908 45.0421C7.01596 44.986 6.65022 44.9172 6.40307 44.6655C6.15592 44.4138 6.08802 44.0481 6.02646 43.7013C6.01831 43.6525 6.00926 43.6036 6.00021 43.5538H5.40723V10.624H8.64824V26.2859C8.64824 27.5633 8.5903 28.8515 8.61022 30.1244C8.63013 31.3357 9.43586 31.9495 10.2036 32.8304C10.4398 33.102 10.6852 33.3899 10.7549 33.7475C10.83 34.1268 10.6942 34.5287 10.7947 34.9008C10.9686 35.5472 11.7824 35.7916 12.4071 35.6088C13.0318 35.4259 13.5324 34.9551 14.071 34.5803C15.0019 33.9347 16.0947 33.5619 17.2261 33.5039C16.8467 35.1127 14.9809 36.1293 14.9374 37.787C14.9239 38.236 15.056 38.6778 15.0126 39.1259Z" fill="url(#paint1_linear)"/>
<path d="M3.12406 40.545C2.30928 39.2277 1.73894 37.7476 1.57689 36.2076C1.4773 35.2688 1.51985 34.2784 1.09617 33.4347C0.844492 32.9331 0.434386 32.5022 0.307643 31.9545C0.0722619 30.9315 0.893378 29.9963 1.6475 29.2657C1.69274 29.2116 1.75335 29.1724 1.82132 29.1535C1.93901 29.1317 2.04493 29.2295 2.11645 29.3264C2.54829 29.9085 2.58269 30.6843 2.69313 31.3968C2.81173 32.1708 3.06522 32.9711 3.65457 33.4881C4.24393 34.005 5.15196 34.2322 5.44256 34.9619C5.70057 35.6119 5.3303 36.3787 5.56297 37.0387C5.79563 37.6987 6.5914 38.0943 6.7109 38.7896C6.79057 39.2513 6.54251 39.7094 6.54976 40.1774C6.55519 40.5341 6.70819 40.87 6.79509 41.2167C6.98159 41.9609 6.79509 44.14 5.66436 43.5026C4.64046 42.9277 3.72519 41.5164 3.12406 40.545Z" fill="#6E71FF"/>
<path d="M3.12406 40.545C2.30928 39.2277 1.73894 37.7476 1.57689 36.2076C1.4773 35.2688 1.51985 34.2784 1.09617 33.4347C0.844492 32.9331 0.434386 32.5022 0.307643 31.9545C0.0722619 30.9315 0.893378 29.9963 1.6475 29.2657C1.69274 29.2116 1.75335 29.1724 1.82132 29.1535C1.93901 29.1317 2.04493 29.2295 2.11645 29.3264C2.54829 29.9085 2.58269 30.6843 2.69313 31.3968C2.81173 32.1708 3.06522 32.9711 3.65457 33.4881C4.24393 34.005 5.15196 34.2322 5.44256 34.9619C5.70057 35.6119 5.3303 36.3787 5.56297 37.0387C5.79563 37.6987 6.5914 38.0943 6.7109 38.7896C6.79057 39.2513 6.54251 39.7094 6.54976 40.1774C6.55519 40.5341 6.70819 40.87 6.79509 41.2167C6.98159 41.9609 6.79509 44.14 5.66436 43.5026C4.64046 42.9277 3.72519 41.5164 3.12406 40.545Z" fill="url(#paint2_linear)"/>
<path d="M5.17895 39.051C4.88291 37.5319 4.87296 35.944 5.26948 34.4466C5.50939 33.5332 5.9032 32.6224 5.8009 31.6836C5.74296 31.125 5.5112 30.5764 5.58725 30.0206C5.72938 28.9804 6.82752 28.391 7.79077 27.9782C7.85269 27.9442 7.92317 27.9291 7.99356 27.9347C8.11216 27.9565 8.17462 28.085 8.20812 28.2009C8.40638 28.898 8.16557 29.6331 8.01529 30.342C7.85324 31.1078 7.80707 31.9462 8.17462 32.6378C8.54218 33.3295 9.3126 33.8636 9.32618 34.6485C9.33795 35.3483 8.72052 35.935 8.70513 36.6339C8.68974 37.3328 9.29359 37.9846 9.15779 38.6781C9.06726 39.138 8.67435 39.4783 8.51592 39.9183C8.39461 40.2542 8.41906 40.6227 8.37832 40.9775C8.28779 41.7398 7.34807 43.7143 6.51157 42.7157C5.75835 41.8122 5.39622 40.1691 5.17895 39.051Z" fill="#6E71FF"/>
<path d="M5.17895 39.051C4.88291 37.5319 4.87296 35.944 5.26948 34.4466C5.50939 33.5332 5.9032 32.6224 5.8009 31.6836C5.74296 31.125 5.5112 30.5764 5.58725 30.0206C5.72938 28.9804 6.82752 28.391 7.79077 27.9782C7.85269 27.9442 7.92317 27.9291 7.99356 27.9347C8.11216 27.9565 8.17462 28.085 8.20812 28.2009C8.40638 28.898 8.16557 29.6331 8.01529 30.342C7.85324 31.1078 7.80707 31.9462 8.17462 32.6378C8.54218 33.3295 9.3126 33.8636 9.32618 34.6485C9.33795 35.3483 8.72052 35.935 8.70513 36.6339C8.68974 37.3328 9.29359 37.9846 9.15779 38.6781C9.06726 39.138 8.67435 39.4783 8.51592 39.9183C8.39461 40.2542 8.41906 40.6227 8.37832 40.9775C8.28779 41.7398 7.34807 43.7143 6.51157 42.7157C5.75835 41.8122 5.39622 40.1691 5.17895 39.051Z" fill="url(#paint3_linear)"/>
<path d="M7.26677 39.3014C8.04534 37.9634 9.08373 36.7666 10.3657 35.8957C11.1478 35.366 12.0414 34.9378 12.5864 34.1665C12.9105 33.7084 13.0988 33.1435 13.5216 32.775C14.3137 32.0861 15.5259 32.3695 16.5254 32.6918C16.5944 32.7065 16.6575 32.7415 16.7064 32.7922C16.7816 32.8828 16.7445 33.0249 16.6929 33.1345C16.3833 33.789 15.7169 34.1828 15.1375 34.6174C14.5102 35.0863 13.9235 35.6865 13.7443 36.4488C13.565 37.2111 13.7923 38.1209 13.2844 38.7202C12.8317 39.2544 11.9816 39.2879 11.5091 39.8066C11.0365 40.3253 11.0618 41.2107 10.5042 41.6435C10.1339 41.9305 9.61334 41.9277 9.20414 42.1541C8.8918 42.327 8.66729 42.6194 8.40203 42.8593C7.8335 43.3744 5.82461 44.239 5.85358 42.9372C5.87803 41.7666 6.6919 40.2882 7.26677 39.3014Z" fill="#6E71FF"/>
<path d="M7.26677 39.3014C8.04534 37.9634 9.08373 36.7666 10.3657 35.8957C11.1478 35.366 12.0414 34.9378 12.5864 34.1665C12.9105 33.7084 13.0988 33.1435 13.5216 32.775C14.3137 32.0861 15.5259 32.3695 16.5254 32.6918C16.5944 32.7065 16.6575 32.7415 16.7064 32.7922C16.7816 32.8828 16.7445 33.0249 16.6929 33.1345C16.3833 33.789 15.7169 34.1828 15.1375 34.6174C14.5102 35.0863 13.9235 35.6865 13.7443 36.4488C13.565 37.2111 13.7923 38.1209 13.2844 38.7202C12.8317 39.2544 11.9816 39.2879 11.5091 39.8066C11.0365 40.3253 11.0618 41.2107 10.5042 41.6435C10.1339 41.9305 9.61334 41.9277 9.20414 42.1541C8.8918 42.327 8.66729 42.6194 8.40203 42.8593C7.8335 43.3744 5.82461 44.239 5.85358 42.9372C5.87803 41.7666 6.6919 40.2882 7.26677 39.3014Z" fill="url(#paint4_linear)"/>
<path d="M12.1271 44.0077L12.0057 44.6931L11.9016 45.2897L11.6545 46.7273L11.5558 47.3239L11.3059 48.7624L11.2018 49.3581L10.5808 52.9323H4.12231L3.49583 49.3581L3.39172 48.7624L3.14457 47.3239L3.03956 46.7273L2.78245 45.2897L2.68015 44.6931L2.56065 44.0086C2.50619 43.6989 2.57698 43.3802 2.75744 43.1227C2.93791 42.8652 3.21328 42.6898 3.52299 42.6353C3.59085 42.6234 3.6596 42.6173 3.7285 42.6172H10.9574C11.1129 42.617 11.2669 42.6473 11.4107 42.7066C11.5544 42.7659 11.6851 42.8529 11.7952 42.9627C11.9054 43.0725 11.9928 43.2029 12.0525 43.3465C12.1123 43.4901 12.1431 43.644 12.1434 43.7995C12.1432 43.8693 12.1372 43.939 12.1252 44.0077H12.1271Z" fill="#6E71FF"/>
<path d="M12.1271 44.0077L12.0057 44.6931L11.9016 45.2897L11.6545 46.7273L11.5558 47.3239L11.3059 48.7624L11.2018 49.3581L10.5808 52.9323H4.12231L3.49583 49.3581L3.39172 48.7624L3.14457 47.3239L3.03956 46.7273L2.78245 45.2897L2.68015 44.6931L2.56065 44.0086C2.50619 43.6989 2.57698 43.3802 2.75744 43.1227C2.93791 42.8652 3.21328 42.6898 3.52299 42.6353C3.59085 42.6234 3.6596 42.6173 3.7285 42.6172H10.9574C11.1129 42.617 11.2669 42.6473 11.4107 42.7066C11.5544 42.7659 11.6851 42.8529 11.7952 42.9627C11.9054 43.0725 11.9928 43.2029 12.0525 43.3465C12.1123 43.4901 12.1431 43.644 12.1434 43.7995C12.1432 43.8693 12.1372 43.939 12.1252 44.0077H12.1271Z" fill="url(#paint5_linear)"/>
<path d="M58.3225 10.233V10.6241H5.42798V10.2348C5.42774 9.90637 5.49222 9.58115 5.61773 9.27768C5.74324 8.97421 5.92731 8.69844 6.15944 8.46614C6.39157 8.23385 6.6672 8.04957 6.97058 7.92384C7.27396 7.79811 7.59914 7.7334 7.92754 7.7334H55.8185C56.1467 7.73328 56.4718 7.79782 56.7751 7.92332C57.0784 8.04882 57.354 8.23284 57.5862 8.46486C57.8184 8.69689 58.0026 8.97237 58.1283 9.27558C58.254 9.5788 58.3188 9.90381 58.3189 10.2321L58.3225 10.233Z" fill="url(#paint6_linear)"/>
<path d="M8.10155 9.62887C8.41004 9.62887 8.66012 9.37879 8.66012 9.0703C8.66012 8.7618 8.41004 8.51172 8.10155 8.51172C7.79305 8.51172 7.54297 8.7618 7.54297 9.0703C7.54297 9.37879 7.79305 9.62887 8.10155 9.62887Z" fill="url(#paint7_linear)"/>
<path d="M9.97679 9.62887C10.2853 9.62887 10.5354 9.37879 10.5354 9.0703C10.5354 8.7618 10.2853 8.51172 9.97679 8.51172C9.6683 8.51172 9.41821 8.7618 9.41821 9.0703C9.41821 9.37879 9.6683 9.62887 9.97679 9.62887Z" fill="url(#paint8_linear)"/>
<path d="M11.8506 9.62887C12.1591 9.62887 12.4091 9.37879 12.4091 9.0703C12.4091 8.7618 12.1591 8.51172 11.8506 8.51172C11.5421 8.51172 11.292 8.7618 11.292 9.0703C11.292 9.37879 11.5421 9.62887 11.8506 9.62887Z" fill="url(#paint9_linear)"/>
<path d="M37.8342 22.7553V33.0985C37.8335 33.449 37.6939 33.7849 37.446 34.0327C37.1981 34.2804 36.8621 34.4198 36.5116 34.4203H26.172C25.8215 34.4198 25.4855 34.2804 25.2376 34.0327C24.9897 33.7849 24.8501 33.449 24.8494 33.0985V22.7553C24.8494 22.5818 24.8836 22.4099 24.95 22.2495C25.0164 22.0892 25.1138 21.9435 25.2365 21.8207C25.3592 21.698 25.5049 21.6006 25.6653 21.5342C25.8257 21.4678 25.9975 21.4336 26.1711 21.4336H36.5116C36.6852 21.4335 36.8572 21.4676 37.0177 21.5339C37.1781 21.6003 37.3239 21.6977 37.4468 21.8204C37.5696 21.9432 37.667 22.0889 37.7335 22.2493C37.8 22.4097 37.8342 22.5817 37.8342 22.7553Z" fill="url(#paint10_linear)"/>
<path d="M32.3988 26.6955C32.4044 26.8867 32.3582 27.0759 32.2649 27.2429C32.1717 27.41 32.0349 27.5487 31.8692 27.6442C31.8272 27.6685 31.7925 27.7035 31.7686 27.7457C31.7447 27.7879 31.7326 27.8357 31.7334 27.8841V30.1474C31.7334 30.1888 31.7252 30.2298 31.7094 30.268C31.6936 30.3062 31.6704 30.3409 31.6411 30.3702C31.6119 30.3995 31.5771 30.4227 31.5389 30.4385C31.5007 30.4543 31.4597 30.4625 31.4183 30.4625H31.2644C31.2231 30.4625 31.1821 30.4543 31.1439 30.4385C31.1057 30.4227 31.0709 30.3995 31.0417 30.3702C31.0124 30.3409 30.9892 30.3062 30.9734 30.268C30.9575 30.2298 30.9494 30.1888 30.9494 30.1474V27.8841C30.9498 27.8356 30.9375 27.7879 30.9137 27.7456C30.8899 27.7033 30.8553 27.6681 30.8136 27.6433C30.6539 27.5512 30.521 27.419 30.4282 27.2597C30.3354 27.1004 30.2858 26.9196 30.2845 26.7352C30.2831 26.5509 30.3299 26.3694 30.4203 26.2087C30.5108 26.048 30.6416 25.9138 30.7999 25.8193C30.9582 25.7248 31.1385 25.6734 31.3228 25.6701C31.5072 25.6668 31.6892 25.7117 31.8508 25.8005C32.0124 25.8892 32.148 26.0187 32.2441 26.176C32.3402 26.3333 32.3936 26.513 32.3988 26.6973V26.6955Z" fill="#6E71FF"/>
<path d="M12.008 44.6934L11.9039 45.29H2.7838L2.67969 44.6934H12.008Z" fill="#6E71FF"/>
<path d="M11.653 46.7275L11.5498 47.3241H3.14042L3.0354 46.7275H11.653Z" fill="#6E71FF"/>
<path d="M11.2999 48.7627L11.1958 49.3584H3.49522L3.39111 48.7627H11.2999Z" fill="#6E71FF"/>
<path opacity="0.18" d="M44.8073 29.8968C44.3827 29.302 43.7409 28.8882 43.0573 28.6293C42.9016 28.5705 42.726 28.5198 42.5739 28.5859C42.4671 28.6448 42.3775 28.7306 42.3141 28.8348C41.9846 29.2875 41.6414 29.7764 41.6098 30.3358C41.5627 31.1868 42.2371 32.093 41.8044 32.8272C41.684 33.0318 41.4921 33.1839 41.3517 33.3759C41.0874 33.738 41.0267 34.2124 41.062 34.6596C41.1046 35.1964 41.1734 35.9144 40.6664 36.0972C40.5142 36.1418 40.3527 36.144 40.1993 36.1036C39.7548 36.013 39.3438 35.8003 38.9083 35.6735C38.4728 35.5468 37.9704 35.5169 37.592 35.7641C37.5585 36.2475 37.974 36.6504 38.4113 36.8595C38.8486 37.0686 39.341 37.1637 39.7421 37.4362C40.3487 37.8472 40.6474 38.6131 40.6284 39.3491C40.6094 40.0851 40.3215 40.7822 39.9539 41.4168C39.7828 41.712 39.5918 42.0062 39.5212 42.3402C39.3827 43.0066 39.7557 43.6611 40.1133 44.2414C40.2183 44.4107 40.3333 44.5899 40.5161 44.6696C40.671 44.7222 40.8365 44.7356 40.9978 44.7085L47.3476 44.1653C47.5287 44.15 47.7396 44.1137 47.8175 43.9499C47.8519 43.8492 47.8519 43.74 47.8175 43.6394C47.6102 42.7503 46.9574 42.0189 46.7257 41.1353C46.6188 40.7234 46.6071 40.2933 46.5953 39.8678C46.5482 38.1134 46.4894 36.3417 46.1155 34.617C45.9281 33.7579 45.4664 32.9549 45.2835 32.1175C45.1133 31.3362 45.3469 30.6518 44.8073 29.8968Z" fill="#1D2741"/>
<path d="M34.3794 22.0945L33.4196 21.5106L34.204 20.2212C34.3655 19.9542 34.4729 19.658 34.5199 19.3495C34.567 19.041 34.5528 18.7262 34.4782 18.4232C34.4036 18.1202 34.2701 17.8348 34.0852 17.5834C33.9003 17.3319 33.6677 17.1194 33.4007 16.9578C32.8615 16.6316 32.2147 16.5329 31.6027 16.6836C31.2996 16.7582 31.0143 16.8917 30.7628 17.0766C30.5114 17.2615 30.2989 17.494 30.1373 17.7611L29.3591 19.0403L28.3985 18.4559L29.1984 17.1411C29.6936 16.3719 30.4703 15.8272 31.3621 15.6234C32.2539 15.4197 33.1901 15.5731 33.9702 16.0509C34.7503 16.5287 35.3125 17.2929 35.5363 18.1799C35.7601 19.0669 35.6278 20.0063 35.1677 20.797L34.3794 22.0945Z" fill="url(#paint11_linear)"/>
<path d="M58.3145 51.6348L59.2624 52.5401L57.8981 53.898L56.1843 54.0456C56.1339 53.9005 56.1378 53.7421 56.1954 53.5997C56.2531 53.4573 56.3604 53.3407 56.4976 53.2716C56.8127 53.1013 57.1558 52.9891 57.5106 52.9402L57.4735 52.2395L58.3145 51.6348Z" fill="#3F3D56"/>
<path d="M47.7757 51.5635L47.9151 52.706L44.7049 54.1436C44.7049 54.1436 44.3038 53.5235 44.7148 52.9848C45.1258 52.4461 46.2593 52.0677 46.2593 52.0677L46.4594 51.5707L47.7757 51.5635Z" fill="#3F3D56"/>
<path d="M48.597 33.9414C48.597 33.9414 47.4345 34.8005 47.3123 36.1341C47.1901 37.4676 47.1313 37.9356 47.1313 37.9356L45.0943 37.7709L45.0671 38.8971C45.0671 38.8971 47.7695 39.8848 48.1841 39.7164C48.5988 39.548 49.1175 38.8047 49.1175 38.8047L48.597 33.9414Z" fill="#6E71FF"/>
<path d="M48.597 33.9414C48.597 33.9414 47.4345 34.8005 47.3123 36.1341C47.1901 37.4676 47.1313 37.9356 47.1313 37.9356L45.0943 37.7709L45.0671 38.8971C45.0671 38.8971 47.7695 39.8848 48.1841 39.7164C48.5988 39.548 49.1175 38.8047 49.1175 38.8047L48.597 33.9414Z" fill="url(#paint12_linear)"/>
<path d="M49.3788 41.0489C49.3788 41.0489 45.1238 44.5597 45.0894 45.7565C45.055 46.9533 46.1351 51.6347 46.1351 51.6347L47.7845 51.6256L47.8325 46.7062C47.8325 46.7062 51.3125 45.4912 51.691 44.757C52.0694 44.0228 52.8715 40.4396 49.3788 41.0489Z" fill="#6E71FF"/>
<path d="M49.3788 41.0489C49.3788 41.0489 45.1238 44.5597 45.0894 45.7565C45.055 46.9533 46.1351 51.6347 46.1351 51.6347L47.7845 51.6256L47.8325 46.7062C47.8325 46.7062 51.3125 45.4912 51.691 44.757C52.0694 44.0228 52.8715 40.4396 49.3788 41.0489Z" fill="url(#paint13_linear)"/>
<path d="M49.3792 41.0491C49.3792 41.0491 49.639 46.4031 51.3129 48.134C52.9868 49.865 57.2707 52.4623 57.2707 52.4623L58.4866 51.7082L54.3737 47.4152C54.3737 47.4152 54.9685 42.5962 54.2651 41.7516C53.5617 40.9069 49.3792 41.0491 49.3792 41.0491Z" fill="#6E71FF"/>
<path d="M49.3792 41.0491C49.3792 41.0491 49.639 46.4031 51.3129 48.134C52.9868 49.865 57.2707 52.4623 57.2707 52.4623L58.4866 51.7082L54.3737 47.4152C54.3737 47.4152 54.9685 42.5962 54.2651 41.7516C53.5617 40.9069 49.3792 41.0491 49.3792 41.0491Z" fill="url(#paint14_linear)"/>
<path d="M49.3795 41.0492L47.9255 34.8976C47.9255 34.8976 48.7403 32.5519 51.9696 33.307C55.1988 34.062 54.2627 41.7517 54.2627 41.7517C54.2627 41.7517 50.6378 42.954 49.3795 41.0492Z" fill="#6E71FF"/>
<path d="M49.3795 41.0492L47.9255 34.8976C47.9255 34.8976 48.7403 32.5519 51.9696 33.307C55.1988 34.062 54.2627 41.7517 54.2627 41.7517C54.2627 41.7517 50.6378 42.954 49.3795 41.0492Z" fill="url(#paint15_linear)"/>
<path d="M51.8601 34.253C51.8601 34.253 51.6663 33.2291 52.7056 33.5025C53.7449 33.7759 55.3627 37.3048 55.303 37.7954C55.2432 38.2861 50.1871 38.488 50.1871 38.488L50.0667 37.3111L52.7246 36.8666C52.7246 36.8666 51.7487 35.1936 51.8601 34.253Z" fill="#6E71FF"/>
<path d="M51.8601 34.253C51.8601 34.253 51.6663 33.2291 52.7056 33.5025C53.7449 33.7759 55.3627 37.3048 55.303 37.7954C55.2432 38.2861 50.1871 38.488 50.1871 38.488L50.0667 37.3111L52.7246 36.8666C52.7246 36.8666 51.7487 35.1936 51.8601 34.253Z" fill="url(#paint16_linear)"/>
<path d="M51.3635 32.0675C51.2389 32.3252 51.0268 32.5302 50.7651 32.646C50.7211 32.6611 50.6785 32.6796 50.6374 32.7013C50.619 32.7129 50.6023 32.7269 50.5876 32.7429C50.4971 32.8443 50.5605 32.9946 50.5876 33.125C50.6383 33.4219 50.4663 33.7261 50.2183 33.8963C50.0789 33.9857 49.9261 34.052 49.7656 34.0927C49.5402 34.1516 49.2976 34.1652 49.1265 34.0846C48.8549 33.9569 48.882 33.5414 48.8223 33.287C48.6249 32.4614 48.452 31.6149 48.5416 30.7612C48.5896 30.3085 48.7164 29.8468 48.9889 29.4793C49.2613 29.1117 49.695 28.8455 50.1531 28.8537C50.6112 28.8618 51.0457 29.1506 51.3725 29.4874C51.4868 29.5998 51.5832 29.7289 51.6586 29.8704C51.8704 30.295 51.7582 30.8028 51.6405 31.2627C51.5806 31.5411 51.4876 31.8113 51.3635 32.0675Z" fill="url(#paint17_linear)"/>
<path d="M51.7274 30.0646C51.7274 30.0646 50.3694 30.0646 49.5483 30.5426C48.8159 30.9671 48.614 31.8743 48.5525 31.8589C48.4139 31.8272 47.9622 30.9536 48.1523 30.7607C48.3424 30.5679 48.1921 30.567 48.1921 30.567C48.1921 30.567 47.974 30.2049 48.0835 29.5549C48.1734 29.0801 48.2962 28.6121 48.4511 28.1544C48.4511 28.1544 48.5081 27.9389 49.3301 28.1544C50.1521 28.3698 51.5382 29.028 51.6151 29.295C51.6921 29.5621 51.6287 29.6843 51.6287 29.6843C51.6287 29.6843 51.8541 29.85 51.7274 30.0646Z" fill="#6E71FF"/>
<path d="M51.7274 30.0646C51.7274 30.0646 50.3694 30.0646 49.5483 30.5426C48.8159 30.9671 48.614 31.8743 48.5525 31.8589C48.4139 31.8272 47.9622 30.9536 48.1523 30.7607C48.3424 30.5679 48.1921 30.567 48.1921 30.567C48.1921 30.567 47.974 30.2049 48.0835 29.5549C48.1734 29.0801 48.2962 28.6121 48.4511 28.1544C48.4511 28.1544 48.5081 27.9389 49.3301 28.1544C50.1521 28.3698 51.5382 29.028 51.6151 29.295C51.6921 29.5621 51.6287 29.6843 51.6287 29.6843C51.6287 29.6843 51.8541 29.85 51.7274 30.0646Z" fill="url(#paint18_linear)"/>
<path d="M49.5483 30.541C50.0248 30.6562 50.5089 30.7373 50.9968 30.7836C51.435 30.8117 51.751 30.6931 51.7537 30.6723C51.7591 30.6261 51.6115 31.4074 51.6115 31.4074L51.2793 31.5242C51.1511 31.5695 51.0144 31.5856 50.8791 31.5713L48.8069 31.3558C48.8069 31.3558 49.16 30.7221 49.5483 30.541Z" fill="#6E71FF"/>
<path d="M49.5483 30.541C50.0248 30.6562 50.5089 30.7373 50.9968 30.7836C51.435 30.8117 51.751 30.6931 51.7537 30.6723C51.7591 30.6261 51.6115 31.4074 51.6115 31.4074L51.2793 31.5242C51.1511 31.5695 51.0144 31.5856 50.8791 31.5713L48.8069 31.3558C48.8069 31.3558 49.16 30.7221 49.5483 30.541Z" fill="url(#paint19_linear)"/>
<path d="M50.4012 30.9407C50.4607 30.9244 50.5238 30.9262 50.5822 30.9461C50.6221 30.9533 50.6583 30.9741 50.6845 31.005C50.6996 31.0284 50.7101 31.0545 50.7153 31.0819C50.7208 31.0974 50.7208 31.1144 50.7153 31.1299C50.7077 31.1388 50.6977 31.1455 50.6866 31.1492C50.6754 31.1528 50.6634 31.1534 50.652 31.1507C50.544 31.1516 50.4369 31.131 50.3369 31.0901C50.2545 31.0475 50.3315 30.9651 50.4012 30.9407Z" fill="white"/>
<path d="M51.3563 30.9855C51.3733 30.9702 51.3932 30.9586 51.4149 30.9513C51.4365 30.9439 51.4594 30.9411 51.4822 30.9429C51.4969 30.942 51.5117 30.9442 51.5256 30.9494C51.5395 30.9545 51.5521 30.9625 51.5627 30.9728C51.578 30.9928 51.5899 31.0151 51.598 31.0389C51.6052 31.0535 51.6084 31.0697 51.6071 31.0859C51.605 31.0952 51.6002 31.1036 51.5932 31.1101C51.5863 31.1165 51.5776 31.1207 51.5682 31.1222C51.496 31.1508 51.4173 31.1586 51.3409 31.1448C51.2758 31.1258 51.3129 31.0262 51.3563 30.9855Z" fill="white"/>
<path d="M50.2138 33.896C50.0745 33.9854 49.9216 34.0518 49.7612 34.0925C49.6264 33.9401 49.54 33.751 49.5131 33.5493C49.4867 33.4095 49.4707 33.2678 49.4651 33.1256C49.4485 33.002 49.4789 32.8767 49.5502 32.7744C49.5974 32.7306 49.6541 32.6984 49.7158 32.6802C49.7775 32.6619 49.8426 32.6582 49.906 32.6694C50.0337 32.6838 50.1568 32.7282 50.2844 32.7418C50.3931 32.7535 50.5234 32.7038 50.6375 32.6974C50.6191 32.709 50.6024 32.723 50.5877 32.7391C50.4972 32.8405 50.5606 32.9907 50.5877 33.1211C50.6339 33.4217 50.4619 33.7258 50.2138 33.896Z" fill="url(#paint20_linear)"/>
<path d="M44.3909 37.2038C44.3384 37.1622 44.276 37.1351 44.2098 37.125C44.1768 37.121 44.1435 37.1291 44.1162 37.148C44.0888 37.1669 44.0693 37.1951 44.0613 37.2273C44.0612 37.2734 44.0769 37.3181 44.1057 37.3541L44.2279 37.5451C44.2433 37.5649 44.2524 37.5889 44.2542 37.6139C44.2542 37.6773 44.1636 37.69 44.0994 37.6818C43.701 37.6311 43.3036 37.508 42.9062 37.5605C42.8756 37.5613 42.8463 37.5732 42.8238 37.594C42.8123 37.6112 42.807 37.6317 42.8088 37.6523C42.8106 37.6729 42.8194 37.6923 42.8338 37.7072C42.8637 37.736 42.9004 37.7569 42.9406 37.7678C43.1631 37.8494 43.3916 37.9135 43.6241 37.9597C43.5978 38.0249 43.5118 38.0367 43.443 38.0394C43.2506 38.0466 43.0591 38.0684 42.87 38.1046C42.7622 38.1245 42.6301 38.1788 42.6292 38.2857C42.6322 38.3213 42.6463 38.3551 42.6695 38.3824C42.6928 38.4097 42.7239 38.429 42.7586 38.4377C42.8287 38.4542 42.9013 38.4566 42.9723 38.445C43.2215 38.4241 43.4722 38.4305 43.72 38.464C43.4521 38.4948 43.1976 38.598 42.984 38.7628C42.9645 38.7764 42.9484 38.7943 42.937 38.8153C42.9125 38.8678 42.9587 38.9311 43.0139 38.9492C43.0711 38.9609 43.1304 38.9575 43.1859 38.9393C43.4334 38.8818 43.686 38.8491 43.94 38.8415C43.787 38.9121 43.6444 39.0035 43.5164 39.1131C43.4776 39.143 43.4465 39.1818 43.4258 39.2263C43.4153 39.2487 43.4119 39.2739 43.4161 39.2983C43.4203 39.3228 43.4319 39.3453 43.4494 39.363C43.4725 39.3772 43.4986 39.3858 43.5257 39.388C43.5528 39.3902 43.58 39.386 43.6051 39.3756C43.9065 39.2942 44.1727 39.0986 44.4814 39.0534C44.6426 39.0289 44.8291 39.0389 44.9413 38.9203C44.9893 38.8616 45.0228 38.7924 45.0391 38.7184C45.1061 38.4857 45.2446 37.9941 45.1043 37.7678C45.049 37.6773 44.9151 37.603 44.8327 37.5361C44.6913 37.4176 44.5439 37.3067 44.3909 37.2038Z" fill="#6E71FF"/>
<path d="M49.436 36.8327C49.3836 36.7911 49.3212 36.764 49.255 36.754C49.222 36.7499 49.1887 36.7581 49.1613 36.7769C49.134 36.7958 49.1145 36.824 49.1065 36.8563C49.1064 36.9023 49.1221 36.947 49.1509 36.983L49.2731 37.174C49.2885 37.1938 49.2976 37.2178 49.2993 37.2428C49.2948 37.3062 49.2088 37.3189 49.1445 37.3107C48.7462 37.26 48.3488 37.136 47.9513 37.1894C47.9208 37.1899 47.8916 37.2015 47.869 37.222C47.8572 37.2392 47.8518 37.26 47.8536 37.2808C47.8554 37.3016 47.8644 37.3211 47.8789 37.3361C47.9089 37.3649 47.9456 37.3858 47.9857 37.3967C48.2083 37.4783 48.4368 37.5424 48.6693 37.5886C48.643 37.6538 48.557 37.6647 48.4882 37.6674C48.2958 37.6754 48.1043 37.6974 47.9151 37.7335C47.8074 37.7534 47.6752 37.8068 47.6743 37.9146C47.6774 37.9502 47.6915 37.9841 47.7147 38.0113C47.7379 38.0386 47.7691 38.0579 47.8038 38.0666C47.8738 38.0831 47.9464 38.0855 48.0174 38.0739C48.2666 38.053 48.5174 38.0594 48.7652 38.0929C48.4975 38.1236 48.2433 38.2269 48.0301 38.3917C48.0103 38.4049 47.9939 38.4226 47.9821 38.4433C47.9746 38.471 47.9782 38.5006 47.9923 38.5256C48.0063 38.5507 48.0297 38.5692 48.0573 38.5772C48.1144 38.5897 48.1738 38.5865 48.2293 38.5682C48.4767 38.5103 48.7294 38.4775 48.9834 38.4704C48.8303 38.541 48.6877 38.6324 48.5597 38.742C48.5209 38.7719 48.4899 38.8107 48.4692 38.8552C48.4589 38.8777 48.4557 38.9028 48.4599 38.9272C48.4641 38.9515 48.4755 38.9741 48.4927 38.9919C48.516 39.0061 48.5423 39.0147 48.5695 39.0169C48.5967 39.0191 48.6241 39.0149 48.6493 39.0045C48.9499 38.9231 49.2161 38.7275 49.5248 38.6823C49.6859 38.6578 49.8724 38.6678 49.9847 38.5492C50.0327 38.4905 50.0662 38.4213 50.0824 38.3473C50.1503 38.1146 50.2879 37.623 50.1476 37.3958C50.0924 37.3053 49.9584 37.232 49.876 37.165C49.7353 37.0466 49.5884 36.9357 49.436 36.8327Z" fill="#6E71FF"/>
<path d="M44.3909 37.2038C44.3384 37.1622 44.276 37.1351 44.2098 37.125C44.1768 37.121 44.1435 37.1291 44.1162 37.148C44.0888 37.1669 44.0693 37.1951 44.0613 37.2273C44.0612 37.2734 44.0769 37.3181 44.1057 37.3541L44.2279 37.5451C44.2433 37.5649 44.2524 37.5889 44.2542 37.6139C44.2542 37.6773 44.1636 37.69 44.0994 37.6818C43.701 37.6311 43.3036 37.508 42.9062 37.5605C42.8756 37.5613 42.8463 37.5732 42.8238 37.594C42.8123 37.6112 42.807 37.6317 42.8088 37.6523C42.8106 37.6729 42.8194 37.6923 42.8338 37.7072C42.8637 37.736 42.9004 37.7569 42.9406 37.7678C43.1631 37.8494 43.3916 37.9135 43.6241 37.9597C43.5978 38.0249 43.5118 38.0367 43.443 38.0394C43.2506 38.0466 43.0591 38.0684 42.87 38.1046C42.7622 38.1245 42.6301 38.1788 42.6292 38.2857C42.6322 38.3213 42.6463 38.3551 42.6695 38.3824C42.6928 38.4097 42.7239 38.429 42.7586 38.4377C42.8287 38.4542 42.9013 38.4566 42.9723 38.445C43.2215 38.4241 43.4722 38.4305 43.72 38.464C43.4521 38.4948 43.1976 38.598 42.984 38.7628C42.9645 38.7764 42.9484 38.7943 42.937 38.8153C42.9125 38.8678 42.9587 38.9311 43.0139 38.9492C43.0711 38.9609 43.1304 38.9575 43.1859 38.9393C43.4334 38.8818 43.686 38.8491 43.94 38.8415C43.787 38.9121 43.6444 39.0035 43.5164 39.1131C43.4776 39.143 43.4465 39.1818 43.4258 39.2263C43.4153 39.2487 43.4119 39.2739 43.4161 39.2983C43.4203 39.3228 43.4319 39.3453 43.4494 39.363C43.4725 39.3772 43.4986 39.3858 43.5257 39.388C43.5528 39.3902 43.58 39.386 43.6051 39.3756C43.9065 39.2942 44.1727 39.0986 44.4814 39.0534C44.6426 39.0289 44.8291 39.0389 44.9413 38.9203C44.9893 38.8616 45.0228 38.7924 45.0391 38.7184C45.1061 38.4857 45.2446 37.9941 45.1043 37.7678C45.049 37.6773 44.9151 37.603 44.8327 37.5361C44.6913 37.4176 44.5439 37.3067 44.3909 37.2038Z" fill="url(#paint21_linear)"/>
<path d="M49.436 36.8327C49.3836 36.7911 49.3212 36.764 49.255 36.754C49.222 36.7499 49.1887 36.7581 49.1613 36.7769C49.134 36.7958 49.1145 36.824 49.1065 36.8563C49.1064 36.9023 49.1221 36.947 49.1509 36.983L49.2731 37.174C49.2885 37.1938 49.2976 37.2178 49.2993 37.2428C49.2948 37.3062 49.2088 37.3189 49.1445 37.3107C48.7462 37.26 48.3488 37.136 47.9513 37.1894C47.9208 37.1899 47.8916 37.2015 47.869 37.222C47.8572 37.2392 47.8518 37.26 47.8536 37.2808C47.8554 37.3016 47.8644 37.3211 47.8789 37.3361C47.9089 37.3649 47.9456 37.3858 47.9857 37.3967C48.2083 37.4783 48.4368 37.5424 48.6693 37.5886C48.643 37.6538 48.557 37.6647 48.4882 37.6674C48.2958 37.6754 48.1043 37.6974 47.9151 37.7335C47.8074 37.7534 47.6752 37.8068 47.6743 37.9146C47.6774 37.9502 47.6915 37.9841 47.7147 38.0113C47.7379 38.0386 47.7691 38.0579 47.8038 38.0666C47.8738 38.0831 47.9464 38.0855 48.0174 38.0739C48.2666 38.053 48.5174 38.0594 48.7652 38.0929C48.4975 38.1236 48.2433 38.2269 48.0301 38.3917C48.0103 38.4049 47.9939 38.4226 47.9821 38.4433C47.9746 38.471 47.9782 38.5006 47.9923 38.5256C48.0063 38.5507 48.0297 38.5692 48.0573 38.5772C48.1144 38.5897 48.1738 38.5865 48.2293 38.5682C48.4767 38.5103 48.7294 38.4775 48.9834 38.4704C48.8303 38.541 48.6877 38.6324 48.5597 38.742C48.5209 38.7719 48.4899 38.8107 48.4692 38.8552C48.4589 38.8777 48.4557 38.9028 48.4599 38.9272C48.4641 38.9515 48.4755 38.9741 48.4927 38.9919C48.516 39.0061 48.5423 39.0147 48.5695 39.0169C48.5967 39.0191 48.6241 39.0149 48.6493 39.0045C48.9499 38.9231 49.2161 38.7275 49.5248 38.6823C49.6859 38.6578 49.8724 38.6678 49.9847 38.5492C50.0327 38.4905 50.0662 38.4213 50.0824 38.3473C50.1503 38.1146 50.2879 37.623 50.1476 37.3958C50.0924 37.3053 49.9584 37.232 49.876 37.165C49.7353 37.0466 49.5884 36.9357 49.436 36.8327Z" fill="url(#paint22_linear)"/>
</g>
<defs>
<linearGradient id="paint0_linear" x1="2.64969" y1="52.8308" x2="13.642" y2="52.8308" gradientUnits="userSpaceOnUse">
<stop stop-color="#183866"/>
<stop offset="1" stop-color="#1A7FC1"/>
</linearGradient>
<linearGradient id="paint1_linear" x1="24.7619" y1="27.155" x2="-43.9023" y2="30.3281" gradientUnits="userSpaceOnUse">
<stop stop-opacity="0"/>
<stop offset="0.97" stop-color="#0C0C11"/>
<stop offset="0.98" stop-color="#312F43"/>
<stop offset="0.99" stop-color="#3F3D56"/>
</linearGradient>
<linearGradient id="paint2_linear" x1="357.915" y1="754.262" x2="2665.83" y2="590.497" gradientUnits="userSpaceOnUse">
<stop stop-opacity="0"/>
<stop offset="0.97" stop-color="#0C0C11"/>
<stop offset="0.98" stop-color="#312F43"/>
<stop offset="0.99" stop-color="#3F3D56"/>
</linearGradient>
<linearGradient id="paint3_linear" x1="2.00765" y1="35.791" x2="23.9804" y2="34.4684" gradientUnits="userSpaceOnUse">
<stop stop-opacity="0"/>
<stop offset="0.29" stop-opacity="0.29"/>
<stop offset="0.97" stop-color="#0C0C11"/>
<stop offset="0.98" stop-color="#312F43"/>
<stop offset="0.99" stop-color="#3F3D56"/>
</linearGradient>
<linearGradient id="paint4_linear" x1="19.3219" y1="49.1449" x2="7.60265" y2="32.9181" gradientUnits="userSpaceOnUse">
<stop stop-opacity="0"/>
<stop offset="0.84" stop-opacity="0.66"/>
<stop offset="0.97"/>
</linearGradient>
<linearGradient id="paint5_linear" x1="14.6574" y1="47.18" x2="0.492919" y2="48.2989" gradientUnits="userSpaceOnUse">
<stop stop-opacity="0"/>
<stop offset="0.87" stop-opacity="0.66"/>
<stop offset="1"/>
</linearGradient>
<linearGradient id="paint6_linear" x1="31.7526" y1="0.111586" x2="32.504" y2="63.248" gradientUnits="userSpaceOnUse">
<stop stop-opacity="0"/>
<stop offset="0.5" stop-opacity="0.38"/>
<stop offset="0.97" stop-color="#0C0C11"/>
<stop offset="0.98" stop-color="#312F43"/>
<stop offset="0.99" stop-color="#3F3D56"/>
</linearGradient>
<linearGradient id="paint7_linear" x1="8.22696" y1="9.75049" x2="8.29974" y2="7.54888" gradientUnits="userSpaceOnUse">
<stop stop-opacity="0"/>
<stop offset="0.639117" stop-opacity="0.75"/>
<stop offset="1"/>
</linearGradient>
<linearGradient id="paint8_linear" x1="10.1022" y1="9.75049" x2="10.175" y2="7.54888" gradientUnits="userSpaceOnUse">
<stop stop-opacity="0"/>
<stop offset="0.639117" stop-opacity="0.75"/>
<stop offset="1"/>
</linearGradient>
<linearGradient id="paint9_linear" x1="11.976" y1="9.75049" x2="12.0488" y2="7.54888" gradientUnits="userSpaceOnUse">
<stop stop-opacity="0"/>
<stop offset="0.639117" stop-opacity="0.75"/>
<stop offset="1"/>
</linearGradient>
<linearGradient id="paint10_linear" x1="32.7995" y1="35.834" x2="33.6457" y2="10.2408" gradientUnits="userSpaceOnUse">
<stop stop-opacity="0"/>
<stop offset="0.639117" stop-opacity="0.75"/>
<stop offset="1"/>
</linearGradient>
<linearGradient id="paint11_linear" x1="31.7803" y1="21.1441" x2="37.0486" y2="12.9232" gradientUnits="userSpaceOnUse">
<stop stop-opacity="0"/>
<stop offset="0.639117" stop-opacity="0.75"/>
<stop offset="1"/>
</linearGradient>
<linearGradient id="paint12_linear" x1="46.0575" y1="35.6678" x2="57.0516" y2="46.3315" gradientUnits="userSpaceOnUse">
<stop offset="0.01"/>
<stop offset="0.15" stop-opacity="0.52"/>
<stop offset="0.99" stop-opacity="0"/>
</linearGradient>
<linearGradient id="paint13_linear" x1="49.3218" y1="46.9678" x2="36.6148" y2="36.1937" gradientUnits="userSpaceOnUse">
<stop offset="0.01"/>
<stop offset="0.16" stop-opacity="0.52"/>
<stop offset="1" stop-opacity="0"/>
</linearGradient>
<linearGradient id="paint14_linear" x1="5659.37" y1="1935.99" x2="7625.91" y2="1537.21" gradientUnits="userSpaceOnUse">
<stop offset="0.01"/>
<stop offset="0.15" stop-opacity="0.52"/>
<stop offset="0.99" stop-opacity="0"/>
</linearGradient>
<linearGradient id="paint15_linear" x1="3924.71" y1="743.935" x2="5152.38" y2="170.708" gradientUnits="userSpaceOnUse">
<stop offset="0.01"/>
<stop offset="0.15" stop-opacity="0.52"/>
<stop offset="0.99" stop-opacity="0"/>
</linearGradient>
<linearGradient id="paint16_linear" x1="3297.06" y1="200.567" x2="4056" y2="431.964" gradientUnits="userSpaceOnUse">
<stop offset="0.01"/>
<stop offset="0.15" stop-opacity="0.52"/>
<stop offset="0.99" stop-opacity="0"/>
</linearGradient>
<linearGradient id="paint17_linear" x1="48.552" y1="31.1766" x2="51.6264" y2="31.969" gradientUnits="userSpaceOnUse">
<stop stop-color="#ECC4D7"/>
<stop offset="0.42" stop-color="#EFD4D1"/>
<stop offset="1" stop-color="#F2EAC9"/>
</linearGradient>
<linearGradient id="paint18_linear" x1="48.2401" y1="30.0872" x2="58.3732" y2="26.3039" gradientUnits="userSpaceOnUse">
<stop offset="0.01"/>
<stop offset="0.03" stop-opacity="0.93"/>
<stop offset="0.51" stop-opacity="0.05"/>
<stop offset="0.58" stop-opacity="0.03"/>
<stop offset="0.99" stop-opacity="0"/>
</linearGradient>
<linearGradient id="paint19_linear" x1="1842.82" y1="13.4788" x2="2061.31" y2="-28.2263" gradientUnits="userSpaceOnUse">
<stop offset="0.01"/>
<stop offset="0.15" stop-opacity="0.52"/>
<stop offset="0.99" stop-opacity="0"/>
</linearGradient>
<linearGradient id="paint20_linear" x1="-510.048" y1="1286.04" x2="-457.315" y2="1304.89" gradientUnits="userSpaceOnUse">
<stop stop-color="#ECC4D7"/>
<stop offset="0.42" stop-color="#EFD4D1"/>
<stop offset="1" stop-color="#F2EAC9"/>
</linearGradient>
<linearGradient id="paint21_linear" x1="1439.3" y1="137.738" x2="1423.22" y2="706.934" gradientUnits="userSpaceOnUse">
<stop offset="0.01"/>
<stop offset="0.15" stop-opacity="0.52"/>
<stop offset="0.99" stop-opacity="0"/>
</linearGradient>
<linearGradient id="paint22_linear" x1="1584.29" y1="138.68" x2="1568.2" y2="707.877" gradientUnits="userSpaceOnUse">
<stop offset="0.01"/>
<stop offset="0.15" stop-opacity="0.52"/>
<stop offset="0.99" stop-opacity="0"/>
</linearGradient>
<clipPath id="clip0">
<path d="M0 0H64V64H0V0Z" fill="white"/>
</clipPath>
</defs>
</svg>
