<svg width="32" height="32" viewBox="0 0 32 32" fill="none" xmlns="http://www.w3.org/2000/svg">
<rect width="32" height="32" rx="4" fill="white"/>
<path fill-rule="evenodd" clip-rule="evenodd" d="M16 8.5C16.4234 8.5 16.7666 8.84321 16.7666 9.26657V15.2334H22.7334C23.1568 15.2334 23.5 15.5766 23.5 16C23.5 16.4234 23.1568 16.7666 22.7334 16.7666H16.7666V22.7334C16.7666 23.1568 16.4234 23.5 16 23.5C15.5766 23.5 15.2334 23.1568 15.2334 22.7334V16.7666H9.26657C8.84321 16.7666 8.5 16.4234 8.5 16C8.5 15.5766 8.84321 15.2334 9.26657 15.2334H15.2334V9.26657C15.2334 8.84321 15.5766 8.5 16 8.5Z" fill="#111111"/>
</svg>
