<svg width="32" height="32" viewBox="0 0 32 32" fill="none" xmlns="http://www.w3.org/2000/svg">
<path d="M21 23.5C22.3807 23.5 23.4999 22.3807 23.4999 21C23.4999 19.6193 22.3807 18.5 21 18.5C19.6193 18.5 18.5 19.6193 18.5 21C18.5 22.3807 19.6193 23.5 21 23.5Z" stroke="#111111" stroke-linecap="round" stroke-linejoin="round"/>
<path d="M11 13.5C12.3807 13.5 13.4999 12.3807 13.4999 11C13.4999 9.61929 12.3807 8.5 11 8.5C9.61927 8.5 8.5 9.61929 8.5 11C8.5 12.3807 9.61927 13.5 11 13.5Z" stroke="#111111" stroke-linecap="round" stroke-linejoin="round"/>
<path d="M16.833 11H19.333C19.775 11 20.1989 11.1756 20.5115 11.4882C20.824 11.8007 20.9996 12.2246 20.9996 12.6667V18.5" stroke="#111111" stroke-linecap="round" stroke-linejoin="round"/>
<path d="M11.001 13.5V23.5" stroke="#111111" stroke-linecap="round" stroke-linejoin="round"/>
</svg>
