<svg width="32" height="32" viewBox="0 0 32 32" fill="none" xmlns="http://www.w3.org/2000/svg">
<rect width="32" height="32" rx="4"/>
<path d="M15.2097 10.0815H9.99106C9.5956 10.0815 9.21635 10.2386 8.93672 10.5182C8.65709 10.7978 8.5 11.1771 8.5 11.5725V22.0092C8.5 22.4047 8.65709 22.7839 8.93672 23.0635C9.21635 23.3431 9.5956 23.5002 9.99106 23.5002H20.4284C20.8239 23.5002 21.2031 23.3431 21.4828 23.0635C21.7624 22.7839 21.9195 22.4047 21.9195 22.0092V16.7909" stroke="#111111" stroke-linecap="round" stroke-linejoin="round"/>
<path d="M20.7997 8.96318C21.0963 8.66661 21.4986 8.5 21.918 8.5C22.3375 8.5 22.7397 8.66661 23.0363 8.96318C23.3329 9.25975 23.4995 9.66199 23.4995 10.0814C23.4995 10.5008 23.3329 10.9031 23.0363 11.1996L15.9538 18.2817L12.9717 19.0272L13.7172 16.0453L20.7997 8.96318Z" stroke="#111111" stroke-linecap="round" stroke-linejoin="round"/>
</svg>
