<svg width="32" height="32" viewBox="0 0 32 32" fill="none" xmlns="http://www.w3.org/2000/svg">
<rect width="32" height="32" rx="4" fill="white"/>
<path d="M18 16C18 17.1046 17.1046 18 16 18C14.8954 18 14 17.1046 14 16C14 14.8954 14.8954 14 16 14C17.1046 14 18 14.8954 18 16Z" stroke="#111111" stroke-linecap="round" stroke-linejoin="round"/>
<path d="M21.0455 18.0455C20.9547 18.2511 20.9276 18.4792 20.9677 18.7004C21.0078 18.9216 21.1133 19.1257 21.2705 19.2864L21.3114 19.3273C21.4382 19.4539 21.5387 19.6043 21.6074 19.7699C21.676 19.9354 21.7113 20.1128 21.7113 20.292C21.7113 20.4712 21.676 20.6487 21.6074 20.8142C21.5387 20.9798 21.4382 21.1302 21.3114 21.2568C21.1847 21.3836 21.0343 21.4842 20.8688 21.5528C20.7032 21.6214 20.5258 21.6568 20.3466 21.6568C20.1674 21.6568 19.9899 21.6214 19.8244 21.5528C19.6589 21.4842 19.5085 21.3836 19.3818 21.2568L19.3409 21.2159C19.1802 21.0587 18.9761 20.9533 18.7549 20.9132C18.5338 20.8731 18.3056 20.9001 18.1 20.9909C17.8983 21.0773 17.7264 21.2208 17.6052 21.4038C17.4841 21.5867 17.4191 21.8011 17.4182 22.0205V22.1364C17.4182 22.498 17.2745 22.8449 17.0188 23.1006C16.7631 23.3563 16.4162 23.5 16.0545 23.5C15.6929 23.5 15.346 23.3563 15.0903 23.1006C14.8346 22.8449 14.6909 22.498 14.6909 22.1364V22.075C14.6856 21.8493 14.6126 21.6305 14.4813 21.4468C14.3499 21.2632 14.1664 21.1234 13.9545 21.0455C13.7489 20.9547 13.5208 20.9276 13.2996 20.9677C13.0784 21.0078 12.8743 21.1133 12.7136 21.2705L12.6727 21.3114C12.5461 21.4382 12.3957 21.5387 12.2301 21.6074C12.0646 21.676 11.8872 21.7113 11.708 21.7113C11.5288 21.7113 11.3513 21.676 11.1858 21.6074C11.0202 21.5387 10.8698 21.4382 10.7432 21.3114C10.6164 21.1847 10.5158 21.0343 10.4472 20.8688C10.3786 20.7032 10.3432 20.5258 10.3432 20.3466C10.3432 20.1674 10.3786 19.9899 10.4472 19.8244C10.5158 19.6589 10.6164 19.5085 10.7432 19.3818L10.7841 19.3409C10.9413 19.1802 11.0467 18.9761 11.0868 18.7549C11.1269 18.5338 11.0999 18.3056 11.0091 18.1C10.9227 17.8983 10.7792 17.7264 10.5962 17.6052C10.4133 17.4841 10.1989 17.4191 9.97955 17.4182H9.86364C9.50198 17.4182 9.15513 17.2745 8.8994 17.0188C8.64367 16.7631 8.5 16.4162 8.5 16.0545C8.5 15.6929 8.64367 15.346 8.8994 15.0903C9.15513 14.8346 9.50198 14.6909 9.86364 14.6909H9.925C10.1507 14.6856 10.3695 14.6126 10.5532 14.4813C10.7368 14.3499 10.8766 14.1664 10.9545 13.9545C11.0453 13.7489 11.0724 13.5208 11.0323 13.2996C10.9922 13.0784 10.8867 12.8743 10.7295 12.7136L10.6886 12.6727C10.5619 12.5461 10.4613 12.3957 10.3926 12.2301C10.324 12.0646 10.2887 11.8872 10.2887 11.708C10.2887 11.5288 10.324 11.3513 10.3926 11.1858C10.4613 11.0202 10.5619 10.8698 10.6886 10.7432C10.8153 10.6164 10.9657 10.5158 11.1312 10.4472C11.2968 10.3786 11.4742 10.3432 11.6534 10.3432C11.8326 10.3432 12.0101 10.3786 12.1756 10.4472C12.3411 10.5158 12.4915 10.6164 12.6182 10.7432L12.6591 10.7841C12.8198 10.9413 13.0239 11.0467 13.2451 11.0868C13.4662 11.1269 13.6944 11.0999 13.9 11.0091H13.9545C14.1562 10.9227 14.3282 10.7792 14.4493 10.5962C14.5705 10.4133 14.6355 10.1989 14.6364 9.97955V9.86364C14.6364 9.50198 14.78 9.15513 15.0358 8.8994C15.2915 8.64367 15.6383 8.5 16 8.5C16.3617 8.5 16.7085 8.64367 16.9642 8.8994C17.22 9.15513 17.3636 9.50198 17.3636 9.86364V9.925C17.3645 10.1444 17.4295 10.3588 17.5507 10.5417C17.6718 10.7246 17.8438 10.8681 18.0455 10.9545C18.2511 11.0453 18.4792 11.0724 18.7004 11.0323C18.9216 10.9922 19.1257 10.8867 19.2864 10.7295L19.3273 10.6886C19.4539 10.5619 19.6043 10.4613 19.7699 10.3926C19.9354 10.324 20.1128 10.2887 20.292 10.2887C20.4712 10.2887 20.6487 10.324 20.8142 10.3926C20.9798 10.4613 21.1302 10.5619 21.2568 10.6886C21.3836 10.8153 21.4842 10.9657 21.5528 11.1312C21.6214 11.2968 21.6568 11.4742 21.6568 11.6534C21.6568 11.8326 21.6214 12.0101 21.5528 12.1756C21.4842 12.3411 21.3836 12.4915 21.2568 12.6182L21.2159 12.6591C21.0587 12.8198 20.9533 13.0239 20.9132 13.2451C20.8731 13.4662 20.9001 13.6944 20.9909 13.9V13.9545C21.0773 14.1562 21.2208 14.3282 21.4038 14.4493C21.5867 14.5705 21.8011 14.6355 22.0205 14.6364H22.1364C22.498 14.6364 22.8449 14.78 23.1006 15.0358C23.3563 15.2915 23.5 15.6383 23.5 16C23.5 16.3617 23.3563 16.7085 23.1006 16.9642C22.8449 17.22 22.498 17.3636 22.1364 17.3636H22.075C21.8556 17.3645 21.6412 17.4295 21.4583 17.5507C21.2754 17.6718 21.1319 17.8438 21.0455 18.0455V18.0455Z" stroke="#111111" stroke-linecap="round" stroke-linejoin="round"/>
</svg>
