<svg width="32" height="32" viewBox="0 0 32 32" fill="none" xmlns="http://www.w3.org/2000/svg">
<path d="M0 4C0 1.79086 1.79086 0 4 0H28C30.2091 0 32 1.79086 32 4V28C32 30.2091 30.2091 32 28 32H4C1.79086 32 0 30.2091 0 28V4Z" fill="#D9D9FE"/>
<path fill-rule="evenodd" clip-rule="evenodd" d="M22.6665 7.66602H12.6665C11.7498 7.66602 10.9998 8.41602 10.9998 9.33268V19.3327C10.9998 20.2493 11.7498 20.9993 12.6665 20.9993H22.6665C23.5832 20.9993 24.3332 20.2493 24.3332 19.3327V9.33268C24.3332 8.41602 23.5832 7.66602 22.6665 7.66602ZM15.5832 13.916C15.5832 14.6077 15.0248 15.166 14.3332 15.166H13.4998V16.2077C13.4998 16.5493 13.2165 16.8327 12.8748 16.8327C12.5332 16.8327 12.2498 16.5493 12.2498 16.2077V12.666C12.2498 12.2077 12.6248 11.8327 13.0832 11.8327H14.3332C15.0248 11.8327 15.5832 12.391 15.5832 13.0827V13.916ZM18.4998 16.8327C19.1915 16.8327 19.7498 16.2743 19.7498 15.5827V13.0827C19.7498 12.391 19.1915 11.8327 18.4998 11.8327H16.8332C16.5998 11.8327 16.4165 12.016 16.4165 12.2493V16.416C16.4165 16.6493 16.5998 16.8327 16.8332 16.8327H18.4998ZM23.0832 12.4577C23.0832 12.7993 22.7998 13.0827 22.4582 13.0827H21.8332V13.916H22.4582C22.7998 13.916 23.0832 14.1993 23.0832 14.541C23.0832 14.8827 22.7998 15.166 22.4582 15.166H21.8332V16.2077C21.8332 16.5493 21.5498 16.8327 21.2082 16.8327C20.8665 16.8327 20.5832 16.5493 20.5832 16.2077V12.666C20.5832 12.2077 20.9582 11.8327 21.4165 11.8327H22.4582C22.7998 11.8327 23.0832 12.116 23.0832 12.4577ZM14.3332 13.916H13.4998V13.0827H14.3332V13.916ZM8.49984 10.9993C8.0415 10.9993 7.6665 11.3743 7.6665 11.8327V22.666C7.6665 23.5827 8.4165 24.3327 9.33317 24.3327H20.1665C20.6248 24.3327 20.9998 23.9577 20.9998 23.4993C20.9998 23.041 20.6248 22.666 20.1665 22.666H10.1665C9.70817 22.666 9.33317 22.291 9.33317 21.8327V11.8327C9.33317 11.3743 8.95817 10.9993 8.49984 10.9993ZM18.4998 15.5827H17.6665V13.0827H18.4998V15.5827Z" fill="#6E71FF"/>
</svg>
