<svg width="20" height="20" viewBox="0 0 20 20" fill="none" xmlns="http://www.w3.org/2000/svg">
<path fill-rule="evenodd" clip-rule="evenodd" d="M16.6665 1.66699H6.6665C5.74984 1.66699 4.99984 2.41699 4.99984 3.33366V13.3337C4.99984 14.2503 5.74984 15.0003 6.6665 15.0003H16.6665C17.5832 15.0003 18.3332 14.2503 18.3332 13.3337V3.33366C18.3332 2.41699 17.5832 1.66699 16.6665 1.66699ZM9.58317 7.91699C9.58317 8.60866 9.02484 9.16699 8.33317 9.16699H7.49984V10.2087C7.49984 10.5503 7.2165 10.8337 6.87484 10.8337C6.53317 10.8337 6.24984 10.5503 6.24984 10.2087V6.66699C6.24984 6.20866 6.62484 5.83366 7.08317 5.83366H8.33317C9.02484 5.83366 9.58317 6.39199 9.58317 7.08366V7.91699ZM12.4998 10.8337C13.1915 10.8337 13.7498 10.2753 13.7498 9.58366V7.08366C13.7498 6.39199 13.1915 5.83366 12.4998 5.83366H10.8332C10.5998 5.83366 10.4165 6.01699 10.4165 6.25033V10.417C10.4165 10.6503 10.5998 10.8337 10.8332 10.8337H12.4998ZM17.0832 6.45866C17.0832 6.80032 16.7998 7.08366 16.4582 7.08366H15.8332V7.91699H16.4582C16.7998 7.91699 17.0832 8.20033 17.0832 8.54199C17.0832 8.88366 16.7998 9.16699 16.4582 9.16699H15.8332V10.2087C15.8332 10.5503 15.5498 10.8337 15.2082 10.8337C14.8665 10.8337 14.5832 10.5503 14.5832 10.2087V6.66699C14.5832 6.20866 14.9582 5.83366 15.4165 5.83366H16.4582C16.7998 5.83366 17.0832 6.11699 17.0832 6.45866ZM8.33317 7.91699H7.49984V7.08366H8.33317V7.91699ZM2.49984 5.00033C2.0415 5.00033 1.6665 5.37533 1.6665 5.83366V16.667C1.6665 17.5837 2.4165 18.3337 3.33317 18.3337H14.1665C14.6248 18.3337 14.9998 17.9587 14.9998 17.5003C14.9998 17.042 14.6248 16.667 14.1665 16.667H4.1665C3.70817 16.667 3.33317 16.292 3.33317 15.8337V5.83366C3.33317 5.37533 2.95817 5.00033 2.49984 5.00033ZM12.4998 9.58366H11.6665V7.08366H12.4998V9.58366Z" fill="#111111"/>
</svg>
