<svg width="32" height="32" viewBox="0 0 32 32" fill="none" xmlns="http://www.w3.org/2000/svg">
<rect width="32" height="32" rx="4" fill="white"/>
<path fill-rule="evenodd" clip-rule="evenodd" d="M15.6747 8.07727C15.8794 7.9749 16.1204 7.9749 16.3252 8.07727L23.5978 11.7136C23.8442 11.8368 23.9998 12.0886 23.9998 12.3641C23.9998 12.6395 23.8442 12.8914 23.5978 13.0146L16.3252 16.6509C16.1204 16.7533 15.8794 16.7533 15.6747 16.6509L8.40202 13.0146C8.15564 12.8914 8 12.6395 8 12.3641C8 12.0886 8.15564 11.8368 8.40202 11.7136L15.6747 8.07727ZM10.3535 12.3641L15.9999 15.1873L21.6464 12.3641L15.9999 9.54086L10.3535 12.3641Z" fill="black"/>
<path fill-rule="evenodd" clip-rule="evenodd" d="M8.07694 19.3118C8.25657 18.9526 8.69341 18.807 9.05267 18.9866L16.0001 22.4603L22.9475 18.9866C23.3067 18.807 23.7436 18.9526 23.9232 19.3118C24.1028 19.6711 23.9572 20.108 23.598 20.2876L16.3253 23.9239C16.1206 24.0263 15.8796 24.0263 15.6748 23.9239L8.40218 20.2876C8.04293 20.108 7.89731 19.6711 8.07694 19.3118Z" fill="black"/>
<path fill-rule="evenodd" clip-rule="evenodd" d="M8.07694 15.6751C8.25657 15.3159 8.69341 15.1703 9.05267 15.3499L16.0001 18.8236L22.9475 15.3499C23.3067 15.1703 23.7436 15.3159 23.9232 15.6751C24.1028 16.0344 23.9572 16.4712 23.598 16.6509L16.3253 20.2872C16.1206 20.3896 15.8796 20.3896 15.6748 20.2872L8.40218 16.6509C8.04293 16.4712 7.89731 16.0344 8.07694 15.6751Z" fill="black"/>
</svg>
