<svg width="24" height="24" viewBox="0 0 24 24" fill="none" xmlns="http://www.w3.org/2000/svg">
<circle cx="12" cy="12" r="12" fill="white"/>
<path d="M16.6667 10.25H11.4167C10.7723 10.25 10.25 10.7723 10.25 11.4167V16.6667C10.25 17.311 10.7723 17.8333 11.4167 17.8333H16.6667C17.311 17.8333 17.8333 17.311 17.8333 16.6667V11.4167C17.8333 10.7723 17.311 10.25 16.6667 10.25Z" stroke="#111111" stroke-linecap="round" stroke-linejoin="round"/>
<path d="M7.9165 13.75H7.33317C7.02375 13.75 6.72701 13.627 6.50821 13.4083C6.28942 13.1895 6.1665 12.8927 6.1665 12.5833V7.33329C6.1665 7.02387 6.28942 6.72713 6.50821 6.50833C6.72701 6.28954 7.02375 6.16663 7.33317 6.16663H12.5832C12.8926 6.16663 13.1893 6.28954 13.4081 6.50833C13.6269 6.72713 13.7498 7.02387 13.7498 7.33329V7.91663" stroke="#111111" stroke-linecap="round" stroke-linejoin="round"/>
</svg>
