<svg width="24" height="24" viewBox="0 0 24 24" fill="none" xmlns="http://www.w3.org/2000/svg">
<circle cx="12" cy="12" r="12" fill="#D9D9FE"/>
<path d="M11.3678 7.26501H7.19284C6.87648 7.26501 6.57308 7.39068 6.34938 7.61437C6.12567 7.83806 6 8.14144 6 8.45779V16.8072C6 17.1235 6.12567 17.4269 6.34938 17.6506C6.57308 17.8743 6.87648 17.9999 7.19284 17.9999H15.5428C15.8591 17.9999 16.1625 17.8743 16.3862 17.6506C16.6099 17.4269 16.7356 17.1235 16.7356 16.8072V12.6325" stroke="#111111" stroke-linecap="round" stroke-linejoin="round"/>
<path d="M15.8401 6.37055C16.0773 6.13329 16.3991 6 16.7347 6C17.0702 6 17.3921 6.13329 17.6293 6.37055C17.8666 6.6078 17.9999 6.92959 17.9999 7.26512C17.9999 7.60066 17.8666 7.92245 17.6293 8.1597L11.9633 13.8254L9.57763 14.4217L10.1741 12.0362L15.8401 6.37055Z" stroke="#111111" stroke-linecap="round" stroke-linejoin="round"/>
</svg>
