<svg width="24" height="24" viewBox="0 0 24 24" fill="none" xmlns="http://www.w3.org/2000/svg">
<circle cx="12" cy="12" r="12" fill="#F1F1F1"/>
<path d="M6 8.40015H7.33333H18" stroke="#FF6E6E" stroke-linecap="round" stroke-linejoin="round"/>
<path d="M9.33276 8.4V7.2C9.33276 6.88174 9.47324 6.57652 9.72329 6.35147C9.97334 6.12643 10.3125 6 10.6661 6H13.3328C13.6864 6 14.0255 6.12643 14.2756 6.35147C14.5256 6.57652 14.6661 6.88174 14.6661 7.2V8.4M16.6661 8.4V16.8C16.6661 17.1183 16.5256 17.4235 16.2756 17.6485C16.0255 17.8736 15.6864 18 15.3328 18H8.6661C8.31248 18 7.97334 17.8736 7.72329 17.6485C7.47324 17.4235 7.33276 17.1183 7.33276 16.8V8.4H16.6661Z" stroke="#FF6E6E" stroke-linecap="round" stroke-linejoin="round"/>
</svg>
