<svg width="32" height="32" viewBox="0 0 32 32" fill="none" xmlns="http://www.w3.org/2000/svg">
<circle cx="16" cy="16" r="16" fill="#D9D9FE"/>
<path d="M16 18C17.1046 18 18 17.1046 18 16C18 14.8954 17.1046 14 16 14C14.8954 14 14 14.8954 14 16C14 17.1046 14.8954 18 16 18Z" stroke="#111111" stroke-linecap="round" stroke-linejoin="round"/>
<path d="M20.9334 17.9998C20.8447 18.2009 20.8182 18.424 20.8574 18.6402C20.8966 18.8565 20.9997 19.0561 21.1534 19.2132L21.1934 19.2532C21.3174 19.377 21.4157 19.5241 21.4828 19.6859C21.5499 19.8478 21.5845 20.0213 21.5845 20.1965C21.5845 20.3717 21.5499 20.5452 21.4828 20.7071C21.4157 20.869 21.3174 21.016 21.1934 21.1398C21.0696 21.2638 20.9225 21.3622 20.7607 21.4292C20.5988 21.4963 20.4253 21.5309 20.2501 21.5309C20.0749 21.5309 19.9014 21.4963 19.7395 21.4292C19.5776 21.3622 19.4306 21.2638 19.3067 21.1398L19.2667 21.0998C19.1096 20.9461 18.9101 20.843 18.6938 20.8038C18.4775 20.7646 18.2545 20.7911 18.0534 20.8798C17.8562 20.9643 17.6881 21.1047 17.5696 21.2835C17.4512 21.4624 17.3876 21.672 17.3867 21.8865V21.9998C17.3867 22.3535 17.2463 22.6926 16.9962 22.9426C16.7462 23.1927 16.407 23.3332 16.0534 23.3332C15.6998 23.3332 15.3607 23.1927 15.1106 22.9426C14.8606 22.6926 14.7201 22.3535 14.7201 21.9998V21.9398C14.7149 21.7192 14.6435 21.5052 14.5151 21.3256C14.3867 21.1461 14.2072 21.0094 14.0001 20.9332C13.799 20.8444 13.576 20.818 13.3597 20.8572C13.1434 20.8964 12.9439 20.9995 12.7867 21.1532L12.7467 21.1932C12.6229 21.3171 12.4759 21.4155 12.314 21.4826C12.1521 21.5497 11.9786 21.5842 11.8034 21.5842C11.6282 21.5842 11.4547 21.5497 11.2928 21.4826C11.131 21.4155 10.9839 21.3171 10.8601 21.1932C10.7361 21.0693 10.6378 20.9223 10.5707 20.7604C10.5036 20.5986 10.469 20.4251 10.469 20.2498C10.469 20.0746 10.5036 19.9011 10.5707 19.7392C10.6378 19.5774 10.7361 19.4303 10.8601 19.3065L10.9001 19.2665C11.0538 19.1094 11.1569 18.9098 11.1961 18.6936C11.2353 18.4773 11.2088 18.2542 11.1201 18.0532C11.0356 17.856 10.8953 17.6878 10.7164 17.5694C10.5375 17.4509 10.3279 17.3874 10.1134 17.3865H10.0001C9.64646 17.3865 9.30732 17.246 9.05727 16.996C8.80722 16.7459 8.66675 16.4068 8.66675 16.0532C8.66675 15.6995 8.80722 15.3604 9.05727 15.1104C9.30732 14.8603 9.64646 14.7198 10.0001 14.7198H10.0601C10.2807 14.7147 10.4948 14.6432 10.6743 14.5148C10.8538 14.3864 10.9906 14.207 11.0667 13.9998C11.1555 13.7988 11.182 13.5757 11.1428 13.3594C11.1035 13.1432 11.0004 12.9436 10.8467 12.7865L10.8067 12.7465C10.6828 12.6227 10.5844 12.4756 10.5173 12.3138C10.4502 12.1519 10.4157 11.9784 10.4157 11.8032C10.4157 11.6279 10.4502 11.4544 10.5173 11.2926C10.5844 11.1307 10.6828 10.9837 10.8067 10.8598C10.9306 10.7359 11.0776 10.6375 11.2395 10.5704C11.4014 10.5033 11.5749 10.4688 11.7501 10.4688C11.9253 10.4688 12.0988 10.5033 12.2607 10.5704C12.4225 10.6375 12.5696 10.7359 12.6934 10.8598L12.7334 10.8998C12.8905 11.0535 13.0901 11.1566 13.3064 11.1958C13.5226 11.2351 13.7457 11.2086 13.9467 11.1198H14.0001C14.1973 11.0353 14.3654 10.895 14.4839 10.7161C14.6023 10.5373 14.6659 10.3277 14.6667 10.1132V9.99984C14.6667 9.64622 14.8072 9.30708 15.0573 9.05703C15.3073 8.80698 15.6465 8.6665 16.0001 8.6665C16.3537 8.6665 16.6928 8.80698 16.9429 9.05703C17.1929 9.30708 17.3334 9.64622 17.3334 9.99984V10.0598C17.3343 10.2744 17.3978 10.484 17.5163 10.6628C17.6347 10.8417 17.8029 10.982 18.0001 11.0665C18.2012 11.1552 18.4242 11.1817 18.6405 11.1425C18.8567 11.1033 19.0563 11.0002 19.2134 10.8465L19.2534 10.8065C19.3772 10.6825 19.5243 10.5842 19.6862 10.5171C19.848 10.45 20.0215 10.4155 20.1967 10.4155C20.372 10.4155 20.5455 10.45 20.7073 10.5171C20.8692 10.5842 21.0162 10.6825 21.1401 10.8065C21.264 10.9303 21.3624 11.0774 21.4295 11.2393C21.4966 11.4011 21.5311 11.5746 21.5311 11.7498C21.5311 11.9251 21.4966 12.0986 21.4295 12.2604C21.3624 12.4223 21.264 12.5693 21.1401 12.6932L21.1001 12.7332C20.9464 12.8903 20.8433 13.0898 20.8041 13.3061C20.7649 13.5224 20.7913 13.7454 20.8801 13.9465V13.9998C20.9646 14.197 21.1049 14.3652 21.2838 14.4836C21.4626 14.6021 21.6722 14.6656 21.8867 14.6665H22.0001C22.3537 14.6665 22.6928 14.807 22.9429 15.057C23.1929 15.3071 23.3334 15.6462 23.3334 15.9998C23.3334 16.3535 23.1929 16.6926 22.9429 16.9426C22.6928 17.1927 22.3537 17.3332 22.0001 17.3332H21.9401C21.7256 17.334 21.516 17.3976 21.3371 17.516C21.1582 17.6345 21.0179 17.8027 20.9334 17.9998V17.9998Z" stroke="#111111" stroke-linecap="round" stroke-linejoin="round"/>
</svg>
