<svg width="24" height="24" viewBox="0 0 24 24" fill="none" xmlns="http://www.w3.org/2000/svg">
<rect width="24" height="24" rx="5.05265" fill="#6E71FF"/>
<circle cx="11.9479" cy="11.9474" r="6.63161" fill="#6E71FF" stroke="white" stroke-width="0.631582"/>
<mask id="path-4-inside-1" fill="white">
<path d="M11.9479 18.8948C12.8602 18.8948 13.7636 18.7151 14.6065 18.366C15.4494 18.0168 16.2153 17.5051 16.8604 16.86C17.5056 16.2148 18.0173 15.449 18.3664 14.6061C18.7156 13.7632 18.8953 12.8597 18.8953 11.9474C18.8953 11.0351 18.7156 10.1316 18.3664 9.28874C18.0173 8.44585 17.5056 7.67997 16.8604 7.03485C16.2153 6.38972 15.4494 5.87798 14.6065 5.52884C13.7636 5.1797 12.8602 5 11.9479 5L11.9479 11.9474L11.9479 18.8948Z"/>
</mask>
<path d="M11.9479 18.8948C12.8602 18.8948 13.7636 18.7151 14.6065 18.366C15.4494 18.0168 16.2153 17.5051 16.8604 16.86C17.5056 16.2148 18.0173 15.449 18.3664 14.6061C18.7156 13.7632 18.8953 12.8597 18.8953 11.9474C18.8953 11.0351 18.7156 10.1316 18.3664 9.28874C18.0173 8.44585 17.5056 7.67997 16.8604 7.03485C16.2153 6.38972 15.4494 5.87798 14.6065 5.52884C13.7636 5.1797 12.8602 5 11.9479 5L11.9479 11.9474L11.9479 18.8948Z" fill="white" stroke="white" stroke-width="1.26316" mask="url(#path-4-inside-1)"/>
</svg>
