<svg width="24" height="24" viewBox="0 0 24 24" fill="none" xmlns="http://www.w3.org/2000/svg">
<rect width="24" height="24" rx="5.05265" fill="#DADADA"/>
<circle cx="11.9479" cy="11.9473" r="6.63161" fill="#DADADA" stroke="white" stroke-width="0.631582"/>
<mask id="path-4-inside-1" fill="white">
<path d="M11.9479 18.8947C12.8602 18.8947 13.7636 18.715 14.6065 18.3658C15.4494 18.0167 16.2153 17.505 16.8604 16.8598C17.5056 16.2147 18.0173 15.4488 18.3664 14.6059C18.7156 13.763 18.8953 12.8596 18.8953 11.9473C18.8953 11.0349 18.7156 10.1315 18.3664 9.28863C18.0173 8.44573 17.5056 7.67986 16.8604 7.03473C16.2153 6.38961 15.4494 5.87786 14.6065 5.52872C13.7636 5.17959 12.8602 4.99989 11.9479 4.99989L11.9479 11.9473L11.9479 18.8947Z"/>
</mask>
<path d="M11.9479 18.8947C12.8602 18.8947 13.7636 18.715 14.6065 18.3658C15.4494 18.0167 16.2153 17.505 16.8604 16.8598C17.5056 16.2147 18.0173 15.4488 18.3664 14.6059C18.7156 13.763 18.8953 12.8596 18.8953 11.9473C18.8953 11.0349 18.7156 10.1315 18.3664 9.28863C18.0173 8.44573 17.5056 7.67986 16.8604 7.03473C16.2153 6.38961 15.4494 5.87786 14.6065 5.52872C13.7636 5.17959 12.8602 4.99989 11.9479 4.99989L11.9479 11.9473L11.9479 18.8947Z" fill="white" stroke="white" stroke-width="1.26316" mask="url(#path-4-inside-1)"/>
</svg>
