<svg width="208" height="208" viewBox="0 0 208 208" fill="none" xmlns="http://www.w3.org/2000/svg">
<g clip-path="url(#clip0)">
<path opacity="0.18" d="M15.9833 177.378C18.4129 179.312 21.0658 180.891 23.8743 182.076C28.7357 184.121 33.914 185.037 38.903 186.613C41.1176 187.305 43.291 188.145 45.4232 189.06C58.3362 194.575 70.1871 203.324 83.7709 206.517C108.942 212.478 133.27 198.925 157.33 193.178C177.944 188.265 194.698 200.01 203.021 164.472C206.499 149.678 210.805 134.012 205.54 119.816C200.275 105.62 192.862 92.5085 187.84 78.2407C180.669 57.8639 178.014 34.388 163.903 18.8386C154.131 8.0719 140.165 2.87389 126.33 1.02957C112.495 -0.814744 98.4868 0.368654 84.5572 0.431173C67.779 0.489226 49.9059 -0.787951 35.3959 8.37557C30.2785 11.6579 25.8677 16.0903 22.4598 21.3748C19.0518 26.6594 16.7257 32.6739 15.6375 39.0144C12.7561 56.5153 19.5974 74.6593 16.5226 92.1289C13.6699 108.393 2.52705 122.004 0.349518 138.402C-1.62631 153.165 4.93507 168.652 15.9833 177.378Z" fill="#6E71FF"/>
<path d="M148 142V130C148 123.635 145.471 117.53 140.971 113.029C136.47 108.529 130.365 106 124 106H76C69.6348 106 63.5303 108.529 59.0294 113.029C54.5286 117.53 52 123.635 52 130V142" fill="#6E71FF"/>
<path d="M148 142V130C148 123.635 145.471 117.53 140.971 113.029C136.47 108.529 130.365 106 124 106H76C69.6348 106 63.5303 108.529 59.0294 113.029C54.5286 117.53 52 123.635 52 130V142" fill="url(#paint0_linear)"/>
<path opacity="0.5" d="M59.0294 113.029C63.5303 108.529 69.6348 106 76 106H99.4V142H52V130C52 123.635 54.5286 117.53 59.0294 113.029Z" fill="#6E71FF"/>
<path opacity="0.8" d="M59.0294 113.029C63.5303 108.529 69.6348 106 76 106H99.4V142H52V130C52 123.635 54.5286 117.53 59.0294 113.029Z" fill="url(#paint1_linear)"/>
<path d="M100 100C113.255 100 124 89.2548 124 76C124 62.7452 113.255 52 100 52C86.7452 52 76 62.7452 76 76C76 89.2548 86.7452 100 100 100Z" fill="#6E71FF"/>
<path d="M100 100C113.255 100 124 89.2548 124 76C124 62.7452 113.255 52 100 52C86.7452 52 76 62.7452 76 76C76 89.2548 86.7452 100 100 100Z" fill="url(#paint2_linear)"/>
<path opacity="0.2" d="M100 100C93.6348 100 87.5303 97.4714 83.0294 92.9706C78.5286 88.4697 76 82.3652 76 76C76 69.6348 78.5286 63.5303 83.0294 59.0294C87.5303 54.5286 93.6348 52 100 52V76L100 100Z" fill="#6E71FF"/>
<path opacity="0.6" d="M100 100C93.6348 100 87.5303 97.4714 83.0294 92.9706C78.5286 88.4697 76 82.3652 76 76C76 69.6348 78.5286 63.5303 83.0294 59.0294C87.5303 54.5286 93.6348 52 100 52V76L100 100Z" fill="url(#paint3_linear)"/>
<circle cx="144" cy="138" r="26" fill="#6E71FF"/>
<circle cx="144" cy="138" r="26" fill="url(#paint4_linear)" fill-opacity="0.9"/>
<path fill-rule="evenodd" clip-rule="evenodd" d="M143.729 127.979C144.476 127.979 145.083 128.585 145.083 129.333V136.646H152.666C153.414 136.646 154.02 137.252 154.02 138C154.02 138.748 153.414 139.354 152.666 139.354H145.083V146.666C145.083 147.414 144.476 148.021 143.729 148.021C142.981 148.021 142.374 147.414 142.374 146.666V139.354H135.333C134.585 139.354 133.979 138.748 133.979 138C133.979 137.252 134.585 136.646 135.333 136.646H142.374V129.333C142.374 128.585 142.981 127.979 143.729 127.979Z" fill="#6E71FF"/>
<path fill-rule="evenodd" clip-rule="evenodd" d="M143.729 127.979C144.476 127.979 145.083 128.585 145.083 129.333V136.646H152.666C153.414 136.646 154.02 137.252 154.02 138C154.02 138.748 153.414 139.354 152.666 139.354H145.083V146.666C145.083 147.414 144.476 148.021 143.729 148.021C142.981 148.021 142.374 147.414 142.374 146.666V139.354H135.333C134.585 139.354 133.979 138.748 133.979 138C133.979 137.252 134.585 136.646 135.333 136.646H142.374V129.333C142.374 128.585 142.981 127.979 143.729 127.979Z" fill="url(#paint5_linear)"/>
</g>
<defs>
<linearGradient id="paint0_linear" x1="100" y1="199" x2="100" y2="319" gradientUnits="userSpaceOnUse">
<stop stop-color="white"/>
<stop offset="1" stop-color="white" stop-opacity="0"/>
</linearGradient>
<linearGradient id="paint1_linear" x1="75.7" y1="106" x2="76" y2="181" gradientUnits="userSpaceOnUse">
<stop stop-color="white"/>
<stop offset="1" stop-color="white" stop-opacity="0"/>
</linearGradient>
<linearGradient id="paint2_linear" x1="100" y1="100" x2="100" y2="133" gradientUnits="userSpaceOnUse">
<stop stop-color="white"/>
<stop offset="1" stop-color="white" stop-opacity="0"/>
</linearGradient>
<linearGradient id="paint3_linear" x1="100" y1="52" x2="100" y2="100" gradientUnits="userSpaceOnUse">
<stop stop-color="white"/>
<stop offset="1" stop-color="white" stop-opacity="0"/>
</linearGradient>
<linearGradient id="paint4_linear" x1="144" y1="102.521" x2="144" y2="164" gradientUnits="userSpaceOnUse">
<stop stop-color="#222222"/>
<stop offset="1" stop-color="#212121" stop-opacity="0"/>
</linearGradient>
<linearGradient id="paint5_linear" x1="143.999" y1="127.979" x2="144" y2="160" gradientUnits="userSpaceOnUse">
<stop offset="0.693013" stop-color="white"/>
<stop offset="1" stop-color="white" stop-opacity="0"/>
</linearGradient>
<clipPath id="clip0">
<rect width="208" height="208" fill="white"/>
</clipPath>
</defs>
</svg>
