<svg width="208" height="208" viewBox="0 0 208 208" fill="none" xmlns="http://www.w3.org/2000/svg">
<path opacity="0.18" d="M192.017 177.378C189.587 179.312 186.934 180.891 184.126 182.076C179.264 184.121 174.086 185.037 169.097 186.613C166.882 187.305 164.709 188.145 162.577 189.06C149.664 194.575 137.813 203.324 124.229 206.517C99.0577 212.478 74.7302 198.925 50.6703 193.178C30.0558 188.265 13.3023 200.01 4.97912 164.472C1.50082 149.678 -2.80485 134.012 2.45993 119.816C7.72471 105.62 15.1382 92.5085 20.1601 78.2407C27.3308 57.8639 29.9858 34.388 44.0966 18.8386C53.8687 8.07191 67.8354 2.87389 81.6704 1.02957C95.5053 -0.814744 109.513 0.368654 123.443 0.431173C140.221 0.489226 158.094 -0.787951 172.604 8.37557C177.722 11.6579 182.132 16.0903 185.54 21.3748C188.948 26.6594 191.274 32.6739 192.362 39.0144C195.244 56.5153 188.403 74.6593 191.477 92.1289C194.33 108.393 205.473 122.004 207.65 138.402C209.626 153.165 203.065 168.652 192.017 177.378Z" fill="#6E71FF"/>
<path d="M145.906 113.851L142.582 85.7938L136.352 86.5905L136.355 86.586L124.278 79.5246C122.99 78.7715 121.511 78.4438 120.039 78.585L100.97 80.4174C98.6259 80.6426 96.5313 82.0322 95.3486 84.1471L81.9083 108.182C80.9158 109.957 81.6948 112.233 83.5431 112.958L84.0929 113.174C85.1505 113.589 86.2376 113.829 87.3241 113.923L85.6211 115.464L82.214 118.548L72.5235 127.136C70.7984 128.698 70.6193 131.414 72.1219 133.207L73.105 134.376C75.0347 136.675 78.3935 136.914 80.6106 134.909L84.3142 139.322C85.5183 140.759 87.2825 141.394 88.9773 141.178C89.9959 141.048 90.9897 140.609 91.8196 139.855L95.5191 144.269C96.7276 145.709 98.4915 146.34 100.186 146.123C101.205 145.993 102.199 145.559 103.029 144.805L105.04 146.61C106.97 148.913 110.333 149.151 112.55 147.146L115.283 144.668L138.26 126.076L138.285 126.053L147.35 126.043L145.906 113.851Z" fill="#E6C8D4"/>
<path d="M145.906 113.851L142.582 85.7938L136.352 86.5905L136.355 86.586L124.278 79.5246C122.99 78.7715 121.511 78.4438 120.039 78.585L100.97 80.4174C98.6259 80.6426 96.5313 82.0322 95.3486 84.1471L81.9083 108.182C80.9158 109.957 81.6948 112.233 83.5431 112.958L84.0929 113.174C85.1505 113.589 86.2376 113.829 87.3241 113.923L85.6211 115.464L82.214 118.548L72.5235 127.136C70.7984 128.698 70.6193 131.414 72.1219 133.207L73.105 134.376C75.0347 136.675 78.3935 136.914 80.6106 134.909L84.3142 139.322C85.5183 140.759 87.2825 141.394 88.9773 141.178C89.9959 141.048 90.9897 140.609 91.8196 139.855L95.5191 144.269C96.7276 145.709 98.4915 146.34 100.186 146.123C101.205 145.993 102.199 145.559 103.029 144.805L105.04 146.61C106.97 148.913 110.333 149.151 112.55 147.146L115.283 144.668L138.26 126.076L138.285 126.053L147.35 126.043L145.906 113.851Z" fill="url(#paint0_linear)"/>
<path d="M136.058 118.824L136.034 118.848L113.056 137.44L110.323 139.917C108.106 141.923 104.744 141.685 102.813 139.382L100.803 137.576C99.9726 138.33 98.9783 138.765 97.96 138.895C96.2651 139.112 94.5015 138.481 93.2928 137.04L89.5933 132.626C88.7631 133.38 87.7693 133.819 86.751 133.949C85.0561 134.166 83.292 133.531 82.0879 132.094L78.3843 127.68C76.4862 129.397 73.7533 129.464 71.7947 128.006C70.7902 129.58 70.8704 131.713 72.1226 133.206L73.1056 134.376C75.0354 136.675 78.3942 136.914 80.6113 134.909L84.3149 139.322C85.519 140.759 87.2832 141.394 88.978 141.178C89.9966 141.047 90.9901 140.609 91.8203 139.855L95.5198 144.269C96.7283 145.709 98.4921 146.34 100.187 146.124C101.206 145.993 102.2 145.559 103.03 144.805L105.04 146.61C106.971 148.913 110.333 149.151 112.55 147.146L115.283 144.669L138.261 126.076L138.285 126.053L147.351 126.043L146.348 117.579L136.058 118.824Z" fill="#D2B2C2"/>
<path d="M140.243 130.96L127.932 119.932L124.508 116.867L122.059 114.675L111.526 105.243L112.743 94.4852C113.154 90.8468 110.95 87.4406 107.551 86.4636L84.5921 79.8632C82.1629 79.1648 79.5954 80.3359 78.4462 82.6667L75.559 88.5222L63.1656 87.6482L59.991 115.724L58.6113 127.925L70.675 128.758L70.7001 128.782L95.9026 151.353L98.649 153.814C100.876 155.807 104.238 155.549 106.156 153.235L109.831 148.804C110.665 149.553 111.662 149.982 112.681 150.107C114.377 150.314 116.138 149.672 117.339 148.225L121.015 143.79C121.849 144.539 122.845 144.972 123.864 145.096C125.56 145.303 127.321 144.658 128.517 143.214L132.197 138.779C134.424 140.772 137.782 140.514 139.7 138.203L140.676 137.028C142.17 135.227 141.976 132.512 140.243 130.96Z" fill="#E6C9D4"/>
<path d="M140.243 130.96L127.932 119.932L124.508 116.867L122.059 114.675L111.526 105.243L112.743 94.4852C113.154 90.8468 110.95 87.4406 107.551 86.4636L84.5921 79.8632C82.1629 79.1648 79.5954 80.3359 78.4462 82.6667L75.559 88.5222L63.1656 87.6482L59.991 115.724L58.6113 127.925L70.675 128.758L70.7001 128.782L95.9026 151.353L98.649 153.814C100.876 155.807 104.238 155.549 106.156 153.235L109.831 148.804C110.665 149.553 111.662 149.982 112.681 150.107C114.377 150.314 116.138 149.672 117.339 148.225L121.015 143.79C121.849 144.539 122.845 144.972 123.864 145.096C125.56 145.303 127.321 144.658 128.517 143.214L132.197 138.779C134.424 140.772 137.782 140.514 139.7 138.203L140.676 137.028C142.17 135.227 141.976 132.512 140.243 130.96Z" fill="url(#paint1_linear)"/>
<path d="M140.243 130.96L136.493 127.601C137.712 129.28 137.687 131.669 136.311 133.328L135.274 134.575C133.239 137.028 129.675 137.302 127.31 135.187L123.403 139.894C122.133 141.427 120.264 142.112 118.464 141.892C117.382 141.76 116.324 141.301 115.439 140.505L111.536 145.214C110.262 146.75 108.393 147.431 106.593 147.211C105.511 147.079 104.453 146.624 103.567 145.828L99.6654 150.532C98.9303 151.42 97.9941 152.017 96.9883 152.326L98.6494 153.815C100.877 155.807 104.238 155.55 106.156 153.235L109.832 148.804C110.666 149.553 111.662 149.982 112.682 150.107C114.378 150.314 116.138 149.672 117.339 148.225L121.015 143.79C121.849 144.539 122.845 144.972 123.864 145.097C125.56 145.304 127.321 144.658 128.518 143.214L132.197 138.78C134.425 140.772 137.782 140.514 139.7 138.204L140.677 137.028C142.17 135.227 141.976 132.512 140.243 130.96Z" fill="#E5C6D5"/>
<path d="M133.444 137.303L126.698 131.26C125.897 130.542 124.686 130.635 123.994 131.468C123.303 132.301 123.393 133.559 124.195 134.277L130.928 140.309L132.198 138.78C132.704 139.233 133.271 139.564 133.864 139.786C134.302 138.977 134.147 137.933 133.444 137.303Z" fill="#E5C6D5"/>
<path d="M122.658 144.794C123.12 143.981 122.972 142.916 122.259 142.277L116.199 136.849C115.397 136.131 114.187 136.224 113.495 137.057C112.804 137.89 112.894 139.147 113.696 139.866L119.755 145.294C119.758 145.296 119.76 145.298 119.763 145.3L121.015 143.79C121.514 144.238 122.072 144.571 122.658 144.794Z" fill="#E5C6D5"/>
<path d="M71.3036 128.73L69.8434 130.734C68.2533 132.915 68.6664 136.023 70.7661 137.675C72.8658 139.327 75.8571 138.898 77.4474 136.717L78.9077 134.713C80.4977 132.532 80.0847 129.424 77.985 127.772C75.8852 126.12 72.8937 126.549 71.3036 128.73Z" fill="#E5C6D5"/>
<path d="M71.3036 128.73L69.8434 130.734C68.2533 132.915 68.6664 136.023 70.7661 137.675C72.8658 139.327 75.8571 138.898 77.4474 136.717L78.9077 134.713C80.4977 132.532 80.0847 129.424 77.985 127.772C75.8852 126.12 72.8937 126.549 71.3036 128.73Z" fill="url(#paint2_linear)" fill-opacity="0.85"/>
<path d="M80.1969 132.944L77.4469 136.716C75.8568 138.898 76.2699 142.006 78.3696 143.658C80.4694 145.31 83.4606 144.881 85.051 142.699L87.8009 138.927C89.391 136.745 88.978 133.637 86.8782 131.985C84.7782 130.333 81.787 130.762 80.1969 132.944Z" fill="#E5C6D5"/>
<path d="M80.1969 132.944L77.4469 136.716C75.8568 138.898 76.2699 142.006 78.3696 143.658C80.4694 145.31 83.4606 144.881 85.051 142.699L87.8009 138.927C89.391 136.745 88.978 133.637 86.8782 131.985C84.7782 130.333 81.787 130.762 80.1969 132.944Z" fill="url(#paint3_linear)" fill-opacity="0.85"/>
<path d="M88.7992 137.558L85.0514 142.699C83.4613 144.881 83.8744 147.989 85.9741 149.641C88.0739 151.293 91.0651 150.864 92.6554 148.682L96.4033 143.541C97.9934 141.359 97.5803 138.251 95.4806 136.599C93.3808 134.947 90.3896 135.376 88.7992 137.558Z" fill="#E5C6D5"/>
<path d="M88.7992 137.558L85.0514 142.699C83.4613 144.881 83.8744 147.989 85.9741 149.641C88.0739 151.293 91.0651 150.864 92.6554 148.682L96.4033 143.541C97.9934 141.359 97.5803 138.251 95.4806 136.599C93.3808 134.947 90.3896 135.376 88.7992 137.558Z" fill="url(#paint4_linear)" fill-opacity="0.85"/>
<path d="M96.6212 143.242L92.6559 148.682C91.0658 150.864 91.4789 153.971 93.5786 155.624C95.6783 157.276 98.6696 156.847 100.26 154.665L104.225 149.225C105.815 147.044 105.402 143.936 103.303 142.284C101.203 140.632 98.2113 141.061 96.6212 143.242Z" fill="#E5C6D5"/>
<path d="M96.6212 143.242L92.6559 148.682C91.0658 150.864 91.4789 153.971 93.5786 155.624C95.6783 157.276 98.6696 156.847 100.26 154.665L104.225 149.225C105.815 147.044 105.402 143.936 103.303 142.284C101.203 140.632 98.2113 141.061 96.6212 143.242Z" fill="url(#paint5_linear)" fill-opacity="0.85"/>
<path d="M136.355 86.586L124.278 79.5246C122.99 78.7715 121.511 78.4438 120.039 78.585L100.97 80.4174C98.6262 80.6426 96.5315 82.0322 95.3489 84.1471L81.9085 108.182C80.916 109.957 81.6951 112.233 83.5433 112.958L84.0931 113.174C89.0198 115.107 94.5836 113.462 97.7921 109.124L102.942 102.161C102.942 102.161 115.32 117.051 128.948 99.6617" fill="#EECBC9"/>
<path d="M136.355 86.586L124.278 79.5246C122.99 78.7715 121.511 78.4438 120.039 78.585L100.97 80.4174C98.6262 80.6426 96.5315 82.0322 95.3489 84.1471L81.9085 108.182C80.916 109.957 81.6951 112.233 83.5433 112.958L84.0931 113.174C89.0198 115.107 94.5836 113.462 97.7921 109.124L102.942 102.161C102.942 102.161 115.32 117.051 128.948 99.6617" fill="url(#paint6_linear)" fill-opacity="0.73"/>
<path d="M169.852 129.795L163.536 76.4843C163.473 75.9601 163.213 75.4829 162.813 75.1579C162.412 74.8328 161.904 74.6868 161.399 74.751L146.628 76.6402C142.792 77.131 140.055 80.7728 140.528 84.7583L145.6 127.566C146.036 131.251 149.065 133.959 152.552 133.959C152.836 133.959 153.124 133.941 153.413 133.905L168.184 132.015C169.234 131.881 169.981 130.887 169.852 129.795Z" fill="#6E71FF"/>
<path d="M169.852 129.795L163.536 76.4843C163.473 75.9601 163.213 75.4829 162.813 75.1579C162.412 74.8328 161.904 74.6868 161.399 74.751L146.628 76.6402C142.792 77.131 140.055 80.7728 140.528 84.7583L145.6 127.566C146.036 131.251 149.065 133.959 152.552 133.959C152.836 133.959 153.124 133.941 153.413 133.905L168.184 132.015C169.234 131.881 169.981 130.887 169.852 129.795Z" fill="url(#paint7_linear)"/>
<path d="M169.852 129.795L169.159 123.943C168.845 124.423 168.343 124.765 167.745 124.842L152.262 126.822C151.959 126.861 151.657 126.88 151.359 126.88C148.752 126.88 146.39 125.434 145.083 123.204L145.6 127.566C146.036 131.251 149.065 133.959 152.552 133.959C152.836 133.959 153.124 133.941 153.413 133.904L168.184 132.015C169.235 131.881 169.982 130.887 169.852 129.795Z" fill="#6E71FF"/>
<path d="M169.852 129.795L169.159 123.943C168.845 124.423 168.343 124.765 167.745 124.842L152.262 126.822C151.959 126.861 151.657 126.88 151.359 126.88C148.752 126.88 146.39 125.434 145.083 123.204L145.6 127.566C146.036 131.251 149.065 133.959 152.552 133.959C152.836 133.959 153.124 133.941 153.413 133.904L168.184 132.015C169.235 131.881 169.982 130.887 169.852 129.795Z" fill="url(#paint8_linear)"/>
<path d="M62.2384 76.6401L47.4679 74.7509C46.9626 74.6864 46.4548 74.8327 46.054 75.1577C45.6532 75.4828 45.3933 75.96 45.3311 76.4842L39.0146 129.795C38.8852 130.887 39.6323 131.881 40.6828 132.015L55.4533 133.904C55.7427 133.941 56.0302 133.959 56.3147 133.959C59.8011 133.959 62.8304 131.251 63.267 127.566L68.339 84.7581C68.8114 80.7726 66.0747 77.1308 62.2384 76.6401Z" fill="#6E71FF"/>
<path d="M62.2384 76.6401L47.4679 74.7509C46.9626 74.6864 46.4548 74.8327 46.054 75.1577C45.6532 75.4828 45.3933 75.96 45.3311 76.4842L39.0146 129.795C38.8852 130.887 39.6323 131.881 40.6828 132.015L55.4533 133.904C55.7427 133.941 56.0302 133.959 56.3147 133.959C59.8011 133.959 62.8304 131.251 63.267 127.566L68.339 84.7581C68.8114 80.7726 66.0747 77.1308 62.2384 76.6401Z" fill="url(#paint9_linear)"/>
<path d="M39.0146 129.795L39.708 123.943C40.0224 124.423 40.5244 124.765 41.122 124.842L56.6053 126.822C56.9085 126.861 57.2103 126.88 57.5083 126.88C60.1154 126.88 62.4774 125.434 63.784 123.204L63.2672 127.566C62.8307 131.251 59.8016 133.959 56.315 133.959C56.0307 133.959 55.7427 133.941 55.4536 133.904L40.6831 132.015C39.6321 131.881 38.8852 130.887 39.0146 129.795Z" fill="#6E71FF"/>
<path d="M39.0146 129.795L39.708 123.943C40.0224 124.423 40.5244 124.765 41.122 124.842L56.6053 126.822C56.9085 126.861 57.2103 126.88 57.5083 126.88C60.1154 126.88 62.4774 125.434 63.784 123.204L63.2672 127.566C62.8307 131.251 59.8016 133.959 56.315 133.959C56.0307 133.959 55.7427 133.941 55.4536 133.904L40.6831 132.015C39.6321 131.881 38.8852 130.887 39.0146 129.795Z" fill="url(#paint10_linear)"/>
<path d="M157.676 121.789C159.723 121.789 161.382 120.065 161.382 117.939C161.382 115.813 159.723 114.089 157.676 114.089C155.63 114.089 153.971 115.813 153.971 117.939C153.971 120.065 155.63 121.789 157.676 121.789Z" fill="white"/>
<path d="M51.1402 121.789C53.1868 121.789 54.8459 120.065 54.8459 117.939C54.8459 115.813 53.1868 114.089 51.1402 114.089C49.0936 114.089 47.4346 115.813 47.4346 117.939C47.4346 120.065 49.0936 121.789 51.1402 121.789Z" fill="white"/>
<defs>
<linearGradient id="paint0_linear" x1="101.366" y1="61.2432" x2="143.907" y2="146.143" gradientUnits="userSpaceOnUse">
<stop stop-color="#F2BE8E"/>
<stop offset="1" stop-color="#FFDDDD" stop-opacity="0"/>
</linearGradient>
<linearGradient id="paint1_linear" x1="75.4228" y1="73.0604" x2="138.852" y2="164.831" gradientUnits="userSpaceOnUse">
<stop stop-color="#FFD7B3"/>
<stop offset="1" stop-color="white" stop-opacity="0"/>
</linearGradient>
<linearGradient id="paint2_linear" x1="74.3755" y1="126.766" x2="74.3755" y2="138.68" gradientUnits="userSpaceOnUse">
<stop stop-color="#FDDBC8"/>
<stop offset="1" stop-color="#FFEDC9" stop-opacity="0"/>
</linearGradient>
<linearGradient id="paint3_linear" x1="82.6239" y1="130.98" x2="82.6239" y2="144.663" gradientUnits="userSpaceOnUse">
<stop stop-color="#FDDBC8"/>
<stop offset="1" stop-color="#FFEDC9" stop-opacity="0"/>
</linearGradient>
<linearGradient id="paint4_linear" x1="90.7273" y1="135.594" x2="90.7273" y2="150.646" gradientUnits="userSpaceOnUse">
<stop stop-color="#FDDBC8"/>
<stop offset="1" stop-color="#FFEDC9" stop-opacity="0"/>
</linearGradient>
<linearGradient id="paint5_linear" x1="98.4406" y1="141.278" x2="98.4406" y2="156.629" gradientUnits="userSpaceOnUse">
<stop stop-color="#FDDBC8"/>
<stop offset="1" stop-color="#FFEDC9" stop-opacity="0"/>
</linearGradient>
<linearGradient id="paint6_linear" x1="108.915" y1="78.553" x2="108.915" y2="113.976" gradientUnits="userSpaceOnUse">
<stop stop-color="#FFE092"/>
<stop offset="1" stop-color="#FFC9C9" stop-opacity="0"/>
</linearGradient>
<linearGradient id="paint7_linear" x1="155.171" y1="74.7362" x2="155.171" y2="133.96" gradientUnits="userSpaceOnUse">
<stop stop-color="#1B1B1B"/>
<stop offset="1" stop-color="#606060" stop-opacity="0"/>
</linearGradient>
<linearGradient id="paint8_linear" x1="157.475" y1="123.204" x2="157.475" y2="133.959" gradientUnits="userSpaceOnUse">
<stop stop-color="#303030"/>
<stop offset="1" stop-color="#2C2C2C" stop-opacity="0"/>
</linearGradient>
<linearGradient id="paint9_linear" x1="53.696" y1="74.736" x2="53.559" y2="158.57" gradientUnits="userSpaceOnUse">
<stop stop-color="#0E0E0E"/>
<stop offset="1" stop-color="white" stop-opacity="0"/>
<stop offset="1" stop-color="#434343" stop-opacity="0"/>
</linearGradient>
<linearGradient id="paint10_linear" x1="51.392" y1="123.204" x2="51.392" y2="133.959" gradientUnits="userSpaceOnUse">
<stop stop-color="#494949"/>
<stop offset="1" stop-color="#2E2E2E" stop-opacity="0"/>
</linearGradient>
</defs>
</svg>
