<svg width="208" height="208" viewBox="0 0 208 208" fill="none" xmlns="http://www.w3.org/2000/svg">
<path opacity="0.18" d="M207.357 160.781C206.803 166.99 205.818 173.396 202.832 178.334C200.16 182.798 196.164 185.576 192.194 187.999C166.198 203.741 136.796 207.75 108.07 207.987C85.9418 208.185 63.2592 206.157 42.9978 194.734C23.4288 183.706 6.32707 162.473 1.50536 135.888C1.33096 134.953 1.1822 134.011 1.03858 133.057C-0.213019 124.452 -0.166854 115.55 0.310188 106.781C1.22837 89.9129 3.98803 72.3933 12.385 59.3376C19.7971 47.7961 30.6614 41.1004 40.5407 33.1273C49.0711 26.2407 57.0423 18.182 65.9727 12.1973C77.7705 4.29673 90.9584 0.425436 104.213 0.0238222C127.152 -0.634561 146.408 12.5331 168.383 17.3327C191.399 22.343 191.979 43.9973 194.205 69.7861C195.313 82.5193 199.904 94.2517 203.027 106.425C207.51 123.931 208.987 142.474 207.357 160.781Z" fill="#6E71FF"/>
<path opacity="0.5" d="M208 150.46C208 157.3 207.082 171.61 204.1 177.017C200.2 185.064 195.433 186.271 191.533 189.088C162.933 205.586 135.164 207.726 106.444 207.985C84.3395 208.209 61.6867 205.984 41.4473 193.492C12.1451 175.407 4.81647 158.228 0 129.133H206.7C207.133 134.767 208 142.01 208 150.46Z" fill="#6E71FF"/>
<path d="M155.702 149.15C166.795 149.063 178.008 149.567 188.863 147.298C189.092 144.208 187.056 141.293 184.429 139.657C181.801 138.02 178.662 137.437 175.593 137.042C165.862 135.793 156.023 136.038 146.196 136.313C123.503 136.941 100.811 137.635 78.1208 138.395C66.7756 138.773 55.4304 139.168 44.0853 139.582C37.0067 139.836 32.8719 141.397 28.2625 144.658C27.7533 145.01 27.3558 145.501 27.1169 146.072C26.8781 146.643 26.808 147.271 26.9149 147.881C27.0218 148.491 27.3012 149.057 27.7201 149.513C28.139 149.969 28.6798 150.296 29.2785 150.454C48.0992 155.367 69.9887 154.093 88.822 153.089C111.115 151.911 133.346 149.321 155.702 149.15Z" fill="url(#paint0_linear)"/>
<path d="M82.5008 144.362C84.4953 144.699 86.4191 145.361 88.4052 145.728C90.9036 146.19 93.4852 146.169 96.0335 146.144C114.73 145.858 133.399 144.607 151.967 142.397C153.214 142.321 154.439 142.028 155.585 141.531C156.701 140.973 157.584 140.048 158.587 139.307C161.689 137.017 165.795 136.559 169.642 136.859C173.49 137.159 177.258 138.129 181.106 138.374C181.648 138.458 182.202 138.375 182.696 138.137C183.583 137.6 183.612 136.347 183.529 135.318C183.188 131.387 182.501 127.12 179.578 124.492C176.471 121.681 171.854 121.577 167.669 121.636C164.238 121.681 160.778 121.731 157.43 122.468C153.878 123.268 150.551 124.842 147.058 125.862C140.046 127.902 132.596 127.648 125.297 127.378L84.8534 125.875C79.2613 125.67 73.561 125.458 68.1729 126.974C62.7849 128.489 54.4613 133.536 54.961 140.19C55.3773 145.907 56.36 148.13 60.2574 147.822C64.9876 147.427 77.7707 143.554 82.5008 144.362Z" fill="#6E71FF"/>
<path d="M82.5008 144.362C84.4953 144.699 86.4191 145.361 88.4052 145.728C90.9036 146.19 93.4852 146.169 96.0335 146.144C114.73 145.858 133.399 144.607 151.967 142.397C153.214 142.321 154.439 142.028 155.585 141.531C156.701 140.973 157.584 140.048 158.587 139.307C161.689 137.017 165.795 136.559 169.642 136.859C173.49 137.159 177.258 138.129 181.106 138.374C181.648 138.458 182.202 138.375 182.696 138.137C183.583 137.6 183.612 136.347 183.529 135.318C183.188 131.387 182.501 127.12 179.578 124.492C176.471 121.681 171.854 121.577 167.669 121.636C164.238 121.681 160.778 121.731 157.43 122.468C153.878 123.268 150.551 124.842 147.058 125.862C140.046 127.902 132.596 127.648 125.297 127.378L84.8534 125.875C79.2614 125.67 73.561 125.458 68.1729 126.974C62.7849 128.489 54.4613 133.536 54.961 140.19C55.3773 145.907 56.36 148.13 60.2574 147.822C64.9876 147.427 77.7707 143.554 82.5008 144.362Z" fill="url(#paint1_linear)"/>
<path d="M60.2495 147.802L59.475 147.851C49.007 148.609 33.6589 145.57 31.5478 144.5C29.4368 143.429 27.7587 138.803 28.6331 132.641C29.1203 135.506 30.2529 137.479 31.5478 138.125C33.6673 139.195 49.007 142.234 59.475 141.477H59.5374C59.4916 141.943 59.475 142.413 59.475 142.901C59.4743 144.565 59.7357 146.219 60.2495 147.802Z" fill="#6E71FF"/>
<path d="M156.426 142.818L138.446 144.645C138.446 144.645 112.918 145.553 90.6367 146.428C90.907 145.266 91.0467 144.077 91.0531 142.884C91.0572 141.934 90.9707 140.986 90.7949 140.053C113.043 139.178 138.459 138.271 138.459 138.271L155.901 136.493C155.818 137.136 155.775 137.784 155.772 138.433C155.763 139.919 155.983 141.398 156.426 142.818Z" fill="#6E71FF"/>
<path d="M60.2495 147.802L59.475 147.851C49.007 148.609 33.6589 145.57 31.5478 144.5C29.4368 143.429 27.7587 138.803 28.6331 132.641C29.1203 135.506 30.2529 137.479 31.5478 138.125C33.6673 139.195 49.007 142.234 59.475 141.477H59.5374C59.4916 141.943 59.475 142.413 59.475 142.901C59.4743 144.565 59.7357 146.219 60.2495 147.802Z" fill="url(#paint2_linear)"/>
<path d="M156.426 142.817L138.446 144.645C138.446 144.645 112.918 145.553 90.6367 146.427C90.907 145.265 91.0467 144.077 91.0531 142.884C91.0572 141.934 90.9707 140.986 90.7949 140.052C113.043 139.178 138.459 138.27 138.459 138.27L155.901 136.492C155.818 137.136 155.775 137.784 155.772 138.433C155.763 139.919 155.983 141.398 156.426 142.817Z" fill="url(#paint3_linear)"/>
<path d="M183.088 138.691V138.449C183.088 130.684 176.976 124.355 169.435 124.355C162.947 124.355 157.509 129.031 156.11 135.276C156.008 135.688 155.931 136.105 155.881 136.526L138.439 138.304C138.439 138.304 113.039 139.211 90.775 140.086C90.775 139.952 90.725 139.84 90.7084 139.728C89.9711 136.172 88.031 132.98 85.2149 130.688C82.3988 128.396 78.8788 127.144 75.2479 127.144C71.617 127.144 68.097 128.396 65.2809 130.688C62.4648 132.98 60.5247 136.172 59.7874 139.728C59.6685 140.305 59.5823 140.889 59.5293 141.476H59.4668C48.9988 142.234 33.6508 139.195 31.5397 138.124C30.2447 137.479 29.1122 135.505 28.625 132.641C28.625 132.591 28.625 132.557 28.625 132.512C29.5494 126.266 33.0262 123.401 37.8979 119.604C42.2325 116.222 56.6354 112.208 62.1525 110.751L63.7057 110.335C65.9042 109.752 78.121 103.847 86.8401 99.5586C92.8597 96.5981 99.4259 94.9126 106.127 94.6078C109.042 94.4787 112.406 94.333 115.916 94.1914C122.375 93.9332 129.378 93.6917 135.237 93.6085C150.835 93.3836 165.3 97.7182 166.091 97.9472C166.882 98.1762 171.675 105.68 173.728 108.186C175.781 110.693 182.497 116.618 182.497 116.618C182.497 116.618 184.579 116.843 185.961 125.191C185.961 125.337 186.011 125.466 186.024 125.608C186.729 130.183 185.681 134.856 183.088 138.691Z" fill="#6E71FF"/>
<path d="M29.9365 129.638C33.684 131.221 37.8479 131.662 41.9077 131.675C43.8821 131.739 45.856 131.533 47.7746 131.062C49.6244 130.473 51.4046 129.685 53.0835 128.71C57.8553 126.17 62.6396 123.656 67.4364 121.169C69.5183 120.086 71.6378 119 73.9196 118.458C76.1014 117.942 78.3624 117.934 80.6026 117.93L98.6364 117.9C115.708 117.871 132.818 112.396 149.852 111.509C158.099 111.08 166.364 111.122 174.606 111.634C171.524 110.27 168.661 108.459 166.108 106.258C165.387 105.638 164.655 104.917 164.471 103.985C164.309 103.152 164.625 102.278 164.596 101.42C164.542 99.8375 163.289 98.5051 161.836 97.8597C160.382 97.2143 158.754 97.1518 157.172 97.0935C143.476 96.5744 129.779 96.072 116.083 95.5862C110.624 95.3988 105.14 95.2198 99.719 95.8943C81.7019 98.1428 66.2539 109.469 49.157 115.585C45.143 117.026 41 118.188 37.2275 120.166C33.455 122.143 31.4938 125.67 29.9365 129.638Z" fill="url(#paint4_linear)" fill-opacity="0.2"/>
<path d="M115.942 94.2121C115.717 94.5702 114.955 94.8742 113.498 95.1198C104.05 96.7063 87.3028 108.773 80.6031 111.284C73.9034 113.795 62.382 111.509 62.382 111.509C62.304 111.259 62.24 111.004 62.1904 110.747L63.7436 110.33C65.9421 109.748 78.1589 103.843 86.8781 99.5544C92.8976 96.5938 99.4638 94.9083 106.165 94.6035C109.084 94.4869 112.432 94.3412 115.942 94.2121Z" fill="url(#paint5_linear)"/>
<path d="M87.6434 113.25C87.4435 113.411 87.3 113.631 87.2336 113.88C87.1672 114.128 87.1813 114.39 87.274 114.63C87.3667 114.87 87.533 115.073 87.7491 115.212C87.9652 115.351 88.2198 115.418 88.4762 115.402C101.13 114.57 141.287 111.863 145.105 111.097C149.66 110.185 159.679 109.277 161.344 106.1C163.01 102.923 161.989 99.3423 161.989 99.3423C161.989 99.3423 131.818 94.0042 116.691 97.3936C104.815 100.042 93.2313 108.749 87.6434 113.25Z" fill="url(#paint6_linear)"/>
<path d="M41.4111 125.525C41.4111 125.525 52.4954 116.868 54.9229 116.26C57.3505 115.652 72.2363 116.11 72.2363 116.11C72.2363 116.11 67.8309 119.441 65.2493 120.362C62.6677 121.282 44.9005 126.133 41.4111 125.525Z" fill="url(#paint7_linear)"/>
<path d="M75.1527 154.38C81.9643 154.38 87.4861 148.858 87.4861 142.047C87.4861 135.235 81.9643 129.713 75.1527 129.713C68.3412 129.713 62.8193 135.235 62.8193 142.047C62.8193 148.858 68.3412 154.38 75.1527 154.38Z" fill="#606161"/>
<path d="M75.1527 154.38C81.9643 154.38 87.4861 148.858 87.4861 142.047C87.4861 135.235 81.9643 129.713 75.1527 129.713C68.3412 129.713 62.8193 135.235 62.8193 142.047C62.8193 148.858 68.3412 154.38 75.1527 154.38Z" fill="url(#paint8_linear)"/>
<path d="M75.2974 151.036C80.175 151.036 84.129 147.082 84.129 142.205C84.129 137.327 80.175 133.373 75.2974 133.373C70.4199 133.373 66.4658 137.327 66.4658 142.205C66.4658 147.082 70.4199 151.036 75.2974 151.036Z" fill="#6E71FF"/>
<path d="M169.502 150.129C175.918 150.129 181.119 144.928 181.119 138.512C181.119 132.096 175.918 126.895 169.502 126.895C163.086 126.895 157.885 132.096 157.885 138.512C157.885 144.928 163.086 150.129 169.502 150.129Z" fill="#606161"/>
<path d="M169.502 150.129C175.918 150.129 181.119 144.928 181.119 138.512C181.119 132.096 175.918 126.895 169.502 126.895C163.086 126.895 157.885 132.096 157.885 138.512C157.885 144.928 163.086 150.129 169.502 150.129Z" fill="url(#paint9_linear)"/>
<path d="M169.635 146.981C174.23 146.981 177.954 143.256 177.954 138.662C177.954 134.067 174.23 130.342 169.635 130.342C165.04 130.342 161.315 134.067 161.315 138.662C161.315 143.256 165.04 146.981 169.635 146.981Z" fill="#6E71FF"/>
<path d="M75.3316 149.734C79.3813 149.734 82.6642 146.451 82.6642 142.401C82.6642 138.351 79.3813 135.069 75.3316 135.069C71.2819 135.069 67.999 138.351 67.999 142.401C67.999 146.451 71.2819 149.734 75.3316 149.734Z" fill="url(#paint10_linear)"/>
<path d="M169.672 145.27C173.345 145.27 176.322 142.292 176.322 138.62C176.322 134.947 173.345 131.97 169.672 131.97C166 131.97 163.022 134.947 163.022 138.62C163.022 142.292 166 145.27 169.672 145.27Z" fill="url(#paint11_linear)"/>
<path d="M94.07 76.6608C84.6123 77.0905 75.0873 75.6042 65.5841 75.6417C56.7799 75.6811 47.7618 76.9978 39.32 74.4866C38.1437 74.1337 36.7358 73.2763 37.0427 72.0877C41.0408 71.1396 44.4073 68.4883 48.2549 67.0179C51.7613 65.6825 55.5731 65.3507 59.2592 66.0599C61.4612 66.4975 63.6771 67.2938 65.893 66.941C67.7247 66.6492 69.3248 65.5927 71.01 64.8358C72.0714 64.3528 73.418 64.1064 74.8814 64C78.4458 65.5474 82.3529 66.5625 85.745 68.4726C89.2521 70.4496 92.0224 73.298 94.07 76.6608Z" fill="url(#paint12_linear)"/>
<path d="M158.07 47.3365C152.59 47.5855 147.07 46.7242 141.563 46.7459C136.462 46.7688 131.236 47.5318 126.344 46.0766C125.663 45.8721 124.847 45.3753 125.025 44.6865C127.342 44.1371 129.292 42.6008 131.522 41.7487C133.554 40.9749 135.762 40.7827 137.898 41.1936C139.174 41.4472 140.458 41.9086 141.742 41.7042C142.804 41.5351 143.731 40.9229 144.708 40.4843C145.323 40.2045 146.103 40.0617 146.951 40C149.016 40.8966 151.28 41.4849 153.246 42.5917C155.278 43.7373 156.884 45.3878 158.07 47.3365Z" fill="url(#paint13_linear)"/>
<defs>
<linearGradient id="paint0_linear" x1="71953.3" y1="4037.72" x2="72014.2" y2="15011.4" gradientUnits="userSpaceOnUse">
<stop stop-color="#010101" stop-opacity="0"/>
<stop offset="0.95" stop-color="#010101"/>
</linearGradient>
<linearGradient id="paint1_linear" x1="119.096" y1="107.107" x2="118.159" y2="165.621" gradientUnits="userSpaceOnUse">
<stop offset="0.177626" stop-opacity="0"/>
<stop offset="0.771169"/>
<stop offset="0.932855" stop-opacity="0.75"/>
</linearGradient>
<linearGradient id="paint2_linear" x1="44.8095" y1="123.99" x2="42.9501" y2="162.247" gradientUnits="userSpaceOnUse">
<stop offset="0.177626" stop-opacity="0"/>
<stop offset="0.771169"/>
<stop offset="0.932855" stop-opacity="0.75"/>
</linearGradient>
<linearGradient id="paint3_linear" x1="123.598" y1="129.618" x2="123.17" y2="155.716" gradientUnits="userSpaceOnUse">
<stop offset="0.177626" stop-opacity="0"/>
<stop offset="0.771169"/>
<stop offset="0.932855" stop-opacity="0.75"/>
</linearGradient>
<linearGradient id="paint4_linear" x1="63324.4" y1="11773.6" x2="63317.8" y2="5132.98" gradientUnits="userSpaceOnUse">
<stop stop-color="white" stop-opacity="0"/>
<stop offset="0.95" stop-color="white"/>
</linearGradient>
<linearGradient id="paint5_linear" x1="44.8091" y1="117.237" x2="114.558" y2="96.4967" gradientUnits="userSpaceOnUse">
<stop stop-opacity="0"/>
<stop offset="0.177626" stop-opacity="0"/>
<stop offset="0.771169"/>
<stop offset="0.932855" stop-opacity="0.75"/>
</linearGradient>
<linearGradient id="paint6_linear" x1="61.1297" y1="130.744" x2="173.154" y2="100.285" gradientUnits="userSpaceOnUse">
<stop offset="0.177626" stop-opacity="0"/>
<stop offset="0.771169"/>
<stop offset="0.932855" stop-opacity="0.75"/>
</linearGradient>
<linearGradient id="paint7_linear" x1="56.8809" y1="131.662" x2="57.0653" y2="120.217" gradientUnits="userSpaceOnUse">
<stop offset="0.02" stop-color="white" stop-opacity="0"/>
<stop offset="0.58" stop-color="white" stop-opacity="0.39"/>
<stop offset="1" stop-color="white"/>
</linearGradient>
<linearGradient id="paint8_linear" x1="8361.72" y1="8065.51" x2="9603.19" y2="6864.73" gradientUnits="userSpaceOnUse">
<stop stop-color="#010101" stop-opacity="0"/>
<stop offset="0.95" stop-color="#010101"/>
</linearGradient>
<linearGradient id="paint9_linear" x1="13325.5" y1="6694.34" x2="14622" y2="6694.34" gradientUnits="userSpaceOnUse">
<stop stop-color="#010101" stop-opacity="0"/>
<stop offset="0.95" stop-color="#010101"/>
</linearGradient>
<linearGradient id="paint10_linear" x1="75.1998" y1="114.986" x2="71.2416" y2="169.287" gradientUnits="userSpaceOnUse">
<stop offset="0.177626" stop-opacity="0"/>
<stop offset="0.771169"/>
<stop offset="0.932855" stop-opacity="0.75"/>
</linearGradient>
<linearGradient id="paint11_linear" x1="169.553" y1="113.758" x2="165.963" y2="163.002" gradientUnits="userSpaceOnUse">
<stop offset="0.177626" stop-opacity="0"/>
<stop offset="0.771169"/>
<stop offset="0.932855" stop-opacity="0.75"/>
</linearGradient>
<linearGradient id="paint12_linear" x1="30396.5" y1="1402.21" x2="30293.3" y2="3442.51" gradientUnits="userSpaceOnUse">
<stop stop-color="white" stop-opacity="0.27"/>
<stop offset="0.95" stop-color="white"/>
</linearGradient>
<linearGradient id="paint13_linear" x1="17717.2" y1="815.447" x2="17657.4" y2="1997.72" gradientUnits="userSpaceOnUse">
<stop stop-color="white" stop-opacity="0.27"/>
<stop offset="0.95" stop-color="white"/>
</linearGradient>
</defs>
</svg>
