<svg width="208" height="208" viewBox="0 0 208 208" fill="none" xmlns="http://www.w3.org/2000/svg">
<path opacity="0.18" d="M207.357 160.781C206.803 166.99 205.818 173.396 202.832 178.334C200.16 182.798 196.164 185.576 192.194 187.999C166.198 203.741 136.796 207.75 108.07 207.987C85.9418 208.185 63.2592 206.157 42.9978 194.734C23.4288 183.706 6.32707 162.473 1.50536 135.888C1.33096 134.953 1.1822 134.011 1.03858 133.057C-0.213019 124.452 -0.166854 115.55 0.310188 106.781C1.22837 89.9129 3.98803 72.3933 12.385 59.3376C19.7971 47.7961 30.6614 41.1004 40.5407 33.1273C49.0711 26.2407 57.0423 18.182 65.9727 12.1973C77.7705 4.29673 90.9584 0.425436 104.213 0.0238222C127.152 -0.634561 146.408 12.5331 168.383 17.3327C191.399 22.343 191.979 43.9973 194.205 69.7861C195.313 82.5193 199.904 94.2517 203.027 106.425C207.51 123.931 208.987 142.474 207.357 160.781Z" fill="#6E71FF"/>
<path opacity="0.37" d="M208 150.459C208 157.3 207.082 171.61 204.1 177.017C200.2 185.064 195.433 186.271 191.533 189.088C162.933 205.586 135.164 207.726 106.444 207.985C84.3395 208.209 61.6867 205.984 41.4473 193.492C12.1451 175.407 4.81647 158.228 0 129.133H206.7C207.133 134.767 208 142.009 208 150.459Z" fill="#6E71FF"/>
<path d="M32.4681 152.167C30.9353 153.832 29.4025 155.616 29.4025 157.572C29.3718 161.149 34.3432 163.785 39.2532 165.104C45.7522 166.846 52.8388 167.265 59.8181 167.607C86.8973 168.951 114.089 169.482 141.255 170.014C152.358 170.233 163.593 170.438 174.43 168.813C178.466 168.205 182.875 167.091 184.546 164.542C186.631 161.353 183.422 157.388 185.599 154.236C186.748 152.57 189.262 151.38 189.931 149.597C190.723 147.471 188.45 145.259 185.542 144.278C182.635 143.297 179.248 143.256 175.993 143.21C152.426 142.982 128.855 142.812 105.281 142.699L57.9277 142.423C53.0227 142.398 42.2881 140.891 38.0985 142.888C34.6702 144.503 34.803 149.612 32.4681 152.167Z" fill="url(#paint0_linear)"/>
<path opacity="0.74" d="M55.9792 103.367C55.3006 104.151 54.6221 104.991 54.6221 105.913C54.6086 107.597 56.8092 108.839 58.9827 109.46C61.8596 110.28 64.9966 110.478 68.0861 110.639C80.0731 111.272 92.1099 111.522 104.135 111.772C109.05 111.876 114.024 111.972 118.821 111.207C120.607 110.921 122.559 110.396 123.299 109.195C124.222 107.694 122.801 105.826 123.765 104.342C124.274 103.557 125.386 102.996 125.683 102.157C126.033 101.156 125.027 100.114 123.74 99.6516C122.453 99.1896 120.953 99.1704 119.513 99.1487C109.08 99.0412 98.6462 98.961 88.2107 98.9081L67.2492 98.7781C65.078 98.7661 60.3262 98.0562 58.4716 98.9971C56.954 99.7575 57.0128 102.164 55.9792 103.367Z" fill="#6E71FF"/>
<path d="M46.3281 138.631H68.1759V158.663C68.1759 159.364 68.0461 160.058 67.7941 160.705C67.542 161.353 67.1725 161.941 66.7067 162.437C66.2409 162.932 65.688 163.326 65.0794 163.594C64.4708 163.862 63.8185 164 63.1598 164H51.3442C50.6855 164 50.0332 163.862 49.4246 163.594C48.8161 163.326 48.2631 162.932 47.7973 162.437C47.3315 161.941 46.962 161.353 46.71 160.705C46.4579 160.058 46.3281 159.364 46.3281 158.663V138.631Z" fill="#090909"/>
<path d="M153.207 138.631H175.06V158.663C175.06 159.364 174.93 160.058 174.678 160.705C174.426 161.353 174.056 161.941 173.59 162.437C173.125 162.932 172.572 163.326 171.963 163.594C171.355 163.862 170.702 164 170.044 164H158.223C157.564 164 156.912 163.862 156.304 163.594C155.695 163.326 155.142 162.932 154.676 162.437C154.21 161.941 153.841 161.353 153.589 160.705C153.337 160.058 153.207 159.364 153.207 158.663V138.631Z" fill="#090909"/>
<path d="M49.3618 92.8006H59.7284V83.5191H49.3618C48.205 83.5191 47.0955 84.008 46.2775 84.8783C45.4595 85.7487 45 86.929 45 88.1598C45 89.3906 45.4595 90.571 46.2775 91.4413C47.0955 92.3116 48.205 92.8006 49.3618 92.8006Z" fill="#6E71FF"/>
<path d="M171.638 92.8006H161.271V83.5191H171.638C172.795 83.5191 173.904 84.008 174.722 84.8783C175.54 85.7487 176 86.929 176 88.1598C176 89.3906 175.54 90.571 174.722 91.4413C173.904 92.3116 172.795 92.8006 171.638 92.8006Z" fill="#6E71FF"/>
<path d="M49.3618 92.8006H59.7284V83.5191H49.3618C48.205 83.5191 47.0955 84.008 46.2775 84.8783C45.4595 85.7487 45 86.929 45 88.1598C45 89.3906 45.4595 90.571 46.2775 91.4413C47.0955 92.3116 48.205 92.8006 49.3618 92.8006Z" fill="url(#paint1_linear)"/>
<path d="M171.638 92.8006H161.271V83.5191H171.638C172.795 83.5191 173.904 84.008 174.722 84.8783C175.54 85.7487 176 86.929 176 88.1598C176 89.3906 175.54 90.571 174.722 91.4413C173.904 92.3116 172.795 92.8006 171.638 92.8006Z" fill="url(#paint2_linear)"/>
<path d="M49.7392 102.206C47.4933 108.415 46.3432 115.012 46.3467 121.666L74.7953 136.81L143.687 136.955L175.078 121.666C175.079 115.013 173.929 108.416 171.685 102.206H49.7392Z" fill="#6E71FF"/>
<path d="M49.7392 102.206C47.4933 108.415 46.3432 115.012 46.3467 121.666L74.7953 136.81L143.687 136.955L175.078 121.666C175.079 115.013 173.929 108.416 171.685 102.206H49.7392Z" fill="url(#paint3_linear)"/>
<path d="M137.102 58H84.4551C79.6339 57.9997 74.9322 59.5961 71.0025 62.5677C67.0727 65.5392 64.1098 69.7386 62.5249 74.5829L58.6865 86.3034H162.885L159.042 74.5829C157.457 69.7365 154.493 65.5355 150.561 62.5637C146.629 59.5919 141.925 57.9968 137.102 58Z" fill="#6E71FF"/>
<path d="M157.851 86.3036H62.1533L66.0305 74.2943C67.2562 70.5193 69.5586 67.2453 72.6167 64.9289C75.6748 62.6126 79.3361 61.3693 83.09 61.3724H137.627C141.563 61.3722 145.391 62.7425 148.527 65.274C151.662 67.8056 153.933 71.3593 154.992 75.3926L157.851 86.3036Z" fill="url(#paint4_linear)"/>
<path d="M157.851 86.3036H62.1533L66.0305 74.2943C67.2562 70.5193 69.5586 67.2453 72.6167 64.9289C75.6748 62.6126 79.3361 61.3693 83.09 61.3724H137.627C141.563 61.3722 145.391 62.7425 148.527 65.274C151.662 67.8056 153.933 71.3593 154.992 75.3926L157.851 86.3036Z" fill="url(#paint5_linear)"/>
<path d="M49.7383 102.206C89.7569 107.569 130.246 107.63 170.279 102.386L171.646 102.206C169.678 96.7657 166.895 91.7003 163.407 87.2057L162.694 86.2879H58.6848L57.9675 87.2057C54.4836 91.702 51.7048 96.7671 49.7383 102.206Z" fill="#6E71FF"/>
<path d="M49.7383 102.206C89.7569 107.569 130.246 107.63 170.279 102.386L171.646 102.206C169.678 96.7657 166.895 91.7003 163.407 87.2057L162.694 86.2879H58.6848L57.9675 87.2057C54.4836 91.702 51.7048 96.7671 49.7383 102.206Z" fill="url(#paint6_linear)"/>
<path d="M175.926 132.159L175.059 121.682H173.673L160.747 125.673C151.28 128.601 141.47 130.087 131.611 130.087H88.3899C78.5305 130.087 68.7207 128.601 59.2531 125.673L46.3277 121.682L45.4601 132.159C45.2525 134.676 45.5391 137.211 46.3018 139.604C47.0645 141.997 48.2866 144.194 49.8905 146.057C51.4943 147.92 53.4449 149.408 55.6183 150.426C57.7916 151.444 60.1402 151.97 62.5148 151.97H158.872C161.246 151.97 163.595 151.444 165.768 150.426C167.942 149.408 169.892 147.92 171.496 146.057C173.1 144.194 174.322 141.997 175.085 139.604C175.847 137.211 176.134 134.676 175.926 132.159Z" fill="#6E71FF"/>
<path d="M175.926 132.159L175.059 121.682H173.673L160.747 125.673C151.28 128.601 141.47 130.087 131.611 130.087H88.3899C78.5305 130.087 68.7207 128.601 59.2531 125.673L46.3277 121.682L45.4601 132.159C45.2525 134.676 45.5391 137.211 46.3018 139.604C47.0645 141.997 48.2866 144.194 49.8905 146.057C51.4943 147.92 53.4449 149.408 55.6183 150.426C57.7916 151.444 60.1402 151.97 62.5148 151.97H158.872C161.246 151.97 163.595 151.444 165.768 150.426C167.942 149.408 169.892 147.92 171.496 146.057C173.1 144.194 174.322 141.997 175.085 139.604C175.847 137.211 176.134 134.676 175.926 132.159Z" fill="url(#paint7_linear)"/>
<path d="M110.692 107.805H84.9043L90.0464 123.563H110.692H131.333L136.48 107.805H110.692Z" fill="#6E71FF"/>
<path d="M110.692 107.805H84.9043L90.0464 123.563H110.692H131.333L136.48 107.805H110.692Z" fill="url(#paint8_linear)"/>
<path d="M110.694 109.053H86.7959L91.5599 122.316H110.694H129.827L134.591 109.053H110.694Z" fill="#6E71FF"/>
<path d="M110.694 109.053H86.7959L91.5599 122.316H110.694H129.827L134.591 109.053H110.694Z" fill="url(#paint9_linear)"/>
<path d="M134.398 110.569H86.7959V112.23H134.398V110.569Z" fill="#6E71FF"/>
<path d="M134.398 110.569H86.7959V112.23H134.398V110.569Z" fill="url(#paint10_linear)"/>
<path d="M133.07 114.854H88.3369V116.515H133.07V114.854Z" fill="#6E71FF"/>
<path d="M133.07 114.854H88.3369V116.515H133.07V114.854Z" fill="url(#paint11_linear)"/>
<path d="M131.373 119.139H89.4268V120.8H131.373V119.139Z" fill="#6E71FF"/>
<path d="M131.373 119.139H89.4268V120.8H131.373V119.139Z" fill="url(#paint12_linear)"/>
<path d="M148.369 147.855H73.0361C73.0361 142.761 79.5498 138.631 87.5755 138.631H133.806C141.841 138.631 148.345 142.756 148.345 147.855H148.369Z" fill="#6E71FF"/>
<path d="M148.369 147.855H73.0361C73.0361 142.761 79.5498 138.631 87.5755 138.631H133.806C141.841 138.631 148.345 142.756 148.345 147.855H148.369Z" fill="url(#paint13_linear)"/>
<path d="M138.856 105.413L157.849 86.3033H62.1465L82.3562 105.382C101.173 106.555 120.038 106.565 138.856 105.413Z" fill="#6E71FF"/>
<path d="M138.856 105.413L157.849 86.3033H62.1465L82.3562 105.382C101.173 106.555 120.038 106.565 138.856 105.413Z" fill="url(#paint14_linear)"/>
<path d="M81.3013 107.924C81.3013 107.924 56.4245 105.939 53.7251 107.038C51.0256 108.136 49.3633 117.866 49.3633 117.866L86.6809 123.162L81.3013 107.924Z" fill="#6E71FF"/>
<path d="M81.3013 107.924C81.3013 107.924 56.4245 105.939 53.7251 107.038C51.0256 108.136 49.3633 117.866 49.3633 117.866L86.6809 123.162L81.3013 107.924Z" fill="url(#paint15_linear)"/>
<path d="M140.15 107.924C140.15 107.924 165.032 105.939 167.726 107.038C170.421 108.136 172.088 117.866 172.088 117.866L134.771 123.162L140.15 107.924Z" fill="white"/>
<path d="M93.3382 71.8858C93.271 72.0299 93.1731 72.1552 93.0523 72.2519C92.9175 71.7449 92.7373 71.2528 92.5143 70.7823L91.2979 67.9875C91.5375 67.8538 91.7962 67.7632 92.0636 67.7194C92.4233 67.656 92.7921 67.7448 93.0911 67.9669C93.2941 68.1532 93.438 68.4018 93.503 68.6785C93.6081 69.1164 93.6586 69.5672 93.6532 70.0192C93.723 70.6608 93.6134 71.3101 93.3382 71.8858Z" fill="url(#paint16_linear)"/>
<path d="M83.0889 61.3724L102.867 86.2314L123.46 86.0818L105.77 61.8159L83.0889 61.3724Z" fill="url(#paint17_linear)"/>
<defs>
<linearGradient id="paint0_linear" x1="283.887" y1="237.65" x2="23.4677" y2="90.9713" gradientUnits="userSpaceOnUse">
<stop offset="0.079127"/>
<stop offset="0.83" stop-opacity="0.07"/>
<stop offset="1" stop-opacity="0"/>
</linearGradient>
<linearGradient id="paint1_linear" x1="51.7899" y1="72.9537" x2="53.4297" y2="105.372" gradientUnits="userSpaceOnUse">
<stop offset="0.01"/>
<stop offset="0.83" stop-opacity="0.07"/>
<stop offset="1" stop-opacity="0"/>
</linearGradient>
<linearGradient id="paint2_linear" x1="5070.95" y1="1112.83" x2="5088.47" y2="1697.34" gradientUnits="userSpaceOnUse">
<stop offset="0.01"/>
<stop offset="0.83" stop-opacity="0.07"/>
<stop offset="1" stop-opacity="0"/>
</linearGradient>
<linearGradient id="paint3_linear" x1="110.352" y1="60.5969" x2="107.21" y2="151.281" gradientUnits="userSpaceOnUse">
<stop offset="0.01"/>
<stop offset="0.83" stop-opacity="0.07"/>
<stop offset="1" stop-opacity="0"/>
</linearGradient>
<linearGradient id="paint4_linear" x1="93.5323" y1="46.5751" x2="120.961" y2="107.116" gradientUnits="userSpaceOnUse">
<stop/>
<stop offset="1" stop-color="#161616" stop-opacity="0"/>
</linearGradient>
<linearGradient id="paint5_linear" x1="172.074" y1="45.6295" x2="69.435" y2="-4.07527" gradientUnits="userSpaceOnUse">
<stop offset="0.079127"/>
<stop offset="0.83" stop-opacity="0.07"/>
<stop offset="1" stop-opacity="0"/>
</linearGradient>
<linearGradient id="paint6_linear" x1="119.393" y1="0.246265" x2="102.699" y2="77.1903" gradientUnits="userSpaceOnUse">
<stop stop-opacity="0"/>
<stop offset="0.01"/>
<stop offset="0.83" stop-opacity="0.07"/>
</linearGradient>
<linearGradient id="paint7_linear" x1="105.601" y1="87.2031" x2="107.575" y2="193.231" gradientUnits="userSpaceOnUse">
<stop offset="0.01"/>
<stop offset="0.83" stop-opacity="0.07"/>
<stop offset="1" stop-opacity="0"/>
</linearGradient>
<linearGradient id="paint8_linear" x1="169.351" y1="131.436" x2="109.374" y2="99.3103" gradientUnits="userSpaceOnUse">
<stop offset="0.02" stop-color="white" stop-opacity="0"/>
<stop offset="0.58" stop-color="white" stop-opacity="0.39"/>
<stop offset="1" stop-color="white"/>
</linearGradient>
<linearGradient id="paint9_linear" x1="10215.6" y1="2102.1" x2="10226.7" y2="3085.24" gradientUnits="userSpaceOnUse">
<stop offset="0.01"/>
<stop offset="0.83" stop-opacity="0.07"/>
<stop offset="1" stop-opacity="0"/>
</linearGradient>
<linearGradient id="paint10_linear" x1="164.736" y1="113.059" x2="161.64" y2="98.5356" gradientUnits="userSpaceOnUse">
<stop offset="0.02" stop-color="white" stop-opacity="0"/>
<stop offset="0.58" stop-color="white" stop-opacity="0.39"/>
<stop offset="1" stop-color="white"/>
</linearGradient>
<linearGradient id="paint11_linear" x1="161.579" y1="117.344" x2="158.304" y2="102.904" gradientUnits="userSpaceOnUse">
<stop offset="0.02" stop-color="white" stop-opacity="0"/>
<stop offset="0.58" stop-color="white" stop-opacity="0.39"/>
<stop offset="1" stop-color="white"/>
</linearGradient>
<linearGradient id="paint12_linear" x1="158.106" y1="121.629" x2="154.637" y2="107.285" gradientUnits="userSpaceOnUse">
<stop offset="0.02" stop-color="white" stop-opacity="0"/>
<stop offset="0.58" stop-color="white" stop-opacity="0.39"/>
<stop offset="1" stop-color="white"/>
</linearGradient>
<linearGradient id="paint13_linear" x1="111.23" y1="136.26" x2="111.23" y2="162.537" gradientUnits="userSpaceOnUse">
<stop stop-color="#0C0C0C"/>
<stop offset="1" stop-color="#050505" stop-opacity="0"/>
</linearGradient>
<linearGradient id="paint14_linear" x1="118.983" y1="19.9261" x2="101.672" y2="130.365" gradientUnits="userSpaceOnUse">
<stop offset="0.01"/>
<stop offset="0.83" stop-opacity="0.07"/>
<stop offset="1" stop-opacity="0"/>
</linearGradient>
<linearGradient id="paint15_linear" x1="110.464" y1="131.382" x2="61.3789" y2="113.165" gradientUnits="userSpaceOnUse">
<stop offset="0.02" stop-color="white" stop-opacity="0"/>
<stop offset="0.58" stop-color="white" stop-opacity="0.39"/>
<stop offset="1" stop-color="white"/>
</linearGradient>
<linearGradient id="paint16_linear" x1="537.175" y1="592.691" x2="503.839" y2="594.963" gradientUnits="userSpaceOnUse">
<stop offset="0.01"/>
<stop offset="0.83" stop-opacity="0.07"/>
<stop offset="1" stop-opacity="0"/>
</linearGradient>
<linearGradient id="paint17_linear" x1="105.295" y1="42.4743" x2="94.3078" y2="192.731" gradientUnits="userSpaceOnUse">
<stop offset="0.02" stop-color="white" stop-opacity="0"/>
<stop offset="0.39" stop-color="white" stop-opacity="0.39"/>
<stop offset="1" stop-color="white"/>
</linearGradient>
</defs>
</svg>
