<svg width="209" height="208" viewBox="0 0 209 208" fill="none" xmlns="http://www.w3.org/2000/svg">
<path opacity="0.18" d="M207.357 160.781C206.803 166.99 205.818 173.396 202.832 178.334C200.16 182.798 196.164 185.576 192.194 187.999C166.198 203.741 136.796 207.75 108.07 207.987C85.9418 208.185 63.2592 206.157 42.9978 194.734C23.4288 183.706 6.32707 162.473 1.50536 135.888C1.33096 134.953 1.1822 134.011 1.03858 133.057C-0.213019 124.452 -0.166854 115.55 0.310188 106.781C1.22837 89.9129 3.98803 72.3933 12.385 59.3376C19.7971 47.7961 30.6614 41.1004 40.5407 33.1273C49.0711 26.2407 57.0423 18.182 65.9727 12.1973C77.7705 4.29673 90.9584 0.425436 104.213 0.0238222C127.152 -0.634561 146.408 12.5331 168.383 17.3327C191.399 22.343 191.979 43.9973 194.205 69.7861C195.313 82.5193 199.904 94.2517 203.027 106.425C207.51 123.931 208.987 142.474 207.357 160.781Z" fill="#6E71FF"/>
<path opacity="0.4" d="M202.832 178.334C205.818 173.396 206.803 166.99 207.357 160.781C208.987 142.474 207.357 129 206 124L0 123.5C0 124.5 1.33095 134.953 1.50536 135.888C6.32707 162.473 23.4288 183.706 42.9978 194.734C63.2592 206.157 85.9418 208.185 108.07 207.987C136.796 207.75 166.198 203.741 192.194 187.999C196.164 185.576 200.16 182.798 202.832 178.334Z" fill="#6E71FF"/>
<path d="M44.3135 143.986H65.9313V162.616C65.9313 163.268 65.8029 163.913 65.5535 164.515C65.304 165.118 64.9384 165.665 64.4776 166.126C64.0167 166.586 63.4695 166.952 62.8674 167.201C62.2652 167.451 61.6198 167.579 60.968 167.579H49.2767C48.625 167.579 47.9796 167.451 47.3774 167.201C46.7752 166.952 46.2281 166.586 45.7672 166.126C45.3063 165.665 44.9407 165.118 44.6913 164.515C44.4419 163.913 44.3135 163.268 44.3135 162.616V143.986Z" fill="#090909"/>
<path d="M150.067 143.986H171.69V162.616C171.69 163.268 171.562 163.913 171.312 164.515C171.063 165.118 170.697 165.665 170.236 166.126C169.775 166.586 169.228 166.952 168.626 167.201C168.024 167.451 167.379 167.579 166.727 167.579H155.031C154.379 167.579 153.733 167.451 153.131 167.201C152.529 166.952 151.982 166.586 151.521 166.126C151.06 165.665 150.695 165.118 150.445 164.515C150.196 163.913 150.067 163.268 150.067 162.616V143.986Z" fill="#090909"/>
<path d="M47.3159 101.364H57.5733V92.7323H47.3159C46.1712 92.7323 45.0735 93.187 44.2641 93.9964C43.4547 94.8058 43 95.9035 43 97.0482C43 98.1928 43.4547 99.2906 44.2641 100.1C45.0735 100.909 46.1712 101.364 47.3159 101.364Z" fill="#6E71FF"/>
<path d="M47.3159 101.364H57.5733V92.7323H47.3159C46.1712 92.7323 45.0735 93.187 44.2641 93.9964C43.4547 94.8058 43 95.9035 43 97.0482C43 98.1928 43.4547 99.2906 44.2641 100.1C45.0735 100.909 46.1712 101.364 47.3159 101.364Z" fill="url(#paint0_linear)"/>
<path d="M168.304 101.364H158.047V92.7323H168.304C169.449 92.7323 170.547 93.187 171.356 93.9964C172.165 94.8058 172.62 95.9035 172.62 97.0482C172.62 98.1928 172.165 99.2906 171.356 100.1C170.547 100.909 169.449 101.364 168.304 101.364Z" fill="#6E71FF"/>
<path d="M168.304 101.364H158.047V92.7323H168.304C169.449 92.7323 170.547 93.187 171.356 93.9964C172.165 94.8058 172.62 95.9035 172.62 97.0482C172.62 98.1928 172.165 99.2906 171.356 100.1C170.547 100.909 169.449 101.364 168.304 101.364Z" fill="url(#paint1_linear)"/>
<path d="M47.6898 110.112C45.4675 115.886 44.3296 122.022 44.333 128.209L72.4822 142.294L140.649 142.428L171.709 128.209C171.71 122.022 170.572 115.887 168.352 110.112H47.6898Z" fill="#6E71FF"/>
<path d="M47.6898 110.112C45.4675 115.886 44.3296 122.022 44.333 128.209L72.4822 142.294L140.649 142.428L171.709 128.209C171.71 122.022 170.572 115.887 168.352 110.112H47.6898Z" fill="url(#paint2_linear)"/>
<path d="M134.132 69H82.0393C77.2689 68.9997 72.6167 70.4844 68.7283 73.2479C64.8399 76.0115 61.9082 79.9168 60.34 84.4221L56.542 95.3221H159.644L155.841 84.4221C154.273 79.9149 151.34 76.008 147.449 73.2442C143.559 70.4805 138.904 68.997 134.132 69Z" fill="#6E71FF"/>
<path d="M154.661 95.3214H59.9707L63.807 84.1529C65.0199 80.6421 67.2981 77.5973 70.324 75.4431C73.3499 73.2888 76.9726 72.1326 80.687 72.1355H134.65C138.545 72.1353 142.332 73.4097 145.435 75.764C148.537 78.1183 150.784 81.4233 151.832 85.1743L154.661 95.3214Z" fill="url(#paint3_linear)"/>
<path d="M47.6904 110.111C87.2878 115.099 127.351 115.155 166.962 110.279L168.315 110.111C166.367 105.052 163.614 100.341 160.162 96.1612L159.457 95.3076H56.5428L55.8331 96.1612C52.3858 100.343 49.6363 105.053 47.6904 110.111Z" fill="#6E71FF"/>
<path d="M47.6904 110.111C87.2878 115.099 127.351 115.155 166.962 110.279L168.315 110.111C166.367 105.052 163.614 100.341 160.162 96.1612L159.457 95.3076H56.5428L55.8331 96.1612C52.3858 100.343 49.6363 105.053 47.6904 110.111Z" fill="#6E71FF"/>
<path d="M47.6904 110.111C87.2878 115.099 127.351 115.155 166.962 110.279L168.315 110.111C166.367 105.052 163.614 100.341 160.162 96.1612L159.457 95.3076H56.5428L55.8331 96.1612C52.3858 100.343 49.6363 105.053 47.6904 110.111Z" fill="url(#paint4_linear)"/>
<path d="M172.549 137.968L171.69 128.224H170.319L157.529 131.935C148.161 134.659 138.455 136.041 128.699 136.04H85.9335C76.1778 136.041 66.4713 134.659 57.1033 131.935L44.3139 128.224L43.4556 137.968C43.2501 140.309 43.5336 142.666 44.2883 144.892C45.043 147.117 46.2522 149.161 47.8392 150.893C49.4262 152.626 51.3563 154.009 53.5067 154.956C55.6572 155.903 57.9811 156.392 60.3307 156.392H155.673C158.023 156.392 160.347 155.903 162.497 154.956C164.648 154.009 166.578 152.626 168.165 150.893C169.752 149.161 170.961 147.117 171.716 144.892C172.47 142.666 172.754 140.309 172.549 137.968Z" fill="#6E71FF"/>
<path d="M172.549 137.968L171.69 128.224H170.319L157.529 131.935C148.161 134.659 138.455 136.041 128.699 136.04H85.9335C76.1778 136.041 66.4713 134.659 57.1033 131.935L44.3139 128.224L43.4556 137.968C43.2501 140.309 43.5336 142.666 44.2883 144.892C45.043 147.117 46.2522 149.161 47.8392 150.893C49.4262 152.626 51.3563 154.009 53.5067 154.956C55.6572 155.903 57.9811 156.392 60.3307 156.392H155.673C158.023 156.392 160.347 155.903 162.497 154.956C164.648 154.009 166.578 152.626 168.165 150.893C169.752 149.161 170.961 147.117 171.716 144.892C172.47 142.666 172.754 140.309 172.549 137.968Z" fill="url(#paint5_linear)"/>
<path d="M108.002 115.318H82.4854L87.5733 129.973H108.002H128.426L133.518 115.318H108.002Z" fill="white"/>
<path d="M108.003 116.479H84.3564L89.0704 128.813H108.003H126.935L131.649 116.479H108.003Z" fill="#6E71FF"/>
<path d="M108.003 116.479H84.3564L89.0704 128.813H108.003H126.935L131.649 116.479H108.003Z" fill="url(#paint6_linear)"/>
<path d="M131.457 117.889H84.3564V119.433H131.457V117.889Z" fill="white"/>
<path d="M130.143 121.874H85.8809V123.419H130.143V121.874Z" fill="white"/>
<path d="M128.464 125.86H86.96V127.404H128.464V125.86Z" fill="white"/>
<path d="M145.282 152.565H70.7422C70.7422 147.827 77.1872 143.986 85.1285 143.986H130.872C138.823 143.986 145.258 147.822 145.258 152.565H145.282Z" fill="#090909"/>
<path d="M135.869 113.094L154.662 95.3221H59.9668L79.9637 113.065C98.5825 114.156 117.249 114.166 135.869 113.094Z" fill="#6E71FF"/>
<path d="M135.869 113.094L154.662 95.3221H59.9668L79.9637 113.065C98.5825 114.156 117.249 114.166 135.869 113.094Z" fill="url(#paint7_linear)"/>
<path opacity="0.2" d="M54.763 96.1754H46.3086C46.025 96.1754 45.753 96.0627 45.5525 95.8622C45.3519 95.6616 45.2393 95.3896 45.2393 95.106C45.2393 94.8224 45.3519 94.5504 45.5525 94.3498C45.753 94.1493 46.025 94.0366 46.3086 94.0366H54.763C55.0466 94.0366 55.3186 94.1493 55.5191 94.3498C55.7197 94.5504 55.8323 94.8224 55.8323 95.106C55.8323 95.3896 55.7197 95.6616 55.5191 95.8622C55.3186 96.0627 55.0466 96.1754 54.763 96.1754Z" fill="white"/>
<path opacity="0.2" d="M169.556 96.1754H161.102C160.818 96.1754 160.546 96.0627 160.345 95.8622C160.145 95.6616 160.032 95.3896 160.032 95.106C160.032 94.8224 160.145 94.5504 160.345 94.3498C160.546 94.1493 160.818 94.0366 161.102 94.0366H169.556C169.696 94.0366 169.835 94.0643 169.965 94.118C170.095 94.1718 170.213 94.2505 170.312 94.3498C170.411 94.4491 170.49 94.567 170.544 94.6968C170.598 94.8265 170.625 94.9656 170.625 95.106C170.625 95.2464 170.598 95.3855 170.544 95.5153C170.49 95.645 170.411 95.7629 170.312 95.8622C170.213 95.9615 170.095 96.0403 169.965 96.094C169.835 96.1477 169.696 96.1754 169.556 96.1754Z" fill="white"/>
<path d="M78.9173 115.429C78.9173 115.429 54.3024 113.583 51.6313 114.604C48.9603 115.626 47.3154 124.675 47.3154 124.675L84.2402 129.6L78.9173 115.429Z" fill="white"/>
<path d="M137.148 115.429C137.148 115.429 161.768 113.583 164.434 114.604C167.1 115.626 168.75 124.675 168.75 124.675L131.825 129.6L137.148 115.429Z" fill="white"/>
<path d="M84.155 91.2364C84.6201 91.505 85.1477 91.6463 85.6848 91.6463C86.2218 91.6463 86.7494 91.505 87.2145 91.2364C87.4243 91.1221 87.6023 90.9573 87.7324 90.7569C87.8794 90.443 87.9279 90.0919 87.8715 89.7498C87.8855 89.3991 87.7655 89.0562 87.5358 88.7908C87.3212 88.6221 87.0669 88.5115 86.7973 88.4695C85.9712 88.2762 85.118 88.2259 84.2749 88.3208C83.8962 88.3339 83.5302 88.461 83.2247 88.6853C83.1285 88.8075 83.0616 88.9502 83.0292 89.1023C82.9967 89.2544 82.9997 89.412 83.0377 89.5628C83.0864 89.9078 83.2121 90.2373 83.4056 90.527C83.599 90.8167 83.8551 91.0592 84.155 91.2364Z" fill="url(#paint8_linear)"/>
<path d="M90.8294 81.9133C90.763 82.0473 90.6661 82.1639 90.5465 82.2538C90.4131 81.7823 90.2349 81.3246 90.0142 80.8871L88.8105 78.288C89.0476 78.1636 89.3036 78.0794 89.5682 78.0386C89.9242 77.9796 90.2891 78.0622 90.5849 78.2688C90.7858 78.442 90.9282 78.6732 90.9925 78.9306C91.0965 79.3379 91.1464 79.7571 91.1411 80.1774C91.2102 80.7741 91.1018 81.3779 90.8294 81.9133Z" fill="url(#paint9_linear)"/>
<path d="M90.2447 77.9137C89.7847 78.0845 89.3554 78.3291 88.974 78.6378C88.9164 78.5227 88.8637 78.4028 88.8109 78.2877C88.8109 78.2877 88.8109 78.2877 88.8109 78.3213C88.7544 78.3748 88.685 78.4128 88.6095 78.4316C88.1392 78.587 87.6585 78.7088 87.1709 78.796C86.5298 78.8738 85.8799 78.8348 85.2527 78.681C84.7204 78.5467 84.1737 78.1487 83.6079 78.1678H83.5264C83.5264 78.0911 83.5887 78.0096 83.6175 77.9233C83.8908 77.1512 84.073 76.4846 85.0849 76.2449C85.6807 76.1168 86.3011 76.1669 86.8688 76.3887C87.3871 76.6462 87.9323 76.8456 88.4944 76.9834C88.8439 76.9925 89.192 77.031 89.535 77.0985C89.7172 77.1553 89.88 77.2617 90.0053 77.4056C90.1306 77.5495 90.2135 77.7254 90.2447 77.9137Z" fill="url(#paint10_linear)"/>
<path d="M80.6875 72.1355L100.258 95.2543L120.633 95.1152L103.13 72.5479L80.6875 72.1355Z" fill="url(#paint11_linear)"/>
<rect x="77" y="65" width="63" height="5" rx="2" fill="#6E71FF"/>
<rect x="77" y="65" width="63" height="5" rx="2" fill="url(#paint12_linear)"/>
<path d="M75 59C75 58.4477 75.4477 58 76 58H96V65H76C75.4477 65 75 64.5523 75 64V59Z" fill="#6E71FF"/>
<path d="M75 59C75 58.4477 75.4477 58 76 58H96V65H76C75.4477 65 75 64.5523 75 64V59Z" fill="url(#paint13_linear)" fill-opacity="0.9"/>
<path d="M120 58H140C140.552 58 141 58.4477 141 59V64C141 64.5523 140.552 65 140 65H120V58Z" fill="#6E71FF"/>
<path d="M96 58H120V65H96V58Z" fill="#6E71FF"/>
<path d="M96 58H120V65H96V58Z" fill="url(#paint14_linear)"/>
<defs>
<linearGradient id="paint0_linear" x1="49.7184" y1="82.9065" x2="51.1522" y2="113.065" gradientUnits="userSpaceOnUse">
<stop offset="0.01"/>
<stop offset="0.83" stop-opacity="0.07"/>
<stop offset="1" stop-opacity="0"/>
</linearGradient>
<linearGradient id="paint1_linear" x1="164.765" y1="82.9065" x2="166.199" y2="113.065" gradientUnits="userSpaceOnUse">
<stop offset="0.01"/>
<stop offset="0.83" stop-opacity="0.07"/>
<stop offset="1" stop-opacity="0"/>
</linearGradient>
<linearGradient id="paint2_linear" x1="107.664" y1="71.4154" x2="104.918" y2="155.763" gradientUnits="userSpaceOnUse">
<stop offset="0.01"/>
<stop offset="0.83" stop-opacity="0.07"/>
<stop offset="1" stop-opacity="0"/>
</linearGradient>
<linearGradient id="paint3_linear" x1="21013.1" y1="1228.88" x2="20871.6" y2="9637.99" gradientUnits="userSpaceOnUse">
<stop offset="0.01"/>
<stop offset="0.83" stop-opacity="0.07"/>
<stop offset="1" stop-opacity="0"/>
</linearGradient>
<linearGradient id="paint4_linear" x1="116.612" y1="15.2891" x2="101.943" y2="87.224" gradientUnits="userSpaceOnUse">
<stop stop-opacity="0"/>
<stop offset="0.01"/>
<stop offset="0.83" stop-opacity="0.07"/>
</linearGradient>
<linearGradient id="paint5_linear" x1="102.963" y1="96.1589" x2="104.689" y2="194.768" gradientUnits="userSpaceOnUse">
<stop offset="0.01"/>
<stop offset="0.83" stop-opacity="0.07"/>
<stop offset="1" stop-opacity="0"/>
</linearGradient>
<linearGradient id="paint6_linear" x1="10106.6" y1="1970.01" x2="10116.2" y2="2884.35" gradientUnits="userSpaceOnUse">
<stop offset="0.01"/>
<stop offset="0.83" stop-opacity="0.07"/>
<stop offset="1" stop-opacity="0"/>
</linearGradient>
<linearGradient id="paint7_linear" x1="116.205" y1="33.5914" x2="101.031" y2="136.588" gradientUnits="userSpaceOnUse">
<stop offset="0.01"/>
<stop offset="0.83" stop-opacity="0.07"/>
<stop offset="1" stop-opacity="0"/>
</linearGradient>
<linearGradient id="paint8_linear" x1="911.927" y1="519.532" x2="909.43" y2="565.877" gradientUnits="userSpaceOnUse">
<stop offset="0.01"/>
<stop offset="0.83" stop-opacity="0.07"/>
<stop offset="1" stop-opacity="0"/>
</linearGradient>
<linearGradient id="paint9_linear" x1="529.992" y1="566.262" x2="497.027" y2="568.652" gradientUnits="userSpaceOnUse">
<stop offset="0.01"/>
<stop offset="0.83" stop-opacity="0.07"/>
<stop offset="1" stop-opacity="0"/>
</linearGradient>
<linearGradient id="paint10_linear" x1="1232.37" y1="395.467" x2="1233.89" y2="361.332" gradientUnits="userSpaceOnUse">
<stop offset="0.01"/>
<stop offset="0.83" stop-opacity="0.07"/>
<stop offset="1" stop-opacity="0"/>
</linearGradient>
<linearGradient id="paint11_linear" x1="102.66" y1="54.5603" x2="93.0501" y2="194.385" gradientUnits="userSpaceOnUse">
<stop offset="0.02" stop-color="white" stop-opacity="0"/>
<stop offset="0.39" stop-color="white" stop-opacity="0.39"/>
<stop offset="1" stop-color="white"/>
</linearGradient>
<linearGradient id="paint12_linear" x1="109" y1="62" x2="109" y2="72" gradientUnits="userSpaceOnUse">
<stop stop-color="#212121"/>
<stop offset="1" stop-color="#111111" stop-opacity="0"/>
</linearGradient>
<linearGradient id="paint13_linear" x1="85" y1="58" x2="85.5" y2="78" gradientUnits="userSpaceOnUse">
<stop stop-color="#FD7171"/>
<stop offset="1" stop-color="#FF6868" stop-opacity="0"/>
</linearGradient>
<linearGradient id="paint14_linear" x1="107.429" y1="57.2222" x2="107.958" y2="80.5695" gradientUnits="userSpaceOnUse">
<stop stop-color="white"/>
<stop offset="1" stop-color="white" stop-opacity="0"/>
</linearGradient>
</defs>
</svg>
