<svg width="208" height="208" viewBox="0 0 208 208" fill="none" xmlns="http://www.w3.org/2000/svg">
<path opacity="0.18" d="M207.357 160.781C206.803 166.99 205.818 173.396 202.832 178.334C200.16 182.798 196.164 185.576 192.194 187.999C166.198 203.741 136.796 207.75 108.07 207.987C85.9418 208.185 63.2592 206.157 42.9978 194.734C23.4288 183.706 6.32707 162.473 1.50536 135.888C1.33096 134.953 1.1822 134.011 1.03858 133.057C-0.213019 124.452 -0.166854 115.55 0.310188 106.781C1.22837 89.9129 3.98803 72.3933 12.385 59.3376C19.7971 47.7961 30.6614 41.1004 40.5407 33.1273C49.0711 26.2407 57.0423 18.182 65.9727 12.1973C77.7705 4.29673 90.9584 0.425436 104.213 0.0238222C127.152 -0.634561 146.408 12.5331 168.383 17.3327C191.399 22.343 191.979 43.9973 194.205 69.7861C195.313 82.5193 199.904 94.2517 203.027 106.425C207.51 123.931 208.987 142.474 207.357 160.781Z" fill="#6E71FF"/>
<path opacity="0.5" d="M208 150.46C208 157.3 207.082 171.61 204.1 177.017C200.2 185.064 195.433 186.271 191.533 189.088C162.933 205.586 135.164 207.726 106.444 207.985C84.3395 208.209 61.6867 205.984 41.4473 193.492C12.1451 175.407 4.81647 158.228 0 129.133H206.7C207.133 134.767 208 142.01 208 150.46Z" fill="#6E71FF"/>
<path d="M60.0449 149.15C48.9523 149.063 37.739 149.567 26.8838 147.298C26.6548 144.208 28.6909 141.293 31.3183 139.657C33.9457 138.02 37.0853 137.437 40.1541 137.042C49.885 135.793 59.7243 136.038 69.551 136.313C92.2442 136.941 114.936 137.635 137.626 138.395C148.971 138.773 160.317 139.168 171.662 139.582C178.74 139.836 182.875 141.397 187.485 144.658C187.994 145.01 188.391 145.501 188.63 146.072C188.869 146.643 188.939 147.271 188.832 147.881C188.725 148.491 188.446 149.057 188.027 149.513C187.608 149.969 187.067 150.296 186.469 150.454C167.648 155.367 145.758 154.093 126.925 153.089C104.632 151.911 82.4008 149.321 60.0449 149.15Z" fill="url(#paint0_linear)"/>
<path d="M133.246 144.362C131.252 144.699 129.328 145.361 127.342 145.728C124.844 146.19 122.262 146.169 119.714 146.144C101.017 145.858 82.3479 144.607 63.7803 142.397C62.5329 142.321 61.3084 142.028 60.1618 141.531C59.0459 140.973 58.1632 140.048 57.1597 139.307C54.0576 137.017 49.952 136.559 46.1046 136.859C42.2572 137.159 38.4888 138.129 34.6414 138.374C34.0994 138.458 33.5449 138.375 33.0508 138.137C32.1639 137.6 32.1348 136.347 32.218 135.318C32.5595 131.387 33.2465 127.12 36.1695 124.492C39.2758 121.681 43.8936 121.577 48.0783 121.636C51.5093 121.681 54.9695 121.731 58.3172 122.468C61.869 123.268 65.196 124.842 68.6895 125.862C75.7014 127.902 83.1506 127.648 90.4499 127.378L130.894 125.875C136.486 125.67 142.186 125.458 147.574 126.974C152.962 128.489 161.286 133.536 160.786 140.19C160.37 145.907 159.387 148.13 155.49 147.822C150.76 147.427 137.976 143.554 133.246 144.362Z" fill="#6E71FF"/>
<path d="M133.246 144.362C131.252 144.699 129.328 145.361 127.342 145.728C124.844 146.19 122.262 146.169 119.714 146.144C101.017 145.858 82.3479 144.607 63.7803 142.397C62.5329 142.321 61.3084 142.028 60.1618 141.531C59.0459 140.973 58.1632 140.048 57.1597 139.307C54.0576 137.017 49.952 136.559 46.1046 136.859C42.2572 137.159 38.4888 138.129 34.6414 138.374C34.0994 138.458 33.5449 138.375 33.0508 138.137C32.1639 137.6 32.1348 136.347 32.218 135.318C32.5595 131.387 33.2465 127.12 36.1695 124.492C39.2758 121.681 43.8936 121.577 48.0782 121.636C51.5093 121.681 54.9695 121.731 58.3172 122.468C61.869 123.268 65.196 124.842 68.6895 125.862C75.7014 127.902 83.1506 127.648 90.4499 127.378L130.894 125.875C136.486 125.67 142.186 125.458 147.574 126.974C152.962 128.489 161.286 133.536 160.786 140.19C160.37 145.907 159.387 148.13 155.49 147.822C150.76 147.427 137.976 143.554 133.246 144.362Z" fill="url(#paint1_linear)"/>
<path d="M155.498 147.802L156.272 147.851C166.74 148.609 182.088 145.57 184.199 144.5C186.31 143.429 187.988 138.803 187.114 132.641C186.627 135.506 185.494 137.479 184.199 138.125C182.08 139.195 166.74 142.234 156.272 141.477H156.21C156.255 141.943 156.272 142.413 156.272 142.901C156.273 144.565 156.011 146.219 155.498 147.802Z" fill="#6E71FF"/>
<path d="M59.3211 142.817L77.3007 144.645C77.3007 144.645 102.829 145.553 125.11 146.428C124.84 145.266 124.7 144.077 124.694 142.884C124.69 141.934 124.776 140.986 124.952 140.053C102.705 139.178 77.2882 138.271 77.2882 138.271L59.8458 136.493C59.9292 137.136 59.9724 137.784 59.9748 138.433C59.9844 139.919 59.7639 141.398 59.3211 142.817Z" fill="#6E71FF"/>
<path d="M155.498 147.802L156.272 147.851C166.74 148.609 182.088 145.57 184.199 144.5C186.31 143.429 187.988 138.803 187.114 132.641C186.627 135.506 185.494 137.479 184.199 138.125C182.08 139.195 166.74 142.234 156.272 141.477H156.21C156.255 141.943 156.272 142.413 156.272 142.901C156.273 144.565 156.011 146.219 155.498 147.802Z" fill="url(#paint2_linear)"/>
<path d="M59.3211 142.817L77.3007 144.645C77.3007 144.645 102.829 145.553 125.11 146.427C124.84 145.265 124.7 144.077 124.694 142.884C124.69 141.934 124.776 140.986 124.952 140.052C102.705 139.178 77.2882 138.27 77.2882 138.27L59.8458 136.492C59.9292 137.136 59.9724 137.784 59.9749 138.433C59.9844 139.919 59.7639 141.398 59.3211 142.817Z" fill="url(#paint3_linear)"/>
<path d="M32.6589 138.449V138.691C30.0663 134.856 29.0179 130.183 29.7234 125.608C29.7359 125.466 29.7859 125.337 29.7859 125.191C31.1683 116.843 33.2502 116.618 33.2502 116.618C33.2502 116.618 39.9666 110.693 42.0193 108.186L136.499 112C122.724 103.192 115.125 99.1125 99.8306 94.1914C103.341 94.333 106.705 94.4787 109.62 94.6078C116.321 94.9126 122.887 96.5981 128.907 99.5586C137.626 103.847 149.843 109.752 152.041 110.335L153.595 110.751C159.112 112.208 173.515 116.222 177.849 119.604C182.721 123.401 186.198 126.266 187.122 132.512V132.641C186.635 135.505 185.502 137.479 184.207 138.124C182.096 139.195 166.748 142.234 156.28 141.476H156.218C156.165 140.889 156.079 140.305 155.96 139.728C155.222 136.172 153.282 132.98 150.466 130.688C147.65 128.396 144.13 127.144 140.499 127.144C136.868 127.144 133.348 128.396 130.532 130.688C127.716 132.98 125.776 136.172 125.039 139.728C125.022 139.84 124.972 139.952 124.972 140.086C102.708 139.211 77.3082 138.304 77.3082 138.304L59.8657 136.526C59.8158 136.105 59.7393 135.688 59.6367 135.276C58.2376 129.031 52.7996 124.355 46.3123 124.355C38.7715 124.355 32.6589 130.684 32.6589 138.449Z" fill="#6E71FF"/>
<path d="M99.8052 94.2121C100.03 94.5702 100.792 94.8742 102.249 95.1198C111.697 96.7063 128.444 108.773 135.144 111.284C141.844 113.795 153.365 111.509 153.365 111.509C153.443 111.259 153.507 111.004 153.557 110.747L152.004 110.33C149.805 109.748 137.588 103.843 128.869 99.5544C122.849 96.5938 116.283 94.9083 109.582 94.6035C106.663 94.4869 103.315 94.3412 99.8052 94.2121Z" fill="url(#paint4_linear)"/>
<path d="M174.336 125.525C174.336 125.525 163.252 116.868 160.824 116.26C158.397 115.652 143.511 116.11 143.511 116.11C143.511 116.11 147.916 119.441 150.498 120.362C153.079 121.282 170.847 126.133 174.336 125.525Z" fill="url(#paint5_linear)"/>
<path d="M140.594 154.38C133.783 154.38 128.261 148.858 128.261 142.047C128.261 135.235 133.783 129.713 140.594 129.713C147.406 129.713 152.928 135.235 152.928 142.047C152.928 148.858 147.406 154.38 140.594 154.38Z" fill="#606161"/>
<path d="M140.594 154.38C133.783 154.38 128.261 148.858 128.261 142.047C128.261 135.235 133.783 129.713 140.594 129.713C147.406 129.713 152.928 135.235 152.928 142.047C152.928 148.858 147.406 154.38 140.594 154.38Z" fill="url(#paint6_linear)"/>
<path d="M140.45 151.036C135.572 151.036 131.618 147.082 131.618 142.205C131.618 137.327 135.572 133.373 140.45 133.373C145.327 133.373 149.281 137.327 149.281 142.205C149.281 147.082 145.327 151.036 140.45 151.036Z" fill="#6E71FF"/>
<path d="M46.2451 150.129C39.8291 150.129 34.6278 144.928 34.6278 138.512C34.6278 132.096 39.8291 126.895 46.2451 126.895C52.6611 126.895 57.8623 132.096 57.8623 138.512C57.8623 144.928 52.6611 150.129 46.2451 150.129Z" fill="#606161"/>
<path d="M46.2451 150.129C39.8291 150.129 34.6278 144.928 34.6278 138.512C34.6278 132.096 39.8291 126.895 46.2451 126.895C52.6611 126.895 57.8623 132.096 57.8623 138.512C57.8623 144.928 52.6611 150.129 46.2451 150.129Z" fill="url(#paint7_linear)"/>
<path d="M46.1122 146.981C41.5175 146.981 37.7928 143.256 37.7928 138.662C37.7928 134.067 41.5175 130.342 46.1122 130.342C50.7069 130.342 54.4316 134.067 54.4316 138.662C54.4316 143.256 50.7069 146.981 46.1122 146.981Z" fill="#6E71FF"/>
<path d="M140.415 149.734C136.366 149.734 133.083 146.451 133.083 142.401C133.083 138.351 136.366 135.069 140.415 135.069C144.465 135.069 147.748 138.351 147.748 142.401C147.748 146.451 144.465 149.734 140.415 149.734Z" fill="url(#paint8_linear)"/>
<path d="M46.0749 145.27C42.4024 145.27 39.4252 142.292 39.4252 138.62C39.4252 134.947 42.4024 131.97 46.0749 131.97C49.7474 131.97 52.7246 134.947 52.7246 138.62C52.7246 142.292 49.7474 145.27 46.0749 145.27Z" fill="url(#paint9_linear)"/>
<path d="M41.3691 104.85C41.7278 103.185 43.285 102.058 44.9789 102.239L136.223 111.971C136.39 111.989 136.537 112.09 136.613 112.24C136.786 112.579 136.528 112.979 136.148 112.962L44.4774 108.879C42.4176 108.788 40.9349 106.866 41.3691 104.85Z" fill="#6E71FF"/>
<path d="M41.3691 104.85C41.7278 103.185 43.285 102.058 44.9789 102.239L136.223 111.971C136.39 111.989 136.537 112.09 136.613 112.24C136.786 112.579 136.528 112.979 136.148 112.962L44.4774 108.879C42.4176 108.788 40.9349 106.866 41.3691 104.85Z" fill="url(#paint10_linear)"/>
<path d="M174.07 69.6608C164.612 70.0905 155.087 68.6042 145.584 68.6417C136.78 68.6811 127.762 69.9978 119.32 67.4866C118.144 67.1337 116.736 66.2763 117.043 65.0877C121.041 64.1396 124.407 61.4883 128.255 60.0179C131.761 58.6825 135.573 58.3507 139.259 59.0599C141.461 59.4975 143.677 60.2938 145.893 59.941C147.725 59.6492 149.325 58.5927 151.01 57.8358C152.071 57.3528 153.418 57.1064 154.881 57C158.446 58.5474 162.353 59.5625 165.745 61.4726C169.252 63.4496 172.022 66.298 174.07 69.6608Z" fill="url(#paint11_linear)"/>
<path d="M54.07 81.3365C48.5896 81.5855 43.0702 80.7242 37.5634 80.7459C32.4617 80.7688 27.2361 81.5318 22.3444 80.0766C21.6628 79.8721 20.8469 79.3753 21.0248 78.6865C23.3415 78.1371 25.2922 76.6008 27.5218 75.7487C29.5536 74.9749 31.7625 74.7827 33.8984 75.1936C35.1744 75.4472 36.4584 75.9086 37.7425 75.7042C38.8039 75.5351 39.731 74.9229 40.7076 74.4843C41.3226 74.2045 42.1029 74.0617 42.9509 74C45.0164 74.8966 47.2803 75.4849 49.246 76.5917C51.2782 77.7373 52.8835 79.3878 54.07 81.3365Z" fill="url(#paint12_linear)"/>
<path d="M101.07 36.3365C95.5896 36.5855 90.0702 35.7242 84.5634 35.7459C79.4617 35.7688 74.2361 36.5318 69.3444 35.0766C68.6628 34.8721 67.8469 34.3753 68.0248 33.6865C70.3415 33.1371 72.2922 31.6008 74.5218 30.7487C76.5536 29.9749 78.7625 29.7827 80.8984 30.1936C82.1744 30.4472 83.4584 30.9086 84.7425 30.7042C85.8039 30.5351 86.731 29.9229 87.7076 29.4843C88.3226 29.2045 89.1029 29.0617 89.9509 29C92.0164 29.8966 94.2803 30.4849 96.246 31.5917C98.2782 32.7373 99.8835 34.3878 101.07 36.3365Z" fill="url(#paint13_linear)"/>
<defs>
<linearGradient id="paint0_linear" x1="-71737.5" y1="4037.72" x2="-71798.5" y2="15011.4" gradientUnits="userSpaceOnUse">
<stop stop-color="#010101" stop-opacity="0"/>
<stop offset="0.95" stop-color="#010101"/>
</linearGradient>
<linearGradient id="paint1_linear" x1="96.6506" y1="107.107" x2="97.5885" y2="165.621" gradientUnits="userSpaceOnUse">
<stop offset="0.177626" stop-opacity="0"/>
<stop offset="0.771169"/>
<stop offset="0.932855" stop-opacity="0.75"/>
</linearGradient>
<linearGradient id="paint2_linear" x1="170.938" y1="123.99" x2="172.797" y2="162.247" gradientUnits="userSpaceOnUse">
<stop offset="0.177626" stop-opacity="0"/>
<stop offset="0.771169"/>
<stop offset="0.932855" stop-opacity="0.75"/>
</linearGradient>
<linearGradient id="paint3_linear" x1="92.1492" y1="129.618" x2="92.577" y2="155.716" gradientUnits="userSpaceOnUse">
<stop offset="0.177626" stop-opacity="0"/>
<stop offset="0.771169"/>
<stop offset="0.932855" stop-opacity="0.75"/>
</linearGradient>
<linearGradient id="paint4_linear" x1="170.938" y1="117.237" x2="101.189" y2="96.4967" gradientUnits="userSpaceOnUse">
<stop stop-opacity="0"/>
<stop offset="0.177626" stop-opacity="0"/>
<stop offset="0.771169"/>
<stop offset="0.932855" stop-opacity="0.75"/>
</linearGradient>
<linearGradient id="paint5_linear" x1="158.866" y1="131.662" x2="158.682" y2="120.217" gradientUnits="userSpaceOnUse">
<stop offset="0.02" stop-color="white" stop-opacity="0"/>
<stop offset="0.58" stop-color="white" stop-opacity="0.39"/>
<stop offset="1" stop-color="white"/>
</linearGradient>
<linearGradient id="paint6_linear" x1="-8145.97" y1="8065.51" x2="-9387.45" y2="6864.73" gradientUnits="userSpaceOnUse">
<stop stop-color="#010101" stop-opacity="0"/>
<stop offset="0.95" stop-color="#010101"/>
</linearGradient>
<linearGradient id="paint7_linear" x1="-13109.8" y1="6694.34" x2="-14406.3" y2="6694.34" gradientUnits="userSpaceOnUse">
<stop stop-color="#010101" stop-opacity="0"/>
<stop offset="0.95" stop-color="#010101"/>
</linearGradient>
<linearGradient id="paint8_linear" x1="140.547" y1="114.986" x2="144.506" y2="169.287" gradientUnits="userSpaceOnUse">
<stop offset="0.177626" stop-opacity="0"/>
<stop offset="0.771169"/>
<stop offset="0.932855" stop-opacity="0.75"/>
</linearGradient>
<linearGradient id="paint9_linear" x1="46.1945" y1="113.758" x2="49.784" y2="163.002" gradientUnits="userSpaceOnUse">
<stop offset="0.177626" stop-opacity="0"/>
<stop offset="0.771169"/>
<stop offset="0.932855" stop-opacity="0.75"/>
</linearGradient>
<linearGradient id="paint10_linear" x1="89.75" y1="102.961" x2="89.2435" y2="120.461" gradientUnits="userSpaceOnUse">
<stop stop-color="#010101"/>
<stop offset="1" stop-opacity="0"/>
</linearGradient>
<linearGradient id="paint11_linear" x1="30476.5" y1="1395.21" x2="30373.3" y2="3435.51" gradientUnits="userSpaceOnUse">
<stop stop-color="white" stop-opacity="0.27"/>
<stop offset="0.95" stop-color="white"/>
</linearGradient>
<linearGradient id="paint12_linear" x1="17613.2" y1="849.447" x2="17553.4" y2="2031.72" gradientUnits="userSpaceOnUse">
<stop stop-color="white" stop-opacity="0.27"/>
<stop offset="0.95" stop-color="white"/>
</linearGradient>
<linearGradient id="paint13_linear" x1="17660.2" y1="804.447" x2="17600.4" y2="1986.72" gradientUnits="userSpaceOnUse">
<stop stop-color="white" stop-opacity="0.27"/>
<stop offset="0.95" stop-color="white"/>
</linearGradient>
</defs>
</svg>
