<svg width="208" height="208" viewBox="0 0 208 208" fill="none" xmlns="http://www.w3.org/2000/svg">
<path opacity="0.18" d="M117.661 198.078C126.433 192.43 134.141 184.689 142.951 179.173C154.117 172.23 166.72 169.053 179.347 169.998C182.855 170.268 186.504 170.833 189.795 169.383C192.747 168.075 195.031 165.29 196.976 162.389C208.003 145.968 211.063 122.717 204.768 103.186C202.489 96.1098 199.061 89.4511 198.106 81.9464C195.907 64.7173 207.264 48.1749 205.488 30.8799C204.264 18.9744 196.618 8.77212 187.238 3.91544C177.859 -0.941229 167.001 -0.913759 157.067 1.99805C146.214 5.16807 136.236 11.5686 125.482 15.1836C105.137 21.9851 83.3697 18.3976 62.3888 21.4907C41.4078 24.5838 18.5058 38.0385 14.353 62.256C11.8434 76.8809 16.8014 92.3629 13.609 106.807C10.9205 118.954 2.77957 128.826 0.660757 141.133C-4.9894 174.196 26.9481 183.481 44.958 195.677C66.9889 210.593 95.0326 212.654 117.661 198.078Z" fill="#6E71FF"/>
<path d="M66.7558 176.202C65.9574 175.403 65.9574 174.109 66.7558 173.31C69.7493 170.317 69.7493 165.447 66.7558 162.453C62.1686 157.865 62.1686 150.401 66.7558 145.813C69.7493 142.819 69.7493 137.949 66.7558 134.954C65.9574 134.157 65.9574 132.863 66.7558 132.064C67.5542 131.267 68.8487 131.267 69.6461 132.064C74.2343 136.652 74.2343 144.116 69.6461 148.704C66.6525 151.698 66.6525 156.568 69.6461 159.562C74.2343 164.15 74.2343 171.615 69.6461 176.202C68.8487 176.999 67.5542 176.999 66.7558 176.202Z" fill="url(#paint0_linear)"/>
<path d="M90.5556 103.19C82.8631 94.9476 77.4797 81.2851 77.9811 69.2758C78.0173 68.3827 77.4701 67.5694 76.628 67.267C73.9549 66.3089 71.12 65.8235 68.201 65.8235C54.3767 65.8235 43.333 76.6479 43.333 92.8174C43.333 108.769 54.8121 127.841 68.201 127.841C78.8359 127.841 87.478 116.113 91.007 105.215C91.2348 104.508 91.0623 103.733 90.5556 103.19Z" fill="#6E71FF"/>
<path d="M90.5556 103.19C82.8631 94.9476 77.4797 81.2851 77.9811 69.2758C78.0173 68.3827 77.4701 67.5694 76.628 67.267C73.9549 66.3089 71.12 65.8235 68.201 65.8235C54.3767 65.8235 43.333 76.6479 43.333 92.8174C43.333 108.769 54.8121 127.841 68.201 127.841C78.8359 127.841 87.478 116.113 91.007 105.215C91.2348 104.508 91.0623 103.733 90.5556 103.19Z" fill="url(#paint1_linear)" fill-opacity="0.6"/>
<path d="M90.5553 103.19C82.8628 94.9475 77.4793 81.285 77.9807 69.2757C78.0169 68.3826 77.4698 67.5692 76.6277 67.2669C73.169 66.0278 69.4377 65.586 65.7277 65.9426C66.0918 73.618 68.6925 81.9258 72.7399 88.8337C77.1866 96.4229 76.5883 106.021 70.9259 112.752C66.705 117.768 60.9638 121.654 54.4307 120.943C58.6452 125.381 63.4741 127.841 68.2007 127.841C78.8356 127.841 87.4776 116.112 91.0056 105.215C91.2345 104.508 91.062 103.733 90.5553 103.19Z" fill="#6E71FF"/>
<path d="M90.5553 103.19C82.8628 94.9475 77.4793 81.285 77.9807 69.2757C78.0169 68.3826 77.4698 67.5692 76.6277 67.2669C73.169 66.0278 69.4377 65.586 65.7277 65.9426C66.0918 73.618 68.6925 81.9258 72.7399 88.8337C77.1866 96.4229 76.5883 106.021 70.9259 112.752C66.705 117.768 60.9638 121.654 54.4307 120.943C58.6452 125.381 63.4741 127.841 68.2007 127.841C78.8356 127.841 87.4776 116.112 91.0056 105.215C91.2345 104.508 91.062 103.733 90.5553 103.19Z" fill="url(#paint2_linear)"/>
<path d="M65.7494 134.327C64.5039 134.327 63.5926 133.154 63.9013 131.946L65.0617 127.416C65.429 125.981 66.7203 124.98 68.2011 124.98C69.6819 124.98 70.9732 125.981 71.3405 127.416L72.5008 131.946C72.8095 133.153 71.8993 134.327 70.6528 134.327H65.7494Z" fill="#6E71FF"/>
<path d="M145.652 171.6C144.523 171.6 143.608 170.684 143.608 169.556C143.608 167.722 142.893 165.997 141.596 164.7C137.811 160.914 137.401 155.103 140.217 150.886C140.631 148.772 141.662 146.826 143.221 145.266C145.539 142.949 145.539 139.178 143.221 136.86C139.3 132.94 139.3 126.594 143.221 122.673C144.02 121.875 145.314 121.875 146.111 122.673C146.91 123.471 146.91 124.765 146.111 125.563C143.789 127.886 143.789 131.646 146.111 133.969C149.926 137.783 149.997 143.829 146.511 147.734C148.971 148.24 150.825 150.422 150.825 153.03C150.825 157.298 146.083 159.881 142.503 157.581C142.647 159.179 143.338 160.661 144.487 161.809C146.555 163.879 147.695 166.63 147.695 169.556C147.695 170.684 146.78 171.6 145.652 171.6ZM144.101 152.951C144.092 153.925 144.905 154.486 145.703 154.319C146.212 154.213 146.618 153.794 146.714 153.284C146.884 152.379 146.122 151.595 145.224 151.726C144.699 151.801 144.106 152.281 144.101 152.951Z" fill="url(#paint3_linear)"/>
<path d="M144.416 49.7617C140.246 49.7617 136.294 50.6485 132.669 52.3986C131.749 52.8415 131.299 53.8954 131.611 54.8663C132.694 58.2249 133.243 61.8785 133.243 65.7258C133.243 76.1893 128.836 88.2379 122.013 96.4222C121.508 97.029 121.397 97.8743 121.73 98.5918C127.195 110.357 135.887 117.666 144.415 117.666C159.04 117.666 171.603 96.7501 171.603 79.2903C171.603 61.6602 159.591 49.7617 144.416 49.7617Z" fill="#6E71FF"/>
<path d="M144.416 49.7617C140.246 49.7617 136.294 50.6485 132.669 52.3986C131.749 52.8415 131.299 53.8954 131.611 54.8663C132.694 58.2249 133.243 61.8785 133.243 65.7258C133.243 76.1893 128.836 88.2379 122.013 96.4222C121.508 97.029 121.397 97.8743 121.73 98.5918C127.195 110.357 135.887 117.666 144.415 117.666C159.04 117.666 171.603 96.7501 171.603 79.2903C171.603 61.6602 159.591 49.7617 144.416 49.7617Z" fill="url(#paint4_linear)"/>
<path d="M151.061 50.5165C151.244 50.6985 151.425 50.8816 151.604 51.07C156.716 56.4461 159.531 64.0491 159.531 72.4772C159.531 80.9425 156.546 90.4948 151.545 98.0297C146.137 106.179 139.138 110.853 132.343 110.853C131.598 110.853 130.851 110.794 130.104 110.684C134.538 115.145 139.6 117.666 144.607 117.666C159.232 117.666 171.795 96.7501 171.795 79.2903C171.795 64.1811 163.022 53.3833 151.061 50.5165Z" fill="#6E71FF"/>
<path d="M151.061 50.5165C151.244 50.6985 151.425 50.8816 151.604 51.07C156.716 56.4461 159.531 64.0491 159.531 72.4772C159.531 80.9425 156.546 90.4948 151.545 98.0297C146.137 106.179 139.138 110.853 132.343 110.853C131.598 110.853 130.851 110.794 130.104 110.684C134.538 115.145 139.6 117.666 144.607 117.666C159.232 117.666 171.795 96.7501 171.795 79.2903C171.795 64.1811 163.022 53.3833 151.061 50.5165Z" fill="url(#paint5_linear)"/>
<path d="M141.763 124.935C140.518 124.935 139.606 123.762 139.915 122.555L141.23 117.426C141.625 115.882 143.014 114.805 144.608 114.805C146.2 114.805 147.589 115.882 147.984 117.426L149.298 122.554C149.608 123.761 148.697 124.935 147.45 124.935H141.763Z" fill="#6E71FF"/>
<path d="M104.18 171.002C103.382 170.203 103.382 168.909 104.18 168.11C106.972 165.318 106.972 160.8 104.18 158.008C99.8186 153.646 99.8005 146.562 104.125 142.178C101.162 141.861 98.8467 139.345 98.8467 136.3C98.8467 133.041 101.5 130.388 104.759 130.388C106.155 130.388 107.44 130.874 108.452 131.687C108.427 129.532 107.575 127.51 106.049 125.984C103.727 123.662 102.448 120.575 102.448 117.291C102.448 116.161 103.364 115.247 104.492 115.247C105.62 115.247 106.536 116.161 106.536 117.291C106.536 119.483 107.39 121.544 108.94 123.094C113.195 127.349 113.658 133.901 110.454 138.647C109.997 141.043 108.835 143.249 107.07 145.013C104.284 147.799 104.284 152.332 107.07 155.116C111.45 159.496 111.45 166.622 107.07 171.002C106.272 171.799 104.977 171.799 104.18 171.002ZM104.759 134.476C103.635 134.476 102.746 135.498 102.97 136.661C103.112 137.398 103.72 137.983 104.462 138.101C105.614 138.282 106.585 137.388 106.583 136.311C106.583 136.309 106.583 136.306 106.583 136.304C106.583 135.294 105.765 134.476 104.759 134.476Z" fill="url(#paint6_linear)"/>
<path d="M104.632 32.0667C87.1933 32.0667 73.666 45.7845 73.666 65.7257C73.666 85.7053 88.0439 109.561 104.632 109.561C121.249 109.561 135.598 85.6627 135.598 65.7257C135.598 45.7983 122.084 32.0667 104.632 32.0667V32.0667Z" fill="#6E71FF"/>
<path d="M112.957 33.1759C119.985 39.6899 123.334 49.1219 123.334 58.9126C123.334 80.1153 107.062 105.954 89 102.412C112.151 124.304 135.598 90.9621 135.598 65.7257C135.598 48.7887 125.974 36.7539 112.957 33.1759Z" fill="#6E71FF"/>
<path d="M112.957 33.1759C119.985 39.6899 123.334 49.1219 123.334 58.9126C123.334 80.1153 107.062 105.954 89 102.412C112.151 124.304 135.598 90.9621 135.598 65.7257C135.598 48.7887 125.974 36.7539 112.957 33.1759Z" fill="url(#paint7_linear)"/>
<path d="M101.151 118.108C99.9046 118.108 98.9933 116.934 99.3031 115.727L100.867 109.623C101.308 107.902 102.855 106.699 104.632 106.699C106.409 106.699 107.958 107.901 108.399 109.623L109.962 115.727C110.271 116.934 109.36 118.108 108.114 118.108H101.151Z" fill="#6E71FF"/>
<defs>
<linearGradient id="paint0_linear" x1="68.1333" y1="155.952" x2="68.1333" y2="200.101" gradientUnits="userSpaceOnUse">
<stop stop-color="white"/>
<stop offset="1" stop-color="white" stop-opacity="0"/>
</linearGradient>
<linearGradient id="paint1_linear" x1="67.3153" y1="50.7568" x2="41.1528" y2="144.233" gradientUnits="userSpaceOnUse">
<stop stop-color="white"/>
<stop offset="1" stop-color="white" stop-opacity="0"/>
</linearGradient>
<linearGradient id="paint2_linear" x1="44.8316" y1="34.2689" x2="72.7655" y2="124.202" gradientUnits="userSpaceOnUse">
<stop stop-color="#0A0A0A"/>
<stop offset="1" stop-opacity="0"/>
</linearGradient>
<linearGradient id="paint3_linear" x1="144.538" y1="148.98" x2="144.538" y2="199.806" gradientUnits="userSpaceOnUse">
<stop stop-color="white"/>
<stop offset="1" stop-color="white" stop-opacity="0"/>
</linearGradient>
<linearGradient id="paint4_linear" x1="134.4" y1="36.5634" x2="189.041" y2="120.774" gradientUnits="userSpaceOnUse">
<stop stop-color="white"/>
<stop offset="1" stop-color="white" stop-opacity="0"/>
</linearGradient>
<linearGradient id="paint5_linear" x1="158.71" y1="23.3458" x2="132.956" y2="112.462" gradientUnits="userSpaceOnUse">
<stop stop-color="white"/>
<stop offset="1" stop-color="white" stop-opacity="0"/>
</linearGradient>
<linearGradient id="paint6_linear" x1="104.595" y1="136.989" x2="105.822" y2="261.942" gradientUnits="userSpaceOnUse">
<stop stop-color="white"/>
<stop offset="1" stop-color="white" stop-opacity="0"/>
</linearGradient>
<linearGradient id="paint7_linear" x1="112.299" y1="33.1759" x2="112.299" y2="109.523" gradientUnits="userSpaceOnUse">
<stop stop-color="#232323"/>
<stop offset="1" stop-color="#040404" stop-opacity="0"/>
</linearGradient>
</defs>
</svg>
