<svg width="208" height="208" viewBox="0 0 208 208" fill="none" xmlns="http://www.w3.org/2000/svg">
<path opacity="0.24" d="M185.504 133.455C190.016 144.398 194.614 157.369 190.755 168.714C188.036 176.683 181.843 181.486 175.894 185.439C166.036 191.966 155.836 197.568 145.37 202.202C138.955 205.031 132.361 207.52 125.606 207.939C109.786 208.889 95.0735 198.539 80.2592 191.209C64.5286 183.42 47.9738 178.846 31.1776 177.649C26.4944 177.309 21.7382 177.234 17.2517 175.43C6.40994 171.058 -1.18599 155.793 0.152974 141.071C1.12388 130.335 6.16245 120.84 8.25339 110.474C8.66983 108.458 8.94908 106.398 9.08786 104.318C9.72244 94.2422 6.53368 83.5773 9.63043 74.2979C11.2899 69.3657 14.5357 65.6199 18.0132 62.7619C28.8011 53.8724 42.3399 51.8647 52.7502 42.27C59.9051 35.6661 65.0071 26.0092 70.8579 17.4765C76.7087 8.9437 84.0826 1.06635 92.8112 0.103979C104.868 -1.23173 116.976 10.5656 125.619 20.3013C134.887 30.734 145.04 37.5286 156.986 41.9506C160.81 43.3651 164.693 44.4892 168.58 45.6466H168.602C173.581 47.1399 178.549 48.683 183.34 50.9645C191.872 55.0463 200.109 61.9737 204.151 72.6137C206.487 78.7488 207.274 85.6763 207.74 92.5249C208.375 101.651 208.184 111.984 203.231 118.476C199.297 123.636 193.138 125.246 188.712 129.394C188.541 129.539 188.369 129.701 188.198 129.875C187.163 130.878 186.255 132.086 185.504 133.455Z" fill="#6E71FF"/>
<path d="M64.8159 115.641C64.8159 115.641 56.5199 126.162 64.6652 140.68C64.6652 140.68 61.7029 144.828 58.8873 140.827C56.0716 136.825 54.2951 114.602 61.2587 110.01C68.2224 105.417 64.8159 115.641 64.8159 115.641Z" fill="#606161"/>
<path d="M64.8159 115.641C64.8159 115.641 56.5199 126.162 64.6652 140.68C64.6652 140.68 61.7029 144.828 58.8873 140.827C56.0716 136.825 54.2951 114.602 61.2587 110.01C68.2224 105.417 64.8159 115.641 64.8159 115.641Z" fill="url(#paint0_linear)"/>
<path d="M73.4665 121.505C73.2913 117.874 72.8349 113.864 70.0886 111.481C68.4954 110.091 66.3928 107.769 64.2617 108.021C61.7069 108.339 59.4332 110.201 58.1497 112.381C56.5198 115.189 56.1938 118.567 56.1123 121.818C56.0052 126.436 56.3175 131.054 57.0454 135.615C57.4529 138.268 58.1334 141.063 60.077 142.925C62.0206 144.787 64.8729 145.309 67.5745 145.484C68.8825 145.578 70.2719 145.562 71.3802 144.853C73.0672 143.732 73.3524 141.409 73.4624 139.388C73.7517 133.439 73.7517 127.454 73.4665 121.505ZM61.4543 141.788C58.9279 141.788 56.8743 135 56.8743 126.635C56.8743 118.269 58.9117 111.497 61.4543 111.497C63.9969 111.497 66.0383 118.269 66.0383 126.635C66.0383 135 64.001 141.788 61.4543 141.788Z" fill="#606161"/>
<path d="M73.4665 121.505C73.2913 117.874 72.8349 113.864 70.0886 111.481C68.4954 110.091 66.3928 107.769 64.2617 108.021C61.7069 108.339 59.4332 110.201 58.1497 112.381C56.5198 115.189 56.1938 118.567 56.1123 121.818C56.0052 126.436 56.3175 131.054 57.0454 135.615C57.4529 138.268 58.1334 141.063 60.077 142.925C62.0206 144.787 64.8729 145.309 67.5745 145.484C68.8825 145.578 70.2719 145.562 71.3802 144.853C73.0672 143.732 73.3524 141.409 73.4624 139.388C73.7517 133.439 73.7517 127.454 73.4665 121.505ZM61.4543 141.788C58.9279 141.788 56.8743 135 56.8743 126.635C56.8743 118.269 58.9117 111.497 61.4543 111.497C63.9969 111.497 66.0383 118.269 66.0383 126.635C66.0383 135 64.001 141.788 61.4543 141.788Z" fill="url(#paint1_linear)"/>
<path d="M46.729 115.939C45.417 115.397 43.8767 114.908 42.6543 115.617C41.22 116.432 41.0244 118.404 41 120.062C41 121.387 41 122.833 41.8149 123.86C42.3772 124.561 43.2289 124.948 44.0479 125.31L61.9277 133.26C62.6285 133.57 63.5249 133.851 64.0791 133.329C64.3224 133.053 64.4746 132.709 64.5151 132.343C65.4767 127.311 62.5592 125.127 58.8513 122.564C55.0583 119.93 50.9945 117.709 46.729 115.939Z" fill="#6E71FF"/>
<path d="M46.8388 118.221C45.5267 117.813 43.9865 117.45 42.7641 117.98C41.3298 118.595 41.1342 120.058 41.1097 121.293C41.0894 122.279 41.1097 123.359 41.9247 124.125C42.5911 124.63 43.3516 124.997 44.1617 125.205C50.1189 127.181 55.9783 131.052 61.9274 133.028C62.6282 133.26 63.5247 133.468 64.0788 133.077C64.3075 132.893 64.4623 132.632 64.5148 132.343C65.4765 128.595 62.0415 126.965 58.3335 125.05C54.544 123.09 51.1009 119.537 46.8388 118.221Z" fill="url(#paint2_linear)" fill-opacity="0.5"/>
<path d="M64.723 136.471C64.6513 137.06 64.3603 137.599 63.9081 137.983C63.4339 138.359 62.8422 138.555 62.2374 138.537C62.0785 138.537 61.9033 138.537 61.7322 138.504C60.8496 138.357 59.9896 138.097 59.1733 137.73C57.2868 136.973 55.3509 136.345 53.379 135.852C51.2154 135.334 48.9458 134.939 47.1121 133.676C46.1822 133.035 45.4632 132.134 45.0463 131.084C44.8119 130.586 44.6904 130.042 44.6904 129.491C44.6904 128.94 44.8119 128.396 45.0463 127.898C46.4357 125.046 49.3369 126.207 51.4558 127.217C54.4059 128.656 57.3885 130.07 60.3712 131.435C61.7322 132.05 63.1502 132.71 64.0384 133.912C64.5887 134.645 64.834 135.562 64.723 136.471Z" fill="#6E71FF"/>
<path d="M63.8999 138.142C63.3895 138.425 62.8126 138.565 62.2293 138.549C62.0703 138.549 61.8951 138.549 61.724 138.517C60.8414 138.369 59.9814 138.109 59.1651 137.743C57.2786 136.985 55.3427 136.358 53.3709 135.864C51.2072 135.347 48.9376 134.951 47.104 133.688C46.174 133.048 45.4551 132.146 45.0381 131.097C46.4276 129.108 49.3287 129.899 51.4476 130.624C54.3977 131.635 57.3804 132.612 60.363 133.562C61.724 134.002 63.142 134.462 64.0303 135.314C64.372 135.625 64.6096 136.033 64.7108 136.483C64.7749 136.81 64.7305 137.15 64.5841 137.449C64.4377 137.748 64.1974 137.992 63.8999 138.142Z" fill="url(#paint3_linear)" fill-opacity="0.5"/>
<path d="M57.2166 105.349C55.4458 108.87 54.0447 112.565 53.036 116.375C52.8404 117.112 52.6978 118.005 53.2356 118.551C53.7735 119.097 54.6007 118.958 55.1793 118.551C55.722 118.098 56.1517 117.524 56.4343 116.876C57.1925 115.549 57.8163 114.15 58.2964 112.699C58.1553 115.358 58.8214 117.997 60.2075 120.27C60.7575 118.828 60.3297 117.218 60.0363 115.703C59.6945 113.928 59.5469 112.122 59.5963 110.316C60.5905 110.499 61.2261 111.477 61.5766 112.426C61.927 113.376 62.1185 114.419 62.7582 115.201C63.1657 114.611 63.1657 113.844 63.1657 113.127V104.644C63.1944 104.367 63.133 104.088 62.9905 103.849C62.7681 103.624 62.4673 103.494 62.1511 103.487C60.126 103.218 58.2027 103.381 57.2166 105.349Z" fill="#6E71FF"/>
<path d="M57.2166 105.349C55.4458 108.87 54.0447 112.565 53.036 116.375C52.8404 117.112 52.6978 118.005 53.2356 118.551C53.7735 119.097 54.6007 118.958 55.1793 118.551C55.722 118.098 56.1517 117.524 56.4343 116.876C57.1925 115.549 57.8163 114.15 58.2964 112.699C58.1553 115.358 58.8214 117.997 60.2075 120.27C60.7575 118.828 60.3297 117.218 60.0363 115.703C59.6945 113.928 59.5469 112.122 59.5963 110.316C60.5905 110.499 61.2261 111.477 61.5766 112.426C61.927 113.376 62.1185 114.419 62.7582 115.201C63.1657 114.611 63.1657 113.844 63.1657 113.127V104.644C63.1944 104.367 63.133 104.088 62.9905 103.849C62.7681 103.624 62.4673 103.494 62.1511 103.487C60.126 103.218 58.2027 103.381 57.2166 105.349Z" fill="url(#paint4_linear)"/>
<path d="M93.1973 62.2012C91.816 61.3863 90.5325 60.4084 89.0249 59.8949C87.6028 59.4101 86.0748 59.3856 84.5753 59.3612C76.2384 59.243 67.869 59.1248 59.581 59.8501C58.5175 59.9438 57.1851 60.2943 57.0384 61.3496C56.9284 62.1116 57.5885 62.8084 58.326 63.0284C59.0807 63.1913 59.8614 63.1913 60.616 63.0284C63.5816 62.6832 66.5666 62.5335 69.5518 62.5802L83.4058 62.4946C84.2042 62.4602 85.0038 62.5163 85.7895 62.6617C86.9264 62.9143 87.941 63.5296 89.0249 63.9533C91.2252 64.8213 93.6456 64.8946 96.0089 64.9557C96.9664 64.9843 98.4211 64.3893 97.1946 63.4766C96.7872 63.1751 95.7889 63.277 95.2836 63.1343C94.5521 62.9111 93.8513 62.5976 93.1973 62.2012Z" fill="#6E71FF"/>
<path d="M93.226 62.23C91.8446 61.4355 90.5611 60.4372 89.0535 59.9238C87.6314 59.4389 86.1034 59.4103 84.6039 59.39C76.2671 59.2718 67.8976 59.1536 59.6097 59.8789C58.5462 59.9727 57.2137 60.319 57.063 61.3784C56.957 62.1404 57.6171 62.8372 58.3547 63.0572C59.1093 63.2201 59.89 63.2201 60.6446 63.0572C63.6102 62.712 66.5953 62.5623 69.5805 62.609L83.4141 62.5234C84.2138 62.4891 85.0147 62.5452 85.8019 62.6905C86.9346 62.9431 87.9533 63.5543 89.0372 63.9822C91.2375 64.8501 93.6538 64.9234 96.0212 64.9845C96.9747 65.0131 98.4334 64.4141 97.2069 63.5054C96.7995 63.2039 95.8012 63.3058 95.2959 63.1631C94.5701 62.9386 93.8748 62.6252 93.226 62.23Z" fill="url(#paint5_linear)"/>
<path d="M71.2011 59.4182C71.0835 58.877 70.7984 58.3865 70.3862 58.0165C70.1786 57.837 69.9188 57.729 69.6451 57.7085C69.3714 57.6879 69.0984 57.7559 68.8663 57.9024C68.7034 58.0206 68.5811 58.1917 68.41 58.3099C68.1751 58.4345 67.9139 58.5015 67.648 58.5055L58.1377 59.3204C57.6991 59.3222 57.2679 59.4328 56.8826 59.6423C56.6408 59.8217 56.449 60.0601 56.3256 60.3347C56.2021 60.6094 56.1512 60.9111 56.1777 61.2111C56.2374 61.8097 56.4235 62.3889 56.7237 62.9102C56.8058 63.1031 56.9347 63.2726 57.0986 63.4033C57.337 63.5256 57.6071 63.5725 57.8728 63.5377L66.4623 63.2525C66.9486 63.2047 67.4396 63.2504 67.9088 63.387C71.0911 64.5564 71.9916 62.2909 71.2011 59.4182Z" fill="url(#paint6_linear)"/>
<path d="M70.3908 60.1028C70.3295 60.0473 70.2527 60.0118 70.1707 60.0009C70.1019 60.0069 70.0352 60.0278 69.9754 60.0623C69.9156 60.0968 69.864 60.144 69.8244 60.2006C69.3894 60.6751 69.0018 61.1909 68.6672 61.7408C68.648 61.7849 68.615 61.8216 68.573 61.8451C68.5311 61.8687 68.4826 61.8778 68.4349 61.8712L58.5497 61.7449C58.4434 61.7519 58.3369 61.7381 58.2359 61.7041C58.0798 61.6226 57.9593 61.4862 57.8977 61.3211C57.7673 61.0237 57.6736 60.6447 57.3639 60.551C57.0543 60.4573 56.276 60.551 56.223 60.8525C56.2005 61.2507 56.2673 61.6489 56.4186 62.0179C56.492 62.2013 56.5612 62.5843 56.6386 62.7676C56.7798 62.9754 56.9469 63.1643 57.1358 63.3299C57.2373 63.3942 57.3539 63.4307 57.474 63.4359C61.3205 63.9249 65.4196 62.9143 69.2906 63.3748C69.625 63.4539 69.9758 63.4254 70.293 63.2933C70.489 63.1612 70.6532 62.9872 70.7738 62.7839C71.0568 62.3701 71.1744 61.8652 71.1035 61.3689C71.0326 60.8726 70.7783 60.4209 70.3908 60.1028Z" fill="url(#paint7_linear)"/>
<path d="M121.17 86.4824L138.997 132.237C138.997 132.237 139.628 134.918 141.996 134.128C143.487 133.601 144.837 132.738 145.94 131.606L126.532 85.696L124.495 81.7516L116.448 65.5017L114.41 66.1333L113.465 70.3914L121.17 86.4824Z" fill="#6E71FF"/>
<path d="M121.17 86.4824L138.997 132.237C138.997 132.237 139.628 134.918 141.996 134.128C143.487 133.601 144.837 132.738 145.94 131.606L126.532 85.696L124.495 81.7516L116.448 65.5017L114.41 66.1333L113.465 70.3914L121.17 86.4824Z" fill="url(#paint8_linear)"/>
<path d="M74.311 110.267L74.7185 98.3808C74.818 96.8735 74.7703 95.36 74.5759 93.862C74.4333 92.9941 74.1969 92.1099 74.3803 91.2542C74.6818 89.8688 75.9776 88.9723 76.8251 87.8396C78.1046 86.1445 78.3898 83.9156 79.3066 82.0005C80.7287 79.0504 83.6217 77.0131 86.7104 75.917C89.799 74.8209 93.1076 74.5438 96.3715 74.2871C100.418 73.9571 104.191 71.3982 108.249 71.2759C112.308 71.1537 116.639 72.6083 118.949 75.9455C121.769 80.0202 120.987 85.7819 123.721 89.9095C124.43 90.973 125.351 91.9102 125.811 93.1082C126.569 95.1455 125.746 97.4355 124.511 99.2202C123.277 101.005 121.659 102.48 120.494 104.318C117.743 108.706 118.163 114.268 118.249 119.447C118.383 127.687 117.424 135.908 115.396 143.895C115.215 144.85 114.845 145.758 114.308 146.568C113.086 148.198 110.755 148.573 108.71 148.418C106.664 148.263 104.602 147.73 102.598 148.076C99.5701 148.602 97.0886 151.03 94.0407 151.336C91.82 151.556 89.6645 150.614 87.6272 149.706L77.856 145.252C76.3688 144.58 74.8407 143.875 73.7447 142.665C71.8051 140.521 71.6788 137.249 72.4204 134.454C73.162 131.659 74.637 129.12 75.5946 126.39C76.5521 123.66 76.9392 120.511 75.5416 117.976C75.1341 117.214 74.5555 116.538 74.1888 115.747C73.3983 114.077 74.2499 112.109 74.311 110.267Z" fill="#6E71FF"/>
<path d="M74.311 110.267L74.7185 98.3808C74.818 96.8735 74.7703 95.36 74.5759 93.862C74.4333 92.9941 74.1969 92.1099 74.3803 91.2542C74.6818 89.8688 75.9776 88.9723 76.8251 87.8396C78.1046 86.1445 78.3898 83.9156 79.3066 82.0005C80.7287 79.0504 83.6217 77.0131 86.7104 75.917C89.799 74.8209 93.1076 74.5438 96.3715 74.2871C100.418 73.9571 104.191 71.3982 108.249 71.2759C112.308 71.1537 116.639 72.6083 118.949 75.9455C121.769 80.0202 120.987 85.7819 123.721 89.9095C124.43 90.973 125.351 91.9102 125.811 93.1082C126.569 95.1455 125.746 97.4355 124.511 99.2202C123.277 101.005 121.659 102.48 120.494 104.318C117.743 108.706 118.163 114.268 118.249 119.447C118.383 127.687 117.424 135.908 115.396 143.895C115.215 144.85 114.845 145.758 114.308 146.568C113.086 148.198 110.755 148.573 108.71 148.418C106.664 148.263 104.602 147.73 102.598 148.076C99.5701 148.602 97.0886 151.03 94.0407 151.336C91.82 151.556 89.6645 150.614 87.6272 149.706L77.856 145.252C76.3688 144.58 74.8407 143.875 73.7447 142.665C71.8051 140.521 71.6788 137.249 72.4204 134.454C73.162 131.659 74.637 129.12 75.5946 126.39C76.5521 123.66 76.9392 120.511 75.5416 117.976C75.1341 117.214 74.5555 116.538 74.1888 115.747C73.3983 114.077 74.2499 112.109 74.311 110.267Z" fill="url(#paint9_linear)"/>
<path d="M98.0407 77.2615C98.587 79.4766 98.8147 81.7583 98.7171 84.0377C98.4604 82.7623 96.7205 82.5505 95.4369 82.7868C92.9661 83.2527 90.6222 84.2374 88.56 85.6759C86.4978 87.1143 84.7642 88.9739 83.4736 91.1318L91.2563 98.0588C91.5293 95.614 88.3755 93.3769 89.4268 91.1522C89.8831 90.1865 90.9752 89.726 91.9735 89.3471L100.571 86.0873C102.861 87.546 103.097 90.8832 102.201 93.4503C101.305 96.0174 99.6217 98.2584 98.819 100.85C98.1385 103.046 98.1303 105.389 97.6454 107.634C96.5045 112.907 92.8617 117.222 90.311 121.969C87.5184 127.145 85.983 132.906 85.8288 138.785C85.7677 141.165 85.9673 143.655 87.1898 145.712C88.4122 147.77 90.914 149.192 93.1999 148.524L93.9456 141.911C94.6872 135.346 95.6529 128.281 100.208 123.493C103.232 129.605 99.4546 138.199 104.169 143.121C104.984 143.968 106.133 144.649 107.29 144.425C108.778 144.131 109.592 142.534 110.037 141.084C112.265 133.847 110.819 125.881 112.921 118.603C113.924 115.148 115.688 111.978 117.237 108.73C118.834 105.373 123.756 99.5134 124.889 95.9725C125.765 93.2506 125.895 93.8333 125.113 91.0829C124.212 87.9168 118.593 84.6163 117.151 81.7518C115.313 78.1498 115.766 70.8764 111.112 70.526C108.619 70.3386 107.038 70.7094 104.78 71.9725C100.001 74.6007 96.8264 72.3107 98.0407 77.2615Z" fill="url(#paint10_linear)" fill-opacity="0.5"/>
<path d="M120.485 104.301C117.734 108.69 118.154 114.252 118.24 119.431L120.485 104.301Z" fill="url(#paint11_linear)"/>
<path d="M163.681 135.615C161.851 112.618 148.087 94.9538 132.945 96.1517C117.803 97.3497 107.026 116.99 108.859 139.987C110.693 162.985 124.437 180.637 139.591 179.439C154.745 178.241 165.514 158.633 163.681 135.615ZM136.042 169.949C128.707 166.334 122.559 153.65 121.328 138.125C120.004 121.663 124.673 107.471 132.077 103.621C139.412 107.235 145.577 119.94 146.807 135.444C148.131 151.906 143.458 166.098 136.042 169.949Z" fill="#606161"/>
<path d="M163.681 135.615C161.851 112.618 148.087 94.9538 132.945 96.1517C117.803 97.3497 107.026 116.99 108.859 139.987C110.693 162.985 124.437 180.637 139.591 179.439C154.745 178.241 165.514 158.633 163.681 135.615ZM136.042 169.949C128.707 166.334 122.559 153.65 121.328 138.125C120.004 121.663 124.673 107.471 132.077 103.621C139.412 107.235 145.577 119.94 146.807 135.444C148.131 151.906 143.458 166.098 136.042 169.949Z" fill="url(#paint12_linear)"/>
<path d="M136.041 169.949C134.984 170.528 133.816 170.878 132.615 170.975C123.288 171.717 114.494 157.007 112.995 138.125C111.495 119.243 117.84 103.352 127.171 102.61C128.863 102.488 130.555 102.838 132.06 103.621C124.657 107.471 119.987 121.663 121.311 138.125C122.558 153.646 128.715 166.334 136.041 169.949Z" fill="#606161"/>
<path d="M136.041 169.949C134.984 170.528 133.816 170.878 132.615 170.975C123.288 171.717 114.494 157.007 112.995 138.125C111.495 119.243 117.84 103.352 127.171 102.61C128.863 102.488 130.555 102.838 132.06 103.621C124.657 107.471 119.987 121.663 121.311 138.125C122.558 153.646 128.715 166.334 136.041 169.949Z" fill="url(#paint13_linear)"/>
<path d="M112.983 61.4558C118.317 61.5047 123.459 63.322 128.467 65.123C128.821 65.203 129.133 65.4104 129.343 65.7057C129.431 65.9325 129.434 66.1836 129.351 66.4123C129.268 66.641 129.104 66.8316 128.891 66.9485C128.452 67.1654 127.96 67.2531 127.473 67.2011C123.011 67.087 118.883 65.0782 114.47 64.6341C113.114 64.4996 109.895 65.176 109.296 63.4361C108.676 61.5984 111.83 61.4436 112.983 61.4558Z" fill="#6E71FF"/>
<path d="M114.226 68.5823C114.24 68.9916 114.112 69.3931 113.864 69.7191C113.358 70.4118 112.425 70.8885 111.606 71.2186C109.712 71.9602 107.723 72.7181 105.702 72.4654C104.219 72.278 102.85 71.5486 101.55 70.8356C100.462 70.2529 99.37 69.6661 98.2902 69.0671C96.3018 67.9955 94.2807 66.8749 92.8423 65.1228C90.7602 62.5965 92.8423 60.8607 94.6434 59.0108C95.0451 58.595 95.4783 58.2109 95.9391 57.8617C97.5573 56.5757 99.4726 55.7168 101.509 55.3639C102.85 55.1439 104.304 55.1602 105.535 55.7714C106.393 56.2845 107.148 56.9534 107.76 57.7435C110.28 60.6736 112.349 63.9626 113.9 67.5025C114.079 67.8374 114.19 68.2044 114.226 68.5823Z" fill="#6E71FF"/>
<path d="M114.226 68.5823C114.239 68.9916 114.111 69.3931 113.863 69.7191C113.473 69.9517 113.064 70.1521 112.641 70.3181C110.746 71.076 108.754 71.8339 106.737 71.5812C105.237 71.3938 103.884 70.6644 102.568 69.9514C101.48 69.3687 100.405 68.7656 99.3085 68.1829C97.3364 67.1113 95.299 65.9744 93.8769 64.2386C91.7948 61.696 93.8769 59.9765 95.6617 58.1266C95.7517 58.033 95.8469 57.9445 95.9469 57.8617C97.5651 56.5757 99.4804 55.7168 101.517 55.3639C102.858 55.1439 104.312 55.1602 105.543 55.7714C106.401 56.2845 107.155 56.9534 107.768 57.7435C110.288 60.6736 112.357 63.9626 113.908 67.5025C114.084 67.838 114.192 68.2049 114.226 68.5823Z" fill="url(#paint14_linear)"/>
<path d="M95.4502 69.7559L115.176 130.518C115.176 130.518 117.698 138.089 118.489 139.511C119.279 140.933 122.747 139.824 123.064 139.193C123.382 138.561 124.169 136.671 124.169 136.671L104.288 81.9067L99.2397 67.7063C99.2397 67.7063 95.4502 66.6021 95.4502 69.7559Z" fill="#6E71FF"/>
<path d="M95.4502 69.7559L115.176 130.518C115.176 130.518 117.698 138.089 118.489 139.511C119.279 140.933 122.747 139.824 123.064 139.193C123.382 138.561 124.169 136.671 124.169 136.671L104.288 81.9067L99.2397 67.7063C99.2397 67.7063 95.4502 66.6021 95.4502 69.7559Z" fill="url(#paint15_linear)"/>
<path d="M118.427 96.4945C119.108 95.6088 119.911 94.8229 120.81 94.1597C121.972 93.3895 123.357 93.0513 124.714 92.7457C130.357 91.4785 136.429 90.5861 141.787 92.7457C142.507 92.9841 143.148 93.4154 143.641 93.9926C144.089 94.5997 144.191 95.5206 143.69 96.0829C143.25 96.5759 142.516 96.6534 141.856 96.686C136.005 96.9834 129.97 96.6004 124.474 98.6214C120.607 100.039 117.257 102.574 114.128 105.251C112.091 107.007 112.192 103.796 113.109 102.643C114.784 100.553 116.683 98.5563 118.427 96.4945Z" fill="#6E71FF"/>
<path d="M118.427 96.4945C119.108 95.6088 119.911 94.8229 120.81 94.1597C121.972 93.3895 123.357 93.0513 124.714 92.7457C130.357 91.4785 136.429 90.5861 141.787 92.7457C142.507 92.9841 143.148 93.4154 143.641 93.9926C144.089 94.5997 144.191 95.5206 143.69 96.0829C143.25 96.5759 142.516 96.6534 141.856 96.686C136.005 96.9834 129.97 96.6004 124.474 98.6214C120.607 100.039 117.257 102.574 114.128 105.251C112.091 107.007 112.192 103.796 113.109 102.643C114.784 100.553 116.683 98.5563 118.427 96.4945Z" fill="url(#paint16_linear)"/>
<path d="M84.7827 86.1279C81.9304 87.7822 78.9355 89.7299 75.6269 89.5996C74.9089 89.5114 74.1835 89.5004 73.4632 89.567C72.7501 89.6974 72.033 90.17 71.9067 90.8831C71.6663 92.2155 73.4551 92.9204 74.8079 92.8715C77.2527 92.7615 79.7871 91.8488 82.0201 92.8145C82.8323 93.2103 83.5809 93.7253 84.2408 94.3425L93.4781 102.158C94.1464 102.724 94.8391 103.323 95.1528 104.138C95.4666 104.953 95.3443 105.87 95.4584 106.738C95.5725 107.606 96.0696 108.567 96.9375 108.681C98.2496 108.848 98.8771 107.166 99.199 105.882C99.6803 103.955 100.501 102.13 101.623 100.491C102.418 99.334 103.371 98.2501 103.852 96.934C104.333 95.6179 104.207 93.935 103.103 93.0712C102.957 92.9454 102.788 92.8497 102.606 92.7896C102.423 92.7294 102.231 92.706 102.039 92.7208C101.655 92.8072 101.304 93.0057 101.033 93.2912C98.9616 95.132 97.2774 97.3661 96.0778 99.8637L86.7263 92.0403C86.2414 91.6328 85.7199 91.1642 85.6588 90.5367C85.5773 89.6648 86.3963 89.0047 87.1379 88.5361C90.0956 86.6719 93.2143 85.0764 96.4567 83.7687C97.4306 83.3612 100.658 82.2162 100.332 80.676C100.006 79.1357 96.3549 80.9245 95.4054 81.2586C91.72 82.5459 88.1635 84.1761 84.7827 86.1279Z" fill="#6E71FF"/>
<path d="M94.6512 111.424C92.7524 113.131 91.64 115.527 90.6417 117.878C87.9901 124.102 85.7696 130.501 83.9958 137.029C83.2705 139.698 82.6145 142.485 83.0994 145.207C83.5843 147.929 85.5116 150.578 88.2376 151.067C88.7266 151.152 89.3378 151.116 89.5904 150.684C89.843 150.252 89.5619 149.686 89.3133 149.229C88.1235 147.049 87.8138 144.498 87.7405 142.013C87.4984 133.152 89.9276 124.423 94.7123 116.962C95.8247 115.234 97.1571 113.514 99.0274 112.683C100.213 112.157 104.1 110.894 101.57 109.676C99.4512 108.649 96.1914 110.022 94.6512 111.424Z" fill="#6E71FF"/>
<path d="M101.003 113.143C99.9195 115.254 98.6278 117.491 98.966 119.834C99.0814 120.604 99.3729 121.337 99.8178 121.976C100.263 122.615 100.849 123.142 101.531 123.518C102.213 123.893 102.972 124.106 103.75 124.14C104.528 124.174 105.303 124.028 106.015 123.713C106.667 123.428 107.238 123.004 107.898 122.715C108.593 122.407 109.347 122.252 110.108 122.261C110.869 122.27 111.619 122.443 112.307 122.768C112.376 122.059 111.789 121.415 111.113 121.179C110.42 120.996 109.695 120.969 108.99 121.097L105.249 121.505C104.063 121.635 102.76 121.733 101.786 121.048C100.661 120.258 100.392 118.697 100.494 117.328C100.686 114.794 101.806 112.406 103.212 110.283C104.104 108.938 105.131 107.647 105.657 106.119C106.109 104.811 106.235 102.9 105.05 102.044C103.562 105.662 102.833 109.562 101.003 113.143Z" fill="#6E71FF"/>
<path d="M81.3758 99.098C81.2472 99.4304 81.1504 99.7742 81.0865 100.125C81.0634 100.449 81.0771 100.774 81.1272 101.095L81.93 107.545C81.9745 108.197 82.1117 108.839 82.3374 109.452C82.5045 109.859 82.7449 110.214 82.8916 110.617C83.0832 111.311 83.129 112.036 83.0261 112.748L82.5371 119.109C82.5375 119.39 82.4778 119.668 82.3619 119.924C81.9544 120.674 80.7524 120.559 80.1941 119.924C79.6359 119.288 79.5422 118.371 79.477 117.528L79.1551 113.331C79.0241 112.148 79.0172 110.954 79.1347 109.77C79.2406 108.983 79.4566 108.217 79.5788 107.435C80.243 103.16 78.0997 98.829 78.6987 94.5465C78.7243 94.2091 78.829 93.8825 79.0043 93.593C79.7785 92.4969 81.4491 93.1448 81.8566 94.1227C82.3985 95.2922 81.7629 97.9204 81.3758 99.098Z" fill="#6E71FF"/>
<path d="M69.7459 119.052C68.3197 120.551 67.4029 122.45 66.5391 124.324C66.111 125.209 65.7368 126.12 65.4186 127.05C64.4406 130.057 64.5669 133.309 64.8562 136.459C64.9622 137.571 65.1007 138.728 65.7242 139.653C66.0241 140.098 66.4237 140.466 66.891 140.729C67.3584 140.992 67.8807 141.143 68.4164 141.168C68.952 141.194 69.4863 141.094 69.9767 140.877C70.4671 140.66 70.9001 140.332 71.2413 139.918C71.8484 139.185 72.1214 138.243 72.427 137.339C73.3601 134.568 74.7007 131.952 75.7642 129.226C76.8277 126.5 77.6223 123.595 77.3941 120.669C77.2718 119.162 76.7095 116.819 74.9493 116.672C72.9975 116.525 71.0294 117.699 69.7459 119.052Z" fill="url(#paint17_linear)"/>
<path d="M108.257 71.4349C107.762 71.9167 107.303 72.4343 106.884 72.9833C105.833 74.2248 105.051 75.6704 104.586 77.2291C103.799 80.3544 105.262 83.826 107.845 85.7289C110.429 87.6318 113.99 88.023 117.071 87.0736C117.635 86.93 118.16 86.6612 118.607 86.2872C119.021 85.842 119.343 85.3201 119.556 84.751C120.098 83.549 120.648 82.3062 120.734 80.9982C120.768 79.7878 120.546 78.5838 120.082 77.4654C119.092 74.8099 117.528 72.4057 115.502 70.4243C114.279 69.2345 113.733 68.8556 112.034 69.316C110.623 69.7075 109.327 70.4345 108.257 71.4349Z" fill="#6E71FF"/>
<path d="M116.969 87.6278C121.771 87.6278 125.664 83.4684 125.664 78.3375C125.664 73.2066 121.771 69.0472 116.969 69.0472C112.167 69.0472 108.273 73.2066 108.273 78.3375C108.273 83.4684 112.167 87.6278 116.969 87.6278Z" fill="#6E71FF"/>
<path d="M116.969 87.6278C121.771 87.6278 125.664 83.4684 125.664 78.3375C125.664 73.2066 121.771 69.0472 116.969 69.0472C112.167 69.0472 108.273 73.2066 108.273 78.3375C108.273 83.4684 112.167 87.6278 116.969 87.6278Z" fill="url(#paint18_linear)"/>
<path d="M117.515 86.7436C121.89 86.7436 125.436 82.9563 125.436 78.2845C125.436 73.6127 121.89 69.8254 117.515 69.8254C113.14 69.8254 109.594 73.6127 109.594 78.2845C109.594 82.9563 113.14 86.7436 117.515 86.7436Z" fill="url(#paint19_linear)"/>
<path d="M123.899 116.758C130.011 116.297 136.16 120.734 137.639 126.696C136.532 125.499 135.087 124.668 133.496 124.312C131.905 123.956 130.244 124.093 128.732 124.703C131.89 126.843 134.27 129.948 135.516 133.553L134.168 132.779C135.036 135.948 135.256 139.259 134.815 142.515C134.374 145.77 133.281 148.903 131.601 151.727L135.838 144.722C135.679 147.501 135.207 150.362 133.683 152.688C132.159 155.015 129.36 156.694 126.621 156.188C128.477 156.881 130.465 157.143 132.437 156.957C134.409 156.771 136.313 156.14 138.006 155.113C137.082 157.172 136.064 159.186 134.95 161.156C138.098 157.214 140.405 152.669 141.729 147.801C143.052 142.933 143.363 137.846 142.643 132.853C142.972 136.398 142.934 139.967 142.529 143.504C144.068 138.562 144.45 133.333 143.645 128.22C142.839 123.107 140.868 118.248 137.884 114.019C138.501 116.644 138.558 119.37 138.051 122.018C136.454 118.233 134.274 113.954 130.24 113.168C131.242 113.526 132.277 113.453 132.925 112.83C129.665 111.986 125.737 114.015 123.899 116.758Z" fill="url(#paint20_linear)" fill-opacity="0.5"/>
<path d="M88.3523 47.1857C88.0324 48.1949 87.946 49.2636 88.0997 50.311C88.2096 50.7382 88.263 51.178 88.2586 51.619C88.2562 51.8419 88.195 52.0603 88.0813 52.252C87.9675 52.4438 87.8052 52.6021 87.6107 52.711C87.5764 52.7281 87.5389 52.7378 87.5007 52.7396C87.5087 52.6039 87.5087 52.4678 87.5007 52.3321C87.3906 50.9874 87.0606 49.6469 87.0728 48.3063C87.0386 47.7755 87.1665 47.2469 87.4395 46.7905C87.6854 46.4278 88.0388 46.1513 88.4501 46C88.4789 46.0014 88.5063 46.0129 88.5275 46.0326C88.8575 46.3464 88.4949 46.7416 88.3523 47.1857Z" fill="url(#paint21_linear)"/>
<defs>
<linearGradient id="paint0_linear" x1="1984.8" y1="9925" x2="2442.54" y2="12708.2" gradientUnits="userSpaceOnUse">
<stop stop-color="#010101" stop-opacity="0"/>
<stop offset="0.95" stop-color="#010101"/>
</linearGradient>
<linearGradient id="paint1_linear" x1="3509.87" y1="14475.3" x2="4589.54" y2="13521" gradientUnits="userSpaceOnUse">
<stop stop-color="#010101" stop-opacity="0"/>
<stop offset="0.95" stop-color="#010101"/>
</linearGradient>
<linearGradient id="paint2_linear" x1="55.5382" y1="134.992" x2="56.2095" y2="104.269" gradientUnits="userSpaceOnUse">
<stop stop-opacity="0"/>
<stop offset="0.639117" stop-opacity="0.75"/>
<stop offset="1"/>
</linearGradient>
<linearGradient id="paint3_linear" x1="57.1004" y1="139.499" x2="57.3516" y2="122.316" gradientUnits="userSpaceOnUse">
<stop stop-opacity="0"/>
<stop offset="0.639117" stop-opacity="0.75"/>
<stop offset="1"/>
</linearGradient>
<linearGradient id="paint4_linear" x1="59.1741" y1="122.108" x2="60.9719" y2="88.8954" gradientUnits="userSpaceOnUse">
<stop stop-opacity="0"/>
<stop offset="0.639117" stop-opacity="0.75"/>
<stop offset="1"/>
</linearGradient>
<linearGradient id="paint5_linear" x1="10270.4" y1="1005.86" x2="10268.6" y2="1094.39" gradientUnits="userSpaceOnUse">
<stop stop-color="white" stop-opacity="0"/>
<stop offset="0.95" stop-color="white"/>
</linearGradient>
<linearGradient id="paint6_linear" x1="81.1391" y1="53.6795" x2="56.2403" y2="50.8131" gradientUnits="userSpaceOnUse">
<stop offset="0.079127"/>
<stop offset="0.83" stop-opacity="0.07"/>
<stop offset="1" stop-opacity="0"/>
</linearGradient>
<linearGradient id="paint7_linear" x1="80.5418" y1="57.6029" x2="56.806" y2="53.1347" gradientUnits="userSpaceOnUse">
<stop offset="0.079127"/>
<stop offset="0.83" stop-opacity="0.07"/>
<stop offset="1" stop-opacity="0"/>
</linearGradient>
<linearGradient id="paint8_linear" x1="119.226" y1="97.163" x2="130.586" y2="92.3368" gradientUnits="userSpaceOnUse">
<stop offset="0.02" stop-color="white" stop-opacity="0"/>
<stop offset="0.58" stop-color="white" stop-opacity="0.39"/>
<stop offset="1" stop-color="white"/>
</linearGradient>
<linearGradient id="paint9_linear" x1="105.125" y1="160.088" x2="112.841" y2="2.43899" gradientUnits="userSpaceOnUse">
<stop stop-opacity="0"/>
<stop offset="0.639117" stop-opacity="0.75"/>
<stop offset="1"/>
</linearGradient>
<linearGradient id="paint10_linear" x1="106.659" y1="171.696" x2="120.022" y2="3.84788" gradientUnits="userSpaceOnUse">
<stop stop-opacity="0"/>
<stop offset="0.639117" stop-opacity="0.75"/>
<stop offset="1"/>
</linearGradient>
<linearGradient id="paint11_linear" x1="929.547" y1="4616.19" x2="942.74" y2="4616.19" gradientUnits="userSpaceOnUse">
<stop stop-color="#010101" stop-opacity="0"/>
<stop offset="0.95" stop-color="#010101"/>
</linearGradient>
<linearGradient id="paint12_linear" x1="172.092" y1="43.4294" x2="99.4743" y2="37.3628" gradientUnits="userSpaceOnUse">
<stop offset="0.079127"/>
<stop offset="0.83" stop-opacity="0.07"/>
<stop offset="1" stop-opacity="0"/>
</linearGradient>
<linearGradient id="paint13_linear" x1="150.743" y1="56.6583" x2="112.388" y2="56.0698" gradientUnits="userSpaceOnUse">
<stop offset="0.079127"/>
<stop offset="0.83" stop-opacity="0.07"/>
<stop offset="1" stop-opacity="0"/>
</linearGradient>
<linearGradient id="paint14_linear" x1="105.999" y1="73.4157" x2="106.825" y2="41.0895" gradientUnits="userSpaceOnUse">
<stop stop-opacity="0"/>
<stop offset="0.639117" stop-opacity="0.75"/>
<stop offset="1"/>
</linearGradient>
<linearGradient id="paint15_linear" x1="101.459" y1="104.096" x2="110.481" y2="101.374" gradientUnits="userSpaceOnUse">
<stop offset="0.02" stop-color="white" stop-opacity="0"/>
<stop offset="0.58" stop-color="white" stop-opacity="0.39"/>
<stop offset="1" stop-color="white"/>
</linearGradient>
<linearGradient id="paint16_linear" x1="117.926" y1="114.496" x2="136.725" y2="88.9366" gradientUnits="userSpaceOnUse">
<stop offset="0.02" stop-color="white" stop-opacity="0"/>
<stop offset="0.58" stop-color="white" stop-opacity="0.39"/>
<stop offset="1" stop-color="white"/>
</linearGradient>
<linearGradient id="paint17_linear" x1="79.3337" y1="101.181" x2="62.4774" y2="100.072" gradientUnits="userSpaceOnUse">
<stop offset="0.079127"/>
<stop offset="0.83" stop-opacity="0.07"/>
<stop offset="1" stop-opacity="0"/>
</linearGradient>
<linearGradient id="paint18_linear" x1="103.192" y1="85.4627" x2="117.409" y2="78.0662" gradientUnits="userSpaceOnUse">
<stop offset="0.02" stop-color="white" stop-opacity="0"/>
<stop offset="0.58" stop-color="white" stop-opacity="0.39"/>
<stop offset="1" stop-color="white"/>
</linearGradient>
<linearGradient id="paint19_linear" x1="117.544" y1="97.4303" x2="118.648" y2="77.3851" gradientUnits="userSpaceOnUse">
<stop offset="0.02" stop-color="white" stop-opacity="0"/>
<stop offset="0.58" stop-color="white" stop-opacity="0.39"/>
<stop offset="1" stop-color="white"/>
</linearGradient>
<linearGradient id="paint20_linear" x1="134.015" y1="191.803" x2="141.063" y2="135.017" gradientUnits="userSpaceOnUse">
<stop offset="0.02" stop-color="white" stop-opacity="0"/>
<stop offset="0.58" stop-color="white" stop-opacity="0.39"/>
<stop offset="1" stop-color="white"/>
</linearGradient>
<linearGradient id="paint21_linear" x1="519.305" y1="1053.63" x2="548.044" y2="1046.8" gradientUnits="userSpaceOnUse">
<stop stop-color="#010101" stop-opacity="0"/>
<stop offset="0.95" stop-color="#010101"/>
</linearGradient>
</defs>
</svg>
