<svg width="208" height="208" viewBox="0 0 208 208" fill="none" xmlns="http://www.w3.org/2000/svg">
<path opacity="0.18" d="M192.017 177.378C189.587 179.312 186.934 180.891 184.126 182.076C179.264 184.121 174.086 185.037 169.097 186.613C166.882 187.305 164.709 188.145 162.577 189.06C149.664 194.575 137.813 203.324 124.229 206.517C99.0577 212.478 74.7302 198.925 50.6703 193.178C30.0558 188.265 13.3023 200.01 4.97912 164.472C1.50082 149.678 -2.80485 134.012 2.45993 119.816C7.72471 105.62 15.1382 92.5085 20.1601 78.2407C27.3308 57.8639 29.9858 34.388 44.0966 18.8386C53.8687 8.07191 67.8354 2.87389 81.6704 1.02957C95.5053 -0.814744 109.513 0.368654 123.443 0.431173C140.221 0.489226 158.094 -0.787951 172.604 8.37557C177.722 11.6579 182.132 16.0903 185.54 21.3748C188.948 26.6594 191.274 32.6739 192.362 39.0144C195.244 56.5153 188.403 74.6593 191.477 92.1289C194.33 108.393 205.473 122.004 207.65 138.402C209.626 153.165 203.065 168.652 192.017 177.378Z" fill="#6E71FF"/>
<circle cx="104.5" cy="104.5" r="64.5" fill="#6E71FF"/>
<path d="M94.6305 126.988C94.5848 126.942 94.537 126.899 94.4907 126.854L125.855 95.4905C125.9 95.5367 125.942 95.5845 125.988 95.6302C131.252 100.895 139.788 100.895 145.052 95.6302C150.317 90.3659 150.317 81.8307 145.052 76.5662C142.632 74.1462 139.52 72.8417 136.354 72.6468C136.159 69.4797 134.854 66.3682 132.434 63.9482C127.17 58.6839 118.635 58.6839 113.37 63.9482C108.106 69.2125 108.106 77.7478 113.37 83.0123C113.416 83.058 113.464 83.1007 113.51 83.1457L82.1458 114.509C82.1008 114.463 82.0581 114.415 82.0124 114.37C76.7481 109.105 68.2128 109.105 62.9484 114.37C57.6839 119.634 57.6839 128.169 62.9484 133.434C65.3685 135.854 68.48 137.158 71.6469 137.353C71.8418 140.52 73.1463 143.632 75.5663 146.052C80.8306 151.316 89.3658 151.316 94.6303 146.052C99.8948 140.787 99.895 132.252 94.6305 126.988Z" fill="url(#paint0_linear)"/>
<path d="M145.052 76.5662C144.482 75.9963 143.873 75.4906 143.235 75.0444C146.917 80.3024 146.414 87.5998 141.718 92.2958C136.454 97.5603 127.919 97.5603 122.654 92.2958C122.608 92.2501 122.566 92.2023 122.521 92.156L91.1565 123.52C91.2028 123.565 91.2506 123.608 91.2963 123.654C96.5608 128.918 96.5606 137.453 91.2963 142.718C86.6001 147.414 79.3029 147.917 74.0449 144.234C74.4911 144.873 74.997 145.482 75.5667 146.052C80.8311 151.316 89.3662 151.316 94.6307 146.052C99.895 140.788 99.8952 132.252 94.6307 126.988C94.585 126.942 94.5372 126.899 94.4909 126.854L125.855 95.4904C125.9 95.5367 125.943 95.5845 125.988 95.6302C131.253 100.895 139.788 100.894 145.052 95.6302C150.316 90.3657 150.316 81.8305 145.052 76.5662Z" fill="#6E71FF"/>
<path d="M145.052 76.5662C144.482 75.9963 143.873 75.4906 143.235 75.0444C146.917 80.3024 146.414 87.5998 141.718 92.2958C136.454 97.5603 127.919 97.5603 122.654 92.2958C122.608 92.2501 122.566 92.2023 122.521 92.156L91.1565 123.52C91.2028 123.565 91.2506 123.608 91.2963 123.654C96.5608 128.918 96.5606 137.453 91.2963 142.718C86.6001 147.414 79.3029 147.917 74.0449 144.234C74.4911 144.873 74.997 145.482 75.5667 146.052C80.8311 151.316 89.3662 151.316 94.6307 146.052C99.895 140.788 99.8952 132.252 94.6307 126.988C94.585 126.942 94.5372 126.899 94.4909 126.854L125.855 95.4904C125.9 95.5367 125.943 95.5845 125.988 95.6302C131.253 100.895 139.788 100.894 145.052 95.6302C150.316 90.3657 150.316 81.8305 145.052 76.5662Z" fill="url(#paint1_linear)"/>
<defs>
<linearGradient id="paint0_linear" x1="104" y1="146.585" x2="104" y2="165.268" gradientUnits="userSpaceOnUse">
<stop stop-color="white"/>
<stop offset="1" stop-color="white" stop-opacity="0"/>
</linearGradient>
<linearGradient id="paint1_linear" x1="157.439" y1="49.9553" x2="-14.5267" y2="201.63" gradientUnits="userSpaceOnUse">
<stop stop-color="white"/>
<stop offset="1" stop-color="white" stop-opacity="0"/>
</linearGradient>
</defs>
</svg>
