<svg width="208" height="208" viewBox="0 0 208 208" fill="none" xmlns="http://www.w3.org/2000/svg">
<path opacity="0.18" d="M207.995 150.775C208.327 175.661 191.696 199.325 170.959 203.498C161.254 205.46 151.353 203.57 141.497 203.053C120.059 201.947 98.6698 207.386 77.2693 207.957C72.9371 208.073 68.5975 207.957 64.254 207.596C49.9732 206.317 36.0274 201.845 23.1571 194.417C17.6675 191.251 12.3098 187.471 8.3132 182.032C-0.260592 170.378 -1.0863 153.32 0.896908 138.073C2.88012 122.826 7.24242 107.921 7.46487 92.4868C7.62323 81.7111 5.75313 71.0513 5.27429 60.289C4.79546 49.5266 5.90017 38.1134 11.2579 29.4019C16.6155 20.6904 25.5324 15.9155 34.4644 13.838C43.3964 11.7604 52.5621 12.0324 61.66 11.3636C80.4779 9.99937 98.9036 4.57362 117.612 1.86744C145.513 -2.17624 190.38 -3.48252 193.468 39.6961C193.705 43.2674 193.77 46.8517 193.664 50.4317C193.393 62.3576 191.843 74.3282 193.125 86.1649C195.523 108.407 207.693 128.363 207.995 150.775Z" fill="#6E71FF"/>
<path d="M38 75.4747L103 43L168 75.4744V79.7636L103 112.238L38 79.866V75.4747Z" fill="#6E71FF"/>
<path d="M38 75.4747L103 43L168 75.4744V79.7636L103 112.238L38 79.866V75.4747Z" fill="url(#paint0_linear)" fill-opacity="0.8"/>
<path d="M38 75.4746L103 107.949L168 75.4746V140.526L102.797 173L38 140.526V75.4746Z" fill="#6E71FF"/>
<path d="M103 172.898V107.949L38.4062 75.6787H38V140.525L102.797 173L103 172.898Z" fill="#6E71FF"/>
<path d="M103 172.898V107.949L38.4062 75.6787H38V140.525L102.797 173L103 172.898Z" fill="url(#paint1_linear)" fill-opacity="0.6"/>
<path d="M64.5078 62.3008L129.406 94.7752L142.609 88.2395L77.5077 55.7654L64.5078 62.3008Z" fill="url(#paint2_linear)"/>
<path d="M129.406 94.7754L142.609 88.2397V108.664L139.055 108.051L135.297 112.647L129.406 112.238C129.406 112.238 129.406 94.7754 129.406 94.7754Z" fill="url(#paint3_linear)"/>
<path d="M89.5939 133.888L67.6563 122.859C66.4376 122.246 65.4219 122.961 65.4219 124.493V139.3C65.4219 140.832 66.4374 142.568 67.6563 143.181L89.6955 154.21C90.9142 154.823 91.9299 154.108 91.9299 152.576V137.666C91.8281 136.134 90.8126 134.501 89.5939 133.888ZM84.6172 146.04L70.6015 138.994C69.9922 138.687 69.4844 137.768 69.4844 136.951C69.4844 136.134 69.9922 135.726 70.6015 136.032L84.6172 143.078C85.2265 143.385 85.7343 144.304 85.7343 145.121C85.7343 145.938 85.2265 146.346 84.6172 146.04ZM86.6484 140.934L70.6015 132.764C69.9922 132.458 69.4844 131.539 69.4844 130.722C69.4844 129.905 69.9922 129.496 70.6015 129.803L86.6484 137.972C87.2578 138.279 87.7655 139.198 87.7655 140.015C87.7658 140.934 87.2578 141.24 86.6484 140.934Z" fill="url(#paint4_linear)"/>
<defs>
<linearGradient id="paint0_linear" x1="158.04" y1="15.0282" x2="23.669" y2="97.7308" gradientUnits="userSpaceOnUse">
<stop stop-color="white"/>
<stop offset="1" stop-color="white" stop-opacity="0"/>
</linearGradient>
<linearGradient id="paint1_linear" x1="75.1337" y1="60.7931" x2="70.449" y2="172.998" gradientUnits="userSpaceOnUse">
<stop/>
<stop offset="1" stop-opacity="0"/>
</linearGradient>
<linearGradient id="paint2_linear" x1="134.96" y1="102.539" x2="136.264" y2="110.575" gradientUnits="userSpaceOnUse">
<stop stop-color="white"/>
<stop offset="1" stop-color="white" stop-opacity="0"/>
</linearGradient>
<linearGradient id="paint3_linear" x1="136.008" y1="88.2397" x2="134.427" y2="132.357" gradientUnits="userSpaceOnUse">
<stop offset="0.696637" stop-color="white"/>
<stop offset="1" stop-color="white" stop-opacity="0"/>
</linearGradient>
<linearGradient id="paint4_linear" x1="78.7441" y1="154.397" x2="77.8316" y2="176.177" gradientUnits="userSpaceOnUse">
<stop stop-color="white"/>
<stop offset="1" stop-color="white" stop-opacity="0"/>
</linearGradient>
</defs>
</svg>
