<svg width="208" height="208" viewBox="0 0 208 208" fill="none" xmlns="http://www.w3.org/2000/svg">
<path opacity="0.18" d="M15.9833 177.378C18.4129 179.312 21.0658 180.891 23.8743 182.076C28.7357 184.121 33.914 185.037 38.903 186.613C41.1176 187.305 43.291 188.145 45.4232 189.06C58.3362 194.575 70.1871 203.324 83.7709 206.517C108.942 212.478 133.27 198.925 157.33 193.178C177.944 188.265 194.698 200.01 203.021 164.472C206.499 149.678 210.805 134.012 205.54 119.816C200.275 105.62 192.862 92.5085 187.84 78.2407C180.669 57.8639 178.014 34.388 163.903 18.8386C154.131 8.0719 140.165 2.87389 126.33 1.02957C112.495 -0.814744 98.4868 0.368654 84.5572 0.431173C67.779 0.489226 49.9059 -0.787951 35.3959 8.37557C30.2785 11.6579 25.8677 16.0903 22.4598 21.3748C19.0518 26.6594 16.7257 32.6739 15.6375 39.0144C12.7561 56.5153 19.5974 74.6593 16.5226 92.1289C13.6699 108.393 2.52705 122.004 0.349518 138.402C-1.62631 153.165 4.93507 168.652 15.9833 177.378Z" fill="#6E71FF"/>
<path d="M47.138 59H77.068C78.2486 59 79.206 59.9574 79.206 61.138V78.241C79.206 79.4216 78.2486 80.379 77.068 80.379H47.138C45.9574 80.379 45 79.4216 45 78.241V61.138C45 59.9574 45.9574 59 47.138 59Z" fill="#6E71FF"/>
<path d="M47.138 59H77.068C78.2486 59 79.206 59.9574 79.206 61.138V78.241C79.206 79.4216 78.2486 80.379 77.068 80.379H47.138C45.9574 80.379 45 79.4216 45 78.241V61.138C45 59.9574 45.9574 59 47.138 59Z" fill="url(#paint0_linear)" fill-opacity="0.6"/>
<path d="M69.4583 85.04H99.3883C100.569 85.04 101.526 85.9974 101.526 87.178V104.281C101.526 105.462 100.569 106.419 99.3883 106.419H69.4583C68.2777 106.419 67.3203 105.462 67.3203 104.281V87.178C67.3203 85.9974 68.2777 85.04 69.4583 85.04Z" fill="#6E71FF"/>
<path d="M69.4583 85.04H99.3883C100.569 85.04 101.526 85.9974 101.526 87.178V104.281C101.526 105.462 100.569 106.419 99.3883 106.419H69.4583C68.2777 106.419 67.3203 105.462 67.3203 104.281V87.178C67.3203 85.9974 68.2777 85.04 69.4583 85.04Z" fill="url(#paint1_linear)" fill-opacity="0.8"/>
<path d="M78.138 111.08H108.068C109.249 111.08 110.206 112.037 110.206 113.218V130.321C110.206 131.502 109.249 132.459 108.068 132.459H78.138C76.9574 132.459 76 131.502 76 130.321V113.218C76 112.037 76.9574 111.08 78.138 111.08Z" fill="#6E71FF"/>
<path d="M78.138 111.08H108.068C109.249 111.08 110.206 112.037 110.206 113.218V130.321C110.206 131.502 109.249 132.459 108.068 132.459H78.138C76.9574 132.459 76 131.502 76 130.321V113.218C76 112.037 76.9574 111.08 78.138 111.08Z" fill="url(#paint2_linear)" fill-opacity="0.5"/>
<path d="M86.8177 137.12H116.748C117.928 137.12 118.886 138.077 118.886 139.258V156.361C118.886 157.542 117.928 158.499 116.748 158.499H86.8177C85.6371 158.499 84.6797 157.542 84.6797 156.361V139.258C84.6797 138.077 85.6371 137.12 86.8177 137.12Z" fill="#6E71FF"/>
<path d="M86.8177 137.12H116.748C117.928 137.12 118.886 138.077 118.886 139.258V156.361C118.886 157.542 117.928 158.499 116.748 158.499H86.8177C85.6371 158.499 84.6797 157.542 84.6797 156.361V139.258C84.6797 138.077 85.6371 137.12 86.8177 137.12Z" fill="url(#paint3_linear)" fill-opacity="0.7"/>
<path d="M47.138 137.12H77.068C78.2486 137.12 79.206 138.077 79.206 139.258V156.361C79.206 157.542 78.2486 158.499 77.068 158.499H47.138C45.9574 158.499 45 157.542 45 156.361V139.258C45 138.077 45.9574 137.12 47.138 137.12Z" fill="#6E71FF"/>
<path d="M47.138 137.12H77.068C78.2486 137.12 79.206 138.077 79.206 139.258V156.361C79.206 157.542 78.2486 158.499 77.068 158.499H47.138C45.9574 158.499 45 157.542 45 156.361V139.258C45 138.077 45.9574 137.12 47.138 137.12Z" fill="url(#paint4_linear)" fill-opacity="0.7"/>
<path d="M117.818 111.08H147.748C148.928 111.08 149.886 112.037 149.886 113.218V130.321C149.886 131.502 148.928 132.459 147.748 132.459H117.818C116.637 132.459 115.68 131.502 115.68 130.321V113.218C115.68 112.037 116.637 111.08 117.818 111.08Z" fill="#6E71FF"/>
<path d="M117.818 111.08H147.748C148.928 111.08 149.886 112.037 149.886 113.218V130.321C149.886 131.502 148.928 132.459 147.748 132.459H117.818C116.637 132.459 115.68 131.502 115.68 130.321V113.218C115.68 112.037 116.637 111.08 117.818 111.08Z" fill="url(#paint5_linear)" fill-opacity="0.9"/>
<path d="M128.464 137.12H158.394C159.575 137.12 160.532 138.077 160.532 139.258V156.361C160.532 157.542 159.575 158.499 158.394 158.499H128.464C127.284 158.499 126.326 157.542 126.326 156.361V139.258C126.326 138.077 127.284 137.12 128.464 137.12Z" fill="#6E71FF"/>
<path d="M128.464 137.12H158.394C159.575 137.12 160.532 138.077 160.532 139.258V156.361C160.532 157.542 159.575 158.499 158.394 158.499H128.464C127.284 158.499 126.326 157.542 126.326 156.361V139.258C126.326 138.077 127.284 137.12 128.464 137.12Z" fill="url(#paint6_linear)" fill-opacity="0.9"/>
<path d="M46.6276 111.08H69.4124C70.3112 111.08 71.04 112.024 71.04 113.188V130.052C71.04 131.216 70.3112 132.16 69.4124 132.16H46.6276C45.7288 132.16 45 131.216 45 130.052V113.188C45 112.024 45.7288 111.08 46.6276 111.08Z" fill="#6E71FF"/>
<path d="M46.6276 111.08H69.4124C70.3112 111.08 71.04 112.024 71.04 113.188V130.052C71.04 131.216 70.3112 132.16 69.4124 132.16H46.6276C45.7288 132.16 45 131.216 45 130.052V113.188C45 112.024 45.7288 111.08 46.6276 111.08Z" fill="url(#paint7_linear)" fill-opacity="0.8"/>
<path d="M46.0851 85.04H61.2749C61.8741 85.04 62.36 85.9831 62.36 87.1482V104.012C62.36 105.177 61.8741 106.12 61.2749 106.12H46.0851C45.4859 106.12 45 105.177 45 104.012V87.1482C45 85.9831 45.4859 85.04 46.0851 85.04Z" fill="#6E71FF"/>
<path d="M46.0851 85.04H61.2749C61.8741 85.04 62.36 85.9831 62.36 87.1482V104.012C62.36 105.177 61.8741 106.12 61.2749 106.12H46.0851C45.4859 106.12 45 105.177 45 104.012V87.1482C45 85.9831 45.4859 85.04 46.0851 85.04Z" fill="url(#paint8_linear)" fill-opacity="0.8"/>
<path d="M139.183 118.433L96.7683 127.453C95.6917 127.657 94.5933 127.231 93.9349 126.354C93.2774 125.478 93.1762 124.304 93.6728 123.327L114.197 85.1307C114.657 84.3199 115.502 83.8006 116.433 83.7571C117.366 83.7145 118.255 84.1516 118.789 84.9169L140.679 114.085C141.264 114.812 141.435 115.79 141.131 116.672C140.827 117.555 140.091 118.22 139.183 118.433Z" fill="url(#paint9_linear)"/>
<path d="M119.644 109.412C118.724 109.412 117.906 108.824 117.616 107.951C117.324 107.077 117.625 106.116 118.361 105.564L135.063 93.0365C135.899 92.4092 136.366 91.4055 136.307 90.3611L136.093 86.5136C135.953 84.0416 137.06 81.6651 139.041 80.1808L145.209 75.5481C145.82 75.0893 146.629 74.9918 147.332 75.2927C148.034 75.5926 148.523 76.2444 148.614 77.0022C148.705 77.7609 148.386 78.5101 147.774 78.969L141.606 83.5969C140.769 84.2242 140.301 85.2289 140.36 86.2742L140.574 90.1217C140.715 92.5937 139.608 94.9711 137.625 96.4545L120.924 108.985C120.555 109.263 120.106 109.413 119.644 109.412Z" fill="url(#paint10_linear)"/>
<path d="M145.042 71.8045L160.971 59.8551C162.859 58.4389 165.539 58.8211 166.957 60.7103L168.145 62.294C169.562 64.1832 169.18 66.8633 167.291 68.2805L151.361 80.2289C150.417 80.9375 149.077 80.7464 148.368 79.8013L144.614 74.7977C143.906 73.8526 144.098 72.513 145.042 71.8045Z" fill="#6E71FF"/>
<path d="M145.042 71.8045L160.971 59.8551C162.859 58.4389 165.539 58.8211 166.957 60.7103L168.145 62.294C169.562 64.1832 169.18 66.8633 167.291 68.2805L151.361 80.2289C150.417 80.9375 149.077 80.7464 148.368 79.8013L144.614 74.7977C143.906 73.8526 144.098 72.513 145.042 71.8045Z" fill="url(#paint11_linear)" fill-opacity="0.8"/>
<defs>
<linearGradient id="paint0_linear" x1="62.36" y1="52.8" x2="62.36" y2="91.24" gradientUnits="userSpaceOnUse">
<stop/>
<stop offset="1" stop-opacity="0"/>
</linearGradient>
<linearGradient id="paint1_linear" x1="84.6803" y1="78.84" x2="84.6803" y2="123.48" gradientUnits="userSpaceOnUse">
<stop/>
<stop offset="1" stop-opacity="0"/>
</linearGradient>
<linearGradient id="paint2_linear" x1="93.36" y1="106.74" x2="92.12" y2="149.52" gradientUnits="userSpaceOnUse">
<stop/>
<stop offset="1" stop-opacity="0"/>
</linearGradient>
<linearGradient id="paint3_linear" x1="102.04" y1="132.16" x2="102.04" y2="168.74" gradientUnits="userSpaceOnUse">
<stop/>
<stop offset="1" stop-opacity="0"/>
</linearGradient>
<linearGradient id="paint4_linear" x1="62.36" y1="131.54" x2="62.36" y2="174.94" gradientUnits="userSpaceOnUse">
<stop/>
<stop offset="1" stop-opacity="0"/>
</linearGradient>
<linearGradient id="paint5_linear" x1="133.04" y1="104.88" x2="133.04" y2="151.38" gradientUnits="userSpaceOnUse">
<stop/>
<stop offset="1" stop-opacity="0"/>
</linearGradient>
<linearGradient id="paint6_linear" x1="142.96" y1="132.16" x2="146.06" y2="178.04" gradientUnits="userSpaceOnUse">
<stop/>
<stop offset="1" stop-opacity="0"/>
</linearGradient>
<linearGradient id="paint7_linear" x1="57.4" y1="106.12" x2="58.02" y2="156.96" gradientUnits="userSpaceOnUse">
<stop/>
<stop offset="1" stop-opacity="0"/>
</linearGradient>
<linearGradient id="paint8_linear" x1="53.68" y1="74.5" x2="53.68" y2="121.62" gradientUnits="userSpaceOnUse">
<stop/>
<stop offset="1" stop-opacity="0"/>
</linearGradient>
<linearGradient id="paint9_linear" x1="116.92" y1="138.36" x2="116.92" y2="164.4" gradientUnits="userSpaceOnUse">
<stop stop-color="white"/>
<stop offset="1" stop-color="white" stop-opacity="0"/>
</linearGradient>
<linearGradient id="paint10_linear" x1="107" y1="112.94" x2="101.42" y2="131.54" gradientUnits="userSpaceOnUse">
<stop stop-color="white"/>
<stop offset="1" stop-color="white" stop-opacity="0"/>
</linearGradient>
<linearGradient id="paint11_linear" x1="166.521" y1="59" x2="144.201" y2="82.56" gradientUnits="userSpaceOnUse">
<stop/>
<stop offset="1" stop-opacity="0"/>
</linearGradient>
</defs>
</svg>
