<svg width="208" height="208" viewBox="0 0 208 208" fill="none" xmlns="http://www.w3.org/2000/svg">
<path opacity="0.18" d="M15.9833 177.378C18.4129 179.312 21.0658 180.891 23.8743 182.076C28.7357 184.121 33.914 185.037 38.903 186.613C41.1176 187.305 43.291 188.145 45.4232 189.06C58.3362 194.575 70.1871 203.324 83.7709 206.517C108.942 212.478 133.27 198.925 157.33 193.178C177.944 188.265 194.698 200.01 203.021 164.472C206.499 149.678 210.805 134.012 205.54 119.816C200.275 105.62 192.862 92.5085 187.84 78.2407C180.669 57.8639 178.014 34.388 163.903 18.8386C154.131 8.0719 140.165 2.87389 126.33 1.02957C112.495 -0.814744 98.4868 0.368654 84.5572 0.431173C67.779 0.489226 49.9059 -0.787951 35.3959 8.37557C30.2785 11.6579 25.8677 16.0903 22.4598 21.3748C19.0518 26.6594 16.7257 32.6739 15.6375 39.0144C12.7561 56.5153 19.5974 74.6593 16.5226 92.1289C13.6699 108.393 2.52705 122.004 0.349518 138.402C-1.62631 153.165 4.93507 168.652 15.9833 177.378Z" fill="#6E71FF"/>
<path d="M130.587 51H56.7549V158.124H130.587V51Z" fill="#6E71FF"/>
<path d="M130.587 51H56.7549V158.124H130.587V51Z" fill="url(#paint0_linear)" fill-opacity="0.8"/>
<path d="M74.5223 59.2866H65.0449V74.5567H74.5223V59.2866Z" fill="#6E71FF"/>
<path d="M90.4481 59.2866H80.9707V74.5567H90.4481V59.2866Z" fill="#6E71FF"/>
<path d="M106.373 59.2866H96.8955V74.5567H106.373V59.2866Z" fill="#6E71FF"/>
<path d="M122.304 59.2866H112.826V74.5567H122.304V59.2866Z" fill="#6E71FF"/>
<path d="M74.5223 83.4084H65.0449V98.6785H74.5223V83.4084Z" fill="#6E71FF"/>
<path d="M90.4481 83.4084H80.9707V98.6785H90.4481V83.4084Z" fill="#6E71FF"/>
<path d="M74.5223 131.636H65.0449V146.907H74.5223V131.636Z" fill="#6E71FF"/>
<path d="M90.4481 131.636H80.9707V146.907H90.4481V131.636Z" fill="#6E71FF"/>
<path d="M74.5223 107.515H65.0449V122.785H74.5223V107.515Z" fill="#6E71FF"/>
<path d="M90.4481 107.515H80.9707V122.785H90.4481V107.515Z" fill="#6E71FF"/>
<path d="M160.208 83.2471H96.8955V158.13H160.208V83.2471Z" fill="#6E71FF"/>
<path d="M160.208 83.2471H96.8955V158.13H160.208V83.2471Z" fill="url(#paint1_linear)" fill-opacity="0.9"/>
<path d="M139.112 137.577H118.008V158.13H139.112V137.577Z" fill="#6E71FF"/>
<path d="M141.748 134.118H115.358V137.579H141.748V134.118Z" fill="#6E71FF"/>
<path d="M141.748 134.118H115.358V137.579H141.748V134.118Z" fill="url(#paint2_linear)"/>
<path d="M110.9 90.2346H102.167V105.072H110.9V90.2346Z" fill="#6E71FF"/>
<path d="M125.581 90.2346H116.848V105.072H125.581V90.2346Z" fill="#6E71FF"/>
<path d="M140.261 90.2346H131.527V105.072H140.261V90.2346Z" fill="#6E71FF"/>
<path d="M154.931 90.2346H146.197V105.072H154.931V90.2346Z" fill="#6E71FF"/>
<path d="M110.9 112.291H102.167V127.129H110.9V112.291Z" fill="#6E71FF"/>
<path d="M125.58 112.291H116.847V127.129H125.58V112.291Z" fill="#6E71FF"/>
<path d="M140.26 112.291H131.526V127.129H140.26V112.291Z" fill="#6E71FF"/>
<path d="M154.931 112.291H146.197V127.129H154.931V112.291Z" fill="#6E71FF"/>
<path d="M154.931 134.118H146.197V148.956H154.931V134.118Z" fill="#6E71FF"/>
<path d="M110.9 134.118H102.167V148.956H110.9V134.118Z" fill="#6E71FF"/>
<path d="M164.453 164H54.5469C53.6927 164 53 163.325 53 162.493V159.637C53 158.805 53.6924 158.13 54.5469 158.13H164.453C165.307 158.13 166 158.804 166 159.637V162.493C166 163.325 165.307 164 164.453 164Z" fill="#6E71FF"/>
<path d="M164.453 164H54.5469C53.6927 164 53 163.325 53 162.493V159.637C53 158.805 53.6924 158.13 54.5469 158.13H164.453C165.307 158.13 166 158.804 166 159.637V162.493C166 163.325 165.307 164 164.453 164Z" fill="url(#paint3_linear)"/>
<defs>
<linearGradient id="paint0_linear" x1="93.2572" y1="18.23" x2="93.2572" y2="203.55" gradientUnits="userSpaceOnUse">
<stop/>
<stop offset="1" stop-color="#121212" stop-opacity="0"/>
</linearGradient>
<linearGradient id="paint1_linear" x1="128.062" y1="62.2999" x2="128.062" y2="187.73" gradientUnits="userSpaceOnUse">
<stop stop-color="white"/>
<stop offset="1" stop-color="white" stop-opacity="0"/>
</linearGradient>
<linearGradient id="paint2_linear" x1="128.643" y1="131.23" x2="128.643" y2="140.835" gradientUnits="userSpaceOnUse">
<stop stop-color="#414141"/>
<stop offset="1" stop-color="#3C3C3C" stop-opacity="0"/>
</linearGradient>
<linearGradient id="paint3_linear" x1="109.5" y1="151.57" x2="109.5" y2="175.3" gradientUnits="userSpaceOnUse">
<stop/>
<stop offset="1" stop-opacity="0"/>
</linearGradient>
</defs>
</svg>
