<svg width="208" height="208" viewBox="0 0 208 208" fill="none" xmlns="http://www.w3.org/2000/svg">
<path opacity="0.18" d="M48.839 194.144C41.2272 190.723 35.2466 183.967 29.9075 176.915C22.1036 166.61 15.3229 155.367 9.6875 143.387C2.23888 127.586 -3.20351 108.795 2.15189 91.9228C4.32666 85.0806 8.13253 79.0752 12.1015 73.3467C18.2453 64.4925 25.1067 55.8166 34.0124 50.728C40.5367 46.987 47.8712 45.3626 54.526 41.9168C67.678 35.1177 77.2416 21.8271 89.2681 12.7451C109.967 -2.87751 138.641 -4.53884 159.948 9.98856C167.995 15.4771 174.851 22.9531 181.027 30.9582C193.821 47.5715 204.194 67.2613 207.157 89.0309C210.072 110.468 205.358 133.167 194.076 150.703C182.794 168.239 165.043 180.342 146.014 183.111C138.674 184.182 130.578 184.182 124.907 189.572C122.515 191.849 120.797 194.894 118.644 197.46C112.315 205.016 102.643 207.847 93.4437 207.994C78.2963 208.24 62.7195 200.389 48.839 194.144Z" fill="#6E71FF"/>
<path opacity="0.58" d="M29.9075 176.915C35.2466 183.967 41.2272 190.723 48.839 194.144C62.7195 200.389 78.2964 208.24 93.4437 207.994C102.643 207.847 112.315 205.016 118.644 197.46C120.797 194.894 122.515 191.849 124.907 189.572C130.578 184.182 138.674 184.182 146.014 183.111C165.043 180.342 184.5 171 201.5 136H6.5C12.1354 147.98 22.1036 166.61 29.9075 176.915Z" fill="#6E71FF"/>
<path d="M103.111 136.447H175.42C179.045 131.416 181.204 125.26 181.204 118.585C181.204 103.538 170.344 91.051 156.038 88.479C154.212 88.1507 152.82 86.7706 152.249 85.0061C149.928 77.8397 143.213 72.6547 135.274 72.6547C133.199 72.6547 131.208 73.0097 129.357 73.661C127.705 74.2422 125.877 74.0454 124.515 72.9437C119.655 69.0112 113.751 66.3195 107.277 65.3741C105.588 65.1276 103.86 65.3725 102.102 65.3725C81.7999 65.3725 68.8415 81.9355 69.8074 102.45C70.7119 121.665 83.8754 136.447 103.111 136.447Z" fill="#6E71FF"/>
<path d="M103.111 136.447H175.42C179.045 131.416 181.204 125.26 181.204 118.585C181.204 103.538 170.344 91.051 156.038 88.4789C154.212 88.1507 152.82 86.7706 152.249 85.0061C149.928 77.8397 143.213 72.6547 135.274 72.6547C133.199 72.6547 131.208 73.0097 129.357 73.661C127.705 74.2422 125.877 74.0454 124.515 72.9437C119.655 69.0112 113.751 66.3195 107.277 65.3741C105.588 65.1276 103.86 65.3725 102.102 65.3725C81.7999 65.3725 68.8415 81.9355 69.8074 102.45C70.7119 121.665 83.8754 136.447 103.111 136.447Z" fill="url(#paint0_linear)" fill-opacity="0.48"/>
<path d="M76.6253 102.45C75.7415 83.6783 89.408 67.9191 107.282 65.3745C105.601 65.1301 103.851 65 102.102 65C81.7995 65 65.4531 81.9358 66.4186 102.45C67.3232 121.665 83.8747 136.447 103.11 136.447H113.317C94.0814 136.447 77.5302 121.665 76.6253 102.45Z" fill="#6E71FF"/>
<path d="M76.6263 102.45C75.7425 83.6783 89.4089 67.9191 107.283 65.3745C105.602 65.1301 103.852 65 102.103 65C81.8005 65 65.4541 81.9358 66.4196 102.45C67.3242 121.665 83.8756 136.447 103.111 136.447H113.318C94.0823 136.447 77.5312 121.665 76.6263 102.45Z" fill="url(#paint1_linear)" fill-opacity="0.6"/>
<path d="M157.386 138.362C157.042 138.362 156.691 138.291 156.355 138.142C155.066 137.57 154.486 136.062 155.056 134.774L161.496 120.266C162.069 118.982 163.571 118.395 164.862 118.969C166.15 119.541 166.731 121.049 166.16 122.337L159.721 136.845C159.297 137.797 158.365 138.362 157.386 138.362Z" fill="#6E71FF"/>
<path d="M147.522 104.296C146.677 103.169 145.077 102.935 143.951 103.786L136.081 109.688L132.573 99.8649C132.1 98.5393 130.634 97.844 129.313 98.3198C127.985 98.7945 127.292 100.255 127.768 101.582L140.527 137.305C140.898 138.348 141.88 139 142.929 139C143.213 139 143.505 138.952 143.786 138.85C145.114 138.376 145.807 136.916 145.331 135.588L139.142 118.26C138.39 116.154 139.097 113.803 140.887 112.461L147.011 107.868C148.14 107.023 148.369 105.423 147.522 104.296Z" fill="#6E71FF"/>
<path d="M113.191 85.5704C111.87 85.0855 110.402 85.7598 109.914 87.0829L107.876 92.614L102.154 85.6999C101.255 84.6148 99.6477 84.4626 98.561 85.3608C97.4743 86.259 97.3251 87.8675 98.222 88.9542L103.963 95.891C105.122 97.2915 105.449 99.203 104.82 100.909L92.052 135.564C91.5663 136.887 92.2415 138.354 93.5645 138.841C93.8561 138.948 94.1527 138.999 94.4468 138.999C95.486 138.999 96.4604 138.36 96.8415 137.329L114.703 88.8467C115.189 87.5253 114.514 86.0577 113.191 85.5704Z" fill="#6E71FF"/>
<path d="M157.386 138.362C157.042 138.362 156.691 138.291 156.355 138.142C155.066 137.57 154.486 136.062 155.056 134.774L161.496 120.266C162.069 118.982 163.571 118.395 164.862 118.969C166.15 119.541 166.731 121.049 166.16 122.337L159.721 136.845C159.297 137.797 158.365 138.362 157.386 138.362Z" fill="url(#paint2_linear)" fill-opacity="0.6"/>
<path d="M147.522 104.296C146.677 103.169 145.077 102.935 143.951 103.786L136.081 109.688L132.573 99.8649C132.1 98.5393 130.634 97.8439 129.313 98.3198C127.985 98.7944 127.292 100.255 127.768 101.582L140.527 137.305C140.898 138.348 141.88 139 142.929 139C143.213 139 143.505 138.952 143.786 138.85C145.114 138.376 145.807 136.916 145.331 135.588L139.142 118.26C138.39 116.154 139.097 113.803 140.887 112.461L147.011 107.868C148.14 107.023 148.369 105.423 147.522 104.296Z" fill="url(#paint3_linear)" fill-opacity="0.6"/>
<path d="M113.191 85.5704C111.87 85.0855 110.402 85.7598 109.914 87.0829L107.876 92.6139L102.154 85.6998C101.255 84.6147 99.6477 84.4626 98.561 85.3608C97.4743 86.259 97.3251 87.8675 98.222 88.9542L103.963 95.8909C105.122 97.2915 105.449 99.203 104.82 100.909L92.052 135.564C91.5663 136.887 92.2415 138.354 93.5645 138.841C93.8561 138.948 94.1527 138.999 94.4468 138.999C95.486 138.999 96.4604 138.36 96.8415 137.329L114.703 88.8467C115.189 87.5253 114.514 86.0577 113.191 85.5704Z" fill="url(#paint4_linear)" fill-opacity="0.6"/>
<path d="M114.78 126.732C113.98 116.543 106.838 107.712 97.1249 104.535C92.8987 103.153 88.8386 102.99 85.057 103.65C83.4434 103.931 81.7727 103.469 80.628 102.297C74.0325 95.5436 64.3425 91.8264 53.8484 93.4455C53.5419 93.4927 53.237 93.5447 52.9336 93.6015C40.2317 95.9723 33.1734 106.474 31.3997 119.329C30.579 125.277 33.7928 130.954 35.9713 135.939L108.721 136.448L114.861 128.792C114.861 128.111 114.834 127.424 114.78 126.732Z" fill="#6E71FF"/>
<path d="M114.78 126.732C113.98 116.543 106.838 107.712 97.1249 104.535C92.8987 103.153 88.8386 102.99 85.057 103.65C83.4434 103.931 81.7727 103.469 80.628 102.297C74.0325 95.5436 64.3425 91.8264 53.8484 93.4455C53.5419 93.4927 53.237 93.5447 52.9336 93.6015C40.2317 95.9723 33.1734 106.474 31.3997 119.329C30.579 125.277 33.7928 130.954 35.9713 135.939L108.721 136.448L114.861 128.792C114.861 128.111 114.834 127.424 114.78 126.732Z" fill="url(#paint5_linear)" fill-opacity="0.5"/>
<path d="M45.9653 128.792C41.7375 128.792 38.3103 125.365 38.3103 121.137C38.3103 109.682 44.1035 99.5622 52.9336 93.6021C40.2291 95.9707 30.179 106.471 28.405 119.329C27.5843 125.277 28.4739 130.954 30.6524 135.939L113.692 136.448C114.451 134.032 114.86 131.458 114.861 128.792H45.9653Z" fill="#6E71FF"/>
<path d="M45.9653 128.792C41.7375 128.792 38.3103 125.365 38.3103 121.137C38.3103 109.682 44.1035 99.5622 52.9336 93.6021C40.2291 95.9707 30.179 106.472 28.405 119.329C27.5843 125.277 28.4739 130.954 30.6524 135.939L113.692 136.448C114.451 134.032 114.86 131.458 114.861 128.792H45.9653Z" fill="url(#paint6_linear)" fill-opacity="0.6"/>
<path d="M61.1676 110.198C60.7616 108.847 59.3435 108.079 57.9905 108.486C56.64 108.891 55.8748 110.313 56.2786 111.663L59.3531 121.911L49.2915 118.706C47.941 118.277 46.513 119.019 46.0843 120.362C45.6582 121.705 46.3982 123.14 47.7413 123.568L58.5633 127.014C60.169 127.526 61.4187 128.797 61.9028 130.411L63.9337 137.18C64.2651 138.286 65.2794 139 66.3782 139C66.6199 139 66.8665 138.964 67.1108 138.892C68.4613 138.486 69.2265 137.064 68.8227 135.714L61.1676 110.198Z" fill="#6E71FF"/>
<path d="M90.6098 116.37C89.3812 115.669 87.8263 116.096 87.1287 117.32L76.922 135.181C76.2219 136.405 76.648 137.964 77.8715 138.663C78.2702 138.891 78.7063 138.999 79.1349 138.999C80.022 138.999 80.8819 138.538 81.3527 137.713L91.5594 119.852C92.2595 118.628 91.8334 117.069 90.6098 116.37Z" fill="#6E71FF"/>
<path d="M183.756 138.999H25.5517C24.1412 138.999 23 137.856 23 136.447C23 135.038 24.1412 133.895 25.5517 133.895H183.756C185.166 133.895 186.308 135.038 186.308 136.447C186.308 137.856 185.166 138.999 183.756 138.999Z" fill="#6E71FF"/>
<path d="M183.756 138.999H25.5517C24.1412 138.999 23 137.856 23 136.447C23 135.038 24.1412 133.895 25.5517 133.895H183.756C185.166 133.895 186.308 135.038 186.308 136.447C186.308 137.856 185.166 138.999 183.756 138.999Z" fill="url(#paint7_linear)" fill-opacity="0.2"/>
<defs>
<linearGradient id="paint0_linear" x1="125.48" y1="65.2641" x2="125.48" y2="136.447" gradientUnits="userSpaceOnUse">
<stop stop-color="white"/>
<stop offset="1" stop-color="white" stop-opacity="0"/>
</linearGradient>
<linearGradient id="paint1_linear" x1="89.8484" y1="65" x2="89.8484" y2="136.447" gradientUnits="userSpaceOnUse">
<stop stop-color="white"/>
<stop offset="1" stop-color="white" stop-opacity="0"/>
</linearGradient>
<linearGradient id="paint2_linear" x1="160.608" y1="118.749" x2="160.608" y2="138.362" gradientUnits="userSpaceOnUse">
<stop stop-color="#1B1B1B"/>
<stop offset="1" stop-color="white" stop-opacity="0"/>
</linearGradient>
<linearGradient id="paint3_linear" x1="137.826" y1="98.1699" x2="137.826" y2="139" gradientUnits="userSpaceOnUse">
<stop stop-color="#1B1B1B"/>
<stop offset="1" stop-color="white" stop-opacity="0"/>
</linearGradient>
<linearGradient id="paint4_linear" x1="103.378" y1="84.7752" x2="103.378" y2="138.999" gradientUnits="userSpaceOnUse">
<stop stop-color="#1B1B1B"/>
<stop offset="1" stop-color="white" stop-opacity="0"/>
</linearGradient>
<linearGradient id="paint5_linear" x1="78.6587" y1="79.5133" x2="90.3008" y2="153.672" gradientUnits="userSpaceOnUse">
<stop stop-color="#131313"/>
<stop offset="1" stop-color="#0C0C0C" stop-opacity="0"/>
</linearGradient>
<linearGradient id="paint6_linear" x1="71.4821" y1="93.6021" x2="78.8182" y2="167.706" gradientUnits="userSpaceOnUse">
<stop stop-color="#3A3A3A"/>
<stop offset="1" stop-color="#171717" stop-opacity="0"/>
</linearGradient>
<linearGradient id="paint7_linear" x1="104.654" y1="127.038" x2="104.654" y2="150.96" gradientUnits="userSpaceOnUse">
<stop stop-color="#1B1B1B"/>
<stop offset="1" stop-color="#161616" stop-opacity="0"/>
</linearGradient>
</defs>
</svg>
