<svg width="240" height="240" viewBox="0 0 240 240" fill="none" xmlns="http://www.w3.org/2000/svg">
<path opacity="0.18" d="M239.344 185.946C237.534 196.767 231.928 206.167 225.324 213.796C213.579 227.281 198.652 236.035 182.606 238.847C174.231 240.282 165.729 240.065 157.28 239.827C120.719 238.784 83.0324 240.079 46.6224 235.536C19.5152 232.156 1.7803 197.572 0.161173 166.942C0.10314 165.843 0.0625167 164.751 0.0393035 163.66C-0.674503 135.613 8.43088 108.322 19.4978 83.5233C23.6686 74.1021 28.298 64.987 33.3619 56.2256C46.1001 34.4294 62.065 15.629 82.5217 6.47382C103.994 -3.14337 127.95 -0.966555 150.101 5.98386C157.965 8.44765 165.886 11.5834 172.31 17.6099C186.592 30.9577 190.237 54.5527 197.23 74.655C198.449 78.1547 199.795 81.6055 201.234 84.9792C209.579 104.627 221.087 122.286 230.169 141.541C233.448 148.492 236.449 155.974 238.253 163.674C239.965 170.96 240.592 178.477 239.344 185.946Z" fill="#6E71FF"/>
<path opacity="0.28" d="M201 83.1189V128H33V54.9921C34.3164 52.7919 35.6716 50.6261 37.0654 48.4944C37.6191 47.6317 38.1863 46.7758 38.7671 45.9268C39.9286 44.1923 41.1211 42.4897 42.3446 40.8191C49.5578 30.898 57.6886 22.1066 66.8881 15.2872C67.9334 14.5158 68.9943 13.7649 70.0707 13.0346C73.9601 10.4099 78.0256 8.16576 82.2262 6.32466C83.5388 5.74952 84.8688 5.21547 86.2045 4.72249C105.37 -2.34345 126.324 -0.754984 146.024 4.72249C147.302 5.07853 148.578 5.45283 149.851 5.84538C152.174 6.53006 154.445 7.30376 156.704 8.18015C157.781 8.59096 158.844 9.02688 159.893 9.4879C164.264 11.3295 168.375 13.9353 172.089 17.218C178.791 23.3391 183.153 31.6717 186.608 40.8191C187.242 42.4897 187.845 44.2014 188.426 45.9268C188.873 47.2346 189.303 48.556 189.727 49.8843C192.184 57.5939 194.373 65.5499 197.016 73.0198C198.212 76.4569 199.542 79.8187 201 83.1189Z" fill="#6E71FF"/>
<path d="M72.2257 17.957V39.5974H47.6895C54.9087 31.1885 63.0333 23.7371 72.2257 17.957Z" fill="url(#paint0_linear)"/>
<path d="M105.222 9.00244V39.5973H75.4053V16.0418C79.2919 13.8192 83.3543 11.919 87.5515 10.3604C88.863 9.87293 90.192 9.42028 91.5268 9.00244H105.222Z" fill="url(#paint1_linear)"/>
<path d="M72.2255 43.927V74.5161H42.4141V46.08C42.9673 45.3488 43.5341 44.6234 44.1144 43.9038L72.2255 43.927Z" fill="url(#paint2_linear)"/>
<path d="M105.217 43.9268H75.4053V74.5158H105.217V43.9268Z" fill="url(#paint3_linear)"/>
<path d="M72.2255 78.8511H42.4141V109.44H72.2255V78.8511Z" fill="url(#paint4_linear)"/>
<path d="M105.217 78.8511H75.4053V109.44H105.217V78.8511Z" fill="url(#paint5_linear)"/>
<path d="M161.949 11.9331V39.5973H132.138V9.00244H151.288C152.565 9.30421 153.84 9.62146 155.113 9.95418C157.394 10.5519 159.692 11.1903 161.949 11.9331Z" fill="url(#paint6_linear)"/>
<path d="M191.83 39.5977H165.135V13.042C169.502 14.6029 173.611 16.8115 177.322 19.5939C184.007 24.782 188.365 31.8446 191.83 39.5977Z" fill="url(#paint7_linear)"/>
<path d="M161.949 43.9268H132.138V74.5158H161.949V43.9268Z" fill="url(#paint8_linear)"/>
<path d="M194.946 47.281V74.5158H165.135V43.9268H193.646C194.093 45.0584 194.523 46.1552 194.946 47.281Z" fill="url(#paint9_linear)"/>
<path d="M161.949 78.8511H132.138V109.44H161.949V78.8511Z" fill="url(#paint10_linear)"/>
<path d="M194.946 78.8511H165.135V109.44H194.946V78.8511Z" fill="url(#paint11_linear)"/>
<path opacity="0.41" d="M239.344 183.855C237.533 195.762 231.926 206.105 225.321 214.5C210 228.5 198.646 235.637 182.596 238.731C174.221 240.31 165.717 240.072 157.266 239.81C120.7 238.662 84.5 239.81 46.5908 235.089C19.4791 231.369 3 202.5 0.121889 159.612C0.0638468 158.403 0.023217 157.201 0 156H236C238.5 164 240.592 175.637 239.344 183.855Z" fill="#6E71FF"/>
<path d="M195.251 163.223H39.3408V216.19H195.251V163.223Z" fill="#6E71FF"/>
<path d="M195.251 163.223H39.3408V216.19H195.251V163.223Z" fill="url(#paint12_linear)"/>
<path d="M195.251 163.856H39.3408V173.93H195.251V163.856Z" fill="url(#paint13_linear)"/>
<path d="M110.843 73.7427H122.734C126.792 73.7488 130.681 75.3639 133.55 78.2337C136.419 81.1036 138.032 84.9939 138.037 89.0517V119.6H95.4932V89.0517C95.4954 87.0385 95.8943 85.0455 96.667 83.1865C97.4397 81.3275 98.5711 79.639 99.9965 78.2173C101.422 76.7957 103.113 75.6688 104.975 74.901C106.836 74.1332 108.83 73.7396 110.843 73.7427Z" fill="#6E71FF"/>
<path d="M110.843 73.7427H122.734C126.792 73.7488 130.681 75.3639 133.55 78.2337C136.419 81.1036 138.032 84.9939 138.037 89.0517V119.6H95.4932V89.0517C95.4954 87.0385 95.8943 85.0455 96.667 83.1865C97.4397 81.3275 98.5711 79.639 99.9965 78.2173C101.422 76.7957 103.113 75.6688 104.975 74.901C106.836 74.1332 108.83 73.7396 110.843 73.7427Z" fill="url(#paint14_linear)"/>
<path d="M110.843 73.7427H122.734C126.792 73.7488 130.681 75.3639 133.55 78.2337C136.419 81.1036 138.032 84.9939 138.037 89.0517V119.6H95.4932V89.0517C95.4954 87.0385 95.8943 85.0455 96.667 83.1865C97.4397 81.3275 98.5711 79.639 99.9965 78.2173C101.422 76.7957 103.113 75.6688 104.975 74.901C106.836 74.1332 108.83 73.7396 110.843 73.7427Z" fill="url(#paint15_linear)"/>
<path d="M109.096 105.434L93.3691 110.657C92.1163 111.641 91.261 113.045 90.9607 114.609C90.4732 117.215 93.6592 127.377 94.1409 132.559C94.6226 137.741 95.2029 144.618 95.2029 144.618L98.2206 158.018H133.725L135.849 132.93C135.849 132.93 141.072 115.178 141.072 113.251C141.044 111.992 140.782 110.748 140.3 109.584L123.848 104.709L109.096 105.434Z" fill="#6E71FF"/>
<path d="M109.096 105.434L93.3691 110.657C92.1163 111.641 91.261 113.045 90.9607 114.609C90.4732 117.215 93.6592 127.377 94.1409 132.559C94.6226 137.741 95.2029 144.618 95.2029 144.618L98.2206 158.018H133.725L135.849 132.93C135.849 132.93 141.072 115.178 141.072 113.251C141.044 111.992 140.782 110.748 140.3 109.584L123.848 104.709L109.096 105.434Z" fill="url(#paint16_linear)"/>
<path d="M110.396 105.045L109.096 105.434L110.639 145.279L122.989 145.378L123.662 105.266L110.396 105.045Z" fill="url(#paint17_linear)"/>
<path d="M114.017 111.754L115.56 113.681C115.55 114.485 115.419 115.283 115.171 116.049C114.788 117.111 111.991 140.358 111.991 140.358L116.332 145.86L121.253 139.012L118.067 113.779L119.274 111.081L117.586 109.247L115.897 109.05L114.017 111.754Z" fill="#6E71FF"/>
<path d="M198.918 160.327H34.5176L42.9091 139.488H185.315L198.918 160.327Z" fill="#6E71FF"/>
<path d="M198.918 160.327H34.5176L42.9091 139.488H185.315L198.918 160.327Z" fill="url(#paint18_linear)"/>
<path d="M160.281 142.07L158.952 144.699C158.93 144.741 158.919 144.788 158.92 144.835C158.921 144.882 158.935 144.928 158.96 144.969C158.984 145.009 159.019 145.043 159.06 145.065C159.102 145.088 159.148 145.1 159.195 145.1C159.246 145.1 159.296 145.086 159.339 145.059C159.382 145.032 159.417 144.994 159.439 144.949L160.791 142.332C160.809 142.298 160.819 142.261 160.821 142.223C160.823 142.186 160.818 142.148 160.805 142.112C160.792 142.077 160.771 142.045 160.745 142.017C160.719 141.99 160.687 141.969 160.652 141.954C160.62 141.936 160.585 141.925 160.549 141.921C160.513 141.918 160.476 141.921 160.441 141.932C160.406 141.943 160.374 141.961 160.347 141.985C160.319 142.008 160.297 142.038 160.281 142.07Z" fill="#6E71FF"/>
<path d="M158.934 143.422L154.959 151.292C154.902 151.415 154.877 151.551 154.886 151.687C154.894 151.823 154.937 151.955 155.01 152.07C155.082 152.185 155.183 152.281 155.301 152.348C155.42 152.414 155.554 152.45 155.69 152.452C155.841 152.451 155.989 152.409 156.118 152.33C156.247 152.252 156.352 152.139 156.421 152.005L160.484 144.165C160.535 144.065 160.565 143.955 160.571 143.843C160.578 143.731 160.562 143.618 160.523 143.512C160.484 143.407 160.424 143.31 160.347 143.229C160.269 143.147 160.175 143.083 160.072 143.039L160.002 143.004C159.805 142.919 159.582 142.915 159.382 142.993C159.182 143.071 159.021 143.226 158.934 143.422Z" fill="#6E71FF"/>
<path d="M158.934 143.422L154.959 151.292C154.902 151.415 154.877 151.551 154.886 151.687C154.894 151.823 154.937 151.955 155.01 152.07C155.082 152.185 155.183 152.281 155.301 152.348C155.42 152.414 155.554 152.45 155.69 152.452C155.841 152.451 155.989 152.409 156.118 152.33C156.247 152.252 156.352 152.139 156.421 152.005L160.484 144.165C160.535 144.065 160.565 143.955 160.571 143.843C160.578 143.731 160.562 143.618 160.523 143.512C160.484 143.407 160.424 143.31 160.347 143.229C160.269 143.147 160.175 143.083 160.072 143.039L160.002 143.004C159.805 142.919 159.582 142.915 159.382 142.993C159.182 143.071 159.021 143.226 158.934 143.422Z" fill="url(#paint19_linear)"/>
<path d="M122.629 137.671C121.604 137.412 120.543 137.326 119.489 137.416C118.505 137.391 117.546 137.73 116.796 138.368C115.758 139.441 116.054 141.269 116.947 142.482C117.841 143.695 119.164 144.461 120.302 145.43C120.745 145.878 121.258 146.251 121.822 146.533C122.272 146.691 122.744 146.777 123.221 146.788C124.333 146.911 125.456 146.874 126.558 146.678C127.672 146.471 128.665 145.849 129.337 144.937C130.26 143.579 130.277 140.079 128.589 139.58C127.579 139.284 126.592 139.337 125.559 138.884C124.611 138.414 123.632 138.009 122.629 137.671Z" fill="url(#paint20_linear)"/>
<path d="M113.06 137.944C113.528 137.733 114.025 137.588 114.534 137.515C115.105 137.451 115.684 137.532 116.216 137.75C116.749 137.968 117.218 138.316 117.58 138.762C117.93 139.219 118.15 139.761 118.217 140.332C118.285 140.903 118.197 141.481 117.963 142.007C117.515 142.733 116.998 143.415 116.42 144.043C115.81 144.862 115.433 145.843 114.725 146.568C113.06 148.274 109.862 148.309 107.651 148.025C107.128 147.982 106.62 147.823 106.166 147.56C105.711 147.297 105.32 146.936 105.022 146.504C104.123 145.001 104.767 142.564 105.864 141.322C106.543 140.556 107.605 140.364 108.51 139.958L112.537 138.171L113.06 137.944Z" fill="url(#paint21_linear)"/>
<path d="M112.375 100.275C112.375 100.275 112.665 103.6 110.28 104.54C107.895 105.48 114.621 114.023 122.148 106.641C122.34 106.663 122.535 106.644 122.72 106.585C122.904 106.526 123.074 106.428 123.217 106.297C123.361 106.167 123.475 106.008 123.551 105.83C123.628 105.652 123.666 105.459 123.662 105.266C123.738 103.745 120.261 104.83 120.407 99.7641C120.552 94.6978 113.031 97.524 112.375 100.275Z" fill="url(#paint22_linear)"/>
<path d="M114.168 104.825C114.951 105.91 116.379 106.688 117.65 106.223C118.438 105.839 119.097 105.234 119.547 104.482C120.267 103.496 121.027 102.399 120.969 101.18C120.975 101.012 120.945 100.844 120.88 100.689C120.814 100.534 120.716 100.394 120.592 100.281C120.387 100.141 120.149 100.057 119.901 100.037C117.921 99.7382 115.898 99.895 113.988 100.496C112.903 100.832 112.583 100.954 112.943 102.068C113.206 103.045 113.619 103.975 114.168 104.825Z" fill="url(#paint23_linear)"/>
<path d="M108.179 86.5271C108.179 86.5271 108.033 95.9284 111.219 99.9849C114.405 104.041 118.961 105.208 122.507 99.9849C124.155 97.5591 125.113 88.477 124.463 87.1017C123.813 85.7263 114.835 78.9248 111.074 82.2559C107.314 85.587 108.179 86.5271 108.179 86.5271Z" fill="url(#paint24_linear)"/>
<path d="M108.202 79.8358C107.524 80.3326 106.935 80.941 106.461 81.6348C105.988 82.3392 105.782 83.189 105.88 84.0316C106.09 84.8497 106.421 85.6321 106.861 86.3529C107.732 88.1519 107.911 90.2004 108.556 92.0865C108.795 90.539 108.989 88.9682 109.136 87.3742C109.923 87.7072 110.771 87.8751 111.626 87.8675C115.757 88.088 119.901 87.9546 124.033 87.8211C124.082 88.925 123.99 90.0307 123.76 91.1115C123.624 91.8656 123.736 92.6435 124.079 93.3284C125.037 92.4347 124.3 90.6589 125.292 89.8C125.523 89.6491 125.733 89.4697 125.919 89.2661C126.232 88.8251 126.029 88.1925 126.238 87.6934C126.454 87.3146 126.762 86.9955 127.132 86.7649C128.211 85.8944 128.873 84.3275 128.293 83.074C127.865 82.3407 127.245 81.7385 126.499 81.333L124.921 80.2826C124.375 79.9228 123.511 79.4296 122.925 79.122C122.17 78.739 121.578 78.1006 120.864 77.648C119.616 76.9781 118.219 76.631 116.802 76.6382C114.301 76.4989 111.66 76.6382 109.519 77.9671C109.171 78.1566 108.871 78.4237 108.642 78.7477C108.414 79.0718 108.263 79.4441 108.202 79.8358Z" fill="#6E71FF"/>
<path d="M118.149 96.6598C118.315 96.6336 118.483 96.6336 118.648 96.6598C119.194 96.7932 119.455 97.3968 119.635 97.9249C119.583 97.7682 117.163 98.0119 116.907 98.0293C115.967 98.0932 115.016 98.2789 114.081 98.2905C113.698 96.2709 117.035 96.7178 118.149 96.6598Z" fill="#6E71FF"/>
<path d="M108.202 79.8358C107.524 80.3326 106.935 80.941 106.461 81.6348C105.988 82.3392 105.782 83.189 105.88 84.0316C106.09 84.8497 106.421 85.6321 106.861 86.3529C107.732 88.1519 107.911 90.2004 108.556 92.0865C108.795 90.539 108.989 88.9682 109.136 87.3742C109.923 87.7072 110.771 87.8751 111.626 87.8675C115.757 88.088 119.901 87.9546 124.033 87.8211C124.082 88.925 123.99 90.0307 123.76 91.1115C123.624 91.8656 123.736 92.6435 124.079 93.3284C125.037 92.4347 124.3 90.6589 125.292 89.8C125.523 89.6491 125.733 89.4697 125.919 89.2661C126.232 88.8251 126.029 88.1925 126.238 87.6934C126.454 87.3146 126.762 86.9955 127.132 86.7649C128.211 85.8944 128.873 84.3275 128.293 83.074C127.865 82.3407 127.245 81.7385 126.499 81.333L124.921 80.2826C124.375 79.9228 123.511 79.4296 122.925 79.122C122.17 78.739 121.578 78.1006 120.864 77.648C119.616 76.9781 118.219 76.631 116.802 76.6382C114.301 76.4989 111.66 76.6382 109.519 77.9671C109.171 78.1566 108.871 78.4237 108.642 78.7477C108.414 79.0718 108.263 79.4441 108.202 79.8358Z" fill="url(#paint25_linear)"/>
<path d="M118.149 96.6598C118.315 96.6336 118.483 96.6336 118.648 96.6598C119.194 96.7932 119.455 97.3968 119.635 97.9249C119.583 97.7682 117.163 98.0119 116.907 98.0293C115.967 98.0932 115.016 98.2789 114.081 98.2905C113.698 96.2709 117.035 96.7178 118.149 96.6598Z" fill="url(#paint26_linear)"/>
<path d="M111.799 102.95C111.799 102.95 115.92 109.171 116.86 109.392L112.374 113.733C112.374 113.733 109.263 106.769 109.768 104.83L111.799 102.95Z" fill="url(#paint27_linear)"/>
<path d="M121.19 103.304C120.673 104.958 119.095 109.351 116.86 109.392L120.772 114.035C120.772 114.035 123.882 109.618 123.807 104.72L121.874 103.113C121.82 103.069 121.757 103.038 121.688 103.024C121.62 103.01 121.549 103.012 121.482 103.031C121.415 103.05 121.354 103.085 121.303 103.132C121.252 103.18 121.213 103.239 121.19 103.304Z" fill="url(#paint28_linear)"/>
<path d="M91.7557 112.502C91.7557 112.502 80.5206 136.76 80.8108 138.93C81.1009 141.101 80.2304 142.116 80.9558 143.271C81.6812 144.426 103.24 148.628 103.24 148.628L105.266 139.511L94.9939 137.05L92.6726 136.377C96.9729 130.249 98.5281 121.097 96.0733 114.023C95.0113 110.901 92.9976 111.429 91.7557 112.502Z" fill="#6E71FF"/>
<path d="M91.7557 112.502C91.7557 112.502 80.5206 136.76 80.8108 138.93C81.1009 141.101 80.2304 142.116 80.9558 143.271C81.6812 144.426 103.24 148.628 103.24 148.628L105.266 139.511L94.9939 137.05L92.6726 136.377C96.9729 130.249 98.5281 121.097 96.0733 114.023C95.0113 110.901 92.9976 111.429 91.7557 112.502Z" fill="url(#paint29_linear)"/>
<path d="M140.688 109.967C140.688 109.967 155.011 135.582 154.726 137.753C154.442 139.923 155.307 140.939 154.581 142.099C153.856 143.26 132.291 147.45 132.291 147.45L130.266 138.333L140.543 135.872L138.843 133.458C137.248 131.185 136.173 128.589 135.692 125.855C135.212 123.12 135.339 120.313 136.063 117.633C137.328 112.973 139.029 108.533 140.688 109.967Z" fill="#6E71FF"/>
<path d="M140.688 109.967C140.688 109.967 155.011 135.582 154.726 137.753C154.442 139.923 155.307 140.939 154.581 142.099C153.856 143.26 132.291 147.45 132.291 147.45L130.266 138.333L140.543 135.872L138.843 133.458C137.248 131.185 136.173 128.589 135.692 125.855C135.212 123.12 135.339 120.313 136.063 117.633C137.328 112.973 139.029 108.533 140.688 109.967Z" fill="url(#paint30_linear)"/>
<path d="M105.272 139.505L107.048 139.83L105.284 148.03L103.502 147.642L105.272 139.505Z" fill="url(#paint31_linear)"/>
<path d="M130.416 138.814L128.728 139.25L130.608 147.693L132.291 147.45L130.416 138.814Z" fill="url(#paint32_linear)"/>
<path d="M198.976 160.328H34.5176V164.088H198.976V160.328Z" fill="#6E71FF"/>
<path d="M98.1915 157.727H48.7012L51.0167 146.15H96.7464L98.1915 157.727Z" fill="#6E71FF"/>
<path d="M98 158H49L51.2944 146H96.566L98 158Z" fill="url(#paint33_linear)"/>
<path d="M158.231 151.454H151.041C149.99 151.454 149.138 152.306 149.138 153.358C149.138 154.409 149.99 155.261 151.041 155.261H158.231C159.283 155.261 160.135 154.409 160.135 153.358C160.135 152.306 159.283 151.454 158.231 151.454Z" fill="#6E71FF"/>
<path d="M158.231 151.454H151.041C149.99 151.454 149.138 152.306 149.138 153.358C149.138 154.409 149.99 155.261 151.041 155.261H158.231C159.283 155.261 160.135 154.409 160.135 153.358C160.135 152.306 159.283 151.454 158.231 151.454Z" fill="url(#paint34_linear)"/>
<path d="M166.205 130.063C165.892 129.581 166.066 128.804 165.567 128.525C165.345 128.441 165.108 128.404 164.871 128.415C163.931 128.334 163.246 127.51 162.735 126.715C162.265 126.032 161.899 125.283 161.65 124.492C161.403 123.694 161.403 122.841 161.65 122.043C161.687 121.897 161.753 121.761 161.843 121.641C161.934 121.522 162.048 121.421 162.178 121.347C162.46 121.262 162.763 121.282 163.031 121.405C164.457 121.957 165.698 122.9 166.612 124.126C167.093 124.736 167.413 125.461 167.877 126.07C168.556 126.953 168.683 125.49 168.62 124.974C168.561 124.509 168.679 124.038 168.95 123.656C169.041 123.55 169.112 123.428 169.159 123.297C169.176 123.182 169.166 123.065 169.13 122.954C168.933 122.316 168.324 121.857 168.167 121.213C168.102 120.827 168.12 120.431 168.219 120.052C168.428 118.95 168.747 116.925 169.931 116.408C170.244 116.299 170.582 116.281 170.905 116.357C171.228 116.433 171.522 116.6 171.753 116.837C172.355 117.476 172.897 118.167 173.373 118.903C173.629 119.272 173.79 119.698 173.838 120.145C173.887 120.591 173.823 121.042 173.651 121.457C173.381 121.871 173.185 122.328 173.071 122.809C173.001 123.894 174.382 124.678 174.272 125.757C174.162 126.837 172.862 127.231 172.566 128.2C172.357 128.897 173.03 130.719 173.976 130.377C174.638 130.133 175.044 128.189 175.328 127.574C176.286 125.544 177.516 123.654 178.984 121.956C179.367 121.515 180.023 121.062 180.47 121.439C180.558 121.532 180.627 121.641 180.673 121.761C180.719 121.88 180.741 122.008 180.737 122.136C180.721 123.021 180.496 123.89 180.081 124.672L177.458 130.725C179.903 128.104 183.111 126.319 186.627 125.624C188.119 125.328 186.964 127.98 185.983 128.27C185.49 128.415 184.921 128.374 184.515 128.688C184.208 129.005 183.987 129.394 183.871 129.819C183.57 130.503 183.091 131.092 182.484 131.526C181.515 132.21 180.296 132.431 179.187 132.86C178.402 133.123 177.708 133.606 177.191 134.253C176.756 134.833 176.785 135.634 176.35 136.226C175.914 136.818 174.968 136.853 174.197 136.807C173.212 136.756 172.231 136.643 171.26 136.47C170.558 136.325 169.293 136.139 168.939 135.483C168.438 134.746 168.135 133.893 168.057 133.005C168.057 132.361 168.271 131.63 167.871 131.131C167.471 130.632 166.571 130.609 166.205 130.063Z" fill="#6E71FF"/>
<path d="M166.205 130.063C165.892 129.581 166.066 128.804 165.567 128.525C165.345 128.441 165.108 128.404 164.871 128.415C163.931 128.334 163.246 127.51 162.735 126.715C162.265 126.032 161.899 125.283 161.65 124.492C161.403 123.694 161.403 122.841 161.65 122.043C161.687 121.897 161.753 121.761 161.843 121.641C161.934 121.522 162.048 121.421 162.178 121.347C162.46 121.262 162.763 121.282 163.031 121.405C164.457 121.957 165.698 122.9 166.612 124.126C167.093 124.736 167.413 125.461 167.877 126.07C168.556 126.953 168.683 125.49 168.62 124.974C168.561 124.509 168.679 124.038 168.95 123.656C169.041 123.55 169.112 123.428 169.159 123.297C169.176 123.182 169.166 123.065 169.13 122.954C168.933 122.316 168.324 121.857 168.167 121.213C168.102 120.827 168.12 120.431 168.219 120.052C168.428 118.95 168.747 116.925 169.931 116.408C170.244 116.299 170.582 116.281 170.905 116.357C171.228 116.433 171.522 116.6 171.753 116.837C172.355 117.476 172.897 118.167 173.373 118.903C173.629 119.272 173.79 119.698 173.838 120.145C173.887 120.591 173.823 121.042 173.651 121.457C173.381 121.871 173.185 122.328 173.071 122.809C173.001 123.894 174.382 124.678 174.272 125.757C174.162 126.837 172.862 127.231 172.566 128.2C172.357 128.897 173.03 130.719 173.976 130.377C174.638 130.133 175.044 128.189 175.328 127.574C176.286 125.544 177.516 123.654 178.984 121.956C179.367 121.515 180.023 121.062 180.47 121.439C180.558 121.532 180.627 121.641 180.673 121.761C180.719 121.88 180.741 122.008 180.737 122.136C180.721 123.021 180.496 123.89 180.081 124.672L177.458 130.725C179.903 128.104 183.111 126.319 186.627 125.624C188.119 125.328 186.964 127.98 185.983 128.27C185.49 128.415 184.921 128.374 184.515 128.688C184.208 129.005 183.987 129.394 183.871 129.819C183.57 130.503 183.091 131.092 182.484 131.526C181.515 132.21 180.296 132.431 179.187 132.86C178.402 133.123 177.708 133.606 177.191 134.253C176.756 134.833 176.785 135.634 176.35 136.226C175.914 136.818 174.968 136.853 174.197 136.807C173.212 136.756 172.231 136.643 171.26 136.47C170.558 136.325 169.293 136.139 168.939 135.483C168.438 134.746 168.135 133.893 168.057 133.005C168.057 132.361 168.271 131.63 167.871 131.131C167.471 130.632 166.571 130.609 166.205 130.063Z" fill="url(#paint35_linear)"/>
<path d="M173.071 146.243C176.09 146.243 178.538 143.795 178.538 140.776C178.538 137.757 176.09 135.31 173.071 135.31C170.052 135.31 167.604 137.757 167.604 140.776C167.604 143.795 170.052 146.243 173.071 146.243Z" fill="#6E71FF"/>
<path d="M178.532 135.025C178.486 136.442 177.891 137.785 176.872 138.771C175.854 139.757 174.492 140.308 173.074 140.308C171.657 140.308 170.295 139.757 169.276 138.771C168.258 137.785 167.662 136.442 167.616 135.025H178.532Z" fill="#6E71FF"/>
<path d="M178.55 140.782C178.55 141.634 178.352 142.474 177.97 143.236C177.588 143.998 177.033 144.66 176.35 145.169C175.666 145.678 174.874 146.021 174.034 146.169C173.195 146.317 172.333 146.267 171.517 146.023C170.7 145.779 169.952 145.348 169.332 144.763C168.712 144.178 168.238 143.457 167.946 142.656C167.655 141.855 167.554 140.998 167.653 140.151C167.752 139.305 168.047 138.493 168.516 137.781C167.978 136.959 167.671 136.007 167.628 135.025H178.544C178.498 136.007 178.189 136.959 177.65 137.781C178.239 138.671 178.552 139.715 178.55 140.782Z" fill="url(#paint36_linear)"/>
<defs>
<linearGradient id="paint0_linear" x1="58.9304" y1="4.70817" x2="63.3583" y2="108.505" gradientUnits="userSpaceOnUse">
<stop offset="0.02" stop-color="white" stop-opacity="0"/>
<stop offset="0.58" stop-color="white" stop-opacity="0.39"/>
<stop offset="1" stop-color="white"/>
</linearGradient>
<linearGradient id="paint1_linear" x1="89.0656" y1="-9.72859" x2="96.3438" y2="136.924" gradientUnits="userSpaceOnUse">
<stop offset="0.02" stop-color="white" stop-opacity="0"/>
<stop offset="0.58" stop-color="white" stop-opacity="0.39"/>
<stop offset="1" stop-color="white"/>
</linearGradient>
<linearGradient id="paint2_linear" x1="56.0717" y1="25.1621" x2="63.3596" y2="171.898" gradientUnits="userSpaceOnUse">
<stop offset="0.02" stop-color="white" stop-opacity="0"/>
<stop offset="0.58" stop-color="white" stop-opacity="0.39"/>
<stop offset="1" stop-color="white"/>
</linearGradient>
<linearGradient id="paint3_linear" x1="89.063" y1="25.1993" x2="96.3398" y2="171.824" gradientUnits="userSpaceOnUse">
<stop offset="0.02" stop-color="white" stop-opacity="0"/>
<stop offset="0.58" stop-color="white" stop-opacity="0.39"/>
<stop offset="1" stop-color="white"/>
</linearGradient>
<linearGradient id="paint4_linear" x1="56.0717" y1="60.1236" x2="63.3486" y2="206.749" gradientUnits="userSpaceOnUse">
<stop offset="0.02" stop-color="white" stop-opacity="0"/>
<stop offset="0.58" stop-color="white" stop-opacity="0.39"/>
<stop offset="1" stop-color="white"/>
</linearGradient>
<linearGradient id="paint5_linear" x1="89.063" y1="60.1236" x2="96.3398" y2="206.749" gradientUnits="userSpaceOnUse">
<stop offset="0.02" stop-color="white" stop-opacity="0"/>
<stop offset="0.58" stop-color="white" stop-opacity="0.39"/>
<stop offset="1" stop-color="white"/>
</linearGradient>
<linearGradient id="paint6_linear" x1="145.795" y1="-9.72859" x2="153.075" y2="136.924" gradientUnits="userSpaceOnUse">
<stop offset="0.02" stop-color="white" stop-opacity="0"/>
<stop offset="0.58" stop-color="white" stop-opacity="0.39"/>
<stop offset="1" stop-color="white"/>
</linearGradient>
<linearGradient id="paint7_linear" x1="177.365" y1="-3.2162" x2="183.49" y2="124.094" gradientUnits="userSpaceOnUse">
<stop offset="0.02" stop-color="white" stop-opacity="0"/>
<stop offset="0.58" stop-color="white" stop-opacity="0.39"/>
<stop offset="1" stop-color="white"/>
</linearGradient>
<linearGradient id="paint8_linear" x1="145.795" y1="25.1993" x2="153.072" y2="171.824" gradientUnits="userSpaceOnUse">
<stop offset="0.02" stop-color="white" stop-opacity="0"/>
<stop offset="0.58" stop-color="white" stop-opacity="0.39"/>
<stop offset="1" stop-color="white"/>
</linearGradient>
<linearGradient id="paint9_linear" x1="178.792" y1="25.1993" x2="186.069" y2="171.824" gradientUnits="userSpaceOnUse">
<stop offset="0.02" stop-color="white" stop-opacity="0"/>
<stop offset="0.58" stop-color="white" stop-opacity="0.39"/>
<stop offset="1" stop-color="white"/>
</linearGradient>
<linearGradient id="paint10_linear" x1="145.795" y1="60.1236" x2="153.072" y2="206.749" gradientUnits="userSpaceOnUse">
<stop offset="0.02" stop-color="white" stop-opacity="0"/>
<stop offset="0.58" stop-color="white" stop-opacity="0.39"/>
<stop offset="1" stop-color="white"/>
</linearGradient>
<linearGradient id="paint11_linear" x1="178.792" y1="60.1236" x2="186.069" y2="206.749" gradientUnits="userSpaceOnUse">
<stop offset="0.02" stop-color="white" stop-opacity="0"/>
<stop offset="0.58" stop-color="white" stop-opacity="0.39"/>
<stop offset="1" stop-color="white"/>
</linearGradient>
<linearGradient id="paint12_linear" x1="117" y1="100" x2="113.126" y2="265.644" gradientUnits="userSpaceOnUse">
<stop stop-opacity="0"/>
<stop offset="0.932855" stop-opacity="0.75"/>
<stop offset="1"/>
</linearGradient>
<linearGradient id="paint13_linear" x1="117" y1="151" x2="117.068" y2="183.355" gradientUnits="userSpaceOnUse">
<stop stop-opacity="0"/>
<stop offset="0.932855" stop-opacity="0.75"/>
<stop offset="1"/>
</linearGradient>
<linearGradient id="paint14_linear" x1="117" y1="62.5" x2="117" y2="163.5" gradientUnits="userSpaceOnUse">
<stop stop-color="#1F1F1F"/>
<stop offset="1" stop-opacity="0"/>
</linearGradient>
<linearGradient id="paint15_linear" x1="8818.67" y1="8081.83" x2="8474.54" y2="5572.56" gradientUnits="userSpaceOnUse">
<stop offset="0.01"/>
<stop offset="0.83" stop-opacity="0.07"/>
<stop offset="1" stop-opacity="0"/>
</linearGradient>
<linearGradient id="paint16_linear" x1="118.526" y1="150.015" x2="116.356" y2="119.629" gradientUnits="userSpaceOnUse">
<stop offset="0.01"/>
<stop offset="1" stop-opacity="0"/>
</linearGradient>
<linearGradient id="paint17_linear" x1="116.379" y1="105.045" x2="116.379" y2="145.378" gradientUnits="userSpaceOnUse">
<stop offset="0.9999" stop-color="white"/>
<stop offset="1" stop-color="white" stop-opacity="0"/>
</linearGradient>
<linearGradient id="paint18_linear" x1="117" y1="80.5" x2="115.722" y2="179.811" gradientUnits="userSpaceOnUse">
<stop stop-opacity="0"/>
<stop offset="0.932855" stop-opacity="0.75"/>
<stop offset="1"/>
</linearGradient>
<linearGradient id="paint19_linear" x1="160.5" y1="142.5" x2="119.5" y2="163" gradientUnits="userSpaceOnUse">
<stop/>
<stop offset="1" stop-opacity="0"/>
</linearGradient>
<linearGradient id="paint20_linear" x1="116.138" y1="142.121" x2="129.971" y2="142.121" gradientUnits="userSpaceOnUse">
<stop stop-color="#E5C5D5"/>
<stop offset="0.42" stop-color="#EAD4D1"/>
<stop offset="1" stop-color="#F0E9CB"/>
</linearGradient>
<linearGradient id="paint21_linear" x1="104.597" y1="142.827" x2="118.249" y2="142.827" gradientUnits="userSpaceOnUse">
<stop stop-color="#E5C5D5"/>
<stop offset="0.42" stop-color="#EAD4D1"/>
<stop offset="1" stop-color="#F0E9CB"/>
</linearGradient>
<linearGradient id="paint22_linear" x1="109.791" y1="103.293" x2="123.673" y2="103.293" gradientUnits="userSpaceOnUse">
<stop stop-color="#E5C5D5"/>
<stop offset="0.42" stop-color="#EAD4D1"/>
<stop offset="1" stop-color="#F0E9CB"/>
</linearGradient>
<linearGradient id="paint23_linear" x1="118.009" y1="93.2705" x2="115.694" y2="109.908" gradientUnits="userSpaceOnUse">
<stop offset="0.01"/>
<stop offset="0.12" stop-opacity="0.75"/>
<stop offset="1" stop-opacity="0"/>
</linearGradient>
<linearGradient id="paint24_linear" x1="108.093" y1="92.4145" x2="124.679" y2="92.4145" gradientUnits="userSpaceOnUse">
<stop stop-color="#E5C5D5"/>
<stop offset="0.42" stop-color="#EAD4D1"/>
<stop offset="1" stop-color="#F0E9CB"/>
</linearGradient>
<linearGradient id="paint25_linear" x1="4717.92" y1="1665.58" x2="4680.92" y2="2809.95" gradientUnits="userSpaceOnUse">
<stop offset="0.01"/>
<stop offset="0.83" stop-opacity="0.07"/>
<stop offset="1" stop-opacity="0"/>
</linearGradient>
<linearGradient id="paint26_linear" x1="1215.7" y1="328.498" x2="1269.42" y2="328.498" gradientUnits="userSpaceOnUse">
<stop offset="0.01"/>
<stop offset="0.83" stop-opacity="0.07"/>
<stop offset="1" stop-opacity="0"/>
</linearGradient>
<linearGradient id="paint27_linear" x1="113.286" y1="102.95" x2="113.286" y2="113.733" gradientUnits="userSpaceOnUse">
<stop offset="0.9999" stop-color="white"/>
<stop offset="1" stop-color="white" stop-opacity="0"/>
</linearGradient>
<linearGradient id="paint28_linear" x1="120.334" y1="103.015" x2="120.334" y2="114.035" gradientUnits="userSpaceOnUse">
<stop offset="0.9999" stop-color="white"/>
<stop offset="1" stop-color="white" stop-opacity="0"/>
</linearGradient>
<linearGradient id="paint29_linear" x1="93" y1="158" x2="91.3402" y2="122.095" gradientUnits="userSpaceOnUse">
<stop offset="0.01"/>
<stop offset="1" stop-opacity="0"/>
</linearGradient>
<linearGradient id="paint30_linear" x1="143" y1="154.5" x2="140.931" y2="120.371" gradientUnits="userSpaceOnUse">
<stop offset="0.01"/>
<stop offset="1" stop-opacity="0"/>
</linearGradient>
<linearGradient id="paint31_linear" x1="105.275" y1="139.505" x2="105.275" y2="148.03" gradientUnits="userSpaceOnUse">
<stop offset="0.9999" stop-color="white"/>
<stop offset="1" stop-color="white" stop-opacity="0"/>
</linearGradient>
<linearGradient id="paint32_linear" x1="130.509" y1="138.814" x2="130.509" y2="147.693" gradientUnits="userSpaceOnUse">
<stop offset="0.9999" stop-color="white"/>
<stop offset="1" stop-color="white" stop-opacity="0"/>
</linearGradient>
<linearGradient id="paint33_linear" x1="46.5" y1="152" x2="95.4922" y2="152.619" gradientUnits="userSpaceOnUse">
<stop offset="0.02" stop-color="white" stop-opacity="0"/>
<stop offset="0.58" stop-color="white" stop-opacity="0.39"/>
<stop offset="1" stop-color="white"/>
</linearGradient>
<linearGradient id="paint34_linear" x1="155" y1="149.5" x2="154.713" y2="157.99" gradientUnits="userSpaceOnUse">
<stop stop-opacity="0"/>
<stop offset="0.932855" stop-opacity="0.75"/>
<stop offset="1"/>
</linearGradient>
<linearGradient id="paint35_linear" x1="176.833" y1="48.1243" x2="125.734" y2="133.931" gradientUnits="userSpaceOnUse">
<stop offset="0.52893"/>
<stop offset="0.83" stop-opacity="0.07"/>
<stop offset="1" stop-opacity="0"/>
</linearGradient>
<linearGradient id="paint36_linear" x1="167.058" y1="140.639" x2="177.992" y2="140.672" gradientUnits="userSpaceOnUse">
<stop offset="0.02" stop-color="white" stop-opacity="0"/>
<stop offset="0.58" stop-color="white" stop-opacity="0.39"/>
<stop offset="1" stop-color="white"/>
</linearGradient>
</defs>
</svg>
