<svg width="208" height="208" viewBox="0 0 208 208" fill="none" xmlns="http://www.w3.org/2000/svg">
<path opacity="0.18" d="M6.14958 97.3812C10.2149 87.8628 16.3406 78.1042 22.037 73.3799C27.7333 68.6556 97.9333 -0.000196308 130.369 0C162.804 0.000196314 157.221 8.93405 169.134 18.5806C183.668 30.3419 196.101 50.4906 198.286 74.8236C199.803 91.5232 196.465 108.815 199.106 125.201C201.125 137.747 206.526 148.829 207.755 161.597C209.17 176.25 204.354 191.818 195.941 199.799C187.528 207.779 176.901 208.005 166.921 207.579C140.746 206.448 156.54 198.844 88.4536 207.202C20.3667 215.561 2.56506 155.483 2.56506 155.483C-1.45703 136.314 -1.09832 114.345 6.14958 97.3812Z" fill="#6E71FF"/>
<path d="M144.878 133.004C132.403 135.229 131.355 144.113 138.364 154.664C139.339 155.91 139.91 156.793 140.007 156.943C142.166 160.333 137.354 163.821 134.802 160.724C134.691 160.586 134.025 159.77 133.142 158.457C122.546 145.091 110.966 148.379 110.219 166.237C110.268 167.752 110.214 168.755 110.203 168.929C110.083 170.937 108.535 171.938 106.988 171.938C105.439 171.938 103.893 170.935 103.772 168.929C103.762 168.751 103.704 167.685 103.762 166.085C103.036 148.6 91.5826 144.929 80.7525 158.578C79.9105 159.819 79.2832 160.59 79.1737 160.724C76.6176 163.827 71.8126 160.326 73.9691 156.943C74.0658 156.793 74.6372 155.91 75.6123 154.664C82.5267 144.253 81.6825 135.285 69.1877 133.027C67.4371 132.712 66.275 131.034 66.5908 129.284C66.5951 129.262 66.8722 106.212 66.5908 104.655C66.275 102.904 67.4371 101.227 69.1877 100.911C81.6868 98.6511 82.5246 89.6811 75.6123 79.2741C74.6372 78.0283 74.0658 77.1454 73.9691 76.9951C71.8104 73.6056 76.6219 70.1172 79.1737 73.2146C79.2854 73.3521 79.9513 74.1683 80.8341 75.4808C91.4323 88.8477 103.01 85.5591 103.757 67.7008C103.708 66.1864 103.762 65.1833 103.772 65.0093C103.893 63.001 105.441 62 106.988 62C108.537 62 110.083 63.0031 110.203 65.0093C110.214 65.1876 110.272 66.253 110.214 67.8533C110.938 85.3357 122.393 89.0109 133.223 75.3605C134.065 74.1189 134.693 73.3478 134.802 73.2146C137.358 70.1129 142.163 73.6099 140.007 76.9951C139.91 77.1454 139.339 78.0283 138.364 79.2741C131.451 89.6811 132.308 98.6189 144.698 100.887C146.449 101.207 147.609 102.885 147.288 104.635L147.484 129.266C147.795 131.017 146.629 132.69 144.878 133.004Z" fill="#6E71FF"/>
<path d="M144.878 133.004C132.403 135.229 131.355 144.113 138.364 154.664C139.339 155.91 139.91 156.793 140.007 156.943C142.166 160.333 137.354 163.821 134.802 160.724C134.691 160.586 134.025 159.77 133.142 158.457C122.546 145.091 110.966 148.379 110.219 166.237C110.268 167.752 110.214 168.755 110.203 168.929C110.083 170.937 108.535 171.938 106.988 171.938C105.439 171.938 103.893 170.935 103.772 168.929C103.762 168.751 103.704 167.685 103.762 166.085C103.036 148.6 91.5826 144.929 80.7525 158.578C79.9105 159.819 79.2832 160.59 79.1737 160.724C76.6176 163.827 71.8126 160.326 73.9691 156.943C74.0658 156.793 74.6372 155.91 75.6123 154.664C82.5267 144.253 81.6825 135.285 69.1877 133.027C67.4371 132.712 66.275 131.034 66.5908 129.284C66.5951 129.262 66.8722 106.212 66.5908 104.655C66.275 102.904 67.4371 101.227 69.1877 100.911C81.6868 98.6511 82.5246 89.6811 75.6123 79.2741C74.6372 78.0283 74.0658 77.1454 73.9691 76.9951C71.8104 73.6056 76.6219 70.1172 79.1737 73.2146C79.2854 73.3521 79.9513 74.1683 80.8341 75.4808C91.4323 88.8477 103.01 85.5591 103.757 67.7008C103.708 66.1864 103.762 65.1833 103.772 65.0093C103.893 63.001 105.441 62 106.988 62C108.537 62 110.083 63.0031 110.203 65.0093C110.214 65.1876 110.272 66.253 110.214 67.8533C110.938 85.3357 122.393 89.0109 133.223 75.3605C134.065 74.1189 134.693 73.3478 134.802 73.2146C137.358 70.1129 142.163 73.6099 140.007 76.9951C139.91 77.1454 139.339 78.0283 138.364 79.2741C131.451 89.6811 132.308 98.6189 144.698 100.887C146.449 101.207 147.609 102.885 147.288 104.635L147.484 129.266C147.795 131.017 146.629 132.69 144.878 133.004Z" fill="url(#paint0_linear)" fill-opacity="0.7"/>
<path d="M144.88 133.004C132.404 135.229 131.356 144.113 138.365 154.664C139.34 155.91 139.911 156.793 140.008 156.943C142.167 160.333 137.355 163.821 134.804 160.724C134.692 160.586 134.026 159.77 133.143 158.457C122.547 145.091 110.967 148.379 110.22 166.237C110.269 167.752 110.216 168.755 110.205 168.929C110.085 170.937 108.536 171.938 106.989 171.938V62C108.538 62 110.085 63.0031 110.205 65.0093C110.216 65.1876 110.274 66.253 110.216 67.8533C110.939 85.3357 122.395 89.0109 133.225 75.3605C134.067 74.1189 134.694 73.3478 134.804 73.2146C137.36 70.1129 142.165 73.6099 140.008 76.9951C139.911 77.1454 139.34 78.0283 138.365 79.2741C131.453 89.6811 132.31 98.6189 144.699 100.887C146.45 101.207 147.61 102.885 147.29 104.635L147.485 129.266C147.797 131.017 146.63 132.69 144.88 133.004Z" fill="#6E71FF"/>
<path d="M89.5406 107.307C89.5389 107.307 89.5376 107.307 89.5361 107.307L84.4286 107.304C82.6492 107.302 81.2077 105.859 81.209 104.08C81.2103 102.301 82.6526 100.86 84.431 100.86H84.4333L89.5406 100.863L95.0399 95.3602C96.2975 94.1013 98.3379 94.1008 99.5964 95.3587C100.855 96.6166 100.856 98.6565 99.5981 99.9152L94.0988 105.418C92.8814 106.636 91.2626 107.307 89.5406 107.307Z" fill="url(#paint1_linear)"/>
<path d="M95.0407 138.579L89.5404 133.079H84.431C82.6516 133.079 81.209 131.636 81.209 129.857C81.209 128.078 82.6516 126.635 84.431 126.635H89.5404C91.2616 126.635 92.8796 127.305 94.0967 128.522L99.597 134.023C100.855 135.281 100.855 137.321 99.597 138.579C98.3389 139.838 96.2988 139.838 95.0407 138.579Z" fill="url(#paint2_linear)"/>
<path d="M114.378 138.579C113.12 137.321 113.12 135.281 114.378 134.023L119.878 128.523C121.096 127.305 122.714 126.635 124.435 126.635H129.544C131.324 126.635 132.766 128.078 132.766 129.857C132.766 131.636 131.324 133.079 129.544 133.079H124.435L118.935 138.579C117.677 139.837 115.636 139.838 114.378 138.579Z" fill="url(#paint3_linear)"/>
<path d="M124.435 107.307C122.713 107.307 121.094 106.637 119.877 105.418L114.377 99.9153C113.12 98.6566 113.12 96.6166 114.379 95.3588C115.637 94.1009 117.678 94.1018 118.936 95.3603L124.435 100.863L129.542 100.86H129.545C131.323 100.86 132.765 102.301 132.767 104.079C132.768 105.859 131.326 107.302 129.547 107.304L124.44 107.307C124.438 107.307 124.436 107.307 124.435 107.307Z" fill="url(#paint4_linear)"/>
<path d="M87.6864 117.198C87.4699 115.432 88.7262 113.824 90.4923 113.608C94.6317 113.1 98.5359 111.196 101.485 108.247C102.743 106.989 104.783 106.989 106.042 108.247C107.3 109.505 107.3 111.545 106.042 112.804C102.081 116.765 96.8368 119.322 91.2765 120.004C89.51 120.221 87.9031 118.964 87.6864 117.198Z" fill="url(#paint5_linear)"/>
<path d="M107.933 125.692C106.675 124.433 106.675 122.393 107.933 121.135C111.895 117.172 117.141 114.615 122.703 113.934C124.472 113.718 126.076 114.975 126.292 116.741C126.509 118.507 125.252 120.114 123.486 120.331C119.345 120.838 115.44 122.741 112.49 125.692C111.231 126.95 109.191 126.95 107.933 125.692Z" fill="url(#paint6_linear)"/>
<path d="M84.4346 133.079H55.222C53.4426 133.079 52 131.636 52 129.857V104.081C52 102.301 53.4426 100.859 55.222 100.859H84.1433C86.0067 100.693 86.9649 101.854 87.7708 103.349C89.5406 106.632 95.3943 118.685 97.0014 122.01C97.7102 123.476 97.214 125.24 95.8455 126.122C91.9586 128.625 87.5928 131.491 86.6734 132.174C86.0935 132.734 85.3043 133.079 84.4346 133.079Z" fill="#6E71FF"/>
<path d="M84.4346 133.079H55.222C53.4426 133.079 52 131.636 52 129.857V104.081C52 102.301 53.4426 100.859 55.222 100.859H84.1433C86.0067 100.693 86.9649 101.854 87.7708 103.349C89.5406 106.632 95.3943 118.685 97.0014 122.01C97.7102 123.476 97.214 125.24 95.8455 126.122C91.9586 128.625 87.5928 131.491 86.6734 132.174C86.0935 132.734 85.3043 133.079 84.4346 133.079Z" fill="url(#paint7_linear)" fill-opacity="0.7"/>
<path d="M129.765 132.725C128.956 132.725 127.749 132.437 126.86 130.967C125.564 128.822 118.097 113.421 117.21 111.587C116.501 110.124 116.995 108.361 118.36 107.478C122.248 104.964 126.614 102.086 127.533 101.401C128.113 100.838 128.904 100.492 129.776 100.492H158.988C160.768 100.492 162.21 101.934 162.21 103.714V129.49C162.21 131.269 160.768 132.712 158.988 132.712H130.067C129.975 132.72 129.873 132.725 129.765 132.725Z" fill="#6E71FF"/>
<path d="M129.765 132.725C128.956 132.725 127.749 132.437 126.86 130.967C125.564 128.822 118.097 113.421 117.21 111.587C116.501 110.124 116.995 108.361 118.36 107.478C122.248 104.964 126.614 102.086 127.533 101.401C128.113 100.838 128.904 100.492 129.776 100.492H158.988C160.768 100.492 162.21 101.934 162.21 103.714V129.49C162.21 131.269 160.768 132.712 158.988 132.712H130.067C129.975 132.72 129.873 132.725 129.765 132.725Z" fill="url(#paint8_linear)" fill-opacity="0.7"/>
<defs>
<linearGradient id="paint0_linear" x1="112.487" y1="-4.53601" x2="112.487" y2="225.316" gradientUnits="userSpaceOnUse">
<stop stop-color="white"/>
<stop offset="1" stop-color="white" stop-opacity="0"/>
</linearGradient>
<linearGradient id="paint1_linear" x1="90.8749" y1="94.4156" x2="90.8749" y2="107.307" gradientUnits="userSpaceOnUse">
<stop offset="0.9999" stop-color="#67D980"/>
<stop offset="1" stop-color="white" stop-opacity="0"/>
</linearGradient>
<linearGradient id="paint2_linear" x1="90.8749" y1="126.635" x2="90.8749" y2="139.523" gradientUnits="userSpaceOnUse">
<stop offset="0.9999" stop-color="#38B8EF"/>
<stop offset="1" stop-color="#3697C0" stop-opacity="0"/>
</linearGradient>
<linearGradient id="paint3_linear" x1="123.1" y1="126.635" x2="123.1" y2="139.523" gradientUnits="userSpaceOnUse">
<stop stop-color="#4EACE1"/>
<stop offset="0.9999" stop-color="#58C3FF" stop-opacity="0.984375"/>
<stop offset="1" stop-color="white" stop-opacity="0"/>
</linearGradient>
<linearGradient id="paint4_linear" x1="110.84" y1="90.0444" x2="162.529" y2="140.634" gradientUnits="userSpaceOnUse">
<stop stop-color="#5ADF67"/>
<stop offset="1" stop-color="#5CE46A" stop-opacity="0"/>
</linearGradient>
<linearGradient id="paint5_linear" x1="97.3238" y1="107.303" x2="97.3238" y2="120.028" gradientUnits="userSpaceOnUse">
<stop offset="0.9999" stop-color="#ED6E6E"/>
<stop offset="1" stop-color="#E06464" stop-opacity="0"/>
</linearGradient>
<linearGradient id="paint6_linear" x1="105.339" y1="124.687" x2="147.681" y2="113.689" gradientUnits="userSpaceOnUse">
<stop offset="0.34375" stop-color="#FD7171"/>
<stop offset="1" stop-color="white" stop-opacity="0"/>
</linearGradient>
<linearGradient id="paint7_linear" x1="135.582" y1="116.988" x2="-15.6358" y2="148.881" gradientUnits="userSpaceOnUse">
<stop/>
<stop offset="1" stop-color="#111111" stop-opacity="0"/>
</linearGradient>
<linearGradient id="paint8_linear" x1="95.4422" y1="130.735" x2="197.721" y2="132.385" gradientUnits="userSpaceOnUse">
<stop/>
<stop offset="1" stop-opacity="0"/>
</linearGradient>
</defs>
</svg>
