<svg width="208" height="208" viewBox="0 0 208 208" fill="none" xmlns="http://www.w3.org/2000/svg">
<path opacity="0.18" d="M6.14958 97.3812C10.2149 87.8628 16.3406 78.1042 22.037 73.3799C27.7333 68.6556 97.9333 -0.000196308 130.369 0C162.804 0.000196314 157.221 8.93405 169.134 18.5806C183.668 30.3419 196.101 50.4906 198.286 74.8236C199.803 91.5232 196.465 108.815 199.106 125.201C201.125 137.747 206.526 148.829 207.755 161.597C209.17 176.25 204.354 191.818 195.941 199.799C187.528 207.779 176.901 208.005 166.921 207.579C140.746 206.448 156.54 198.844 88.4536 207.202C20.3667 215.561 2.56506 155.483 2.56506 155.483C-1.45703 136.314 -1.09832 114.345 6.14958 97.3812Z" fill="#6E71FF"/>
<circle cx="109" cy="117" r="52" fill="#6E71FF"/>
<circle cx="109" cy="117" r="52" fill="url(#paint0_linear)" fill-opacity="0.9"/>
<path fill-rule="evenodd" clip-rule="evenodd" d="M94.4458 103.211C95.5035 102.154 97.2183 102.154 98.276 103.211L108.617 113.553L119.342 102.828C120.4 101.771 122.114 101.771 123.172 102.828C124.23 103.886 124.23 105.601 123.172 106.659L112.448 117.383L122.789 127.724C123.847 128.782 123.847 130.497 122.789 131.555C121.731 132.612 120.017 132.612 118.959 131.555L108.617 121.213L98.659 131.172C97.6013 132.229 95.8865 132.229 94.8288 131.172C93.7712 130.114 93.7712 128.399 94.8288 127.341L104.787 117.383L94.4458 107.042C93.3881 105.984 93.3881 104.269 94.4458 103.211Z" fill="#6E71FF"/>
<path fill-rule="evenodd" clip-rule="evenodd" d="M94.4458 103.211C95.5035 102.154 97.2183 102.154 98.276 103.211L108.617 113.553L119.342 102.828C120.4 101.771 122.114 101.771 123.172 102.828C124.23 103.886 124.23 105.601 123.172 106.659L112.448 117.383L122.789 127.724C123.847 128.782 123.847 130.497 122.789 131.555C121.731 132.612 120.017 132.612 118.959 131.555L108.617 121.213L98.659 131.172C97.6013 132.229 95.8865 132.229 94.8288 131.172C93.7712 130.114 93.7712 128.399 94.8288 127.341L104.787 117.383L94.4458 107.042C93.3881 105.984 93.3881 104.269 94.4458 103.211Z" fill="url(#paint1_linear)"/>
<defs>
<linearGradient id="paint0_linear" x1="109" y1="46.0417" x2="109" y2="169" gradientUnits="userSpaceOnUse">
<stop stop-color="#222222"/>
<stop offset="1" stop-color="#212121" stop-opacity="0"/>
</linearGradient>
<linearGradient id="paint1_linear" x1="121.5" y1="131.5" x2="138.5" y2="143" gradientUnits="userSpaceOnUse">
<stop stop-color="white"/>
<stop offset="1" stop-color="white" stop-opacity="0"/>
</linearGradient>
</defs>
</svg>
