<svg width="208" height="208" viewBox="0 0 208 208" fill="none" xmlns="http://www.w3.org/2000/svg">
<path opacity="0.18" d="M207.447 155.823C207.258 158.467 206.994 161.107 206.653 163.742C205.164 175.244 201.781 187.06 194.14 194.868C188.954 200.171 182.217 203.179 175.401 204.989C164.476 207.882 153.135 207.937 141.907 207.971C113.687 208.073 85.3078 208.154 57.3143 203.575C36.1784 200.12 12.1391 194.493 2.77136 169.374C1.5614 165.983 0.789891 162.414 0.480468 158.775C0.219624 156.245 0.102433 153.685 0.053288 151.146C-0.283337 136.314 0.975873 121.49 3.8034 106.998C5.10006 100.336 6.76342 93.674 9.82928 87.7956C14.6946 78.4625 22.6825 71.8429 30.2432 65.1551C41.287 55.3798 51.8499 44.9337 61.8848 33.8631C73.6644 20.8667 85.5876 6.41344 101.541 1.73199C113.078 -1.65023 125.266 0.581867 137.023 2.831C150.916 5.48907 165.032 8.22382 177.711 15.1587C190.39 22.0935 201.667 33.9355 205.391 49.2365C207.058 56.0947 207.152 63.2936 207.236 70.3988L207.916 127.701C208.029 137.089 208.139 146.495 207.447 155.823Z" fill="#6E71FF"/>
<path opacity="0.18" d="M206.653 163.742C206.993 161.107 207.258 158.467 207.447 155.823C208.139 146.495 208.029 137.089 207.916 127.701L0.866391 127.833C-0.000358075 130 0.219237 156.245 0.480082 158.775C0.789505 162.414 1.56101 165.983 2.77098 169.374C12.1387 194.493 36.178 200.12 57.3139 203.575C85.3075 208.154 113.687 208.073 141.907 207.971C153.135 207.937 164.476 207.882 175.401 204.989C182.217 203.179 188.953 200.171 194.14 194.868C201.78 187.06 205.164 175.244 206.653 163.742Z" fill="#6E71FF"/>
<path opacity="0.74" d="M61.6142 111.709C61.02 112.396 60.4258 113.131 60.4258 113.937C60.414 115.412 62.3411 116.499 64.2445 117.042C66.7639 117.76 69.511 117.933 72.2166 118.074C82.714 118.628 93.255 118.847 103.786 119.066C108.09 119.157 112.445 119.241 116.646 118.571C118.211 118.321 119.92 117.861 120.568 116.81C121.376 115.496 120.132 113.862 120.976 112.562C121.422 111.875 122.396 111.385 122.656 110.65C122.963 109.773 122.081 108.861 120.954 108.457C119.827 108.053 118.514 108.036 117.252 108.017C108.116 107.923 98.979 107.853 89.8403 107.806L71.4838 107.692C69.5823 107.682 65.421 107.061 63.7969 107.884C62.4679 108.55 62.5194 110.656 61.6142 111.709Z" fill="#6E71FF"/>
<path d="M53.1631 142.575H72.2958V160.109C72.2958 160.723 72.1822 161.33 71.9614 161.897C71.7407 162.463 71.4171 162.978 71.0092 163.412C70.6013 163.846 70.1171 164.19 69.5841 164.425C69.0512 164.66 68.48 164.78 67.9031 164.78H57.5558C56.9789 164.78 56.4077 164.66 55.8748 164.425C55.3418 164.19 54.8576 163.846 54.4497 163.412C54.0418 162.978 53.7182 162.463 53.4975 161.897C53.2767 161.33 53.1631 160.723 53.1631 160.109V142.575Z" fill="#090909"/>
<path d="M146.76 142.575H165.897V160.109C165.897 160.723 165.783 161.33 165.562 161.897C165.342 162.463 165.018 162.978 164.61 163.412C164.202 163.846 163.718 164.19 163.185 164.425C162.652 164.66 162.081 164.78 161.504 164.78H151.152C150.576 164.78 150.004 164.66 149.471 164.425C148.939 164.19 148.454 163.846 148.046 163.412C147.638 162.978 147.315 162.463 147.094 161.897C146.873 161.33 146.76 160.723 146.76 160.109V142.575Z" fill="#090909"/>
<path d="M55.8198 102.46H64.8981V94.3365H55.8198C54.8067 94.3365 53.8351 94.7645 53.1188 95.5263C52.4024 96.288 52 97.3212 52 98.3985C52 99.4758 52.4024 100.509 53.1188 101.271C53.8351 102.033 54.8067 102.46 55.8198 102.46Z" fill="#6E71FF"/>
<path d="M162.901 102.46H153.822V94.3365H162.901C163.914 94.3365 164.885 94.7645 165.602 95.5263C166.318 96.288 166.72 97.3212 166.72 98.3985C166.72 99.4758 166.318 100.509 165.602 101.271C164.885 102.033 163.914 102.46 162.901 102.46Z" fill="#6E71FF"/>
<path d="M55.8198 102.46H64.8981V94.3365H55.8198C54.8067 94.3365 53.8351 94.7645 53.1188 95.5263C52.4024 96.288 52 97.3212 52 98.3985C52 99.4758 52.4024 100.509 53.1188 101.271C53.8351 102.033 54.8067 102.46 55.8198 102.46Z" fill="url(#paint0_linear)"/>
<path d="M162.901 102.46H153.822V94.3365H162.901C163.914 94.3365 164.885 94.7645 165.602 95.5263C166.318 96.288 166.72 97.3212 166.72 98.3985C166.72 99.4758 166.318 100.509 165.602 101.271C164.885 102.033 163.914 102.46 162.901 102.46Z" fill="url(#paint1_linear)"/>
<path d="M56.1506 110.693C54.1838 116.128 53.1766 121.902 53.1797 127.726L78.093 140.982L138.424 141.108L165.913 127.726C165.914 121.902 164.907 116.129 162.942 110.693H56.1506Z" fill="#6E71FF"/>
<path d="M56.1506 110.693C54.1838 116.128 53.1766 121.902 53.1797 127.726L78.093 140.982L138.424 141.108L165.913 127.726C165.914 121.902 164.907 116.129 162.942 110.693H56.1506Z" fill="url(#paint2_linear)"/>
<path d="M132.656 72H86.5516C82.3296 71.9997 78.2122 73.397 74.7708 75.998C71.3294 78.599 68.7347 82.2746 67.3467 86.5148L63.9854 96.7736H155.235L151.869 86.5148C150.482 82.2728 147.886 78.5957 144.442 75.9946C140.999 73.3934 136.88 71.9972 132.656 72Z" fill="#6E71FF"/>
<path d="M150.826 96.7737H67.0205L70.4158 86.2622C71.4893 82.958 73.5056 80.0923 76.1836 78.0648C78.8617 76.0373 82.0679 74.9491 85.3553 74.9519H133.115C136.562 74.9517 139.914 76.1511 142.66 78.3669C145.406 80.5827 147.394 83.6933 148.322 87.2236L150.826 96.7737Z" fill="url(#paint3_linear)"/>
<path d="M150.826 96.7737H67.0205L70.4158 86.2622C71.4893 82.958 73.5056 80.0923 76.1836 78.0648C78.8617 76.0373 82.0679 74.9491 85.3553 74.9519H133.115C136.562 74.9517 139.914 76.1511 142.66 78.3669C145.406 80.5827 147.394 83.6933 148.322 87.2236L150.826 96.7737Z" fill="url(#paint4_linear)"/>
<path d="M56.1504 110.693C91.1959 115.387 126.654 115.44 161.711 110.851L162.908 110.693C161.185 105.931 158.748 101.497 155.693 97.5634L155.069 96.76H63.9851L63.357 97.5634C60.306 101.499 57.8725 105.932 56.1504 110.693Z" fill="#6E71FF"/>
<path d="M56.1504 110.693C91.1959 115.387 126.654 115.44 161.711 110.851L162.908 110.693C161.185 105.931 158.748 101.497 155.693 97.5634L155.069 96.76H63.9851L63.357 97.5634C60.306 101.499 57.8725 105.932 56.1504 110.693Z" fill="url(#paint5_linear)"/>
<path d="M166.656 136.911L165.897 127.74H164.683L153.364 131.233C145.072 133.796 136.482 135.097 127.848 135.096H89.998C81.3638 135.097 72.7731 133.796 64.4821 131.233L53.1629 127.74L52.4032 136.911C52.2213 139.114 52.4723 141.333 53.1402 143.427C53.8081 145.521 54.8784 147.445 56.2829 149.075C57.6875 150.706 59.3957 152.008 61.2989 152.899C63.2022 153.79 65.2589 154.251 67.3384 154.251H151.721C153.801 154.251 155.857 153.79 157.761 152.899C159.664 152.008 161.372 150.706 162.777 149.075C164.181 147.445 165.251 145.521 165.919 143.427C166.587 141.333 166.838 139.114 166.656 136.911Z" fill="#6E71FF"/>
<path d="M166.656 136.911L165.897 127.74H164.683L153.364 131.233C145.072 133.796 136.482 135.097 127.848 135.096H89.998C81.3638 135.097 72.7731 133.796 64.4821 131.233L53.1629 127.74L52.4032 136.911C52.2213 139.114 52.4723 141.333 53.1402 143.427C53.8081 145.521 54.8784 147.445 56.2829 149.075C57.6875 150.706 59.3957 152.008 61.2989 152.899C63.2022 153.79 65.2589 154.251 67.3384 154.251H151.721C153.801 154.251 155.857 153.79 157.761 152.899C159.664 152.008 161.372 150.706 162.777 149.075C164.181 147.445 165.251 145.521 165.919 143.427C166.587 141.333 166.838 139.114 166.656 136.911Z" fill="url(#paint6_linear)"/>
<path d="M109.53 115.594H86.9463L91.4494 129.387H109.53H127.605L132.113 115.594H109.53Z" fill="#6E71FF"/>
<path d="M109.53 115.594H86.9463L91.4494 129.387H109.53H127.605L132.113 115.594H109.53Z" fill="url(#paint7_linear)"/>
<path d="M109.53 116.686H88.6016L92.7736 128.295H109.53H126.286L130.458 116.686H109.53Z" fill="#6E71FF"/>
<path d="M109.53 116.686H88.6016L92.7736 128.295H109.53H126.286L130.458 116.686H109.53Z" fill="url(#paint8_linear)"/>
<path d="M130.288 118.013H88.6016V119.467H130.288V118.013Z" fill="#6E71FF"/>
<path d="M130.288 118.013H88.6016V119.467H130.288V118.013Z" fill="url(#paint9_linear)"/>
<path d="M129.125 121.764H89.9512V123.217H129.125V121.764Z" fill="#6E71FF"/>
<path d="M129.125 121.764H89.9512V123.217H129.125V121.764Z" fill="url(#paint10_linear)"/>
<path d="M127.64 125.515H90.9062V126.968H127.64V125.515Z" fill="#6E71FF"/>
<path d="M127.64 125.515H90.9062V126.968H127.64V125.515Z" fill="url(#paint11_linear)"/>
<path d="M142.524 150.649H76.5527C76.5527 146.19 82.2569 142.575 89.2853 142.575H129.77C136.807 142.575 142.503 146.186 142.503 150.649H142.524Z" fill="#6E71FF"/>
<path d="M142.524 150.649H76.5527C76.5527 146.19 82.2569 142.575 89.2853 142.575H129.77C136.807 142.575 142.503 146.186 142.503 150.649H142.524Z" fill="url(#paint12_linear)"/>
<path d="M134.192 113.5L150.825 96.7735H67.0156L84.7138 113.473C101.192 114.5 117.713 114.509 134.192 113.5Z" fill="#6E71FF"/>
<path d="M134.192 113.5L150.825 96.7735H67.0156L84.7138 113.473C101.192 114.5 117.713 114.509 134.192 113.5Z" fill="url(#paint13_linear)"/>
<path d="M83.7894 115.698C83.7894 115.698 62.0041 113.961 59.6401 114.922C57.2761 115.883 55.8203 124.4 55.8203 124.4L88.5004 129.035L83.7894 115.698Z" fill="#6E71FF"/>
<path d="M83.7894 115.698C83.7894 115.698 62.0041 113.961 59.6401 114.922C57.2761 115.883 55.8203 124.4 55.8203 124.4L88.5004 129.035L83.7894 115.698Z" fill="url(#paint14_linear)"/>
<path d="M135.325 115.698C135.325 115.698 157.115 113.961 159.475 114.922C161.834 115.883 163.294 124.4 163.294 124.4L130.614 129.035L135.325 115.698Z" fill="white"/>
<path d="M94.3317 84.154C94.2729 84.2801 94.1872 84.3898 94.0813 84.4744C93.9633 84.0307 93.8055 83.5999 93.6102 83.1881L92.5449 80.7419C92.7547 80.6249 92.9813 80.5456 93.2155 80.5072C93.5305 80.4517 93.8535 80.5294 94.1153 80.7239C94.2931 80.8869 94.4191 81.1045 94.476 81.3467C94.5681 81.73 94.6123 82.1246 94.6076 82.5202C94.6687 83.0818 94.5728 83.6501 94.3317 84.154Z" fill="url(#paint15_linear)"/>
<path d="M85.3555 74.9519L102.676 96.7106L120.709 96.5797L105.218 75.34L85.3555 74.9519Z" fill="url(#paint16_linear)"/>
<path d="M152.556 110.924C166.723 105.624 176.112 92.0874 176.112 76.9617V67.7942C171.255 67.7942 167.318 63.8569 167.318 59H152.556H137.794C137.794 63.8569 133.857 67.7942 129 67.7942V76.9616C129 92.0874 138.389 105.624 152.556 110.924Z" fill="#6E71FF"/>
<path d="M152.556 110.924C166.723 105.624 176.112 92.0874 176.112 76.9617V67.7942C171.255 67.7942 167.318 63.8569 167.318 59H152.556H137.794C137.794 63.8569 133.857 67.7942 129 67.7942V76.9616C129 92.0874 138.389 105.624 152.556 110.924Z" fill="url(#paint17_linear)" fill-opacity="0.3"/>
<path d="M149.275 94.1177L141.466 86.3087L145.768 82.006L149.275 85.5125L159.344 75.4429L163.647 79.7455L149.275 94.1177Z" fill="white"/>
<path d="M152.556 90.8361V82.231L159.344 75.4429L163.646 79.7455L152.556 90.8361Z" fill="white"/>
<defs>
<linearGradient id="paint0_linear" x1="57.9461" y1="85.0888" x2="59.3807" y2="113.465" gradientUnits="userSpaceOnUse">
<stop offset="0.01"/>
<stop offset="0.83" stop-opacity="0.07"/>
<stop offset="1" stop-opacity="0"/>
</linearGradient>
<linearGradient id="paint1_linear" x1="4453.38" y1="995.282" x2="4468.7" y2="1506.89" gradientUnits="userSpaceOnUse">
<stop offset="0.01"/>
<stop offset="0.83" stop-opacity="0.07"/>
<stop offset="1" stop-opacity="0"/>
</linearGradient>
<linearGradient id="paint2_linear" x1="109.231" y1="74.2731" x2="106.482" y2="153.648" gradientUnits="userSpaceOnUse">
<stop offset="0.01"/>
<stop offset="0.83" stop-opacity="0.07"/>
<stop offset="1" stop-opacity="0"/>
</linearGradient>
<linearGradient id="paint3_linear" x1="94.5" y1="62" x2="118.5" y2="115" gradientUnits="userSpaceOnUse">
<stop/>
<stop offset="1" stop-color="#161616" stop-opacity="0"/>
</linearGradient>
<linearGradient id="paint4_linear" x1="163.282" y1="61.1723" x2="73.4146" y2="17.6307" gradientUnits="userSpaceOnUse">
<stop offset="0.079127"/>
<stop offset="0.83" stop-opacity="0.07"/>
<stop offset="1" stop-opacity="0"/>
</linearGradient>
<linearGradient id="paint5_linear" x1="117.149" y1="21.449" x2="102.544" y2="88.8001" gradientUnits="userSpaceOnUse">
<stop stop-opacity="0"/>
<stop offset="0.01"/>
<stop offset="0.83" stop-opacity="0.07"/>
</linearGradient>
<linearGradient id="paint6_linear" x1="105.07" y1="97.561" x2="106.797" y2="190.365" gradientUnits="userSpaceOnUse">
<stop offset="0.01"/>
<stop offset="0.83" stop-opacity="0.07"/>
<stop offset="1" stop-opacity="0"/>
</linearGradient>
<linearGradient id="paint7_linear" x1="160.899" y1="136.277" x2="108.387" y2="108.136" gradientUnits="userSpaceOnUse">
<stop offset="0.02" stop-color="white" stop-opacity="0"/>
<stop offset="0.58" stop-color="white" stop-opacity="0.39"/>
<stop offset="1" stop-color="white"/>
</linearGradient>
<linearGradient id="paint8_linear" x1="8958.73" y1="1861.17" x2="8968.37" y2="2721.7" gradientUnits="userSpaceOnUse">
<stop offset="0.01"/>
<stop offset="0.83" stop-opacity="0.07"/>
<stop offset="1" stop-opacity="0"/>
</linearGradient>
<linearGradient id="paint9_linear" x1="156.856" y1="120.193" x2="154.147" y2="107.48" gradientUnits="userSpaceOnUse">
<stop offset="0.02" stop-color="white" stop-opacity="0"/>
<stop offset="0.58" stop-color="white" stop-opacity="0.39"/>
<stop offset="1" stop-color="white"/>
</linearGradient>
<linearGradient id="paint10_linear" x1="154.091" y1="123.943" x2="151.226" y2="111.303" gradientUnits="userSpaceOnUse">
<stop offset="0.02" stop-color="white" stop-opacity="0"/>
<stop offset="0.58" stop-color="white" stop-opacity="0.39"/>
<stop offset="1" stop-color="white"/>
</linearGradient>
<linearGradient id="paint11_linear" x1="151.051" y1="127.694" x2="148.015" y2="115.138" gradientUnits="userSpaceOnUse">
<stop offset="0.02" stop-color="white" stop-opacity="0"/>
<stop offset="0.58" stop-color="white" stop-opacity="0.39"/>
<stop offset="1" stop-color="white"/>
</linearGradient>
<linearGradient id="paint12_linear" x1="110" y1="140.5" x2="110" y2="163.5" gradientUnits="userSpaceOnUse">
<stop stop-color="#0C0C0C"/>
<stop offset="1" stop-color="#050505" stop-opacity="0"/>
</linearGradient>
<linearGradient id="paint13_linear" x1="116.789" y1="38.6744" x2="101.644" y2="135.343" gradientUnits="userSpaceOnUse">
<stop offset="0.01"/>
<stop offset="0.83" stop-opacity="0.07"/>
<stop offset="1" stop-opacity="0"/>
</linearGradient>
<linearGradient id="paint14_linear" x1="109.328" y1="136.231" x2="66.3481" y2="120.271" gradientUnits="userSpaceOnUse">
<stop offset="0.02" stop-color="white" stop-opacity="0"/>
<stop offset="0.58" stop-color="white" stop-opacity="0.39"/>
<stop offset="1" stop-color="white"/>
</linearGradient>
<linearGradient id="paint15_linear" x1="483.013" y1="540.008" x2="453.82" y2="541.998" gradientUnits="userSpaceOnUse">
<stop offset="0.01"/>
<stop offset="0.83" stop-opacity="0.07"/>
<stop offset="1" stop-opacity="0"/>
</linearGradient>
<linearGradient id="paint16_linear" x1="104.802" y1="58.4106" x2="95.1899" y2="189.929" gradientUnits="userSpaceOnUse">
<stop offset="0.02" stop-color="white" stop-opacity="0"/>
<stop offset="0.39" stop-color="white" stop-opacity="0.39"/>
<stop offset="1" stop-color="white"/>
</linearGradient>
<linearGradient id="paint17_linear" x1="152.556" y1="59" x2="152.556" y2="110.924" gradientUnits="userSpaceOnUse">
<stop offset="0.9999" stop-color="#040404"/>
<stop offset="1" stop-color="white" stop-opacity="0"/>
</linearGradient>
</defs>
</svg>
