<svg width="208" height="208" viewBox="0 0 208 208" fill="none" xmlns="http://www.w3.org/2000/svg">
<path opacity="0.18" d="M207.956 134.097C207.897 135.795 207.791 137.494 207.613 139.226C206.357 151.765 201.742 164.286 191.795 172.353C179.982 181.925 163.228 183.335 147.748 182.792C132.268 182.248 116.391 180.244 101.575 184.563C93.4644 186.93 86.0413 191.107 77.9487 193.519C62.5457 198.104 45.2173 195.834 31.39 187.926C17.5628 180.018 7.36128 166.715 3.07805 151.872C2.2774 149.081 1.65617 146.245 1.21783 143.381C-1.22296 127.7 1.17044 111.397 0.820906 95.4054C0.512845 81.1911 -1.92202 66.473 3.4098 53.187C6.96436 44.3391 13.7299 37.0367 21.4728 31.257C48.5645 11.0762 82.6822 0.207373 116.853 0.00358377C137.209 -0.120954 158.015 2.98118 175.877 12.3102C181.682 15.3387 187.198 19.1032 191.28 24.0394C194.319 27.7303 196.487 32.0099 198.27 36.38C201.355 43.9675 203.348 51.92 204.195 60.0196C205.285 70.5431 204.426 81.1628 204.864 91.7202C205.474 105.884 208.389 119.939 207.956 134.097Z" fill="#6E71FF"/>
<path opacity="0.4" d="M208 131.067L207.928 131.915C206.876 144.041 203.855 156.102 197.975 165.596C196.27 168.367 194.309 170.893 192.13 173.126C180.274 185.288 163.458 187.078 147.922 186.388C132.385 185.698 116.45 183.152 101.579 188.639C93.4388 191.645 85.9885 196.953 77.8663 200.017C62.4069 205.843 45.0149 202.959 31.1371 192.911C22.0075 186.203 14.4372 176.799 9.13704 165.581C6.36207 159.782 4.2101 153.578 2.73324 147.119C1.92966 143.573 1.30615 139.97 0.866211 136.331L79.5134 134.325L208 131.067Z" fill="#6E71FF"/>
<path d="M56.07 63.1112C49.2639 63.4205 42.4093 62.3509 35.5703 62.3778C29.2344 62.4062 22.7447 63.3538 16.6696 61.5466C15.8231 61.2927 14.8099 60.6756 15.0307 59.8202C17.908 59.1379 20.3306 57.23 23.0995 56.1718C25.6228 55.2108 28.366 54.972 31.0186 55.4824C32.6033 55.7973 34.198 56.3704 35.7926 56.1165C37.1108 55.9065 38.2623 55.1462 39.475 54.6015C40.2389 54.2539 41.2079 54.0766 42.261 54C44.8262 55.1135 47.6378 55.8441 50.079 57.2186C52.6028 58.6414 54.5965 60.6912 56.07 63.1112Z" fill="url(#paint0_linear)"/>
<path d="M191.07 40.6608C181.612 41.0905 172.087 39.6042 162.584 39.6417C153.78 39.6811 144.762 40.9978 136.32 38.4866C135.144 38.1337 133.736 37.2763 134.043 36.0877C138.041 35.1396 141.407 32.4883 145.255 31.0179C148.761 29.6825 152.573 29.3507 156.259 30.0599C158.461 30.4975 160.677 31.2938 162.893 30.941C164.725 30.6492 166.325 29.5927 168.01 28.8358C169.071 28.3528 170.418 28.1064 171.881 28C175.446 29.5474 179.353 30.5625 182.745 32.4726C186.252 34.4496 189.022 37.298 191.07 40.6608Z" fill="url(#paint1_linear)"/>
<path d="M60 89C58.8954 89 58 89.8954 58 91V165C58 166.105 58.8954 167 60 167H159C160.105 167 161 166.105 161 165V91C161 89.8954 160.105 89 159 89H60Z" fill="#6E71FF" stroke="#6E71FF" stroke-width="4" stroke-linecap="round" stroke-linejoin="round"/>
<path d="M60 89C58.8954 89 58 89.8954 58 91V165C58 166.105 58.8954 167 60 167H159C160.105 167 161 166.105 161 165V91C161 89.8954 160.105 89 159 89H60Z" fill="url(#paint2_linear)" stroke="#6E71FF" stroke-width="4" stroke-linecap="round" stroke-linejoin="round"/>
<path d="M69.8271 150.219H83.44V161.95C83.44 162.361 83.3591 162.767 83.202 163.146C83.045 163.525 82.8148 163.87 82.5245 164.16C82.2343 164.45 81.8898 164.681 81.5106 164.838C81.1314 164.995 80.725 165.076 80.3146 165.076H72.9525C72.5421 165.076 72.1357 164.995 71.7565 164.838C71.3773 164.681 71.0328 164.45 70.7426 164.16C70.4523 163.87 70.2221 163.525 70.0651 163.146C69.908 162.767 69.8271 162.361 69.8271 161.95V150.219Z" fill="#090909"/>
<path d="M136.421 150.219H150.037V161.95C150.037 162.361 149.956 162.767 149.799 163.146C149.642 163.525 149.412 163.87 149.121 164.16C148.831 164.45 148.487 164.681 148.107 164.838C147.728 164.995 147.322 165.076 146.911 165.076H139.546C139.136 165.076 138.729 164.995 138.35 164.838C137.971 164.681 137.627 164.45 137.336 164.16C137.046 163.87 136.816 163.525 136.659 163.146C136.502 162.767 136.421 162.361 136.421 161.95V150.219Z" fill="#090909"/>
<path d="M71.7177 123.38H78.1769V117.944H71.7177C70.9969 117.944 70.3057 118.231 69.796 118.74C69.2863 119.25 69 119.941 69 120.662C69 121.383 69.2863 122.074 69.796 122.584C70.3057 123.093 70.9969 123.38 71.7177 123.38Z" fill="#6E71FF"/>
<path d="M71.7177 123.38H78.1769V117.944H71.7177C70.9969 117.944 70.3057 118.231 69.796 118.74C69.2863 119.25 69 119.941 69 120.662C69 121.383 69.2863 122.074 69.796 122.584C70.3057 123.093 70.9969 123.38 71.7177 123.38Z" fill="url(#paint3_linear)"/>
<path d="M147.904 123.38H141.445V117.944H147.904C148.625 117.944 149.317 118.231 149.826 118.74C150.336 119.25 150.622 119.941 150.622 120.662C150.622 121.383 150.336 122.074 149.826 122.584C149.317 123.093 148.625 123.38 147.904 123.38Z" fill="#6E71FF"/>
<path d="M147.904 123.38H141.445V117.944H147.904C148.625 117.944 149.317 118.231 149.826 118.74C150.336 119.25 150.622 119.941 150.622 120.662C150.622 121.383 150.336 122.074 149.826 122.584C149.317 123.093 148.625 123.38 147.904 123.38Z" fill="url(#paint4_linear)"/>
<path d="M71.9527 128.888C70.5533 132.525 69.8367 136.388 69.8389 140.284L87.5645 149.153L130.49 149.238L150.048 140.284C150.049 136.388 149.332 132.525 147.934 128.888H71.9527Z" fill="#6E71FF"/>
<path d="M71.9527 128.888C70.5533 132.525 69.8367 136.388 69.8389 140.284L87.5645 149.153L130.49 149.238L150.048 140.284C150.049 136.388 149.332 132.525 147.934 128.888H71.9527Z" fill="url(#paint5_linear)"/>
<path d="M126.386 103H93.5831C90.5792 103 87.6496 103.935 85.2011 105.675C82.7526 107.415 80.9065 109.874 79.9189 112.711L77.5273 119.575H142.451L140.056 112.711C139.069 109.873 137.222 107.413 134.772 105.673C132.322 103.932 129.391 102.998 126.386 103Z" fill="#6E71FF"/>
<path d="M139.314 119.575H79.6865L82.1023 112.542C82.866 110.331 84.3006 108.414 86.206 107.057C88.1114 105.701 90.3927 104.973 92.7316 104.974H126.712C129.165 104.974 131.55 105.777 133.504 107.259C135.457 108.742 136.872 110.823 137.532 113.185L139.314 119.575Z" fill="url(#paint6_linear)"/>
<path d="M71.9531 128.888C96.8877 132.029 122.116 132.064 147.059 128.994L147.911 128.888C146.684 125.702 144.951 122.736 142.777 120.104L142.333 119.566H77.5275L77.0806 120.104C74.9098 122.737 73.1784 125.703 71.9531 128.888Z" fill="#6E71FF"/>
<path d="M71.9531 128.888C96.8877 132.029 122.116 132.064 147.059 128.994L147.911 128.888C146.684 125.702 144.951 122.736 142.777 120.104L142.333 119.566H77.5275L77.0806 120.104C74.9098 122.737 73.1784 125.703 71.9531 128.888Z" fill="#6E71FF"/>
<path d="M71.9531 128.888C96.8877 132.029 122.116 132.064 147.059 128.994L147.911 128.888C146.684 125.702 144.951 122.736 142.777 120.104L142.333 119.566H77.5275L77.0806 120.104C74.9098 122.737 73.1784 125.703 71.9531 128.888Z" fill="url(#paint7_linear)"/>
<path d="M150.577 146.43L150.037 140.293H149.173L141.12 142.631C135.221 144.345 129.108 145.216 122.965 145.216H96.0355C89.8923 145.216 83.7801 144.345 77.881 142.631L69.8275 140.293L69.287 146.43C69.1576 147.903 69.3362 149.388 69.8114 150.789C70.2866 152.19 71.0481 153.477 72.0474 154.568C73.0467 155.66 74.2621 156.531 75.6162 157.127C76.9704 157.723 78.4337 158.031 79.9133 158.031H139.951C141.431 158.031 142.894 157.723 144.248 157.127C145.602 156.531 146.818 155.66 147.817 154.568C148.816 153.477 149.578 152.19 150.053 150.789C150.528 149.388 150.707 147.903 150.577 146.43Z" fill="#6E71FF"/>
<path d="M150.577 146.43L150.037 140.293H149.173L141.12 142.631C135.221 144.345 129.108 145.216 122.965 145.216H96.0355C89.8923 145.216 83.7801 144.345 77.881 142.631L69.8275 140.293L69.287 146.43C69.1576 147.903 69.3362 149.388 69.8114 150.789C70.2866 152.19 71.0481 153.477 72.0474 154.568C73.0467 155.66 74.2621 156.531 75.6162 157.127C76.9704 157.723 78.4337 158.031 79.9133 158.031H139.951C141.431 158.031 142.894 157.723 144.248 157.127C145.602 156.531 146.818 155.66 147.817 154.568C148.816 153.477 149.578 152.19 150.053 150.789C150.528 149.388 150.707 147.903 150.577 146.43Z" fill="url(#paint8_linear)"/>
<path d="M109.932 132.167H93.8643L97.0682 141.395H109.932H122.793L126 132.167H109.932Z" fill="white"/>
<path d="M109.932 132.898H95.042L98.0104 140.664H109.932H121.854L124.822 132.898H109.932Z" fill="#6E71FF"/>
<path d="M109.932 132.898H95.042L98.0104 140.664H109.932H121.854L124.822 132.898H109.932Z" fill="url(#paint9_linear)"/>
<path d="M124.701 133.786H95.042V134.758H124.701V133.786Z" fill="white"/>
<path d="M123.874 136.295H96.002V137.268H123.874V136.295Z" fill="white"/>
<path d="M122.817 138.805H96.6816V139.777H122.817V138.805Z" fill="white"/>
<path d="M133.407 155.621H86.4688C86.4688 152.638 90.5272 150.219 95.5278 150.219H124.333C129.339 150.219 133.392 152.634 133.392 155.621H133.407Z" fill="#090909"/>
<path d="M127.479 130.766L139.314 119.575H79.6836L92.2757 130.748C104 131.435 115.754 131.441 127.479 130.766Z" fill="#6E71FF"/>
<path d="M127.479 130.766L139.314 119.575H79.6836L92.2757 130.748C104 131.435 115.754 131.441 127.479 130.766Z" fill="url(#paint10_linear)"/>
<path opacity="0.2" d="M76.4073 120.112H71.0835C70.905 120.112 70.7337 120.042 70.6074 119.915C70.4811 119.789 70.4102 119.618 70.4102 119.439C70.4102 119.26 70.4811 119.089 70.6074 118.963C70.7337 118.837 70.905 118.766 71.0835 118.766H76.4073C76.5859 118.766 76.7571 118.837 76.8834 118.963C77.0097 119.089 77.0807 119.26 77.0807 119.439C77.0807 119.618 77.0097 119.789 76.8834 119.915C76.7571 120.042 76.5859 120.112 76.4073 120.112Z" fill="white"/>
<path opacity="0.2" d="M148.692 120.112H143.369C143.19 120.112 143.019 120.042 142.893 119.915C142.766 119.789 142.695 119.618 142.695 119.439C142.695 119.26 142.766 119.089 142.893 118.963C143.019 118.837 143.19 118.766 143.369 118.766H148.692C148.781 118.766 148.868 118.783 148.95 118.817C149.032 118.851 149.106 118.9 149.169 118.963C149.231 119.025 149.281 119.1 149.315 119.181C149.348 119.263 149.366 119.351 149.366 119.439C149.366 119.528 149.348 119.615 149.315 119.697C149.281 119.778 149.231 119.853 149.169 119.915C149.106 119.978 149.032 120.027 148.95 120.061C148.868 120.095 148.781 120.112 148.692 120.112Z" fill="white"/>
<path d="M91.6176 132.236C91.6176 132.236 76.1175 131.074 74.4355 131.717C72.7535 132.36 71.7178 138.058 71.7178 138.058L94.9695 141.16L91.6176 132.236Z" fill="white"/>
<path d="M128.285 132.236C128.285 132.236 143.789 131.074 145.468 131.717C147.147 132.36 148.185 138.058 148.185 138.058L124.934 141.16L128.285 132.236Z" fill="white"/>
<path d="M94.9154 117.002C95.2083 117.171 95.5405 117.26 95.8787 117.26C96.2169 117.26 96.5491 117.171 96.842 117.002C96.9741 116.93 97.0862 116.827 97.1681 116.7C97.2606 116.503 97.2912 116.282 97.2557 116.066C97.2645 115.845 97.1889 115.629 97.0443 115.462C96.9092 115.356 96.749 115.286 96.5793 115.26C96.059 115.138 95.5218 115.107 94.9909 115.166C94.7524 115.175 94.5219 115.255 94.3296 115.396C94.269 115.473 94.2269 115.563 94.2064 115.658C94.186 115.754 94.1879 115.854 94.2118 115.948C94.2425 116.166 94.3217 116.373 94.4435 116.556C94.5653 116.738 94.7266 116.891 94.9154 117.002Z" fill="url(#paint11_linear)"/>
<path d="M99.118 111.132C99.0761 111.216 99.0151 111.289 98.9398 111.346C98.8558 111.049 98.7436 110.761 98.6046 110.485L97.8467 108.849C97.996 108.77 98.1572 108.717 98.3238 108.692C98.5479 108.654 98.7777 108.707 98.964 108.837C99.0905 108.946 99.1802 109.091 99.2206 109.253C99.2861 109.51 99.3176 109.774 99.3143 110.038C99.3577 110.414 99.2895 110.794 99.118 111.132Z" fill="url(#paint12_linear)"/>
<path d="M98.7501 108.613C98.4604 108.721 98.1901 108.875 97.9499 109.069C97.9137 108.996 97.8804 108.921 97.8472 108.848C97.8472 108.848 97.8472 108.848 97.8472 108.87C97.8117 108.903 97.768 108.927 97.7204 108.939C97.4243 109.037 97.1215 109.114 96.8145 109.169C96.4108 109.218 96.0016 109.193 95.6066 109.096C95.2714 109.012 94.9272 108.761 94.5709 108.773H94.5195C94.5195 108.725 94.5588 108.673 94.5769 108.619C94.749 108.133 94.8638 107.713 95.5009 107.562C95.8762 107.481 96.2668 107.513 96.6243 107.653C96.9507 107.815 97.294 107.94 97.6479 108.027C97.868 108.033 98.0872 108.057 98.3032 108.1C98.4179 108.135 98.5204 108.202 98.5993 108.293C98.6782 108.384 98.7304 108.494 98.7501 108.613Z" fill="url(#paint13_linear)"/>
<path d="M92.7314 104.974L105.055 119.532L117.886 119.445L106.864 105.234L92.7314 104.974Z" fill="url(#paint14_linear)"/>
<g style="mix-blend-mode:multiply" opacity="0.2">
<g style="mix-blend-mode:multiply" opacity="0.2">
<path d="M108.503 29.0278L57.9531 80.1705V88.3115L108.503 39.6866L161.902 91.0505V85.9321C162.2 85.934 162.491 85.8445 162.738 85.6753C162.985 85.5062 163.176 85.2653 163.286 84.9842C163.396 84.7031 163.419 84.3949 163.353 84.1C163.288 83.8051 163.136 83.5372 162.917 83.3314L108.503 29.0278Z" fill="#6E71FF"/>
</g>
</g>
<path d="M165.937 161.496H53.9033V169.852H165.937V161.496Z" fill="#6E71FF"/>
<path d="M56.4209 87.3224L107.282 37L162.373 87.3224H56.4209Z" fill="#6E71FF"/>
<path d="M56.4209 87.3224L107.282 37L162.373 87.3224H56.4209Z" fill="url(#paint15_linear)"/>
<path d="M106.151 32.9713L51.9753 86.4311C51.51 86.9123 51.1935 87.5211 51.0647 88.1824C50.9359 88.8438 51.0004 89.5289 51.2502 90.1536C51.5001 90.7782 51.9245 91.3152 52.4712 91.6983C53.0179 92.0815 53.663 92.2942 54.3273 92.3103C55.1958 92.3113 56.0311 91.9718 56.6587 91.3627L106.179 43.554C106.805 42.9476 107.638 42.6094 108.503 42.6094C109.369 42.6094 110.202 42.9476 110.828 43.554L160.348 91.3627C160.974 91.9708 161.806 92.3102 162.673 92.3103C163.337 92.2942 163.982 92.0815 164.529 91.6983C165.075 91.3152 165.5 90.7782 165.75 90.1536C166 89.5289 166.064 88.8438 165.935 88.1824C165.806 87.5211 165.49 86.9123 165.025 86.4311L110.855 32.9713C110.226 32.3486 109.382 32 108.503 32C107.625 32 106.781 32.3486 106.151 32.9713Z" fill="#6E71FF"/>
<defs>
<linearGradient id="paint0_linear" x1="21863" y1="1017.04" x2="21788.7" y2="2485.32" gradientUnits="userSpaceOnUse">
<stop stop-color="white" stop-opacity="0.27"/>
<stop offset="0.95" stop-color="white"/>
</linearGradient>
<linearGradient id="paint1_linear" x1="30493.5" y1="1366.21" x2="30390.3" y2="3406.51" gradientUnits="userSpaceOnUse">
<stop stop-color="white" stop-opacity="0.27"/>
<stop offset="0.95" stop-color="white"/>
</linearGradient>
<linearGradient id="paint2_linear" x1="109" y1="43.1707" x2="109" y2="183.5" gradientUnits="userSpaceOnUse">
<stop stop-color="#5C5C5C"/>
<stop offset="1" stop-color="#070707" stop-opacity="0"/>
</linearGradient>
<linearGradient id="paint3_linear" x1="73.2306" y1="111.757" x2="74.1335" y2="130.748" gradientUnits="userSpaceOnUse">
<stop offset="0.01"/>
<stop offset="0.83" stop-opacity="0.07"/>
<stop offset="1" stop-opacity="0"/>
</linearGradient>
<linearGradient id="paint4_linear" x1="145.676" y1="111.757" x2="146.579" y2="130.748" gradientUnits="userSpaceOnUse">
<stop offset="0.01"/>
<stop offset="0.83" stop-opacity="0.07"/>
<stop offset="1" stop-opacity="0"/>
</linearGradient>
<linearGradient id="paint5_linear" x1="109.719" y1="104.521" x2="107.989" y2="157.635" gradientUnits="userSpaceOnUse">
<stop offset="0.01"/>
<stop offset="0.83" stop-opacity="0.07"/>
<stop offset="1" stop-opacity="0"/>
</linearGradient>
<linearGradient id="paint6_linear" x1="13273.9" y1="833.381" x2="13184.9" y2="6128.63" gradientUnits="userSpaceOnUse">
<stop offset="0.01"/>
<stop offset="0.83" stop-opacity="0.07"/>
<stop offset="1" stop-opacity="0"/>
</linearGradient>
<linearGradient id="paint7_linear" x1="115.353" y1="69.1781" x2="106.116" y2="114.476" gradientUnits="userSpaceOnUse">
<stop stop-opacity="0"/>
<stop offset="0.01"/>
<stop offset="0.83" stop-opacity="0.07"/>
</linearGradient>
<linearGradient id="paint8_linear" x1="106.759" y1="120.102" x2="107.846" y2="182.197" gradientUnits="userSpaceOnUse">
<stop offset="0.01"/>
<stop offset="0.83" stop-opacity="0.07"/>
<stop offset="1" stop-opacity="0"/>
</linearGradient>
<linearGradient id="paint9_linear" x1="6406.08" y1="1300.07" x2="6412.14" y2="1875.83" gradientUnits="userSpaceOnUse">
<stop offset="0.01"/>
<stop offset="0.83" stop-opacity="0.07"/>
<stop offset="1" stop-opacity="0"/>
</linearGradient>
<linearGradient id="paint10_linear" x1="115.097" y1="80.7031" x2="105.542" y2="145.56" gradientUnits="userSpaceOnUse">
<stop offset="0.01"/>
<stop offset="0.83" stop-opacity="0.07"/>
<stop offset="1" stop-opacity="0"/>
</linearGradient>
<linearGradient id="paint11_linear" x1="616.167" y1="386.702" x2="614.594" y2="415.885" gradientUnits="userSpaceOnUse">
<stop offset="0.01"/>
<stop offset="0.83" stop-opacity="0.07"/>
<stop offset="1" stop-opacity="0"/>
</linearGradient>
<linearGradient id="paint12_linear" x1="375.66" y1="416.128" x2="354.902" y2="417.633" gradientUnits="userSpaceOnUse">
<stop offset="0.01"/>
<stop offset="0.83" stop-opacity="0.07"/>
<stop offset="1" stop-opacity="0"/>
</linearGradient>
<linearGradient id="paint13_linear" x1="817.949" y1="308.578" x2="818.907" y2="287.083" gradientUnits="userSpaceOnUse">
<stop offset="0.01"/>
<stop offset="0.83" stop-opacity="0.07"/>
<stop offset="1" stop-opacity="0"/>
</linearGradient>
<linearGradient id="paint14_linear" x1="106.568" y1="93.9072" x2="100.516" y2="181.956" gradientUnits="userSpaceOnUse">
<stop offset="0.02" stop-color="white" stop-opacity="0"/>
<stop offset="0.39" stop-color="white" stop-opacity="0.39"/>
<stop offset="1" stop-color="white"/>
</linearGradient>
<linearGradient id="paint15_linear" x1="110.136" y1="37" x2="109.678" y2="107.498" gradientUnits="userSpaceOnUse">
<stop stop-color="#282828"/>
<stop offset="1" stop-color="#313131" stop-opacity="0"/>
</linearGradient>
</defs>
</svg>
