<svg width="208" height="208" viewBox="0 0 208 208" fill="none" xmlns="http://www.w3.org/2000/svg">
<path opacity="0.18" d="M207.956 134.097C207.897 135.795 207.791 137.494 207.613 139.226C206.357 151.765 201.742 164.286 191.795 172.353C179.982 181.925 163.228 183.335 147.748 182.792C132.268 182.248 116.391 180.244 101.575 184.563C93.4644 186.93 86.0413 191.107 77.9487 193.519C62.5457 198.104 45.2173 195.834 31.39 187.926C17.5628 180.018 7.36128 166.715 3.07805 151.872C2.2774 149.081 1.65617 146.245 1.21783 143.381C-1.22296 127.7 1.17044 111.397 0.820906 95.4054C0.512845 81.1911 -1.92202 66.473 3.4098 53.187C6.96436 44.3391 13.7299 37.0367 21.4728 31.257C48.5645 11.0762 82.6822 0.207373 116.853 0.00358377C137.209 -0.120954 158.015 2.98118 175.877 12.3102C181.682 15.3387 187.198 19.1032 191.28 24.0394C194.319 27.7303 196.487 32.0099 198.27 36.38C201.355 43.9675 203.348 51.92 204.195 60.0196C205.285 70.5431 204.426 81.1628 204.864 91.7202C205.474 105.884 208.389 119.939 207.956 134.097Z" fill="#6E71FF"/>
<path d="M65.6055 88.6782C64.6721 88.6782 63.9154 89.4348 63.9154 90.3682V152.9C63.9154 153.834 64.6721 154.59 65.6055 154.59H149.263C150.197 154.59 150.953 153.834 150.953 152.9V90.3682C150.953 89.4348 150.197 88.6782 149.263 88.6782H65.6055Z" fill="#6E71FF" stroke="#6E71FF" stroke-width="3.38011" stroke-linecap="round" stroke-linejoin="round"/>
<path d="M65.6055 88.6782C64.6721 88.6782 63.9154 89.4348 63.9154 90.3682V152.9C63.9154 153.834 64.6721 154.59 65.6055 154.59H149.263C150.197 154.59 150.953 153.834 150.953 152.9V90.3682C150.953 89.4348 150.197 88.6782 149.263 88.6782H65.6055Z" stroke="#6E71FF" stroke-width="3.38011" stroke-linecap="round" stroke-linejoin="round"/>
<path d="M73.9102 140.41H85.4134V150.323C85.4134 150.67 85.345 151.013 85.2123 151.334C85.0796 151.654 84.8851 151.945 84.6398 152.191C84.3946 152.436 84.1034 152.63 83.783 152.763C83.4626 152.896 83.1191 152.964 82.7723 152.964H76.5512C76.2044 152.964 75.8609 152.896 75.5405 152.763C75.2201 152.63 74.9289 152.436 74.6837 152.191C74.4385 151.945 74.2439 151.654 74.1112 151.334C73.9785 151.013 73.9102 150.67 73.9102 150.323V140.41Z" fill="#090909"/>
<path d="M130.184 140.41H141.689V150.323C141.689 150.67 141.621 151.013 141.488 151.334C141.356 151.654 141.161 151.945 140.916 152.191C140.671 152.436 140.379 152.63 140.059 152.763C139.739 152.896 139.395 152.964 139.048 152.964H132.825C132.478 152.964 132.134 152.896 131.814 152.763C131.494 152.63 131.202 152.436 130.957 152.191C130.712 151.945 130.517 151.654 130.385 151.334C130.252 151.013 130.184 150.67 130.184 150.323V140.41Z" fill="#090909"/>
<path d="M75.5075 117.73H80.9657V113.137H75.5075C74.8984 113.137 74.3143 113.379 73.8836 113.81C73.4529 114.24 73.2109 114.824 73.2109 115.433C73.2109 116.043 73.4529 116.627 73.8836 117.057C74.3143 117.488 74.8984 117.73 75.5075 117.73Z" fill="#6E71FF"/>
<path d="M75.5075 117.73H80.9657V113.137H75.5075C74.8984 113.137 74.3143 113.379 73.8836 113.81C73.4529 114.24 73.2109 114.824 73.2109 115.434C73.2109 116.043 73.4529 116.627 73.8836 117.057C74.3143 117.488 74.8984 117.73 75.5075 117.73Z" fill="url(#paint0_linear)"/>
<path d="M139.888 117.73H134.43V113.137H139.888C140.497 113.137 141.081 113.379 141.512 113.81C141.942 114.24 142.184 114.824 142.184 115.433C142.184 116.043 141.942 116.627 141.512 117.057C141.081 117.488 140.497 117.73 139.888 117.73Z" fill="#6E71FF"/>
<path d="M139.888 117.73H134.43V113.137H139.888C140.497 113.137 141.081 113.379 141.512 113.81C141.942 114.24 142.184 114.824 142.184 115.434C142.184 116.043 141.942 116.627 141.512 117.057C141.081 117.488 140.497 117.73 139.888 117.73Z" fill="url(#paint1_linear)"/>
<path d="M75.7061 122.385C74.5236 125.458 73.9181 128.722 73.9199 132.015L88.8986 139.509L125.171 139.581L141.699 132.015C141.7 128.722 141.094 125.458 139.913 122.385H75.7061Z" fill="#6E71FF"/>
<path d="M75.7061 122.385C74.5236 125.458 73.9181 128.722 73.9199 132.015L88.8986 139.509L125.171 139.581L141.699 132.015C141.7 128.722 141.094 125.458 139.913 122.385H75.7061Z" fill="url(#paint2_linear)"/>
<path d="M121.704 100.509H93.9845C91.4461 100.508 88.9706 101.298 86.9015 102.769C84.8325 104.239 83.2724 106.318 82.438 108.715L80.417 114.515H135.279L133.256 108.715C132.421 106.317 130.861 104.238 128.79 102.767C126.72 101.296 124.243 100.507 121.704 100.509Z" fill="#6E71FF"/>
<path d="M132.628 114.515H82.2412L84.2826 108.572C84.928 106.703 86.1402 105.083 87.7504 103.937C89.3605 102.791 91.2882 102.175 93.2647 102.177H121.979C124.052 102.177 126.067 102.855 127.718 104.108C129.369 105.361 130.565 107.119 131.122 109.115L132.628 114.515Z" fill="url(#paint3_linear)"/>
<path d="M75.707 122.385C96.7775 125.039 118.096 125.069 139.174 122.474L139.893 122.385C138.857 119.692 137.392 117.186 135.555 114.962L135.18 114.507H80.4175L80.0399 114.962C78.2055 117.187 76.7424 119.693 75.707 122.385Z" fill="#6E71FF"/>
<path d="M75.707 122.385C96.7775 125.039 118.096 125.069 139.174 122.474L139.893 122.385C138.857 119.692 137.392 117.186 135.555 114.962L135.18 114.507H80.4175L80.0399 114.962C78.2055 117.187 76.7424 119.693 75.707 122.385Z" fill="#6E71FF"/>
<path d="M75.707 122.385C96.7775 125.039 118.096 125.069 139.174 122.474L139.893 122.385C138.857 119.692 137.392 117.186 135.555 114.962L135.18 114.507H80.4175L80.0399 114.962C78.2055 117.187 76.7424 119.693 75.707 122.385Z" fill="url(#paint4_linear)"/>
<path d="M142.146 137.208L141.689 132.023H140.96L134.154 133.998C129.169 135.447 124.004 136.182 118.813 136.182H96.0567C90.8656 136.182 85.7006 135.447 80.7157 133.998L73.9103 132.023L73.4535 137.208C73.3441 138.453 73.495 139.708 73.8966 140.892C74.2982 142.076 74.9417 143.163 75.7861 144.085C76.6306 145.007 77.6576 145.744 78.8019 146.247C79.9462 146.751 81.1828 147.011 82.433 147.011H133.167C134.417 147.011 135.653 146.751 136.798 146.247C137.942 145.744 138.969 145.007 139.813 144.085C140.658 143.163 141.301 142.076 141.703 140.892C142.105 139.708 142.255 138.453 142.146 137.208Z" fill="#6E71FF"/>
<path d="M142.146 137.208L141.689 132.023H140.96L134.154 133.998C129.169 135.447 124.004 136.182 118.813 136.182H96.0567C90.8656 136.182 85.7006 135.447 80.7157 133.998L73.9103 132.023L73.4535 137.208C73.3441 138.453 73.495 139.708 73.8966 140.892C74.2982 142.076 74.9417 143.163 75.7861 144.085C76.6306 145.007 77.6576 145.744 78.8019 146.247C79.9462 146.751 81.1828 147.011 82.433 147.011H133.167C134.417 147.011 135.653 146.751 136.798 146.247C137.942 145.744 138.969 145.007 139.813 144.085C140.658 143.163 141.301 142.076 141.703 140.892C142.105 139.708 142.255 138.453 142.146 137.208Z" fill="url(#paint5_linear)"/>
<path d="M107.799 125.155H94.2217L96.9291 132.953H107.799H118.667L121.377 125.155H107.799Z" fill="white"/>
<path d="M107.799 125.773H95.2168L97.7251 132.336H107.799H117.874L120.382 125.773H107.799Z" fill="#6E71FF"/>
<path d="M107.799 125.773H95.2168L97.7251 132.336H107.799H117.874L120.382 125.773H107.799Z" fill="url(#paint6_linear)"/>
<path d="M120.28 126.523H95.2168V127.345H120.28V126.523Z" fill="white"/>
<path d="M119.581 128.644H96.0283V129.466H119.581V128.644Z" fill="white"/>
<path d="M118.688 130.765H96.6025V131.586H118.688V130.765Z" fill="white"/>
<path d="M127.637 144.975H87.9727C87.9727 142.454 91.4022 140.41 95.6278 140.41H119.969C124.2 140.41 127.624 142.451 127.624 144.975H127.637Z" fill="#090909"/>
<path d="M122.628 123.972L132.628 114.515H82.2393L92.88 123.956C102.787 124.537 112.72 124.542 122.628 123.972Z" fill="#6E71FF"/>
<path d="M122.628 123.972L132.628 114.515H82.2393L92.88 123.956C102.787 124.537 112.72 124.542 122.628 123.972Z" fill="url(#paint7_linear)"/>
<path opacity="0.2" d="M79.4701 114.969H74.9714C74.8205 114.969 74.6757 114.909 74.569 114.802C74.4623 114.696 74.4023 114.551 74.4023 114.4C74.4023 114.249 74.4623 114.104 74.569 113.998C74.6757 113.891 74.8205 113.831 74.9714 113.831H79.4701C79.621 113.831 79.7657 113.891 79.8724 113.998C79.9792 114.104 80.0391 114.249 80.0391 114.4C80.0391 114.551 79.9792 114.696 79.8724 114.802C79.7657 114.909 79.621 114.969 79.4701 114.969Z" fill="white"/>
<path opacity="0.2" d="M140.553 114.969H136.054C135.903 114.969 135.759 114.909 135.652 114.802C135.545 114.696 135.485 114.551 135.485 114.4C135.485 114.249 135.545 114.104 135.652 113.998C135.759 113.891 135.903 113.831 136.054 113.831H140.553C140.628 113.831 140.702 113.846 140.771 113.874C140.84 113.903 140.903 113.945 140.955 113.998C141.008 114.051 141.05 114.113 141.079 114.182C141.107 114.251 141.122 114.325 141.122 114.4C141.122 114.475 141.107 114.549 141.079 114.618C141.05 114.687 141.008 114.75 140.955 114.802C140.903 114.855 140.84 114.897 140.771 114.926C140.702 114.954 140.628 114.969 140.553 114.969Z" fill="white"/>
<path d="M92.3227 125.214C92.3227 125.214 79.2247 124.232 77.8034 124.775C76.3821 125.319 75.5068 130.134 75.5068 130.134L95.1552 132.755L92.3227 125.214Z" fill="white"/>
<path d="M123.309 125.214C123.309 125.214 136.41 124.232 137.828 124.775C139.247 125.319 140.125 130.134 140.125 130.134L120.477 132.755L123.309 125.214Z" fill="white"/>
<path d="M95.11 112.341C95.3575 112.484 95.6382 112.559 95.924 112.559C96.2098 112.559 96.4905 112.484 96.738 112.341C96.8496 112.28 96.9443 112.192 97.0136 112.086C97.0918 111.919 97.1176 111.732 97.0876 111.55C97.0951 111.363 97.0312 111.181 96.909 111.04C96.7948 110.95 96.6595 110.891 96.516 110.869C96.0764 110.766 95.6224 110.739 95.1738 110.789C94.9723 110.796 94.7775 110.864 94.615 110.983C94.5638 111.048 94.5282 111.124 94.5109 111.205C94.4937 111.286 94.4952 111.37 94.5154 111.45C94.5414 111.634 94.6083 111.809 94.7112 111.963C94.8141 112.118 94.9504 112.247 95.11 112.341Z" fill="url(#paint8_linear)"/>
<path d="M98.6612 107.38C98.6258 107.451 98.5743 107.513 98.5106 107.561C98.4397 107.31 98.3448 107.067 98.2274 106.834L97.5869 105.451C97.7131 105.385 97.8493 105.34 97.9901 105.318C98.1795 105.287 98.3737 105.331 98.5311 105.441C98.638 105.533 98.7137 105.656 98.748 105.793C98.8033 106.009 98.8299 106.233 98.8271 106.456C98.8638 106.774 98.8061 107.095 98.6612 107.38Z" fill="url(#paint9_linear)"/>
<path d="M98.3504 105.252C98.1055 105.343 97.8771 105.473 97.6741 105.637C97.6435 105.576 97.6155 105.512 97.5874 105.451C97.5874 105.451 97.5874 105.451 97.5874 105.469C97.5573 105.497 97.5204 105.517 97.4802 105.527C97.23 105.61 96.9741 105.675 96.7147 105.721C96.3736 105.763 96.0278 105.742 95.694 105.66C95.4108 105.589 95.1199 105.377 94.8188 105.387H94.7754C94.7754 105.346 94.8086 105.303 94.8239 105.257C94.9693 104.846 95.0663 104.491 95.6047 104.364C95.9218 104.296 96.2519 104.322 96.5539 104.44C96.8298 104.577 97.1199 104.683 97.419 104.757C97.6049 104.761 97.7902 104.782 97.9727 104.818C98.0696 104.848 98.1563 104.905 98.2229 104.981C98.2896 105.058 98.3337 105.152 98.3504 105.252Z" fill="url(#paint10_linear)"/>
<path d="M93.2646 102.177L103.678 114.479L114.521 114.405L105.207 102.396L93.2646 102.177Z" fill="url(#paint11_linear)"/>
<g style="mix-blend-mode:multiply" opacity="0.2">
<g style="mix-blend-mode:multiply" opacity="0.2">
<path d="M106.592 38L63.876 81.217V88.0964L106.592 47.0069L151.715 90.4109V86.0857C151.967 86.0873 152.214 86.0117 152.422 85.8687C152.631 85.7258 152.792 85.5222 152.885 85.2847C152.978 85.0471 152.998 84.7867 152.942 84.5375C152.887 84.2883 152.758 84.0619 152.574 83.8881L106.592 38Z" fill="#6E71FF"/>
</g>
</g>
<path d="M155.125 149.939H60.4531V157H155.125V149.939Z" fill="#6E71FF"/>
<path d="M62.5811 87.2605L105.56 44.7367L152.114 87.2605H62.5811Z" fill="#6E71FF"/>
<path d="M104.605 41.3323L58.8242 86.5073C58.431 86.914 58.1635 87.4284 58.0547 87.9873C57.9458 88.5461 58.0003 89.1251 58.2115 89.6529C58.4226 90.1808 58.7812 90.6345 59.2432 90.9583C59.7052 91.2821 60.2503 91.4619 60.8116 91.4755C61.5455 91.4763 62.2514 91.1894 62.7818 90.6747L104.628 50.275C105.157 49.7626 105.86 49.4767 106.592 49.4767C107.324 49.4767 108.027 49.7626 108.556 50.275L150.402 90.6747C150.931 91.1885 151.635 91.4754 152.367 91.4755C152.928 91.4619 153.473 91.2821 153.935 90.9583C154.397 90.6345 154.756 90.1808 154.967 89.6529C155.178 89.1251 155.232 88.5461 155.124 87.9873C155.015 87.4284 154.747 86.914 154.354 86.5073L108.579 41.3323C108.048 40.8061 107.335 40.5115 106.592 40.5115C105.849 40.5115 105.136 40.8061 104.605 41.3323Z" fill="#6E71FF"/>
<path d="M113.761 87.0503C111.955 85.2455 109.551 84.2511 106.993 84.2511C104.445 84.2511 102.048 85.2389 100.243 87.0323C99.5139 87.7579 99.5126 88.9401 100.24 89.6669C100.593 90.0208 101.064 90.2151 101.564 90.2151C102.063 90.2151 102.532 90.0218 102.884 89.671C103.983 88.5792 105.442 87.9778 106.993 87.9778C108.55 87.9778 110.014 88.583 111.113 89.6813C111.466 90.0342 111.937 90.229 112.437 90.229C112.936 90.229 113.404 90.0357 113.757 89.6849C114.487 88.9592 114.489 87.7776 113.761 87.0503Z" fill="url(#paint12_linear)"/>
<path d="M122.454 78.3857C118.325 74.2674 112.834 72 106.993 72C101.16 72 95.6744 74.2621 91.5472 78.3706C90.818 79.0962 90.8175 80.2784 91.5462 81.0052C91.8992 81.3573 92.3689 81.5509 92.8686 81.5509C93.3681 81.5509 93.8373 81.358 94.1904 81.0062C97.6114 77.6011 102.158 75.7254 106.993 75.7254C111.835 75.7254 116.387 77.6049 119.808 81.0191C120.161 81.3714 120.632 81.5658 121.131 81.5658C121.631 81.5658 122.1 81.3719 122.453 81.0206C123.182 80.2944 123.183 79.1119 122.454 78.3857Z" fill="url(#paint13_linear)"/>
<path d="M117.997 82.8266C115.058 79.8946 111.15 78.2802 106.993 78.2802C102.843 78.2802 98.9412 79.8896 96.005 82.8112C95.6514 83.1627 95.4568 83.6304 95.4561 84.1283C95.4561 84.6258 95.6499 85.0939 96.003 85.446C96.356 85.7983 96.826 85.9927 97.3257 85.9927C97.8247 85.9927 98.2938 85.7988 98.6474 85.448C100.878 83.2288 103.842 82.0063 106.993 82.0063C110.15 82.0063 113.118 83.2331 115.351 85.4599C115.704 85.8127 116.174 86.0071 116.674 86.0071C117.173 86.0071 117.642 85.8132 117.995 85.4619C118.348 85.1104 118.543 84.6427 118.543 84.1447C118.544 83.6468 118.35 83.1791 117.997 82.8266Z" fill="url(#paint14_linear)"/>
<defs>
<linearGradient id="paint0_linear" x1="76.7859" y1="107.908" x2="77.5489" y2="123.956" gradientUnits="userSpaceOnUse">
<stop offset="0.01"/>
<stop offset="0.83" stop-opacity="0.07"/>
<stop offset="1" stop-opacity="0"/>
</linearGradient>
<linearGradient id="paint1_linear" x1="138.005" y1="107.908" x2="138.768" y2="123.956" gradientUnits="userSpaceOnUse">
<stop offset="0.01"/>
<stop offset="0.83" stop-opacity="0.07"/>
<stop offset="1" stop-opacity="0"/>
</linearGradient>
<linearGradient id="paint2_linear" x1="107.62" y1="101.794" x2="106.158" y2="146.677" gradientUnits="userSpaceOnUse">
<stop offset="0.01"/>
<stop offset="0.83" stop-opacity="0.07"/>
<stop offset="1" stop-opacity="0"/>
</linearGradient>
<linearGradient id="paint3_linear" x1="11231.8" y1="717.701" x2="11156.5" y2="5192.33" gradientUnits="userSpaceOnUse">
<stop offset="0.01"/>
<stop offset="0.83" stop-opacity="0.07"/>
<stop offset="1" stop-opacity="0"/>
</linearGradient>
<linearGradient id="paint4_linear" x1="112.381" y1="71.9281" x2="104.576" y2="110.206" gradientUnits="userSpaceOnUse">
<stop stop-opacity="0"/>
<stop offset="0.01"/>
<stop offset="0.83" stop-opacity="0.07"/>
</linearGradient>
<linearGradient id="paint5_linear" x1="105.119" y1="114.96" x2="106.037" y2="167.432" gradientUnits="userSpaceOnUse">
<stop offset="0.01"/>
<stop offset="0.83" stop-opacity="0.07"/>
<stop offset="1" stop-opacity="0"/>
</linearGradient>
<linearGradient id="paint6_linear" x1="5428.22" y1="1112.07" x2="5433.35" y2="1598.6" gradientUnits="userSpaceOnUse">
<stop offset="0.01"/>
<stop offset="0.83" stop-opacity="0.07"/>
<stop offset="1" stop-opacity="0"/>
</linearGradient>
<linearGradient id="paint7_linear" x1="112.165" y1="81.667" x2="104.09" y2="136.473" gradientUnits="userSpaceOnUse">
<stop offset="0.01"/>
<stop offset="0.83" stop-opacity="0.07"/>
<stop offset="1" stop-opacity="0"/>
</linearGradient>
<linearGradient id="paint8_linear" x1="535.582" y1="340.244" x2="534.253" y2="364.905" gradientUnits="userSpaceOnUse">
<stop offset="0.01"/>
<stop offset="0.83" stop-opacity="0.07"/>
<stop offset="1" stop-opacity="0"/>
</linearGradient>
<linearGradient id="paint9_linear" x1="332.347" y1="365.11" x2="314.806" y2="366.382" gradientUnits="userSpaceOnUse">
<stop offset="0.01"/>
<stop offset="0.83" stop-opacity="0.07"/>
<stop offset="1" stop-opacity="0"/>
</linearGradient>
<linearGradient id="paint10_linear" x1="706.094" y1="274.228" x2="706.903" y2="256.064" gradientUnits="userSpaceOnUse">
<stop offset="0.01"/>
<stop offset="0.83" stop-opacity="0.07"/>
<stop offset="1" stop-opacity="0"/>
</linearGradient>
<linearGradient id="paint11_linear" x1="104.957" y1="92.8249" x2="99.843" y2="167.228" gradientUnits="userSpaceOnUse">
<stop offset="0.02" stop-color="white" stop-opacity="0"/>
<stop offset="0.39" stop-color="white" stop-opacity="0.39"/>
<stop offset="1" stop-color="white"/>
</linearGradient>
<linearGradient id="paint12_linear" x1="107.001" y1="84.2511" x2="107.001" y2="90.229" gradientUnits="userSpaceOnUse">
<stop offset="0.9999" stop-color="white"/>
<stop offset="1" stop-color="white" stop-opacity="0"/>
</linearGradient>
<linearGradient id="paint13_linear" x1="107" y1="72" x2="107" y2="81.5658" gradientUnits="userSpaceOnUse">
<stop offset="0.9999" stop-color="white"/>
<stop offset="1" stop-color="white" stop-opacity="0"/>
</linearGradient>
<linearGradient id="paint14_linear" x1="107" y1="78.2802" x2="107" y2="86.0071" gradientUnits="userSpaceOnUse">
<stop offset="0.9999" stop-color="white"/>
<stop offset="1" stop-color="white" stop-opacity="0"/>
</linearGradient>
</defs>
</svg>
