<svg width="208" height="208" viewBox="0 0 208 208" fill="none" xmlns="http://www.w3.org/2000/svg">
<g clip-path="url(#clip0)">
<path opacity="0.18" d="M207.357 160.781C206.803 166.99 205.818 173.396 202.832 178.334C200.16 182.798 196.164 185.576 192.194 187.999C166.198 203.741 136.796 207.75 108.07 207.987C85.9418 208.185 63.2592 206.157 42.9978 194.734C23.4288 183.706 6.32707 162.473 1.50536 135.888C1.33096 134.953 1.1822 134.011 1.03858 133.057C-0.213019 124.452 -0.166854 115.55 0.310188 106.781C1.22837 89.9129 3.98803 72.3933 12.385 59.3376C19.7971 47.7961 30.6614 41.1004 40.5407 33.1273C49.0711 26.2407 57.0423 18.182 65.9727 12.1973C77.7705 4.29673 90.9584 0.425436 104.213 0.0238222C127.152 -0.634561 146.408 12.5331 168.383 17.3327C191.399 22.343 191.979 43.9973 194.205 69.7861C195.313 82.5193 199.904 94.2517 203.027 106.425C207.51 123.931 208.987 142.474 207.357 160.781Z" fill="#6E71FF"/>
<mask id="mask0" mask-type="alpha" maskUnits="userSpaceOnUse" x="0" y="0" width="208" height="208">
<path d="M207.357 160.781C206.803 166.99 205.818 173.396 202.832 178.334C200.16 182.798 196.164 185.576 192.194 187.999C166.198 203.741 136.796 207.75 108.07 207.987C85.9418 208.185 63.2592 206.157 42.9978 194.734C23.4288 183.706 6.32707 162.473 1.50536 135.888C1.33096 134.953 1.1822 134.011 1.03857 133.057C-0.213019 124.452 -0.166854 115.55 0.310188 106.781C1.22837 89.9129 3.98803 72.3933 12.385 59.3376C19.7971 47.7961 30.6613 41.1003 40.5407 33.1273C49.0711 26.2406 57.0423 18.182 65.9727 12.1973C77.7705 4.2967 90.9584 0.425402 104.213 0.0237879C127.152 -0.634596 146.408 12.5331 168.383 17.3327C191.399 22.343 191.978 43.9972 194.205 69.7861C195.313 82.5193 199.904 94.2516 203.027 106.425C207.51 123.931 208.987 142.474 207.357 160.781Z" fill="#6E71FF"/>
</mask>
<g mask="url(#mask0)">
<path d="M207.35 158.64C206.787 165.124 205.8 171.821 202.793 176.99C200.101 181.65 196.076 184.562 192.077 187.088C165.891 203.546 136.299 207.738 107.339 207.986C85.0483 208.199 62.2051 206.073 41.7956 194.13C22.0888 182.6 4.85695 160.415 0 132.6H207.666C208.199 141.273 208.094 149.994 207.35 158.64Z" fill="#6E71FF"/>
<path opacity="0.74" d="M119.959 132.084C119.24 132.914 118.522 133.803 118.522 134.778C118.507 136.561 120.838 137.875 123.139 138.532C126.186 139.401 129.508 139.61 132.779 139.78C145.473 140.45 158.219 140.715 170.954 140.98C176.158 141.09 181.425 141.191 186.505 140.382C188.397 140.078 190.464 139.523 191.247 138.252C192.224 136.663 190.72 134.687 191.74 133.115C192.279 132.285 193.457 131.691 193.771 130.803C194.142 129.743 193.076 128.64 191.714 128.151C190.351 127.662 188.763 127.642 187.237 127.619C176.19 127.505 165.141 127.42 154.09 127.364L131.893 127.227C129.594 127.214 124.562 126.463 122.598 127.458C120.991 128.263 121.053 130.81 119.959 132.084Z" fill="#6E71FF"/>
<path d="M109.739 169.407H132.875V190.61C132.875 191.352 132.738 192.086 132.471 192.772C132.204 193.457 131.812 194.08 131.319 194.604C130.826 195.129 130.24 195.545 129.596 195.829C128.951 196.112 128.261 196.259 127.563 196.259H115.051C114.353 196.259 113.663 196.112 113.018 195.829C112.374 195.545 111.788 195.129 111.295 194.604C110.802 194.08 110.411 193.457 110.144 192.772C109.877 192.086 109.739 191.352 109.739 190.61V169.407Z" fill="#090909"/>
<path d="M112.952 120.9H123.93V111.076H112.952C111.727 111.076 110.552 111.594 109.686 112.515C108.82 113.436 108.333 114.686 108.333 115.988C108.333 117.291 108.82 118.54 109.686 119.461C110.552 120.383 111.727 120.9 112.952 120.9Z" fill="#6E71FF"/>
<path d="M112.952 120.9H123.93V111.076H112.952C111.727 111.076 110.552 111.594 109.686 112.515C108.82 113.436 108.333 114.686 108.333 115.988C108.333 117.291 108.82 118.54 109.686 119.461C110.552 120.383 111.727 120.9 112.952 120.9Z" fill="url(#paint0_linear)"/>
<path d="M113.352 130.855C110.974 137.427 109.756 144.41 109.76 151.452L139.885 167.481L212.839 167.633L246.08 151.452C246.081 144.41 244.863 137.428 242.487 130.855H113.352Z" fill="#6E71FF"/>
<path d="M113.352 130.855C110.974 137.427 109.756 144.41 109.76 151.452L139.885 167.481L212.839 167.633L246.08 151.452C246.081 144.41 244.863 137.428 242.487 130.855H113.352Z" fill="url(#paint1_linear)"/>
<path d="M205.864 84.0667H150.114C145.008 84.0663 140.03 85.756 135.868 88.9011C131.707 92.0463 128.569 96.4909 126.891 101.618L122.826 114.023H233.167L229.097 101.618C227.419 96.4887 224.28 92.0424 220.117 88.8969C215.953 85.7515 210.971 84.0633 205.864 84.0667Z" fill="#6E71FF"/>
<path d="M227.834 114.024H126.495L130.601 101.313C131.899 97.3173 134.337 93.8521 137.575 91.4004C140.814 88.9487 144.691 87.6328 148.666 87.6361H206.418C210.586 87.6359 214.64 89.0862 217.96 91.7656C221.28 94.4451 223.685 98.2064 224.806 102.475L227.834 114.024Z" fill="#3E3E54"/>
<path d="M227.834 114.024H126.495L130.601 101.313C131.899 97.3173 134.337 93.8521 137.575 91.4004C140.814 88.9487 144.691 87.6328 148.666 87.6361H206.418C210.586 87.6359 214.64 89.0862 217.96 91.7656C221.28 94.4451 223.685 98.2064 224.806 102.475L227.834 114.024Z" fill="url(#paint2_linear)"/>
<path d="M113.353 130.855C155.73 136.531 198.607 136.595 240.999 131.046L242.446 130.855C240.362 125.097 237.416 119.736 233.722 114.978L232.967 114.007H122.826L122.067 114.978C118.378 119.737 115.435 125.098 113.353 130.855Z" fill="#6E71FF"/>
<path d="M113.353 130.855C155.73 136.531 198.607 136.595 240.999 131.046L242.446 130.855C240.362 125.097 237.416 119.736 233.722 114.978L232.967 114.007H122.826L122.067 114.978C118.378 119.737 115.435 125.098 113.353 130.855Z" fill="url(#paint3_linear)"/>
<path d="M246.978 162.558L246.059 151.468H244.591L230.904 155.692C220.878 158.791 210.49 160.364 200.049 160.364H154.281C143.84 160.364 133.452 158.791 123.427 155.692L109.739 151.468L108.82 162.558C108.601 165.222 108.904 167.905 109.712 170.437C110.519 172.97 111.814 175.296 113.512 177.268C115.21 179.24 117.276 180.814 119.577 181.892C121.879 182.969 124.366 183.526 126.88 183.526H228.918C231.432 183.526 233.919 182.969 236.221 181.892C238.522 180.814 240.588 179.24 242.286 177.268C243.985 175.296 245.279 172.97 246.086 170.437C246.894 167.905 247.198 165.222 246.978 162.558Z" fill="#6E71FF"/>
<path d="M246.978 162.558L246.059 151.468H244.591L230.904 155.692C220.878 158.791 210.49 160.364 200.049 160.364H154.281C143.84 160.364 133.452 158.791 123.427 155.692L109.739 151.468L108.82 162.558C108.601 165.222 108.904 167.905 109.712 170.437C110.519 172.97 111.814 175.296 113.512 177.268C115.21 179.24 117.276 180.814 119.577 181.892C121.879 182.969 124.366 183.526 126.88 183.526H228.918C231.432 183.526 233.919 182.969 236.221 181.892C238.522 180.814 240.588 179.24 242.286 177.268C243.985 175.296 245.279 172.97 246.086 170.437C246.894 167.905 247.198 165.222 246.978 162.558Z" fill="url(#paint4_linear)"/>
<path d="M177.899 136.781H150.591L156.036 153.46H177.899H199.757L205.207 136.781H177.899Z" fill="#6E71FF"/>
<path d="M177.899 136.781H150.591L156.036 153.46H177.899H199.757L205.207 136.781H177.899Z" fill="url(#paint5_linear)"/>
<path d="M177.899 138.102H152.593L157.638 152.139H177.899H198.161L203.206 138.102H177.899Z" fill="#6E71FF"/>
<path d="M177.899 138.102H152.593L157.638 152.139H177.899H198.161L203.206 138.102H177.899Z" fill="url(#paint6_linear)"/>
<path d="M203.001 139.707H152.593V141.464H203.001V139.707Z" fill="#6E71FF"/>
<path d="M203.001 139.707H152.593V141.464H203.001V139.707Z" fill="url(#paint7_linear)"/>
<path d="M201.594 144.242H154.225V145.999H201.594V144.242Z" fill="#6E71FF"/>
<path d="M201.594 144.242H154.225V145.999H201.594V144.242Z" fill="url(#paint8_linear)"/>
<path d="M199.798 148.778H155.379V150.535H199.798V148.778Z" fill="#6E71FF"/>
<path d="M199.798 148.778H155.379V150.535H199.798V148.778Z" fill="url(#paint9_linear)"/>
<path d="M217.796 179.171H138.022C138.022 173.779 144.92 169.407 153.419 169.407H202.374C210.883 169.407 217.771 173.773 217.771 179.171H217.796Z" fill="#090909"/>
<path d="M207.722 134.249L227.835 114.023H126.49L147.891 134.216C167.817 135.458 187.794 135.469 207.722 134.249Z" fill="#6E71FF"/>
<path d="M207.722 134.249L227.835 114.023H126.49L147.891 134.216C167.817 135.458 187.794 135.469 207.722 134.249Z" fill="url(#paint10_linear)"/>
<path opacity="0.2" d="M120.922 114.995H111.874C111.57 114.995 111.279 114.867 111.065 114.639C110.85 114.41 110.729 114.101 110.729 113.778C110.729 113.455 110.85 113.146 111.065 112.917C111.279 112.689 111.57 112.561 111.874 112.561H120.922C121.225 112.561 121.517 112.689 121.731 112.917C121.946 113.146 122.066 113.455 122.066 113.778C122.066 114.101 121.946 114.41 121.731 114.639C121.517 114.867 121.225 114.995 120.922 114.995Z" fill="white"/>
<path d="M146.773 136.907C146.773 136.907 120.43 134.806 117.571 135.969C114.712 137.131 112.952 147.43 112.952 147.43L152.47 153.034L146.773 136.907Z" fill="#6E71FF"/>
<path d="M146.773 136.907C146.773 136.907 120.43 134.806 117.571 135.969C114.712 137.131 112.952 147.43 112.952 147.43L152.47 153.034L146.773 136.907Z" fill="url(#paint11_linear)"/>
<path d="M209.092 136.907C209.092 136.907 235.441 134.806 238.294 135.969C241.148 137.131 242.913 147.43 242.913 147.43L203.396 153.034L209.092 136.907Z" fill="white"/>
<path d="M167.065 114.024H139.254C139.32 113.912 139.393 113.806 139.475 113.707C140.243 112.786 141.056 111.91 141.912 111.082C142.665 110.263 143.508 109.542 144.422 108.937C146.377 107.725 148.584 107.589 150.842 107.3L151.171 107.262H151.402L151.961 107.18C153.386 106.969 154.827 106.916 156.262 107.021L156.775 107.06C157.978 107.171 159.171 107.384 160.342 107.698C161.874 108.038 163.317 108.735 164.566 109.739C165.792 110.831 166.429 112.315 167.029 113.745C167.054 113.786 167.07 113.832 167.076 113.88C167.083 113.928 167.079 113.977 167.065 114.024Z" fill="#6E71FF"/>
<path d="M167.065 114.024H139.254C139.32 113.912 139.393 113.806 139.475 113.707C140.243 112.786 141.056 111.91 141.912 111.082C142.665 110.263 143.508 109.542 144.422 108.937C146.377 107.725 148.584 107.589 150.842 107.3L151.171 107.262H151.402L151.961 107.18C153.386 106.969 154.827 106.916 156.262 107.021L156.775 107.06C157.978 107.171 159.171 107.384 160.342 107.698C161.874 108.038 163.317 108.735 164.566 109.739C165.792 110.831 166.429 112.315 167.029 113.745C167.054 113.786 167.07 113.832 167.076 113.88C167.083 113.928 167.079 113.977 167.065 114.024Z" fill="url(#paint12_linear)"/>
<path d="M150.951 109.477C151.205 109.897 151.587 110.211 152.033 110.367C153.087 110.723 154.198 110.845 155.297 110.727C155.668 110.745 156.036 110.658 156.365 110.476C156.531 110.327 156.663 110.14 156.751 109.929C156.84 109.719 156.884 109.49 156.878 109.259C156.97 108.075 156.794 106.885 156.365 105.788C156.309 105.606 156.206 105.445 156.067 105.324C155.923 105.233 155.762 105.175 155.595 105.155C154.569 104.953 152.285 104.609 151.448 105.482C150.843 106.132 150.566 108.719 150.951 109.477Z" fill="url(#paint13_linear)"/>
<path d="M152.377 109.373C152.875 109.679 153.44 109.84 154.014 109.84C154.589 109.84 155.154 109.679 155.652 109.373C155.876 109.243 156.067 109.056 156.206 108.827C156.363 108.47 156.415 108.071 156.355 107.681C156.37 107.282 156.241 106.892 155.995 106.59C155.766 106.398 155.494 106.272 155.205 106.224C154.321 106.004 153.408 105.947 152.506 106.055C152.1 106.07 151.709 106.215 151.382 106.47C151.279 106.609 151.207 106.771 151.172 106.944C151.138 107.118 151.141 107.297 151.181 107.469C151.234 107.861 151.368 108.236 151.575 108.566C151.782 108.896 152.056 109.172 152.377 109.373Z" fill="url(#paint14_linear)" fill-opacity="0.3"/>
<path d="M158.603 104.549C158.211 105.539 157.586 106.404 156.787 107.061C155.989 107.718 155.044 108.144 154.045 108.299C152.506 108.424 150.817 107.125 150.145 105.499C149.473 103.873 149.375 97.6237 149.375 97.6237C149.354 97.2034 149.445 96.7854 149.637 96.4175C149.847 95.9645 150.237 94.6001 150.771 94.2017C153.228 93.6111 155.784 93.6635 158.218 94.3546C158.731 94.7693 158.988 96.0846 159.1 96.3302C159.156 96.4772 159.192 96.6314 159.208 96.7886C159.414 98.2949 159.321 102.596 158.603 104.549Z" fill="url(#paint15_linear)"/>
<path d="M149.303 99.2933C149.14 99.1934 148.951 99.1541 148.765 99.1818C148.579 99.2095 148.407 99.3026 148.277 99.4462C148.179 99.6242 148.141 99.8318 148.169 100.036C148.168 100.239 148.185 100.442 148.22 100.641C148.359 101.191 148.65 101.684 149.057 102.055C149.158 102.16 149.274 102.249 149.4 102.317C149.535 102.386 149.688 102.4 149.832 102.355C149.933 102.306 150.021 102.23 150.086 102.134C150.152 102.039 150.193 101.927 150.206 101.809C150.294 101.309 150.246 100.792 150.068 100.319C149.927 99.8963 149.658 99.5352 149.303 99.2933Z" fill="url(#paint16_linear)"/>
<path d="M159.51 99.2007C159.673 99.101 159.862 99.0614 160.047 99.088C160.233 99.1147 160.405 99.2061 160.537 99.348C160.635 99.5257 160.675 99.7331 160.65 99.9375C160.649 100.141 160.63 100.344 160.593 100.543C160.455 101.093 160.163 101.586 159.757 101.957C159.658 102.066 159.542 102.154 159.413 102.219C159.279 102.29 159.126 102.305 158.982 102.262C158.877 102.21 158.786 102.129 158.72 102.027C158.655 101.926 158.615 101.807 158.607 101.684C158.519 101.183 158.568 100.665 158.751 100.194C158.894 99.7828 159.161 99.4336 159.51 99.2007Z" fill="url(#paint17_linear)"/>
<path d="M159.279 99.4514C159.264 99.3502 159.243 99.25 159.218 99.1512C159.075 98.6146 158.884 98.0937 158.648 97.5958C158.273 96.7389 157.904 95.893 157.534 95.0362C157.473 94.9052 157.416 94.7687 157.36 94.6378C157.36 94.6378 157.36 94.6378 157.36 94.676C157.299 94.7369 157.225 94.7801 157.144 94.8015C156.641 94.9784 156.127 95.117 155.605 95.2163C154.919 95.3048 154.223 95.2604 153.552 95.0853C152.982 94.9325 152.397 94.4795 151.792 94.5013H151.704C151.411 94.4987 151.126 94.6005 150.893 94.7904C150.661 94.9802 150.495 95.2473 150.421 95.5492C150.299 96.9411 149.977 98.3048 149.467 99.5933C148.815 99.1839 148.743 98.3708 148.738 97.6667C148.733 96.9627 148.738 96.2096 148.738 95.4837C148.714 95.1306 148.757 94.7759 148.866 94.4413C148.939 94.26 149.053 94.101 149.198 93.9789C149.343 93.8569 149.515 93.7756 149.698 93.7427C150.011 93.6881 150.375 93.7864 150.642 93.6281C150.741 93.5485 150.821 93.4464 150.878 93.3293C150.935 93.2122 150.967 93.0831 150.97 92.9514C151.028 92.4266 151.236 91.9333 151.566 91.5379C152.315 90.7247 153.737 90.6701 154.861 90.9921C155.985 91.3141 156.96 91.9799 158.068 92.3729C158.812 92.6403 159.675 92.8204 160.152 93.3934C160.377 93.6933 160.524 94.0509 160.578 94.4304C160.734 95.3172 160.698 96.2301 160.473 97.1C160.248 97.9699 159.84 98.7739 159.279 99.4514Z" fill="#3E3E54"/>
<path d="M159.521 98.7635C159.45 98.916 159.346 99.0487 159.218 99.151C159.075 98.6144 158.885 98.0935 158.649 97.5956L157.36 94.6376C157.614 94.496 157.888 94.4001 158.171 94.3538C158.552 94.2866 158.943 94.3806 159.259 94.6157C159.474 94.8129 159.627 95.076 159.696 95.3689C159.807 95.8324 159.86 96.3095 159.855 96.7879C159.928 97.467 159.812 98.1542 159.521 98.7635Z" fill="url(#paint18_linear)"/>
<path d="M158.895 94.2125C158.403 94.4069 157.943 94.6853 157.535 95.0366C157.474 94.9056 157.417 94.7692 157.361 94.6382C157.361 94.6382 157.361 94.6382 157.361 94.6764C157.3 94.7373 157.226 94.7806 157.145 94.8019C156.642 94.9789 156.127 95.1175 155.605 95.2167C154.919 95.3053 154.224 95.2609 153.553 95.0857C152.983 94.9329 152.398 94.4799 151.792 94.5018H151.705C151.705 94.4145 151.772 94.3217 151.803 94.2234C152.095 93.3448 152.29 92.5862 153.373 92.3133C154.011 92.1676 154.675 92.2245 155.282 92.477C155.837 92.77 156.42 92.9969 157.022 93.1537C157.396 93.1641 157.769 93.2079 158.136 93.2847C158.331 93.3495 158.505 93.4705 158.639 93.6343C158.773 93.7981 158.862 93.9983 158.895 94.2125Z" fill="#575776"/>
<path d="M153.209 108.058C149.2 108.058 145.829 110.607 144.936 114.023H146.819C147.666 111.529 150.211 109.717 153.209 109.717C156.206 109.717 158.756 111.529 159.608 114.023H161.497C160.594 110.607 157.217 108.058 153.209 108.058Z" fill="url(#paint19_linear)"/>
<path d="M148.302 110.192C148.702 110.515 149.057 110.896 149.359 111.322C149.407 111.367 149.445 111.424 149.469 111.488C149.493 111.551 149.503 111.62 149.498 111.688C149.467 111.835 149.303 111.906 149.164 111.939C148.852 112.01 148.527 111.999 148.22 111.906C148.329 112.004 148.404 112.138 148.433 112.286C148.461 112.435 148.443 112.589 148.379 112.725C148.307 112.857 148.196 112.959 148.062 113.014C147.929 113.07 147.782 113.075 147.645 113.03C147.7 113.101 147.74 113.184 147.763 113.273C147.785 113.362 147.789 113.455 147.774 113.545C147.76 113.636 147.727 113.722 147.678 113.798C147.629 113.874 147.565 113.938 147.491 113.985C147.175 114.157 146.817 114.224 146.465 114.176L144.787 114.133C144.542 114.152 144.298 114.089 144.089 113.953C143.953 113.83 143.862 113.66 143.832 113.472C143.767 112.903 143.883 112.327 144.16 111.835C144.358 111.28 144.664 110.776 145.059 110.356C145.508 109.957 146.069 109.724 146.654 109.695C147.24 109.665 147.818 109.84 148.302 110.192Z" fill="url(#paint20_linear)"/>
<path d="M159.485 112.048C159.087 112.203 158.734 112.464 158.459 112.806C158.365 112.931 158.311 113.084 158.305 113.243C158.3 113.322 158.315 113.401 158.35 113.471C158.384 113.542 158.436 113.6 158.5 113.641C158.751 113.794 159.069 113.565 159.352 113.641C159.323 113.72 159.324 113.807 159.354 113.885C159.383 113.963 159.439 114.026 159.511 114.062C159.656 114.129 159.815 114.154 159.973 114.133L161.795 114.073C161.893 114.083 161.993 114.058 162.077 114.002C162.125 113.948 162.157 113.881 162.168 113.807C162.18 113.734 162.169 113.659 162.138 113.592C162.015 113.232 161.625 113.047 161.512 112.659C161.399 112.272 161.512 111.535 160.896 111.442C160.47 111.382 159.855 111.862 159.485 112.048Z" fill="url(#paint21_linear)"/>
<path d="M148.667 87.6361L169.611 113.947L191.418 113.789L172.685 88.1055L148.667 87.6361Z" fill="url(#paint22_linear)"/>
<path opacity="0.74" d="M-9.03314 121.807C-9.58734 122.444 -10.1416 123.125 -10.1416 123.873C-10.1526 125.239 -8.35516 126.247 -6.57985 126.75C-4.23001 127.416 -1.66773 127.576 0.855755 127.707C10.6467 128.221 20.4784 128.424 30.3008 128.627C34.3151 128.711 38.3774 128.789 42.2956 128.168C43.755 127.935 45.3493 127.51 45.9534 126.536C46.7071 125.317 45.547 123.802 46.334 122.598C46.7496 121.961 47.6585 121.506 47.9005 120.825C48.1868 120.013 47.3648 119.168 46.3136 118.793C45.2625 118.418 44.0377 118.402 42.8609 118.385C34.3397 118.298 25.8172 118.232 17.2935 118.19L0.172233 118.084C-1.60123 118.074 -5.48252 117.498 -6.99735 118.262C-8.23693 118.879 -8.1889 120.831 -9.03314 121.807Z" fill="#6E71FF"/>
<path d="M-16.915 150.417H0.93017V166.67C0.93017 167.239 0.824194 167.802 0.618294 168.327C0.412395 168.852 0.110603 169.33 -0.269848 169.732C-0.650301 170.134 -1.10196 170.453 -1.59905 170.67C-2.09613 170.888 -2.6289 171 -3.16694 171H-12.8179C-13.356 171 -13.8887 170.888 -14.3858 170.67C-14.8829 170.453 -15.3346 170.134 -15.715 169.732C-16.0955 169.33 -16.3973 168.852 -16.6032 168.327C-16.8091 167.802 -16.915 167.239 -16.915 166.67V150.417Z" fill="#090909"/>
<path d="M70.3828 150.417H88.232V166.67C88.232 167.239 88.126 167.802 87.9201 168.327C87.7142 168.852 87.4124 169.33 87.032 169.732C86.6515 170.134 86.1999 170.453 85.7028 170.67C85.2057 170.888 84.6729 171 84.1349 171H74.4799C73.9419 171 73.4091 170.888 72.912 170.67C72.4149 170.453 71.9633 170.134 71.5828 169.732C71.2024 169.33 70.9006 168.852 70.6947 168.327C70.4888 167.802 70.3828 167.239 70.3828 166.67V150.417Z" fill="#090909"/>
<path d="M85.4371 113.234H76.9697V105.704H85.4371C86.382 105.704 87.2882 106.101 87.9563 106.807C88.6244 107.513 88.9998 108.471 88.9998 109.469C88.9998 110.468 88.6244 111.426 87.9563 112.132C87.2882 112.838 86.382 113.234 85.4371 113.234Z" fill="#6E71FF"/>
<path d="M85.4371 113.234H76.9697V105.704H85.4371C86.382 105.704 87.2882 106.101 87.9563 106.807C88.6244 107.513 88.9998 108.471 88.9998 109.469C88.9998 110.468 88.6244 111.426 87.9563 112.132C87.2882 112.838 86.382 113.234 85.4371 113.234Z" fill="url(#paint23_linear)"/>
<path d="M-14.1284 120.865C-15.9629 125.903 -16.9023 131.255 -16.8994 136.654L6.33735 148.94L62.6083 149.058L88.2479 136.654C88.2489 131.256 87.3096 125.904 85.4769 120.865H-14.1284Z" fill="#6E71FF"/>
<path d="M-14.1284 120.865C-15.9629 125.903 -16.9023 131.255 -16.8994 136.654L6.33735 148.94L62.6083 149.058L88.2479 136.654C88.2489 131.256 87.3096 125.904 85.4769 120.865H-14.1284Z" fill="url(#paint24_linear)"/>
<path d="M57.2283 85H14.2264C10.2885 84.9998 6.44816 86.2949 3.23836 88.7058C0.0285459 91.1167 -2.39156 94.5237 -3.68611 98.4541L-6.82129 107.963H78.2878L75.1487 98.4541C73.8542 94.522 71.433 91.1137 68.2215 88.7026C65.01 86.2915 61.1677 84.9974 57.2283 85Z" fill="#6E71FF"/>
<path d="M74.1756 107.963H-3.99023L-0.823383 98.22C0.177799 95.1572 2.05842 92.501 4.55625 90.6216C7.05408 88.7423 10.0446 87.7336 13.1108 87.7362H57.6565C60.8715 87.736 63.9982 88.8477 66.5592 90.9016C69.1202 92.9555 70.9749 95.8388 71.84 99.1111L74.1756 107.963Z" fill="#3E3E54"/>
<path d="M74.1756 107.963H-3.99023L-0.823383 98.22C0.177799 95.1572 2.05842 92.501 4.55625 90.6216C7.05408 88.7423 10.0446 87.7336 13.1108 87.7362H57.6565C60.8715 87.736 63.9982 88.8477 66.5592 90.9016C69.1202 92.9555 70.9749 95.8388 71.84 99.1111L74.1756 107.963Z" fill="url(#paint25_linear)"/>
<path d="M-14.1289 120.865C18.5582 125.216 51.6299 125.265 84.3285 121.011L85.4448 120.865C83.8373 116.451 81.5648 112.342 78.7153 108.695L78.1334 107.951H-6.8214L-7.40727 108.695C-10.2529 112.343 -12.5226 116.453 -14.1289 120.865Z" fill="#6E71FF"/>
<path d="M-14.1289 120.865C18.5582 125.216 51.6299 125.265 84.3285 121.011L85.4448 120.865C83.8373 116.451 81.5648 112.342 78.7153 108.695L78.1334 107.951H-6.8214L-7.40727 108.695C-10.2529 112.343 -12.5226 116.453 -14.1289 120.865Z" fill="url(#paint26_linear)"/>
<path d="M88.9394 145.167L88.2308 136.666H87.0987L76.5412 139.904C68.8081 142.28 60.7955 143.486 52.7423 143.485H17.4398C9.38665 143.486 1.37406 142.28 -6.35905 139.904L-16.9165 136.666L-17.6251 145.167C-17.7948 147.209 -17.5606 149.266 -16.9377 151.207C-16.3147 153.148 -15.3165 154.931 -14.0064 156.443C-12.6964 157.954 -11.1032 159.161 -9.32799 159.987C-7.55282 160.813 -5.6345 161.24 -3.69493 161.24H75.0092C76.9488 161.24 78.8671 160.813 80.6423 159.987C82.4175 159.161 84.0107 157.954 85.3207 156.443C86.6308 154.931 87.629 153.148 88.252 151.207C88.8749 149.266 89.109 147.209 88.9394 145.167Z" fill="#6E71FF"/>
<path d="M88.9394 145.167L88.2308 136.666H87.0987L76.5412 139.904C68.8081 142.28 60.7955 143.486 52.7423 143.485H17.4398C9.38665 143.486 1.37406 142.28 -6.35905 139.904L-16.9165 136.666L-17.6251 145.167C-17.7948 147.209 -17.5606 149.266 -16.9377 151.207C-16.3147 153.148 -15.3165 154.931 -14.0064 156.443C-12.6964 157.954 -11.1032 159.161 -9.32799 159.987C-7.55282 160.813 -5.6345 161.24 -3.69493 161.24H75.0092C76.9488 161.24 78.8671 160.813 80.6423 159.987C82.4175 159.161 84.0107 157.954 85.3207 156.443C86.6308 154.931 87.629 153.148 88.252 151.207C88.8749 149.266 89.109 147.209 88.9394 145.167Z" fill="url(#paint27_linear)"/>
<path d="M35.6582 125.408H14.5947L18.7948 138.193H35.6582H52.5178L56.7218 125.408H35.6582Z" fill="#6E71FF"/>
<path d="M35.6582 125.408H14.5947L18.7948 138.193H35.6582H52.5178L56.7218 125.408H35.6582Z" fill="url(#paint28_linear)"/>
<path d="M35.6583 126.421H16.1387L20.0299 137.181H35.6583H51.2867L55.178 126.421H35.6583Z" fill="#6E71FF"/>
<path d="M35.6583 126.421H16.1387L20.0299 137.181H35.6583H51.2867L55.178 126.421H35.6583Z" fill="url(#paint29_linear)"/>
<path d="M55.0197 127.651H16.1387V128.998H55.0197V127.651Z" fill="#6E71FF"/>
<path d="M55.0197 127.651H16.1387V128.998H55.0197V127.651Z" fill="url(#paint30_linear)"/>
<path d="M53.935 131.127H17.3975V132.474H53.935V131.127Z" fill="#6E71FF"/>
<path d="M53.935 131.127H17.3975V132.474H53.935V131.127Z" fill="url(#paint31_linear)"/>
<path d="M52.5494 134.604H18.2881V135.951H52.5494V134.604Z" fill="#6E71FF"/>
<path d="M52.5494 134.604H18.2881V135.951H52.5494V134.604Z" fill="url(#paint32_linear)"/>
<path d="M66.4323 157.902H4.90039C4.90039 153.768 10.2207 150.417 16.7761 150.417H54.5368C61.1001 150.417 66.4125 153.764 66.4125 157.902H66.4323Z" fill="#090909"/>
<path d="M58.661 123.467L74.1746 107.963H-3.99512L12.5121 123.442C27.8817 124.394 43.2905 124.402 58.661 123.467Z" fill="#6E71FF"/>
<path d="M58.661 123.467L74.1746 107.963H-3.99512L12.5121 123.442C27.8817 124.394 43.2905 124.402 58.661 123.467Z" fill="url(#paint33_linear)"/>
<path opacity="0.2" d="M86.4701 108.708H79.4912C79.257 108.708 79.0325 108.61 78.867 108.435C78.7014 108.26 78.6084 108.022 78.6084 107.775C78.6084 107.528 78.7014 107.29 78.867 107.115C79.0325 106.94 79.257 106.842 79.4912 106.842H86.4701C86.5861 106.842 86.7008 106.866 86.8079 106.913C86.915 106.96 87.0124 107.029 87.0943 107.115C87.1763 107.202 87.2413 107.305 87.2857 107.418C87.33 107.531 87.3529 107.652 87.3529 107.775C87.3529 107.898 87.33 108.019 87.2857 108.132C87.2413 108.245 87.1763 108.348 87.0943 108.435C87.0124 108.521 86.915 108.59 86.8079 108.637C86.7008 108.684 86.5861 108.708 86.4701 108.708Z" fill="white"/>
<path d="M11.6494 125.505C11.6494 125.505 -8.66988 123.894 -10.8748 124.785C-13.0797 125.676 -14.4375 133.57 -14.4375 133.57L16.0434 137.867L11.6494 125.505Z" fill="#6E71FF"/>
<path d="M11.6494 125.505C11.6494 125.505 -8.66988 123.894 -10.8748 124.785C-13.0797 125.676 -14.4375 133.57 -14.4375 133.57L16.0434 137.867L11.6494 125.505Z" fill="url(#paint34_linear)"/>
<path d="M59.7182 125.505C59.7182 125.505 80.0415 123.894 82.2425 124.785C84.4434 125.676 85.8052 133.57 85.8052 133.57L55.3242 137.867L59.7182 125.505Z" fill="white"/>
<path d="M27.302 107.963H5.85059C5.90118 107.878 5.9581 107.797 6.0208 107.721C6.61322 107.015 7.24088 106.343 7.90112 105.708C8.48165 105.08 9.13156 104.528 9.83685 104.064C11.3451 103.136 13.0472 103.031 14.789 102.809L15.0424 102.78H15.2205L15.652 102.717C16.7508 102.555 17.8625 102.515 18.9693 102.596L19.3651 102.625C20.2931 102.71 21.2131 102.874 22.1163 103.115C23.2984 103.375 24.411 103.91 25.3742 104.679C26.3203 105.516 26.8112 106.654 27.2743 107.75C27.2936 107.781 27.3061 107.816 27.3109 107.853C27.3157 107.89 27.3127 107.928 27.302 107.963Z" fill="#6E71FF"/>
<path d="M27.302 107.963H5.85059C5.90118 107.878 5.9581 107.797 6.0208 107.721C6.61322 107.015 7.24088 106.343 7.90112 105.708C8.48165 105.08 9.13156 104.528 9.83685 104.064C11.3451 103.136 13.0472 103.031 14.789 102.809L15.0424 102.78H15.2205L15.652 102.717C16.7508 102.555 17.8625 102.515 18.9693 102.596L19.3651 102.625C20.2931 102.71 21.2131 102.874 22.1163 103.115C23.2984 103.375 24.411 103.91 25.3742 104.679C26.3203 105.516 26.8112 106.654 27.2743 107.75C27.2936 107.781 27.3061 107.816 27.3109 107.853C27.3157 107.89 27.3127 107.928 27.302 107.963Z" fill="url(#paint35_linear)"/>
<path d="M14.8719 104.478C15.0684 104.8 15.3632 105.041 15.7072 105.16C16.5198 105.433 17.3766 105.527 18.2249 105.436C18.5105 105.45 18.7945 105.383 19.0482 105.244C19.176 105.13 19.2779 104.986 19.3464 104.825C19.4149 104.663 19.4483 104.488 19.4441 104.311C19.5146 103.403 19.3789 102.491 19.0482 101.65C19.0055 101.511 18.9258 101.388 18.8186 101.295C18.7072 101.225 18.5831 101.181 18.4544 101.165C17.6627 101.01 15.9012 100.747 15.2559 101.416C14.7888 101.914 14.5751 103.897 14.8719 104.478Z" fill="url(#paint36_linear)"/>
<path d="M15.9722 104.399C16.3562 104.633 16.7917 104.756 17.235 104.756C17.6783 104.756 18.1139 104.633 18.4978 104.399C18.671 104.299 18.8179 104.155 18.9253 103.98C19.0466 103.706 19.0867 103.4 19.0401 103.102C19.0517 102.796 18.9526 102.497 18.763 102.265C18.5859 102.118 18.376 102.021 18.1534 101.985C17.4714 101.816 16.7672 101.772 16.0712 101.855C15.7586 101.867 15.4564 101.977 15.2043 102.173C15.1248 102.28 15.0696 102.404 15.0428 102.537C15.0161 102.67 15.0185 102.807 15.0499 102.939C15.0901 103.24 15.1939 103.527 15.3536 103.78C15.5132 104.033 15.7247 104.244 15.9722 104.399Z" fill="url(#paint37_linear)" fill-opacity="0.3"/>
<path d="M20.7741 100.701C20.472 101.459 19.9896 102.122 19.3738 102.626C18.7579 103.129 18.0294 103.456 17.2589 103.575C16.0713 103.671 14.769 102.675 14.2504 101.429C13.7318 100.182 13.6566 95.392 13.6566 95.392C13.6403 95.0699 13.7103 94.7494 13.8585 94.4674C14.0208 94.1202 14.3217 93.0743 14.7333 92.7689C16.6287 92.3162 18.5998 92.3564 20.4772 92.8861C20.8731 93.204 21.071 94.2122 21.1581 94.4005C21.2006 94.5132 21.2286 94.6314 21.2412 94.7519C21.3995 95.9066 21.3283 99.2031 20.7741 100.701Z" fill="url(#paint38_linear)"/>
<path d="M13.6012 96.6719C13.4758 96.5953 13.3297 96.5652 13.1863 96.5864C13.0428 96.6076 12.9102 96.679 12.8095 96.7891C12.7346 96.9255 12.7053 97.0847 12.7264 97.2409C12.7259 97.3966 12.7392 97.5521 12.766 97.7052C12.8729 98.1268 13.0978 98.5045 13.4112 98.7888C13.4894 98.8696 13.5789 98.9373 13.6764 98.9896C13.78 99.0427 13.8985 99.0531 14.009 99.0189C14.0871 98.9813 14.1548 98.9231 14.2054 98.8498C14.256 98.7765 14.2879 98.6906 14.2979 98.6005C14.3657 98.2168 14.3286 97.8206 14.191 97.4584C14.0828 97.1341 13.8752 96.8573 13.6012 96.6719Z" fill="url(#paint39_linear)"/>
<path d="M21.4748 96.6009C21.5999 96.5245 21.7456 96.4941 21.8889 96.5145C22.0321 96.535 22.1649 96.6051 22.2665 96.7139C22.3422 96.8501 22.3728 97.009 22.3536 97.1657C22.3527 97.3216 22.3381 97.477 22.31 97.63C22.2031 98.0516 21.9782 98.4293 21.6648 98.7136C21.5886 98.797 21.4988 98.865 21.3995 98.9144C21.2965 98.9689 21.1779 98.9808 21.067 98.9478C20.9858 98.9078 20.9162 98.8456 20.8654 98.7677C20.8146 98.6897 20.7845 98.5988 20.778 98.5044C20.7097 98.1204 20.7482 97.7237 20.8889 97.3623C20.9993 97.0471 21.2053 96.7794 21.4748 96.6009Z" fill="url(#paint40_linear)"/>
<path d="M21.297 96.7931C21.285 96.7156 21.2691 96.6388 21.2495 96.563C21.1394 96.1517 20.9923 95.7524 20.8101 95.3707C20.5211 94.7139 20.2361 94.0655 19.9511 93.4087C19.9036 93.3083 19.8601 93.2037 19.8165 93.1033C19.8165 93.1033 19.8165 93.1033 19.8165 93.1326C19.7699 93.1793 19.7126 93.2124 19.6503 93.2288C19.262 93.3644 18.8652 93.4706 18.4627 93.5467C17.9335 93.6146 17.397 93.5806 16.8793 93.4463C16.4399 93.3292 15.9886 92.9819 15.5215 92.9987H15.4542C15.2281 92.9967 15.0078 93.0747 14.8285 93.2202C14.6492 93.3658 14.5211 93.5705 14.4645 93.8019C14.37 94.8688 14.1217 95.9142 13.7283 96.9019C13.2255 96.5881 13.1701 95.9648 13.1661 95.4251C13.1622 94.8854 13.1661 94.3081 13.1661 93.7517C13.1475 93.481 13.1811 93.2092 13.2651 92.9527C13.3209 92.8137 13.4089 92.6918 13.5209 92.5982C13.633 92.5047 13.7656 92.4424 13.9064 92.4172C14.1479 92.3753 14.4289 92.4506 14.6348 92.3293C14.7109 92.2683 14.7732 92.19 14.817 92.1003C14.8608 92.0105 14.8851 91.9115 14.8881 91.8106C14.9329 91.4083 15.0931 91.0302 15.3473 90.7271C15.9252 90.1037 17.0218 90.0619 17.8887 90.3087C18.7556 90.5555 19.5077 91.0659 20.3628 91.3671C20.9368 91.5721 21.6018 91.7102 21.97 92.1494C22.1437 92.3793 22.257 92.6534 22.2985 92.9443C22.4187 93.6241 22.3909 94.3239 22.2174 94.9907C22.0439 95.6575 21.7292 96.2738 21.297 96.7931Z" fill="#3E3E54"/>
<path d="M21.483 96.2657C21.4281 96.3826 21.3481 96.4843 21.2494 96.5627C21.1393 96.1514 20.9922 95.7521 20.81 95.3704L19.8164 93.103C20.0121 92.9945 20.2235 92.921 20.4419 92.8854C20.7357 92.8339 21.0369 92.906 21.2811 93.0862C21.4469 93.2373 21.5645 93.439 21.6176 93.6635C21.7034 94.0189 21.7447 94.3846 21.7403 94.7513C21.7973 95.2718 21.7078 95.7986 21.483 96.2657Z" fill="url(#paint41_linear)"/>
<path d="M21 92.7772C20.6202 92.9262 20.2659 93.1395 19.951 93.4089C19.9035 93.3085 19.86 93.2039 19.8164 93.1035C19.8164 93.1035 19.8164 93.1035 19.8164 93.1328C19.7698 93.1795 19.7125 93.2126 19.6502 93.229C19.262 93.3646 18.8651 93.4708 18.4626 93.5469C17.9334 93.6148 17.3969 93.5808 16.8792 93.4465C16.4398 93.3294 15.9885 92.9822 15.5214 92.9989H15.4541C15.4541 92.932 15.5056 92.8608 15.5293 92.7855C15.755 92.112 15.9054 91.5305 16.7406 91.3213C17.2325 91.2096 17.7446 91.2533 18.2132 91.4468C18.6411 91.6714 19.0911 91.8454 19.5552 91.9656C19.8437 91.9735 20.131 92.0071 20.4142 92.066C20.5645 92.1156 20.6989 92.2084 20.8024 92.3339C20.9058 92.4595 20.9742 92.6129 21 92.7772Z" fill="#575776"/>
<path d="M16.6136 103.39C13.522 103.39 10.9212 105.344 10.2324 107.963H11.6852C12.3384 106.051 14.3018 104.662 16.6136 104.662C18.9254 104.662 20.8928 106.051 21.55 107.963H23.0067C22.31 105.344 19.7053 103.39 16.6136 103.39Z" fill="url(#paint42_linear)"/>
<path d="M12.8296 105.026C13.1378 105.274 13.4122 105.566 13.645 105.892C13.6821 105.927 13.7111 105.971 13.7297 106.019C13.7482 106.068 13.7558 106.12 13.7519 106.173C13.7281 106.286 13.6015 106.34 13.4946 106.365C13.2535 106.42 13.0034 106.411 12.7662 106.34C12.8502 106.415 12.908 106.518 12.9302 106.631C12.9525 106.745 12.9379 106.864 12.8889 106.968C12.8337 107.069 12.7476 107.147 12.6447 107.19C12.5419 107.232 12.4284 107.237 12.3229 107.202C12.3654 107.256 12.3964 107.32 12.4136 107.388C12.4308 107.456 12.4339 107.527 12.4226 107.597C12.4114 107.666 12.386 107.732 12.3483 107.791C12.3105 107.849 12.2614 107.898 12.2041 107.934C11.9602 108.066 11.6842 108.117 11.4124 108.08L10.1179 108.047C9.92922 108.062 9.74089 108.013 9.57957 107.909C9.47471 107.815 9.40463 107.684 9.38164 107.541C9.33182 107.104 9.42096 106.663 9.63499 106.286C9.78725 105.86 10.0234 105.474 10.3277 105.152C10.6748 104.846 11.1071 104.668 11.5587 104.645C12.0103 104.622 12.4566 104.756 12.8296 105.026Z" fill="url(#paint43_linear)"/>
<path d="M21.4551 106.449C21.1484 106.568 20.8758 106.768 20.6634 107.03C20.5913 107.126 20.5498 107.243 20.5447 107.365C20.5408 107.426 20.5527 107.486 20.5793 107.54C20.6058 107.594 20.6459 107.639 20.6951 107.67C20.8891 107.787 21.1345 107.612 21.3522 107.67C21.3304 107.73 21.331 107.797 21.3537 107.857C21.3765 107.917 21.4198 107.965 21.4749 107.992C21.5869 108.044 21.71 108.063 21.8312 108.047L23.2365 108.001C23.3128 108.009 23.3894 107.99 23.4542 107.946C23.4918 107.906 23.5165 107.854 23.525 107.797C23.5335 107.741 23.5253 107.684 23.5017 107.633C23.4067 107.357 23.1059 107.214 23.0188 106.917C22.9317 106.62 23.0188 106.055 22.5437 105.984C22.2152 105.938 21.7402 106.306 21.4551 106.449Z" fill="url(#paint44_linear)"/>
<path d="M13.1104 87.7362L29.2652 107.905L46.0852 107.783L31.6364 88.096L13.1104 87.7362Z" fill="url(#paint45_linear)"/>
</g>
<path d="M97.3503 183.244H101.636L102.493 203H96.4932L97.3503 183.244Z" fill="#6E71FF"/>
<path d="M97.3503 183.244H101.636L102.493 203H96.4932L97.3503 183.244Z" fill="url(#paint46_linear)"/>
<path d="M97.9096 153.18H100.705L101.264 166.064H97.3506L97.9096 153.18Z" fill="#6E71FF"/>
<path d="M97.9096 153.18H100.705L101.264 166.064H97.3506L97.9096 153.18Z" fill="url(#paint47_linear)"/>
<path d="M98.5052 136H99.9959L100.294 142.872H98.207L98.5052 136Z" fill="#6E71FF"/>
<path d="M98.5052 136H99.9959L100.294 142.872H98.207L98.5052 136Z" fill="url(#paint48_linear)"/>
</g>
<defs>
<linearGradient id="paint0_linear" x1="115.523" y1="99.8939" x2="117.258" y2="134.206" gradientUnits="userSpaceOnUse">
<stop offset="0.01"/>
<stop offset="0.83" stop-opacity="0.07"/>
<stop offset="1" stop-opacity="0"/>
</linearGradient>
<linearGradient id="paint1_linear" x1="177.538" y1="86.8153" x2="174.214" y2="182.797" gradientUnits="userSpaceOnUse">
<stop offset="0.01"/>
<stop offset="0.83" stop-opacity="0.07"/>
<stop offset="1" stop-opacity="0"/>
</linearGradient>
<linearGradient id="paint2_linear" x1="242.896" y1="70.9736" x2="134.227" y2="18.3222" gradientUnits="userSpaceOnUse">
<stop offset="0.079127"/>
<stop offset="0.83" stop-opacity="0.07"/>
<stop offset="1" stop-opacity="0"/>
</linearGradient>
<linearGradient id="paint3_linear" x1="187.113" y1="22.9393" x2="169.452" y2="104.382" gradientUnits="userSpaceOnUse">
<stop stop-opacity="0"/>
<stop offset="0.01"/>
<stop offset="0.83" stop-opacity="0.07"/>
</linearGradient>
<linearGradient id="paint4_linear" x1="172.506" y1="114.976" x2="174.595" y2="227.197" gradientUnits="userSpaceOnUse">
<stop offset="0.01"/>
<stop offset="0.83" stop-opacity="0.07"/>
<stop offset="1" stop-opacity="0"/>
</linearGradient>
<linearGradient id="paint5_linear" x1="240.015" y1="161.792" x2="176.517" y2="127.763" gradientUnits="userSpaceOnUse">
<stop offset="0.02" stop-color="white" stop-opacity="0"/>
<stop offset="0.58" stop-color="white" stop-opacity="0.39"/>
<stop offset="1" stop-color="white"/>
</linearGradient>
<linearGradient id="paint6_linear" x1="10878.5" y1="2247.57" x2="10890.2" y2="3288.14" gradientUnits="userSpaceOnUse">
<stop offset="0.01"/>
<stop offset="0.83" stop-opacity="0.07"/>
<stop offset="1" stop-opacity="0"/>
</linearGradient>
<linearGradient id="paint7_linear" x1="235.127" y1="142.342" x2="231.852" y2="126.969" gradientUnits="userSpaceOnUse">
<stop offset="0.02" stop-color="white" stop-opacity="0"/>
<stop offset="0.58" stop-color="white" stop-opacity="0.39"/>
<stop offset="1" stop-color="white"/>
</linearGradient>
<linearGradient id="paint8_linear" x1="231.784" y1="146.877" x2="228.319" y2="131.593" gradientUnits="userSpaceOnUse">
<stop offset="0.02" stop-color="white" stop-opacity="0"/>
<stop offset="0.58" stop-color="white" stop-opacity="0.39"/>
<stop offset="1" stop-color="white"/>
</linearGradient>
<linearGradient id="paint9_linear" x1="228.107" y1="151.413" x2="224.436" y2="136.23" gradientUnits="userSpaceOnUse">
<stop offset="0.02" stop-color="white" stop-opacity="0"/>
<stop offset="0.58" stop-color="white" stop-opacity="0.39"/>
<stop offset="1" stop-color="white"/>
</linearGradient>
<linearGradient id="paint10_linear" x1="186.678" y1="43.7686" x2="168.364" y2="160.662" gradientUnits="userSpaceOnUse">
<stop offset="0.01"/>
<stop offset="0.83" stop-opacity="0.07"/>
<stop offset="1" stop-opacity="0"/>
</linearGradient>
<linearGradient id="paint11_linear" x1="177.655" y1="161.735" x2="125.683" y2="142.437" gradientUnits="userSpaceOnUse">
<stop offset="0.02" stop-color="white" stop-opacity="0"/>
<stop offset="0.58" stop-color="white" stop-opacity="0.39"/>
<stop offset="1" stop-color="white"/>
</linearGradient>
<linearGradient id="paint12_linear" x1="156.29" y1="114.792" x2="156.407" y2="100.874" gradientUnits="userSpaceOnUse">
<stop stop-opacity="0"/>
<stop offset="0.639117" stop-opacity="0.75"/>
<stop offset="1"/>
</linearGradient>
<linearGradient id="paint13_linear" x1="150.774" y1="107.843" x2="156.906" y2="107.843" gradientUnits="userSpaceOnUse">
<stop stop-color="#E5C5D5"/>
<stop offset="0.42" stop-color="#EAD4D1"/>
<stop offset="1" stop-color="#F0E9CB"/>
</linearGradient>
<linearGradient id="paint14_linear" x1="153.84" y1="102.76" x2="149.384" y2="112.824" gradientUnits="userSpaceOnUse">
<stop offset="0.01" stop-opacity="0.53"/>
<stop offset="0.83" stop-opacity="0.07"/>
<stop offset="1" stop-opacity="0"/>
</linearGradient>
<linearGradient id="paint15_linear" x1="149.372" y1="101.052" x2="159.311" y2="101.052" gradientUnits="userSpaceOnUse">
<stop stop-color="#E5C5D5"/>
<stop offset="0.42" stop-color="#EAD4D1"/>
<stop offset="1" stop-color="#F0E9CB"/>
</linearGradient>
<linearGradient id="paint16_linear" x1="148.16" y1="100.777" x2="150.25" y2="100.777" gradientUnits="userSpaceOnUse">
<stop stop-color="#E5C5D5"/>
<stop offset="0.42" stop-color="#EAD4D1"/>
<stop offset="1" stop-color="#F0E9CB"/>
</linearGradient>
<linearGradient id="paint17_linear" x1="158.565" y1="100.683" x2="160.658" y2="100.683" gradientUnits="userSpaceOnUse">
<stop stop-color="#E5C5D5"/>
<stop offset="0.42" stop-color="#EAD4D1"/>
<stop offset="1" stop-color="#F0E9CB"/>
</linearGradient>
<linearGradient id="paint18_linear" x1="629.522" y1="649.991" x2="594.221" y2="652.398" gradientUnits="userSpaceOnUse">
<stop offset="0.01"/>
<stop offset="0.83" stop-opacity="0.07"/>
<stop offset="1" stop-opacity="0"/>
</linearGradient>
<linearGradient id="paint19_linear" x1="2944.15" y1="834.138" x2="2937.35" y2="1262.38" gradientUnits="userSpaceOnUse">
<stop offset="0.01"/>
<stop offset="0.83" stop-opacity="0.07"/>
<stop offset="1" stop-opacity="0"/>
</linearGradient>
<linearGradient id="paint20_linear" x1="143.815" y1="111.942" x2="149.503" y2="111.942" gradientUnits="userSpaceOnUse">
<stop stop-color="#E5C5D5"/>
<stop offset="0.42" stop-color="#EAD4D1"/>
<stop offset="1" stop-color="#F0E9CB"/>
</linearGradient>
<linearGradient id="paint21_linear" x1="158.304" y1="112.789" x2="162.175" y2="112.789" gradientUnits="userSpaceOnUse">
<stop stop-color="#E5C5D5"/>
<stop offset="0.42" stop-color="#EAD4D1"/>
<stop offset="1" stop-color="#F0E9CB"/>
</linearGradient>
<linearGradient id="paint22_linear" x1="172.182" y1="67.6341" x2="160.559" y2="226.669" gradientUnits="userSpaceOnUse">
<stop offset="0.02" stop-color="white" stop-opacity="0"/>
<stop offset="0.39" stop-color="white" stop-opacity="0.39"/>
<stop offset="1" stop-color="white"/>
</linearGradient>
<linearGradient id="paint23_linear" x1="4087.19" y1="940.809" x2="4101.3" y2="1415.04" gradientUnits="userSpaceOnUse">
<stop offset="0.01"/>
<stop offset="0.83" stop-opacity="0.07"/>
<stop offset="1" stop-opacity="0"/>
</linearGradient>
<linearGradient id="paint24_linear" x1="35.3798" y1="87.107" x2="32.8479" y2="160.682" gradientUnits="userSpaceOnUse">
<stop offset="0.01"/>
<stop offset="0.83" stop-opacity="0.07"/>
<stop offset="1" stop-opacity="0"/>
</linearGradient>
<linearGradient id="paint25_linear" x1="85.7931" y1="74.9636" x2="2.17261" y2="34.1957" gradientUnits="userSpaceOnUse">
<stop offset="0.079127"/>
<stop offset="0.83" stop-opacity="0.07"/>
<stop offset="1" stop-opacity="0"/>
</linearGradient>
<linearGradient id="paint26_linear" x1="42.7647" y1="38.1431" x2="29.3033" y2="100.607" gradientUnits="userSpaceOnUse">
<stop stop-opacity="0"/>
<stop offset="0.01"/>
<stop offset="0.83" stop-opacity="0.07"/>
</linearGradient>
<linearGradient id="paint27_linear" x1="31.4977" y1="108.693" x2="33.0884" y2="194.716" gradientUnits="userSpaceOnUse">
<stop offset="0.01"/>
<stop offset="0.83" stop-opacity="0.07"/>
<stop offset="1" stop-opacity="0"/>
</linearGradient>
<linearGradient id="paint28_linear" x1="83.5705" y1="144.58" x2="34.729" y2="118.242" gradientUnits="userSpaceOnUse">
<stop offset="0.02" stop-color="white" stop-opacity="0"/>
<stop offset="0.58" stop-color="white" stop-opacity="0.39"/>
<stop offset="1" stop-color="white"/>
</linearGradient>
<linearGradient id="paint29_linear" x1="8289.35" y1="1743.42" x2="8298.23" y2="2541.07" gradientUnits="userSpaceOnUse">
<stop offset="0.01"/>
<stop offset="0.83" stop-opacity="0.07"/>
<stop offset="1" stop-opacity="0"/>
</linearGradient>
<linearGradient id="paint30_linear" x1="79.7996" y1="129.671" x2="77.3035" y2="117.88" gradientUnits="userSpaceOnUse">
<stop offset="0.02" stop-color="white" stop-opacity="0"/>
<stop offset="0.58" stop-color="white" stop-opacity="0.39"/>
<stop offset="1" stop-color="white"/>
</linearGradient>
<linearGradient id="paint31_linear" x1="77.2213" y1="133.147" x2="74.5802" y2="121.424" gradientUnits="userSpaceOnUse">
<stop offset="0.02" stop-color="white" stop-opacity="0"/>
<stop offset="0.58" stop-color="white" stop-opacity="0.39"/>
<stop offset="1" stop-color="white"/>
</linearGradient>
<linearGradient id="paint32_linear" x1="74.3851" y1="136.624" x2="71.5871" y2="124.978" gradientUnits="userSpaceOnUse">
<stop offset="0.02" stop-color="white" stop-opacity="0"/>
<stop offset="0.58" stop-color="white" stop-opacity="0.39"/>
<stop offset="1" stop-color="white"/>
</linearGradient>
<linearGradient id="paint33_linear" x1="42.429" y1="54.1098" x2="28.474" y2="143.74" gradientUnits="userSpaceOnUse">
<stop offset="0.01"/>
<stop offset="0.83" stop-opacity="0.07"/>
<stop offset="1" stop-opacity="0"/>
</linearGradient>
<linearGradient id="paint34_linear" x1="35.4697" y1="144.537" x2="16.9027" y2="138.288" gradientUnits="userSpaceOnUse">
<stop offset="0.02" stop-color="white" stop-opacity="0"/>
<stop offset="0.58" stop-color="white" stop-opacity="0.39"/>
<stop offset="1" stop-color="white"/>
</linearGradient>
<linearGradient id="paint35_linear" x1="18.9912" y1="108.552" x2="19.0801" y2="97.8835" gradientUnits="userSpaceOnUse">
<stop stop-opacity="0"/>
<stop offset="0.639117" stop-opacity="0.75"/>
<stop offset="1"/>
</linearGradient>
<linearGradient id="paint36_linear" x1="14.7355" y1="103.226" x2="19.4655" y2="103.226" gradientUnits="userSpaceOnUse">
<stop stop-color="#E5C5D5"/>
<stop offset="0.42" stop-color="#EAD4D1"/>
<stop offset="1" stop-color="#F0E9CB"/>
</linearGradient>
<linearGradient id="paint37_linear" x1="17.1003" y1="99.3289" x2="13.6989" y2="107.059" gradientUnits="userSpaceOnUse">
<stop offset="0.01" stop-opacity="0.53"/>
<stop offset="0.83" stop-opacity="0.07"/>
<stop offset="1" stop-opacity="0"/>
</linearGradient>
<linearGradient id="paint38_linear" x1="13.6545" y1="98.0198" x2="21.3202" y2="98.0198" gradientUnits="userSpaceOnUse">
<stop stop-color="#E5C5D5"/>
<stop offset="0.42" stop-color="#EAD4D1"/>
<stop offset="1" stop-color="#F0E9CB"/>
</linearGradient>
<linearGradient id="paint39_linear" x1="12.7198" y1="97.8094" x2="14.332" y2="97.8094" gradientUnits="userSpaceOnUse">
<stop stop-color="#E5C5D5"/>
<stop offset="0.42" stop-color="#EAD4D1"/>
<stop offset="1" stop-color="#F0E9CB"/>
</linearGradient>
<linearGradient id="paint40_linear" x1="20.7452" y1="97.7374" x2="22.3603" y2="97.7374" gradientUnits="userSpaceOnUse">
<stop stop-color="#E5C5D5"/>
<stop offset="0.42" stop-color="#EAD4D1"/>
<stop offset="1" stop-color="#F0E9CB"/>
</linearGradient>
<linearGradient id="paint41_linear" x1="384.008" y1="518.806" x2="356.781" y2="520.674" gradientUnits="userSpaceOnUse">
<stop offset="0.01"/>
<stop offset="0.83" stop-opacity="0.07"/>
<stop offset="1" stop-opacity="0"/>
</linearGradient>
<linearGradient id="paint42_linear" x1="2169.34" y1="659.962" x2="2164.16" y2="988.233" gradientUnits="userSpaceOnUse">
<stop offset="0.01"/>
<stop offset="0.83" stop-opacity="0.07"/>
<stop offset="1" stop-opacity="0"/>
</linearGradient>
<linearGradient id="paint43_linear" x1="9.36827" y1="106.368" x2="13.756" y2="106.368" gradientUnits="userSpaceOnUse">
<stop stop-color="#E5C5D5"/>
<stop offset="0.42" stop-color="#EAD4D1"/>
<stop offset="1" stop-color="#F0E9CB"/>
</linearGradient>
<linearGradient id="paint44_linear" x1="20.544" y1="107.017" x2="23.5303" y2="107.017" gradientUnits="userSpaceOnUse">
<stop stop-color="#E5C5D5"/>
<stop offset="0.42" stop-color="#EAD4D1"/>
<stop offset="1" stop-color="#F0E9CB"/>
</linearGradient>
<linearGradient id="paint45_linear" x1="31.2485" y1="72.4037" x2="22.3933" y2="194.319" gradientUnits="userSpaceOnUse">
<stop offset="0.02" stop-color="white" stop-opacity="0"/>
<stop offset="0.39" stop-color="white" stop-opacity="0.39"/>
<stop offset="1" stop-color="white"/>
</linearGradient>
<linearGradient id="paint46_linear" x1="99.0646" y1="202.141" x2="99.0646" y2="208.583" gradientUnits="userSpaceOnUse">
<stop stop-color="white"/>
<stop offset="1" stop-color="white" stop-opacity="0"/>
</linearGradient>
<linearGradient id="paint47_linear" x1="99.0276" y1="165.504" x2="99.0276" y2="169.705" gradientUnits="userSpaceOnUse">
<stop stop-color="white"/>
<stop offset="1" stop-color="white" stop-opacity="0"/>
</linearGradient>
<linearGradient id="paint48_linear" x1="99.1014" y1="142.573" x2="99.1014" y2="144.814" gradientUnits="userSpaceOnUse">
<stop stop-color="white"/>
<stop offset="1" stop-color="white" stop-opacity="0"/>
</linearGradient>
<clipPath id="clip0">
<rect width="208" height="208" fill="white"/>
</clipPath>
</defs>
</svg>
