<svg width="208" height="212" viewBox="0 0 208 212" fill="none" xmlns="http://www.w3.org/2000/svg">
<path opacity="0.18" d="M6.14958 97.1489C10.2149 87.3325 14.9825 81.4213 22.037 72.3961C60.5097 23.1759 123.364 -26.1754 169.134 15.8811C187.606 32.8537 196.101 48.7902 198.286 73.8851C199.803 91.1074 196.465 108.94 199.106 125.84C201.125 138.778 206.526 150.208 207.755 163.375C209.17 178.487 204.354 194.543 195.941 202.773C187.528 211.003 176.901 211.236 166.921 210.797C140.746 209.631 156.54 201.788 88.4536 210.408C20.3667 219.028 2.56506 157.069 2.56506 157.069C-1.45703 137.301 -1.09832 114.643 6.14958 97.1489Z" fill="#6E71FF"/>
<path opacity="0.35" d="M161.314 103.765C159.207 103.765 157.105 103.973 155.04 104.387C153.483 96.677 148.449 90.1001 141.382 86.5403C134.315 82.9804 125.993 82.8311 118.801 86.1342C112.291 68.3447 92.4795 59.1596 74.5496 65.6179C56.6198 72.0762 47.3623 91.7342 53.8715 109.522C38.1652 110.015 25.7586 122.913 25.9935 138.502C26.2298 154.093 39.0218 166.614 54.7365 166.639H161.314C178.812 166.639 193 152.564 193 135.202C193 117.839 178.812 103.765 161.314 103.765Z" fill="#6E71FF"/>
<path d="M151.324 93.8523C149.217 93.8523 147.115 94.0602 145.05 94.4747C143.493 86.7647 138.459 80.1878 131.391 76.6279C124.325 73.0681 116.003 72.9187 108.81 76.2218C102.301 58.4323 82.4893 49.2473 64.5594 55.7055C46.6295 62.1638 37.372 81.8219 43.8813 99.61C28.175 100.103 15.7684 113.001 16.0033 128.59C16.2396 144.18 29.0316 156.702 44.7462 156.727H151.324C168.822 156.727 183.01 142.652 183.01 125.29C183.01 107.927 168.822 93.8523 151.324 93.8523Z" fill="#6E71FF"/>
<path d="M121.432 113.36L100.652 86.6782C100.42 86.3812 100.053 86.2071 99.6857 86.2068C99.3178 86.2064 98.9495 86.3806 98.7177 86.6782L77.9369 113.36C77.6515 113.726 77.6014 114.222 77.8068 114.636C78.0122 115.052 78.4371 115.315 78.9039 115.315H89.9054V143.21C89.9054 143.88 90.4522 144.423 91.1279 144.423H108.241C108.917 144.423 109.464 143.88 109.464 143.21V115.315H120.465C120.932 115.315 121.357 115.052 121.562 114.636C121.768 114.221 121.718 113.726 121.432 113.36Z" fill="url(#paint0_linear)"/>
<defs>
<linearGradient id="paint0_linear" x1="99.6846" y1="140.443" x2="99.6846" y2="175.918" gradientUnits="userSpaceOnUse">
<stop offset="0.331079" stop-color="white"/>
<stop offset="1" stop-color="white" stop-opacity="0"/>
</linearGradient>
</defs>
</svg>
