<svg width="208" height="208" viewBox="0 0 208 208" fill="none" xmlns="http://www.w3.org/2000/svg">
<path opacity="0.24" d="M207.995 150.775C208.327 175.661 191.696 199.325 170.959 203.498C161.254 205.46 151.353 203.57 141.497 203.053C120.059 201.947 98.6698 207.386 77.2693 207.957C72.9371 208.073 68.5975 207.957 64.254 207.596C49.9732 206.317 36.0274 201.845 23.1571 194.417C17.6675 191.251 12.3098 187.471 8.3132 182.032C-0.260592 170.378 -1.0863 153.32 0.896908 138.073C2.88012 122.826 7.24242 107.921 7.46487 92.4868C7.62323 81.7111 5.75313 71.0513 5.27429 60.289C4.79546 49.5266 5.90017 38.1134 11.2579 29.4019C16.6155 20.6904 25.5324 15.9155 34.4644 13.838C43.3964 11.7604 52.5621 12.0324 61.66 11.3636C80.4779 9.99937 98.9036 4.57362 117.612 1.86744C145.513 -2.17624 190.38 -3.48252 193.468 39.6961C193.705 43.2674 193.77 46.8517 193.664 50.4317C193.393 62.3576 191.843 74.3282 193.125 86.1649C195.523 108.407 207.693 128.363 207.995 150.775Z" fill="#6E71FF"/>
<path d="M113.774 42.0135L109.069 40.5355L110.355 29.4619H110.732C111.199 29.0849 112.564 27.4523 112.198 26.242C111.87 25.1336 110.106 24.6887 108.677 24.5039C106.648 24.2475 105.321 24.4775 104.835 25.1637C104.183 26.0912 105.042 27.8331 105.431 28.4251L105.532 28.5797L104.824 39.2838L99.6016 37.8435L99.8957 36.784L103.677 37.8435L104.273 28.7946C103.896 28.18 102.765 25.997 103.779 24.5378C104.533 23.4671 106.207 23.0862 108.764 23.4067C112.756 23.9157 113.522 25.5672 113.465 26.8642C113.409 28.1612 112.311 29.7523 111.486 30.3442L110.389 39.7701L114.114 40.939L113.774 42.0135Z" fill="#6E71FF"/>
<path d="M113.774 42.0135L109.069 40.5355L110.355 29.4619H110.732C111.199 29.0849 112.564 27.4523 112.198 26.242C111.87 25.1336 110.106 24.6887 108.677 24.5039C106.648 24.2475 105.321 24.4775 104.835 25.1637C104.183 26.0912 105.042 27.8331 105.431 28.4251L105.532 28.5797L104.824 39.2838L99.6016 37.8435L99.8957 36.784L103.677 37.8435L104.273 28.7946C103.896 28.18 102.765 25.997 103.779 24.5378C104.533 23.4671 106.207 23.0862 108.764 23.4067C112.756 23.9157 113.522 25.5672 113.465 26.8642C113.409 28.1612 112.311 29.7523 111.486 30.3442L110.389 39.7701L114.114 40.939L113.774 42.0135Z" fill="url(#paint0_linear)"/>
<path d="M152.244 173.622H57.5817L51.6924 168.773L57.5817 41.0934L146.355 36.2447L152.244 41.0934V173.622Z" fill="#6E71FF"/>
<path d="M152.244 173.622H57.5817L51.6924 168.773L57.5817 41.0934L146.355 36.2447L152.244 41.0934V173.622Z" fill="url(#paint1_linear)"/>
<path d="M148.656 171.768L56.3537 172L52 169.244L55.0932 41.8216L143.158 37L149 41.8216L148.656 171.768Z" fill="url(#paint2_linear)"/>
<path d="M146 36H52V169H146V36Z" fill="white"/>
<path d="M81.5235 45.467C81.4745 45.8025 81.4518 46.2211 81.7233 46.4096C81.8713 46.4987 82.0408 46.5456 82.2135 46.5453C90.9339 47.2999 99.7173 46.8124 108.301 45.0975C109.715 44.8147 111.426 44.1662 111.528 42.7297C111.622 41.4553 110.397 39.8981 111.385 39.0988C111.755 38.8769 112.178 38.7584 112.61 38.7557C113.393 38.6414 114.141 38.3549 114.801 37.9168C115.46 37.4786 116.013 36.8999 116.422 36.222L91.6695 36.0222C89.2641 36.0034 84.8829 34.9929 83.1636 37.1533C81.8327 38.8085 81.5235 43.4989 81.5235 45.467Z" fill="url(#paint3_linear)"/>
<path d="M108.951 42.0736H83.3242L81.5898 26.1438L107.39 25.9704L108.951 42.0736Z" fill="#6E71FF"/>
<path d="M107.392 25.9704L116.919 30.706L115.532 36.2446H108.489L107.392 25.9704Z" fill="#6E71FF"/>
<path d="M107.392 25.9704L116.919 30.706L115.532 36.2446H108.489L107.392 25.9704Z" fill="url(#paint4_linear)"/>
<path d="M101.657 41.8248L96.725 41.6325L95.0208 29.3185L95.3752 29.228C95.7259 28.6775 96.6081 26.5209 95.9332 25.3219C95.3224 24.2285 93.5013 24.2699 92.0799 24.4999C90.0552 24.8242 88.8336 25.4652 88.5509 26.3512C88.1738 27.5426 89.4595 29.1639 89.9874 29.688L90.1269 29.8237L92.2873 41.5646H86.873V40.3355H90.8131L88.9882 30.4194C88.4755 29.8652 86.7826 27.8593 87.382 25.9779C87.8194 24.6017 89.3351 23.6969 91.9065 23.2859C95.888 22.6487 97.0643 24.1983 97.3584 25.616C97.6525 27.0336 97.0116 29.0696 96.3744 29.9519L97.8222 40.4411L101.725 40.5957L101.657 41.8248Z" fill="#6E71FF"/>
<path d="M101.657 41.8247L96.725 41.6325L95.0208 29.3184L95.3752 29.2279C95.7259 28.6775 96.6081 26.5208 95.9332 25.3218C95.3224 24.2284 93.5013 24.2699 92.0799 24.4999C90.0552 24.8241 88.8336 25.4651 88.5509 26.3511C88.1738 27.5426 89.4595 29.1638 89.9874 29.6879L90.1269 29.8237L92.2873 41.5646H86.873V40.3355H90.8131L88.9882 30.4194C88.4755 29.8651 86.7826 27.8593 87.382 25.9779C87.8194 24.6017 89.3351 23.6968 91.9065 23.2858C95.888 22.6486 97.0643 24.1983 97.3584 25.6159C97.6525 27.0336 97.0116 29.0696 96.3744 29.9519L97.8222 40.441L101.725 40.5956L101.657 41.8247Z" fill="url(#paint5_linear)"/>
<path d="M104.139 125H65.8609C65.3854 125 65 125.672 65 126.5C65 127.328 65.3854 128 65.8609 128H104.139C104.615 128 105 127.328 105 126.5C105 125.672 104.615 125 104.139 125Z" fill="#6E71FF"/>
<path d="M104.139 125H65.8609C65.3854 125 65 125.672 65 126.5C65 127.328 65.3854 128 65.8609 128H104.139C104.615 128 105 127.328 105 126.5C105 125.672 104.615 125 104.139 125Z" fill="url(#paint6_linear)"/>
<path d="M133.539 142.124H66.8151C65.9863 142.124 65.3145 142.796 65.3145 143.625C65.3145 144.454 65.9863 145.125 66.8151 145.125H133.539C134.368 145.125 135.04 144.454 135.04 143.625C135.04 142.796 134.368 142.124 133.539 142.124Z" fill="#6E71FF"/>
<path d="M133.539 142.124H66.8151C65.9863 142.124 65.3145 142.796 65.3145 143.625C65.3145 144.454 65.9863 145.125 66.8151 145.125H133.539C134.368 145.125 135.04 144.454 135.04 143.625C135.04 142.796 134.368 142.124 133.539 142.124Z" fill="url(#paint7_linear)"/>
<path d="M133.539 142.124H66.8151C65.9863 142.124 65.3145 142.796 65.3145 143.625C65.3145 144.454 65.9863 145.125 66.8151 145.125H133.539C134.368 145.125 135.04 144.454 135.04 143.625C135.04 142.796 134.368 142.124 133.539 142.124Z" fill="url(#paint8_linear)"/>
<path d="M133.539 131.703H66.8151C65.9863 131.703 65.3145 132.375 65.3145 133.204C65.3145 134.033 65.9863 134.705 66.8151 134.705H133.539C134.368 134.705 135.04 134.033 135.04 133.204C135.04 132.375 134.368 131.703 133.539 131.703Z" fill="#6E71FF"/>
<path d="M133.539 131.703H66.8151C65.9863 131.703 65.3145 132.375 65.3145 133.204C65.3145 134.033 65.9863 134.705 66.8151 134.705H133.539C134.368 134.705 135.04 134.033 135.04 133.204C135.04 132.375 134.368 131.703 133.539 131.703Z" fill="url(#paint9_linear)"/>
<path d="M133.539 148.703H66.8151C65.9863 148.703 65.3145 149.375 65.3145 150.204C65.3145 151.033 65.9863 151.705 66.8151 151.705H133.539C134.368 151.705 135.04 151.033 135.04 150.204C135.04 149.375 134.368 148.703 133.539 148.703Z" fill="#6E71FF"/>
<path d="M133.539 148.703H66.8151C65.9863 148.703 65.3145 149.375 65.3145 150.204C65.3145 151.033 65.9863 151.705 66.8151 151.705H133.539C134.368 151.705 135.04 151.033 135.04 150.204C135.04 149.375 134.368 148.703 133.539 148.703Z" fill="url(#paint10_linear)"/>
<path d="M98.6316 56L128.64 75.3124V110.966H71V75.3124L98.6316 56Z" fill="#6E71FF" stroke="#6E71FF" stroke-linecap="round" stroke-linejoin="round" stroke-dasharray="2.23 2.23"/>
<rect x="83.3848" y="80.2691" width="12.6673" height="16.8269" fill="#6E71FF" stroke="#6E71FF" stroke-linejoin="round" stroke-dasharray="2.23 2.23"/>
<rect x="104.118" y="80.1816" width="13.2983" height="16.8729" fill="#6E71FF" stroke="#6E71FF" stroke-linejoin="round" stroke-dasharray="2.23 2.23"/>
<path d="M98.6316 56L128.64 75.3124V110.966H71V75.3124L98.6316 56Z" fill="url(#paint11_linear)" stroke="#6E71FF" stroke-linecap="round" stroke-linejoin="round" stroke-dasharray="2.23 2.23"/>
<rect x="83.3848" y="80.2691" width="12.6673" height="16.8269" stroke="#6E71FF" stroke-linejoin="round" stroke-dasharray="2.23 2.23"/>
<rect x="104.118" y="80.1816" width="13.2983" height="16.8729" stroke="#6E71FF" stroke-linejoin="round" stroke-dasharray="2.23 2.23"/>
<path d="M119.908 165.072L114.112 159.276L112.169 161.218C111.582 161.806 111.14 162.524 110.879 163.314L106.039 177.997C105.847 178.58 106.4 179.134 106.983 178.942L121.667 174.101C122.456 173.841 123.174 173.399 123.762 172.811L125.705 170.868L119.908 165.072Z" fill="#E7CBD8"/>
<path d="M119.908 165.072L114.112 159.276L112.169 161.218C111.582 161.806 111.14 162.524 110.879 163.314L106.039 177.997C105.847 178.58 106.4 179.134 106.983 178.942L121.667 174.101C122.456 173.841 123.174 173.399 123.762 172.811L125.705 170.868L119.908 165.072Z" fill="url(#paint12_linear)"/>
<path d="M123.391 173.183C123.916 172.657 124.179 171.967 124.179 171.277C124.179 170.591 123.916 169.901 123.391 169.375L123.334 169.318C122.701 168.685 121.832 168.434 121.011 168.563C120.797 168.597 120.599 168.521 120.461 168.384C120.324 168.246 120.249 168.049 120.282 167.837C120.281 167.836 120.282 167.834 120.282 167.834C120.291 167.781 120.297 167.727 120.303 167.673C120.304 167.645 120.307 167.618 120.309 167.59C120.313 167.531 120.315 167.473 120.315 167.413C120.315 166.726 120.052 166.037 119.526 165.511L119.47 165.454C119.437 165.421 119.403 165.39 119.368 165.359C119.34 165.333 119.31 165.307 119.28 165.283C119.234 165.242 119.186 165.206 119.137 165.172C119.111 165.153 119.083 165.133 119.056 165.115C119.017 165.088 118.975 165.062 118.934 165.038C118.893 165.015 118.855 164.994 118.816 164.973C118.764 164.945 118.711 164.92 118.659 164.897C118.616 164.878 118.571 164.86 118.528 164.844C118.487 164.827 118.445 164.812 118.402 164.799C118.296 164.764 118.187 164.736 118.077 164.715C118.024 164.705 117.974 164.696 117.923 164.69C117.871 164.682 117.818 164.678 117.768 164.675C117.715 164.671 117.665 164.668 117.611 164.668C117.559 164.666 117.508 164.666 117.457 164.669C117.351 164.673 117.249 164.682 117.146 164.699C116.933 164.733 116.734 164.657 116.597 164.52C116.459 164.382 116.383 164.184 116.418 163.97C116.44 163.831 116.451 163.69 116.451 163.549C116.451 162.862 116.188 162.172 115.662 161.647L115.605 161.59C114.554 160.539 112.849 160.539 111.798 161.59L144.548 128.84L156.141 140.433L123.391 173.183Z" fill="#6E71FF"/>
<path d="M123.391 173.183C123.916 172.657 124.179 171.967 124.179 171.277C124.179 170.591 123.916 169.901 123.391 169.375L123.334 169.318C122.701 168.685 121.832 168.434 121.011 168.563C120.797 168.597 120.599 168.521 120.461 168.384C120.324 168.246 120.249 168.049 120.282 167.837C120.281 167.836 120.282 167.834 120.282 167.834C120.291 167.781 120.297 167.727 120.303 167.673C120.304 167.645 120.307 167.618 120.309 167.59C120.313 167.531 120.315 167.473 120.315 167.413C120.315 166.726 120.052 166.037 119.526 165.511L119.47 165.454C119.437 165.421 119.403 165.39 119.368 165.359C119.34 165.333 119.31 165.307 119.28 165.283C119.234 165.242 119.186 165.206 119.137 165.172C119.111 165.153 119.083 165.133 119.056 165.115C119.017 165.088 118.975 165.062 118.934 165.038C118.893 165.015 118.855 164.994 118.816 164.973C118.764 164.945 118.711 164.92 118.659 164.897C118.616 164.878 118.571 164.86 118.528 164.844C118.487 164.827 118.445 164.812 118.402 164.799C118.296 164.764 118.187 164.736 118.077 164.715C118.024 164.705 117.974 164.696 117.923 164.69C117.871 164.682 117.818 164.678 117.768 164.675C117.715 164.671 117.665 164.668 117.611 164.668C117.559 164.666 117.508 164.666 117.457 164.669C117.351 164.673 117.249 164.682 117.146 164.699C116.933 164.733 116.734 164.657 116.597 164.52C116.459 164.382 116.383 164.184 116.418 163.97C116.44 163.831 116.451 163.69 116.451 163.549C116.451 162.862 116.188 162.172 115.662 161.647L115.605 161.59C114.554 160.539 112.849 160.539 111.798 161.59L144.548 128.84L156.141 140.433L123.391 173.183Z" fill="url(#paint13_linear)"/>
<path d="M152.277 136.568L120.461 168.384C120.324 168.246 120.249 168.049 120.282 167.838C120.28 167.836 120.282 167.835 120.282 167.835C120.291 167.781 120.297 167.727 120.303 167.673C120.304 167.645 120.307 167.618 120.309 167.59C120.313 167.532 120.315 167.473 120.315 167.414C120.315 166.727 120.052 166.037 119.526 165.511L119.47 165.455C119.437 165.422 119.402 165.39 119.368 165.359C119.34 165.334 119.31 165.307 119.28 165.283C119.234 165.243 119.186 165.207 119.137 165.172C119.11 165.152 119.083 165.134 119.056 165.116C119.017 165.089 118.975 165.062 118.934 165.038C118.895 165.017 118.856 164.993 118.816 164.974C118.763 164.945 118.711 164.92 118.659 164.898C118.616 164.878 118.571 164.86 118.527 164.844C118.487 164.827 118.445 164.812 118.402 164.799C118.296 164.765 118.187 164.736 118.076 164.716C118.027 164.705 117.975 164.698 117.923 164.69C117.872 164.684 117.821 164.678 117.767 164.675C117.717 164.669 117.664 164.668 117.611 164.668C117.558 164.666 117.506 164.668 117.457 164.669C117.351 164.674 117.249 164.683 117.146 164.699C116.933 164.734 116.734 164.657 116.597 164.52L148.412 132.704L152.277 136.568Z" fill="#6E71FF"/>
<path d="M152.277 136.568L120.461 168.384C120.324 168.246 120.249 168.049 120.282 167.838C120.28 167.836 120.282 167.835 120.282 167.835C120.291 167.781 120.297 167.727 120.303 167.673C120.304 167.645 120.307 167.618 120.309 167.59C120.313 167.532 120.315 167.473 120.315 167.414C120.315 166.727 120.052 166.037 119.526 165.511L119.47 165.455C119.437 165.422 119.402 165.39 119.368 165.359C119.34 165.333 119.31 165.307 119.28 165.283C119.234 165.242 119.186 165.207 119.137 165.172C119.11 165.151 119.083 165.133 119.056 165.116C119.017 165.089 118.975 165.062 118.934 165.038C118.895 165.017 118.856 164.993 118.816 164.974C118.763 164.945 118.711 164.92 118.659 164.898C118.616 164.878 118.571 164.86 118.527 164.844C118.487 164.827 118.445 164.812 118.402 164.799C118.296 164.765 118.187 164.736 118.076 164.716C118.027 164.705 117.975 164.698 117.923 164.69C117.872 164.684 117.821 164.678 117.767 164.675C117.717 164.669 117.664 164.668 117.611 164.668C117.558 164.666 117.506 164.668 117.457 164.669C117.351 164.674 117.249 164.683 117.146 164.699C116.933 164.734 116.734 164.657 116.597 164.52L148.412 132.704L152.277 136.568Z" fill="url(#paint14_linear)"/>
<path d="M144.548 128.84L111.798 161.59C112.849 160.539 114.554 160.539 115.605 161.59L115.662 161.647C116.188 162.173 116.451 162.862 116.451 163.549C116.451 163.69 116.44 163.832 116.418 163.97C116.383 164.184 116.46 164.382 116.597 164.52L148.412 132.704L144.548 128.84Z" fill="#6E71FF"/>
<path d="M144.548 128.84L111.798 161.59C112.849 160.539 114.554 160.539 115.605 161.59L115.662 161.647C116.188 162.173 116.451 162.862 116.451 163.549C116.451 163.69 116.44 163.831 116.418 163.97C116.383 164.184 116.46 164.382 116.597 164.52L148.412 132.704L144.548 128.84Z" fill="url(#paint15_linear)"/>
<path d="M160.105 136.469L148.512 124.876L152.143 121.245C153.803 119.585 156.494 119.585 158.154 121.245L163.736 126.827C165.396 128.487 165.396 131.178 163.736 132.838L160.105 136.469Z" fill="#6E71FF"/>
<path d="M160.105 136.469L148.512 124.876L152.143 121.245C153.803 119.585 156.494 119.585 158.154 121.245L163.736 126.827C165.396 128.487 165.396 131.178 163.736 132.838L160.105 136.469Z" fill="url(#paint16_linear)"/>
<path d="M160.622 135.951L149.03 124.358L144.547 128.841L156.14 140.433L160.622 135.951Z" fill="#6E71FF"/>
<path d="M160.622 135.951L149.03 124.358L144.547 128.841L156.14 140.433L160.622 135.951Z" fill="url(#paint17_linear)"/>
<path d="M154.225 142.348L142.632 130.756L144.547 128.841L156.14 140.433L154.225 142.348Z" fill="#6E71FF"/>
<path d="M154.225 142.348L142.632 130.756L144.547 128.841L156.14 140.433L154.225 142.348Z" fill="url(#paint18_linear)" fill-opacity="0.5"/>
<path d="M107.265 174.278L106.039 177.997C105.847 178.58 106.4 179.134 106.983 178.942L110.702 177.716L107.265 174.278Z" fill="#6E71FF"/>
<path d="M107.265 174.278L106.039 177.997C105.847 178.58 106.4 179.134 106.983 178.942L110.702 177.716L107.265 174.278Z" fill="url(#paint19_linear)"/>
<defs>
<linearGradient id="paint0_linear" x1="106.598" y1="-1.61557" x2="102.115" y2="53.5427" gradientUnits="userSpaceOnUse">
<stop offset="0.38383" stop-opacity="0.75"/>
<stop offset="0.908533" stop-opacity="0"/>
</linearGradient>
<linearGradient id="paint1_linear" x1="113.256" y1="188.577" x2="125.473" y2="-81.9005" gradientUnits="userSpaceOnUse">
<stop stop-opacity="0"/>
<stop offset="0.639117" stop-opacity="0.75"/>
<stop offset="1"/>
</linearGradient>
<linearGradient id="paint2_linear" x1="111.389" y1="186.696" x2="123.618" y2="-79.0804" gradientUnits="userSpaceOnUse">
<stop stop-opacity="0"/>
<stop offset="0.639117" stop-opacity="0.75"/>
<stop offset="1"/>
</linearGradient>
<linearGradient id="paint3_linear" x1="90.5669" y1="50.2667" x2="97.1452" y2="18.6237" gradientUnits="userSpaceOnUse">
<stop stop-opacity="0"/>
<stop offset="0.799692" stop-opacity="0.51"/>
<stop offset="0.99"/>
</linearGradient>
<linearGradient id="paint4_linear" x1="115.325" y1="30.3413" x2="104.944" y2="29.9047" gradientUnits="userSpaceOnUse">
<stop stop-opacity="0"/>
<stop offset="0.639117" stop-opacity="0.75"/>
<stop offset="1"/>
</linearGradient>
<linearGradient id="paint5_linear" x1="94.0332" y1="-1.73339" x2="89.6658" y2="53.3527" gradientUnits="userSpaceOnUse">
<stop offset="0.38383" stop-opacity="0.75"/>
<stop offset="0.908533" stop-opacity="0"/>
</linearGradient>
<linearGradient id="paint6_linear" x1="71.3329" y1="122.825" x2="113.357" y2="147.233" gradientUnits="userSpaceOnUse">
<stop stop-opacity="0"/>
<stop offset="0.87783" stop-opacity="0.75"/>
<stop offset="1"/>
</linearGradient>
<linearGradient id="paint7_linear" x1="76.3536" y1="139.948" x2="124.752" y2="188.927" gradientUnits="userSpaceOnUse">
<stop stop-opacity="0"/>
<stop offset="0.87783" stop-opacity="0.75"/>
<stop offset="1"/>
</linearGradient>
<linearGradient id="paint8_linear" x1="76.3536" y1="139.948" x2="124.752" y2="188.927" gradientUnits="userSpaceOnUse">
<stop stop-opacity="0"/>
<stop offset="0.87783" stop-opacity="0.75"/>
<stop offset="1"/>
</linearGradient>
<linearGradient id="paint9_linear" x1="76.3536" y1="129.528" x2="124.752" y2="178.507" gradientUnits="userSpaceOnUse">
<stop stop-opacity="0"/>
<stop offset="0.87783" stop-opacity="0.75"/>
<stop offset="1"/>
</linearGradient>
<linearGradient id="paint10_linear" x1="76.3536" y1="146.528" x2="124.752" y2="195.507" gradientUnits="userSpaceOnUse">
<stop stop-opacity="0"/>
<stop offset="0.87783" stop-opacity="0.75"/>
<stop offset="1"/>
</linearGradient>
<linearGradient id="paint11_linear" x1="100" y1="54" x2="100" y2="234.5" gradientUnits="userSpaceOnUse">
<stop stop-color="white"/>
<stop offset="1" stop-color="white" stop-opacity="0"/>
</linearGradient>
<linearGradient id="paint12_linear" x1="115.852" y1="159.276" x2="115.852" y2="178.981" gradientUnits="userSpaceOnUse">
<stop stop-color="#FADAAB"/>
<stop offset="1" stop-color="white" stop-opacity="0"/>
</linearGradient>
<linearGradient id="paint13_linear" x1="133.969" y1="128.84" x2="133.969" y2="173.183" gradientUnits="userSpaceOnUse">
<stop stop-color="#141414"/>
<stop offset="1" stop-opacity="0"/>
</linearGradient>
<linearGradient id="paint14_linear" x1="151.985" y1="130.996" x2="110.999" y2="170.484" gradientUnits="userSpaceOnUse">
<stop stop-color="#101010"/>
<stop offset="1" stop-opacity="0"/>
</linearGradient>
<linearGradient id="paint15_linear" x1="150.985" y1="131.996" x2="100.002" y2="170.983" gradientUnits="userSpaceOnUse">
<stop offset="0.0522431" stop-color="#0F0F0F"/>
<stop offset="1" stop-color="#131313" stop-opacity="0"/>
</linearGradient>
<linearGradient id="paint16_linear" x1="166.478" y1="123.571" x2="156.746" y2="136.469" gradientUnits="userSpaceOnUse">
<stop/>
<stop offset="1" stop-opacity="0"/>
</linearGradient>
<linearGradient id="paint17_linear" x1="163.368" y1="130.598" x2="158.875" y2="134.803" gradientUnits="userSpaceOnUse">
<stop stop-color="white"/>
<stop offset="1" stop-color="white" stop-opacity="0"/>
</linearGradient>
<linearGradient id="paint18_linear" x1="149.386" y1="128.841" x2="149.386" y2="142.348" gradientUnits="userSpaceOnUse">
<stop stop-color="white"/>
<stop offset="1" stop-color="white" stop-opacity="0"/>
</linearGradient>
<linearGradient id="paint19_linear" x1="108.351" y1="174.278" x2="108.304" y2="182.609" gradientUnits="userSpaceOnUse">
<stop stop-color="#010101"/>
<stop offset="1" stop-opacity="0"/>
</linearGradient>
</defs>
</svg>
