<svg width="208" height="208" viewBox="0 0 208 208" fill="none" xmlns="http://www.w3.org/2000/svg">
<path opacity="0.18" d="M6.14958 97.3812C10.2149 87.8628 16.3406 78.1042 22.037 73.3799C27.7333 68.6556 97.9333 -0.000196308 130.369 0C162.804 0.000196314 157.221 8.93405 169.134 18.5806C183.668 30.3419 196.101 50.4906 198.286 74.8236C199.803 91.5232 196.465 108.815 199.106 125.201C201.125 137.747 206.526 148.829 207.755 161.597C209.17 176.25 204.354 191.818 195.941 199.799C187.528 207.779 176.901 208.005 166.921 207.579C140.746 206.448 156.54 198.844 88.4536 207.202C20.3667 215.561 2.56506 155.483 2.56506 155.483C-1.45703 136.314 -1.09832 114.345 6.14958 97.3812Z" fill="#6E71FF"/>
<path d="M142.358 96.1992V106.159H132.399L125.759 101.179L132.399 96.1992H142.358Z" fill="#6E71FF"/>
<path d="M122.438 96.1992H132.398V106.159H122.438V96.1992Z" fill="#6E71FF"/>
<path d="M139.038 72.9597V114.722C139.038 117.143 137.624 130.912 137.624 130.912L144.259 119.846C145.187 118.299 145.678 116.526 145.678 114.722V72.9597H139.038Z" fill="#6E71FF"/>
<path d="M139.038 72.9597V114.722C139.038 117.143 137.624 130.912 137.624 130.912L144.259 119.846C145.187 118.299 145.678 116.526 145.678 114.722V72.9597H139.038Z" fill="url(#paint0_linear)"/>
<path d="M138.565 116.431L132.399 126.709L126.233 116.431C125.923 115.915 125.759 115.324 125.759 114.722V72.9597H119.119V114.722C119.119 116.526 119.61 118.299 120.538 119.846L127.66 131.716C128.588 133.263 129.079 135.033 129.079 136.839V159.72H135.719V136.839C135.719 135.033 136.21 133.263 137.137 131.716L137.624 130.912C138.547 129.37 139.039 127.586 139.039 125.788V114.722C139.039 115.324 138.875 115.915 138.565 116.431Z" fill="url(#paint1_linear)"/>
<path d="M139.038 164.607V171.34C139.038 172.257 138.295 173 137.379 173H127.419C126.502 173 125.759 172.257 125.759 171.34V164.607C125.759 163.576 125.998 162.56 126.46 161.639L129.079 156.4H135.719L138.337 161.639C138.799 162.56 139.038 163.576 139.038 164.607Z" fill="#6E71FF"/>
<path d="M139.038 164.607V171.34C139.038 172.257 138.295 173 137.379 173H127.419C126.502 173 125.759 172.257 125.759 171.34V164.607C125.759 163.576 125.998 162.56 126.46 161.639L129.079 156.4H135.719L138.337 161.639C138.799 162.56 139.038 163.576 139.038 164.607Z" fill="url(#paint2_linear)" fill-opacity="0.6"/>
<path d="M147.338 63H140.698L145.678 72.9598H150.658C151.575 72.9598 152.318 72.2165 152.318 71.2998V67.9799C152.318 65.2398 150.076 63 147.338 63Z" fill="#6E71FF"/>
<path d="M147.338 63H140.698L145.678 72.9598H150.658C151.575 72.9598 152.318 72.2165 152.318 71.2998V67.9799C152.318 65.2398 150.076 63 147.338 63Z" fill="url(#paint3_linear)" fill-opacity="0.8"/>
<path d="M95.8789 96.1992V106.159H85.9191L79.2793 101.179L85.9191 96.1992H95.8789Z" fill="#6E71FF"/>
<path d="M75.96 96.1992H85.9197V106.159H75.96V96.1992Z" fill="#6E71FF"/>
<path d="M92.5598 72.9597V114.722C92.5598 117.143 91.1455 130.912 91.1455 130.912L97.7809 119.846C98.7083 118.299 99.1996 116.526 99.1996 114.722V72.9597H92.5598Z" fill="#6E71FF"/>
<path d="M92.5588 72.9597V114.722C92.5588 117.143 91.1445 130.912 91.1445 130.912L97.7799 119.846C98.7073 118.299 99.1987 116.526 99.1987 114.722V72.9597H92.5588Z" fill="url(#paint4_linear)"/>
<path d="M92.0855 116.431L85.9193 126.709L79.7531 116.431C79.4433 115.915 79.2795 115.324 79.2795 114.722V72.9597H72.6396V114.722C72.6396 116.526 73.131 118.299 74.0584 119.846L81.1807 131.716C82.1081 133.263 82.5994 135.033 82.5994 136.839L82.4998 159.5H88.9998L89.2392 136.839C89.2392 135.033 89.7306 133.263 90.658 131.716L91.1449 130.912C92.0678 129.37 92.5592 127.586 92.5592 125.788V114.722C92.5592 115.324 92.3954 115.915 92.0855 116.431Z" fill="url(#paint5_linear)"/>
<path d="M100.86 63H94.2197L99.1996 72.9598H104.179C105.096 72.9598 105.839 72.2165 105.839 71.2998V67.9799C105.839 65.2398 103.597 63 100.86 63Z" fill="#6E71FF"/>
<path d="M100.859 63H94.2188L99.1986 72.9598H104.179C105.095 72.9598 105.838 72.2165 105.838 71.2998V67.9799C105.838 65.2398 103.596 63 100.859 63Z" fill="url(#paint6_linear)" fill-opacity="0.8"/>
<path d="M140.698 63H117.458C114.719 63 112.479 65.2409 112.479 67.9799V71.2998C112.479 72.2165 113.222 72.9598 114.138 72.9598H145.678C145.678 72.9598 145.678 70.7199 145.678 67.9799C145.678 65.2398 143.436 63 140.698 63Z" fill="#6E71FF"/>
<path d="M94.2193 63H70.9799C68.2409 63 66 65.2409 66 67.9799V71.2998C66 72.2165 66.7432 72.9598 67.66 72.9598H99.1992C99.1992 72.9598 99.1992 70.7199 99.1992 67.9799C99.1992 65.2398 96.9571 63 94.2193 63Z" fill="#6E71FF"/>
<path d="M92.2797 164.207V170.94C92.2797 171.856 91.5365 172.6 90.6197 172.6H80.66C79.7432 172.6 79 171.856 79 170.94V164.207C79 163.175 79.239 162.16 79.7016 161.239L82.3199 156H88.9598L91.5781 161.239C92.0406 162.16 92.2797 163.175 92.2797 164.207Z" fill="#6E71FF"/>
<path d="M92.2797 164.207V170.94C92.2797 171.856 91.5365 172.6 90.6197 172.6H80.66C79.7432 172.6 79 171.856 79 170.94V164.207C79 163.175 79.239 162.16 79.7016 161.239L82.3199 156H88.9598L91.5781 161.239C92.0406 162.16 92.2797 163.175 92.2797 164.207Z" fill="url(#paint7_linear)" fill-opacity="0.6"/>
<defs>
<linearGradient id="paint0_linear" x1="152" y1="56.4999" x2="48" y2="186" gradientUnits="userSpaceOnUse">
<stop stop-color="white"/>
<stop offset="1" stop-color="white" stop-opacity="0"/>
</linearGradient>
<linearGradient id="paint1_linear" x1="122" y1="161.5" x2="92.5005" y2="202" gradientUnits="userSpaceOnUse">
<stop stop-color="white"/>
<stop offset="1" stop-color="white" stop-opacity="0"/>
</linearGradient>
<linearGradient id="paint2_linear" x1="132.399" y1="156.4" x2="132.5" y2="185" gradientUnits="userSpaceOnUse">
<stop stop-color="#121212"/>
<stop offset="1" stop-opacity="0"/>
</linearGradient>
<linearGradient id="paint3_linear" x1="146.508" y1="63" x2="146.508" y2="72.9598" gradientUnits="userSpaceOnUse">
<stop stop-color="#2D2D2D"/>
<stop offset="1" stop-color="#0D0D0D" stop-opacity="0"/>
</linearGradient>
<linearGradient id="paint4_linear" x1="98.9995" y1="54.4999" x2="15.4995" y2="215.5" gradientUnits="userSpaceOnUse">
<stop stop-color="white"/>
<stop offset="1" stop-color="white" stop-opacity="0"/>
</linearGradient>
<linearGradient id="paint5_linear" x1="82.5994" y1="72.9597" x2="87.9998" y2="230.5" gradientUnits="userSpaceOnUse">
<stop offset="0.488146" stop-color="white"/>
<stop offset="1" stop-color="white" stop-opacity="0"/>
</linearGradient>
<linearGradient id="paint6_linear" x1="100.029" y1="63" x2="100.029" y2="72.9598" gradientUnits="userSpaceOnUse">
<stop stop-color="#2D2D2D"/>
<stop offset="1" stop-color="#0D0D0D" stop-opacity="0"/>
</linearGradient>
<linearGradient id="paint7_linear" x1="85.6398" y1="156" x2="85.7415" y2="184.6" gradientUnits="userSpaceOnUse">
<stop stop-color="#121212"/>
<stop offset="1" stop-opacity="0"/>
</linearGradient>
</defs>
</svg>
