<svg width="240" height="240" viewBox="0 0 240 240" fill="none" xmlns="http://www.w3.org/2000/svg">
<g clip-path="url(#clip0)">
<path opacity="0.18" d="M7.09567 110.895C11.7864 100.658 18.8545 90.1619 25.4273 85.0808C32 79.9998 113 6.15872 150.425 6.15894C187.851 6.15915 181.409 15.7677 195.155 26.1428C211.925 38.7924 226.27 60.4628 228.792 86.6337C230.541 104.594 226.69 123.192 229.737 140.816C232.068 154.309 238.3 166.229 239.717 179.961C241.35 195.72 235.793 212.464 226.085 221.047C216.378 229.63 204.117 229.874 192.601 229.416C162.399 228.199 180.624 220.02 102.062 229.01C23.5 238 2.95969 173.385 2.95969 173.385C-1.68118 152.768 -1.26729 129.139 7.09567 110.895Z" fill="#6E71FF"/>
<path d="M137.809 151.165H86.4248V191.127H137.809V151.165Z" fill="#6E71FF"/>
<path d="M137.809 151.165H86.4248V191.127H137.809V151.165Z" fill="url(#paint0_linear)"/>
<path d="M218.716 60.2112V162.236C218.716 165.945 217.243 169.502 214.621 172.125C211.998 174.747 208.441 176.221 204.732 176.221H28.0926C24.3837 176.22 20.8269 174.746 18.2041 172.124C15.5813 169.502 14.107 165.945 14.1055 162.236V60.2112C14.1055 56.5024 15.5788 52.9455 18.2013 50.3229C20.8239 47.7004 24.3808 46.2271 28.0896 46.2271H204.732C206.568 46.2263 208.386 46.5871 210.082 47.2888C211.778 47.9906 213.32 49.0196 214.618 50.317C215.917 51.6145 216.947 53.155 217.65 54.8507C218.353 56.5463 218.716 58.3638 218.716 60.1995V60.2112Z" fill="#6E71FF"/>
<path d="M218.716 60.2116V162.237C218.716 165.946 217.243 169.503 214.62 172.125C211.998 174.748 208.441 176.221 204.732 176.221H28.0925C25.015 176.226 22.0221 175.214 19.5799 173.341C17.7039 170.901 16.691 167.907 16.7003 164.829V62.8153C16.7003 59.1065 18.1736 55.5495 20.7961 52.927C23.4187 50.3044 26.9756 48.8311 30.6844 48.8311H207.339C210.417 48.8219 213.411 49.8347 215.851 51.7107C217.718 54.1506 218.726 57.1395 218.716 60.2116Z" fill="url(#paint1_linear)"/>
<path d="M218.716 151.165V162.237C218.716 165.946 217.243 169.503 214.621 172.125C211.998 174.748 208.441 176.221 204.732 176.221H28.0926C26.2562 176.221 24.4376 175.86 22.7408 175.158C21.0441 174.455 19.5022 173.425 18.2034 172.127C16.9046 170.829 15.8742 169.288 15.1711 167.591C14.4679 165.895 14.1059 164.076 14.1055 162.24V151.165H218.716Z" fill="url(#paint2_linear)"/>
<path d="M191.726 158.714C191.776 162.527 191.31 166.328 190.341 170.016C189.842 171.912 189.19 173.832 187.969 175.355C187.719 175.671 187.442 175.966 187.141 176.236H167.101C167.915 172.713 169.051 168.292 168.651 167.773C166.837 165.401 166.144 162.381 165.516 159.46C164.991 157.015 164.48 154.505 164.824 152.025C164.865 151.731 164.915 151.438 164.973 151.176C165.827 147.26 172.235 146.441 174.989 146.403L177.337 151.176C177.337 153.483 187.27 145.044 189.011 146.896C190.009 147.959 190.637 149.494 191.034 151.176C191.624 153.724 191.7 156.633 191.726 158.714Z" fill="url(#paint3_linear)"/>
<path d="M171.099 155.808L167.964 149.08C170.099 147.716 172.488 146.799 174.988 146.386C175.229 146.317 175.487 146.339 175.713 146.447C175.859 146.561 175.972 146.711 176.042 146.882C177.328 149.389 178.613 151.898 179.644 154.514C180.125 155.735 180.551 157.082 180.16 158.33C179.682 159.862 178.147 160.772 176.732 161.529C172.25 163.951 172.446 158.714 171.099 155.808Z" fill="white"/>
<path opacity="0.09" d="M177.615 153.973C176.682 155.517 176.068 157.232 175.217 158.823C175.073 159.09 174.856 159.395 174.553 159.363C174.426 159.34 174.307 159.285 174.207 159.204C173.291 158.578 172.434 157.87 171.647 157.088C171.647 158.817 172.701 160.349 173.702 161.761C173.768 161.867 173.857 161.957 173.963 162.022C174.056 162.06 174.157 162.077 174.257 162.072C175.43 162.082 176.584 161.769 177.592 161.168C177.656 161.138 177.711 161.09 177.75 161.03C177.782 160.962 177.794 160.887 177.785 160.813C177.753 159.125 177.589 157.364 178.252 155.823C178.455 155.347 178.733 154.904 178.895 154.411C179.001 154.085 179.212 153.04 178.689 152.925C178.273 152.823 177.785 153.692 177.615 153.973Z" fill="url(#paint4_linear)"/>
<path d="M155.87 192.157C155.872 192.608 155.789 193.055 155.623 193.475C155.359 194.167 154.891 194.763 154.28 195.182C153.669 195.602 152.945 195.825 152.204 195.823H72.0677C71.3271 195.823 70.6039 195.599 69.9934 195.18C69.3829 194.761 68.9138 194.166 68.648 193.475C68.4828 193.055 68.3991 192.608 68.4014 192.157C68.401 191.676 68.4954 191.199 68.6791 190.755C68.8629 190.31 69.1324 189.906 69.4723 189.566C69.8122 189.225 70.2158 188.955 70.6602 188.771C71.1045 188.586 71.5808 188.491 72.0618 188.491H152.198C152.679 188.49 153.156 188.584 153.601 188.768C154.046 188.951 154.451 189.22 154.792 189.56C155.133 189.9 155.404 190.304 155.589 190.749C155.774 191.193 155.869 191.67 155.87 192.151V192.157Z" fill="#6E71FF"/>
<path d="M155.87 192.157C155.872 192.608 155.789 193.055 155.623 193.475C155.359 194.167 154.891 194.763 154.28 195.182C153.669 195.602 152.945 195.825 152.204 195.823H72.0677C71.3271 195.823 70.6039 195.599 69.9934 195.18C69.3829 194.761 68.9138 194.166 68.648 193.475C68.4828 193.055 68.3991 192.608 68.4014 192.157C68.401 191.676 68.4954 191.199 68.6791 190.755C68.8629 190.31 69.1324 189.906 69.4723 189.566C69.8122 189.225 70.2158 188.955 70.6602 188.771C71.1045 188.586 71.5808 188.491 72.0618 188.491H152.198C152.679 188.49 153.156 188.584 153.601 188.768C154.046 188.951 154.451 189.22 154.792 189.56C155.133 189.9 155.404 190.304 155.589 190.749C155.774 191.193 155.869 191.67 155.87 192.151V192.157Z" fill="url(#paint5_linear)"/>
<path d="M155.609 193.475C155.345 194.167 154.876 194.763 154.266 195.182C153.655 195.602 152.931 195.825 152.19 195.823H72.0535C71.3129 195.823 70.5897 195.599 69.9792 195.18C69.3687 194.76 68.8996 194.166 68.6338 193.475C68.8157 192.995 69.0979 192.56 69.4616 192.198C69.8016 191.857 70.2056 191.587 70.6504 191.402C71.0952 191.218 71.572 191.123 72.0535 191.124H152.19C152.93 191.124 153.654 191.348 154.264 191.768C154.875 192.188 155.344 192.783 155.609 193.475Z" fill="#6E71FF"/>
<path d="M44.9388 101.688C44.9377 105.786 46.5134 109.727 49.3394 112.695C52.1653 115.662 56.0247 117.429 60.1176 117.628V125.577C53.9117 125.382 48.0252 122.78 43.7041 118.321C39.3831 113.863 36.9668 107.897 36.9668 101.688C36.9668 95.4795 39.3831 89.5143 43.7041 85.0556C48.0252 80.597 53.9117 77.9949 60.1176 77.8003V85.7493C56.0247 85.9484 52.1653 87.7147 49.3394 90.6821C46.5134 93.6496 44.9377 97.5907 44.9388 101.688Z" fill="url(#paint6_linear)" fill-opacity="0.15"/>
<path d="M84.7979 101.688C84.8013 105.191 84.0332 108.651 82.5482 111.824C81.0633 114.996 78.8979 117.802 76.206 120.043L71.0779 113.973C73.6046 111.877 75.4237 109.054 76.2872 105.887C77.1507 102.72 77.0167 99.3636 75.9034 96.2755C74.7901 93.1875 72.7516 90.5179 70.0658 88.6305C67.3801 86.7431 64.1777 85.7298 60.895 85.7287C60.6367 85.7287 60.3814 85.7287 60.126 85.7493V77.8237H60.895C67.2276 77.8245 73.3012 80.3378 77.7826 84.8121C82.264 89.2863 84.787 95.3558 84.7979 101.688Z" fill="url(#paint7_linear)" fill-opacity="0.75"/>
<path d="M76.206 120.055C71.9139 123.648 66.4924 125.613 60.895 125.603C60.6367 125.603 60.3814 125.603 60.126 125.588V117.639C60.3814 117.639 60.6367 117.657 60.895 117.657C64.6145 117.663 68.218 116.363 71.0779 113.985L76.206 120.055Z" fill="url(#paint8_linear)"/>
<path d="M203.203 107.868H102.801V108.452H203.203V107.868Z" fill="url(#paint9_linear)"/>
<path d="M101.703 86.8645C101.703 86.8645 120.804 84.0083 125.632 75.4487C130.461 66.8892 140.342 64.9107 148.235 81.1551C156.128 97.3996 168.874 98.9377 173.479 93.4485C178.085 87.9594 184.017 68.2042 192.139 67.7639C200.262 67.3236 203.191 83.1306 203.191 83.1306V103.109H102.801L101.703 86.8645Z" fill="#6E71FF"/>
<path d="M133.975 115.772H103.532V117.968H133.975V115.772Z" fill="url(#paint10_linear)" fill-opacity="0.55"/>
<path d="M133.975 122.239H103.532V124.435H133.975V122.239Z" fill="url(#paint11_linear)"/>
<path d="M133.975 128.706H103.532V130.901H133.975V128.706Z" fill="url(#paint12_linear)"/>
<path d="M151.684 115.772H147.88V117.968H151.684V115.772Z" fill="url(#paint13_linear)" fill-opacity="0.55"/>
<path d="M151.684 122.239H147.88V124.435H151.684V122.239Z" fill="url(#paint14_linear)"/>
<path d="M151.684 128.706H147.88V130.901H151.684V128.706Z" fill="url(#paint15_linear)"/>
<path d="M184.008 139.678C184.008 139.678 187.728 132.654 190.311 133.171C192.894 133.687 195.477 136.373 194.649 138.44C193.821 140.506 189.539 144.331 189.407 146.189C189.275 148.047 186.178 147.222 186.178 147.222L185.661 143.295C185.661 143.295 183.8 141.642 184.008 139.678Z" fill="url(#paint16_linear)"/>
<path d="M190.663 131.515C191.426 131.268 192.254 131.377 193.035 131.544C193.816 131.711 194.664 131.976 195.225 132.572C196.02 133.417 196.082 134.7 196.549 135.765C196.951 136.687 197.673 137.474 197.896 138.454C198.066 139.301 197.903 140.181 197.441 140.911C196.979 141.633 196.343 142.227 195.592 142.64C194.934 143.022 194.215 143.297 193.578 143.714C192.941 144.131 192.448 144.642 191.855 145.067C191.28 145.531 190.559 145.774 189.821 145.751C189.537 145.733 189.267 145.621 189.055 145.431C188.658 145.05 188.679 144.419 188.723 143.87C188.782 143.206 188.838 142.542 188.893 141.877C189.296 141.897 189.7 141.844 190.085 141.721C190.276 141.657 190.448 141.543 190.582 141.391C190.715 141.24 190.807 141.056 190.848 140.858C190.927 140.271 190.328 139.752 189.73 139.684C189.131 139.616 188.556 139.881 188.01 140.133C187.781 139.661 188.118 139.117 188.456 138.712C188.934 138.144 189.45 137.609 190 137.11C190.195 136.966 190.345 136.771 190.434 136.546C190.587 136.006 190.044 135.557 189.812 135.131C189.64 134.771 189.509 134.393 189.421 134.004C189.093 132.883 189.474 131.896 190.663 131.515Z" fill="#6E71FF"/>
<path d="M190.663 131.515C191.426 131.268 192.254 131.377 193.035 131.544C193.816 131.711 194.664 131.976 195.225 132.572C196.02 133.417 196.082 134.7 196.549 135.765C196.951 136.687 197.673 137.474 197.896 138.454C198.066 139.301 197.903 140.181 197.441 140.911C196.979 141.633 196.343 142.227 195.592 142.64C194.934 143.022 194.215 143.297 193.578 143.714C192.941 144.131 192.448 144.642 191.855 145.067C191.28 145.531 190.559 145.774 189.821 145.751C189.537 145.733 189.267 145.621 189.055 145.431C188.658 145.05 188.679 144.419 188.723 143.87C188.782 143.206 188.838 142.542 188.893 141.877C189.296 141.897 189.7 141.844 190.085 141.721C190.276 141.657 190.448 141.543 190.582 141.391C190.715 141.24 190.807 141.056 190.848 140.858C190.927 140.271 190.328 139.752 189.73 139.684C189.131 139.616 188.556 139.881 188.01 140.133C187.781 139.661 188.118 139.117 188.456 138.712C188.934 138.144 189.45 137.609 190 137.11C190.195 136.966 190.345 136.771 190.434 136.546C190.587 136.006 190.044 135.557 189.812 135.131C189.64 134.771 189.509 134.393 189.421 134.004C189.093 132.883 189.474 131.896 190.663 131.515Z" fill="url(#paint17_linear)"/>
<path d="M193.736 168.475C193.589 169.446 193.404 170.438 192.911 171.29C191.444 173.811 188 174.187 185.083 174.125C183.671 174.099 182.118 173.964 180.926 173.291C180.468 173.044 180.068 172.702 179.752 172.288C178.953 171.216 178.871 169.784 178.909 168.448C178.953 167.066 179.086 165.651 179.106 164.259C179.133 162.536 178.983 160.848 178.278 159.296C177.885 158.444 179.588 155.383 179.94 154.526C180.527 153.137 178.736 154.003 179.309 152.615C179.94 151.085 180.609 149.503 181.848 148.417C183.767 146.744 186.544 146.641 189.098 146.626C189.509 146.626 190.079 146.814 189.979 147.214C191.937 147.751 192.982 150.912 193.375 152.899C194.392 158.032 194.514 163.301 193.736 168.475Z" fill="#6E71FF"/>
<path d="M183.093 173.159C182.373 173.277 181.643 173.321 180.915 173.291C180.457 173.044 180.056 172.701 179.741 172.287C178.942 171.216 178.86 169.784 178.898 168.448C178.942 167.065 179.074 165.651 179.095 164.259L183.084 156.249C183.084 156.249 184.502 172.857 183.093 173.159Z" fill="url(#paint18_linear)"/>
<path d="M187.933 173.996L190.868 173.159C190.868 173.159 191.681 174.007 190.868 177.339C190.055 180.671 189.8 203.84 189.8 203.84H187.158L184.81 182.312C184.81 182.312 179.696 200.599 179.385 203.854H176.259C176.259 203.854 177.351 174.691 179.749 172.302C179.749 172.287 181.167 172.98 187.933 173.996Z" fill="#6E71FF"/>
<path d="M187.933 173.996L190.868 173.159C190.868 173.159 191.681 174.007 190.868 177.339C190.055 180.671 189.8 203.84 189.8 203.84H187.158L184.81 182.312C184.81 182.312 179.696 200.599 179.385 203.854H176.259C176.259 203.854 177.351 174.691 179.749 172.302C179.749 172.287 181.167 172.98 187.933 173.996Z" fill="url(#paint19_linear)"/>
<path d="M178.346 155.036C178.346 155.036 177.228 163.308 175.798 163.179C174.369 163.05 171.903 158.048 171.903 158.048C171.344 158.258 170.866 158.641 170.538 159.14C170.211 159.64 170.052 160.231 170.083 160.828C170.083 163.044 172.29 165.122 172.29 165.122C172.29 165.122 178.657 169.669 180.468 166.047C182.28 162.425 183.492 153.718 183.492 153.718C183.492 153.718 186.175 146.967 183.471 147.428C179.773 148.021 178.346 155.036 178.346 155.036Z" fill="#6E71FF"/>
<path d="M170.104 157.373C169.635 156.18 169.59 154.862 169.975 153.639C170.152 153.753 170.282 153.927 170.342 154.129L171.134 155.929C171.399 155.696 171.629 155.428 171.818 155.13C171.915 155.188 171.991 155.274 172.036 155.376C172.082 155.479 172.095 155.593 172.074 155.703C172.026 155.922 171.957 156.137 171.868 156.343C171.73 156.916 171.722 157.513 171.845 158.089C171.648 158.269 171.439 158.436 171.22 158.588C171.032 158.717 170.785 158.964 170.632 158.803C170.48 158.641 170.465 158.233 170.389 158.051C170.312 157.869 170.195 157.602 170.104 157.373Z" fill="url(#paint20_linear)"/>
<path d="M179.353 203.84L178.966 206.951H171.997C171.997 206.951 172.464 204.77 176.259 203.84H179.353Z" fill="#6E71FF"/>
<path d="M179.353 203.84L178.966 206.951H171.997C171.997 206.951 172.464 204.77 176.259 203.84H179.353Z" fill="url(#paint21_linear)"/>
<path d="M189.921 203.84L190.167 206.951H182.535C182.535 206.951 182.999 204.77 186.797 203.84H189.921Z" fill="#6E71FF"/>
<path d="M189.921 203.84L190.167 206.951H182.535C182.535 206.951 182.999 204.77 186.797 203.84H189.921Z" fill="url(#paint22_linear)" fill-opacity="0.94"/>
</g>
<defs>
<linearGradient id="paint0_linear" x1="111.801" y1="148.573" x2="112.397" y2="191.068" gradientUnits="userSpaceOnUse">
<stop offset="0.01"/>
<stop offset="0.97" stop-color="#3F3D56" stop-opacity="0"/>
</linearGradient>
<linearGradient id="paint1_linear" x1="120.173" y1="156.689" x2="111.854" y2="7.51264" gradientUnits="userSpaceOnUse">
<stop offset="0.03" stop-color="white" stop-opacity="0"/>
<stop offset="1" stop-color="white"/>
</linearGradient>
<linearGradient id="paint2_linear" x1="46.5" y1="133" x2="301.691" y2="223.774" gradientUnits="userSpaceOnUse">
<stop stop-opacity="0"/>
<stop offset="0.87783" stop-opacity="0.75"/>
<stop offset="1"/>
</linearGradient>
<linearGradient id="paint3_linear" x1="21826.4" y1="-4898.5" x2="14065.4" y2="-4650.32" gradientUnits="userSpaceOnUse">
<stop/>
<stop offset="0.97" stop-color="#3F3D56" stop-opacity="0.35"/>
</linearGradient>
<linearGradient id="paint4_linear" x1="171.647" y1="157.496" x2="179.015" y2="157.496" gradientUnits="userSpaceOnUse">
<stop stop-color="#183866"/>
<stop offset="1" stop-color="#1A7FC1"/>
</linearGradient>
<linearGradient id="paint5_linear" x1="-3.5" y1="192" x2="173.574" y2="214.763" gradientUnits="userSpaceOnUse">
<stop offset="0.01"/>
<stop offset="0.97" stop-color="#3F3D56" stop-opacity="0"/>
</linearGradient>
<linearGradient id="paint6_linear" x1="6071" y1="19356.5" x2="10.9077" y2="19424" gradientUnits="userSpaceOnUse">
<stop stop-color="white" stop-opacity="0"/>
<stop offset="1" stop-color="white"/>
</linearGradient>
<linearGradient id="paint7_linear" x1="6490.62" y1="17114.3" x2="32.7181" y2="17201" gradientUnits="userSpaceOnUse">
<stop offset="0.03" stop-color="white" stop-opacity="0"/>
<stop offset="1" stop-color="white"/>
</linearGradient>
<linearGradient id="paint8_linear" x1="3211.82" y1="4488.97" x2="3765.68" y2="6436.85" gradientUnits="userSpaceOnUse">
<stop offset="0.03" stop-color="white" stop-opacity="0.44"/>
<stop offset="0.927083" stop-color="white"/>
</linearGradient>
<linearGradient id="paint9_linear" x1="133.749" y1="64.2218" x2="161.153" y2="126.763" gradientUnits="userSpaceOnUse">
<stop stop-color="white" stop-opacity="0"/>
<stop offset="1" stop-color="white"/>
</linearGradient>
<linearGradient id="paint10_linear" x1="12345.8" y1="641.23" x2="12346.3" y2="1179.23" gradientUnits="userSpaceOnUse">
<stop offset="0.03" stop-color="white" stop-opacity="0.55"/>
<stop offset="1" stop-color="white"/>
</linearGradient>
<linearGradient id="paint11_linear" x1="118.567" y1="108.29" x2="119.46" y2="180.204" gradientUnits="userSpaceOnUse">
<stop offset="0.03" stop-color="white" stop-opacity="0"/>
<stop offset="0.45" stop-color="white" stop-opacity="0.45"/>
<stop offset="1" stop-color="white"/>
</linearGradient>
<linearGradient id="paint12_linear" x1="12391.8" y1="1019.04" x2="12392.3" y2="1557.03" gradientUnits="userSpaceOnUse">
<stop offset="0.03" stop-color="white" stop-opacity="0.75"/>
<stop offset="1" stop-color="white"/>
</linearGradient>
<linearGradient id="paint13_linear" x1="1677.73" y1="641.23" x2="1681.57" y2="1179.2" gradientUnits="userSpaceOnUse">
<stop offset="0.03" stop-color="white" stop-opacity="0.55"/>
<stop offset="1" stop-color="white"/>
</linearGradient>
<linearGradient id="paint14_linear" x1="149.759" y1="108.29" x2="156.831" y2="179.513" gradientUnits="userSpaceOnUse">
<stop offset="0.03" stop-color="white" stop-opacity="0"/>
<stop offset="0.45" stop-color="white" stop-opacity="0.45"/>
<stop offset="1" stop-color="white"/>
</linearGradient>
<linearGradient id="paint15_linear" x1="1683.47" y1="1019.04" x2="1687.32" y2="1557.01" gradientUnits="userSpaceOnUse">
<stop offset="0.03" stop-color="white" stop-opacity="0.75"/>
<stop offset="1" stop-color="white"/>
</linearGradient>
<linearGradient id="paint16_linear" x1="183.991" y1="140.274" x2="194.808" y2="140.274" gradientUnits="userSpaceOnUse">
<stop stop-color="#ECC4D7"/>
<stop offset="0.16" stop-color="#EDCBD5"/>
<stop offset="0.42" stop-color="#EFD4D1"/>
<stop offset="0.7" stop-color="#F2EAC9"/>
</linearGradient>
<linearGradient id="paint17_linear" x1="192.5" y1="126" x2="192" y2="161" gradientUnits="userSpaceOnUse">
<stop stop-color="#020202"/>
<stop offset="1" stop-opacity="0"/>
</linearGradient>
<linearGradient id="paint18_linear" x1="181.845" y1="175.156" x2="184.706" y2="147.382" gradientUnits="userSpaceOnUse">
<stop stop-opacity="0"/>
<stop offset="0.423317" stop-opacity="0.75"/>
<stop offset="1"/>
</linearGradient>
<linearGradient id="paint19_linear" x1="184" y1="166.5" x2="183.5" y2="235" gradientUnits="userSpaceOnUse">
<stop stop-color="#1E1E1E"/>
<stop offset="1" stop-opacity="0"/>
</linearGradient>
<linearGradient id="paint20_linear" x1="1546.34" y1="3234.44" x2="1565.4" y2="3234.44" gradientUnits="userSpaceOnUse">
<stop stop-color="#ECC4D7"/>
<stop offset="0.16" stop-color="#EDCBD5"/>
<stop offset="0.42" stop-color="#EFD4D1"/>
<stop offset="0.7" stop-color="#F2EAC9"/>
</linearGradient>
<linearGradient id="paint21_linear" x1="176" y1="200" x2="175.5" y2="212.5" gradientUnits="userSpaceOnUse">
<stop/>
<stop offset="1" stop-opacity="0"/>
</linearGradient>
<linearGradient id="paint22_linear" x1="186.5" y1="200.5" x2="186.5" y2="211.5" gradientUnits="userSpaceOnUse">
<stop/>
<stop offset="1" stop-opacity="0"/>
</linearGradient>
<clipPath id="clip0">
<rect width="240" height="240" fill="white"/>
</clipPath>
</defs>
</svg>
