<svg width="208" height="208" viewBox="0 0 208 208" fill="none" xmlns="http://www.w3.org/2000/svg">
<g clip-path="url(#clip0)">
<path opacity="0.18" d="M207.357 160.781C206.803 166.99 205.818 173.396 202.832 178.334C200.16 182.798 196.164 185.576 192.194 187.999C166.198 203.741 136.796 207.75 108.07 207.987C85.9418 208.185 63.2592 206.157 42.9978 194.734C23.4288 183.706 6.32707 162.473 1.50536 135.888C1.33096 134.953 1.1822 134.011 1.03858 133.057C-0.213019 124.452 -0.166854 115.55 0.310188 106.781C1.22837 89.9129 3.98803 72.3933 12.385 59.3376C19.7971 47.7961 30.6614 41.1004 40.5407 33.1273C49.0711 26.2407 57.0423 18.182 65.9727 12.1973C77.7705 4.29673 90.9584 0.425436 104.213 0.0238222C127.152 -0.634561 146.408 12.5331 168.383 17.3327C191.399 22.343 191.979 43.9973 194.205 69.7861C195.313 82.5193 199.904 94.2517 203.027 106.425C207.51 123.931 208.987 142.474 207.357 160.781Z" fill="#6E71FF"/>
<mask id="mask0" mask-type="alpha" maskUnits="userSpaceOnUse" x="0" y="0" width="208" height="208">
<path d="M207.357 160.781C206.803 166.99 205.818 173.396 202.832 178.334C200.16 182.798 196.164 185.576 192.194 187.999C166.198 203.741 136.796 207.75 108.07 207.987C85.9418 208.185 63.2592 206.157 42.9978 194.734C23.4288 183.706 6.32707 162.473 1.50536 135.888C1.33096 134.953 1.1822 134.011 1.03857 133.057C-0.213019 124.452 -0.166854 115.55 0.310188 106.781C1.22837 89.9129 3.98803 72.3933 12.385 59.3376C19.7971 47.7961 30.6613 41.1004 40.5407 33.1273C49.0711 26.2407 57.0423 18.182 65.9727 12.1973C77.7705 4.29673 90.9584 0.425436 104.213 0.0238222C127.152 -0.634561 146.408 12.5331 168.383 17.3327C191.399 22.343 191.978 43.9973 194.205 69.7861C195.313 82.5193 199.904 94.2517 203.027 106.425C207.51 123.931 208.987 142.474 207.357 160.781Z" fill="#6E71FF"/>
</mask>
<g mask="url(#mask0)">
</g>
<mask id="mask1" mask-type="alpha" maskUnits="userSpaceOnUse" x="0" y="0" width="208" height="208">
<path d="M207.357 160.781C206.803 166.99 205.818 173.396 202.832 178.334C200.16 182.798 196.164 185.576 192.194 187.999C166.198 203.741 136.796 207.75 108.07 207.987C85.9418 208.185 63.2592 206.157 42.9978 194.734C23.4288 183.706 6.32707 162.473 1.50536 135.888C1.33096 134.953 1.1822 134.011 1.03857 133.057C-0.213019 124.452 -0.166854 115.55 0.310188 106.781C1.22837 89.9129 3.98803 72.3933 12.385 59.3376C19.7971 47.7961 30.6613 41.1004 40.5407 33.1273C49.0711 26.2407 57.0423 18.182 65.9727 12.1973C77.7705 4.29673 90.9584 0.425436 104.213 0.0238222C127.152 -0.634561 146.408 12.5331 168.383 17.3327C191.399 22.343 191.978 43.9973 194.205 69.7861C195.313 82.5193 199.904 94.2517 203.027 106.425C207.51 123.931 208.987 142.474 207.357 160.781Z" fill="#6E71FF"/>
</mask>
<g mask="url(#mask1)">
<path d="M207.35 179.196C206.787 182.979 205.8 186.888 202.793 189.904C200.101 192.624 196.076 194.323 192.077 195.797C165.891 205.401 136.299 207.847 107.339 207.992C85.0483 208.116 62.2051 206.875 41.7956 199.906C22.0888 193.178 4.85695 180.232 0 164H207.666C208.199 169.061 208.094 174.151 207.35 179.196Z" fill="#6E71FF"/>
</g>
<path d="M52.07 94.1112C45.2639 94.4205 38.4093 93.3509 31.5703 93.3778C25.2344 93.4062 18.7447 94.3538 12.6696 92.5466C11.8231 92.2927 10.8099 91.6756 11.0307 90.8202C13.908 90.1379 16.3306 88.23 19.0995 87.1718C21.6228 86.2108 24.366 85.972 27.0186 86.4824C28.6033 86.7973 30.198 87.3704 31.7926 87.1165C33.1108 86.9065 34.2623 86.1462 35.475 85.6015C36.2389 85.2539 37.2079 85.0766 38.261 85C40.8262 86.1135 43.6378 86.8441 46.079 88.2186C48.6028 89.6414 50.5965 91.6912 52.07 94.1112Z" fill="url(#paint0_linear)"/>
<path d="M179.07 52.9851C165.635 53.5955 152.104 51.4842 138.605 51.5374C126.098 51.5934 113.288 53.4639 101.296 49.8966C99.6247 49.3954 97.6247 48.1773 98.0607 46.4888C103.74 45.142 108.522 41.3758 113.988 39.287C118.969 37.3901 124.384 36.9187 129.62 37.9261C132.748 38.5477 135.896 39.679 139.044 39.1778C141.646 38.7633 143.919 37.2625 146.312 36.1872C147.82 35.5012 149.733 35.1512 151.812 35C156.875 37.1981 162.425 38.6401 167.244 41.3534C172.226 44.162 176.161 48.2081 179.07 52.9851Z" fill="url(#paint1_linear)"/>
<path d="M157.215 99.176H129.546V149.324H174.879V126.753L169.592 108.48C167.998 102.97 162.951 99.176 157.215 99.176Z" fill="#6E71FF"/>
<path d="M157.215 99.176H129.546V149.324H174.879V126.753L169.592 108.48C167.998 102.97 162.951 99.176 157.215 99.176Z" fill="url(#paint2_linear)" fill-opacity="0.8"/>
<path d="M168.26 126.521L163.548 110.233C162.736 107.433 160.131 105.473 157.214 105.473H135.843V126.521H168.26Z" fill="#84DBFF"/>
<path d="M168.266 126.513H135.832V105.465L168.266 126.513Z" fill="#6E71FF"/>
<path d="M168.266 126.513H135.832V105.465L168.266 126.513Z" fill="url(#paint3_linear)"/>
<path d="M168.26 126.521L163.548 110.233C162.736 107.433 160.131 105.473 157.214 105.473H135.843L168.26 126.521Z" fill="#6E71FF"/>
<path d="M168.26 126.521L163.548 110.233C162.736 107.433 160.131 105.473 157.214 105.473H135.843L168.26 126.521Z" fill="url(#paint4_linear)"/>
<path d="M51.3743 74H121.171C125.794 74 129.545 77.7488 129.545 82.3743V149.321H43V82.3743C43 77.7491 46.7488 74 51.3743 74Z" fill="#6E71FF"/>
<path d="M99.7216 74.0142V96.1417L96.4834 92.9037L93.0892 96.2982L89.6976 92.9037L86.306 96.2982L82.9087 92.9037L79.4726 96.2982L76.0836 92.9037L72.8066 96.1809V74.0142H99.7216Z" fill="url(#paint5_linear)"/>
<path d="M177 149.318V158.781H43.0117V149.318H56.9968C60.2628 143.456 66.5435 139.492 73.7454 139.492C80.9193 139.492 87.2 143.456 90.494 149.318H135.492C138.758 143.456 145.008 139.492 152.21 139.492C159.412 139.492 165.665 143.456 168.959 149.318H177Z" fill="#6E71FF"/>
<path d="M177 149.318V158.781H43.0117V149.318H56.9968C60.2628 143.456 66.5435 139.492 73.7454 139.492C80.9193 139.492 87.2 143.456 90.494 149.318H135.492C138.758 143.456 145.008 139.492 152.21 139.492C159.412 139.492 165.665 143.456 168.959 149.318H177Z" fill="url(#paint6_linear)" fill-opacity="0.66"/>
<path d="M165.583 158.723C165.583 166.109 159.595 172.097 152.209 172.097C144.823 172.097 138.841 166.109 138.841 158.723C138.841 151.337 144.826 145.349 152.209 145.349C159.598 145.349 165.583 151.337 165.583 158.723Z" fill="#6E71FF"/>
<path d="M165.583 158.723C165.583 166.109 159.595 172.097 152.209 172.097C144.823 172.097 138.841 166.109 138.841 158.723C138.841 151.337 144.826 145.349 152.209 145.349C159.598 145.349 165.583 151.337 165.583 158.723Z" fill="url(#paint7_linear)" fill-opacity="0.8"/>
<path d="M157.585 158.723C157.585 161.69 155.179 164.094 152.214 164.094C149.247 164.094 146.838 161.69 146.838 158.723C146.838 155.755 149.244 153.352 152.214 153.352C155.179 153.349 157.585 155.756 157.585 158.723Z" fill="url(#paint8_linear)"/>
<path d="M87.074 158.723C87.074 166.109 81.0864 172.097 73.7003 172.097C66.3142 172.097 60.332 166.109 60.332 158.723C60.332 151.337 66.3168 145.349 73.7003 145.349C81.0893 145.349 87.074 151.337 87.074 158.723Z" fill="#6E71FF"/>
<path d="M87.074 158.723C87.074 166.109 81.0864 172.097 73.7003 172.097C66.3142 172.097 60.332 166.109 60.332 158.723C60.332 151.337 66.3168 145.349 73.7003 145.349C81.0893 145.349 87.074 151.337 87.074 158.723Z" fill="url(#paint9_linear)" fill-opacity="0.8"/>
<path d="M79.0762 158.723C79.0762 161.69 76.6699 164.094 73.7054 164.094C70.738 164.094 68.3291 161.69 68.3291 158.723C68.3291 155.755 70.7354 153.352 73.7054 153.352C76.6699 153.349 79.0762 155.756 79.0762 158.723Z" fill="url(#paint10_linear)"/>
</g>
<defs>
<linearGradient id="paint0_linear" x1="21859" y1="1048.04" x2="21784.7" y2="2516.32" gradientUnits="userSpaceOnUse">
<stop stop-color="white" stop-opacity="0.27"/>
<stop offset="0.95" stop-color="white"/>
</linearGradient>
<linearGradient id="paint1_linear" x1="43224.8" y1="1935.98" x2="43078.2" y2="4834.29" gradientUnits="userSpaceOnUse">
<stop stop-color="white" stop-opacity="0.27"/>
<stop offset="0.95" stop-color="white"/>
</linearGradient>
<linearGradient id="paint2_linear" x1="152.128" y1="27.916" x2="152.128" y2="224.319" gradientUnits="userSpaceOnUse">
<stop stop-color="white"/>
<stop offset="1" stop-color="white" stop-opacity="0"/>
</linearGradient>
<linearGradient id="paint3_linear" x1="135.902" y1="103.415" x2="165.605" y2="200.243" gradientUnits="userSpaceOnUse">
<stop stop-color="white"/>
<stop offset="1" stop-color="white" stop-opacity="0"/>
</linearGradient>
<linearGradient id="paint4_linear" x1="129.491" y1="99.2283" x2="217.421" y2="166.223" gradientUnits="userSpaceOnUse">
<stop stop-color="white"/>
<stop offset="1" stop-color="white" stop-opacity="0"/>
</linearGradient>
<linearGradient id="paint5_linear" x1="85.1328" y1="100.929" x2="85.002" y2="118.856" gradientUnits="userSpaceOnUse">
<stop stop-color="white"/>
<stop offset="1" stop-color="white" stop-opacity="0"/>
</linearGradient>
<linearGradient id="paint6_linear" x1="109.995" y1="137.698" x2="109.995" y2="182.448" gradientUnits="userSpaceOnUse">
<stop/>
<stop offset="1" stop-opacity="0"/>
</linearGradient>
<linearGradient id="paint7_linear" x1="152.127" y1="140.446" x2="153.698" y2="192.654" gradientUnits="userSpaceOnUse">
<stop/>
<stop offset="1" stop-opacity="0"/>
</linearGradient>
<linearGradient id="paint8_linear" x1="152.127" y1="165.045" x2="152.127" y2="174.859" gradientUnits="userSpaceOnUse">
<stop stop-color="white"/>
<stop offset="1" stop-color="white" stop-opacity="0"/>
</linearGradient>
<linearGradient id="paint9_linear" x1="73.6186" y1="140.446" x2="75.1888" y2="192.654" gradientUnits="userSpaceOnUse">
<stop/>
<stop offset="1" stop-opacity="0"/>
</linearGradient>
<linearGradient id="paint10_linear" x1="73.6182" y1="165.045" x2="73.6182" y2="174.859" gradientUnits="userSpaceOnUse">
<stop stop-color="white"/>
<stop offset="1" stop-color="white" stop-opacity="0"/>
</linearGradient>
<clipPath id="clip0">
<rect width="208" height="208" fill="white"/>
</clipPath>
</defs>
</svg>
