<svg width="240" height="240" viewBox="0 0 240 240" fill="none" xmlns="http://www.w3.org/2000/svg">
<path opacity="0.18" d="M239.258 185.517C238.619 192.681 237.482 200.072 234.037 205.77C230.954 210.92 226.343 214.126 221.762 216.922C191.767 235.086 157.841 239.712 124.697 239.985C99.1636 240.213 72.9914 237.874 49.6128 224.693C27.0332 211.969 7.30047 187.469 1.73695 156.794C1.53572 155.715 1.36408 154.629 1.19836 153.527C-0.245791 143.598 -0.192524 133.327 0.357909 123.209C1.41735 103.746 4.60157 83.5308 14.2904 68.4665C22.8428 55.1494 35.3785 47.4235 46.7778 38.2239C56.6205 30.2777 65.818 20.9793 76.1224 14.0738C89.7352 4.95777 104.952 0.490888 120.246 0.0274871C146.714 -0.732186 168.932 14.4613 194.288 19.9993C220.845 25.7804 221.514 50.7661 224.082 80.5225C225.361 95.2146 230.658 108.752 234.262 122.798C239.435 142.997 241.139 164.393 239.258 185.517Z" fill="#6E71FF"/>
<mask id="mask0" mask-type="alpha" maskUnits="userSpaceOnUse" x="0" y="0" width="240" height="240">
<path d="M239.258 185.517C238.619 192.681 237.482 200.072 234.037 205.77C230.954 210.92 226.343 214.126 221.762 216.922C191.767 235.086 157.841 239.712 124.697 239.985C99.1636 240.213 72.9914 237.874 49.6128 224.693C27.0332 211.969 7.30047 187.469 1.73695 156.794C1.53572 155.715 1.36408 154.629 1.19836 153.527C-0.245791 143.598 -0.192524 133.327 0.357909 123.209C1.41735 103.746 4.60157 83.5308 14.2904 68.4665C22.8428 55.1494 35.3785 47.4235 46.7778 38.2239C56.6205 30.2777 65.818 20.9793 76.1224 14.0738C89.7352 4.95777 104.952 0.490888 120.246 0.0274871C146.714 -0.732186 168.932 14.4613 194.288 19.9993C220.845 25.7804 221.514 50.7661 224.082 80.5225C225.361 95.2146 230.658 108.752 234.262 122.798C239.435 142.997 241.139 164.393 239.258 185.517Z" fill="#6E71FF"/>
</mask>
<g mask="url(#mask0)">
<path opacity="0.37" d="M231.264 175.081C230.57 182.521 229.354 190.206 225.647 196.138C222.33 201.485 217.369 204.827 212.44 207.725C180.166 226.611 143.695 231.421 108.001 231.705C80.5287 231.95 52.3749 229.509 27.2205 215.805C2.9321 202.575 -18.3059 177.119 -24.292 145.201H231.653C232.311 155.153 232.181 165.16 231.264 175.081Z" fill="#6E71FF"/>
<path opacity="0.74" d="M57.1274 172.335C55.4354 174.174 53.7433 176.142 53.7433 178.303C53.7095 182.251 59.1974 185.161 64.6176 186.616C71.792 188.54 79.6149 189.002 87.3195 189.38C117.213 190.863 147.23 191.45 177.219 192.037C189.475 192.279 201.878 192.505 213.841 190.711C218.296 190.04 223.164 188.81 225.008 185.996C227.309 182.476 223.767 178.1 226.17 174.62C227.439 172.781 230.214 171.467 230.953 169.498C231.827 167.152 229.317 164.71 226.108 163.627C222.899 162.544 219.159 162.499 215.566 162.448C189.55 162.196 163.53 162.008 137.506 161.884L85.2326 161.579C79.818 161.551 67.9679 159.887 63.343 162.093C59.5584 163.875 59.705 169.515 57.1274 172.335Z" fill="#6E71FF"/>
<path d="M40.6274 147.569H66.4793V125.814H40.6274C37.7425 125.814 34.9758 126.96 32.9359 129C30.896 131.04 29.75 133.806 29.75 136.691C29.75 139.576 30.896 142.343 32.9359 144.383C34.9758 146.423 37.7425 147.569 40.6274 147.569Z" fill="#6E71FF"/>
<path d="M40.6274 147.569H66.4793V125.814H40.6274C37.7425 125.814 34.9758 126.96 32.9359 129C30.896 131.04 29.75 133.806 29.75 136.691C29.75 139.576 30.896 142.343 32.9359 144.383C34.9758 146.423 37.7425 147.569 40.6274 147.569Z" fill="url(#paint0_linear)"/>
<path d="M41.5696 169.613C35.9687 184.168 33.1007 199.631 33.1094 215.226L104.054 250.722L275.856 251.061L354.137 215.226C354.14 199.631 351.272 184.169 345.677 169.613H41.5696Z" fill="#6E71FF"/>
<path d="M41.5696 169.613C35.9687 184.168 33.1007 199.631 33.1094 215.226L104.054 250.722L275.856 251.061L354.137 215.226C354.14 199.631 351.272 184.169 345.677 169.613H41.5696Z" fill="url(#paint1_linear)"/>
<path d="M259.431 66H128.141C116.118 65.9993 104.393 69.7411 94.5932 76.7061C84.7933 83.6711 77.4044 93.5139 73.452 104.869L63.8799 132.34H323.729L314.144 104.869C310.192 93.509 302.8 83.6624 292.995 76.6968C283.19 69.7312 271.459 65.9925 259.431 66Z" fill="#6E71FF"/>
<path d="M311.171 132.341H72.5215L82.1903 104.192C85.247 95.344 90.9888 87.6701 98.615 82.2408C106.241 76.8115 115.372 73.8974 124.733 73.9048H260.737C270.552 73.9043 280.098 77.116 287.918 83.0497C295.737 88.9834 301.399 97.3129 304.041 106.767L311.171 132.341Z" fill="#3E3E54"/>
<path d="M311.171 132.341H72.5215L82.1903 104.192C85.247 95.344 90.9888 87.6701 98.615 82.2408C106.241 76.8115 115.372 73.8974 124.733 73.9048H260.737C270.552 73.9043 280.098 77.116 287.918 83.0497C295.737 88.9834 301.399 97.3129 304.041 106.767L311.171 132.341Z" fill="url(#paint2_linear)"/>
<path d="M41.5703 169.613C141.368 182.184 242.34 182.326 342.173 170.036L345.581 169.613C340.673 156.862 333.735 144.99 325.035 134.455L323.258 132.304H63.881L62.0923 134.455C53.4042 144.994 46.4744 156.866 41.5703 169.613Z" fill="#6E71FF"/>
<path d="M41.5703 169.613C141.368 182.184 242.34 182.326 342.173 170.036L345.581 169.613C340.673 156.862 333.735 144.99 325.035 134.455L323.258 132.304H63.881L62.0923 134.455C53.4042 144.994 46.4744 156.866 41.5703 169.613Z" fill="url(#paint3_linear)"/>
<path d="M356.253 239.821L354.089 215.263H350.633L318.399 224.617C294.789 231.48 270.326 234.963 245.738 234.963H137.956C113.368 234.963 88.9049 231.48 65.2947 224.617L33.0614 215.263L30.898 239.821C30.3801 245.72 31.0948 251.663 32.9968 257.271C34.8989 262.879 37.9466 268.03 41.9463 272.397C45.946 276.764 50.8103 280.251 56.2302 282.637C61.65 285.023 67.5068 286.255 73.4286 286.256H313.722C319.644 286.255 325.501 285.023 330.921 282.637C336.34 280.251 341.205 276.764 345.204 272.397C349.204 268.03 352.252 262.879 354.154 257.271C356.056 251.663 356.771 245.72 356.253 239.821Z" fill="#6E71FF"/>
<path d="M356.253 239.821L354.089 215.263H350.633L318.399 224.617C294.789 231.48 270.326 234.963 245.738 234.963H137.956C113.368 234.963 88.9049 231.48 65.2947 224.617L33.0614 215.263L30.898 239.821C30.3801 245.72 31.0948 251.663 32.9968 257.271C34.8989 262.879 37.9466 268.03 41.9463 272.397C45.946 276.764 50.8103 280.251 56.2302 282.637C61.65 285.023 67.5068 286.255 73.4286 286.256H313.722C319.644 286.255 325.501 285.023 330.921 282.637C336.34 280.251 341.205 276.764 345.204 272.397C349.204 268.03 352.252 262.879 354.154 257.271C356.056 251.663 356.771 245.72 356.253 239.821Z" fill="url(#paint4_linear)"/>
<path d="M193.575 182.738H129.266L142.089 219.673H193.575H245.049L257.885 182.738H193.575Z" fill="#6E71FF"/>
<path d="M193.575 182.738H129.266L142.089 219.673H193.575H245.049L257.885 182.738H193.575Z" fill="url(#paint5_linear)"/>
<path d="M193.575 185.664H133.979L145.86 216.749H193.575H241.291L253.171 185.664H193.575Z" fill="#6E71FF"/>
<path d="M193.575 185.664H133.979L145.86 216.749H193.575H241.291L253.171 185.664H193.575Z" fill="url(#paint6_linear)"/>
<path d="M252.688 189.217H133.979V193.109H252.688V189.217Z" fill="#6E71FF"/>
<path d="M252.688 189.217H133.979V193.109H252.688V189.217Z" fill="url(#paint7_linear)"/>
<path d="M249.377 199.26H137.823V203.151H249.377V199.26Z" fill="#6E71FF"/>
<path d="M249.377 199.26H137.823V203.151H249.377V199.26Z" fill="url(#paint8_linear)"/>
<path d="M245.146 209.304H140.542V213.196H245.146V209.304Z" fill="#6E71FF"/>
<path d="M245.146 209.304H140.542V213.196H245.146V209.304Z" fill="url(#paint9_linear)"/>
<path d="M263.807 177.13L311.172 132.34H72.5098L122.908 177.058C169.834 179.808 216.879 179.832 263.807 177.13Z" fill="#6E71FF"/>
<path d="M263.807 177.13L311.172 132.34H72.5098L122.908 177.058C169.834 179.808 216.879 179.832 263.807 177.13Z" fill="url(#paint10_linear)"/>
<path opacity="0.2" d="M59.3973 134.492H38.0897C37.3749 134.492 36.6894 134.208 36.1839 133.703C35.6785 133.197 35.3945 132.512 35.3945 131.797C35.3945 131.082 35.6785 130.396 36.1839 129.891C36.6894 129.386 37.3749 129.102 38.0897 129.102H59.3973C60.1121 129.102 60.7976 129.386 61.3031 129.891C61.8085 130.396 62.0925 131.082 62.0925 131.797C62.0925 132.512 61.8085 133.197 61.3031 133.703C60.7976 134.208 60.1121 134.492 59.3973 134.492Z" fill="white"/>
<path d="M120.275 183.017C120.275 183.017 58.2372 178.364 51.5053 180.938C44.7734 183.513 40.6279 206.319 40.6279 206.319L133.69 218.731L120.275 183.017Z" fill="#6E71FF"/>
<path d="M120.275 183.017C120.275 183.017 58.2372 178.364 51.5053 180.938C44.7734 183.513 40.6279 206.319 40.6279 206.319L133.69 218.731L120.275 183.017Z" fill="url(#paint11_linear)"/>
<path d="M168.062 132.34H102.568C102.723 132.093 102.897 131.859 103.088 131.639C104.897 129.601 106.813 127.66 108.829 125.826C110.601 124.011 112.586 122.417 114.739 121.076C119.344 118.393 124.541 118.091 129.859 117.45L130.632 117.366H131.176L132.493 117.184C135.848 116.717 139.242 116.6 142.621 116.834L143.83 116.918C146.663 117.164 149.472 117.637 152.23 118.332C155.839 119.085 159.236 120.629 162.176 122.853C165.065 125.27 166.564 128.557 167.978 131.724C168.037 131.814 168.075 131.916 168.089 132.022C168.104 132.129 168.095 132.238 168.062 132.34Z" fill="#6E71FF"/>
<path d="M168.062 132.34H102.568C102.723 132.093 102.897 131.859 103.088 131.639C104.897 129.601 106.813 127.66 108.829 125.826C110.601 124.011 112.586 122.417 114.739 121.076C119.344 118.393 124.541 118.091 129.859 117.45L130.632 117.366H131.176L132.493 117.184C135.848 116.717 139.242 116.6 142.621 116.834L143.83 116.918C146.663 117.164 149.472 117.637 152.23 118.332C155.839 119.085 159.236 120.629 162.176 122.853C165.065 125.27 166.564 128.557 167.978 131.724C168.037 131.814 168.075 131.916 168.089 132.022C168.104 132.129 168.095 132.238 168.062 132.34Z" fill="url(#paint12_linear)"/>
<path d="M130.111 122.272C130.711 123.201 131.611 123.897 132.662 124.242C135.142 125.031 137.758 125.302 140.348 125.04C141.22 125.079 142.088 124.887 142.862 124.484C143.252 124.154 143.563 123.74 143.772 123.274C143.981 122.807 144.083 122.3 144.071 121.789C144.286 119.167 143.872 116.532 142.862 114.102C142.732 113.7 142.488 113.343 142.161 113.075C141.821 112.873 141.442 112.746 141.049 112.7C138.632 112.253 133.254 111.492 131.284 113.425C129.858 114.864 129.205 120.592 130.111 122.272Z" fill="url(#paint13_linear)"/>
<path d="M133.473 122.042C134.645 122.719 135.975 123.075 137.328 123.075C138.682 123.075 140.012 122.719 141.184 122.042C141.712 121.754 142.161 121.339 142.489 120.834C142.859 120.043 142.982 119.158 142.84 118.296C142.875 117.412 142.572 116.547 141.994 115.878C141.453 115.454 140.812 115.175 140.132 115.069C138.05 114.582 135.9 114.455 133.775 114.694C132.821 114.727 131.898 115.047 131.128 115.613C130.886 115.921 130.717 116.28 130.635 116.664C130.554 117.047 130.561 117.444 130.657 117.824C130.78 118.694 131.097 119.524 131.584 120.254C132.072 120.985 132.717 121.596 133.473 122.042Z" fill="url(#paint14_linear)" fill-opacity="0.3"/>
<path d="M148.132 111.359C147.21 113.551 145.737 115.466 143.857 116.921C141.976 118.376 139.752 119.32 137.4 119.663C133.774 119.941 129.798 117.064 128.215 113.462C126.631 109.861 126.402 96.0224 126.402 96.0224C126.352 95.0918 126.565 94.166 127.018 93.3514C127.514 92.3482 128.432 89.3267 129.689 88.4445C135.476 87.1365 141.494 87.2526 147.226 88.7829C148.434 89.7014 149.039 92.6141 149.304 93.158C149.434 93.4834 149.52 93.8249 149.558 94.1732C150.042 97.509 149.824 107.033 148.132 111.359Z" fill="url(#paint15_linear)"/>
<path d="M126.232 99.72C125.849 99.4986 125.403 99.4117 124.965 99.473C124.527 99.5343 124.123 99.7404 123.815 100.058C123.586 100.453 123.497 100.912 123.561 101.364C123.56 101.814 123.6 102.263 123.682 102.705C124.009 103.923 124.695 105.014 125.652 105.835C125.891 106.069 126.164 106.264 126.462 106.416C126.778 106.569 127.14 106.599 127.477 106.5C127.716 106.392 127.922 106.223 128.077 106.012C128.232 105.8 128.329 105.552 128.359 105.292C128.566 104.183 128.453 103.039 128.033 101.992C127.703 101.055 127.069 100.256 126.232 99.72Z" fill="url(#paint16_linear)"/>
<path d="M150.271 99.5147C150.653 99.2939 151.098 99.2062 151.535 99.2652C151.972 99.3243 152.378 99.5268 152.688 99.841C152.919 100.235 153.013 100.694 152.954 101.146C152.951 101.597 152.907 102.046 152.821 102.488C152.494 103.706 151.808 104.797 150.851 105.618C150.618 105.859 150.344 106.056 150.041 106.198C149.726 106.356 149.364 106.39 149.026 106.295C148.778 106.179 148.565 106 148.41 105.774C148.255 105.549 148.163 105.287 148.143 105.014C147.935 103.904 148.052 102.758 148.482 101.714C148.819 100.804 149.448 100.03 150.271 99.5147Z" fill="url(#paint17_linear)"/>
<path d="M149.728 100.07C149.691 99.8459 149.642 99.624 149.583 99.4051C149.246 98.2167 148.797 97.0633 148.241 95.9606C147.359 94.0631 146.489 92.1898 145.618 90.2923C145.473 90.0022 145.34 89.7001 145.207 89.41C145.207 89.41 145.207 89.41 145.207 89.4946C145.065 89.6295 144.89 89.7253 144.7 89.7726C143.515 90.1644 142.303 90.4713 141.074 90.6911C139.458 90.8872 137.82 90.7889 136.24 90.4011C134.898 90.0627 133.52 89.0595 132.094 89.1079H131.889C131.198 89.1021 130.526 89.3274 129.978 89.7479C129.431 90.1684 129.04 90.7599 128.867 91.4284C128.578 94.5107 127.82 97.5308 126.619 100.384C125.084 99.4776 124.915 97.6768 124.903 96.1177C124.891 94.5586 124.903 92.8908 124.903 91.2834C124.846 90.5013 124.949 89.7159 125.205 88.9749C125.375 88.5735 125.644 88.2214 125.986 87.951C126.328 87.6807 126.733 87.5008 127.163 87.4279C127.9 87.3071 128.758 87.5246 129.387 87.1741C129.619 86.9977 129.809 86.7716 129.943 86.5123C130.077 86.253 130.151 85.9671 130.16 85.6755C130.297 84.5133 130.786 83.4209 131.562 82.5452C133.327 80.7444 136.675 80.6235 139.322 81.3366C141.968 82.0497 144.265 83.5242 146.875 84.3943C148.628 84.9866 150.658 85.3854 151.782 86.6544C152.313 87.3184 152.659 88.1104 152.785 88.9508C153.152 90.9147 153.067 92.9363 152.538 94.8627C152.008 96.789 151.047 98.5697 149.728 100.07Z" fill="#3E3E54"/>
<path d="M150.296 98.5467C150.129 98.8845 149.884 99.1783 149.583 99.4048C149.247 98.2165 148.798 97.063 148.242 95.9603L145.208 89.4097C145.806 89.0963 146.451 88.884 147.118 88.7813C148.015 88.6325 148.934 88.8408 149.68 89.3614C150.186 89.798 150.545 90.3806 150.707 91.0293C150.969 92.0558 151.095 93.1123 151.082 94.1716C151.256 95.6755 150.983 97.1973 150.296 98.5467Z" fill="url(#paint18_linear)"/>
<path d="M148.821 88.4683C147.662 88.8988 146.58 89.5152 145.618 90.2933C145.473 90.0032 145.34 89.7011 145.207 89.411C145.207 89.411 145.207 89.411 145.207 89.4956C145.065 89.6305 144.89 89.7263 144.7 89.7736C143.515 90.1654 142.303 90.4723 141.074 90.6921C139.458 90.8882 137.82 90.7899 136.24 90.4021C134.898 90.0637 133.52 89.0605 132.094 89.1089H131.889C131.889 88.9155 132.046 88.71 132.118 88.4925C132.807 86.5466 133.266 84.8667 135.817 84.2624C137.318 83.9397 138.882 84.0658 140.313 84.625C141.619 85.2738 142.993 85.7763 144.41 86.1236C145.291 86.1466 146.168 86.2436 147.032 86.4137C147.491 86.5571 147.902 86.8251 148.218 87.1878C148.533 87.5506 148.742 87.9938 148.821 88.4683Z" fill="#575776"/>
<path d="M135.43 119.13C125.991 119.13 118.05 124.774 115.947 132.34H120.383C122.377 126.817 128.372 122.804 135.43 122.804C142.488 122.804 148.495 126.817 150.501 132.34H154.949C152.822 124.774 144.869 119.13 135.43 119.13Z" fill="url(#paint19_linear)"/>
<path d="M123.876 123.856C124.817 124.571 125.655 125.413 126.365 126.358C126.479 126.458 126.567 126.584 126.624 126.724C126.68 126.865 126.704 127.016 126.692 127.167C126.619 127.494 126.232 127.651 125.906 127.723C125.17 127.881 124.407 127.856 123.682 127.651C123.939 127.867 124.115 128.164 124.183 128.493C124.251 128.821 124.207 129.163 124.057 129.464C123.888 129.756 123.625 129.982 123.311 130.105C122.997 130.228 122.651 130.241 122.329 130.141C122.459 130.298 122.553 130.481 122.606 130.678C122.658 130.875 122.668 131.081 122.633 131.281C122.599 131.482 122.521 131.673 122.406 131.842C122.291 132.01 122.141 132.151 121.966 132.256C121.221 132.637 120.379 132.784 119.549 132.679L115.597 132.582C115.021 132.625 114.446 132.485 113.953 132.183C113.633 131.911 113.419 131.534 113.349 131.12C113.197 129.859 113.469 128.583 114.122 127.494C114.587 126.264 115.308 125.148 116.237 124.218C117.297 123.334 118.617 122.82 119.996 122.754C121.374 122.689 122.737 123.076 123.876 123.856Z" fill="url(#paint20_linear)"/>
<path d="M150.211 127.965C149.274 128.308 148.442 128.887 147.793 129.645C147.573 129.921 147.446 130.259 147.431 130.612C147.419 130.787 147.456 130.962 147.537 131.117C147.618 131.273 147.74 131.403 147.89 131.494C148.482 131.832 149.232 131.325 149.896 131.494C149.83 131.668 149.832 131.86 149.901 132.033C149.971 132.205 150.103 132.345 150.271 132.425C150.613 132.574 150.989 132.628 151.359 132.582L155.649 132.449C155.882 132.472 156.116 132.416 156.314 132.292C156.429 132.174 156.504 132.024 156.53 131.861C156.556 131.699 156.531 131.533 156.459 131.385C156.169 130.587 155.251 130.177 154.985 129.318C154.719 128.46 154.985 126.829 153.534 126.623C152.531 126.49 151.081 127.554 150.211 127.965Z" fill="url(#paint21_linear)"/>
<path d="M124.734 73.9048L174.057 132.171L225.411 131.821L181.297 74.9442L124.734 73.9048Z" fill="url(#paint22_linear)"/>
</g>
<defs>
<linearGradient id="paint0_linear" x1="46.6825" y1="101.05" x2="50.2962" y2="177.058" gradientUnits="userSpaceOnUse">
<stop offset="0.01"/>
<stop offset="0.83" stop-opacity="0.07"/>
<stop offset="1" stop-opacity="0"/>
</linearGradient>
<linearGradient id="paint1_linear" x1="192.724" y1="72.0867" x2="185.802" y2="284.671" gradientUnits="userSpaceOnUse">
<stop offset="0.01"/>
<stop offset="0.83" stop-opacity="0.07"/>
<stop offset="1" stop-opacity="0"/>
</linearGradient>
<linearGradient id="paint2_linear" x1="346.641" y1="37.0051" x2="96.9414" y2="-91.6491" gradientUnits="userSpaceOnUse">
<stop offset="0.079127"/>
<stop offset="0.83" stop-opacity="0.07"/>
<stop offset="1" stop-opacity="0"/>
</linearGradient>
<linearGradient id="paint3_linear" x1="215.274" y1="-69.3681" x2="178.303" y2="111.93" gradientUnits="userSpaceOnUse">
<stop stop-opacity="0"/>
<stop offset="0.01"/>
<stop offset="0.83" stop-opacity="0.07"/>
</linearGradient>
<linearGradient id="paint4_linear" x1="180.876" y1="134.449" x2="185.225" y2="382.976" gradientUnits="userSpaceOnUse">
<stop offset="0.01"/>
<stop offset="0.83" stop-opacity="0.07"/>
<stop offset="1" stop-opacity="0"/>
</linearGradient>
<linearGradient id="paint5_linear" x1="339.857" y1="238.125" x2="194.563" y2="155.325" gradientUnits="userSpaceOnUse">
<stop offset="0.02" stop-color="white" stop-opacity="0"/>
<stop offset="0.58" stop-color="white" stop-opacity="0.39"/>
<stop offset="1" stop-color="white"/>
</linearGradient>
<linearGradient id="paint6_linear" x1="25393.1" y1="4857.14" x2="25417.4" y2="7161.56" gradientUnits="userSpaceOnUse">
<stop offset="0.01"/>
<stop offset="0.83" stop-opacity="0.07"/>
<stop offset="1" stop-opacity="0"/>
</linearGradient>
<linearGradient id="paint7_linear" x1="328.344" y1="195.053" x2="321.49" y2="160.838" gradientUnits="userSpaceOnUse">
<stop offset="0.02" stop-color="white" stop-opacity="0"/>
<stop offset="0.58" stop-color="white" stop-opacity="0.39"/>
<stop offset="1" stop-color="white"/>
</linearGradient>
<linearGradient id="paint8_linear" x1="320.473" y1="205.096" x2="313.216" y2="171.055" gradientUnits="userSpaceOnUse">
<stop offset="0.02" stop-color="white" stop-opacity="0"/>
<stop offset="0.58" stop-color="white" stop-opacity="0.39"/>
<stop offset="1" stop-color="white"/>
</linearGradient>
<linearGradient id="paint9_linear" x1="311.813" y1="215.14" x2="304.121" y2="181.301" gradientUnits="userSpaceOnUse">
<stop offset="0.02" stop-color="white" stop-opacity="0"/>
<stop offset="0.58" stop-color="white" stop-opacity="0.39"/>
<stop offset="1" stop-color="white"/>
</linearGradient>
<linearGradient id="paint10_linear" x1="214.248" y1="-23.2408" x2="176.005" y2="236.342" gradientUnits="userSpaceOnUse">
<stop offset="0.01"/>
<stop offset="0.83" stop-opacity="0.07"/>
<stop offset="1" stop-opacity="0"/>
</linearGradient>
<linearGradient id="paint11_linear" x1="193.001" y1="238" x2="72.5177" y2="190.425" gradientUnits="userSpaceOnUse">
<stop offset="0.02" stop-color="white" stop-opacity="0"/>
<stop offset="0.58" stop-color="white" stop-opacity="0.39"/>
<stop offset="1" stop-color="white"/>
</linearGradient>
<linearGradient id="paint12_linear" x1="142.688" y1="134.041" x2="142.931" y2="103.22" gradientUnits="userSpaceOnUse">
<stop stop-opacity="0"/>
<stop offset="0.639117" stop-opacity="0.75"/>
<stop offset="1"/>
</linearGradient>
<linearGradient id="paint13_linear" x1="129.695" y1="118.654" x2="144.136" y2="118.654" gradientUnits="userSpaceOnUse">
<stop stop-color="#E5C5D5"/>
<stop offset="0.42" stop-color="#EAD4D1"/>
<stop offset="1" stop-color="#F0E9CB"/>
</linearGradient>
<linearGradient id="paint14_linear" x1="136.917" y1="107.396" x2="127.458" y2="130.115" gradientUnits="userSpaceOnUse">
<stop offset="0.01" stop-opacity="0.53"/>
<stop offset="0.83" stop-opacity="0.07"/>
<stop offset="1" stop-opacity="0"/>
</linearGradient>
<linearGradient id="paint15_linear" x1="126.395" y1="103.614" x2="149.8" y2="103.614" gradientUnits="userSpaceOnUse">
<stop stop-color="#E5C5D5"/>
<stop offset="0.42" stop-color="#EAD4D1"/>
<stop offset="1" stop-color="#F0E9CB"/>
</linearGradient>
<linearGradient id="paint16_linear" x1="123.541" y1="103.006" x2="128.464" y2="103.006" gradientUnits="userSpaceOnUse">
<stop stop-color="#E5C5D5"/>
<stop offset="0.42" stop-color="#EAD4D1"/>
<stop offset="1" stop-color="#F0E9CB"/>
</linearGradient>
<linearGradient id="paint17_linear" x1="148.043" y1="102.798" x2="152.974" y2="102.798" gradientUnits="userSpaceOnUse">
<stop stop-color="#E5C5D5"/>
<stop offset="0.42" stop-color="#EAD4D1"/>
<stop offset="1" stop-color="#F0E9CB"/>
</linearGradient>
<linearGradient id="paint18_linear" x1="1257.12" y1="1319.25" x2="1174.04" y2="1325.28" gradientUnits="userSpaceOnUse">
<stop offset="0.01"/>
<stop offset="0.83" stop-opacity="0.07"/>
<stop offset="1" stop-opacity="0"/>
</linearGradient>
<linearGradient id="paint19_linear" x1="6707.99" y1="1727.05" x2="6693.82" y2="2675.44" gradientUnits="userSpaceOnUse">
<stop offset="0.01"/>
<stop offset="0.83" stop-opacity="0.07"/>
<stop offset="1" stop-opacity="0"/>
</linearGradient>
<linearGradient id="paint20_linear" x1="113.308" y1="127.73" x2="126.704" y2="127.73" gradientUnits="userSpaceOnUse">
<stop stop-color="#E5C5D5"/>
<stop offset="0.42" stop-color="#EAD4D1"/>
<stop offset="1" stop-color="#F0E9CB"/>
</linearGradient>
<linearGradient id="paint21_linear" x1="147.429" y1="129.605" x2="156.546" y2="129.605" gradientUnits="userSpaceOnUse">
<stop stop-color="#E5C5D5"/>
<stop offset="0.42" stop-color="#EAD4D1"/>
<stop offset="1" stop-color="#F0E9CB"/>
</linearGradient>
<linearGradient id="paint22_linear" x1="180.112" y1="29.6096" x2="155.892" y2="382.013" gradientUnits="userSpaceOnUse">
<stop offset="0.02" stop-color="white" stop-opacity="0"/>
<stop offset="0.39" stop-color="white" stop-opacity="0.39"/>
<stop offset="1" stop-color="white"/>
</linearGradient>
</defs>
</svg>
