<svg width="240" height="240" viewBox="0 0 240 240" fill="none" xmlns="http://www.w3.org/2000/svg">
<path opacity="0.18" d="M239.362 179.796C239.144 182.847 238.839 185.893 238.446 188.933C236.728 202.204 232.824 215.838 224.008 224.848C218.024 230.967 210.251 234.437 202.386 236.526C189.78 239.863 176.694 239.927 163.739 239.967C131.177 240.085 98.4321 240.178 66.1319 234.894C41.7443 230.908 14.0066 224.415 3.19773 195.431C1.80161 191.518 0.911412 187.4 0.554386 183.202C0.253412 180.283 0.118191 177.329 0.0614862 174.4C-0.326927 157.285 1.12601 140.18 4.38854 123.46C5.88469 115.773 7.80394 108.085 11.3415 101.303C16.9553 90.5336 26.1721 82.8956 34.896 75.179C47.6389 63.8998 59.8268 51.8466 71.4055 39.0728C84.9973 24.077 98.7549 7.40012 117.162 1.99846C130.475 -1.90411 144.538 0.671385 158.104 3.26654C174.134 6.33355 190.421 9.48902 205.051 17.4908C219.681 25.4925 232.693 39.1564 236.989 56.8113C238.913 64.7246 239.022 73.0311 239.118 81.2294L239.903 147.347C240.034 158.18 240.161 169.032 239.362 179.796Z" fill="#6E71FF"/>
<path d="M239 159.967C238.783 164.022 238.478 168.071 238.087 172.114C236.374 189.755 232.484 207.88 223.698 219.857C217.734 227.992 209.987 232.605 202.149 235.382C189.585 239.818 176.544 239.903 163.633 239.956C131.181 240.112 98.5466 240.236 66.3557 233.212C42.0505 227.913 14.4067 219.282 3.6344 180.751C2.24301 175.55 1.35582 170.075 1 164.495C38.1598 156.282 78.8582 160.457 115.883 159.314C141.236 158.529 166.595 158.094 191.959 158.007C207.635 157.961 223.389 158.098 239 159.967Z" fill="#6E71FF"/>
<path d="M239 159.967C238.783 164.022 238.478 168.071 238.087 172.114C236.374 189.755 232.484 207.88 223.698 219.857C217.734 227.992 209.987 232.605 202.149 235.382C189.585 239.818 176.544 239.903 163.633 239.956C131.181 240.112 98.5466 240.236 66.3557 233.212C42.0505 227.913 14.4067 219.282 3.6344 180.751C2.24301 175.55 1.35582 170.075 1 164.495C38.1598 156.282 78.8582 160.457 115.883 159.314C141.236 158.529 166.595 158.094 191.959 158.007C207.635 157.961 223.389 158.098 239 159.967Z" fill="url(#paint0_linear)"/>
<path d="M95.5294 216.088C98.622 216.088 98.6264 211.29 95.5294 211.29C92.4325 211.29 92.4281 216.088 95.5294 216.088Z" fill="url(#paint1_linear)"/>
<path d="M72.8086 137.614L15.6504 124.545L72.5862 147.14L72.8086 137.614Z" fill="#6E71FF"/>
<path d="M80.211 124.449L20.3789 96.04L78.1696 133.757L80.211 124.449Z" fill="#6E71FF"/>
<path d="M86.5833 104.995L35.7891 62.4885L82.2694 113.492L86.5833 104.995Z" fill="#6E71FF"/>
<path d="M113.252 99.5211L97.5977 35.1614L104.742 103.8L113.252 99.5211Z" fill="#6E71FF"/>
<path d="M148.225 99.7083L151.266 33.5471L138.852 101.427L148.225 99.7083Z" fill="#6E71FF"/>
<path d="M162.825 113.147L213.118 70.0476L155.157 107.499L162.825 113.147Z" fill="#6E71FF"/>
<path d="M154.07 147.794L227.027 118.652L159.911 134.708L154.07 147.794Z" fill="#6E71FF"/>
<path d="M57.8869 113.863C57.4194 112.641 57.2266 111.332 57.3224 110.028C57.4181 108.724 57.8 107.457 58.4409 106.317C58.8466 105.61 59.37 104.903 59.3613 104.088C59.295 103.556 59.1677 103.033 58.9818 102.531C58.7836 101.683 58.8681 100.793 59.2225 99.9978C59.5769 99.2024 60.1817 98.5447 60.9446 98.1251C59.5838 97.3897 58.4761 96.2615 57.7657 94.8875C57.0554 93.5135 56.7754 91.9574 56.9622 90.422C55.2829 90.121 53.5643 89.506 52.4564 88.1843C51.3485 86.8626 51.0868 84.6948 52.2601 83.4255C50.2973 82.3088 48.2428 81.105 47.0825 79.1377C45.9223 77.1705 46.0444 74.2175 47.9549 72.9962C47.1497 72.7141 46.4435 72.2048 45.9218 71.5297C45.4 70.8547 45.085 70.0429 45.015 69.1926C45.0271 68.6788 44.9818 68.1653 44.8798 67.6616C44.718 67.2387 44.4833 66.8474 44.1862 66.5057L36.6445 56.8049C40.523 58.5227 43.9421 61.1303 46.6245 64.4164C47.8459 65.9125 48.9233 67.5569 50.3932 68.8088C51.6538 69.8774 53.1717 70.632 54.284 71.8621C55.3963 73.0922 56.0026 75.0725 55.0343 76.4246C58.1399 77.2665 59.7146 81.5891 57.9044 84.276C59.3918 83.0024 61.8301 83.8704 62.9293 85.5105C64.0285 87.1505 64.1288 89.2442 64.1986 91.2245C64.7133 89.6935 66.9858 89.4798 68.1766 90.5615C69.3674 91.6433 69.6728 93.3968 69.6553 95.015C71.4001 92.6073 75.3258 92.3281 77.3541 94.4698C78.0547 94.0113 78.845 93.7072 79.6723 93.5778C80.4996 93.4485 81.345 93.4968 82.1522 93.7195C83.3604 94.0554 85.0615 94.5614 85.5283 93.3749C85.6285 93.0575 85.6465 92.7198 85.5806 92.3935C85.3538 90.6488 84.6515 88.9694 84.3767 87.2203C84.1019 85.4712 84.3767 83.456 85.6853 82.3132C85.9252 82.1082 86.2087 81.9119 86.2829 81.6066C86.2993 81.439 86.2806 81.2698 86.228 81.1099C86.1754 80.9499 86.0901 80.8027 85.9775 80.6775C85.284 79.6873 84.4596 78.7801 83.9667 77.6721C83.4738 76.5642 83.3778 75.1684 84.115 74.2132C84.3985 73.8511 84.8042 73.5371 84.8696 73.0747C84.935 72.6123 84.5686 72.1194 84.3505 71.6571C84.2174 71.3284 84.1559 70.9752 84.1701 70.6209C84.1842 70.2666 84.2737 69.9193 84.4326 69.6024C84.5915 69.2854 84.8162 69.0059 85.0916 68.7826C85.367 68.5592 85.6869 68.3972 86.0299 68.3072C85.5914 67.8625 85.3112 67.2861 85.2324 66.6667C85.1536 66.0472 85.2805 65.419 85.5937 64.8787C83.7748 52.9315 82.1434 38.5285 80.3245 26.5813C85.8249 44.513 91.4604 62.7414 101.807 78.2872C104.088 76.8565 107.543 79.3864 106.932 82.0471C105.824 79.2075 109.021 76.0103 111.979 76.5206C114.936 77.0309 116.938 80.1584 117.104 83.2117C121.828 78.1345 131.52 79.888 134.242 86.3087C134.713 81.0744 143.097 79.1944 145.67 83.7657L148.867 63.1558C149.221 60.8876 149.587 58.5758 150.586 56.517C151.484 54.6588 152.863 53.0842 153.818 51.2565C157.901 43.4487 154.293 31.5844 161.517 26.6729C158.244 45.5134 157.365 64.6918 158.9 83.7526C164.417 87.2901 166.934 95.0063 164.601 101.2C166.297 98.0771 171.462 97.9419 173.324 100.973C173.179 99.6613 173.446 98.3363 174.088 97.1831C174.731 96.0299 175.717 95.1059 176.91 94.5396C178.134 94.0489 179.483 93.9655 180.758 94.3018C182.034 94.638 183.166 95.376 183.989 96.4065C184.609 94.8624 185.298 93.2266 186.646 92.2845C187.993 91.3423 190.218 91.5081 190.894 93.026C191.072 92.5404 191.343 92.0947 191.693 91.7143C192.044 91.334 192.465 91.0266 192.935 90.8098C193.404 90.593 193.912 90.471 194.428 90.4508C194.945 90.4307 195.46 90.5128 195.945 90.6924C196.22 88.145 197.978 86.0557 199.653 84.1495L227.028 52.9228C220.763 61.5525 215.721 71.007 212.045 81.0177C210.858 84.2542 209.022 88.1669 205.633 88.1974C204.255 94.6792 201.197 101.392 195.348 104.301C197.245 108.633 194.663 114.373 190.205 115.734C191.753 119.258 190.009 123.895 186.55 125.461C194.624 133.312 196.368 146.398 192.63 157.111C188.892 167.824 180.456 176.295 170.956 182.214C150.891 194.719 125.204 196.931 103.085 188.839C84.2982 181.969 67.566 166.96 62.4102 147.305C59.4747 136.126 62.0264 124.637 57.8869 113.863Z" fill="#6E71FF"/>
<path d="M57.8869 113.863C57.4194 112.641 57.2266 111.332 57.3224 110.028C57.4181 108.724 57.8 107.457 58.4409 106.317C58.8466 105.61 59.37 104.903 59.3613 104.088C59.295 103.556 59.1677 103.033 58.9818 102.531C58.7836 101.683 58.8681 100.793 59.2225 99.9978C59.5769 99.2024 60.1817 98.5447 60.9446 98.1251C59.5838 97.3897 58.4761 96.2615 57.7657 94.8875C57.0554 93.5135 56.7754 91.9574 56.9622 90.422C55.2829 90.121 53.5643 89.506 52.4564 88.1843C51.3485 86.8626 51.0868 84.6948 52.2601 83.4255C50.2973 82.3088 48.2428 81.105 47.0825 79.1377C45.9223 77.1705 46.0444 74.2175 47.9549 72.9962C47.1497 72.7141 46.4435 72.2048 45.9218 71.5297C45.4 70.8547 45.085 70.0429 45.015 69.1926C45.0271 68.6788 44.9818 68.1653 44.8798 67.6616C44.718 67.2387 44.4833 66.8474 44.1862 66.5057L36.6445 56.8049C40.523 58.5227 43.9421 61.1303 46.6245 64.4164C47.8459 65.9125 48.9233 67.5569 50.3932 68.8088C51.6538 69.8774 53.1717 70.632 54.284 71.8621C55.3963 73.0922 56.0026 75.0725 55.0343 76.4246C58.1399 77.2665 59.7146 81.5891 57.9044 84.276C59.3918 83.0024 61.8301 83.8704 62.9293 85.5105C64.0285 87.1505 64.1288 89.2442 64.1986 91.2245C64.7133 89.6935 66.9858 89.4798 68.1766 90.5615C69.3674 91.6433 69.6728 93.3968 69.6553 95.015C71.4001 92.6073 75.3258 92.3281 77.3541 94.4698C78.0547 94.0113 78.845 93.7072 79.6723 93.5778C80.4996 93.4485 81.345 93.4968 82.1522 93.7195C83.3604 94.0554 85.0615 94.5614 85.5283 93.3749C85.6285 93.0575 85.6465 92.7198 85.5806 92.3935C85.3538 90.6488 84.6515 88.9694 84.3767 87.2203C84.1019 85.4712 84.3767 83.456 85.6853 82.3132C85.9252 82.1082 86.2087 81.9119 86.2829 81.6066C86.2993 81.439 86.2806 81.2698 86.228 81.1099C86.1754 80.9499 86.0901 80.8027 85.9775 80.6775C85.284 79.6873 84.4596 78.7801 83.9667 77.6721C83.4738 76.5642 83.3778 75.1684 84.115 74.2132C84.3985 73.8511 84.8042 73.5371 84.8696 73.0747C84.935 72.6123 84.5686 72.1194 84.3505 71.6571C84.2174 71.3284 84.1559 70.9752 84.1701 70.6209C84.1842 70.2666 84.2737 69.9193 84.4326 69.6024C84.5915 69.2854 84.8162 69.0059 85.0916 68.7826C85.367 68.5592 85.6869 68.3972 86.0299 68.3072C85.5914 67.8625 85.3112 67.2861 85.2324 66.6667C85.1536 66.0472 85.2805 65.419 85.5937 64.8787C83.7748 52.9315 82.1434 38.5285 80.3245 26.5813C85.8249 44.513 91.4604 62.7414 101.807 78.2872C104.088 76.8565 107.543 79.3864 106.932 82.0471C105.824 79.2075 109.021 76.0103 111.979 76.5206C114.936 77.0309 116.938 80.1584 117.104 83.2117C121.828 78.1345 131.52 79.888 134.242 86.3087C134.713 81.0744 143.097 79.1944 145.67 83.7657L148.867 63.1558C149.221 60.8876 149.587 58.5758 150.586 56.517C151.484 54.6588 152.863 53.0842 153.818 51.2565C157.901 43.4487 154.293 31.5844 161.517 26.6729C158.244 45.5134 157.365 64.6918 158.9 83.7526C164.417 87.2901 166.934 95.0063 164.601 101.2C166.297 98.0771 171.462 97.9419 173.324 100.973C173.179 99.6613 173.446 98.3363 174.088 97.1831C174.731 96.0299 175.717 95.1059 176.91 94.5396C178.134 94.0489 179.483 93.9655 180.758 94.3018C182.034 94.638 183.166 95.376 183.989 96.4065C184.609 94.8624 185.298 93.2266 186.646 92.2845C187.993 91.3423 190.218 91.5081 190.894 93.026C191.072 92.5404 191.343 92.0947 191.693 91.7143C192.044 91.334 192.465 91.0266 192.935 90.8098C193.404 90.593 193.912 90.471 194.428 90.4508C194.945 90.4307 195.46 90.5128 195.945 90.6924C196.22 88.145 197.978 86.0557 199.653 84.1495L227.028 52.9228C220.763 61.5525 215.721 71.007 212.045 81.0177C210.858 84.2542 209.022 88.1669 205.633 88.1974C204.255 94.6792 201.197 101.392 195.348 104.301C197.245 108.633 194.663 114.373 190.205 115.734C191.753 119.258 190.009 123.895 186.55 125.461C194.624 133.312 196.368 146.398 192.63 157.111C188.892 167.824 180.456 176.295 170.956 182.214C150.891 194.719 125.204 196.931 103.085 188.839C84.2982 181.969 67.566 166.96 62.4102 147.305C59.4747 136.126 62.0264 124.637 57.8869 113.863Z" fill="url(#paint2_linear)"/>
<path d="M55.2692 129.042C50.5191 122.892 53.2235 112.423 60.3159 109.47C61.1883 109.117 62.0869 108.842 62.7673 108.21C63.5263 107.512 63.884 106.465 64.342 105.553C65.1708 103.905 66.3971 102.489 67.9104 101.434C69.4236 100.378 71.1759 99.7163 73.009 99.5079C74.1693 99.3944 75.4037 99.4512 76.4201 98.8667C77.3535 98.3345 77.9336 97.3531 78.5138 96.4371C86.4742 83.853 102.308 77.0092 116.715 79.923C121.714 74.0955 131.066 72.8174 137.391 77.0964C139.449 75.0343 142.074 73.6309 144.933 73.0647C147.791 72.4985 150.753 72.795 153.442 73.9166C158.759 76.2459 162.402 82.0777 162.223 87.975C167.562 87.5388 172.539 93.0653 171.662 98.4436C173.396 97.7029 175.29 97.4124 177.167 97.5993C179.043 97.7861 180.842 98.4441 182.397 99.5122C183.945 100.629 185.195 102.108 186.038 103.821C186.88 105.534 187.29 107.427 187.23 109.335C189.943 108.162 192.922 110.413 194.579 112.894C196.39 115.674 197.496 118.853 197.8 122.157C198.104 125.46 197.597 128.788 196.324 131.851C195.452 133.893 194.217 135.821 193.847 138.019C193.563 139.707 193.807 141.43 193.956 143.135C194.461 148.919 193.869 154.745 192.211 160.308C190.745 165.189 188.385 169.904 184.674 173.342C179.692 177.935 172.857 179.727 166.253 180.984C145.168 184.997 123.04 185.014 102.609 178.367C91.6777 174.785 81.4258 169.393 72.2806 162.415C67.9187 159.083 64.089 155.078 59.5875 151.947C58.2222 151 56.6258 150.154 55.9977 148.492C55.7153 147.59 55.6643 146.631 55.8494 145.705C56.1067 143.812 56.399 143.96 55.6662 142.429C53.5245 137.98 51.2039 133.557 55.2692 129.042Z" fill="#6E71FF"/>
<path d="M55.2692 129.042C50.5191 122.892 53.2235 112.423 60.3159 109.47C61.1883 109.117 62.0869 108.842 62.7673 108.21C63.5263 107.512 63.884 106.465 64.342 105.553C65.1708 103.905 66.3971 102.489 67.9104 101.434C69.4236 100.378 71.1759 99.7163 73.009 99.5079C74.1693 99.3944 75.4037 99.4512 76.4201 98.8667C77.3535 98.3345 77.9336 97.3531 78.5138 96.4371C86.4742 83.853 102.308 77.0092 116.715 79.923C121.714 74.0955 131.066 72.8174 137.391 77.0964C139.449 75.0343 142.074 73.6309 144.933 73.0647C147.791 72.4985 150.753 72.795 153.442 73.9166C158.759 76.2459 162.402 82.0777 162.223 87.975C167.562 87.5388 172.539 93.0653 171.662 98.4436C173.396 97.7029 175.29 97.4124 177.167 97.5993C179.043 97.7861 180.842 98.4441 182.397 99.5122C183.945 100.629 185.195 102.108 186.038 103.821C186.88 105.534 187.29 107.427 187.23 109.335C189.943 108.162 192.922 110.413 194.579 112.894C196.39 115.674 197.496 118.853 197.8 122.157C198.104 125.46 197.597 128.788 196.324 131.851C195.452 133.893 194.217 135.821 193.847 138.019C193.563 139.707 193.807 141.43 193.956 143.135C194.461 148.919 193.869 154.745 192.211 160.308C190.745 165.189 188.385 169.904 184.674 173.342C179.692 177.935 172.857 179.727 166.253 180.984C145.168 184.997 123.04 185.014 102.609 178.367C91.6777 174.785 81.4258 169.393 72.2806 162.415C67.9187 159.083 64.089 155.078 59.5875 151.947C58.2222 151 56.6258 150.154 55.9977 148.492C55.7153 147.59 55.6643 146.631 55.8494 145.705C56.1067 143.812 56.399 143.96 55.6662 142.429C53.5245 137.98 51.2039 133.557 55.2692 129.042Z" fill="url(#paint3_linear)"/>
<path d="M57.3933 135.882C52.8526 130.015 55.4392 119.996 62.2219 117.169C63.0376 116.829 63.9143 116.567 64.5686 115.965C65.2927 115.298 65.6329 114.312 66.0735 113.422C66.8663 111.846 68.0391 110.493 69.486 109.484C70.9329 108.475 72.6084 107.842 74.3611 107.643C75.4733 107.534 76.651 107.59 77.6237 107.032C78.4961 106.522 79.0719 105.584 79.6259 104.707C87.2374 92.6771 102.373 86.1342 116.152 88.9171C120.929 83.347 129.87 82.1256 135.916 86.2171C137.882 84.2426 140.391 82.8979 143.124 82.3541C145.856 81.8104 148.689 82.0922 151.261 83.1638C156.347 85.3927 159.828 90.9628 159.658 96.6028C164.761 96.1927 169.52 101.471 168.683 106.635C170.341 105.927 172.151 105.649 173.945 105.828C175.74 106.006 177.46 106.635 178.946 107.656C180.426 108.724 181.62 110.139 182.427 111.776C183.233 113.413 183.625 115.223 183.57 117.047C186.161 115.926 189.009 118.076 190.592 120.449C192.323 123.111 193.377 126.156 193.663 129.319C193.949 132.481 193.458 135.665 192.232 138.595C191.395 140.549 190.222 142.394 189.868 144.492C189.598 146.106 189.829 147.755 189.973 149.386C190.456 154.908 189.89 160.471 188.307 165.782C186.907 170.45 184.651 174.968 181.101 178.24C176.338 182.632 169.804 184.347 163.492 185.55C143.331 189.385 122.176 189.402 102.639 183.034C92.1961 179.608 82.4016 174.455 73.6631 167.789C69.4845 164.605 65.8117 160.775 61.524 157.783C60.2154 156.875 58.6931 156.068 58.0912 154.481C57.8228 153.618 57.7748 152.702 57.9516 151.816C58.1959 150.005 58.4794 150.145 57.7771 148.684C55.727 144.427 53.5243 140.195 57.3933 135.882Z" fill="url(#paint4_linear)"/>
<path d="M108.244 82.8978C104.907 78.3004 98.4169 76.403 93.1957 78.501C87.9745 80.5991 84.4938 86.4964 85.1262 92.1756C79.8571 92.2715 75.1855 97.3618 75.4428 102.727C69.3362 104.166 63.3866 107.73 60.4946 113.414C57.6027 119.097 58.619 126.997 63.7442 130.7C58.3325 128.655 52.7647 127.051 47.0949 125.902C51.6538 128.822 55.9038 132.198 59.7793 135.978C57.7907 136.091 55.7959 135.93 53.8515 135.498L59.3736 140.296L52.255 139.903L58.257 144.396L42.6807 143.393C47.0682 145.718 51.7075 147.532 56.5079 148.802C55.0591 150.423 54.0857 152.412 53.6947 154.551C53.3038 156.689 53.5105 158.895 54.292 160.923C55.1134 162.914 56.4801 164.632 58.2349 165.88C59.9897 167.127 62.0612 167.854 64.211 167.977C59.3475 173.263 60.2024 182.301 64.7824 187.845C69.3624 193.389 76.6903 195.875 83.7828 196.364C90.8752 196.852 97.9633 195.609 105.047 194.981C115.952 194.021 126.904 194.545 137.84 194.728C146.681 194.889 156.086 194.684 163.509 189.79C164.268 189.213 165.105 188.747 165.996 188.408C167.61 187.923 169.319 188.482 170.99 188.669C172.996 188.865 175.018 188.536 176.857 187.713C178.697 186.89 180.29 185.602 181.48 183.976C182.652 182.304 183.381 180.363 183.601 178.334C183.821 176.305 183.523 174.253 182.737 172.369C185.153 171.414 186.414 168.199 185.306 165.826C188.97 164.666 192.259 161.975 193.681 158.337C195.103 154.699 194.379 150.163 191.552 147.515C192.942 146.94 194.155 146.008 195.069 144.813C195.983 143.618 196.565 142.202 196.756 140.71C196.919 139.21 196.686 137.693 196.08 136.311C195.473 134.928 194.515 133.729 193.301 132.833C194.592 131.5 195.467 129.82 195.819 127.998C196.171 126.177 195.986 124.292 195.286 122.574C194.542 120.896 193.315 119.477 191.761 118.501C190.207 117.524 188.397 117.033 186.562 117.091C186.767 115.362 186.447 113.612 185.643 112.067C184.839 110.523 183.59 109.257 182.056 108.432C180.505 107.686 178.76 107.437 177.062 107.721C175.363 108.004 173.794 108.806 172.569 110.016C169.738 104.725 161.128 104.262 157.769 109.222C157.145 108.631 156.348 108.255 155.495 108.149C154.642 108.043 153.778 108.213 153.028 108.633C154.415 104.363 151.13 99.2113 146.734 98.7751C149.551 97.1481 149.325 92.5376 146.987 90.2563C144.649 87.9751 141.124 87.5301 137.892 87.6392C137.919 86.3415 137.509 85.0724 136.728 84.0354C135.948 82.9985 134.841 82.2538 133.587 81.9208C132.321 81.67 131.007 81.8588 129.862 82.4561C128.718 83.0533 127.811 84.0231 127.293 85.2053C122.495 80.272 114.085 79.5697 108.537 83.6437C108.136 82.3555 108.069 80.9864 108.345 79.6657" fill="#6E71FF"/>
<path d="M108.244 82.8978C104.907 78.3004 98.4169 76.403 93.1957 78.501C87.9745 80.5991 84.4938 86.4964 85.1262 92.1756C79.8571 92.2715 75.1855 97.3618 75.4428 102.727C69.3362 104.166 63.3866 107.73 60.4946 113.414C57.6027 119.097 58.619 126.997 63.7442 130.7C58.3325 128.655 52.7647 127.051 47.0949 125.902C51.6538 128.822 55.9038 132.198 59.7793 135.978C57.7907 136.091 55.7959 135.93 53.8515 135.498L59.3736 140.296L52.255 139.903L58.257 144.396L42.6807 143.393C47.0682 145.718 51.7075 147.532 56.5079 148.802C55.0591 150.423 54.0857 152.412 53.6947 154.551C53.3038 156.689 53.5105 158.895 54.292 160.923C55.1134 162.914 56.4801 164.632 58.2349 165.88C59.9897 167.127 62.0612 167.854 64.211 167.977C59.3475 173.263 60.2024 182.301 64.7824 187.845C69.3624 193.389 76.6903 195.875 83.7828 196.364C90.8752 196.852 97.9633 195.609 105.047 194.981C115.952 194.021 126.904 194.545 137.84 194.728C146.681 194.889 156.086 194.684 163.509 189.79C164.268 189.213 165.105 188.747 165.996 188.408C167.61 187.923 169.319 188.482 170.99 188.669C172.996 188.865 175.018 188.536 176.857 187.713C178.697 186.89 180.29 185.602 181.48 183.976C182.652 182.304 183.381 180.363 183.601 178.334C183.821 176.305 183.523 174.253 182.737 172.369C185.153 171.414 186.414 168.199 185.306 165.826C188.97 164.666 192.259 161.975 193.681 158.337C195.103 154.699 194.379 150.163 191.552 147.515C192.942 146.94 194.155 146.008 195.069 144.813C195.983 143.618 196.565 142.202 196.756 140.71C196.919 139.21 196.686 137.693 196.08 136.311C195.473 134.928 194.515 133.729 193.301 132.833C194.592 131.5 195.467 129.82 195.819 127.998C196.171 126.177 195.986 124.292 195.286 122.574C194.542 120.896 193.315 119.477 191.761 118.501C190.207 117.524 188.397 117.033 186.562 117.091C186.767 115.362 186.447 113.612 185.643 112.067C184.839 110.523 183.59 109.257 182.056 108.432C180.505 107.686 178.76 107.437 177.062 107.721C175.363 108.004 173.794 108.806 172.569 110.016C169.738 104.725 161.128 104.262 157.769 109.222C157.145 108.631 156.348 108.255 155.495 108.149C154.642 108.043 153.778 108.213 153.028 108.633C154.415 104.363 151.13 99.2113 146.734 98.7751C149.551 97.1481 149.325 92.5376 146.987 90.2563C144.649 87.9751 141.124 87.5301 137.892 87.6392C137.919 86.3415 137.509 85.0724 136.728 84.0354C135.948 82.9985 134.841 82.2538 133.587 81.9208C132.321 81.67 131.007 81.8588 129.862 82.4561C128.718 83.0533 127.811 84.0231 127.293 85.2053C122.495 80.272 114.085 79.5697 108.537 83.6437C108.136 82.3555 108.069 80.9864 108.345 79.6657" fill="url(#paint5_linear)"/>
<path d="M108.974 90.7841C105.837 86.4658 99.7351 84.6774 94.8323 86.6534C89.9296 88.6293 86.6756 94.1645 87.2514 99.5035C82.3006 99.5907 77.9082 104.376 78.1524 109.414C72.3991 110.766 66.8115 114.116 64.1072 119.446C61.4028 124.776 62.3624 132.213 67.1605 135.685C62.0745 133.766 56.8422 132.259 51.5144 131.18C55.7979 133.923 59.792 137.095 63.4354 140.645C61.5675 140.755 59.6932 140.609 57.8653 140.209L63.0516 144.701L56.3648 144.318L62.0047 148.536L47.3662 147.62C51.4899 149.803 55.8495 151.508 60.3603 152.701C58.9984 154.224 58.0834 156.093 57.7163 158.103C57.3491 160.112 57.5441 162.184 58.2797 164.09C59.0525 165.96 60.3371 167.574 61.986 168.747C63.6348 169.92 65.581 170.604 67.601 170.72C63.0298 175.684 63.8324 184.177 68.1375 189.385C72.4427 194.593 79.3258 196.931 85.9908 197.389C92.6557 197.847 99.312 196.678 105.968 196.08C116.206 195.177 126.508 195.644 136.781 195.84C145.068 195.989 153.923 195.801 160.898 191.199C161.609 190.652 162.397 190.211 163.236 189.891C164.749 189.454 166.359 189.96 167.929 190.139C169.813 190.323 171.712 190.012 173.44 189.239C175.167 188.466 176.664 187.256 177.782 185.729C178.882 184.159 179.567 182.335 179.774 180.429C179.981 178.522 179.702 176.595 178.964 174.825C181.233 173.926 182.419 170.899 181.377 168.661C184.823 167.571 187.919 165.045 189.228 161.63C190.537 158.215 189.887 153.944 187.23 151.458C188.536 150.918 189.676 150.041 190.534 148.918C191.392 147.795 191.938 146.465 192.116 145.063C192.272 143.652 192.055 142.224 191.486 140.923C190.918 139.621 190.017 138.492 188.875 137.648C190.085 136.395 190.904 134.816 191.232 133.106C191.561 131.395 191.384 129.625 190.724 128.013C190.02 126.444 188.867 125.12 187.409 124.208C185.951 123.296 184.255 122.838 182.537 122.892C182.729 121.268 182.429 119.624 181.674 118.173C180.92 116.722 179.746 115.532 178.306 114.757C176.848 114.056 175.208 113.823 173.612 114.089C172.017 114.355 170.542 115.108 169.39 116.244C166.729 111.276 158.642 110.84 155.484 115.499C154.898 114.944 154.149 114.591 153.348 114.492C152.547 114.393 151.735 114.553 151.031 114.949C152.34 110.936 149.247 106.094 145.116 105.684C147.764 104.153 147.55 99.8219 145.352 97.6802C143.153 95.5385 139.847 95.1154 136.807 95.2332C136.833 94.0138 136.448 92.8211 135.715 91.8465C134.982 90.8719 133.942 90.172 132.763 89.8593C131.573 89.625 130.339 89.8032 129.264 90.3646C128.188 90.926 127.337 91.8371 126.849 92.9476C122.334 88.3109 114.439 87.6522 109.244 91.4776C108.865 90.2675 108.802 88.9808 109.061 87.7395" fill="url(#paint6_linear)"/>
<path d="M90.069 148.841L52.5088 140.252L89.9207 155.1L90.069 148.841Z" fill="url(#paint7_linear)" fill-opacity="0.5"/>
<path d="M94.9324 140.191L55.6143 121.522L93.5889 146.307L94.9324 140.191Z" fill="url(#paint8_linear)" fill-opacity="0.5"/>
<path d="M99.1198 127.406L65.7383 99.4773L96.2846 132.99L99.1198 127.406Z" fill="url(#paint9_linear)" fill-opacity="0.5"/>
<path d="M116.645 123.808L106.355 81.5151L111.049 126.621L116.645 123.808Z" fill="url(#paint10_linear)" fill-opacity="0.5"/>
<path d="M139.624 123.934L141.622 80.4551L133.465 125.06L139.624 123.934Z" fill="url(#paint11_linear)" fill-opacity="0.5"/>
<path d="M149.216 132.763L182.266 104.441L144.178 129.051L149.216 132.763Z" fill="url(#paint12_linear)" fill-opacity="0.5"/>
<path d="M143.467 155.528L191.404 136.383L147.301 146.93L143.467 155.528Z" fill="url(#paint13_linear)" fill-opacity="0.5"/>
<path d="M61.4326 177.276C60.4119 170.541 63.3998 163.318 68.8478 159.392C68.0177 157.489 67.726 155.395 68.0044 153.337C68.2829 151.28 69.1208 149.338 70.4268 147.724C70.9415 147.109 71.5566 146.481 71.6176 145.674C71.5976 145.064 71.4379 144.467 71.1509 143.929C70.5011 142.271 70.2933 140.473 70.548 138.71C70.8026 136.948 71.5109 135.281 72.6034 133.875C73.7132 132.512 75.1681 131.471 76.8168 130.861C78.4654 130.251 80.2474 130.095 81.9771 130.407C80.0143 128.663 79.9881 125.125 81.9248 123.341C83.8615 121.557 87.2986 121.932 88.8166 124.096C89.4868 123.008 90.4865 122.163 91.6703 121.683C92.8541 121.203 94.1603 121.113 95.3987 121.426C96.627 121.808 97.7049 122.565 98.481 123.59C99.2571 124.616 99.6924 125.859 99.7257 127.145C99.9534 126.188 100.473 125.326 101.211 124.678C101.95 124.029 102.872 123.626 103.85 123.524C104.828 123.422 105.813 123.626 106.67 124.108C107.527 124.591 108.212 125.327 108.633 126.216C109.479 124.169 110.919 122.422 112.767 121.201C114.615 119.98 116.786 119.34 119 119.363C121.215 119.387 123.372 120.073 125.194 121.333C127.015 122.593 128.418 124.369 129.221 126.434C129.831 125.429 130.748 124.648 131.837 124.206C132.926 123.764 134.129 123.686 135.266 123.982C135.297 121.095 138.677 118.835 141.29 119.948C140.898 118.308 141.953 116.576 143.406 115.76C144.858 114.944 146.603 114.888 148.252 115.045C151.148 115.324 154.07 116.297 156.199 118.321C158.328 120.345 159.505 123.555 158.668 126.381C162.376 123.376 168.408 125.574 170.689 129.805C172.971 134.036 172.273 139.349 170.449 143.807C172.029 145.185 173.236 146.939 173.958 148.907C174.68 150.874 174.894 152.993 174.58 155.065C174.233 157.123 173.368 159.058 172.066 160.689C170.764 162.32 169.068 163.592 167.139 164.387C168.076 165.189 168.792 166.219 169.218 167.378C169.645 168.536 169.766 169.785 169.573 171.004C169.359 172.214 168.835 173.349 168.052 174.297C167.27 175.245 166.254 175.973 165.106 176.412C165.664 177.307 165.975 178.334 166.009 179.387C166.042 180.441 165.797 181.485 165.298 182.414C164.786 183.323 164.036 184.076 163.13 184.592C162.223 185.108 161.194 185.369 160.151 185.345C161.569 186.043 162.114 187.936 161.713 189.489C161.311 191.042 160.199 192.294 159.004 193.341C153.669 198.021 146.468 199.757 139.493 200.725C120.68 203.343 101.523 201.406 82.8364 197.999C79.3905 197.371 78.0078 196.154 75.696 193.637C74.1606 191.962 72.5816 191.661 70.6537 190.641C65.8076 188.063 62.2483 182.741 61.4326 177.276Z" fill="#6E71FF"/>
<path d="M61.4326 177.276C60.4119 170.541 63.3998 163.318 68.8478 159.392C68.0177 157.489 67.726 155.395 68.0044 153.337C68.2829 151.28 69.1208 149.338 70.4268 147.724C70.9415 147.109 71.5566 146.481 71.6176 145.674C71.5976 145.064 71.4379 144.467 71.1509 143.929C70.5011 142.271 70.2933 140.473 70.548 138.71C70.8026 136.948 71.5109 135.281 72.6034 133.875C73.7132 132.512 75.1681 131.471 76.8168 130.861C78.4654 130.251 80.2474 130.095 81.9771 130.407C80.0143 128.663 79.9881 125.125 81.9248 123.341C83.8615 121.557 87.2986 121.932 88.8166 124.096C89.4868 123.008 90.4865 122.163 91.6703 121.683C92.8541 121.203 94.1603 121.113 95.3987 121.426C96.627 121.808 97.7049 122.565 98.481 123.59C99.2571 124.616 99.6924 125.859 99.7257 127.145C99.9534 126.188 100.473 125.326 101.211 124.678C101.95 124.029 102.872 123.626 103.85 123.524C104.828 123.422 105.813 123.626 106.67 124.108C107.527 124.591 108.212 125.327 108.633 126.216C109.479 124.169 110.919 122.422 112.767 121.201C114.615 119.98 116.786 119.34 119 119.363C121.215 119.387 123.372 120.073 125.194 121.333C127.015 122.593 128.418 124.369 129.221 126.434C129.831 125.429 130.748 124.648 131.837 124.206C132.926 123.764 134.129 123.686 135.266 123.982C135.297 121.095 138.677 118.835 141.29 119.948C140.898 118.308 141.953 116.576 143.406 115.76C144.858 114.944 146.603 114.888 148.252 115.045C151.148 115.324 154.07 116.297 156.199 118.321C158.328 120.345 159.505 123.555 158.668 126.381C162.376 123.376 168.408 125.574 170.689 129.805C172.971 134.036 172.273 139.349 170.449 143.807C172.029 145.185 173.236 146.939 173.958 148.907C174.68 150.874 174.894 152.993 174.58 155.065C174.233 157.123 173.368 159.058 172.066 160.689C170.764 162.32 169.068 163.592 167.139 164.387C168.076 165.189 168.792 166.219 169.218 167.378C169.645 168.536 169.766 169.785 169.573 171.004C169.359 172.214 168.835 173.349 168.052 174.297C167.27 175.245 166.254 175.973 165.106 176.412C165.664 177.307 165.975 178.334 166.009 179.387C166.042 180.441 165.797 181.485 165.298 182.414C164.786 183.323 164.036 184.076 163.13 184.592C162.223 185.108 161.194 185.369 160.151 185.345C161.569 186.043 162.114 187.936 161.713 189.489C161.311 191.042 160.199 192.294 159.004 193.341C153.669 198.021 146.468 199.757 139.493 200.725C120.68 203.343 101.523 201.406 82.8364 197.999C79.3905 197.371 78.0078 196.154 75.696 193.637C74.1606 191.962 72.5816 191.661 70.6537 190.641C65.8076 188.063 62.2483 182.741 61.4326 177.276Z" fill="url(#paint14_linear)"/>
<path d="M72.5554 181.271C72.1669 178.508 72.526 175.691 73.5954 173.114C74.6647 170.536 76.4053 168.292 78.6358 166.615C77.957 165.054 77.72 163.336 77.9508 161.649C78.1815 159.963 78.8712 158.372 79.9444 157.05C80.3806 156.548 80.8735 156.034 80.9215 155.375C80.9039 154.878 80.7726 154.391 80.5376 153.953C80.0057 152.594 79.8358 151.12 80.0445 149.676C80.2532 148.231 80.8335 146.866 81.7284 145.713C82.6372 144.595 83.8294 143.742 85.1806 143.243C86.5318 142.743 87.9924 142.616 89.4097 142.874C89.0265 142.496 88.7213 142.047 88.5117 141.552C88.3021 141.056 88.1922 140.524 88.1881 139.986C88.1841 139.449 88.286 138.915 88.4881 138.417C88.6902 137.918 88.9886 137.464 89.3661 137.081C89.7729 136.735 90.246 136.476 90.7565 136.32C91.2669 136.163 91.8039 136.112 92.3347 136.17C92.8655 136.228 93.3788 136.394 93.8434 136.657C94.308 136.92 94.714 137.275 95.0366 137.701C95.5863 136.811 96.4055 136.119 97.3751 135.727C98.3447 135.335 99.4141 135.262 100.428 135.52C101.434 135.832 102.318 136.452 102.954 137.292C103.59 138.132 103.947 139.151 103.974 140.204C104.161 139.421 104.587 138.714 105.193 138.183C105.799 137.652 106.555 137.322 107.356 137.238C108.158 137.155 108.965 137.323 109.667 137.718C110.369 138.113 110.931 138.717 111.276 139.445C111.968 137.767 113.147 136.335 114.661 135.334C116.175 134.332 117.954 133.807 119.769 133.826C121.584 133.845 123.351 134.407 124.844 135.439C126.337 136.472 127.486 137.928 128.143 139.62C128.644 138.797 129.396 138.158 130.289 137.796C131.181 137.435 132.167 137.371 133.098 137.613C133.125 135.249 135.894 133.395 138.032 134.307C137.713 132.963 138.581 131.542 139.776 130.879C140.972 130.215 142.394 130.159 143.75 130.29C146.123 130.521 148.518 131.315 150.258 132.972C151.999 134.63 152.971 137.251 152.282 139.58C155.335 137.116 160.264 138.917 162.136 142.385C164.007 145.853 163.444 150.206 161.939 153.861C163.234 154.989 164.223 156.426 164.814 158.038C165.406 159.65 165.581 161.385 165.324 163.082C165.039 164.77 164.329 166.357 163.261 167.695C162.192 169.032 160.801 170.074 159.217 170.724C159.986 171.382 160.573 172.226 160.922 173.175C161.271 174.124 161.371 175.147 161.211 176.146C161.035 177.138 160.606 178.068 159.965 178.844C159.324 179.621 158.492 180.218 157.551 180.578C158.008 181.312 158.263 182.153 158.291 183.017C158.318 183.881 158.117 184.737 157.708 185.498C157.288 186.242 156.673 186.858 155.93 187.28C155.188 187.702 154.344 187.916 153.49 187.897C154.655 188.469 155.1 190.021 154.773 191.295C154.446 192.569 153.53 193.594 152.552 194.449C148.191 198.283 142.276 199.709 136.562 200.499C121.147 202.632 105.448 201.057 90.1338 198.265C87.3116 197.751 86.1776 196.756 84.2845 194.689C83.0283 193.319 81.7328 193.07 80.1538 192.233C76.1452 190.109 73.2358 185.751 72.5554 181.271Z" fill="url(#paint15_linear)"/>
<path d="M87.678 187.06L50.1221 178.471L87.534 193.319L87.678 187.06Z" fill="url(#paint16_linear)" fill-opacity="0.5"/>
<path d="M92.5422 178.41L53.2285 159.741L91.1988 184.525L92.5422 178.41Z" fill="url(#paint17_linear)" fill-opacity="0.5"/>
<path d="M96.7288 165.63L63.3516 137.696L93.8935 171.213L96.7288 165.63Z" fill="url(#paint18_linear)" fill-opacity="0.5"/>
<path d="M114.256 162.027L103.966 119.738L108.659 164.84L114.256 162.027Z" fill="url(#paint19_linear)" fill-opacity="0.5"/>
<path d="M137.234 162.153L139.232 118.678L131.075 163.283L137.234 162.153Z" fill="url(#paint20_linear)" fill-opacity="0.5"/>
<path d="M146.83 170.986L179.876 142.665L141.788 167.27L146.83 170.986Z" fill="url(#paint21_linear)" fill-opacity="0.5"/>
<path d="M141.076 193.751L189.013 174.602L144.91 185.153L141.076 193.751Z" fill="url(#paint22_linear)" fill-opacity="0.5"/>
<path d="M85.9331 189.328C85.6718 187.472 85.9193 185.58 86.6491 183.854C87.3789 182.128 88.5636 180.632 90.0769 179.527C89.6106 178.486 89.4452 177.335 89.5994 176.205C89.7536 175.075 90.2212 174.01 90.9493 173.132C91.1149 173.026 91.2572 172.886 91.3678 172.723C91.4783 172.56 91.5548 172.376 91.5927 172.183C91.6306 171.989 91.629 171.79 91.5882 171.597C91.5473 171.405 91.468 171.222 91.355 171.061C90.9785 170.154 90.8546 169.163 90.9965 168.192C91.1385 167.221 91.5409 166.306 92.161 165.546C92.7812 164.785 93.5958 164.207 94.5184 163.872C95.441 163.537 96.437 163.459 97.4005 163.645C97.1239 163.404 96.9015 163.108 96.7479 162.775C96.5943 162.442 96.5131 162.08 96.5095 161.713C96.5059 161.346 96.5802 160.983 96.7273 160.647C96.8744 160.311 97.091 160.01 97.363 159.764C97.6349 159.518 97.9559 159.332 98.3048 159.219C98.6537 159.106 99.0226 159.068 99.3872 159.108C99.7518 159.148 100.104 159.265 100.42 159.451C100.736 159.636 101.009 159.887 101.222 160.186C101.589 159.569 102.148 159.09 102.814 158.821C103.48 158.552 104.216 158.509 104.908 158.698C105.601 158.887 106.213 159.298 106.65 159.868C107.087 160.437 107.325 161.135 107.328 161.853C107.465 161.326 107.76 160.853 108.173 160.499C108.586 160.144 109.098 159.924 109.639 159.869C110.181 159.813 110.727 159.925 111.203 160.188C111.679 160.451 112.064 160.854 112.305 161.342C112.794 160.217 113.604 159.261 114.634 158.594C115.663 157.926 116.866 157.577 118.093 157.59C119.32 157.602 120.516 157.976 121.531 158.665C122.547 159.353 123.337 160.325 123.803 161.46C124.151 160.907 124.667 160.478 125.274 160.237C125.882 159.995 126.55 159.953 127.184 160.117C127.184 158.538 129.085 157.294 130.547 157.905C130.474 157.447 130.549 156.977 130.762 156.564C130.974 156.152 131.313 155.818 131.729 155.611C132.571 155.215 133.513 155.078 134.433 155.218C136.07 155.316 137.63 155.947 138.873 157.015C140.064 158.123 140.723 159.877 140.252 161.434C142.324 159.785 145.695 160.998 146.969 163.309C148.243 165.621 147.841 168.544 146.834 170.982C147.723 171.72 148.403 172.678 148.808 173.76C149.212 174.842 149.327 176.011 149.14 177.152C148.953 178.292 148.471 179.363 147.742 180.26C147.013 181.156 146.062 181.846 144.984 182.262C145.512 182.692 145.916 183.254 146.154 183.891C146.393 184.529 146.458 185.218 146.343 185.889C146.227 186.559 145.936 187.187 145.498 187.708C145.06 188.229 144.491 188.624 143.85 188.853C144.167 189.339 144.345 189.903 144.363 190.483C144.381 191.063 144.239 191.637 143.954 192.142C143.668 192.647 143.249 193.064 142.742 193.347C142.235 193.63 141.66 193.768 141.081 193.747C141.874 194.131 142.175 195.169 141.953 196.019C141.67 196.859 141.141 197.595 140.435 198.13C137.456 200.695 133.434 201.646 129.53 202.174C119.022 203.605 108.318 202.549 97.8804 200.682C95.9568 200.338 95.1847 199.67 93.8936 198.292C93.0212 197.371 92.1488 197.206 91.0802 196.647C89.7239 195.897 88.5559 194.848 87.6643 193.58C86.7726 192.312 86.1807 190.858 85.9331 189.328Z" fill="#6E71FF"/>
<path d="M85.9331 189.328C85.6718 187.472 85.9193 185.58 86.6491 183.854C87.3789 182.128 88.5636 180.632 90.0769 179.527C89.6106 178.486 89.4452 177.335 89.5994 176.205C89.7536 175.075 90.2212 174.01 90.9493 173.132C91.1149 173.026 91.2572 172.886 91.3678 172.723C91.4783 172.56 91.5548 172.376 91.5927 172.183C91.6306 171.989 91.629 171.79 91.5882 171.597C91.5473 171.405 91.468 171.222 91.355 171.061C90.9785 170.154 90.8546 169.163 90.9965 168.192C91.1385 167.221 91.5409 166.306 92.161 165.546C92.7812 164.785 93.5958 164.207 94.5184 163.872C95.441 163.537 96.437 163.459 97.4005 163.645C97.1239 163.404 96.9015 163.108 96.7479 162.775C96.5943 162.442 96.5131 162.08 96.5095 161.713C96.5059 161.346 96.5802 160.983 96.7273 160.647C96.8744 160.311 97.091 160.01 97.363 159.764C97.6349 159.518 97.9559 159.332 98.3048 159.219C98.6537 159.106 99.0226 159.068 99.3872 159.108C99.7518 159.148 100.104 159.265 100.42 159.451C100.736 159.636 101.009 159.887 101.222 160.186C101.589 159.569 102.148 159.09 102.814 158.821C103.48 158.552 104.216 158.509 104.908 158.698C105.601 158.887 106.213 159.298 106.65 159.868C107.087 160.437 107.325 161.135 107.328 161.853C107.465 161.326 107.76 160.853 108.173 160.499C108.586 160.144 109.098 159.924 109.639 159.869C110.181 159.813 110.727 159.925 111.203 160.188C111.679 160.451 112.064 160.854 112.305 161.342C112.794 160.217 113.604 159.261 114.634 158.594C115.663 157.926 116.866 157.577 118.093 157.59C119.32 157.602 120.516 157.976 121.531 158.665C122.547 159.353 123.337 160.325 123.803 161.46C124.151 160.907 124.667 160.478 125.274 160.237C125.882 159.995 126.55 159.953 127.184 160.117C127.184 158.538 129.085 157.294 130.547 157.905C130.474 157.447 130.549 156.977 130.762 156.564C130.974 156.152 131.313 155.818 131.729 155.611C132.571 155.215 133.513 155.078 134.433 155.218C136.07 155.316 137.63 155.947 138.873 157.015C140.064 158.123 140.723 159.877 140.252 161.434C142.324 159.785 145.695 160.998 146.969 163.309C148.243 165.621 147.841 168.544 146.834 170.982C147.723 171.72 148.403 172.678 148.808 173.76C149.212 174.842 149.327 176.011 149.14 177.152C148.953 178.292 148.471 179.363 147.742 180.26C147.013 181.156 146.062 181.846 144.984 182.262C145.512 182.692 145.916 183.254 146.154 183.891C146.393 184.529 146.458 185.218 146.343 185.889C146.227 186.559 145.936 187.187 145.498 187.708C145.06 188.229 144.491 188.624 143.85 188.853C144.167 189.339 144.345 189.903 144.363 190.483C144.381 191.063 144.239 191.637 143.954 192.142C143.668 192.647 143.249 193.064 142.742 193.347C142.235 193.63 141.66 193.768 141.081 193.747C141.874 194.131 142.175 195.169 141.953 196.019C141.67 196.859 141.141 197.595 140.435 198.13C137.456 200.695 133.434 201.646 129.53 202.174C119.022 203.605 108.318 202.549 97.8804 200.682C95.9568 200.338 95.1847 199.67 93.8936 198.292C93.0212 197.371 92.1488 197.206 91.0802 196.647C89.7239 195.897 88.5559 194.848 87.6643 193.58C86.7726 192.312 86.1807 190.858 85.9331 189.328Z" fill="url(#paint23_linear)"/>
<path d="M91.5172 192.189C91.3159 190.757 91.5074 189.297 92.0712 187.964C92.6351 186.632 93.5502 185.478 94.7188 184.626C94.359 183.822 94.232 182.934 94.3523 182.062C94.4726 181.189 94.8354 180.369 95.3993 179.692C95.6547 179.461 95.8328 179.156 95.9096 178.82C95.8985 178.564 95.83 178.313 95.709 178.087C95.4196 177.388 95.325 176.623 95.4352 175.874C95.5454 175.126 95.8563 174.421 96.3349 173.834C96.8134 173.248 97.4418 172.802 98.1534 172.544C98.8649 172.286 99.633 172.226 100.376 172.369C100.162 172.184 99.9886 171.955 99.869 171.698C99.7494 171.441 99.6857 171.161 99.6822 170.878C99.6787 170.594 99.7355 170.313 99.8488 170.053C99.9621 169.793 100.129 169.56 100.339 169.37C100.549 169.179 100.798 169.036 101.067 168.948C101.337 168.861 101.622 168.832 101.904 168.863C102.186 168.894 102.458 168.985 102.702 169.129C102.946 169.273 103.157 169.468 103.32 169.699C103.606 169.228 104.037 168.862 104.549 168.658C105.061 168.454 105.626 168.422 106.157 168.567C106.689 168.713 107.159 169.028 107.495 169.464C107.832 169.901 108.017 170.435 108.023 170.986C108.128 170.58 108.356 170.216 108.675 169.942C108.993 169.669 109.388 169.5 109.805 169.457C110.223 169.414 110.644 169.5 111.011 169.703C111.379 169.906 111.675 170.217 111.861 170.594C112.232 169.717 112.854 168.971 113.65 168.449C114.446 167.927 115.379 167.654 116.33 167.664C117.281 167.674 118.208 167.966 118.993 168.504C119.778 169.042 120.385 169.801 120.737 170.685C121.005 170.255 121.404 169.923 121.876 169.737C122.347 169.55 122.865 169.521 123.355 169.651C123.379 169.355 123.47 169.068 123.622 168.812C123.774 168.556 123.981 168.338 124.23 168.174C124.478 168.01 124.76 167.905 125.055 167.866C125.35 167.827 125.65 167.856 125.932 167.95C125.877 167.597 125.935 167.234 126.099 166.916C126.263 166.598 126.524 166.34 126.844 166.179C127.495 165.873 128.222 165.767 128.933 165.874C130.196 165.95 131.399 166.437 132.358 167.261C132.828 167.679 133.175 168.216 133.363 168.817C133.551 169.417 133.571 170.057 133.422 170.668C135.018 169.398 137.618 170.327 138.604 172.116C139.59 173.904 139.284 176.151 138.499 178.039C139.185 178.608 139.71 179.347 140.022 180.181C140.334 181.016 140.422 181.918 140.278 182.797C140.134 183.676 139.762 184.502 139.2 185.194C138.638 185.885 137.904 186.417 137.073 186.737C137.48 187.068 137.792 187.502 137.976 187.994C138.161 188.485 138.211 189.017 138.122 189.535C138.034 190.052 137.809 190.537 137.471 190.939C137.133 191.341 136.695 191.646 136.2 191.823C136.445 192.198 136.583 192.633 136.597 193.08C136.612 193.528 136.503 193.97 136.283 194.36C136.063 194.75 135.739 195.072 135.349 195.291C134.958 195.509 134.515 195.616 134.067 195.6C134.356 195.776 134.579 196.043 134.701 196.358C134.822 196.674 134.836 197.021 134.739 197.345C134.524 197.994 134.116 198.561 133.57 198.972C131.271 200.952 128.166 201.685 125.16 202.095C117.056 203.194 108.799 202.383 100.734 200.944C99.2465 200.678 98.6532 200.163 97.6544 199.099C96.9914 198.388 96.3109 198.261 95.4734 197.829C94.4311 197.249 93.5336 196.44 92.8485 195.463C92.1633 194.486 91.7082 193.367 91.5172 192.189Z" fill="url(#paint24_linear)"/>
<path opacity="0.26" d="M50.1264 174.393C46.4406 175.884 44.5781 181.633 47.8844 183.845C35.7015 183.941 23.7213 186.972 12.9587 192.682C11.5062 193.454 9.94903 194.427 9.56518 196.041C8.74951 199.439 13.4429 201.218 16.9281 201.476C81.7589 206.204 146.943 207.779 211.796 203.151C216.698 202.802 223.228 200.494 222.421 195.648L212.389 194.082C218.495 193.027 224.864 189.52 226.539 183.535C228.214 177.551 222.177 170.135 216.415 172.473L221.091 170.319C212.505 167.174 203.338 165.934 194.226 166.685C191.827 166.886 188.621 168.591 189.698 170.746C198.115 173.01 206.244 176.23 213.929 180.342C207.116 187.306 198.574 192.334 189.179 194.911C178.318 197.868 166.864 197.406 155.619 196.922C130.451 195.836 105.278 194.741 80.1842 192.56C73.0351 191.932 65.7245 191.164 59.2471 188.028C57.1229 186.998 54.8155 184.953 55.5831 182.724C56.1676 181.036 58.1567 180.412 59.7575 179.601C67.5129 175.644 53.4764 173.054 50.1264 174.393Z" fill="#6E71FF"/>
<path opacity="0.26" d="M24.789 149.334L18.63 154.376C17.4986 155.223 16.4825 156.215 15.6072 157.325C12.8243 161.207 14.5342 167.466 18.9005 169.394C21.7052 170.628 24.9373 170.183 27.9514 170.729C30.7343 171.23 33.2816 172.569 35.9206 173.581C42.254 176.011 49.1284 176.556 55.8937 176.979C80.0804 178.484 104.311 178.75 128.563 178.938C146.058 179.073 163.58 179.165 181.01 177.716C198.318 176.281 216.97 172.539 228.367 159.44C229.746 157.857 231.032 156.068 231.355 153.992C231.857 150.804 229.903 147.632 227.277 145.748C224.651 143.864 221.449 143.018 218.322 142.206C219.927 141.242 218.287 138.839 216.673 137.901C213.825 136.244 210.78 134.774 207.513 134.412C204.246 134.05 200.678 134.974 198.51 137.465C201.079 139.409 204.041 140.77 207.19 141.452C205.446 141.888 205.066 144.448 206.126 145.896C207.186 147.345 209.048 147.925 210.802 148.326C212.555 148.727 214.422 149.081 215.748 150.293C209.943 159.789 199.007 165.18 188.028 166.999C177.05 168.818 165.809 167.54 154.721 166.511C119.612 163.261 84.3288 162.467 49.0804 161.673C47.8503 161.647 46.4938 161.673 45.5647 162.472C44.6356 163.27 44.7185 165.176 45.9224 165.429C42.0825 165.487 38.2828 164.641 34.8301 162.96C32.9894 162.066 31.153 160.801 30.4682 158.877C29.7834 156.954 30.791 154.337 32.8193 154.079L31.0745 150.795C37.1317 148.006 43.0523 144.943 48.8361 141.604C41.2639 135.389 30.6994 144.505 24.789 149.334Z" fill="#6E71FF"/>
<path d="M203.382 48.5129C201.681 51.1301 198.881 52.8007 196.05 54.1049C193.219 55.4091 190.235 56.4472 187.666 58.2051C187.562 58.2748 187.453 58.3577 187.439 58.4799C187.44 58.5418 187.453 58.603 187.478 58.6594C187.504 58.7158 187.541 58.7661 187.588 58.807L189.668 61.2279C189.751 61.3602 189.874 61.4622 190.02 61.5188C190.165 61.5754 190.325 61.5835 190.475 61.5419C194.187 61.145 197.611 59.2606 201.315 58.8026C202.31 58.7496 203.296 58.5842 204.255 58.3097C204.408 58.2665 204.548 58.1838 204.66 58.0698C204.767 57.9284 204.835 57.7615 204.857 57.5857C205.188 56.0546 205.493 54.179 205.271 52.6131C205.175 51.9458 204.686 51.37 204.377 50.7768C204.228 50.4845 203.212 48.7747 203.382 48.5129Z" fill="#6E71FF"/>
<path d="M203.382 48.5129C201.681 51.1301 198.881 52.8007 196.05 54.1049C193.219 55.4091 190.235 56.4472 187.666 58.2051C187.562 58.2748 187.453 58.3577 187.439 58.4799C187.44 58.5418 187.453 58.603 187.478 58.6594C187.504 58.7158 187.541 58.7661 187.588 58.807L189.668 61.2279C189.751 61.3602 189.874 61.4622 190.02 61.5188C190.165 61.5754 190.325 61.5835 190.475 61.5419C194.187 61.145 197.611 59.2606 201.315 58.8026C202.31 58.7496 203.296 58.5842 204.255 58.3097C204.408 58.2665 204.548 58.1838 204.66 58.0698C204.767 57.9284 204.835 57.7615 204.857 57.5857C205.188 56.0546 205.493 54.179 205.271 52.6131C205.175 51.9458 204.686 51.37 204.377 50.7768C204.228 50.4845 203.212 48.7747 203.382 48.5129Z" fill="url(#paint25_linear)"/>
<path d="M202.51 55.9938L187.609 58.6109L191.047 49.4422L203.574 48.5393L202.51 55.9938Z" fill="#6E71FF"/>
<path d="M169.446 53.6773C169.186 53.7007 168.937 53.7909 168.722 53.939C168.422 54.2321 168.245 54.6281 168.225 55.047C167.812 57.8149 168.38 60.64 169.83 63.0336C169.889 63.1457 169.974 63.2416 170.079 63.3128C170.216 63.3739 170.369 63.3877 170.515 63.352C171.387 63.2081 172.09 62.641 172.905 62.3575C173.826 62.0391 174.824 62.0914 175.797 62.0304C176.77 61.9693 177.804 61.7512 178.471 61.0402C179.032 60.3517 179.31 59.475 179.247 58.5888C179.266 57.4162 178.863 56.2757 178.113 55.3741C176.321 53.3764 171.946 53.276 169.446 53.6773Z" fill="#6E71FF"/>
<path d="M169.446 53.6773C169.186 53.7007 168.937 53.7909 168.722 53.939C168.422 54.2321 168.245 54.6281 168.225 55.047C167.812 57.8149 168.38 60.64 169.83 63.0336C169.889 63.1457 169.974 63.2416 170.079 63.3128C170.216 63.3739 170.369 63.3877 170.515 63.352C171.387 63.2081 172.09 62.641 172.905 62.3575C173.826 62.0391 174.824 62.0914 175.797 62.0304C176.77 61.9693 177.804 61.7512 178.471 61.0402C179.032 60.3517 179.31 59.475 179.247 58.5888C179.266 57.4162 178.863 56.2757 178.113 55.3741C176.321 53.3764 171.946 53.276 169.446 53.6773Z" fill="url(#paint26_linear)"/>
<path d="M175.195 49.9306C175.158 49.8815 175.112 49.8406 175.059 49.8106C175.005 49.7806 174.947 49.7621 174.886 49.7563C174.825 49.7506 174.763 49.7577 174.705 49.7772C174.647 49.7967 174.594 49.8282 174.549 49.8696C172.857 50.8146 171.202 51.8222 169.585 52.8923C169.374 53.0047 169.2 53.1759 169.084 53.3852C169.012 53.579 168.993 53.7879 169.027 53.9915C169.207 56.3797 169.663 58.7391 170.384 61.0229C172.647 59.8059 175.365 59.8757 177.829 59.1604C182.361 57.8475 176.796 51.4791 175.195 49.9306Z" fill="#6E71FF"/>
<path d="M182.637 65.991C182.713 65.9287 182.81 65.8989 182.908 65.9081C182.993 65.9367 183.065 65.9937 183.113 66.0695C184.125 67.3214 185.163 67.413 186.166 68.6867C186.275 69.1981 186.316 69.7217 186.288 70.2439C186.248 70.3338 186.179 70.4076 186.092 70.4532C185.37 70.8786 184.596 71.2084 183.789 71.4346L181.355 72.2242L179.71 70.4532C179.396 70.113 178.838 69.5372 178.869 69.0269C178.899 68.5907 178.589 67.5089 178.869 67.2821C179.863 66.4795 181.573 66.6235 182.637 65.991Z" fill="#6E71FF"/>
<path d="M182.637 65.991C182.713 65.9287 182.81 65.8989 182.908 65.9081C182.993 65.9367 183.065 65.9937 183.113 66.0695C184.125 67.3214 185.163 67.413 186.166 68.6867C186.275 69.1981 186.316 69.7217 186.288 70.2439C186.248 70.3338 186.179 70.4076 186.092 70.4532C185.37 70.8786 184.596 71.2084 183.789 71.4346L181.355 72.2242L179.71 70.4532C179.396 70.113 178.838 69.5372 178.869 69.0269C178.899 68.5907 178.589 67.5089 178.869 67.2821C179.863 66.4795 181.573 66.6235 182.637 65.991Z" fill="url(#paint27_linear)"/>
<path d="M182.51 64.4427C182.589 64.3858 182.684 64.3567 182.781 64.3599C182.865 64.3884 182.938 64.4454 182.986 64.5212L186.039 68.2812C186.094 68.3293 186.136 68.3905 186.161 68.4591C186.186 68.5277 186.194 68.6015 186.183 68.6738C186.144 68.7653 186.074 68.8408 185.987 68.8875C185.264 69.3115 184.49 69.6399 183.683 69.8646L181.25 70.6541L179.583 68.8744C179.269 68.5342 178.711 67.9628 178.741 67.4524C178.772 67.0162 179.226 66.8549 179.522 66.6193C180.473 65.8338 181.471 65.1069 182.51 64.4427Z" fill="#6E71FF"/>
<path d="M187.824 169.564C189.023 166.685 191.479 164.531 194.026 162.738C196.573 160.945 199.321 159.388 201.533 157.19C201.582 157.153 201.623 157.107 201.653 157.053C201.683 157 201.702 156.941 201.707 156.88C201.694 156.819 201.669 156.761 201.633 156.71C201.597 156.659 201.551 156.616 201.498 156.583L199.012 154.581C198.91 154.484 198.788 154.411 198.654 154.367C198.488 154.339 198.318 154.357 198.161 154.42C194.584 155.475 191.557 157.949 187.998 159.07C187.027 159.3 186.086 159.641 185.193 160.086C185.052 160.157 184.931 160.262 184.84 160.391C184.761 160.552 184.725 160.731 184.735 160.91C184.687 162.472 184.735 164.374 185.224 165.87C185.442 166.511 186.022 166.991 186.436 167.514C186.633 167.745 187.946 169.255 187.824 169.564Z" fill="#6E71FF"/>
<path d="M187.824 169.564C189.023 166.685 191.479 164.531 194.026 162.738C196.573 160.945 199.321 159.388 201.533 157.19C201.582 157.153 201.623 157.107 201.653 157.053C201.683 157 201.702 156.941 201.707 156.88C201.694 156.819 201.669 156.761 201.633 156.71C201.597 156.659 201.551 156.616 201.498 156.583L199.012 154.581C198.91 154.484 198.788 154.411 198.654 154.367C198.488 154.339 198.318 154.357 198.161 154.42C194.584 155.475 191.557 157.949 187.998 159.07C187.027 159.3 186.086 159.641 185.193 160.086C185.052 160.157 184.931 160.262 184.84 160.391C184.761 160.552 184.725 160.731 184.735 160.91C184.687 162.472 184.735 164.374 185.224 165.87C185.442 166.511 186.022 166.991 186.436 167.514C186.633 167.745 187.946 169.255 187.824 169.564Z" fill="url(#paint28_linear)"/>
<path d="M187.326 162.023L201.511 156.758L199.784 166.398L187.627 169.547L187.326 162.023Z" fill="#6E71FF"/>
<path d="M220.267 158.332C220.518 158.259 220.747 158.126 220.935 157.944C221.176 157.6 221.279 157.178 221.223 156.762C221.129 153.965 220.06 151.289 218.2 149.199C218.122 149.099 218.022 149.02 217.908 148.967C217.761 148.935 217.608 148.95 217.471 149.011C216.66 149.303 216.054 149.993 215.29 150.42C214.444 150.9 213.45 151.031 212.503 151.266C211.557 151.502 210.58 151.903 210.052 152.719C209.625 153.498 209.511 154.41 209.733 155.27C209.926 156.426 210.526 157.474 211.426 158.223C213.563 159.872 217.886 159.174 220.267 158.332Z" fill="#6E71FF"/>
<path d="M220.267 158.332C220.518 158.259 220.747 158.126 220.935 157.944C221.176 157.6 221.279 157.178 221.223 156.762C221.129 153.965 220.06 151.289 218.2 149.199C218.122 149.099 218.022 149.02 217.908 148.967C217.761 148.935 217.608 148.95 217.471 149.011C216.66 149.303 216.054 149.993 215.29 150.42C214.444 150.9 213.45 151.031 212.503 151.266C211.557 151.502 210.58 151.903 210.052 152.719C209.625 153.498 209.511 154.41 209.733 155.27C209.926 156.426 210.526 157.474 211.426 158.223C213.563 159.872 217.886 159.174 220.267 158.332Z" fill="url(#paint29_linear)"/>
<path d="M215.29 163.056C215.371 163.119 215.467 163.16 215.569 163.174C215.709 163.162 215.84 163.099 215.936 162.995C217.433 161.762 218.878 160.473 220.271 159.126C220.46 159.004 220.599 158.818 220.664 158.602C220.729 158.387 220.715 158.155 220.625 157.949C220.014 155.63 219.136 153.39 218.007 151.275C216.001 152.88 213.318 153.303 211.028 154.455C206.815 156.562 213.436 161.822 215.29 163.056Z" fill="#6E71FF"/>
<path d="M205.074 148.601C205.012 148.676 204.922 148.723 204.826 148.732C204.735 148.721 204.651 148.678 204.59 148.61C203.369 147.563 202.335 147.659 201.101 146.608C200.902 146.126 200.767 145.62 200.699 145.103C200.722 145.006 200.778 144.92 200.856 144.858C201.489 144.309 202.191 143.845 202.946 143.48L205.196 142.263L207.133 143.707C207.504 143.986 208.162 144.448 208.219 144.959C208.263 145.395 208.769 146.403 208.516 146.704C207.713 147.62 205.999 147.755 205.074 148.601Z" fill="#6E71FF"/>
<path d="M205.074 148.601C205.012 148.676 204.922 148.723 204.826 148.732C204.735 148.721 204.651 148.678 204.59 148.61C203.369 147.563 202.335 147.659 201.101 146.608C200.902 146.126 200.767 145.62 200.699 145.103C200.722 145.006 200.778 144.92 200.856 144.858C201.489 144.309 202.191 143.845 202.946 143.48L205.196 142.263L207.133 143.707C207.504 143.986 208.162 144.448 208.219 144.959C208.263 145.395 208.769 146.403 208.516 146.704C207.713 147.62 205.999 147.755 205.074 148.601Z" fill="url(#paint30_linear)"/>
<path d="M205.475 150.11C205.412 150.183 205.323 150.23 205.227 150.241C205.137 150.228 205.054 150.185 204.991 150.119L201.327 146.97C201.214 146.874 201.092 146.756 201.109 146.608C201.133 146.512 201.188 146.428 201.266 146.368C201.899 145.819 202.602 145.356 203.355 144.989L205.606 143.772L207.543 145.216C207.914 145.495 208.572 145.958 208.629 146.464C208.673 146.9 208.258 147.14 208.01 147.428C207.221 148.373 206.374 149.269 205.475 150.11Z" fill="#6E71FF"/>
<path d="M141.753 66.8242C139.908 66.9681 138.102 66.2528 136.466 65.3891C134.83 64.5255 133.256 63.4961 131.498 62.9247C131.464 62.9096 131.428 62.9019 131.391 62.9019C131.354 62.9019 131.318 62.9096 131.284 62.9247C131.228 62.9718 131.192 63.0391 131.184 63.1122L130.796 64.9704C130.78 65.0526 130.78 65.1368 130.796 65.219C130.826 65.3138 130.882 65.3984 130.957 65.4633C132.484 67.0728 134.612 68.0019 136.169 69.5809C136.557 70.0342 136.997 70.4411 137.478 70.7935C137.554 70.8477 137.643 70.8821 137.735 70.8938C137.843 70.8948 137.948 70.8661 138.041 70.811C138.953 70.4184 139.795 69.8775 140.531 69.2101C140.771 68.8811 140.954 68.5139 141.072 68.124C141.129 67.9321 141.569 66.8373 141.753 66.8242Z" fill="#6E71FF"/>
<path d="M141.753 66.8242C139.908 66.9681 138.102 66.2528 136.466 65.3891C134.83 64.5255 133.256 63.4961 131.498 62.9247C131.464 62.9096 131.428 62.9019 131.391 62.9019C131.354 62.9019 131.318 62.9096 131.284 62.9247C131.228 62.9718 131.192 63.0391 131.184 63.1122L130.796 64.9704C130.78 65.0526 130.78 65.1368 130.796 65.219C130.826 65.3138 130.882 65.3984 130.957 65.4633C132.484 67.0728 134.612 68.0019 136.169 69.5809C136.557 70.0342 136.997 70.4411 137.478 70.7935C137.554 70.8477 137.643 70.8821 137.735 70.8938C137.843 70.8948 137.948 70.8661 138.041 70.811C138.953 70.4184 139.795 69.8775 140.531 69.2101C140.771 68.8811 140.954 68.5139 141.072 68.124C141.129 67.9321 141.569 66.8373 141.753 66.8242Z" fill="url(#paint31_linear)"/>
<path d="M137.91 69.1184L131.284 63.0422L136.85 61.3455L141.809 66.9243L137.91 69.1184Z" fill="#6E71FF"/>
<path d="M127.04 52.696C126.933 52.5822 126.8 52.4968 126.652 52.4474C126.404 52.4136 126.154 52.4743 125.949 52.6175C124.495 53.4237 123.368 54.7138 122.765 56.264C122.734 56.3321 122.72 56.4072 122.726 56.4821C122.745 56.5704 122.794 56.6491 122.866 56.7046C123.285 56.993 123.727 57.2468 124.187 57.4635C124.642 57.8225 125.047 58.2406 125.391 58.7067C125.737 59.177 126.248 59.4994 126.822 59.6096C127.35 59.6261 127.865 59.4405 128.261 59.0905C128.821 58.6739 129.212 58.0703 129.365 57.3894C129.67 55.8278 128.113 53.7298 127.04 52.696Z" fill="#6E71FF"/>
<path d="M127.04 52.696C126.933 52.5822 126.8 52.4968 126.652 52.4474C126.404 52.4136 126.154 52.4743 125.949 52.6175C124.495 53.4237 123.368 54.7138 122.765 56.264C122.734 56.3321 122.72 56.4072 122.726 56.4821C122.745 56.5704 122.794 56.6491 122.866 56.7046C123.285 56.993 123.727 57.2468 124.187 57.4635C124.642 57.8225 125.047 58.2406 125.391 58.7067C125.737 59.177 126.248 59.4994 126.822 59.6096C127.35 59.6261 127.865 59.4405 128.261 59.0905C128.821 58.6739 129.212 58.0703 129.365 57.3894C129.67 55.8278 128.113 53.7298 127.04 52.696Z" fill="url(#paint32_linear)"/>
<path d="M130.883 54.0481C130.898 53.9895 130.898 53.9279 130.883 53.8693C130.838 53.7984 130.768 53.7471 130.687 53.7253C129.631 53.2673 128.554 52.853 127.468 52.4778C127.352 52.4099 127.215 52.3861 127.083 52.411C126.95 52.4358 126.831 52.5076 126.748 52.6131C125.687 53.5612 124.74 54.6298 123.926 55.7972C125.317 56.4253 126.268 57.7295 127.498 58.6325C129.745 60.2943 130.73 55.3654 130.883 54.0481Z" fill="#6E71FF"/>
<path d="M126.006 63.3695C126.034 63.3728 126.061 63.3828 126.084 63.3986C126.107 63.4145 126.126 63.4358 126.14 63.4606C126.153 63.4855 126.16 63.5132 126.16 63.5414C126.16 63.5696 126.154 63.5974 126.141 63.6225C125.919 64.5516 126.25 65.075 126.023 66.0041C125.823 66.2429 125.592 66.4528 125.334 66.6279C125.279 66.6447 125.219 66.6447 125.164 66.6279C124.698 66.4407 124.258 66.1944 123.855 65.8951L122.604 65.0227L122.843 63.6051C122.891 63.3347 122.957 62.8592 123.21 62.6935C123.463 62.5277 123.825 62.0086 124.043 62.0653C124.771 62.2616 125.317 63.1035 126.006 63.3695Z" fill="#6E71FF"/>
<path d="M126.006 63.3695C126.034 63.3728 126.061 63.3828 126.084 63.3986C126.107 63.4145 126.126 63.4358 126.14 63.4606C126.153 63.4855 126.16 63.5132 126.16 63.5414C126.16 63.5696 126.154 63.5974 126.141 63.6225C125.919 64.5516 126.25 65.075 126.023 66.0041C125.823 66.2429 125.592 66.4528 125.334 66.6279C125.279 66.6447 125.219 66.6447 125.164 66.6279C124.698 66.4407 124.258 66.1944 123.855 65.8951L122.604 65.0227L122.843 63.6051C122.891 63.3347 122.957 62.8592 123.21 62.6935C123.463 62.5277 123.825 62.0086 124.043 62.0653C124.771 62.2616 125.317 63.1035 126.006 63.3695Z" fill="url(#paint33_linear)"/>
<path d="M126.695 62.7457C126.751 62.7621 126.799 62.7976 126.83 62.846C126.85 62.895 126.85 62.9497 126.83 62.9987L126.159 65.7947C126.159 65.8776 126.106 65.9735 126.023 66.004C125.969 66.0252 125.908 66.0252 125.853 66.004C125.387 65.8194 124.947 65.5745 124.545 65.2756L123.293 64.4032L123.533 62.99C123.576 62.7152 123.646 62.2441 123.899 62.074C124.152 61.9039 124.357 62.074 124.575 62.1438C125.293 62.3021 126.001 62.5031 126.695 62.7457Z" fill="#6E71FF"/>
<path d="M38.5332 86.6883C39.5321 87.9707 39.881 89.637 40.0424 91.2552C40.2038 92.8735 40.2082 94.5223 40.6356 96.0882C40.6468 96.153 40.6828 96.2109 40.736 96.2496C40.7671 96.2589 40.7997 96.2617 40.832 96.2579C40.8642 96.2542 40.8954 96.2439 40.9235 96.2278L42.472 95.6171C42.5404 95.592 42.6039 95.5551 42.6595 95.5081C42.713 95.438 42.7475 95.3554 42.7599 95.2682C43.1961 93.3708 42.8515 91.3643 43.2571 89.4581C43.3989 88.9588 43.4852 88.4454 43.5145 87.9271C43.5189 87.8444 43.5024 87.7619 43.4665 87.6872C43.4142 87.6087 43.3419 87.5454 43.2571 87.504C42.5283 87.0246 41.725 86.6694 40.8799 86.4528C40.5218 86.4378 40.1637 86.482 39.82 86.5836C39.6542 86.6185 38.6335 86.8279 38.5332 86.6883Z" fill="#6E71FF"/>
<path d="M38.5332 86.6883C39.5321 87.9707 39.881 89.637 40.0424 91.2552C40.2038 92.8735 40.2082 94.5223 40.6356 96.0882C40.6468 96.153 40.6828 96.2109 40.736 96.2496C40.7671 96.2589 40.7997 96.2617 40.832 96.2579C40.8642 96.2542 40.8954 96.2439 40.9235 96.2278L42.472 95.6171C42.5404 95.592 42.6039 95.5551 42.6595 95.5081C42.713 95.438 42.7475 95.3554 42.7599 95.2682C43.1961 93.3708 42.8515 91.3643 43.2571 89.4581C43.3989 88.9588 43.4852 88.4454 43.5145 87.9271C43.5189 87.8444 43.5024 87.7619 43.4665 87.6872C43.4142 87.6087 43.3419 87.5454 43.2571 87.504C42.5283 87.0246 41.725 86.6694 40.8799 86.4528C40.5218 86.4378 40.1637 86.482 39.82 86.5836C39.6542 86.6185 38.6335 86.8279 38.5332 86.6883Z" fill="url(#paint34_linear)"/>
<path d="M42.0701 88.4024L40.827 96.1971L36.8926 92.9387L38.5806 86.6096L42.0701 88.4024Z" fill="#6E71FF"/>
<path d="M35.3009 104.315C35.2682 104.446 35.2682 104.584 35.3009 104.716C35.3957 104.915 35.5625 105.071 35.7676 105.152C37.0605 105.83 38.5501 106.032 39.9768 105.724C40.0415 105.713 40.1028 105.688 40.1557 105.649C40.2116 105.592 40.2456 105.516 40.2516 105.436C40.2609 104.985 40.2331 104.534 40.1688 104.088C40.2122 103.581 40.3237 103.082 40.5003 102.605C40.677 102.122 40.6646 101.591 40.4654 101.117C40.2224 100.724 39.8386 100.439 39.3923 100.319C38.8184 100.105 38.1866 100.105 37.6127 100.319C36.3216 100.873 35.5321 103.015 35.3009 104.315Z" fill="#6E71FF"/>
<path d="M35.3009 104.315C35.2682 104.446 35.2682 104.584 35.3009 104.716C35.3957 104.915 35.5625 105.071 35.7676 105.152C37.0605 105.83 38.5501 106.032 39.9768 105.724C40.0415 105.713 40.1028 105.688 40.1557 105.649C40.2116 105.592 40.2456 105.516 40.2516 105.436C40.2609 104.985 40.2331 104.534 40.1688 104.088C40.2122 103.581 40.3237 103.082 40.5003 102.605C40.677 102.122 40.6646 101.591 40.4654 101.117C40.2224 100.724 39.8386 100.439 39.3923 100.319C38.8184 100.105 38.1866 100.105 37.6127 100.319C36.3216 100.873 35.5321 103.015 35.3009 104.315Z" fill="url(#paint35_linear)"/>
<path d="M34.4328 100.843C34.3821 100.861 34.3381 100.895 34.3063 100.939C34.282 101.006 34.282 101.08 34.3063 101.148C34.4852 102.147 34.6989 103.133 34.9519 104.114C34.9724 104.237 35.0268 104.352 35.1089 104.446C35.1945 104.509 35.2927 104.554 35.3968 104.576C36.6052 104.894 37.8466 105.07 39.0957 105.1C38.8819 103.791 39.3792 102.452 39.4446 101.113C39.5668 98.6573 35.4709 100.315 34.4328 100.843Z" fill="#6E71FF"/>
<path d="M43.6189 99.9093C43.6015 99.8614 43.6015 99.8089 43.6189 99.761C43.6499 99.7252 43.6909 99.6994 43.7366 99.6868C44.5261 99.4033 44.7486 98.906 45.5381 98.6182C45.8071 98.6546 46.0708 98.7234 46.3232 98.8232C46.3627 98.8584 46.3889 98.9062 46.3974 98.9584C46.4838 99.3889 46.5131 99.8288 46.4846 100.267L46.4628 101.597L45.3069 102.108C45.0845 102.204 44.705 102.387 44.4607 102.282C44.2164 102.177 43.6668 102.16 43.5883 101.972C43.3877 101.357 43.7584 100.542 43.6189 99.9093Z" fill="#6E71FF"/>
<path d="M43.6189 99.9093C43.6015 99.8614 43.6015 99.8089 43.6189 99.761C43.6499 99.7252 43.6909 99.6994 43.7366 99.6868C44.5261 99.4033 44.7486 98.906 45.5381 98.6182C45.8071 98.6546 46.0708 98.7234 46.3232 98.8232C46.3627 98.8584 46.3889 98.9062 46.3974 98.9584C46.4838 99.3889 46.5131 99.8288 46.4846 100.267L46.4628 101.597L45.3069 102.108C45.0845 102.204 44.705 102.387 44.4607 102.282C44.2164 102.177 43.6668 102.16 43.5883 101.972C43.3877 101.357 43.7584 100.542 43.6189 99.9093Z" fill="url(#paint36_linear)"/>
<path d="M42.8294 99.7043C42.8121 99.6564 42.8121 99.6039 42.8294 99.556C42.8579 99.5194 42.8978 99.4933 42.9428 99.4818L45.3157 98.6095C45.3494 98.5922 45.3868 98.5833 45.4247 98.5833C45.4626 98.5833 45.5 98.5922 45.5338 98.6095C45.5704 98.6463 45.5947 98.6935 45.6036 98.7447C45.6898 99.1752 45.7191 99.6151 45.6908 100.053V101.384L44.5349 101.894C44.3168 101.994 43.9373 102.173 43.6931 102.068C43.4488 101.964 43.4793 101.728 43.4139 101.541C43.1824 100.941 42.9872 100.328 42.8294 99.7043Z" fill="#6E71FF"/>
<path d="M21.5039 148.566C23.1222 148.413 24.7186 149.002 26.1668 149.748C27.6149 150.494 29.0064 151.367 30.5592 151.846C30.6194 151.87 30.6865 151.87 30.7468 151.846C30.7733 151.827 30.7955 151.802 30.812 151.773C30.8285 151.745 30.839 151.713 30.8427 151.681L31.1568 150.045C31.172 149.974 31.172 149.902 31.1568 149.831C31.1292 149.748 31.0794 149.674 31.0128 149.617C29.6476 148.226 27.7676 147.436 26.3805 146.076C26.037 145.684 25.6491 145.334 25.2246 145.033C25.1576 144.985 25.0796 144.955 24.9978 144.946C24.9044 144.949 24.8131 144.974 24.7317 145.02C23.9328 145.373 23.1974 145.855 22.5551 146.446C22.3494 146.739 22.1932 147.063 22.0928 147.406C22.0404 147.576 21.6827 148.549 21.5039 148.566Z" fill="#6E71FF"/>
<path d="M21.5039 148.566C23.1222 148.413 24.7186 149.002 26.1668 149.748C27.6149 150.494 29.0064 151.367 30.5592 151.846C30.6194 151.87 30.6865 151.87 30.7468 151.846C30.7733 151.827 30.7955 151.802 30.812 151.773C30.8285 151.745 30.839 151.713 30.8427 151.681L31.1568 150.045C31.172 149.974 31.172 149.902 31.1568 149.831C31.1292 149.748 31.0794 149.674 31.0128 149.617C29.6476 148.226 27.7676 147.436 26.3805 146.076C26.037 145.684 25.6491 145.334 25.2246 145.033C25.1576 144.985 25.0796 144.955 24.9978 144.946C24.9044 144.949 24.8131 144.974 24.7317 145.02C23.9328 145.373 23.1974 145.855 22.5551 146.446C22.3494 146.739 22.1932 147.063 22.0928 147.406C22.0404 147.576 21.6827 148.549 21.5039 148.566Z" fill="url(#paint37_linear)"/>
<path d="M24.8413 146.494L30.743 151.733L25.8795 153.303L21.4521 148.474L24.8413 146.494Z" fill="#6E71FF"/>
<path d="M34.6163 160.762C34.71 160.859 34.8271 160.931 34.9565 160.971C35.174 160.998 35.3935 160.942 35.5715 160.814C36.8373 160.086 37.808 158.938 38.3152 157.569C38.3411 157.508 38.3531 157.443 38.3501 157.377C38.3293 157.3 38.2851 157.231 38.2236 157.181C37.8473 156.932 37.452 156.713 37.0415 156.526C36.6374 156.218 36.2764 155.857 35.9685 155.453C35.6562 155.047 35.2036 154.772 34.6992 154.681C34.2394 154.682 33.7969 154.856 33.4604 155.17C32.9753 155.544 32.6396 156.079 32.5138 156.679C32.2652 158.049 33.6436 159.867 34.6163 160.762Z" fill="#6E71FF"/>
<path d="M34.6163 160.762C34.71 160.859 34.8271 160.931 34.9565 160.971C35.174 160.998 35.3935 160.942 35.5715 160.814C36.8373 160.086 37.808 158.938 38.3152 157.569C38.3411 157.508 38.3531 157.443 38.3501 157.377C38.3293 157.3 38.2851 157.231 38.2236 157.181C37.8473 156.932 37.452 156.713 37.0415 156.526C36.6374 156.218 36.2764 155.857 35.9685 155.453C35.6562 155.047 35.2036 154.772 34.6992 154.681C34.2394 154.682 33.7969 154.856 33.4604 155.17C32.9753 155.544 32.6396 156.079 32.5138 156.679C32.2652 158.049 33.6436 159.867 34.6163 160.762Z" fill="url(#paint38_linear)"/>
<path d="M31.2218 159.628C31.2135 159.658 31.2117 159.69 31.2166 159.722C31.2214 159.753 31.2329 159.783 31.2502 159.81C31.2675 159.837 31.2902 159.86 31.3169 159.877C31.3435 159.894 31.3736 159.906 31.405 159.911C32.3428 160.295 33.2894 160.644 34.2533 160.958C34.3674 161.007 34.493 161.022 34.6154 161.002C34.7165 160.967 34.8077 160.909 34.8814 160.831C35.7992 159.983 36.6159 159.032 37.3154 157.996C36.0853 157.464 35.2304 156.33 34.1399 155.554C32.1509 154.132 31.3352 158.472 31.2218 159.628Z" fill="#6E71FF"/>
<path d="M35.3748 151.379C35.3252 151.368 35.2817 151.338 35.2527 151.296C35.2374 151.251 35.2374 151.202 35.2527 151.157C35.4359 150.337 35.1393 149.887 35.3225 149.063C35.4964 148.854 35.6957 148.668 35.9157 148.509C35.9651 148.492 36.0189 148.492 36.0684 148.509C36.4757 148.667 36.8612 148.877 37.2155 149.133L38.3235 149.874L38.1359 151.117C38.0966 151.357 38.0443 151.776 37.8262 151.924C37.6081 152.073 37.294 152.531 37.1021 152.487C36.474 152.352 35.9855 151.602 35.3748 151.379Z" fill="#6E71FF"/>
<path d="M35.3748 151.379C35.3252 151.368 35.2817 151.338 35.2527 151.296C35.2374 151.251 35.2374 151.202 35.2527 151.157C35.4359 150.337 35.1393 149.887 35.3225 149.063C35.4964 148.854 35.6957 148.668 35.9157 148.509C35.9651 148.492 36.0189 148.492 36.0684 148.509C36.4757 148.667 36.8612 148.877 37.2155 149.133L38.3235 149.874L38.1359 151.117C38.0966 151.357 38.0443 151.776 37.8262 151.924C37.6081 152.073 37.294 152.531 37.1021 152.487C36.474 152.352 35.9855 151.602 35.3748 151.379Z" fill="url(#paint39_linear)"/>
<path d="M34.7689 151.934C34.7205 151.922 34.6785 151.892 34.6511 151.851C34.6358 151.806 34.6358 151.757 34.6511 151.711L35.2051 149.251C35.2051 149.177 35.2443 149.094 35.3185 149.064C35.3668 149.048 35.4185 149.048 35.4668 149.064C35.8746 149.221 36.2602 149.431 36.614 149.687L37.7262 150.429L37.5387 151.681C37.5038 151.921 37.4514 152.339 37.229 152.488C37.0065 152.636 36.8277 152.488 36.6358 152.44C36.004 152.308 35.3806 152.139 34.7689 151.934Z" fill="#6E71FF"/>
<path d="M91.2419 105.096C91.8482 106.605 91.7304 108.302 91.4382 109.894C91.146 111.486 90.701 113.078 90.6836 114.692C90.6794 114.724 90.6819 114.756 90.6909 114.787C90.7 114.818 90.7153 114.846 90.7359 114.871C90.79 114.906 90.8559 114.919 90.9191 114.906L92.5767 114.74C92.6492 114.736 92.7204 114.719 92.786 114.687C92.8581 114.637 92.9153 114.567 92.9518 114.487C93.8939 112.781 94.112 110.757 95.0237 109.034C95.2983 108.593 95.5222 108.122 95.691 107.63C95.7129 107.55 95.7129 107.466 95.691 107.386C95.6618 107.297 95.6108 107.218 95.5427 107.155C94.9738 106.493 94.2986 105.932 93.545 105.493C93.2045 105.38 92.8479 105.324 92.4894 105.327C92.3455 105.327 91.303 105.248 91.2419 105.096Z" fill="#6E71FF"/>
<path d="M91.2419 105.096C91.8482 106.605 91.7304 108.302 91.4382 109.894C91.146 111.486 90.701 113.078 90.6836 114.692C90.6794 114.724 90.6819 114.756 90.6909 114.787C90.7 114.818 90.7153 114.846 90.7359 114.871C90.79 114.906 90.8559 114.919 90.9191 114.906L92.5767 114.74C92.6492 114.736 92.7204 114.719 92.786 114.687C92.8581 114.637 92.9153 114.567 92.9518 114.487C93.8939 112.781 94.112 110.757 95.0237 109.034C95.2983 108.593 95.5222 108.122 95.691 107.63C95.7129 107.55 95.7129 107.466 95.691 107.386C95.6618 107.297 95.6108 107.218 95.5427 107.155C94.9738 106.493 94.2986 105.932 93.545 105.493C93.2045 105.38 92.8479 105.324 92.4894 105.327C92.3455 105.327 91.303 105.248 91.2419 105.096Z" fill="url(#paint40_linear)"/>
<path d="M94.178 107.704L90.8411 114.858L87.9492 110.644L91.3122 105.021L94.178 107.704Z" fill="#6E71FF"/>
<path d="M83.3029 121.147C83.2346 121.265 83.1984 121.399 83.1982 121.536C83.2337 121.751 83.3489 121.946 83.521 122.081C84.5827 123.083 85.9597 123.684 87.4162 123.782C87.481 123.788 87.5464 123.781 87.6081 123.76C87.6775 123.719 87.7312 123.656 87.7608 123.581C87.8919 123.154 87.9882 122.716 88.0487 122.273C88.2308 121.798 88.4742 121.35 88.7727 120.938C89.0756 120.525 89.2112 120.012 89.1522 119.503C89.0248 119.057 88.7335 118.675 88.3366 118.434C87.8405 118.076 87.2322 117.907 86.6223 117.959C85.2265 118.12 83.8787 119.961 83.3029 121.147Z" fill="#6E71FF"/>
<path d="M83.3029 121.147C83.2346 121.265 83.1984 121.399 83.1982 121.536C83.2337 121.751 83.3489 121.946 83.521 122.081C84.5827 123.083 85.9597 123.684 87.4162 123.782C87.481 123.788 87.5464 123.781 87.6081 123.76C87.6775 123.719 87.7312 123.656 87.7608 123.581C87.8919 123.154 87.9882 122.716 88.0487 122.273C88.2308 121.798 88.4742 121.35 88.7727 120.938C89.0756 120.525 89.2112 120.012 89.1522 119.503C89.0248 119.057 88.7335 118.675 88.3366 118.434C87.8405 118.076 87.2322 117.907 86.6223 117.959C85.2265 118.12 83.8787 119.961 83.3029 121.147Z" fill="url(#paint41_linear)"/>
<path d="M83.4168 117.571C83.3647 117.576 83.315 117.596 83.2729 117.627C83.2254 117.683 83.1992 117.754 83.1987 117.828C83.0999 118.837 83.0359 119.846 83.0068 120.855C82.9957 120.978 83.0167 121.101 83.0679 121.213C83.131 121.301 83.2149 121.373 83.3121 121.422C84.3861 122.059 85.5309 122.569 86.7231 122.94C86.8802 121.61 87.722 120.471 88.1538 119.202C88.9477 116.873 84.5596 117.348 83.4168 117.571Z" fill="#6E71FF"/>
<path d="M92.5069 119.193C92.5041 119.142 92.5214 119.092 92.5549 119.053C92.5916 119.023 92.6382 119.008 92.6858 119.01C93.5232 118.953 93.8722 118.539 94.7097 118.482C94.9617 118.585 95.1981 118.723 95.4119 118.892C95.4395 118.936 95.4503 118.989 95.4425 119.04C95.4088 119.476 95.3178 119.906 95.172 120.318L94.7838 121.592L93.5363 121.766C93.2964 121.801 92.882 121.871 92.6639 121.701C92.4459 121.531 91.9312 121.365 91.9181 121.169C91.9093 120.523 92.4677 119.838 92.5069 119.193Z" fill="#6E71FF"/>
<path d="M92.5069 119.193C92.5041 119.142 92.5214 119.092 92.5549 119.053C92.5916 119.023 92.6382 119.008 92.6858 119.01C93.5232 118.953 93.8722 118.539 94.7097 118.482C94.9617 118.585 95.1981 118.723 95.4119 118.892C95.4395 118.936 95.4503 118.989 95.4425 119.04C95.4088 119.476 95.3178 119.906 95.172 120.318L94.7838 121.592L93.5363 121.766C93.2964 121.801 92.882 121.871 92.6639 121.701C92.4459 121.531 91.9312 121.365 91.9181 121.169C91.9093 120.523 92.4677 119.838 92.5069 119.193Z" fill="url(#paint42_linear)"/>
<path d="M91.8046 118.779C91.8023 118.728 91.8195 118.678 91.8526 118.639C91.891 118.613 91.9368 118.599 91.9835 118.6L94.5003 118.425C94.5744 118.425 94.666 118.425 94.7097 118.482C94.7369 118.525 94.7478 118.576 94.7402 118.626C94.707 119.062 94.616 119.492 94.4698 119.904L94.0816 121.182L92.834 121.352C92.5941 121.387 92.1798 121.457 91.9617 121.287C91.7436 121.117 91.8526 120.903 91.8395 120.707C91.7886 120.065 91.777 119.421 91.8046 118.779Z" fill="#6E71FF"/>
<path d="M166.302 126.167C167.929 126.124 169.477 126.83 170.877 127.659C172.278 128.488 173.604 129.465 175.121 130.045C175.15 130.059 175.181 130.066 175.213 130.066C175.245 130.066 175.276 130.059 175.305 130.045C175.332 130.027 175.354 130.003 175.371 129.975C175.388 129.947 175.398 129.916 175.401 129.884L175.837 128.274C175.863 128.205 175.872 128.13 175.863 128.056C175.84 127.972 175.794 127.895 175.732 127.834C174.463 126.355 172.64 125.443 171.344 123.991C171.028 123.579 170.667 123.205 170.267 122.874C170.201 122.824 170.125 122.788 170.044 122.77C169.951 122.768 169.858 122.789 169.774 122.831C168.953 123.135 168.19 123.578 167.519 124.139C167.293 124.416 167.117 124.728 166.995 125.064C166.904 125.217 166.468 126.163 166.302 126.167Z" fill="#6E71FF"/>
<path d="M166.302 126.167C167.929 126.124 169.477 126.83 170.877 127.659C172.278 128.488 173.604 129.465 175.121 130.045C175.15 130.059 175.181 130.066 175.213 130.066C175.245 130.066 175.276 130.059 175.305 130.045C175.332 130.027 175.354 130.003 175.371 129.975C175.388 129.947 175.398 129.916 175.401 129.884L175.837 128.274C175.863 128.205 175.872 128.13 175.863 128.056C175.84 127.972 175.794 127.895 175.732 127.834C174.463 126.355 172.64 125.443 171.344 123.991C171.028 123.579 170.667 123.205 170.267 122.874C170.201 122.824 170.125 122.788 170.044 122.77C169.951 122.768 169.858 122.789 169.774 122.831C168.953 123.135 168.19 123.578 167.519 124.139C167.293 124.416 167.117 124.728 166.995 125.064C166.904 125.217 166.468 126.163 166.302 126.167Z" fill="url(#paint43_linear)"/>
<path d="M169.769 124.323L175.309 129.95L170.354 131.188L166.258 126.076L169.769 124.323Z" fill="#6E71FF"/>
<path d="M178.571 139.21C178.658 139.315 178.771 139.397 178.898 139.446C179.113 139.487 179.336 139.447 179.522 139.332C180.832 138.689 181.876 137.609 182.475 136.279C182.505 136.221 182.521 136.157 182.523 136.091C182.508 136.013 182.468 135.941 182.41 135.886C182.051 135.613 181.67 135.369 181.271 135.158C180.889 134.822 180.555 134.436 180.277 134.011C179.994 133.578 179.56 133.267 179.06 133.138C178.598 133.101 178.139 133.241 177.777 133.531C177.267 133.869 176.895 134.38 176.731 134.97C176.408 136.349 177.66 138.259 178.571 139.21Z" fill="#6E71FF"/>
<path d="M178.571 139.21C178.658 139.315 178.771 139.397 178.898 139.446C179.113 139.487 179.336 139.447 179.522 139.332C180.832 138.689 181.876 137.609 182.475 136.279C182.505 136.221 182.521 136.157 182.523 136.091C182.508 136.013 182.468 135.941 182.41 135.886C182.051 135.613 181.67 135.369 181.271 135.158C180.889 134.822 180.555 134.436 180.277 134.011C179.994 133.578 179.56 133.267 179.06 133.138C178.598 133.101 178.139 133.241 177.777 133.531C177.267 133.869 176.895 134.38 176.731 134.97C176.408 136.349 177.66 138.259 178.571 139.21Z" fill="url(#paint44_linear)"/>
<path d="M175.26 137.853C175.245 137.905 175.245 137.959 175.26 138.01C175.295 138.075 175.353 138.125 175.422 138.15C176.329 138.586 177.254 139.022 178.192 139.384C178.302 139.441 178.426 139.466 178.549 139.454C178.653 139.426 178.749 139.374 178.828 139.301C179.799 138.514 180.677 137.618 181.446 136.632C180.25 136.021 179.474 134.835 178.44 133.989C176.53 132.432 175.452 136.706 175.26 137.853Z" fill="#6E71FF"/>
<path d="M179.954 129.901C179.93 129.895 179.907 129.884 179.888 129.868C179.868 129.852 179.852 129.832 179.841 129.81C179.824 129.766 179.824 129.718 179.841 129.674C180.081 128.868 179.815 128.396 180.05 127.59C180.238 127.391 180.451 127.218 180.683 127.075C180.734 127.066 180.786 127.076 180.831 127.101C181.229 127.283 181.6 127.518 181.935 127.799L182.995 128.61L182.72 129.84C182.668 130.076 182.589 130.486 182.358 130.621C182.127 130.756 181.791 131.192 181.599 131.136C180.984 130.948 180.548 130.167 179.954 129.901Z" fill="#6E71FF"/>
<path d="M179.954 129.901C179.93 129.895 179.907 129.884 179.888 129.868C179.868 129.852 179.852 129.832 179.841 129.81C179.824 129.766 179.824 129.718 179.841 129.674C180.081 128.868 179.815 128.396 180.05 127.59C180.238 127.391 180.451 127.218 180.683 127.075C180.734 127.066 180.786 127.076 180.831 127.101C181.229 127.283 181.6 127.518 181.935 127.799L182.995 128.61L182.72 129.84C182.668 130.076 182.589 130.486 182.358 130.621C182.127 130.756 181.791 131.192 181.599 131.136C180.984 130.948 180.548 130.167 179.954 129.901Z" fill="url(#paint45_linear)"/>
<path d="M179.322 130.416C179.279 130.394 179.226 130.373 179.209 130.325C179.193 130.281 179.193 130.233 179.209 130.189L179.92 127.769C179.92 127.694 179.976 127.612 180.046 127.59C180.097 127.581 180.149 127.589 180.195 127.612C180.592 127.795 180.963 128.031 181.298 128.314L182.358 129.121L182.083 130.355C182.031 130.591 181.952 131.001 181.721 131.136C181.49 131.271 181.324 131.105 181.132 131.049C180.517 130.874 179.912 130.663 179.322 130.416Z" fill="#6E71FF"/>
<path d="M114.526 159.287C114.657 157.669 115.525 156.204 116.497 154.899C117.47 153.595 118.578 152.378 119.32 150.934C119.337 150.908 119.35 150.878 119.356 150.846C119.362 150.815 119.361 150.782 119.354 150.751C119.338 150.723 119.317 150.698 119.29 150.678C119.264 150.658 119.234 150.645 119.202 150.638L117.645 150.045C117.577 150.014 117.505 149.997 117.431 149.997C117.344 150.011 117.263 150.049 117.195 150.106C115.59 151.209 114.491 152.923 112.908 154.057C112.464 154.33 112.053 154.652 111.682 155.017C111.624 155.076 111.581 155.148 111.555 155.226C111.544 155.318 111.554 155.411 111.586 155.497C111.801 156.344 112.157 157.149 112.637 157.879C112.89 158.133 113.186 158.343 113.509 158.498C113.645 158.594 114.539 159.126 114.526 159.287Z" fill="#6E71FF"/>
<path d="M114.526 159.287C114.657 157.669 115.525 156.204 116.497 154.899C117.47 153.595 118.578 152.378 119.32 150.934C119.337 150.908 119.35 150.878 119.356 150.846C119.362 150.815 119.361 150.782 119.354 150.751C119.338 150.723 119.317 150.698 119.29 150.678C119.264 150.658 119.234 150.645 119.202 150.638L117.645 150.045C117.577 150.014 117.505 149.997 117.431 149.997C117.344 150.011 117.263 150.049 117.195 150.106C115.59 151.209 114.491 152.923 112.908 154.057C112.464 154.33 112.053 154.652 111.682 155.017C111.624 155.076 111.581 155.148 111.555 155.226C111.544 155.318 111.554 155.411 111.586 155.497C111.801 156.344 112.157 157.149 112.637 157.879C112.89 158.133 113.186 158.343 113.509 158.498C113.645 158.594 114.539 159.126 114.526 159.287Z" fill="url(#paint46_linear)"/>
<path d="M113.061 155.641L119.241 150.729L119.948 155.789L114.43 159.322L113.061 155.641Z" fill="#6E71FF"/>
<path d="M128.798 148.474C128.911 148.398 129.003 148.295 129.064 148.173C129.128 147.964 129.111 147.738 129.016 147.541C128.517 146.168 127.552 145.014 126.29 144.278C126.237 144.242 126.175 144.22 126.111 144.213C126.031 144.219 125.954 144.251 125.893 144.304C125.589 144.633 125.31 144.984 125.06 145.356C124.687 145.701 124.268 145.994 123.817 146.228C123.362 146.465 123.012 146.863 122.835 147.345C122.752 147.798 122.844 148.265 123.093 148.653C123.373 149.194 123.837 149.618 124.401 149.848C125.723 150.324 127.751 149.277 128.798 148.474Z" fill="#6E71FF"/>
<path d="M128.798 148.474C128.911 148.398 129.003 148.295 129.064 148.173C129.128 147.964 129.111 147.738 129.016 147.541C128.517 146.168 127.552 145.014 126.29 144.278C126.237 144.242 126.175 144.22 126.111 144.213C126.031 144.219 125.954 144.251 125.893 144.304C125.589 144.633 125.31 144.984 125.06 145.356C124.687 145.701 124.268 145.994 123.817 146.228C123.362 146.465 123.012 146.863 122.835 147.345C122.752 147.798 122.844 148.265 123.093 148.653C123.373 149.194 123.837 149.618 124.401 149.848C125.723 150.324 127.751 149.277 128.798 148.474Z" fill="url(#paint47_linear)"/>
<path d="M127.097 151.619C127.148 151.634 127.202 151.634 127.254 151.619C127.32 151.589 127.374 151.537 127.406 151.471C127.947 150.599 128.453 149.726 128.929 148.854C128.996 148.75 129.034 148.629 129.038 148.505C129.022 148.398 128.979 148.297 128.911 148.213C128.234 147.162 127.438 146.193 126.538 145.325C125.801 146.446 124.541 147.092 123.59 148.034C121.841 149.774 125.976 151.31 127.097 151.619Z" fill="#6E71FF"/>
<path d="M119.685 146.11C119.677 146.133 119.663 146.155 119.646 146.173C119.629 146.191 119.608 146.205 119.585 146.215C119.539 146.223 119.491 146.215 119.45 146.193C118.673 145.87 118.176 146.088 117.4 145.757C117.225 145.548 117.079 145.318 116.964 145.072C116.959 145.021 116.973 144.97 117.003 144.928C117.226 144.552 117.499 144.209 117.814 143.907L118.735 142.939L119.925 143.34C120.157 143.419 120.558 143.541 120.667 143.776C120.776 144.012 121.173 144.4 121.103 144.583C120.837 145.194 120.013 145.547 119.685 146.11Z" fill="#6E71FF"/>
<path d="M119.685 146.11C119.677 146.133 119.663 146.155 119.646 146.173C119.629 146.191 119.608 146.205 119.585 146.215C119.539 146.223 119.491 146.215 119.45 146.193C118.673 145.87 118.176 146.088 117.4 145.757C117.225 145.548 117.079 145.318 116.964 145.072C116.959 145.021 116.973 144.97 117.003 144.928C117.226 144.552 117.499 144.209 117.814 143.907L118.735 142.939L119.925 143.34C120.157 143.419 120.558 143.541 120.667 143.776C120.776 144.012 121.173 144.4 121.103 144.583C120.837 145.194 120.013 145.547 119.685 146.11Z" fill="url(#paint48_linear)"/>
<path d="M120.13 146.795C120.108 146.841 120.072 146.878 120.026 146.9C119.979 146.908 119.932 146.9 119.89 146.878L117.561 145.91C117.491 145.879 117.413 145.84 117.4 145.766C117.394 145.714 117.406 145.661 117.435 145.617C117.662 145.244 117.936 144.9 118.25 144.597L119.166 143.628L120.362 144.03C120.593 144.108 120.994 144.23 121.103 144.466C121.212 144.701 121.029 144.858 120.95 145.042C120.715 145.643 120.441 146.229 120.13 146.795Z" fill="#6E71FF"/>
<defs>
<linearGradient id="paint0_linear" x1="389.388" y1="102.953" x2="3.56242" y2="52.43" gradientUnits="userSpaceOnUse">
<stop offset="0.079127"/>
<stop offset="0.83" stop-opacity="0.07"/>
<stop offset="1" stop-opacity="0"/>
</linearGradient>
<linearGradient id="paint1_linear" x1="1138.19" y1="2806.11" x2="1179.52" y2="2836.92" gradientUnits="userSpaceOnUse">
<stop offset="0.01"/>
<stop offset="0.13" stop-opacity="0.69"/>
<stop offset="1" stop-opacity="0"/>
</linearGradient>
<linearGradient id="paint2_linear" x1="278.5" y1="89.4998" x2="-12.0331" y2="78.3597" gradientUnits="userSpaceOnUse">
<stop stop-opacity="0"/>
<stop offset="0.639117" stop-opacity="0.75"/>
<stop offset="1"/>
</linearGradient>
<linearGradient id="paint3_linear" x1="255.8" y1="114.671" x2="-34.4127" y2="98.4408" gradientUnits="userSpaceOnUse">
<stop stop-opacity="0"/>
<stop offset="0.639117" stop-opacity="0.75"/>
<stop offset="1"/>
</linearGradient>
<linearGradient id="paint4_linear" x1="249.111" y1="122.138" x2="-28.3464" y2="106.623" gradientUnits="userSpaceOnUse">
<stop stop-opacity="0"/>
<stop offset="0.639117" stop-opacity="0.75"/>
<stop offset="1"/>
</linearGradient>
<linearGradient id="paint5_linear" x1="212" y1="127" x2="3.68325" y2="114.118" gradientUnits="userSpaceOnUse">
<stop stop-opacity="0"/>
<stop offset="0.639117" stop-opacity="0.75"/>
<stop offset="1"/>
</linearGradient>
<linearGradient id="paint6_linear" x1="250" y1="128" x2="-39.8296" y2="111.913" gradientUnits="userSpaceOnUse">
<stop stop-opacity="0"/>
<stop offset="0.639117" stop-opacity="0.75"/>
<stop offset="1"/>
</linearGradient>
<linearGradient id="paint7_linear" x1="52.5092" y1="147.677" x2="90.0688" y2="147.677" gradientUnits="userSpaceOnUse">
<stop stop-color="white" stop-opacity="0"/>
<stop offset="0.95" stop-color="white"/>
</linearGradient>
<linearGradient id="paint8_linear" x1="55.6147" y1="133.916" x2="94.9321" y2="133.916" gradientUnits="userSpaceOnUse">
<stop stop-color="white" stop-opacity="0"/>
<stop offset="0.95" stop-color="white"/>
</linearGradient>
<linearGradient id="paint9_linear" x1="65.7387" y1="116.236" x2="99.1196" y2="116.236" gradientUnits="userSpaceOnUse">
<stop stop-color="white" stop-opacity="0"/>
<stop offset="0.95" stop-color="white"/>
</linearGradient>
<linearGradient id="paint10_linear" x1="106.356" y1="104.071" x2="116.645" y2="104.071" gradientUnits="userSpaceOnUse">
<stop stop-color="white" stop-opacity="0"/>
<stop offset="0.95" stop-color="white"/>
</linearGradient>
<linearGradient id="paint11_linear" x1="133.465" y1="102.76" x2="141.621" y2="102.76" gradientUnits="userSpaceOnUse">
<stop stop-color="white" stop-opacity="0"/>
<stop offset="0.95" stop-color="white"/>
</linearGradient>
<linearGradient id="paint12_linear" x1="144.178" y1="118.604" x2="182.266" y2="118.604" gradientUnits="userSpaceOnUse">
<stop stop-color="white" stop-opacity="0"/>
<stop offset="0.95" stop-color="white"/>
</linearGradient>
<linearGradient id="paint13_linear" x1="143.467" y1="145.957" x2="191.404" y2="145.957" gradientUnits="userSpaceOnUse">
<stop stop-color="white" stop-opacity="0"/>
<stop offset="0.95" stop-color="white"/>
</linearGradient>
<linearGradient id="paint14_linear" x1="205.5" y1="156" x2="33.2395" y2="139.595" gradientUnits="userSpaceOnUse">
<stop stop-opacity="0"/>
<stop offset="0.639117" stop-opacity="0.75"/>
<stop offset="1"/>
</linearGradient>
<linearGradient id="paint15_linear" x1="198.5" y1="158.5" x2="48.9873" y2="149.535" gradientUnits="userSpaceOnUse">
<stop stop-opacity="0"/>
<stop offset="0.639117" stop-opacity="0.75"/>
<stop offset="1"/>
</linearGradient>
<linearGradient id="paint16_linear" x1="50.1225" y1="185.896" x2="87.6777" y2="185.896" gradientUnits="userSpaceOnUse">
<stop stop-color="white" stop-opacity="0"/>
<stop offset="0.95" stop-color="white"/>
</linearGradient>
<linearGradient id="paint17_linear" x1="53.229" y1="172.135" x2="92.542" y2="172.135" gradientUnits="userSpaceOnUse">
<stop stop-color="white" stop-opacity="0"/>
<stop offset="0.95" stop-color="white"/>
</linearGradient>
<linearGradient id="paint18_linear" x1="63.3519" y1="154.457" x2="96.7286" y2="154.457" gradientUnits="userSpaceOnUse">
<stop stop-color="white" stop-opacity="0"/>
<stop offset="0.95" stop-color="white"/>
</linearGradient>
<linearGradient id="paint19_linear" x1="103.966" y1="142.292" x2="114.255" y2="142.292" gradientUnits="userSpaceOnUse">
<stop stop-color="white" stop-opacity="0"/>
<stop offset="0.95" stop-color="white"/>
</linearGradient>
<linearGradient id="paint20_linear" x1="131.075" y1="140.983" x2="139.232" y2="140.983" gradientUnits="userSpaceOnUse">
<stop stop-color="white" stop-opacity="0"/>
<stop offset="0.95" stop-color="white"/>
</linearGradient>
<linearGradient id="paint21_linear" x1="141.789" y1="156.827" x2="179.876" y2="156.827" gradientUnits="userSpaceOnUse">
<stop stop-color="white" stop-opacity="0"/>
<stop offset="0.95" stop-color="white"/>
</linearGradient>
<linearGradient id="paint22_linear" x1="141.077" y1="184.178" x2="189.013" y2="184.178" gradientUnits="userSpaceOnUse">
<stop stop-color="white" stop-opacity="0"/>
<stop offset="0.95" stop-color="white"/>
</linearGradient>
<linearGradient id="paint23_linear" x1="165" y1="174.5" x2="69.8605" y2="168.56" gradientUnits="userSpaceOnUse">
<stop stop-opacity="0"/>
<stop offset="0.639117" stop-opacity="0.75"/>
<stop offset="1"/>
</linearGradient>
<linearGradient id="paint24_linear" x1="150.5" y1="180" x2="79.0197" y2="176.363" gradientUnits="userSpaceOnUse">
<stop stop-opacity="0"/>
<stop offset="0.639117" stop-opacity="0.75"/>
<stop offset="1"/>
</linearGradient>
<linearGradient id="paint25_linear" x1="8255.6" y1="2267.63" x2="8804.73" y2="3006.46" gradientUnits="userSpaceOnUse">
<stop offset="0.01"/>
<stop offset="0.13" stop-opacity="0.69"/>
<stop offset="1" stop-opacity="0"/>
</linearGradient>
<linearGradient id="paint26_linear" x1="4559.93" y1="1814.87" x2="4948.74" y2="2144.26" gradientUnits="userSpaceOnUse">
<stop offset="0.01"/>
<stop offset="0.13" stop-opacity="0.69"/>
<stop offset="1" stop-opacity="0"/>
</linearGradient>
<linearGradient id="paint27_linear" x1="3413.81" y1="1358.44" x2="3414.29" y2="1552.89" gradientUnits="userSpaceOnUse">
<stop offset="0.01"/>
<stop offset="0.13" stop-opacity="0.69"/>
<stop offset="1" stop-opacity="0"/>
</linearGradient>
<linearGradient id="paint28_linear" x1="-88139" y1="21416" x2="-88925.1" y2="20819.4" gradientUnits="userSpaceOnUse">
<stop offset="0.01"/>
<stop offset="0.13" stop-opacity="0.69"/>
<stop offset="1" stop-opacity="0"/>
</linearGradient>
<linearGradient id="paint29_linear" x1="-58936.1" y1="14232.2" x2="-59395.6" y2="13968" gradientUnits="userSpaceOnUse">
<stop offset="0.01"/>
<stop offset="0.13" stop-opacity="0.69"/>
<stop offset="1" stop-opacity="0"/>
</linearGradient>
<linearGradient id="paint30_linear" x1="-39613.2" y1="9207.63" x2="-39649.7" y2="9011.83" gradientUnits="userSpaceOnUse">
<stop offset="0.01"/>
<stop offset="0.13" stop-opacity="0.69"/>
<stop offset="1" stop-opacity="0"/>
</linearGradient>
<linearGradient id="paint31_linear" x1="-113.522" y1="23405.4" x2="-205.151" y2="23727.6" gradientUnits="userSpaceOnUse">
<stop offset="0.01"/>
<stop offset="0.13" stop-opacity="0.69"/>
<stop offset="1" stop-opacity="0"/>
</linearGradient>
<linearGradient id="paint32_linear" x1="-3563.82" y1="16398.8" x2="-3555.06" y2="16593.4" gradientUnits="userSpaceOnUse">
<stop offset="0.01"/>
<stop offset="0.13" stop-opacity="0.69"/>
<stop offset="1" stop-opacity="0"/>
</linearGradient>
<linearGradient id="paint33_linear" x1="-2899.46" y1="9303.61" x2="-2965.68" y2="9354.89" gradientUnits="userSpaceOnUse">
<stop offset="0.01"/>
<stop offset="0.13" stop-opacity="0.69"/>
<stop offset="1" stop-opacity="0"/>
</linearGradient>
<linearGradient id="paint34_linear" x1="-18304.2" y1="-12759.6" x2="-18161.1" y2="-12900" gradientUnits="userSpaceOnUse">
<stop offset="0.01"/>
<stop offset="0.13" stop-opacity="0.69"/>
<stop offset="1" stop-opacity="0"/>
</linearGradient>
<linearGradient id="paint35_linear" x1="-9203.21" y1="-9966.19" x2="-9092.48" y2="-10046.1" gradientUnits="userSpaceOnUse">
<stop offset="0.01"/>
<stop offset="0.13" stop-opacity="0.69"/>
<stop offset="1" stop-opacity="0"/>
</linearGradient>
<linearGradient id="paint36_linear" x1="-5779.84" y1="-5536.2" x2="-5723.66" y2="-5517.04" gradientUnits="userSpaceOnUse">
<stop offset="0.01"/>
<stop offset="0.13" stop-opacity="0.69"/>
<stop offset="1" stop-opacity="0"/>
</linearGradient>
<linearGradient id="paint37_linear" x1="-32972.2" y1="-16267" x2="-32904.5" y2="-16513.2" gradientUnits="userSpaceOnUse">
<stop offset="0.01"/>
<stop offset="0.13" stop-opacity="0.69"/>
<stop offset="1" stop-opacity="0"/>
</linearGradient>
<linearGradient id="paint38_linear" x1="-23110.3" y1="-6353.92" x2="-23119.6" y2="-6503.19" gradientUnits="userSpaceOnUse">
<stop offset="0.01"/>
<stop offset="0.13" stop-opacity="0.69"/>
<stop offset="1" stop-opacity="0"/>
</linearGradient>
<linearGradient id="paint39_linear" x1="-12515.8" y1="-2097.8" x2="-12465.9" y2="-2137.77" gradientUnits="userSpaceOnUse">
<stop offset="0.01"/>
<stop offset="0.13" stop-opacity="0.69"/>
<stop offset="1" stop-opacity="0"/>
</linearGradient>
<linearGradient id="paint40_linear" x1="-10907.3" y1="-11449.5" x2="-10729.7" y2="-11545.4" gradientUnits="userSpaceOnUse">
<stop offset="0.01"/>
<stop offset="0.13" stop-opacity="0.69"/>
<stop offset="1" stop-opacity="0"/>
</linearGradient>
<linearGradient id="paint41_linear" x1="-5137.89" y1="-7958.12" x2="-4996.92" y2="-8002.65" gradientUnits="userSpaceOnUse">
<stop offset="0.01"/>
<stop offset="0.13" stop-opacity="0.69"/>
<stop offset="1" stop-opacity="0"/>
</linearGradient>
<linearGradient id="paint42_linear" x1="-2510.55" y1="-4303.5" x2="-2466.65" y2="-4272.99" gradientUnits="userSpaceOnUse">
<stop offset="0.01"/>
<stop offset="0.13" stop-opacity="0.69"/>
<stop offset="1" stop-opacity="0"/>
</linearGradient>
<linearGradient id="paint43_linear" x1="-30152.1" y1="-17849.7" x2="-30072.7" y2="-18101.4" gradientUnits="userSpaceOnUse">
<stop offset="0.01"/>
<stop offset="0.13" stop-opacity="0.69"/>
<stop offset="1" stop-opacity="0"/>
</linearGradient>
<linearGradient id="paint44_linear" x1="-20930" y1="-8245.48" x2="-20929.8" y2="-8395.46" gradientUnits="userSpaceOnUse">
<stop offset="0.01"/>
<stop offset="0.13" stop-opacity="0.69"/>
<stop offset="1" stop-opacity="0"/>
</linearGradient>
<linearGradient id="paint45_linear" x1="-11631.9" y1="-3480.77" x2="-11578.2" y2="-3518.09" gradientUnits="userSpaceOnUse">
<stop offset="0.01"/>
<stop offset="0.13" stop-opacity="0.69"/>
<stop offset="1" stop-opacity="0"/>
</linearGradient>
<linearGradient id="paint46_linear" x1="-35632.5" y1="12422.3" x2="-35898.5" y2="12370.7" gradientUnits="userSpaceOnUse">
<stop offset="0.01"/>
<stop offset="0.13" stop-opacity="0.69"/>
<stop offset="1" stop-opacity="0"/>
</linearGradient>
<linearGradient id="paint47_linear" x1="-27623.2" y1="10827.8" x2="-27772.4" y2="10799.2" gradientUnits="userSpaceOnUse">
<stop offset="0.01"/>
<stop offset="0.13" stop-opacity="0.69"/>
<stop offset="1" stop-opacity="0"/>
</linearGradient>
<linearGradient id="paint48_linear" x1="-17428.6" y1="7197.35" x2="-17453.9" y2="7151.14" gradientUnits="userSpaceOnUse">
<stop offset="0.01"/>
<stop offset="0.13" stop-opacity="0.69"/>
<stop offset="1" stop-opacity="0"/>
</linearGradient>
</defs>
</svg>
