<svg width="208" height="208" viewBox="0 0 208 208" fill="none" xmlns="http://www.w3.org/2000/svg">
<path opacity="0.18" d="M15.9833 177.378C18.4129 179.312 21.0658 180.891 23.8743 182.076C28.7357 184.121 33.914 185.037 38.903 186.613C41.1176 187.305 43.291 188.145 45.4232 189.06C58.3362 194.575 70.1871 203.324 83.7709 206.517C108.942 212.478 133.27 198.925 157.33 193.178C177.944 188.265 194.698 200.01 203.021 164.472C206.499 149.678 210.805 134.012 205.54 119.816C200.275 105.62 192.862 92.5085 187.84 78.2407C180.669 57.8639 178.014 34.388 163.903 18.8386C154.131 8.0719 140.165 2.87389 126.33 1.02957C112.495 -0.814744 98.4868 0.368654 84.5572 0.431173C67.779 0.489226 49.9059 -0.787951 35.3959 8.37557C30.2785 11.6579 25.8677 16.0903 22.4598 21.3748C19.0518 26.6594 16.7257 32.6739 15.6375 39.0144C12.7561 56.5153 19.5974 74.6593 16.5226 92.1289C13.6699 108.393 2.52705 122.004 0.349518 138.402C-1.62631 153.165 4.93507 168.652 15.9833 177.378Z" fill="#6E71FF"/>
<circle cx="98" cy="104" r="56" fill="#6E71FF"/>
<circle cx="98" cy="104" r="56" fill="url(#paint0_linear)" fill-opacity="0.95"/>
<circle cx="98" cy="104" r="56" fill="url(#paint1_linear)"/>
<path d="M98.1387 115.368C99.9828 115.368 101.478 113.873 101.478 112.029C101.478 110.185 99.9828 108.69 98.1387 108.69C96.2947 108.69 94.7998 110.185 94.7998 112.029C94.7998 113.873 96.2947 115.368 98.1387 115.368Z" fill="#6E71FF"/>
<path d="M99.8079 109.139C97.5929 107.857 94.7998 109.457 94.7998 112.03C94.7998 114.607 97.5949 116.201 99.8079 114.921C97.5839 113.634 97.584 110.426 99.8079 109.139Z" fill="white"/>
<path d="M99.8079 109.139C97.5929 107.857 94.7998 109.457 94.7998 112.03C94.7998 114.607 97.5949 116.201 99.8079 114.921C97.5839 113.634 97.584 110.426 99.8079 109.139Z" fill="white"/>
<path d="M99.8079 109.139C97.5929 107.857 94.7998 109.457 94.7998 112.03C94.7998 114.607 97.5949 116.201 99.8079 114.921C97.5839 113.634 97.584 110.426 99.8079 109.139Z" fill="#6E71FF"/>
<path d="M106.901 114.502C106.229 113.87 105.172 113.903 104.54 114.576L100.538 118.838C98.9653 118.838 97.4064 118.838 95.839 118.838L91.8368 114.576C91.205 113.903 90.1477 113.87 89.4751 114.502C88.8026 115.134 88.7696 116.191 89.4009 116.863L93.969 121.728V135.278C93.969 136.163 94.6873 136.881 95.573 136.881C97.313 136.881 99.0594 136.881 100.804 136.881C101.69 136.881 102.407 136.163 102.407 135.278C102.407 132.598 102.407 124.449 102.407 121.728L106.976 116.863C107.607 116.191 107.574 115.134 106.901 114.502Z" fill="white"/>
<path d="M106.901 114.502C106.229 113.87 105.172 113.903 104.54 114.576L100.538 118.838C98.9653 118.838 97.4064 118.838 95.839 118.838L91.8368 114.576C91.205 113.903 90.1477 113.87 89.4751 114.502C88.8026 115.134 88.7696 116.191 89.4009 116.863L93.969 121.728V135.278C93.969 136.163 94.6873 136.881 95.573 136.881C97.313 136.881 99.0594 136.881 100.804 136.881C101.69 136.881 102.407 136.163 102.407 135.278C102.407 132.598 102.407 124.449 102.407 121.728L106.976 116.863C107.607 116.191 107.574 115.134 106.901 114.502Z" fill="white"/>
<path d="M106.901 114.502C106.229 113.87 105.172 113.903 104.54 114.576L100.538 118.838C98.9653 118.838 97.4064 118.838 95.839 118.838L91.8368 114.576C91.205 113.903 90.1477 113.87 89.4751 114.502C88.8026 115.134 88.7696 116.191 89.4009 116.863L93.969 121.728V135.278C93.969 136.163 94.6873 136.881 95.573 136.881C97.313 136.881 99.0594 136.881 100.804 136.881C101.69 136.881 102.407 136.163 102.407 135.278C102.407 132.598 102.407 124.449 102.407 121.728L106.976 116.863C107.607 116.191 107.574 115.134 106.901 114.502Z" fill="#6E71FF"/>
<path d="M77.3418 89.4529C80.7586 89.4529 83.5284 86.6831 83.5284 83.2664C83.5284 79.8496 80.7586 77.0798 77.3418 77.0798C73.9251 77.0798 71.1553 79.8496 71.1553 83.2664C71.1553 86.6831 73.9251 89.4529 77.3418 89.4529Z" fill="#6E71FF"/>
<path d="M73.8064 83.2661C73.8064 80.3043 75.8879 77.8302 78.6675 77.2231C74.7871 76.3763 71.1553 79.3346 71.1553 83.2661C71.1553 87.2029 74.7932 90.1556 78.6676 89.309C75.8879 88.7019 73.8064 86.2277 73.8064 83.2661Z" fill="#6E71FF"/>
<path d="M80.6112 92.3748H74.0725C70.724 92.3748 68 95.0989 68 98.4473V113.297C68.0003 114.088 68.6448 114.732 69.4366 114.732H70.5761C69.7899 121.884 69.7402 121.574 70.0124 121.878C70.2679 122.163 70.372 122.099 72.4394 122.099V135.445C72.4394 136.237 73.0839 136.881 73.8761 136.881H75.9049C76.4582 136.881 76.9396 136.567 77.1796 136.107H77.504C77.7441 136.567 78.2251 136.881 78.7787 136.881H80.8075C81.5995 136.881 82.2442 136.237 82.2442 135.445V122.099C82.251 122.099 84.18 122.099 84.18 122.099C84.5955 122.099 84.9129 121.719 84.8297 121.304L84.1076 114.732H85.247C86.0392 114.732 86.6837 114.088 86.6837 113.296V98.4473C86.6837 95.0989 83.9595 92.3748 80.6112 92.3748Z" fill="#6E71FF"/>
<path d="M121.084 86.1948H113.637C109.818 86.1948 106.722 89.2914 106.722 93.1105V110.022C106.722 110.925 107.455 111.657 108.358 111.657H111.778V135.245C111.778 136.149 112.51 136.882 113.414 136.882H115.724C116.628 136.882 117.361 136.149 117.361 135.245C117.361 136.149 118.093 136.882 118.997 136.882H121.308C122.211 136.882 122.944 136.149 122.944 135.245V111.657H126.364C127.267 111.657 128 110.924 128 110.021C128 109.762 128 93.3679 128 93.1105C128 89.2914 124.904 86.1948 121.084 86.1948Z" fill="#6E71FF"/>
<path d="M117.36 83.3756C120.778 83.3756 123.547 80.6057 123.547 77.1888C123.547 73.7719 120.778 71.002 117.36 71.002C113.944 71.002 111.174 73.7719 111.174 77.1888C111.174 80.6057 113.944 83.3756 117.36 83.3756Z" fill="#6E71FF"/>
<path d="M123.547 77.1887C123.547 73.7142 120.685 70.9246 117.232 71.0051C115.487 74.4611 114.303 78.2477 113.801 82.2471C117.86 85.11 123.547 82.2232 123.547 77.1887Z" fill="#6E71FF"/>
<path d="M116.811 71.8733C117.377 71.5353 118.002 71.2844 118.667 71.1411C118.208 71.0426 117.734 70.9932 117.232 71.0049C117.087 71.2922 116.947 71.582 116.811 71.8733Z" fill="white"/>
<path d="M116.811 71.8733C117.377 71.5353 118.002 71.2844 118.667 71.1411C118.208 71.0426 117.734 70.9932 117.232 71.0049C117.087 71.2922 116.947 71.582 116.811 71.8733Z" fill="white"/>
<path d="M118.667 83.2359C116.662 82.8044 115.017 81.4018 114.252 79.5442C114.011 80.7029 113.801 82.1186 113.801 82.2473C116.151 83.9039 118.522 83.2359 118.667 83.2359Z" fill="white"/>
<path d="M118.667 83.2359C116.662 82.8044 115.017 81.4018 114.252 79.5442C114.011 80.7029 113.801 82.1186 113.801 82.2473C116.151 83.9039 118.522 83.2359 118.667 83.2359Z" fill="white"/>
<path d="M75.0908 135.445V122.929C75.0908 122.304 74.8105 122.137 74.6021 122.099C73.083 122.099 72.917 122.161 72.6637 121.878C72.4004 121.584 72.4471 121.832 73.1058 115.838C73.2373 114.64 72.4709 114.732 72.088 114.732C71.2959 114.732 70.6515 114.088 70.6513 113.297V98.4473C70.6513 95.0989 73.3754 92.3748 76.7238 92.3748H74.0726C70.724 92.3748 68 95.0989 68 98.4473V113.297C68.0003 114.088 68.6448 114.732 69.4366 114.732H70.5761C69.7899 121.884 69.7402 121.574 70.0124 121.878C70.1382 122.019 70.3176 122.099 70.5061 122.099H72.4394V135.445C72.4394 136.237 73.0839 136.881 73.8761 136.881C76.1103 136.881 75.9873 136.894 76.2107 136.845C75.5707 136.701 75.0908 136.128 75.0908 135.445Z" fill="#6E71FF"/>
<path d="M114.429 135.245V113.484C114.429 112.081 113.777 111.731 113.322 111.657H111.778V135.245C111.778 136.149 112.511 136.881 113.414 136.881C115.903 136.881 115.767 136.886 115.895 136.873C115.072 136.787 114.429 136.091 114.429 135.245Z" fill="white"/>
<path d="M114.429 135.245V113.484C114.429 112.081 113.777 111.731 113.322 111.657H111.778V135.245C111.778 136.149 112.511 136.881 113.414 136.881C115.903 136.881 115.767 136.886 115.895 136.873C115.072 136.787 114.429 136.091 114.429 135.245Z" fill="white"/>
<path d="M114.429 135.245V113.484C114.429 112.081 113.777 111.731 113.322 111.657H111.778V135.245C111.778 136.149 112.511 136.881 113.414 136.881C115.903 136.881 115.767 136.886 115.895 136.873C115.072 136.787 114.429 136.091 114.429 135.245Z" fill="#6E71FF"/>
<path d="M106.839 114.449C106.165 113.875 105.152 113.923 104.539 114.576L100.537 118.838H102.215C102.914 118.811 102.929 118.619 106.839 114.449Z" fill="#6E71FF"/>
<path d="M96.1338 122.481C96.1338 121.664 95.7676 121.185 95.647 121.049L91.3691 116.493C90.7616 115.846 90.7453 114.859 91.2964 114.192C89.6461 113.461 88.1545 115.536 89.4005 116.863L93.9687 121.728V135.278C93.9687 136.163 94.6869 136.882 95.5726 136.882C95.978 136.882 96.2069 136.882 96.623 136.882C96.3209 136.579 96.1339 136.161 96.1339 135.7V122.481H96.1338Z" fill="#6E71FF"/>
<path d="M113.787 77.1887C113.787 74.2204 115.878 71.7414 118.667 71.1414C114.792 70.3082 111.174 73.2649 111.174 77.1887C111.174 81.118 114.799 84.0688 118.667 83.236C115.878 82.636 113.787 80.157 113.787 77.1887Z" fill="#6E71FF"/>
<path d="M150 180.128C168.043 173.379 180 156.139 180 136.875V125.2C173.814 125.2 168.8 120.186 168.8 114H150H131.2C131.2 120.186 126.186 125.2 120 125.2V136.875C120 156.139 131.957 173.379 150 180.128Z" fill="#6E71FF"/>
<path d="M150 180.128C168.043 173.379 180 156.139 180 136.875V125.2C173.814 125.2 168.8 120.186 168.8 114H150H131.2C131.2 120.186 126.186 125.2 120 125.2V136.875C120 156.139 131.957 173.379 150 180.128Z" fill="url(#paint2_linear)" fill-opacity="0.7"/>
<path fill-rule="evenodd" clip-rule="evenodd" d="M135.875 148.779L145.82 158.724L150 154.545V154.545L164.124 140.421L158.645 134.941L158.645 134.941L158.645 134.941L145.82 147.765L141.355 143.299L135.875 148.779Z" fill="#6E71FF"/>
<path fill-rule="evenodd" clip-rule="evenodd" d="M135.875 148.779L145.82 158.724L150 154.545V154.545L164.124 140.421L158.645 134.941L158.645 134.941L158.645 134.941L145.82 147.765L141.355 143.299L135.875 148.779Z" fill="url(#paint3_linear)"/>
<defs>
<linearGradient id="paint0_linear" x1="98" y1="48" x2="90.5" y2="364" gradientUnits="userSpaceOnUse">
<stop offset="0.638262" stop-color="white"/>
<stop offset="1" stop-color="white" stop-opacity="0"/>
</linearGradient>
<linearGradient id="paint1_linear" x1="98" y1="48" x2="98" y2="160" gradientUnits="userSpaceOnUse">
<stop stop-color="white"/>
<stop offset="1" stop-color="white" stop-opacity="0"/>
</linearGradient>
<linearGradient id="paint2_linear" x1="150" y1="114" x2="150" y2="180.128" gradientUnits="userSpaceOnUse">
<stop stop-color="#040404"/>
<stop offset="1" stop-color="white" stop-opacity="0"/>
</linearGradient>
<linearGradient id="paint3_linear" x1="148.41" y1="150.879" x2="148.728" y2="202.701" gradientUnits="userSpaceOnUse">
<stop stop-color="white"/>
<stop offset="1" stop-color="white" stop-opacity="0"/>
</linearGradient>
</defs>
</svg>
