<svg width="240" height="240" viewBox="0 0 240 240" fill="none" xmlns="http://www.w3.org/2000/svg">
<g clip-path="url(#clip0)">
<path opacity="0.18" d="M183.018 13.022C177.626 10.5718 172.71 6.70383 167.344 4.19485C160.061 0.797278 152.192 -0.0129129 144.397 0.000154696C119.26 0.000154696 93.6172 8.76198 73.972 28.3699C66.1453 36.1647 59.1128 45.7629 49.7448 50.1079C42.3308 53.5577 33.6159 53.6426 27.6179 60.0915C20.9093 67.2787 20.0785 79.817 20.6794 90.8591C21.2802 101.901 22.717 113.564 18.9448 123.574C16.7295 129.454 12.931 134.1 9.81708 139.301C5.59687 146.36 2.63578 154.469 1.13338 163.081C-0.369025 171.693 -0.377841 180.607 1.10752 189.224C2.59289 197.84 5.53792 205.958 9.74415 213.031C13.9504 220.104 19.3201 225.967 25.4914 230.225C37.8271 238.719 52.4512 240.261 66.5424 239.967C79.4058 239.699 92.8596 237.811 103.534 228.827C110.41 223.031 115.812 214.537 123.278 210.029C132.281 204.606 142.782 205.795 152.777 205.717C164.617 205.612 176.749 203.417 187.078 196.177C197.407 188.938 205.678 175.981 206.619 161.228C207.334 149.905 203.86 138.099 206.895 127.403C208.05 123.332 210.083 119.745 212.261 116.4C220.276 104.044 230.888 93.8124 235.95 79.1767C238.693 71.2578 239.608 62.5351 239.932 53.9171C240.329 43.0644 239.158 30.5587 232.037 24.3255C225.579 18.6738 217.627 21.2873 210.349 19.9805C201.404 18.3536 191.54 16.877 183.018 13.022Z" fill="#6E71FF"/>
<path d="M79.4195 129.735C79.4195 129.735 53.8287 123.459 36.6834 137.701C19.538 151.942 39.1013 145.915 45.3601 147.847C51.619 149.779 61.0536 153.4 61.0536 153.4C61.0536 153.4 87.1476 141.073 79.4195 129.735Z" fill="#6E71FF"/>
<path d="M79.4195 129.735C79.4195 129.735 53.8287 123.459 36.6834 137.701C19.538 151.942 39.1013 145.915 45.3601 147.847C51.619 149.779 61.0536 153.4 61.0536 153.4C61.0536 153.4 87.1476 141.073 79.4195 129.735Z" fill="url(#paint0_linear)"/>
<path d="M70.4537 170.366C70.4537 170.366 86.552 159.745 96.5303 162.962L104.901 165.536C104.901 165.536 99.7523 198.056 71.0957 200.954C71.0957 200.954 64.9815 201.596 71.7436 190.328C78.5057 179.06 70.4537 170.366 70.4537 170.366Z" fill="#6E71FF"/>
<path d="M70.4537 170.366C70.4537 170.366 86.552 159.745 96.5303 162.962L104.901 165.536C104.901 165.536 99.7523 198.056 71.0957 200.954C71.0957 200.954 64.9815 201.596 71.7436 190.328C78.5057 179.06 70.4537 170.366 70.4537 170.366Z" fill="url(#paint1_linear)"/>
<path d="M115.289 64.405C116.441 65.0178 117.68 65.4509 118.963 65.6891C120.854 65.9379 122.734 65.3363 124.568 64.8215C126.703 64.2245 128.867 63.7361 131.052 63.358C132.255 63.1555 133.661 63.0456 134.523 63.9364C135.385 64.8272 135.211 66.3659 134.459 67.3551C133.707 68.3442 132.545 68.9111 131.422 69.4491L124.84 72.5901C123.713 73.1709 122.536 73.6473 121.323 74.0131C116.307 75.3667 111.101 72.8562 106.734 70.0622C105.051 68.9748 103.229 67.5402 103.159 65.5387C103.181 64.7445 103.345 63.9607 103.645 63.2249C103.88 62.312 104.355 61.4789 105.022 60.8128C107.012 59.0948 113.282 63.4621 115.289 64.405Z" fill="#6E71FF"/>
<path d="M115.151 64.4745C116.303 65.0873 117.541 65.5203 118.824 65.7586C120.716 66.0074 122.596 65.4058 124.429 64.8909C126.572 64.2924 128.744 63.8059 130.937 63.4332C132.134 63.225 133.546 63.1151 134.408 64.0117C135.27 64.9083 135.096 66.4354 134.344 67.4246C133.592 68.4137 132.429 68.9806 131.307 69.5186L124.724 72.6596C123.598 73.2404 122.421 73.7168 121.207 74.0826C116.192 75.4361 110.986 72.9257 106.619 70.1317C104.935 69.05 103.113 67.6097 103.044 65.6082C103.061 64.8135 103.226 64.029 103.53 63.2944C103.755 62.3929 104.214 61.5668 104.86 60.8996C106.873 59.1643 113.121 63.5374 115.151 64.4745Z" fill="url(#paint2_linear)"/>
<path d="M128.374 88.8329C126.506 91.7251 124.105 94.2761 121.722 96.7808C119.339 99.2855 116.955 101.75 113.785 102.924C112.224 103.502 110.373 103.699 108.95 102.82C107.405 101.871 106.769 99.8408 107.058 98.0476C107.445 96.2606 108.334 94.6211 109.621 93.3217C110.607 92.1039 111.703 90.979 112.895 89.9609C114.202 88.9659 115.59 89.018 117.297 88.8965C120.984 88.6295 124.684 88.6083 128.374 88.8329Z" fill="#6E71FF"/>
<path d="M128.374 88.8329C126.506 91.7251 124.105 94.2761 121.722 96.7808C119.339 99.2855 116.955 101.75 113.785 102.924C112.224 103.502 110.373 103.699 108.95 102.82C107.405 101.871 106.769 99.8408 107.058 98.0476C107.445 96.2606 108.334 94.6211 109.621 93.3217C110.607 92.1039 111.703 90.979 112.895 89.9609C114.202 88.9659 115.59 89.018 117.297 88.8965C120.984 88.6295 124.684 88.6083 128.374 88.8329Z" fill="url(#paint3_linear)"/>
<path d="M226.775 62.924C226.545 64.3219 226.24 65.7064 225.861 67.0715C223.857 74.2263 221.018 81.1206 217.404 87.6124C209.352 102.38 194.601 121.741 167.854 139.673C125.858 167.936 88.9989 172.645 75.3994 173.356C71.8015 173.559 69.8289 173.484 69.8289 173.484L57.5137 154.395C57.5137 154.395 71.3965 133.727 96.4551 112.052C108.012 101.994 120.552 93.1259 133.887 85.582C141.867 81.0858 150.129 77.1093 158.621 73.6774C170.276 68.8982 182.436 65.4575 194.867 63.4215C215.003 60.2862 226.775 62.924 226.775 62.924Z" fill="#6E71FF"/>
<path d="M128.073 93.9407C127.495 95.0109 129.294 98.4238 130.277 99.1468C131.261 99.8699 132.464 100.304 133.169 101.31C133.311 101.486 133.412 101.69 133.465 101.909C133.518 102.128 133.522 102.356 133.476 102.577C133.291 103.225 132.55 103.514 131.908 103.734L114.647 109.044C114.169 109.145 113.726 109.371 113.363 109.698C112.669 110.438 113.016 111.734 113.809 112.353C114.667 112.904 115.684 113.157 116.701 113.07C122.283 113.07 128.415 110.756 133.088 113.787C134.417 114.737 135.57 115.912 136.496 117.258C139.792 121.631 142.315 126.536 143.958 131.76C144.461 133.368 144.877 135.121 144.299 136.706C141.567 135.589 139.22 133.702 137.543 131.274C135.449 128.22 134.373 124.298 131.324 122.204C129.097 120.671 126.216 120.469 123.521 120.694C120.825 120.92 118.17 121.597 115.469 121.631C109.453 121.707 103.9 118.739 98.6011 115.847C97.4962 115.268 96.241 114.406 96.2178 113.145C96.2152 112.799 96.2987 112.457 96.4608 112.15C108.017 102.092 120.558 93.2243 133.892 85.6804C141.873 81.1842 150.135 77.2078 158.627 73.7759C160.918 77.0326 128.322 93.4953 128.073 93.9407Z" fill="url(#paint4_linear)"/>
<path d="M226.56 63.132C226.56 63.132 225.131 73.2549 217.189 87.8203C214.635 87.0201 212.125 86.0856 209.669 85.0206C199.593 80.7054 195.439 66.5969 194.676 63.6699C214.789 60.5 226.56 63.132 226.56 63.132Z" fill="url(#paint5_linear)"/>
<path opacity="0.31" d="M178.631 100.385C183.934 100.385 188.233 96.0855 188.233 90.7822C188.233 85.479 183.934 81.1799 178.631 81.1799C173.327 81.1799 169.028 85.479 169.028 90.7822C169.028 96.0855 173.327 100.385 178.631 100.385Z" fill="url(#paint6_linear)"/>
<path opacity="0.31" d="M153.276 115.112C158.579 115.112 162.878 110.813 162.878 105.51C162.878 100.207 158.579 95.9075 153.276 95.9075C147.973 95.9075 143.674 100.207 143.674 105.51C143.674 110.813 147.973 115.112 153.276 115.112Z" fill="url(#paint7_linear)"/>
<path opacity="0.31" d="M125.511 133.946C130.814 133.946 135.113 129.647 135.113 124.344C135.113 119.041 130.814 114.742 125.511 114.742C120.207 114.742 115.908 119.041 115.908 124.344C115.908 129.647 120.207 133.946 125.511 133.946Z" fill="url(#paint8_linear)"/>
<path d="M59.6076 148.066L75.706 173.819L67.0118 177.041L53.8115 154.829L59.6076 148.066Z" fill="#6E71FF"/>
<path d="M59.6076 148.066L75.706 173.819L67.0118 177.041L53.8115 154.829L59.6076 148.066Z" fill="url(#paint9_linear)"/>
<path d="M106.757 117.351C114.364 119.19 122.3 117.206 129.976 115.673C130.765 115.447 131.6 115.436 132.394 115.638C133.303 115.957 133.91 116.795 134.442 117.599C137.094 121.628 139.303 125.932 141.031 130.435C142.072 133.148 143.049 136.098 145.363 137.857C147.677 139.615 151.807 139.222 152.646 136.44C148.695 125.328 143.83 114.568 138.971 103.821C138.532 102.849 138.046 101.819 137.143 101.247C136.353 100.829 135.474 100.609 134.581 100.604L107.185 98.2386C101.031 97.7064 91.7754 96.8908 93.8405 105.452C95.2635 111.422 100.973 115.951 106.757 117.351Z" fill="#6E71FF"/>
<path d="M106.757 117.351C114.364 119.19 122.3 117.206 129.976 115.673C130.765 115.447 131.6 115.436 132.394 115.638C133.303 115.957 133.91 116.795 134.442 117.599C137.094 121.628 139.303 125.932 141.031 130.435C142.072 133.148 143.049 136.098 145.363 137.857C147.677 139.615 151.807 139.222 152.646 136.44C148.695 125.328 143.83 114.568 138.971 103.821C138.532 102.849 138.046 101.819 137.143 101.247C136.353 100.829 135.474 100.609 134.581 100.604L107.185 98.2386C101.031 97.7064 91.7754 96.8908 93.8405 105.452C95.2635 111.422 100.973 115.951 106.757 117.351Z" fill="url(#paint10_linear)"/>
<path d="M113.629 93.6687C113.629 95.5371 113.629 97.4691 112.79 99.1466C111.72 101.345 109.412 102.727 107.006 103.288C106.244 103.46 105.471 103.574 104.692 103.63C103.031 103.703 101.367 103.666 99.7115 103.52C96.5358 103.311 92.932 102.878 91.0347 100.321C89.7043 98.5219 89.5886 96.1271 89.5365 93.8885C89.3977 87.7684 89.3688 81.6484 89.3225 75.5284C89.3225 72.0287 87.9053 67.3086 88.4027 63.9593C88.5708 62.5766 89.1095 61.265 89.9617 60.1632C90.814 59.0615 91.9482 58.2105 93.2444 57.7005C97.9356 55.6932 104.75 57.1683 108.076 60.9919C110.743 64.0461 111.772 68.182 112.397 72.1907C113.537 79.2652 113.623 86.4843 113.629 93.6687Z" fill="#6E71FF"/>
<path d="M103.194 82.0071C103.495 86.6347 103.657 91.2623 103.68 95.89C103.643 97.1654 103.705 98.4418 103.865 99.7077C104.021 100.674 104.64 101.565 104.75 102.479C104.798 102.864 104.786 103.254 104.715 103.635C103.055 103.709 101.391 103.672 99.7349 103.526C96.5592 103.317 92.9555 102.883 91.0581 100.327C89.7277 98.5277 89.612 96.1329 89.56 93.8943C89.4211 87.7743 89.3922 81.6542 89.3459 75.5342C89.3459 72.0346 87.9287 67.3144 88.4262 63.9652C88.5942 62.5824 89.1329 61.2708 89.9852 60.169C90.8375 59.0673 91.9717 58.2164 93.2678 57.7063C93.6396 57.8281 93.9996 57.983 94.3437 58.1691C96.3741 59.245 97.907 61.0613 99.3069 62.8892C100.037 63.7987 100.659 64.7908 101.158 65.8451C101.687 67.2274 102.015 68.6789 102.13 70.1546C102.488 73.1915 102.778 76.2399 103.015 79.2942C103.142 80.9254 102.708 81.955 104.467 82.2674C105.962 82.5286 107.473 82.689 108.99 82.7475C110.535 82.8169 112.363 82.6376 113.178 81.3245C113.45 80.8174 113.57 80.2429 113.523 79.6695C113.477 79.0961 113.267 78.5481 112.918 78.091C112.2 77.188 111.226 76.5228 110.124 76.1821C109.048 75.7887 107.914 75.5689 106.827 75.2045C105.722 74.8669 104.702 74.2969 103.836 73.5328C102.964 72.7613 102.414 71.6893 102.297 70.5306" fill="url(#paint11_linear)"/>
<path d="M96.2637 56.7289C96.2025 57.2846 96.2259 57.8463 96.3331 58.3949C96.6744 59.7543 97.9701 60.6451 99.2543 61.2062C100.047 61.5532 101.105 61.7846 101.678 61.1194C102.123 60.6046 102.014 59.8295 101.875 59.1584L101.111 55.5084C100.971 54.6915 100.748 53.8911 100.446 53.1194C100.11 52.3385 97.8949 49.157 96.7727 49.9668C96.3042 50.3023 96.5009 52.593 96.4719 53.1657L96.2637 56.7289Z" fill="url(#paint12_linear)"/>
<path d="M96.3797 50.0711C96.6959 51.5797 97.3839 52.9855 98.3812 54.1607C99.3929 55.3392 100.821 56.0811 102.367 56.2316C102.93 56.2973 103.5 56.1861 103.998 55.9135C104.609 55.4348 105.056 54.7777 105.276 54.0335C106.589 50.8462 107.92 47.3408 106.925 44.032C106.675 43.002 106.031 42.1111 105.132 41.5505C104.169 41.139 103.091 41.0797 102.089 41.3827C100.354 41.7761 97.7507 42.6784 96.6285 44.1593C95.5063 45.6401 95.9979 48.4456 96.3797 50.0711Z" fill="url(#paint13_linear)"/>
<path d="M102.749 35.7078C101.477 35.1369 100.078 34.9116 98.6911 35.0549C97.3047 35.1981 95.9807 35.7047 94.8527 36.5234C93.395 37.6167 92.3538 39.1901 90.8672 40.2371C89.4673 41.2262 87.7725 41.6774 86.2049 42.3716C86.014 42.4526 85.8 42.574 85.7652 42.7765C85.7074 43.0889 86.0718 43.2913 86.2164 43.5748C86.4363 44.0086 86.0834 44.5061 85.7537 44.8705L83.8679 46.9298C83.6367 47.1309 83.4798 47.4039 83.4225 47.7049C83.3589 48.4974 84.4811 48.723 85.2736 48.6536L87.8882 48.4222C86.351 49.4563 85.0208 50.7688 83.9663 52.2921C84.5447 52.9052 85.6148 52.616 86.3263 52.1474C87.0378 51.6789 87.7146 50.9905 88.5592 51.0368C87.2924 53.0787 91.2605 52.9978 92.4464 52.9688C93.454 52.9064 94.4382 52.6387 95.3386 52.1821C95.7707 52.0141 96.1643 51.7603 96.4955 51.4359C96.6619 51.2743 96.7859 51.0742 96.8566 50.8532C96.9272 50.6323 96.9423 50.3973 96.9005 50.1691C96.8345 49.9695 96.7512 49.7759 96.6517 49.5907C96.4862 49.2264 96.4034 48.83 96.4094 48.4299C96.4154 48.0298 96.51 47.636 96.6864 47.2769C96.7443 47.167 96.8195 47.0455 96.9467 47.0281C97.0502 47.0246 97.1512 47.0596 97.2302 47.1265L98.1036 47.7049C98.0565 46.5311 98.475 45.3861 99.2681 44.5194C100.061 43.6526 101.165 43.1343 102.338 43.0773C104.143 42.979 107.446 43.8698 107.012 40.9255C106.665 38.7158 104.721 36.6044 102.749 35.7078Z" fill="#6E71FF"/>
<path d="M102.749 35.7078C101.477 35.1369 100.078 34.9116 98.6911 35.0549C97.3047 35.1981 95.9807 35.7047 94.8527 36.5234C93.395 37.6167 92.3538 39.1901 90.8672 40.2371C89.4673 41.2262 87.7725 41.6774 86.2049 42.3716C86.014 42.4526 85.8 42.574 85.7652 42.7765C85.7074 43.0889 86.0718 43.2913 86.2164 43.5748C86.4363 44.0086 86.0834 44.5061 85.7537 44.8705L83.8679 46.9298C83.6367 47.1309 83.4798 47.4039 83.4225 47.7049C83.3589 48.4974 84.4811 48.723 85.2736 48.6536L87.8882 48.4222C86.351 49.4563 85.0208 50.7688 83.9663 52.2921C84.5447 52.9052 85.6148 52.616 86.3263 52.1474C87.0378 51.6789 87.7146 50.9905 88.5592 51.0368C87.2924 53.0787 91.2605 52.9978 92.4464 52.9688C93.454 52.9064 94.4382 52.6387 95.3386 52.1821C95.7707 52.0141 96.1643 51.7603 96.4955 51.4359C96.6619 51.2743 96.7859 51.0742 96.8566 50.8532C96.9272 50.6323 96.9423 50.3973 96.9005 50.1691C96.8345 49.9695 96.7512 49.7759 96.6517 49.5907C96.4862 49.2264 96.4034 48.83 96.4094 48.4299C96.4154 48.0298 96.51 47.636 96.6864 47.2769C96.7443 47.167 96.8195 47.0455 96.9467 47.0281C97.0502 47.0246 97.1512 47.0596 97.2302 47.1265L98.1036 47.7049C98.0565 46.5311 98.475 45.3861 99.2681 44.5194C100.061 43.6526 101.165 43.1343 102.338 43.0773C104.143 42.979 107.446 43.8698 107.012 40.9255C106.665 38.7158 104.721 36.6044 102.749 35.7078Z" fill="url(#paint14_linear)" fill-opacity="0.9"/>
<path d="M105.641 43.0483C105.982 42.8916 106.271 42.6393 106.473 42.3217C106.674 42.0042 106.779 41.6351 106.774 41.2593C106.77 40.8834 106.657 40.5168 106.449 40.2039C106.24 39.8911 105.945 39.6454 105.6 39.4966C104.767 39.0515 103.824 38.8509 102.882 38.9181C101.298 38.8828 99.7271 39.2092 98.2886 39.8726C96.3219 40.8559 94.8989 42.6665 93.0825 43.9217C91.5422 44.8908 89.8512 45.5965 88.0789 46.0099C87.2636 46.1472 86.4913 46.472 85.823 46.9586C85.7188 47.057 85.6147 47.19 85.661 47.323C85.6944 47.3837 85.7421 47.4353 85.7998 47.4734C86.0222 47.6255 86.2749 47.7276 86.5406 47.7725C86.8062 47.8174 87.0785 47.8042 87.3385 47.7337C87.6393 47.6528 87.917 47.4908 88.1946 47.3867C89.0628 47.1727 89.97 47.1727 90.8381 47.3867C92.0552 47.6205 93.3085 47.5869 94.5113 47.2883C95.5211 46.9038 96.49 46.4193 97.4036 45.8422C97.7633 45.667 98.1607 45.5835 98.5605 45.5992C98.2548 46.2482 98.1024 46.9587 98.1151 47.6759L97.2416 47.0974C97.1968 47.0631 97.1456 47.0382 97.0909 47.0243C97.0362 47.0104 96.9792 47.0077 96.9235 47.0165C96.802 47.0165 96.721 47.1553 96.6632 47.2652C96.4883 47.6248 96.3946 48.0184 96.3886 48.4182C96.3826 48.8181 96.4645 49.2143 96.6285 49.579C96.7285 49.7632 96.8099 49.957 96.8714 50.1575C96.9178 50.3847 96.9061 50.6199 96.8374 50.8414C96.7686 51.0628 96.645 51.2633 96.4781 51.4243C96.1422 51.7443 95.7499 51.9992 95.3212 52.1763C94.4192 52.6279 93.4356 52.8935 92.4289 52.9572C91.272 52.9572 87.2864 53.0671 88.5475 51.0251C87.7029 51.0251 86.9856 51.7019 86.3146 52.1358C85.6436 52.5696 84.5793 52.8878 83.9546 52.2804C85.0075 50.7558 86.338 49.443 87.8765 48.4105L85.2619 48.6419C84.4636 48.7113 83.3472 48.4857 83.4108 47.6932C83.4682 47.3936 83.6227 47.1212 83.8504 46.9181L85.742 44.8588C86.0717 44.4944 86.4245 43.9969 86.2047 43.5631C86.0601 43.2796 85.6957 43.0714 85.7535 42.7648C85.7883 42.5566 86.0023 42.4409 86.1932 42.3541C87.755 41.6658 89.4556 41.1972 90.8555 40.2312C92.3479 39.1842 93.3891 37.5992 94.841 36.5175C95.9674 35.6956 97.2914 35.1867 98.6782 35.0424C100.065 34.8981 101.465 35.1237 102.737 35.6961C104.704 36.6159 106.653 38.7041 106.977 40.9022C107.191 42.331 106.561 42.8632 105.641 43.0483Z" fill="url(#paint15_linear)"/>
<path d="M138.335 60.668C139.972 60.292 141.881 60.668 142.917 61.9985C143.048 62.1471 143.129 62.3333 143.148 62.5306C143.154 62.5756 143.15 62.6213 143.137 62.6649C143.125 62.7084 143.104 62.749 143.075 62.7842C143.046 62.8193 143.011 62.8483 142.971 62.8693C142.931 62.8904 142.887 62.9031 142.841 62.9066H141.632C140.811 63.4114 140.05 64.0092 139.365 64.6883C138.368 65.5015 137.186 66.0559 135.923 66.3021C134.246 66.6319 132.163 65.4923 133.465 63.6702C134.483 62.2414 136.658 61.0556 138.335 60.668Z" fill="url(#paint16_linear)"/>
<path d="M135.431 75.5748C135.699 75.7039 135.934 75.8942 136.116 76.1302C136.298 76.3663 136.422 76.6416 136.478 76.9342C136.487 77.0316 136.469 77.1297 136.426 77.2176C136.27 77.4837 135.882 77.4201 135.576 77.368C133.58 77.0094 131.683 78.5654 129.652 78.5249C128.723 78.5009 127.84 78.1173 127.188 77.4548C126.61 76.8358 126.031 75.6673 126.355 74.7997C126.696 73.8047 127.853 73.7874 128.756 73.7584C131.114 73.6711 133.442 74.3047 135.431 75.5748Z" fill="url(#paint17_linear)"/>
<path d="M148.638 53.8888L156.505 47.9365C156.505 47.9365 158.437 47.2886 159.085 48.0985C159.732 48.9083 159.004 73.5851 159.004 73.5851L149.262 78.1722L148.638 53.8888Z" fill="#6E71FF"/>
<path d="M148.753 53.9581L156.637 48.0058C156.637 48.0058 158.569 47.358 159.217 48.1678C159.865 48.9776 159.02 73.6197 159.02 73.6197L149.395 78.2474L148.753 53.9581Z" fill="url(#paint18_linear)"/>
<path d="M151.084 53.8422L159.217 48.1733C159.217 48.1733 157.765 47.1263 156.637 48.0113C155.509 48.8964 148.753 53.9578 148.753 53.9578L151.084 53.8422Z" fill="url(#paint19_linear)"/>
<path d="M148.337 141.57C148.4 141.727 148.492 141.87 148.609 141.993C148.754 142.114 148.927 142.199 149.112 142.241C149.586 142.373 150.083 142.4 150.568 142.32C151.054 142.24 151.516 142.055 151.923 141.779C152.261 141.564 152.525 141.251 152.681 140.882C152.827 140.306 152.789 139.699 152.571 139.147L152.091 137.481C152.087 137.457 152.077 137.435 152.062 137.417C152.021 137.417 151.969 137.417 151.929 137.417C150.535 138.25 148.892 137.417 147.561 137.995C146.439 138.539 147.926 140.726 148.337 141.57Z" fill="url(#paint20_linear)"/>
<path d="M149.956 141.455C149.487 141.484 149.021 141.547 148.562 141.646C148.334 141.702 148.124 141.815 147.951 141.975C147.779 142.135 147.651 142.336 147.579 142.56C147.539 143 147.656 143.44 147.908 143.803C148.244 144.422 148.579 145.041 148.938 145.649C149.131 146.056 149.439 146.397 149.823 146.632C150.213 146.787 150.641 146.82 151.049 146.725C152.279 146.489 153.474 146.1 154.607 145.568C156.921 144.592 159.217 143.549 161.496 142.438C161.872 142.253 162.289 142.016 162.364 141.605C162.383 141.462 162.368 141.316 162.318 141.18C162.269 141.044 162.187 140.922 162.081 140.824C161.863 140.633 161.612 140.484 161.34 140.385C159.716 139.763 158.008 139.386 156.273 139.268C155.66 139.205 154.63 138.915 154.057 139.193C153.485 139.471 152.935 140.153 152.322 140.524C151.608 140.998 150.802 141.315 149.956 141.455Z" fill="#6E71FF"/>
<path d="M149.956 141.454C149.487 141.483 149.021 141.547 148.562 141.645C148.334 141.701 148.124 141.814 147.951 141.974C147.779 142.134 147.651 142.336 147.579 142.559C147.539 143 147.656 143.44 147.908 143.803C148.244 144.422 148.579 145.041 148.938 145.648C149.131 146.055 149.439 146.397 149.823 146.632C150.213 146.787 150.641 146.819 151.049 146.724C152.279 146.488 153.474 146.1 154.607 145.567C156.921 144.592 159.217 143.548 161.496 142.438C161.872 142.253 162.289 142.015 162.364 141.605C162.383 141.461 162.368 141.315 162.318 141.18C162.269 141.044 162.187 140.922 162.081 140.824C161.863 140.632 161.612 140.483 161.34 140.384C159.716 139.762 158.008 139.386 156.273 139.268C155.66 139.204 154.63 138.915 154.057 139.193C153.485 139.47 152.935 140.153 152.322 140.523C151.608 140.997 150.802 141.315 149.956 141.454Z" fill="url(#paint21_linear)" fill-opacity="0.9"/>
<path d="M126.535 78.1431C125.527 78.7521 124.405 79.146 123.237 79.3L116.961 80.5668C115.584 80.9137 114.165 81.0695 112.744 81.0296C111.455 80.8888 110.19 80.5755 108.984 80.0983C104.114 78.3629 96.3915 76.321 92.6547 72.5379C89.8261 69.6456 90.5202 63.919 94.176 62.4844C94.8717 62.215 95.6187 62.1043 96.3626 62.1605C99.4631 62.3571 101.569 65.2089 103.952 67.2161C109.065 71.5777 116.204 72.3355 122.925 72.8329H123.064H123.515C125.251 72.9602 127.391 73.4114 127.865 75.0715C128.16 76.2458 127.501 77.4663 126.535 78.1431Z" fill="#6E71FF"/>
<path d="M132.249 87.6472L149.395 78.2531L151.084 53.8655C151.084 53.8655 148.481 52.7896 148.267 55.2596C148.053 57.7296 146.231 76.2922 146.231 76.2922L131.422 84.1244C131.422 84.1244 129.218 86.3515 132.249 87.6472Z" fill="#6E71FF"/>
<path d="M67 173.703C62.9485 179.918 56.8756 184.557 49.7994 186.842L52.4895 181.092C49.1137 185.255 45.7115 189.438 41.7134 193.017C37.7152 196.596 33.0471 199.565 27.8463 200.9C27.3188 200.138 27.8832 199.119 28.4423 198.378C32.1438 193.468 36.2531 188.878 40.727 184.655C30.4256 190.631 20.082 196.627 9 201C16.1251 191.15 24.6543 182.387 34.3183 174.99L27.5246 176.735C35.515 167.485 45.1449 159.779 55.9338 154C60.3592 160.039 63.888 166.929 67 173.703Z" fill="#6E71FF"/>
<path d="M67 173.703C62.9485 179.918 56.8756 184.557 49.7994 186.842L52.4895 181.092C49.1137 185.255 45.7115 189.438 41.7134 193.017C37.7152 196.596 33.0471 199.565 27.8463 200.9C27.3188 200.138 27.8832 199.119 28.4423 198.378C32.1438 193.468 36.2531 188.878 40.727 184.655C30.4256 190.631 20.082 196.627 9 201C16.1251 191.15 24.6543 182.387 34.3183 174.99L27.5246 176.735C35.515 167.485 45.1449 159.779 55.9338 154C60.3592 160.039 63.888 166.929 67 173.703Z" fill="url(#paint22_linear)"/>
<path d="M43.1274 169.724C42.8555 170.1 42.5837 170.603 42.8208 171.002C43.0031 171.23 43.2586 171.387 43.5439 171.448L45.771 172.182C42.9024 174.705 40.2586 177.473 37.8693 180.454C37.4702 180.952 37.0826 181.709 37.5396 182.155C37.7563 182.333 38.0285 182.429 38.3089 182.427C41.4036 182.704 44.2901 180.992 46.9279 179.349C46.4486 181.092 45.6179 182.718 44.4868 184.127C47.4716 183.549 50.173 182.004 52.5851 180.205C54.9973 178.406 57.2706 176.347 59.7579 174.606L58.9365 176.746C60.4588 175.744 61.7713 174.455 62.8006 172.952C63.0487 172.682 63.2052 172.341 63.2478 171.978C63.2904 171.614 63.2169 171.246 63.0378 170.927C61.797 167.565 60.0214 164.426 57.7796 161.631C57.3946 161.091 56.9023 160.636 56.3335 160.295C54.5172 159.341 50.7283 162.447 49.2706 163.517C46.91 165.251 44.8369 167.345 43.1274 169.724Z" fill="#6E71FF"/>
<path d="M43.1274 169.724C42.8555 170.1 42.5837 170.603 42.8208 171.002C43.0031 171.23 43.2586 171.387 43.5439 171.448L45.771 172.182C42.9024 174.705 40.2586 177.473 37.8693 180.454C37.4702 180.952 37.0826 181.709 37.5396 182.155C37.7563 182.333 38.0285 182.429 38.3089 182.427C41.4036 182.704 44.2901 180.992 46.9279 179.349C46.4486 181.092 45.6179 182.718 44.4868 184.127C47.4716 183.549 50.173 182.004 52.5851 180.205C54.9973 178.406 57.2706 176.347 59.7579 174.606L58.9365 176.746C60.4588 175.744 61.7713 174.455 62.8006 172.952C63.0487 172.682 63.2052 172.341 63.2478 171.978C63.2904 171.614 63.2169 171.246 63.0378 170.927C61.797 167.565 60.0214 164.426 57.7796 161.631C57.3946 161.091 56.9023 160.636 56.3335 160.295C54.5172 159.341 50.7283 162.447 49.2706 163.517C46.91 165.251 44.8369 167.345 43.1274 169.724Z" fill="url(#paint23_linear)"/>
<path d="M125.499 75.0426C125.151 75.1785 124.777 75.232 124.406 75.1988C120.542 75.1988 116.649 75.141 112.837 74.4642C109.025 73.7874 105.265 72.4338 102.257 70.0101C100.134 68.2747 98.4563 66.1287 96.3275 64.4396C95.7491 63.9595 94.2451 63.3579 94.1699 62.4844C94.8656 62.215 95.6126 62.1043 96.3565 62.1605C99.457 62.3571 101.563 65.2089 103.946 67.2161C109.059 71.5777 116.197 72.3355 122.919 72.8329H123.058C123.909 72.9037 124.735 73.1541 125.482 73.5676C125.713 73.6801 125.893 73.8766 125.985 74.1171C126.023 74.3037 125.995 74.4977 125.907 74.6663C125.818 74.8349 125.674 74.9679 125.499 75.0426Z" fill="url(#paint24_linear)"/>
<path d="M226.566 63.1267L225.855 67.0717C223.859 74.2284 221.022 81.1234 217.404 87.6126C209.346 102.38 194.601 121.712 167.859 139.673C125.858 167.937 88.9985 172.645 75.3991 173.362L70.7715 166.936C177.137 135.532 202.265 85.2756 205.192 84.8592C208.119 84.4427 216.923 63.0862 216.923 63.0862L226.566 63.1267Z" fill="url(#paint25_linear)"/>
</g>
<defs>
<linearGradient id="paint0_linear" x1="88.4365" y1="112.545" x2="25.0458" y2="96.2443" gradientUnits="userSpaceOnUse">
<stop offset="0.079127"/>
<stop offset="0.83" stop-opacity="0.07"/>
<stop offset="1" stop-opacity="0"/>
</linearGradient>
<linearGradient id="paint1_linear" x1="110.302" y1="137.977" x2="62.8544" y2="132.342" gradientUnits="userSpaceOnUse">
<stop offset="0.079127"/>
<stop offset="0.83" stop-opacity="0.07"/>
<stop offset="1" stop-opacity="0"/>
</linearGradient>
<linearGradient id="paint2_linear" x1="122.6" y1="75.9803" x2="122.998" y2="48.4374" gradientUnits="userSpaceOnUse">
<stop stop-opacity="0"/>
<stop offset="0.639117" stop-opacity="0.75"/>
<stop offset="1"/>
</linearGradient>
<linearGradient id="paint3_linear" x1="131.552" y1="79.3712" x2="104.156" y2="74.3571" gradientUnits="userSpaceOnUse">
<stop offset="0.079127"/>
<stop offset="0.83" stop-opacity="0.07"/>
<stop offset="1" stop-opacity="0"/>
</linearGradient>
<linearGradient id="paint4_linear" x1="134.499" y1="143.556" x2="138.626" y2="19.5403" gradientUnits="userSpaceOnUse">
<stop stop-opacity="0"/>
<stop offset="0.639117" stop-opacity="0.75"/>
<stop offset="1"/>
</linearGradient>
<linearGradient id="paint5_linear" x1="208" y1="68.9998" x2="229.912" y2="90.1612" gradientUnits="userSpaceOnUse">
<stop stop-opacity="0"/>
<stop offset="0.639117" stop-opacity="0.75"/>
<stop offset="1"/>
</linearGradient>
<linearGradient id="paint6_linear" x1="178.631" y1="81.1799" x2="177" y2="117" gradientUnits="userSpaceOnUse">
<stop/>
<stop offset="1" stop-opacity="0"/>
</linearGradient>
<linearGradient id="paint7_linear" x1="153" y1="95" x2="153" y2="125" gradientUnits="userSpaceOnUse">
<stop/>
<stop offset="1" stop-opacity="0"/>
</linearGradient>
<linearGradient id="paint8_linear" x1="125" y1="113.5" x2="126" y2="143" gradientUnits="userSpaceOnUse">
<stop/>
<stop offset="1" stop-opacity="0"/>
</linearGradient>
<linearGradient id="paint9_linear" x1="32" y1="142.5" x2="71" y2="201.5" gradientUnits="userSpaceOnUse">
<stop/>
<stop offset="1" stop-opacity="0"/>
</linearGradient>
<linearGradient id="paint10_linear" x1="161.43" y1="72.0563" x2="85.6848" y2="58.276" gradientUnits="userSpaceOnUse">
<stop offset="0.079127"/>
<stop offset="0.83" stop-opacity="0.07"/>
<stop offset="1" stop-opacity="0"/>
</linearGradient>
<linearGradient id="paint11_linear" x1="103.757" y1="108.676" x2="109.203" y2="18.3191" gradientUnits="userSpaceOnUse">
<stop stop-opacity="0"/>
<stop offset="0.639117" stop-opacity="0.75"/>
<stop offset="1"/>
</linearGradient>
<linearGradient id="paint12_linear" x1="96.2348" y1="55.6877" x2="101.996" y2="55.6877" gradientUnits="userSpaceOnUse">
<stop stop-color="#E5C5D5"/>
<stop offset="0.42" stop-color="#EAD4D1"/>
<stop offset="1" stop-color="#F0E9CB"/>
</linearGradient>
<linearGradient id="paint13_linear" x1="95.945" y1="48.7179" x2="107.271" y2="48.7179" gradientUnits="userSpaceOnUse">
<stop stop-color="#E5C5D5"/>
<stop offset="0.42" stop-color="#EAD4D1"/>
<stop offset="1" stop-color="#F0E9CB"/>
</linearGradient>
<linearGradient id="paint14_linear" x1="109" y1="29.5" x2="76.5" y2="52" gradientUnits="userSpaceOnUse">
<stop/>
<stop offset="0.911458" stop-opacity="0"/>
</linearGradient>
<linearGradient id="paint15_linear" x1="110.528" y1="23.6602" x2="80.1032" y2="18.6136" gradientUnits="userSpaceOnUse">
<stop offset="0.079127"/>
<stop offset="0.83" stop-opacity="0.07"/>
<stop offset="1" stop-opacity="0"/>
</linearGradient>
<linearGradient id="paint16_linear" x1="133.064" y1="63.4432" x2="143.15" y2="63.4432" gradientUnits="userSpaceOnUse">
<stop stop-color="#E5C5D5"/>
<stop offset="0.42" stop-color="#EAD4D1"/>
<stop offset="1" stop-color="#F0E9CB"/>
</linearGradient>
<linearGradient id="paint17_linear" x1="-11771.6" y1="-8306.51" x2="-11615.3" y2="-8222.57" gradientUnits="userSpaceOnUse">
<stop stop-color="#E5C5D5"/>
<stop offset="0.42" stop-color="#EAD4D1"/>
<stop offset="1" stop-color="#F0E9CB"/>
</linearGradient>
<linearGradient id="paint18_linear" x1="155.309" y1="81.5662" x2="160.921" y2="21.9473" gradientUnits="userSpaceOnUse">
<stop stop-opacity="0"/>
<stop offset="0.639117" stop-opacity="0.75"/>
<stop offset="1"/>
</linearGradient>
<linearGradient id="paint19_linear" x1="155.16" y1="54.6439" x2="155.407" y2="42.216" gradientUnits="userSpaceOnUse">
<stop stop-opacity="0"/>
<stop offset="0.639117" stop-opacity="0.75"/>
<stop offset="1"/>
</linearGradient>
<linearGradient id="paint20_linear" x1="1859.62" y1="1218.83" x2="1914.28" y2="1218.83" gradientUnits="userSpaceOnUse">
<stop stop-color="#E5C5D5"/>
<stop offset="0.42" stop-color="#EAD4D1"/>
<stop offset="1" stop-color="#F0E9CB"/>
</linearGradient>
<linearGradient id="paint21_linear" x1="154.5" y1="136" x2="155" y2="155.5" gradientUnits="userSpaceOnUse">
<stop offset="0.182292"/>
<stop offset="1" stop-opacity="0"/>
</linearGradient>
<linearGradient id="paint22_linear" x1="88.1197" y1="175.858" x2="7.16513" y2="178.669" gradientUnits="userSpaceOnUse">
<stop offset="0.02" stop-color="white" stop-opacity="0"/>
<stop offset="0.58" stop-color="white" stop-opacity="0.39"/>
<stop offset="0.68" stop-color="white" stop-opacity="0.68"/>
<stop offset="1" stop-color="white"/>
</linearGradient>
<linearGradient id="paint23_linear" x1="86" y1="151.5" x2="40.765" y2="177.593" gradientUnits="userSpaceOnUse">
<stop offset="0.02" stop-color="white" stop-opacity="0"/>
<stop offset="0.58" stop-color="white" stop-opacity="0.39"/>
<stop offset="0.68" stop-color="white" stop-opacity="0.68"/>
<stop offset="1" stop-color="white"/>
</linearGradient>
<linearGradient id="paint24_linear" x1="7972.14" y1="1094.45" x2="7794.91" y2="2125.43" gradientUnits="userSpaceOnUse">
<stop offset="0.02" stop-color="white" stop-opacity="0"/>
<stop offset="0.58" stop-color="white" stop-opacity="0.39"/>
<stop offset="0.68" stop-color="white" stop-opacity="0.68"/>
<stop offset="1" stop-color="white"/>
</linearGradient>
<linearGradient id="paint25_linear" x1="200.5" y1="110" x2="31.1435" y2="99.1506" gradientUnits="userSpaceOnUse">
<stop stop-opacity="0"/>
<stop offset="0.639117" stop-opacity="0.75"/>
<stop offset="1"/>
</linearGradient>
<clipPath id="clip0">
<rect width="240" height="240" fill="white"/>
</clipPath>
</defs>
</svg>
