<svg width="208" height="208" viewBox="0 0 208 208" fill="none" xmlns="http://www.w3.org/2000/svg">
<g clip-path="url(#clip0)">
<path opacity="0.18" d="M207.357 160.781C206.803 166.99 205.818 173.396 202.832 178.334C200.16 182.798 196.164 185.576 192.194 187.999C166.198 203.741 136.796 207.75 108.07 207.987C85.9418 208.185 63.2592 206.157 42.9978 194.734C23.4288 183.706 6.32707 162.473 1.50536 135.888C1.33096 134.953 1.1822 134.011 1.03858 133.057C-0.213019 124.452 -0.166854 115.55 0.310188 106.781C1.22837 89.9129 3.98803 72.3933 12.385 59.3376C19.7971 47.7961 30.6614 41.1004 40.5407 33.1273C49.0711 26.2407 57.0423 18.182 65.9727 12.1973C77.7705 4.29673 90.9584 0.425436 104.213 0.0238222C127.152 -0.634561 146.408 12.5331 168.383 17.3327C191.399 22.343 191.979 43.9973 194.205 69.7861C195.313 82.5193 199.904 94.2517 203.027 106.425C207.51 123.931 208.987 142.474 207.357 160.781Z" fill="#6E71FF"/>
<mask id="mask0" mask-type="alpha" maskUnits="userSpaceOnUse" x="0" y="0" width="208" height="208">
<path d="M207.357 160.781C206.803 166.99 205.818 173.396 202.832 178.334C200.16 182.798 196.164 185.576 192.194 187.999C166.198 203.741 136.796 207.75 108.07 207.987C85.9418 208.185 63.2592 206.157 42.9978 194.734C23.4288 183.706 6.32707 162.473 1.50536 135.888C1.33096 134.953 1.1822 134.011 1.03857 133.057C-0.213019 124.452 -0.166854 115.55 0.310188 106.781C1.22837 89.9129 3.98803 72.3933 12.385 59.3376C19.7971 47.7961 30.6613 41.1003 40.5407 33.1273C49.0711 26.2406 57.0423 18.182 65.9727 12.1973C77.7705 4.2967 90.9584 0.425402 104.213 0.0237879C127.152 -0.634596 146.408 12.5331 168.383 17.3327C191.399 22.343 191.978 43.9972 194.205 69.7861C195.313 82.5193 199.904 94.2516 203.027 106.425C207.51 123.931 208.987 142.474 207.357 160.781Z" fill="#6E71FF"/>
</mask>
<g mask="url(#mask0)">
</g>
<mask id="mask1" mask-type="alpha" maskUnits="userSpaceOnUse" x="0" y="0" width="208" height="208">
<path d="M207.357 160.781C206.803 166.99 205.818 173.396 202.832 178.334C200.16 182.798 196.164 185.576 192.194 187.999C166.198 203.741 136.796 207.75 108.07 207.987C85.9418 208.185 63.2592 206.157 42.9978 194.734C23.4288 183.706 6.32707 162.473 1.50536 135.888C1.33096 134.953 1.1822 134.011 1.03857 133.057C-0.213019 124.452 -0.166854 115.55 0.310188 106.781C1.22837 89.9129 3.98803 72.3933 12.385 59.3376C19.7971 47.7961 30.6613 41.1003 40.5407 33.1273C49.0711 26.2406 57.0423 18.182 65.9727 12.1973C77.7705 4.2967 90.9584 0.425402 104.213 0.0237879C127.152 -0.634596 146.408 12.5331 168.383 17.3327C191.399 22.343 191.978 43.9972 194.205 69.7861C195.313 82.5193 199.904 94.2516 203.027 106.425C207.51 123.931 208.987 142.474 207.357 160.781Z" fill="#6E71FF"/>
</mask>
<g mask="url(#mask1)">
<path d="M207.35 171.994C206.787 176.724 205.8 181.61 202.793 185.38C200.101 188.78 196.076 190.903 192.077 192.746C165.891 204.751 136.299 207.809 107.339 207.99C85.0483 208.145 62.2051 206.594 41.7956 197.883C22.0888 189.472 4.85695 173.29 0 153H207.666C208.199 159.326 208.094 165.688 207.35 171.994Z" fill="#6E71FF"/>
<path d="M207.35 171.994C206.787 176.724 205.8 181.61 202.793 185.38C200.101 188.78 196.076 190.903 192.077 192.746C165.891 204.751 136.299 207.809 107.339 207.99C85.0483 208.145 62.2051 206.594 41.7956 197.883C22.0888 189.472 4.85695 173.29 0 153H207.666C208.199 159.326 208.094 165.688 207.35 171.994Z" fill="#6E71FF"/>
</g>
<path d="M112.07 131.111C105.264 131.42 98.4093 130.351 91.5703 130.378C85.2344 130.406 78.7447 131.354 72.6696 129.547C71.8231 129.293 70.8099 128.676 71.0307 127.82C73.908 127.138 76.3306 125.23 79.0995 124.172C81.6228 123.211 84.366 122.972 87.0186 123.482C88.6033 123.797 90.198 124.37 91.7926 124.116C93.1108 123.907 94.2623 123.146 95.475 122.601C96.2389 122.254 97.2079 122.077 98.261 122C100.826 123.114 103.638 123.844 106.079 125.219C108.603 126.641 110.596 128.691 112.07 131.111Z" fill="url(#paint0_linear)"/>
<path d="M167.07 40.6608C157.612 41.0905 148.087 39.6042 138.584 39.6417C129.78 39.6811 120.762 40.9978 112.32 38.4866C111.144 38.1337 109.736 37.2763 110.043 36.0877C114.041 35.1396 117.407 32.4883 121.255 31.0179C124.761 29.6825 128.573 29.3507 132.259 30.0599C134.461 30.4975 136.677 31.2938 138.893 30.941C140.725 30.6492 142.325 29.5927 144.01 28.8358C145.071 28.3528 146.418 28.1064 147.881 28C151.446 29.5474 155.353 30.5625 158.745 32.4726C162.252 34.4496 165.022 37.298 167.07 40.6608Z" fill="url(#paint1_linear)"/>
<path d="M58.3496 173.835C57.2159 173.834 56.2531 173.004 56.0842 171.883C55.2771 166.527 52.5853 148.228 49.6137 128.03L45.6034 100.797C45.4509 99.5612 46.3124 98.4296 47.5442 98.2477C48.776 98.0659 49.9278 98.9003 50.1388 100.127L54.1467 127.362C57.1275 147.551 59.8102 165.846 60.6173 171.2C60.708 171.802 60.556 172.414 60.1948 172.904C59.8336 173.393 59.2927 173.719 58.6912 173.809C58.5782 173.827 58.464 173.835 58.3496 173.835Z" fill="#6E71FF"/>
<path d="M58.3496 173.835C57.2159 173.834 56.2531 173.004 56.0842 171.883C55.2771 166.527 52.5853 148.228 49.6137 128.03L45.6034 100.797C45.4509 99.5612 46.3124 98.4296 47.5442 98.2477C48.776 98.0659 49.9278 98.9003 50.1388 100.127L54.1467 127.362C57.1275 147.551 59.8102 165.846 60.6173 171.2C60.708 171.802 60.556 172.414 60.1948 172.904C59.8336 173.393 59.2927 173.719 58.6912 173.809C58.5782 173.827 58.464 173.835 58.3496 173.835Z" fill="url(#paint2_linear)"/>
<path d="M154.65 173.835C154.535 173.835 154.419 173.827 154.304 173.809C153.703 173.718 153.162 173.392 152.801 172.902C152.44 172.412 152.289 171.799 152.381 171.198C153.174 165.965 155.779 148.223 158.681 128.433L162.836 100.127C163.047 98.9003 164.199 98.0659 165.431 98.2477C166.662 98.4296 167.524 99.5612 167.371 100.797L163.219 129.098C160.316 148.899 157.716 166.651 156.918 171.886C156.748 173.007 155.784 173.835 154.65 173.835Z" fill="#6E71FF"/>
<path d="M154.65 173.835C154.535 173.835 154.419 173.827 154.304 173.809C153.703 173.718 153.162 173.392 152.801 172.902C152.44 172.412 152.289 171.799 152.381 171.198C153.174 165.965 155.779 148.223 158.681 128.433L162.836 100.127C163.047 98.9003 164.199 98.0659 165.431 98.2477C166.662 98.4296 167.524 99.5612 167.371 100.797L163.219 129.098C160.316 148.899 157.716 166.651 156.918 171.886C156.748 173.007 155.784 173.835 154.65 173.835Z" fill="url(#paint3_linear)"/>
<path d="M172.971 62.7442C172.81 63.776 172.604 65.2206 172.329 67.0319C170.632 78.1754 168.943 89.3188 167.262 100.462C167.027 101.93 165.661 102.94 164.189 102.732C125.928 97.2064 87.0718 97.2064 48.8109 102.732C47.3392 102.94 45.9727 101.93 45.7385 100.462C44.0417 89.2959 42.345 78.0837 40.6482 66.9173C40.6024 66.6651 40.5795 66.3899 40.5336 66.1377C40.4648 65.6791 40.396 65.1976 40.3272 64.739C40.3043 64.5327 40.2585 64.3263 40.2355 64.12V64.0512C40.1667 63.5467 40.098 63.1111 40.0292 62.7442C39.8104 61.2444 40.8459 59.85 42.345 59.6259C84.8926 53.458 128.107 53.458 170.655 59.6259C172.154 59.85 173.19 61.2444 172.971 62.7442Z" fill="#6E71FF"/>
<path d="M172.971 62.7442C172.81 63.776 172.604 65.2206 172.329 67.0319C170.632 78.1754 168.943 89.3188 167.262 100.462C167.027 101.93 165.661 102.94 164.189 102.732C125.928 97.2064 87.0718 97.2064 48.8109 102.732C47.3392 102.94 45.9727 101.93 45.7385 100.462C44.0417 89.2959 42.345 78.0837 40.6482 66.9173C40.6024 66.6651 40.5795 66.3899 40.5336 66.1377C40.4648 65.6791 40.396 65.1976 40.3272 64.739C40.3043 64.5327 40.2585 64.3263 40.2355 64.12V64.0512C40.1667 63.5467 40.098 63.1111 40.0292 62.7442C39.8104 61.2444 40.8459 59.85 42.345 59.6259C84.8926 53.458 128.107 53.458 170.655 59.6259C172.154 59.85 173.19 61.2444 172.971 62.7442Z" fill="url(#paint4_linear)" fill-opacity="0.8"/>
<path d="M61.3579 92.4371C60.1901 92.4347 59.2106 91.555 59.0834 90.3942L57.0037 71.4457C56.8637 70.1483 57.2503 68.8489 58.0768 67.839C58.9839 66.7349 60.2914 66.035 61.7133 65.8924C63.7005 65.6875 65.6876 65.4972 67.6748 65.3214C68.4911 65.2489 69.2841 65.6174 69.755 66.2881C70.2259 66.9588 70.3033 67.8298 69.9579 68.573C69.6126 69.3162 68.8969 69.8187 68.0806 69.8912C66.1149 70.0654 64.1491 70.2534 62.1833 70.4552C61.9763 70.4692 61.7833 70.5648 61.6468 70.7212C61.5893 70.7833 61.5595 70.866 61.5643 70.9505L63.6439 89.9081C63.7778 91.1643 62.8704 92.2921 61.6147 92.4303C61.5293 92.4372 61.4436 92.4395 61.3579 92.4371Z" fill="url(#paint5_linear)"/>
<path d="M63.0588 81.3052C61.837 81.3053 60.8297 80.3474 60.7685 79.1271C60.7074 77.9068 61.6138 76.8529 62.8296 76.7309C64.7648 76.5337 66.7007 76.3487 68.6374 76.176C69.4591 76.0927 70.2621 76.4579 70.7395 77.1318C71.2169 77.8057 71.295 78.6844 70.9439 79.4319C70.5928 80.1795 69.8668 80.6804 69.0433 80.7434C67.1264 80.9131 65.2103 81.0965 63.295 81.2937C63.2166 81.3021 63.1377 81.3059 63.0588 81.3052Z" fill="url(#paint6_linear)"/>
<path d="M78.2603 90.9399C77.0533 90.9428 76.0507 90.0094 75.9674 88.8052L74.4908 67.0617C74.4041 65.7954 75.3603 64.6985 76.6266 64.6118C77.893 64.525 78.9898 65.4813 79.0766 66.7476L80.5624 88.4911C80.6039 89.098 80.4026 89.6966 80.0026 90.155C79.6027 90.6134 79.037 90.8941 78.43 90.9353L78.2603 90.9399Z" fill="url(#paint7_linear)"/>
<path d="M112.152 90.0136H112.12C111.512 90.0057 110.931 89.7566 110.507 89.321C110.083 88.8854 109.849 88.299 109.857 87.6909L110.155 65.9084C110.205 64.6562 111.227 63.6625 112.48 63.6476C113.088 63.6561 113.668 63.9058 114.092 64.3418C114.516 64.7779 114.749 65.3645 114.74 65.9726L114.442 87.7551C114.424 89.007 113.404 90.0124 112.152 90.0136Z" fill="#6E71FF"/>
<path d="M112.152 90.0136H112.12C111.512 90.0057 110.931 89.7566 110.507 89.321C110.083 88.8854 109.849 88.299 109.857 87.6909L110.155 65.9084C110.205 64.6562 111.227 63.6625 112.48 63.6476C113.088 63.6561 113.668 63.9058 114.092 64.3418C114.516 64.7779 114.749 65.3645 114.74 65.9726L114.442 87.7551C114.424 89.0071 113.404 90.0125 112.152 90.0136Z" fill="url(#paint8_linear)"/>
<path d="M89.5511 90.3231C88.3206 90.3241 87.3087 89.3537 87.2582 88.1242L86.3663 66.3418C86.3221 65.2938 86.9947 64.3494 87.9995 64.0485C89.0044 63.7477 90.0852 64.1671 90.6242 65.0669C93.2863 69.4991 95.8979 74.0092 98.42 78.5285L98.2481 65.9543C98.2395 65.3461 98.4729 64.7595 98.8969 64.3235C99.3209 63.8874 99.9007 63.6377 100.509 63.6293H100.541C101.795 63.6291 102.816 64.6363 102.834 65.8901L103.132 87.6725C103.148 88.7307 102.437 89.6622 101.413 89.9269C100.388 90.1915 99.3152 89.7204 98.8167 88.7868C96.4023 84.2813 93.8916 79.7666 91.3144 75.2932L91.8303 87.9178C91.882 89.1828 90.8986 90.2503 89.6337 90.3024L89.5511 90.3231Z" fill="url(#paint9_linear)"/>
<path d="M126.794 79.5649H126.677C124.574 79.4763 122.584 78.5852 121.117 77.0748C119.61 75.6015 118.801 73.5562 118.893 71.4505C118.985 69.3448 119.969 67.3778 121.598 66.0414C123.217 64.6661 125.302 63.9672 127.422 64.0902C130.394 64.1879 133.077 65.8937 134.427 68.543C134.788 69.2802 134.727 70.1537 134.269 70.8345C133.811 71.5153 133.024 71.8999 132.205 71.8434C131.387 71.7869 130.66 71.2979 130.3 70.5607C129.675 69.4232 128.491 68.7055 127.193 68.6782C126.238 68.6202 125.297 68.9285 124.561 69.5404C123.902 70.0541 123.501 70.831 123.465 71.6659C123.444 72.4964 123.778 73.2963 124.384 73.8647C125.049 74.5505 125.952 74.9537 126.907 74.9906C128.173 75.0203 129.175 76.071 129.146 77.3373C129.116 78.6037 128.065 79.6061 126.799 79.5763L126.794 79.5649Z" fill="#6E71FF"/>
<path d="M126.794 79.5649H126.677C124.574 79.4763 122.584 78.5852 121.117 77.0748C119.61 75.6015 118.801 73.5562 118.893 71.4505C118.985 69.3448 119.969 67.3778 121.598 66.0414C123.217 64.666 125.302 63.9672 127.422 64.0902C130.394 64.1879 133.077 65.8937 134.427 68.5429C134.788 69.2802 134.727 70.1537 134.269 70.8345C133.811 71.5153 133.024 71.8999 132.205 71.8434C131.387 71.7869 130.66 71.2979 130.3 70.5607C129.675 69.4232 128.491 68.7055 127.193 68.6782C126.238 68.6202 125.297 68.9285 124.561 69.5403C123.902 70.0541 123.501 70.831 123.465 71.6659C123.444 72.4964 123.778 73.2963 124.384 73.8647C125.049 74.5504 125.952 74.9537 126.907 74.9905C128.173 75.0203 129.175 76.071 129.146 77.3373C129.116 78.6036 128.065 79.6061 126.799 79.5763L126.794 79.5649Z" fill="url(#paint10_linear)"/>
<path d="M126.565 90.4561C126.432 90.4561 126.297 90.4561 126.164 90.4561C123.277 90.3352 120.677 88.6712 119.359 86.0996C118.8 84.9704 119.257 83.6018 120.382 83.0348C121.507 82.4678 122.879 82.9149 123.454 84.036C124.036 85.1232 125.15 85.8211 126.382 85.8703C127.275 85.9305 128.157 85.6327 128.83 85.0426C129.493 84.5154 129.903 83.7341 129.961 82.8896C130.005 82.0966 129.727 81.3195 129.19 80.7342C128.543 80.0264 127.64 79.6063 126.682 79.5672C125.863 79.5262 125.128 79.0513 124.754 78.3214C124.38 77.5915 124.423 76.7175 124.868 76.0285C125.313 75.3396 126.092 74.9404 126.911 74.9814C129.096 75.0835 131.15 76.0522 132.618 77.6732C133.997 79.1965 134.693 81.218 134.542 83.2674C134.392 85.3167 133.409 87.2151 131.823 88.5209C130.364 89.7839 128.495 90.4719 126.565 90.4561Z" fill="#6E71FF"/>
<path d="M126.565 90.4561C126.432 90.4561 126.297 90.4561 126.164 90.4561C123.277 90.3352 120.677 88.6712 119.359 86.0996C118.8 84.9704 119.257 83.6018 120.382 83.0348C121.507 82.4678 122.879 82.9149 123.454 84.036C124.036 85.1232 125.15 85.8211 126.382 85.8703C127.275 85.9306 128.157 85.6327 128.83 85.0426C129.493 84.5154 129.903 83.7341 129.961 82.8896C130.005 82.0967 129.727 81.3195 129.19 80.7342C128.543 80.0264 127.64 79.6063 126.682 79.5672C125.863 79.5262 125.128 79.0513 124.754 78.3214C124.38 77.5915 124.423 76.7175 124.868 76.0285C125.313 75.3396 126.092 74.9404 126.911 74.9814C129.096 75.0835 131.15 76.0523 132.618 77.6732C133.997 79.1965 134.693 81.2181 134.542 83.2674C134.392 85.3167 133.409 87.2151 131.823 88.5209C130.364 89.7839 128.495 90.4719 126.565 90.4561Z" fill="url(#paint11_linear)"/>
<path d="M140.378 91.3641C140.315 91.3674 140.252 91.3674 140.19 91.3641C138.928 91.2606 137.989 90.1541 138.092 88.8923L139.873 67.1741C139.928 66.3478 140.424 65.6152 141.17 65.2573C141.917 64.8994 142.799 64.972 143.477 65.4471C144.155 65.9222 144.524 66.7261 144.443 67.5501L142.661 89.2661C142.56 90.4522 141.568 91.3636 140.378 91.3641Z" fill="#6E71FF"/>
<path d="M140.378 91.364C140.315 91.3674 140.252 91.3674 140.19 91.364C138.928 91.2606 137.989 90.1541 138.092 88.8923L139.873 67.1741C139.928 66.3478 140.424 65.6151 141.17 65.2573C141.917 64.8994 142.799 64.972 143.477 65.4471C144.155 65.9222 144.524 66.7261 144.443 67.5501L142.661 89.266C142.56 90.4522 141.568 91.3636 140.378 91.364Z" fill="url(#paint12_linear)"/>
<path d="M151.64 92.4371C151.556 92.4371 151.472 92.4325 151.388 92.4234C150.132 92.2852 149.225 91.1574 149.359 89.9012L151.734 68.238C151.883 66.9886 153.01 66.0923 154.261 66.2295C155.512 66.3666 156.418 67.486 156.292 68.7378L153.917 90.4011C153.786 91.5601 152.807 92.4363 151.64 92.4371Z" fill="#6E71FF"/>
<path d="M151.64 92.4371C151.556 92.4371 151.472 92.4325 151.388 92.4234C150.132 92.2852 149.225 91.1574 149.359 89.9012L151.734 68.238C151.883 66.9886 153.01 66.0923 154.261 66.2295C155.512 66.3666 156.418 67.486 156.292 68.7378L153.917 90.4011C153.786 91.5601 152.807 92.4363 151.64 92.4371Z" fill="url(#paint13_linear)"/>
<path d="M152.83 81.6124C152.745 81.6124 152.66 81.6078 152.575 81.5986C148.751 81.179 144.883 80.8076 141.081 80.4958C139.838 80.3708 138.923 79.273 139.025 78.0275C139.127 76.7819 140.208 75.8473 141.455 75.926C145.298 76.2425 149.21 76.6139 153.075 77.0404C154.285 77.1734 155.179 78.2276 155.114 79.4424C155.049 80.6571 154.046 81.6095 152.83 81.6124Z" fill="#6E71FF"/>
<path d="M152.83 81.6124C152.745 81.6124 152.66 81.6078 152.575 81.5986C148.751 81.1791 144.883 80.8076 141.081 80.4958C139.838 80.3708 138.923 79.273 139.025 78.0275C139.127 76.7819 140.208 75.8473 141.455 75.926C145.298 76.2425 149.21 76.6139 153.075 77.0404C154.285 77.1734 155.179 78.2276 155.114 79.4424C155.049 80.6571 154.046 81.6095 152.83 81.6124Z" fill="url(#paint14_linear)"/>
</g>
<defs>
<linearGradient id="paint0_linear" x1="21919" y1="1085.04" x2="21844.7" y2="2553.32" gradientUnits="userSpaceOnUse">
<stop stop-color="white" stop-opacity="0.27"/>
<stop offset="0.95" stop-color="white"/>
</linearGradient>
<linearGradient id="paint1_linear" x1="30469.5" y1="1366.21" x2="30366.3" y2="3406.51" gradientUnits="userSpaceOnUse">
<stop stop-color="white" stop-opacity="0.27"/>
<stop offset="0.95" stop-color="white"/>
</linearGradient>
<linearGradient id="paint2_linear" x1="61.0003" y1="147.5" x2="73.5003" y2="209.5" gradientUnits="userSpaceOnUse">
<stop stop-color="white"/>
<stop offset="1" stop-color="white" stop-opacity="0"/>
</linearGradient>
<linearGradient id="paint3_linear" x1="159.872" y1="98.2229" x2="152" y2="254" gradientUnits="userSpaceOnUse">
<stop offset="0.195266" stop-color="white"/>
<stop offset="1" stop-color="white" stop-opacity="0"/>
</linearGradient>
<linearGradient id="paint4_linear" x1="106.5" y1="55" x2="106.5" y2="102.759" gradientUnits="userSpaceOnUse">
<stop stop-color="#2C2C2C"/>
<stop offset="1" stop-color="#0C0C0C" stop-opacity="0"/>
</linearGradient>
<linearGradient id="paint5_linear" x1="63.5736" y1="65.3124" x2="63.643" y2="99.9293" gradientUnits="userSpaceOnUse">
<stop offset="0.753569" stop-color="white"/>
<stop offset="1" stop-color="white" stop-opacity="0"/>
</linearGradient>
<linearGradient id="paint6_linear" x1="66.8894" y1="82.5267" x2="66.6297" y2="94.4748" gradientUnits="userSpaceOnUse">
<stop stop-color="white"/>
<stop offset="1" stop-color="white" stop-opacity="0"/>
</linearGradient>
<linearGradient id="paint7_linear" x1="77.4085" y1="89.2799" x2="77.4085" y2="101.098" gradientUnits="userSpaceOnUse">
<stop stop-color="white"/>
<stop offset="1" stop-color="white" stop-opacity="0"/>
</linearGradient>
<linearGradient id="paint8_linear" x1="112.214" y1="89.9293" x2="112.214" y2="97.5917" gradientUnits="userSpaceOnUse">
<stop stop-color="white"/>
<stop offset="1" stop-color="white" stop-opacity="0"/>
</linearGradient>
<linearGradient id="paint9_linear" x1="94.8118" y1="87.9812" x2="94.8118" y2="107.722" gradientUnits="userSpaceOnUse">
<stop stop-color="white"/>
<stop offset="1" stop-color="white" stop-opacity="0"/>
</linearGradient>
<linearGradient id="paint10_linear" x1="126.76" y1="80.0591" x2="126.76" y2="85.1241" gradientUnits="userSpaceOnUse">
<stop stop-color="white"/>
<stop offset="1" stop-color="white" stop-opacity="0"/>
</linearGradient>
<linearGradient id="paint11_linear" x1="126.841" y1="74.9785" x2="126.76" y2="105.384" gradientUnits="userSpaceOnUse">
<stop offset="0.52157" stop-color="white"/>
<stop offset="1" stop-color="white" stop-opacity="0"/>
</linearGradient>
<linearGradient id="paint12_linear" x1="140.397" y1="89.7994" x2="140.656" y2="105.773" gradientUnits="userSpaceOnUse">
<stop stop-color="white"/>
<stop offset="1" stop-color="white" stop-opacity="0"/>
</linearGradient>
<linearGradient id="paint13_linear" x1="152.734" y1="89.9293" x2="152.734" y2="116.423" gradientUnits="userSpaceOnUse">
<stop stop-color="white"/>
<stop offset="1" stop-color="white" stop-opacity="0"/>
</linearGradient>
<linearGradient id="paint14_linear" x1="147.02" y1="82.3968" x2="146.37" y2="87.5916" gradientUnits="userSpaceOnUse">
<stop stop-color="white"/>
<stop offset="1" stop-color="white" stop-opacity="0"/>
</linearGradient>
<clipPath id="clip0">
<rect width="208" height="208" fill="white"/>
</clipPath>
</defs>
</svg>
