<svg width="240" height="240" viewBox="0 0 240 240" fill="none" xmlns="http://www.w3.org/2000/svg">
<g clip-path="url(#clip0)">
<path opacity="0.18" d="M238.95 108.264C236.088 126.698 221.507 140.092 220.279 158.664C219.928 163.906 220.162 169.223 220.059 174.485C220.029 177.719 219.758 180.947 219.249 184.14C219.057 185.285 218.812 186.435 218.514 187.589C218.322 188.278 218.116 189.009 217.883 189.713C217.649 190.416 217.478 190.947 217.279 191.568C214.059 201.713 211.306 213.396 203.481 221.024C199.087 225.3 194.557 229.686 188.667 232.169C183.766 234.238 178.26 234.858 172.878 235.438C144.555 238.479 115.971 241.527 87.5651 239.155C68.3442 237.548 49.2263 233.293 31.9618 225.362C10.05 215.272 3.87188 200.941 1.43494 181.478C0.98188 177.851 0.659246 174.051 0.391527 170.064C-1.6141 139.388 4.69136 108.738 18.6376 81.3736C22.7633 73.2631 27.747 65.1595 35.5108 59.6422C43.4532 53.9042 53.6403 51.2973 62.07 46.1593C75.3873 38.0213 83.2267 24.2349 96.091 15.5037C108.289 7.22775 123.851 4.2553 138.954 2.08975C154.275 -0.103383 170.352 -1.60685 184.946 3.08976C204.071 9.20708 217.395 24.9521 226.1 41.3868C237.117 62.0974 242.479 85.5322 238.95 108.264Z" fill="#6E71FF"/>
<path opacity="0.43" d="M220.04 174.468C220.01 177.702 219.739 180.929 219.23 184.122C219.037 185.267 218.793 186.416 218.495 187.57C218.303 188.26 218.097 188.991 217.864 189.694C217.63 190.397 217.459 190.928 217.26 191.549C215.887 195.852 214.624 200.431 213.004 204.858C210.801 210.899 207.966 216.664 203.436 221.078C199.043 225.353 194.512 229.739 188.623 232.221C184.402 234.007 179.741 234.711 175.08 235.242L172.822 235.49C144.501 238.531 115.92 241.579 87.5162 239.207C68.297 237.6 49.1808 233.345 31.9178 225.415C10.0079 215.326 3.83028 200.997 1.39355 181.536C2.07996 181.019 2.46434 180.75 2.46434 180.75C2.46434 180.75 154.804 208.334 219.291 174.895L220.04 174.468Z" fill="#6E71FF"/>
<path d="M213.004 204.803C210.801 210.844 207.966 216.609 203.436 221.022C199.043 225.298 194.512 229.684 188.623 232.166C184.402 233.952 179.741 234.656 175.08 235.187C156.328 233.87 137.617 231.808 118.796 231.201C107.655 230.849 95.8835 230.856 86.3082 225.746C84.4756 224.767 82.739 223.608 80.7347 222.988C78.6783 222.461 76.5624 222.206 74.4404 222.229C60.797 221.775 47.1896 220.555 33.6819 218.574C32.5494 218.51 31.4515 218.159 30.4901 217.554C29.6253 216.864 29.2958 215.547 30.1126 214.795L64.4326 218.002C69.5669 218.485 76.2044 219.347 80.817 216.892C77.6115 213.526 72.2439 210.734 76.8702 206.479C80.1169 203.493 86.9535 203.031 91.2846 203.327C98.6566 203.824 102.377 207.706 107.971 211.458C114.348 215.733 121.699 216.23 129.435 216.368L164.386 216.995C168.306 217.064 172.699 216.995 175.437 214.464C175.931 214.054 176.29 213.504 176.467 212.885C176.906 210.816 174.058 209.554 171.758 209.175C169.459 208.796 166.555 208.079 166.301 206.003C166.164 204.955 166.83 203.934 167.585 203.155C172.802 197.507 182.37 196.949 190.325 198.693C198.006 200.39 205.213 203.762 213.004 204.803Z" fill="url(#paint0_linear)"/>
<path d="M116.818 64.9531C116.447 66.9185 115.596 68.8356 115.734 70.8216C115.887 72.0937 116.372 73.3025 117.14 74.3257C117.908 75.3489 118.931 76.1503 120.106 76.6487C121.355 77.1895 122.698 77.4753 124.058 77.4895C125.418 77.5037 126.767 77.246 128.027 76.7314C129.071 76.3359 129.994 75.6726 130.704 74.8075C131.32 73.938 131.662 72.9025 131.686 71.8353C131.809 69.4286 130.841 67.0909 129.791 64.8635C128.351 61.8199 126.747 58.8572 124.986 55.9884C124.31 54.7451 123.404 53.6428 122.316 52.7404C121.362 52.0508 119.571 51.2647 118.287 51.7819C117.003 52.2991 116.983 53.761 116.914 54.8644C116.681 58.2572 117.456 61.6086 116.818 64.9531Z" fill="#6E71FF"/>
<path d="M116.818 64.9531C116.447 66.9185 115.596 68.8356 115.734 70.8216C115.887 72.0937 116.372 73.3025 117.14 74.3257C117.908 75.3489 118.931 76.1503 120.106 76.6487C121.355 77.1895 122.698 77.4753 124.058 77.4895C125.418 77.5037 126.767 77.246 128.027 76.7314C129.071 76.3359 129.994 75.6726 130.704 74.8075C131.32 73.938 131.662 72.9025 131.686 71.8353C131.809 69.4286 130.841 67.0909 129.791 64.8635C128.351 61.8199 126.747 58.8572 124.986 55.9884C124.31 54.7451 123.404 53.6428 122.316 52.7404C121.362 52.0508 119.571 51.2647 118.287 51.7819C117.003 52.2991 116.983 53.761 116.914 54.8644C116.681 58.2572 117.456 61.6086 116.818 64.9531Z" fill="url(#paint1_linear)"/>
<path d="M114.299 136.05L84.3994 164.455L89.012 198.935C89.012 198.935 96.5624 201.59 99.665 199.831L100.447 170.744L125.494 157.428L141.968 138.361C141.968 138.361 123.154 129.747 114.299 136.05Z" fill="#6E71FF"/>
<path d="M114.299 136.05L84.3994 164.455L89.012 198.935C89.012 198.935 96.5624 201.59 99.665 199.831L100.447 170.744L125.494 157.428L141.968 138.361C141.968 138.361 123.154 129.747 114.299 136.05Z" fill="url(#paint2_linear)"/>
<path d="M128.906 97.1984C128.906 97.1984 128.515 97.888 127.842 98.9155C125.186 103.053 118.171 113.266 113.469 113.197C101.038 113.011 86.9532 110.383 82.169 109.425L80.4805 109.073C82.0399 105.356 82.9836 101.408 83.2741 97.3846L109.563 98.9431L125.536 81.3584L128.906 97.1984Z" fill="#6E71FF"/>
<path d="M83.2744 97.3848L82.0183 97.4951L79.2246 108.791L80.7827 109.48C80.7827 109.48 82.9655 100.067 83.2744 97.3848Z" fill="url(#paint3_linear)"/>
<path d="M127.842 98.9432C125.186 103.081 118.171 113.294 113.469 113.225C101.038 113.039 86.9532 110.411 82.1689 109.453C82.6623 107.471 82.977 105.45 83.1093 103.412L109.426 104.929L125.405 87.3442L127.842 98.9432Z" fill="url(#paint4_linear)"/>
<path d="M120.154 135.492L123.696 168.558L165.203 196.142C165.203 196.142 166.102 192.004 168.854 189.839L144.144 163.744L142.572 135.616C142.572 135.616 127.766 127.961 120.154 135.492Z" fill="#6E71FF"/>
<path d="M120.154 135.492L123.696 168.558L165.203 196.142C165.203 196.142 166.102 192.004 168.854 189.839L144.144 163.744L142.572 135.616C142.572 135.616 127.766 127.961 120.154 135.492Z" fill="url(#paint5_linear)"/>
<path d="M121.384 69.2907C123.134 73.7661 125.914 70.8147 126.374 72.5731C126.971 75.2989 126.971 78.1225 126.374 80.8483C126.374 80.8483 136.979 79.1312 140.102 76.6211C140.102 76.6211 137.844 70.6768 139.086 67.4701C140.328 64.2635 143.204 59.1191 140.617 54.7471C138.029 50.3751 133.149 45.9065 126.037 46.0306C117.595 46.1547 114.032 50.4509 121.384 69.2907Z" fill="url(#paint6_linear)"/>
<path d="M120.662 75.2764L124.492 81.9723L143.533 74.704L142.064 68.5735L120.662 75.2764Z" fill="#6E71FF"/>
<path d="M135.001 69.7664L118.178 74.9728L119.317 76.1796L135.935 71.4421L135.001 69.7664Z" fill="url(#paint7_linear)"/>
<path d="M133.697 64.1187C133.573 66.4426 133.827 68.8976 135.296 70.8147C137.541 73.7455 141.9 74.5799 145.846 74.9523C148.242 75.166 151.248 74.9523 152.223 73.0145C152.44 72.4455 152.509 71.8304 152.424 71.2271C152.339 70.6238 152.102 70.0523 151.736 69.5665C150.972 68.5612 150.154 67.5989 149.285 66.684C147.73 64.813 146.832 62.4788 146.732 60.0432C146.732 58.8226 146.828 57.4779 145.997 56.5125C145.311 55.7332 144.206 55.4091 143.156 55.1333C141.302 54.6506 134.123 51.6853 132.997 53.7127C132.674 54.292 134.061 57.8503 134.081 58.8019C134.054 60.5801 133.926 62.3553 133.697 64.1187Z" fill="#6E71FF"/>
<path d="M133.697 64.1187C133.573 66.4426 133.827 68.8976 135.296 70.8147C137.541 73.7455 141.9 74.5799 145.846 74.9523C148.242 75.166 151.248 74.9523 152.223 73.0145C152.44 72.4455 152.509 71.8304 152.424 71.2271C152.339 70.6238 152.102 70.0523 151.736 69.5665C150.972 68.5612 150.154 67.5989 149.285 66.684C147.73 64.813 146.832 62.4788 146.732 60.0432C146.732 58.8226 146.828 57.4779 145.997 56.5125C145.311 55.7332 144.206 55.4091 143.156 55.1333C141.302 54.6506 134.123 51.6853 132.997 53.7127C132.674 54.292 134.061 57.8503 134.081 58.8019C134.054 60.5801 133.926 62.3553 133.697 64.1187Z" fill="url(#paint8_linear)"/>
<path d="M145.016 133.271C144.505 135.687 144.274 138.154 144.329 140.622C144.398 143.898 145.098 147.215 145.263 150.504C145.32 150.833 145.256 151.171 145.084 151.456C144.793 151.752 144.406 151.936 143.993 151.973C140.872 152.564 137.692 152.777 134.52 152.608L133.36 152.552C131.473 152.456 129.592 152.29 127.718 152.125C127.67 151.332 127.629 150.532 127.588 149.732C127.423 150.718 126.366 151.421 125.268 151.608H125.11C123.946 151.673 122.781 151.512 121.678 151.132C115.082 149.291 108.362 147.139 103.248 142.974C105.257 141.848 107.13 140.492 108.828 138.933C111.732 136.271 114.615 132.775 115.603 129.127C116.063 127.396 116.29 125.582 116.599 123.824C117.747 117.801 118.891 111.774 120.031 105.743C121.774 96.5227 122.776 91.1645 124.533 81.9377C124.533 81.9377 136.202 73.6626 139.504 73.6626C140.787 73.6626 142.531 74.4901 144.233 75.6279C157.961 84.8409 154.378 107.57 149.203 120.707C147.521 124.879 145.915 128.982 145.016 133.271Z" fill="#6E71FF"/>
<path d="M123.058 74.4143L127.341 81.9999C127.341 81.9999 123.992 127.817 115.117 137.443C115.117 137.443 108.417 143.574 106.392 144.553L104.525 143.863C104.525 143.863 113.449 138.692 114.3 136.043C115.151 133.395 117.45 134.519 121.5 114.156C125.55 93.7919 126.174 82.3929 126.174 82.3929L121.967 74.9522L123.058 74.4143Z" fill="url(#paint9_linear)"/>
<path d="M145.421 133.354C144.048 139.257 144.927 144.388 145.235 150.504C145.292 150.833 145.229 151.171 145.057 151.456C144.765 151.752 144.379 151.936 143.966 151.973C140.845 152.564 137.665 152.777 134.493 152.608L134.411 151.125C134.344 151.427 134.214 151.711 134.028 151.957C133.842 152.203 133.605 152.407 133.333 152.552C132.913 152.804 132.446 152.966 131.96 153.028C130.796 153.094 129.63 152.93 128.528 152.545C127.444 152.249 126.353 151.932 125.268 151.608C119.777 149.946 114.375 147.87 110.099 144.401C112.106 143.269 113.98 141.914 115.686 140.36C118.589 137.692 121.472 134.202 122.454 130.547C122.921 128.823 123.14 126.996 123.456 125.251C124.595 119.224 125.739 113.197 126.888 107.17C128.638 97.9432 129.634 92.5851 131.391 83.3652C131.391 83.3652 139.628 77.4967 144.24 75.6279C155.827 83.379 155.717 102.081 152.23 114.176C150.493 120.19 147.638 125.803 145.867 131.802C145.675 132.326 145.537 132.844 145.421 133.354Z" fill="url(#paint10_linear)"/>
<path d="M130.348 60.6913L130.087 60.9878C129.394 61.8903 128.54 62.6551 127.568 63.2428C126.217 63.9138 124.806 64.4563 123.354 64.8634C122.408 65.2579 121.404 65.491 120.382 65.553C119.373 65.484 119.009 65.9391 119.544 67.5735C120.079 69.2078 121.542 71.9317 123.374 72.0627C124.89 72.1737 126.414 72.1182 127.918 71.8972C132.524 70.6766 133.197 66.4356 134.144 62.7946C134.305 62.2479 134.413 61.6866 134.466 61.1188C134.489 60.4474 134.429 59.7757 134.288 59.119C134 57.4364 133.663 55.7538 133.286 54.085C133.247 53.823 133.124 53.581 132.936 53.3954C132.448 52.9954 131.604 53.3954 131.419 53.9953C131.325 54.5825 131.387 55.1842 131.597 55.74C131.775 56.6065 131.756 57.5023 131.539 58.3599C131.323 59.2176 130.916 60.0147 130.348 60.6913Z" fill="#6E71FF"/>
<path d="M130.348 60.6913L130.087 60.9878C129.394 61.8903 128.54 62.6551 127.568 63.2428C126.217 63.9138 124.806 64.4563 123.354 64.8634C122.408 65.2579 121.404 65.491 120.382 65.553C119.373 65.484 119.009 65.9391 119.544 67.5735C120.079 69.2078 121.542 71.9317 123.374 72.0627C124.89 72.1737 126.414 72.1182 127.918 71.8972C132.524 70.6766 133.197 66.4356 134.144 62.7946C134.305 62.2479 134.413 61.6866 134.466 61.1188C134.489 60.4474 134.429 59.7757 134.288 59.119C134 57.4364 133.663 55.7538 133.286 54.085C133.247 53.823 133.124 53.581 132.936 53.3954C132.448 52.9954 131.604 53.3954 131.419 53.9953C131.325 54.5825 131.387 55.1842 131.597 55.74C131.775 56.6065 131.756 57.5023 131.539 58.3599C131.323 59.2176 130.916 60.0147 130.348 60.6913Z" fill="url(#paint11_linear)"/>
<path d="M120.765 66.801C122.841 66.6049 124.882 66.1414 126.84 65.4218C129.503 64.3323 129.702 64.7322 130.066 65.9735C130.43 67.2148 129.558 69.0353 127.492 69.4698C125.426 69.9042 122.364 70.2214 122.117 69.6766C121.87 69.1319 120.717 67.2768 120.765 66.801Z" fill="url(#paint12_linear)"/>
<path d="M162.416 181.964L154.18 190.025L167.084 199.624C167.084 199.624 168.457 200.755 167.324 200.907C166.192 201.059 163.755 201.921 162.972 203.403C162.523 204.188 162.256 205.065 162.19 205.968C164.584 206.726 167.134 206.833 169.583 206.279C173.584 205.348 174.799 203.479 174.799 203.479L176.934 199.155L176.412 197.404L178.238 197.755L179.673 195.535C179.673 195.535 175.842 192.728 174.717 192.418C173.591 192.108 170.598 190.942 169.583 188.97C168.567 186.998 162.416 181.964 162.416 181.964Z" fill="#6E71FF"/>
<path d="M162.416 181.964L154.18 190.025L167.084 199.624C167.084 199.624 168.457 200.755 167.324 200.907C166.192 201.059 163.755 201.921 162.972 203.403C162.523 204.188 162.256 205.065 162.19 205.968C164.584 206.726 167.134 206.833 169.583 206.279C173.584 205.348 174.799 203.479 174.799 203.479L176.934 199.155L176.412 197.404L178.238 197.755L179.673 195.535C179.673 195.535 175.842 192.728 174.717 192.418C173.591 192.108 170.598 190.942 169.583 188.97C168.567 186.998 162.416 181.964 162.416 181.964Z" fill="url(#paint13_linear)" fill-opacity="0.9"/>
<path d="M86.3969 188.039L101.36 186.949L99.9877 202.059L100.599 206.258L100.859 208.83L96.1644 209.182L95.478 206.962L93.7757 208.713L77.8512 208.589C77.8512 208.589 75.792 202.879 80.8508 202.983C86.4587 203.1 88.9366 200.997 88.9366 200.997L86.3969 188.039Z" fill="#6E71FF"/>
<path d="M86.3969 188.039L101.36 186.949L99.9877 202.059L100.599 206.258L100.859 208.83L96.1644 209.182L95.478 206.962L93.7757 208.713L77.8512 208.589C77.8512 208.589 75.792 202.879 80.8508 202.983C86.4587 203.1 88.9366 200.997 88.9366 200.997L86.3969 188.039Z" fill="url(#paint14_linear)" fill-opacity="0.8"/>
<path d="M220.417 191.597H219.731L221.365 191.653L220.417 191.597ZM218.42 184.06H217.679H216.917L215.743 184.026H215.338H214.109L212.407 183.964C211.549 183.964 210.664 183.908 209.764 183.874L206.586 183.77L205.214 183.722C194.918 183.377 184.402 183.033 182.912 183.033H182.871L182.329 182.991L181.986 182.957L180.86 182.846L180.29 182.784C179.988 182.75 179.673 182.715 179.336 182.667L178.897 182.619L177.277 182.412L176.591 182.315H176.337L175.081 182.143H174.991L174.497 182.074L170.715 181.509C168.807 181.212 166.727 180.867 164.537 180.481L163.975 180.385L163.213 180.247L161.84 179.998L160.556 179.757L159.767 179.612L158.456 179.357L157.653 179.192L156.28 178.93C154.811 178.626 153.315 178.309 151.805 177.978L150.432 177.668C143.397 176.124 136.453 174.186 129.634 171.861L128.371 171.413C124.717 170.12 121.157 168.572 117.718 166.779L117.251 166.524L117.087 166.434L116.098 165.875C115.233 165.365 114.403 164.841 113.62 164.31C113.16 163.993 112.714 163.669 112.289 163.345C111.863 163.021 111.451 162.69 111.067 162.345C110.93 162.234 110.806 162.124 110.682 162.014C110.188 161.566 109.722 161.103 109.31 160.635C108.327 159.56 107.41 158.427 106.564 157.242C106.434 157.062 106.31 156.876 106.187 156.697C105.939 156.331 105.713 156.007 105.5 155.621L105.184 155.083C104.978 154.732 104.786 154.394 104.615 154.042C104.183 153.22 103.812 152.367 103.503 151.491C102.034 147.415 102.13 143.643 102.569 139.685C102.672 138.781 102.789 137.864 102.906 136.926C103.07 135.602 103.242 134.244 103.365 132.837C103.815 128.923 103.611 124.96 102.761 121.114C102.597 120.424 102.404 119.7 102.178 118.983C102.027 118.5 101.862 118.018 101.677 117.528C100.715 114.928 99.3222 112.511 97.5585 110.377C97.0437 109.756 96.5083 109.163 95.9454 108.598C95.5748 108.218 95.1973 107.853 94.806 107.494C85.2582 98.7847 70.9605 96.778 70.178 96.6746L69.821 98.8537L68.9287 103.888C68.9287 103.888 69.2856 103.936 69.8554 104.039L70.329 104.129C70.6722 104.191 71.0703 104.274 71.5096 104.377L72.5941 104.626L73.3903 104.832C74.214 105.046 75.12 105.308 76.0741 105.619L77.0557 105.95L77.5568 106.122C77.8931 106.246 78.2432 106.37 78.5726 106.508C84.4002 108.763 91.1955 112.79 93.7627 119.707C93.9892 120.321 94.1883 120.928 94.353 121.521C94.4491 121.845 94.5315 122.162 94.607 122.479C94.655 122.693 94.7031 122.907 94.7442 123.121C94.8472 123.603 94.9296 124.086 94.9982 124.562C95.0669 125.038 95.0943 125.341 95.1355 125.727C95.1835 126.224 95.211 126.72 95.2316 127.21C95.2859 129.478 95.1573 131.748 94.8472 133.995C94.7717 134.63 94.6893 135.271 94.607 135.913C94.5246 136.554 94.4491 137.202 94.3736 137.857C93.797 142.753 93.4813 148.043 95.6915 153.925C95.8562 154.366 96.0347 154.807 96.2269 155.256C96.5152 155.945 96.8446 156.635 97.2016 157.283C97.8447 158.474 98.5575 159.625 99.3363 160.731C99.501 160.972 99.6657 161.214 99.8442 161.421C100.194 161.897 100.531 162.379 100.942 162.862C101.526 163.6 102.157 164.338 102.83 165.082C103.386 165.696 103.99 166.303 104.649 166.903C105.178 167.372 105.734 167.848 106.324 168.317C106.914 168.786 107.539 169.248 108.191 169.696C108.52 169.93 108.857 170.16 109.2 170.385C109.543 170.613 109.886 170.841 110.25 171.075L111.348 171.765L111.918 172.096C112.309 172.309 112.694 172.537 113.099 172.785C121.486 177.371 133.395 181.391 148.702 184.805C166.082 188.68 181.519 190.322 182.775 190.322H183.4H184.244H185.054H185.363H185.665H186.049L187.8 190.377H188.287H188.465H189.303L191.177 190.439L192.501 190.487H192.762L193.888 190.522L196.091 190.597L197.395 190.632L199.558 190.708L200.841 190.749L202.495 190.804L203.752 190.846L205.035 190.887L207.925 190.984L209.366 191.032L216.34 191.266H217.246H218.008H217.246C217.445 190.646 217.644 190.025 217.85 189.411C218.056 188.798 218.29 187.991 218.482 187.287C218.775 186.147 219.019 184.998 219.216 183.839H219.113L218.42 184.06Z" fill="#6E71FF"/>
<path d="M218.42 184.06H217.679H216.917L215.743 184.026H215.338H214.109L212.407 183.964L209.764 183.874L206.586 183.771L205.214 183.722C194.918 183.377 184.402 183.033 182.912 183.033H182.871L182.329 182.991C182.214 182.986 182.099 182.974 181.986 182.957L180.86 182.846L180.29 182.784C179.988 182.75 179.673 182.715 179.336 182.667L178.897 182.619L177.277 182.412L176.591 182.315H176.337L175.081 182.143H174.991L174.497 182.074L170.715 181.509C168.807 181.205 166.727 180.86 164.537 180.481L163.975 180.385L163.213 180.247L161.84 179.998L160.556 179.757L159.767 179.612L158.456 179.357L157.653 179.192L156.28 178.93C154.811 178.626 153.315 178.309 151.805 177.978L150.432 177.668C143.397 176.124 136.453 174.186 129.634 171.861L128.371 171.413C124.717 170.12 121.157 168.572 117.718 166.779L117.251 166.524L117.087 166.434L116.098 165.875C115.233 165.365 114.403 164.841 113.62 164.31C113.16 163.993 112.714 163.669 112.289 163.345C111.863 163.021 111.451 162.655 111.067 162.345C110.93 162.234 110.806 162.124 110.682 162.014C110.188 161.559 109.722 161.097 109.31 160.635C108.329 159.558 107.413 158.426 106.564 157.242C106.434 157.062 106.31 156.876 106.187 156.697C105.946 156.331 105.72 156.007 105.5 155.621L105.184 155.083C104.985 154.732 104.793 154.394 104.615 154.042C104.19 153.216 103.819 152.364 103.503 151.491C102.034 147.415 102.13 143.643 102.569 139.685C102.665 138.781 102.782 137.864 102.899 136.926C103.063 135.602 103.235 134.244 103.365 132.837C103.815 128.923 103.611 124.96 102.761 121.114C102.597 120.424 102.404 119.7 102.178 118.983C102.027 118.5 101.862 118.018 101.677 117.528C100.715 114.928 99.3222 112.511 97.5585 110.377C97.0437 109.756 96.5083 109.163 95.9454 108.598C95.5748 108.218 95.1904 107.853 94.806 107.494C85.2582 98.7847 70.9605 96.778 70.178 96.6746L69.821 98.8537L68.9287 103.888C68.9287 103.888 69.2856 103.936 69.8554 104.039L70.329 104.129C70.6722 104.198 71.0703 104.274 71.5096 104.377L72.5941 104.626L73.3903 104.832C74.214 105.053 75.12 105.315 76.0741 105.619L77.0557 105.95L77.5568 106.122C77.8931 106.246 78.2432 106.37 78.5726 106.508C84.4002 108.763 91.1955 112.79 93.7627 119.707C93.9892 120.321 94.1882 120.928 94.353 121.521C94.4491 121.845 94.5315 122.162 94.607 122.479C94.655 122.693 94.7031 122.907 94.7442 123.121C94.8472 123.603 94.9296 124.086 94.9982 124.562C95.0668 125.038 95.0943 125.341 95.1355 125.727C95.1835 126.224 95.211 126.72 95.2316 127.21C95.2858 129.478 95.1573 131.748 94.8472 133.995C94.7786 134.63 94.6893 135.271 94.6138 135.913C94.5383 136.554 94.4491 137.202 94.3736 137.857C93.797 142.753 93.4813 148.043 95.6915 153.925C95.8493 154.366 96.0347 154.814 96.2269 155.256C96.5152 155.945 96.8378 156.635 97.2016 157.283C97.8432 158.475 98.5561 159.626 99.3363 160.731C99.501 160.972 99.6657 161.214 99.8442 161.421C100.194 161.903 100.531 162.386 100.942 162.862C101.526 163.6 102.157 164.338 102.83 165.082C103.386 165.696 103.99 166.303 104.649 166.903C105.178 167.379 105.734 167.855 106.324 168.317C106.914 168.779 107.539 169.255 108.191 169.696C108.52 169.93 108.857 170.16 109.2 170.385C109.543 170.613 109.886 170.841 110.25 171.075L111.348 171.765L111.918 172.096C112.309 172.309 112.694 172.537 113.099 172.785C121.486 177.371 133.395 181.391 148.702 184.805C166.082 188.68 181.519 190.322 182.775 190.322H183.4H184.244H185.054H185.363H185.665H186.049L187.8 190.377H188.287H188.465H189.303L191.177 190.439L192.501 190.487H192.762L193.888 190.522L196.091 190.598L197.395 190.632L199.558 190.708L200.841 190.749L202.495 190.804L203.752 190.846L205.035 190.887L207.925 190.984L209.366 191.032L216.34 191.266H217.246C217.445 190.646 217.644 190.025 217.85 189.411C218.056 188.798 218.289 187.991 218.482 187.287C218.775 186.147 219.019 184.998 219.216 183.839H219.113L218.42 184.06Z" fill="url(#paint15_linear)"/>
<path d="M177.744 186.17C171.772 185.798 117.807 176.654 104.299 161.703C96.0621 152.594 96.9064 145.843 97.888 137.995C98.5744 132.361 99.4049 125.975 96.6662 118.604C91.8614 105.729 77.392 100.55 69.8279 98.6812L68.9287 103.888C68.9287 103.888 69.2856 103.936 69.8554 104.039L70.329 104.129C70.6722 104.198 71.0703 104.274 71.5096 104.377L72.5941 104.625L73.3903 104.832C74.214 105.053 75.12 105.315 76.0741 105.618L77.0557 105.949L77.5568 106.122C77.8931 106.246 78.2432 106.37 78.5726 106.508C84.4002 108.763 91.1955 112.79 93.7627 119.707C93.9892 120.321 94.1882 120.928 94.353 121.521C94.4491 121.845 94.5315 122.162 94.607 122.479C94.655 122.693 94.7031 122.907 94.7442 123.12C94.8472 123.603 94.9296 124.086 94.9982 124.562C95.0668 125.038 95.0943 125.341 95.1355 125.727C95.1835 126.224 95.211 126.72 95.2316 127.21C95.2859 129.478 95.1573 131.748 94.8472 133.995C94.7786 134.63 94.6893 135.271 94.6138 135.912C94.5383 136.554 94.4491 137.202 94.3736 137.857C93.797 142.753 93.4813 148.042 95.6915 153.925C95.8493 154.366 96.0347 154.814 96.2269 155.256C96.5152 155.945 96.8378 156.635 97.2016 157.283C97.8432 158.475 98.5561 159.626 99.3363 160.731C99.501 160.972 99.6657 161.214 99.8442 161.421C100.194 161.903 100.531 162.386 100.942 162.862C101.526 163.6 102.157 164.338 102.83 165.082C103.386 165.696 103.99 166.303 104.649 166.903C105.178 167.379 105.734 167.855 106.324 168.317C106.914 168.779 107.539 169.254 108.191 169.696C108.52 169.93 108.857 170.16 109.2 170.385C109.543 170.613 109.886 170.84 110.25 171.075L111.348 171.765L111.918 172.096C112.309 172.309 112.694 172.537 113.099 172.785C121.486 177.371 133.395 181.391 148.702 184.805C166.082 188.68 181.519 190.322 182.775 190.322H183.4H184.244H185.054H185.363H185.665H186.049L187.8 190.377H188.287H188.465H189.303L191.177 190.439L192.501 190.487H192.762L193.888 190.522L196.091 190.597L197.395 190.632L199.558 190.708L200.841 190.749L202.495 190.804L203.752 190.846L205.035 190.887L207.925 190.984L209.366 191.032L216.34 191.266H217.246C217.445 190.646 217.644 190.025 217.85 189.411C218.056 188.798 218.289 187.991 218.482 187.287C209.723 187.211 180.297 186.205 177.73 186.17H177.744Z" fill="url(#paint16_linear)"/>
<path d="M110.607 116.873C110.607 116.873 106.818 117.7 106.049 117.335C105.28 116.969 105.781 115.907 103.248 115.438C100.716 114.969 99.5006 113.797 99.075 114.459C98.6494 115.121 99.8301 115.39 100.16 116.107C100.489 116.824 99.4113 117.9 97.3453 116.797C95.2792 115.694 95.039 114.038 94.2496 114.818C93.4603 115.597 90.5362 118.266 90.9274 119.328C91.3187 120.39 95.5126 124.493 98.0386 124.507C100.565 124.52 105.026 122.927 106.667 123.424C108.307 123.92 111.677 121.872 111.677 121.872" fill="url(#paint17_linear)"/>
<path d="M105.734 116.045L104.835 116.114C104.835 116.114 103.462 119.914 105.068 123.051C106.674 126.189 107.56 127.444 107.56 127.444L108.301 127.375L105.734 116.045Z" fill="url(#paint18_linear)"/>
<path d="M145.887 114.369C143.718 122.817 109.192 128.699 109.192 128.699C108.338 127.352 107.574 125.949 106.907 124.499C105.534 121.507 104.312 117.672 105.884 115.611C105.884 115.611 127.718 108.791 129.222 106.887C130.725 104.984 133.821 91.0265 134.528 86.6407C135.214 82.3652 140.952 79.1103 144.906 80.2343C145.478 80.3935 146.015 80.6577 146.492 81.0136C146.492 81.0136 153.815 83.5306 145.887 114.369Z" fill="#6E71FF"/>
<path d="M145.888 114.369C143.719 122.817 109.193 128.699 109.193 128.699C108.338 127.352 107.575 125.949 106.907 124.5C107.002 124.254 107.129 124.022 107.285 123.81C107.285 123.81 135.599 115.893 137.075 113.997C138.55 112.101 142.442 88.0337 143.149 83.6203C143.383 82.3375 143.984 81.1511 144.879 80.2068C145.462 80.3711 146.01 80.6449 146.492 81.0136C146.492 81.0136 153.816 83.5306 145.888 114.369Z" fill="url(#paint19_linear)"/>
<path d="M65.7365 105.839L68.64 106.377C69.1351 106.49 69.6543 106.41 70.0936 106.155C70.5328 105.899 70.8595 105.486 71.008 104.998L72.9574 96.5158C73.0013 96.274 72.9954 96.0258 72.9402 95.7863C72.8849 95.5469 72.7814 95.3214 72.636 95.1237C72.4907 94.926 72.3066 94.7603 72.0951 94.6368C71.8835 94.5133 71.6491 94.4346 71.4061 94.4057L68.4958 93.8678C68.0015 93.7535 67.4824 93.8324 67.0439 94.0886C66.6054 94.3447 66.2803 94.7588 66.1346 95.247L64.1784 103.722C64.1345 103.965 64.1405 104.214 64.1962 104.454C64.2518 104.694 64.3558 104.921 64.5018 105.119C64.6477 105.317 64.8326 105.484 65.045 105.607C65.2573 105.731 65.4927 105.81 65.7365 105.839Z" fill="#6E71FF"/>
<path d="M65.7365 105.839L68.64 106.377C69.1351 106.49 69.6543 106.41 70.0936 106.155C70.5328 105.899 70.8595 105.486 71.008 104.998L72.9574 96.5158C73.0013 96.274 72.9954 96.0258 72.9402 95.7863C72.8849 95.5469 72.7814 95.3214 72.636 95.1237C72.4907 94.926 72.3066 94.7603 72.0951 94.6368C71.8835 94.5133 71.6491 94.4346 71.4061 94.4057L68.4958 93.8678C68.0015 93.7535 67.4824 93.8324 67.0439 94.0886C66.6054 94.3447 66.2803 94.7588 66.1346 95.247L64.1784 103.722C64.1345 103.965 64.1405 104.214 64.1962 104.454C64.2518 104.694 64.3558 104.921 64.5018 105.119C64.6477 105.317 64.8326 105.484 65.045 105.607C65.2573 105.731 65.4927 105.81 65.7365 105.839Z" fill="url(#paint20_linear)"/>
<path d="M81.0156 106.156C81.4 105.432 80.8303 104.563 80.089 104.088C79.3476 103.612 78.4416 103.446 77.6866 103.019C76.8148 102.522 76.1833 101.75 75.3665 101.184C74.5497 100.619 73.3485 100.288 72.4974 100.819C71.5295 101.426 71.5913 102.708 71.0765 103.66C70.5617 104.612 71.9963 105.605 72.8337 106.184C73.5946 106.742 74.4284 107.192 75.3116 107.522C76.23 107.792 77.177 107.951 78.1327 107.998C78.328 108.032 78.5277 108.032 78.723 107.998C78.8778 107.95 79.0238 107.878 79.1554 107.784C79.8745 107.367 80.5062 106.815 81.0156 106.156Z" fill="url(#paint21_linear)"/>
<path d="M66.6559 94.3159L45.1715 93.0264L44.2998 97.2329L64.178 103.694L66.6559 94.3159Z" fill="#6E71FF"/>
<path d="M66.6559 94.3159L45.1715 93.0264L44.2998 97.2329L64.178 103.694L66.6559 94.3159Z" fill="url(#paint22_linear)"/>
<path d="M43.2779 98.1294C43.0822 98.111 42.8924 98.0526 42.7201 97.9578C42.5477 97.8631 42.3965 97.7339 42.2756 97.5782C42.1548 97.4226 42.0669 97.2438 42.0173 97.0528C41.9677 96.8617 41.9576 96.6626 41.9874 96.4675L42.7288 92.7367C42.8342 92.3423 43.0852 92.003 43.4307 91.7878C43.7762 91.5726 44.1904 91.4976 44.5889 91.5782C44.7842 91.5976 44.9735 91.6566 45.1453 91.7516C45.3172 91.8467 45.468 91.9759 45.5887 92.1313C45.7094 92.2867 45.7974 92.4651 45.8473 92.6557C45.8973 92.8463 45.9082 93.0452 45.8793 93.2401L45.1312 96.9571C45.0316 97.3544 44.7835 97.698 44.4383 97.9163C44.0932 98.1346 43.6776 98.211 43.2779 98.1294Z" fill="#6E71FF"/>
<path d="M43.2779 98.1294C43.0822 98.111 42.8924 98.0526 42.7201 97.9578C42.5477 97.8631 42.3965 97.7339 42.2756 97.5782C42.1548 97.4226 42.0669 97.2438 42.0173 97.0528C41.9677 96.8617 41.9576 96.6626 41.9874 96.4675L42.7288 92.7367C42.8342 92.3423 43.0852 92.003 43.4307 91.7878C43.7762 91.5726 44.1904 91.4976 44.5889 91.5782C44.7842 91.5976 44.9735 91.6566 45.1453 91.7516C45.3172 91.8467 45.468 91.9759 45.5887 92.1313C45.7094 92.2867 45.7974 92.4651 45.8473 92.6557C45.8973 92.8463 45.9082 93.0452 45.8793 93.2401L45.1312 96.9571C45.0316 97.3544 44.7835 97.698 44.4383 97.9163C44.0932 98.1346 43.6776 98.211 43.2779 98.1294Z" fill="url(#paint23_linear)"/>
<path d="M147.734 56.2642C147.572 56.5002 147.376 56.7096 147.15 56.8848C146.747 57.1956 146.277 57.4059 145.777 57.4986C136.593 53.5196 129.894 52.7404 119.694 52.9128C117.491 52.6019 115.326 52.0611 113.235 51.2991C112.37 50.8647 111.807 49.7958 112.363 49.0579C112.652 48.7174 113.055 48.4963 113.496 48.4373C114.512 48.2235 115.802 48.3545 116.502 47.6649C116.846 47.2574 117.051 46.7498 117.086 46.2168C117.992 41.1276 119.893 31.156 127.382 30.494C129.688 30.3949 131.975 30.9468 133.985 32.087C140.163 35.2729 144.439 41.2724 145.057 47.6374C145.352 50.5957 145.112 54.0506 147.473 56.0504C147.555 56.1263 147.638 56.1883 147.734 56.2642Z" fill="#6E71FF"/>
<path d="M144.089 51.9679C144.123 50.7266 142.517 50.0646 141.186 49.7129L135.427 48.2096C134.667 48.0515 133.934 47.7844 133.251 47.4165C132.416 46.871 131.766 46.0817 131.391 45.1547C130.601 43.3479 130.56 41.355 130.313 39.4241C130.066 37.4933 129.517 35.4727 127.986 34.0936C126.455 32.7144 123.669 32.3144 122.159 33.7143C121.683 34.2039 121.303 34.7795 121.04 35.4107C119.549 38.2587 118.227 41.1922 117.079 44.1961C116.674 45.3271 115.741 46.8235 116.763 47.7544C117.608 48.5268 120.436 48.6992 121.568 48.9405C128.988 50.5197 136.517 51.5317 144.089 51.9679Z" fill="url(#paint24_linear)"/>
<path d="M147.734 56.2642L147.178 56.878C146.775 57.1887 146.304 57.399 145.805 57.4917C136.621 53.5127 129.921 52.7335 119.722 52.9059C117.519 52.5951 115.354 52.0543 113.263 51.2922C112.398 50.8578 111.835 49.7889 112.391 49.0511C112.679 48.7106 113.082 48.4895 113.523 48.4304C113.379 48.7338 112.679 50.5406 116.585 51.0371C120.854 51.5819 135.028 50.8854 141.371 53.3748C143.465 54.1184 145.504 55.0102 147.473 56.0436C147.734 56.2229 147.734 56.2642 147.734 56.2642Z" fill="url(#paint25_linear)"/>
<path d="M125.194 42.6932C125.849 40.6285 125.109 38.5478 123.542 38.0458C121.974 37.5438 120.172 38.8106 119.517 40.8753C118.862 42.94 119.602 45.0207 121.169 45.5227C122.737 46.0247 124.539 44.7579 125.194 42.6932Z" fill="url(#paint26_linear)"/>
<path d="M124.241 42.4927C124.896 40.428 124.156 38.3473 122.588 37.8453C121.021 37.3433 119.219 38.6102 118.564 40.6749C117.909 42.7396 118.649 44.8203 120.216 45.3223C121.784 45.8242 123.586 44.5574 124.241 42.4927Z" fill="#6E71FF"/>
<path d="M28.4852 87.5649C26.8574 87.2705 25.2519 86.8627 23.6804 86.3443C21.7379 85.6547 19.8229 84.4066 17.7431 84.7169C14.9975 87.9166 13.8443 91.9576 12.7529 95.8677C21.9415 95.6838 31.1347 95.7757 40.3325 96.1435C40.6873 96.1829 41.0464 96.1525 41.3896 96.0538C41.6613 95.9188 41.9 95.7252 42.0887 95.4868C42.2774 95.2484 42.4113 94.9711 42.4809 94.6747C43.0232 93.1438 43.2634 92.8403 41.9524 91.999C40.7649 91.2267 38.9185 90.8129 37.5595 90.3095C34.5999 89.1898 31.5682 88.2728 28.4852 87.5649Z" fill="url(#paint27_linear)"/>
</g>
<defs>
<linearGradient id="paint0_linear" x1="320.035" y1="324.282" x2="46.3195" y2="169.601" gradientUnits="userSpaceOnUse">
<stop offset="0.01"/>
<stop offset="0.83" stop-opacity="0.07"/>
<stop offset="1" stop-opacity="0"/>
</linearGradient>
<linearGradient id="paint1_linear" x1="112.24" y1="51.7177" x2="136.528" y2="65.1799" gradientUnits="userSpaceOnUse">
<stop offset="0.01"/>
<stop offset="0.83" stop-opacity="0.07"/>
<stop offset="1" stop-opacity="0"/>
</linearGradient>
<linearGradient id="paint2_linear" x1="137.966" y1="184.467" x2="64.5101" y2="169.617" gradientUnits="userSpaceOnUse">
<stop offset="0.01"/>
<stop offset="0.83" stop-opacity="0.07"/>
<stop offset="1" stop-opacity="0"/>
</linearGradient>
<linearGradient id="paint3_linear" x1="81.2495" y1="97.3848" x2="81.2495" y2="109.48" gradientUnits="userSpaceOnUse">
<stop offset="0.9999" stop-color="white"/>
<stop offset="1" stop-color="white" stop-opacity="0"/>
</linearGradient>
<linearGradient id="paint4_linear" x1="162.44" y1="97.7194" x2="108.274" y2="146.335" gradientUnits="userSpaceOnUse">
<stop offset="0.01"/>
<stop offset="0.83" stop-opacity="0.07"/>
<stop offset="1" stop-opacity="0"/>
</linearGradient>
<linearGradient id="paint5_linear" x1="193.908" y1="167.917" x2="90.9679" y2="176.443" gradientUnits="userSpaceOnUse">
<stop offset="0.01"/>
<stop offset="0.83" stop-opacity="0.07"/>
<stop offset="1" stop-opacity="0"/>
</linearGradient>
<linearGradient id="paint6_linear" x1="117.4" y1="63.4405" x2="141.679" y2="63.4405" gradientUnits="userSpaceOnUse">
<stop stop-color="#E5C5D5"/>
<stop offset="0.42" stop-color="#EAD4D1"/>
<stop offset="1" stop-color="#F0E9CB"/>
</linearGradient>
<linearGradient id="paint7_linear" x1="127.056" y1="69.7664" x2="127.056" y2="76.1796" gradientUnits="userSpaceOnUse">
<stop offset="0.9999" stop-color="white"/>
<stop offset="1" stop-color="white" stop-opacity="0"/>
</linearGradient>
<linearGradient id="paint8_linear" x1="128.7" y1="53.099" x2="152.438" y2="71.9901" gradientUnits="userSpaceOnUse">
<stop offset="0.01"/>
<stop offset="0.83" stop-opacity="0.07"/>
<stop offset="1" stop-opacity="0"/>
</linearGradient>
<linearGradient id="paint9_linear" x1="115.933" y1="74.4143" x2="115.933" y2="144.553" gradientUnits="userSpaceOnUse">
<stop offset="0.9999" stop-color="white"/>
<stop offset="1" stop-color="white" stop-opacity="0"/>
</linearGradient>
<linearGradient id="paint10_linear" x1="177.031" y1="118.883" x2="83.3321" y2="124.702" gradientUnits="userSpaceOnUse">
<stop offset="0.01" stop-opacity="0.83"/>
<stop offset="0.83" stop-opacity="0.07"/>
<stop offset="1" stop-opacity="0"/>
</linearGradient>
<linearGradient id="paint11_linear" x1="127" y1="45.5" x2="124" y2="93.5" gradientUnits="userSpaceOnUse">
<stop/>
<stop offset="1" stop-opacity="0"/>
</linearGradient>
<linearGradient id="paint12_linear" x1="120.764" y1="67.3768" x2="130.153" y2="67.3768" gradientUnits="userSpaceOnUse">
<stop stop-color="#E5C5D5"/>
<stop offset="0.42" stop-color="#EAD4D1"/>
<stop offset="1" stop-color="#F0E9CB"/>
</linearGradient>
<linearGradient id="paint13_linear" x1="165" y1="170.5" x2="169" y2="225.5" gradientUnits="userSpaceOnUse">
<stop/>
<stop offset="1" stop-opacity="0"/>
</linearGradient>
<linearGradient id="paint14_linear" x1="89" y1="169.5" x2="89" y2="233" gradientUnits="userSpaceOnUse">
<stop/>
<stop offset="1" stop-opacity="0"/>
</linearGradient>
<linearGradient id="paint15_linear" x1="150.974" y1="133.244" x2="111.649" y2="190.835" gradientUnits="userSpaceOnUse">
<stop offset="0.02" stop-color="white" stop-opacity="0"/>
<stop offset="0.39" stop-color="white" stop-opacity="0.39"/>
<stop offset="1" stop-color="white"/>
</linearGradient>
<linearGradient id="paint16_linear" x1="256.028" y1="268.597" x2="-12.8507" y2="280.222" gradientUnits="userSpaceOnUse">
<stop offset="0.01"/>
<stop offset="0.748259" stop-opacity="0.07"/>
<stop offset="1" stop-opacity="0"/>
</linearGradient>
<linearGradient id="paint17_linear" x1="90.8921" y1="119.385" x2="111.692" y2="119.385" gradientUnits="userSpaceOnUse">
<stop stop-color="#E5C5D5"/>
<stop offset="0.42" stop-color="#EAD4D1"/>
<stop offset="1" stop-color="#F0E9CB"/>
</linearGradient>
<linearGradient id="paint18_linear" x1="106.294" y1="116.045" x2="106.294" y2="127.444" gradientUnits="userSpaceOnUse">
<stop offset="0.9999" stop-color="white"/>
<stop offset="1" stop-color="white" stop-opacity="0"/>
</linearGradient>
<linearGradient id="paint19_linear" x1="181.897" y1="99.6464" x2="105.776" y2="133.711" gradientUnits="userSpaceOnUse">
<stop offset="0.01"/>
<stop offset="0.83" stop-opacity="0.07"/>
<stop offset="1" stop-opacity="0"/>
</linearGradient>
<linearGradient id="paint20_linear" x1="63.835" y1="102.75" x2="71.0828" y2="93.8179" gradientUnits="userSpaceOnUse">
<stop stop-color="white" stop-opacity="0"/>
<stop offset="0.305873" stop-color="white" stop-opacity="0.39"/>
<stop offset="1" stop-color="white"/>
</linearGradient>
<linearGradient id="paint21_linear" x1="70.968" y1="104.288" x2="81.1462" y2="104.288" gradientUnits="userSpaceOnUse">
<stop stop-color="#E5C5D5"/>
<stop offset="0.42" stop-color="#EAD4D1"/>
<stop offset="1" stop-color="#F0E9CB"/>
</linearGradient>
<linearGradient id="paint22_linear" x1="52.1659" y1="103.095" x2="53.12" y2="92.4602" gradientUnits="userSpaceOnUse">
<stop stop-color="white" stop-opacity="0"/>
<stop offset="0.39" stop-color="white" stop-opacity="0.39"/>
<stop offset="1" stop-color="white"/>
</linearGradient>
<linearGradient id="paint23_linear" x1="42.9004" y1="99.3016" x2="45.1363" y2="91.6952" gradientUnits="userSpaceOnUse">
<stop stop-color="white" stop-opacity="0"/>
<stop offset="0.39" stop-color="white" stop-opacity="0.39"/>
<stop offset="1" stop-color="white"/>
</linearGradient>
<linearGradient id="paint24_linear" x1="165.14" y1="40.5089" x2="126.652" y2="68.9497" gradientUnits="userSpaceOnUse">
<stop offset="0.01"/>
<stop offset="0.83" stop-opacity="0.07"/>
<stop offset="1" stop-opacity="0"/>
</linearGradient>
<linearGradient id="paint25_linear" x1="104.426" y1="48.4665" x2="109.695" y2="67.0305" gradientUnits="userSpaceOnUse">
<stop offset="0.01"/>
<stop offset="0.83" stop-opacity="0.07"/>
<stop offset="1" stop-opacity="0"/>
</linearGradient>
<linearGradient id="paint26_linear" x1="1642.81" y1="353.94" x2="1906.89" y2="518.721" gradientUnits="userSpaceOnUse">
<stop offset="0.01" stop-opacity="0.24"/>
<stop offset="0.83" stop-opacity="0.07"/>
<stop offset="1" stop-opacity="0"/>
</linearGradient>
<linearGradient id="paint27_linear" x1="27.8344" y1="84.6682" x2="27.8344" y2="96.1602" gradientUnits="userSpaceOnUse">
<stop offset="0.9999" stop-color="white"/>
<stop offset="1" stop-color="white" stop-opacity="0"/>
</linearGradient>
<clipPath id="clip0">
<rect width="240" height="240" fill="white"/>
</clipPath>
</defs>
</svg>
