<svg width="208" height="208" viewBox="0 0 208 208" fill="none" xmlns="http://www.w3.org/2000/svg">
<path opacity="0.18" d="M207.995 150.775C208.327 175.661 191.696 199.325 170.959 203.498C161.254 205.46 151.353 203.57 141.497 203.053C120.059 201.947 98.6698 207.386 77.2693 207.957C72.9371 208.073 68.5975 207.957 64.254 207.596C49.9732 206.317 36.0274 201.845 23.1571 194.417C17.6675 191.251 12.3098 187.471 8.3132 182.032C-0.260592 170.378 -1.0863 153.32 0.896908 138.073C2.88012 122.826 7.24242 107.921 7.46487 92.4868C7.62323 81.7111 5.75313 71.0513 5.27429 60.289C4.79546 49.5266 5.90017 38.1134 11.2579 29.4019C16.6155 20.6904 25.5324 15.9155 34.4644 13.838C43.3964 11.7604 52.5621 12.0324 61.66 11.3636C80.4779 9.99937 98.9036 4.57362 117.612 1.86744C145.513 -2.17624 190.38 -3.48252 193.468 39.6961C193.705 43.2674 193.77 46.8517 193.664 50.4317C193.393 62.3576 191.843 74.3282 193.125 86.1649C195.523 108.407 207.693 128.363 207.995 150.775Z" fill="#6E71FF"/>
<path d="M150.873 63.6027H55.126V156.732H150.873V63.6027Z" fill="#6E71FF"/>
<path d="M150.873 63.6027H55.126V156.732H150.873V63.6027Z" fill="url(#paint0_linear)"/>
<path d="M156.219 64.0779V76.5631C156.219 79.3785 153.938 81.6594 151.123 81.6594H54.8766C52.0612 81.6594 49.7803 79.3785 49.7803 76.5631V64.0779H156.219Z" fill="#6E71FF"/>
<path d="M156.219 64.0779V76.5631C156.219 79.3785 153.938 81.6594 151.123 81.6594H54.8766C52.0612 81.6594 49.7803 79.3785 49.7803 76.5631V64.0779H156.219Z" fill="url(#paint1_linear)" fill-opacity="0.6"/>
<path d="M162 59.5923V66.4278C162 68.4093 160.394 70.0178 158.41 70.0178H47.59C45.6061 70.0176 44 68.4091 44 66.4278V59.5923C44 57.6084 45.6061 56 47.59 56H158.41C160.394 56 162 57.6084 162 59.5923Z" fill="#6E71FF"/>
<path d="M162 59.5923V66.4278C162 68.4093 160.394 70.0178 158.41 70.0178H47.59C45.6061 70.0176 44 68.4091 44 66.4278V59.5923C44 57.6084 45.6061 56 47.59 56H158.41C160.394 56 162 57.6084 162 59.5923Z" fill="url(#paint2_linear)"/>
<path d="M150.873 63.6027H63.6787V156.732H150.873V63.6027Z" fill="#6E71FF"/>
<path d="M150.873 63.6027H63.6787V156.732H150.873V63.6027Z" fill="url(#paint3_linear)"/>
<path d="M156.219 64.0779V76.5631C156.219 79.3785 153.938 81.6594 151.123 81.6594H63.4294C60.614 81.6594 58.333 79.3785 58.333 76.5631V64.0779H156.219Z" fill="#6E71FF"/>
<path d="M162 59.5923V66.4278C162 68.4093 160.394 70.0178 158.41 70.0178H56.1437C54.1598 70.0178 52.5537 68.4093 52.5537 66.4278V59.5923C52.5537 57.6084 54.1598 56 56.1437 56H158.411C160.394 56 162 57.6084 162 59.5923Z" fill="#6E71FF"/>
<path d="M162 59.5923V66.4278C162 68.4093 160.394 70.0178 158.41 70.0178H56.1437C54.1598 70.0178 52.5537 68.4093 52.5537 66.4278V59.5923C52.5537 57.6084 54.1598 56 56.1437 56H158.411C160.394 56 162 57.6084 162 59.5923Z" fill="url(#paint4_linear)" fill-opacity="0.8"/>
<path d="M132.699 103.876V158.87H73.3018V103.876C73.3018 100.068 76.388 96.9814 80.1941 96.9814H125.806C129.612 96.9814 132.699 100.068 132.699 103.876Z" fill="#6E71FF"/>
<path d="M132.699 103.876V158.87H73.3018V103.876C73.3018 100.068 76.388 96.9814 80.1941 96.9814H125.806C129.612 96.9814 132.699 100.068 132.699 103.876Z" fill="url(#paint5_linear)" fill-opacity="0.3"/>
<path d="M132.698 104.347V158.87H80.4287V111.241C80.4287 107.433 83.5149 104.347 87.3211 104.347H132.698Z" fill="#6E71FF"/>
<path d="M99.506 151.611C109.537 154.047 119.589 147.26 119.878 137.529C119.94 135.467 119.646 133.428 119.189 131.413C118.916 130.214 117.301 130.03 116.744 131.127C116.729 131.157 116.713 131.187 116.698 131.216C115.703 133.11 113.978 133.13 112.946 131.257C109.303 124.644 109.662 115.069 110.105 110.473C110.214 109.353 108.944 108.63 108.036 109.295C101.09 114.38 99.9736 123.094 99.9194 127.792C99.9031 129.224 97.93 129.588 97.4013 128.258C96.6936 126.478 96.3285 124.159 96.1402 122.301C96.0183 121.097 94.4638 120.693 93.7714 121.686C90.4483 126.451 91.3596 130.478 92.7249 133.303C93.2338 134.355 92.2137 135.502 91.1148 135.103C90.2487 134.788 89.3045 134.282 88.4527 133.47C87.5801 132.638 86.139 133.339 86.2568 134.539C86.818 140.263 89.3624 149.148 99.506 151.611Z" fill="url(#paint6_linear)"/>
<path d="M108.842 139.943C107.249 136.736 107.126 132.706 107.194 130.59C107.209 130.115 106.611 129.897 106.316 130.269C103.044 134.384 102.905 138.113 103.243 140.27C103.318 140.745 102.746 141.042 102.401 140.708C101.199 139.546 100.403 139.061 99.8025 138.796C99.1318 138.501 98.3634 138.888 98.18 139.597C97.1184 143.707 100.278 145.83 100.278 145.83C102.248 147.738 106.811 147.73 108.6 145.303C109.556 144.005 109.977 142.229 108.842 139.943Z" fill="#6E71FF"/>
<path d="M162 155.216V161.814C162 163.862 160.339 165.523 158.291 165.523H47.7087C45.6608 165.523 44 163.862 44 161.814V155.216C44 153.166 45.6608 151.505 47.7087 151.505H158.291C160.339 151.505 162 153.166 162 155.216Z" fill="#6E71FF"/>
<path d="M162 155.216V161.814C162 163.862 160.339 165.523 158.291 165.523H47.7087C45.6608 165.523 44 163.862 44 161.814V155.216C44 153.166 45.6608 151.505 47.7087 151.505H158.291C160.339 151.505 162 153.166 162 155.216Z" fill="url(#paint7_linear)"/>
<path d="M162 155.216V161.814C162 163.862 160.34 165.523 158.292 165.523H56.2624C54.2145 165.523 52.5537 163.862 52.5537 161.814V155.216C52.5537 153.166 54.2145 151.505 56.2624 151.505H158.292C160.34 151.505 162 153.166 162 155.216Z" fill="#6E71FF"/>
<path d="M162 155.216V161.814C162 163.862 160.34 165.523 158.292 165.523H56.2624C54.2145 165.523 52.5537 163.862 52.5537 161.814V155.216C52.5537 153.166 54.2145 151.505 56.2624 151.505H158.292C160.34 151.505 162 153.166 162 155.216Z" fill="url(#paint8_linear)" fill-opacity="0.6"/>
<defs>
<linearGradient id="paint0_linear" x1="93.1181" y1="35.4856" x2="101.256" y2="227.599" gradientUnits="userSpaceOnUse">
<stop stop-color="white"/>
<stop offset="1" stop-color="white" stop-opacity="0"/>
</linearGradient>
<linearGradient id="paint1_linear" x1="103" y1="64.0779" x2="103" y2="81.6594" gradientUnits="userSpaceOnUse">
<stop/>
<stop offset="1" stop-opacity="0"/>
</linearGradient>
<linearGradient id="paint2_linear" x1="103.291" y1="51.1802" x2="103.291" y2="80.2442" gradientUnits="userSpaceOnUse">
<stop/>
<stop offset="1" stop-opacity="0"/>
</linearGradient>
<linearGradient id="paint3_linear" x1="107.276" y1="63.6027" x2="107.359" y2="304.328" gradientUnits="userSpaceOnUse">
<stop stop-color="white"/>
<stop offset="1" stop-color="white" stop-opacity="0"/>
</linearGradient>
<linearGradient id="paint4_linear" x1="107.36" y1="39.5546" x2="107.36" y2="81.1161" gradientUnits="userSpaceOnUse">
<stop/>
<stop offset="1" stop-opacity="0"/>
</linearGradient>
<linearGradient id="paint5_linear" x1="104.453" y1="84.8944" x2="104.744" y2="181.678" gradientUnits="userSpaceOnUse">
<stop/>
<stop offset="1" stop-opacity="0"/>
</linearGradient>
<linearGradient id="paint6_linear" x1="103.068" y1="109.041" x2="103.29" y2="154.357" gradientUnits="userSpaceOnUse">
<stop offset="0.9999" stop-color="white"/>
<stop offset="1" stop-color="white" stop-opacity="0"/>
</linearGradient>
<linearGradient id="paint7_linear" x1="101.256" y1="138.372" x2="103.291" y2="178.48" gradientUnits="userSpaceOnUse">
<stop/>
<stop offset="1" stop-opacity="0"/>
</linearGradient>
<linearGradient id="paint8_linear" x1="107.36" y1="145.347" x2="107.36" y2="187.781" gradientUnits="userSpaceOnUse">
<stop/>
<stop offset="1" stop-opacity="0"/>
</linearGradient>
</defs>
</svg>
