<svg width="240" height="240" viewBox="0 0 240 240" fill="none" xmlns="http://www.w3.org/2000/svg">
<g clip-path="url(#clip0)">
<path opacity="0.24" d="M221.558 205.992C218.754 208.14 215.693 209.894 212.453 211.21C206.843 213.481 200.868 214.498 195.112 216.248C192.557 217.017 190.049 217.949 187.589 218.966C172.689 225.091 159.015 234.807 143.341 238.353C114.297 244.973 86.2272 229.922 58.4658 223.539C34.6797 218.083 15.3488 231.127 5.74514 191.659C1.73172 175.229 -3.23637 157.831 2.83838 142.065C8.91312 126.299 17.4672 111.738 23.2617 95.8923C31.5355 73.2623 34.599 47.1905 50.8806 29.9217C62.1562 17.9645 78.2716 12.1917 94.235 10.1434C110.198 8.09516 126.361 9.40942 142.434 9.47885C161.793 9.54332 182.416 8.12492 199.159 18.3017C205.063 21.947 210.153 26.8695 214.085 32.7384C218.017 38.6073 220.701 45.2869 221.957 52.3285C225.281 71.7646 217.388 91.9148 220.936 111.316C224.227 129.379 237.084 144.495 239.597 162.706C241.877 179.102 234.306 196.301 221.558 205.992Z" fill="#6E71FF"/>
<path d="M190.02 41.6092V194.604C190.021 196.528 189.644 198.435 188.908 200.213C188.173 201.992 187.094 203.609 185.734 204.971C184.374 206.333 182.759 207.413 180.981 208.151C179.203 208.889 177.297 209.269 175.372 209.27H78.7464C76.8214 209.27 74.9154 208.89 73.1373 208.152C71.3592 207.415 69.7438 206.334 68.3835 204.972C67.0233 203.61 65.9447 201.993 65.2095 200.214C64.4742 198.435 64.0968 196.529 64.0986 194.604V41.6092C64.0986 37.7244 65.6419 33.9987 68.3889 31.2517C71.1359 28.5047 74.8616 26.9614 78.7464 26.9614H175.372C179.256 26.9639 182.981 28.508 185.727 31.2544C188.474 34.0009 190.018 37.7251 190.02 41.6092Z" fill="#6E71FF"/>
<path d="M87.8612 129.571C84.9544 136.696 78.6422 141.517 73.1802 146.613C70.3684 149.235 68.1978 152.161 65.69 155.001C65.2347 155.492 64.7 155.903 64.1084 156.217V127.111C64.8854 124.641 65.384 122.092 65.595 119.512C66.5449 122.642 66.1175 126.46 68.5303 128.683C70.0834 130.137 72.368 130.393 74.491 130.488C78.9678 130.67 83.4511 130.363 87.8612 129.571Z" fill="url(#paint0_linear)"/>
<path d="M177.002 40.0093H74.748V193.241H177.002V40.0093Z" fill="url(#paint1_linear)"/>
<path d="M178.488 38.7971V191.587H89.0431C89.0431 191.587 76.6466 188.98 75.9911 168.086C75.3357 147.193 76.6466 38.7971 76.6466 38.7971H178.488Z" fill="url(#paint2_linear)"/>
<path d="M172.87 121.465C173.473 123.56 173.535 125.887 174.77 127.678C176.456 130.09 179.771 130.732 182.716 130.575C183.104 130.571 183.488 130.499 183.851 130.361C184.257 130.149 184.603 129.839 184.858 129.459C186.668 127.027 186.634 123.636 185.741 120.738C184.503 116.77 181.883 113.378 178.356 111.177C176.427 109.98 168.078 106.475 167.18 109.752C166.425 112.574 172.048 118.615 172.87 121.465Z" fill="#F5C7C8"/>
<path d="M172.87 121.465C173.473 123.56 173.535 125.887 174.77 127.678C176.456 130.09 179.771 130.732 182.716 130.575C183.104 130.571 183.488 130.499 183.851 130.361C184.257 130.149 184.603 129.839 184.858 129.459C186.668 127.027 186.634 123.636 185.741 120.738C184.503 116.77 181.883 113.378 178.356 111.177C176.427 109.98 168.078 106.475 167.18 109.752C166.425 112.574 172.048 118.615 172.87 121.465Z" fill="url(#paint3_linear)"/>
<path d="M176.256 208.049C175.933 193.088 175.558 177.804 170.433 163.74C167.522 155.747 163.128 148.313 160.754 140.144C158.882 133.708 159.329 126.874 159.386 120.167C159.414 116.615 159.438 112.986 158.336 109.609C157.386 106.659 155.567 103.957 155.173 100.879C159.324 103.905 163.722 107.267 165.228 112.178C165.959 114.553 165.931 117.109 166.325 119.569C167.598 127.529 173.145 134.012 177.097 141.037C185.779 156.483 186.862 174.959 186.777 192.675C186.777 196.512 186.663 200.497 184.977 203.95C183.291 207.403 180.037 208.743 176.256 208.049Z" fill="url(#paint4_linear)"/>
<path d="M85.6727 140.636C78.4058 148.753 67.1492 152.729 60.6422 161.468C54.8287 169.248 53.7411 179.455 50.8011 188.721C47.5428 198.995 41.9193 208.323 36.329 217.542C35.5928 218.753 34.7759 220.031 33.4507 220.558C32.3013 221.033 31.0095 220.8 29.8078 220.558C20.7503 218.658 10.8331 213.88 8.80029 204.841C7.50365 199.056 9.87845 193.086 12.6855 187.862C22.4269 169.666 37.7824 154.586 45.2393 135.336C50.1124 122.763 52.6202 108.51 64.5892 100.54C64.5797 100.621 64.5797 100.702 64.5892 100.782C64.0002 105.765 65.0641 116.518 64.2709 124.169C64.2475 124.447 64.2634 124.727 64.3184 125.001C64.6557 126.535 65.9808 128.468 66.5887 129.631C68.4411 133.099 73.5517 132.334 77.2754 131.056C80.999 129.779 86.0764 128.928 87.9952 132.381C89.4438 135.046 87.7055 138.352 85.6727 140.636Z" fill="url(#paint5_linear)"/>
<path d="M96.634 191.441C96.5728 191.487 96.5141 191.536 96.4583 191.588H89.0441C89.0441 191.588 76.6476 188.98 75.9922 168.087C75.9922 168.087 80.4521 182.146 95.7363 179.139C95.7363 179.139 87.6382 192.338 96.634 191.441Z" fill="url(#paint6_linear)"/>
<path d="M96.634 191.441C96.5728 191.487 96.5141 191.536 96.4583 191.588H89.0441C89.0441 191.588 76.6476 188.98 75.9922 168.087C75.9922 168.087 80.4521 182.146 95.7363 179.139C95.7363 179.139 87.6382 192.338 96.634 191.441Z" fill="url(#paint7_linear)"/>
<path d="M165.754 79.1411H92.886C92.141 79.1411 91.5371 79.745 91.5371 80.49C91.5371 81.235 92.141 81.8389 92.886 81.8389H165.754C166.499 81.8389 167.103 81.235 167.103 80.49C167.103 79.745 166.499 79.1411 165.754 79.1411Z" fill="url(#paint8_linear)"/>
<path d="M165.754 87.2332H92.886C92.141 87.2332 91.5371 87.8371 91.5371 88.582C91.5371 89.327 92.141 89.9309 92.886 89.9309H165.754C166.499 89.9309 167.103 89.327 167.103 88.582C167.103 87.8371 166.499 87.2332 165.754 87.2332Z" fill="url(#paint9_linear)"/>
<path d="M165.754 95.3328H92.886C92.141 95.3328 91.5371 95.9367 91.5371 96.6817C91.5371 97.4266 92.141 98.0305 92.886 98.0305H165.754C166.499 98.0305 167.103 97.4266 167.103 96.6817C167.103 95.9367 166.499 95.3328 165.754 95.3328Z" fill="url(#paint10_linear)"/>
<path d="M165.754 103.43H92.886C92.141 103.43 91.5371 104.034 91.5371 104.779C91.5371 105.524 92.141 106.128 92.886 106.128H165.754C166.499 106.128 167.103 105.524 167.103 104.779C167.103 104.034 166.499 103.43 165.754 103.43Z" fill="url(#paint11_linear)"/>
<path d="M149.667 32.6331V37.0408C149.669 38.3166 149.418 39.5802 148.93 40.7592C148.443 41.9382 147.727 43.0095 146.825 43.9116C145.923 44.8138 144.852 45.5292 143.673 46.0169C142.494 46.5046 141.23 46.755 139.954 46.7537H113.964C112.688 46.755 111.424 46.5047 110.244 46.0172C109.064 45.5297 107.992 44.8145 107.089 43.9125C106.185 43.0105 105.469 41.9394 104.979 40.7603C104.49 39.5812 104.238 38.3173 104.237 37.0408V32.6331C104.24 30.0554 105.266 27.5842 107.09 25.7628C108.914 23.9414 111.387 22.9189 113.964 22.9202H139.954C141.23 22.9195 142.493 23.1703 143.672 23.6582C144.851 24.1461 145.922 24.8616 146.824 25.7636C147.726 26.6657 148.441 27.7367 148.929 28.9154C149.417 30.0941 149.668 31.3574 149.667 32.6331Z" fill="#6E71FF"/>
<path d="M104.309 32.5189V36.9312C104.305 38.2089 104.553 39.4748 105.04 40.6563C105.526 41.8377 106.241 42.9115 107.144 43.8161C108.046 44.7207 109.118 45.4382 110.298 45.9276C111.479 46.417 112.744 46.6686 114.022 46.6679H115.974C114.696 46.6686 113.431 46.417 112.25 45.9276C111.07 45.4382 109.998 44.7207 109.096 43.8161C108.193 42.9115 107.478 41.8377 106.992 40.6563C106.505 39.4748 106.257 38.2089 106.261 36.9312V32.5189C106.26 31.2432 106.511 29.9798 106.999 28.8011C107.487 27.6224 108.202 26.5514 109.104 25.6494C110.006 24.7473 111.077 24.0319 112.256 23.544C113.435 23.0561 114.698 22.8053 115.974 22.8059H114.022C112.746 22.8053 111.483 23.0561 110.304 23.544C109.125 24.0319 108.054 24.7473 107.152 25.6494C106.25 26.5514 105.535 27.6224 105.047 28.8011C104.559 29.9798 104.308 31.2432 104.309 32.5189Z" fill="url(#paint12_linear)"/>
<path d="M149.667 32.6331V37.0408C149.668 38.3166 149.418 39.5802 148.93 40.7592C148.443 41.9382 147.727 43.0095 146.825 43.9116C145.923 44.8138 144.852 45.5292 143.673 46.0169C142.494 46.5046 141.23 46.755 139.954 46.7537H115.912C114.635 46.755 113.371 46.5047 112.191 46.0172C111.011 45.5297 109.939 44.8145 109.036 43.9125C108.133 43.0105 107.416 41.9394 106.927 40.7603C106.437 39.5812 106.185 38.3173 106.185 37.0408V32.6331C106.187 30.0554 107.213 27.5842 109.037 25.7628C110.861 23.9414 113.334 22.9189 115.912 22.9202H139.954C141.23 22.9195 142.493 23.1703 143.672 23.6582C144.851 24.1461 145.922 24.8616 146.824 25.7636C147.726 26.6657 148.441 27.7367 148.929 28.9154C149.417 30.0941 149.668 31.3574 149.667 32.6331Z" fill="url(#paint13_linear)"/>
<path d="M64.2512 116.168C64.2277 116.446 64.2437 116.726 64.2987 116.999C63.3867 116.392 62.3513 114.411 61.4489 112.031C60.8932 110.573 59.4873 103.53 59.4873 101.967C59.4873 98.3715 61.9619 95.365 64.5646 92.7812C63.9804 97.7636 65.0349 108.517 64.2512 116.168Z" fill="url(#paint14_linear)"/>
<path d="M221.559 206.657C218.755 208.713 215.694 210.393 212.454 211.653C206.845 213.829 200.87 214.802 195.113 216.479C192.558 217.215 190.05 218.108 187.59 219.082C184.635 196.573 178.836 174.193 167.779 154.487C164.906 149.343 162.716 145.059 160.83 139.469C158.945 133.879 159.88 118.78 161.723 118.495C164.858 117.982 166.886 121.639 167.898 124.645C169.593 129.547 171.128 134.035 175.725 136.994C177.691 138.272 180.408 139.056 182.275 137.631C183.2 136.834 183.817 135.738 184.018 134.534C184.849 130.682 183.154 126.578 180.328 123.828C177.502 121.078 173.711 119.554 169.878 118.704C167.675 118.229 165.29 117.906 163.614 116.4C162.274 115.189 161.605 113.033 162.592 111.532C163.471 110.187 168.696 113.241 170.263 113.014C173.726 112.539 173.901 111.85 177.388 111.883C180.874 111.916 184.464 112.235 187.708 113.574C191.033 114.999 193.859 117.407 196.495 119.915C200.585 123.814 204.256 124.997 207.804 129.414C210.041 132.211 212.197 135.147 213.394 138.538C215.536 144.608 214.306 151.286 213.684 157.707C212.128 174.047 214.682 190.516 221.112 205.617C221.236 205.954 221.416 206.305 221.559 206.657Z" fill="url(#paint15_linear)"/>
<path d="M184.905 146.717C187.755 151.5 191.327 155.794 194.88 160.064C195.877 161.26 197.497 162.571 198.798 161.712C199.791 161.051 199.748 159.593 199.501 158.43C198.442 153.471 195.701 148.997 192.324 145.202C188.947 141.407 184.967 138.23 181.001 135.066C181.139 135.176 179.6 137.313 180.246 138.458C181.338 140.348 183.761 144.789 184.905 146.717Z" fill="url(#paint16_linear)"/>
<path d="M155.747 111.75C155.747 111.75 183.746 141.777 189.469 147.738C195.193 153.699 199.918 158.083 199.918 158.083C199.918 158.083 205.542 158.643 205.765 156.734C205.988 154.825 163.147 113.213 158.872 111.19L154.598 109.167L155.747 111.75Z" fill="#6E71FF"/>
<path d="M205.789 156.734C205.679 157.684 204.226 158.026 202.801 158.121C201.851 158.176 200.899 158.161 199.951 158.073C199.951 158.073 195.226 153.699 189.502 147.738C183.779 141.778 155.78 111.746 155.78 111.746L154.659 109.157L158.934 111.19C163.17 113.218 206.036 154.815 205.789 156.734Z" fill="url(#paint17_linear)"/>
<path d="M203.314 157.85L202.801 158.121C201.851 158.176 200.899 158.161 199.951 158.073C199.951 158.073 195.226 153.699 189.502 147.738C183.779 141.778 155.78 111.746 155.78 111.746L154.659 109.157L203.314 157.85Z" fill="#6E71FF"/>
<path d="M196.636 153.12C196.309 153.752 195.824 154.588 195.145 154.379C194.967 154.314 194.805 154.212 194.67 154.08L184.074 144.96C183.869 146.599 185.351 147.891 186.634 148.931C188.992 150.829 191.175 152.935 193.155 155.224C193.711 155.865 194.295 156.554 195.107 156.82C195.919 157.086 197.007 156.697 197.135 155.87C197.139 155.695 197.176 155.523 197.244 155.362C197.339 155.233 197.47 155.134 197.62 155.077L199.339 154.236C200.008 153.955 200.622 153.558 201.153 153.063C201.416 152.813 201.609 152.499 201.713 152.152C201.818 151.805 201.831 151.436 201.752 151.083C200.925 148.342 197.211 151.999 196.636 153.12Z" fill="url(#paint18_linear)"/>
<path d="M202.796 158.735C203.585 159.476 204.516 160.188 205.599 160.236C205.793 160.257 205.989 160.233 206.173 160.166C206.356 160.1 206.522 159.992 206.658 159.851C206.765 159.693 206.829 159.509 206.844 159.318C206.859 159.128 206.824 158.937 206.743 158.763C206.577 158.417 206.35 158.103 206.074 157.837L204.976 156.64C204.62 156.16 204.121 155.805 203.552 155.624C202.91 155.51 201.433 155.999 201.3 156.75C201.167 157.5 202.369 158.303 202.796 158.735Z" fill="url(#paint19_linear)"/>
</g>
<defs>
<linearGradient id="paint0_linear" x1="64.1084" y1="137.869" x2="87.8612" y2="137.869" gradientUnits="userSpaceOnUse">
<stop stop-color="#010101" stop-opacity="0"/>
<stop offset="0.95" stop-color="#010101"/>
</linearGradient>
<linearGradient id="paint1_linear" x1="86.8073" y1="253.143" x2="168.671" y2="-32.9304" gradientUnits="userSpaceOnUse">
<stop stop-color="#010101" stop-opacity="0"/>
<stop offset="0.47" stop-color="#010101" stop-opacity="0.47"/>
<stop offset="0.95" stop-color="#010101"/>
</linearGradient>
<linearGradient id="paint2_linear" x1="127.148" y1="38.7971" x2="127.148" y2="191.587" gradientUnits="userSpaceOnUse">
<stop offset="0.9999" stop-color="white"/>
<stop offset="1" stop-color="white" stop-opacity="0"/>
</linearGradient>
<linearGradient id="paint3_linear" x1="7486.56" y1="5617.83" x2="10291.3" y2="3712.27" gradientUnits="userSpaceOnUse">
<stop stop-color="#010101" stop-opacity="0"/>
<stop offset="0.47" stop-color="#010101" stop-opacity="0.47"/>
<stop offset="0.95" stop-color="#010101"/>
</linearGradient>
<linearGradient id="paint4_linear" x1="11395.4" y1="34799.8" x2="21019.7" y2="33266.1" gradientUnits="userSpaceOnUse">
<stop stop-color="#010101" stop-opacity="0"/>
<stop offset="0.47" stop-color="#010101" stop-opacity="0.47"/>
<stop offset="0.95" stop-color="#010101"/>
</linearGradient>
<linearGradient id="paint5_linear" x1="8.43849" y1="160.695" x2="88.5854" y2="160.695" gradientUnits="userSpaceOnUse">
<stop stop-color="#E5C5D5"/>
<stop offset="0.42" stop-color="#EAD4D1"/>
<stop offset="1" stop-color="#F0E9CB"/>
</linearGradient>
<linearGradient id="paint6_linear" x1="86.3131" y1="168.087" x2="86.3131" y2="191.588" gradientUnits="userSpaceOnUse">
<stop offset="0.9999" stop-color="white"/>
<stop offset="1" stop-color="white" stop-opacity="0"/>
</linearGradient>
<linearGradient id="paint7_linear" x1="4614.71" y1="8282.76" x2="2301.34" y2="10792.8" gradientUnits="userSpaceOnUse">
<stop stop-color="#010101" stop-opacity="0"/>
<stop offset="0.95" stop-color="#010101"/>
</linearGradient>
<linearGradient id="paint8_linear" x1="214.852" y1="77.3301" x2="166.874" y2="16.6977" gradientUnits="userSpaceOnUse">
<stop offset="0.079127"/>
<stop offset="0.83" stop-opacity="0.07"/>
<stop offset="1" stop-opacity="0"/>
</linearGradient>
<linearGradient id="paint9_linear" x1="214.852" y1="85.4221" x2="166.874" y2="24.7898" gradientUnits="userSpaceOnUse">
<stop offset="0.079127"/>
<stop offset="0.83" stop-opacity="0.07"/>
<stop offset="1" stop-opacity="0"/>
</linearGradient>
<linearGradient id="paint10_linear" x1="214.852" y1="93.5217" x2="166.874" y2="32.8894" gradientUnits="userSpaceOnUse">
<stop offset="0.079127"/>
<stop offset="0.83" stop-opacity="0.07"/>
<stop offset="1" stop-opacity="0"/>
</linearGradient>
<linearGradient id="paint11_linear" x1="214.852" y1="101.619" x2="166.873" y2="40.9864" gradientUnits="userSpaceOnUse">
<stop offset="0.079127"/>
<stop offset="0.83" stop-opacity="0.07"/>
<stop offset="1" stop-opacity="0"/>
</linearGradient>
<linearGradient id="paint12_linear" x1="2659.54" y1="1380.79" x2="3832.18" y2="1432.43" gradientUnits="userSpaceOnUse">
<stop stop-color="#010101" stop-opacity="0"/>
<stop offset="0.47" stop-color="#010101" stop-opacity="0.47"/>
<stop offset="0.95" stop-color="#010101"/>
</linearGradient>
<linearGradient id="paint13_linear" x1="129.472" y1="10.1295" x2="126.784" y2="53.0992" gradientUnits="userSpaceOnUse">
<stop stop-color="white" stop-opacity="0"/>
<stop offset="0.95" stop-color="white"/>
</linearGradient>
<linearGradient id="paint14_linear" x1="723.501" y1="4867.89" x2="2110.19" y2="4995.07" gradientUnits="userSpaceOnUse">
<stop stop-color="#010101" stop-opacity="0"/>
<stop offset="0.95" stop-color="#010101"/>
</linearGradient>
<linearGradient id="paint15_linear" x1="159.799" y1="165.142" x2="221.602" y2="165.142" gradientUnits="userSpaceOnUse">
<stop stop-color="#E5C5D5"/>
<stop offset="0.42" stop-color="#EAD4D1"/>
<stop offset="1" stop-color="#F0E9CB"/>
</linearGradient>
<linearGradient id="paint16_linear" x1="8707.45" y1="7637.4" x2="6323.16" y2="7952.32" gradientUnits="userSpaceOnUse">
<stop stop-color="#010101" stop-opacity="0"/>
<stop offset="0.47" stop-color="#010101" stop-opacity="0.47"/>
<stop offset="0.95" stop-color="#010101"/>
</linearGradient>
<linearGradient id="paint17_linear" x1="21096.2" y1="11808.9" x2="20205.8" y2="12866.2" gradientUnits="userSpaceOnUse">
<stop stop-color="white" stop-opacity="0"/>
<stop offset="0.95" stop-color="white"/>
</linearGradient>
<linearGradient id="paint18_linear" x1="192.929" y1="144.96" x2="192.929" y2="156.903" gradientUnits="userSpaceOnUse">
<stop offset="0.9999" stop-color="white"/>
<stop offset="1" stop-color="white" stop-opacity="0"/>
</linearGradient>
<linearGradient id="paint19_linear" x1="204.069" y1="155.607" x2="204.069" y2="160.243" gradientUnits="userSpaceOnUse">
<stop offset="0.9999" stop-color="white"/>
<stop offset="1" stop-color="white" stop-opacity="0"/>
</linearGradient>
<clipPath id="clip0">
<rect width="240" height="240" fill="white"/>
</clipPath>
</defs>
</svg>
