<svg width="208" height="208" viewBox="0 0 208 208" fill="none" xmlns="http://www.w3.org/2000/svg">
<path opacity="0.18" d="M207.956 134.097C207.897 135.795 207.791 137.494 207.613 139.226C206.357 151.765 201.742 164.286 191.795 172.353C179.982 181.925 163.228 183.335 147.748 182.792C132.268 182.248 116.391 180.244 101.575 184.563C93.4644 186.93 86.0413 191.107 77.9487 193.519C62.5457 198.104 45.2173 195.834 31.39 187.926C17.5628 180.018 7.36128 166.715 3.07805 151.872C2.2774 149.081 1.65617 146.245 1.21783 143.381C-1.22296 127.7 1.17044 111.397 0.820906 95.4054C0.512845 81.1911 -1.92202 66.473 3.4098 53.187C6.96436 44.3391 13.7299 37.0367 21.4728 31.257C48.5645 11.0762 82.6822 0.207373 116.853 0.00358377C137.209 -0.120954 158.015 2.98118 175.877 12.3102C181.682 15.3387 187.198 19.1032 191.28 24.0394C194.319 27.7303 196.487 32.0099 198.27 36.38C201.355 43.9675 203.348 51.92 204.195 60.0196C205.285 70.5431 204.426 81.1628 204.864 91.7202C205.474 105.884 208.389 119.939 207.956 134.097Z" fill="#6E71FF"/>
<path opacity="0.4" d="M208 136.067L207.928 136.915C206.876 149.041 203.855 161.102 197.975 170.596C196.27 173.367 194.309 175.893 192.13 178.126C180.274 190.288 163.458 192.078 147.922 191.388C132.385 190.698 116.45 188.152 101.579 193.639C93.4388 196.645 85.9885 201.953 77.8663 205.017C62.4069 210.843 45.0149 207.959 31.1371 197.911C22.0075 191.203 14.4372 181.799 9.13704 170.581C6.36207 164.782 4.2101 158.578 2.73324 152.119C1.92966 148.573 0.439942 140.554 0 136.915H77.8663L208 136.067Z" fill="#6E71FF"/>
<path d="M79.8576 143.76C79.79 143.76 79.723 143.758 79.6562 143.755V149.792C79.6562 151.447 80.9982 152.789 82.6537 152.789H87.0969C88.7523 152.789 90.0943 151.447 90.0943 149.792V143.76H79.8576Z" fill="#6E71FF"/>
<path d="M79.8576 143.76C79.79 143.76 79.723 143.758 79.6562 143.755V149.792C79.6562 151.447 80.9982 152.789 82.6537 152.789H87.0969C88.7523 152.789 90.0943 151.447 90.0943 149.792V143.76H79.8576Z" fill="url(#paint0_linear)"/>
<path d="M140.142 143.76H129.906V149.792C129.906 151.447 131.248 152.789 132.904 152.789H137.347C139.002 152.789 140.344 151.447 140.344 149.792V143.755C140.277 143.758 140.21 143.76 140.142 143.76Z" fill="#6E71FF"/>
<path d="M140.142 143.76H129.906V149.792C129.906 151.447 131.248 152.789 132.904 152.789H137.347C139.002 152.789 140.344 151.447 140.344 149.792V143.755C140.277 143.758 140.21 143.76 140.142 143.76Z" fill="url(#paint1_linear)"/>
<path d="M84.3855 120.533H135.613C137.224 120.533 138.728 120.99 140.004 121.78L134.629 104.843C133.981 102.801 132.085 101.414 129.943 101.414H90.0555C87.9129 101.414 86.0172 102.801 85.3691 104.843L79.9941 121.78C81.2705 120.99 82.7742 120.533 84.3855 120.533Z" fill="#6E71FF"/>
<path d="M84.3855 120.533H135.613C137.224 120.533 138.728 120.99 140.004 121.78L134.629 104.843C133.981 102.801 132.085 101.414 129.943 101.414H90.0555C87.9129 101.414 86.0172 102.801 85.3691 104.843L79.9941 121.78C81.2705 120.99 82.7742 120.533 84.3855 120.533Z" fill="url(#paint2_linear)"/>
<path d="M140.142 143.95H79.8572C77.7432 143.95 76.0293 142.236 76.0293 140.122V128.889C76.0293 124.274 79.7707 120.533 84.3857 120.533H135.613C140.228 120.533 143.97 124.274 143.97 128.889V140.122C143.97 142.236 142.256 143.95 140.142 143.95Z" fill="#6E71FF"/>
<path d="M140.142 143.95H79.8572C77.7432 143.95 76.0293 142.236 76.0293 140.122V128.889C76.0293 124.274 79.7707 120.533 84.3857 120.533H135.613C140.228 120.533 143.97 124.274 143.97 128.889V140.122C143.97 142.236 142.256 143.95 140.142 143.95Z" fill="url(#paint3_linear)" fill-opacity="0.5"/>
<path d="M81.8278 131.908L88.2292 133.581C88.5472 133.665 88.798 133.909 88.8894 134.224L89.9353 137.827C90.1357 138.518 89.5134 139.166 88.8155 138.994L81.8536 137.276C81.4821 137.185 81.2042 136.876 81.1523 136.496L80.6671 132.937C80.5771 132.278 81.1847 131.739 81.8278 131.908Z" fill="#6E71FF"/>
<path d="M81.8278 131.908L88.2292 133.581C88.5472 133.665 88.798 133.909 88.8894 134.224L89.9353 137.827C90.1357 138.518 89.5134 139.166 88.8155 138.994L81.8536 137.276C81.4821 137.185 81.2042 136.876 81.1523 136.496L80.6671 132.937C80.5771 132.278 81.1847 131.739 81.8278 131.908Z" fill="url(#paint4_linear)"/>
<path d="M138.172 131.908L131.771 133.581C131.453 133.665 131.202 133.909 131.11 134.224L130.064 137.827C129.864 138.518 130.486 139.166 131.184 138.994L138.146 137.276C138.518 137.185 138.796 136.876 138.847 136.496L139.333 132.937C139.422 132.278 138.815 131.739 138.172 131.908Z" fill="#6E71FF"/>
<path d="M138.172 131.908L131.771 133.581C131.453 133.665 131.202 133.909 131.11 134.224L130.064 137.827C129.864 138.518 130.486 139.166 131.184 138.994L138.146 137.276C138.518 137.185 138.796 136.876 138.847 136.496L139.333 132.937C139.422 132.278 138.815 131.739 138.172 131.908Z" fill="url(#paint5_linear)"/>
<path d="M141.495 122.396H145.698C146.648 122.396 147.419 121.626 147.419 120.675V118.563C147.419 117.612 146.648 116.842 145.698 116.842H141.495C140.545 116.842 139.774 117.612 139.774 118.563V120.675C139.774 121.625 140.545 122.396 141.495 122.396Z" fill="#6E71FF"/>
<path d="M74.3404 122.396H78.5439C79.4941 122.396 80.2643 121.626 80.2643 120.675V118.563C80.2643 117.612 79.4941 116.842 78.5439 116.842H74.3404C73.3902 116.842 72.6201 117.612 72.6201 118.563V120.675C72.6201 121.625 73.3902 122.396 74.3404 122.396Z" fill="#6E71FF"/>
<path d="M63.8404 152.789H66.9486C67.5187 152.789 67.9805 152.327 67.9805 151.757V92.1026C67.9805 91.5325 67.5184 91.0708 66.9486 91.0708H63.8404C63.2703 91.0708 62.8086 91.5329 62.8086 92.1026V151.757C62.8082 152.327 63.2703 152.789 63.8404 152.789Z" fill="#6E71FF"/>
<path d="M66.9486 91.0703H65.3945V152.789H66.9486C67.5188 152.789 67.9807 152.327 67.9807 151.757V92.1023C67.9809 91.5324 67.5188 91.0703 66.9486 91.0703Z" fill="#6E71FF"/>
<path d="M153.052 152.789H156.16C156.73 152.789 157.192 152.327 157.192 151.757V92.1026C157.192 91.5325 156.73 91.0708 156.16 91.0708H153.052C152.481 91.0708 152.02 91.5329 152.02 92.1026V151.757C152.019 152.327 152.481 152.789 153.052 152.789Z" fill="#6E71FF"/>
<path d="M156.16 91.0703H154.605V152.789H156.16C156.73 152.789 157.191 152.327 157.191 151.757V92.1023C157.192 91.5324 156.73 91.0703 156.16 91.0703Z" fill="#6E71FF"/>
<path d="M110.957 63.2254C110.354 62.9249 109.645 62.9249 109.043 63.2254L61.474 86.952C60.5709 87.4026 60 88.3249 60 89.3344V94.2088C60 96.1868 62.0807 97.4741 63.8506 96.5913L109.043 74.05C109.646 73.7495 110.354 73.7495 110.957 74.05L156.149 96.5913C157.92 97.4741 160 96.187 160 94.2088V89.3344C160 88.3251 159.429 87.4026 158.526 86.952L110.957 63.2254Z" fill="#6E71FF"/>
<path d="M110.957 63.2254C110.354 62.9249 109.645 62.9249 109.043 63.2254L61.474 86.952C60.5709 87.4026 60 88.3249 60 89.3344V94.2088C60 96.1868 62.0807 97.4741 63.8506 96.5913L109.043 74.05C109.646 73.7495 110.354 73.7495 110.957 74.05L156.149 96.5913C157.92 97.4741 160 96.187 160 94.2088V89.3344C160 88.3251 159.429 87.4026 158.526 86.952L110.957 63.2254Z" fill="url(#paint6_linear)"/>
<path d="M156.149 91.2115L110.957 68.6705C110.354 68.3699 109.646 68.3699 109.043 68.6705L63.8508 91.2115C62.1584 92.0557 60.1834 90.9152 60.0133 89.0844C60.0055 89.1672 60 89.2504 60 89.3346V94.209C60 96.1869 62.0807 97.4742 63.8508 96.5914L109.043 74.0502C109.646 73.7496 110.355 73.7496 110.957 74.0502L156.149 96.5914C157.92 97.4742 160 96.1871 160 94.209V89.3346C160 89.2504 159.995 89.1674 159.987 89.0848C159.817 90.9154 157.842 92.0559 156.149 91.2115Z" fill="#6E71FF"/>
<path d="M156.149 91.2115L110.957 68.6705C110.354 68.3699 109.646 68.3699 109.043 68.6705L63.8508 91.2115C62.1584 92.0557 60.1834 90.9152 60.0133 89.0844C60.0055 89.1672 60 89.2504 60 89.3346V94.209C60 96.1869 62.0807 97.4742 63.8508 96.5914L109.043 74.0502C109.646 73.7496 110.355 73.7496 110.957 74.0502L156.149 96.5914C157.92 97.4742 160 96.1871 160 94.209V89.3346C160 89.2504 159.995 89.1674 159.987 89.0848C159.817 90.9154 157.842 92.0559 156.149 91.2115Z" fill="url(#paint7_linear)"/>
<path d="M126.663 132.774H93.3373C92.5268 132.774 91.8701 133.431 91.8701 134.241C91.8701 135.052 92.5268 135.709 93.3373 135.709H126.663C127.473 135.709 128.13 135.052 128.13 134.241C128.13 133.431 127.473 132.774 126.663 132.774Z" fill="url(#paint8_linear)" fill-opacity="0.6"/>
<path d="M125.67 137.204H94.3285C93.518 137.204 92.8613 137.861 92.8613 138.671C92.8613 139.481 93.518 140.138 94.3285 140.138H125.67C126.481 140.138 127.137 139.481 127.137 138.671C127.138 137.861 126.481 137.204 125.67 137.204Z" fill="url(#paint9_linear)" fill-opacity="0.6"/>
<path d="M140.609 122.832C141.118 121.881 141.222 120.764 140.896 119.736L136.028 104.399C135.183 101.736 132.738 99.9465 129.944 99.9465H90.0562C87.2618 99.9465 84.8167 101.736 83.9714 104.399L79.1962 119.447C78.8064 120.675 78.9335 122.012 79.5571 123.14C79.5735 123.169 79.5829 123.186 79.5841 123.186C82.1079 126.994 86.4181 129.423 91.194 129.423H128.806C133.581 129.423 137.891 126.994 140.415 123.187C140.418 123.186 140.497 123.041 140.609 122.832ZM135.614 120.533H84.3862C83.4833 120.533 82.6144 120.677 81.8001 120.942L86.7685 105.287C87.2253 103.848 88.5466 102.881 90.0564 102.881H129.944C131.454 102.881 132.775 103.847 133.232 105.287L138.2 120.942C137.386 120.677 136.517 120.533 135.614 120.533Z" fill="#6E71FF"/>
<path d="M140.609 122.832C141.118 121.881 141.222 120.764 140.896 119.736L136.028 104.399C135.183 101.736 132.738 99.9465 129.944 99.9465H90.0562C87.2618 99.9465 84.8167 101.736 83.9714 104.399L79.1962 119.447C78.8064 120.675 78.9335 122.012 79.5571 123.14C79.5735 123.169 79.5829 123.186 79.5841 123.186C82.1079 126.994 86.4181 129.423 91.194 129.423H128.806C133.581 129.423 137.891 126.994 140.415 123.187C140.418 123.186 140.497 123.041 140.609 122.832ZM135.614 120.533H84.3862C83.4833 120.533 82.6144 120.677 81.8001 120.942L86.7685 105.287C87.2253 103.848 88.5466 102.881 90.0564 102.881H129.944C131.454 102.881 132.775 103.847 133.232 105.287L138.2 120.942C137.386 120.677 136.517 120.533 135.614 120.533Z" fill="url(#paint10_linear)" fill-opacity="0.5"/>
<path d="M191.07 47.9851C177.635 48.5955 164.104 46.4842 150.605 46.5374C138.098 46.5934 125.288 48.4639 113.296 44.8966C111.625 44.3954 109.625 43.1773 110.061 41.4888C115.74 40.142 120.522 36.3758 125.988 34.287C130.969 32.3901 136.384 31.9187 141.62 32.9261C144.748 33.5477 147.896 34.679 151.044 34.1778C153.646 33.7633 155.919 32.2625 158.312 31.1872C159.82 30.5012 161.733 30.1512 163.812 30C168.875 32.1981 174.425 33.6401 179.244 36.3534C184.226 39.162 188.161 43.2081 191.07 47.9851Z" fill="url(#paint11_linear)"/>
<path d="M68.07 58.886C59.9381 59.2555 51.7483 57.9776 43.5772 58.0098C36.0072 58.0437 28.2532 59.1758 20.9948 57.0166C19.9834 56.7132 18.7728 55.976 19.0367 54.954C22.4744 54.1387 25.3689 51.8592 28.6772 50.5948C31.6921 49.4467 34.9696 49.1613 38.1389 49.7711C40.0323 50.1474 41.9375 50.8321 43.8428 50.5287C45.4178 50.2779 46.7935 49.3694 48.2425 48.7186C49.1551 48.3034 50.3129 48.0915 51.5712 48C54.636 49.3305 57.9953 50.2033 60.912 51.8456C63.9274 53.5455 66.3094 55.9946 68.07 58.886Z" fill="url(#paint12_linear)"/>
<defs>
<linearGradient id="paint0_linear" x1="85" y1="139.895" x2="85" y2="158.895" gradientUnits="userSpaceOnUse">
<stop/>
<stop offset="1" stop-opacity="0"/>
</linearGradient>
<linearGradient id="paint1_linear" x1="135.5" y1="141.895" x2="135.5" y2="159.895" gradientUnits="userSpaceOnUse">
<stop/>
<stop offset="1" stop-opacity="0"/>
</linearGradient>
<linearGradient id="paint2_linear" x1="109.999" y1="101.414" x2="110" y2="135.895" gradientUnits="userSpaceOnUse">
<stop stop-color="white"/>
<stop offset="1" stop-color="white" stop-opacity="0"/>
</linearGradient>
<linearGradient id="paint3_linear" x1="111.5" y1="104" x2="110" y2="157" gradientUnits="userSpaceOnUse">
<stop stop-color="#020202"/>
<stop offset="1" stop-color="#242424" stop-opacity="0"/>
</linearGradient>
<linearGradient id="paint4_linear" x1="85" y1="129.895" x2="85.5" y2="141.895" gradientUnits="userSpaceOnUse">
<stop stop-color="white"/>
<stop offset="1" stop-color="white" stop-opacity="0"/>
</linearGradient>
<linearGradient id="paint5_linear" x1="135" y1="129.395" x2="134.5" y2="142.395" gradientUnits="userSpaceOnUse">
<stop stop-color="white"/>
<stop offset="1" stop-color="white" stop-opacity="0"/>
</linearGradient>
<linearGradient id="paint6_linear" x1="110" y1="56.3945" x2="108.5" y2="99.8945" gradientUnits="userSpaceOnUse">
<stop stop-color="#1B1B1B"/>
<stop offset="1" stop-opacity="0"/>
</linearGradient>
<linearGradient id="paint7_linear" x1="110" y1="44.3945" x2="108.5" y2="95.3945" gradientUnits="userSpaceOnUse">
<stop stop-color="white"/>
<stop offset="1" stop-color="white" stop-opacity="0"/>
</linearGradient>
<linearGradient id="paint8_linear" x1="110" y1="131.395" x2="110" y2="138.395" gradientUnits="userSpaceOnUse">
<stop stop-color="white"/>
<stop offset="1" stop-color="white" stop-opacity="0"/>
</linearGradient>
<linearGradient id="paint9_linear" x1="110" y1="135.895" x2="110" y2="142.395" gradientUnits="userSpaceOnUse">
<stop stop-color="white"/>
<stop offset="1" stop-color="white" stop-opacity="0"/>
</linearGradient>
<linearGradient id="paint10_linear" x1="110" y1="91.3945" x2="110" y2="146.895" gradientUnits="userSpaceOnUse">
<stop stop-color="#484848"/>
<stop offset="1" stop-opacity="0"/>
</linearGradient>
<linearGradient id="paint11_linear" x1="43236.8" y1="1930.98" x2="43090.2" y2="4829.29" gradientUnits="userSpaceOnUse">
<stop stop-color="white" stop-opacity="0.27"/>
<stop offset="0.95" stop-color="white"/>
</linearGradient>
<linearGradient id="paint12_linear" x1="26122.8" y1="1198.63" x2="26034" y2="2952.91" gradientUnits="userSpaceOnUse">
<stop stop-color="white" stop-opacity="0.27"/>
<stop offset="0.95" stop-color="white"/>
</linearGradient>
</defs>
</svg>
