<svg width="208" height="208" viewBox="0 0 208 208" fill="none" xmlns="http://www.w3.org/2000/svg">
<path opacity="0.18" d="M197.36 192.951C187.349 204.769 171.794 207.5 157.421 207.88C143.652 208.408 129.395 207.258 115.996 203.146C103.921 199.463 91.1451 201.025 78.542 201.199C60.1624 201.46 40.5048 201.298 25.2189 188.82C10.2727 176.653 2.28999 154.489 0.570707 132.58C0.464202 131.212 0.367841 129.85 0.296838 128.481C-1.3768 99.0643 3.92306 70.425 18.8387 47.266C32.38 26.2407 50.79 9.3582 72.2989 3.20611C83.8825 -0.109422 95.9783 -0.302258 107.917 0.220265C120.839 0.773891 133.98 2.42233 146.289 7.1748C163.314 13.7499 180.933 28.4925 185.746 49.2566C191.112 72.4591 194.83 95.7549 200.997 118.926C201.55 121.016 202.107 123.107 202.65 125.209C205.343 135.616 207.696 146.166 207.975 156.983C208.31 169.978 205.272 183.62 197.36 192.951Z" fill="#6E71FF"/>
<path d="M159.452 89.8576C159.844 73.2534 146.657 59.1823 130.049 59.0018C118.93 58.8808 109.203 64.8665 103.999 73.8088C98.7937 64.8665 89.0678 58.8798 77.9484 59.0018C61.3402 59.1823 48.1538 73.2534 48.5456 89.8576C49.4224 126.961 93.7988 159.233 102.52 165.223C103.412 165.836 104.586 165.836 105.478 165.223C114.199 159.233 158.575 126.961 159.452 89.8576Z" fill="#6E71FF"/>
<path d="M159.467 88.7477C159.467 126.311 114.298 159.165 105.479 165.221C104.587 165.834 103.411 165.837 102.518 165.224C100.346 163.732 95.9606 160.61 90.5879 156.189C99.4439 150.103 144.552 117.269 144.552 79.728C144.552 72.1028 141.687 65.1461 136.97 59.8884C149.895 63.1248 159.467 74.8135 159.467 88.7477Z" fill="#6E71FF"/>
<path d="M159.466 88.7479C159.466 126.311 114.297 159.165 105.478 165.221C104.586 165.834 103.41 165.837 102.517 165.224C100.345 163.732 95.9596 160.61 90.5869 156.189C99.443 150.103 144.551 117.269 144.551 79.7282C144.551 72.103 141.686 65.1464 136.969 59.8887C149.894 63.125 159.466 74.8137 159.466 88.7479Z" fill="url(#paint0_linear)" fill-opacity="0.4"/>
<path d="M103.632 143.209C102.019 143.209 100.633 142.062 100.334 140.475L92.1392 96.9463L83.42 117.668C82.9122 118.875 81.7498 119.675 80.4416 119.72C79.1314 119.764 77.9184 119.043 77.3302 117.874L74.9994 113.241H42.3554C40.5026 113.241 39 111.738 39 109.886C39 108.032 40.5026 106.53 42.3554 106.53H77.0674C78.329 106.53 79.4835 107.238 80.0558 108.36L90.2805 84.0634C90.8548 82.6977 92.2572 81.8705 93.7281 82.0282C95.201 82.1849 96.3961 83.2878 96.6709 84.7438L103.427 120.637L106.223 103.842C106.492 102.224 107.891 101.038 109.532 101.038H120.483C121.617 101.038 122.676 101.611 123.295 102.561L128.436 110.453L130.654 107.755C131.292 106.98 132.243 106.53 133.247 106.53H165.646C167.498 106.53 169 108.033 169 109.886C169 111.738 167.498 113.241 165.646 113.241H134.832L130.716 118.249C130.038 119.074 129.005 119.527 127.939 119.469C126.871 119.41 125.896 118.846 125.313 117.95L118.666 107.748H112.375L106.941 140.404C106.674 142.009 105.294 143.191 103.667 143.208C103.655 143.208 103.642 143.209 103.632 143.209Z" fill="url(#paint1_linear)"/>
<defs>
<linearGradient id="paint0_linear" x1="125.027" y1="59.8887" x2="125.027" y2="165.682" gradientUnits="userSpaceOnUse">
<stop stop-color="#343434"/>
<stop offset="1" stop-color="#0A0A0A" stop-opacity="0"/>
</linearGradient>
<linearGradient id="paint1_linear" x1="104" y1="163.021" x2="107.9" y2="212.421" gradientUnits="userSpaceOnUse">
<stop stop-color="white"/>
<stop offset="1" stop-color="white" stop-opacity="0"/>
</linearGradient>
</defs>
</svg>
