<svg width="208" height="208" viewBox="0 0 208 208" fill="none" xmlns="http://www.w3.org/2000/svg">
<path opacity="0.24" d="M207.995 150.775C208.327 175.661 191.696 199.325 170.959 203.498C161.254 205.46 151.353 203.57 141.497 203.053C120.059 201.947 98.6698 207.386 77.2693 207.957C72.9371 208.073 68.5975 207.957 64.254 207.596C49.9732 206.317 36.0274 201.845 23.1571 194.417C17.6675 191.251 12.3098 187.471 8.3132 182.032C-0.260592 170.378 -1.0863 153.32 0.896908 138.073C2.88012 122.826 7.24242 107.921 7.46487 92.4868C7.62323 81.7111 5.75313 71.0513 5.27429 60.289C4.79546 49.5266 5.90017 38.1134 11.2579 29.4019C16.6155 20.6904 25.5324 15.9155 34.4644 13.838C43.3964 11.7604 52.5621 12.0324 61.66 11.3636C80.4779 9.99937 98.9036 4.57362 117.612 1.86744C145.513 -2.17624 190.38 -3.48252 193.468 39.6961C193.705 43.2674 193.77 46.8517 193.664 50.4317C193.393 62.3576 191.843 74.3282 193.125 86.1649C195.523 108.407 207.693 128.363 207.995 150.775Z" fill="#6E71FF"/>
<path d="M113.774 42.0135L109.069 40.5355L110.355 29.4619H110.732C111.199 29.0849 112.564 27.4523 112.198 26.242C111.87 25.1336 110.106 24.6887 108.677 24.5039C106.648 24.2475 105.321 24.4775 104.835 25.1637C104.183 26.0912 105.042 27.8331 105.431 28.4251L105.532 28.5797L104.824 39.2838L99.6016 37.8435L99.8957 36.784L103.677 37.8435L104.273 28.7946C103.896 28.18 102.765 25.997 103.779 24.5378C104.533 23.4671 106.207 23.0862 108.764 23.4067C112.756 23.9157 113.522 25.5672 113.465 26.8642C113.409 28.1612 112.311 29.7523 111.486 30.3442L110.389 39.7701L114.114 40.939L113.774 42.0135Z" fill="#6E71FF"/>
<path d="M113.774 42.0135L109.069 40.5355L110.355 29.4619H110.732C111.199 29.0849 112.564 27.4523 112.198 26.242C111.87 25.1336 110.106 24.6887 108.677 24.5039C106.648 24.2475 105.321 24.4775 104.835 25.1637C104.183 26.0912 105.042 27.8331 105.431 28.4251L105.532 28.5797L104.824 39.2838L99.6016 37.8435L99.8957 36.784L103.677 37.8435L104.273 28.7946C103.896 28.18 102.765 25.997 103.779 24.5378C104.533 23.4671 106.207 23.0862 108.764 23.4067C112.756 23.9157 113.522 25.5672 113.465 26.8642C113.409 28.1612 112.311 29.7523 111.486 30.3442L110.389 39.7701L114.114 40.939L113.774 42.0135Z" fill="url(#paint0_linear)"/>
<path d="M152.244 173.622H57.5817L51.6924 168.773L57.5817 41.0934L146.355 36.2448L152.244 41.0934V173.622Z" fill="#6E71FF"/>
<path d="M152.244 173.622H57.5817L51.6924 168.773L57.5817 41.0934L146.355 36.2448L152.244 41.0934V173.622Z" fill="url(#paint1_linear)"/>
<path d="M149.126 171.311L56.0811 171.544L51.6924 168.773L54.8105 40.6334L144.5 36.5L149.473 40.6334L149.126 171.311Z" fill="url(#paint2_linear)"/>
<path d="M146.355 36.2448H51.6924V168.773H146.355V36.2448Z" fill="white"/>
<path d="M81.5235 45.467C81.4745 45.8025 81.4518 46.2211 81.7233 46.4096C81.8713 46.4987 82.0408 46.5456 82.2135 46.5453C90.9339 47.2999 99.7173 46.8124 108.301 45.0975C109.715 44.8147 111.426 44.1662 111.528 42.7297C111.622 41.4553 110.397 39.8981 111.385 39.0988C111.755 38.8769 112.178 38.7584 112.61 38.7557C113.393 38.6414 114.141 38.3549 114.801 37.9168C115.46 37.4786 116.013 36.8999 116.422 36.222L91.6695 36.0222C89.2641 36.0034 84.8829 34.9929 83.1636 37.1533C81.8327 38.8085 81.5235 43.4989 81.5235 45.467Z" fill="url(#paint3_linear)"/>
<path d="M108.951 42.0736H83.3242L81.5898 26.1438L107.39 25.9703L108.951 42.0736Z" fill="#6E71FF"/>
<path d="M107.392 25.9703L116.919 30.7059L115.532 36.2446H108.489L107.392 25.9703Z" fill="#6E71FF"/>
<path d="M107.392 25.9703L116.919 30.7059L115.532 36.2446H108.489L107.392 25.9703Z" fill="url(#paint4_linear)"/>
<path d="M101.657 41.8247L96.725 41.6325L95.0208 29.3184L95.3752 29.2279C95.7259 28.6775 96.6081 26.5208 95.9332 25.3218C95.3224 24.2284 93.5013 24.2699 92.0799 24.4999C90.0552 24.8241 88.8336 25.4651 88.5509 26.3511C88.1738 27.5426 89.4595 29.1638 89.9874 29.6879L90.1269 29.8237L92.2873 41.5646H86.873V40.3355H90.8131L88.9882 30.4194C88.4755 29.8651 86.7826 27.8593 87.382 25.9779C87.8194 24.6017 89.3351 23.6968 91.9065 23.2858C95.888 22.6486 97.0643 24.1983 97.3584 25.6159C97.6525 27.0336 97.0116 29.0696 96.3744 29.9519L97.8222 40.441L101.725 40.5956L101.657 41.8247Z" fill="#6E71FF"/>
<path d="M101.657 41.8247L96.725 41.6325L95.0208 29.3184L95.3752 29.2279C95.7259 28.6775 96.6081 26.5208 95.9332 25.3218C95.3224 24.2284 93.5013 24.2699 92.0799 24.4999C90.0552 24.8241 88.8336 25.4651 88.5509 26.3511C88.1738 27.5426 89.4595 29.1638 89.9874 29.6879L90.1269 29.8237L92.2873 41.5646H86.873V40.3355H90.8131L88.9882 30.4194C88.4755 29.8651 86.7826 27.8593 87.382 25.9779C87.8194 24.6017 89.3351 23.6968 91.9065 23.2858C95.888 22.6486 97.0643 24.1983 97.3584 25.6159C97.6525 27.0336 97.0116 29.0696 96.3744 29.9519L97.8222 40.441L101.725 40.5956L101.657 41.8247Z" fill="url(#paint5_linear)"/>
<path d="M117 56H78V93H117V56Z" fill="#6E71FF"/>
<path d="M117 56H78V93H117V56Z" fill="url(#paint6_linear)"/>
<path d="M133.539 108.124H66.8151C65.9863 108.124 65.3145 108.796 65.3145 109.625C65.3145 110.454 65.9863 111.125 66.8151 111.125H133.539C134.368 111.125 135.04 110.454 135.04 109.625C135.04 108.796 134.368 108.124 133.539 108.124Z" fill="#6E71FF"/>
<path d="M133.539 108.124H66.8151C65.9863 108.124 65.3145 108.796 65.3145 109.625C65.3145 110.453 65.9863 111.125 66.8151 111.125H133.539C134.368 111.125 135.04 110.453 135.04 109.625C135.04 108.796 134.368 108.124 133.539 108.124Z" fill="url(#paint7_linear)"/>
<path d="M133.539 125.124H66.8151C65.9863 125.124 65.3145 125.796 65.3145 126.625C65.3145 127.454 65.9863 128.125 66.8151 128.125H133.539C134.368 128.125 135.04 127.454 135.04 126.625C135.04 125.796 134.368 125.124 133.539 125.124Z" fill="#6E71FF"/>
<path d="M133.539 125.124H66.8151C65.9863 125.124 65.3145 125.796 65.3145 126.625C65.3145 127.453 65.9863 128.125 66.8151 128.125H133.539C134.368 128.125 135.04 127.453 135.04 126.625C135.04 125.796 134.368 125.124 133.539 125.124Z" fill="url(#paint8_linear)"/>
<path d="M133.539 142.124H66.8151C65.9863 142.124 65.3145 142.796 65.3145 143.625C65.3145 144.454 65.9863 145.125 66.8151 145.125H133.539C134.368 145.125 135.04 144.454 135.04 143.625C135.04 142.796 134.368 142.124 133.539 142.124Z" fill="#6E71FF"/>
<path d="M133.539 142.124H66.8151C65.9863 142.124 65.3145 142.796 65.3145 143.625C65.3145 144.453 65.9863 145.125 66.8151 145.125H133.539C134.368 145.125 135.04 144.453 135.04 143.625C135.04 142.796 134.368 142.124 133.539 142.124Z" fill="url(#paint9_linear)"/>
<path d="M133.539 142.124H66.8151C65.9863 142.124 65.3145 142.796 65.3145 143.625C65.3145 144.453 65.9863 145.125 66.8151 145.125H133.539C134.368 145.125 135.04 144.453 135.04 143.625C135.04 142.796 134.368 142.124 133.539 142.124Z" fill="url(#paint10_linear)"/>
<path d="M133.539 114.703H66.8151C65.9863 114.703 65.3145 115.375 65.3145 116.204C65.3145 117.033 65.9863 117.705 66.8151 117.705H133.539C134.368 117.705 135.04 117.033 135.04 116.204C135.04 115.375 134.368 114.703 133.539 114.703Z" fill="#6E71FF"/>
<path d="M133.539 114.703H66.8151C65.9863 114.703 65.3145 115.375 65.3145 116.204C65.3145 117.033 65.9863 117.705 66.8151 117.705H133.539C134.368 117.705 135.04 117.033 135.04 116.204C135.04 115.375 134.368 114.703 133.539 114.703Z" fill="url(#paint11_linear)"/>
<path d="M133.539 131.703H66.8151C65.9863 131.703 65.3145 132.375 65.3145 133.204C65.3145 134.033 65.9863 134.705 66.8151 134.705H133.539C134.368 134.705 135.04 134.033 135.04 133.204C135.04 132.375 134.368 131.703 133.539 131.703Z" fill="#6E71FF"/>
<path d="M133.539 131.703H66.8151C65.9863 131.703 65.3145 132.375 65.3145 133.204C65.3145 134.033 65.9863 134.705 66.8151 134.705H133.539C134.368 134.705 135.04 134.033 135.04 133.204C135.04 132.375 134.368 131.703 133.539 131.703Z" fill="url(#paint12_linear)"/>
<path d="M133.539 148.703H66.8151C65.9863 148.703 65.3145 149.375 65.3145 150.204C65.3145 151.033 65.9863 151.705 66.8151 151.705H133.539C134.368 151.705 135.04 151.033 135.04 150.204C135.04 149.375 134.368 148.703 133.539 148.703Z" fill="#6E71FF"/>
<path d="M133.539 148.703H66.8151C65.9863 148.703 65.3145 149.375 65.3145 150.204C65.3145 151.033 65.9863 151.705 66.8151 151.705H133.539C134.368 151.705 135.04 151.033 135.04 150.204C135.04 149.375 134.368 148.703 133.539 148.703Z" fill="url(#paint13_linear)"/>
<path fill-rule="evenodd" clip-rule="evenodd" d="M99 64H95V71.6087H87V76.5652H95V84H99V76.5652H107V71.6087H99V64Z" fill="url(#paint14_linear)"/>
<defs>
<linearGradient id="paint0_linear" x1="106.598" y1="-1.61557" x2="102.115" y2="53.5427" gradientUnits="userSpaceOnUse">
<stop offset="0.38383" stop-opacity="0.75"/>
<stop offset="0.908533" stop-opacity="0"/>
</linearGradient>
<linearGradient id="paint1_linear" x1="113.256" y1="188.577" x2="125.473" y2="-81.9005" gradientUnits="userSpaceOnUse">
<stop stop-opacity="0"/>
<stop offset="0.639117" stop-opacity="0.75"/>
<stop offset="1"/>
</linearGradient>
<linearGradient id="paint2_linear" x1="111.56" y1="186.323" x2="123.828" y2="-80.9517" gradientUnits="userSpaceOnUse">
<stop stop-opacity="0"/>
<stop offset="0.639117" stop-opacity="0.75"/>
<stop offset="1"/>
</linearGradient>
<linearGradient id="paint3_linear" x1="90.5669" y1="50.2667" x2="97.1452" y2="18.6237" gradientUnits="userSpaceOnUse">
<stop stop-opacity="0"/>
<stop offset="0.799692" stop-opacity="0.51"/>
<stop offset="0.99"/>
</linearGradient>
<linearGradient id="paint4_linear" x1="115.325" y1="30.3412" x2="104.944" y2="29.9047" gradientUnits="userSpaceOnUse">
<stop stop-opacity="0"/>
<stop offset="0.639117" stop-opacity="0.75"/>
<stop offset="1"/>
</linearGradient>
<linearGradient id="paint5_linear" x1="94.0332" y1="-1.73339" x2="89.6658" y2="53.3527" gradientUnits="userSpaceOnUse">
<stop offset="0.38383" stop-opacity="0.75"/>
<stop offset="0.908533" stop-opacity="0"/>
</linearGradient>
<linearGradient id="paint6_linear" x1="84.1746" y1="29.177" x2="138.855" y2="31.6876" gradientUnits="userSpaceOnUse">
<stop stop-opacity="0"/>
<stop offset="0.87783" stop-opacity="0.75"/>
<stop offset="1"/>
</linearGradient>
<linearGradient id="paint7_linear" x1="76.3536" y1="105.948" x2="124.752" y2="154.927" gradientUnits="userSpaceOnUse">
<stop stop-opacity="0"/>
<stop offset="0.87783" stop-opacity="0.75"/>
<stop offset="1"/>
</linearGradient>
<linearGradient id="paint8_linear" x1="76.3536" y1="122.948" x2="124.752" y2="171.927" gradientUnits="userSpaceOnUse">
<stop stop-opacity="0"/>
<stop offset="0.87783" stop-opacity="0.75"/>
<stop offset="1"/>
</linearGradient>
<linearGradient id="paint9_linear" x1="76.3536" y1="139.948" x2="124.752" y2="188.927" gradientUnits="userSpaceOnUse">
<stop stop-opacity="0"/>
<stop offset="0.87783" stop-opacity="0.75"/>
<stop offset="1"/>
</linearGradient>
<linearGradient id="paint10_linear" x1="76.3536" y1="139.948" x2="124.752" y2="188.927" gradientUnits="userSpaceOnUse">
<stop stop-opacity="0"/>
<stop offset="0.87783" stop-opacity="0.75"/>
<stop offset="1"/>
</linearGradient>
<linearGradient id="paint11_linear" x1="76.3536" y1="112.528" x2="124.752" y2="161.507" gradientUnits="userSpaceOnUse">
<stop stop-opacity="0"/>
<stop offset="0.87783" stop-opacity="0.75"/>
<stop offset="1"/>
</linearGradient>
<linearGradient id="paint12_linear" x1="76.3536" y1="129.528" x2="124.752" y2="178.507" gradientUnits="userSpaceOnUse">
<stop stop-opacity="0"/>
<stop offset="0.87783" stop-opacity="0.75"/>
<stop offset="1"/>
</linearGradient>
<linearGradient id="paint13_linear" x1="76.3536" y1="146.528" x2="124.752" y2="195.507" gradientUnits="userSpaceOnUse">
<stop stop-opacity="0"/>
<stop offset="0.87783" stop-opacity="0.75"/>
<stop offset="1"/>
</linearGradient>
<linearGradient id="paint14_linear" x1="97" y1="84.8261" x2="97" y2="100.935" gradientUnits="userSpaceOnUse">
<stop stop-color="white"/>
<stop offset="1" stop-color="white" stop-opacity="0"/>
</linearGradient>
</defs>
</svg>
