<svg width="240" height="240" viewBox="0 0 240 240" fill="none" xmlns="http://www.w3.org/2000/svg">
<path opacity="0.18" d="M135.763 228.552C145.885 222.035 154.778 213.103 164.943 206.738C177.827 198.727 192.369 195.061 206.939 196.152C210.986 196.463 215.197 197.115 218.994 195.442C222.401 193.933 225.036 190.719 227.28 187.372C240.003 168.424 243.535 141.597 236.271 119.061C233.641 110.896 229.686 103.213 228.583 94.5535C226.046 74.6738 239.15 55.5864 237.102 35.6306C235.69 21.8936 226.867 10.1217 216.044 4.51782C205.222 -1.08603 192.694 -1.05434 181.231 2.30544C168.708 5.96316 157.196 13.3483 144.787 17.5195C121.312 25.3675 96.1958 21.228 71.987 24.7969C47.7783 28.3659 21.3529 43.8906 16.5611 71.8338C13.6654 88.7088 19.3862 106.573 15.7027 123.238C12.6006 137.254 3.20719 148.646 0.762412 162.846C-5.757 200.995 31.094 211.708 51.8746 225.781C77.2949 242.992 109.653 245.369 135.763 228.552Z" fill="#6E71FF"/>
<path d="M149.407 159.153C149.719 162.034 150.018 165.002 149.155 167.783C147.628 172.669 142.881 175.75 138.314 178.053C129.099 182.707 119.141 185.914 109.535 189.725C106.308 190.999 102.697 192.805 101.927 196.191C101.581 197.698 101.88 199.331 101.342 200.778C100.805 202.225 98.7533 203.281 97.7442 202.106C97.3668 201.552 97.1803 200.89 97.2131 200.22L96.7949 192.493C96.6555 189.904 96.516 187.275 97.1666 184.765C97.8172 182.256 99.3774 179.853 101.761 178.843C102.564 178.505 103.427 178.339 104.244 178.02C107.271 176.839 109.123 173.851 110.949 171.162C115.244 164.836 120.907 158.934 128.21 156.783C125.917 153.251 124.376 149.286 123.684 145.132C122.992 140.979 123.163 136.728 124.187 132.644C125.255 128.488 127.42 124.359 131.144 122.228C132.58 121.409 134.207 120.988 135.86 121.008C137.512 121.028 139.129 121.488 140.545 122.341C143.864 124.485 144.349 128.362 145.225 131.947C147.436 140.883 148.425 150.038 149.407 159.153Z" fill="#6E71FF"/>
<path d="M149.407 159.153C149.719 162.034 150.018 165.002 149.155 167.783C147.628 172.669 142.881 175.75 138.314 178.053C129.099 182.707 119.141 185.914 109.535 189.725C106.308 190.999 102.697 192.805 101.927 196.191C101.581 197.698 101.88 199.331 101.342 200.778C100.805 202.225 98.7533 203.281 97.7442 202.106C97.3668 201.552 97.1803 200.89 97.2131 200.22L96.7949 192.493C96.6555 189.904 96.516 187.275 97.1666 184.765C97.8172 182.256 99.3774 179.853 101.761 178.843C102.564 178.505 103.427 178.339 104.244 178.02C107.271 176.839 109.123 173.851 110.949 171.162C115.244 164.836 120.907 158.934 128.21 156.783C125.917 153.251 124.376 149.286 123.684 145.132C122.992 140.979 123.163 136.728 124.187 132.644C125.255 128.488 127.42 124.359 131.144 122.228C132.58 121.409 134.207 120.988 135.86 121.008C137.512 121.028 139.129 121.488 140.545 122.341C143.864 124.485 144.349 128.362 145.225 131.947C147.436 140.883 148.425 150.038 149.407 159.153Z" fill="url(#paint0_linear)"/>
<path d="M132.712 123.025C132.716 128.966 131.3 134.823 128.583 140.106C127.169 142.848 125.403 145.464 124.6 148.425C119.136 167.976 96.9688 178.831 80.4249 191.199C73.7064 196.218 66.3307 201.316 63.3234 209.017C62.9184 210.066 62.5068 211.248 61.4844 211.772C60.0172 212.516 58.165 211.301 57.6405 209.781C57.1161 208.26 57.5741 206.601 58.0189 205.047L60.3824 196.769C60.577 195.824 60.9808 194.935 61.5641 194.166C62.2695 193.507 63.0736 192.963 63.9474 192.553C70.0418 189.008 71.9604 181.526 75.1338 175.365C78.777 168.375 84.4182 162.627 91.3391 158.854C93.1714 157.852 95.1365 156.956 96.5439 155.435C97.9514 153.915 98.7347 151.718 99.4318 149.68C101.766 142.882 104.445 136.208 107.458 129.683C108.66 127.074 115.604 115.078 117.635 112.987C122.847 107.643 127.667 117.521 132.712 123.025Z" fill="#6E71FF"/>
<path d="M132.712 123.025C132.716 128.966 131.3 134.823 128.583 140.106C127.169 142.848 125.403 145.464 124.6 148.425C119.136 167.976 96.9688 178.831 80.4249 191.199C73.7064 196.218 66.3307 201.316 63.3234 209.017C62.9184 210.066 62.5068 211.248 61.4844 211.772C60.0172 212.516 58.165 211.301 57.6405 209.781C57.1161 208.26 57.5741 206.601 58.0189 205.047L60.3824 196.769C60.577 195.824 60.9808 194.935 61.5641 194.166C62.2695 193.507 63.0736 192.963 63.9474 192.553C70.0418 189.008 71.9604 181.526 75.1338 175.365C78.777 168.375 84.4182 162.627 91.3391 158.854C93.1714 157.852 95.1365 156.956 96.5439 155.435C97.9514 153.915 98.7347 151.718 99.4318 149.68C101.766 142.882 104.445 136.208 107.458 129.683C108.66 127.074 115.604 115.078 117.635 112.987C122.847 107.643 127.667 117.521 132.712 123.025Z" fill="url(#paint1_linear)"/>
<path d="M157.945 72.3044C157.945 73.1475 157.885 74.0172 157.885 74.8935C157.885 77.7017 157.62 80.7954 155.628 82.7738C154.108 84.2808 151.904 84.8052 149.872 85.4691C135.161 90.2756 125.76 104.476 112.735 112.828C109.973 114.594 106.76 116.147 103.567 115.782C103.179 115.741 102.795 115.67 102.418 115.569C100.32 115.025 98.5611 113.624 96.5562 112.821C92.5729 111.234 88.0917 112.117 84.0819 113.551C80.0721 114.985 76.1884 116.937 71.9661 117.535C67.7438 118.132 62.924 117.003 60.5673 113.452C59.2926 111.513 58.9076 109.13 57.9117 107.039C54.2737 99.4903 43.8109 97.638 39.1903 90.6938C39.1106 90.5743 39.0243 90.4482 38.9513 90.3221C38.2618 89.2044 37.7511 87.9859 37.4377 86.7106C37.3428 86.3677 37.2674 86.0197 37.2119 85.6683C36.775 83.1427 37.0391 80.5457 37.9754 78.1598L38.0949 77.8478C38.9688 75.8661 40.2542 74.0931 41.8658 72.6463C43.4774 71.1995 45.3783 70.1121 47.4423 69.4563C53.2115 67.6439 59.4387 69.2372 65.4866 69.1244C71.82 69.0049 78.1601 66.9933 84.3939 68.0821C89.2535 68.9252 93.6883 71.594 98.1363 73.7848C101.834 75.5972 105.572 77.1042 109.648 76.9714C113.273 76.8719 116.732 75.4644 119.991 73.8578C125.966 70.9235 131.642 67.2589 137.916 64.9486C142.61 63.2158 147.821 62.293 152.794 63.176C158.065 64.1453 158.071 67.8564 157.945 72.3044Z" fill="#6E71FF"/>
<path d="M148.857 79.0827C147.469 80.7158 145.325 81.4395 143.353 82.276C134.543 86.0269 132.565 97.2863 126.006 104.436C121.963 108.838 108.924 114.156 108.745 112.735C108.473 110.776 105.426 115.085 103.587 115.782C103.199 115.741 102.815 115.67 102.438 115.57C100.34 115.025 98.5809 113.624 96.576 112.821C92.5927 111.234 88.1115 112.117 84.1017 113.551C80.0918 114.985 76.2081 116.937 71.9858 117.535C67.7636 118.132 62.9438 117.004 60.587 113.452C59.3124 111.513 58.9273 109.13 57.9315 107.039C55.515 102.013 50.0711 99.5169 45.3178 96.3569C42.9162 94.8991 40.8324 92.9733 39.1901 90.694C39.1105 90.5745 39.0242 90.4483 38.9511 90.3222C38.2617 89.2045 37.751 87.986 37.4375 86.7107C38.9411 85.0842 40.7805 83.8043 42.8282 82.9598C48.4181 80.6428 54.7781 81.6918 60.753 81.0478C67.0532 80.3839 73.1941 77.8346 79.501 78.3923C88.4766 79.1624 96.483 86.0933 105.392 85.0643C109.004 84.646 112.323 82.9398 115.43 81.081C121.146 77.6421 126.464 73.4995 132.499 70.6514C137.02 68.527 142.131 67.1329 147.17 67.6042C148.239 67.6737 149.279 67.9774 150.218 68.4938C150.271 69.3303 150.304 70.2 150.383 71.0697C150.669 73.8314 150.669 76.9384 148.857 79.0827Z" fill="url(#paint2_linear)"/>
<path d="M131.09 98.209C127.047 102.611 115.263 110.391 110.59 113.989C109.023 115.204 105.418 115.085 103.573 115.782C103.185 115.741 102.801 115.67 102.424 115.569C100.326 115.025 98.5668 113.624 96.5619 112.821C92.5786 111.234 88.0974 112.117 84.0876 113.551C80.0778 114.985 76.1941 116.937 71.9718 117.535C67.7495 118.132 62.9297 117.003 60.573 113.452C59.2983 111.513 58.9133 109.13 57.9174 107.039C55.5009 102.013 50.0571 99.5168 45.3037 96.3567C45.6994 96.0467 46.1764 95.8578 46.6771 95.8131C47.1778 95.7683 47.6808 95.8695 48.1252 96.1045C52.8122 99.3044 59.1523 98.2422 64.4965 96.3368C69.8407 94.4315 75.1783 91.7826 80.8346 92.1544C87.2078 92.566 92.7181 96.7617 98.9519 98.209C103.513 99.2488 108.288 98.783 112.561 96.8812C114.892 95.8456 125.215 86.0002 127.273 87.5006C128.03 88.0516 135.903 83.3314 136.162 84.2343C136.362 84.9314 131.09 97.5053 131.09 98.209Z" fill="url(#paint3_linear)"/>
<path d="M205.407 40.312C205.795 40.7263 206.052 41.2457 206.147 41.8054C206.241 42.365 206.169 42.9401 205.938 43.4588C205.459 44.4841 204.783 45.4047 203.947 46.1674C197.036 53.251 187.655 59.7637 180.757 66.8407C177.146 70.5518 176.323 71.2688 172.499 74.7674C169.996 77.0578 167.393 79.2752 165.315 81.9572C163.423 84.4136 161.724 90.7603 160.33 93.5287L153.339 107.47C150.949 112.224 148.546 117.003 145.372 121.272C144.821 122.138 144.067 122.856 143.175 123.363C142.297 123.712 141.358 123.884 140.413 123.868C135.527 124.147 130.521 124.957 125.808 123.609C121.094 122.261 116.786 117.84 117.596 112.987C117.984 111.334 118.658 109.761 119.587 108.34L128.038 93.4357C130.588 88.9479 133.13 84.4601 135.766 80.0187C137.831 76.5466 140.008 73.0347 143.122 70.4588C145.87 68.1817 149.196 66.7544 152.476 65.3536C159.427 62.3794 166.417 59.7438 172.844 55.7605C179.373 51.6988 186.187 48.1134 193.232 45.0322C197.224 43.2928 201.282 41.7194 205.407 40.312Z" fill="url(#paint4_linear)"/>
<path d="M171.462 65.898C172.325 65.0814 172.464 63.7802 173.002 62.7247C173.766 61.2243 175.286 60.3015 176.707 59.4053C182.243 55.8549 187.229 51.5111 191.505 46.5127C185.377 48.0728 180.006 51.6777 174.775 55.2228L166.045 61.1313C162.579 63.4815 159.061 65.8715 156.392 69.0979C156.165 69.3343 156.007 69.6281 155.934 69.9477C155.821 70.751 156.691 71.2754 157.335 71.78C160.07 73.911 162.095 75.1791 163.482 71.2223C164.06 69.5693 164.684 68.5668 166.324 67.717C167.963 66.8673 170.154 67.1328 171.462 65.898Z" fill="url(#paint5_linear)" fill-opacity="0.3"/>
<path d="M157.645 77.6818C158.522 77.9885 159.352 78.4177 160.108 78.9565C160.466 79.2222 160.854 79.445 161.264 79.6204C161.468 79.7075 161.688 79.7524 161.911 79.7524C162.133 79.7524 162.353 79.7075 162.558 79.6204C162.644 79.5783 162.716 79.5112 162.764 79.4278C162.806 79.3098 162.806 79.1807 162.764 79.0627C162.241 77.4909 161.575 75.9708 160.772 74.5217C160.684 74.3395 160.562 74.1752 160.414 74.0371C160.165 73.8724 159.875 73.7804 159.577 73.7716C158.713 73.6792 157.841 73.6992 156.981 73.8313C156.488 73.8857 156.024 74.0922 155.654 74.4222C155.388 74.7323 155.212 75.1085 155.143 75.5109C154.948 76.1947 154.9 76.912 155.003 77.6154C155.415 77.6154 155.86 77.4362 156.298 77.4362C156.756 77.4544 157.21 77.5371 157.645 77.6818Z" fill="url(#paint6_linear)"/>
<path d="M146.984 71.1754C146.294 72.8606 145.945 74.6655 145.955 76.4864C145.805 77.8142 145.98 79.1586 146.466 80.4033C146.502 80.5004 146.564 80.5855 146.645 80.6489C146.785 80.7132 146.942 80.7273 147.09 80.6888C147.921 80.5765 148.766 80.6216 149.58 80.8215C149.635 80.8308 149.686 80.8562 149.726 80.8946C149.767 80.9407 149.793 80.9989 149.799 81.0605L150.104 82.6406C151.273 88.6155 149.181 95.3738 144.315 99.0451C142.672 100.151 140.916 101.079 139.077 101.813C135.877 103.294 132.744 105.133 130.387 107.729C128.03 110.324 126.503 113.903 126.948 117.408C131.378 115.161 135.306 112.037 138.493 108.227C140.757 105.511 142.655 102.438 145.384 100.194C146.997 98.8658 148.883 97.8501 150.27 96.2833C152.926 93.2959 153.251 88.9806 153.45 84.9974C153.722 79.4208 153.603 72.9346 149.228 69.4758C148.783 69.748 147.223 70.6642 146.984 71.1754Z" fill="url(#paint7_linear)" fill-opacity="0.3"/>
<path d="M211.487 33.1354C212.709 32.7371 214.143 32.5778 215.192 33.3147C215.808 33.7981 216.27 34.4511 216.519 35.1935C217.183 36.9063 217.263 39.0241 216.095 40.4514C215.314 41.269 214.355 41.896 213.293 42.2837C211.13 43.3666 208.855 44.2082 206.508 44.7932C205.087 45.0986 202.923 45.1716 202.173 43.5849C201.509 42.1775 202.917 40.624 203.687 39.5552C205.685 36.8067 208.188 34.2308 211.487 33.1354Z" fill="url(#paint8_linear)"/>
<path d="M113.644 84.1812C109.827 86.3056 105.917 88.7022 103.726 92.4731C101.681 95.9916 101.409 100.254 101.482 104.323C101.511 108.812 102.052 113.282 103.095 117.647C103.215 118.132 103.414 118.683 103.885 118.836C104.238 118.901 104.602 118.832 104.908 118.643C106.409 117.904 107.734 116.848 108.789 115.548C109.844 114.249 110.606 112.736 111.022 111.115C111.307 109.953 111.414 108.758 111.626 107.59C112.184 104.999 113.005 102.472 114.076 100.048C114.447 98.9539 115.004 97.932 115.722 97.0273C116.508 96.245 117.422 95.6028 118.424 95.1286C123.934 92.1146 129.498 89.1935 135.114 86.3654C137.208 85.4131 139.184 84.2212 141.003 82.8136C142.835 81.3861 144.09 79.3442 144.535 77.0644C144.873 74.8139 146.573 69.7617 143.665 69.9476C140.757 70.1335 134.795 72.6695 132.173 73.8114C125.68 76.6661 119.805 80.7357 113.644 84.1812Z" fill="url(#paint9_linear)"/>
<path d="M145.132 74.0038C144.939 75.139 144.647 76.2941 144.534 77.0974C144.085 79.3739 142.832 81.4125 141.002 82.84C139.183 84.2476 137.207 85.4395 135.114 86.3918C129.506 89.2199 123.943 92.141 118.424 95.155C117.422 95.6309 116.509 96.2729 115.722 97.0537C114.997 97.9543 114.439 98.9773 114.075 100.074C113.005 102.499 112.184 105.026 111.626 107.616C111.413 108.784 111.307 109.979 111.015 111.141C110.594 112.76 109.832 114.27 108.778 115.568C107.724 116.867 106.404 117.925 104.907 118.67C104.603 118.86 104.237 118.927 103.885 118.856C103.413 118.709 103.221 118.152 103.101 117.674C102.055 113.3 101.511 108.821 101.482 104.323C101.402 100.247 101.681 95.9981 103.725 92.4729C105.923 88.6954 109.833 86.2988 113.637 84.181C119.825 80.7355 125.68 76.6659 132.173 73.8378C134.828 72.7026 140.803 70.1798 143.664 69.9674C145.543 69.8479 145.503 71.9059 145.132 74.0038Z" fill="url(#paint10_linear)"/>
<path d="M140.897 70.8498C142.422 72.3657 144.084 73.737 145.863 74.9459C147.651 76.1717 149.8 76.7588 151.964 76.6123C152.342 76.5658 152.794 76.433 152.886 76.0612C152.979 75.6895 152.621 75.3376 152.316 75.092C150.656 73.7642 149.308 71.8191 149.295 69.688C149.295 68.6656 149.567 67.5702 149.063 66.6806C148.399 65.5719 146.912 65.3993 145.63 65.4591C144.347 65.5184 143.071 65.6782 141.813 65.9371C140.751 66.1562 132.187 69.9602 133.262 70.2257C133.441 70.2722 137.571 67.776 140.897 70.8498Z" fill="#6E71FF"/>
<path d="M141.216 67.9825C140.802 67.8471 140.41 67.6502 140.054 67.3982C139.878 67.2723 139.74 67.0988 139.658 66.8979C139.576 66.6969 139.552 66.4768 139.59 66.263C139.661 66.0318 139.791 65.8235 139.968 65.6589C141.243 64.3311 143.155 63.8199 144.974 63.4747C147.596 62.9768 150.484 62.7112 152.781 64.0656C153.073 64.2382 153.385 64.5104 153.332 64.8489C153.284 65.0366 153.174 65.2027 153.02 65.3203C152.057 66.2232 150.909 66.8738 149.9 67.7169C148.891 68.56 148.433 69.9276 147.47 70.7707C145.658 72.3574 143.002 68.7061 141.216 67.9825Z" fill="url(#paint11_linear)"/>
<path d="M145.132 74.0042C144.939 75.1394 144.647 76.2945 144.534 77.0978C144.085 79.3743 142.832 81.4129 141.002 82.8404C139.183 84.248 137.207 85.4399 135.114 86.3922C129.506 89.2203 123.943 92.1414 118.424 95.1554C117.422 95.6313 116.509 96.2733 115.722 97.0541C114.997 97.9547 114.44 98.9777 114.075 100.075C113.005 102.499 112.185 105.026 111.626 107.616C111.413 108.785 111.307 109.98 111.015 111.142C110.586 112.856 109.763 114.448 108.612 115.789C108.198 112.91 107.976 110.007 107.948 107.099C107.875 103.029 108.147 98.7669 110.192 95.2483C112.383 91.4775 116.293 89.0809 120.11 86.9498C126.297 83.5109 132.146 79.4413 138.639 76.6198C140.106 75.9493 142.669 74.8606 145.132 74.0042Z" fill="url(#paint12_linear)"/>
<path d="M96.5033 125.76C97.408 124.597 98.5614 123.651 99.879 122.992C101.197 122.332 102.645 121.976 104.118 121.949C105.477 121.756 106.862 121.886 108.161 122.327C109.142 122.738 109.981 123.428 110.571 124.313C111.161 125.197 111.478 126.236 111.48 127.3C111.495 128.033 111.261 128.749 110.817 129.331C110.595 129.62 110.292 129.838 109.947 129.956C109.603 130.074 109.231 130.088 108.878 129.995C108.774 129.969 108.678 129.917 108.598 129.846C108.519 129.774 108.457 129.684 108.42 129.584C108.39 129.466 108.39 129.343 108.42 129.225C108.642 128.21 108.571 127.153 108.214 126.178C108.032 125.691 107.735 125.255 107.348 124.908C106.96 124.561 106.494 124.313 105.99 124.186C105.074 124.114 104.152 124.193 103.262 124.419C101.934 124.824 99.6567 125.746 98.88 126.868C98.1032 127.99 98.0435 129.902 96.8552 130.745C96.0519 131.31 94.7639 131.695 94.1996 130.467C93.6353 129.238 95.7332 126.629 96.5033 125.76Z" fill="#6E71FF"/>
<path d="M96.5033 125.76C97.408 124.597 98.5614 123.651 99.879 122.992C101.197 122.332 102.645 121.976 104.118 121.949C105.477 121.756 106.862 121.886 108.161 122.327C109.142 122.738 109.981 123.428 110.571 124.313C111.161 125.197 111.478 126.236 111.48 127.3C111.495 128.033 111.261 128.749 110.817 129.331C110.595 129.62 110.292 129.838 109.947 129.956C109.603 130.074 109.231 130.088 108.878 129.995C108.774 129.969 108.678 129.917 108.598 129.846C108.519 129.774 108.457 129.684 108.42 129.584C108.39 129.466 108.39 129.343 108.42 129.225C108.642 128.21 108.571 127.153 108.214 126.178C108.032 125.691 107.735 125.255 107.348 124.908C106.96 124.561 106.494 124.313 105.99 124.186C105.074 124.114 104.152 124.193 103.262 124.419C101.934 124.824 99.6567 125.746 98.88 126.868C98.1032 127.99 98.0435 129.902 96.8552 130.745C96.0519 131.31 94.7639 131.695 94.1996 130.467C93.6353 129.238 95.7332 126.629 96.5033 125.76Z" fill="url(#paint13_linear)"/>
<path d="M162.839 76.2013C162.905 76.4934 162.931 76.8652 162.692 77.0312C162.584 77.0948 162.46 77.1283 162.334 77.1283C162.208 77.1283 162.084 77.0948 161.975 77.0312C160.86 76.52 160.077 75.3582 158.875 75.0993C158.139 75.0396 157.4 75.0396 156.664 75.0993C155.928 75.0594 155.084 74.608 155.064 73.8711C155.064 73.2935 155.529 72.8421 155.967 72.4637C156.751 71.7998 157.468 71.0496 158.225 70.3525C159.167 69.4895 159.346 69.4629 160.13 70.5251C161.397 72.2207 162.318 74.1496 162.839 76.2013Z" fill="url(#paint14_linear)"/>
<path d="M151.539 75.7362C151.434 75.7744 151.342 75.8411 151.273 75.9287C151.225 76.0229 151.207 76.1293 151.22 76.2341C151.292 77.063 151.606 77.8525 152.123 78.5046C152.608 79.1685 153.179 79.7792 153.623 80.4962C154.318 80.158 154.908 79.6381 155.331 78.9918C155.754 78.3455 155.994 77.5968 156.027 76.825C156.053 76.531 156.021 76.2345 155.933 75.953C155.844 75.6715 155.7 75.4105 155.509 75.1852C154.5 74.123 152.554 75.2449 151.539 75.7362Z" fill="#6E71FF"/>
<path d="M151.99 88.0252C151.775 90.3503 150.794 92.5383 149.202 94.2458C147.992 95.3676 146.56 96.2226 144.999 96.7552C141.793 97.9834 138.36 98.5013 135.041 99.2979C131.722 100.095 128.336 101.217 125.707 103.434C122.182 106.415 120.396 110.989 119.387 115.483L125.302 114.819C125.653 114.804 125.996 114.716 126.311 114.561C126.662 114.307 126.942 113.969 127.128 113.578C129.245 109.96 131.954 106.601 135.459 104.284C138.706 102.159 142.49 101.024 145.962 99.3045C149.434 97.5851 152.806 95.0026 153.962 91.2981C154.355 89.8824 154.552 88.4192 154.546 86.9497C154.599 85.0046 154.546 83.0528 154.433 81.1076C154.433 79.7716 154.124 78.4538 153.53 77.2571C152.747 78.9301 151.784 80.3375 151.963 82.1964C152.184 84.1326 152.193 86.0871 151.99 88.0252Z" fill="#6E71FF"/>
<path d="M105.199 114.793C104.352 115.389 103.71 116.233 103.361 117.209C102.385 119.274 101.369 121.511 101.741 123.768C101.816 124.372 102.063 124.941 102.451 125.408C102.763 125.707 103.14 125.931 103.552 126.062C103.964 126.193 104.4 126.228 104.828 126.165C105.681 126.03 106.504 125.744 107.258 125.322C108.705 124.598 110.218 123.656 110.75 122.129C111.201 120.801 110.816 119.38 110.437 118.046C110.185 117.176 109.774 114.62 108.93 114.155C108.24 113.797 105.863 114.428 105.199 114.793Z" fill="url(#paint15_linear)"/>
<path d="M119.685 127.399C120.193 127.354 120.704 127.417 121.186 127.585C121.632 127.808 122.011 128.148 122.281 128.567C123.32 130.133 123.789 132.008 123.609 133.878C123.419 135.733 123.018 137.559 122.414 139.322L118.43 152.6C118.138 153.925 117.538 155.162 116.678 156.211C115.171 157.778 112.768 157.964 110.597 158.017C101.555 158.25 92.506 157.851 83.4772 157.353C81.3323 157.344 79.2028 156.99 77.1703 156.304C75.9753 155.826 74.7936 154.977 74.4484 153.768C74.3156 153.18 74.2953 152.572 74.3887 151.976C74.6312 150.138 74.9904 148.318 75.4641 146.525C76.4732 142.363 77.4956 138.161 79.3279 134.283C79.857 132.997 80.6667 131.845 81.698 130.911C82.3573 130.395 83.0946 129.987 83.8821 129.703C87.6663 128.249 91.7027 129.178 95.6395 128.8C100.8 128.304 105.965 127.939 111.134 127.704C113.971 127.549 116.822 127.448 119.685 127.399Z" fill="#6E71FF"/>
<path d="M118.716 127.519C119.224 127.476 119.735 127.54 120.217 127.705C120.665 127.928 121.046 128.268 121.319 128.688C122.354 130.255 122.823 132.129 122.647 133.999C122.455 135.853 122.051 137.68 121.445 139.443L117.462 152.72C117.17 154.045 116.569 155.283 115.709 156.332C114.202 157.899 111.799 158.084 109.628 158.144C100.586 158.37 91.5439 157.972 82.5085 157.48C80.3635 157.471 78.2341 157.117 76.2016 156.431C75.0132 155.953 73.8249 155.104 73.4797 153.895C73.349 153.307 73.331 152.698 73.4266 152.103C73.6675 150.265 74.0245 148.445 74.4954 146.652C75.5045 142.49 76.5269 138.288 78.3592 134.411C78.8898 133.125 79.6993 131.973 80.7292 131.038C81.3872 130.521 82.1249 130.116 82.9134 129.836C86.6975 128.376 90.7339 129.305 94.6774 128.927C99.8291 128.431 104.992 128.066 110.166 127.831C113.003 127.681 115.853 127.577 118.716 127.519Z" fill="url(#paint16_linear)"/>
<path d="M156.234 60.1813C156.445 59.9521 156.606 59.6806 156.705 59.3846C156.761 59.1042 156.761 58.8153 156.705 58.5349C156.413 56.7358 155.822 54.9566 155.941 53.1309C156.099 51.1789 156.991 49.3594 158.438 48.0389C159.883 46.7403 161.694 45.9196 163.623 45.6888C164.873 45.4664 166.162 45.6722 167.281 46.273C168.754 47.1825 169.432 48.9285 169.823 50.6281C170.215 52.3276 170.454 54.0935 171.403 55.5341C171.662 55.9258 171.994 56.3773 171.855 56.8619C171.768 57.0617 171.651 57.2474 171.509 57.4129C170.5 58.8867 171.702 61.1439 170.673 62.6045C170.412 62.9454 170.079 63.2242 169.697 63.421C168.064 64.3106 166.079 64.1845 164.306 64.7488C162.613 65.3643 161.114 66.4209 159.965 67.8093C158.77 69.1371 157.787 70.6573 156.705 72.0847C156.291 72.782 155.673 73.3362 154.935 73.6732C154.197 74.0101 153.374 74.1137 152.576 73.9701C152.317 74.0189 152.05 74.0157 151.792 73.9609C151.535 73.906 151.29 73.8004 151.073 73.6504C150.857 73.5003 150.672 73.3087 150.53 73.0866C150.388 72.8646 150.291 72.6166 150.245 72.3569C149.848 71.3741 149.611 70.3342 149.542 69.2765C149.489 67.1852 150.723 66.4683 151.985 65.094C153.463 63.4919 154.879 61.8543 156.234 60.1813Z" fill="url(#paint17_linear)"/>
<path d="M165.792 42.5888C164.394 41.8969 162.807 41.6846 161.277 41.9847C160.355 42.0805 159.456 42.3366 158.622 42.7415C156.272 43.9498 155.083 46.6783 152.866 48.1123C152.062 48.6368 151.12 48.9886 150.489 49.7056C150.185 50.0477 149.966 50.4572 149.85 50.9004C149.735 51.3435 149.726 51.8078 149.825 52.2549C149.96 52.6014 150.019 52.9726 149.998 53.3437C149.862 53.7346 149.634 54.0874 149.334 54.3727C148.954 54.8698 148.74 55.4732 148.721 56.0983C148.702 56.7234 148.879 57.3388 149.228 57.8581C150.144 59.1858 151.956 59.5244 153.032 60.6928C153.583 61.2903 154.028 62.1401 154.838 62.2397C155.399 62.2376 155.938 62.016 156.338 61.6223C157.447 60.746 158.469 59.5576 158.555 58.1435C158.555 57.6589 158.496 57.1676 158.555 56.683C158.558 56.4388 158.624 56.1995 158.746 55.9879C158.868 55.7764 159.042 55.5997 159.252 55.4747C159.519 55.3858 159.805 55.3754 160.077 55.4448C160.349 55.5143 160.595 55.6607 160.786 55.8664C161.198 56.2448 161.49 56.7361 161.895 57.1212C161.924 57.1582 161.967 57.1821 162.014 57.1876C162.037 57.186 162.059 57.18 162.08 57.1697C162.1 57.1595 162.119 57.1452 162.134 57.1278C162.336 56.8877 162.468 56.5962 162.515 56.2857C162.562 55.9751 162.522 55.6577 162.399 55.3685C162.144 54.7934 161.97 54.1857 161.881 53.5628C161.903 53.1506 162.012 52.7477 162.202 52.3813C162.393 52.0149 162.659 51.6934 162.983 51.4383C163.601 50.894 164.311 50.4824 164.975 49.9446C166.011 49.055 167.325 47.4152 167.631 46.0476C167.936 44.68 166.94 43.2527 165.792 42.5888Z" fill="#6E71FF"/>
<path d="M165.792 42.5888C164.394 41.8969 162.807 41.6846 161.277 41.9847C160.355 42.0805 159.456 42.3366 158.622 42.7415C156.272 43.9498 155.083 46.6783 152.866 48.1123C152.062 48.6368 151.12 48.9886 150.489 49.7056C150.185 50.0477 149.966 50.4572 149.85 50.9004C149.735 51.3435 149.726 51.8078 149.825 52.2549C149.96 52.6014 150.019 52.9726 149.998 53.3437C149.862 53.7346 149.634 54.0874 149.334 54.3727C148.954 54.8698 148.74 55.4732 148.721 56.0983C148.702 56.7234 148.879 57.3388 149.228 57.8581C150.144 59.1858 151.956 59.5244 153.032 60.6928C153.583 61.2903 154.028 62.1401 154.838 62.2397C155.399 62.2376 155.938 62.016 156.338 61.6223C157.447 60.746 158.469 59.5576 158.555 58.1435C158.555 57.6589 158.496 57.1676 158.555 56.683C158.558 56.4388 158.624 56.1995 158.746 55.9879C158.868 55.7764 159.042 55.5997 159.252 55.4747C159.519 55.3858 159.805 55.3754 160.077 55.4448C160.349 55.5143 160.595 55.6607 160.786 55.8664C161.198 56.2448 161.49 56.7361 161.895 57.1212C161.924 57.1582 161.967 57.1821 162.014 57.1876C162.037 57.186 162.059 57.18 162.08 57.1697C162.1 57.1595 162.119 57.1452 162.134 57.1278C162.336 56.8877 162.468 56.5962 162.515 56.2857C162.562 55.9751 162.522 55.6577 162.399 55.3685C162.144 54.7934 161.97 54.1857 161.881 53.5628C161.903 53.1506 162.012 52.7477 162.202 52.3813C162.393 52.0149 162.659 51.6934 162.983 51.4383C163.601 50.894 164.311 50.4824 164.975 49.9446C166.011 49.055 167.325 47.4152 167.631 46.0476C167.936 44.68 166.94 43.2527 165.792 42.5888Z" fill="url(#paint18_linear)" fill-opacity="0.9"/>
<path d="M152.508 72.928C153.013 73.4192 153.643 74.103 153.285 74.7138C152.927 75.3246 152.19 75.1586 151.572 75.0989C151.093 75.0316 150.605 75.0641 150.139 75.1943C149.673 75.3245 149.239 75.5497 148.864 75.8557C147.914 76.7453 147.722 78.3253 146.593 78.9826C146.066 75.7494 146.084 72.4508 146.646 69.2235C146.72 68.7361 146.845 68.2577 147.018 67.7962C147.405 67.0085 147.926 66.2941 148.558 65.685C148.989 65.3602 149.505 65.1667 150.043 65.1279C150.581 65.089 151.119 65.2064 151.592 65.466C151.592 65.466 150.105 67.67 150.191 68.3605C150.434 70.0985 151.249 71.7059 152.508 72.928Z" fill="url(#paint19_linear)"/>
<path d="M99.2248 76.5728C99.2248 78.2325 97.1402 79.1818 95.5071 78.8565C93.8739 78.5312 92.5196 77.4491 91.0259 76.7321C86.1132 74.382 80.3507 76.2741 74.9135 76.3272C68.2747 76.4002 61.782 73.6252 55.1166 73.7447C50.4539 73.8399 45.9284 75.3391 42.1311 78.0466C41.7292 78.2751 41.355 78.5491 41.0158 78.8632C40.8365 79.0623 39.0241 82.4481 37.2051 85.6613C36.7682 83.1358 37.0323 80.5388 37.9686 78.1528L38.0881 77.8408C38.9634 75.8597 40.2502 74.0875 41.8629 72.6419C43.4757 71.1963 45.3775 70.1103 47.4421 69.456C53.2113 67.6436 59.4385 69.2369 65.4864 69.1241C71.8198 69.0046 78.1599 66.993 84.3937 68.0818C89.2533 68.9249 93.6881 71.5937 98.1361 73.7845C98.375 74.2027 98.5875 74.6276 98.7999 75.0591C99.051 75.5264 99.1961 76.0432 99.2248 76.5728Z" fill="url(#paint20_linear)"/>
<defs>
<linearGradient id="paint0_linear" x1="141.5" y1="107" x2="23.5" y2="248" gradientUnits="userSpaceOnUse">
<stop offset="0.302083"/>
<stop offset="1" stop-opacity="0"/>
</linearGradient>
<linearGradient id="paint1_linear" x1="133" y1="94.9998" x2="-77.5" y2="255" gradientUnits="userSpaceOnUse">
<stop offset="0.234375"/>
<stop offset="1" stop-opacity="0"/>
</linearGradient>
<linearGradient id="paint2_linear" x1="55.3414" y1="31.1391" x2="212.71" y2="46.5892" gradientUnits="userSpaceOnUse">
<stop stop-opacity="0"/>
<stop offset="0.87783" stop-opacity="0.75"/>
<stop offset="1"/>
</linearGradient>
<linearGradient id="paint3_linear" x1="100.936" y1="121.34" x2="101.745" y2="55.1263" gradientUnits="userSpaceOnUse">
<stop stop-opacity="0"/>
<stop offset="0.639117" stop-opacity="0.75"/>
<stop offset="1"/>
</linearGradient>
<linearGradient id="paint4_linear" x1="161.842" y1="40.312" x2="161.842" y2="124.365" gradientUnits="userSpaceOnUse">
<stop offset="0.9999" stop-color="white"/>
<stop offset="1" stop-color="white" stop-opacity="0"/>
</linearGradient>
<linearGradient id="paint5_linear" x1="174.231" y1="23.4646" x2="141.624" y2="93.941" gradientUnits="userSpaceOnUse">
<stop offset="0.01" stop-opacity="0.53"/>
<stop offset="0.83" stop-opacity="0.07"/>
<stop offset="1" stop-opacity="0"/>
</linearGradient>
<linearGradient id="paint6_linear" x1="158.648" y1="78.744" x2="161.728" y2="66.044" gradientUnits="userSpaceOnUse">
<stop stop-opacity="0"/>
<stop offset="0.72" stop-opacity="0.51"/>
<stop offset="0.99"/>
</linearGradient>
<linearGradient id="paint7_linear" x1="140.591" y1="28.9779" x2="65.6683" y2="98.0478" gradientUnits="userSpaceOnUse">
<stop offset="0.01" stop-opacity="0.53"/>
<stop offset="0.83" stop-opacity="0.07"/>
<stop offset="1" stop-opacity="0"/>
</linearGradient>
<linearGradient id="paint8_linear" x1="202" y1="38.8846" x2="217.011" y2="38.8846" gradientUnits="userSpaceOnUse">
<stop stop-color="#E5C5D5"/>
<stop offset="0.42" stop-color="#EAD4D1"/>
<stop offset="1" stop-color="#F0E9CB"/>
</linearGradient>
<linearGradient id="paint9_linear" x1="123.404" y1="69.9426" x2="123.404" y2="118.86" gradientUnits="userSpaceOnUse">
<stop offset="0.9999" stop-color="white"/>
<stop offset="1" stop-color="white" stop-opacity="0"/>
</linearGradient>
<linearGradient id="paint10_linear" x1="123.402" y1="69.9624" x2="123.402" y2="118.883" gradientUnits="userSpaceOnUse">
<stop offset="0.9999" stop-color="white"/>
<stop offset="1" stop-color="white" stop-opacity="0"/>
</linearGradient>
<linearGradient id="paint11_linear" x1="3927.51" y1="859.008" x2="4139.09" y2="1085.69" gradientUnits="userSpaceOnUse">
<stop stop-opacity="0"/>
<stop offset="0.99"/>
</linearGradient>
<linearGradient id="paint12_linear" x1="9576.85" y1="5350.15" x2="9406.03" y2="9794.26" gradientUnits="userSpaceOnUse">
<stop stop-opacity="0"/>
<stop offset="0.99"/>
</linearGradient>
<linearGradient id="paint13_linear" x1="103" y1="119" x2="101.5" y2="140.5" gradientUnits="userSpaceOnUse">
<stop/>
<stop offset="1" stop-opacity="0"/>
</linearGradient>
<linearGradient id="paint14_linear" x1="158.975" y1="69.7158" x2="158.975" y2="77.1283" gradientUnits="userSpaceOnUse">
<stop offset="0.9999" stop-color="white"/>
<stop offset="1" stop-color="white" stop-opacity="0"/>
</linearGradient>
<linearGradient id="paint15_linear" x1="101.662" y1="120.123" x2="110.96" y2="120.123" gradientUnits="userSpaceOnUse">
<stop stop-color="#E5C5D5"/>
<stop offset="0.42" stop-color="#EAD4D1"/>
<stop offset="1" stop-color="#F0E9CB"/>
</linearGradient>
<linearGradient id="paint16_linear" x1="130.013" y1="108.119" x2="67.2902" y2="95.4083" gradientUnits="userSpaceOnUse">
<stop offset="0.079127"/>
<stop offset="0.83" stop-opacity="0.07"/>
<stop offset="1" stop-opacity="0"/>
</linearGradient>
<linearGradient id="paint17_linear" x1="149.541" y1="59.8192" x2="171.903" y2="59.8192" gradientUnits="userSpaceOnUse">
<stop stop-color="#E5C5D5"/>
<stop offset="0.42" stop-color="#EAD4D1"/>
<stop offset="1" stop-color="#F0E9CB"/>
</linearGradient>
<linearGradient id="paint18_linear" x1="165" y1="28.5" x2="135" y2="111" gradientUnits="userSpaceOnUse">
<stop/>
<stop offset="1" stop-opacity="0"/>
</linearGradient>
<linearGradient id="paint19_linear" x1="149.801" y1="65.1206" x2="149.801" y2="78.9826" gradientUnits="userSpaceOnUse">
<stop stop-color="white"/>
<stop offset="1" stop-color="white" stop-opacity="0"/>
</linearGradient>
<linearGradient id="paint20_linear" x1="66.9071" y1="77.2433" x2="61.377" y2="61.7351" gradientUnits="userSpaceOnUse">
<stop offset="0.02" stop-color="white" stop-opacity="0"/>
<stop offset="1" stop-color="white"/>
</linearGradient>
</defs>
</svg>
