<svg width="208" height="208" viewBox="0 0 208 208" fill="none" xmlns="http://www.w3.org/2000/svg">
<path d="M175.439 135.062H151.794C149.275 135.062 147.233 137.104 147.233 139.623V167.048C147.233 169.567 149.275 171.609 151.794 171.609H175.439C177.958 171.609 180 169.567 180 167.048V139.623C180 137.104 177.958 135.062 175.439 135.062Z" fill="#6E71FF"/>
<path opacity="0.24" d="M207.995 150.775C208.327 175.661 191.696 199.325 170.959 203.498C161.254 205.46 151.353 203.57 141.497 203.053C120.059 201.947 98.6698 207.386 77.2693 207.957C72.9371 208.073 68.5975 207.957 64.254 207.596C49.9732 206.317 36.0274 201.845 23.1571 194.417C17.6675 191.251 12.3098 187.471 8.3132 182.032C-0.260592 170.378 -1.0863 153.32 0.896908 138.073C2.88012 122.826 7.24242 107.921 7.46487 92.4868C7.62323 81.7111 5.75313 71.0513 5.27429 60.289C4.79546 49.5266 5.90017 38.1134 11.2579 29.4019C16.6155 20.6904 25.5324 15.9155 34.4644 13.838C43.3964 11.7604 52.5621 12.0324 61.66 11.3636C80.4779 9.99937 98.9036 4.57362 117.612 1.86744C145.513 -2.17624 190.38 -3.48252 193.468 39.6961C193.705 43.2674 193.77 46.8517 193.664 50.4317C193.393 62.3576 191.843 74.3282 193.125 86.1649C195.523 108.407 207.693 128.363 207.995 150.775Z" fill="#6E71FF"/>
<path d="M60.2057 135.062H36.5606C34.0418 135.062 32 137.104 32 139.623V167.048C32 169.567 34.0418 171.609 36.5606 171.609H60.2057C62.7244 171.609 64.7663 169.567 64.7663 167.048V139.623C64.7663 137.104 62.7244 135.062 60.2057 135.062Z" fill="#6E71FF"/>
<path d="M114.72 135.062H91.0752C88.5565 135.062 86.5146 137.104 86.5146 139.623V167.048C86.5146 169.567 88.5565 171.609 91.0752 171.609H114.72C117.239 171.609 119.281 169.567 119.281 167.048V139.623C119.281 137.104 117.239 135.062 114.72 135.062Z" fill="#6E71FF"/>
<path d="M103.471 94.7305V123.096M103.471 123.096H163.189V135.505M103.471 123.096V135.505M103.471 123.096H48.3984V135.505" stroke="#6E71FF" stroke-width="0.886413"/>
<path d="M113.054 79.4752V72.3947H94.8467V79.4752L103.95 87.5673L113.054 79.4752Z" fill="#E5C5D5"/>
<path d="M127.13 82.7873L114.613 79.8422C114.424 79.7977 114.25 79.7222 114.088 79.6306L103.95 85.5444L94.2074 79.3446C93.9552 79.582 93.6421 79.7585 93.2865 79.8423L80.7698 82.7874C78.9421 83.2175 77.6504 84.8483 77.6504 86.7259V94.6481C77.6504 95.7655 78.5561 96.6711 79.6734 96.6711H128.226C129.344 96.6711 130.249 95.7654 130.249 94.6481V86.7259C130.249 84.8482 128.958 83.2172 127.13 82.7873Z" fill="#6E71FF"/>
<path d="M127.13 82.7873L114.613 79.8422C114.424 79.7977 114.25 79.7222 114.088 79.6306L103.95 85.5444L94.2074 79.3446C93.9552 79.582 93.6421 79.7585 93.2865 79.8423L80.7698 82.7874C78.9421 83.2175 77.6504 84.8483 77.6504 86.7259V94.6481C77.6504 95.7655 78.5561 96.6711 79.6734 96.6711H128.226C129.344 96.6711 130.249 95.7654 130.249 94.6481V86.7259C130.249 84.8482 128.958 83.2172 127.13 82.7873Z" fill="url(#paint0_linear)"/>
<path d="M94.8467 72.3945V79.8651C106.315 83.9969 113.054 73.6559 113.054 73.6559V72.3944H94.8467V72.3945Z" fill="#D1B4C2"/>
<path d="M90.7998 49.1299L91.6812 68.522C91.7635 70.3336 92.6518 72.0136 94.1026 73.1017L98.2849 76.2385C99.3355 77.0263 100.613 77.4524 101.926 77.4524H105.973C107.286 77.4524 108.563 77.0264 109.614 76.2385L113.796 73.1017C115.247 72.0135 116.135 70.3337 116.218 68.522L117.099 49.1299H90.7998Z" fill="#E5C5D5"/>
<path d="M90.7998 49.1299L91.6812 68.522C91.7635 70.3336 92.6518 72.0136 94.1026 73.1017L98.2849 76.2385C99.3355 77.0263 100.613 77.4524 101.926 77.4524H105.973C107.286 77.4524 108.563 77.0264 109.614 76.2385L113.796 73.1017C115.247 72.0135 116.135 70.3337 116.218 68.522L117.099 49.1299H90.7998Z" fill="url(#paint1_linear)"/>
<path d="M100.915 53.1758C104.961 53.1758 111.03 52.1643 112.47 49.1296H90.7998L91.6812 68.5218C91.7635 70.3333 92.6518 72.0133 94.1027 73.1014L98.2851 76.2383C99.3356 77.0261 100.613 77.4521 101.927 77.4521H103.95C101.927 77.4521 97.8804 73.406 97.8804 68.3485C97.8804 65.8749 97.8804 59.2449 97.8804 56.2103C97.8804 55.1988 98.8919 53.1758 100.915 53.1758Z" fill="#E5C5D5"/>
<path d="M100.915 53.1758C104.961 53.1758 111.03 52.1643 112.47 49.1296H90.7998L91.6812 68.5218C91.7635 70.3333 92.6518 72.0133 94.1027 73.1014L98.2851 76.2383C99.3356 77.0261 100.613 77.4521 101.927 77.4521H103.95C101.927 77.4521 97.8804 73.406 97.8804 68.3485C97.8804 65.8749 97.8804 59.2449 97.8804 56.2103C97.8804 55.1988 98.8919 53.1758 100.915 53.1758Z" fill="url(#paint2_linear)"/>
<path d="M85.0762 90.1063L78.5216 84.2184C77.9724 84.9138 77.6504 85.789 77.6504 86.7259V94.6481C77.6504 95.7654 78.5561 96.6711 79.6734 96.6711H86.754V93.8688C86.7539 92.4333 86.1439 91.0655 85.0762 90.1063Z" fill="#6E71FF"/>
<path d="M85.0762 90.1063L78.5216 84.2184C77.9724 84.9138 77.6504 85.789 77.6504 86.7259V94.6481C77.6504 95.7654 78.5561 96.6711 79.6734 96.6711H86.754V93.8688C86.7539 92.4333 86.1439 91.0655 85.0762 90.1063Z" fill="url(#paint3_linear)"/>
<path d="M122.823 90.1063L129.378 84.2184C129.927 84.9138 130.249 85.789 130.249 86.7259V94.6481C130.249 95.7654 129.343 96.6711 128.226 96.6711H121.146V93.8688C121.146 92.4333 121.755 91.0655 122.823 90.1063Z" fill="#6E71FF"/>
<path d="M122.823 90.1063L129.378 84.2184C129.927 84.9138 130.249 85.789 130.249 86.7259V94.6481C130.249 95.7654 129.343 96.6711 128.226 96.6711H121.146V93.8688C121.146 92.4333 121.755 91.0655 122.823 90.1063Z" fill="url(#paint4_linear)"/>
<path d="M94.7039 77.2231L103.95 85.5442C103.95 85.5442 101.36 86.8513 98.1651 89.4859C97.5059 90.0293 96.5089 89.8092 96.1554 89.0314L91.8115 79.4752L93.1857 77.414C93.5276 76.9006 94.2455 76.8106 94.7039 77.2231Z" fill="#6E71FF"/>
<path d="M94.7039 77.2231L103.95 85.5442C103.95 85.5442 101.36 86.8513 98.1651 89.4859C97.5059 90.0293 96.5089 89.8092 96.1554 89.0314L91.8115 79.4752L93.1857 77.414C93.5276 76.9006 94.2455 76.8106 94.7039 77.2231Z" fill="url(#paint5_linear)"/>
<path d="M113.195 77.2231L103.949 85.5442C103.949 85.5442 106.539 86.8513 109.734 89.4859C110.393 90.0293 111.39 89.8092 111.744 89.0314L116.087 79.4752L114.713 77.414C114.371 76.9006 113.653 76.8106 113.195 77.2231Z" fill="#6E71FF"/>
<path d="M113.195 77.2231L103.949 85.5442C103.949 85.5442 106.539 86.8513 109.734 89.4859C110.393 90.0293 111.39 89.8092 111.744 89.0314L116.087 79.4752L114.713 77.414C114.371 76.9006 113.653 76.8106 113.195 77.2231Z" fill="url(#paint6_linear)"/>
<path d="M110.082 42.4285L111.03 49.1298C115.359 49.9955 115.983 56.7887 116.073 58.729C116.089 59.0811 116.201 59.4211 116.392 59.7174L118.044 62.2794C118.044 62.2794 117.479 58.0436 120.067 55.1988C120.067 55.1988 120.956 38.3823 110.082 42.4285Z" fill="#6E71FF"/>
<path d="M110.082 42.4285L111.03 49.1298C115.359 49.9955 115.983 56.7887 116.073 58.729C116.089 59.0811 116.201 59.4211 116.392 59.7174L118.044 62.2794C118.044 62.2794 117.479 58.0436 120.067 55.1988C120.067 55.1988 120.956 38.3823 110.082 42.4285Z" fill="url(#paint7_linear)"/>
<path d="M119.059 61.8482L117.917 66.4159C117.782 66.9574 117.295 67.337 116.737 67.337C116.124 67.337 115.606 66.8803 115.53 66.2718L114.946 61.5998C114.79 60.3493 115.765 59.2449 117.025 59.2449H117.026C118.389 59.245 119.389 60.5258 119.059 61.8482Z" fill="#E5C5D5"/>
<path d="M91.7695 40.6161L93.2656 41.6382C86.5012 46.6325 87.7655 55.1989 87.7655 55.1989C89.7885 57.2219 89.7885 62.2795 89.7885 62.2795L91.8115 60.2565C91.8115 60.2565 91.0308 54.4125 94.846 52.1643C98.3863 50.0781 101.484 51.1528 104.645 51.1528C113.116 51.1528 115.487 47.9602 115.076 44.0722C114.864 42.0605 111.788 37.8698 103.95 38.0031C100.787 38.0568 94.8462 39.0146 91.7695 40.6161Z" fill="#6E71FF"/>
<path d="M91.7695 40.6161L93.2656 41.6382C86.5012 46.6325 87.7655 55.1989 87.7655 55.1989C89.7885 57.2219 89.7885 62.2795 89.7885 62.2795L91.8115 60.2565C91.8115 60.2565 91.0308 54.4125 94.846 52.1643C98.3863 50.0781 101.484 51.1528 104.645 51.1528C113.116 51.1528 115.487 47.9602 115.076 44.0722C114.864 42.0605 111.788 37.8698 103.95 38.0031C100.787 38.0568 94.8462 39.0146 91.7695 40.6161Z" fill="url(#paint8_linear)"/>
<path d="M91.1794 50.2677C91.1794 50.2677 90.1046 46.032 93.2656 41.6383C86.5012 46.6327 87.7655 55.199 87.7655 55.199C89.7885 57.222 89.7885 62.2796 89.7885 62.2796L91.8115 60.2566C91.8115 60.2566 91.0308 54.4126 94.846 52.1645C98.3863 50.0782 101.484 51.153 104.645 51.153C106.023 51.153 107.223 51.0607 108.293 50.9026C101.769 51.1212 97.923 46.1795 91.1794 50.2677Z" fill="#6E71FF"/>
<path d="M91.1794 50.2677C91.1794 50.2677 90.1046 46.032 93.2656 41.6383C86.5012 46.6327 87.7655 55.199 87.7655 55.199C89.7885 57.222 89.7885 62.2796 89.7885 62.2796L91.8115 60.2566C91.8115 60.2566 91.0308 54.4126 94.846 52.1645C98.3863 50.0782 101.484 51.153 104.645 51.153C106.023 51.153 107.223 51.0607 108.293 50.9026C101.769 51.1212 97.923 46.1795 91.1794 50.2677Z" fill="url(#paint9_linear)"/>
<path d="M88.8409 61.8482L89.9828 66.4159C90.1182 66.9574 90.6045 67.337 91.1627 67.337C91.7761 67.337 92.2934 66.8803 92.3694 66.2718L92.9535 61.5998C93.1098 60.3493 92.1349 59.2449 90.8746 59.2449H90.8737C89.5105 59.245 88.5103 60.5258 88.8409 61.8482Z" fill="#E5C5D5"/>
<path d="M117.1 94.6478H110.019C109.461 94.6478 109.008 95.1007 109.008 95.6593V96.6708H118.111V95.6593C118.111 95.1008 117.658 94.6478 117.1 94.6478Z" fill="#6E71FF"/>
<path d="M117.1 94.6478H110.019C109.461 94.6478 109.008 95.1007 109.008 95.6593V96.6708H118.111V95.6593C118.111 95.1008 117.658 94.6478 117.1 94.6478Z" fill="url(#paint10_linear)"/>
<defs>
<linearGradient id="paint0_linear" x1="103.95" y1="91.1132" x2="106.7" y2="127.038" gradientUnits="userSpaceOnUse">
<stop stop-color="white"/>
<stop offset="1" stop-color="white" stop-opacity="0"/>
</linearGradient>
<linearGradient id="paint1_linear" x1="103.949" y1="49.1299" x2="102.574" y2="84.8679" gradientUnits="userSpaceOnUse">
<stop stop-color="#FFE3CA"/>
<stop offset="1" stop-color="#FFE3FF" stop-opacity="0"/>
</linearGradient>
<linearGradient id="paint2_linear" x1="101.635" y1="49.1296" x2="101.635" y2="77.4521" gradientUnits="userSpaceOnUse">
<stop stop-color="#FFDCBB"/>
<stop offset="1" stop-color="#FFE3CA" stop-opacity="0"/>
</linearGradient>
<linearGradient id="paint3_linear" x1="82.2022" y1="84.2184" x2="84.2396" y2="125.204" gradientUnits="userSpaceOnUse">
<stop offset="0.206142" stop-color="white"/>
<stop offset="1" stop-color="white" stop-opacity="0"/>
</linearGradient>
<linearGradient id="paint4_linear" x1="125.722" y1="90.4829" x2="125.722" y2="125.491" gradientUnits="userSpaceOnUse">
<stop stop-color="white"/>
<stop offset="1" stop-color="white" stop-opacity="0"/>
</linearGradient>
<linearGradient id="paint5_linear" x1="97.8806" y1="76.9634" x2="97.8759" y2="124.459" gradientUnits="userSpaceOnUse">
<stop stop-color="white"/>
<stop offset="1" stop-color="white" stop-opacity="0"/>
</linearGradient>
<linearGradient id="paint6_linear" x1="110.018" y1="76.9634" x2="110.022" y2="130.705" gradientUnits="userSpaceOnUse">
<stop offset="0.0216172" stop-color="white"/>
<stop offset="1" stop-color="white" stop-opacity="0"/>
</linearGradient>
<linearGradient id="paint7_linear" x1="115.867" y1="42.9846" x2="115.065" y2="72.6638" gradientUnits="userSpaceOnUse">
<stop/>
<stop offset="1" stop-color="#030303" stop-opacity="0"/>
</linearGradient>
<linearGradient id="paint8_linear" x1="101.396" y1="38" x2="101.396" y2="62.2795" gradientUnits="userSpaceOnUse">
<stop/>
<stop offset="1" stop-opacity="0"/>
</linearGradient>
<linearGradient id="paint9_linear" x1="97.9823" y1="41.6383" x2="97.9823" y2="62.2796" gradientUnits="userSpaceOnUse">
<stop offset="0.116629" stop-color="#020202"/>
<stop offset="1" stop-color="#1C1C1C" stop-opacity="0"/>
</linearGradient>
<linearGradient id="paint10_linear" x1="113.56" y1="94.6478" x2="113.576" y2="104.177" gradientUnits="userSpaceOnUse">
<stop stop-color="white"/>
<stop offset="1" stop-color="white" stop-opacity="0"/>
</linearGradient>
</defs>
</svg>
