<svg width="240" height="240" viewBox="0 0 240 240" fill="none" xmlns="http://www.w3.org/2000/svg">
<g clip-path="url(#clip0)">
<path opacity="0.18" d="M239.95 154.727C239.881 156.687 239.758 158.646 239.553 160.645C238.104 175.113 232.779 189.561 221.302 198.869C207.672 209.914 188.34 211.54 170.479 210.913C152.617 210.286 134.298 207.974 117.202 212.958C107.843 215.688 99.2784 220.508 89.9409 223.291C72.1681 228.582 52.1737 225.962 36.2193 216.838C20.2648 207.713 8.49378 192.363 3.55159 175.237C2.62777 172.016 1.91096 168.744 1.40519 165.439C-1.41111 147.347 1.3505 128.535 0.947199 110.083C0.591744 93.682 -2.21772 76.6996 3.93439 61.3696C8.03579 51.1605 15.8421 42.7346 24.7764 36.0658C56.0359 12.7802 95.4026 0.239277 134.831 0.00413512C158.318 -0.139563 182.325 3.43982 202.935 14.2041C209.634 17.6986 215.998 22.0422 220.707 27.7378C224.214 31.9965 226.716 36.9345 228.773 41.977C232.333 50.7318 234.632 59.9076 235.609 69.2534C236.867 81.3959 235.876 93.6494 236.382 105.831C237.086 122.173 240.449 138.392 239.95 154.727Z" fill="#6E71FF"/>
<path opacity="0.2" d="M240 157L239.918 157.979C238.703 171.971 235.218 185.887 228.433 196.841C226.466 200.039 224.203 202.954 221.689 205.53C208.008 219.563 188.606 221.629 170.679 220.832C152.752 220.036 134.366 217.098 117.207 223.43C107.815 226.899 99.218 233.023 89.8463 236.558C72.0084 243.28 51.9408 239.952 35.9279 228.359C25.3938 220.619 16.6589 209.768 10.5433 196.825C7.34137 190.133 4.85833 182.974 3.15426 175.522C2.22706 171.43 1.50763 167.273 1 163.075L91.7467 160.759L240 157Z" fill="#6E71FF"/>
<path d="M125 68.8468C106.439 69.6901 87.7464 66.7733 69.0963 66.8468C51.8181 66.9242 34.1201 69.5083 17.553 64.58C15.2446 63.8875 12.4815 62.2047 13.0838 59.8721C20.9302 58.0114 27.5368 52.8084 35.0878 49.9225C41.9691 47.3019 49.4498 46.6507 56.6837 48.0425C61.0052 48.9013 65.3539 50.4641 69.7026 49.7717C73.2974 49.1991 76.4375 47.1257 79.7447 45.6402C81.8277 44.6924 84.4703 44.2089 87.3423 44C94.3375 47.0367 102.005 49.0289 108.662 52.7774C115.545 56.6574 120.982 62.2473 125 68.8468Z" fill="url(#paint0_linear)"/>
<path d="M240 158C238.785 171.681 235.299 185.289 228.512 196H10.5457C7.34301 189.457 4.85933 182.457 3.15482 175.17C2.22738 171.169 1.50776 167.104 1 162.999L91.7702 160.735L240 158Z" fill="url(#paint1_linear)"/>
<path d="M149.267 134.408C150.091 142.097 147.365 157.913 138.833 161.032C136.735 161.799 134.459 161.894 132.221 161.963C123.473 162.251 114.721 162.323 105.965 162.179C102.463 162.195 98.9652 161.954 95.4991 161.456C93.813 161.177 92.0697 160.753 90.7575 159.656C88.5452 157.792 88.1839 154.236 89.6736 151.751C91.1632 149.266 94.1679 147.948 97.0585 148.043C95.8868 148.124 94.7153 147.883 93.671 147.345C92.6266 146.808 91.7493 145.995 91.1341 144.994C90.5189 143.994 90.1893 142.844 90.181 141.669C90.1728 140.495 90.4861 139.341 91.0872 138.331C93.122 134.921 97.6417 134.148 101.591 133.723C99.106 130.744 97.2551 127.073 97.1536 123.194C97.0522 119.314 98.9919 115.251 102.466 113.521C105.94 111.79 110.821 113.039 112.462 116.557C111.195 109.971 112.919 102.731 117.489 97.8187C121.597 93.3814 129.914 89.914 135.872 92.57C141.578 95.1056 143.701 103.765 144.963 109.178C146.91 117.493 148.347 125.918 149.267 134.408Z" fill="#6E71FF"/>
<path d="M149.267 134.408C150.091 142.097 147.365 157.913 138.833 161.032C136.735 161.799 134.459 161.894 132.221 161.963C123.473 162.251 114.721 162.323 105.965 162.179C102.463 162.195 98.9652 161.954 95.4991 161.456C93.813 161.177 92.0697 160.753 90.7575 159.656C88.5452 157.792 88.1839 154.236 89.6736 151.751C91.1632 149.266 94.1679 147.948 97.0585 148.043C95.8868 148.124 94.7153 147.883 93.671 147.345C92.6266 146.808 91.7493 145.995 91.1341 144.994C90.5189 143.994 90.1893 142.844 90.181 141.669C90.1728 140.495 90.4861 139.341 91.0872 138.331C93.122 134.921 97.6417 134.148 101.591 133.723C99.106 130.744 97.2551 127.073 97.1536 123.194C97.0522 119.314 98.9919 115.251 102.466 113.521C105.94 111.79 110.821 113.039 112.462 116.557C111.195 109.971 112.919 102.731 117.489 97.8187C121.597 93.3814 129.914 89.914 135.872 92.57C141.578 95.1056 143.701 103.765 144.963 109.178C146.91 117.493 148.347 125.918 149.267 134.408Z" fill="url(#paint2_linear)"/>
<path d="M212.093 48.9646H199.415V80.6534H212.093V48.9646Z" fill="#6E71FF"/>
<path d="M212.093 48.9646H199.415V80.6534H212.093V48.9646Z" fill="url(#paint3_linear)"/>
<path d="M213.21 44.4707H198.294C197.482 44.4707 196.823 45.1291 196.823 45.9414V49.0728C196.823 49.8851 197.482 50.5435 198.294 50.5435H213.21C214.022 50.5435 214.68 49.8851 214.68 49.0728V45.9414C214.68 45.1291 214.022 44.4707 213.21 44.4707Z" fill="#6E71FF"/>
<path d="M167.459 41.0403L121.773 86.5165V99.3974V159.346H218.425V99.3974V90.8143L167.459 41.0403Z" fill="#6E71FF"/>
<path d="M167.459 41.0403L121.773 86.5165V99.3974V159.346H218.425V99.3974V90.8143L167.459 41.0403Z" fill="url(#paint4_linear)"/>
<g style="mix-blend-mode:multiply" opacity="0.2">
<path d="M168.785 37.9419L121.781 84.8127V92.2737L168.785 47.7103L218.439 94.784V90.0931C218.716 90.0948 218.987 90.0128 219.217 89.8577C219.446 89.7027 219.624 89.4819 219.726 89.2243C219.828 88.9667 219.85 88.6843 219.789 88.414C219.728 88.1437 219.586 87.8982 219.383 87.7096L168.785 37.9419Z" fill="#6E71FF"/>
</g>
<path d="M222.191 159.345H118.016V167.003H222.191V159.345Z" fill="#6E71FF"/>
<path d="M171.226 110.954H133.99V141.85H171.226V110.954Z" fill="#6E71FF"/>
<path d="M171.226 110.954H133.99V141.85H171.226V110.954Z" fill="url(#paint5_linear)"/>
<path d="M208.454 109.565H183.896V159.346H208.454V109.565Z" fill="#6E71FF"/>
<path d="M206.47 112.736H185.887V156.767H206.47V112.736Z" fill="#6E71FF"/>
<path d="M206.47 112.736H185.887V156.767H206.47V112.736Z" fill="url(#paint6_linear)"/>
<path d="M209.172 106.796H183.321C182.73 106.796 182.25 107.275 182.25 107.867V109.883C182.25 110.474 182.73 110.954 183.321 110.954H209.172C209.763 110.954 210.243 110.474 210.243 109.883V107.867C210.243 107.275 209.763 106.796 209.172 106.796Z" fill="#6E71FF"/>
<path d="M166.6 37.8902L116.223 86.8846C115.791 87.3256 115.496 87.8835 115.377 88.4896C115.257 89.0957 115.317 89.7236 115.549 90.2961C115.781 90.8686 116.176 91.3607 116.684 91.7119C117.193 92.063 117.793 92.258 118.41 92.2727C119.218 92.2736 119.995 91.9625 120.578 91.4043L166.625 47.5889C167.207 47.0332 167.982 46.7232 168.787 46.7232C169.592 46.7232 170.366 47.0332 170.948 47.5889L216.995 91.4043C217.577 91.9615 218.351 92.2727 219.156 92.2727C219.774 92.258 220.374 92.063 220.882 91.7119C221.391 91.3607 221.785 90.8686 222.018 90.2961C222.25 89.7236 222.31 89.0957 222.19 88.4896C222.07 87.8835 221.776 87.3256 221.343 86.8846L170.974 37.8902C170.389 37.3195 169.604 37 168.787 37C167.969 37 167.184 37.3195 166.6 37.8902Z" fill="#6E71FF"/>
<path d="M172.297 109.565H132.919V110.954H172.297V109.565Z" fill="#6E71FF"/>
<path d="M144.323 110.954H143.067V139.276H144.323V110.954Z" fill="#6E71FF"/>
<path d="M153.234 110.954H151.979V139.276H153.234V110.954Z" fill="#6E71FF"/>
<path d="M162.147 110.954H160.892V139.276H162.147V110.954Z" fill="#6E71FF"/>
<path d="M171.226 125.876H133.99V126.935H171.226V125.876Z" fill="#6E71FF"/>
<path d="M170.091 139.752C170.693 139.437 171.203 138.972 171.571 138.4C171.939 137.829 172.152 137.172 172.189 136.494C172.189 135.86 171.967 135.137 171.365 135.048C171.109 135.037 170.854 135.096 170.629 135.22C169.945 135.544 169.334 136.006 168.835 136.576C169.019 135.96 169.094 135.316 169.057 134.674C169.06 134.319 168.949 133.972 168.742 133.684C168.535 133.395 168.241 133.18 167.904 133.068C167.566 132.957 167.202 132.956 166.864 133.064C166.526 133.173 166.231 133.386 166.021 133.673C165.538 134.253 165.195 134.936 165.019 135.67C164.622 134.608 163.932 133.68 163.029 132.995C162.878 132.869 162.7 132.78 162.509 132.735C162.288 132.722 162.067 132.775 161.875 132.887C161.316 133.174 160.841 133.602 160.499 134.129C160.156 134.656 159.958 135.264 159.923 135.892C159.861 135.665 159.733 135.463 159.554 135.311C159.375 135.16 159.154 135.066 158.921 135.042C158.806 135.04 158.692 135.063 158.588 135.111C158.483 135.159 158.391 135.229 158.317 135.318C158.243 135.406 158.191 135.509 158.162 135.621C158.134 135.732 158.131 135.849 158.154 135.961C157.713 135.502 157.157 135.169 156.544 134.997C155.931 134.826 155.283 134.821 154.668 134.985C154.061 135.176 153.542 135.576 153.201 136.113C152.86 136.65 152.719 137.29 152.804 137.92C152.654 137.859 152.492 137.832 152.33 137.839C152.168 137.847 152.009 137.891 151.866 137.966C151.722 138.042 151.597 138.147 151.498 138.276C151.4 138.405 151.331 138.554 151.295 138.712C151.245 139.039 151.266 139.372 151.357 139.689C151.447 140.007 151.606 140.301 151.822 140.551" fill="#6E71FF"/>
<path d="M134.294 139.688L132.862 138.484C132.547 138.274 132.322 137.956 132.228 137.59C132.164 136.956 132.862 136.544 133.495 136.646C134.086 136.811 134.61 137.154 134.998 137.628C134.82 136.31 134.725 134.769 135.695 133.825C136.083 133.505 136.555 133.305 137.055 133.247C137.554 133.19 138.059 133.278 138.51 133.502C139.404 133.971 140.105 134.738 140.494 135.67C140.931 134.281 141.783 133.06 142.934 132.17C143.014 132.079 143.114 132.006 143.225 131.958C143.336 131.91 143.457 131.887 143.579 131.891C143.7 131.895 143.819 131.927 143.927 131.983C144.035 132.039 144.129 132.118 144.202 132.215C144.684 132.674 145.064 133.229 145.319 133.843C145.575 134.457 145.7 135.118 145.685 135.784C145.866 135.369 146.089 134.974 146.351 134.605C146.415 134.488 146.519 134.399 146.643 134.351C146.839 134.294 147.023 134.446 147.169 134.586C147.549 134.96 147.929 135.454 147.803 135.967C148.012 135.125 148.451 134.357 149.07 133.749C149.704 133.197 150.883 133.147 151.359 133.863C151.575 134.248 151.655 134.694 151.587 135.131C151.501 136.059 151.202 136.955 150.712 137.749C150.712 137.438 151.181 137.318 151.429 137.502C151.541 137.607 151.625 137.739 151.672 137.885C151.72 138.031 151.73 138.187 151.701 138.338C151.701 138.643 151.562 138.94 151.549 139.251" fill="#6E71FF"/>
<path d="M170.091 139.752C170.693 139.437 171.203 138.972 171.571 138.4C171.939 137.829 172.152 137.172 172.189 136.494C172.189 135.86 171.967 135.137 171.365 135.048C171.109 135.037 170.854 135.096 170.629 135.22C169.945 135.544 169.334 136.006 168.835 136.576C169.019 135.96 169.094 135.316 169.057 134.674C169.06 134.319 168.949 133.972 168.742 133.684C168.535 133.395 168.241 133.18 167.904 133.068C167.566 132.957 167.202 132.956 166.864 133.064C166.526 133.173 166.231 133.386 166.021 133.673C165.538 134.253 165.195 134.936 165.019 135.67C164.622 134.608 163.932 133.68 163.029 132.995C162.878 132.869 162.7 132.78 162.509 132.735C162.288 132.722 162.067 132.775 161.875 132.887C161.316 133.174 160.841 133.602 160.499 134.129C160.156 134.656 159.958 135.264 159.923 135.892C159.861 135.665 159.733 135.463 159.554 135.311C159.375 135.16 159.154 135.066 158.921 135.042C158.806 135.04 158.692 135.063 158.588 135.111C158.483 135.159 158.391 135.229 158.317 135.318C158.243 135.406 158.191 135.509 158.162 135.621C158.134 135.732 158.131 135.849 158.154 135.961C157.713 135.502 157.157 135.169 156.544 134.997C155.931 134.826 155.283 134.821 154.668 134.985C154.061 135.176 153.542 135.576 153.201 136.113C152.86 136.65 152.719 137.29 152.804 137.92C152.654 137.859 152.492 137.832 152.33 137.839C152.168 137.847 152.009 137.891 151.866 137.966C151.722 138.042 151.597 138.147 151.498 138.276C151.4 138.405 151.331 138.554 151.295 138.712C151.245 139.039 151.266 139.372 151.357 139.689C151.447 140.007 151.606 140.301 151.822 140.551" fill="url(#paint7_linear)"/>
<path d="M171.111 139.277H134.11C132.815 139.277 131.765 140.327 131.765 141.623V145.648C131.765 146.943 132.815 147.993 134.11 147.993H171.111C172.406 147.993 173.456 146.943 173.456 145.648V141.623C173.456 140.327 172.406 139.277 171.111 139.277Z" fill="#6E71FF"/>
<path d="M134.294 139.688L132.862 138.484C132.547 138.274 132.322 137.956 132.228 137.59C132.164 136.956 132.862 136.544 133.495 136.646C134.086 136.811 134.61 137.154 134.998 137.628C134.82 136.31 134.725 134.769 135.695 133.825C136.083 133.505 136.555 133.305 137.055 133.247C137.554 133.19 138.059 133.278 138.51 133.502C139.404 133.971 140.105 134.738 140.494 135.67C140.931 134.281 141.783 133.06 142.934 132.17C143.014 132.079 143.114 132.006 143.225 131.958C143.336 131.91 143.457 131.887 143.579 131.891C143.7 131.895 143.819 131.927 143.927 131.983C144.035 132.039 144.129 132.118 144.202 132.215C144.684 132.674 145.064 133.229 145.319 133.843C145.575 134.457 145.7 135.118 145.685 135.784C145.866 135.369 146.089 134.974 146.351 134.605C146.415 134.488 146.519 134.399 146.643 134.351C146.839 134.294 147.023 134.446 147.169 134.586C147.549 134.96 147.929 135.454 147.803 135.967C148.012 135.125 148.451 134.357 149.07 133.749C149.704 133.197 150.883 133.147 151.359 133.863C151.575 134.248 151.655 134.694 151.587 135.131C151.501 136.059 151.202 136.955 150.712 137.749C150.712 137.438 151.181 137.318 151.429 137.502C151.541 137.607 151.625 137.739 151.672 137.885C151.72 138.031 151.73 138.187 151.701 138.338C151.701 138.643 151.562 138.94 151.549 139.251" fill="url(#paint8_linear)"/>
<path d="M47.4777 194.353C37.6225 194.276 27.6601 194.723 18.0158 192.707C17.8123 189.962 19.6214 187.373 21.9557 185.919C24.29 184.465 27.0793 183.947 29.8057 183.596C38.4512 182.486 47.1928 182.704 55.9234 182.948C76.085 183.506 96.2454 184.122 116.405 184.798C126.484 185.133 136.564 185.485 146.643 185.852C152.932 186.078 156.606 187.465 160.701 190.362C161.153 190.675 161.506 191.111 161.719 191.618C161.931 192.126 161.993 192.684 161.898 193.226C161.803 193.767 161.555 194.271 161.183 194.676C160.811 195.081 160.33 195.371 159.798 195.511C143.077 199.877 123.629 198.745 106.897 197.853C87.0906 196.806 67.3396 194.505 47.4777 194.353Z" fill="url(#paint9_linear)"/>
<path d="M112.513 190.099C110.741 190.399 109.032 190.987 107.267 191.313C105.048 191.723 102.754 191.705 100.49 191.683C83.8794 191.428 67.2928 190.317 50.7965 188.353C49.6883 188.286 48.6004 188.025 47.5817 187.584C46.5903 187.088 45.806 186.267 44.9145 185.608C42.1584 183.574 38.5108 183.167 35.0926 183.433C31.6744 183.699 28.3264 184.561 24.9082 184.78C24.4267 184.854 23.934 184.78 23.495 184.569C22.7071 184.092 22.6812 182.978 22.7552 182.064C23.0585 178.572 23.6689 174.78 26.2659 172.446C29.0256 169.949 33.1282 169.856 36.8461 169.908C39.8944 169.949 42.9686 169.993 45.9429 170.648C49.0985 171.358 52.0543 172.757 55.1581 173.663C61.3878 175.476 68.006 175.25 74.491 175.01L110.423 173.674C115.391 173.493 120.456 173.304 125.243 174.651C130.03 175.997 137.425 180.481 136.981 186.393C136.611 191.472 135.738 193.447 132.275 193.174C128.073 192.822 116.716 189.382 112.513 190.099Z" fill="#6E71FF"/>
<path d="M112.513 190.099C110.741 190.399 109.032 190.987 107.267 191.313C105.048 191.723 102.754 191.705 100.49 191.683C83.8794 191.428 67.2928 190.317 50.7965 188.353C49.6883 188.286 48.6004 188.025 47.5817 187.584C46.5903 187.088 45.806 186.267 44.9145 185.608C42.1584 183.574 38.5108 183.167 35.0926 183.433C31.6744 183.699 28.3264 184.561 24.9082 184.78C24.4267 184.854 23.934 184.78 23.495 184.569C22.7071 184.092 22.6812 182.978 22.7552 182.064C23.0585 178.572 23.6689 174.78 26.2659 172.446C29.0256 169.949 33.1282 169.856 36.8461 169.908C39.8944 169.949 42.9686 169.993 45.9429 170.648C49.0985 171.358 52.0543 172.757 55.1581 173.663C61.3878 175.476 68.006 175.25 74.491 175.01L110.423 173.674C115.391 173.493 120.456 173.304 125.243 174.651C130.03 175.997 137.425 180.481 136.981 186.393C136.611 191.472 135.738 193.447 132.275 193.174C128.073 192.822 116.716 189.382 112.513 190.099Z" fill="url(#paint10_linear)"/>
<path d="M132.282 193.155L132.97 193.199C142.271 193.873 155.907 191.172 157.782 190.221C159.658 189.271 161.149 185.161 160.372 179.686C159.939 182.231 158.933 183.984 157.782 184.558C155.899 185.508 142.271 188.209 132.97 187.536H132.915C132.956 187.95 132.97 188.368 132.97 188.801C132.971 190.279 132.739 191.749 132.282 193.155Z" fill="#6E71FF"/>
<path d="M46.834 188.727L62.8079 190.351C62.8079 190.351 85.4888 191.158 105.284 191.934C105.044 190.902 104.92 189.846 104.914 188.786C104.911 187.942 104.987 187.1 105.144 186.271C85.3778 185.494 62.7968 184.687 62.7968 184.687L47.3001 183.108C47.3743 183.679 47.4126 184.255 47.4148 184.832C47.4233 186.152 47.2273 187.466 46.834 188.727Z" fill="#6E71FF"/>
<path d="M132.282 193.155L132.97 193.199C142.271 193.873 155.907 191.172 157.782 190.221C159.658 189.271 161.149 185.161 160.372 179.686C159.939 182.231 158.933 183.984 157.782 184.558C155.899 185.508 142.271 188.209 132.97 187.536H132.915C132.956 187.95 132.97 188.368 132.97 188.801C132.971 190.279 132.739 191.749 132.282 193.155Z" fill="url(#paint11_linear)"/>
<path d="M46.834 188.727L62.8079 190.351C62.8079 190.351 85.4888 191.157 105.284 191.934C105.044 190.902 104.92 189.846 104.914 188.786C104.911 187.942 104.987 187.1 105.144 186.27C85.3778 185.494 62.7968 184.687 62.7968 184.687L47.3001 183.107C47.3743 183.679 47.4126 184.255 47.4148 184.831C47.4233 186.152 47.2273 187.466 46.834 188.727Z" fill="url(#paint12_linear)"/>
<path d="M23.1467 185.061V184.846C23.1467 177.947 28.5775 172.324 35.277 172.324C41.0407 172.324 45.872 176.478 47.115 182.027C47.2062 182.392 47.2741 182.763 47.3185 183.137L62.8152 184.717C62.8152 184.717 85.3814 185.523 105.162 186.3C105.162 186.182 105.206 186.082 105.221 185.982C105.876 182.823 107.6 179.987 110.102 177.95C112.604 175.914 115.731 174.802 118.957 174.802C122.183 174.802 125.31 175.914 127.812 177.95C130.314 179.987 132.038 182.823 132.693 185.982C132.798 186.495 132.875 187.014 132.922 187.536H132.978C142.278 188.209 155.914 185.508 157.789 184.558C158.94 183.984 159.946 182.231 160.379 179.685C160.379 179.641 160.379 179.611 160.379 179.571C159.558 174.022 156.469 171.477 152.14 168.103C148.289 165.099 135.493 161.533 130.592 160.238L129.212 159.868C127.258 159.35 116.404 154.104 108.658 150.294C103.31 147.664 97.4761 146.166 91.5224 145.895C88.9328 145.781 85.9437 145.651 82.8251 145.525C77.0874 145.296 70.8651 145.081 65.66 145.008C51.8022 144.808 38.9505 148.659 38.2476 148.862C37.5447 149.066 33.2868 155.732 31.463 157.959C29.6392 160.186 23.6721 165.45 23.6721 165.45C23.6721 165.45 21.8224 165.65 20.5942 173.067C20.5942 173.197 20.5498 173.311 20.5387 173.437C19.9118 177.502 20.8434 181.653 23.1467 185.061Z" fill="#6E71FF"/>
<path d="M159.213 177.018C155.883 178.424 152.184 178.816 148.577 178.827C146.823 178.884 145.069 178.701 143.365 178.283C141.721 177.76 140.14 177.059 138.648 176.193C134.409 173.936 130.158 171.703 125.896 169.493C124.047 168.532 122.164 167.566 120.136 167.085C118.198 166.626 116.189 166.619 114.199 166.615L98.1768 166.589C83.0094 166.564 67.8086 161.699 52.6745 160.911C45.3474 160.53 38.0045 160.567 30.6817 161.022C33.4199 159.81 35.9641 158.201 38.2321 156.246C38.8721 155.695 39.5232 155.055 39.686 154.226C39.8302 153.486 39.5491 152.709 39.575 151.947C39.6231 150.542 40.7366 149.358 42.0277 148.784C43.3188 148.211 44.7652 148.155 46.171 148.104C58.3395 147.642 70.508 147.196 82.6764 146.764C87.5263 146.598 92.3984 146.439 97.215 147.038C113.222 149.036 126.947 159.098 142.137 164.533C145.703 165.813 149.384 166.845 152.735 168.602C156.087 170.359 157.829 173.492 159.213 177.018Z" fill="url(#paint13_linear)" fill-opacity="0.2"/>
<path d="M82.8023 145.544C83.0021 145.862 83.6791 146.132 84.9739 146.35C93.3678 147.76 108.247 158.481 114.199 160.711C120.151 162.942 130.387 160.911 130.387 160.911C130.457 160.689 130.514 160.463 130.558 160.234L129.178 159.864C127.224 159.346 116.37 154.101 108.624 150.29C103.276 147.66 97.4422 146.162 91.4885 145.892C88.8952 145.788 85.9209 145.659 82.8023 145.544Z" fill="url(#paint14_linear)"/>
<path d="M107.944 162.458C108.122 162.601 108.249 162.797 108.308 163.017C108.367 163.238 108.355 163.471 108.272 163.684C108.19 163.897 108.042 164.078 107.85 164.201C107.658 164.325 107.432 164.384 107.204 164.37C95.9617 163.63 60.2849 161.226 56.8926 160.545C52.8455 159.735 43.9448 158.928 42.465 156.106C40.9853 153.283 41.8916 150.102 41.8916 150.102C41.8916 150.102 68.6973 145.359 82.1371 148.37C92.6878 150.723 102.979 158.459 107.944 162.458Z" fill="url(#paint15_linear)"/>
<path d="M149.019 173.363C149.019 173.363 139.171 165.672 137.014 165.132C134.857 164.592 121.632 164.999 121.632 164.999C121.632 164.999 125.546 167.959 127.84 168.776C130.133 169.594 145.918 173.903 149.019 173.363Z" fill="url(#paint16_linear)"/>
<path d="M119.041 199C112.99 199 108.084 194.094 108.084 188.042C108.084 181.991 112.99 177.085 119.041 177.085C125.093 177.085 129.999 181.991 129.999 188.042C129.999 194.094 125.093 199 119.041 199Z" fill="#6E71FF"/>
<path d="M119.041 199C112.99 199 108.084 194.094 108.084 188.042C108.084 181.991 112.99 177.085 119.041 177.085C125.093 177.085 129.999 181.991 129.999 188.042C129.999 194.094 125.093 199 119.041 199Z" fill="url(#paint17_linear)"/>
<path d="M118.913 196.029C114.58 196.029 111.067 192.516 111.067 188.183C111.067 183.85 114.58 180.337 118.913 180.337C123.247 180.337 126.76 183.85 126.76 188.183C126.76 192.516 123.247 196.029 118.913 196.029Z" fill="#6E71FF"/>
<path d="M35.2168 195.223C29.5165 195.223 24.8955 190.602 24.8955 184.902C24.8955 179.201 29.5165 174.58 35.2168 174.58C40.9171 174.58 45.5381 179.201 45.5381 184.902C45.5381 190.602 40.9171 195.223 35.2168 195.223Z" fill="#6E71FF"/>
<path d="M35.2168 195.223C29.5165 195.223 24.8955 190.602 24.8955 184.902C24.8955 179.201 29.5165 174.58 35.2168 174.58C40.9171 174.58 45.5381 179.201 45.5381 184.902C45.5381 190.602 40.9171 195.223 35.2168 195.223Z" fill="url(#paint18_linear)"/>
<path d="M35.0989 192.426C31.0167 192.426 27.7075 189.117 27.7075 185.035C27.7075 180.953 31.0167 177.643 35.0989 177.643C39.181 177.643 42.4902 180.953 42.4902 185.035C42.4902 189.117 39.181 192.426 35.0989 192.426Z" fill="#6E71FF"/>
<path d="M118.883 194.871C115.285 194.871 112.368 191.955 112.368 188.357C112.368 184.759 115.285 181.842 118.883 181.842C122.481 181.842 125.397 184.759 125.397 188.357C125.397 191.955 122.481 194.871 118.883 194.871Z" fill="url(#paint19_linear)"/>
<path d="M35.0657 190.906C31.8029 190.906 29.1578 188.261 29.1578 184.998C29.1578 181.735 31.8029 179.09 35.0657 179.09C38.3286 179.09 40.9736 181.735 40.9736 184.998C40.9736 188.261 38.3286 190.906 35.0657 190.906Z" fill="url(#paint20_linear)"/>
</g>
<defs>
<linearGradient id="paint0_linear" x1="59593.6" y1="2670.25" x2="59391.1" y2="6674.33" gradientUnits="userSpaceOnUse">
<stop stop-color="white" stop-opacity="0.27"/>
<stop offset="0.95" stop-color="white"/>
</linearGradient>
<linearGradient id="paint1_linear" x1="391.02" y1="132.49" x2="26.2966" y2="28.9971" gradientUnits="userSpaceOnUse">
<stop offset="0.079127"/>
<stop offset="0.83" stop-opacity="0.07"/>
<stop offset="1" stop-opacity="0"/>
</linearGradient>
<linearGradient id="paint2_linear" x1="119.361" y1="5.11284" x2="-2.47086" y2="150.024" gradientUnits="userSpaceOnUse">
<stop offset="0.01"/>
<stop offset="0.83" stop-opacity="0.07"/>
<stop offset="1" stop-opacity="0"/>
</linearGradient>
<linearGradient id="paint3_linear" x1="205.748" y1="35.7278" x2="195.223" y2="98.4211" gradientUnits="userSpaceOnUse">
<stop/>
<stop offset="0.571801" stop-opacity="0"/>
</linearGradient>
<linearGradient id="paint4_linear" x1="170.052" y1="-8.37743" x2="145.454" y2="267.829" gradientUnits="userSpaceOnUse">
<stop stop-opacity="0"/>
<stop offset="0.932855" stop-opacity="0.75"/>
<stop offset="1"/>
</linearGradient>
<linearGradient id="paint5_linear" x1="153.876" y1="101.306" x2="152.766" y2="123.277" gradientUnits="userSpaceOnUse">
<stop offset="0.02" stop-color="white" stop-opacity="0"/>
<stop offset="0.58" stop-color="white" stop-opacity="0.39"/>
<stop offset="1" stop-color="white"/>
</linearGradient>
<linearGradient id="paint6_linear" x1="196.216" y1="184.579" x2="201.919" y2="132.881" gradientUnits="userSpaceOnUse">
<stop offset="0.02" stop-color="white" stop-opacity="0"/>
<stop offset="0.58" stop-color="white" stop-opacity="0.39"/>
<stop offset="1" stop-color="white"/>
</linearGradient>
<linearGradient id="paint7_linear" x1="163.693" y1="106.743" x2="152.162" y2="147.811" gradientUnits="userSpaceOnUse">
<stop offset="0.52893"/>
<stop offset="0.83" stop-opacity="0.07"/>
<stop offset="1" stop-opacity="0"/>
</linearGradient>
<linearGradient id="paint8_linear" x1="142.254" y1="125.302" x2="136.675" y2="148.414" gradientUnits="userSpaceOnUse">
<stop offset="0.01"/>
<stop offset="0.83" stop-opacity="0.07"/>
<stop offset="1" stop-opacity="0"/>
</linearGradient>
<linearGradient id="paint9_linear" x1="-63740.8" y1="3649.14" x2="-63794.9" y2="13398.7" gradientUnits="userSpaceOnUse">
<stop stop-color="#010101" stop-opacity="0"/>
<stop offset="0.95" stop-color="#010101"/>
</linearGradient>
<linearGradient id="paint10_linear" x1="80" y1="157" x2="80.8332" y2="208.986" gradientUnits="userSpaceOnUse">
<stop offset="0.177626" stop-opacity="0"/>
<stop offset="0.771169"/>
<stop offset="0.932855" stop-opacity="0.75"/>
</linearGradient>
<linearGradient id="paint11_linear" x1="146" y1="172" x2="147.652" y2="205.989" gradientUnits="userSpaceOnUse">
<stop offset="0.177626" stop-opacity="0"/>
<stop offset="0.771169"/>
<stop offset="0.932855" stop-opacity="0.75"/>
</linearGradient>
<linearGradient id="paint12_linear" x1="76" y1="177" x2="76.3801" y2="200.187" gradientUnits="userSpaceOnUse">
<stop offset="0.177626" stop-opacity="0"/>
<stop offset="0.771169"/>
<stop offset="0.932855" stop-opacity="0.75"/>
</linearGradient>
<linearGradient id="paint13_linear" x1="-56074.5" y1="10522" x2="-56068.6" y2="4622.22" gradientUnits="userSpaceOnUse">
<stop stop-color="white" stop-opacity="0"/>
<stop offset="0.95" stop-color="white"/>
</linearGradient>
<linearGradient id="paint14_linear" x1="146" y1="166" x2="84.0321" y2="147.574" gradientUnits="userSpaceOnUse">
<stop stop-opacity="0"/>
<stop offset="0.177626" stop-opacity="0"/>
<stop offset="0.771169"/>
<stop offset="0.932855" stop-opacity="0.75"/>
</linearGradient>
<linearGradient id="paint15_linear" x1="131.5" y1="178" x2="31.9728" y2="150.939" gradientUnits="userSpaceOnUse">
<stop offset="0.177626" stop-opacity="0"/>
<stop offset="0.771169"/>
<stop offset="0.932855" stop-opacity="0.75"/>
</linearGradient>
<linearGradient id="paint16_linear" x1="135.275" y1="178.816" x2="135.111" y2="168.648" gradientUnits="userSpaceOnUse">
<stop offset="0.02" stop-color="white" stop-opacity="0"/>
<stop offset="0.58" stop-color="white" stop-opacity="0.39"/>
<stop offset="1" stop-color="white"/>
</linearGradient>
<linearGradient id="paint17_linear" x1="-7243.12" y1="7227.62" x2="-8346.11" y2="6160.79" gradientUnits="userSpaceOnUse">
<stop stop-color="#010101" stop-opacity="0"/>
<stop offset="0.95" stop-color="#010101"/>
</linearGradient>
<linearGradient id="paint18_linear" x1="-11653.2" y1="6009.4" x2="-12805.1" y2="6009.4" gradientUnits="userSpaceOnUse">
<stop stop-color="#010101" stop-opacity="0"/>
<stop offset="0.95" stop-color="#010101"/>
</linearGradient>
<linearGradient id="paint19_linear" x1="119" y1="164" x2="122.517" y2="212.244" gradientUnits="userSpaceOnUse">
<stop offset="0.177626" stop-opacity="0"/>
<stop offset="0.771169"/>
<stop offset="0.932855" stop-opacity="0.75"/>
</linearGradient>
<linearGradient id="paint20_linear" x1="35.172" y1="162.909" x2="38.3611" y2="206.66" gradientUnits="userSpaceOnUse">
<stop offset="0.177626" stop-opacity="0"/>
<stop offset="0.771169"/>
<stop offset="0.932855" stop-opacity="0.75"/>
</linearGradient>
<clipPath id="clip0">
<rect width="240" height="240" fill="white"/>
</clipPath>
</defs>
</svg>
