<svg width="208" height="208" viewBox="0 0 208 208" fill="none" xmlns="http://www.w3.org/2000/svg">
<path opacity="0.18" d="M192.017 177.378C189.587 179.312 186.934 180.891 184.126 182.076C179.264 184.121 174.086 185.037 169.097 186.613C166.882 187.305 164.709 188.145 162.577 189.06C149.664 194.575 137.813 203.324 124.229 206.517C99.0577 212.478 74.7302 198.925 50.6703 193.178C30.0558 188.265 13.3023 200.01 4.97912 164.472C1.50082 149.678 -2.80485 134.012 2.45993 119.816C7.72471 105.62 15.1382 92.5085 20.1601 78.2407C27.3308 57.8639 29.9858 34.388 44.0966 18.8386C53.8687 8.07191 67.8354 2.87389 81.6704 1.02957C95.5053 -0.814744 109.513 0.368654 123.443 0.431173C140.221 0.489226 158.094 -0.787951 172.604 8.37557C177.722 11.6579 182.132 16.0903 185.54 21.3748C188.948 26.6594 191.274 32.6739 192.362 39.0144C195.244 56.5153 188.403 74.6593 191.477 92.1289C194.33 108.393 205.473 122.004 207.65 138.402C209.626 153.165 203.065 168.652 192.017 177.378Z" fill="#6E71FF"/>
<path opacity="0.6" d="M106.526 44.0234C92.6136 44.0392 79.2758 49.5749 69.4385 59.4161C59.6011 69.2572 54.0676 82.6001 54.0518 96.5176C54.0518 135.626 101.592 167.778 103.615 169.127C104.48 169.697 105.491 170 106.526 170C107.561 170 108.573 169.697 109.437 169.127C111.46 167.778 159 135.626 159 96.5176C158.984 82.6001 153.45 69.2572 143.613 59.4161C133.776 49.5749 120.438 44.0392 106.526 44.0234V44.0234ZM106.526 133.263C99.2609 133.263 92.1592 131.108 86.1187 127.071C80.0782 123.033 75.3701 117.294 72.59 110.58C69.8099 103.865 69.0824 96.4768 70.4998 89.3488C71.9171 82.2208 75.4154 75.6733 80.5525 70.5343C85.6895 65.3953 92.2345 61.8956 99.3597 60.4777C106.485 59.0599 113.871 59.7876 120.582 62.5688C127.294 65.35 133.031 70.0598 137.067 76.1026C141.103 82.1455 143.258 89.2499 143.258 96.5176C143.247 106.26 139.373 115.6 132.487 122.489C125.601 129.378 116.264 133.253 106.526 133.263Z" fill="#6E71FF"/>
<path opacity="0.6" d="M106.526 44.0234C92.6136 44.0392 79.2758 49.5749 69.4385 59.4161C59.6011 69.2572 54.0676 82.6001 54.0518 96.5176C54.0518 135.626 101.592 167.778 103.615 169.127C104.48 169.697 105.491 170 106.526 170C107.561 170 108.573 169.697 109.437 169.127C111.46 167.778 159 135.626 159 96.5176C158.984 82.6001 153.45 69.2572 143.613 59.4161C133.776 49.5749 120.438 44.0392 106.526 44.0234V44.0234ZM106.526 133.263C99.2609 133.263 92.1592 131.108 86.1187 127.071C80.0782 123.033 75.3701 117.294 72.59 110.58C69.8099 103.865 69.0824 96.4768 70.4998 89.3488C71.9171 82.2208 75.4154 75.6733 80.5525 70.5343C85.6895 65.3953 92.2345 61.8956 99.3597 60.4777C106.485 59.0599 113.871 59.7876 120.582 62.5688C127.294 65.35 133.031 70.0598 137.067 76.1026C141.103 82.1455 143.258 89.2499 143.258 96.5176C143.247 106.26 139.373 115.6 132.487 122.489C125.601 129.378 116.264 133.253 106.526 133.263Z" fill="url(#paint0_linear)"/>
<ellipse cx="101.692" cy="92.8627" rx="41.6922" ry="39.8627" fill="url(#paint1_linear)"/>
<path d="M100.474 40C86.5619 40.0158 73.2241 45.5515 63.3867 55.3926C53.5494 65.2338 48.0158 78.5767 48 92.4941C48 131.602 95.5401 163.755 97.5637 165.104C98.4278 165.673 99.4397 165.977 100.474 165.977C101.509 165.977 102.521 165.673 103.385 165.104C105.408 163.755 152.948 131.602 152.948 92.4941C152.932 78.5767 147.399 65.2338 137.561 55.3926C127.724 45.5515 114.386 40.0158 100.474 40V40ZM100.474 129.24C93.2091 129.24 86.1074 127.085 80.0669 123.047C74.0264 119.01 69.3184 113.271 66.5382 106.556C63.7581 99.8417 63.0307 92.4534 64.448 85.3254C65.8653 78.1974 69.3637 71.6499 74.5007 66.5109C79.6377 61.3719 86.1827 57.8721 93.308 56.4543C100.433 55.0365 107.819 55.7641 114.531 58.5454C121.243 61.3266 126.979 66.0364 131.015 72.0792C135.052 78.122 137.206 85.2265 137.206 92.4941C137.195 102.236 133.321 111.576 126.435 118.465C119.549 125.354 110.213 129.229 100.474 129.24Z" fill="#6E71FF"/>
<path d="M115.732 71.4177H111.051V83.1179H115.732V71.4177Z" fill="#6E71FF"/>
<path d="M115.732 71.4177H111.051V83.1179H115.732V71.4177Z" fill="url(#paint2_linear)"/>
<path d="M116.144 69.7583H110.637C110.337 69.7583 110.094 70.0014 110.094 70.3013V71.4575C110.094 71.7574 110.337 72.0005 110.637 72.0005H116.144C116.444 72.0005 116.687 71.7574 116.687 71.4575V70.3013C116.687 70.0014 116.444 69.7583 116.144 69.7583Z" fill="#6E71FF"/>
<path d="M99.2528 68.4917L82.3848 85.2825V90.0384V112.173H118.07V90.0384V86.8694L99.2528 68.4917Z" fill="#6E71FF"/>
<path d="M99.2528 68.4917L82.3848 85.2825V90.0384V112.173H118.07V90.0384V86.8694L99.2528 68.4917Z" fill="url(#paint3_linear)"/>
<g style="mix-blend-mode:multiply" opacity="0.2">
<g style="mix-blend-mode:multiply" opacity="0.2">
<path d="M99.7416 67.3477L82.3867 84.6534V87.4082L99.7416 70.9544L118.075 88.335V86.603C118.177 86.6037 118.277 86.5734 118.362 86.5161C118.447 86.4589 118.512 86.3774 118.55 86.2823C118.588 86.1871 118.596 86.0829 118.573 85.9831C118.551 85.8833 118.499 85.7926 118.424 85.723L99.7416 67.3477Z" fill="#6E71FF"/>
</g>
</g>
<path d="M119.46 112.173H80.9961V115H119.46V112.173Z" fill="#6E71FF"/>
<path d="M104.427 93.793H95.3594V112.173H104.427V93.793Z" fill="#6E71FF"/>
<path d="M103.693 94.9631H96.0938V111.22H103.693V94.9631Z" fill="#6E71FF"/>
<path d="M103.693 95.075H96.0938V111.332H103.693V95.075Z" fill="url(#paint4_linear)"/>
<path d="M104.691 92.7703H95.1465C94.9281 92.7703 94.751 92.9474 94.751 93.1658V93.9101C94.751 94.1285 94.9281 94.3056 95.1465 94.3056H104.691C104.91 94.3056 105.087 94.1285 105.087 93.9101V93.1658C105.087 92.9474 104.91 92.7703 104.691 92.7703Z" fill="#6E71FF"/>
<path d="M98.9349 67.3287L80.3349 85.4185C80.1751 85.5813 80.0664 85.7873 80.0222 86.0111C79.978 86.2349 80.0001 86.4667 80.0859 86.6781C80.1717 86.8895 80.3174 87.0712 80.5051 87.2008C80.6928 87.3305 80.9143 87.4025 81.1423 87.4079C81.4405 87.4082 81.7273 87.2934 81.9428 87.0873L98.9442 70.9097C99.1593 70.7045 99.4451 70.59 99.7424 70.59C100.04 70.59 100.325 70.7045 100.54 70.9097L117.542 87.0873C117.757 87.293 118.043 87.4079 118.34 87.4079C118.568 87.4025 118.79 87.3305 118.977 87.2008C119.165 87.0712 119.311 86.8895 119.396 86.6781C119.482 86.4667 119.504 86.2349 119.46 86.0111C119.416 85.7873 119.307 85.5813 119.148 85.4185L100.55 67.3287C100.334 67.118 100.044 67 99.7424 67C99.4406 67 99.1508 67.118 98.9349 67.3287Z" fill="#6E71FF"/>
<defs>
<linearGradient id="paint0_linear" x1="106.438" y1="27.3945" x2="106.438" y2="199.227" gradientUnits="userSpaceOnUse">
<stop stop-color="#151515"/>
<stop offset="1" stop-color="#0D0D0D" stop-opacity="0"/>
</linearGradient>
<linearGradient id="paint1_linear" x1="94" y1="138.5" x2="101.815" y2="195.595" gradientUnits="userSpaceOnUse">
<stop stop-color="white"/>
<stop offset="1" stop-color="white" stop-opacity="0"/>
</linearGradient>
<linearGradient id="paint2_linear" x1="113.389" y1="66.5304" x2="109.503" y2="89.6782" gradientUnits="userSpaceOnUse">
<stop/>
<stop offset="0.571801" stop-opacity="0"/>
</linearGradient>
<linearGradient id="paint3_linear" x1="100.21" y1="50.2456" x2="91.1281" y2="152.227" gradientUnits="userSpaceOnUse">
<stop stop-opacity="0"/>
<stop offset="0.932855" stop-opacity="0.75"/>
<stop offset="1"/>
</linearGradient>
<linearGradient id="paint4_linear" x1="99.9077" y1="121.601" x2="102.013" y2="102.513" gradientUnits="userSpaceOnUse">
<stop offset="0.02" stop-color="white" stop-opacity="0"/>
<stop offset="0.58" stop-color="white" stop-opacity="0.39"/>
<stop offset="1" stop-color="white"/>
</linearGradient>
</defs>
</svg>
