<svg width="208" height="208" viewBox="0 0 208 208" fill="none" xmlns="http://www.w3.org/2000/svg">
<path opacity="0.18" d="M207.956 134.097C207.897 135.795 207.791 137.494 207.613 139.226C206.357 151.765 201.742 164.286 191.795 172.353C179.982 181.925 163.228 183.335 147.748 182.792C132.268 182.248 116.391 180.244 101.575 184.563C93.4644 186.93 86.0413 191.107 77.9487 193.519C62.5457 198.104 45.2173 195.834 31.39 187.926C17.5628 180.018 7.36128 166.715 3.07805 151.872C2.2774 149.081 1.65617 146.245 1.21783 143.381C-1.22296 127.7 1.17044 111.397 0.820906 95.4054C0.512845 81.1911 -1.92202 66.473 3.4098 53.187C6.96436 44.3391 13.7299 37.0367 21.4728 31.257C48.5645 11.0762 82.6822 0.207373 116.853 0.00358377C137.209 -0.120954 158.015 2.98118 175.877 12.3102C181.682 15.3387 187.198 19.1032 191.28 24.0394C194.319 27.7303 196.487 32.0099 198.27 36.38C201.355 43.9675 203.348 51.92 204.195 60.0196C205.285 70.5431 204.426 81.1628 204.864 91.7202C205.474 105.884 208.389 119.939 207.956 134.097Z" fill="#6E71FF"/>
<path opacity="0.3" d="M208 136.067L207.928 136.915C206.876 149.041 203.855 161.102 197.975 170.596C196.27 173.367 194.309 175.893 192.13 178.126C180.274 190.288 163.458 192.078 147.922 191.388C132.385 190.698 116.45 188.152 101.579 193.639C93.4388 196.645 85.9885 201.953 77.8663 205.017C62.4069 210.843 45.0149 207.959 31.1371 197.911C22.0075 191.203 14.4372 181.799 9.13704 170.581C6.36207 164.782 4.2101 158.578 2.73324 152.119C1.92966 148.573 1.30615 144.97 0.866211 141.331L79.5134 139.325L208 136.067Z" fill="#6E71FF"/>
<path d="M113.067 68.8005C96.9807 69.5314 80.7803 67.0035 64.6168 67.0672C49.6423 67.1342 34.3041 69.3738 19.9459 65.1026C17.9453 64.5024 15.5506 63.044 16.0727 61.0224C22.8728 59.4098 28.5985 54.9005 35.1427 52.3995C41.1065 50.1283 47.5899 49.5638 53.8592 50.7701C57.6045 51.5144 61.3734 52.8688 65.1422 52.2687C68.2577 51.7725 70.9791 49.9755 73.8454 48.6881C75.6507 47.8667 77.941 47.4476 80.43 47.2666C86.4925 49.8984 93.1377 51.625 98.9073 54.8737C104.872 58.2364 109.584 63.0809 113.067 68.8005Z" fill="url(#paint0_linear)"/>
<path d="M201.067 116.8C184.981 117.531 168.78 115.003 152.617 115.067C137.642 115.134 122.304 117.374 107.946 113.103C105.945 112.502 103.551 111.044 104.073 109.022C110.873 107.41 116.599 102.901 123.143 100.399C129.107 98.1283 135.59 97.5638 141.859 98.7701C145.604 99.5144 149.373 100.869 153.142 100.269C156.258 99.7725 158.979 97.9755 161.845 96.6881C163.651 95.8667 165.941 95.4476 168.43 95.2666C174.493 97.8984 181.138 99.625 186.907 102.874C192.872 106.236 197.584 111.081 201.067 116.8Z" fill="url(#paint1_linear)"/>
<path d="M151.651 39.6827H138.212V73.2727H151.651V39.6827Z" fill="#6E71FF"/>
<path d="M151.651 39.6827H138.212V73.2727H151.651V39.6827Z" fill="url(#paint2_linear)"/>
<path d="M152.833 34.9188H137.023C136.162 34.9188 135.464 35.6168 135.464 36.4777V39.7971C135.464 40.658 136.162 41.356 137.023 41.356H152.833C153.694 41.356 154.392 40.658 154.392 39.7971V36.4777C154.392 35.6168 153.694 34.9188 152.833 34.9188Z" fill="#6E71FF"/>
<path d="M104.339 31.2827L55.9131 79.4873V93.141V156.686H158.363V93.141V84.043L104.339 31.2827Z" fill="#6E71FF"/>
<path d="M104.339 31.2827L55.9131 79.4873V93.141V156.686H158.363V93.141V84.043L104.339 31.2827Z" fill="url(#paint3_linear)" fill-opacity="0.69"/>
<g style="mix-blend-mode:multiply" opacity="0.2">
<g style="mix-blend-mode:multiply" opacity="0.2">
<path d="M105.745 27.998L55.9209 77.6809V85.5896L105.745 38.3526L158.377 88.2504V83.2781C158.671 83.2799 158.959 83.1929 159.202 83.0286C159.445 82.8643 159.634 82.6303 159.742 82.3572C159.85 82.0841 159.873 81.7847 159.808 81.4982C159.744 81.2117 159.594 80.9515 159.379 80.7516L105.745 27.998Z" fill="#6E71FF"/>
</g>
</g>
<path d="M162.353 156.686H51.9277V164.803H162.353V156.686Z" fill="#6E71FF"/>
<path d="M103.427 27.9436L50.0287 79.8774C49.5701 80.3449 49.2581 80.9363 49.1311 81.5788C49.0042 82.2212 49.0677 82.8868 49.314 83.4936C49.5603 84.1005 49.9786 84.6221 50.5175 84.9943C51.0563 85.3666 51.6922 85.5732 52.3469 85.5889C53.2029 85.5898 54.0263 85.26 54.6449 84.6683L103.454 38.2242C104.072 37.6352 104.892 37.3065 105.745 37.3065C106.599 37.3065 107.419 37.6352 108.037 38.2242L156.846 84.6683C157.463 85.259 158.284 85.5888 159.137 85.5889C159.792 85.5732 160.428 85.3666 160.967 84.9943C161.506 84.6221 161.924 84.1005 162.17 83.4936C162.417 82.8868 162.48 82.2212 162.353 81.5788C162.226 80.9363 161.914 80.3449 161.456 79.8774L108.064 27.9436C107.444 27.3386 106.612 27 105.745 27C104.879 27 104.047 27.3386 103.427 27.9436Z" fill="#6E71FF"/>
<path d="M137.36 87.2878H76.6279V138.233H137.36V87.2878Z" fill="#6E71FF"/>
<path d="M137.36 87.2878H76.6279V138.233H137.36V87.2878Z" fill="url(#paint4_linear)"/>
<path d="M139.11 85H74.8838V87.2891H139.11V85Z" fill="#6E71FF"/>
<path d="M93.4817 87.2878H91.4346V133.99H93.4817V87.2878Z" fill="#6E71FF"/>
<path d="M108.018 87.2878H105.971V133.99H108.018V87.2878Z" fill="#6E71FF"/>
<path d="M122.553 87.2878H120.506V133.99H122.553V87.2878Z" fill="#6E71FF"/>
<path d="M137.36 111.894H76.6279V113.64H137.36V111.894Z" fill="#6E71FF"/>
<path d="M135.509 134.775C136.491 134.256 137.323 133.488 137.923 132.546C138.523 131.604 138.87 130.521 138.931 129.402C138.931 128.357 138.569 127.165 137.587 127.019C137.169 127 136.754 127.097 136.387 127.301C135.271 127.836 134.275 128.598 133.462 129.538C133.761 128.522 133.884 127.461 133.823 126.402C133.827 125.816 133.647 125.244 133.309 124.768C132.971 124.292 132.492 123.937 131.942 123.754C131.391 123.57 130.798 123.568 130.246 123.747C129.694 123.926 129.213 124.277 128.871 124.751C128.084 125.707 127.525 126.833 127.237 128.043C126.589 126.292 125.464 124.763 123.991 123.632C123.745 123.425 123.455 123.278 123.143 123.204C122.782 123.183 122.422 123.27 122.109 123.454C121.197 123.927 120.423 124.634 119.864 125.503C119.305 126.372 118.982 127.374 118.925 128.409C118.824 128.036 118.615 127.702 118.323 127.452C118.031 127.202 117.672 127.048 117.291 127.008C117.104 127.005 116.918 127.043 116.747 127.122C116.577 127.201 116.426 127.317 116.306 127.462C116.186 127.608 116.099 127.779 116.054 127.963C116.008 128.146 116.003 128.338 116.04 128.524C115.321 127.766 114.414 127.217 113.414 126.934C112.414 126.651 111.357 126.644 110.354 126.914C109.364 127.23 108.517 127.888 107.961 128.774C107.405 129.659 107.176 130.714 107.314 131.754C107.069 131.653 106.805 131.608 106.541 131.621C106.276 131.634 106.018 131.705 105.784 131.83C105.55 131.954 105.345 132.129 105.184 132.341C105.024 132.554 104.911 132.799 104.853 133.06C104.771 133.598 104.805 134.148 104.953 134.671C105.101 135.195 105.36 135.679 105.711 136.092" fill="#6E71FF"/>
<path d="M77.1251 134.67L74.7885 132.684C74.2762 132.338 73.908 131.813 73.7546 131.21C73.6512 130.165 74.7885 129.485 75.8224 129.653C76.7848 129.925 77.6406 130.49 78.2728 131.273C77.9833 129.099 77.8282 126.559 79.4101 125.001C80.0428 124.474 80.8129 124.143 81.6274 124.049C82.4419 123.954 83.2661 124.1 84.0006 124.468C85.4586 125.242 86.6033 126.506 87.2368 128.043C87.9502 125.754 89.3392 123.741 91.2173 122.273C91.3477 122.122 91.5096 122.003 91.6915 121.923C91.8733 121.843 92.0704 121.806 92.2684 121.813C92.4665 121.82 92.6605 121.871 92.8363 121.964C93.0122 122.056 93.1655 122.187 93.2851 122.346C94.0704 123.104 94.6911 124.018 95.1076 125.031C95.5241 126.044 95.7274 127.134 95.7045 128.231C95.9989 127.547 96.3627 126.895 96.7901 126.287C96.895 126.095 97.0634 125.947 97.2657 125.869C97.5862 125.775 97.886 126.026 98.1238 126.256C98.7442 126.872 99.3645 127.688 99.1577 128.534C99.4993 127.145 100.215 125.879 101.226 124.876C102.259 123.967 104.182 123.883 104.958 125.064C105.31 125.699 105.441 126.435 105.33 127.155C105.19 128.685 104.701 130.163 103.903 131.471C103.903 130.959 104.668 130.761 105.072 131.064C105.255 131.237 105.392 131.455 105.469 131.696C105.547 131.937 105.563 132.194 105.516 132.444C105.516 132.945 105.289 133.437 105.268 133.949" fill="#6E71FF"/>
<path d="M135.509 134.775C136.491 134.256 137.323 133.488 137.923 132.546C138.523 131.604 138.87 130.521 138.931 129.402C138.931 128.357 138.569 127.165 137.587 127.019C137.169 127 136.754 127.097 136.387 127.301C135.271 127.836 134.275 128.598 133.462 129.538C133.761 128.522 133.884 127.461 133.823 126.402C133.827 125.816 133.647 125.244 133.309 124.768C132.971 124.292 132.492 123.937 131.942 123.754C131.391 123.57 130.798 123.568 130.246 123.747C129.694 123.926 129.213 124.277 128.871 124.751C128.084 125.707 127.525 126.833 127.237 128.043C126.589 126.292 125.464 124.763 123.991 123.632C123.745 123.425 123.455 123.278 123.143 123.204C122.782 123.183 122.422 123.27 122.109 123.454C121.197 123.927 120.423 124.634 119.864 125.503C119.305 126.372 118.982 127.374 118.925 128.409C118.824 128.036 118.615 127.702 118.323 127.452C118.031 127.202 117.672 127.048 117.291 127.008C117.104 127.005 116.918 127.043 116.747 127.122C116.577 127.201 116.426 127.317 116.306 127.462C116.186 127.608 116.099 127.779 116.054 127.963C116.008 128.146 116.003 128.338 116.04 128.524C115.321 127.766 114.414 127.217 113.414 126.934C112.414 126.651 111.357 126.644 110.354 126.914C109.364 127.23 108.517 127.888 107.961 128.774C107.405 129.659 107.176 130.714 107.314 131.754C107.069 131.653 106.805 131.608 106.541 131.621C106.276 131.634 106.018 131.705 105.784 131.83C105.55 131.954 105.345 132.129 105.184 132.341C105.024 132.554 104.911 132.799 104.853 133.06C104.771 133.598 104.805 134.148 104.953 134.671C105.101 135.195 105.36 135.679 105.711 136.092" fill="url(#paint5_linear)"/>
<path d="M137.175 133.992H76.8255C74.7127 133.992 73 135.723 73 137.859V144.496C73 146.632 74.7127 148.364 76.8255 148.364H137.175C139.287 148.364 141 146.632 141 144.496V137.859C141 135.723 139.287 133.992 137.175 133.992Z" fill="#6E71FF"/>
<path d="M77.1251 134.67L74.7885 132.684C74.2762 132.338 73.908 131.813 73.7546 131.21C73.6512 130.165 74.7885 129.485 75.8224 129.653C76.7848 129.925 77.6406 130.49 78.2728 131.273C77.9833 129.099 77.8282 126.559 79.4101 125.001C80.0428 124.474 80.8129 124.143 81.6274 124.049C82.4419 123.954 83.2661 124.1 84.0006 124.468C85.4586 125.242 86.6033 126.506 87.2368 128.043C87.9502 125.754 89.3392 123.741 91.2173 122.273C91.3477 122.122 91.5096 122.003 91.6915 121.923C91.8733 121.843 92.0704 121.806 92.2684 121.813C92.4665 121.82 92.6605 121.871 92.8363 121.964C93.0122 122.056 93.1655 122.187 93.2851 122.346C94.0704 123.104 94.6911 124.018 95.1076 125.031C95.5241 126.044 95.7274 127.134 95.7045 128.231C95.9989 127.547 96.3627 126.895 96.7901 126.287C96.895 126.095 97.0634 125.947 97.2657 125.869C97.5862 125.775 97.886 126.026 98.1238 126.256C98.7442 126.872 99.3645 127.688 99.1577 128.534C99.4993 127.145 100.215 125.879 101.226 124.876C102.259 123.967 104.182 123.883 104.958 125.064C105.31 125.699 105.441 126.435 105.33 127.155C105.19 128.685 104.701 130.163 103.903 131.471C103.903 130.959 104.668 130.761 105.072 131.064C105.255 131.237 105.392 131.455 105.469 131.696C105.547 131.937 105.563 132.194 105.516 132.444C105.516 132.945 105.289 133.437 105.268 133.949" fill="url(#paint6_linear)"/>
<defs>
<linearGradient id="paint0_linear" x1="51652.6" y1="2323.35" x2="51477" y2="5793.55" gradientUnits="userSpaceOnUse">
<stop stop-color="white" stop-opacity="0.27"/>
<stop offset="0.95" stop-color="white"/>
</linearGradient>
<linearGradient id="paint1_linear" x1="51740.6" y1="2371.35" x2="51565" y2="5841.55" gradientUnits="userSpaceOnUse">
<stop stop-color="white" stop-opacity="0.27"/>
<stop offset="0.95" stop-color="white"/>
</linearGradient>
<linearGradient id="paint2_linear" x1="144.925" y1="25.6518" x2="133.768" y2="92.1064" gradientUnits="userSpaceOnUse">
<stop/>
<stop offset="0.571801" stop-opacity="0"/>
</linearGradient>
<linearGradient id="paint3_linear" x1="161" y1="284.5" x2="180.157" y2="35.706" gradientUnits="userSpaceOnUse">
<stop stop-color="white" stop-opacity="0"/>
<stop offset="1" stop-color="white"/>
</linearGradient>
<linearGradient id="paint4_linear" x1="109.062" y1="71.3791" x2="107.212" y2="107.606" gradientUnits="userSpaceOnUse">
<stop offset="0.02" stop-color="white" stop-opacity="0"/>
<stop offset="0.58" stop-color="white" stop-opacity="0.39"/>
<stop offset="1" stop-color="white"/>
</linearGradient>
<linearGradient id="paint5_linear" x1="125.074" y1="80.3452" x2="105.883" y2="147.953" gradientUnits="userSpaceOnUse">
<stop offset="0.52893"/>
<stop offset="0.83" stop-opacity="0.07"/>
<stop offset="1" stop-opacity="0"/>
</linearGradient>
<linearGradient id="paint6_linear" x1="90.1074" y1="110.948" x2="80.8182" y2="149.011" gradientUnits="userSpaceOnUse">
<stop offset="0.01"/>
<stop offset="0.83" stop-opacity="0.07"/>
<stop offset="1" stop-opacity="0"/>
</linearGradient>
</defs>
</svg>
