<svg width="208" height="208" viewBox="0 0 208 208" fill="none" xmlns="http://www.w3.org/2000/svg">
<path opacity="0.18" d="M207.956 134.097C207.897 135.795 207.791 137.494 207.613 139.226C206.357 151.765 201.742 164.286 191.795 172.353C179.982 181.925 163.228 183.335 147.748 182.792C132.268 182.248 116.391 180.244 101.575 184.563C93.4644 186.93 86.0413 191.107 77.9487 193.519C62.5457 198.104 45.2173 195.834 31.39 187.926C17.5628 180.018 7.36128 166.715 3.07805 151.872C2.2774 149.081 1.65617 146.245 1.21783 143.381C-1.22296 127.7 1.17044 111.397 0.820906 95.4054C0.512845 81.1911 -1.92202 66.473 3.4098 53.187C6.96436 44.3391 13.7299 37.0367 21.4728 31.257C48.5645 11.0762 82.6822 0.207373 116.853 0.00358377C137.209 -0.120954 158.015 2.98118 175.877 12.3102C181.682 15.3387 187.198 19.1032 191.28 24.0394C194.319 27.7303 196.487 32.0099 198.27 36.38C201.355 43.9675 203.348 51.92 204.195 60.0196C205.285 70.5431 204.426 81.1628 204.864 91.7202C205.474 105.884 208.389 119.939 207.956 134.097Z" fill="#6E71FF"/>
<path opacity="0.3" d="M208 136.067L207.928 136.915C206.876 149.041 203.855 161.102 197.975 170.596C196.27 173.367 194.309 175.893 192.13 178.126C180.274 190.288 163.458 192.078 147.922 191.388C132.385 190.698 116.45 188.152 101.579 193.639C93.4388 196.645 85.9885 201.953 77.8663 205.017C62.4069 210.843 45.0149 207.959 31.1371 197.911C22.0075 191.203 14.4372 181.799 9.13704 170.581C6.36207 164.782 4.2101 158.578 2.73324 152.119C1.92966 148.573 1.30615 144.97 0.866211 141.331L79.5134 139.325L208 136.067Z" fill="#6E71FF"/>
<path d="M147.651 37.6827H134.212V71.2727H147.651V37.6827Z" fill="#6E71FF"/>
<path d="M147.651 37.6827H134.212V71.2727H147.651V37.6827Z" fill="url(#paint0_linear)"/>
<path d="M148.833 32.9188H133.023C132.162 32.9188 131.464 33.6168 131.464 34.4777V37.7971C131.464 38.658 132.162 39.356 133.023 39.356H148.833C149.694 39.356 150.392 38.658 150.392 37.7971V34.4777C150.392 33.6168 149.694 32.9188 148.833 32.9188Z" fill="#6E71FF"/>
<path d="M100.339 29.2827L51.9131 77.4873V91.141V154.686H154.363V91.141V82.043L100.339 29.2827Z" fill="#6E71FF"/>
<path d="M100.339 29.2827L51.9131 77.4873V91.141V154.686H154.363V91.141V82.043L100.339 29.2827Z" fill="url(#paint1_linear)"/>
<g style="mix-blend-mode:multiply" opacity="0.2">
<g style="mix-blend-mode:multiply" opacity="0.2">
<path d="M101.745 25.998L51.9209 75.6809V83.5896L101.745 36.3526L154.377 86.2504V81.2781C154.671 81.2799 154.959 81.1929 155.202 81.0286C155.445 80.8643 155.634 80.6303 155.742 80.3572C155.85 80.0841 155.873 79.7847 155.808 79.4982C155.744 79.2117 155.594 78.9515 155.379 78.7516L101.745 25.998Z" fill="#6E71FF"/>
</g>
</g>
<path d="M158.353 154.686H47.9277V162.803H158.353V154.686Z" fill="#6E71FF"/>
<path d="M104.331 103.39H64.8613V136.14H104.331V103.39Z" fill="#6E71FF"/>
<path d="M104.331 103.39H64.8613V136.14H104.331V103.39Z" fill="url(#paint2_linear)"/>
<path d="M143.794 101.919H117.764V154.686H143.794V101.919Z" fill="#6E71FF"/>
<path d="M141.69 105.279H119.872V151.952H141.69V105.279Z" fill="#6E71FF"/>
<path d="M141.69 105.279H119.872V151.952H141.69V105.279Z" fill="url(#paint3_linear)"/>
<path d="M144.555 98.9834H117.153C116.526 98.9834 116.018 99.4918 116.018 100.119V102.256C116.018 102.883 116.526 103.391 117.153 103.391H144.555C145.182 103.391 145.69 102.883 145.69 102.256V100.119C145.69 99.4918 145.182 98.9834 144.555 98.9834Z" fill="#6E71FF"/>
<path d="M99.4273 25.9436L46.0287 77.8774C45.5701 78.3449 45.2581 78.9363 45.1311 79.5788C45.0042 80.2212 45.0677 80.8868 45.314 81.4936C45.5603 82.1005 45.9786 82.6221 46.5175 82.9943C47.0563 83.3666 47.6922 83.5732 48.3469 83.5889C49.2029 83.5898 50.0263 83.26 50.6449 82.6683L99.4542 36.2242C100.072 35.6352 100.892 35.3065 101.745 35.3065C102.599 35.3065 103.419 35.6352 104.037 36.2242L152.846 82.6683C153.463 83.259 154.284 83.5888 155.137 83.5889C155.792 83.5732 156.428 83.3666 156.967 82.9943C157.506 82.6221 157.924 82.1005 158.17 81.4936C158.417 80.8868 158.48 80.2212 158.353 79.5788C158.226 78.9363 157.914 78.3449 157.456 77.8774L104.064 25.9436C103.444 25.3386 102.612 25 101.745 25C100.879 25 100.047 25.3386 99.4273 25.9436Z" fill="#6E71FF"/>
<path d="M105.467 101.919H63.7266V103.391H105.467V101.919Z" fill="#6E71FF"/>
<path d="M75.8139 103.39H74.4834V133.412H75.8139V103.39Z" fill="#6E71FF"/>
<path d="M85.2611 103.39H83.9307V133.412H85.2611V103.39Z" fill="#6E71FF"/>
<path d="M94.7074 103.39H93.377V133.412H94.7074V103.39Z" fill="#6E71FF"/>
<path d="M104.331 119.208H64.8613V120.33H104.331V119.208Z" fill="#6E71FF"/>
<path d="M103.128 133.917C103.766 133.583 104.307 133.09 104.697 132.484C105.087 131.879 105.313 131.182 105.352 130.463C105.352 129.791 105.117 129.025 104.479 128.931C104.207 128.919 103.937 128.981 103.699 129.112C102.974 129.456 102.326 129.946 101.798 130.55C101.993 129.897 102.072 129.215 102.033 128.534C102.035 128.158 101.918 127.79 101.698 127.484C101.479 127.178 101.168 126.95 100.81 126.832C100.452 126.714 100.066 126.712 99.7078 126.828C99.3492 126.943 99.0364 127.169 98.8142 127.473C98.3025 128.087 97.9392 128.812 97.7526 129.589C97.3315 128.464 96.5999 127.481 95.6427 126.754C95.4829 126.621 95.2942 126.526 95.0917 126.478C94.8568 126.465 94.6232 126.521 94.4198 126.64C93.8268 126.944 93.3238 127.398 92.9607 127.956C92.5976 128.515 92.3871 129.159 92.3502 129.825C92.285 129.585 92.1486 129.37 91.9591 129.21C91.7696 129.049 91.5358 128.949 91.2886 128.924C91.1668 128.922 91.046 128.947 90.9351 128.997C90.8243 129.048 90.7262 129.123 90.6482 129.216C90.5701 129.31 90.5141 129.42 90.4842 129.538C90.4543 129.656 90.4513 129.779 90.4755 129.898C90.0082 129.411 89.4189 129.059 88.769 128.877C88.119 128.695 87.4322 128.69 86.7799 128.864C86.137 129.067 85.5863 129.49 85.2249 130.059C84.8635 130.628 84.7146 131.307 84.8044 131.975C84.6451 131.91 84.4735 131.881 84.3018 131.889C84.13 131.898 83.9622 131.944 83.8099 132.024C83.6577 132.104 83.5247 132.216 83.4202 132.352C83.3158 132.489 83.2424 132.647 83.2052 132.815C83.1517 133.16 83.1738 133.514 83.2701 133.85C83.3664 134.187 83.5345 134.498 83.7629 134.763" fill="#6E71FF"/>
<path d="M65.184 133.849L63.6655 132.573C63.3325 132.35 63.0932 132.013 62.9935 131.625C62.9263 130.953 63.6655 130.517 64.3374 130.624C64.9629 130.799 65.519 131.163 65.9299 131.666C65.7417 130.268 65.6409 128.635 66.669 127.634C67.0802 127.295 67.5807 127.082 68.1101 127.022C68.6394 126.961 69.1751 127.055 69.6524 127.291C70.5999 127.789 71.3439 128.602 71.7556 129.589C72.2192 128.118 73.1219 126.824 74.3425 125.88C74.4272 125.783 74.5325 125.706 74.6507 125.655C74.7688 125.604 74.8969 125.58 75.0256 125.584C75.1543 125.589 75.2804 125.622 75.3947 125.681C75.509 125.741 75.6086 125.825 75.6864 125.927C76.1967 126.414 76.6001 127.002 76.8708 127.653C77.1415 128.305 77.2736 129.005 77.2587 129.71C77.4501 129.27 77.6865 128.852 77.9642 128.46C78.0324 128.337 78.1419 128.242 78.2733 128.192C78.4816 128.131 78.6765 128.292 78.831 128.44C79.2342 128.837 79.6374 129.361 79.503 129.905C79.725 129.012 80.1902 128.198 80.8468 127.553C81.5188 126.969 82.7686 126.915 83.2725 127.674C83.5014 128.083 83.5865 128.556 83.5144 129.018C83.4232 130.002 83.1058 130.952 82.5872 131.793C82.5872 131.464 83.0844 131.336 83.3464 131.531C83.4654 131.643 83.5543 131.783 83.6049 131.938C83.6554 132.093 83.6659 132.258 83.6354 132.418C83.6354 132.741 83.4875 133.057 83.4741 133.386" fill="#6E71FF"/>
<path d="M103.128 133.917C103.766 133.583 104.307 133.09 104.697 132.484C105.087 131.879 105.313 131.182 105.352 130.463C105.352 129.791 105.117 129.025 104.479 128.931C104.207 128.919 103.937 128.981 103.699 129.112C102.974 129.456 102.326 129.946 101.798 130.55C101.993 129.897 102.072 129.215 102.033 128.534C102.035 128.158 101.918 127.79 101.698 127.484C101.479 127.178 101.168 126.95 100.81 126.832C100.452 126.714 100.066 126.712 99.7078 126.828C99.3492 126.943 99.0364 127.169 98.8142 127.473C98.3025 128.087 97.9392 128.812 97.7526 129.589C97.3315 128.464 96.5999 127.481 95.6427 126.754C95.4829 126.621 95.2942 126.526 95.0917 126.478C94.8568 126.465 94.6232 126.521 94.4198 126.64C93.8268 126.944 93.3238 127.398 92.9607 127.956C92.5976 128.515 92.3871 129.159 92.3502 129.825C92.285 129.585 92.1486 129.37 91.9591 129.21C91.7696 129.049 91.5358 128.949 91.2886 128.924C91.1668 128.922 91.046 128.947 90.9351 128.997C90.8243 129.048 90.7262 129.123 90.6482 129.216C90.5701 129.31 90.5141 129.42 90.4842 129.538C90.4543 129.656 90.4513 129.779 90.4755 129.898C90.0082 129.411 89.4189 129.059 88.769 128.877C88.119 128.695 87.4322 128.69 86.7799 128.864C86.137 129.067 85.5863 129.49 85.2249 130.059C84.8635 130.628 84.7146 131.307 84.8044 131.975C84.6451 131.91 84.4735 131.881 84.3018 131.889C84.13 131.898 83.9622 131.944 83.8099 132.024C83.6577 132.104 83.5247 132.216 83.4202 132.352C83.3158 132.489 83.2424 132.647 83.2052 132.815C83.1517 133.16 83.1738 133.514 83.2701 133.85C83.3664 134.187 83.5345 134.498 83.7629 134.763" fill="url(#paint4_linear)"/>
<path d="M104.21 133.413H64.9891C63.616 133.413 62.5029 134.526 62.5029 135.899V140.166C62.5029 141.539 63.616 142.652 64.9891 142.652H104.21C105.583 142.652 106.696 141.539 106.696 140.166V135.899C106.696 134.526 105.583 133.413 104.21 133.413Z" fill="#6E71FF"/>
<path d="M65.184 133.849L63.6655 132.573C63.3325 132.35 63.0932 132.013 62.9935 131.625C62.9263 130.953 63.6655 130.517 64.3374 130.624C64.9629 130.799 65.519 131.163 65.9299 131.666C65.7417 130.268 65.6409 128.635 66.669 127.634C67.0802 127.295 67.5807 127.082 68.1101 127.022C68.6394 126.961 69.1751 127.055 69.6524 127.291C70.5999 127.789 71.3439 128.602 71.7556 129.589C72.2192 128.118 73.1219 126.824 74.3425 125.88C74.4272 125.783 74.5325 125.706 74.6507 125.655C74.7688 125.604 74.8969 125.58 75.0256 125.584C75.1543 125.589 75.2804 125.622 75.3947 125.681C75.509 125.741 75.6086 125.825 75.6864 125.927C76.1967 126.414 76.6001 127.002 76.8708 127.653C77.1415 128.305 77.2736 129.005 77.2587 129.71C77.4501 129.27 77.6865 128.852 77.9642 128.46C78.0324 128.337 78.1419 128.242 78.2733 128.192C78.4816 128.131 78.6765 128.292 78.831 128.44C79.2342 128.837 79.6374 129.361 79.503 129.905C79.725 129.012 80.1902 128.198 80.8468 127.553C81.5188 126.969 82.7686 126.915 83.2725 127.674C83.5014 128.083 83.5865 128.556 83.5144 129.018C83.4232 130.002 83.1058 130.952 82.5872 131.793C82.5872 131.464 83.0844 131.336 83.3464 131.531C83.4654 131.643 83.5543 131.783 83.6049 131.938C83.6554 132.093 83.6659 132.258 83.6354 132.418C83.6354 132.741 83.4875 133.057 83.4741 133.386" fill="url(#paint5_linear)"/>
<defs>
<linearGradient id="paint0_linear" x1="140.925" y1="23.6517" x2="129.768" y2="90.1063" gradientUnits="userSpaceOnUse">
<stop/>
<stop offset="0.571801" stop-opacity="0"/>
</linearGradient>
<linearGradient id="paint1_linear" x1="103.088" y1="-23.0998" x2="77.0143" y2="269.678" gradientUnits="userSpaceOnUse">
<stop stop-opacity="0"/>
<stop offset="0.932855" stop-opacity="0.75"/>
<stop offset="1"/>
</linearGradient>
<linearGradient id="paint2_linear" x1="85.9399" y1="93.1633" x2="84.764" y2="116.453" gradientUnits="userSpaceOnUse">
<stop offset="0.02" stop-color="white" stop-opacity="0"/>
<stop offset="0.58" stop-color="white" stop-opacity="0.39"/>
<stop offset="1" stop-color="white"/>
</linearGradient>
<linearGradient id="paint3_linear" x1="130.821" y1="181.433" x2="136.866" y2="126.633" gradientUnits="userSpaceOnUse">
<stop offset="0.02" stop-color="white" stop-opacity="0"/>
<stop offset="0.58" stop-color="white" stop-opacity="0.39"/>
<stop offset="1" stop-color="white"/>
</linearGradient>
<linearGradient id="paint4_linear" x1="96.3465" y1="98.9271" x2="84.1243" y2="142.459" gradientUnits="userSpaceOnUse">
<stop offset="0.52893"/>
<stop offset="0.83" stop-opacity="0.07"/>
<stop offset="1" stop-opacity="0"/>
</linearGradient>
<linearGradient id="paint5_linear" x1="73.6212" y1="118.6" x2="67.7073" y2="143.098" gradientUnits="userSpaceOnUse">
<stop offset="0.01"/>
<stop offset="0.83" stop-opacity="0.07"/>
<stop offset="1" stop-opacity="0"/>
</linearGradient>
</defs>
</svg>
