<svg width="208" height="208" viewBox="0 0 208 208" fill="none" xmlns="http://www.w3.org/2000/svg">
<path opacity="0.18" d="M207.956 134.097C207.897 135.795 207.791 137.494 207.613 139.226C206.357 151.765 201.742 164.286 191.795 172.353C179.982 181.925 163.228 183.335 147.748 182.792C132.268 182.248 116.391 180.244 101.575 184.563C93.4644 186.93 86.0413 191.107 77.9487 193.519C62.5457 198.104 45.2173 195.834 31.39 187.926C17.5628 180.018 7.36128 166.715 3.07805 151.872C2.2774 149.081 1.65617 146.245 1.21783 143.381C-1.22296 127.7 1.17044 111.397 0.820906 95.4054C0.512845 81.1911 -1.92202 66.473 3.4098 53.187C6.96436 44.3391 13.7299 37.0367 21.4728 31.257C48.5645 11.0762 82.6822 0.207373 116.853 0.00358377C137.209 -0.120954 158.015 2.98118 175.877 12.3102C181.682 15.3387 187.198 19.1032 191.28 24.0394C194.319 27.7303 196.487 32.0099 198.27 36.38C201.355 43.9675 203.348 51.92 204.195 60.0196C205.285 70.5431 204.426 81.1628 204.864 91.7202C205.474 105.884 208.389 119.939 207.956 134.097Z" fill="#6E71FF"/>
<path opacity="0.3" d="M208 133.067L207.928 133.915C206.876 146.041 203.855 158.102 197.975 167.596C196.27 170.367 194.309 172.893 192.13 175.126C180.274 187.288 163.458 189.078 147.922 188.388C132.385 187.698 116.45 185.152 101.579 190.639C93.4388 193.645 85.9885 198.953 77.8663 202.017C62.4069 207.843 45.0149 204.959 31.1371 194.911C22.0075 188.203 14.4372 178.799 9.13704 167.581C6.36207 161.782 4.2101 155.578 2.73324 149.119C1.92966 145.573 1.30615 141.97 0.866211 138.331L79.5134 136.325L208 133.067Z" fill="#6E71FF"/>
<path d="M97.0667 84.8006C80.9807 85.5314 64.7803 83.0036 48.6168 83.0673C33.6423 83.1343 18.3041 85.3739 3.94595 81.1026C1.94531 80.5025 -0.449399 79.0441 0.0726538 77.0225C6.87281 75.4099 12.5985 70.9006 19.1427 68.3995C25.1065 66.1283 31.5899 65.5639 37.8592 66.7702C41.6045 67.5144 45.3734 68.8689 49.1422 68.2688C52.2577 67.7726 54.9791 65.9756 57.8454 64.6882C59.6507 63.8668 61.941 63.4477 64.43 63.2667C70.4925 65.8985 77.1377 67.6251 82.9073 70.8738C88.8721 74.2364 93.5841 79.081 97.0667 84.8006Z" fill="url(#paint0_linear)"/>
<path d="M97.0552 116.252C97.9288 124.402 95.0394 141.167 85.9952 144.473C83.7711 145.286 81.3589 145.387 78.9869 145.461C69.7142 145.765 60.4371 145.841 51.1554 145.689C47.4437 145.707 43.7358 145.451 40.0618 144.923C38.2744 144.628 36.4266 144.177 35.0357 143.015C32.6907 141.039 32.3077 137.27 33.8867 134.636C35.4657 132.002 38.6507 130.604 41.7147 130.705C40.4727 130.791 39.2309 130.535 38.1239 129.965C37.0169 129.396 36.0869 128.534 35.4348 127.473C34.7827 126.413 34.4334 125.194 34.4246 123.949C34.4158 122.704 34.748 121.481 35.3851 120.411C37.542 116.796 42.3329 115.976 46.5191 115.526C43.8851 112.368 41.923 108.477 41.8155 104.365C41.708 100.253 43.7641 95.9459 47.4463 94.1115C51.1285 92.2771 56.3024 93.6008 58.0427 97.3301C56.6989 90.3487 58.5265 82.6752 63.3712 77.4677C67.7253 72.7641 76.5411 69.0886 82.8573 71.904C88.9047 74.5918 91.1557 83.7704 92.4928 89.5087C94.5565 98.3219 96.0802 107.253 97.0552 116.252Z" fill="#6E71FF"/>
<path d="M97.0552 116.252C97.9288 124.402 95.0394 141.167 85.9952 144.473C83.7711 145.286 81.3589 145.387 78.9869 145.461C69.7142 145.765 60.4371 145.841 51.1554 145.689C47.4437 145.707 43.7358 145.451 40.0618 144.923C38.2744 144.628 36.4266 144.177 35.0357 143.015C32.6907 141.039 32.3077 137.27 33.8867 134.636C35.4657 132.002 38.6507 130.604 41.7147 130.705C40.4727 130.791 39.2309 130.535 38.1239 129.965C37.0169 129.396 36.0869 128.534 35.4348 127.473C34.7827 126.413 34.4334 125.194 34.4246 123.949C34.4158 122.704 34.748 121.481 35.3851 120.411C37.542 116.796 42.3329 115.976 46.5191 115.526C43.8851 112.368 41.923 108.477 41.8155 104.365C41.708 100.253 43.7641 95.9459 47.4463 94.1115C51.1285 92.2771 56.3024 93.6008 58.0427 97.3301C56.6989 90.3487 58.5265 82.6752 63.3712 77.4677C67.7253 72.7641 76.5411 69.0886 82.8573 71.904C88.9047 74.5918 91.1557 83.7704 92.4928 89.5087C94.5565 98.3219 96.0802 107.253 97.0552 116.252Z" fill="url(#paint1_linear)"/>
<path d="M163.651 25.6827H150.212V59.2727H163.651V25.6827Z" fill="#6E71FF"/>
<path d="M163.651 25.6827H150.212V59.2727H163.651V25.6827Z" fill="url(#paint2_linear)"/>
<path d="M164.833 20.9188H149.023C148.162 20.9188 147.464 21.6167 147.464 22.4777V25.797C147.464 26.658 148.162 27.3559 149.023 27.3559H164.833C165.694 27.3559 166.392 26.658 166.392 25.797V22.4777C166.392 21.6167 165.694 20.9188 164.833 20.9188Z" fill="#6E71FF"/>
<path d="M116.339 17.2827L67.9131 65.4872V79.1409V142.686H170.363V79.1409V70.043L116.339 17.2827Z" fill="#6E71FF"/>
<path d="M116.339 17.2827L67.9131 65.4872V79.1409V142.686H170.363V79.1409V70.043L116.339 17.2827Z" fill="url(#paint3_linear)"/>
<g style="mix-blend-mode:multiply" opacity="0.2">
<g style="mix-blend-mode:multiply" opacity="0.2">
<path d="M117.745 13.9981L67.9209 63.6809V71.5896L117.745 24.3526L170.377 74.2504V69.2781C170.671 69.2799 170.959 69.193 171.202 69.0286C171.445 68.8643 171.634 68.6303 171.742 68.3572C171.85 68.0841 171.873 67.7848 171.808 67.4983C171.744 67.2118 171.594 66.9515 171.379 66.7516L117.745 13.9981Z" fill="#6E71FF"/>
</g>
</g>
<path d="M174.354 142.686H63.9287V150.803H174.354V142.686Z" fill="#6E71FF"/>
<path d="M120.331 91.3901H80.8613V124.14H120.331V91.3901Z" fill="#6E71FF"/>
<path d="M120.331 91.3901H80.8613V124.14H120.331V91.3901Z" fill="url(#paint4_linear)"/>
<path d="M159.794 89.9193H133.764V142.686H159.794V89.9193Z" fill="#6E71FF"/>
<path d="M157.69 93.2791H135.872V139.952H157.69V93.2791Z" fill="#6E71FF"/>
<path d="M157.69 93.2791H135.872V139.952H157.69V93.2791Z" fill="url(#paint5_linear)"/>
<path d="M160.555 86.9834H133.153C132.526 86.9834 132.018 87.4918 132.018 88.119V90.2557C132.018 90.8829 132.526 91.3913 133.153 91.3913H160.555C161.182 91.3913 161.69 90.8829 161.69 90.2557V88.119C161.69 87.4918 161.182 86.9834 160.555 86.9834Z" fill="#6E71FF"/>
<path d="M115.427 13.9436L62.0287 65.8774C61.5701 66.3449 61.2581 66.9363 61.1311 67.5788C61.0042 68.2212 61.0677 68.8868 61.314 69.4936C61.5603 70.1005 61.9786 70.6221 62.5175 70.9943C63.0563 71.3666 63.6922 71.5732 64.3469 71.5889C65.2029 71.5898 66.0263 71.26 66.6449 70.6683L115.454 24.2242C116.072 23.6352 116.892 23.3065 117.745 23.3065C118.599 23.3065 119.419 23.6352 120.037 24.2242L168.846 70.6683C169.463 71.259 170.284 71.5888 171.137 71.5889C171.792 71.5732 172.428 71.3666 172.967 70.9943C173.506 70.6221 173.924 70.1005 174.17 69.4936C174.417 68.8868 174.48 68.2212 174.353 67.5788C174.226 66.9363 173.914 66.3449 173.456 65.8774L120.064 13.9436C119.444 13.3386 118.612 13 117.745 13C116.879 13 116.047 13.3386 115.427 13.9436Z" fill="#6E71FF"/>
<path d="M121.467 89.9193H79.7266V91.3909H121.467V89.9193Z" fill="#6E71FF"/>
<path d="M91.8139 91.3901H90.4834V121.412H91.8139V91.3901Z" fill="#6E71FF"/>
<path d="M101.261 91.3901H99.9307V121.412H101.261V91.3901Z" fill="#6E71FF"/>
<path d="M110.707 91.3901H109.377V121.412H110.707V91.3901Z" fill="#6E71FF"/>
<path d="M120.331 107.208H80.8613V108.33H120.331V107.208Z" fill="#6E71FF"/>
<path d="M119.128 121.917C119.766 121.583 120.307 121.09 120.697 120.484C121.087 119.879 121.313 119.182 121.352 118.463C121.352 117.791 121.117 117.025 120.479 116.931C120.207 116.919 119.937 116.981 119.699 117.112C118.974 117.456 118.326 117.946 117.798 118.55C117.993 117.897 118.072 117.215 118.033 116.534C118.035 116.158 117.918 115.79 117.698 115.484C117.479 115.178 117.168 114.95 116.81 114.832C116.452 114.714 116.066 114.712 115.708 114.828C115.349 114.943 115.036 115.169 114.814 115.473C114.303 116.087 113.939 116.812 113.753 117.589C113.331 116.464 112.6 115.481 111.643 114.754C111.483 114.621 111.294 114.526 111.092 114.478C110.857 114.465 110.623 114.521 110.42 114.64C109.827 114.944 109.324 115.398 108.961 115.956C108.598 116.515 108.387 117.159 108.35 117.825C108.285 117.585 108.149 117.37 107.959 117.21C107.77 117.049 107.536 116.949 107.289 116.924C107.167 116.922 107.046 116.947 106.935 116.997C106.824 117.048 106.726 117.123 106.648 117.216C106.57 117.31 106.514 117.42 106.484 117.538C106.454 117.656 106.451 117.779 106.476 117.898C106.008 117.411 105.419 117.059 104.769 116.877C104.119 116.695 103.432 116.69 102.78 116.864C102.137 117.067 101.586 117.49 101.225 118.059C100.864 118.628 100.715 119.307 100.804 119.975C100.645 119.91 100.474 119.881 100.302 119.889C100.13 119.898 99.9622 119.944 99.8099 120.024C99.6577 120.104 99.5247 120.216 99.4202 120.352C99.3158 120.489 99.2424 120.647 99.2052 120.815C99.1517 121.161 99.1738 121.514 99.2701 121.85C99.3664 122.187 99.5345 122.498 99.7629 122.763" fill="#6E71FF"/>
<path d="M81.184 121.849L79.6655 120.573C79.3325 120.35 79.0932 120.013 78.9935 119.625C78.9263 118.953 79.6655 118.517 80.3374 118.624C80.9629 118.799 81.519 119.163 81.9299 119.666C81.7417 118.268 81.6409 116.635 82.669 115.634C83.0802 115.295 83.5807 115.082 84.1101 115.022C84.6394 114.961 85.1751 115.054 85.6524 115.291C86.5999 115.789 87.3439 116.601 87.7556 117.589C88.2192 116.118 89.1219 114.824 90.3425 113.88C90.4272 113.783 90.5325 113.706 90.6507 113.655C90.7688 113.604 90.8969 113.58 91.0256 113.584C91.1543 113.589 91.2804 113.622 91.3947 113.681C91.509 113.74 91.6086 113.825 91.6864 113.927C92.1967 114.414 92.6001 115.002 92.8708 115.653C93.1415 116.305 93.2736 117.005 93.2587 117.71C93.4501 117.27 93.6865 116.852 93.9642 116.46C94.0324 116.337 94.1419 116.242 94.2733 116.192C94.4816 116.131 94.6765 116.292 94.831 116.44C95.2342 116.837 95.6374 117.361 95.503 117.905C95.725 117.012 96.1902 116.198 96.8468 115.553C97.5188 114.969 98.7686 114.915 99.2725 115.674C99.5014 116.083 99.5865 116.556 99.5144 117.018C99.4232 118.002 99.1058 118.952 98.5872 119.793C98.5872 119.464 99.0844 119.336 99.3464 119.531C99.4654 119.643 99.5543 119.782 99.6049 119.938C99.6554 120.093 99.6659 120.258 99.6354 120.418C99.6354 120.741 99.4875 121.056 99.4741 121.386" fill="#6E71FF"/>
<path d="M119.128 121.917C119.766 121.583 120.307 121.09 120.697 120.484C121.087 119.879 121.313 119.182 121.352 118.463C121.352 117.791 121.117 117.025 120.479 116.931C120.207 116.919 119.937 116.981 119.699 117.112C118.974 117.456 118.326 117.946 117.798 118.55C117.993 117.897 118.072 117.215 118.033 116.534C118.035 116.158 117.918 115.79 117.698 115.484C117.479 115.178 117.168 114.95 116.81 114.832C116.452 114.714 116.066 114.712 115.708 114.828C115.349 114.943 115.036 115.169 114.814 115.473C114.303 116.087 113.939 116.812 113.753 117.589C113.331 116.464 112.6 115.481 111.643 114.754C111.483 114.621 111.294 114.526 111.092 114.478C110.857 114.465 110.623 114.521 110.42 114.64C109.827 114.944 109.324 115.398 108.961 115.956C108.598 116.515 108.387 117.159 108.35 117.825C108.285 117.585 108.149 117.37 107.959 117.21C107.77 117.049 107.536 116.949 107.289 116.924C107.167 116.922 107.046 116.947 106.935 116.997C106.824 117.048 106.726 117.123 106.648 117.216C106.57 117.31 106.514 117.42 106.484 117.538C106.454 117.656 106.451 117.779 106.476 117.898C106.008 117.411 105.419 117.059 104.769 116.877C104.119 116.695 103.432 116.69 102.78 116.864C102.137 117.067 101.586 117.49 101.225 118.059C100.864 118.628 100.715 119.307 100.804 119.975C100.645 119.91 100.474 119.881 100.302 119.889C100.13 119.898 99.9622 119.944 99.8099 120.024C99.6577 120.104 99.5247 120.216 99.4202 120.352C99.3158 120.489 99.2424 120.647 99.2052 120.815C99.1517 121.161 99.1738 121.514 99.2701 121.85C99.3664 122.187 99.5345 122.498 99.7629 122.763" fill="url(#paint6_linear)"/>
<path d="M120.21 121.413H80.9891C79.616 121.413 78.5029 122.526 78.5029 123.899V128.166C78.5029 129.539 79.616 130.652 80.9891 130.652H120.21C121.583 130.652 122.696 129.539 122.696 128.166V123.899C122.696 122.526 121.583 121.413 120.21 121.413Z" fill="#6E71FF"/>
<path d="M81.184 121.849L79.6655 120.573C79.3325 120.35 79.0932 120.013 78.9935 119.625C78.9263 118.953 79.6655 118.517 80.3374 118.624C80.9629 118.799 81.519 119.163 81.9299 119.666C81.7417 118.268 81.6409 116.635 82.669 115.634C83.0802 115.295 83.5807 115.082 84.1101 115.022C84.6394 114.961 85.1751 115.054 85.6524 115.291C86.5999 115.789 87.3439 116.601 87.7556 117.589C88.2192 116.118 89.1219 114.824 90.3425 113.88C90.4272 113.783 90.5325 113.706 90.6507 113.655C90.7688 113.604 90.8969 113.58 91.0256 113.584C91.1543 113.589 91.2804 113.622 91.3947 113.681C91.509 113.74 91.6086 113.825 91.6864 113.927C92.1967 114.414 92.6001 115.002 92.8708 115.653C93.1415 116.305 93.2736 117.005 93.2587 117.71C93.4501 117.27 93.6865 116.852 93.9642 116.46C94.0324 116.337 94.1419 116.242 94.2733 116.192C94.4816 116.131 94.6765 116.292 94.831 116.44C95.2342 116.837 95.6374 117.361 95.503 117.905C95.725 117.012 96.1902 116.198 96.8468 115.553C97.5188 114.969 98.7686 114.915 99.2725 115.674C99.5014 116.083 99.5865 116.556 99.5144 117.018C99.4232 118.002 99.1058 118.952 98.5872 119.793C98.5872 119.464 99.0844 119.336 99.3464 119.531C99.4654 119.643 99.5543 119.782 99.6049 119.938C99.6554 120.093 99.6659 120.258 99.6354 120.418C99.6354 120.741 99.4875 121.056 99.4741 121.386" fill="url(#paint7_linear)"/>
<defs>
<linearGradient id="paint0_linear" x1="51636.6" y1="2339.35" x2="51461" y2="5809.55" gradientUnits="userSpaceOnUse">
<stop stop-color="white" stop-opacity="0.27"/>
<stop offset="0.95" stop-color="white"/>
</linearGradient>
<linearGradient id="paint1_linear" x1="65.3549" y1="-20.8002" x2="-63.786" y2="132.805" gradientUnits="userSpaceOnUse">
<stop offset="0.01"/>
<stop offset="0.83" stop-opacity="0.07"/>
<stop offset="1" stop-opacity="0"/>
</linearGradient>
<linearGradient id="paint2_linear" x1="156.925" y1="11.6517" x2="145.768" y2="78.1063" gradientUnits="userSpaceOnUse">
<stop/>
<stop offset="0.571801" stop-opacity="0"/>
</linearGradient>
<linearGradient id="paint3_linear" x1="119.088" y1="-35.0999" x2="93.0143" y2="257.678" gradientUnits="userSpaceOnUse">
<stop stop-opacity="0"/>
<stop offset="0.932855" stop-opacity="0.75"/>
<stop offset="1"/>
</linearGradient>
<linearGradient id="paint4_linear" x1="101.94" y1="81.1633" x2="100.764" y2="104.453" gradientUnits="userSpaceOnUse">
<stop offset="0.02" stop-color="white" stop-opacity="0"/>
<stop offset="0.58" stop-color="white" stop-opacity="0.39"/>
<stop offset="1" stop-color="white"/>
</linearGradient>
<linearGradient id="paint5_linear" x1="146.821" y1="169.433" x2="152.866" y2="114.633" gradientUnits="userSpaceOnUse">
<stop offset="0.02" stop-color="white" stop-opacity="0"/>
<stop offset="0.58" stop-color="white" stop-opacity="0.39"/>
<stop offset="1" stop-color="white"/>
</linearGradient>
<linearGradient id="paint6_linear" x1="112.346" y1="86.9271" x2="100.124" y2="130.459" gradientUnits="userSpaceOnUse">
<stop offset="0.52893"/>
<stop offset="0.83" stop-opacity="0.07"/>
<stop offset="1" stop-opacity="0"/>
</linearGradient>
<linearGradient id="paint7_linear" x1="89.6212" y1="106.6" x2="83.7073" y2="131.098" gradientUnits="userSpaceOnUse">
<stop offset="0.01"/>
<stop offset="0.83" stop-opacity="0.07"/>
<stop offset="1" stop-opacity="0"/>
</linearGradient>
</defs>
</svg>
