<svg width="240" height="240" viewBox="0 0 240 240" fill="none" xmlns="http://www.w3.org/2000/svg">
<path opacity="0.18" d="M239.95 154.727C239.881 156.687 239.758 158.646 239.553 160.645C238.104 175.113 232.779 189.561 221.302 198.869C207.672 209.914 188.34 211.54 170.479 210.913C152.617 210.286 134.298 207.974 117.202 212.958C107.843 215.688 99.2784 220.508 89.9409 223.291C72.1681 228.582 52.1737 225.962 36.2193 216.838C20.2648 207.713 8.49378 192.363 3.55159 175.237C2.62777 172.016 1.91096 168.744 1.40519 165.439C-1.41111 147.347 1.3505 128.535 0.947199 110.083C0.591744 93.682 -2.21772 76.6996 3.93439 61.3696C8.03579 51.1605 15.8421 42.7346 24.7764 36.0658C56.0359 12.7802 95.4026 0.239277 134.831 0.00413512C158.318 -0.139563 182.325 3.43982 202.935 14.2041C209.634 17.6986 215.998 22.0422 220.707 27.7378C224.214 31.9965 226.716 36.9345 228.773 41.977C232.333 50.7318 234.632 59.9076 235.609 69.2534C236.867 81.3959 235.876 93.6494 236.382 105.831C237.086 122.173 240.449 138.392 239.95 154.727Z" fill="#6E71FF"/>
<path opacity="0.3" d="M239.999 153.538L239.917 154.518C238.702 168.509 235.217 182.426 228.432 193.38C226.465 196.577 224.202 199.492 221.688 202.068C208.007 216.101 188.605 218.167 170.678 217.371C152.751 216.574 134.365 213.636 117.206 219.968C107.814 223.437 99.2171 229.561 89.8453 233.096C72.0075 239.818 51.9399 236.491 35.9269 224.897C25.3929 217.158 16.6579 206.307 10.5423 193.363C7.3404 186.671 4.85735 179.513 3.15329 172.061C2.22608 167.968 1.50665 163.811 0.999023 159.613L91.7458 157.298L239.999 153.538Z" fill="#6E71FF"/>
<path d="M112 97.8468C93.4393 98.6901 74.7464 95.7733 56.0963 95.8468C38.8181 95.9242 21.1201 98.5083 4.55302 93.58C2.24459 92.8875 -0.518537 91.2047 0.0838314 88.8721C7.93017 87.0114 14.5368 81.8084 22.0878 78.9225C28.9691 76.3019 36.4498 75.6507 43.6837 77.0425C48.0052 77.9013 52.3539 79.4641 56.7026 78.7717C60.2974 78.1991 63.4375 76.1257 66.7447 74.6402C68.8277 73.6924 71.4703 73.2089 74.3423 73C81.3375 76.0367 89.0051 78.0289 95.6622 81.7774C102.545 85.6574 107.982 91.2473 112 97.8468Z" fill="url(#paint0_linear)"/>
<path d="M111.987 134.137C112.994 143.541 109.661 162.885 99.2249 166.7C96.6587 167.638 93.8753 167.754 91.1385 167.839C80.4392 168.191 69.7348 168.279 59.0252 168.103C54.7425 168.123 50.4641 167.828 46.2248 167.219C44.1625 166.878 42.0304 166.358 40.4255 165.017C37.7197 162.738 37.2778 158.388 39.0997 155.349C40.9217 152.31 44.5967 150.697 48.1321 150.813C46.699 150.912 45.2661 150.617 43.9888 149.96C42.7115 149.303 41.6385 148.308 40.8861 147.085C40.1336 145.861 39.7305 144.455 39.7204 143.018C39.7103 141.582 40.0936 140.17 40.8287 138.936C43.3174 134.765 48.8454 133.819 53.6755 133.299C50.6363 129.655 48.3724 125.166 48.2484 120.421C48.1243 115.676 50.4968 110.707 54.7455 108.59C58.9942 106.474 64.964 108.001 66.9721 112.304C65.4215 104.248 67.5303 95.3944 73.1203 89.3857C78.1443 83.9586 88.3163 79.7176 95.6042 82.9662C102.582 86.0674 105.179 96.6581 106.722 103.279C109.103 113.448 110.861 123.753 111.987 134.137Z" fill="#6E71FF"/>
<path d="M111.987 134.137C112.994 143.541 109.661 162.885 99.2249 166.7C96.6587 167.638 93.8753 167.754 91.1385 167.839C80.4392 168.191 69.7348 168.279 59.0252 168.103C54.7425 168.123 50.4641 167.828 46.2248 167.219C44.1625 166.878 42.0304 166.358 40.4255 165.017C37.7197 162.738 37.2778 158.388 39.0997 155.349C40.9217 152.31 44.5967 150.697 48.1321 150.813C46.699 150.912 45.2661 150.617 43.9888 149.96C42.7115 149.303 41.6385 148.308 40.8861 147.085C40.1336 145.861 39.7305 144.455 39.7204 143.018C39.7103 141.582 40.0936 140.17 40.8287 138.936C43.3174 134.765 48.8454 133.819 53.6755 133.299C50.6363 129.655 48.3724 125.166 48.2484 120.421C48.1243 115.676 50.4968 110.707 54.7455 108.59C58.9942 106.474 64.964 108.001 66.9721 112.304C65.4215 104.248 67.5303 95.3944 73.1203 89.3857C78.1443 83.9586 88.3163 79.7176 95.6042 82.9662C102.582 86.0674 105.179 96.6581 106.722 103.279C109.103 113.448 110.861 123.753 111.987 134.137Z" fill="url(#paint1_linear)"/>
<path d="M188.827 29.6338H173.321V68.3915H188.827V29.6338Z" fill="#6E71FF"/>
<path d="M188.827 29.6338H173.321V68.3915H188.827V29.6338Z" fill="url(#paint2_linear)"/>
<path d="M190.192 24.137H171.949C170.956 24.137 170.15 24.9423 170.15 25.9357V29.7657C170.15 30.7591 170.956 31.5644 171.949 31.5644H190.192C191.185 31.5644 191.991 30.7591 191.991 29.7657V25.9357C191.991 24.9423 191.185 24.137 190.192 24.137Z" fill="#6E71FF"/>
<path d="M134.238 19.9417L78.3613 75.5623V91.3166V164.638H196.573V91.3166V80.8189L134.238 19.9417Z" fill="#6E71FF"/>
<path d="M134.238 19.9417L78.3613 75.5623V91.3166V164.638H196.573V91.3166V80.8189L134.238 19.9417Z" fill="url(#paint3_linear)"/>
<g style="mix-blend-mode:multiply" opacity="0.2">
<g style="mix-blend-mode:multiply" opacity="0.2">
<path d="M135.859 16.1516L78.3701 73.478V82.6033L135.859 28.0991L196.589 85.6736V79.9363C196.928 79.9384 197.26 79.838 197.541 79.6484C197.822 79.4588 198.039 79.1888 198.164 78.8737C198.288 78.5586 198.315 78.2132 198.24 77.8826C198.166 77.552 197.993 77.2518 197.744 77.0211L135.859 16.1516Z" fill="#6E71FF"/>
</g>
</g>
<path d="M201.178 164.637H73.7637V174.003H201.178V164.637Z" fill="#6E71FF"/>
<path d="M138.843 105.45H93.3018V143.239H138.843V105.45Z" fill="#6E71FF"/>
<path d="M138.843 105.45H93.3018V143.239H138.843V105.45Z" fill="url(#paint4_linear)"/>
<path d="M184.377 103.753H154.342V164.638H184.377V103.753Z" fill="#6E71FF"/>
<path d="M181.95 107.63H156.775V161.483H181.95V107.63Z" fill="#6E71FF"/>
<path d="M181.95 107.63H156.775V161.483H181.95V107.63Z" fill="url(#paint5_linear)"/>
<path d="M185.254 100.365H153.637C152.914 100.365 152.327 100.952 152.327 101.676V104.141C152.327 104.865 152.914 105.451 153.637 105.451H185.254C185.978 105.451 186.565 104.865 186.565 104.141V101.676C186.565 100.952 185.978 100.365 185.254 100.365Z" fill="#6E71FF"/>
<path d="M133.185 16.0888L71.5711 76.0124C71.042 76.5518 70.682 77.2342 70.5355 77.9755C70.389 78.7168 70.4623 79.4848 70.7465 80.185C71.0307 80.8852 71.5133 81.487 72.1351 81.9165C72.7568 82.3461 73.4905 82.5845 74.246 82.6025C75.2337 82.6036 76.1837 82.2231 76.8975 81.5403L133.216 27.951C133.928 27.2713 134.875 26.8921 135.86 26.8921C136.844 26.8921 137.791 27.2713 138.504 27.951L194.822 81.5403C195.533 82.2219 196.481 82.6024 197.466 82.6025C198.221 82.5845 198.955 82.3461 199.577 81.9165C200.198 81.487 200.681 80.8852 200.965 80.185C201.249 79.4848 201.323 78.7168 201.176 77.9755C201.03 77.2342 200.67 76.5518 200.141 76.0124L138.535 16.0888C137.819 15.3907 136.859 15 135.86 15C134.86 15 133.9 15.3907 133.185 16.0888Z" fill="#6E71FF"/>
<path d="M140.154 103.753H91.9922V105.451H140.154V103.753Z" fill="#6E71FF"/>
<path d="M105.938 105.45H104.403V140.091H105.938V105.45Z" fill="#6E71FF"/>
<path d="M116.839 105.45H115.304V140.091H116.839V105.45Z" fill="#6E71FF"/>
<path d="M127.739 105.45H126.204V140.091H127.739V105.45Z" fill="#6E71FF"/>
<path d="M138.843 123.702H93.3018V124.996H138.843V123.702Z" fill="#6E71FF"/>
<path d="M137.455 140.673C138.192 140.288 138.816 139.719 139.266 139.02C139.716 138.321 139.976 137.518 140.022 136.688C140.022 135.913 139.75 135.029 139.014 134.92C138.7 134.906 138.389 134.978 138.114 135.13C137.277 135.527 136.53 136.091 135.92 136.789C136.145 136.035 136.237 135.248 136.192 134.463C136.194 134.028 136.059 133.604 135.806 133.251C135.552 132.898 135.193 132.634 134.781 132.498C134.368 132.362 133.923 132.36 133.509 132.493C133.095 132.626 132.734 132.887 132.478 133.238C131.887 133.947 131.468 134.783 131.253 135.68C130.767 134.381 129.923 133.247 128.818 132.408C128.634 132.254 128.416 132.146 128.183 132.09C127.912 132.075 127.642 132.14 127.407 132.276C126.723 132.627 126.143 133.151 125.724 133.796C125.305 134.44 125.062 135.184 125.019 135.951C124.944 135.675 124.787 135.427 124.568 135.242C124.349 135.056 124.08 134.942 123.794 134.912C123.654 134.91 123.514 134.938 123.387 134.997C123.259 135.055 123.145 135.141 123.055 135.249C122.965 135.357 122.901 135.484 122.866 135.62C122.832 135.757 122.828 135.899 122.856 136.037C122.317 135.475 121.637 135.068 120.887 134.858C120.137 134.648 119.345 134.642 118.592 134.843C117.85 135.077 117.215 135.565 116.798 136.222C116.381 136.879 116.209 137.661 116.313 138.432C116.129 138.358 115.931 138.324 115.733 138.334C115.534 138.344 115.341 138.396 115.165 138.489C114.989 138.581 114.836 138.71 114.716 138.868C114.595 139.026 114.51 139.208 114.467 139.401C114.406 139.8 114.431 140.208 114.542 140.596C114.653 140.984 114.847 141.344 115.111 141.65" fill="#6E71FF"/>
<path d="M93.674 140.595L91.9218 139.122C91.5376 138.866 91.2616 138.477 91.1465 138.029C91.069 137.254 91.9218 136.75 92.6971 136.874C93.4188 137.076 94.0606 137.495 94.5346 138.076C94.3175 136.463 94.2012 134.579 95.3875 133.424C95.862 133.033 96.4394 132.787 97.0502 132.717C97.661 132.647 98.2791 132.755 98.8298 133.028C99.9232 133.602 100.782 134.54 101.257 135.68C101.792 133.982 102.833 132.489 104.242 131.4C104.339 131.288 104.461 131.2 104.597 131.141C104.733 131.081 104.881 131.054 105.03 131.059C105.178 131.064 105.324 131.102 105.456 131.171C105.587 131.239 105.702 131.336 105.792 131.455C106.381 132.016 106.846 132.695 107.159 133.446C107.471 134.198 107.624 135.006 107.606 135.82C107.827 135.312 108.1 134.829 108.42 134.377C108.499 134.235 108.625 134.126 108.777 134.067C109.017 133.998 109.242 134.184 109.421 134.354C109.886 134.812 110.351 135.416 110.196 136.044C110.452 135.014 110.989 134.075 111.747 133.331C112.522 132.656 113.964 132.594 114.545 133.47C114.809 133.941 114.908 134.487 114.824 135.021C114.719 136.156 114.353 137.252 113.755 138.223C113.755 137.843 114.328 137.696 114.631 137.921C114.768 138.049 114.871 138.211 114.929 138.39C114.987 138.568 114.999 138.759 114.964 138.944C114.964 139.316 114.793 139.681 114.778 140.06" fill="#6E71FF"/>
<path d="M137.455 140.673C138.192 140.288 138.816 139.719 139.266 139.02C139.716 138.321 139.976 137.518 140.022 136.688C140.022 135.913 139.75 135.029 139.014 134.92C138.7 134.906 138.389 134.978 138.114 135.13C137.277 135.527 136.53 136.091 135.92 136.789C136.145 136.035 136.237 135.248 136.192 134.463C136.194 134.028 136.059 133.604 135.806 133.251C135.552 132.898 135.193 132.634 134.781 132.498C134.368 132.362 133.923 132.36 133.509 132.493C133.095 132.626 132.734 132.887 132.478 133.238C131.887 133.947 131.468 134.783 131.253 135.68C130.767 134.381 129.923 133.247 128.818 132.408C128.634 132.254 128.416 132.146 128.183 132.09C127.912 132.075 127.642 132.14 127.407 132.276C126.723 132.627 126.143 133.151 125.724 133.796C125.305 134.44 125.062 135.184 125.019 135.951C124.944 135.675 124.787 135.427 124.568 135.242C124.349 135.056 124.08 134.942 123.794 134.912C123.654 134.91 123.514 134.938 123.387 134.997C123.259 135.055 123.145 135.141 123.055 135.249C122.965 135.357 122.901 135.484 122.866 135.62C122.832 135.757 122.828 135.899 122.856 136.037C122.317 135.475 121.637 135.068 120.887 134.858C120.137 134.648 119.345 134.642 118.592 134.843C117.85 135.077 117.215 135.565 116.798 136.222C116.381 136.879 116.209 137.661 116.313 138.432C116.129 138.358 115.931 138.324 115.733 138.334C115.534 138.344 115.341 138.396 115.165 138.489C114.989 138.581 114.836 138.71 114.716 138.868C114.595 139.026 114.51 139.208 114.467 139.401C114.406 139.8 114.431 140.208 114.542 140.596C114.653 140.984 114.847 141.344 115.111 141.65" fill="url(#paint6_linear)"/>
<path d="M138.704 140.092H93.4487C91.8644 140.092 90.5801 141.376 90.5801 142.961V147.884C90.5801 149.468 91.8644 150.752 93.4487 150.752H138.704C140.288 150.752 141.572 149.468 141.572 147.884V142.961C141.572 141.376 140.288 140.092 138.704 140.092Z" fill="#6E71FF"/>
<path d="M93.674 140.595L91.9218 139.122C91.5376 138.866 91.2616 138.477 91.1465 138.029C91.069 137.254 91.9218 136.75 92.6971 136.874C93.4188 137.076 94.0606 137.495 94.5346 138.076C94.3175 136.463 94.2012 134.579 95.3875 133.424C95.862 133.033 96.4394 132.787 97.0502 132.717C97.661 132.647 98.2791 132.755 98.8298 133.028C99.9232 133.602 100.782 134.54 101.257 135.68C101.792 133.982 102.833 132.489 104.242 131.4C104.339 131.288 104.461 131.2 104.597 131.141C104.733 131.081 104.881 131.054 105.03 131.059C105.178 131.064 105.324 131.102 105.456 131.171C105.587 131.239 105.702 131.336 105.792 131.455C106.381 132.016 106.846 132.695 107.159 133.446C107.471 134.198 107.624 135.006 107.606 135.82C107.827 135.312 108.1 134.829 108.42 134.377C108.499 134.235 108.625 134.126 108.777 134.067C109.017 133.998 109.242 134.184 109.421 134.354C109.886 134.812 110.351 135.416 110.196 136.044C110.452 135.014 110.989 134.075 111.747 133.331C112.522 132.656 113.964 132.594 114.545 133.47C114.809 133.941 114.908 134.487 114.824 135.021C114.719 136.156 114.353 137.252 113.755 138.223C113.755 137.843 114.328 137.696 114.631 137.921C114.768 138.049 114.871 138.211 114.929 138.39C114.987 138.568 114.999 138.759 114.964 138.944C114.964 139.316 114.793 139.681 114.778 140.06" fill="url(#paint7_linear)"/>
<defs>
<linearGradient id="paint0_linear" x1="59580.6" y1="2699.25" x2="59378.1" y2="6703.33" gradientUnits="userSpaceOnUse">
<stop stop-color="white" stop-opacity="0.27"/>
<stop offset="0.95" stop-color="white"/>
</linearGradient>
<linearGradient id="paint1_linear" x1="75.4092" y1="-24.0003" x2="-73.5995" y2="153.237" gradientUnits="userSpaceOnUse">
<stop offset="0.01"/>
<stop offset="0.83" stop-opacity="0.07"/>
<stop offset="1" stop-opacity="0"/>
</linearGradient>
<linearGradient id="paint2_linear" x1="181.067" y1="13.4442" x2="168.194" y2="90.1226" gradientUnits="userSpaceOnUse">
<stop/>
<stop offset="0.571801" stop-opacity="0"/>
</linearGradient>
<linearGradient id="paint3_linear" x1="137.409" y1="-40.4998" x2="107.324" y2="297.321" gradientUnits="userSpaceOnUse">
<stop stop-opacity="0"/>
<stop offset="0.932855" stop-opacity="0.75"/>
<stop offset="1"/>
</linearGradient>
<linearGradient id="paint4_linear" x1="117.623" y1="93.65" x2="116.266" y2="120.522" gradientUnits="userSpaceOnUse">
<stop offset="0.02" stop-color="white" stop-opacity="0"/>
<stop offset="0.58" stop-color="white" stop-opacity="0.39"/>
<stop offset="1" stop-color="white"/>
</linearGradient>
<linearGradient id="paint5_linear" x1="169.409" y1="195.5" x2="176.384" y2="132.269" gradientUnits="userSpaceOnUse">
<stop offset="0.02" stop-color="white" stop-opacity="0"/>
<stop offset="0.58" stop-color="white" stop-opacity="0.39"/>
<stop offset="1" stop-color="white"/>
</linearGradient>
<linearGradient id="paint6_linear" x1="129.63" y1="100.3" x2="115.528" y2="150.529" gradientUnits="userSpaceOnUse">
<stop offset="0.52893"/>
<stop offset="0.83" stop-opacity="0.07"/>
<stop offset="1" stop-opacity="0"/>
</linearGradient>
<linearGradient id="paint7_linear" x1="103.409" y1="123" x2="96.5856" y2="151.267" gradientUnits="userSpaceOnUse">
<stop offset="0.01"/>
<stop offset="0.83" stop-opacity="0.07"/>
<stop offset="1" stop-opacity="0"/>
</linearGradient>
</defs>
</svg>
