<svg width="208" height="208" viewBox="0 0 208 208" fill="none" xmlns="http://www.w3.org/2000/svg">
<path opacity="0.18" d="M93.6766 0.249008C124.406 -2.22063 149.388 13.8075 160.258 42.6469C172.115 74.1034 208.945 92.4835 207.981 117.869C206.627 153.558 167.856 147.903 142.929 173.488C119.832 197.194 73.485 211.875 47.1605 201.753C29.3751 194.915 2.80692 172.512 0.188669 144.767C-2.09141 120.604 16.6061 66.3533 39.408 34.8968C55.5222 12.6663 66.3026 2.44896 93.6766 0.249008Z" fill="#6E71FF"/>
<path d="M81.0354 63.6552L112.413 63.6552C114.566 63.6552 116.311 62.208 116.311 60.4228V51.3817C116.311 49.5966 114.566 48.1494 112.413 48.1494H81.0354C78.883 48.1494 77.1381 49.5966 77.1381 51.3817V60.4228C77.1381 62.208 78.883 63.6552 81.0354 63.6552Z" fill="#6E71FF"/>
<path d="M60.0001 117.342C59.9888 111.273 61.3671 105.293 64.0162 99.9168L78.6246 61.2069H114.359L127.941 102.044C130.089 107.176 131.129 112.753 130.987 118.367C130.845 123.981 129.524 129.49 127.12 134.493C124.717 139.495 121.291 143.864 117.094 147.28C112.898 150.696 108.035 153.073 102.862 154.238C97.6894 155.402 92.337 155.325 87.1959 154.011C82.0548 152.698 77.255 150.181 73.1471 146.645C69.0392 143.109 65.727 138.643 63.4524 133.573C61.1778 128.503 59.9983 122.957 60.0001 117.342Z" fill="#6E71FF"/>
<path opacity="0.69" d="M60.0001 117.342C59.9888 111.273 61.3671 105.293 64.0162 99.9168L78.6246 61.2069H114.359L127.941 102.044C130.089 107.176 131.129 112.753 130.987 118.367C130.845 123.981 129.524 129.49 127.12 134.493C124.717 139.495 121.291 143.864 117.094 147.28C112.898 150.696 108.035 153.073 102.862 154.238C97.6894 155.402 92.337 155.325 87.1959 154.011C82.0548 152.698 77.255 150.181 73.1471 146.645C69.0392 143.109 65.727 138.643 63.4524 133.573C61.1778 128.503 59.9983 122.957 60.0001 117.342Z" fill="url(#paint0_radial)"/>
<path d="M101.05 60.3908C106.202 71.9946 108.906 84.6912 108.965 97.5629C108.965 100.447 108.58 103.81 106.25 105.247C103.361 106.965 99.8565 104.279 98.2966 101.176C97.2872 99.1416 96.6896 96.8983 96.5436 94.595C96.3975 92.2918 96.7062 89.9812 97.4493 87.8169C99.375 90.3888 99.8854 93.7728 100.203 97.0214C100.576 99.4108 100.441 101.861 99.8083 104.185C99.0477 106.455 97.1701 108.454 94.9362 108.537C91.5084 108.662 89.2841 104.508 88.899 100.812C88.4691 96.6037 89.3574 92.3615 91.4217 88.7644C92.1467 91.136 92.2792 93.6726 91.8058 96.1174C91.3323 98.5621 90.2697 100.828 88.7257 102.686C87.7086 103.983 86.3417 104.904 84.8164 105.32C84.0528 105.511 83.2547 105.464 82.5149 105.184C81.7751 104.903 81.1241 104.402 80.6375 103.737C80.1672 102.915 79.8835 101.984 79.8095 101.02C78.8466 94.0539 81.1382 87.0464 83.9306 80.6845C86.7229 74.3225 90.1122 68.1897 91.7587 61.3696" stroke="url(#paint1_linear)" stroke-width="1.39" stroke-miterlimit="10"/>
<path d="M96.3793 0.371318V44.9002H94.1709V0L96.3793 0.371318Z" fill="#6E71FF"/>
<path d="M117.325 53.0447C116.287 55.3908 115.09 56.5174 116.129 58.0711C117.167 59.6249 120.159 63.8032 104.979 65.6602C101.834 66.051 98.6673 66.2784 95.4937 66.3412H90.5276L87.6181 66.2236C84.2959 66.0378 81.6133 65.7345 79.825 65.4746C78.853 65.3464 77.9219 65.0354 77.0923 64.5618C76.2627 64.0883 75.5533 63.4628 75.0102 62.7261C74.7443 62.1723 74.6549 61.5628 74.7521 60.9659C74.8493 60.369 75.1292 59.8082 75.5605 59.3463C75.7539 59.1846 75.9101 58.9902 76.02 58.7742C76.1299 58.5581 76.1914 58.3247 76.201 58.0873C76.2106 57.8498 76.1681 57.613 76.0759 57.3904C75.9836 57.1677 75.8436 56.9636 75.6636 56.7898C75.4581 56.5967 75.2097 56.4448 74.9345 56.3441C74.1137 55.6494 73.627 54.6937 73.5782 53.6806C73.5294 52.6676 73.9223 51.6775 74.6731 50.9215C75.045 50.5752 75.3537 50.1783 75.588 49.7454C75.9128 49.076 76.0288 48.3396 75.9233 47.6154C75.8179 46.8912 75.4951 46.2065 74.9896 45.6351L74.57 45.1709C73.9906 44.4662 73.5679 43.6675 73.325 42.8186C73.0721 42.2355 72.9968 41.6021 73.1068 40.984C73.2168 40.3659 73.5083 39.7854 73.9509 39.3026C74.5648 42.0708 76.2706 44.5456 78.7535 46.2704C81.2364 47.9952 84.3288 48.8535 87.4599 48.6869L91.3599 48.4764C91.471 48.3403 91.5591 48.1901 91.6212 48.0307C92.3091 46.5327 90.7614 44.7933 91.5456 42.4596L94.4757 42.342C101.68 41.9542 108.795 40.7052 115.633 38.6279C116.38 39.1841 116.891 39.9551 117.081 40.8109C117.27 41.6667 117.125 42.555 116.672 43.3262C116.402 43.846 116.219 44.3987 116.129 44.9666C115.951 46.1563 116.176 47.3667 116.775 48.4392C116.844 48.5697 116.922 48.6958 117.009 48.8168C117.426 49.45 117.672 50.1625 117.727 50.8969C117.782 51.6312 117.644 52.367 117.325 53.0447Z" fill="#6E71FF"/>
<path d="M73.9785 39.2901C87.5848 36.1166 101.832 35.8833 115.558 38.6092C115.558 38.6092 93.0245 46.9164 73.9785 39.2901Z" fill="#6E71FF"/>
<path d="M73.9785 39.2901C87.5848 36.1166 101.832 35.8833 115.558 38.6092C115.558 38.6092 93.0245 46.9164 73.9785 39.2901Z" fill="url(#paint2_linear)"/>
<path d="M93.9325 66.1183C92.8005 66.3179 91.645 66.3886 90.4934 66.3287L87.577 66.2111C84.2548 66.0254 81.5791 65.7221 79.7839 65.4621C78.8119 65.334 77.8808 65.023 77.0512 64.5494C76.2217 64.0759 75.5122 63.4504 74.9691 62.7137C74.7015 62.1606 74.6105 61.5513 74.7065 60.9542C74.8025 60.3572 75.0816 59.796 75.5125 59.3339C75.7568 59.1232 75.9397 58.8617 76.0453 58.5724C76.1508 58.2831 76.1757 57.9749 76.1178 57.6749C76.0554 57.3756 75.9098 57.0954 75.6945 56.8605C75.4792 56.6256 75.2012 56.4436 74.8866 56.3317C74.0652 55.637 73.5786 54.6806 73.531 53.6671C73.4835 52.6536 73.8787 51.6636 74.6321 50.9091C75.3985 50.2184 75.8541 49.2971 75.9112 48.3224C75.9684 47.3476 75.623 46.3883 74.9416 45.6289C74.1782 44.817 73.6281 43.8606 73.3321 42.8309C73.0797 42.2481 73.004 41.6154 73.1128 40.9975C73.2215 40.3797 73.5109 39.799 73.9511 39.3149C80.4706 41.5617 87.4322 42.5835 94.4071 42.3172L94.7441 42.4595C94.7441 42.4595 92.1442 43.3509 92.8182 45.3937C93.4923 47.4364 94.4828 51.1196 92.2473 53.5151C90.0119 55.9107 94.3108 56.5669 93.4992 59.2658V59.5258C93.1686 60.3301 92.9155 61.1585 92.7426 62.0018C92.2749 64.1251 92.4949 65.9326 93.9325 66.1183Z" fill="#6E71FF"/>
<path d="M93.9325 66.1183C92.8005 66.3179 91.645 66.3886 90.4934 66.3287L87.577 66.2111C84.2548 66.0254 81.5791 65.7221 79.7839 65.4621C78.8119 65.334 77.8808 65.023 77.0512 64.5494C76.2217 64.0759 75.5122 63.4504 74.9691 62.7137C74.7015 62.1606 74.6105 61.5513 74.7065 60.9542C74.8025 60.3572 75.0816 59.796 75.5125 59.3339C75.7568 59.1232 75.9397 58.8617 76.0453 58.5724C76.1508 58.2831 76.1757 57.9749 76.1178 57.6749C76.0554 57.3756 75.9098 57.0954 75.6945 56.8605C75.4792 56.6256 75.2012 56.4436 74.8866 56.3317C74.0652 55.637 73.5786 54.6806 73.531 53.6671C73.4835 52.6536 73.8787 51.6636 74.6321 50.9091C75.3985 50.2184 75.8541 49.2971 75.9112 48.3224C75.9684 47.3476 75.623 46.3883 74.9416 45.6289C74.1782 44.817 73.6281 43.8606 73.3321 42.8309C73.0797 42.2481 73.004 41.6154 73.1128 40.9975C73.2215 40.3797 73.5109 39.799 73.9511 39.3149C80.4706 41.5617 87.4322 42.5835 94.4071 42.3172L94.7441 42.4595C94.7441 42.4595 92.1442 43.3509 92.8182 45.3937C93.4923 47.4364 94.4828 51.1196 92.2473 53.5151C90.0119 55.9107 94.3108 56.5669 93.4992 59.2658V59.5258C93.1686 60.3301 92.9155 61.1585 92.7426 62.0018C92.2749 64.1251 92.4949 65.9326 93.9325 66.1183Z" fill="url(#paint3_linear)"/>
<path d="M113.817 59.5441C111.891 60.6707 104.979 62.7878 92.6597 62.0202C86.8852 61.607 81.1683 60.6949 75.5878 59.2965C75.7813 59.1349 75.9375 58.9405 76.0474 58.7244C76.1573 58.5084 76.2188 58.275 76.2284 58.0375C76.238 57.8001 76.1955 57.5633 76.1032 57.3406C76.011 57.118 75.871 56.9139 75.691 56.74C75.4855 56.5469 75.2371 56.3951 74.9619 56.2943C80.9442 58.1389 87.2106 59.129 93.5333 59.2284C100.631 59.4072 107.719 58.6162 114.553 56.8824C114.553 56.8824 116.699 57.8542 113.817 59.5441Z" fill="white"/>
<path d="M116.755 48.4642C114.444 50.2036 105.708 53.4163 93.0798 52.3144C87.1496 52.121 81.2714 51.2452 75.5883 49.7084C75.9133 49.0401 76.0294 48.3047 75.9239 47.5814C75.8184 46.8581 75.4955 46.1745 74.9899 45.6043L74.5703 45.1339C75.4026 45.4186 76.8058 45.8148 78.6973 46.2605C82.9595 47.231 87.3106 47.8525 91.6972 48.1175H93.7194C101.357 48.3941 108.98 47.3085 116.15 44.9234C115.941 46.1316 116.152 47.3683 116.755 48.4642Z" fill="white"/>
<defs>
<radialGradient id="paint0_radial" cx="0" cy="0" r="1" gradientUnits="userSpaceOnUse" gradientTransform="translate(95.4903 108.115) scale(40.073 42.5602)">
<stop offset="0.34" stop-color="white"/>
<stop offset="1" stop-color="white" stop-opacity="0.39"/>
</radialGradient>
<linearGradient id="paint1_linear" x1="94.2756" y1="60.3908" x2="93.9998" y2="20" gradientUnits="userSpaceOnUse">
<stop stop-color="white"/>
<stop offset="1" stop-color="white" stop-opacity="0"/>
</linearGradient>
<linearGradient id="paint2_linear" x1="94.5" y1="32.5" x2="95" y2="73" gradientUnits="userSpaceOnUse">
<stop/>
<stop offset="1" stop-opacity="0"/>
</linearGradient>
<linearGradient id="paint3_linear" x1="84" y1="36.5" x2="84" y2="87.5" gradientUnits="userSpaceOnUse">
<stop/>
<stop offset="1" stop-opacity="0"/>
</linearGradient>
</defs>
</svg>
