<svg width="208" height="208" viewBox="0 0 208 208" fill="none" xmlns="http://www.w3.org/2000/svg">
<path opacity="0.18" d="M207.995 150.775C208.327 175.661 191.696 199.325 170.959 203.498C161.254 205.46 151.353 203.57 141.497 203.053C120.059 201.947 98.6698 207.386 77.2693 207.957C72.9371 208.073 68.5975 207.957 64.254 207.596C49.9732 206.317 36.0274 201.845 23.1571 194.417C17.6675 191.251 12.3098 187.471 8.3132 182.032C-0.260592 170.378 -1.0863 153.32 0.896908 138.073C2.88012 122.826 7.24242 107.921 7.46487 92.4868C7.62323 81.7111 5.75313 71.0513 5.27429 60.289C4.79546 49.5266 5.90017 38.1134 11.2579 29.4019C16.6155 20.6904 25.5324 15.9155 34.4644 13.838C43.3964 11.7604 52.5621 12.0324 61.66 11.3636C80.4779 9.99937 98.9036 4.57362 117.612 1.86744C145.513 -2.17624 190.38 -3.48252 193.468 39.6961C193.705 43.2674 193.77 46.8517 193.664 50.4317C193.393 62.3576 191.843 74.3282 193.125 86.1649C195.523 108.407 207.693 128.363 207.995 150.775Z" fill="#6E71FF"/>
<path d="M152.244 173.622H57.5817L51.6924 168.773L57.5817 41.0934L146.355 36.2447L152.244 41.0934V173.622Z" fill="#6E71FF"/>
<path d="M152.244 173.622H57.5817L51.6924 168.773L57.5817 41.0934L146.355 36.2447L152.244 41.0934V173.622Z" fill="url(#paint0_linear)"/>
<path d="M149.126 171.311L56.0811 171.544L51.6924 168.773L54.8105 40.6334L143.584 35.7847L149.473 40.6334L149.126 171.311Z" fill="url(#paint1_linear)"/>
<path d="M146 37H52V170H146V37Z" fill="white"/>
<path d="M95.1 56.4463H66.0078V93.1584H95.1V56.4463Z" fill="#6E71FF"/>
<path d="M95.1 56.4463H66.0078V93.1584H95.1V56.4463Z" fill="url(#paint2_linear)"/>
<path d="M133.543 61.5287H105.604C104.775 61.5287 104.104 62.2005 104.104 63.0293C104.104 63.8581 104.775 64.5299 105.604 64.5299H133.543C134.371 64.5299 135.043 63.8581 135.043 63.0293C135.043 62.2005 134.371 61.5287 133.543 61.5287Z" fill="#6E71FF"/>
<path d="M133.543 61.5287H105.604C104.775 61.5287 104.104 62.2005 104.104 63.0293C104.104 63.8581 104.775 64.5299 105.604 64.5299H133.543C134.371 64.5299 135.043 63.8581 135.043 63.0293C135.043 62.2005 134.371 61.5287 133.543 61.5287Z" fill="url(#paint3_linear)"/>
<path d="M133.543 68.1082H105.604C104.775 68.1082 104.104 68.7801 104.104 69.6088C104.104 70.4376 104.775 71.1095 105.604 71.1095H133.543C134.371 71.1095 135.043 70.4376 135.043 69.6088C135.043 68.7801 134.371 68.1082 133.543 68.1082Z" fill="#6E71FF"/>
<path d="M133.543 68.1082H105.604C104.775 68.1082 104.104 68.7801 104.104 69.6088C104.104 70.4376 104.775 71.1094 105.604 71.1094H133.543C134.371 71.1094 135.043 70.4376 135.043 69.6088C135.043 68.7801 134.371 68.1082 133.543 68.1082Z" fill="url(#paint4_linear)"/>
<path d="M133.543 77.6885H105.604C104.775 77.6885 104.104 78.3604 104.104 79.1891C104.104 80.0179 104.775 80.6897 105.604 80.6897H133.543C134.371 80.6897 135.043 80.0179 135.043 79.1891C135.043 78.3604 134.371 77.6885 133.543 77.6885Z" fill="#6E71FF"/>
<path d="M133.543 77.6885H105.604C104.775 77.6885 104.104 78.3604 104.104 79.1891C104.104 80.0179 104.775 80.6897 105.604 80.6897H133.543C134.371 80.6897 135.043 80.0179 135.043 79.1891C135.043 78.3604 134.371 77.6885 133.543 77.6885Z" fill="url(#paint5_linear)"/>
<path d="M133.543 84.2681H105.604C104.775 84.2681 104.104 84.9399 104.104 85.7687C104.104 86.5975 104.775 87.2693 105.604 87.2693H133.543C134.371 87.2693 135.043 86.5975 135.043 85.7687C135.043 84.9399 134.371 84.2681 133.543 84.2681Z" fill="#6E71FF"/>
<path d="M133.543 84.2681H105.604C104.775 84.2681 104.104 84.9399 104.104 85.7687C104.104 86.5974 104.775 87.2693 105.604 87.2693H133.543C134.371 87.2693 135.043 86.5974 135.043 85.7687C135.043 84.9399 134.371 84.2681 133.543 84.2681Z" fill="url(#paint6_linear)"/>
<path d="M131.605 123H68.3951C66.52 123 65 123.672 65 124.5C65 125.328 66.52 126 68.3951 126H131.605C133.48 126 135 125.328 135 124.5C135 123.672 133.48 123 131.605 123Z" fill="#6E71FF"/>
<path d="M131.605 123H68.3951C66.52 123 65 123.672 65 124.5C65 125.328 66.52 126 68.3951 126H131.605C133.48 126 135 125.328 135 124.5C135 123.672 133.48 123 131.605 123Z" fill="url(#paint7_linear)"/>
<path d="M131.605 129H68.3951C66.52 129 65 129.672 65 130.5C65 131.328 66.52 132 68.3951 132H131.605C133.48 132 135 131.328 135 130.5C135 129.672 133.48 129 131.605 129Z" fill="#6E71FF"/>
<path d="M131.605 129H68.3951C66.52 129 65 129.672 65 130.5C65 131.328 66.52 132 68.3951 132H131.605C133.48 132 135 131.328 135 130.5C135 129.672 133.48 129 131.605 129Z" fill="url(#paint8_linear)"/>
<path d="M131.605 145H68.3951C66.52 145 65 145.672 65 146.5C65 147.328 66.52 148 68.3951 148H131.605C133.48 148 135 147.328 135 146.5C135 145.672 133.48 145 131.605 145Z" fill="#6E71FF"/>
<path d="M131.605 145H68.3951C66.52 145 65 145.672 65 146.5C65 147.328 66.52 148 68.3951 148H131.605C133.48 148 135 147.328 135 146.5C135 145.672 133.48 145 131.605 145Z" fill="url(#paint9_linear)"/>
<path d="M131.605 151H68.3951C66.52 151 65 151.672 65 152.5C65 153.328 66.52 154 68.3951 154H131.605C133.48 154 135 153.328 135 152.5C135 151.672 133.48 151 131.605 151Z" fill="#6E71FF"/>
<path d="M131.605 151H68.3951C66.52 151 65 151.672 65 152.5C65 153.328 66.52 154 68.3951 154H131.605C133.48 154 135 153.328 135 152.5C135 151.672 133.48 151 131.605 151Z" fill="url(#paint10_linear)"/>
<path d="M133.539 102.124H66.8151C65.9863 102.124 65.3145 102.796 65.3145 103.625C65.3145 104.454 65.9863 105.125 66.8151 105.125H133.539C134.368 105.125 135.04 104.454 135.04 103.625C135.04 102.796 134.368 102.124 133.539 102.124Z" fill="#6E71FF"/>
<path d="M133.539 102.124H66.8151C65.9863 102.124 65.3145 102.796 65.3145 103.625C65.3145 104.454 65.9863 105.125 66.8151 105.125H133.539C134.368 105.125 135.04 104.454 135.04 103.625C135.04 102.796 134.368 102.124 133.539 102.124Z" fill="url(#paint11_linear)"/>
<path d="M133.539 108.703H66.8151C65.9863 108.703 65.3145 109.375 65.3145 110.204C65.3145 111.033 65.9863 111.705 66.8151 111.705H133.539C134.368 111.705 135.04 111.033 135.04 110.204C135.04 109.375 134.368 108.703 133.539 108.703Z" fill="#6E71FF"/>
<path d="M133.539 108.703H66.8151C65.9863 108.703 65.3145 109.375 65.3145 110.204C65.3145 111.033 65.9863 111.705 66.8151 111.705H133.539C134.368 111.705 135.04 111.033 135.04 110.204C135.04 109.375 134.368 108.703 133.539 108.703Z" fill="url(#paint12_linear)"/>
<path d="M82.6216 72.9793H79.3784C77.5308 72.9793 76.0277 71.4365 76.0277 69.5402C76.0277 67.6437 77.5309 66.1009 79.3784 66.1009H85.8646C86.7007 66.1009 87.3785 65.4052 87.3785 64.547C87.3785 63.6889 86.7007 62.9931 85.8646 62.9931H82.5139V59.5539C82.5139 58.6957 81.8361 58 81 58C80.1639 58 79.4861 58.6957 79.4861 59.5539V62.9931H79.3785C75.8614 62.9931 73 65.9302 73 69.5402C73 73.1502 75.8615 76.0871 79.3785 76.0871H82.6217C84.4692 76.0871 85.9723 77.63 85.9723 79.5264C85.9723 81.4227 84.4692 82.9656 82.6217 82.9656H76.1355C75.2994 82.9656 74.6216 83.6614 74.6216 84.5195C74.6216 85.3777 75.2994 86.0734 76.1355 86.0734H79.4861V89.5128C79.4861 90.3709 80.1639 91.0667 81 91.0667C81.8361 91.0667 82.5139 90.3709 82.5139 89.5128V86.0734H82.6216C86.1386 86.0734 89 83.1364 89 79.5264C89 75.9164 86.1386 72.9793 82.6216 72.9793Z" fill="#6E71FF"/>
<path d="M82.6216 72.9793H79.3784C77.5308 72.9793 76.0277 71.4365 76.0277 69.5402C76.0277 67.6437 77.5309 66.1009 79.3784 66.1009H85.8646C86.7007 66.1009 87.3785 65.4052 87.3785 64.547C87.3785 63.6889 86.7007 62.9931 85.8646 62.9931H82.5139V59.5539C82.5139 58.6957 81.8361 58 81 58C80.1639 58 79.4861 58.6957 79.4861 59.5539V62.9931H79.3785C75.8614 62.9931 73 65.9302 73 69.5402C73 73.1502 75.8615 76.0871 79.3785 76.0871H82.6217C84.4692 76.0871 85.9723 77.63 85.9723 79.5264C85.9723 81.4227 84.4692 82.9656 82.6217 82.9656H76.1355C75.2994 82.9656 74.6216 83.6614 74.6216 84.5195C74.6216 85.3777 75.2994 86.0734 76.1355 86.0734H79.4861V89.5128C79.4861 90.3709 80.1639 91.0667 81 91.0667C81.8361 91.0667 82.5139 90.3709 82.5139 89.5128V86.0734H82.6216C86.1386 86.0734 89 83.1364 89 79.5264C89 75.9164 86.1386 72.9793 82.6216 72.9793Z" fill="url(#paint13_linear)"/>
<path d="M125.928 169.373L120.132 163.577L118.189 165.519C117.601 166.107 117.159 166.825 116.899 167.615L112.058 182.298C111.866 182.881 112.42 183.435 113.003 183.243L127.686 178.402C128.476 178.142 129.194 177.7 129.781 177.112L131.724 175.169L125.928 169.373Z" fill="#E7CBD8"/>
<path d="M125.928 169.373L120.132 163.577L118.189 165.519C117.601 166.107 117.159 166.825 116.899 167.615L112.058 182.298C111.866 182.881 112.42 183.435 113.003 183.243L127.686 178.402C128.476 178.142 129.194 177.7 129.781 177.112L131.724 175.169L125.928 169.373Z" fill="url(#paint14_linear)"/>
<path d="M129.41 177.484C129.936 176.958 130.199 176.268 130.199 175.578C130.199 174.892 129.936 174.202 129.41 173.676L129.354 173.619C128.721 172.986 127.852 172.735 127.03 172.864C126.817 172.898 126.618 172.822 126.481 172.685C126.343 172.547 126.269 172.35 126.302 172.138C126.3 172.137 126.302 172.135 126.302 172.135C126.311 172.082 126.316 172.028 126.322 171.974C126.324 171.946 126.327 171.919 126.328 171.891C126.333 171.832 126.334 171.774 126.334 171.714C126.334 171.027 126.072 170.338 125.546 169.812L125.489 169.755C125.456 169.722 125.422 169.691 125.388 169.66C125.359 169.634 125.329 169.607 125.3 169.584C125.253 169.543 125.205 169.507 125.156 169.473C125.131 169.454 125.103 169.434 125.076 169.416C125.037 169.389 124.995 169.363 124.953 169.339C124.913 169.316 124.874 169.295 124.835 169.274C124.783 169.246 124.731 169.221 124.678 169.198C124.635 169.179 124.59 169.161 124.547 169.145C124.507 169.128 124.465 169.113 124.422 169.1C124.316 169.065 124.207 169.037 124.096 169.016C124.044 169.006 123.993 168.997 123.942 168.991C123.89 168.983 123.838 168.979 123.787 168.976C123.735 168.972 123.684 168.968 123.63 168.968C123.578 168.967 123.527 168.967 123.477 168.97C123.37 168.974 123.269 168.983 123.166 169C122.952 169.034 122.754 168.958 122.616 168.821C122.479 168.683 122.403 168.485 122.437 168.271C122.46 168.132 122.47 167.991 122.47 167.85C122.47 167.163 122.207 166.473 121.682 165.948L121.625 165.891C120.574 164.84 118.869 164.84 117.817 165.891L150.568 133.141L162.16 144.733L129.41 177.484Z" fill="#6E71FF"/>
<path d="M129.41 177.484C129.936 176.958 130.199 176.268 130.199 175.578C130.199 174.892 129.936 174.202 129.41 173.676L129.354 173.619C128.721 172.986 127.852 172.735 127.03 172.864C126.817 172.898 126.618 172.822 126.481 172.685C126.343 172.547 126.269 172.35 126.302 172.138C126.3 172.137 126.302 172.135 126.302 172.135C126.311 172.082 126.316 172.028 126.322 171.974C126.324 171.946 126.327 171.919 126.328 171.891C126.333 171.832 126.334 171.774 126.334 171.714C126.334 171.027 126.072 170.338 125.546 169.812L125.489 169.755C125.456 169.722 125.422 169.691 125.388 169.66C125.359 169.634 125.329 169.607 125.3 169.584C125.253 169.543 125.205 169.507 125.156 169.473C125.131 169.454 125.103 169.434 125.076 169.416C125.037 169.389 124.995 169.363 124.953 169.339C124.913 169.316 124.874 169.295 124.835 169.274C124.783 169.246 124.731 169.221 124.678 169.198C124.635 169.179 124.59 169.161 124.547 169.144C124.507 169.128 124.465 169.113 124.422 169.1C124.316 169.065 124.207 169.037 124.096 169.016C124.044 169.006 123.993 168.997 123.942 168.991C123.89 168.983 123.838 168.979 123.787 168.976C123.735 168.972 123.684 168.968 123.63 168.968C123.578 168.967 123.527 168.967 123.477 168.97C123.37 168.974 123.269 168.983 123.166 169C122.952 169.034 122.754 168.958 122.616 168.821C122.479 168.683 122.403 168.485 122.437 168.271C122.46 168.132 122.47 167.991 122.47 167.85C122.47 167.163 122.207 166.473 121.682 165.948L121.625 165.891C120.574 164.84 118.869 164.84 117.817 165.891L150.568 133.141L162.16 144.733L129.41 177.484Z" fill="url(#paint15_linear)"/>
<path d="M158.296 140.869L126.481 172.685C126.343 172.547 126.269 172.35 126.301 172.139C126.3 172.137 126.301 172.136 126.301 172.136C126.31 172.082 126.316 172.028 126.322 171.974C126.324 171.946 126.327 171.919 126.328 171.891C126.333 171.833 126.334 171.774 126.334 171.715C126.334 171.028 126.071 170.338 125.546 169.812L125.489 169.756C125.456 169.723 125.422 169.691 125.388 169.66C125.359 169.634 125.329 169.608 125.299 169.584C125.253 169.543 125.205 169.508 125.156 169.473C125.129 169.452 125.102 169.434 125.075 169.417C125.037 169.39 124.995 169.363 124.953 169.339C124.914 169.318 124.875 169.294 124.835 169.275C124.783 169.246 124.731 169.221 124.678 169.199C124.635 169.179 124.59 169.161 124.547 169.145C124.507 169.128 124.465 169.113 124.422 169.1C124.315 169.066 124.206 169.037 124.096 169.017C124.047 169.006 123.995 168.999 123.942 168.991C123.891 168.985 123.841 168.979 123.787 168.976C123.736 168.97 123.684 168.969 123.63 168.969C123.578 168.967 123.526 168.969 123.476 168.97C123.37 168.975 123.269 168.984 123.166 169C122.952 169.035 122.754 168.958 122.616 168.821L154.432 137.005L158.296 140.869Z" fill="#6E71FF"/>
<path d="M158.296 140.869L126.481 172.685C126.343 172.547 126.269 172.35 126.301 172.138C126.3 172.137 126.301 172.135 126.301 172.135C126.31 172.082 126.316 172.028 126.322 171.974C126.324 171.946 126.327 171.919 126.328 171.891C126.333 171.833 126.334 171.774 126.334 171.715C126.334 171.028 126.071 170.338 125.546 169.812L125.489 169.756C125.456 169.723 125.422 169.691 125.388 169.66C125.359 169.634 125.329 169.608 125.299 169.584C125.253 169.543 125.205 169.508 125.156 169.473C125.129 169.452 125.102 169.434 125.075 169.416C125.037 169.39 124.995 169.363 124.953 169.339C124.914 169.318 124.875 169.294 124.835 169.275C124.783 169.246 124.731 169.221 124.678 169.199C124.635 169.179 124.59 169.161 124.547 169.145C124.507 169.128 124.465 169.113 124.422 169.1C124.315 169.066 124.206 169.037 124.096 169.017C124.047 169.006 123.995 168.999 123.942 168.991C123.891 168.985 123.841 168.979 123.787 168.976C123.736 168.97 123.684 168.969 123.63 168.969C123.578 168.967 123.526 168.969 123.476 168.97C123.37 168.975 123.269 168.984 123.166 169C122.952 169.035 122.754 168.958 122.616 168.821L154.432 137.005L158.296 140.869Z" fill="url(#paint16_linear)"/>
<path d="M150.568 133.141L117.817 165.891C118.869 164.84 120.574 164.84 121.625 165.891L121.682 165.948C122.207 166.474 122.47 167.163 122.47 167.85C122.47 167.991 122.46 168.132 122.437 168.271C122.403 168.485 122.479 168.683 122.616 168.821L154.432 137.005L150.568 133.141Z" fill="#6E71FF"/>
<path d="M150.568 133.141L117.817 165.891C118.869 164.84 120.574 164.84 121.625 165.891L121.682 165.948C122.207 166.474 122.47 167.163 122.47 167.85C122.47 167.991 122.46 168.132 122.437 168.271C122.403 168.485 122.479 168.683 122.616 168.821L154.432 137.005L150.568 133.141Z" fill="url(#paint17_linear)"/>
<path d="M166.124 140.77L154.531 129.177L158.163 125.546C159.822 123.886 162.513 123.886 164.173 125.546L169.755 131.128C171.415 132.788 171.415 135.479 169.755 137.139L166.124 140.77Z" fill="#6E71FF"/>
<path d="M166.124 140.77L154.531 129.177L158.163 125.546C159.822 123.886 162.513 123.886 164.173 125.546L169.755 131.128C171.415 132.788 171.415 135.479 169.755 137.139L166.124 140.77Z" fill="url(#paint18_linear)"/>
<path d="M166.642 140.252L155.049 128.659L150.566 133.142L162.159 144.734L166.642 140.252Z" fill="#6E71FF"/>
<path d="M166.642 140.252L155.049 128.659L150.566 133.142L162.159 144.734L166.642 140.252Z" fill="url(#paint19_linear)"/>
<path d="M166.642 140.252L155.049 128.659L150.566 133.142L162.159 144.734L166.642 140.252Z" fill="url(#paint20_linear)"/>
<path d="M160.244 146.649L148.651 135.057L150.567 133.142L162.16 144.734L160.244 146.649Z" fill="#6E71FF"/>
<path d="M160.244 146.649L148.651 135.057L150.567 133.142L162.16 144.734L160.244 146.649Z" fill="url(#paint21_linear)" fill-opacity="0.5"/>
<path d="M113.284 178.579L112.058 182.298C111.866 182.881 112.42 183.435 113.003 183.243L116.722 182.017L113.284 178.579Z" fill="#6E71FF"/>
<path d="M113.284 178.579L112.058 182.298C111.866 182.881 112.42 183.435 113.003 183.243L116.722 182.017L113.284 178.579Z" fill="url(#paint22_linear)"/>
<defs>
<linearGradient id="paint0_linear" x1="113.256" y1="188.577" x2="125.473" y2="-81.9005" gradientUnits="userSpaceOnUse">
<stop stop-opacity="0"/>
<stop offset="0.639117" stop-opacity="0.75"/>
<stop offset="1"/>
</linearGradient>
<linearGradient id="paint1_linear" x1="111.56" y1="186.323" x2="123.828" y2="-80.9517" gradientUnits="userSpaceOnUse">
<stop stop-opacity="0"/>
<stop offset="0.639117" stop-opacity="0.75"/>
<stop offset="1"/>
</linearGradient>
<linearGradient id="paint2_linear" x1="70.6138" y1="29.8321" x2="111.44" y2="31.2413" gradientUnits="userSpaceOnUse">
<stop stop-opacity="0"/>
<stop offset="0.87783" stop-opacity="0.75"/>
<stop offset="1"/>
</linearGradient>
<linearGradient id="paint3_linear" x1="109.002" y1="59.353" x2="145.178" y2="75.5979" gradientUnits="userSpaceOnUse">
<stop stop-opacity="0"/>
<stop offset="0.87783" stop-opacity="0.75"/>
<stop offset="1"/>
</linearGradient>
<linearGradient id="paint4_linear" x1="109.002" y1="65.9325" x2="145.178" y2="82.1775" gradientUnits="userSpaceOnUse">
<stop stop-opacity="0"/>
<stop offset="0.87783" stop-opacity="0.75"/>
<stop offset="1"/>
</linearGradient>
<linearGradient id="paint5_linear" x1="109.002" y1="75.5128" x2="145.178" y2="91.7578" gradientUnits="userSpaceOnUse">
<stop stop-opacity="0"/>
<stop offset="0.87783" stop-opacity="0.75"/>
<stop offset="1"/>
</linearGradient>
<linearGradient id="paint6_linear" x1="109.002" y1="82.0924" x2="145.178" y2="98.3373" gradientUnits="userSpaceOnUse">
<stop stop-opacity="0"/>
<stop offset="0.87783" stop-opacity="0.75"/>
<stop offset="1"/>
</linearGradient>
<linearGradient id="paint7_linear" x1="76.0826" y1="120.825" x2="124.458" y2="169.994" gradientUnits="userSpaceOnUse">
<stop stop-opacity="0"/>
<stop offset="0.87783" stop-opacity="0.75"/>
<stop offset="1"/>
</linearGradient>
<linearGradient id="paint8_linear" x1="76.0826" y1="126.825" x2="124.458" y2="175.994" gradientUnits="userSpaceOnUse">
<stop stop-opacity="0"/>
<stop offset="0.87783" stop-opacity="0.75"/>
<stop offset="1"/>
</linearGradient>
<linearGradient id="paint9_linear" x1="76.0826" y1="142.825" x2="124.458" y2="191.994" gradientUnits="userSpaceOnUse">
<stop stop-opacity="0"/>
<stop offset="0.87783" stop-opacity="0.75"/>
<stop offset="1"/>
</linearGradient>
<linearGradient id="paint10_linear" x1="76.0826" y1="148.825" x2="124.458" y2="197.994" gradientUnits="userSpaceOnUse">
<stop stop-opacity="0"/>
<stop offset="0.87783" stop-opacity="0.75"/>
<stop offset="1"/>
</linearGradient>
<linearGradient id="paint11_linear" x1="76.3536" y1="99.9484" x2="124.752" y2="148.927" gradientUnits="userSpaceOnUse">
<stop stop-opacity="0"/>
<stop offset="0.87783" stop-opacity="0.75"/>
<stop offset="1"/>
</linearGradient>
<linearGradient id="paint12_linear" x1="76.3536" y1="106.528" x2="124.752" y2="155.507" gradientUnits="userSpaceOnUse">
<stop stop-opacity="0"/>
<stop offset="0.87783" stop-opacity="0.75"/>
<stop offset="1"/>
</linearGradient>
<linearGradient id="paint13_linear" x1="81" y1="90" x2="81" y2="102.5" gradientUnits="userSpaceOnUse">
<stop stop-color="white"/>
<stop offset="1" stop-color="white" stop-opacity="0"/>
</linearGradient>
<linearGradient id="paint14_linear" x1="121.872" y1="163.577" x2="121.872" y2="183.282" gradientUnits="userSpaceOnUse">
<stop stop-color="#FADAAB"/>
<stop offset="1" stop-color="white" stop-opacity="0"/>
</linearGradient>
<linearGradient id="paint15_linear" x1="139.989" y1="133.141" x2="139.989" y2="177.484" gradientUnits="userSpaceOnUse">
<stop stop-color="#141414"/>
<stop offset="1" stop-opacity="0"/>
</linearGradient>
<linearGradient id="paint16_linear" x1="158.005" y1="135.297" x2="117.018" y2="174.784" gradientUnits="userSpaceOnUse">
<stop stop-color="#101010"/>
<stop offset="1" stop-opacity="0"/>
</linearGradient>
<linearGradient id="paint17_linear" x1="157.005" y1="136.297" x2="106.022" y2="175.284" gradientUnits="userSpaceOnUse">
<stop offset="0.0522431" stop-color="#0F0F0F"/>
<stop offset="1" stop-color="#131313" stop-opacity="0"/>
</linearGradient>
<linearGradient id="paint18_linear" x1="172.498" y1="127.872" x2="162.766" y2="140.77" gradientUnits="userSpaceOnUse">
<stop/>
<stop offset="1" stop-opacity="0"/>
</linearGradient>
<linearGradient id="paint19_linear" x1="169.387" y1="134.899" x2="164.894" y2="139.104" gradientUnits="userSpaceOnUse">
<stop stop-color="white"/>
<stop offset="1" stop-color="white" stop-opacity="0"/>
</linearGradient>
<linearGradient id="paint20_linear" x1="158.604" y1="128.659" x2="158.604" y2="144.734" gradientUnits="userSpaceOnUse">
<stop stop-color="white"/>
<stop offset="1" stop-color="white" stop-opacity="0"/>
</linearGradient>
<linearGradient id="paint21_linear" x1="155.405" y1="133.142" x2="155.405" y2="146.649" gradientUnits="userSpaceOnUse">
<stop stop-color="white"/>
<stop offset="1" stop-color="white" stop-opacity="0"/>
</linearGradient>
<linearGradient id="paint22_linear" x1="114.371" y1="178.579" x2="114.323" y2="186.91" gradientUnits="userSpaceOnUse">
<stop stop-color="#010101"/>
<stop offset="1" stop-opacity="0"/>
</linearGradient>
</defs>
</svg>
