<svg width="208" height="208" viewBox="0 0 208 208" fill="none" xmlns="http://www.w3.org/2000/svg">
<path opacity="0.18" d="M15.9833 177.378C18.4129 179.312 21.0658 180.891 23.8743 182.076C28.7357 184.121 33.914 185.037 38.903 186.613C41.1176 187.305 43.291 188.145 45.4232 189.06C58.3362 194.575 70.1871 203.324 83.7709 206.517C108.942 212.478 133.27 198.925 157.33 193.178C177.944 188.265 194.698 200.01 203.021 164.472C206.499 149.678 210.805 134.012 205.54 119.816C200.275 105.62 192.862 92.5085 187.84 78.2407C180.669 57.8639 178.014 34.388 163.903 18.8386C154.131 8.0719 140.165 2.87389 126.33 1.02957C112.495 -0.814744 98.4868 0.368654 84.5572 0.431173C67.779 0.489226 49.9059 -0.787951 35.3959 8.37557C30.2785 11.6579 25.8677 16.0903 22.4598 21.3748C19.0518 26.6594 16.7257 32.6739 15.6375 39.0144C12.7561 56.5153 19.5974 74.6593 16.5226 92.1289C13.6699 108.393 2.52705 122.004 0.349518 138.402C-1.62631 153.165 4.93507 168.652 15.9833 177.378Z" fill="#6E71FF"/>
<path d="M103.5 165C135.809 165 162 138.809 162 106.5C162 74.1913 135.809 48 103.5 48C71.1913 48 45 74.1913 45 106.5C45 138.809 71.1913 165 103.5 165Z" fill="#6E71FF"/>
<path d="M162 106.5C162 74.243 135.757 48 103.5 48V165C135.757 165 162 138.757 162 106.5Z" fill="#6E71FF"/>
<path d="M162 106.5C162 74.243 135.757 48 103.5 48V165C135.757 165 162 138.757 162 106.5Z" fill="url(#paint0_linear)" fill-opacity="0.5"/>
<path d="M103.5 91.5704C97.5612 91.5704 92.7295 86.7385 92.7295 80.7996C92.7295 74.8607 97.5612 70.0289 103.5 70.0289C109.439 70.0289 114.271 74.8607 114.271 80.7996C114.271 86.7385 109.439 91.5704 103.5 91.5704Z" fill="url(#paint1_linear)"/>
<path d="M103.5 99.4009C97.5612 99.4009 92.7295 104.233 92.7295 110.172V132.2C92.7295 138.139 97.5612 142.971 103.5 142.971C109.439 142.971 114.271 138.139 114.271 132.2V110.172C114.271 104.232 109.439 99.4009 103.5 99.4009Z" fill="url(#paint2_linear)"/>
<path d="M114.271 80.7996C114.271 74.8607 109.439 70.0289 103.5 70.0289V91.5704C109.439 91.5704 114.271 86.7385 114.271 80.7996Z" fill="#6E71FF"/>
<path d="M114.271 80.7996C114.271 74.8607 109.439 70.0289 103.5 70.0289V91.5704C109.439 91.5704 114.271 86.7385 114.271 80.7996Z" fill="url(#paint3_linear)"/>
<path d="M114.271 132.201V110.172C114.271 104.233 109.439 99.401 103.5 99.401V142.971C109.439 142.971 114.271 138.139 114.271 132.201Z" fill="#6E71FF"/>
<path d="M114.271 132.201V110.172C114.271 104.233 109.439 99.401 103.5 99.401V142.971C109.439 142.971 114.271 138.139 114.271 132.201Z" fill="url(#paint4_linear)"/>
<defs>
<linearGradient id="paint0_linear" x1="132.75" y1="28.1191" x2="132.75" y2="202.362" gradientUnits="userSpaceOnUse">
<stop/>
<stop offset="1" stop-opacity="0"/>
</linearGradient>
<linearGradient id="paint1_linear" x1="103.5" y1="93.1319" x2="103.5" y2="106.843" gradientUnits="userSpaceOnUse">
<stop stop-color="white"/>
<stop offset="1" stop-color="white" stop-opacity="0"/>
</linearGradient>
<linearGradient id="paint2_linear" x1="103.5" y1="142.948" x2="103.5" y2="142.971" gradientUnits="userSpaceOnUse">
<stop stop-color="white"/>
<stop offset="1" stop-color="white" stop-opacity="0"/>
</linearGradient>
<linearGradient id="paint3_linear" x1="108.984" y1="65.253" x2="108.984" y2="113.698" gradientUnits="userSpaceOnUse">
<stop stop-color="white"/>
<stop offset="1" stop-color="white" stop-opacity="0"/>
</linearGradient>
<linearGradient id="paint4_linear" x1="108.984" y1="93.1319" x2="108.984" y2="176.997" gradientUnits="userSpaceOnUse">
<stop stop-color="white"/>
<stop offset="1" stop-color="white" stop-opacity="0"/>
</linearGradient>
</defs>
</svg>
