<svg width="208" height="208" viewBox="0 0 208 208" fill="none" xmlns="http://www.w3.org/2000/svg">
<path opacity="0.18" d="M207.995 150.775C208.327 175.661 191.696 199.325 170.959 203.498C161.254 205.46 151.353 203.57 141.497 203.053C120.059 201.947 98.6698 207.386 77.2693 207.957C72.9371 208.073 68.5975 207.957 64.254 207.596C49.9732 206.317 36.0274 201.845 23.1571 194.417C17.6675 191.251 12.3098 187.471 8.3132 182.032C-0.260592 170.378 -1.0863 153.32 0.896908 138.073C2.88012 122.826 7.24242 107.921 7.46487 92.4868C7.62323 81.7111 5.75313 71.0513 5.27429 60.289C4.79546 49.5266 5.90017 38.1134 11.2579 29.4019C16.6155 20.6904 25.5324 15.9155 34.4644 13.838C43.3964 11.7604 52.5621 12.0324 61.66 11.3636C80.4779 9.99937 98.9036 4.57362 117.612 1.86744C145.513 -2.17624 190.38 -3.48252 193.468 39.6961C193.705 43.2674 193.77 46.8517 193.664 50.4317C193.393 62.3576 191.843 74.3282 193.125 86.1649C195.523 108.407 207.693 128.363 207.995 150.775Z" fill="#6E71FF"/>
<path d="M160 53H50.333V163.833L57.333 160.083L64.333 163.833L72.4997 160.083L79.4997 163.833L87.6663 160.083L96.9997 163.833L103.416 160.083L111.583 163.833L119.75 160.083L128.5 163.833L136.666 160.083L144.25 163.833L153 160.083L160 163.833V53Z" fill="#6E71FF"/>
<path d="M160 53H50.333V163.833L57.333 160.083L64.333 163.833L72.4997 160.083L79.4997 163.833L87.6663 160.083L96.9997 163.833L103.416 160.083L111.583 163.833L119.75 160.083L128.5 163.833L136.666 160.083L144.25 163.833L153 160.083L160 163.833V53Z" fill="url(#paint0_linear)" fill-opacity="0.83"/>
<path d="M157.667 53H48V159.167L55 155.575L62 159.167L70.1667 155.575L77.1667 159.167L85.3333 155.575L94.6667 159.167L101.083 155.575L109.25 159.167L117.417 155.575L126.167 159.167L134.333 155.575L141.917 159.167L150.667 155.575L157.667 159.167V53Z" fill="white"/>
<path d="M104.24 98.5H65.2606C64.1043 98.5 63.167 99.2835 63.167 100.25C63.167 101.216 64.1043 102 65.2606 102H104.24C105.396 102 106.334 101.216 106.334 100.25C106.334 99.2835 105.396 98.5 104.24 98.5Z" fill="#6E71FF"/>
<path d="M104.24 98.5H65.2606C64.1043 98.5 63.167 99.2835 63.167 100.25C63.167 101.216 64.1043 102 65.2606 102H104.24C105.396 102 106.334 101.216 106.334 100.25C106.334 99.2835 105.396 98.5 104.24 98.5Z" fill="url(#paint1_linear)"/>
<path d="M104.24 105.5H65.2606C64.1043 105.5 63.167 106.284 63.167 107.25C63.167 108.217 64.1043 109 65.2606 109H104.24C105.396 109 106.334 108.217 106.334 107.25C106.334 106.284 105.396 105.5 104.24 105.5Z" fill="#6E71FF"/>
<path d="M104.24 105.5H65.2606C64.1043 105.5 63.167 106.284 63.167 107.25C63.167 108.217 64.1043 109 65.2606 109H104.24C105.396 109 106.334 108.217 106.334 107.25C106.334 106.284 105.396 105.5 104.24 105.5Z" fill="url(#paint2_linear)"/>
<path d="M104.24 124.167H65.2606C64.1043 124.167 63.167 124.95 63.167 125.917C63.167 126.883 64.1043 127.667 65.2606 127.667H104.24C105.396 127.667 106.334 126.883 106.334 125.917C106.334 124.95 105.396 124.167 104.24 124.167Z" fill="#6E71FF"/>
<path d="M104.24 124.167H65.2606C64.1043 124.167 63.167 124.95 63.167 125.917C63.167 126.883 64.1043 127.667 65.2606 127.667H104.24C105.396 127.667 106.334 126.883 106.334 125.917C106.334 124.95 105.396 124.167 104.24 124.167Z" fill="url(#paint3_linear)"/>
<path d="M104.24 131.167H65.2606C64.1043 131.167 63.167 131.95 63.167 132.917C63.167 133.883 64.1043 134.667 65.2606 134.667H104.24C105.396 134.667 106.334 133.883 106.334 132.917C106.334 131.95 105.396 131.167 104.24 131.167Z" fill="#6E71FF"/>
<path d="M104.24 131.167H65.2606C64.1043 131.167 63.167 131.95 63.167 132.917C63.167 133.883 64.1043 134.667 65.2606 134.667H104.24C105.396 134.667 106.334 133.883 106.334 132.917C106.334 131.95 105.396 131.167 104.24 131.167Z" fill="url(#paint4_linear)"/>
<path d="M105.405 74H64.096C63.5829 74 63.167 74.7835 63.167 75.75C63.167 76.7165 63.5829 77.5 64.096 77.5H105.405C105.918 77.5 106.334 76.7165 106.334 75.75C106.334 74.7835 105.918 74 105.405 74Z" fill="#6E71FF"/>
<path d="M105.405 74H64.096C63.5829 74 63.167 74.7835 63.167 75.75C63.167 76.7165 63.5829 77.5 64.096 77.5H105.405C105.918 77.5 106.334 76.7165 106.334 75.75C106.334 74.7835 105.918 74 105.405 74Z" fill="url(#paint5_linear)"/>
<path d="M105.405 82.1666H64.096C63.5829 82.1666 63.167 82.9501 63.167 83.9166C63.167 84.8831 63.5829 85.6666 64.096 85.6666H105.405C105.918 85.6666 106.334 84.8831 106.334 83.9166C106.334 82.9501 105.918 82.1666 105.405 82.1666Z" fill="#6E71FF"/>
<path d="M105.405 82.1666H64.096C63.5829 82.1666 63.167 82.9501 63.167 83.9166C63.167 84.8831 63.5829 85.6666 64.096 85.6666H105.405C105.918 85.6666 106.334 84.8831 106.334 83.9166C106.334 82.9501 105.918 82.1666 105.405 82.1666Z" fill="url(#paint6_linear)"/>
<path d="M132.715 113.122H128.932C126.776 113.122 125.023 111.322 125.023 109.11C125.023 106.897 126.776 105.097 128.932 105.097H136.499C137.474 105.097 138.265 104.285 138.265 103.284C138.265 102.283 137.474 101.471 136.499 101.471H132.59V97.4589C132.59 96.4577 131.799 95.646 130.824 95.646C129.848 95.646 129.057 96.4577 129.057 97.4589V101.471H128.932C124.828 101.471 121.49 104.898 121.49 109.11C121.49 113.321 124.829 116.748 128.932 116.748H132.716C134.871 116.748 136.625 118.548 136.625 120.76C136.625 122.973 134.871 124.773 132.716 124.773H125.148C124.173 124.773 123.382 125.584 123.382 126.585C123.382 127.587 124.173 128.398 125.148 128.398H129.057V132.411C129.057 133.412 129.848 134.224 130.824 134.224C131.799 134.224 132.59 133.412 132.59 132.411V128.398H132.715C136.819 128.398 140.157 124.972 140.157 120.76C140.157 116.548 136.819 113.122 132.715 113.122Z" fill="#6E71FF"/>
<path d="M132.715 113.122H128.932C126.776 113.122 125.023 111.322 125.023 109.11C125.023 106.897 126.776 105.097 128.932 105.097H136.499C137.474 105.097 138.265 104.285 138.265 103.284C138.265 102.283 137.474 101.471 136.499 101.471H132.59V97.4589C132.59 96.4577 131.799 95.646 130.824 95.646C129.848 95.646 129.057 96.4577 129.057 97.4589V101.471H128.932C124.828 101.471 121.49 104.898 121.49 109.11C121.49 113.321 124.829 116.748 128.932 116.748H132.716C134.871 116.748 136.625 118.548 136.625 120.76C136.625 122.973 134.871 124.773 132.716 124.773H125.148C124.173 124.773 123.382 125.584 123.382 126.585C123.382 127.587 124.173 128.398 125.148 128.398H129.057V132.411C129.057 133.412 129.848 134.224 130.824 134.224C131.799 134.224 132.59 133.412 132.59 132.411V128.398H132.715C136.819 128.398 140.157 124.972 140.157 120.76C140.157 116.548 136.819 113.122 132.715 113.122Z" fill="url(#paint7_linear)"/>
<defs>
<linearGradient id="paint0_linear" x1="186.25" y1="41.756" x2="20.0438" y2="281.553" gradientUnits="userSpaceOnUse">
<stop stop-color="white"/>
<stop offset="1" stop-color="white" stop-opacity="0"/>
</linearGradient>
<linearGradient id="paint1_linear" x1="70.0012" y1="95.9627" x2="117.067" y2="121.248" gradientUnits="userSpaceOnUse">
<stop stop-opacity="0"/>
<stop offset="0.87783" stop-opacity="0.75"/>
<stop offset="1"/>
</linearGradient>
<linearGradient id="paint2_linear" x1="70.0012" y1="102.963" x2="117.067" y2="128.248" gradientUnits="userSpaceOnUse">
<stop stop-opacity="0"/>
<stop offset="0.87783" stop-opacity="0.75"/>
<stop offset="1"/>
</linearGradient>
<linearGradient id="paint3_linear" x1="70.0012" y1="121.629" x2="117.067" y2="146.915" gradientUnits="userSpaceOnUse">
<stop stop-opacity="0"/>
<stop offset="0.87783" stop-opacity="0.75"/>
<stop offset="1"/>
</linearGradient>
<linearGradient id="paint4_linear" x1="70.0012" y1="128.629" x2="117.067" y2="153.915" gradientUnits="userSpaceOnUse">
<stop stop-opacity="0"/>
<stop offset="0.87783" stop-opacity="0.75"/>
<stop offset="1"/>
</linearGradient>
<linearGradient id="paint5_linear" x1="70.0012" y1="71.4627" x2="117.067" y2="96.7479" gradientUnits="userSpaceOnUse">
<stop stop-opacity="0"/>
<stop offset="0.87783" stop-opacity="0.75"/>
<stop offset="1"/>
</linearGradient>
<linearGradient id="paint6_linear" x1="70.0012" y1="79.6293" x2="117.067" y2="104.915" gradientUnits="userSpaceOnUse">
<stop stop-opacity="0"/>
<stop offset="0.87783" stop-opacity="0.75"/>
<stop offset="1"/>
</linearGradient>
<linearGradient id="paint7_linear" x1="132.583" y1="86.25" x2="130.824" y2="134.224" gradientUnits="userSpaceOnUse">
<stop/>
<stop offset="1" stop-opacity="0"/>
</linearGradient>
</defs>
</svg>
