<svg width="208" height="208" viewBox="0 0 208 208" fill="none" xmlns="http://www.w3.org/2000/svg">
<path opacity="0.18" d="M207.995 150.775C208.327 175.661 191.696 199.325 170.959 203.498C161.254 205.46 151.353 203.57 141.497 203.053C120.059 201.947 98.6698 207.386 77.2693 207.957C72.9371 208.073 68.5975 207.957 64.254 207.596C49.9732 206.317 36.0274 201.845 23.1571 194.417C17.6675 191.251 12.3098 187.471 8.3132 182.032C-0.260592 170.378 -1.0863 153.32 0.896908 138.073C2.88012 122.826 7.24242 107.921 7.46487 92.4868C7.62323 81.7111 5.75313 71.0513 5.27429 60.289C4.79546 49.5266 5.90017 38.1134 11.2579 29.4019C16.6155 20.6904 25.5324 15.9155 34.4644 13.838C43.3964 11.7604 52.5621 12.0324 61.66 11.3636C80.4779 9.99937 98.9036 4.57362 117.612 1.86744C145.513 -2.17624 190.38 -3.48252 193.468 39.6961C193.705 43.2674 193.77 46.8517 193.664 50.4317C193.393 62.3576 191.843 74.3282 193.125 86.1649C195.523 108.407 207.693 128.363 207.995 150.775Z" fill="#6E71FF"/>
<path d="M167 75H33V145H167V75Z" fill="white"/>
<path d="M87.073 93H48.0936C46.9374 93 46 93.7835 46 94.75C46 95.7165 46.9374 96.5 48.0936 96.5H87.073C88.2293 96.5 89.1667 95.7165 89.1667 94.75C89.1667 93.7835 88.2293 93 87.073 93Z" fill="#6E71FF"/>
<path d="M87.073 93H48.0936C46.9374 93 46 93.7835 46 94.75C46 95.7165 46.9374 96.5 48.0936 96.5H87.073C88.2293 96.5 89.1667 95.7165 89.1667 94.75C89.1667 93.7835 88.2293 93 87.073 93Z" fill="url(#paint0_linear)"/>
<path d="M87.073 100H48.0936C46.9374 100 46 100.784 46 101.75C46 102.717 46.9374 103.5 48.0936 103.5H87.073C88.2293 103.5 89.1667 102.717 89.1667 101.75C89.1667 100.784 88.2293 100 87.073 100Z" fill="#6E71FF"/>
<path d="M87.073 100H48.0936C46.9374 100 46 100.784 46 101.75C46 102.717 46.9374 103.5 48.0936 103.5H87.073C88.2293 103.5 89.1667 102.717 89.1667 101.75C89.1667 100.784 88.2293 100 87.073 100Z" fill="url(#paint1_linear)"/>
<path d="M117.362 113H49.6376C47.6286 113 46 113.783 46 114.75C46 115.716 47.6286 116.5 49.6376 116.5H117.362C119.371 116.5 121 115.716 121 114.75C121 113.783 119.371 113 117.362 113Z" fill="#6E71FF"/>
<path d="M117.362 113H49.6376C47.6286 113 46 113.783 46 114.75C46 115.716 47.6286 116.5 49.6376 116.5H117.362C119.371 116.5 121 115.716 121 114.75C121 113.783 119.371 113 117.362 113Z" fill="url(#paint2_linear)"/>
<path d="M117.362 120H49.6376C47.6286 120 46 120.784 46 121.75C46 122.717 47.6286 123.5 49.6376 123.5H117.362C119.371 123.5 121 122.717 121 121.75C121 120.784 119.371 120 117.362 120Z" fill="#6E71FF"/>
<path d="M117.362 120H49.6376C47.6286 120 46 120.784 46 121.75C46 122.717 47.6286 123.5 49.6376 123.5H117.362C119.371 123.5 121 122.717 121 121.75C121 120.784 119.371 120 117.362 120Z" fill="url(#paint3_linear)"/>
<path d="M139.225 107.476H135.441C133.286 107.476 131.532 105.676 131.532 103.464C131.532 101.251 133.286 99.4511 135.441 99.4511H143.009C143.984 99.4511 144.775 98.6394 144.775 97.6382C144.775 96.637 143.984 95.8253 143.009 95.8253H139.1V91.8129C139.1 90.8117 138.309 90 137.333 90C136.358 90 135.567 90.8117 135.567 91.8129V95.8253H135.442C131.338 95.8253 128 99.2519 128 103.464C128 107.675 131.338 111.102 135.442 111.102H139.225C141.381 111.102 143.134 112.902 143.134 115.114C143.134 117.327 141.381 119.127 139.225 119.127H131.658C130.683 119.127 129.892 119.938 129.892 120.939C129.892 121.941 130.683 122.752 131.658 122.752H135.567V126.765C135.567 127.766 136.358 128.578 137.333 128.578C138.309 128.578 139.1 127.766 139.1 126.765V122.752H139.225C143.328 122.752 146.667 119.326 146.667 115.114C146.667 110.902 143.328 107.476 139.225 107.476Z" fill="#6E71FF"/>
<path d="M139.225 107.476H135.441C133.286 107.476 131.532 105.676 131.532 103.464C131.532 101.251 133.286 99.4511 135.441 99.4511H143.009C143.984 99.4511 144.775 98.6394 144.775 97.6382C144.775 96.637 143.984 95.8253 143.009 95.8253H139.1V91.8129C139.1 90.8117 138.309 90 137.333 90C136.358 90 135.567 90.8117 135.567 91.8129V95.8253H135.442C131.338 95.8253 128 99.2519 128 103.464C128 107.675 131.338 111.102 135.442 111.102H139.225C141.381 111.102 143.134 112.902 143.134 115.114C143.134 117.327 141.381 119.127 139.225 119.127H131.658C130.683 119.127 129.892 119.938 129.892 120.939C129.892 121.941 130.683 122.752 131.658 122.752H135.567V126.765C135.567 127.766 136.358 128.578 137.333 128.578C138.309 128.578 139.1 127.766 139.1 126.765V122.752H139.225C143.328 122.752 146.667 119.326 146.667 115.114C146.667 110.902 143.328 107.476 139.225 107.476Z" fill="url(#paint4_linear)"/>
<path d="M138.908 151.072L133.112 145.276L131.169 147.218C130.582 147.806 130.14 148.524 129.879 149.314L125.039 163.997C124.847 164.58 125.4 165.134 125.983 164.942L140.667 160.101C141.456 159.841 142.174 159.399 142.762 158.811L144.705 156.868L138.908 151.072Z" fill="#E7CBD8"/>
<path d="M138.908 151.072L133.112 145.276L131.169 147.218C130.582 147.806 130.14 148.524 129.879 149.314L125.039 163.997C124.847 164.58 125.4 165.134 125.983 164.942L140.667 160.101C141.456 159.841 142.174 159.399 142.762 158.811L144.705 156.868L138.908 151.072Z" fill="url(#paint5_linear)"/>
<path d="M142.391 159.183C142.916 158.657 143.179 157.967 143.179 157.277C143.179 156.591 142.916 155.901 142.391 155.375L142.334 155.318C141.701 154.685 140.832 154.434 140.011 154.563C139.797 154.597 139.599 154.521 139.461 154.384C139.324 154.246 139.249 154.049 139.282 153.837C139.281 153.836 139.282 153.834 139.282 153.834C139.291 153.781 139.297 153.727 139.303 153.673C139.304 153.645 139.307 153.618 139.309 153.59C139.313 153.531 139.315 153.473 139.315 153.413C139.315 152.726 139.052 152.037 138.526 151.511L138.47 151.454C138.437 151.421 138.403 151.39 138.368 151.359C138.34 151.333 138.31 151.307 138.28 151.283C138.234 151.242 138.186 151.206 138.137 151.172C138.111 151.153 138.083 151.133 138.056 151.115C138.017 151.088 137.975 151.062 137.934 151.038C137.893 151.015 137.855 150.994 137.816 150.973C137.764 150.945 137.711 150.92 137.659 150.897C137.616 150.878 137.571 150.86 137.528 150.844C137.487 150.827 137.445 150.812 137.402 150.799C137.296 150.764 137.187 150.736 137.077 150.715C137.024 150.705 136.974 150.696 136.923 150.69C136.871 150.682 136.818 150.678 136.768 150.675C136.715 150.671 136.665 150.668 136.611 150.668C136.559 150.666 136.508 150.666 136.457 150.669C136.351 150.673 136.249 150.682 136.146 150.699C135.933 150.733 135.734 150.657 135.597 150.52C135.459 150.382 135.383 150.184 135.418 149.97C135.44 149.831 135.451 149.69 135.451 149.549C135.451 148.862 135.188 148.172 134.662 147.647L134.605 147.59C133.554 146.539 131.849 146.539 130.798 147.59L163.548 114.84L175.141 126.433L142.391 159.183Z" fill="#6E71FF"/>
<path d="M142.391 159.183C142.916 158.657 143.179 157.967 143.179 157.277C143.179 156.591 142.916 155.901 142.391 155.375L142.334 155.318C141.701 154.685 140.832 154.434 140.011 154.563C139.797 154.597 139.599 154.521 139.461 154.384C139.324 154.246 139.249 154.049 139.282 153.837C139.281 153.836 139.282 153.834 139.282 153.834C139.291 153.781 139.297 153.727 139.303 153.673C139.304 153.645 139.307 153.618 139.309 153.59C139.313 153.531 139.315 153.473 139.315 153.413C139.315 152.726 139.052 152.037 138.526 151.511L138.47 151.454C138.437 151.421 138.403 151.39 138.368 151.359C138.34 151.333 138.31 151.307 138.28 151.283C138.234 151.242 138.186 151.206 138.137 151.172C138.111 151.153 138.083 151.133 138.056 151.115C138.017 151.088 137.975 151.062 137.934 151.038C137.893 151.015 137.855 150.994 137.816 150.973C137.764 150.945 137.711 150.92 137.659 150.897C137.616 150.878 137.571 150.86 137.528 150.844C137.487 150.827 137.445 150.812 137.402 150.799C137.296 150.764 137.187 150.736 137.077 150.715C137.024 150.705 136.974 150.696 136.923 150.69C136.871 150.682 136.818 150.678 136.768 150.675C136.715 150.671 136.665 150.668 136.611 150.668C136.559 150.666 136.508 150.666 136.457 150.669C136.351 150.673 136.249 150.682 136.146 150.699C135.933 150.733 135.734 150.657 135.597 150.52C135.459 150.382 135.383 150.184 135.418 149.97C135.44 149.831 135.451 149.69 135.451 149.549C135.451 148.862 135.188 148.172 134.662 147.647L134.605 147.59C133.554 146.539 131.849 146.539 130.798 147.59L163.548 114.84L175.141 126.433L142.391 159.183Z" fill="url(#paint6_linear)"/>
<path d="M171.277 122.568L139.461 154.384C139.324 154.246 139.249 154.049 139.282 153.838C139.28 153.836 139.282 153.835 139.282 153.835C139.291 153.781 139.297 153.727 139.303 153.673C139.304 153.645 139.307 153.618 139.309 153.59C139.313 153.532 139.315 153.473 139.315 153.414C139.315 152.727 139.052 152.037 138.526 151.511L138.47 151.455C138.437 151.422 138.402 151.39 138.368 151.359C138.34 151.333 138.31 151.307 138.28 151.283C138.234 151.242 138.186 151.207 138.137 151.172C138.11 151.151 138.083 151.133 138.056 151.116C138.017 151.089 137.975 151.062 137.934 151.038C137.895 151.017 137.856 150.993 137.816 150.974C137.763 150.945 137.711 150.92 137.659 150.898C137.616 150.878 137.571 150.86 137.527 150.844C137.487 150.827 137.445 150.812 137.402 150.799C137.296 150.765 137.187 150.736 137.076 150.716C137.027 150.705 136.975 150.698 136.923 150.69C136.872 150.684 136.821 150.678 136.767 150.675C136.717 150.669 136.664 150.668 136.611 150.668C136.558 150.666 136.506 150.668 136.457 150.669C136.351 150.674 136.249 150.683 136.146 150.699C135.933 150.734 135.734 150.657 135.597 150.52L167.412 118.704L171.277 122.568Z" fill="#6E71FF"/>
<path d="M171.277 122.568L139.461 154.384C139.324 154.246 139.249 154.049 139.282 153.838C139.28 153.836 139.282 153.835 139.282 153.835C139.291 153.781 139.297 153.727 139.303 153.673C139.304 153.645 139.307 153.618 139.309 153.59C139.313 153.532 139.315 153.473 139.315 153.414C139.315 152.727 139.052 152.037 138.526 151.511L138.47 151.455C138.437 151.422 138.402 151.39 138.368 151.359C138.34 151.333 138.31 151.307 138.28 151.283C138.234 151.242 138.186 151.207 138.137 151.172C138.11 151.151 138.083 151.133 138.056 151.116C138.017 151.089 137.975 151.062 137.934 151.038C137.895 151.017 137.856 150.993 137.816 150.974C137.763 150.945 137.711 150.92 137.659 150.898C137.616 150.878 137.571 150.86 137.527 150.844C137.487 150.827 137.445 150.812 137.402 150.799C137.296 150.765 137.187 150.736 137.076 150.716C137.027 150.705 136.975 150.698 136.923 150.69C136.872 150.684 136.821 150.678 136.767 150.675C136.717 150.669 136.664 150.668 136.611 150.668C136.558 150.666 136.506 150.668 136.457 150.669C136.351 150.674 136.249 150.683 136.146 150.699C135.933 150.734 135.734 150.657 135.597 150.52L167.412 118.704L171.277 122.568Z" fill="url(#paint7_linear)"/>
<path d="M163.548 114.84L130.798 147.59C131.849 146.539 133.554 146.539 134.605 147.59L134.662 147.647C135.188 148.173 135.451 148.862 135.451 149.549C135.451 149.69 135.44 149.832 135.418 149.97C135.383 150.184 135.46 150.383 135.597 150.52L167.412 118.704L163.548 114.84Z" fill="#6E71FF"/>
<path d="M163.548 114.84L130.798 147.59C131.849 146.539 133.554 146.539 134.605 147.59L134.662 147.647C135.188 148.173 135.451 148.862 135.451 149.549C135.451 149.69 135.44 149.832 135.418 149.97C135.383 150.184 135.46 150.383 135.597 150.52L167.412 118.704L163.548 114.84Z" fill="url(#paint8_linear)"/>
<path d="M179.105 122.469L167.512 110.876L171.143 107.245C172.803 105.585 175.494 105.585 177.154 107.245L182.736 112.827C184.396 114.487 184.396 117.178 182.736 118.838L179.105 122.469Z" fill="#6E71FF"/>
<path d="M179.105 122.469L167.512 110.876L171.143 107.245C172.803 105.585 175.494 105.585 177.154 107.245L182.736 112.827C184.396 114.487 184.396 117.178 182.736 118.838L179.105 122.469Z" fill="url(#paint9_linear)"/>
<path d="M179.622 121.951L168.03 110.358L163.547 114.841L175.14 126.433L179.622 121.951Z" fill="#6E71FF"/>
<path d="M179.622 121.951L168.03 110.358L163.547 114.841L175.14 126.433L179.622 121.951Z" fill="url(#paint10_linear)"/>
<path d="M179.622 121.951L168.03 110.358L163.547 114.841L175.14 126.433L179.622 121.951Z" fill="url(#paint11_linear)"/>
<path d="M173.225 128.348L161.632 116.756L163.547 114.841L175.14 126.433L173.225 128.348Z" fill="#6E71FF"/>
<path d="M173.225 128.348L161.632 116.756L163.547 114.841L175.14 126.433L173.225 128.348Z" fill="url(#paint12_linear)" fill-opacity="0.5"/>
<path d="M126.265 160.278L125.039 163.997C124.847 164.58 125.4 165.134 125.983 164.942L129.702 163.716L126.265 160.278Z" fill="#6E71FF"/>
<path d="M126.265 160.278L125.039 163.997C124.847 164.58 125.4 165.134 125.983 164.942L129.702 163.716L126.265 160.278Z" fill="url(#paint13_linear)"/>
<defs>
<linearGradient id="paint0_linear" x1="52.8343" y1="90.4627" x2="99.8997" y2="115.748" gradientUnits="userSpaceOnUse">
<stop stop-opacity="0"/>
<stop offset="0.87783" stop-opacity="0.75"/>
<stop offset="1"/>
</linearGradient>
<linearGradient id="paint1_linear" x1="52.8343" y1="97.4627" x2="99.8997" y2="122.748" gradientUnits="userSpaceOnUse">
<stop stop-opacity="0"/>
<stop offset="0.87783" stop-opacity="0.75"/>
<stop offset="1"/>
</linearGradient>
<linearGradient id="paint2_linear" x1="57.8742" y1="110.463" x2="114.186" y2="163.026" gradientUnits="userSpaceOnUse">
<stop stop-opacity="0"/>
<stop offset="0.87783" stop-opacity="0.75"/>
<stop offset="1"/>
</linearGradient>
<linearGradient id="paint3_linear" x1="57.8742" y1="117.463" x2="114.186" y2="170.026" gradientUnits="userSpaceOnUse">
<stop stop-opacity="0"/>
<stop offset="0.87783" stop-opacity="0.75"/>
<stop offset="1"/>
</linearGradient>
<linearGradient id="paint4_linear" x1="139.093" y1="80.604" x2="137.333" y2="128.578" gradientUnits="userSpaceOnUse">
<stop/>
<stop offset="1" stop-opacity="0"/>
</linearGradient>
<linearGradient id="paint5_linear" x1="134.852" y1="145.276" x2="134.852" y2="164.981" gradientUnits="userSpaceOnUse">
<stop stop-color="#FADAAB"/>
<stop offset="1" stop-color="white" stop-opacity="0"/>
</linearGradient>
<linearGradient id="paint6_linear" x1="152.969" y1="114.84" x2="152.969" y2="159.183" gradientUnits="userSpaceOnUse">
<stop stop-color="#141414"/>
<stop offset="1" stop-opacity="0"/>
</linearGradient>
<linearGradient id="paint7_linear" x1="170.985" y1="116.996" x2="129.999" y2="156.484" gradientUnits="userSpaceOnUse">
<stop stop-color="#101010"/>
<stop offset="1" stop-opacity="0"/>
</linearGradient>
<linearGradient id="paint8_linear" x1="169.985" y1="117.996" x2="119.002" y2="156.983" gradientUnits="userSpaceOnUse">
<stop offset="0.0522431" stop-color="#0F0F0F"/>
<stop offset="1" stop-color="#131313" stop-opacity="0"/>
</linearGradient>
<linearGradient id="paint9_linear" x1="185.478" y1="109.571" x2="175.746" y2="122.469" gradientUnits="userSpaceOnUse">
<stop/>
<stop offset="1" stop-opacity="0"/>
</linearGradient>
<linearGradient id="paint10_linear" x1="182.368" y1="116.598" x2="177.875" y2="120.803" gradientUnits="userSpaceOnUse">
<stop stop-color="white"/>
<stop offset="1" stop-color="white" stop-opacity="0"/>
</linearGradient>
<linearGradient id="paint11_linear" x1="171.585" y1="110.358" x2="171.585" y2="126.433" gradientUnits="userSpaceOnUse">
<stop stop-color="white"/>
<stop offset="1" stop-color="white" stop-opacity="0"/>
</linearGradient>
<linearGradient id="paint12_linear" x1="168.386" y1="114.841" x2="168.386" y2="128.348" gradientUnits="userSpaceOnUse">
<stop stop-color="white"/>
<stop offset="1" stop-color="white" stop-opacity="0"/>
</linearGradient>
<linearGradient id="paint13_linear" x1="127.351" y1="160.278" x2="127.304" y2="168.609" gradientUnits="userSpaceOnUse">
<stop stop-color="#010101"/>
<stop offset="1" stop-opacity="0"/>
</linearGradient>
</defs>
</svg>
