<svg width="208" height="212" viewBox="0 0 208 212" fill="none" xmlns="http://www.w3.org/2000/svg">
<path opacity="0.18" d="M6.14958 97.1489C10.2149 87.3325 14.9825 81.4213 22.037 72.3961C60.5097 23.1759 123.364 -26.1754 169.134 15.8811C187.606 32.8537 196.101 48.7902 198.286 73.8851C199.803 91.1074 196.465 108.94 199.106 125.84C201.125 138.778 206.526 150.208 207.755 163.375C209.17 178.487 204.354 194.543 195.941 202.773C187.528 211.003 176.901 211.236 166.921 210.797C140.746 209.631 156.54 201.788 88.4536 210.408C20.3667 219.028 2.56506 157.069 2.56506 157.069C-1.45703 137.301 -1.09832 114.643 6.14958 97.1489Z" fill="#6E71FF"/>
<path d="M103.751 101.96L119.04 117.249L102.724 133.566C102.069 134.221 101.12 134.489 100.219 134.275C99.3175 134.06 98.3692 134.329 97.714 134.984L89.8574 142.841C89.7121 142.986 89.5457 143.108 89.3639 143.204L80.8481 147.674C80.4786 147.868 80.1775 148.171 79.9857 148.542L75.8355 156.571C75.6329 156.963 75.3083 157.278 74.9111 157.47L68.3715 160.624C68.0258 160.791 67.7342 161.052 67.5304 161.377L61.56 170.908C61.3163 171.297 60.9109 171.557 60.4554 171.615L49.7278 172.987C48.7327 173.115 47.8853 172.268 48.0127 171.272L49.3853 160.545C49.4435 160.089 49.703 159.684 50.0921 159.44L59.6229 153.47C59.9481 153.266 60.2095 152.974 60.3762 152.629L63.5302 146.089C63.7218 145.692 64.0376 145.367 64.4295 145.165L72.4581 141.015C72.8289 140.823 73.1318 140.522 73.3259 140.152L77.7966 131.636C77.8919 131.454 78.0145 131.288 78.1595 131.143L86.0161 123.286C86.6713 122.631 86.9399 121.683 86.7254 120.781C86.5109 119.88 86.7792 118.932 87.4346 118.276L103.751 101.96Z" fill="#6E71FF"/>
<path d="M103.751 101.96L119.04 117.249L102.724 133.566C102.069 134.221 101.12 134.489 100.219 134.275C99.3175 134.06 98.3692 134.329 97.714 134.984L89.8574 142.841C89.7121 142.986 89.5457 143.108 89.3639 143.204L80.8481 147.674C80.4786 147.868 80.1775 148.171 79.9857 148.542L75.8355 156.571C75.6329 156.963 75.3083 157.278 74.9111 157.47L68.3715 160.624C68.0258 160.791 67.7342 161.052 67.5304 161.377L61.56 170.908C61.3163 171.297 60.9109 171.557 60.4554 171.615L49.7278 172.987C48.7327 173.115 47.8853 172.268 48.0127 171.272L49.3853 160.545C49.4435 160.089 49.703 159.684 50.0921 159.44L59.6229 153.47C59.9481 153.266 60.2095 152.974 60.3762 152.629L63.5302 146.089C63.7218 145.692 64.0376 145.367 64.4295 145.165L72.4581 141.015C72.8289 140.823 73.1318 140.522 73.3259 140.152L77.7966 131.636C77.8919 131.454 78.0145 131.288 78.1595 131.143L86.0161 123.286C86.6713 122.631 86.9399 121.683 86.7254 120.781C86.5109 119.88 86.7792 118.932 87.4346 118.276L103.751 101.96Z" fill="url(#paint0_linear)"/>
<path d="M110.935 109.144L48.3799 172.474C48.4192 172.519 48.4613 172.561 48.5057 172.602C48.5073 172.603 48.5092 172.605 48.5107 172.606C48.5529 172.644 48.5972 172.68 48.6435 172.713C48.6482 172.716 48.6526 172.72 48.6573 172.723C48.7004 172.753 48.7457 172.781 48.7919 172.807C48.8001 172.811 48.8083 172.816 48.8164 172.821C48.8595 172.844 48.9042 172.864 48.9498 172.883C48.9618 172.888 48.9734 172.893 48.9857 172.898C49.0281 172.914 49.0722 172.928 49.1162 172.941C49.1319 172.945 49.147 172.95 49.1627 172.954C49.2049 172.965 49.2483 172.972 49.2917 172.979C49.3099 172.982 49.3279 172.986 49.3461 172.988C49.3905 172.994 49.4354 172.995 49.481 172.997C49.499 172.997 49.5166 173 49.5348 173C49.598 172.999 49.6625 172.995 49.7273 172.987L60.4552 171.614C60.9106 171.556 61.3161 171.297 61.5598 170.908L67.5302 161.377C67.734 161.052 68.0256 160.79 68.3712 160.624L74.9109 157.469C75.3081 157.278 75.6327 156.962 75.8353 156.57L79.9855 148.542C80.177 148.171 80.4783 147.868 80.8479 147.674L89.3637 143.203C89.5455 143.107 89.7119 142.985 89.8572 142.84L97.7138 134.984C98.369 134.328 99.3173 134.06 100.219 134.274C101.12 134.489 102.068 134.22 102.724 133.565L119.04 117.249L110.935 109.144Z" fill="#6E71FF"/>
<path d="M110.935 109.144L48.3799 172.474C48.4192 172.519 48.4613 172.561 48.5057 172.602C48.5073 172.603 48.5092 172.605 48.5107 172.606C48.5529 172.644 48.5972 172.68 48.6435 172.713C48.6482 172.716 48.6526 172.72 48.6573 172.723C48.7004 172.753 48.7457 172.781 48.7919 172.807C48.8001 172.811 48.8083 172.816 48.8164 172.821C48.8595 172.844 48.9042 172.864 48.9498 172.883C48.9618 172.888 48.9734 172.893 48.9857 172.898C49.0281 172.914 49.0722 172.928 49.1162 172.941C49.1319 172.945 49.147 172.95 49.1627 172.954C49.2049 172.965 49.2483 172.972 49.2917 172.979C49.3099 172.982 49.3279 172.986 49.3461 172.988C49.3905 172.994 49.4354 172.995 49.481 172.997C49.499 172.997 49.5166 173 49.5348 173C49.598 172.999 49.6625 172.995 49.7273 172.987L60.4552 171.614C60.9106 171.556 61.3161 171.297 61.5598 170.908L67.5302 161.377C67.734 161.052 68.0256 160.79 68.3712 160.624L74.9109 157.469C75.3081 157.278 75.6327 156.962 75.8353 156.57L79.9855 148.542C80.177 148.171 80.4783 147.868 80.8479 147.674L89.3637 143.203C89.5455 143.107 89.7119 142.985 89.8572 142.84L97.7138 134.984C98.369 134.328 99.3173 134.06 100.219 134.274C101.12 134.489 102.068 134.22 102.724 133.565L119.04 117.249L110.935 109.144Z" fill="url(#paint1_linear)"/>
<path d="M124.282 54.4994L98.8619 87.3568C94.4862 93.0126 94.9964 101.039 100.053 106.096L114.904 120.947C119.961 126.004 127.987 126.514 133.643 122.138L166.501 96.7184C173.253 91.4944 173.886 81.5292 167.85 75.4925L145.508 53.1504C139.471 47.1133 129.506 47.7468 124.282 54.4994ZM138.499 63.3153L157.685 82.5008C159.497 84.3134 159.497 87.2517 157.685 89.0644C155.872 90.8767 152.934 90.8767 151.121 89.0644L131.935 69.8788C130.123 68.0665 130.123 65.1279 131.935 63.3153C133.748 61.5027 136.687 61.5027 138.499 63.3153Z" fill="#6E71FF"/>
<path d="M167.85 75.4926L157.707 65.3494C162.924 70.5667 163.155 78.7158 158.763 84.205C159.355 85.8449 158.999 87.75 157.685 89.0644C156.184 90.5656 153.911 90.8195 152.145 89.8337L123.5 111.995C117.844 116.37 109.818 115.86 104.761 110.804L100.053 106.095C100.053 106.096 100.053 106.096 100.053 106.096L114.905 120.948C119.961 126.004 127.988 126.514 133.644 122.139L166.501 96.7187C173.254 91.4944 173.887 81.5293 167.85 75.4926Z" fill="url(#paint2_linear)" fill-opacity="0.8"/>
<path d="M145.508 53.15L149.633 57.2747L141.046 65.8613L138.5 63.3149C137.631 62.4455 136.502 61.998 135.363 61.9624L126.025 52.6244C131.504 47.6901 140.089 47.7301 145.508 53.15Z" fill="#6E71FF"/>
<defs>
<linearGradient id="paint0_linear" x1="106.9" y1="104.8" x2="-7.80004" y2="213.92" gradientUnits="userSpaceOnUse">
<stop offset="0.723958" stop-color="white"/>
<stop offset="1" stop-color="white" stop-opacity="0"/>
</linearGradient>
<linearGradient id="paint1_linear" x1="143.48" y1="101.08" x2="3.35962" y2="217.02" gradientUnits="userSpaceOnUse">
<stop stop-color="white"/>
<stop offset="1" stop-color="white" stop-opacity="0"/>
</linearGradient>
<linearGradient id="paint2_linear" x1="195.561" y1="50.8599" x2="92.6406" y2="156.88" gradientUnits="userSpaceOnUse">
<stop stop-color="#131313"/>
<stop offset="1" stop-color="#090909" stop-opacity="0"/>
</linearGradient>
</defs>
</svg>
