<svg width="240" height="240" viewBox="0 0 240 240" fill="none" xmlns="http://www.w3.org/2000/svg">
<path opacity="0.18" d="M56.3526 224.012C47.5699 220.065 40.6691 212.269 34.5087 204.133C25.5041 192.243 17.6803 179.27 11.1779 165.447C2.58332 147.215 -3.69636 125.532 2.48295 106.065C4.99231 98.17 9.38369 91.2407 13.9633 84.6308C21.0522 74.4144 28.9692 64.4038 39.2451 58.5323C46.7732 54.2157 55.236 52.3414 62.9146 48.3656C78.09 40.5204 89.1249 25.1851 103.002 14.7059C126.884 -3.3202 159.97 -5.23712 184.556 11.5253C193.841 17.8582 201.751 26.4843 208.878 35.721C223.639 54.8902 235.609 77.6092 239.028 102.728C242.39 127.463 236.951 153.654 223.934 173.888C210.917 194.122 190.434 208.087 168.477 211.282C160.008 212.518 150.667 212.518 144.124 218.737C141.364 221.364 139.381 224.878 136.897 227.839C129.595 236.557 118.434 239.823 107.82 239.993C90.3419 240.277 72.3686 231.218 56.3526 224.012Z" fill="#6E71FF"/>
<path d="M216.066 93.6608L208.394 64.2818L198.714 93.6984L197.327 93.6733L208.463 60.5303L217.365 93.6733L216.066 93.6608Z" fill="#6E71FF"/>
<path d="M207.876 62.3912L207.055 93.748L208.171 93.7773L208.992 62.4204L207.876 62.3912Z" fill="#6E71FF"/>
<path d="M176.506 93.8239L167.886 64.2818L158.174 93.5228L157.114 93.1714L167.955 60.5303L177.579 93.5165L176.506 93.8239Z" fill="#6E71FF"/>
<path d="M168.127 62.5333L167.186 93.9009L168.302 93.9344L169.243 62.5668L168.127 62.5333Z" fill="#6E71FF"/>
<path d="M216.066 93.6608L208.394 64.2818L198.714 93.6984L197.327 93.6733L208.463 60.5303L217.365 93.6733L216.066 93.6608Z" fill="url(#paint0_linear)"/>
<path d="M207.876 62.3912L207.055 93.748L208.171 93.7773L208.992 62.4204L207.876 62.3912Z" fill="url(#paint1_linear)"/>
<path d="M176.506 93.8239L167.886 64.2818L158.174 93.5228L157.114 93.1714L167.955 60.5303L177.579 93.5165L176.506 93.8239Z" fill="url(#paint2_linear)"/>
<path d="M168.127 62.5333L167.186 93.9009L168.302 93.9344L169.243 62.5668L168.127 62.5333Z" fill="url(#paint3_linear)"/>
<path d="M177.02 65.3609C174.887 65.3609 173.118 64.4638 171.286 63.5353C170.659 63.2279 170.031 62.9079 169.404 62.6131C166.499 61.3019 165.188 63.6482 165.05 63.918C164.945 64.1285 164.761 64.2887 164.538 64.3634C164.315 64.4381 164.072 64.4212 163.861 64.3163C163.651 64.2115 163.491 64.0274 163.416 63.8044C163.341 63.5815 163.358 63.338 163.463 63.1275C164.191 61.6783 166.506 59.3634 170.113 61.0071C170.816 61.3207 171.462 61.6344 172.083 61.9669C174.831 63.3596 176.813 64.3697 180.138 62.8389C181.236 62.337 182.095 61.9104 182.848 61.5403C185.151 60.3985 186.305 59.8276 188.814 59.8276C190.29 59.869 191.723 60.328 192.949 61.1513C194.045 61.8721 195.292 62.3315 196.594 62.4939C198.714 62.7135 204.047 62.9769 207.635 60.6746C208.673 60.1263 209.885 60.0069 211.01 60.3421C212.505 60.637 213.825 61.5064 214.686 62.7636C214.746 62.8629 214.785 62.9729 214.802 63.0873C214.819 63.2017 214.813 63.3183 214.784 63.4305C214.756 63.5426 214.706 63.6481 214.637 63.7409C214.568 63.8337 214.481 63.912 214.382 63.9713C214.283 64.0306 214.173 64.0698 214.058 64.0866C213.944 64.1034 213.827 64.0975 213.715 64.0693C213.603 64.041 213.498 63.991 213.405 63.9219C213.312 63.8529 213.234 63.7663 213.175 63.667C212.552 62.8261 211.636 62.2504 210.609 62.0547C209.945 61.8457 209.228 61.8813 208.589 62.1551C204.674 64.6645 199.279 64.5453 196.412 64.2442C194.867 64.0586 193.385 63.5244 192.077 62.6821C191.115 62.0074 189.982 61.6201 188.808 61.5654C186.707 61.5654 185.866 61.9795 183.626 63.0899C182.892 63.4475 181.989 63.8991 180.866 64.4136C179.669 65.0064 178.356 65.3298 177.02 65.3609Z" fill="#6E71FF"/>
<path d="M177.02 65.3609C174.887 65.3609 173.118 64.4638 171.286 63.5353C170.659 63.2279 170.031 62.9079 169.404 62.6131C166.499 61.3019 165.188 63.6482 165.05 63.918C164.945 64.1285 164.761 64.2887 164.538 64.3634C164.315 64.4381 164.072 64.4212 163.861 64.3163C163.651 64.2115 163.491 64.0274 163.416 63.8044C163.341 63.5815 163.358 63.338 163.463 63.1275C164.191 61.6783 166.506 59.3634 170.113 61.0071C170.816 61.3207 171.462 61.6344 172.083 61.9669C174.831 63.3596 176.813 64.3697 180.138 62.8389C181.236 62.337 182.095 61.9104 182.848 61.5403C185.151 60.3985 186.305 59.8276 188.814 59.8276C190.29 59.869 191.723 60.328 192.949 61.1513C194.045 61.8721 195.292 62.3315 196.594 62.4939C198.714 62.7135 204.047 62.9769 207.635 60.6746C208.673 60.1263 209.885 60.0069 211.01 60.3421C212.505 60.637 213.825 61.5064 214.686 62.7636C214.746 62.8629 214.785 62.9729 214.802 63.0873C214.819 63.2017 214.813 63.3183 214.784 63.4305C214.756 63.5426 214.706 63.6481 214.637 63.7409C214.568 63.8337 214.481 63.912 214.382 63.9713C214.283 64.0306 214.173 64.0698 214.058 64.0866C213.944 64.1034 213.827 64.0975 213.715 64.0693C213.603 64.041 213.498 63.991 213.405 63.9219C213.312 63.8529 213.234 63.7663 213.175 63.667C212.552 62.8261 211.636 62.2504 210.609 62.0547C209.945 61.8457 209.228 61.8813 208.589 62.1551C204.674 64.6645 199.279 64.5453 196.412 64.2442C194.867 64.0586 193.385 63.5244 192.077 62.6821C191.115 62.0074 189.982 61.6201 188.808 61.5654C186.707 61.5654 185.866 61.9795 183.626 63.0899C182.892 63.4475 181.989 63.8991 180.866 64.4136C179.669 65.0064 178.356 65.3298 177.02 65.3609Z" fill="url(#paint4_linear)"/>
<path d="M132.327 109.344C133.214 109.529 134.028 109.964 134.674 110.599C135.182 111.341 135.473 112.21 135.514 113.109C139.724 143.366 142.258 172.945 131.681 201.603C131.402 202.568 130.899 203.453 130.213 204.188C129.479 204.773 128.621 205.183 127.704 205.386C118.024 208.209 107.754 208.052 97.6723 207.826C93.1616 207.72 88.5317 207.588 84.341 205.906C82.9232 205.336 81.4677 204.482 80.9282 203.052C80.6734 202.151 80.5904 201.211 80.6835 200.279C80.878 192.688 78.2306 185.342 77.0888 177.832C75.9721 170.505 76.2983 163.039 76.6308 155.637C76.9738 148.025 77.3272 140.415 77.6911 132.807C77.9671 127.011 73.8517 121.86 75.3385 116.17C76.6685 111.076 98.0738 105.016 106.706 105.154C115.393 105.42 124.008 106.829 132.327 109.344Z" fill="url(#paint5_linear)"/>
<path d="M78.3691 230.568C86.3114 237.801 97.9551 239.978 108.551 238.234C119.147 236.49 128.852 231.164 137.616 224.96C134.615 217.742 132.524 210.178 131.393 202.444C131.619 203.987 103.702 206.766 101.054 206.754C96.324 206.754 91.3804 204.872 86.7882 205.066C82.7732 205.223 82.3967 209.119 81.7694 212.362C80.6276 218.427 79.4942 224.495 78.3691 230.568Z" fill="#6E71FF"/>
<path d="M78.3691 230.568C86.3114 237.801 97.9551 239.978 108.551 238.234C119.147 236.49 129.736 232.705 138.5 226.5C135.498 219.282 132.524 210.178 131.393 202.444C131.619 203.987 103.702 206.766 101.054 206.754C96.324 206.754 91.3804 204.872 86.7882 205.066C82.7732 205.223 82.3967 209.119 81.7694 212.362C80.6276 218.427 79.4942 224.495 78.3691 230.568Z" fill="#6E71FF"/>
<path d="M78.3691 230.568C86.3114 237.801 97.9551 239.978 108.551 238.234C119.147 236.49 129.736 232.705 138.5 226.5C135.498 219.282 132.524 210.178 131.393 202.444C131.619 203.987 103.702 206.766 101.054 206.754C96.324 206.754 91.3804 204.872 86.7882 205.066C82.7732 205.223 82.3967 209.119 81.7694 212.362C80.6276 218.427 79.4942 224.495 78.3691 230.568Z" fill="url(#paint6_linear)"/>
<path d="M98.8462 104.037C98.3004 105.348 97.5915 106.747 97.968 108.128C98.1312 108.681 98.4019 109.197 98.7647 109.646C99.6783 110.851 100.884 111.804 102.268 112.415C103.651 113.026 105.168 113.274 106.674 113.137C108.18 112.999 109.627 112.481 110.877 111.629C112.128 110.778 113.141 109.623 113.821 108.272C112.379 105.75 111.75 102.845 112.021 99.9532C112.14 98.6985 112.391 97.2493 111.582 96.2581C111.159 95.7993 110.625 95.4578 110.032 95.2669C107.523 94.2757 103.947 93.9494 101.663 95.6935C99.6116 97.2807 99.8688 101.628 98.8462 104.037Z" fill="url(#paint7_linear)"/>
<path d="M102.553 103.278C103.266 104.234 104.189 105.013 105.251 105.555C106.33 106.051 113.13 107.243 112.735 106.12C111.995 104.154 111.758 102.034 112.045 99.9532C112.672 98.8679 113.444 98.3284 113.739 97.0987C113.833 96.7197 113.833 96.3234 113.739 95.9444C113.548 95.3728 113.176 94.8793 112.679 94.5391C111.341 93.6537 109.794 93.1365 108.193 93.0398C106.901 92.8829 105.602 92.8014 104.304 92.7198C103.244 92.5656 102.162 92.6932 101.167 93.09C97.158 95.1289 100.728 101.001 102.553 103.278Z" fill="url(#paint8_linear)" fill-opacity="0.3"/>
<path d="M97.6537 97.3807C99.1601 98.9592 101.023 100.153 103.087 100.863C106.913 102.048 111.242 100.725 114.285 98.1524C117.328 95.5802 119.304 91.929 120.671 88.1524C123.118 81.2139 124.749 72.3556 123.137 65.1787C122.578 62.6693 121.738 60.1599 120.113 58.1649C114.097 50.7873 98.4505 52.7509 91.8821 58.9491C86.3426 64.1561 88.5258 73.8487 89.6926 80.4171C90.7717 86.6279 93.0866 92.8638 97.6537 97.3807Z" fill="url(#paint9_linear)"/>
<path d="M86.0541 74.3946C85.7846 74.2757 85.4909 74.2216 85.1967 74.2369C84.9025 74.2522 84.616 74.3363 84.3602 74.4824C83.9822 74.8607 83.7586 75.3661 83.7329 75.9003C83.5135 76.7691 83.5135 77.6788 83.7329 78.5477C83.9708 79.1415 84.3105 79.6892 84.7366 80.1663L86.7191 82.638C86.9488 82.9852 87.2672 83.2646 87.6413 83.4473C87.9672 83.554 88.3155 83.5735 88.6513 83.5038C89.5861 83.3846 90.6588 82.9078 90.778 81.973C90.7929 81.5827 90.7178 81.1942 90.5585 80.8375C89.5547 78.1274 89.103 75.4109 86.0541 74.3946Z" fill="url(#paint10_linear)"/>
<path d="M123.745 72.6445C123.984 71.9455 124.425 71.3335 125.013 70.8865C125.6 70.4395 126.308 70.1779 127.045 70.1351C127.259 70.1122 127.475 70.1446 127.673 70.2292C127.916 70.3723 128.104 70.5934 128.206 70.8565C128.7 72.1684 128.807 73.5948 128.513 74.9657C128.406 76.0592 128.084 77.1209 127.566 78.0899C127.308 78.5656 126.95 78.98 126.517 79.3048C126.084 79.6296 125.586 79.8571 125.057 79.972C124.711 80.042 124.352 80.0209 124.017 79.911C123.682 79.801 123.381 79.6058 123.143 79.3446C122.102 78.0146 123.313 74.0748 123.745 72.6445Z" fill="url(#paint11_linear)"/>
<path d="M84.2847 72.2494C83.0677 69.74 81.7753 67.4941 79.6611 65.6936C80.4855 63.618 81.6921 61.7155 83.2182 60.085C86.9823 55.7312 91.4805 51.9295 96.7439 49.6584C102.007 47.3874 108.036 46.6534 113.563 48.3096C114.908 48.6679 116.171 49.2813 117.283 50.1164C118.062 50.7686 118.759 51.5121 119.36 52.331C122.316 56.1314 124.611 60.4028 126.148 64.9658C126.526 65.8875 126.693 66.8821 126.637 67.8768C126.519 68.5824 126.288 69.2644 125.953 69.8968C125.069 71.8024 124.065 73.6504 122.948 75.4301C122.613 74.0962 122.484 72.7189 122.566 71.346C122.625 68.4836 122.135 65.6364 121.123 62.9583C120.094 60.2714 118.132 58.0445 115.596 56.6848C114.312 56.0821 112.947 55.672 111.543 55.4677C107.879 54.8418 104.13 54.9206 100.496 55.6998C96.6185 56.5342 92.6662 58.3912 90.7716 61.873C89.3224 64.5518 89.3035 67.745 89.3286 70.7877C89.3286 72.1992 89.6235 78.2218 89.6235 78.2218C89.6235 78.2218 85.0438 73.5668 84.2847 72.2494Z" fill="#6E71FF"/>
<path d="M84.2847 72.2494C83.0677 69.74 81.7753 67.4941 79.6611 65.6936C80.4855 63.618 81.6921 61.7155 83.2182 60.085C86.9823 55.7312 91.4805 51.9295 96.7439 49.6584C102.007 47.3874 108.036 46.6534 113.563 48.3096C114.908 48.6679 116.171 49.2813 117.283 50.1164C118.062 50.7686 118.759 51.5121 119.36 52.331C122.316 56.1314 124.611 60.4028 126.148 64.9658C126.526 65.8875 126.693 66.8821 126.637 67.8768C126.519 68.5824 126.288 69.2644 125.953 69.8968C125.069 71.8024 124.065 73.6504 122.948 75.4301C122.613 74.0962 122.484 72.7189 122.566 71.346C122.625 68.4836 122.135 65.6364 121.123 62.9583C120.094 60.2714 118.132 58.0445 115.596 56.6848C114.312 56.0821 112.947 55.672 111.543 55.4677C107.879 54.8418 104.13 54.9206 100.496 55.6998C96.6185 56.5342 92.6662 58.3912 90.7716 61.873C89.3224 64.5518 89.3035 67.745 89.3286 70.7877C89.3286 72.1992 89.6235 78.2218 89.6235 78.2218C89.6235 78.2218 85.0438 73.5668 84.2847 72.2494Z" fill="url(#paint12_linear)"/>
<path d="M115.784 44.7712C114.623 45.9444 114.617 47.8327 114.975 49.4387C115.455 51.5661 116.431 53.5501 117.823 55.2292C119.008 56.6596 120.489 57.8453 121.53 59.3885C123.312 62.0172 123.613 65.3359 124.272 68.4412C124.327 68.966 124.547 69.4599 124.899 69.8528C125.596 70.4801 126.781 70.1476 127.409 69.4074C127.919 68.6047 128.191 67.6735 128.193 66.7223C128.457 63.4068 128.459 60.0757 128.199 56.7599C128.13 54.446 127.63 52.1653 126.725 50.0347C125.263 46.9921 119.379 41.12 115.784 44.7712Z" fill="#6E71FF"/>
<path d="M115.784 44.7712C114.623 45.9444 114.617 47.8327 114.975 49.4387C115.455 51.5661 116.431 53.5501 117.823 55.2292C119.008 56.6596 120.489 57.8453 121.53 59.3885C123.312 62.0172 123.613 65.3359 124.272 68.4412C124.327 68.966 124.547 69.4599 124.899 69.8528C125.596 70.4801 126.781 70.1476 127.409 69.4074C127.919 68.6047 128.191 67.6735 128.193 66.7223C128.457 63.4068 128.459 60.0757 128.199 56.7599C128.13 54.446 127.63 52.1653 126.725 50.0347C125.263 46.9921 119.379 41.12 115.784 44.7712Z" fill="url(#paint13_linear)"/>
<path d="M124.83 74.7524C124.847 74.3824 124.947 74.021 125.123 73.6951C125.299 73.3692 125.546 73.0873 125.847 72.8703C125.966 72.7821 126.105 72.7249 126.252 72.7041C126.399 72.6833 126.548 72.6995 126.687 72.7511C127.039 72.9268 127.108 73.3785 127.114 73.7925C127.167 74.6099 127.062 75.4298 126.806 76.2078C126.48 77.061 125.056 78.7173 124.046 77.7449C123.494 77.2116 124.115 76.7348 124.454 76.3208C124.744 75.8517 124.876 75.302 124.83 74.7524Z" fill="url(#paint14_linear)" fill-opacity="0.3"/>
<path d="M87.6787 78.8864C87.489 78.4832 87.2486 78.1059 86.9635 77.7635C86.6707 77.4206 86.2621 77.1974 85.8155 77.1361C85.3199 77.0985 84.7552 77.4435 84.7678 77.9391C84.7888 78.164 84.8665 78.3798 84.9936 78.5665C85.5327 79.6482 86.2786 80.6138 87.1894 81.4084C87.5575 81.731 88.0368 81.8975 88.5256 81.8726C88.8197 81.8115 89.0857 81.6558 89.2828 81.4292C89.48 81.2026 89.5974 80.9176 89.6172 80.6179C89.6611 80.1725 89.4917 79.3632 88.9899 79.244C88.488 79.1248 88.0112 79.5451 87.6787 78.8864Z" fill="url(#paint15_linear)"/>
<path d="M179.774 137.268C177.309 146.747 173.702 155.894 170.101 165.009C168.15 169.959 165.86 175.298 161.186 177.839C159.73 178.686 158.045 179.054 156.368 178.892C155.297 178.733 154.27 178.355 153.35 177.782C153.131 177.65 152.924 177.512 152.723 177.368C151.776 176.706 150.93 175.909 150.214 175.003C148.422 172.687 147.345 169.898 147.114 166.979C146.894 163.459 147.504 159.937 148.896 156.697C149.191 155.944 149.524 155.197 149.887 154.47C151.54 151.272 153.41 148.191 155.483 145.248C155.891 144.652 156.293 144.049 156.694 143.447C158.34 141.05 159.766 138.51 160.954 135.856C161.958 133.395 162.735 130.848 163.275 128.246C164.034 124.859 164.147 124.583 166.788 126.923C170.469 130.186 174.523 133.004 178.865 135.317C179.063 135.369 179.248 135.464 179.404 135.597C179.561 135.729 179.687 135.895 179.771 136.082C179.856 136.269 179.898 136.472 179.894 136.677C179.89 136.882 179.841 137.084 179.749 137.268H179.774Z" fill="#6E71FF"/>
<path d="M179.774 137.268C177.309 146.747 173.702 155.894 170.101 165.009C168.15 169.959 165.86 175.298 161.186 177.839C159.73 178.686 158.045 179.054 156.368 178.892C155.297 178.733 154.27 178.355 153.35 177.782C153.131 177.65 152.924 177.512 152.723 177.368C151.776 176.706 150.93 175.909 150.214 175.003C148.422 172.687 147.345 169.898 147.114 166.979C146.894 163.459 147.504 159.937 148.896 156.697C149.191 155.944 149.524 155.197 149.887 154.47C151.54 151.272 153.41 148.191 155.483 145.248C155.891 144.652 156.293 144.049 156.694 143.447C158.34 141.05 159.766 138.51 160.954 135.856C161.958 133.395 162.735 130.848 163.275 128.246C164.034 124.859 164.147 124.583 166.788 126.923C170.469 130.186 174.523 133.004 178.865 135.317C179.063 135.369 179.248 135.464 179.404 135.597C179.561 135.729 179.687 135.895 179.771 136.082C179.856 136.269 179.898 136.472 179.894 136.677C179.89 136.882 179.841 137.084 179.749 137.268H179.774Z" fill="url(#paint16_linear)"/>
<path d="M165.464 124.57C165.652 124.162 165.941 123.698 166.392 123.698C166.592 123.712 166.785 123.779 166.951 123.893C167.793 124.471 168.599 125.1 169.366 125.775C171.756 127.6 174.742 128.41 177.647 129.188C178.246 129.291 178.801 129.565 179.247 129.978C180.018 130.856 179.579 132.218 179.09 133.284C178.601 134.351 178.143 135.336 177.653 136.358C177.497 136.815 177.172 137.195 176.744 137.418C176.368 137.504 175.975 137.469 175.621 137.318C172.6 136.333 169.808 134.752 167.409 132.669C166.436 131.835 164.667 130.492 164.134 129.319C163.601 128.146 164.956 125.674 165.464 124.57Z" fill="url(#paint17_linear)"/>
<path d="M168.175 119.112C170.42 116.364 174.272 115.461 177.811 115.656C181.349 115.85 184.768 116.96 188.262 117.538C193.454 118.41 198.784 117.915 203.727 116.101C205.765 115.329 207.717 114.313 209.799 113.642C210.094 113.506 210.415 113.435 210.74 113.435C211.065 113.435 211.386 113.506 211.681 113.642C211.888 113.793 212.055 113.992 212.17 114.221C212.285 114.45 212.343 114.703 212.34 114.959C212.39 116.258 211.418 117.356 210.458 118.24C203.725 124.469 194.943 128.016 185.772 128.209C183.901 128.161 182.029 128.213 180.163 128.366C178.476 128.579 176.838 129.075 175.144 129.382C173.487 129.758 171.761 129.713 170.126 129.25C165.747 127.745 165.584 122.293 168.175 119.112Z" fill="url(#paint18_linear)"/>
<path d="M97.1141 146.076C98.9522 160.034 101.593 173.974 101.437 188.052C101.336 196.791 100.182 205.474 98.8832 214.118C98.8498 214.61 98.6922 215.085 98.4252 215.499C97.9587 215.966 97.3445 216.256 96.6875 216.32C90.2257 217.709 83.7159 218.838 77.158 219.708C77.158 201.628 77.4654 179.351 76.6875 161.295C76.1291 148.19 73.2872 139.432 74.0714 126.339L74.6988 115.474C74.6918 114.947 74.8033 114.426 75.025 113.949C75.3197 113.502 75.715 113.13 76.1793 112.864C82.1015 108.861 89.9811 104.658 97.2082 104.018C97.9485 106.377 96.2232 110.875 95.9535 113.491C95.5585 117.122 95.3762 120.773 95.4077 124.426C95.5149 131.671 96.0849 138.903 97.1141 146.076Z" fill="#6E71FF"/>
<path d="M97.1141 146.076C98.9522 160.034 101.593 173.974 101.437 188.052C101.336 196.791 100.182 205.474 98.8832 214.118C98.8498 214.61 98.6922 215.085 98.4252 215.499C97.9587 215.966 97.3445 216.256 96.6875 216.32C90.2257 217.709 83.7159 218.838 77.158 219.708C77.158 201.628 77.4654 179.351 76.6875 161.295C76.1291 148.19 73.2872 139.432 74.0714 126.339L74.6988 115.474C74.6918 114.947 74.8033 114.426 75.025 113.949C75.3197 113.502 75.715 113.13 76.1793 112.864C82.1015 108.861 89.9811 104.658 97.2082 104.018C97.9485 106.377 96.2232 110.875 95.9535 113.491C95.5585 117.122 95.3762 120.773 95.4077 124.426C95.5149 131.671 96.0849 138.903 97.1141 146.076Z" fill="url(#paint19_linear)"/>
<path d="M91.4372 105.066L84.1787 149.978L91.4058 157.569L86.4874 169.489L99.3669 197.224C99.3669 197.224 98.7019 180.386 96.0608 151.659C93.4196 122.933 98.3757 103.811 98.3757 103.811L91.4372 105.066Z" fill="#6E71FF"/>
<path d="M116.135 104.501C115.767 104.501 115.402 104.576 115.065 104.723C114.727 104.87 114.423 105.085 114.172 105.355C113.9 105.873 113.797 106.463 113.877 107.042L115.339 141.967C115.447 146.221 115.769 150.468 116.305 154.69C116.713 157.469 117.302 160.217 117.779 162.983C120.853 180.693 119.385 198.855 120.439 216.797C120.415 217.294 120.564 217.784 120.859 218.184C121.198 218.473 121.62 218.646 122.064 218.679C128.894 219.898 135.857 220.196 142.767 219.564C139.931 190.656 138.367 161.659 138.074 132.575C138.005 125.442 137.992 118.196 136.041 111.327C135.936 110.836 135.722 110.375 135.414 109.978C135.028 109.616 134.565 109.348 134.059 109.194C130.715 107.895 127.365 106.628 124.021 105.298C121.167 104.15 119.216 104.501 116.135 104.501Z" fill="#6E71FF"/>
<path d="M116.135 104.501C115.767 104.501 115.402 104.576 115.065 104.723C114.727 104.87 114.423 105.085 114.172 105.355C113.9 105.873 113.797 106.463 113.877 107.042L115.339 141.967C115.447 146.221 115.769 150.468 116.305 154.69C116.713 157.469 117.302 160.217 117.779 162.983C120.853 180.693 119.385 198.855 120.439 216.797C120.415 217.294 120.564 217.784 120.859 218.184C121.198 218.473 121.62 218.646 122.064 218.679C128.894 219.898 135.857 220.196 142.767 219.564C139.931 190.656 138.367 161.659 138.074 132.575C138.005 125.442 137.992 118.196 136.041 111.327C135.936 110.836 135.722 110.375 135.414 109.978C135.028 109.616 134.565 109.348 134.059 109.194C130.715 107.895 127.365 106.628 124.021 105.298C121.167 104.15 119.216 104.501 116.135 104.501Z" fill="url(#paint20_linear)"/>
<path d="M112.904 104.169L116.135 104.501L128.256 143.516L122.151 153.592L128.921 166.961L120.495 192.55C120.495 192.55 115.062 154.677 115.138 145.712C115.213 136.747 112.904 104.169 112.904 104.169Z" fill="#6E71FF"/>
<path d="M91.4372 105.066L84.1787 149.978L91.4058 157.569L86.4874 169.489L99.3669 197.224C99.3669 197.224 98.7019 180.386 96.0608 151.659C93.4196 122.933 98.3757 103.811 98.3757 103.811L91.4372 105.066Z" fill="#6E71FF"/>
<path d="M91.4372 105.066L84.1787 149.978L91.4058 157.569L86.4874 169.489L99.3669 197.224C99.3669 197.224 98.7019 180.386 96.0608 151.659C93.4196 122.933 98.3757 103.811 98.3757 103.811L91.4372 105.066Z" fill="url(#paint21_linear)"/>
<path d="M112.904 104.169L116.135 104.501L128.256 143.516L122.151 153.592L128.921 166.961L120.495 192.55C120.495 192.55 115.062 154.677 115.138 145.712C115.213 136.747 112.904 104.169 112.904 104.169Z" fill="#6E71FF"/>
<path d="M112.904 104.169L116.135 104.501L128.256 143.516L122.151 153.592L128.921 166.961L120.495 192.55C120.495 192.55 115.062 154.677 115.138 145.712C115.213 136.747 112.904 104.169 112.904 104.169Z" fill="url(#paint22_linear)"/>
<path d="M190.358 58.9181C190.358 57.896 189.529 57.0674 188.507 57.0674C187.485 57.0674 186.656 57.896 186.656 58.9181V107.783C186.656 108.805 187.485 109.633 188.507 109.633C189.529 109.633 190.358 108.805 190.358 107.783V58.9181Z" fill="#6E71FF"/>
<path d="M190.358 58.9181C190.358 57.896 189.529 57.0674 188.507 57.0674C187.485 57.0674 186.656 57.896 186.656 58.9181V107.783C186.656 108.805 187.485 109.633 188.507 109.633C189.529 109.633 190.358 108.805 190.358 107.783V58.9181Z" fill="url(#paint23_linear)"/>
<path d="M159.04 97.0861L157.001 93.6733H177.039L173.375 99.4136H160.426L159.04 97.0861Z" fill="#6E71FF"/>
<path d="M213.701 99.4136H200.746L197.327 93.6733H217.365L213.701 99.4136Z" fill="#6E71FF"/>
<path d="M159.04 97.0861L157.001 93.6733H177.039L173.375 99.4136H160.426L159.04 97.0861Z" fill="url(#paint24_linear)"/>
<path d="M213.701 99.4136H200.746L197.327 93.6733H217.365L213.701 99.4136Z" fill="url(#paint25_linear)"/>
<path d="M184.179 108.359H194.668C196.916 108.359 199.072 109.252 200.661 110.842C202.251 112.431 203.144 114.587 203.144 116.835V118.566H175.703V116.835C175.703 114.587 176.596 112.431 178.186 110.842C179.775 109.252 181.931 108.359 184.179 108.359Z" fill="#6E71FF"/>
<path d="M184.179 108.359H194.668C196.916 108.359 199.072 109.252 200.661 110.842C202.251 112.431 203.144 114.587 203.144 116.835V118.566H175.703V116.835C175.703 114.587 176.596 112.431 178.186 110.842C179.775 109.252 181.931 108.359 184.179 108.359Z" fill="url(#paint26_linear)"/>
<path d="M114.26 38.0774C113.955 37.586 113.556 37.1597 113.086 36.8227C112.501 36.4751 111.835 36.2889 111.154 36.2832C109.718 36.2947 108.293 36.5449 106.938 37.0235C99.1968 39.3321 91.2545 42.5003 86.104 48.6985C82.5469 52.952 80.5833 58.2782 78.6824 63.4852C78.3436 64.4262 78.055 65.5994 78.7326 66.3208C79.202 66.7165 79.8002 66.9263 80.4139 66.9106C83.7137 67.1239 86.9509 66.1326 90.1065 65.1414C95.7526 63.366 101.468 61.5091 106.625 58.5354C111.016 55.9758 115.991 52.9269 116.537 47.5128C116.89 44.1991 116.085 40.8652 114.26 38.0774Z" fill="#6E71FF"/>
<path d="M114.26 38.0774C113.955 37.586 113.556 37.1597 113.086 36.8227C112.501 36.4751 111.835 36.2889 111.154 36.2832C109.718 36.2947 108.293 36.5449 106.938 37.0235C99.1968 39.3321 91.2545 42.5003 86.104 48.6985C82.5469 52.952 80.5833 58.2782 78.6824 63.4852C78.3436 64.4262 78.055 65.5994 78.7326 66.3208C79.202 66.7165 79.8002 66.9263 80.4139 66.9106C83.7137 67.1239 86.9509 66.1326 90.1065 65.1414C95.7526 63.366 101.468 61.5091 106.625 58.5354C111.016 55.9758 115.991 52.9269 116.537 47.5128C116.89 44.1991 116.085 40.8652 114.26 38.0774Z" fill="url(#paint27_linear)"/>
<path d="M158.249 158.517C157.923 160.582 157.348 162.6 156.536 164.527C156.077 165.622 155.545 166.684 154.943 167.707C153.456 170.217 156.104 178.68 153.337 177.783C153.109 177.676 152.897 177.537 152.71 177.369C151.833 176.624 150.996 175.834 150.2 175.004C148.086 172.864 145.677 170.217 145.181 169.696C142.089 166.409 139.153 162.839 137.534 158.623C136.775 156.66 136.242 150.468 135.878 143.159C135.746 140.43 135.633 137.513 135.539 134.646C135.156 121.973 135.181 109.301 135.432 110.004C136.06 111.666 140.79 120.148 141.706 121.647C143.588 124.621 152.929 140.612 155.451 145.267C155.702 145.719 155.878 146.064 155.978 146.283C156.944 148.136 157.694 150.094 158.212 152.118C158.61 154.231 158.623 156.399 158.249 158.517Z" fill="#6E71FF"/>
<path d="M158.249 158.517C157.923 160.582 157.348 162.6 156.536 164.527C156.077 165.622 155.545 166.684 154.943 167.707C153.456 170.217 156.104 178.68 153.337 177.783C153.109 177.676 152.897 177.537 152.71 177.369C151.833 176.624 150.996 175.834 150.2 175.004C148.086 172.864 145.677 170.217 145.181 169.696C142.089 166.409 139.153 162.839 137.534 158.623C136.775 156.66 136.242 150.468 135.878 143.159C135.746 140.43 135.633 137.513 135.539 134.646C135.156 121.973 135.181 109.301 135.432 110.004C136.06 111.666 140.79 120.148 141.706 121.647C143.588 124.621 152.929 140.612 155.451 145.267C155.702 145.719 155.878 146.064 155.978 146.283C156.944 148.136 157.694 150.094 158.212 152.118C158.61 154.231 158.623 156.399 158.249 158.517Z" fill="url(#paint28_linear)"/>
<path d="M102.146 109.527L105.565 112.701C105.661 112.75 105.744 112.822 105.805 112.91C105.867 112.999 105.907 113.101 105.92 113.209C105.933 113.316 105.919 113.425 105.88 113.525C105.841 113.626 105.778 113.716 105.696 113.786C103.831 116.296 101.853 118.701 99.7616 121.001C97.8795 116.609 96.1982 111.86 96.4178 106.992C96.4868 105.449 96.9134 102.205 98.532 104.771C99.5075 106.518 100.724 108.119 102.146 109.527Z" fill="url(#paint29_linear)"/>
<path d="M110.088 110.084C109.534 110.742 108.887 111.314 108.168 111.785C107.585 112.065 107.017 112.377 106.468 112.719C106.318 112.827 106.194 112.966 106.104 113.127C105.803 113.711 106.298 114.382 106.731 114.865C107.233 115.492 111.123 121.421 111.255 121.276C112.183 120.11 112.616 117.217 113.212 115.85C113.984 114.232 114.541 112.519 114.868 110.756C115.191 108.976 114.892 107.14 114.021 105.555C113.827 105.229 113.218 104.539 112.842 104.965C112.729 105.091 112.754 105.699 112.716 105.888C112.638 106.214 112.531 106.533 112.396 106.841C111.813 108.043 111.032 109.139 110.088 110.084Z" fill="url(#paint30_linear)"/>
<path d="M102.817 151.202C102.892 161.057 103.237 170.925 102.515 180.75C102.246 184.432 101.825 188.159 102.515 191.798C103.318 196.245 105.652 200.235 107.986 204.125C109.078 203.949 109.611 202.726 109.962 201.678L114.454 188.197C114.739 187.489 114.9 186.738 114.931 185.976C114.862 185.137 114.649 184.315 114.303 183.548C110.997 174.595 111.135 164.803 110.577 155.273C110.062 146.562 108.934 137.897 107.202 129.345C106.843 127.886 106.647 126.392 106.618 124.89C106.622 123.802 106.854 122.726 107.298 121.732C107.742 120.738 108.389 119.848 109.197 119.119C107.942 117.086 106.505 115.869 105.433 114.288C103.973 115.565 102.87 117.199 102.233 119.031C102.233 119.031 104.674 121.609 104.266 124.953C103.313 133.67 102.829 142.432 102.817 151.202Z" fill="#6E71FF"/>
<path d="M102.817 151.202C102.892 161.057 103.237 170.925 102.515 180.75C102.246 184.432 101.825 188.159 102.515 191.798C103.318 196.245 105.652 200.235 107.986 204.125C109.078 203.949 109.611 202.726 109.962 201.678L114.454 188.197C114.739 187.489 114.9 186.738 114.931 185.976C114.862 185.137 114.649 184.315 114.303 183.548C110.997 174.595 111.135 164.803 110.577 155.273C110.062 146.562 108.934 137.897 107.202 129.345C106.843 127.886 106.647 126.392 106.618 124.89C106.622 123.802 106.854 122.726 107.298 121.732C107.742 120.738 108.389 119.848 109.197 119.119C107.942 117.086 106.505 115.869 105.433 114.288C103.973 115.565 102.87 117.199 102.233 119.031C102.233 119.031 104.674 121.609 104.266 124.953C103.313 133.67 102.829 142.432 102.817 151.202Z" fill="url(#paint31_linear)"/>
<path d="M93.4068 156.804C93.733 154.821 93.6514 152.789 94.0341 150.825C94.395 149.026 95.1277 147.322 96.1854 145.823C97.243 144.323 98.6022 143.061 100.176 142.118C101.092 144.433 99.9751 146.992 99.5485 149.445C99.4105 150.229 99.4733 151.258 100.22 151.547C100.847 151.785 101.475 151.315 102.008 150.869L117.817 137.067C118.733 140.035 116.619 142.977 115.157 145.719C114.893 146.153 114.722 146.638 114.655 147.143C114.673 147.776 114.832 148.397 115.119 148.962C116.865 153.26 117.37 157.961 116.575 162.532C116.274 164.225 115.734 165.995 114.417 167.105C113.522 167.762 112.511 168.243 111.437 168.523L96.9074 173.31C96.652 173.461 96.3679 173.558 96.0731 173.595C95.7784 173.631 95.4792 173.606 95.1946 173.521C94.91 173.436 94.646 173.293 94.4193 173.101C94.1926 172.91 94.008 172.673 93.8773 172.406C92.1458 170.148 89.6301 166.917 90.0567 163.849C90.3955 161.239 92.9488 159.646 93.4068 156.804Z" fill="url(#paint32_linear)"/>
<path d="M86.7691 163.41C86.4629 164.122 86.2845 164.882 86.2421 165.656C86.0915 168.604 87.9171 171.302 90.0062 173.391C90.437 173.866 90.9517 174.257 91.5244 174.545C92.5846 175.016 93.8017 174.809 94.9372 174.595C95.3262 174.52 95.7778 174.401 95.9347 174.037C96.1668 173.485 95.5457 172.977 95.0501 172.638C93.3631 171.382 92.169 169.576 91.675 167.532C91.392 166.461 91.23 165.363 91.1919 164.257C91.1919 163.485 91.4178 162.312 90.8782 161.659C89.5169 160.041 87.3211 162.155 86.7691 163.41Z" fill="url(#paint33_linear)"/>
<path d="M93.5879 155.405C94.0835 156.798 95.15 158.642 95.7899 159.978C96.2479 160.986 96.6439 162.021 96.9756 163.077C97.8427 165.462 98.5346 167.907 99.0459 170.392C99.1463 170.957 99.7046 173.127 99.5729 173.692L96.4361 173.855C96.3232 173.855 95.7272 172.281 95.6206 172.23C95.5069 172.159 95.419 172.054 95.3696 171.929C93.8953 169.2 93.5315 166.02 92.4148 163.146C92.032 162.276 91.6949 161.386 91.4047 160.48C91.0877 159.538 91.0877 158.518 91.4047 157.575C91.7937 156.754 92.7786 155.618 93.5879 155.405Z" fill="url(#paint34_linear)"/>
<path d="M76.3677 116.045C76.1869 115.558 75.8374 115.153 75.3828 114.903C75.0189 114.752 76.2987 113.447 75.9223 113.554C72.2774 114.552 68.8583 120.016 67.842 123.654C65.5898 131.81 64.3226 140.141 63.0616 148.479L59.0591 174.915C58.6325 177.707 58.2121 180.499 57.842 183.303C57.635 184.89 57.453 186.54 57.9675 188.058C58.8771 190.712 61.7943 192.262 64.5986 192.393C67.4029 192.525 70.1256 191.503 72.7165 190.43C80.9476 187.014 88.8301 182.812 96.2548 177.883C97.0339 177.477 97.6465 176.811 97.9863 176.001C98.1096 175.413 98.088 174.803 97.9236 174.225C96.6011 167.83 94.292 161.68 91.0791 155.994C86.7445 159.729 81.9219 162.857 76.7441 165.292C80.6463 155.373 79.7931 144.307 78.8834 133.686C78.3941 127.989 78.9712 121.139 76.3677 116.045Z" fill="#6E71FF"/>
<path d="M76.3677 116.045C76.1869 115.558 75.8374 115.153 75.3828 114.903C75.0189 114.752 76.2987 113.447 75.9223 113.554C72.2774 114.552 68.8583 120.016 67.842 123.654C65.5898 131.81 64.3226 140.141 63.0616 148.479L59.0591 174.915C58.6325 177.707 58.2121 180.499 57.842 183.303C57.635 184.89 57.453 186.54 57.9675 188.058C58.8771 190.712 61.7943 192.262 64.5986 192.393C67.4029 192.525 70.1256 191.503 72.7165 190.43C80.9476 187.014 88.8301 182.812 96.2548 177.883C97.0339 177.477 97.6465 176.811 97.9863 176.001C98.1096 175.413 98.088 174.803 97.9236 174.225C96.6011 167.83 94.292 161.68 91.0791 155.994C86.7445 159.729 81.9219 162.857 76.7441 165.292C80.6463 155.373 79.7931 144.307 78.8834 133.686C78.3941 127.989 78.9712 121.139 76.3677 116.045Z" fill="url(#paint35_linear)"/>
<path d="M179.774 137.268C177.308 146.747 173.701 155.894 170.1 165.01C168.149 169.959 165.859 175.298 161.185 177.839C159.729 178.686 158.044 179.055 156.367 178.893C155.296 178.733 154.269 178.355 153.35 177.782C153.122 177.676 152.91 177.536 152.723 177.368C151.775 176.707 150.93 175.91 150.213 175.003C148.099 172.864 145.69 170.217 145.194 169.696C142.101 166.409 139.165 162.839 137.547 158.623L135.859 143.134L135.5 133.502L135.521 134.596C137.566 138.272 143.676 149.081 148.864 156.666C152.17 161.503 155.1 165.022 156.393 164.57C156.448 164.555 156.501 164.532 156.549 164.501C160.401 162.488 170.044 135.072 170.044 135.072L179.774 137.268Z" fill="#6E71FF"/>
<path d="M179.774 137.268C177.308 146.747 173.701 155.894 170.1 165.01C168.149 169.959 165.859 175.298 161.185 177.839C159.729 178.686 158.044 179.055 156.367 178.893C155.296 178.733 154.269 178.355 153.35 177.782C153.122 177.676 152.91 177.536 152.723 177.368C151.775 176.707 150.93 175.91 150.213 175.003C148.099 172.864 145.69 170.217 145.194 169.696C142.101 166.409 139.165 162.839 137.547 158.623L135.859 143.134L135.5 133.502L135.521 134.596C137.566 138.272 143.676 149.081 148.864 156.666C152.17 161.503 155.1 165.022 156.393 164.57C156.448 164.555 156.501 164.532 156.549 164.501C160.401 162.488 170.044 135.072 170.044 135.072L179.774 137.268Z" fill="url(#paint36_linear)"/>
<defs>
<linearGradient id="paint0_linear" x1="207.12" y1="48.8741" x2="207.446" y2="114.42" gradientUnits="userSpaceOnUse">
<stop offset="0.01"/>
<stop offset="1" stop-opacity="0"/>
</linearGradient>
<linearGradient id="paint1_linear" x1="206.582" y1="78.001" x2="208.818" y2="78.065" gradientUnits="userSpaceOnUse">
<stop offset="0.38383" stop-opacity="0.75"/>
<stop offset="0.908533" stop-opacity="0"/>
</linearGradient>
<linearGradient id="paint2_linear" x1="5608.59" y1="1444.21" x2="5637.29" y2="4922.58" gradientUnits="userSpaceOnUse">
<stop offset="0.01"/>
<stop offset="1" stop-opacity="0"/>
</linearGradient>
<linearGradient id="paint3_linear" x1="166.773" y1="78.145" x2="169.01" y2="78.2177" gradientUnits="userSpaceOnUse">
<stop offset="0.38383" stop-opacity="0.75"/>
<stop offset="0.908533" stop-opacity="0"/>
</linearGradient>
<linearGradient id="paint4_linear" x1="189.165" y1="55.4453" x2="189.083" y2="66.5293" gradientUnits="userSpaceOnUse">
<stop offset="0.38383" stop-opacity="0.75"/>
<stop offset="0.908533" stop-opacity="0"/>
</linearGradient>
<linearGradient id="paint5_linear" x1="107.084" y1="105.151" x2="107.084" y2="207.937" gradientUnits="userSpaceOnUse">
<stop offset="0.9999" stop-color="white"/>
<stop offset="1" stop-color="white" stop-opacity="0"/>
</linearGradient>
<linearGradient id="paint6_linear" x1="146.422" y1="179.484" x2="71.1559" y2="164.011" gradientUnits="userSpaceOnUse">
<stop offset="0.079127"/>
<stop offset="0.83" stop-opacity="0.07"/>
<stop offset="1" stop-opacity="0"/>
</linearGradient>
<linearGradient id="paint7_linear" x1="97.8627" y1="103.815" x2="113.832" y2="103.815" gradientUnits="userSpaceOnUse">
<stop stop-color="#E5C5D5"/>
<stop offset="0.42" stop-color="#EAD4D1"/>
<stop offset="1" stop-color="#F0E9CB"/>
</linearGradient>
<linearGradient id="paint8_linear" x1="106.784" y1="80.8861" x2="87.8056" y2="113.555" gradientUnits="userSpaceOnUse">
<stop offset="0.01" stop-opacity="0.53"/>
<stop offset="0.83" stop-opacity="0.07"/>
<stop offset="1" stop-opacity="0"/>
</linearGradient>
<linearGradient id="paint9_linear" x1="88.2733" y1="77.361" x2="123.806" y2="77.361" gradientUnits="userSpaceOnUse">
<stop stop-color="#E5C5D5"/>
<stop offset="0.42" stop-color="#EAD4D1"/>
<stop offset="1" stop-color="#F0E9CB"/>
</linearGradient>
<linearGradient id="paint10_linear" x1="83.5685" y1="78.8902" x2="90.7849" y2="78.8902" gradientUnits="userSpaceOnUse">
<stop stop-color="#E5C5D5"/>
<stop offset="0.42" stop-color="#EAD4D1"/>
<stop offset="1" stop-color="#F0E9CB"/>
</linearGradient>
<linearGradient id="paint11_linear" x1="122.732" y1="75.0709" x2="128.68" y2="75.0709" gradientUnits="userSpaceOnUse">
<stop stop-color="#E5C5D5"/>
<stop offset="0.42" stop-color="#EAD4D1"/>
<stop offset="1" stop-color="#F0E9CB"/>
</linearGradient>
<linearGradient id="paint12_linear" x1="133.631" y1="27.9531" x2="8.99754" y2="-1.97577" gradientUnits="userSpaceOnUse">
<stop offset="0.079127"/>
<stop offset="0.83" stop-opacity="0.07"/>
<stop offset="1" stop-opacity="0"/>
</linearGradient>
<linearGradient id="paint13_linear" x1="130.417" y1="26.8341" x2="64.8151" y2="23.2435" gradientUnits="userSpaceOnUse">
<stop offset="0.079127"/>
<stop offset="0.83" stop-opacity="0.07"/>
<stop offset="1" stop-opacity="0"/>
</linearGradient>
<linearGradient id="paint14_linear" x1="125.525" y1="68.1782" x2="117.142" y2="76.7546" gradientUnits="userSpaceOnUse">
<stop offset="0.01" stop-opacity="0.53"/>
<stop offset="0.83" stop-opacity="0.07"/>
<stop offset="1" stop-opacity="0"/>
</linearGradient>
<linearGradient id="paint15_linear" x1="858.181" y1="494.834" x2="830.043" y2="531.713" gradientUnits="userSpaceOnUse">
<stop offset="0.01"/>
<stop offset="1" stop-opacity="0"/>
</linearGradient>
<linearGradient id="paint16_linear" x1="200.636" y1="89.456" x2="146.553" y2="87.96" gradientUnits="userSpaceOnUse">
<stop offset="0.079127"/>
<stop offset="0.83" stop-opacity="0.07"/>
<stop offset="1" stop-opacity="0"/>
</linearGradient>
<linearGradient id="paint17_linear" x1="171.839" y1="123.698" x2="171.839" y2="137.464" gradientUnits="userSpaceOnUse">
<stop offset="0.9999" stop-color="white"/>
<stop offset="1" stop-color="white" stop-opacity="0"/>
</linearGradient>
<linearGradient id="paint18_linear" x1="166.477" y1="121.536" x2="212.374" y2="121.536" gradientUnits="userSpaceOnUse">
<stop stop-color="#E5C5D5"/>
<stop offset="0.42" stop-color="#EAD4D1"/>
<stop offset="1" stop-color="#F0E9CB"/>
</linearGradient>
<linearGradient id="paint19_linear" x1="90.7774" y1="232.302" x2="121.91" y2="8.38797" gradientUnits="userSpaceOnUse">
<stop stop-opacity="0"/>
<stop offset="0.639117" stop-opacity="0.75"/>
<stop offset="1"/>
</linearGradient>
<linearGradient id="paint20_linear" x1="131.555" y1="232.453" x2="161.097" y2="8.61045" gradientUnits="userSpaceOnUse">
<stop stop-opacity="0"/>
<stop offset="0.639117" stop-opacity="0.75"/>
<stop offset="1"/>
</linearGradient>
<linearGradient id="paint21_linear" x1="108.964" y1="41.1025" x2="83.9214" y2="40.9188" gradientUnits="userSpaceOnUse">
<stop offset="0.079127"/>
<stop offset="0.83" stop-opacity="0.07"/>
<stop offset="1" stop-opacity="0"/>
</linearGradient>
<linearGradient id="paint22_linear" x1="139.041" y1="44.838" x2="112.633" y2="44.6221" gradientUnits="userSpaceOnUse">
<stop offset="0.079127"/>
<stop offset="0.83" stop-opacity="0.07"/>
<stop offset="1" stop-opacity="0"/>
</linearGradient>
<linearGradient id="paint23_linear" x1="188.512" y1="15.4352" x2="135.867" y2="68.9531" gradientUnits="userSpaceOnUse">
<stop offset="0.38383" stop-opacity="0.75"/>
<stop offset="0.908533" stop-opacity="0"/>
</linearGradient>
<linearGradient id="paint24_linear" x1="167.049" y1="89.127" x2="166.821" y2="100.622" gradientUnits="userSpaceOnUse">
<stop offset="0.38383" stop-opacity="0.75"/>
<stop offset="0.908533" stop-opacity="0"/>
</linearGradient>
<linearGradient id="paint25_linear" x1="207.375" y1="89.127" x2="207.147" y2="100.622" gradientUnits="userSpaceOnUse">
<stop offset="0.38383" stop-opacity="0.75"/>
<stop offset="0.908533" stop-opacity="0"/>
</linearGradient>
<linearGradient id="paint26_linear" x1="189.463" y1="100.275" x2="188.937" y2="120.709" gradientUnits="userSpaceOnUse">
<stop offset="0.38383" stop-opacity="0.75"/>
<stop offset="0.908533" stop-opacity="0"/>
</linearGradient>
<linearGradient id="paint27_linear" x1="122.31" y1="16.9249" x2="12.9542" y2="14.2091" gradientUnits="userSpaceOnUse">
<stop offset="0.079127"/>
<stop offset="1" stop-opacity="0"/>
</linearGradient>
<linearGradient id="paint28_linear" x1="173.226" y1="64.4118" x2="134.86" y2="63.8183" gradientUnits="userSpaceOnUse">
<stop offset="0.079127"/>
<stop offset="0.83" stop-opacity="0.07"/>
<stop offset="1" stop-opacity="0"/>
</linearGradient>
<linearGradient id="paint29_linear" x1="101.161" y1="103.815" x2="101.161" y2="121.001" gradientUnits="userSpaceOnUse">
<stop offset="0.9999" stop-color="white"/>
<stop offset="1" stop-color="white" stop-opacity="0"/>
</linearGradient>
<linearGradient id="paint30_linear" x1="110.503" y1="104.83" x2="110.503" y2="121.279" gradientUnits="userSpaceOnUse">
<stop offset="0.9999" stop-color="white"/>
<stop offset="1" stop-color="white" stop-opacity="0"/>
</linearGradient>
<linearGradient id="paint31_linear" x1="116.832" y1="57.5599" x2="99.9011" y2="57.2558" gradientUnits="userSpaceOnUse">
<stop offset="0.079127"/>
<stop offset="0.83" stop-opacity="0.07"/>
<stop offset="1" stop-opacity="0"/>
</linearGradient>
<linearGradient id="paint32_linear" x1="90.0095" y1="155.342" x2="118.059" y2="155.342" gradientUnits="userSpaceOnUse">
<stop stop-color="#E5C5D5"/>
<stop offset="0.42" stop-color="#EAD4D1"/>
<stop offset="1" stop-color="#F0E9CB"/>
</linearGradient>
<linearGradient id="paint33_linear" x1="91.1091" y1="161.073" x2="91.1091" y2="174.83" gradientUnits="userSpaceOnUse">
<stop offset="0.9999" stop-color="white"/>
<stop offset="1" stop-color="white" stop-opacity="0"/>
</linearGradient>
<linearGradient id="paint34_linear" x1="95.3799" y1="155.405" x2="95.3799" y2="173.855" gradientUnits="userSpaceOnUse">
<stop offset="0.9999" stop-color="white"/>
<stop offset="1" stop-color="white" stop-opacity="0"/>
</linearGradient>
<linearGradient id="paint35_linear" x1="82.3883" y1="200.989" x2="92.3781" y2="46.0577" gradientUnits="userSpaceOnUse">
<stop stop-opacity="0"/>
<stop offset="0.639117" stop-opacity="0.75"/>
<stop offset="1"/>
</linearGradient>
<linearGradient id="paint36_linear" x1="208.185" y1="102.736" x2="134.192" y2="99.4441" gradientUnits="userSpaceOnUse">
<stop offset="0.079127"/>
<stop offset="0.83" stop-opacity="0.07"/>
<stop offset="1" stop-opacity="0"/>
</linearGradient>
</defs>
</svg>
