<svg width="208" height="208" viewBox="0 0 208 208" fill="none" xmlns="http://www.w3.org/2000/svg">
<path opacity="0.18" d="M6.14958 97.3812C10.2149 87.8628 16.3406 78.1042 22.037 73.3799C27.7333 68.6556 97.9333 -0.000196308 130.369 0C162.804 0.000196314 157.221 8.93405 169.134 18.5806C183.668 30.3419 196.101 50.4906 198.286 74.8236C199.803 91.5232 196.465 108.815 199.106 125.201C201.125 137.747 206.526 148.829 207.755 161.597C209.17 176.25 204.354 191.818 195.941 199.799C187.528 207.779 176.901 208.005 166.921 207.579C140.746 206.448 156.54 198.844 88.4536 207.202C20.3667 215.561 2.56506 155.483 2.56506 155.483C-1.45703 136.314 -1.09832 114.345 6.14958 97.3812Z" fill="#6E71FF"/>
<path d="M106 164C133.614 164 156 141.614 156 114C156 86.3858 133.614 64 106 64C78.3858 64 56 86.3858 56 114C56 141.614 78.3858 164 106 164Z" fill="#6E71FF"/>
<path d="M114.994 69L81 122.789H104.016L98.9947 158.227L131 109.5H108.5L114.994 69Z" fill="#6E71FF"/>
<path d="M113.555 77L85 122.183H104.334L100.116 151.951L127 111.02H108.1L113.555 77Z" fill="url(#paint0_linear)"/>
<defs>
<linearGradient id="paint0_linear" x1="106" y1="79.94" x2="101.38" y2="231.56" gradientUnits="userSpaceOnUse">
<stop offset="0.354167" stop-color="white"/>
<stop offset="1" stop-color="white" stop-opacity="0"/>
</linearGradient>
</defs>
</svg>
