<svg width="208" height="208" viewBox="0 0 208 208" fill="none" xmlns="http://www.w3.org/2000/svg">
<g clip-path="url(#clip0)">
<path opacity="0.18" d="M15.9833 177.378C18.4129 179.312 21.0658 180.891 23.8743 182.076C28.7357 184.121 33.914 185.037 38.903 186.613C41.1176 187.305 43.291 188.145 45.4232 189.06C58.3362 194.575 70.1871 203.324 83.7709 206.517C108.942 212.478 133.27 198.925 157.33 193.178C177.944 188.265 194.698 200.01 203.021 164.472C206.499 149.678 210.805 134.012 205.54 119.816C200.275 105.62 192.862 92.5085 187.84 78.2407C180.669 57.8639 178.014 34.388 163.903 18.8386C154.131 8.0719 140.165 2.87389 126.33 1.02957C112.495 -0.814744 98.4868 0.368654 84.5572 0.431173C67.779 0.489226 49.9059 -0.787951 35.3959 8.37557C30.2785 11.6579 25.8677 16.0903 22.4598 21.3748C19.0518 26.6594 16.7257 32.6739 15.6375 39.0144C12.7561 56.5153 19.5974 74.6593 16.5226 92.1289C13.6699 108.393 2.52705 122.004 0.349518 138.402C-1.62631 153.165 4.93507 168.652 15.9833 177.378Z" fill="#6E71FF"/>
<path d="M120.88 123.58V107.604H79.7988V123.58L100.339 141.838L120.88 123.58Z" fill="#E5C5D5"/>
<path d="M152.64 131.053L124.399 124.408C123.972 124.307 123.58 124.137 123.213 123.93L100.339 137.274L78.3573 123.285C77.7882 123.821 77.0819 124.219 76.2796 124.408L48.0383 131.053C43.9144 132.023 41 135.703 41 139.939V157.814C41 160.335 43.0436 162.379 45.5645 162.379H155.113C157.634 162.379 159.678 160.335 159.678 157.814V139.939C159.678 135.703 156.764 132.023 152.64 131.053Z" fill="#6E71FF"/>
<path d="M152.64 131.053L124.399 124.408C123.972 124.307 123.58 124.137 123.213 123.93L100.339 137.274L78.3573 123.285C77.7882 123.821 77.0819 124.219 76.2796 124.408L48.0383 131.053C43.9144 132.023 41 135.703 41 139.939V157.814C41 160.335 43.0436 162.379 45.5645 162.379H155.113C157.634 162.379 159.678 160.335 159.678 157.814V139.939C159.678 135.703 156.764 132.023 152.64 131.053Z" fill="url(#paint0_linear)"/>
<path d="M79.7988 107.604V124.46C105.674 133.782 120.88 110.45 120.88 110.45V107.604H79.7988V107.604Z" fill="#D1B4C2"/>
<path d="M70.6699 55.1121L72.6587 98.8662C72.8443 102.954 74.8486 106.744 78.1219 109.199L87.5585 116.277C89.9289 118.054 92.8118 119.016 95.7747 119.016H104.904C107.867 119.016 110.75 118.055 113.12 116.277L122.557 109.199C125.83 106.744 127.834 102.954 128.02 98.8662L130.009 55.1121H70.6699Z" fill="#E5C5D5"/>
<path d="M70.6699 55.1121L72.6587 98.8662C72.8443 102.954 74.8486 106.744 78.1219 109.199L87.5585 116.277C89.9289 118.054 92.8118 119.016 95.7747 119.016H104.904C107.867 119.016 110.75 118.055 113.12 116.277L122.557 109.199C125.83 106.744 127.834 102.954 128.02 98.8662L130.009 55.1121H70.6699Z" fill="url(#paint1_linear)"/>
<path d="M93.4928 64.2409C102.622 64.2409 116.315 61.9587 119.563 55.1118H70.6699L72.6587 98.8659C72.8443 102.953 74.8486 106.744 78.1222 109.199L87.5588 116.276C89.9292 118.054 92.812 119.015 95.775 119.015H100.339C95.775 119.015 86.6458 109.886 86.6458 98.475C86.6458 92.8939 86.6458 77.9346 86.6458 71.0876C86.6458 68.8054 88.928 64.2409 93.4928 64.2409Z" fill="#E5C5D5"/>
<path d="M93.4928 64.2409C102.622 64.2409 116.315 61.9587 119.563 55.1118H70.6699L72.6587 98.8659C72.8443 102.953 74.8486 106.744 78.1222 109.199L87.5588 116.276C89.9292 118.054 92.812 119.015 95.775 119.015H100.339C95.775 119.015 86.6458 109.886 86.6458 98.475C86.6458 92.8939 86.6458 77.9346 86.6458 71.0876C86.6458 68.8054 88.928 64.2409 93.4928 64.2409Z" fill="url(#paint2_linear)"/>
<path d="M57.7556 147.567L42.9667 134.282C41.7275 135.851 41.001 137.826 41.001 139.939V157.814C41.001 160.335 43.0446 162.379 45.5654 162.379H61.5413V156.056C61.5411 152.817 60.1648 149.731 57.7556 147.567Z" fill="#6E71FF"/>
<path d="M57.7556 147.567L42.9667 134.282C41.7275 135.851 41.001 137.826 41.001 139.939V157.814C41.001 160.335 43.0446 162.379 45.5654 162.379H61.5413V156.056C61.5411 152.817 60.1648 149.731 57.7556 147.567Z" fill="url(#paint3_linear)"/>
<path d="M142.923 147.567L157.712 134.282C158.952 135.851 159.678 137.826 159.678 139.939V157.814C159.678 160.335 157.634 162.379 155.114 162.379H139.138V156.056C139.138 152.817 140.514 149.731 142.923 147.567Z" fill="#6E71FF"/>
<path d="M142.923 147.567L157.712 134.282C158.952 135.851 159.678 137.826 159.678 139.939V157.814C159.678 160.335 157.634 162.379 155.114 162.379H139.138V156.056C139.138 152.817 140.514 149.731 142.923 147.567Z" fill="url(#paint4_linear)"/>
<path d="M106.045 162.378H94.6338L96.0602 141.838H104.619L106.045 162.378Z" fill="#6E71FF"/>
<path d="M106.045 137.273H94.6338V141.569C94.6338 142.978 95.7761 144.12 97.1854 144.12H103.493C104.903 144.12 106.045 142.978 106.045 141.569V137.273H106.045Z" fill="#6E71FF"/>
<path d="M106.045 137.273H94.6338V141.569C94.6338 142.978 95.7761 144.12 97.1854 144.12H103.493C104.903 144.12 106.045 142.978 106.045 141.569V137.273H106.045Z" fill="url(#paint5_linear)"/>
<path d="M79.4782 118.499L100.339 137.273C100.339 137.273 94.497 140.223 87.2875 146.167C85.8003 147.393 83.5507 146.896 82.7531 145.142L72.9521 123.58L76.0527 118.929C76.8242 117.771 78.4438 117.568 79.4782 118.499Z" fill="#6E71FF"/>
<path d="M79.4782 118.499L100.339 137.273C100.339 137.273 94.497 140.223 87.2875 146.167C85.8003 147.393 83.5507 146.896 82.7531 145.142L72.9521 123.58L76.0527 118.929C76.8242 117.771 78.4438 117.568 79.4782 118.499Z" fill="url(#paint6_linear)"/>
<path d="M121.2 118.499L100.339 137.273C100.339 137.273 106.181 140.223 113.391 146.167C114.878 147.393 117.127 146.896 117.925 145.141L127.726 123.58L124.625 118.929C123.854 117.771 122.234 117.568 121.2 118.499Z" fill="#6E71FF"/>
<path d="M121.2 118.499L100.339 137.273C100.339 137.273 106.181 140.223 113.391 146.167C114.878 147.393 117.127 146.896 117.925 145.142L127.726 123.58L124.625 118.929C123.854 117.771 122.234 117.568 121.2 118.499Z" fill="url(#paint7_linear)"/>
<path d="M114.176 39.992L116.315 55.112C126.082 57.0654 127.49 72.3928 127.692 76.7706C127.729 77.5652 127.983 78.3323 128.414 79.0006L132.14 84.7813C132.14 84.7813 130.865 75.2242 136.705 68.8054C136.705 68.8054 138.71 30.8628 114.176 39.992Z" fill="#6E71FF"/>
<path d="M114.176 39.992L116.315 55.112C126.082 57.0654 127.49 72.3928 127.692 76.7706C127.729 77.5652 127.983 78.3323 128.414 79.0006L132.14 84.7813C132.14 84.7813 130.865 75.2242 136.705 68.8054C136.705 68.8054 138.71 30.8628 114.176 39.992Z" fill="url(#paint8_linear)"/>
<path d="M134.429 83.8082L131.852 94.1143C131.547 95.336 130.45 96.1926 129.19 96.1926C127.806 96.1926 126.639 95.1622 126.467 93.7891L125.15 83.2479C124.797 80.4264 126.997 77.9344 129.84 77.9344H129.842C132.918 77.9347 135.175 80.8245 134.429 83.8082Z" fill="#E5C5D5"/>
<path d="M72.8568 35.9028L76.2325 38.2088C60.9699 49.4775 63.8225 68.8055 63.8225 68.8055C68.387 73.37 68.387 84.7814 68.387 84.7814L72.9515 80.2169C72.9515 80.2169 71.1899 67.0313 79.7982 61.9588C87.7861 57.2516 94.7755 59.6766 101.908 59.6766C121.022 59.6766 126.371 52.4731 125.444 43.7007C124.964 39.1615 118.024 29.7063 100.339 30.007C93.2017 30.1283 79.7987 32.2892 72.8568 35.9028Z" fill="#6E71FF"/>
<path d="M72.8568 35.9028L76.2325 38.2088C60.9699 49.4775 63.8225 68.8055 63.8225 68.8055C68.387 73.37 68.387 84.7814 68.387 84.7814L72.9515 80.2169C72.9515 80.2169 71.1899 67.0313 79.7982 61.9588C87.7861 57.2516 94.7755 59.6766 101.908 59.6766C121.022 59.6766 126.371 52.4731 125.444 43.7007C124.964 39.1615 118.024 29.7063 100.339 30.007C93.2017 30.1283 79.7987 32.2892 72.8568 35.9028Z" fill="url(#paint9_linear)"/>
<path d="M71.5253 57.6795C71.5253 57.6795 69.1003 48.1224 76.2325 38.209C60.9699 49.4777 63.8225 68.8058 63.8225 68.8058C68.387 73.3702 68.387 84.7816 68.387 84.7816L72.9515 80.2172C72.9515 80.2172 71.1899 67.0316 79.7982 61.9591C87.7861 57.2519 94.7755 59.6768 101.908 59.6768C105.016 59.6768 107.725 59.4687 110.138 59.1119C95.418 59.6052 86.7408 48.4552 71.5253 57.6795Z" fill="#6E71FF"/>
<path d="M71.5253 57.6795C71.5253 57.6795 69.1003 48.1224 76.2325 38.209C60.9699 49.4777 63.8225 68.8058 63.8225 68.8058C68.387 73.3702 68.387 84.7816 68.387 84.7816L72.9515 80.2172C72.9515 80.2172 71.1899 67.0316 79.7982 61.9591C87.7861 57.2519 94.7755 59.6768 101.908 59.6768C105.016 59.6768 107.725 59.4687 110.138 59.1119C95.418 59.6052 86.7408 48.4552 71.5253 57.6795Z" fill="url(#paint10_linear)"/>
<path d="M66.2499 83.8082L68.8264 94.1143C69.1317 95.336 70.229 96.1926 71.4884 96.1926C72.8725 96.1926 74.0396 95.1622 74.2112 93.7891L75.5291 83.2479C75.8817 80.4264 73.682 77.9344 70.8384 77.9344H70.8364C67.7606 77.9347 65.504 80.8245 66.2499 83.8082Z" fill="#E5C5D5"/>
<path d="M130.009 157.814H114.033C112.773 157.814 111.751 158.835 111.751 160.096V162.378H132.291V160.096C132.291 158.836 131.269 157.814 130.009 157.814Z" fill="#6E71FF"/>
<path d="M130.009 157.814H114.033C112.773 157.814 111.751 158.835 111.751 160.096V162.378H132.291V160.096C132.291 158.836 131.269 157.814 130.009 157.814Z" fill="url(#paint11_linear)"/>
<path d="M130.928 172.373L125.132 166.577L123.189 168.519C122.601 169.107 122.159 169.825 121.899 170.615L117.058 185.298C116.866 185.881 117.42 186.435 118.003 186.243L132.686 181.402C133.476 181.142 134.194 180.7 134.781 180.112L136.724 178.169L130.928 172.373Z" fill="#E7CBD8"/>
<path d="M130.928 172.373L125.132 166.577L123.189 168.519C122.601 169.107 122.159 169.825 121.899 170.615L117.058 185.298C116.866 185.881 117.42 186.435 118.003 186.243L132.686 181.402C133.476 181.142 134.194 180.7 134.781 180.112L136.724 178.169L130.928 172.373Z" fill="url(#paint12_linear)"/>
<path d="M134.41 180.484C134.936 179.958 135.199 179.268 135.199 178.578C135.199 177.892 134.936 177.202 134.41 176.676L134.354 176.619C133.721 175.986 132.852 175.735 132.03 175.864C131.817 175.898 131.618 175.822 131.481 175.685C131.343 175.547 131.269 175.35 131.302 175.138C131.3 175.137 131.302 175.135 131.302 175.135C131.311 175.082 131.316 175.028 131.322 174.974C131.324 174.946 131.327 174.919 131.328 174.891C131.333 174.832 131.334 174.774 131.334 174.714C131.334 174.027 131.072 173.338 130.546 172.812L130.489 172.755C130.456 172.722 130.422 172.691 130.388 172.66C130.359 172.634 130.329 172.607 130.3 172.584C130.253 172.543 130.205 172.507 130.156 172.473C130.131 172.454 130.103 172.434 130.076 172.416C130.037 172.389 129.995 172.363 129.953 172.339C129.913 172.316 129.874 172.295 129.835 172.274C129.783 172.246 129.731 172.221 129.678 172.198C129.635 172.179 129.59 172.161 129.547 172.144C129.507 172.128 129.465 172.113 129.422 172.1C129.316 172.065 129.207 172.037 129.096 172.016C129.044 172.006 128.993 171.997 128.942 171.991C128.89 171.983 128.838 171.979 128.787 171.976C128.735 171.972 128.684 171.968 128.63 171.968C128.578 171.967 128.527 171.967 128.477 171.97C128.37 171.974 128.269 171.983 128.166 172C127.952 172.034 127.754 171.958 127.616 171.821C127.479 171.683 127.403 171.485 127.437 171.271C127.46 171.132 127.47 170.991 127.47 170.85C127.47 170.163 127.207 169.473 126.682 168.948L126.625 168.891C125.574 167.84 123.869 167.84 122.817 168.891L155.568 136.141L167.16 147.733L134.41 180.484Z" fill="#6E71FF"/>
<path d="M134.41 180.484C134.936 179.958 135.199 179.268 135.199 178.578C135.199 177.892 134.936 177.202 134.41 176.676L134.354 176.619C133.721 175.986 132.852 175.735 132.03 175.864C131.817 175.898 131.618 175.822 131.481 175.685C131.343 175.547 131.269 175.35 131.302 175.138C131.3 175.137 131.302 175.135 131.302 175.135C131.311 175.082 131.316 175.028 131.322 174.974C131.324 174.946 131.327 174.919 131.328 174.891C131.333 174.832 131.334 174.774 131.334 174.714C131.334 174.027 131.072 173.338 130.546 172.812L130.489 172.755C130.456 172.722 130.422 172.691 130.388 172.66C130.359 172.634 130.329 172.607 130.3 172.584C130.253 172.543 130.205 172.507 130.156 172.473C130.131 172.454 130.103 172.434 130.076 172.416C130.037 172.389 129.995 172.363 129.953 172.339C129.913 172.316 129.874 172.295 129.835 172.274C129.783 172.246 129.731 172.221 129.678 172.198C129.635 172.179 129.59 172.161 129.547 172.144C129.507 172.128 129.465 172.113 129.422 172.1C129.316 172.065 129.207 172.037 129.096 172.016C129.044 172.006 128.993 171.997 128.942 171.991C128.89 171.983 128.838 171.979 128.787 171.976C128.735 171.972 128.684 171.968 128.63 171.968C128.578 171.967 128.527 171.967 128.477 171.97C128.37 171.974 128.269 171.983 128.166 172C127.952 172.034 127.754 171.958 127.616 171.821C127.479 171.683 127.403 171.485 127.437 171.271C127.46 171.132 127.47 170.991 127.47 170.85C127.47 170.163 127.207 169.473 126.682 168.948L126.625 168.891C125.574 167.84 123.869 167.84 122.817 168.891L155.568 136.141L167.16 147.733L134.41 180.484Z" fill="url(#paint13_linear)"/>
<path d="M163.296 143.869L131.481 175.685C131.343 175.547 131.269 175.35 131.301 175.139C131.3 175.137 131.301 175.136 131.301 175.136C131.31 175.082 131.316 175.028 131.322 174.974C131.324 174.946 131.327 174.919 131.328 174.891C131.333 174.833 131.334 174.774 131.334 174.715C131.334 174.028 131.071 173.338 130.546 172.812L130.489 172.756C130.456 172.723 130.422 172.691 130.388 172.66C130.359 172.634 130.329 172.608 130.299 172.584C130.253 172.543 130.205 172.508 130.156 172.473C130.129 172.452 130.102 172.434 130.075 172.417C130.037 172.39 129.995 172.363 129.953 172.339C129.914 172.318 129.875 172.294 129.835 172.275C129.783 172.246 129.731 172.221 129.678 172.199C129.635 172.179 129.59 172.161 129.547 172.145C129.507 172.128 129.465 172.113 129.422 172.1C129.315 172.066 129.206 172.037 129.096 172.017C129.047 172.006 128.995 171.999 128.942 171.991C128.891 171.985 128.841 171.979 128.787 171.976C128.736 171.97 128.684 171.969 128.63 171.969C128.578 171.967 128.526 171.969 128.476 171.97C128.37 171.975 128.269 171.984 128.166 172C127.952 172.035 127.754 171.958 127.616 171.821L159.432 140.005L163.296 143.869Z" fill="#6E71FF"/>
<path d="M163.296 143.869L131.481 175.685C131.343 175.547 131.269 175.35 131.301 175.138C131.3 175.137 131.301 175.135 131.301 175.135C131.31 175.082 131.316 175.028 131.322 174.974C131.324 174.946 131.327 174.919 131.328 174.891C131.333 174.833 131.334 174.774 131.334 174.715C131.334 174.028 131.071 173.338 130.546 172.812L130.489 172.756C130.456 172.723 130.422 172.691 130.388 172.66C130.359 172.634 130.329 172.608 130.299 172.584C130.253 172.543 130.205 172.508 130.156 172.473C130.129 172.452 130.102 172.434 130.075 172.416C130.037 172.39 129.995 172.363 129.953 172.339C129.914 172.318 129.875 172.294 129.835 172.275C129.783 172.246 129.731 172.221 129.678 172.199C129.635 172.179 129.59 172.161 129.547 172.145C129.507 172.128 129.465 172.113 129.422 172.1C129.315 172.066 129.206 172.037 129.096 172.017C129.047 172.006 128.995 171.999 128.942 171.991C128.891 171.985 128.841 171.979 128.787 171.976C128.736 171.97 128.684 171.969 128.63 171.969C128.578 171.967 128.526 171.969 128.476 171.97C128.37 171.975 128.269 171.984 128.166 172C127.952 172.035 127.754 171.958 127.616 171.821L159.432 140.005L163.296 143.869Z" fill="url(#paint14_linear)"/>
<path d="M155.568 136.141L122.817 168.891C123.869 167.84 125.574 167.84 126.625 168.891L126.682 168.948C127.207 169.474 127.47 170.163 127.47 170.85C127.47 170.991 127.46 171.132 127.437 171.271C127.403 171.485 127.479 171.683 127.616 171.821L159.432 140.005L155.568 136.141Z" fill="#6E71FF"/>
<path d="M155.568 136.141L122.817 168.891C123.869 167.84 125.574 167.84 126.625 168.891L126.682 168.948C127.207 169.474 127.47 170.163 127.47 170.85C127.47 170.991 127.46 171.132 127.437 171.271C127.403 171.485 127.479 171.683 127.616 171.821L159.432 140.005L155.568 136.141Z" fill="url(#paint15_linear)"/>
<path d="M171.124 143.77L159.531 132.177L163.163 128.546C164.822 126.886 167.513 126.886 169.173 128.546L174.755 134.128C176.415 135.788 176.415 138.479 174.755 140.139L171.124 143.77Z" fill="#6E71FF"/>
<path d="M171.124 143.77L159.531 132.177L163.163 128.546C164.822 126.886 167.513 126.886 169.173 128.546L174.755 134.128C176.415 135.788 176.415 138.479 174.755 140.139L171.124 143.77Z" fill="url(#paint16_linear)"/>
<path d="M171.642 143.252L160.049 131.659L155.566 136.142L167.159 147.734L171.642 143.252Z" fill="#6E71FF"/>
<path d="M171.642 143.252L160.049 131.659L155.566 136.142L167.159 147.734L171.642 143.252Z" fill="url(#paint17_linear)"/>
<path d="M171.642 143.252L160.049 131.659L155.566 136.142L167.159 147.734L171.642 143.252Z" fill="url(#paint18_linear)"/>
<path d="M165.244 149.649L153.651 138.057L155.567 136.142L167.16 147.734L165.244 149.649Z" fill="#6E71FF"/>
<path d="M165.244 149.649L153.651 138.057L155.567 136.142L167.16 147.734L165.244 149.649Z" fill="url(#paint19_linear)" fill-opacity="0.5"/>
<path d="M118.284 181.579L117.058 185.298C116.866 185.881 117.42 186.435 118.003 186.243L121.722 185.017L118.284 181.579Z" fill="#6E71FF"/>
<path d="M118.284 181.579L117.058 185.298C116.866 185.881 117.42 186.435 118.003 186.243L121.722 185.017L118.284 181.579Z" fill="url(#paint20_linear)"/>
</g>
<defs>
<linearGradient id="paint0_linear" x1="100.339" y1="149.838" x2="106.544" y2="230.894" gradientUnits="userSpaceOnUse">
<stop stop-color="white"/>
<stop offset="1" stop-color="white" stop-opacity="0"/>
</linearGradient>
<linearGradient id="paint1_linear" x1="100.339" y1="55.1121" x2="97.2363" y2="135.747" gradientUnits="userSpaceOnUse">
<stop stop-color="#FFE3CA"/>
<stop offset="1" stop-color="#FFE3FF" stop-opacity="0"/>
</linearGradient>
<linearGradient id="paint2_linear" x1="95.1166" y1="55.1118" x2="95.1166" y2="119.015" gradientUnits="userSpaceOnUse">
<stop stop-color="#FFDCBB"/>
<stop offset="1" stop-color="#FFE3CA" stop-opacity="0"/>
</linearGradient>
<linearGradient id="paint3_linear" x1="51.2712" y1="134.282" x2="55.8682" y2="226.757" gradientUnits="userSpaceOnUse">
<stop offset="0.206142" stop-color="white"/>
<stop offset="1" stop-color="white" stop-opacity="0"/>
</linearGradient>
<linearGradient id="paint4_linear" x1="149.463" y1="148.416" x2="149.463" y2="227.404" gradientUnits="userSpaceOnUse">
<stop stop-color="white"/>
<stop offset="1" stop-color="white" stop-opacity="0"/>
</linearGradient>
<linearGradient id="paint5_linear" x1="100.34" y1="137.273" x2="100.34" y2="144.12" gradientUnits="userSpaceOnUse">
<stop stop-color="#333333"/>
<stop offset="1" stop-opacity="0"/>
</linearGradient>
<linearGradient id="paint6_linear" x1="86.6457" y1="117.913" x2="86.6352" y2="225.077" gradientUnits="userSpaceOnUse">
<stop stop-color="white"/>
<stop offset="1" stop-color="white" stop-opacity="0"/>
</linearGradient>
<linearGradient id="paint7_linear" x1="114.032" y1="117.913" x2="114.042" y2="239.168" gradientUnits="userSpaceOnUse">
<stop offset="0.0216172" stop-color="white"/>
<stop offset="1" stop-color="white" stop-opacity="0"/>
</linearGradient>
<linearGradient id="paint8_linear" x1="127.228" y1="41.2467" x2="125.419" y2="108.212" gradientUnits="userSpaceOnUse">
<stop/>
<stop offset="1" stop-color="#030303" stop-opacity="0"/>
</linearGradient>
<linearGradient id="paint9_linear" x1="94.5774" y1="30" x2="94.5774" y2="84.7814" gradientUnits="userSpaceOnUse">
<stop/>
<stop offset="1" stop-opacity="0"/>
</linearGradient>
<linearGradient id="paint10_linear" x1="86.8746" y1="38.209" x2="86.8746" y2="84.7816" gradientUnits="userSpaceOnUse">
<stop offset="0.116629" stop-color="#020202"/>
<stop offset="1" stop-color="#1C1C1C" stop-opacity="0"/>
</linearGradient>
<linearGradient id="paint11_linear" x1="122.021" y1="157.814" x2="122.057" y2="179.313" gradientUnits="userSpaceOnUse">
<stop stop-color="white"/>
<stop offset="1" stop-color="white" stop-opacity="0"/>
</linearGradient>
<linearGradient id="paint12_linear" x1="126.872" y1="166.577" x2="126.872" y2="186.282" gradientUnits="userSpaceOnUse">
<stop stop-color="#FADAAB"/>
<stop offset="1" stop-color="white" stop-opacity="0"/>
</linearGradient>
<linearGradient id="paint13_linear" x1="144.989" y1="136.141" x2="144.989" y2="180.484" gradientUnits="userSpaceOnUse">
<stop stop-color="#141414"/>
<stop offset="1" stop-opacity="0"/>
</linearGradient>
<linearGradient id="paint14_linear" x1="163.005" y1="138.297" x2="122.018" y2="177.784" gradientUnits="userSpaceOnUse">
<stop stop-color="#101010"/>
<stop offset="1" stop-opacity="0"/>
</linearGradient>
<linearGradient id="paint15_linear" x1="162.005" y1="139.297" x2="111.022" y2="178.284" gradientUnits="userSpaceOnUse">
<stop offset="0.0522431" stop-color="#0F0F0F"/>
<stop offset="1" stop-color="#131313" stop-opacity="0"/>
</linearGradient>
<linearGradient id="paint16_linear" x1="177.498" y1="130.872" x2="167.766" y2="143.77" gradientUnits="userSpaceOnUse">
<stop/>
<stop offset="1" stop-opacity="0"/>
</linearGradient>
<linearGradient id="paint17_linear" x1="174.387" y1="137.899" x2="169.894" y2="142.104" gradientUnits="userSpaceOnUse">
<stop stop-color="white"/>
<stop offset="1" stop-color="white" stop-opacity="0"/>
</linearGradient>
<linearGradient id="paint18_linear" x1="163.604" y1="131.659" x2="163.604" y2="147.734" gradientUnits="userSpaceOnUse">
<stop stop-color="white"/>
<stop offset="1" stop-color="white" stop-opacity="0"/>
</linearGradient>
<linearGradient id="paint19_linear" x1="160.405" y1="136.142" x2="160.405" y2="149.649" gradientUnits="userSpaceOnUse">
<stop stop-color="white"/>
<stop offset="1" stop-color="white" stop-opacity="0"/>
</linearGradient>
<linearGradient id="paint20_linear" x1="119.371" y1="181.579" x2="119.323" y2="189.91" gradientUnits="userSpaceOnUse">
<stop stop-color="#010101"/>
<stop offset="1" stop-opacity="0"/>
</linearGradient>
<clipPath id="clip0">
<rect width="208" height="208" fill="white"/>
</clipPath>
</defs>
</svg>
