<svg width="208" height="208" viewBox="0 0 208 208" fill="none" xmlns="http://www.w3.org/2000/svg">
<path opacity="0.18" d="M197.36 192.951C187.349 204.769 171.794 207.5 157.421 207.88C143.652 208.408 129.395 207.258 115.996 203.146C103.921 199.463 91.1451 201.025 78.542 201.199C60.1624 201.46 40.5048 201.298 25.2189 188.82C10.2727 176.653 2.28999 154.489 0.570707 132.58C0.464202 131.212 0.367841 129.85 0.296838 128.481C-1.3768 99.0643 3.92306 70.425 18.8387 47.266C32.38 26.2407 50.79 9.3582 72.2989 3.20611C83.8825 -0.109422 95.9783 -0.302258 107.917 0.220265C120.839 0.773891 133.98 2.42233 146.289 7.1748C163.314 13.7499 180.933 28.4925 185.746 49.2566C191.112 72.4591 194.83 95.7549 200.997 118.926C201.55 121.016 202.107 123.107 202.65 125.209C205.343 135.616 207.696 146.166 207.975 156.983C208.31 169.978 205.272 183.62 197.36 192.951Z" fill="#6E71FF"/>
<path d="M151.634 133.689C151.636 132.693 151.361 131.717 150.838 130.869L145.765 122.702C145.133 121.447 144.805 120.059 144.81 118.653V93.4947C144.81 77.162 131.571 63.9231 115.238 63.9231H101.589C85.2567 63.9231 72.0178 77.162 72.0178 93.4947V118.653C72.0224 120.059 71.6948 121.447 71.0623 122.702L65.9896 130.869C65.4663 131.717 65.1911 132.693 65.1934 133.689C65.2047 136.613 67.5706 138.978 70.4934 138.99H146.333C149.257 138.978 151.623 136.612 151.634 133.689Z" fill="#6E71FF"/>
<path d="M115.238 63.9231L126.612 48H90.2158L101.589 63.9231V68.4726H115.238V63.9231Z" fill="#6E71FF"/>
<path d="M150.838 130.869L145.765 122.703C145.133 121.447 144.805 120.059 144.81 118.654V93.4949C144.826 86.9071 142.64 80.5016 138.6 75.2969C132.526 108.758 111.144 128.048 91.0576 138.99H146.334C149.273 139.001 151.666 136.628 151.677 133.687C151.682 132.691 151.407 131.715 150.883 130.869H150.838Z" fill="#6E71FF"/>
<path d="M150.838 130.869L145.765 122.703C145.133 121.447 144.805 120.059 144.81 118.654V93.4949C144.826 86.9071 142.64 80.5016 138.6 75.2969C132.526 108.758 111.144 128.048 91.0576 138.99H146.334C149.273 139.001 151.666 136.628 151.677 133.687C151.682 132.691 151.407 131.715 150.883 130.869H150.838Z" fill="url(#paint0_linear)" fill-opacity="0.5"/>
<path d="M117.978 95.5772V94.3728C117.968 90.8857 115.142 88.0594 111.655 88.0498H110.45V84.2861H106.687V88.0498H105.482C101.99 88.0385 99.15 90.8593 99.1387 94.3519C99.1293 97.0034 100.776 99.3783 103.262 100.3L106.687 101.58V108.75H105.482C104.069 108.75 102.923 107.604 102.923 106.19V104.986H99.1594V106.19C99.1688 109.677 101.995 112.504 105.482 112.513H111.655C115.148 112.525 117.987 109.704 117.999 106.211C118.008 103.56 116.361 101.185 113.875 100.263L110.451 98.9832V91.8135H111.655C113.068 91.8135 114.214 92.9596 114.214 94.3728V95.5772H117.978ZM112.558 103.782C113.552 104.168 114.209 105.124 114.214 106.191C114.214 107.604 113.068 108.75 111.655 108.75H110.45V102.992L112.558 103.782ZM106.687 97.5719L104.579 96.7815C103.586 96.3957 102.929 95.4396 102.923 94.3726C102.923 92.9594 104.069 91.8133 105.483 91.8133H106.687V97.5719Z" fill="url(#paint1_linear)"/>
<path d="M72.2529 140.234C72.2529 140.234 78.1658 126.872 86.2637 125.14C93.8315 123.522 118.32 123.859 118.32 123.859C121.407 123.859 124.369 125.099 126.552 127.306C128.736 129.513 129.963 132.507 129.963 135.628H138.062L156.627 125.14C159.888 123.297 163.562 122.328 167.299 122.328H169.766C170.211 122.328 170.646 122.462 171.016 122.714C171.385 122.965 171.671 123.321 171.839 123.738C172.007 124.155 172.048 124.612 171.957 125.053C171.866 125.493 171.647 125.896 171.329 126.21L146.473 150.706C141.025 156.076 133.947 159.433 126.38 160.237L72.2529 162.749V140.234Z" fill="#E5C6D5"/>
<path d="M72.2529 140.234C72.2529 140.234 78.1658 126.872 86.2637 125.14C93.8315 123.522 118.32 123.859 118.32 123.859C121.407 123.859 124.369 125.099 126.552 127.306C128.736 129.513 129.963 132.507 129.963 135.628H138.062L156.627 125.14C159.888 123.297 163.562 122.328 167.299 122.328H169.766C170.211 122.328 170.646 122.462 171.016 122.714C171.385 122.965 171.671 123.321 171.839 123.738C172.007 124.155 172.048 124.612 171.957 125.053C171.866 125.493 171.647 125.896 171.329 126.21L146.473 150.706C141.025 156.076 133.947 159.433 126.38 160.237L72.2529 162.749V140.234Z" fill="url(#paint2_linear)"/>
<path d="M99.597 145.068C98.9639 145.066 98.3532 144.83 97.8801 144.405C97.4069 143.98 97.104 143.394 97.0283 142.759C96.9527 142.124 97.1096 141.482 97.4695 140.955C97.8293 140.429 98.3673 140.054 98.982 139.9L126.817 132.992C127.485 132.826 128.191 132.936 128.779 133.296C129.368 133.656 129.791 134.239 129.954 134.914C130.118 135.59 130.01 136.303 129.653 136.898C129.297 137.493 128.721 137.92 128.053 138.086L100.22 144.991C100.016 145.042 99.8068 145.068 99.597 145.068Z" fill="#E5C6D5"/>
<path d="M99.597 145.068C98.9639 145.066 98.3532 144.83 97.8801 144.405C97.4069 143.98 97.104 143.394 97.0283 142.759C96.9527 142.124 97.1096 141.482 97.4695 140.955C97.8293 140.429 98.3673 140.054 98.982 139.9L126.817 132.992C127.485 132.826 128.191 132.936 128.779 133.296C129.368 133.656 129.791 134.239 129.954 134.914C130.118 135.59 130.01 136.303 129.653 136.898C129.297 137.493 128.721 137.92 128.053 138.086L100.22 144.991C100.016 145.042 99.8068 145.068 99.597 145.068Z" fill="url(#paint3_linear)" fill-opacity="0.7"/>
<path d="M29.2002 135.538H59.2137V170.372H29.2002V135.538Z" fill="#6E71FF"/>
<path d="M29.2002 135.538H59.2137V170.372H29.2002V135.538Z" fill="url(#paint4_linear)" fill-opacity="0.4"/>
<path d="M68.9596 133.255L58.9371 133.308C58.5942 133.31 58.2684 133.454 58.0299 133.709C57.7914 133.964 57.6604 134.309 57.6655 134.669L58.1891 171.19C58.1999 171.938 58.7867 172.541 59.4995 172.538L69.522 172.485C69.7183 172.484 69.9117 172.47 70.1015 172.444C72.4275 172.131 74.2079 170.032 74.1717 167.508L73.7512 138.182C73.7122 135.451 71.5626 133.241 68.9596 133.255Z" fill="#6E71FF"/>
<path d="M68.9596 133.255L58.9371 133.308C58.5942 133.31 58.2684 133.454 58.0299 133.709C57.7914 133.964 57.6604 134.309 57.6655 134.669L58.1891 171.19C58.1999 171.938 58.7867 172.541 59.4995 172.538L69.522 172.485C69.7183 172.484 69.9117 172.47 70.1015 172.444C72.4275 172.131 74.2079 170.032 74.1717 167.508L73.7512 138.182C73.7122 135.451 71.5626 133.241 68.9596 133.255Z" fill="url(#paint5_linear)"/>
<path d="M58.1882 171.19L58.1308 167.181C58.3832 167.476 58.7485 167.662 59.154 167.66L69.6602 167.605C69.8659 167.603 70.069 167.589 70.2678 167.562C72.0072 167.328 73.4546 166.141 74.1282 164.52L74.171 167.508C74.2072 170.032 72.427 172.131 70.1008 172.444C69.9112 172.47 69.7174 172.483 69.5212 172.485L59.4988 172.537C58.7856 172.541 58.199 171.938 58.1882 171.19Z" fill="#6E71FF"/>
<path d="M58.1882 171.19L58.1308 167.181C58.3832 167.476 58.7485 167.662 59.154 167.66L69.6602 167.605C69.8659 167.603 70.069 167.589 70.2678 167.562C72.0072 167.328 73.4546 166.141 74.1282 164.52L74.171 167.508C74.2072 170.032 72.427 172.131 70.1008 172.444C69.9112 172.47 69.7174 172.483 69.5212 172.485L59.4988 172.537C58.7856 172.541 58.199 171.938 58.1882 171.19Z" fill="url(#paint6_linear)"/>
<path d="M65.5659 164.701C66.9313 164.518 67.885 163.206 67.696 161.772C67.5071 160.338 66.247 159.325 64.8815 159.508C63.5161 159.692 62.5624 161.004 62.7513 162.438C62.9403 163.872 64.2004 164.885 65.5659 164.701Z" fill="white"/>
<defs>
<linearGradient id="paint0_linear" x1="121.317" y1="53.3966" x2="121.317" y2="153.145" gradientUnits="userSpaceOnUse">
<stop/>
<stop offset="1" stop-opacity="0"/>
</linearGradient>
<linearGradient id="paint1_linear" x1="108.569" y1="84.2861" x2="108.569" y2="112.513" gradientUnits="userSpaceOnUse">
<stop offset="0.9999" stop-color="white"/>
<stop offset="1" stop-color="white" stop-opacity="0"/>
</linearGradient>
<linearGradient id="paint2_linear" x1="122.206" y1="117.934" x2="116.339" y2="165.675" gradientUnits="userSpaceOnUse">
<stop stop-color="#F9D7A9"/>
<stop offset="1" stop-color="white" stop-opacity="0"/>
</linearGradient>
<linearGradient id="paint3_linear" x1="107.385" y1="117.559" x2="102.654" y2="151.068" gradientUnits="userSpaceOnUse">
<stop stop-color="#F6D1B9"/>
<stop offset="1" stop-color="white" stop-opacity="0"/>
</linearGradient>
<linearGradient id="paint4_linear" x1="44.2069" y1="135.538" x2="44.2069" y2="170.372" gradientUnits="userSpaceOnUse">
<stop stop-color="#2B2B2B"/>
<stop offset="1" stop-color="#202020" stop-opacity="0"/>
</linearGradient>
<linearGradient id="paint5_linear" x1="63.091" y1="132.738" x2="70.608" y2="189.269" gradientUnits="userSpaceOnUse">
<stop stop-color="#0E0E0E"/>
<stop offset="1" stop-color="white" stop-opacity="0"/>
<stop offset="1" stop-color="#434343" stop-opacity="0"/>
</linearGradient>
<linearGradient id="paint6_linear" x1="65.8605" y1="165.633" x2="66.8368" y2="172.884" gradientUnits="userSpaceOnUse">
<stop stop-color="#494949"/>
<stop offset="1" stop-color="#2E2E2E" stop-opacity="0"/>
</linearGradient>
</defs>
</svg>
