<svg width="208" height="208" viewBox="0 0 208 208" fill="none" xmlns="http://www.w3.org/2000/svg">
<path opacity="0.18" d="M202.006 131.961C195.353 155.025 185.381 179.635 164.018 194.022C161.497 195.72 158.835 197.258 156.051 198.623C144.479 204.286 131.076 206.667 117.777 207.574C91.83 209.365 64.7229 205.617 42.4935 194.255C40.0383 193.002 37.6484 191.655 35.3236 190.215C22.4296 182.212 12.3158 171.375 6.05716 158.856C0.962782 148.556 -1.18958 137.373 0.648315 126.244C5.10677 99.2116 30.5437 78.5702 43.6605 53.68C48.4824 44.526 51.6341 34.7812 56.5537 25.6689C61.4734 16.5566 68.5454 7.82624 78.9159 3.06423C93.5631 -3.66108 109.964 2.17508 124.437 6.38212C141.32 11.2575 157.931 17.8217 170.741 28.6884C179.091 35.7598 185.472 44.341 191.251 53.0833C194.833 58.3903 198.044 63.8741 200.867 69.5057C203.763 75.264 205.84 81.2985 207.051 87.4796C209.77 102.303 206.199 117.4 202.006 131.961Z" fill="#6E71FF"/>
<path d="M157.724 137.437H61.7964C59.1584 137.437 57 135.275 57 132.634V79.8029C57 77.1613 59.1584 75 61.7964 75H157.724C160.362 75 162.521 77.1613 162.521 79.8029V132.634C162.521 135.275 160.362 137.437 157.724 137.437Z" fill="#6E71FF"/>
<path d="M157.724 137.437H61.7964C59.1584 137.437 57 135.275 57 132.634V79.8029C57 77.1613 59.1584 75 61.7964 75H157.724C160.362 75 162.521 77.1613 162.521 79.8029V132.634C162.521 135.275 160.362 137.437 157.724 137.437Z" fill="url(#paint0_linear)" fill-opacity="0.8"/>
<path d="M148.129 132.634H71.3866C71.3866 127.351 67.07 123.028 61.7939 123.028V89.4088C67.07 89.4088 71.3866 85.0863 71.3866 79.8032H148.129C148.129 85.0863 152.446 89.4088 157.722 89.4088V123.028C152.446 123.028 148.129 127.351 148.129 132.634Z" fill="#6E71FF"/>
<path d="M145.735 118.225C140.219 118.225 135.183 120.867 132.305 125.189C129.907 123.989 127.269 123.028 124.152 123.028C117.437 123.028 111.681 126.87 109.043 132.634H148.134C148.134 127.351 152.211 123.268 157.487 123.028C154.369 120.146 150.292 118.225 145.735 118.225Z" fill="url(#paint1_linear)"/>
<path d="M109.762 127.831C120.358 127.831 128.947 118.155 128.947 106.218C128.947 94.282 120.358 84.6057 109.762 84.6057C99.1658 84.6057 90.5762 94.282 90.5762 106.218C90.5762 118.155 99.1658 127.831 109.762 127.831Z" fill="url(#paint2_linear)"/>
<path d="M80.9849 111.021C83.6339 111.021 85.7814 108.871 85.7814 106.218C85.7814 103.566 83.6339 101.416 80.9849 101.416C78.3359 101.416 76.1885 103.566 76.1885 106.218C76.1885 108.871 78.3359 111.021 80.9849 111.021Z" fill="url(#paint3_linear)"/>
<path d="M138.542 111.021C141.191 111.021 143.338 108.871 143.338 106.218C143.338 103.566 141.191 101.416 138.542 101.416C135.893 101.416 133.745 103.566 133.745 106.218C133.745 108.871 135.893 111.021 138.542 111.021Z" fill="url(#paint4_linear)"/>
<path d="M112.158 103.817H107.361C105.922 103.817 104.963 102.856 104.963 101.416C104.963 99.9747 105.923 99.0143 107.361 99.0143H114.556C115.995 99.0143 116.954 98.0536 116.954 96.613C116.954 95.1721 115.995 94.2116 114.556 94.2116H112.158C112.158 92.7708 111.198 91.8103 109.76 91.8103C108.321 91.8103 107.362 92.771 107.362 94.2116C103.285 94.2116 100.167 97.3334 100.167 101.416C100.167 105.498 103.285 108.62 107.362 108.62H112.158C113.597 108.62 114.556 109.581 114.556 111.021C114.556 112.462 113.597 113.423 112.158 113.423H104.963C103.524 113.423 102.565 114.383 102.565 115.824C102.565 117.265 103.525 118.225 104.963 118.225H107.362C107.362 119.666 108.321 120.627 109.76 120.627C111.199 120.627 112.158 119.666 112.158 118.225C116.235 118.225 119.352 115.104 119.352 111.021C119.352 106.939 116.235 103.817 112.158 103.817Z" fill="#6E71FF"/>
<path d="M146.212 150.789C155.484 150.789 163 143.263 163 133.979C163 124.695 155.484 117.169 146.212 117.169C136.941 117.169 129.425 124.695 129.425 133.979C129.425 143.263 136.941 150.789 146.212 150.789Z" fill="#6E71FF"/>
<path d="M146.212 117.169C136.859 117.169 129.425 124.613 129.425 133.979C129.425 143.344 136.859 150.789 146.212 150.789C155.565 150.789 163 143.344 163 133.979C163 124.613 155.565 117.169 146.212 117.169ZM146.212 145.986C139.497 145.986 134.221 140.703 134.221 133.979C134.221 127.255 139.497 121.972 146.212 121.972C152.927 121.972 158.203 127.255 158.203 133.979C158.203 140.703 152.927 145.986 146.212 145.986Z" fill="#6E71FF"/>
<path d="M146.212 117.169C136.859 117.169 129.425 124.613 129.425 133.979C129.425 143.344 136.859 150.789 146.212 150.789C155.565 150.789 163 143.344 163 133.979C163 124.613 155.565 117.169 146.212 117.169ZM146.212 145.986C139.497 145.986 134.221 140.703 134.221 133.979C134.221 127.255 139.497 121.972 146.212 121.972C152.927 121.972 158.203 127.255 158.203 133.979C158.203 140.703 152.927 145.986 146.212 145.986Z" fill="url(#paint5_linear)"/>
<path d="M135.901 135.659C135.901 128.935 141.177 123.652 147.892 123.652C150.77 123.652 153.408 124.613 155.566 126.534C153.168 123.652 150.051 121.971 146.214 121.971C139.499 121.971 134.223 127.255 134.223 133.979C134.223 137.821 135.901 140.942 138.539 143.104C136.861 141.183 135.901 138.541 135.901 135.659Z" fill="url(#paint6_linear)" fill-opacity="0.3"/>
<path d="M146.212 141.183C144.773 141.183 143.813 140.222 143.813 138.782V129.176C143.813 127.735 144.773 126.775 146.212 126.775C147.65 126.775 148.61 127.736 148.61 129.176V138.782C148.61 140.222 147.651 141.183 146.212 141.183Z" fill="url(#paint7_linear)" fill-opacity="0.7"/>
<path d="M155.085 148.147C154.606 146.466 154.126 145.025 153.167 143.584C151.248 145.025 148.85 145.986 146.212 145.986C139.497 145.986 134.221 140.703 134.221 133.979C134.221 130.377 135.66 127.255 138.058 125.093C136.859 123.893 135.66 122.932 134.221 122.212C131.343 125.333 129.425 129.416 129.425 133.979C129.425 143.344 136.859 150.788 146.212 150.788C149.57 150.789 152.447 149.828 155.085 148.147Z" fill="#6E71FF"/>
<path d="M155.085 148.147C154.606 146.466 154.126 145.025 153.167 143.584C151.248 145.025 148.85 145.986 146.212 145.986C139.497 145.986 134.221 140.703 134.221 133.979C134.221 130.377 135.66 127.255 138.058 125.093C136.859 123.893 135.66 122.932 134.221 122.212C131.343 125.333 129.425 129.416 129.425 133.979C129.425 143.344 136.859 150.788 146.212 150.788C149.57 150.789 152.447 149.828 155.085 148.147Z" fill="url(#paint8_linear)"/>
<path d="M124.628 155.591C133.9 155.591 141.416 148.065 141.416 138.781C141.416 129.497 133.9 121.971 124.628 121.971C115.357 121.971 107.841 129.497 107.841 138.781C107.841 148.065 115.357 155.591 124.628 155.591Z" fill="#6E71FF"/>
<path d="M124.628 121.971C115.275 121.971 107.841 129.416 107.841 138.781C107.841 148.147 115.275 155.591 124.628 155.591C133.981 155.591 141.416 148.147 141.416 138.781C141.416 129.416 133.981 121.971 124.628 121.971ZM124.628 150.788C117.913 150.788 112.637 145.505 112.637 138.781C112.637 132.057 117.913 126.774 124.628 126.774C131.343 126.774 136.619 132.057 136.619 138.781C136.619 145.505 131.343 150.788 124.628 150.788Z" fill="#6E71FF"/>
<path d="M124.628 121.971C115.275 121.971 107.841 129.416 107.841 138.781C107.841 148.147 115.275 155.591 124.628 155.591C133.981 155.591 141.416 148.147 141.416 138.781C141.416 129.416 133.981 121.971 124.628 121.971ZM124.628 150.788C117.913 150.788 112.637 145.505 112.637 138.781C112.637 132.057 117.913 126.774 124.628 126.774C131.343 126.774 136.619 132.057 136.619 138.781C136.619 145.505 131.343 150.788 124.628 150.788Z" fill="url(#paint9_linear)"/>
<path d="M114.315 140.463C114.315 133.739 119.591 128.456 126.306 128.456C129.183 128.456 131.822 129.416 133.98 131.337C131.582 128.456 128.464 126.775 124.627 126.775C117.912 126.775 112.636 132.058 112.636 138.782C112.636 142.624 114.314 145.746 116.952 147.907C115.274 145.986 114.315 143.344 114.315 140.463Z" fill="url(#paint10_linear)" fill-opacity="0.6"/>
<path d="M124.63 145.986C123.191 145.986 122.231 145.025 122.231 143.585V133.979C122.231 132.538 123.191 131.578 124.63 131.578C126.069 131.578 127.028 132.538 127.028 133.979V143.585C127.028 145.025 126.069 145.986 124.63 145.986Z" fill="url(#paint11_linear)" fill-opacity="0.8"/>
<path d="M136.619 170C145.891 170 153.407 162.474 153.407 153.19C153.407 143.906 145.891 136.38 136.619 136.38C127.348 136.38 119.832 143.906 119.832 153.19C119.832 162.474 127.348 170 136.619 170Z" fill="#6E71FF"/>
<path d="M136.619 136.38C127.266 136.38 119.832 143.825 119.832 153.19C119.832 162.556 127.266 170 136.619 170C145.972 170 153.407 162.556 153.407 153.19C153.407 143.825 145.972 136.38 136.619 136.38ZM136.619 165.197C129.904 165.197 124.628 159.914 124.628 153.19C124.628 146.466 129.904 141.183 136.619 141.183C143.334 141.183 148.61 146.466 148.61 153.19C148.61 159.914 143.334 165.197 136.619 165.197Z" fill="#6E71FF"/>
<path d="M136.619 136.38C127.266 136.38 119.832 143.825 119.832 153.19C119.832 162.556 127.266 170 136.619 170C145.972 170 153.407 162.556 153.407 153.19C153.407 143.825 145.972 136.38 136.619 136.38ZM136.619 165.197C129.904 165.197 124.628 159.914 124.628 153.19C124.628 146.466 129.904 141.183 136.619 141.183C143.334 141.183 148.61 146.466 148.61 153.19C148.61 159.914 143.334 165.197 136.619 165.197Z" fill="url(#paint12_linear)"/>
<path d="M126.308 154.871C126.308 148.147 131.584 142.864 138.299 142.864C141.177 142.864 143.815 143.824 145.973 145.746C143.575 142.864 140.457 141.183 136.62 141.183C129.905 141.183 124.629 146.466 124.629 153.19C124.629 157.032 126.308 160.154 128.946 162.315C127.267 160.394 126.308 157.753 126.308 154.871Z" fill="url(#paint13_linear)" fill-opacity="0.5"/>
<path d="M136.427 160.682C134.988 160.682 134.029 159.721 134.029 158.281V148.675C134.029 147.234 134.989 146.274 136.427 146.274C137.866 146.274 138.826 147.235 138.826 148.675V158.281C138.826 159.721 137.866 160.682 136.427 160.682Z" fill="url(#paint14_linear)" fill-opacity="0.7"/>
<defs>
<linearGradient id="paint0_linear" x1="109.76" y1="36.3856" x2="107.644" y2="170.048" gradientUnits="userSpaceOnUse">
<stop/>
<stop offset="1" stop-color="#0D0D0D" stop-opacity="0"/>
</linearGradient>
<linearGradient id="paint1_linear" x1="133.265" y1="118.225" x2="133.265" y2="132.634" gradientUnits="userSpaceOnUse">
<stop stop-color="#151515"/>
<stop offset="1" stop-color="#121212" stop-opacity="0"/>
</linearGradient>
<linearGradient id="paint2_linear" x1="110.818" y1="66.4991" x2="109.76" y2="136.764" gradientUnits="userSpaceOnUse">
<stop stop-color="#151515"/>
<stop offset="1" stop-color="#121212" stop-opacity="0"/>
</linearGradient>
<linearGradient id="paint3_linear" x1="81.2728" y1="93.4429" x2="81.2728" y2="118.802" gradientUnits="userSpaceOnUse">
<stop stop-color="#151515"/>
<stop offset="1" stop-color="#121212" stop-opacity="0"/>
</linearGradient>
<linearGradient id="paint4_linear" x1="138.254" y1="91.858" x2="138.783" y2="123.557" gradientUnits="userSpaceOnUse">
<stop stop-color="#151515"/>
<stop offset="1" stop-color="#121212" stop-opacity="0"/>
</linearGradient>
<linearGradient id="paint5_linear" x1="156.189" y1="91.3296" x2="135.033" y2="167.392" gradientUnits="userSpaceOnUse">
<stop stop-color="white"/>
<stop offset="1" stop-color="white" stop-opacity="0"/>
</linearGradient>
<linearGradient id="paint6_linear" x1="144.895" y1="121.971" x2="144.895" y2="143.104" gradientUnits="userSpaceOnUse">
<stop stop-color="#0D0D0D"/>
<stop offset="0.979167" stop-opacity="0"/>
</linearGradient>
<linearGradient id="paint7_linear" x1="146.692" y1="124.085" x2="146.163" y2="147.331" gradientUnits="userSpaceOnUse">
<stop stop-color="#0A0A0A"/>
<stop offset="1" stop-color="#1B1B1B" stop-opacity="0"/>
</linearGradient>
<linearGradient id="paint8_linear" x1="117.674" y1="84.9902" x2="116.087" y2="185.369" gradientUnits="userSpaceOnUse">
<stop stop-color="white"/>
<stop offset="1" stop-color="white" stop-opacity="0"/>
</linearGradient>
<linearGradient id="paint9_linear" x1="124.628" y1="121.971" x2="124.532" y2="161.066" gradientUnits="userSpaceOnUse">
<stop stop-color="white"/>
<stop offset="1" stop-color="white" stop-opacity="0"/>
</linearGradient>
<linearGradient id="paint10_linear" x1="122.949" y1="117.745" x2="123.309" y2="147.907" gradientUnits="userSpaceOnUse">
<stop stop-color="#212121"/>
<stop offset="1" stop-color="#131313" stop-opacity="0"/>
</linearGradient>
<linearGradient id="paint11_linear" x1="124.534" y1="126.198" x2="124.63" y2="145.986" gradientUnits="userSpaceOnUse">
<stop stop-color="#0A0A0A"/>
<stop offset="1" stop-opacity="0"/>
</linearGradient>
<linearGradient id="paint12_linear" x1="136.14" y1="124.613" x2="136.14" y2="193.293" gradientUnits="userSpaceOnUse">
<stop stop-color="white"/>
<stop offset="1" stop-color="white" stop-opacity="0"/>
</linearGradient>
<linearGradient id="paint13_linear" x1="135.085" y1="133.594" x2="135.085" y2="165.293" gradientUnits="userSpaceOnUse">
<stop/>
<stop offset="1" stop-color="#2D2D2D" stop-opacity="0"/>
</linearGradient>
<linearGradient id="paint14_linear" x1="136.907" y1="143.584" x2="136.378" y2="166.83" gradientUnits="userSpaceOnUse">
<stop stop-color="#0A0A0A"/>
<stop offset="1" stop-color="#1B1B1B" stop-opacity="0"/>
</linearGradient>
</defs>
</svg>
