<svg width="240" height="240" viewBox="0 0 240 240" fill="none" xmlns="http://www.w3.org/2000/svg">
<g clip-path="url(#clip0)">
<path opacity="0.24" d="M214.043 153.986C219.249 166.613 224.554 181.579 220.102 194.67C216.965 203.865 209.819 209.407 202.954 213.969C191.58 221.5 179.811 227.963 167.735 233.31C160.332 236.574 152.725 239.446 144.93 239.93C126.676 241.026 109.7 229.084 92.6068 220.626C74.4561 211.638 55.3544 206.361 35.9742 204.98C30.5705 204.587 25.0826 204.501 19.9059 202.419C7.39608 197.374 -1.36845 179.761 0.176508 162.774C1.29679 150.387 7.11052 139.431 9.52314 127.47C10.0037 125.144 10.3259 122.767 10.486 120.367C11.2182 108.741 7.53886 96.4353 11.112 85.7283C13.0268 80.0374 16.772 75.7153 20.7845 72.4175C33.232 62.1604 48.8537 59.8438 60.8656 48.773C69.1212 41.1532 75.0082 30.0106 81.7591 20.1651C88.5101 10.3197 97.0183 1.2304 107.09 0.119975C121.002 -1.42122 134.972 12.1911 144.945 23.4246C155.639 35.4623 167.354 43.3023 181.138 48.4045C185.55 50.0366 190.031 51.3337 194.515 52.6691H194.541C200.285 54.3922 206.018 56.1727 211.547 58.8052C221.391 63.5149 230.895 71.5081 235.559 83.7851C238.254 90.8641 239.162 98.8572 239.7 106.759C240.432 117.289 240.213 129.212 234.498 136.703C229.958 142.657 222.852 144.514 217.745 149.3C217.547 149.468 217.349 149.655 217.152 149.856C215.958 151.013 214.909 152.407 214.043 153.986Z" fill="#6E71FF"/>
<path opacity="0.5" d="M235 136C230.47 142.008 222.596 144.671 217.5 149.5C186.129 152.248 155.125 140.818 123.666 138.084C100.755 136.123 77.7715 138.272 54.8607 136.234C23.2744 133.409 53.7649 115.111 66.7472 107.007C70.9662 104.37 75.4958 101.694 80.1094 102.573C82.9367 103.138 85.5558 105.027 88.3868 105.645C99.8933 108.19 108.324 90.041 119.86 87.6457C124.656 86.6508 129.653 88.5053 134.406 87.1192C148.787 82.8935 153.313 52.3474 168.045 52.1349C171.172 52.0963 174.229 53.5837 177.356 53.5161C179.705 53.4823 181.999 52.5502 184.297 51.9659C187.698 51.1304 191.162 50.8353 194.616 51.0869H194.641C200.373 52.8255 206.093 54.6221 211.609 57.2782C221.432 62.0304 230.914 70.0955 235.568 82.483C238.257 89.6257 239.163 97.6909 239.7 105.664C240.43 116.246 240.702 128.427 235 136Z" fill="#6E71FF"/>
<path d="M235 136C230.47 142.008 222.596 144.671 217.5 149.5C186.129 152.248 155.125 140.818 123.666 138.084C100.755 136.123 77.7715 138.272 54.8607 136.234C23.2744 133.409 53.7649 115.111 66.7472 107.007C70.9662 104.37 75.4958 101.694 80.1094 102.573C82.9367 103.138 85.5558 105.027 88.3868 105.645C99.8933 108.19 108.324 90.041 119.86 87.6457C124.656 86.6508 129.653 88.5053 134.406 87.1192C148.787 82.8935 153.313 52.3474 168.045 52.1349C171.172 52.0963 174.229 53.5837 177.356 53.5161C179.705 53.4823 181.999 52.5502 184.297 51.9659C187.698 51.1304 191.162 50.8353 194.616 51.0869H194.641C200.373 52.8255 206.093 54.6221 211.609 57.2782C221.432 62.0304 230.914 70.0955 235.568 82.483C238.257 89.6257 239.163 97.6909 239.7 105.664C240.43 116.246 240.702 128.427 235 136Z" fill="url(#paint0_linear)" fill-opacity="0.7"/>
<path opacity="0.6" d="M223.903 186.472C223.689 189.164 223.163 191.796 222.342 194.272C219.173 203.75 211.954 209.464 205.019 214.166C193.53 221.929 181.64 228.592 169.442 234.104C167.223 235.091 165.004 236.077 162.737 236.916C157.393 239.018 151.949 240.582 146.405 240.927C127.965 242.057 110.816 229.747 93.5491 221.029C75.2138 211.764 55.9177 206.324 36.3402 204.9C30.8815 204.495 25.3378 204.407 20.1084 202.26C7.47134 197.06 -1.38237 178.903 0.178305 161.393C1.30998 148.624 7.18287 137.33 9.62005 125C12.1275 125.173 15.1934 125.38 18.7178 125.612L24.0471 125.957C29.0916 126.298 34.8239 126.717 41.0814 127.161C90.4277 130.718 172.293 137.281 201.939 143.877C207.771 145.155 213.034 146.418 217.771 147.642L219.361 148.041C218.154 149.242 215.693 150.79 214.82 152.427C218.856 162.927 224.835 175.05 223.903 186.472Z" fill="#6E71FF"/>
<path d="M222 185.207C221.788 187.811 221.266 190.357 220.451 192.752C217.305 201.92 210.883 207.952 204 212.5C192.596 220.009 182.108 227.668 170 233C167.798 233.954 163.541 233.189 161.291 234C157.282 233.131 153.358 231.337 149.475 229.652C147.001 228.583 144.483 227.548 141.88 227.548C140.702 227.548 139.52 227.748 138.353 227.581C136.903 227.381 135.552 226.603 134.216 225.825C121.346 218.472 108.482 211.092 95.6222 203.685C88.0129 199.323 80.3485 194.904 73.466 188.786C69.0612 184.882 65.0492 180.334 60.7398 176.268C51.3942 167.448 40.8447 161.144 30.3759 154.878C24.6056 151.438 18.8378 147.993 13.0724 144.541L17.8773 140.245C15.2466 138.279 12.6209 136.327 10 134.39C14.6214 133.726 19.2574 133.039 23.8935 132.376C22.0582 130.362 20.2228 128.343 18.3618 126.348C17.6497 125.551 16.9266 124.778 16.2145 124C17.5653 125.46 20.5789 126.181 23.6513 126.682C26.496 127.159 29.3959 127.436 31.0623 127.975C36.1793 129.636 41.2705 131.56 46.2773 133.76C55.733 137.94 64.5499 144.187 73.9506 148.44C89.4518 155.469 106.572 155.689 122.455 162.218C152.824 174.702 184.263 182.259 216.057 184.715C218.032 184.863 220.021 185.011 222 185.207Z" fill="url(#paint1_linear)"/>
<path d="M49.4794 129.195C48.4886 128.522 47.3696 128 46.5731 127.109C44.8985 125.238 45.1588 122.395 44.3157 120.04C43.8283 118.73 42.9985 117.57 41.9106 116.679C40.8227 115.788 39.5156 115.199 38.1223 114.969C36.9567 114.793 35.6745 114.862 34.6565 114.247C33.386 113.479 32.9353 111.915 32.2787 110.594C29.4579 104.92 20.6963 103.306 16.0027 107.609C16.3019 104.92 13.3179 102.68 10.6176 103.038C7.91721 103.395 5.80355 105.688 4.87493 108.228C3.94632 110.767 3.97352 113.525 4.01626 116.222L4.27658 133.597C4.27658 134.365 4.31544 135.168 4.74283 135.802C5.17023 136.436 5.98616 136.793 6.73216 137.089C17.3963 141.302 28.1019 145.418 38.8489 149.436C44.2185 151.446 49.5985 153.431 54.9889 155.39C59.1268 156.892 64.6169 160 68.9996 160C69.0618 155.44 61.5163 150.484 59.2511 146.612C55.9447 140.977 55.2842 133.132 49.4794 129.195Z" fill="url(#paint2_linear)"/>
<path d="M80.7197 160.321C80.7197 160.321 71.1473 172.46 80.5458 189.212C80.5458 189.212 77.1277 193.998 73.8789 189.381C70.6301 184.764 68.5803 159.122 76.6152 153.823C84.6502 148.524 80.7197 160.321 80.7197 160.321Z" fill="#6E71FF"/>
<path d="M80.7197 160.321C80.7197 160.321 71.1473 172.46 80.5458 189.212C80.5458 189.212 77.1277 193.998 73.8789 189.381C70.6301 184.764 68.5803 159.122 76.6152 153.823C84.6502 148.524 80.7197 160.321 80.7197 160.321Z" fill="url(#paint3_linear)"/>
<path d="M90.7001 167.087C90.4979 162.897 89.9713 158.271 86.8025 155.521C84.9641 153.917 82.5381 151.238 80.0792 151.529C77.1313 151.896 74.5078 154.044 73.0268 156.56C71.1462 159.799 70.7701 163.697 70.676 167.449C70.5524 172.777 70.9128 178.105 71.7527 183.368C72.2229 186.429 73.008 189.654 75.2507 191.803C77.4933 193.951 80.7844 194.553 83.9016 194.755C85.4108 194.864 87.014 194.845 88.2929 194.027C90.2393 192.734 90.5684 190.054 90.6954 187.722C91.0292 180.857 91.0292 173.951 90.7001 167.087ZM76.8398 190.491C73.9248 190.491 71.5552 182.658 71.5552 173.006C71.5552 163.354 73.906 155.539 76.8398 155.539C79.7736 155.539 82.1291 163.354 82.1291 173.006C82.1291 182.658 79.7783 190.491 76.8398 190.491Z" fill="#6E71FF"/>
<path d="M90.7001 167.087C90.4979 162.897 89.9713 158.271 86.8025 155.521C84.9641 153.917 82.5381 151.238 80.0792 151.529C77.1313 151.896 74.5078 154.044 73.0268 156.56C71.1462 159.799 70.7701 163.697 70.676 167.449C70.5524 172.777 70.9128 178.105 71.7527 183.368C72.2229 186.429 73.008 189.654 75.2507 191.803C77.4933 193.951 80.7844 194.553 83.9016 194.755C85.4108 194.864 87.014 194.845 88.2929 194.027C90.2393 192.734 90.5684 190.054 90.6954 187.722C91.0292 180.857 91.0292 173.951 90.7001 167.087ZM76.8398 190.491C73.9248 190.491 71.5552 182.658 71.5552 173.006C71.5552 163.354 73.906 155.539 76.8398 155.539C79.7736 155.539 82.1291 163.354 82.1291 173.006C82.1291 182.658 79.7783 190.491 76.8398 190.491Z" fill="url(#paint4_linear)"/>
<path d="M72.1098 140.367C71.3529 141.369 70.6994 142.511 70.6382 143.767C70.5771 145.022 71.3247 146.381 72.5471 146.668C74.014 147.011 75.4903 145.774 76.9713 146.056C77.3117 146.177 77.6746 146.22 78.0338 146.183C78.5651 146.038 78.7814 145.412 78.9036 144.872C79.1716 143.673 79.3738 142.46 79.5572 141.242C79.7171 140.451 79.7171 139.635 79.5572 138.844C78.1561 133.687 73.8964 137.993 72.1098 140.367Z" fill="#6E71FF"/>
<path d="M69.4027 134.65C69.2094 135.227 69.1613 135.842 69.2626 136.441C69.364 137.041 69.6116 137.606 69.9836 138.087C70.3556 138.568 70.8405 138.949 71.3952 139.198C71.95 139.446 72.5575 139.554 73.164 139.512C73.7844 139.425 74.3974 139.292 74.9976 139.112C76.1433 138.835 77.3288 138.76 78.5003 138.891C78.6781 138.934 78.8652 138.916 79.0315 138.84C79.2807 138.68 79.2713 138.318 79.2243 138.026C78.9093 136.014 78.0724 131.815 75.7968 131.157C73.5213 130.499 70.0985 132.572 69.4027 134.65Z" fill="#6E71FF"/>
<path d="M69.4027 134.65C69.2094 135.227 69.1613 135.842 69.2626 136.441C69.364 137.041 69.6116 137.606 69.9836 138.087C70.3556 138.568 70.8405 138.949 71.3952 139.198C71.95 139.446 72.5575 139.554 73.164 139.512C73.7844 139.425 74.3974 139.292 74.9976 139.112C76.1433 138.835 77.3288 138.76 78.5003 138.891C78.6781 138.934 78.8652 138.916 79.0315 138.84C79.2807 138.68 79.2713 138.318 79.2243 138.026C78.9093 136.014 78.0724 131.815 75.7968 131.157C73.5213 130.499 70.0985 132.572 69.4027 134.65Z" fill="url(#paint5_linear)"/>
<path d="M59.8497 160.664C58.3358 160.039 56.5586 159.475 55.1481 160.293C53.4931 161.233 53.2675 163.509 53.2393 165.422C53.2393 166.95 53.2393 168.62 54.1796 169.804C54.8284 170.613 55.811 171.06 56.756 171.478L77.3866 180.651C78.1952 181.008 79.2296 181.333 79.869 180.731C80.1497 180.412 80.3254 180.015 80.3721 179.593C81.4816 173.787 78.1153 171.267 73.8369 168.309C69.4604 165.269 64.7713 162.707 59.8497 160.664Z" fill="#6E71FF"/>
<path d="M59.9767 163.297C58.4628 162.827 56.6856 162.409 55.2751 163.02C53.6201 163.73 53.3945 165.418 53.3663 166.842C53.3427 167.98 53.3663 169.226 54.3066 170.11C55.0755 170.693 55.9531 171.116 56.8877 171.356C63.7614 173.636 70.5223 178.103 77.3866 180.383C78.1953 180.651 79.2296 180.891 79.8691 180.439C80.1329 180.227 80.3115 179.926 80.3721 179.593C81.4817 175.268 77.5183 173.387 73.2398 171.177C68.8674 168.916 64.8945 164.816 59.9767 163.297Z" fill="url(#paint6_linear)" fill-opacity="0.5"/>
<path d="M80.6116 184.356C80.5288 185.035 80.1931 185.657 79.6713 186.1C79.1241 186.533 78.4414 186.76 77.7436 186.739C77.5602 186.739 77.3581 186.739 77.1606 186.702C76.1422 186.531 75.1499 186.231 74.208 185.808C72.0313 184.935 69.7976 184.211 67.5224 183.641C65.0258 183.044 62.4071 182.588 60.2913 181.13C59.2184 180.391 58.3888 179.351 57.9076 178.14C57.6373 177.565 57.4971 176.937 57.4971 176.302C57.4971 175.666 57.6373 175.039 57.9076 174.463C59.5109 171.172 62.8584 172.512 65.3032 173.678C68.7072 175.338 72.1487 176.969 75.5903 178.544C77.1606 179.254 78.7968 180.016 79.8217 181.403C80.4566 182.248 80.7397 183.306 80.6116 184.356Z" fill="#6E71FF"/>
<path d="M79.662 186.283C79.0732 186.61 78.4074 186.772 77.7344 186.754C77.551 186.754 77.3489 186.754 77.1514 186.716C76.133 186.546 75.1407 186.246 74.1988 185.823C72.0221 184.949 69.7884 184.225 67.5132 183.655C65.0166 183.058 62.3978 182.602 60.2821 181.145C59.2092 180.406 58.3796 179.365 57.8984 178.154C59.5017 175.86 62.8492 176.772 65.294 177.609C68.698 178.775 72.1395 179.903 75.5811 180.999C77.1514 181.507 78.7876 182.038 79.8125 183.021C80.2067 183.379 80.4809 183.85 80.5977 184.37C80.6717 184.747 80.6204 185.139 80.4515 185.484C80.2826 185.829 80.0053 186.11 79.662 186.283Z" fill="url(#paint7_linear)" fill-opacity="0.5"/>
<path d="M71.9503 148.445C69.907 152.508 68.2904 156.772 67.1265 161.168C66.9008 162.019 66.7363 163.048 67.3569 163.678C67.9775 164.308 68.9319 164.149 69.5995 163.678C70.2258 163.156 70.7215 162.494 71.0476 161.746C71.9225 160.215 72.6423 158.601 73.1962 156.927C73.0333 159.995 73.802 163.04 75.4013 165.662C76.036 163.998 75.5423 162.141 75.2038 160.392C74.8093 158.345 74.6391 156.261 74.696 154.177C75.8432 154.388 76.5767 155.516 76.981 156.612C77.3853 157.707 77.6063 158.911 78.3444 159.814C78.8146 159.132 78.8146 158.248 78.8146 157.421V147.632C78.8477 147.313 78.7768 146.991 78.6124 146.715C78.3559 146.456 78.0087 146.306 77.6439 146.297C75.3072 145.986 73.0881 146.174 71.9503 148.445Z" fill="#6E71FF"/>
<path d="M71.9503 148.445C69.907 152.508 68.2904 156.772 67.1265 161.168C66.9008 162.019 66.7363 163.048 67.3569 163.678C67.9775 164.308 68.9319 164.149 69.5995 163.678C70.2258 163.156 70.7215 162.494 71.0476 161.746C71.9225 160.215 72.6423 158.601 73.1962 156.927C73.0333 159.995 73.802 163.04 75.4013 165.662C76.036 163.998 75.5423 162.141 75.2038 160.392C74.8093 158.345 74.6391 156.261 74.696 154.177C75.8432 154.388 76.5767 155.516 76.981 156.612C77.3853 157.707 77.6063 158.911 78.3444 159.814C78.8146 159.132 78.8146 158.248 78.8146 157.421V147.632C78.8477 147.313 78.7768 146.991 78.6124 146.715C78.3559 146.456 78.0087 146.306 77.6439 146.297C75.3072 145.986 73.0881 146.174 71.9503 148.445Z" fill="url(#paint8_linear)"/>
<path d="M79.7798 83.9582C78.8019 84.9549 78.0026 86.1115 77.0905 87.1694C74.1568 90.5733 69.8642 93.3426 69.1308 97.7761C69.0375 98.1459 69.0227 98.531 69.0875 98.9068C69.1523 99.2826 69.2952 99.6406 69.5069 99.9577C69.9606 100.414 70.5491 100.712 71.1854 100.809C75.1095 101.747 79.2318 101.394 82.9393 99.8025C78.6421 102.901 77.2457 108.576 76.2772 113.785C75.8305 116.197 75.4638 118.896 76.8367 120.922C78.7173 123.715 82.7606 123.743 86.1223 123.461L98.8494 122.408C100.73 122.253 102.648 122.093 104.426 121.439C106.203 120.786 107.858 119.559 108.615 117.847C109.696 115.398 108.793 112.577 108.859 109.897C108.939 107.243 109.98 104.708 111.788 102.765C112.045 102.46 112.366 102.216 112.728 102.05C113.187 101.918 113.67 101.895 114.139 101.984L130.223 103.728C132.386 103.963 134.624 104.198 136.702 103.545C138.78 102.891 140.675 101.119 140.745 98.9421C140.784 98.401 140.647 97.8617 140.355 97.4047C139.991 96.9552 139.516 96.6084 138.977 96.3986C133.336 93.7328 126.325 93.9867 121.535 89.9903C119.687 88.4529 118.319 86.3748 116.363 85.0019C114.534 83.7184 112.324 83.1213 110.161 82.5712C105.126 81.2595 99.0469 78.495 93.8188 78.81C88.8821 79.1015 83.3342 80.3098 79.7798 83.9582Z" fill="#6E71FF"/>
<path d="M79.7798 83.9582C78.8019 84.9549 78.0026 86.1115 77.0905 87.1694C74.1568 90.5733 69.8642 93.3426 69.1308 97.7761C69.0375 98.1459 69.0227 98.531 69.0875 98.9068C69.1523 99.2826 69.2952 99.6406 69.5069 99.9577C69.9606 100.414 70.5491 100.712 71.1854 100.809C75.1095 101.747 79.2318 101.394 82.9393 99.8025C78.6421 102.901 77.2457 108.576 76.2772 113.785C75.8305 116.197 75.4638 118.896 76.8367 120.922C78.7173 123.715 82.7606 123.743 86.1223 123.461L98.8494 122.408C100.73 122.253 102.648 122.093 104.426 121.439C106.203 120.786 107.858 119.559 108.615 117.847C109.696 115.398 108.793 112.577 108.859 109.897C108.939 107.243 109.98 104.708 111.788 102.765C112.045 102.46 112.366 102.216 112.728 102.05C113.187 101.918 113.67 101.895 114.139 101.984L130.223 103.728C132.386 103.963 134.624 104.198 136.702 103.545C138.78 102.891 140.675 101.119 140.745 98.9421C140.784 98.401 140.647 97.8617 140.355 97.4047C139.991 96.9552 139.516 96.6084 138.977 96.3986C133.336 93.7328 126.325 93.9867 121.535 89.9903C119.687 88.4529 118.319 86.3748 116.363 85.0019C114.534 83.7184 112.324 83.1213 110.161 82.5712C105.126 81.2595 99.0469 78.495 93.8188 78.81C88.8821 79.1015 83.3342 80.3098 79.7798 83.9582Z" fill="url(#paint9_linear)"/>
<path d="M108.802 113.188C108.889 113.808 108.839 114.441 108.656 115.04C108.45 115.505 108.149 115.921 107.772 116.262C106.175 117.844 104.156 118.931 101.956 119.394C101.9 114.137 103.691 109.05 105.215 104.029C105.973 101.641 106.563 99.2028 106.978 96.7321C107.358 94.2543 106.898 91.7578 107.17 89.3506C107.899 93.1118 107.744 97.2869 108.003 101.128L108.802 113.188Z" fill="url(#paint10_linear)"/>
<path d="M94.5656 97.4139C92.323 99.2711 87.9834 101.772 85.1625 102.642C83.8837 103.046 82.5249 103.183 81.2743 103.676C80.3142 104.094 79.4029 104.616 78.5568 105.233L66.8028 113.155C66.6882 113.216 66.5936 113.309 66.5301 113.423C66.3797 113.761 66.7887 114.062 67.1272 114.203C69.9106 115.369 74.0526 119.761 76.8313 120.922C75.2327 117.842 76.9535 111.937 78.7683 109.638C81.5188 106.149 85.863 104.424 89.8312 102.431C93.7194 100.479 97.7768 97.7618 99.0322 93.3518C99.4439 91.8889 99.69 90.3843 99.7656 88.8665C97.9696 90.8035 97.5558 94.9315 94.5656 97.4139Z" fill="#6E71FF"/>
<path d="M94.5656 97.4139C92.323 99.2711 87.9834 101.772 85.1625 102.642C83.8837 103.046 82.5249 103.183 81.2743 103.676C80.3142 104.094 79.4029 104.616 78.5568 105.233L66.8028 113.155C66.6882 113.216 66.5936 113.309 66.5301 113.423C66.3797 113.761 66.7887 114.062 67.1272 114.203C69.9106 115.369 74.0526 119.761 76.8313 120.922C75.2327 117.842 76.9535 111.937 78.7683 109.638C81.5188 106.149 85.863 104.424 89.8312 102.431C93.7194 100.479 97.7768 97.7618 99.0322 93.3518C99.4439 91.8889 99.69 90.3843 99.7656 88.8665C97.9696 90.8035 97.5558 94.9315 94.5656 97.4139Z" fill="url(#paint11_linear)"/>
<path d="M113.467 98.6596C111.873 97.7193 110.392 96.5909 108.653 95.9985C107.012 95.439 105.249 95.4108 103.519 95.3826C93.8992 95.2462 84.2422 95.1099 74.6791 95.9468C73.452 96.0549 71.9146 96.4592 71.7454 97.677C71.6184 98.5561 72.3801 99.3601 73.2311 99.614C74.1018 99.8019 75.0026 99.8019 75.8733 99.614C79.2951 99.2157 82.7394 99.043 86.1839 99.0968L102.169 98.9981C103.09 98.9584 104.013 99.0231 104.92 99.1909C106.231 99.4824 107.402 100.192 108.653 100.681C111.192 101.683 113.984 101.767 116.711 101.838C117.816 101.871 119.495 101.184 118.079 100.131C117.609 99.7833 116.457 99.9008 115.874 99.7362C115.03 99.4787 114.222 99.117 113.467 98.6596Z" fill="#6E71FF"/>
<path d="M113.467 98.6596C111.873 97.7193 110.392 96.5909 108.653 95.9985C107.012 95.439 105.249 95.4108 103.519 95.3826C93.8992 95.2462 84.2422 95.1099 74.6791 95.9468C73.452 96.0549 71.9146 96.4592 71.7454 97.677C71.6184 98.5561 72.3801 99.3601 73.2311 99.614C74.1018 99.8019 75.0026 99.8019 75.8733 99.614C79.2951 99.2157 82.7394 99.043 86.1839 99.0968L102.169 98.9981C103.09 98.9584 104.013 99.0231 104.92 99.1909C106.231 99.4824 107.402 100.192 108.653 100.681C111.192 101.683 113.984 101.767 116.711 101.838C117.816 101.871 119.495 101.184 118.079 100.131C117.609 99.7833 116.457 99.9008 115.874 99.7362C115.03 99.4787 114.222 99.117 113.467 98.6596Z" fill="#6E71FF"/>
<path d="M113.499 98.693C111.905 97.7762 110.424 96.6243 108.685 96.0319C107.044 95.4725 105.281 95.4395 103.551 95.416C93.9313 95.2797 84.2742 95.1433 74.7112 95.9802C73.4841 96.0884 71.9467 96.488 71.7727 97.7104C71.6505 98.5896 72.4121 99.3936 73.2631 99.6475C74.1339 99.8354 75.0347 99.8354 75.9054 99.6475C79.3272 99.2492 82.7715 99.0764 86.216 99.1303L102.178 99.0315C103.101 98.992 104.025 99.0567 104.933 99.2243C106.24 99.5158 107.415 100.221 108.666 100.715C111.205 101.716 113.993 101.801 116.725 101.871C117.825 101.904 119.508 101.213 118.093 100.165C117.623 99.8167 116.471 99.9342 115.888 99.7697C115.05 99.5107 114.248 99.149 113.499 98.693Z" fill="url(#paint12_linear)"/>
<path d="M88.0867 95.4484C87.951 94.8239 87.622 94.258 87.1464 93.831C86.9069 93.6239 86.6071 93.4993 86.2913 93.4756C85.9755 93.4519 85.6605 93.5303 85.3927 93.6994C85.2047 93.8357 85.0636 94.0332 84.8662 94.1695C84.5951 94.3133 84.2938 94.3907 83.987 94.3952L73.0135 95.3355C72.5075 95.3375 72.0099 95.4652 71.5654 95.707C71.2863 95.9139 71.065 96.189 70.9226 96.5059C70.7802 96.8228 70.7215 97.171 70.752 97.5171C70.8209 98.2078 71.0356 98.8761 71.382 99.4776C71.4768 99.7002 71.6254 99.8957 71.8146 100.047C72.0897 100.188 72.4013 100.242 72.7079 100.202L82.6188 99.8726C83.18 99.8174 83.7465 99.8701 84.2879 100.028C87.9598 101.377 88.9988 98.763 88.0867 95.4484Z" fill="url(#paint13_linear)"/>
<path d="M87.1521 96.2384C87.0814 96.1744 86.9928 96.1334 86.8983 96.1208C86.8189 96.1277 86.7419 96.1519 86.6729 96.1917C86.6038 96.2315 86.5443 96.286 86.4986 96.3512C85.9967 96.8987 85.5495 97.4939 85.1634 98.1284C85.1413 98.1794 85.1031 98.2216 85.0547 98.2488C85.0063 98.276 84.9504 98.2865 84.8954 98.2789L73.4893 98.1331C73.3668 98.1413 73.2438 98.1253 73.1273 98.0861C72.9471 97.9921 72.8081 97.8346 72.7371 97.6442C72.5866 97.3009 72.4785 96.8637 72.1212 96.7556C71.7639 96.6474 70.8659 96.7556 70.8047 97.1035C70.7787 97.5629 70.8558 98.0224 71.0304 98.4481C71.115 98.6597 71.195 99.1016 71.2843 99.3132C71.4472 99.5529 71.64 99.771 71.8579 99.962C71.9751 100.036 72.1096 100.078 72.2481 100.084C76.6864 100.648 81.4162 99.4825 85.8827 100.014C86.2685 100.105 86.6733 100.072 87.0393 99.9197C87.2654 99.7673 87.4549 99.5666 87.5941 99.332C87.9206 98.8545 88.0563 98.272 87.9745 97.6993C87.8927 97.1266 87.5993 96.6054 87.1521 96.2384Z" fill="url(#paint14_linear)"/>
<path d="M75.1018 130.824C75.9058 132.991 77.3774 134.872 78.1014 137.067C78.7643 139.075 78.7643 141.228 78.769 143.339C78.8004 156.999 79.3128 170.644 80.3064 184.276C80.3273 185.584 80.5722 186.878 81.0305 188.103C81.5571 189.297 82.5914 190.35 83.8843 190.534C85.9201 190.825 87.6456 188.935 88.3838 187.022C89.6438 183.829 89.3852 180.256 90.0716 176.89C90.8662 172.987 92.9443 169.231 92.4882 165.277C92.2861 163.504 92.3049 160.157 91.83 158.441C90.838 154.872 91.7501 154.623 91.83 150.918C91.9052 147.604 92.1497 141.238 92.3425 137.928C92.507 135.144 91.0354 133.405 92.7421 131.2C93.72 129.944 95.0929 129.046 96.132 127.852C97.171 126.658 102.775 121.872 102.343 121.688C101.91 121.505 95.2622 122.356 94.7403 122.412C91.1748 122.816 87.5661 122.583 84.0818 121.726C81.6605 121.134 77.7112 119.968 75.6707 122.121C73.7759 124.124 74.2461 128.515 75.1018 130.824Z" fill="#6E71FF"/>
<path d="M75.1018 130.824C75.9058 132.991 77.3774 134.872 78.1014 137.067C78.7643 139.075 78.7643 141.228 78.769 143.339C78.8004 156.999 79.3128 170.644 80.3064 184.276C80.3273 185.584 80.5722 186.878 81.0305 188.103C81.5571 189.297 82.5914 190.35 83.8843 190.534C85.9201 190.825 87.6456 188.935 88.3838 187.022C89.6438 183.829 89.3852 180.256 90.0716 176.89C90.8662 172.987 92.9443 169.231 92.4882 165.277C92.2861 163.504 92.3049 160.157 91.83 158.441C90.838 154.872 91.7501 154.623 91.83 150.918C91.9052 147.604 92.1497 141.238 92.3425 137.928C92.507 135.144 91.0354 133.405 92.7421 131.2C93.72 129.944 95.0929 129.046 96.132 127.852C97.171 126.658 102.775 121.872 102.343 121.688C101.91 121.505 95.2622 122.356 94.7403 122.412C91.1748 122.816 87.5661 122.583 84.0818 121.726C81.6605 121.134 77.7112 119.968 75.6707 122.121C73.7759 124.124 74.2461 128.515 75.1018 130.824Z" fill="url(#paint15_linear)"/>
<path d="M145.743 126.676L166.313 179.47C166.313 179.47 167.041 182.564 169.773 181.652C171.494 181.045 173.051 180.049 174.324 178.742L151.93 125.769L149.58 121.218L140.294 102.468L137.943 103.197L136.853 108.11L145.743 126.676Z" fill="#6E71FF"/>
<path d="M145.743 126.676L166.313 179.47C166.313 179.47 167.041 182.564 169.773 181.652C171.494 181.045 173.051 180.049 174.324 178.742L151.93 125.769L149.58 121.218L140.294 102.468L137.943 103.197L136.853 108.11L145.743 126.676Z" fill="url(#paint16_linear)"/>
<path d="M91.6742 154.12L92.1444 140.405C92.2592 138.666 92.2041 136.92 91.9798 135.191C91.8153 134.19 91.5426 133.17 91.7542 132.182C92.1021 130.584 93.5972 129.549 94.5751 128.242C96.0514 126.287 96.3805 123.715 97.4384 121.505C99.0792 118.101 102.417 115.75 105.981 114.486C109.545 113.221 113.363 112.901 117.129 112.605C121.797 112.224 126.151 109.272 130.834 109.13C135.516 108.989 140.514 110.668 143.18 114.519C146.434 119.22 145.531 125.868 148.686 130.631C149.504 131.858 150.566 132.939 151.097 134.322C151.972 136.672 151.022 139.315 149.598 141.374C148.173 143.433 146.307 145.135 144.962 147.256C141.788 152.319 142.273 158.737 142.371 164.713C142.526 174.22 141.42 183.706 139.08 192.922C138.871 194.023 138.444 195.072 137.825 196.006C136.414 197.887 133.725 198.319 131.365 198.141C129.005 197.962 126.626 197.346 124.313 197.746C120.819 198.352 117.956 201.155 114.439 201.507C111.877 201.761 109.39 200.675 107.039 199.626L95.7646 194.488C94.0485 193.712 92.2854 192.899 91.0207 191.502C88.7828 189.029 88.637 185.254 89.4927 182.028C90.3484 178.803 92.0504 175.874 93.1552 172.724C94.2601 169.574 94.7068 165.94 93.0941 163.015C92.624 162.136 91.9563 161.356 91.5332 160.444C90.6211 158.516 91.6037 156.245 91.6742 154.12Z" fill="#6E71FF"/>
<path d="M91.6742 154.12L92.1444 140.405C92.2592 138.666 92.2041 136.92 91.9798 135.191C91.8153 134.19 91.5426 133.17 91.7542 132.182C92.1021 130.584 93.5972 129.549 94.5751 128.242C96.0514 126.287 96.3805 123.715 97.4384 121.505C99.0792 118.101 102.417 115.75 105.981 114.486C109.545 113.221 113.363 112.901 117.129 112.605C121.797 112.224 126.151 109.272 130.834 109.13C135.516 108.989 140.514 110.668 143.18 114.519C146.434 119.22 145.531 125.868 148.686 130.631C149.504 131.858 150.566 132.939 151.097 134.322C151.972 136.672 151.022 139.315 149.598 141.374C148.173 143.433 146.307 145.135 144.962 147.256C141.788 152.319 142.273 158.737 142.371 164.713C142.526 174.22 141.42 183.706 139.08 192.922C138.871 194.023 138.444 195.072 137.825 196.006C136.414 197.887 133.725 198.319 131.365 198.141C129.005 197.962 126.626 197.346 124.313 197.746C120.819 198.352 117.956 201.155 114.439 201.507C111.877 201.761 109.39 200.675 107.039 199.626L95.7646 194.488C94.0485 193.712 92.2854 192.899 91.0207 191.502C88.7828 189.029 88.637 185.254 89.4927 182.028C90.3484 178.803 92.0504 175.874 93.1552 172.724C94.2601 169.574 94.7068 165.94 93.0941 163.015C92.624 162.136 91.9563 161.356 91.5332 160.444C90.6211 158.516 91.6037 156.245 91.6742 154.12Z" fill="url(#paint17_linear)"/>
<path d="M119.056 116.037C119.687 118.593 119.949 121.226 119.837 123.856C119.54 122.384 117.533 122.14 116.052 122.412C113.201 122.95 110.496 124.086 108.117 125.746C105.737 127.406 103.737 129.551 102.248 132.041L111.228 140.034C111.543 137.213 107.904 134.632 109.117 132.065C109.644 130.95 110.904 130.419 112.056 129.982L121.976 126.221C124.618 127.904 124.891 131.754 123.856 134.716C122.822 137.678 120.88 140.264 119.954 143.254C119.169 145.788 119.16 148.492 118.6 151.082C117.284 157.166 113.08 162.145 110.137 167.623C106.915 173.595 105.143 180.242 104.966 187.026C104.895 189.772 105.125 192.644 106.536 195.019C107.946 197.393 110.833 199.034 113.471 198.263L114.331 190.632C115.187 183.058 116.301 174.905 121.557 169.381C125.046 176.433 120.688 186.349 126.127 192.029C127.068 193.006 128.394 193.792 129.729 193.533C131.445 193.195 132.385 191.351 132.898 189.678C135.469 181.328 133.8 172.136 136.226 163.739C137.383 159.752 139.419 156.094 141.205 152.347C143.048 148.473 148.728 141.712 150.035 137.627C151.046 134.486 151.196 135.158 150.293 131.985C149.254 128.332 142.771 124.523 141.107 121.218C138.986 117.062 139.508 108.67 134.139 108.265C131.261 108.049 129.437 108.477 126.833 109.934C121.318 112.967 117.655 110.324 119.056 116.037Z" fill="url(#paint18_linear)" fill-opacity="0.5"/>
<path d="M144.952 147.237C141.778 152.3 142.262 158.718 142.361 164.694L144.952 147.237Z" fill="url(#paint19_linear)"/>
<path d="M194.794 183.368C192.683 156.833 176.801 136.451 159.33 137.833C141.859 139.216 129.423 161.877 131.539 188.413C133.655 214.949 149.513 235.316 166.999 233.934C184.484 232.551 196.91 209.927 194.794 183.368ZM162.903 222.984C154.441 218.813 147.346 204.177 145.926 186.264C144.398 167.27 149.786 150.894 158.329 146.451C166.792 150.622 173.905 165.281 175.325 183.171C176.853 202.165 171.46 218.541 162.903 222.984Z" fill="#6E71FF"/>
<path d="M194.794 183.368C192.683 156.833 176.801 136.451 159.33 137.833C141.859 139.216 129.423 161.877 131.539 188.413C133.655 214.949 149.513 235.316 166.999 233.934C184.484 232.551 196.91 209.927 194.794 183.368ZM162.903 222.984C154.441 218.813 147.346 204.177 145.926 186.264C144.398 167.27 149.786 150.894 158.329 146.451C166.792 150.622 173.905 165.281 175.325 183.171C176.853 202.165 171.46 218.541 162.903 222.984Z" fill="url(#paint20_linear)"/>
<path d="M162.903 222.983C161.683 223.653 160.336 224.056 158.949 224.168C148.187 225.024 138.041 208.051 136.311 186.264C134.581 164.477 141.901 146.141 152.668 145.285C154.62 145.144 156.573 145.548 158.309 146.451C149.767 150.894 144.379 167.27 145.907 186.264C147.345 204.172 154.449 218.813 162.903 222.983Z" fill="#6E71FF"/>
<path d="M162.903 222.983C161.683 223.653 160.336 224.056 158.949 224.168C148.187 225.024 138.041 208.051 136.311 186.264C134.581 164.477 141.901 146.141 152.668 145.285C154.62 145.144 156.573 145.548 158.309 146.451C149.767 150.894 144.379 167.27 145.907 186.264C147.345 204.172 154.449 218.813 162.903 222.983Z" fill="url(#paint21_linear)"/>
<path d="M136.297 97.7995C142.452 97.856 148.385 99.9529 154.163 102.031C154.571 102.123 154.931 102.363 155.174 102.703C155.276 102.965 155.279 103.255 155.183 103.519C155.087 103.782 154.898 104.002 154.652 104.137C154.145 104.388 153.578 104.489 153.016 104.429C147.868 104.297 143.105 101.979 138.013 101.467C136.448 101.312 132.733 102.092 132.042 100.084C131.328 97.9641 134.967 97.7854 136.297 97.7995Z" fill="#6E71FF"/>
<path d="M114.308 73.5391C114.276 74.8004 113.863 76.0225 113.125 77.0458C112.387 78.0691 111.357 78.846 110.171 79.275C109.426 79.4656 108.691 79.6963 107.971 79.9661C107.496 80.1407 107.088 80.4597 106.805 80.8783C106.49 81.4049 106.342 82.0148 106.381 82.6272C106.381 84.1741 106.748 85.7209 106.875 87.2724C106.884 87.429 106.884 87.586 106.875 87.7426C106.932 89.153 106.673 90.6387 105.766 91.7154C105.487 92.0808 105.113 92.3621 104.685 92.5281C104.257 92.6941 103.791 92.7382 103.34 92.6557C102.521 92.4394 101.976 91.6919 101.52 91.0007C99.7333 88.2548 98.3183 85.2842 97.3121 82.1665C97.1856 81.748 97.0285 81.3394 96.8419 80.9441C96.7216 80.7347 96.6178 80.5162 96.5316 80.2906C96.4832 79.949 96.5088 79.601 96.6069 79.2703C96.9146 78.0519 97.2977 76.8539 97.754 75.683C98.0905 74.9908 98.3007 74.2441 98.3746 73.478C98.4123 72.0205 97.4061 70.7652 97.1005 69.3265C96.8231 68.0147 97.1711 66.6654 97.5378 65.3724C97.6754 64.7787 97.9226 64.2159 98.2665 63.7128C98.6257 63.2811 99.0708 62.9288 99.5736 62.6784C102.347 61.1316 105.639 60.8871 108.807 60.9859C109.644 60.983 110.475 61.1197 111.266 61.3902C111.656 61.537 112.008 61.7702 112.294 62.0723C112.581 62.3744 112.795 62.7376 112.921 63.1345C113.142 64.009 112.921 65.0151 113.015 65.9037C113.067 66.5243 113.194 67.1261 113.288 67.7467C113.542 69.6744 114.327 71.5879 114.308 73.5391Z" fill="url(#paint22_linear)"/>
<path d="M99.5264 65.9183C99.5592 67.4249 99.7339 68.925 100.048 70.3989L98.5861 68.2502C98.5173 68.1157 98.4224 67.9961 98.307 67.8984C98.1916 67.8008 98.0579 67.727 97.9138 67.6813C97.7379 67.6718 97.5643 67.7238 97.4227 67.8285C97.2811 67.9332 97.1804 68.084 97.138 68.2549C97.0641 68.5999 97.0902 68.9587 97.2132 69.2893C97.6834 70.8784 98.666 72.3359 98.713 73.9909C98.713 74.3999 98.6143 74.8889 98.2429 75.0205C97.7535 73.5868 97.1384 72.1991 96.4046 70.8737C95.6241 69.4632 94.7073 68.1374 94.0961 66.6423C93.4851 65.1521 93.192 63.5507 93.2357 61.9407C93.2204 61.4141 93.3419 60.8925 93.5883 60.4268C93.7905 60.1024 94.0914 59.8485 94.2842 59.5147C94.4769 59.1809 94.5286 58.833 94.6932 58.5086C95.1634 57.5683 96.2917 57.2062 97.3167 56.9759C99.4798 56.4898 101.683 56.2049 103.899 56.1249C105.181 56.0286 106.47 56.1397 107.717 56.454C108.973 56.7718 110.067 57.544 110.787 58.6214C111.055 59.0587 111.257 59.5617 111.53 59.9755C111.767 60.276 111.987 60.59 112.188 60.9158C112.288 61.0772 112.346 61.261 112.358 61.4505C112.369 61.6401 112.333 61.8295 112.254 62.0018C111.939 62.5472 111.153 62.519 110.533 62.4156C108.582 62.0912 106.551 61.7433 104.646 62.2839C103.921 62.5671 103.172 62.7842 102.408 62.9328C101.868 62.9892 101.355 62.7917 100.824 62.8152C99.423 62.8575 99.5264 64.898 99.5264 65.9183Z" fill="#6E71FF"/>
<path d="M99.5264 65.9183C99.5592 67.4249 99.7339 68.925 100.048 70.3989L98.5861 68.2502C98.5173 68.1157 98.4224 67.9961 98.307 67.8984C98.1916 67.8008 98.0579 67.727 97.9138 67.6813C97.7379 67.6718 97.5643 67.7238 97.4227 67.8285C97.2811 67.9332 97.1804 68.084 97.138 68.2549C97.0641 68.5999 97.0902 68.9587 97.2132 69.2893C97.6834 70.8784 98.666 72.3359 98.713 73.9909C98.713 74.3999 98.6143 74.8889 98.2429 75.0205C97.7535 73.5868 97.1384 72.1991 96.4046 70.8737C95.6241 69.4632 94.7073 68.1374 94.0961 66.6423C93.4851 65.1521 93.192 63.5507 93.2357 61.9407C93.2204 61.4141 93.3419 60.8925 93.5883 60.4268C93.7905 60.1024 94.0914 59.8485 94.2842 59.5147C94.4769 59.1809 94.5286 58.833 94.6932 58.5086C95.1634 57.5683 96.2917 57.2062 97.3167 56.9759C99.4798 56.4898 101.683 56.2049 103.899 56.1249C105.181 56.0286 106.47 56.1397 107.717 56.454C108.973 56.7718 110.067 57.544 110.787 58.6214C111.055 59.0587 111.257 59.5617 111.53 59.9755C111.767 60.276 111.987 60.59 112.188 60.9158C112.288 61.0772 112.346 61.261 112.358 61.4505C112.369 61.6401 112.333 61.8295 112.254 62.0018C111.939 62.5472 111.153 62.519 110.533 62.4156C108.582 62.0912 106.551 61.7433 104.646 62.2839C103.921 62.5671 103.172 62.7842 102.408 62.9328C101.868 62.9892 101.355 62.7917 100.824 62.8152C99.423 62.8575 99.5264 64.898 99.5264 65.9183Z" fill="url(#paint23_linear)"/>
<path d="M137.731 106.022C137.747 106.495 137.599 106.958 137.313 107.334C136.73 108.133 135.653 108.684 134.708 109.064C132.522 109.92 130.227 110.795 127.895 110.503C126.184 110.287 124.604 109.445 123.104 108.622C121.849 107.95 120.589 107.273 119.343 106.582C117.049 105.345 114.717 104.052 113.057 102.031C110.655 99.1158 113.057 97.1129 115.135 94.9784C115.599 94.4987 116.099 94.0554 116.63 93.6526C118.498 92.1687 120.708 91.1777 123.057 90.7705C124.604 90.5166 126.283 90.5354 127.703 91.2406C128.693 91.8327 129.563 92.6045 130.27 93.5162C133.177 96.897 135.565 100.692 137.355 104.776C137.561 105.163 137.689 105.586 137.731 106.022Z" fill="#6E71FF"/>
<path d="M137.731 106.022C137.746 106.495 137.598 106.958 137.312 107.334C136.862 107.603 136.39 107.834 135.902 108.025C133.716 108.9 131.417 109.774 129.089 109.483C127.359 109.267 125.798 108.425 124.28 107.602C123.024 106.93 121.783 106.234 120.518 105.562C118.243 104.325 115.892 103.013 114.251 101.011C111.849 98.0767 114.251 96.0927 116.31 93.9582C116.414 93.8501 116.524 93.7481 116.639 93.6526C118.507 92.1687 120.717 91.1777 123.067 90.7705C124.613 90.5166 126.292 90.5354 127.712 91.2406C128.702 91.8327 129.572 92.6045 130.279 93.5162C133.186 96.897 135.574 100.692 137.364 104.776C137.567 105.164 137.692 105.587 137.731 106.022Z" fill="url(#paint24_linear)"/>
<path d="M116.066 107.377L138.827 177.487C138.827 177.487 141.737 186.222 142.649 187.863C143.561 189.504 147.562 188.225 147.929 187.496C148.296 186.768 149.203 184.586 149.203 184.586L126.264 121.397L120.439 105.012C120.439 105.012 116.066 103.738 116.066 107.377Z" fill="#6E71FF"/>
<path d="M116.066 107.377L138.827 177.487C138.827 177.487 141.737 186.222 142.649 187.863C143.561 189.504 147.562 188.225 147.929 187.496C148.296 186.768 149.203 184.586 149.203 184.586L126.264 121.397L120.439 105.012C120.439 105.012 116.066 103.738 116.066 107.377Z" fill="url(#paint25_linear)"/>
<path d="M142.577 138.229C143.364 137.207 144.29 136.3 145.328 135.535C146.668 134.646 148.266 134.256 149.832 133.903C156.344 132.441 163.349 131.412 169.532 133.903C170.363 134.178 171.103 134.676 171.671 135.342C172.188 136.043 172.305 137.105 171.727 137.754C171.219 138.323 170.373 138.412 169.611 138.45C162.86 138.793 155.897 138.351 149.555 140.683C145.093 142.319 141.228 145.244 137.617 148.332C135.266 150.359 135.384 146.654 136.442 145.323C138.374 142.912 140.565 140.608 142.577 138.229Z" fill="#6E71FF"/>
<path d="M142.577 138.229C143.364 137.207 144.29 136.3 145.328 135.535C146.668 134.646 148.266 134.256 149.832 133.903C156.344 132.441 163.349 131.412 169.532 133.903C170.363 134.178 171.103 134.676 171.671 135.342C172.188 136.043 172.305 137.105 171.727 137.754C171.219 138.323 170.373 138.412 169.611 138.45C162.86 138.793 155.897 138.351 149.555 140.683C145.093 142.319 141.228 145.244 137.617 148.332C135.266 150.359 135.384 146.654 136.442 145.323C138.374 142.912 140.565 140.608 142.577 138.229Z" fill="url(#paint26_linear)"/>
<path d="M103.757 126.267C100.466 128.176 97.0105 130.424 93.1928 130.273C92.3644 130.171 91.5274 130.159 90.6963 130.235C89.8735 130.386 89.046 130.931 88.9003 131.754C88.6229 133.291 90.6869 134.105 92.2478 134.048C95.0687 133.921 97.9931 132.868 100.57 133.983C101.507 134.439 102.37 135.034 103.132 135.746L113.79 144.763C114.561 145.417 115.361 146.108 115.723 147.048C116.085 147.989 115.944 149.046 116.075 150.048C116.207 151.049 116.781 152.159 117.782 152.291C119.296 152.483 120.02 150.542 120.391 149.061C120.947 146.837 121.894 144.731 123.189 142.84C124.106 141.505 125.206 140.255 125.761 138.736C126.315 137.217 126.17 135.276 124.896 134.279C124.728 134.134 124.533 134.023 124.322 133.954C124.112 133.884 123.89 133.857 123.668 133.874C123.225 133.974 122.821 134.203 122.507 134.533C120.118 136.657 118.174 139.234 116.79 142.116L106 133.089C105.44 132.619 104.839 132.078 104.768 131.354C104.674 130.348 105.619 129.587 106.475 129.046C109.887 126.895 113.486 125.054 117.227 123.545C118.351 123.075 122.075 121.754 121.698 119.977C121.322 118.199 117.11 120.263 116.014 120.649C111.762 122.134 107.658 124.015 103.757 126.267Z" fill="#6E71FF"/>
<path d="M115.144 155.455C112.954 157.425 111.67 160.19 110.518 162.903C107.459 170.084 104.896 177.467 102.85 185C102.013 188.08 101.256 191.295 101.815 194.436C102.375 197.577 104.599 200.633 107.744 201.197C108.308 201.296 109.014 201.253 109.305 200.755C109.597 200.257 109.272 199.603 108.985 199.077C107.613 196.561 107.255 193.618 107.171 190.75C106.891 180.526 109.694 170.454 115.215 161.845C116.499 159.851 118.036 157.867 120.194 156.908C121.562 156.302 126.047 154.844 123.128 153.438C120.683 152.254 116.922 153.838 115.144 155.455Z" fill="#6E71FF"/>
<path d="M122.474 157.439C121.223 159.875 119.733 162.456 120.123 165.159C120.256 166.048 120.592 166.893 121.106 167.63C121.619 168.367 122.296 168.976 123.083 169.409C123.869 169.842 124.746 170.088 125.643 170.127C126.541 170.166 127.435 169.998 128.257 169.635C129.009 169.306 129.667 168.817 130.429 168.483C131.231 168.127 132.101 167.949 132.979 167.959C133.857 167.97 134.722 168.169 135.516 168.544C135.596 167.726 134.919 166.983 134.138 166.711C133.339 166.5 132.502 166.468 131.689 166.617L127.373 167.087C126.005 167.237 124.5 167.35 123.376 166.56C122.079 165.648 121.768 163.847 121.886 162.268C122.107 159.343 123.4 156.588 125.022 154.139C126.052 152.587 127.236 151.097 127.843 149.334C128.365 147.824 128.511 145.619 127.142 144.632C125.426 148.807 124.585 153.306 122.474 157.439Z" fill="#6E71FF"/>
<path d="M99.8266 141.233C99.6782 141.616 99.5665 142.013 99.4927 142.418C99.4661 142.791 99.4819 143.167 99.5398 143.537L100.466 150.979C100.517 151.731 100.676 152.472 100.936 153.18C101.129 153.65 101.406 154.059 101.576 154.524C101.797 155.324 101.85 156.162 101.731 156.983L101.166 164.322C101.167 164.647 101.098 164.967 100.964 165.263C100.494 166.128 99.1072 165.996 98.4631 165.263C97.819 164.529 97.7108 163.471 97.6356 162.498L97.2642 157.655C97.113 156.29 97.1051 154.913 97.2407 153.546C97.3629 152.639 97.6121 151.755 97.7532 150.852C98.5195 145.92 96.0465 140.923 96.7376 135.981C96.7672 135.592 96.888 135.215 97.0902 134.881C97.9835 133.616 99.9112 134.364 100.381 135.492C101.007 136.842 100.273 139.874 99.8266 141.233Z" fill="#6E71FF"/>
<path d="M86.4082 164.256C84.7626 165.986 83.7048 168.177 82.708 170.34C82.2141 171.361 81.7823 172.412 81.4151 173.485C80.2867 176.955 80.4325 180.707 80.7663 184.341C80.8885 185.625 81.0484 186.96 81.7677 188.027C82.1138 188.54 82.5749 188.965 83.1141 189.269C83.6534 189.572 84.256 189.746 84.8741 189.775C85.4922 189.805 86.1087 189.69 86.6745 189.44C87.2404 189.189 87.74 188.81 88.1337 188.333C88.8342 187.487 89.1492 186.401 89.5018 185.357C90.5785 182.16 92.1253 179.141 93.3524 175.996C94.5795 172.851 95.4963 169.498 95.233 166.123C95.092 164.383 94.4432 161.68 92.4121 161.51C90.16 161.341 87.8892 162.695 86.4082 164.256Z" fill="url(#paint27_linear)"/>
<path d="M130.844 109.314C130.273 109.87 129.743 110.467 129.259 111.101C128.047 112.533 127.144 114.201 126.608 116C125.7 119.606 127.388 123.611 130.369 125.807C133.35 128.003 137.459 128.454 141.013 127.359C141.665 127.193 142.271 126.883 142.786 126.451C143.263 125.938 143.635 125.335 143.881 124.679C144.507 123.292 145.141 121.858 145.24 120.349C145.28 118.952 145.023 117.563 144.488 116.272C143.346 113.208 141.541 110.434 139.203 108.148C137.793 106.775 137.163 106.338 135.202 106.869C133.574 107.321 132.078 108.16 130.844 109.314Z" fill="#6E71FF"/>
<path d="M140.896 127.998C146.438 127.998 150.93 123.199 150.93 117.278C150.93 111.358 146.438 106.559 140.896 106.559C135.355 106.559 130.863 111.358 130.863 117.278C130.863 123.199 135.355 127.998 140.896 127.998Z" fill="#6E71FF"/>
<path d="M140.896 127.998C146.438 127.998 150.93 123.199 150.93 117.278C150.93 111.358 146.438 106.559 140.896 106.559C135.355 106.559 130.863 111.358 130.863 117.278C130.863 123.199 135.355 127.998 140.896 127.998Z" fill="url(#paint28_linear)"/>
<path d="M141.526 126.978C146.573 126.978 150.665 122.608 150.665 117.217C150.665 111.827 146.573 107.457 141.526 107.457C136.478 107.457 132.386 111.827 132.386 117.217C132.386 122.608 136.478 126.978 141.526 126.978Z" fill="url(#paint29_linear)"/>
<path d="M98.1768 67.5826L100.932 66.2991L114.266 65.6597C114.266 65.6597 114.524 68.4148 114.012 68.9931C113.499 69.5714 111.191 69.0589 110.612 67.9023L110.034 66.6188L109.009 66.8116C109.009 66.8116 109.136 69.8253 106.959 70.018C104.782 70.2108 102.794 70.2766 102.535 69.6325C102.058 68.7646 101.523 67.9305 100.932 67.136L98.5811 68.2502L98.1768 67.5826Z" fill="#6E71FF"/>
<path d="M98.1768 67.5826L100.932 66.2991L114.266 65.6597C114.266 65.6597 114.524 68.4148 114.012 68.9931C113.499 69.5714 111.191 69.0589 110.612 67.9023L110.034 66.6188L109.009 66.8116C109.009 66.8116 109.136 69.8253 106.959 70.018C104.782 70.2108 102.794 70.2766 102.535 69.6325C102.058 68.7646 101.523 67.9305 100.932 67.136L98.5811 68.2502L98.1768 67.5826Z" fill="url(#paint30_linear)"/>
<path d="M98.1768 67.5826L100.932 66.2991L114.266 65.6597C114.266 65.6597 114.524 68.4148 114.012 68.9931C113.499 69.5714 111.191 69.0589 110.612 67.9023L110.034 66.6188L109.009 66.8116C109.009 66.8116 109.136 69.8253 106.959 70.018C104.782 70.2108 102.794 70.2766 102.535 69.6325C102.058 68.7646 101.523 67.9305 100.932 67.136L98.5811 68.2502L98.1768 67.5826Z" fill="url(#paint31_linear)"/>
<path d="M83.9446 97.4936C83.9096 98.0431 83.7658 98.5801 83.5214 99.0734C83.3954 99.3193 83.2089 99.529 82.9794 99.6828C82.7499 99.8366 82.485 99.9295 82.2097 99.9526C81.6126 99.9526 81.0484 99.5435 80.456 99.6376C80.2301 99.6951 80.0072 99.7641 79.7884 99.8444C79.149 100.009 78.4719 99.7128 77.8184 99.8162C77.5175 99.8585 77.2401 99.9902 76.9439 100.061C76.3852 100.177 75.8035 100.091 75.3018 99.819C74.8001 99.5471 74.4108 99.1064 74.2029 98.575C74.0148 98.039 74.0148 97.4278 73.7045 96.9483C73.446 96.5533 72.9711 96.196 73.0792 95.7353C73.1345 95.5527 73.2405 95.3897 73.3848 95.2651C75.2655 93.4597 77.9171 93.5678 80.3196 93.3093C82.8914 93.0554 84.2219 95.0958 83.9446 97.4936Z" fill="url(#paint32_linear)"/>
<path d="M140.204 96.3234C141.021 96.2137 141.851 96.2455 142.658 96.4175C143.977 96.6437 145.278 96.9658 146.551 97.3813C147.089 97.5356 147.607 97.7534 148.093 98.0301C148.714 98.4152 149.227 98.9522 149.584 99.5906C149.94 100.229 150.127 100.948 150.129 101.679C150.149 102.269 149.967 102.848 149.612 103.319C148.836 104.26 147.397 104.213 146.184 104.076C144.887 103.935 143.41 103.686 142.724 102.577C142.301 101.895 142.291 101.049 142.188 100.226C142.084 99.403 141.798 98.5614 141.083 98.1994C140.589 97.9455 138.582 98.1994 138.427 97.5646C138.248 96.8594 139.668 96.4175 140.204 96.3234Z" fill="url(#paint33_linear)"/>
<path d="M148.892 161.609C155.944 161.078 163.039 166.198 164.745 173.076C163.468 171.696 161.8 170.737 159.965 170.326C158.129 169.915 156.212 170.073 154.468 170.777C158.111 173.246 160.858 176.829 162.296 180.989L160.74 180.096C161.742 183.752 161.996 187.572 161.487 191.329C160.978 195.085 159.716 198.701 157.778 201.958L162.667 193.876C162.484 197.083 161.938 200.383 160.18 203.068C158.422 205.752 155.192 207.689 152.032 207.106C154.173 207.905 156.468 208.208 158.743 207.993C161.018 207.778 163.215 207.051 165.168 205.865C164.103 208.241 162.927 210.565 161.642 212.838C165.275 208.29 167.937 203.046 169.464 197.429C170.99 191.812 171.35 185.942 170.519 180.181C170.898 184.271 170.854 188.389 170.387 192.47C172.164 186.769 172.604 180.734 171.675 174.835C170.745 168.936 168.471 163.329 165.027 158.45C165.74 161.478 165.806 164.623 165.22 167.679C163.377 163.311 160.862 158.375 156.207 157.467C157.364 157.881 158.558 157.796 159.306 157.077C155.544 156.104 151.012 158.445 148.892 161.609Z" fill="url(#paint34_linear)" fill-opacity="0.5"/>
<path d="M94.7346 75.4627C93.7331 76.0457 93.3241 77.3433 93.3993 78.4764C93.4746 79.6095 93.9024 80.7285 94.2033 81.8474C94.6774 83.9065 94.9249 86.0112 94.9415 88.1241C96.7555 87.8408 98.6107 88.2233 100.165 89.2007C99.3562 87.1414 98.8814 73.0414 94.7346 75.4627Z" fill="#6E71FF"/>
<path d="M113.88 85.6885C111.407 85.8625 109.474 87.9735 107.053 88.5095C106.788 87.8737 106.655 87.1906 106.663 86.5019L106.456 83.0086C106.423 82.3927 106.348 81.1938 106.884 80.7378C107.688 80.0466 108.341 80.8412 109.117 81.396C110.86 82.6439 112.458 84.0838 113.88 85.6885Z" fill="#6E71FF"/>
<path d="M94.7346 75.4627C93.7331 76.0457 93.3241 77.3433 93.3993 78.4764C93.4746 79.6095 93.9024 80.7285 94.2033 81.8474C94.6774 83.9065 94.9249 86.0112 94.9415 88.1241C96.7555 87.8408 98.6107 88.2233 100.165 89.2007C99.3562 87.1414 98.8814 73.0414 94.7346 75.4627Z" fill="url(#paint35_linear)"/>
<path d="M113.88 85.6885C111.407 85.8625 109.474 87.9735 107.053 88.5095C106.788 87.8737 106.655 87.1906 106.663 86.5019L106.456 83.0086C106.423 82.3927 106.348 81.1938 106.884 80.7378C107.688 80.0466 108.341 80.8412 109.117 81.396C110.86 82.6439 112.458 84.0838 113.88 85.6885Z" fill="url(#paint36_linear)"/>
<path d="M107.876 81.3342C107.507 82.4987 107.407 83.7317 107.585 84.9403C107.711 85.4332 107.773 85.9406 107.768 86.4495C107.765 86.7068 107.695 86.9587 107.563 87.1799C107.432 87.4012 107.245 87.5839 107.02 87.7096C106.981 87.7292 106.938 87.7404 106.893 87.7425C106.903 87.5859 106.903 87.4289 106.893 87.2723C106.767 85.7208 106.386 84.174 106.4 82.6272C106.36 82.0148 106.508 81.4048 106.823 80.8782C107.107 80.4596 107.514 80.1406 107.989 79.9661C108.022 79.9677 108.054 79.981 108.078 80.0037C108.459 80.3657 108.041 80.8218 107.876 81.3342Z" fill="url(#paint37_linear)"/>
<path d="M106.804 80.8785C106.489 81.4051 106.342 82.0151 106.381 82.6275C106.381 84.1743 106.748 85.7211 106.875 87.2726C106.884 87.4292 106.884 87.5862 106.875 87.7428C106.607 87.7948 106.331 87.7841 106.069 87.7115C105.806 87.6389 105.564 87.5063 105.361 87.3243C104.506 86.5724 103.839 85.6304 103.414 84.5739C103.064 83.9037 102.836 83.176 102.742 82.4253C102.699 82.0458 102.741 81.6615 102.863 81.2999C102.986 80.9382 103.187 80.6081 103.452 80.3331C104.124 79.7313 105.126 79.6749 106.038 79.7689C106.381 79.8018 107.547 79.7689 107.951 79.9664C107.484 80.1443 107.083 80.463 106.804 80.8785Z" fill="url(#paint38_linear)" fill-opacity="0.5"/>
</g>
<defs>
<linearGradient id="paint0_linear" x1="130.634" y1="27.0244" x2="208.82" y2="431.204" gradientUnits="userSpaceOnUse">
<stop stop-color="#010101" stop-opacity="0"/>
<stop offset="0.95" stop-color="#010101"/>
</linearGradient>
<linearGradient id="paint1_linear" x1="105.449" y1="97.3397" x2="195.94" y2="545.316" gradientUnits="userSpaceOnUse">
<stop stop-color="#010101" stop-opacity="0"/>
<stop offset="0.95" stop-color="#010101"/>
</linearGradient>
<linearGradient id="paint2_linear" x1="4.00072" y1="131.503" x2="68.9996" y2="131.503" gradientUnits="userSpaceOnUse">
<stop stop-color="white" stop-opacity="0"/>
<stop offset="0.95" stop-color="white"/>
</linearGradient>
<linearGradient id="paint3_linear" x1="2296.08" y1="11478.8" x2="2824.25" y2="14690.3" gradientUnits="userSpaceOnUse">
<stop stop-color="#010101" stop-opacity="0"/>
<stop offset="0.95" stop-color="#010101"/>
</linearGradient>
<linearGradient id="paint4_linear" x1="4055.78" y1="16729.2" x2="5301.56" y2="15628" gradientUnits="userSpaceOnUse">
<stop stop-color="#010101" stop-opacity="0"/>
<stop offset="0.95" stop-color="#010101"/>
</linearGradient>
<linearGradient id="paint5_linear" x1="80.7428" y1="125.673" x2="67.7392" y2="123.733" gradientUnits="userSpaceOnUse">
<stop offset="0.079127"/>
<stop offset="0.83" stop-opacity="0.07"/>
<stop offset="1" stop-opacity="0"/>
</linearGradient>
<linearGradient id="paint6_linear" x1="70.0145" y1="182.649" x2="70.7891" y2="147.199" gradientUnits="userSpaceOnUse">
<stop stop-opacity="0"/>
<stop offset="0.639117" stop-opacity="0.75"/>
<stop offset="1"/>
</linearGradient>
<linearGradient id="paint7_linear" x1="71.8165" y1="187.849" x2="72.1063" y2="168.023" gradientUnits="userSpaceOnUse">
<stop stop-opacity="0"/>
<stop offset="0.639117" stop-opacity="0.75"/>
<stop offset="1"/>
</linearGradient>
<linearGradient id="paint8_linear" x1="74.2089" y1="167.783" x2="76.2833" y2="129.461" gradientUnits="userSpaceOnUse">
<stop stop-opacity="0"/>
<stop offset="0.639117" stop-opacity="0.75"/>
<stop offset="1"/>
</linearGradient>
<linearGradient id="paint9_linear" x1="112.949" y1="128.453" x2="114.773" y2="40.1221" gradientUnits="userSpaceOnUse">
<stop stop-opacity="0"/>
<stop offset="0.639117" stop-opacity="0.75"/>
<stop offset="1"/>
</linearGradient>
<linearGradient id="paint10_linear" x1="1921.69" y1="5752.17" x2="2022.47" y2="5752.17" gradientUnits="userSpaceOnUse">
<stop stop-color="#010101" stop-opacity="0"/>
<stop offset="0.95" stop-color="#010101"/>
</linearGradient>
<linearGradient id="paint11_linear" x1="8615.59" y1="6738.75" x2="7478.14" y2="5823.71" gradientUnits="userSpaceOnUse">
<stop stop-color="#010101" stop-opacity="0"/>
<stop offset="0.95" stop-color="#010101"/>
</linearGradient>
<linearGradient id="paint12_linear" x1="11856.4" y1="1187.49" x2="11854.3" y2="1289.64" gradientUnits="userSpaceOnUse">
<stop stop-color="white" stop-opacity="0"/>
<stop offset="0.95" stop-color="white"/>
</linearGradient>
<linearGradient id="paint13_linear" x1="99.5537" y1="88.8267" x2="70.8242" y2="85.5195" gradientUnits="userSpaceOnUse">
<stop offset="0.079127"/>
<stop offset="0.83" stop-opacity="0.07"/>
<stop offset="1" stop-opacity="0"/>
</linearGradient>
<linearGradient id="paint14_linear" x1="98.8648" y1="93.3539" x2="71.4774" y2="88.1983" gradientUnits="userSpaceOnUse">
<stop offset="0.079127"/>
<stop offset="0.83" stop-opacity="0.07"/>
<stop offset="1" stop-opacity="0"/>
</linearGradient>
<linearGradient id="paint15_linear" x1="113.5" y1="79.0002" x2="79.3391" y2="74.7649" gradientUnits="userSpaceOnUse">
<stop offset="0.079127"/>
<stop offset="0.83" stop-opacity="0.07"/>
<stop offset="1" stop-opacity="0"/>
</linearGradient>
<linearGradient id="paint16_linear" x1="143.5" y1="139" x2="156.608" y2="133.432" gradientUnits="userSpaceOnUse">
<stop offset="0.02" stop-color="white" stop-opacity="0"/>
<stop offset="0.58" stop-color="white" stop-opacity="0.39"/>
<stop offset="1" stop-color="white"/>
</linearGradient>
<linearGradient id="paint17_linear" x1="127.229" y1="211.606" x2="136.132" y2="29.7033" gradientUnits="userSpaceOnUse">
<stop stop-opacity="0"/>
<stop offset="0.639117" stop-opacity="0.75"/>
<stop offset="1"/>
</linearGradient>
<linearGradient id="paint18_linear" x1="129" y1="225" x2="144.42" y2="31.3289" gradientUnits="userSpaceOnUse">
<stop stop-opacity="0"/>
<stop offset="0.639117" stop-opacity="0.75"/>
<stop offset="1"/>
</linearGradient>
<linearGradient id="paint19_linear" x1="1078.48" y1="5353.25" x2="1093.71" y2="5353.25" gradientUnits="userSpaceOnUse">
<stop stop-color="#010101" stop-opacity="0"/>
<stop offset="0.95" stop-color="#010101"/>
</linearGradient>
<linearGradient id="paint20_linear" x1="204.5" y1="77" x2="120.71" y2="70.0001" gradientUnits="userSpaceOnUse">
<stop offset="0.079127"/>
<stop offset="0.83" stop-opacity="0.07"/>
<stop offset="1" stop-opacity="0"/>
</linearGradient>
<linearGradient id="paint21_linear" x1="179.866" y1="92.264" x2="135.611" y2="91.585" gradientUnits="userSpaceOnUse">
<stop offset="0.079127"/>
<stop offset="0.83" stop-opacity="0.07"/>
<stop offset="1" stop-opacity="0"/>
</linearGradient>
<linearGradient id="paint22_linear" x1="96.5175" y1="76.8443" x2="114.308" y2="76.8443" gradientUnits="userSpaceOnUse">
<stop stop-color="#E5C6D6"/>
<stop offset="0.42" stop-color="#EAD4D0"/>
<stop offset="1" stop-color="#F0E9CB"/>
</linearGradient>
<linearGradient id="paint23_linear" x1="104.943" y1="77.0812" x2="106.163" y2="39.776" gradientUnits="userSpaceOnUse">
<stop stop-opacity="0"/>
<stop offset="0.639117" stop-opacity="0.75"/>
<stop offset="1"/>
</linearGradient>
<linearGradient id="paint24_linear" x1="128.238" y1="111.599" x2="129.191" y2="74.3" gradientUnits="userSpaceOnUse">
<stop stop-opacity="0"/>
<stop offset="0.639117" stop-opacity="0.75"/>
<stop offset="1"/>
</linearGradient>
<linearGradient id="paint25_linear" x1="123" y1="147" x2="133.41" y2="143.859" gradientUnits="userSpaceOnUse">
<stop offset="0.02" stop-color="white" stop-opacity="0"/>
<stop offset="0.58" stop-color="white" stop-opacity="0.39"/>
<stop offset="1" stop-color="white"/>
</linearGradient>
<linearGradient id="paint26_linear" x1="142" y1="159" x2="163.691" y2="129.508" gradientUnits="userSpaceOnUse">
<stop offset="0.02" stop-color="white" stop-opacity="0"/>
<stop offset="0.58" stop-color="white" stop-opacity="0.39"/>
<stop offset="1" stop-color="white"/>
</linearGradient>
<linearGradient id="paint27_linear" x1="97.4711" y1="143.636" x2="78.0214" y2="142.356" gradientUnits="userSpaceOnUse">
<stop offset="0.079127"/>
<stop offset="0.83" stop-opacity="0.07"/>
<stop offset="1" stop-opacity="0"/>
</linearGradient>
<linearGradient id="paint28_linear" x1="125" y1="125.5" x2="141.404" y2="116.965" gradientUnits="userSpaceOnUse">
<stop offset="0.02" stop-color="white" stop-opacity="0"/>
<stop offset="0.58" stop-color="white" stop-opacity="0.39"/>
<stop offset="1" stop-color="white"/>
</linearGradient>
<linearGradient id="paint29_linear" x1="141.559" y1="139.309" x2="142.833" y2="116.18" gradientUnits="userSpaceOnUse">
<stop offset="0.02" stop-color="white" stop-opacity="0"/>
<stop offset="0.58" stop-color="white" stop-opacity="0.39"/>
<stop offset="1" stop-color="white"/>
</linearGradient>
<linearGradient id="paint30_linear" x1="107" y1="62.5" x2="105.5" y2="77" gradientUnits="userSpaceOnUse">
<stop/>
<stop offset="1" stop-opacity="0"/>
</linearGradient>
<linearGradient id="paint31_linear" x1="4481.42" y1="504.519" x2="4488.08" y2="636.983" gradientUnits="userSpaceOnUse">
<stop stop-color="#010101" stop-opacity="0"/>
<stop offset="0.95" stop-color="#010101"/>
</linearGradient>
<linearGradient id="paint32_linear" x1="2286.2" y1="1268.24" x2="2539.7" y2="1268.24" gradientUnits="userSpaceOnUse">
<stop stop-color="#E5C6D6"/>
<stop offset="0.42" stop-color="#EAD4D0"/>
<stop offset="1" stop-color="#F0E9CB"/>
</linearGradient>
<linearGradient id="paint33_linear" x1="4142.99" y1="1513.75" x2="4435.03" y2="1513.75" gradientUnits="userSpaceOnUse">
<stop stop-color="#E5C6D6"/>
<stop offset="0.42" stop-color="#EAD4D0"/>
<stop offset="1" stop-color="#F0E9CB"/>
</linearGradient>
<linearGradient id="paint34_linear" x1="160.563" y1="248.201" x2="168.696" y2="182.678" gradientUnits="userSpaceOnUse">
<stop offset="0.02" stop-color="white" stop-opacity="0"/>
<stop offset="0.58" stop-color="white" stop-opacity="0.39"/>
<stop offset="1" stop-color="white"/>
</linearGradient>
<linearGradient id="paint35_linear" x1="97.5382" y1="90.7266" x2="99.421" y2="63.2022" gradientUnits="userSpaceOnUse">
<stop stop-opacity="0"/>
<stop offset="0.639117" stop-opacity="0.75"/>
<stop offset="1"/>
</linearGradient>
<linearGradient id="paint36_linear" x1="110.992" y1="89.3848" x2="111.558" y2="73.5416" gradientUnits="userSpaceOnUse">
<stop stop-opacity="0"/>
<stop offset="0.639117" stop-opacity="0.75"/>
<stop offset="1"/>
</linearGradient>
<linearGradient id="paint37_linear" x1="605.128" y1="1242.62" x2="638.288" y2="1234.73" gradientUnits="userSpaceOnUse">
<stop stop-color="#010101" stop-opacity="0"/>
<stop offset="0.95" stop-color="#010101"/>
</linearGradient>
<linearGradient id="paint38_linear" x1="108.728" y1="74.6542" x2="101.855" y2="74.0907" gradientUnits="userSpaceOnUse">
<stop offset="0.079127"/>
<stop offset="0.83" stop-opacity="0.07"/>
<stop offset="1" stop-opacity="0"/>
</linearGradient>
<clipPath id="clip0">
<rect width="240" height="240" fill="white"/>
</clipPath>
</defs>
</svg>
