<svg width="208" height="208" viewBox="0 0 208 208" fill="none" xmlns="http://www.w3.org/2000/svg">
<path opacity="0.18" d="M204.015 127.398C205.266 111.404 211.615 94.4841 205.124 80.0231C203.421 76.2464 200.978 73.0097 198.246 69.9997C194.635 66.0304 190.523 62.4463 186.928 58.4467C180.567 51.3616 176.929 42.8905 172.028 35.1218C169.997 31.8424 167.687 28.838 165.136 26.1597C164.122 25.1097 163.095 24.0762 162.056 23.059C153.535 14.7842 143.946 7.68024 133.041 3.55607C117.577 -2.26761 99.1925 -1.33476 86.1343 9.31555C81.4335 13.1489 77.626 18.002 73.9541 23.0628C70.9907 27.1303 68.1289 31.3073 64.9622 35.1218C62.1312 38.551 59.063 41.6933 55.4804 44.2123C50.3791 47.804 44.5077 49.9152 39.0953 52.9327C35.6232 54.8678 32.3204 57.2303 29.2378 59.9839C25.1002 63.6668 21.4001 68.0367 18.2435 72.9682C11.3987 83.6638 7.52651 96.5613 7.78835 109.546C7.8284 111.577 7.96394 113.621 8.01631 115.66C8.11879 117.902 8.01338 120.151 7.7021 122.364C7.12913 125.989 5.72135 129.396 4.26736 132.772C2.28661 137.369 0.213441 141.916 0.0162903 146.912C-0.328724 155.501 4.85881 162.858 10.6132 169.146C11.5743 170.196 12.5539 171.219 13.5211 172.212C15.0614 173.799 16.6478 175.385 18.2466 176.952L18.5547 177.254C19.411 178.089 20.2705 178.92 21.1423 179.743C23.3294 181.809 25.5689 183.822 27.8639 185.741C28.8907 186.594 29.9175 187.424 30.9444 188.23C33.3357 190.111 35.8032 191.843 38.3375 193.419C44.594 197.316 51.2756 200.164 58.4654 201.297C78.159 204.318 97.7478 193.581 117.611 195.001C130.644 195.93 142.8 202.026 155.43 205.576C168.06 209.126 182.726 209.693 192.91 200.919C202.296 192.848 205.374 178.905 205.398 166.011C205.423 153.117 203.005 140.25 204.015 127.398Z" fill="#6E71FF"/>
<path opacity="0.6" d="M115.526 49.0234C101.614 49.0393 88.2758 54.5749 78.4385 64.4161C68.6011 74.2572 63.0676 87.6001 63.0518 101.518C63.0518 140.626 110.592 172.778 112.615 174.127C113.48 174.697 114.491 175 115.526 175C116.561 175 117.573 174.697 118.437 174.127C120.46 172.778 168 140.626 168 101.518C167.984 87.6001 162.45 74.2572 152.613 64.4161C142.776 54.5749 129.438 49.0393 115.526 49.0234V49.0234ZM115.526 138.263C108.261 138.263 101.159 136.108 95.1187 132.071C89.0782 128.033 84.3701 122.294 81.59 115.58C78.8099 108.865 78.0824 101.477 79.4998 94.3488C80.9171 87.2208 84.4154 80.6733 89.5525 75.5343C94.6895 70.3953 101.234 66.8956 108.36 65.4777C115.485 64.0599 122.871 64.7876 129.582 67.5688C136.294 70.35 142.031 75.0598 146.067 81.1027C150.103 87.1455 152.258 94.2499 152.258 101.518C152.247 111.26 148.373 120.6 141.487 127.489C134.601 134.378 125.264 138.253 115.526 138.263Z" fill="#6E71FF"/>
<path opacity="0.6" d="M115.526 49.0234C101.614 49.0392 88.2758 54.5749 78.4385 64.4161C68.6011 74.2572 63.0676 87.6001 63.0518 101.518C63.0518 140.626 110.592 172.778 112.615 174.127C113.48 174.697 114.491 175 115.526 175C116.561 175 117.573 174.697 118.437 174.127C120.46 172.778 168 140.626 168 101.518C167.984 87.6001 162.45 74.2572 152.613 64.4161C142.776 54.5749 129.438 49.0392 115.526 49.0234V49.0234ZM115.526 138.263C108.261 138.263 101.159 136.108 95.1187 132.071C89.0782 128.033 84.3701 122.294 81.59 115.58C78.8099 108.865 78.0824 101.477 79.4998 94.3488C80.9171 87.2208 84.4154 80.6733 89.5525 75.5343C94.6895 70.3953 101.234 66.8956 108.36 65.4777C115.485 64.0599 122.871 64.7876 129.582 67.5688C136.294 70.35 142.031 75.0598 146.067 81.1026C150.103 87.1455 152.258 94.2499 152.258 101.518C152.247 111.26 148.373 120.6 141.487 127.489C134.601 134.378 125.264 138.253 115.526 138.263Z" fill="url(#paint0_linear)"/>
<ellipse cx="106.759" cy="98.9642" rx="41.6922" ry="39.8627" fill="#6E71FF"/>
<ellipse cx="106.759" cy="98.9642" rx="41.6922" ry="39.8627" fill="url(#paint1_linear)"/>
<path d="M108.474 46C94.5619 46.0158 81.2241 51.5515 71.3867 61.3926C61.5494 71.2338 56.0158 84.5767 56 98.4941C56 137.602 103.54 169.755 105.564 171.104C106.428 171.673 107.44 171.977 108.474 171.977C109.509 171.977 110.521 171.673 111.385 171.104C113.408 169.755 160.948 137.602 160.948 98.4941C160.932 84.5767 155.399 71.2338 145.561 61.3926C135.724 51.5515 122.386 46.0158 108.474 46V46ZM108.474 135.24C101.209 135.24 94.1074 133.085 88.0669 129.047C82.0264 125.01 77.3184 119.271 74.5382 112.556C71.7581 105.842 71.0307 98.4534 72.448 91.3254C73.8653 84.1974 77.3637 77.6499 82.5007 72.5109C87.6377 67.3719 94.1827 63.8721 101.308 62.4543C108.433 61.0365 115.819 61.7641 122.531 64.5454C129.243 67.3266 134.979 72.0364 139.015 78.0792C143.052 84.122 145.206 91.2265 145.206 98.4941C145.195 108.236 141.321 117.576 134.435 124.465C127.549 131.354 118.213 135.229 108.474 135.24Z" fill="#6E71FF"/>
<path d="M111.097 81.7381H97.9788C96.5871 81.7381 95.2525 82.2911 94.2684 83.2756C93.2843 84.2601 92.7314 85.5953 92.7314 86.9875V118.484H103.226V107.985H111.097C114.577 107.985 117.913 106.602 120.374 104.141C122.834 101.68 124.216 98.3422 124.216 94.8616C124.216 91.381 122.834 88.043 120.374 85.5819C117.913 83.1207 114.577 81.7381 111.097 81.7381ZM111.097 97.4863H103.226V92.2369H111.097C111.793 92.2369 112.461 92.5134 112.953 93.0057C113.445 93.4979 113.721 94.1655 113.721 94.8616C113.721 95.5577 113.445 96.2253 112.953 96.7176C112.461 97.2098 111.793 97.4863 111.097 97.4863Z" fill="#6E71FF"/>
<defs>
<linearGradient id="paint0_linear" x1="115.438" y1="32.3945" x2="115.438" y2="204.227" gradientUnits="userSpaceOnUse">
<stop stop-color="#151515"/>
<stop offset="1" stop-color="#0D0D0D" stop-opacity="0"/>
</linearGradient>
<linearGradient id="paint1_linear" x1="109.5" y1="124.5" x2="106.882" y2="201.697" gradientUnits="userSpaceOnUse">
<stop stop-color="white"/>
<stop offset="1" stop-color="white" stop-opacity="0"/>
</linearGradient>
</defs>
</svg>
