<svg width="208" height="208" viewBox="0 0 208 208" fill="none" xmlns="http://www.w3.org/2000/svg">
<path opacity="0.18" d="M207.357 160.781C206.803 166.99 205.818 173.396 202.832 178.334C200.16 182.798 196.164 185.576 192.194 187.999C166.198 203.741 136.796 207.75 108.07 207.987C85.9418 208.185 63.2592 206.157 42.9978 194.734C23.4288 183.706 6.32707 162.473 1.50536 135.888C1.33096 134.953 1.1822 134.011 1.03858 133.057C-0.213019 124.452 -0.166854 115.55 0.310188 106.781C1.22837 89.9129 3.98803 72.3933 12.385 59.3376C19.7971 47.7961 30.6614 41.1004 40.5407 33.1273C49.0711 26.2407 57.0423 18.182 65.9727 12.1973C77.7705 4.29673 90.9584 0.425436 104.213 0.0238222C127.152 -0.634561 146.408 12.5331 168.383 17.3327C191.399 22.343 191.979 43.9973 194.205 69.7861C195.313 82.5193 199.904 94.2517 203.027 106.425C207.51 123.931 208.987 142.474 207.357 160.781Z" fill="#6E71FF"/>
<path d="M191.525 163.746L157.592 131.809C157.135 131.38 156.532 131.141 155.905 131.141H141.299C139.978 131.141 138.892 132.183 138.84 133.503C138.68 137.483 138.16 141.52 137.294 145.503C137.037 146.686 137.678 147.88 138.806 148.319L188.945 167.832C189.237 167.946 189.539 168 189.837 168C190.662 168 191.457 167.584 191.919 166.853C192.548 165.856 192.383 164.554 191.525 163.746Z" fill="#6E71FF"/>
<path d="M146.728 131.141L183.328 165.646L188.946 167.832C189.237 167.945 189.539 168 189.837 168C190.662 168 191.457 167.584 191.919 166.852C192.548 165.856 192.383 164.554 191.525 163.746L157.592 131.81C157.136 131.38 156.532 131.141 155.905 131.141H146.728Z" fill="#6E71FF"/>
<path d="M146.728 131.141L183.328 165.646L188.946 167.832C189.237 167.945 189.539 168 189.837 168C190.662 168 191.457 167.584 191.919 166.852C192.548 165.856 192.383 164.554 191.525 163.746L157.592 131.81C157.136 131.38 156.532 131.141 155.905 131.141H146.728Z" fill="url(#paint0_linear)" fill-opacity="0.79"/>
<path d="M65.5165 62.7352C62.9171 60.8786 57.5432 59.0847 50.7562 67.9319C50.1337 68.7434 50.0835 69.8541 50.6221 70.7239C50.6687 70.7992 50.7189 70.8712 50.7723 70.9397C52.4233 73.3329 55.1813 75.0245 58.9721 75.9698C61.6726 76.6431 63.9596 76.6787 64.0558 76.6799C64.0658 76.6799 64.0763 76.6799 64.0862 76.6799C64.7332 76.6799 65.3546 76.425 65.8157 75.9698C66.284 75.5077 66.547 74.8769 66.547 74.2191V64.738C66.547 63.9431 66.1632 63.1968 65.5165 62.7352Z" fill="#6E71FF"/>
<path d="M65.5165 62.7352C62.9171 60.8786 57.5432 59.0847 50.7562 67.9319C50.1337 68.7434 50.0835 69.8541 50.6221 70.7239C50.6687 70.7992 50.7189 70.8712 50.7723 70.9397C52.4233 73.3329 55.1813 75.0245 58.9721 75.9698C61.6726 76.6431 63.9596 76.6787 64.0558 76.6799C64.0658 76.6799 64.0763 76.6799 64.0862 76.6799C64.7332 76.6799 65.3546 76.425 65.8157 75.9698C66.284 75.5077 66.547 74.8769 66.547 74.2191V64.738C66.547 63.9431 66.1632 63.1968 65.5165 62.7352Z" fill="url(#paint1_linear)"/>
<path d="M66.1692 50.8192C67.5194 50.8592 68.6551 49.7785 68.6893 48.4199C68.7231 47.0611 67.6488 45.9323 66.29 45.8985C65.638 45.8824 50.2426 45.606 44.8246 54.7031C41.6987 59.9516 42.5924 66.9299 47.4814 75.4441C47.9209 76.2092 48.7356 76.6796 49.6154 76.6796C49.6337 76.6796 49.6515 76.6796 49.6699 76.679C50.5701 76.6592 51.3877 76.1494 51.8018 75.3493C52.8842 73.2565 56.7689 67.0906 60.3005 66.2391C61.1555 66.0329 61.8824 66.1872 62.6563 66.7398C63.7627 67.53 65.3 67.2734 66.0891 66.1677C66.8793 65.0616 66.623 63.5246 65.5172 62.7349C65.1653 62.4836 64.804 62.264 64.4351 62.075L65.9074 50.8172C66.0651 50.8172 66.1564 50.8189 66.1692 50.8192Z" fill="#6E71FF"/>
<path d="M112.936 145.882H105.026L110.156 133.57C110.679 132.316 110.085 130.875 108.831 130.352C107.577 129.83 106.135 130.422 105.612 131.677L99.6936 145.882H87.1122C85.7527 145.882 84.6514 146.984 84.6514 148.343C84.6514 149.702 85.7527 150.803 87.1122 150.803H101.32C101.325 150.803 101.329 150.804 101.334 150.804C101.336 150.804 101.339 150.803 101.342 150.803H112.937C114.296 150.803 115.397 149.701 115.397 148.343C115.398 146.984 114.296 145.882 112.936 145.882Z" fill="#6E71FF"/>
<path d="M112.936 145.882H105.026L110.156 133.57C110.679 132.316 110.085 130.875 108.831 130.352C107.577 129.83 106.135 130.422 105.612 131.677L99.6936 145.882H87.1122C85.7527 145.882 84.6514 146.984 84.6514 148.343C84.6514 149.702 85.7527 150.803 87.1122 150.803H101.32C101.325 150.803 101.329 150.804 101.334 150.804C101.336 150.804 101.339 150.803 101.342 150.803H112.937C114.296 150.803 115.397 149.701 115.397 148.343C115.398 146.984 114.296 145.882 112.936 145.882Z" fill="url(#paint2_linear)" fill-opacity="0.8"/>
<path d="M149.373 123.443L141.551 115.485C140.842 114.763 139.763 114.477 138.823 114.853C137.66 115.317 137.046 116.555 137.341 117.738C138.558 122.611 139.063 127.904 138.842 133.472C138.83 133.788 138.865 134.108 138.971 134.405C139.339 135.437 140.287 136.063 141.3 136.063H148.494H156.567H162.111L157.592 131.81L149.373 123.443Z" fill="#6E71FF"/>
<path d="M151.958 136.063H162.111L157.592 131.81L149.373 123.443L141.552 115.485C140.842 114.763 139.763 114.477 138.823 114.853C137.659 115.317 137.046 116.555 137.341 117.738C137.769 119.45 138.103 121.218 138.354 123.028C139.17 123.728 139.332 124.336 140.342 125.085L151.958 136.063Z" fill="#6E71FF"/>
<path d="M151.958 136.063H162.111L157.592 131.81L149.373 123.443L141.552 115.485C140.842 114.763 139.763 114.477 138.823 114.853C137.659 115.317 137.046 116.555 137.341 117.738C137.769 119.45 138.103 121.218 138.354 123.028C139.17 123.728 139.332 124.336 140.342 125.085L151.958 136.063Z" fill="url(#paint3_linear)"/>
<path d="M138.873 107.394C133.101 95.14 122.481 86.1435 107.308 80.6416L101.478 74.709V64.3399C101.478 50.919 90.5594 40 77.1382 40C68.5843 40 61.625 46.9593 61.625 55.5132V92.6104C61.625 116.57 81.1174 136.063 105.077 136.063H109.207C116.676 142.777 125.897 149.479 136.887 154.684C137.22 154.842 137.58 154.921 137.94 154.921C138.258 154.921 138.575 154.86 138.875 154.737C139.515 154.474 140.016 153.953 140.253 153.303C140.614 152.314 148.97 128.829 138.873 107.394Z" fill="#6E71FF"/>
<path d="M138.873 107.394C133.101 95.14 122.481 86.1435 107.308 80.6416L101.478 74.709V64.3399C101.478 50.919 90.5594 40 77.1381 40C75.6157 40 74.1451 40.2242 72.7539 40.6348C83.5324 43.1362 91.5916 52.8112 91.5916 64.3396V74.7087L97.4219 80.6413C112.594 86.1429 123.214 95.14 128.986 107.393C137.665 125.817 132.711 145.756 130.918 151.622C132.846 152.688 134.836 153.712 136.887 154.684C137.22 154.842 137.58 154.921 137.941 154.921C138.258 154.921 138.575 154.859 138.875 154.736C139.515 154.474 140.016 153.953 140.253 153.302C140.614 152.314 148.97 128.829 138.873 107.394Z" fill="#6E71FF"/>
<path d="M138.873 107.394C133.101 95.14 122.481 86.1435 107.308 80.6416L101.478 74.709V64.3399C101.478 50.919 90.5594 40 77.1381 40C75.6157 40 74.1451 40.2242 72.7539 40.6348C83.5324 43.1362 91.5916 52.8112 91.5916 64.3396V74.7087L97.4219 80.6413C112.594 86.1429 123.214 95.14 128.986 107.393C137.665 125.817 132.711 145.756 130.918 151.622C132.846 152.688 134.836 153.712 136.887 154.684C137.22 154.842 137.58 154.921 137.941 154.921C138.258 154.921 138.575 154.859 138.875 154.736C139.515 154.474 140.016 153.953 140.253 153.302C140.614 152.314 148.97 128.829 138.873 107.394Z" fill="url(#paint4_linear)" fill-opacity="0.6"/>
<path d="M141.649 114.786C141.578 114.549 141.508 114.312 141.434 114.076C141.127 114.129 140.816 114.185 140.501 114.244C119.689 118.147 89.159 108.645 84.6797 107.192C89.7428 114.955 97.8233 125.697 109.157 136.063H109.207C116.676 142.777 125.897 149.478 136.887 154.684C137.22 154.842 137.58 154.921 137.941 154.921C138.258 154.921 138.575 154.86 138.875 154.737C139.515 154.474 140.016 153.953 140.253 153.303C140.572 152.427 147.162 133.902 141.649 114.786Z" fill="#6E71FF"/>
<path d="M141.649 114.786C141.578 114.549 141.508 114.312 141.434 114.076C141.127 114.129 140.816 114.185 140.501 114.244C119.689 118.147 89.159 108.645 84.6797 107.192C89.7428 114.955 97.8233 125.697 109.157 136.063H109.207C116.676 142.777 125.897 149.478 136.887 154.684C137.22 154.842 137.58 154.921 137.941 154.921C138.258 154.921 138.575 154.86 138.875 154.737C139.515 154.474 140.016 153.953 140.253 153.303C140.572 152.427 147.162 133.902 141.649 114.786Z" fill="url(#paint5_linear)"/>
<path d="M143.776 128.076C115.949 133.063 98.2632 122.28 92.0664 117.53C96.5979 123.347 102.277 129.774 109.152 136.063H109.207C116.676 142.777 125.897 149.479 136.887 154.684C137.22 154.842 137.58 154.921 137.94 154.921C138.258 154.921 138.575 154.86 138.875 154.737C139.515 154.474 140.016 153.953 140.253 153.303C140.496 152.635 144.386 141.705 143.776 128.076Z" fill="#6E71FF"/>
<path d="M143.776 128.076C115.949 133.063 98.2632 122.28 92.0664 117.53C96.5979 123.347 102.277 129.774 109.152 136.063H109.207C116.676 142.777 125.897 149.479 136.887 154.684C137.22 154.842 137.58 154.921 137.94 154.921C138.258 154.921 138.575 154.86 138.875 154.737C139.515 154.474 140.016 153.953 140.253 153.303C140.496 152.635 144.386 141.705 143.776 128.076Z" fill="url(#paint6_linear)"/>
<path d="M61.6305 93.0271C62.6418 92.9737 63.7391 92.8352 64.0925 92.8352C64.2596 92.8352 64.4276 92.818 64.5947 92.7833C79.301 89.7183 89.5723 79.043 89.5723 66.8229C89.5723 61.5832 87.6985 56.5108 84.1529 52.1539C80.7931 48.0255 76.0904 44.7242 70.5483 42.604C69.7965 42.2847 68.9372 42.364 68.2531 42.8075C68.1604 42.8726 68.0676 42.9376 67.9761 43.0044C67.8769 43.0773 67.7795 43.1519 67.6824 43.2269C67.5556 43.3248 67.4282 43.4225 67.3045 43.524C67.2237 43.5902 67.1465 43.6596 67.0669 43.7275C66.8388 43.9229 66.6163 44.1247 66.3997 44.3326C66.3122 44.4169 66.2227 44.5003 66.1372 44.5863C66.0358 44.6884 65.9384 44.7936 65.8395 44.8983C65.7407 45.0036 65.6424 45.1097 65.5464 45.2176C65.4622 45.3124 65.3794 45.4083 65.2974 45.5051C65.1814 45.6425 65.0676 45.7825 64.9565 45.9239C64.8994 45.9965 64.8411 46.0682 64.7854 46.1417C64.2462 46.8532 63.7686 47.6067 63.36 48.397C63.3592 48.3993 63.3577 48.4016 63.3568 48.4037C62.6634 49.7459 62.1671 51.1887 61.8877 52.6861C61.8807 52.7229 61.8746 52.7599 61.8679 52.7966C61.8239 53.0422 61.7871 53.2889 61.7551 53.537C61.7469 53.6003 61.7378 53.6636 61.7309 53.7274C61.7043 53.9563 61.6842 54.1867 61.6679 54.4179C61.6629 54.4885 61.6556 54.5585 61.6518 54.6291C61.6352 54.9227 61.625 55.2175 61.625 55.5129V90.3674V92.6101C61.6253 92.7498 61.6294 92.8883 61.6305 93.0271Z" fill="#6E71FF"/>
<path d="M61.6305 93.0271C62.6418 92.9737 63.7391 92.8352 64.0925 92.8352C64.2596 92.8352 64.4276 92.818 64.5947 92.7833C79.301 89.7183 89.5723 79.043 89.5723 66.8229C89.5723 61.5832 87.6985 56.5108 84.1529 52.1539C80.7931 48.0255 76.0904 44.7242 70.5483 42.604C69.7965 42.2847 68.9372 42.364 68.2531 42.8075C68.1604 42.8726 68.0676 42.9376 67.9761 43.0044C67.8769 43.0773 67.7795 43.1519 67.6824 43.2269C67.5556 43.3248 67.4282 43.4225 67.3045 43.524C67.2237 43.5902 67.1465 43.6596 67.0669 43.7275C66.8388 43.9229 66.6163 44.1247 66.3997 44.3326C66.3122 44.4169 66.2227 44.5003 66.1372 44.5863C66.0358 44.6884 65.9384 44.7936 65.8395 44.8983C65.7407 45.0036 65.6424 45.1097 65.5464 45.2176C65.4622 45.3124 65.3794 45.4083 65.2974 45.5051C65.1814 45.6425 65.0676 45.7825 64.9565 45.9239C64.8994 45.9965 64.8411 46.0682 64.7854 46.1417C64.2462 46.8532 63.7686 47.6067 63.36 48.397C63.3592 48.3993 63.3577 48.4016 63.3568 48.4037C62.6634 49.7459 62.1671 51.1887 61.8877 52.6861C61.8807 52.7229 61.8746 52.7599 61.8679 52.7966C61.8239 53.0422 61.7871 53.2889 61.7551 53.537C61.7469 53.6003 61.7378 53.6636 61.7309 53.7274C61.7043 53.9563 61.6842 54.1867 61.6679 54.4179C61.6629 54.4885 61.6556 54.5585 61.6518 54.6291C61.6352 54.9227 61.625 55.2175 61.625 55.5129V90.3674V92.6101C61.6253 92.7498 61.6294 92.8883 61.6305 93.0271Z" fill="url(#paint7_linear)"/>
<path d="M75.9776 62.1652C74.4102 62.1652 73.1348 60.892 73.1348 59.3273C73.1348 57.762 74.4102 56.4894 75.9776 56.4894C77.5449 56.4894 78.8204 57.7626 78.8204 59.3273C78.8207 60.892 77.5455 62.1652 75.9776 62.1652Z" fill="#6E71FF"/>
<path d="M75.9776 62.1652C74.4102 62.1652 73.1348 60.892 73.1348 59.3273C73.1348 57.762 74.4102 56.4894 75.9776 56.4894C77.5449 56.4894 78.8204 57.7626 78.8204 59.3273C78.8207 60.892 77.5455 62.1652 75.9776 62.1652Z" fill="url(#paint8_linear)"/>
<path d="M140.284 153.214C140.29 153.197 140.297 153.179 140.304 153.158C140.309 153.144 140.315 153.127 140.321 153.11C140.329 153.09 140.336 153.068 140.344 153.045C140.352 153.024 140.36 153.001 140.367 152.978C140.376 152.954 140.384 152.929 140.393 152.903C140.403 152.875 140.413 152.845 140.423 152.814C140.431 152.791 140.439 152.766 140.448 152.742C140.46 152.705 140.473 152.667 140.486 152.626C140.494 152.604 140.502 152.579 140.51 152.555C140.525 152.509 140.54 152.463 140.556 152.413C140.562 152.397 140.567 152.379 140.573 152.362C140.66 152.091 140.762 151.768 140.874 151.394C140.877 151.385 140.88 151.376 140.882 151.368C140.909 151.279 140.936 151.187 140.964 151.092C140.969 151.076 140.974 151.061 140.978 151.044C141.005 150.952 141.033 150.857 141.061 150.76C141.067 150.74 141.073 150.719 141.079 150.698C141.107 150.598 141.136 150.495 141.166 150.39C141.17 150.376 141.174 150.362 141.177 150.348C142.885 144.255 145.951 129.701 141.65 114.787C141.649 114.786 141.649 114.785 141.649 114.785C141.579 114.548 141.508 114.312 141.434 114.075C141.127 114.129 140.817 114.184 140.501 114.244C137.763 114.757 134.856 115.037 131.864 115.135C136.347 131.097 132.462 146.573 130.919 151.622C131.488 151.937 132.064 152.246 132.644 152.554C132.828 152.651 133.014 152.748 133.199 152.844C133.631 153.07 134.066 153.293 134.503 153.514C134.687 153.607 134.871 153.7 135.056 153.792C135.662 154.094 136.271 154.392 136.887 154.684C137.22 154.842 137.581 154.921 137.941 154.921C138.258 154.921 138.576 154.86 138.876 154.737C139.516 154.474 140.016 153.953 140.253 153.303C140.258 153.289 140.266 153.269 140.274 153.245C140.276 153.237 140.281 153.225 140.284 153.214Z" fill="#6E71FF"/>
<path d="M140.284 153.214C140.29 153.197 140.297 153.179 140.304 153.158C140.309 153.144 140.315 153.127 140.321 153.11C140.329 153.09 140.336 153.068 140.344 153.045C140.352 153.024 140.36 153.001 140.367 152.978C140.376 152.954 140.384 152.929 140.393 152.903C140.403 152.875 140.413 152.845 140.423 152.814C140.431 152.791 140.439 152.766 140.448 152.742C140.46 152.705 140.473 152.667 140.486 152.626C140.494 152.604 140.502 152.579 140.51 152.555C140.525 152.509 140.54 152.463 140.556 152.413C140.562 152.397 140.567 152.379 140.573 152.362C140.66 152.091 140.762 151.768 140.874 151.394C140.877 151.385 140.88 151.376 140.882 151.368C140.909 151.279 140.936 151.187 140.964 151.092C140.969 151.076 140.974 151.061 140.978 151.044C141.005 150.952 141.033 150.857 141.061 150.76C141.067 150.74 141.073 150.719 141.079 150.698C141.107 150.598 141.136 150.495 141.166 150.39C141.17 150.376 141.174 150.362 141.177 150.348C142.885 144.255 145.951 129.701 141.65 114.787C141.649 114.786 141.649 114.785 141.649 114.785C141.579 114.548 141.508 114.312 141.434 114.075C141.127 114.129 140.817 114.184 140.501 114.244C137.763 114.757 134.856 115.037 131.864 115.135C136.347 131.097 132.462 146.573 130.919 151.622C131.488 151.937 132.064 152.246 132.644 152.554C132.828 152.651 133.014 152.748 133.199 152.844C133.631 153.07 134.066 153.293 134.503 153.514C134.687 153.607 134.871 153.7 135.056 153.792C135.662 154.094 136.271 154.392 136.887 154.684C137.22 154.842 137.581 154.921 137.941 154.921C138.258 154.921 138.576 154.86 138.876 154.737C139.516 154.474 140.016 153.953 140.253 153.303C140.258 153.289 140.266 153.269 140.274 153.245C140.276 153.237 140.281 153.225 140.284 153.214Z" fill="url(#paint9_linear)"/>
<path d="M140.293 153.19C140.303 153.162 140.315 153.127 140.328 153.09C140.333 153.075 140.338 153.061 140.344 153.044C140.383 152.931 140.433 152.784 140.492 152.607C140.497 152.592 140.502 152.575 140.507 152.559C140.535 152.475 140.565 152.385 140.596 152.289C140.599 152.278 140.602 152.268 140.606 152.258C140.677 152.035 140.757 151.779 140.844 151.492C140.849 151.477 140.853 151.462 140.857 151.447C140.991 151.006 141.139 150.492 141.297 149.912C141.299 149.905 141.301 149.897 141.303 149.89C141.464 149.299 141.634 148.64 141.807 147.919C141.808 147.916 141.809 147.914 141.809 147.912C142.623 144.521 143.5 139.757 143.762 134.252C143.763 134.243 143.763 134.232 143.764 134.223C143.818 133.058 143.846 131.86 143.839 130.636C143.839 130.612 143.839 130.588 143.839 130.563C143.834 129.746 143.813 128.916 143.776 128.076C140.339 128.692 137.057 129.066 133.931 129.242C134.205 139.522 131.994 148.103 130.919 151.622C131.488 151.937 132.064 152.247 132.644 152.554C132.828 152.651 133.014 152.748 133.199 152.845C133.631 153.07 134.066 153.293 134.503 153.514C134.687 153.607 134.871 153.7 135.056 153.793C135.662 154.094 136.271 154.392 136.887 154.684C137.22 154.842 137.581 154.921 137.941 154.921C138.258 154.921 138.576 154.86 138.876 154.737C139.516 154.474 140.016 153.954 140.253 153.303C140.26 153.285 140.27 153.256 140.282 153.224C140.285 153.214 140.289 153.201 140.293 153.19Z" fill="#6E71FF"/>
<path d="M140.293 153.19C140.303 153.162 140.315 153.127 140.328 153.09C140.333 153.075 140.338 153.061 140.344 153.044C140.383 152.931 140.433 152.784 140.492 152.607C140.497 152.592 140.502 152.575 140.507 152.559C140.535 152.475 140.565 152.385 140.596 152.289C140.599 152.278 140.602 152.268 140.606 152.258C140.677 152.035 140.757 151.779 140.844 151.492C140.849 151.477 140.853 151.462 140.857 151.447C140.991 151.006 141.139 150.492 141.297 149.912C141.299 149.905 141.301 149.897 141.303 149.89C141.464 149.299 141.634 148.64 141.807 147.919C141.808 147.916 141.809 147.914 141.809 147.912C142.623 144.521 143.5 139.757 143.762 134.252C143.763 134.243 143.763 134.232 143.764 134.223C143.818 133.058 143.846 131.86 143.839 130.636C143.839 130.612 143.839 130.588 143.839 130.563C143.834 129.746 143.813 128.916 143.776 128.076C140.339 128.692 137.057 129.066 133.931 129.242C134.205 139.522 131.994 148.103 130.919 151.622C131.488 151.937 132.064 152.247 132.644 152.554C132.828 152.651 133.014 152.748 133.199 152.845C133.631 153.07 134.066 153.293 134.503 153.514C134.687 153.607 134.871 153.7 135.056 153.793C135.662 154.094 136.271 154.392 136.887 154.684C137.22 154.842 137.581 154.921 137.941 154.921C138.258 154.921 138.576 154.86 138.876 154.737C139.516 154.474 140.016 153.954 140.253 153.303C140.26 153.285 140.27 153.256 140.282 153.224C140.285 153.214 140.289 153.201 140.293 153.19Z" fill="url(#paint10_linear)" fill-opacity="0.4"/>
<defs>
<linearGradient id="paint0_linear" x1="193.611" y1="136.659" x2="150.017" y2="152.406" gradientUnits="userSpaceOnUse">
<stop/>
<stop offset="1" stop-opacity="0"/>
</linearGradient>
<linearGradient id="paint1_linear" x1="58.399" y1="61.2122" x2="58.399" y2="76.6799" gradientUnits="userSpaceOnUse">
<stop/>
<stop offset="1" stop-opacity="0"/>
</linearGradient>
<linearGradient id="paint2_linear" x1="100.024" y1="130.162" x2="89.0732" y2="194.105" gradientUnits="userSpaceOnUse">
<stop/>
<stop offset="1" stop-opacity="0"/>
</linearGradient>
<linearGradient id="paint3_linear" x1="175.533" y1="95.8352" x2="151.621" y2="145.262" gradientUnits="userSpaceOnUse">
<stop/>
<stop offset="1" stop-opacity="0"/>
</linearGradient>
<linearGradient id="paint4_linear" x1="108.318" y1="16.9571" x2="108.298" y2="154.921" gradientUnits="userSpaceOnUse">
<stop/>
<stop offset="1" stop-opacity="0"/>
</linearGradient>
<linearGradient id="paint5_linear" x1="111.818" y1="109.978" x2="114.26" y2="154.921" gradientUnits="userSpaceOnUse">
<stop stop-color="white"/>
<stop offset="1" stop-color="white" stop-opacity="0"/>
</linearGradient>
<linearGradient id="paint6_linear" x1="114.442" y1="97.439" x2="117.954" y2="154.921" gradientUnits="userSpaceOnUse">
<stop stop-color="white"/>
<stop offset="1" stop-color="white" stop-opacity="0"/>
</linearGradient>
<linearGradient id="paint7_linear" x1="74.2009" y1="43.4928" x2="34.5431" y2="128.057" gradientUnits="userSpaceOnUse">
<stop stop-color="white"/>
<stop offset="1" stop-color="white" stop-opacity="0"/>
</linearGradient>
<linearGradient id="paint8_linear" x1="75.9776" y1="56.4894" x2="75.9505" y2="73.5277" gradientUnits="userSpaceOnUse">
<stop/>
<stop offset="1" stop-opacity="0"/>
</linearGradient>
<linearGradient id="paint9_linear" x1="129.751" y1="110.561" x2="146.08" y2="149.052" gradientUnits="userSpaceOnUse">
<stop stop-color="white"/>
<stop offset="1" stop-color="white" stop-opacity="0"/>
</linearGradient>
<linearGradient id="paint10_linear" x1="157.453" y1="136.659" x2="139.228" y2="161.3" gradientUnits="userSpaceOnUse">
<stop/>
<stop offset="1" stop-opacity="0"/>
</linearGradient>
</defs>
</svg>
