<svg width="208" height="208" viewBox="0 0 208 208" fill="none" xmlns="http://www.w3.org/2000/svg">
<path opacity="0.18" d="M207.995 150.775C208.327 175.661 191.696 199.325 170.959 203.498C161.254 205.46 151.353 203.57 141.497 203.053C120.059 201.947 98.6698 207.386 77.2693 207.957C72.9371 208.073 68.5975 207.957 64.254 207.596C49.9732 206.317 36.0274 201.845 23.1571 194.417C17.6675 191.251 12.3098 187.471 8.3132 182.032C-0.260592 170.378 -1.0863 153.32 0.896908 138.073C2.88012 122.826 7.24242 107.921 7.46487 92.4868C7.62323 81.7111 5.75313 71.0513 5.27429 60.289C4.79546 49.5266 5.90017 38.1134 11.2579 29.4019C16.6155 20.6904 25.5324 15.9155 34.4644 13.838C43.3964 11.7604 52.5621 12.0324 61.66 11.3636C80.4779 9.99937 98.9036 4.57362 117.612 1.86744C145.513 -2.17624 190.38 -3.48252 193.468 39.6961C193.705 43.2674 193.77 46.8517 193.664 50.4317C193.393 62.3576 191.843 74.3282 193.125 86.1649C195.523 108.407 207.693 128.363 207.995 150.775Z" fill="#6E71FF"/>
<path d="M113.774 42.0135L109.069 40.5355L110.355 29.4619H110.732C111.199 29.0849 112.564 27.4523 112.198 26.242C111.87 25.1336 110.106 24.6887 108.677 24.5039C106.648 24.2475 105.321 24.4775 104.835 25.1637C104.183 26.0912 105.042 27.8331 105.431 28.4251L105.532 28.5797L104.824 39.2838L99.6016 37.8435L99.8957 36.784L103.677 37.8435L104.273 28.7946C103.896 28.18 102.765 25.997 103.779 24.5378C104.533 23.4671 106.207 23.0862 108.764 23.4067C112.756 23.9157 113.522 25.5672 113.465 26.8642C113.409 28.1612 112.311 29.7523 111.486 30.3442L110.389 39.7701L114.114 40.939L113.774 42.0135Z" fill="#6E71FF"/>
<path d="M113.774 42.0135L109.069 40.5355L110.355 29.4619H110.732C111.199 29.0849 112.564 27.4523 112.198 26.242C111.87 25.1336 110.106 24.6887 108.677 24.5039C106.648 24.2475 105.321 24.4775 104.835 25.1637C104.183 26.0912 105.042 27.8331 105.431 28.4251L105.532 28.5797L104.824 39.2838L99.6016 37.8435L99.8957 36.784L103.677 37.8435L104.273 28.7946C103.896 28.18 102.765 25.997 103.779 24.5378C104.533 23.4671 106.207 23.0862 108.764 23.4067C112.756 23.9157 113.522 25.5672 113.465 26.8642C113.409 28.1612 112.311 29.7523 111.486 30.3442L110.389 39.7701L114.114 40.939L113.774 42.0135Z" fill="url(#paint0_linear)"/>
<path d="M152.244 173.622H57.5817L51.6924 168.773L57.5817 41.0934L146.355 36.2448L152.244 41.0934V173.622Z" fill="#6E71FF"/>
<path d="M152.244 173.622H57.5817L51.6924 168.773L57.5817 41.0934L146.355 36.2448L152.244 41.0934V173.622Z" fill="url(#paint1_linear)"/>
<path d="M149.126 171.311L56.0811 171.544L51.6924 168.773L54.8105 40.6334L146 37L149.473 40.6334L149.126 171.311Z" fill="url(#paint2_linear)"/>
<path d="M146.355 36.2448H51.6924V168.773H146.355V36.2448Z" fill="white"/>
<path d="M81.5235 45.467C81.4745 45.8025 81.4518 46.2211 81.7233 46.4096C81.8713 46.4987 82.0408 46.5456 82.2135 46.5453C90.9339 47.2999 99.7173 46.8124 108.301 45.0975C109.715 44.8147 111.426 44.1662 111.528 42.7297C111.622 41.4553 110.397 39.8981 111.385 39.0988C111.755 38.8769 112.178 38.7584 112.61 38.7557C113.393 38.6414 114.141 38.3549 114.801 37.9168C115.46 37.4786 116.013 36.8999 116.422 36.222L91.6695 36.0222C89.2641 36.0034 84.8829 34.9929 83.1636 37.1533C81.8327 38.8085 81.5235 43.4989 81.5235 45.467Z" fill="url(#paint3_linear)"/>
<path d="M108.951 42.0736H83.3242L81.5898 26.1438L107.39 25.9703L108.951 42.0736Z" fill="#6E71FF"/>
<path d="M107.392 25.9703L116.919 30.7059L115.532 36.2446H108.489L107.392 25.9703Z" fill="#6E71FF"/>
<path d="M107.392 25.9703L116.919 30.7059L115.532 36.2446H108.489L107.392 25.9703Z" fill="url(#paint4_linear)"/>
<path d="M101.657 41.8247L96.725 41.6325L95.0208 29.3184L95.3752 29.2279C95.7259 28.6775 96.6081 26.5208 95.9332 25.3218C95.3224 24.2284 93.5013 24.2699 92.0799 24.4999C90.0552 24.8241 88.8336 25.4651 88.5509 26.3511C88.1738 27.5426 89.4595 29.1638 89.9874 29.6879L90.1269 29.8237L92.2873 41.5646H86.873V40.3355H90.8131L88.9882 30.4194C88.4755 29.8651 86.7826 27.8593 87.382 25.9779C87.8194 24.6017 89.3351 23.6968 91.9065 23.2858C95.888 22.6486 97.0643 24.1983 97.3584 25.6159C97.6525 27.0336 97.0116 29.0696 96.3744 29.9519L97.8222 40.441L101.725 40.5956L101.657 41.8247Z" fill="#6E71FF"/>
<path d="M101.657 41.8247L96.725 41.6325L95.0208 29.3184L95.3752 29.2279C95.7259 28.6775 96.6081 26.5208 95.9332 25.3218C95.3224 24.2284 93.5013 24.2699 92.0799 24.4999C90.0552 24.8241 88.8336 25.4651 88.5509 26.3511C88.1738 27.5426 89.4595 29.1638 89.9874 29.6879L90.1269 29.8237L92.2873 41.5646H86.873V40.3355H90.8131L88.9882 30.4194C88.4755 29.8651 86.7826 27.8593 87.382 25.9779C87.8194 24.6017 89.3351 23.6968 91.9065 23.2858C95.888 22.6486 97.0643 24.1983 97.3584 25.6159C97.6525 27.0336 97.0116 29.0696 96.3744 29.9519L97.8222 40.441L101.725 40.5956L101.657 41.8247Z" fill="url(#paint5_linear)"/>
<path d="M95.1 56.4463H66.0078V93.1584H95.1V56.4463Z" fill="#6E71FF"/>
<path d="M95.1 56.4463H66.0078V93.1584H95.1V56.4463Z" fill="url(#paint6_linear)"/>
<path d="M133.543 61.5287H105.604C104.775 61.5287 104.104 62.2005 104.104 63.0293C104.104 63.8581 104.775 64.5299 105.604 64.5299H133.543C134.371 64.5299 135.043 63.8581 135.043 63.0293C135.043 62.2005 134.371 61.5287 133.543 61.5287Z" fill="#6E71FF"/>
<path d="M133.543 61.5287H105.604C104.775 61.5287 104.104 62.2005 104.104 63.0293C104.104 63.8581 104.775 64.5299 105.604 64.5299H133.543C134.371 64.5299 135.043 63.8581 135.043 63.0293C135.043 62.2005 134.371 61.5287 133.543 61.5287Z" fill="url(#paint7_linear)"/>
<path d="M133.543 68.1083H105.604C104.775 68.1083 104.104 68.7801 104.104 69.6089C104.104 70.4376 104.775 71.1095 105.604 71.1095H133.543C134.371 71.1095 135.043 70.4376 135.043 69.6089C135.043 68.7801 134.371 68.1083 133.543 68.1083Z" fill="#6E71FF"/>
<path d="M133.543 68.1083H105.604C104.775 68.1083 104.104 68.7801 104.104 69.6089C104.104 70.4376 104.775 71.1095 105.604 71.1095H133.543C134.371 71.1095 135.043 70.4376 135.043 69.6089C135.043 68.7801 134.371 68.1083 133.543 68.1083Z" fill="url(#paint8_linear)"/>
<path d="M133.543 77.6886H105.604C104.775 77.6886 104.104 78.3604 104.104 79.1892C104.104 80.018 104.775 80.6898 105.604 80.6898H133.543C134.371 80.6898 135.043 80.018 135.043 79.1892C135.043 78.3604 134.371 77.6886 133.543 77.6886Z" fill="#6E71FF"/>
<path d="M133.543 77.6886H105.604C104.775 77.6886 104.104 78.3604 104.104 79.1892C104.104 80.018 104.775 80.6898 105.604 80.6898H133.543C134.371 80.6898 135.043 80.018 135.043 79.1892C135.043 78.3604 134.371 77.6886 133.543 77.6886Z" fill="url(#paint9_linear)"/>
<path d="M133.543 84.2681H105.604C104.775 84.2681 104.104 84.9399 104.104 85.7687C104.104 86.5974 104.775 87.2693 105.604 87.2693H133.543C134.371 87.2693 135.043 86.5974 135.043 85.7687C135.043 84.9399 134.371 84.2681 133.543 84.2681Z" fill="#6E71FF"/>
<path d="M133.543 84.2681H105.604C104.775 84.2681 104.104 84.9399 104.104 85.7687C104.104 86.5974 104.775 87.2693 105.604 87.2693H133.543C134.371 87.2693 135.043 86.5974 135.043 85.7687C135.043 84.9399 134.371 84.2681 133.543 84.2681Z" fill="url(#paint10_linear)"/>
<path d="M115.879 114.748H87.9401C87.1113 114.748 86.4395 115.42 86.4395 116.248C86.4395 117.077 87.1113 117.749 87.9401 117.749H115.879C116.707 117.749 117.379 117.077 117.379 116.248C117.379 115.42 116.707 114.748 115.879 114.748Z" fill="#6E71FF"/>
<path d="M115.879 114.748H87.9401C87.1113 114.748 86.4395 115.42 86.4395 116.248C86.4395 117.077 87.1113 117.749 87.9401 117.749H115.879C116.707 117.749 117.379 117.077 117.379 116.248C117.379 115.42 116.707 114.748 115.879 114.748Z" fill="url(#paint11_linear)"/>
<path d="M115.879 121.327H87.9401C87.1113 121.327 86.4395 121.999 86.4395 122.828C86.4395 123.656 87.1113 124.328 87.9401 124.328H115.879C116.707 124.328 117.379 123.656 117.379 122.828C117.379 121.999 116.707 121.327 115.879 121.327Z" fill="#6E71FF"/>
<path d="M115.879 121.327H87.9401C87.1113 121.327 86.4395 121.999 86.4395 122.828C86.4395 123.656 87.1113 124.328 87.9401 124.328H115.879C116.707 124.328 117.379 123.656 117.379 122.828C117.379 121.999 116.707 121.327 115.879 121.327Z" fill="url(#paint12_linear)"/>
<path d="M115.879 136.91H87.9401C87.1113 136.91 86.4395 137.582 86.4395 138.41C86.4395 139.239 87.1113 139.911 87.9401 139.911H115.879C116.707 139.911 117.379 139.239 117.379 138.41C117.379 137.582 116.707 136.91 115.879 136.91Z" fill="#6E71FF"/>
<path d="M115.879 136.91H87.9401C87.1113 136.91 86.4395 137.582 86.4395 138.41C86.4395 139.239 87.1113 139.911 87.9401 139.911H115.879C116.707 139.911 117.379 139.239 117.379 138.41C117.379 137.582 116.707 136.91 115.879 136.91Z" fill="url(#paint13_linear)"/>
<path d="M115.879 143.489H87.9401C87.1113 143.489 86.4395 144.161 86.4395 144.99C86.4395 145.819 87.1113 146.49 87.9401 146.49H115.879C116.707 146.49 117.379 145.819 117.379 144.99C117.379 144.161 116.707 143.489 115.879 143.489Z" fill="#6E71FF"/>
<path d="M115.879 143.489H87.9401C87.1113 143.489 86.4395 144.161 86.4395 144.99C86.4395 145.819 87.1113 146.49 87.9401 146.49H115.879C116.707 146.49 117.379 145.819 117.379 144.99C117.379 144.161 116.707 143.489 115.879 143.489Z" fill="url(#paint14_linear)"/>
<path d="M133.539 98.1241H66.8151C65.9863 98.1241 65.3145 98.796 65.3145 99.6248C65.3145 100.454 65.9863 101.125 66.8151 101.125H133.539C134.368 101.125 135.04 100.454 135.04 99.6248C135.04 98.796 134.368 98.1241 133.539 98.1241Z" fill="#6E71FF"/>
<path d="M133.539 98.1241H66.8151C65.9863 98.1241 65.3145 98.796 65.3145 99.6248C65.3145 100.454 65.9863 101.125 66.8151 101.125H133.539C134.368 101.125 135.04 100.454 135.04 99.6248C135.04 98.796 134.368 98.1241 133.539 98.1241Z" fill="url(#paint15_linear)"/>
<path d="M133.539 104.703H66.8151C65.9863 104.703 65.3145 105.375 65.3145 106.204C65.3145 107.033 65.9863 107.705 66.8151 107.705H133.539C134.368 107.705 135.04 107.033 135.04 106.204C135.04 105.375 134.368 104.703 133.539 104.703Z" fill="#6E71FF"/>
<path d="M133.539 104.703H66.8151C65.9863 104.703 65.3145 105.375 65.3145 106.204C65.3145 107.033 65.9863 107.705 66.8151 107.705H133.539C134.368 107.705 135.04 107.033 135.04 106.204C135.04 105.375 134.368 104.703 133.539 104.703Z" fill="url(#paint16_linear)"/>
<path d="M133.539 104.703H66.8151C65.9863 104.703 65.3145 105.375 65.3145 106.204C65.3145 107.033 65.9863 107.705 66.8151 107.705H133.539C134.368 107.705 135.04 107.033 135.04 106.204C135.04 105.375 134.368 104.703 133.539 104.703Z" fill="url(#paint17_linear)"/>
<path d="M80.901 112.9H68.7793V123.635H80.901V112.9Z" fill="#6E71FF"/>
<path d="M80.901 112.9H68.7793V123.635H80.901V112.9Z" fill="url(#paint18_linear)"/>
<path d="M80.901 136.45H68.7793V147.184H80.901V136.45Z" fill="#6E71FF"/>
<path d="M80.901 136.45H68.7793V147.184H80.901V136.45Z" fill="url(#paint19_linear)"/>
<defs>
<linearGradient id="paint0_linear" x1="106.598" y1="-1.61557" x2="102.115" y2="53.5427" gradientUnits="userSpaceOnUse">
<stop offset="0.38383" stop-opacity="0.75"/>
<stop offset="0.908533" stop-opacity="0"/>
</linearGradient>
<linearGradient id="paint1_linear" x1="113.256" y1="188.577" x2="125.473" y2="-81.9005" gradientUnits="userSpaceOnUse">
<stop stop-opacity="0"/>
<stop offset="0.639117" stop-opacity="0.75"/>
<stop offset="1"/>
</linearGradient>
<linearGradient id="paint2_linear" x1="111.56" y1="186.323" x2="123.828" y2="-80.9517" gradientUnits="userSpaceOnUse">
<stop stop-opacity="0"/>
<stop offset="0.639117" stop-opacity="0.75"/>
<stop offset="1"/>
</linearGradient>
<linearGradient id="paint3_linear" x1="90.5669" y1="50.2667" x2="97.1452" y2="18.6237" gradientUnits="userSpaceOnUse">
<stop stop-opacity="0"/>
<stop offset="0.799692" stop-opacity="0.51"/>
<stop offset="0.99"/>
</linearGradient>
<linearGradient id="paint4_linear" x1="115.325" y1="30.3412" x2="104.944" y2="29.9047" gradientUnits="userSpaceOnUse">
<stop stop-opacity="0"/>
<stop offset="0.639117" stop-opacity="0.75"/>
<stop offset="1"/>
</linearGradient>
<linearGradient id="paint5_linear" x1="94.0332" y1="-1.73339" x2="89.6658" y2="53.3527" gradientUnits="userSpaceOnUse">
<stop offset="0.38383" stop-opacity="0.75"/>
<stop offset="0.908533" stop-opacity="0"/>
</linearGradient>
<linearGradient id="paint6_linear" x1="70.6138" y1="29.832" x2="111.44" y2="31.2413" gradientUnits="userSpaceOnUse">
<stop stop-opacity="0"/>
<stop offset="0.87783" stop-opacity="0.75"/>
<stop offset="1"/>
</linearGradient>
<linearGradient id="paint7_linear" x1="109.002" y1="59.353" x2="145.178" y2="75.5979" gradientUnits="userSpaceOnUse">
<stop stop-opacity="0"/>
<stop offset="0.87783" stop-opacity="0.75"/>
<stop offset="1"/>
</linearGradient>
<linearGradient id="paint8_linear" x1="109.002" y1="65.9326" x2="145.178" y2="82.1776" gradientUnits="userSpaceOnUse">
<stop stop-opacity="0"/>
<stop offset="0.87783" stop-opacity="0.75"/>
<stop offset="1"/>
</linearGradient>
<linearGradient id="paint9_linear" x1="109.002" y1="75.5129" x2="145.178" y2="91.7579" gradientUnits="userSpaceOnUse">
<stop stop-opacity="0"/>
<stop offset="0.87783" stop-opacity="0.75"/>
<stop offset="1"/>
</linearGradient>
<linearGradient id="paint10_linear" x1="109.002" y1="82.0924" x2="145.178" y2="98.3373" gradientUnits="userSpaceOnUse">
<stop stop-opacity="0"/>
<stop offset="0.87783" stop-opacity="0.75"/>
<stop offset="1"/>
</linearGradient>
<linearGradient id="paint11_linear" x1="91.3379" y1="112.572" x2="127.513" y2="128.817" gradientUnits="userSpaceOnUse">
<stop stop-opacity="0"/>
<stop offset="0.87783" stop-opacity="0.75"/>
<stop offset="1"/>
</linearGradient>
<linearGradient id="paint12_linear" x1="91.3379" y1="119.151" x2="127.513" y2="135.396" gradientUnits="userSpaceOnUse">
<stop stop-opacity="0"/>
<stop offset="0.87783" stop-opacity="0.75"/>
<stop offset="1"/>
</linearGradient>
<linearGradient id="paint13_linear" x1="91.3379" y1="134.734" x2="127.513" y2="150.979" gradientUnits="userSpaceOnUse">
<stop stop-opacity="0"/>
<stop offset="0.87783" stop-opacity="0.75"/>
<stop offset="1"/>
</linearGradient>
<linearGradient id="paint14_linear" x1="91.3379" y1="141.314" x2="127.513" y2="157.559" gradientUnits="userSpaceOnUse">
<stop stop-opacity="0"/>
<stop offset="0.87783" stop-opacity="0.75"/>
<stop offset="1"/>
</linearGradient>
<linearGradient id="paint15_linear" x1="76.3536" y1="95.9484" x2="124.752" y2="144.927" gradientUnits="userSpaceOnUse">
<stop stop-opacity="0"/>
<stop offset="0.87783" stop-opacity="0.75"/>
<stop offset="1"/>
</linearGradient>
<linearGradient id="paint16_linear" x1="76.3536" y1="102.528" x2="124.752" y2="151.507" gradientUnits="userSpaceOnUse">
<stop stop-opacity="0"/>
<stop offset="0.87783" stop-opacity="0.75"/>
<stop offset="1"/>
</linearGradient>
<linearGradient id="paint17_linear" x1="76.3536" y1="102.528" x2="124.752" y2="151.507" gradientUnits="userSpaceOnUse">
<stop stop-opacity="0"/>
<stop offset="0.87783" stop-opacity="0.75"/>
<stop offset="1"/>
</linearGradient>
<linearGradient id="paint18_linear" x1="70.6984" y1="105.119" x2="87.6885" y2="105.954" gradientUnits="userSpaceOnUse">
<stop stop-opacity="0"/>
<stop offset="0.87783" stop-opacity="0.75"/>
<stop offset="1"/>
</linearGradient>
<linearGradient id="paint19_linear" x1="70.6984" y1="128.668" x2="87.6885" y2="129.504" gradientUnits="userSpaceOnUse">
<stop stop-opacity="0"/>
<stop offset="0.87783" stop-opacity="0.75"/>
<stop offset="1"/>
</linearGradient>
</defs>
</svg>
