<svg width="208" height="208" viewBox="0 0 208 208" fill="none" xmlns="http://www.w3.org/2000/svg">
<path opacity="0.18" d="M185.504 133.455C190.016 144.398 194.614 157.369 190.755 168.714C188.036 176.683 181.843 181.486 175.894 185.439C166.036 191.966 155.836 197.568 145.37 202.202C138.955 205.031 132.361 207.52 125.606 207.939C109.786 208.889 95.0735 198.539 80.2592 191.209C64.5286 183.42 47.9738 178.846 31.1776 177.649C26.4944 177.309 21.7382 177.234 17.2517 175.43C6.40994 171.058 -1.18599 155.793 0.152974 141.071C1.12388 130.335 6.16245 120.84 8.25339 110.474C8.66983 108.458 8.94908 106.398 9.08786 104.318C9.72244 94.2422 6.53368 83.5773 9.63043 74.2979C11.2899 69.3657 14.5357 65.6199 18.0132 62.7619C28.8011 53.8724 42.3399 51.8647 52.7502 42.27C59.9051 35.6661 65.0071 26.0092 70.8579 17.4765C76.7087 8.9437 84.0826 1.06635 92.8112 0.103979C104.868 -1.23173 116.976 10.5656 125.619 20.3013C134.887 30.734 145.04 37.5286 156.986 41.9506C160.81 43.3651 164.693 44.4892 168.58 45.6466H168.602C173.581 47.1399 178.549 48.683 183.34 50.9645C191.872 55.0463 200.109 61.9737 204.151 72.6137C206.487 78.7488 207.274 85.6763 207.74 92.5249C208.375 101.651 208.184 111.984 203.231 118.476C199.297 123.636 193.138 125.246 188.712 129.394C188.541 129.539 188.369 129.701 188.198 129.875C187.163 130.878 186.255 132.086 185.504 133.455Z" fill="#6E71FF"/>
<path d="M146.278 80.8666H64.201C57.4705 80.8666 52 86.3371 52 93.0676V148.525C52 155.255 57.4705 160.726 64.201 160.726H146.278C153.008 160.726 158.479 155.255 158.479 148.525V93.0676C158.479 86.3371 153.008 80.8666 146.278 80.8666Z" fill="#6E71FF"/>
<path d="M146.278 80.8666H64.201C57.4705 80.8666 52 86.3371 52 93.0676V148.525C52 155.255 57.4705 160.726 64.201 160.726H146.278C153.008 160.726 158.479 155.255 158.479 148.525V93.0676C158.479 86.3371 153.008 80.8666 146.278 80.8666Z" fill="url(#paint0_linear)" fill-opacity="0.5"/>
<path d="M143.278 76.8666H61.201C54.4705 76.8666 49 82.3371 49 89.0676V144.525C49 151.255 54.4705 156.726 61.201 156.726H143.278C150.008 156.726 155.479 151.255 155.479 144.525V89.0676C155.479 82.3371 150.008 76.8666 143.278 76.8666Z" fill="#6E71FF"/>
<path d="M143.278 76.8666H61.201C54.4705 76.8666 49 82.3371 49 89.0676V144.525C49 151.255 54.4705 156.726 61.201 156.726H143.278C150.008 156.726 155.479 151.255 155.479 144.525V89.0676C155.479 82.3371 150.008 76.8666 143.278 76.8666Z" fill="url(#paint1_linear)"/>
<path d="M139.739 76.1429H60.3366C53.8255 76.1429 48.5332 81.4351 48.5332 87.9463V141.597C48.5332 148.108 53.8255 153.4 60.3366 153.4H139.739C146.25 153.4 151.543 148.108 151.543 141.597V87.9463C151.543 81.4351 146.25 76.1429 139.739 76.1429Z" fill="#6E71FF"/>
<path d="M139.739 76.1429H60.3366C53.8255 76.1429 48.5332 81.4351 48.5332 87.9463V141.597C48.5332 148.108 53.8255 153.4 60.3366 153.4H139.739C146.25 153.4 151.543 148.108 151.543 141.597V87.9463C151.543 81.4351 146.25 76.1429 139.739 76.1429Z" fill="url(#paint2_linear)"/>
<path d="M91.4539 104.042C91.4539 109.967 86.6505 114.771 80.724 114.771C74.7976 114.771 69.9941 109.967 69.9941 104.042C69.9941 98.1151 74.7976 93.3109 80.724 93.3109C86.6505 93.3109 91.4539 98.1151 91.4539 104.042Z" fill="#6E71FF"/>
<path d="M88.2343 119.063H73.2126C66.7014 119.063 61.4092 124.355 61.4092 130.867V133.013C61.4092 134.79 62.8513 136.232 64.6282 136.232H96.8187C98.5956 136.232 100.038 134.79 100.038 133.013V130.867C100.038 124.355 94.7455 119.063 88.2343 119.063Z" fill="#6E71FF"/>
<path d="M135.447 101.895H111.841C110.064 101.895 108.622 100.453 108.622 98.6762C108.622 96.8992 110.064 95.4571 111.841 95.4571H135.447C137.224 95.4571 138.666 96.8992 138.666 98.6762C138.666 100.453 137.224 101.895 135.447 101.895Z" fill="#6E71FF"/>
<path d="M135.447 101.895H111.841C110.064 101.895 108.622 100.453 108.622 98.6762C108.622 96.8992 110.064 95.4571 111.841 95.4571H135.447C137.224 95.4571 138.666 96.8992 138.666 98.6762C138.666 100.453 137.224 101.895 135.447 101.895Z" fill="url(#paint3_linear)"/>
<path d="M135.447 119.063H111.841C110.064 119.063 108.622 117.621 108.622 115.844C108.622 114.067 110.064 112.625 111.841 112.625H135.447C137.224 112.625 138.666 114.067 138.666 115.844C138.666 117.621 137.224 119.063 135.447 119.063Z" fill="#6E71FF"/>
<path d="M135.447 119.063H111.841C110.064 119.063 108.622 117.621 108.622 115.844C108.622 114.067 110.064 112.625 111.841 112.625H135.447C137.224 112.625 138.666 114.067 138.666 115.844C138.666 117.621 137.224 119.063 135.447 119.063Z" fill="url(#paint4_linear)"/>
<path d="M135.447 136.232H111.841C110.064 136.232 108.622 134.79 108.622 133.013C108.622 131.236 110.064 129.794 111.841 129.794H135.447C137.224 129.794 138.666 131.236 138.666 133.013C138.666 134.79 137.224 136.232 135.447 136.232Z" fill="#6E71FF"/>
<path d="M135.447 136.232H111.841C110.064 136.232 108.622 134.79 108.622 133.013C108.622 131.236 110.064 129.794 111.841 129.794H135.447C137.224 129.794 138.666 131.236 138.666 133.013C138.666 134.79 137.224 136.232 135.447 136.232Z" fill="url(#paint5_linear)"/>
<rect x="93" y="82" width="48" height="11" rx="5" fill="#6E71FF"/>
<rect x="93" y="82" width="48" height="11" rx="5" fill="url(#paint6_linear)"/>
<defs>
<linearGradient id="paint0_linear" x1="111.126" y1="69.7964" x2="108.439" y2="190.737" gradientUnits="userSpaceOnUse">
<stop stop-color="#101010"/>
<stop offset="1" stop-color="white" stop-opacity="0"/>
</linearGradient>
<linearGradient id="paint1_linear" x1="108.126" y1="65.7964" x2="105.439" y2="186.737" gradientUnits="userSpaceOnUse">
<stop stop-color="white"/>
<stop offset="1" stop-color="white" stop-opacity="0"/>
</linearGradient>
<linearGradient id="paint2_linear" x1="101.833" y1="153.4" x2="102.267" y2="243.967" gradientUnits="userSpaceOnUse">
<stop stop-color="white"/>
<stop offset="1" stop-color="white" stop-opacity="0"/>
</linearGradient>
<linearGradient id="paint3_linear" x1="123.644" y1="95.4571" x2="123.933" y2="107.9" gradientUnits="userSpaceOnUse">
<stop stop-color="#131313"/>
<stop offset="1" stop-color="#1C1C1C" stop-opacity="0"/>
</linearGradient>
<linearGradient id="paint4_linear" x1="123.644" y1="112.625" x2="123.933" y2="122.633" gradientUnits="userSpaceOnUse">
<stop stop-color="#131313"/>
<stop offset="1" stop-color="#1C1C1C" stop-opacity="0"/>
</linearGradient>
<linearGradient id="paint5_linear" x1="123.644" y1="129.794" x2="123.933" y2="140.833" gradientUnits="userSpaceOnUse">
<stop stop-color="#131313"/>
<stop offset="1" stop-color="#1C1C1C" stop-opacity="0"/>
</linearGradient>
<linearGradient id="paint6_linear" x1="117" y1="77.5" x2="117" y2="110" gradientUnits="userSpaceOnUse">
<stop/>
<stop offset="1" stop-color="white" stop-opacity="0"/>
<stop offset="1" stop-color="#1C1C1C" stop-opacity="0"/>
</linearGradient>
</defs>
</svg>
