<svg width="240" height="240" viewBox="0 0 240 240" fill="none" xmlns="http://www.w3.org/2000/svg">
<path opacity="0.18" d="M239.994 173.971C240.377 202.686 221.188 229.991 197.26 234.806C186.062 237.069 174.638 234.888 163.266 234.291C138.53 233.016 113.85 239.292 89.1569 239.95C84.1582 240.084 79.1509 239.95 74.1392 239.533C57.6614 238.058 41.5701 232.898 26.7197 224.327C20.3855 220.675 14.2036 216.313 9.59216 210.037C-0.300683 196.59 -1.25342 176.908 1.03489 159.315C3.32321 141.722 8.35664 124.525 8.61331 106.716C8.79603 94.282 6.63823 81.9823 6.08572 69.5642C5.53322 57.1461 6.80789 43.977 12.9898 33.9253C19.1718 23.8735 29.4605 18.3641 39.7666 15.9669C50.0728 13.5697 60.6486 13.8835 71.1461 13.1119C92.8591 11.5377 114.12 5.27726 135.706 2.15473C167.899 -2.51105 219.669 -4.01829 223.232 45.8032C223.506 49.9239 223.581 54.0596 223.458 58.1904C223.145 71.9511 221.357 85.7633 222.836 99.4211C225.603 125.085 239.646 148.111 239.994 173.971Z" fill="#6E71FF"/>
<path opacity="0.24" d="M239.994 178.83C240.383 205.452 220.923 230.767 196.659 235.231C185.303 237.329 173.719 235.307 162.187 234.754C137.102 233.571 112.075 239.39 87.0344 240C80.9023 233.748 71.7353 205.945 65.9781 199.316C64.2135 197.251 62.3517 194.961 62.0076 192.162C61.7606 190.078 62.3826 187.989 63.0003 186C73.7142 152.052 91.694 141.381 110.434 111.78C119.186 97.9495 128.742 84.7865 138.527 71.8095C145.175 63.0055 153.782 45.8746 165.584 45.0352C175.201 44.3484 186.353 53.8868 194.7 57.9645C204.159 62.5859 213.697 67.026 223.226 71.4995C222.908 84.2571 221.095 97.0624 222.595 109.725C225.401 133.509 239.641 154.856 239.994 178.83Z" fill="#6E71FF"/>
<path d="M131.278 48.4771L125.849 46.7717L127.332 33.9945H127.767C128.307 33.5595 129.882 31.6758 129.46 30.2793C129.081 29.0003 127.045 28.4869 125.396 28.2737C123.056 27.9779 121.524 28.2433 120.963 29.0351C120.211 30.1053 121.202 32.1152 121.651 32.7982L121.768 32.9765L120.95 45.3274L114.925 43.6655L115.264 42.4431L119.628 43.6655L120.315 33.2245C119.88 32.5154 118.575 29.9965 119.745 28.3129C120.615 27.0774 122.547 26.638 125.496 27.0078C130.103 27.5951 130.987 29.5006 130.921 30.9971C130.856 32.4936 129.59 34.3295 128.637 35.0125L127.371 45.8886L131.67 47.2372L131.278 48.4771Z" fill="#6E71FF"/>
<path d="M131.278 48.4771L125.849 46.7717L127.332 33.9945H127.767C128.307 33.5595 129.882 31.6758 129.46 30.2793C129.081 29.0003 127.045 28.4869 125.396 28.2737C123.056 27.9779 121.524 28.2433 120.963 29.0351C120.211 30.1053 121.202 32.1152 121.651 32.7982L121.768 32.9765L120.95 45.3274L114.925 43.6655L115.264 42.4431L119.628 43.6655L120.315 33.2245C119.88 32.5154 118.575 29.9965 119.745 28.3129C120.615 27.0774 122.547 26.638 125.496 27.0078C130.103 27.5951 130.987 29.5006 130.921 30.9971C130.856 32.4936 129.59 34.3295 128.637 35.0125L127.371 45.8886L131.67 47.2372L131.278 48.4771Z" fill="url(#paint0_linear)"/>
<path d="M175.666 200.333H66.4399L59.6445 194.738L66.4399 47.4155L168.871 41.8208L175.666 47.4155V200.333Z" fill="#6E71FF"/>
<path d="M175.666 200.333H66.4399L59.6445 194.738L66.4399 47.4155L168.871 41.8208L175.666 47.4155V200.333Z" fill="url(#paint1_linear)"/>
<path d="M172.068 197.666L64.7084 197.936L59.6445 194.738L63.2423 46.8847L165.673 41.29L172.469 46.8847L172.068 197.666Z" fill="url(#paint2_linear)"/>
<path d="M168.871 41.8208H59.6445V194.738H168.871V41.8208Z" fill="url(#paint3_linear)"/>
<path d="M94.0653 52.4619C94.0087 52.8491 93.9826 53.332 94.2958 53.5495C94.4665 53.6523 94.6621 53.7065 94.8614 53.7061C104.923 54.5768 115.058 54.0143 124.962 52.0356C126.593 51.7093 128.568 50.961 128.686 49.3035C128.795 47.833 127.381 46.0363 128.521 45.114C128.948 44.8579 129.436 44.7212 129.935 44.7181C130.838 44.5862 131.701 44.2556 132.462 43.7501C133.222 43.2446 133.861 42.5767 134.333 41.7946L105.772 41.5641C102.997 41.5423 97.9415 40.3764 95.9577 42.8692C94.422 44.779 94.0653 50.191 94.0653 52.4619Z" fill="url(#paint4_linear)"/>
<path d="M125.714 48.5465H96.1438L94.1426 30.1659L123.913 29.9658L125.714 48.5465Z" fill="#6E71FF"/>
<path d="M123.913 29.9658L134.907 35.43L133.306 41.8207H125.179L123.913 29.9658Z" fill="#6E71FF"/>
<path d="M123.913 29.9658L134.907 35.43L133.306 41.8207H125.179L123.913 29.9658Z" fill="url(#paint5_linear)"/>
<path d="M117.296 48.2594L111.606 48.0375L109.64 33.829L110.048 33.7246C110.453 33.0894 111.471 30.601 110.692 29.2176C109.988 27.9559 107.886 28.0038 106.246 28.2692C103.91 28.6433 102.5 29.3829 102.174 30.4052C101.739 31.78 103.223 33.6506 103.832 34.2554L103.993 34.412L106.485 47.9592H100.238V46.541H104.784L102.679 35.0993C102.087 34.4598 100.134 32.1454 100.826 29.9745C101.33 28.3866 103.079 27.3425 106.046 26.8683C110.64 26.1331 111.997 27.9211 112.337 29.5569C112.676 31.1927 111.937 33.5419 111.201 34.5599L112.872 46.6628L117.375 46.8411L117.296 48.2594Z" fill="#6E71FF"/>
<path d="M117.296 48.2594L111.606 48.0375L109.64 33.829L110.048 33.7246C110.453 33.0894 111.471 30.601 110.692 29.2176C109.988 27.9559 107.886 28.0038 106.246 28.2692C103.91 28.6433 102.5 29.3829 102.174 30.4052C101.739 31.78 103.223 33.6506 103.832 34.2554L103.993 34.412L106.485 47.9592H100.238V46.541H104.784L102.679 35.0993C102.087 34.4598 100.134 32.1454 100.826 29.9745C101.33 28.3866 103.079 27.3425 106.046 26.8683C110.64 26.1331 111.997 27.9211 112.337 29.5569C112.676 31.1927 111.937 33.5419 111.201 34.5599L112.872 46.6628L117.375 46.8411L117.296 48.2594Z" fill="url(#paint6_linear)"/>
<path d="M109.731 65.1304H76.1631V107.49H109.731V65.1304Z" fill="#6E71FF"/>
<path d="M109.731 65.1304H76.1631V107.49H109.731V65.1304Z" fill="url(#paint7_linear)"/>
<path d="M154.087 70.9946H121.851C120.894 70.9946 120.119 71.7698 120.119 72.7261C120.119 73.6824 120.894 74.4576 121.851 74.4576H154.087C155.044 74.4576 155.819 73.6824 155.819 72.7261C155.819 71.7698 155.044 70.9946 154.087 70.9946Z" fill="#6E71FF"/>
<path d="M154.087 70.9946H121.851C120.894 70.9946 120.119 71.7698 120.119 72.7261C120.119 73.6824 120.894 74.4576 121.851 74.4576H154.087C155.044 74.4576 155.819 73.6824 155.819 72.7261C155.819 71.7698 155.044 70.9946 154.087 70.9946Z" fill="url(#paint8_linear)"/>
<path d="M154.087 78.5864H121.851C120.894 78.5864 120.119 79.3616 120.119 80.3179C120.119 81.2742 120.894 82.0494 121.851 82.0494H154.087C155.044 82.0494 155.819 81.2742 155.819 80.3179C155.819 79.3616 155.044 78.5864 154.087 78.5864Z" fill="#6E71FF"/>
<path d="M154.087 78.5864H121.851C120.894 78.5864 120.119 79.3616 120.119 80.3179C120.119 81.2742 120.894 82.0494 121.851 82.0494H154.087C155.044 82.0494 155.819 81.2742 155.819 80.3179C155.819 79.3616 155.044 78.5864 154.087 78.5864Z" fill="url(#paint9_linear)"/>
<path d="M154.087 89.6406H121.851C120.894 89.6406 120.119 90.4158 120.119 91.3721C120.119 92.3284 120.894 93.1036 121.851 93.1036H154.087C155.044 93.1036 155.819 92.3284 155.819 91.3721C155.819 90.4158 155.044 89.6406 154.087 89.6406Z" fill="#6E71FF"/>
<path d="M154.087 89.6406H121.851C120.894 89.6406 120.119 90.4158 120.119 91.3721C120.119 92.3284 120.894 93.1036 121.851 93.1036H154.087C155.044 93.1036 155.819 92.3284 155.819 91.3721C155.819 90.4158 155.044 89.6406 154.087 89.6406Z" fill="url(#paint10_linear)"/>
<path d="M154.087 97.2324H121.851C120.894 97.2324 120.119 98.0076 120.119 98.9639C120.119 99.9202 120.894 100.695 121.851 100.695H154.087C155.044 100.695 155.819 99.9202 155.819 98.9639C155.819 98.0076 155.044 97.2324 154.087 97.2324Z" fill="#6E71FF"/>
<path d="M154.087 97.2324H121.851C120.894 97.2324 120.119 98.0076 120.119 98.9639C120.119 99.9202 120.894 100.695 121.851 100.695H154.087C155.044 100.695 155.819 99.9202 155.819 98.9639C155.819 98.0076 155.044 97.2324 154.087 97.2324Z" fill="url(#paint11_linear)"/>
<path d="M133.706 132.401H101.47C100.513 132.401 99.7383 133.177 99.7383 134.133C99.7383 135.089 100.513 135.864 101.47 135.864H133.706C134.663 135.864 135.438 135.089 135.438 134.133C135.438 133.177 134.663 132.401 133.706 132.401Z" fill="#6E71FF"/>
<path d="M133.706 132.401H101.47C100.513 132.401 99.7383 133.177 99.7383 134.133C99.7383 135.089 100.513 135.864 101.47 135.864H133.706C134.663 135.864 135.438 135.089 135.438 134.133C135.438 133.177 134.663 132.401 133.706 132.401Z" fill="url(#paint12_linear)"/>
<path d="M133.706 139.993H101.47C100.513 139.993 99.7383 140.768 99.7383 141.724C99.7383 142.68 100.513 143.456 101.47 143.456H133.706C134.663 143.456 135.438 142.68 135.438 141.724C135.438 140.768 134.663 139.993 133.706 139.993Z" fill="#6E71FF"/>
<path d="M133.706 139.993H101.47C100.513 139.993 99.7383 140.768 99.7383 141.724C99.7383 142.68 100.513 143.456 101.47 143.456H133.706C134.663 143.456 135.438 142.68 135.438 141.724C135.438 140.768 134.663 139.993 133.706 139.993Z" fill="url(#paint13_linear)"/>
<path d="M133.706 157.973H101.47C100.513 157.973 99.7383 158.748 99.7383 159.704C99.7383 160.66 100.513 161.436 101.47 161.436H133.706C134.663 161.436 135.438 160.66 135.438 159.704C135.438 158.748 134.663 157.973 133.706 157.973Z" fill="#6E71FF"/>
<path d="M133.706 157.973H101.47C100.513 157.973 99.7383 158.748 99.7383 159.704C99.7383 160.66 100.513 161.436 101.47 161.436H133.706C134.663 161.436 135.438 160.66 135.438 159.704C135.438 158.748 134.663 157.973 133.706 157.973Z" fill="url(#paint14_linear)"/>
<path d="M133.706 165.564H101.47C100.513 165.564 99.7383 166.34 99.7383 167.296C99.7383 168.252 100.513 169.027 101.47 169.027H133.706C134.663 169.027 135.438 168.252 135.438 167.296C135.438 166.34 134.663 165.564 133.706 165.564Z" fill="#6E71FF"/>
<path d="M133.706 165.564H101.47C100.513 165.564 99.7383 166.34 99.7383 167.296C99.7383 168.252 100.513 169.027 101.47 169.027H133.706C134.663 169.027 135.438 168.252 135.438 167.296C135.438 166.34 134.663 165.564 133.706 165.564Z" fill="url(#paint15_linear)"/>
<path d="M154.083 113.22H77.0938C76.1375 113.22 75.3623 113.995 75.3623 114.952C75.3623 115.908 76.1375 116.683 77.0938 116.683H154.083C155.04 116.683 155.815 115.908 155.815 114.952C155.815 113.995 155.04 113.22 154.083 113.22Z" fill="#6E71FF"/>
<path d="M154.083 113.22H77.0938C76.1375 113.22 75.3623 113.995 75.3623 114.952C75.3623 115.908 76.1375 116.683 77.0938 116.683H154.083C155.04 116.683 155.815 115.908 155.815 114.952C155.815 113.995 155.04 113.22 154.083 113.22Z" fill="url(#paint16_linear)"/>
<path d="M154.083 120.812H77.0938C76.1375 120.812 75.3623 121.587 75.3623 122.543C75.3623 123.499 76.1375 124.274 77.0938 124.274H154.083C155.04 124.274 155.815 123.499 155.815 122.543C155.815 121.587 155.04 120.812 154.083 120.812Z" fill="#6E71FF"/>
<path d="M154.083 120.812H77.0938C76.1375 120.812 75.3623 121.587 75.3623 122.543C75.3623 123.499 76.1375 124.274 77.0938 124.274H154.083C155.04 124.274 155.815 123.499 155.815 122.543C155.815 121.587 155.04 120.812 154.083 120.812Z" fill="url(#paint17_linear)"/>
<path d="M93.347 130.27H79.3604V142.655H93.347V130.27Z" fill="#6E71FF"/>
<path d="M93.347 130.27H79.3604V142.655H93.347V130.27Z" fill="url(#paint18_linear)"/>
<path d="M93.347 157.442H79.3604V169.828H93.347V157.442Z" fill="#6E71FF"/>
<path d="M93.347 157.442H79.3604V169.828H93.347V157.442Z" fill="url(#paint19_linear)"/>
<path d="M83.1622 100.021C81.1392 101.504 79.3251 104.171 79.6818 106.66C89.5878 106.172 98.989 106.742 107.599 106.616C107.425 104.354 106.515 101.478 104.94 99.8467C104.12 99.0889 103.175 98.4782 102.147 98.0413C100.051 97.0102 97.9232 95.9835 95.6218 95.505C91.0278 94.5348 86.7774 97.3757 83.1622 100.021Z" fill="url(#paint20_linear)"/>
<path d="M100.564 84.89C100.603 85.2534 100.562 85.6208 100.447 85.9674C100.331 86.3141 100.143 86.632 99.8945 86.8999C99.7787 87.0378 99.6286 87.1428 99.4594 87.2044C98.5893 87.4872 98.5502 85.7296 98.7982 85.2293C99.094 84.6594 100.434 83.7589 100.564 84.89Z" fill="url(#paint21_linear)"/>
<path d="M85.107 83.9069C85.0686 84.27 85.1081 84.6371 85.2229 84.9837C85.3377 85.3303 85.5251 85.6484 85.7726 85.9168C85.891 86.0519 86.0402 86.1564 86.2077 86.2213C87.0778 86.5041 87.1169 84.7422 86.8646 84.2462C86.5774 83.6894 85.2375 82.7758 85.107 83.9069Z" fill="url(#paint22_linear)"/>
<path d="M91.7331 70.2466C92.5424 69.251 93.7117 68.6147 94.9872 68.476C96.2228 68.3455 97.5975 68.7718 98.2588 69.8159C98.6858 70.6166 98.8817 71.5204 98.8243 72.4262C98.9011 73.2659 98.7696 74.1117 98.4415 74.8885C98.04 75.6208 97.386 76.182 96.6012 76.4677C94.7915 77.1812 92.6554 76.6026 91.2546 75.3148C89.8537 74.0271 90.6368 71.5778 91.7331 70.2466Z" fill="#6E71FF"/>
<path d="M91.7331 70.2466C92.5424 69.251 93.7117 68.6147 94.9872 68.476C96.2228 68.3455 97.5975 68.7718 98.2588 69.8159C98.6858 70.6166 98.8817 71.5204 98.8243 72.4262C98.9011 73.2659 98.7696 74.1117 98.4415 74.8885C98.04 75.6208 97.386 76.182 96.6012 76.4677C94.7915 77.1812 92.6554 76.6026 91.2546 75.3148C89.8537 74.0271 90.6368 71.5778 91.7331 70.2466Z" fill="url(#paint23_linear)"/>
<path d="M96.0834 89.806C96.0834 89.806 96.1356 95.5573 97.4451 96.7667C98.7545 97.9761 92.1984 103.627 89.4229 97.3192C89.4229 97.3192 91.0369 94.5959 90.4844 90.0062C89.9319 85.4165 96.0834 89.806 96.0834 89.806Z" fill="url(#paint24_linear)"/>
<path d="M96.2747 91.168V92.4296C96.2747 92.4296 92.9466 97.215 91.5849 95.6097C90.2233 94.0044 90.6235 93.6434 90.6235 93.6434L90.4756 90.0107L96.2747 91.168Z" fill="url(#paint25_linear)"/>
<path d="M99.2553 81.5835C99.2553 81.5835 100.212 90.3627 95.5183 92.1028C90.8242 93.843 88.0269 91.3459 86.7391 87.1085C85.4514 82.8712 87.4222 74.3183 92.3947 75.1492C97.3672 75.9801 99.2553 81.5835 99.2553 81.5835Z" fill="url(#paint26_linear)"/>
<path d="M99.9993 84.5333C100.213 84.2295 100.352 83.879 100.404 83.5109C100.709 81.8632 100.577 80.1643 100.019 78.5839C99.462 77.0036 98.4995 75.5972 97.2281 74.5056C96.7118 74.0506 96.114 73.6978 95.4662 73.4658C94.8204 73.2746 94.1455 73.2009 93.4737 73.2483C91.3544 73.3139 89.3104 74.0495 87.6354 75.3496C86.8086 76.0072 86.1272 76.8294 85.6345 77.7639C85.1418 78.6985 84.8483 79.7251 84.7728 80.7789C84.7145 81.4032 84.8163 82.032 85.0686 82.6061C85.1963 82.8918 85.3891 83.1438 85.6316 83.3417C85.8741 83.5396 86.1595 83.678 86.4651 83.7459C87.5484 83.9329 87.8442 82.9323 88.723 82.2667C90.0281 81.2618 90.4632 79.7696 93.465 80.0219C98.3461 80.4309 98.6942 86.1386 99.9993 84.5333Z" fill="#6E71FF"/>
<path d="M99.9993 84.5333C100.213 84.2295 100.352 83.879 100.404 83.5109C100.709 81.8632 100.577 80.1643 100.019 78.5839C99.462 77.0036 98.4995 75.5972 97.2281 74.5056C96.7118 74.0506 96.114 73.6978 95.4662 73.4658C94.8204 73.2746 94.1455 73.2009 93.4737 73.2483C91.3544 73.3139 89.3104 74.0495 87.6354 75.3496C86.8086 76.0072 86.1272 76.8294 85.6345 77.7639C85.1418 78.6985 84.8483 79.7251 84.7728 80.7789C84.7145 81.4032 84.8163 82.032 85.0686 82.6061C85.1963 82.8918 85.3891 83.1438 85.6316 83.3417C85.8741 83.5396 86.1595 83.678 86.4651 83.7459C87.5484 83.9329 87.8442 82.9323 88.723 82.2667C90.0281 81.2618 90.4632 79.7696 93.465 80.0219C98.3461 80.4309 98.6942 86.1386 99.9993 84.5333Z" fill="url(#paint27_linear)"/>
<path d="M85.9775 84.5333C85.9202 84.4808 85.8743 84.4171 85.8426 84.3462C85.8225 84.2635 85.8108 84.179 85.8078 84.0939C85.7963 84.0105 85.7563 83.9337 85.6947 83.8764C85.6617 83.8495 85.6225 83.8315 85.5806 83.8239C85.5388 83.8163 85.4957 83.8194 85.4554 83.8329C85.4213 83.8489 85.3908 83.8718 85.3661 83.9003C85.3414 83.9288 85.3229 83.9621 85.3118 83.9982C85.2929 84.0707 85.2827 84.1451 85.2814 84.2201C85.252 84.5089 85.2954 84.8006 85.4076 85.0684C85.514 85.2524 85.6508 85.4172 85.8121 85.5556C85.84 85.5898 85.8743 85.6182 85.9131 85.6391C85.9519 85.66 85.9945 85.673 86.0384 85.6774C86.0949 85.6737 86.1492 85.6541 86.195 85.6209C86.2163 85.61 86.2355 85.5952 86.2515 85.5774C86.2556 85.5558 86.2556 85.5337 86.2515 85.5121C86.2886 85.3137 86.2886 85.1102 86.2515 84.9118C86.2003 84.7609 86.1048 84.629 85.9775 84.5333Z" fill="url(#paint28_linear)"/>
<path d="M99.5635 85.4777C99.6208 85.4252 99.6667 85.3616 99.6984 85.2907C99.7188 85.2095 99.7305 85.1264 99.7332 85.0427C99.7436 84.958 99.7856 84.8803 99.8507 84.8252C99.8817 84.7964 99.92 84.7768 99.9614 84.7683C100.003 84.7599 100.046 84.763 100.086 84.7773C100.119 84.7939 100.149 84.8171 100.174 84.8455C100.199 84.8739 100.217 84.9069 100.229 84.9426C100.248 85.0166 100.258 85.0925 100.26 85.1689C100.289 85.4577 100.246 85.7494 100.133 86.0172C100.027 86.1999 99.8901 86.3632 99.7289 86.5001C99.6717 86.5687 99.5911 86.6136 99.5026 86.6263C99.4458 86.621 99.3915 86.5999 99.346 86.5653C99.323 86.5573 99.3031 86.5421 99.2895 86.5218C99.285 86.5003 99.285 86.4781 99.2895 86.4566C99.2525 86.2596 99.2525 86.0575 99.2895 85.8606C99.3406 85.7085 99.4361 85.5752 99.5635 85.4777Z" fill="url(#paint29_linear)"/>
<defs>
<linearGradient id="paint0_linear" x1="122.998" y1="-1.86413" x2="117.825" y2="61.7801" gradientUnits="userSpaceOnUse">
<stop offset="0.38383" stop-opacity="0.75"/>
<stop offset="0.908533" stop-opacity="0"/>
</linearGradient>
<linearGradient id="paint1_linear" x1="130.68" y1="217.589" x2="144.776" y2="-94.5006" gradientUnits="userSpaceOnUse">
<stop stop-opacity="0"/>
<stop offset="0.639117" stop-opacity="0.75"/>
<stop offset="1"/>
</linearGradient>
<linearGradient id="paint2_linear" x1="128.722" y1="214.989" x2="142.877" y2="-93.4058" gradientUnits="userSpaceOnUse">
<stop stop-opacity="0"/>
<stop offset="0.639117" stop-opacity="0.75"/>
<stop offset="1"/>
</linearGradient>
<linearGradient id="paint3_linear" x1="114.258" y1="41.8208" x2="114.258" y2="194.738" gradientUnits="userSpaceOnUse">
<stop offset="0.9999" stop-color="white"/>
<stop offset="1" stop-color="white" stop-opacity="0"/>
</linearGradient>
<linearGradient id="paint4_linear" x1="104.5" y1="58" x2="112.09" y2="21.4888" gradientUnits="userSpaceOnUse">
<stop stop-opacity="0"/>
<stop offset="0.799692" stop-opacity="0.51"/>
<stop offset="0.99"/>
</linearGradient>
<linearGradient id="paint5_linear" x1="133.067" y1="35.0092" x2="121.089" y2="34.5055" gradientUnits="userSpaceOnUse">
<stop stop-opacity="0"/>
<stop offset="0.639117" stop-opacity="0.75"/>
<stop offset="1"/>
</linearGradient>
<linearGradient id="paint6_linear" x1="108.5" y1="-2" x2="103.461" y2="61.5608" gradientUnits="userSpaceOnUse">
<stop offset="0.38383" stop-opacity="0.75"/>
<stop offset="0.908533" stop-opacity="0"/>
</linearGradient>
<linearGradient id="paint7_linear" x1="81.4776" y1="34.4216" x2="128.585" y2="36.0477" gradientUnits="userSpaceOnUse">
<stop stop-opacity="0"/>
<stop offset="0.87783" stop-opacity="0.75"/>
<stop offset="1"/>
</linearGradient>
<linearGradient id="paint8_linear" x1="125.771" y1="68.4842" x2="167.512" y2="87.2284" gradientUnits="userSpaceOnUse">
<stop stop-opacity="0"/>
<stop offset="0.87783" stop-opacity="0.75"/>
<stop offset="1"/>
</linearGradient>
<linearGradient id="paint9_linear" x1="125.771" y1="76.076" x2="167.512" y2="94.8202" gradientUnits="userSpaceOnUse">
<stop stop-opacity="0"/>
<stop offset="0.87783" stop-opacity="0.75"/>
<stop offset="1"/>
</linearGradient>
<linearGradient id="paint10_linear" x1="125.771" y1="87.1302" x2="167.512" y2="105.874" gradientUnits="userSpaceOnUse">
<stop stop-opacity="0"/>
<stop offset="0.87783" stop-opacity="0.75"/>
<stop offset="1"/>
</linearGradient>
<linearGradient id="paint11_linear" x1="125.771" y1="94.722" x2="167.512" y2="113.466" gradientUnits="userSpaceOnUse">
<stop stop-opacity="0"/>
<stop offset="0.87783" stop-opacity="0.75"/>
<stop offset="1"/>
</linearGradient>
<linearGradient id="paint12_linear" x1="105.39" y1="129.891" x2="147.131" y2="148.635" gradientUnits="userSpaceOnUse">
<stop stop-opacity="0"/>
<stop offset="0.87783" stop-opacity="0.75"/>
<stop offset="1"/>
</linearGradient>
<linearGradient id="paint13_linear" x1="105.39" y1="137.482" x2="147.131" y2="156.226" gradientUnits="userSpaceOnUse">
<stop stop-opacity="0"/>
<stop offset="0.87783" stop-opacity="0.75"/>
<stop offset="1"/>
</linearGradient>
<linearGradient id="paint14_linear" x1="105.39" y1="155.462" x2="147.131" y2="174.206" gradientUnits="userSpaceOnUse">
<stop stop-opacity="0"/>
<stop offset="0.87783" stop-opacity="0.75"/>
<stop offset="1"/>
</linearGradient>
<linearGradient id="paint15_linear" x1="105.39" y1="163.054" x2="147.131" y2="181.798" gradientUnits="userSpaceOnUse">
<stop stop-opacity="0"/>
<stop offset="0.87783" stop-opacity="0.75"/>
<stop offset="1"/>
</linearGradient>
<linearGradient id="paint16_linear" x1="88.0997" y1="110.71" x2="143.944" y2="167.224" gradientUnits="userSpaceOnUse">
<stop stop-opacity="0"/>
<stop offset="0.87783" stop-opacity="0.75"/>
<stop offset="1"/>
</linearGradient>
<linearGradient id="paint17_linear" x1="88.0997" y1="118.301" x2="143.944" y2="174.815" gradientUnits="userSpaceOnUse">
<stop stop-opacity="0"/>
<stop offset="0.87783" stop-opacity="0.75"/>
<stop offset="1"/>
</linearGradient>
<linearGradient id="paint18_linear" x1="81.5747" y1="121.291" x2="101.179" y2="122.255" gradientUnits="userSpaceOnUse">
<stop stop-opacity="0"/>
<stop offset="0.87783" stop-opacity="0.75"/>
<stop offset="1"/>
</linearGradient>
<linearGradient id="paint19_linear" x1="81.5747" y1="148.463" x2="101.179" y2="149.428" gradientUnits="userSpaceOnUse">
<stop stop-opacity="0"/>
<stop offset="0.87783" stop-opacity="0.75"/>
<stop offset="1"/>
</linearGradient>
<linearGradient id="paint20_linear" x1="93.6176" y1="95.3105" x2="93.6176" y2="106.66" gradientUnits="userSpaceOnUse">
<stop offset="0.9999" stop-color="white"/>
<stop offset="1" stop-color="white" stop-opacity="0"/>
</linearGradient>
<linearGradient id="paint21_linear" x1="100.577" y1="85.7905" x2="98.6764" y2="85.7905" gradientUnits="userSpaceOnUse">
<stop stop-color="#E4C5D5"/>
<stop offset="0.42" stop-color="#E9D3CF"/>
<stop offset="1" stop-color="#EFE8CA"/>
</linearGradient>
<linearGradient id="paint22_linear" x1="85.0928" y1="84.81" x2="87.0011" y2="84.81" gradientUnits="userSpaceOnUse">
<stop stop-color="#E5C5D5"/>
<stop offset="0.42" stop-color="#EAD4D1"/>
<stop offset="1" stop-color="#F0E9CB"/>
</linearGradient>
<linearGradient id="paint23_linear" x1="100.086" y1="63.1971" x2="78.5098" y2="59.5137" gradientUnits="userSpaceOnUse">
<stop offset="0.079127"/>
<stop offset="0.83" stop-opacity="0.07"/>
<stop offset="1" stop-opacity="0"/>
</linearGradient>
<linearGradient id="paint24_linear" x1="89.4231" y1="94.083" x2="97.6217" y2="94.083" gradientUnits="userSpaceOnUse">
<stop stop-color="#E5C5D5"/>
<stop offset="0.42" stop-color="#EAD4D1"/>
<stop offset="1" stop-color="#F0E9CB"/>
</linearGradient>
<linearGradient id="paint25_linear" x1="94.3257" y1="96.9975" x2="90.5409" y2="78.3037" gradientUnits="userSpaceOnUse">
<stop offset="0.12" stop-color="#010101" stop-opacity="0"/>
<stop offset="0.95" stop-color="#010101"/>
</linearGradient>
<linearGradient id="paint26_linear" x1="86.3558" y1="83.8789" x2="99.3447" y2="83.8789" gradientUnits="userSpaceOnUse">
<stop stop-color="#E5C5D5"/>
<stop offset="0.42" stop-color="#EAD4D1"/>
<stop offset="1" stop-color="#F0E9CB"/>
</linearGradient>
<linearGradient id="paint27_linear" x1="109" y1="67" x2="68.5084" y2="58.6688" gradientUnits="userSpaceOnUse">
<stop offset="0.079127"/>
<stop offset="0.83" stop-opacity="0.07"/>
<stop offset="1" stop-opacity="0"/>
</linearGradient>
<linearGradient id="paint28_linear" x1="85.2725" y1="84.7488" x2="86.28" y2="84.7488" gradientUnits="userSpaceOnUse">
<stop stop-color="#E5C5D5"/>
<stop offset="0.42" stop-color="#EAD4D1"/>
<stop offset="1" stop-color="#F0E9CB"/>
</linearGradient>
<linearGradient id="paint29_linear" x1="99.2617" y1="85.6951" x2="100.269" y2="85.6951" gradientUnits="userSpaceOnUse">
<stop stop-color="#E5C5D5"/>
<stop offset="0.42" stop-color="#EAD4D1"/>
<stop offset="1" stop-color="#F0E9CB"/>
</linearGradient>
</defs>
</svg>
