<svg width="208" height="208" viewBox="0 0 208 208" fill="none" xmlns="http://www.w3.org/2000/svg">
<path opacity="0.18" d="M202.006 131.961C195.353 155.025 185.381 179.635 164.018 194.022C161.497 195.72 158.835 197.258 156.051 198.623C144.479 204.286 131.076 206.667 117.777 207.574C91.83 209.365 64.7229 205.617 42.4935 194.255C40.0383 193.002 37.6484 191.655 35.3236 190.215C22.4296 182.212 12.3158 171.375 6.05716 158.856C0.962781 148.556 -1.18958 137.373 0.648315 126.244C5.10677 99.2116 30.5437 78.5702 43.6605 53.68C48.4824 44.526 51.6341 34.7812 56.5537 25.6689C61.4734 16.5566 68.5454 7.82624 78.9159 3.06423C93.5631 -3.66108 109.964 2.17508 124.437 6.38212C141.32 11.2575 157.931 17.8217 170.741 28.6884C179.091 35.7598 185.472 44.341 191.251 53.0833C194.833 58.3903 198.044 63.8741 200.867 69.5057C203.763 75.264 205.84 81.2985 207.051 87.4796C209.77 102.303 206.199 117.4 202.006 131.961Z" fill="#6E71FF"/>
<path d="M125.363 54H83.2244C77.0353 54 72 59.0353 72 65.2244V162.776C72 168.965 77.0353 174 83.2244 174H125.363C131.552 174 136.588 168.965 136.588 162.776V65.2244C136.588 59.0353 131.552 54 125.363 54Z" fill="#6E71FF"/>
<path d="M125.363 54H83.2244C77.0353 54 72 59.0353 72 65.2244V162.776C72 168.965 77.0353 174 83.2244 174H125.363C131.552 174 136.588 168.965 136.588 162.776V65.2244C136.588 59.0353 131.552 54 125.363 54Z" fill="url(#paint0_linear)" fill-opacity="0.9"/>
<path d="M78.218 162.775V65.2244C78.218 59.0353 83.253 54 89.4422 54H83.2244C77.0353 54 72 59.0353 72 65.2244V162.776C72 168.965 77.0353 174 83.2244 174H89.4422C83.253 174 78.218 168.964 78.218 162.775Z" fill="#6E71FF"/>
<path d="M78.218 162.775V65.2244C78.218 59.0353 83.253 54 89.4422 54H83.2244C77.0353 54 72 59.0353 72 65.2244V162.776C72 168.965 77.0353 174 83.2244 174H89.4422C83.253 174 78.218 168.964 78.218 162.775Z" fill="url(#paint1_linear)" fill-opacity="0.9"/>
<path d="M130.368 162.775C130.368 165.54 128.127 167.781 125.363 167.781H83.2243C80.4598 167.781 78.2188 165.54 78.2188 162.775V65.2244C78.2188 62.46 80.4598 60.2189 83.2243 60.2189H88.4759C89.5104 60.2189 90.349 61.0575 90.349 62.092V63.2798C90.349 64.8736 91.6529 66.1774 93.2466 66.1774H115.34C116.934 66.1774 118.238 64.8736 118.238 63.2798V61.5619C118.238 60.8201 118.839 60.2187 119.581 60.2187H125.363C128.127 60.2187 130.368 62.4597 130.368 65.2242V162.775Z" fill="#6E71FF"/>
<path d="M130.368 162.775C130.368 165.54 128.127 167.781 125.363 167.781H83.2243C80.4598 167.781 78.2188 165.54 78.2188 162.775V65.2244C78.2188 62.46 80.4598 60.2189 83.2243 60.2189H88.4759C89.5104 60.2189 90.349 61.0575 90.349 62.092V63.2798C90.349 64.8735 91.6529 66.1774 93.2466 66.1774H115.34C116.934 66.1774 118.238 64.8735 118.238 63.2798V61.5618C118.238 60.82 118.839 60.2186 119.581 60.2186H125.363C128.127 60.2186 130.368 62.4597 130.368 65.2242V162.775Z" fill="url(#paint2_linear)"/>
<circle cx="139" cy="135" r="24" fill="#6E71FF"/>
<path fill-rule="evenodd" clip-rule="evenodd" d="M138.75 125.75C139.44 125.75 140 126.31 140 127V133.75H147C147.69 133.75 148.25 134.31 148.25 135C148.25 135.69 147.69 136.25 147 136.25H140V143C140 143.69 139.44 144.25 138.75 144.25C138.06 144.25 137.5 143.69 137.5 143V136.25H131C130.31 136.25 129.75 135.69 129.75 135C129.75 134.31 130.31 133.75 131 133.75H137.5V127C137.5 126.31 138.06 125.75 138.75 125.75Z" fill="#6E71FF"/>
<path fill-rule="evenodd" clip-rule="evenodd" d="M138.75 125.75C139.44 125.75 140 126.31 140 127V133.75H147C147.69 133.75 148.25 134.31 148.25 135C148.25 135.69 147.69 136.25 147 136.25H140V143C140 143.69 139.44 144.25 138.75 144.25C138.06 144.25 137.5 143.69 137.5 143V136.25H131C130.31 136.25 129.75 135.69 129.75 135C129.75 134.31 130.31 133.75 131 133.75H137.5V127C137.5 126.31 138.06 125.75 138.75 125.75Z" fill="url(#paint3_linear)"/>
<defs>
<linearGradient id="paint0_linear" x1="104.344" y1="33.0235" x2="106.336" y2="220.289" gradientUnits="userSpaceOnUse">
<stop stop-color="#0B0B0B"/>
<stop offset="1" stop-color="#0B0B0B" stop-opacity="0"/>
</linearGradient>
<linearGradient id="paint1_linear" x1="80.6719" y1="47.5547" x2="80.6719" y2="218.062" gradientUnits="userSpaceOnUse">
<stop/>
<stop offset="1" stop-color="#060606" stop-opacity="0"/>
</linearGradient>
<linearGradient id="paint2_linear" x1="99.4998" y1="34.5" x2="104" y2="185" gradientUnits="userSpaceOnUse">
<stop stop-color="#FDFDFD"/>
<stop offset="1" stop-color="white" stop-opacity="0"/>
</linearGradient>
<linearGradient id="paint3_linear" x1="139" y1="145" x2="139" y2="153.5" gradientUnits="userSpaceOnUse">
<stop stop-color="white"/>
<stop offset="1" stop-color="white" stop-opacity="0"/>
</linearGradient>
</defs>
</svg>
