<svg width="208" height="208" viewBox="0 0 208 208" fill="none" xmlns="http://www.w3.org/2000/svg">
<path opacity="0.18" d="M6.14958 97.3812C10.2149 87.8628 16.3406 78.1042 22.037 73.3799C27.7333 68.6556 97.9333 -0.000196308 130.369 0C162.804 0.000196314 157.221 8.93405 169.134 18.5806C183.668 30.3419 196.101 50.4906 198.286 74.8236C199.803 91.5232 196.465 108.815 199.106 125.201C201.125 137.747 206.526 148.829 207.755 161.597C209.17 176.25 204.354 191.818 195.941 199.799C187.528 207.779 176.901 208.005 166.921 207.579C140.746 206.448 156.54 198.844 88.4536 207.202C20.3667 215.561 2.56506 155.483 2.56506 155.483C-1.45703 136.314 -1.09832 114.345 6.14958 97.3812Z" fill="#6E71FF"/>
<path d="M70.6228 156.421H61.6552C60.1218 156.421 58.8789 155.311 58.8789 153.943V117.978C58.8789 116.609 60.1218 115.5 61.6552 115.5H70.6228C72.1562 115.5 73.3991 116.609 73.3991 117.978V153.943C73.3991 155.311 72.1562 156.421 70.6228 156.421Z" fill="#6E71FF"/>
<path d="M165.982 151.579H178.51C178.78 151.579 179 151.359 179 151.089V119.878C179 119.608 178.78 119.388 178.51 119.388H165.982V151.579Z" fill="#6E71FF"/>
<path d="M60.0171 151.579H47.4899C47.2191 151.579 47 151.359 47 151.089V119.878C47 119.608 47.2194 119.388 47.4899 119.388H60.0171V151.579Z" fill="#6E71FF"/>
<path d="M163.533 155.733H155.612C154.258 155.733 153.16 154.636 153.16 153.281V117.685C153.16 116.331 154.258 115.233 155.612 115.233H163.533C164.887 115.233 165.985 116.331 165.985 117.685V153.281C165.985 154.636 164.887 155.733 163.533 155.733Z" fill="#6E71FF"/>
<path d="M163.533 155.733H155.612C154.258 155.733 153.16 154.636 153.16 153.281V117.685C153.16 116.331 154.258 115.233 155.612 115.233H163.533C164.887 115.233 165.985 116.331 165.985 117.685V153.281C165.985 154.636 164.887 155.733 163.533 155.733Z" fill="url(#paint0_linear)" fill-opacity="0.6"/>
<path d="M90.1709 104.506V98.932C90.1709 97.4993 91.3324 96.3379 92.765 96.3379H133.234C134.667 96.3379 135.828 97.4993 135.828 98.932V104.506C135.828 105.939 134.667 107.1 133.234 107.1H92.765C91.3324 107.1 90.1709 105.939 90.1709 104.506Z" fill="#6E71FF"/>
<path d="M133.234 96.3379H125.515V99.35C125.515 100.783 124.354 101.944 122.921 101.944H90.1709V104.506C90.1709 105.939 91.3324 107.1 92.765 107.1H133.234C134.667 107.1 135.828 105.939 135.828 104.506V98.932C135.828 97.4993 134.667 96.3379 133.234 96.3379Z" fill="url(#paint1_linear)" fill-opacity="0.8"/>
<path d="M128.451 96.3376H97.5488V90.8049C97.5488 89.9356 98.2534 89.231 99.1228 89.231H126.877C127.746 89.231 128.451 89.9356 128.451 90.8049V96.3376Z" fill="#6E71FF"/>
<path d="M128.451 96.3376H97.5488V90.8049C97.5488 89.9356 98.2534 89.231 99.1228 89.231H126.877C127.746 89.231 128.451 89.9356 128.451 90.8049V96.3376Z" fill="url(#paint2_linear)" fill-opacity="0.7"/>
<path d="M102.704 67.0034H123.294V72.5929C123.294 73.4622 122.589 74.1668 121.72 74.1668H104.278C103.409 74.1668 102.704 73.4622 102.704 72.5929V67.0034H102.704Z" fill="#6E71FF"/>
<path d="M102.704 67.0034H123.294V72.5929C123.294 73.4622 122.589 74.1668 121.72 74.1668H104.278C103.409 74.1668 102.704 73.4622 102.704 72.5929V67.0034H102.704Z" fill="url(#paint3_linear)" fill-opacity="0.8"/>
<path d="M108.568 74.1675H117.434V89.2322H108.568V74.1675Z" fill="#6E71FF"/>
<path d="M108.568 74.1675H117.434V89.2322H108.568V74.1675Z" fill="url(#paint4_linear)"/>
<path d="M139.285 57H86.7138C83.9513 57 81.7119 59.2394 81.7119 62.0019C81.7119 64.7644 83.9513 67.0038 86.7138 67.0038H139.285C142.048 67.0038 144.287 64.7644 144.287 62.0019C144.287 59.2394 142.048 57 139.285 57Z" fill="#6E71FF"/>
<path d="M145.348 119.388C143.39 119.388 141.581 118.397 140.478 116.779C137.816 112.876 134.344 109.569 130.304 107.101H95.6974C91.6572 109.569 88.1852 112.876 85.523 116.779C84.42 118.396 82.611 119.388 80.6536 119.388H72.8418V151.579H79.0866C81.9339 151.579 84.5835 152.962 86.2784 155.25C92.3334 163.422 102.048 168.72 113.001 168.72C123.953 168.72 133.668 163.422 139.723 155.25C141.418 152.962 144.068 151.579 146.915 151.579H153.16V119.388H145.348Z" fill="#6E71FF"/>
<path d="M145.346 119.388C144.465 119.388 143.614 119.187 142.845 118.819V140.178C142.845 143.627 140.049 146.422 136.6 146.422C133.753 146.422 131.103 147.806 129.408 150.094C123.353 158.266 113.638 163.564 102.686 163.564C99.3968 163.564 96.2192 163.086 93.2188 162.196C98.7455 166.295 105.589 168.72 112.999 168.72C123.951 168.72 133.666 163.422 139.721 155.25C141.416 152.962 144.065 151.579 146.913 151.579H153.158V119.388H145.346Z" fill="url(#paint5_linear)"/>
<path d="M70.6228 156.421H61.6552C60.1218 156.421 58.8789 155.311 58.8789 153.943V117.978C58.8789 116.609 60.1218 115.5 61.6552 115.5H70.6228C72.1562 115.5 73.3991 116.609 73.3991 117.978V153.943C73.3991 155.311 72.1562 156.421 70.6228 156.421Z" fill="url(#paint6_linear)" fill-opacity="0.6"/>
<defs>
<linearGradient id="paint0_linear" x1="159.201" y1="79.8595" x2="159.201" y2="181.501" gradientUnits="userSpaceOnUse">
<stop/>
<stop offset="1" stop-opacity="0"/>
</linearGradient>
<linearGradient id="paint1_linear" x1="114.319" y1="81.8391" x2="112.999" y2="128.7" gradientUnits="userSpaceOnUse">
<stop stop-color="#181818"/>
<stop offset="1" stop-color="#161616" stop-opacity="0"/>
</linearGradient>
<linearGradient id="paint2_linear" x1="113" y1="84.4789" x2="113" y2="105.599" gradientUnits="userSpaceOnUse">
<stop stop-color="white"/>
<stop offset="1" stop-color="white" stop-opacity="0"/>
</linearGradient>
<linearGradient id="paint3_linear" x1="113" y1="60.7188" x2="113" y2="85.1391" gradientUnits="userSpaceOnUse">
<stop stop-color="white"/>
<stop offset="1" stop-color="white" stop-opacity="0"/>
</linearGradient>
<linearGradient id="paint4_linear" x1="113.66" y1="63.3597" x2="113" y2="99.6601" gradientUnits="userSpaceOnUse">
<stop/>
<stop offset="1" stop-color="#3F3F3F" stop-opacity="0"/>
</linearGradient>
<linearGradient id="paint5_linear" x1="121.578" y1="85.7999" x2="123.559" y2="187.441" gradientUnits="userSpaceOnUse">
<stop stop-color="#2E2E2E"/>
<stop offset="1" stop-color="#1A1A1A" stop-opacity="0"/>
</linearGradient>
<linearGradient id="paint6_linear" x1="65.7182" y1="79.7594" x2="65.7182" y2="182.455" gradientUnits="userSpaceOnUse">
<stop/>
<stop offset="1" stop-opacity="0"/>
</linearGradient>
</defs>
</svg>
