<svg width="208" height="208" viewBox="0 0 208 208" fill="none" xmlns="http://www.w3.org/2000/svg">
<g clip-path="url(#clip0)">
<path opacity="0.18" d="M15.9833 177.378C18.4129 179.312 21.0658 180.891 23.8743 182.076C28.7357 184.121 33.914 185.037 38.903 186.613C41.1176 187.305 43.291 188.145 45.4232 189.06C58.3362 194.575 70.1871 203.324 83.7709 206.517C108.942 212.478 133.27 198.925 157.33 193.178C177.944 188.265 194.698 200.01 203.021 164.472C206.499 149.678 210.805 134.012 205.54 119.816C200.275 105.62 192.862 92.5085 187.84 78.2407C180.669 57.8639 178.014 34.388 163.903 18.8386C154.131 8.0719 140.165 2.87389 126.33 1.02957C112.495 -0.814744 98.4868 0.368654 84.5572 0.431173C67.779 0.489226 49.9059 -0.787951 35.3959 8.37557C30.2785 11.6579 25.8677 16.0903 22.4598 21.3748C19.0518 26.6594 16.7257 32.6739 15.6375 39.0144C12.7561 56.5153 19.5974 74.6593 16.5226 92.1289C13.6699 108.393 2.52705 122.004 0.349518 138.402C-1.62631 153.165 4.93507 168.652 15.9833 177.378Z" fill="#6E71FF"/>
<circle cx="104" cy="104" r="50" fill="#6E71FF"/>
<circle cx="104" cy="104" r="50" fill="url(#paint0_linear)" fill-opacity="0.9"/>
<path fill-rule="evenodd" clip-rule="evenodd" d="M103.479 84.7287C104.917 84.7287 106.083 85.8946 106.083 87.3329V101.395H120.666C122.104 101.395 123.27 102.561 123.27 104C123.27 105.438 122.104 106.604 120.666 106.604H106.083V120.666C106.083 122.104 104.917 123.27 103.479 123.27C102.04 123.27 100.874 122.104 100.874 120.666V106.604H87.3327C85.8944 106.604 84.7285 105.438 84.7285 104C84.7285 102.561 85.8944 101.395 87.3327 101.395H100.874V87.3329C100.874 85.8946 102.04 84.7287 103.479 84.7287Z" fill="#6E71FF"/>
<path fill-rule="evenodd" clip-rule="evenodd" d="M103.479 84.7287C104.917 84.7287 106.083 85.8947 106.083 87.3329V101.395H120.666C122.104 101.395 123.27 102.561 123.27 104C123.27 105.438 122.104 106.604 120.666 106.604H106.083V120.666C106.083 122.104 104.917 123.27 103.479 123.27C102.04 123.27 100.874 122.104 100.874 120.666V106.604H87.3327C85.8944 106.604 84.7285 105.438 84.7285 104C84.7285 102.561 85.8944 101.395 87.3327 101.395H100.874V87.3329C100.874 85.8947 102.04 84.7287 103.479 84.7287Z" fill="url(#paint1_linear)"/>
</g>
<defs>
<linearGradient id="paint0_linear" x1="104" y1="35.7708" x2="104" y2="154" gradientUnits="userSpaceOnUse">
<stop stop-color="#222222"/>
<stop offset="1" stop-color="#212121" stop-opacity="0"/>
</linearGradient>
<linearGradient id="paint1_linear" x1="103.999" y1="84.7287" x2="104" y2="146.308" gradientUnits="userSpaceOnUse">
<stop offset="0.693013" stop-color="white"/>
<stop offset="1" stop-color="white" stop-opacity="0"/>
</linearGradient>
<clipPath id="clip0">
<rect width="208" height="208" fill="white"/>
</clipPath>
</defs>
</svg>
