<svg width="208" height="208" viewBox="0 0 208 208" fill="none" xmlns="http://www.w3.org/2000/svg">
<g clip-path="url(#clip0)">
<path opacity="0.18" d="M197.36 192.951C187.349 204.769 171.794 207.5 157.421 207.88C143.652 208.408 129.395 207.258 115.996 203.146C103.921 199.463 91.1451 201.025 78.542 201.199C60.1624 201.46 40.5048 201.298 25.2189 188.82C10.2727 176.653 2.28999 154.489 0.570707 132.58C0.464202 131.212 0.367841 129.85 0.296838 128.481C-1.3768 99.0643 3.92306 70.425 18.8387 47.266C32.38 26.2407 50.79 9.3582 72.2989 3.20611C83.8825 -0.109422 95.9783 -0.302258 107.917 0.220265C120.839 0.773891 133.98 2.42233 146.289 7.1748C163.314 13.7499 180.933 28.4925 185.746 49.2566C191.112 72.4591 194.83 95.7549 200.997 118.926C201.55 121.016 202.107 123.107 202.65 125.209C205.343 135.616 207.696 146.166 207.975 156.983C208.31 169.978 205.272 183.62 197.36 192.951Z" fill="#6E71FF"/>
<path d="M196.496 194C186.617 204.209 171.268 206.568 157.085 206.896C143.497 207.353 129.429 206.359 116.206 202.807C104.29 199.626 91.6833 200.975 79.2467 201.125C61.1097 201.351 41.7116 201.211 26.6274 190.432C11.8786 179.921 2.7311 160.601 1.03451 141.675C0.929411 140.493 1.10457 136.182 1.03451 135H204C206.658 143.99 206.701 153.58 206.976 162.925C207.302 174.155 204.304 185.939 196.496 194Z" fill="#6E71FF"/>
<path fill-rule="evenodd" clip-rule="evenodd" d="M137.476 83.5654C136.199 80.8009 134.28 78.8584 131.91 77.8316C129.557 76.8125 126.952 76.7778 124.421 77.4683C119.454 78.8235 114.913 82.754 114.913 89.4103L114.912 108.895H82L82.0001 89.4104C82.0002 85.0071 84.8589 82.3374 88.5613 81.3272C90.3725 80.8331 91.9407 80.9434 93.2701 81.544C94.608 82.1484 95.9013 83.3393 96.9877 85.3535C97.6453 86.5726 97.9739 88.6768 98.0859 90.752C98.1391 91.7373 98.1402 92.63 98.1278 93.2765C98.1216 93.5988 98.1121 93.8574 98.1044 94.0328C98.1005 94.1204 98.097 94.1871 98.0946 94.2304L98.0919 94.2775L98.0913 94.2872L98.0913 94.2874L98.0913 94.2879L98.0913 94.288L98.0913 94.2884C98.0204 95.3903 98.856 96.3412 99.9579 96.4125C101.06 96.4839 102.012 95.6482 102.083 94.546L100.087 94.4167C102.083 94.546 102.083 94.5456 102.083 94.5453L102.083 94.5445L102.083 94.5424L102.084 94.5364L102.085 94.5172L102.089 94.4504C102.092 94.3936 102.096 94.3126 102.1 94.21C102.11 94.005 102.12 93.7127 102.127 93.3533C102.141 92.6365 102.14 91.6429 102.08 90.5363C101.966 88.4277 101.625 85.5256 100.508 83.4546C99.1022 80.8476 97.2214 78.9399 94.917 77.8988C92.6043 76.8539 90.0622 76.7716 87.5085 77.4683C82.5413 78.8235 78.0002 82.754 78.0001 89.4104C78 96.9199 78 111.939 78 125.08L78.0001 142.211L78.0001 147.521L78.0001 148.977L78.0001 149.356L78.0001 149.453L78.0001 149.478L78.0001 149.484V149.486C78.0001 149.486 78.0001 149.486 80.0001 149.486L78.0001 149.486C78.0001 150.591 78.8956 151.486 80.0001 151.486C81.1047 151.486 82.0001 150.591 82.0001 149.486L80.0001 149.486C82.0001 149.486 82.0001 149.486 82.0001 149.486V149.484V149.478V149.453L82.0001 149.356L82.0001 148.976L82.0001 147.521L82.0001 142.211L82 129.674H114.913L114.913 142.211L114.913 147.521L114.913 148.976L114.913 149.356V149.453V149.478V149.484V149.486C114.913 149.486 114.913 149.486 116.913 149.486L114.913 149.486C114.913 150.591 115.808 151.486 116.913 151.486C118.017 151.486 118.913 150.591 118.913 149.486L116.913 149.486C118.913 149.486 118.913 149.486 118.913 149.486V149.484V149.478V149.453V149.356L118.913 148.976L118.913 147.521L118.913 142.211L118.913 125.08C118.912 111.939 118.912 96.9199 118.913 89.4104C118.913 85.0071 121.771 82.3374 125.474 81.3272C127.308 80.8269 128.958 80.912 130.32 81.5021C131.665 82.0845 132.92 83.2406 133.845 85.2427C134.368 86.3744 134.692 88.5352 134.856 90.6872C134.933 91.7083 134.969 92.6431 134.986 93.3232C134.994 93.6625 134.998 93.9365 134.999 94.1239C135 94.2176 135 94.2895 135 94.337L135 94.3895L135 94.4013L135 94.4032V94.4035V94.4035V94.4036C134.992 95.508 135.882 96.4092 136.986 96.4167C138.091 96.4241 138.992 95.5347 139 94.4302L137 94.4167C139 94.4302 139 94.4299 139 94.4297L139 94.429L139 94.4273L139 94.4219L139 94.4035L139 94.3375C139 94.2808 139 94.1991 138.999 94.0952C138.997 93.8875 138.994 93.5902 138.985 93.2253C138.967 92.497 138.928 91.4913 138.844 90.3845C138.685 88.2805 138.34 85.4349 137.476 83.5654ZM114.913 125.674L114.913 125.08L114.912 112.895H82L82 125.08L82 125.674H114.913Z" fill="url(#paint0_linear)"/>
</g>
<defs>
<linearGradient id="paint0_linear" x1="103" y1="125.5" x2="46" y2="218" gradientUnits="userSpaceOnUse">
<stop stop-color="white"/>
<stop offset="1" stop-color="white" stop-opacity="0"/>
</linearGradient>
<clipPath id="clip0">
<rect width="208" height="208" fill="white"/>
</clipPath>
</defs>
</svg>
