<svg width="208" height="208" viewBox="0 0 208 208" fill="none" xmlns="http://www.w3.org/2000/svg">
<path opacity="0.18" d="M6.14958 97.3812C10.2149 87.8628 16.3406 78.1042 22.037 73.3799C27.7333 68.6556 97.9333 -0.000196308 130.369 0C162.804 0.000196314 157.221 8.93405 169.134 18.5806C183.668 30.3419 196.101 50.4906 198.286 74.8236C199.803 91.5232 196.465 108.815 199.106 125.201C201.125 137.747 206.526 148.829 207.755 161.597C209.17 176.25 204.354 191.818 195.941 199.799C187.528 207.779 176.901 208.005 166.921 207.579C140.746 206.448 156.54 198.844 88.4536 207.202C20.3667 215.561 2.56506 155.483 2.56506 155.483C-1.45703 136.314 -1.09832 114.345 6.14958 97.3812Z" fill="#6E71FF"/>
<path d="M104.181 169C132.557 158.385 151.362 131.272 151.362 100.976V82.6142C141.634 82.6142 133.748 74.7281 133.748 65H104.181H74.6142C74.6142 74.7281 66.7281 82.6142 57 82.6142V100.976C57 131.272 75.8055 158.385 104.181 169Z" fill="#6E71FF"/>
<path d="M104.181 169C132.557 158.385 151.362 131.272 151.362 100.976V82.6142C141.634 82.6142 133.748 74.7281 133.748 65H104.181H74.6142C74.6142 74.7281 66.7281 82.6142 57 82.6142V100.976C57 131.272 75.8055 158.385 104.181 169Z" fill="url(#paint0_linear)" fill-opacity="0.7"/>
<path d="M124 132.5V127.5C124 124.848 122.946 122.304 121.071 120.429C119.196 118.554 116.652 117.5 114 117.5H94C91.3478 117.5 88.8043 118.554 86.9289 120.429C85.0536 122.304 84 124.848 84 127.5V132.5" fill="#6E71FF"/>
<path d="M124 132.5V127.5C124 124.848 122.946 122.304 121.071 120.429C119.196 118.554 116.652 117.5 114 117.5H94C91.3478 117.5 88.8043 118.554 86.9289 120.429C85.0536 122.304 84 124.848 84 127.5V132.5" fill="url(#paint1_linear)"/>
<path d="M104 115C109.523 115 114 110.523 114 105C114 99.4772 109.523 95 104 95C98.4772 95 94 99.4772 94 105C94 110.523 98.4772 115 104 115Z" fill="#6E71FF"/>
<path d="M104 115C109.523 115 114 110.523 114 105C114 99.4772 109.523 95 104 95C98.4772 95 94 99.4772 94 105C94 110.523 98.4772 115 104 115Z" fill="url(#paint2_linear)"/>
<defs>
<linearGradient id="paint0_linear" x1="104.181" y1="65" x2="104.181" y2="169" gradientUnits="userSpaceOnUse">
<stop stop-color="#040404"/>
<stop offset="1" stop-color="white" stop-opacity="0"/>
</linearGradient>
<linearGradient id="paint1_linear" x1="104" y1="156.25" x2="104" y2="206.25" gradientUnits="userSpaceOnUse">
<stop stop-color="white"/>
<stop offset="1" stop-color="white" stop-opacity="0"/>
</linearGradient>
<linearGradient id="paint2_linear" x1="104" y1="115" x2="104" y2="128.75" gradientUnits="userSpaceOnUse">
<stop stop-color="white"/>
<stop offset="1" stop-color="white" stop-opacity="0"/>
</linearGradient>
</defs>
</svg>
