<svg width="208" height="208" viewBox="0 0 208 208" fill="none" xmlns="http://www.w3.org/2000/svg">
<path opacity="0.18" d="M192.017 177.378C189.587 179.312 186.934 180.891 184.126 182.076C179.264 184.121 174.086 185.037 169.097 186.613C166.882 187.305 164.709 188.145 162.577 189.06C149.664 194.575 137.813 203.324 124.229 206.517C99.0577 212.478 74.7302 198.925 50.6703 193.178C30.0558 188.265 13.3023 200.01 4.97912 164.472C1.50082 149.678 -2.80485 134.012 2.45993 119.816C7.72471 105.62 15.1382 92.5085 20.1601 78.2407C27.3308 57.8639 29.9858 34.388 44.0966 18.8386C53.8687 8.07191 67.8354 2.87389 81.6704 1.02957C95.5053 -0.814744 109.513 0.368654 123.443 0.431173C140.221 0.489226 158.094 -0.787951 172.604 8.37557C177.722 11.6579 182.132 16.0903 185.54 21.3748C188.948 26.6594 191.274 32.6739 192.362 39.0144C195.244 56.5153 188.403 74.6593 191.477 92.1289C194.33 108.393 205.473 122.004 207.65 138.402C209.626 153.165 203.065 168.652 192.017 177.378Z" fill="#6E71FF"/>
<path d="M73.5889 139.049C73.5889 139.049 78.8888 127.073 86.1473 125.521C92.9307 124.07 114.88 124.372 114.88 124.372C117.648 124.372 120.303 125.484 122.26 127.462C124.217 129.44 125.317 132.123 125.317 134.921H132.576L149.217 125.521C152.14 123.868 155.433 123 158.782 123H160.994C161.393 123 161.783 123.12 162.114 123.345C162.445 123.571 162.702 123.89 162.852 124.264C163.002 124.637 163.039 125.047 162.958 125.442C162.876 125.837 162.68 126.198 162.395 126.48L140.115 148.437C135.232 153.249 128.888 156.259 122.105 156.979L73.5889 159.231V139.049Z" fill="#E5C6D5"/>
<path d="M73.5889 139.049C73.5889 139.049 78.8888 127.073 86.1473 125.521C92.9307 124.07 114.88 124.372 114.88 124.372C117.648 124.372 120.303 125.484 122.26 127.462C124.217 129.44 125.317 132.123 125.317 134.921H132.576L149.217 125.521C152.14 123.868 155.433 123 158.782 123H160.994C161.393 123 161.783 123.12 162.114 123.345C162.445 123.571 162.702 123.89 162.852 124.264C163.002 124.637 163.039 125.047 162.958 125.442C162.876 125.837 162.68 126.198 162.395 126.48L140.115 148.437C135.232 153.249 128.888 156.259 122.105 156.979L73.5889 159.231V139.049Z" fill="url(#paint0_linear)"/>
<path d="M98.0984 143.382C97.5309 143.381 96.9835 143.17 96.5594 142.789C96.1353 142.407 95.8637 141.883 95.796 141.313C95.7282 140.743 95.8688 140.168 96.1913 139.696C96.5139 139.224 96.9961 138.888 97.5471 138.751L122.497 132.558C123.096 132.41 123.728 132.508 124.256 132.831C124.783 133.154 125.162 133.676 125.309 134.281C125.456 134.887 125.359 135.526 125.039 136.06C124.72 136.593 124.203 136.976 123.604 137.124L98.6564 143.314C98.4738 143.36 98.2864 143.383 98.0984 143.382Z" fill="#E5C6D5"/>
<path d="M98.0984 143.382C97.5309 143.381 96.9835 143.17 96.5594 142.789C96.1353 142.407 95.8637 141.883 95.796 141.313C95.7282 140.743 95.8688 140.168 96.1913 139.696C96.5139 139.224 96.9961 138.888 97.5471 138.751L122.497 132.558C123.096 132.41 123.728 132.508 124.256 132.831C124.783 133.154 125.162 133.676 125.309 134.281C125.456 134.887 125.359 135.526 125.039 136.06C124.72 136.593 124.203 136.976 123.604 137.124L98.6564 143.314C98.4738 143.36 98.2864 143.383 98.0984 143.382Z" fill="url(#paint1_linear)" fill-opacity="0.7"/>
<path d="M35 134.841H61.9024V166.064H35V134.841Z" fill="#6E71FF"/>
<path d="M35 134.841H61.9024V166.064H35V134.841Z" fill="url(#paint2_linear)" fill-opacity="0.4"/>
<path d="M70.6376 132.794L61.6541 132.841C61.3467 132.843 61.0547 132.972 60.8409 133.201C60.6271 133.43 60.5097 133.739 60.5143 134.061L60.9836 166.797C60.9933 167.468 61.5192 168.008 62.1582 168.005L71.1417 167.958C71.3177 167.957 71.4911 167.944 71.6612 167.921C73.7461 167.641 75.3419 165.759 75.3095 163.497L74.9326 137.21C74.8976 134.763 72.9709 132.782 70.6376 132.794Z" fill="#6E71FF"/>
<path d="M70.6376 132.794L61.6541 132.841C61.3467 132.843 61.0547 132.972 60.8409 133.201C60.6271 133.43 60.5097 133.739 60.5143 134.061L60.9836 166.797C60.9933 167.468 61.5192 168.008 62.1582 168.005L71.1417 167.958C71.3177 167.957 71.4911 167.944 71.6612 167.921C73.7461 167.641 75.3419 165.759 75.3095 163.497L74.9326 137.21C74.8976 134.763 72.9709 132.782 70.6376 132.794Z" fill="url(#paint3_linear)"/>
<path d="M60.9839 166.797L60.9325 163.204C61.1587 163.468 61.4861 163.635 61.8496 163.633L71.2667 163.583C71.4511 163.582 71.6331 163.569 71.8113 163.545C73.3704 163.336 74.6678 162.272 75.2716 160.818L75.3099 163.497C75.3424 165.759 73.7467 167.641 71.6616 167.921C71.4917 167.944 71.318 167.957 71.1422 167.957L62.1586 168.005C61.5194 168.008 60.9936 167.468 60.9839 166.797Z" fill="#6E71FF"/>
<path d="M60.9839 166.797L60.9325 163.204C61.1587 163.468 61.4861 163.635 61.8496 163.633L71.2667 163.583C71.4511 163.582 71.6331 163.569 71.8113 163.545C73.3704 163.335 74.6678 162.272 75.2716 160.818L75.3099 163.497C75.3424 165.759 73.7467 167.641 71.6616 167.921C71.4917 167.944 71.318 167.956 71.1422 167.957L62.1586 168.005C61.5194 168.008 60.9936 167.468 60.9839 166.797Z" fill="url(#paint4_linear)"/>
<path d="M67.597 160.981C68.8209 160.816 69.6758 159.64 69.5064 158.355C69.337 157.07 68.2075 156.161 66.9836 156.326C65.7597 156.491 64.9049 157.667 65.0743 158.952C65.2437 160.237 66.3731 161.146 67.597 160.981Z" fill="white"/>
<path d="M118 112.128C136.043 105.379 148 88.1388 148 68.8753V57.2C141.814 57.2 136.8 52.1856 136.8 46H118H99.2C99.2 52.1856 94.1856 57.2 88 57.2V68.8752C88 88.1388 99.9575 105.379 118 112.128Z" fill="#6E71FF"/>
<path d="M118 112.128C136.043 105.379 148 88.1388 148 68.8753V57.2C141.814 57.2 136.8 52.1856 136.8 46H118H99.2C99.2 52.1856 94.1856 57.2 88 57.2V68.8752C88 88.1388 99.9575 105.379 118 112.128Z" fill="url(#paint5_linear)" fill-opacity="0.7"/>
<path fill-rule="evenodd" clip-rule="evenodd" d="M103.875 80.7792L113.82 90.7243L118 86.5448V86.5452L132.124 72.4206L126.645 66.941L126.645 66.9411L126.645 66.9409L113.82 79.7651L109.355 75.2994L103.875 80.7792Z" fill="#6E71FF"/>
<path fill-rule="evenodd" clip-rule="evenodd" d="M103.875 80.7792L113.82 90.7243L118 86.5448V86.5452L132.124 72.4206L126.645 66.941L126.645 66.9411L126.645 66.9409L113.82 79.7651L109.355 75.2994L103.875 80.7792Z" fill="url(#paint6_linear)"/>
<defs>
<linearGradient id="paint0_linear" x1="118.364" y1="119.061" x2="113.105" y2="161.854" gradientUnits="userSpaceOnUse">
<stop stop-color="#F9D7A9"/>
<stop offset="1" stop-color="white" stop-opacity="0"/>
</linearGradient>
<linearGradient id="paint1_linear" x1="105.079" y1="118.725" x2="100.838" y2="148.761" gradientUnits="userSpaceOnUse">
<stop stop-color="#F6D1B9"/>
<stop offset="1" stop-color="white" stop-opacity="0"/>
</linearGradient>
<linearGradient id="paint2_linear" x1="48.4512" y1="134.841" x2="48.4512" y2="166.064" gradientUnits="userSpaceOnUse">
<stop stop-color="#2B2B2B"/>
<stop offset="1" stop-color="#202020" stop-opacity="0"/>
</linearGradient>
<linearGradient id="paint3_linear" x1="65.3774" y1="132.331" x2="72.1152" y2="183.002" gradientUnits="userSpaceOnUse">
<stop stop-color="#0E0E0E"/>
<stop offset="1" stop-color="white" stop-opacity="0"/>
<stop offset="1" stop-color="#434343" stop-opacity="0"/>
</linearGradient>
<linearGradient id="paint4_linear" x1="67.8609" y1="161.816" x2="68.736" y2="168.315" gradientUnits="userSpaceOnUse">
<stop stop-color="#494949"/>
<stop offset="1" stop-color="#2E2E2E" stop-opacity="0"/>
</linearGradient>
<linearGradient id="paint5_linear" x1="118" y1="46" x2="118" y2="112.128" gradientUnits="userSpaceOnUse">
<stop stop-color="#040404"/>
<stop offset="1" stop-color="white" stop-opacity="0"/>
</linearGradient>
<linearGradient id="paint6_linear" x1="116.41" y1="82.879" x2="116.728" y2="134.701" gradientUnits="userSpaceOnUse">
<stop stop-color="white"/>
<stop offset="1" stop-color="white" stop-opacity="0"/>
</linearGradient>
</defs>
</svg>
