<svg width="208" height="208" viewBox="0 0 208 208" fill="none" xmlns="http://www.w3.org/2000/svg">
<path opacity="0.18" d="M6.14958 97.3812C10.2149 87.8628 16.3406 78.1042 22.037 73.3799C27.7333 68.6556 97.9333 -0.000196308 130.369 0C162.804 0.000196314 157.221 8.93405 169.134 18.5806C183.668 30.3419 196.101 50.4906 198.286 74.8236C199.803 91.5232 196.465 108.815 199.106 125.201C201.125 137.747 206.526 148.829 207.755 161.597C209.17 176.25 204.354 191.818 195.941 199.799C187.528 207.779 176.901 208.005 166.921 207.579C140.746 206.448 156.54 198.844 88.4536 207.202C20.3667 215.561 2.56506 155.483 2.56506 155.483C-1.45703 136.314 -1.09832 114.345 6.14958 97.3812Z" fill="#6E71FF"/>
<path d="M104 169C132.376 158.385 151.181 131.272 151.181 100.976V82.6142C141.453 82.6142 133.567 74.7281 133.567 65H104H74.4335C74.4335 74.7281 66.5474 82.6142 56.8193 82.6142V100.976C56.8193 131.272 75.6249 158.385 104 169Z" fill="#6E71FF"/>
<path d="M104 169C132.376 158.385 151.181 131.272 151.181 100.976V82.6142C141.453 82.6142 133.567 74.7281 133.567 65H104H74.4335C74.4335 74.7281 66.5474 82.6142 56.8193 82.6142V100.976C56.8193 131.272 75.6249 158.385 104 169Z" fill="url(#paint0_linear)" fill-opacity="0.7"/>
<path fill-rule="evenodd" clip-rule="evenodd" d="M81.7871 119.698L97.4281 135.338L126.215 106.552L117.597 97.9341L117.597 97.9341L117.597 97.9341L104.001 111.53V111.53L97.4281 118.103L90.4049 111.08L81.7871 119.698Z" fill="#6E71FF"/>
<path fill-rule="evenodd" clip-rule="evenodd" d="M81.7871 119.698L97.4281 135.338L126.215 106.552L117.597 97.9341L117.597 97.9341L117.597 97.9341L104.001 111.53V111.53L97.4281 118.103L90.4049 111.08L81.7871 119.698Z" fill="url(#paint1_linear)"/>
<defs>
<linearGradient id="paint0_linear" x1="104" y1="65" x2="104" y2="169" gradientUnits="userSpaceOnUse">
<stop stop-color="#040404"/>
<stop offset="1" stop-color="white" stop-opacity="0"/>
</linearGradient>
<linearGradient id="paint1_linear" x1="101.501" y1="123" x2="102.001" y2="204.5" gradientUnits="userSpaceOnUse">
<stop stop-color="white"/>
<stop offset="1" stop-color="white" stop-opacity="0"/>
</linearGradient>
</defs>
</svg>
