<svg width="208" height="208" viewBox="0 0 208 208" fill="none" xmlns="http://www.w3.org/2000/svg">
<path opacity="0.18" d="M207.318 160.781C206.764 166.99 205.779 173.396 202.794 178.334C200.123 182.798 196.127 185.576 192.158 187.999C166.167 203.741 136.77 207.75 108.05 207.987C85.9257 208.185 63.2474 206.157 42.9897 194.734C23.4244 183.706 6.32589 162.473 1.50508 135.888C1.33071 134.953 1.18198 134.011 1.03838 133.057C-0.212979 124.452 -0.166823 115.55 0.31013 106.781C1.22814 89.9129 3.98728 72.3933 12.3827 59.3376C19.7934 47.7961 30.6556 41.1004 40.5331 33.1273C49.0619 26.2407 57.0316 18.182 65.9604 12.1973C77.756 4.29673 90.9414 0.425436 104.193 0.0238222C127.128 -0.634561 146.381 12.5331 168.351 17.3327C191.363 22.343 191.943 43.9973 194.168 69.7861C195.276 82.5193 199.866 94.2517 202.989 106.425C207.471 123.931 208.948 142.474 207.318 160.781Z" fill="#6E71FF"/>
<path opacity="0.4" d="M202.794 178.334C205.779 173.396 206.764 166.99 207.318 160.781C208.948 142.474 207.318 129 205.961 124L0 123.5C0 124.5 1.33071 134.953 1.50508 135.888C6.32589 162.473 23.4244 183.706 42.9897 194.734C63.2474 206.157 85.9257 208.185 108.05 207.987C136.77 207.75 166.167 203.741 192.158 187.999C196.127 185.576 200.123 182.798 202.794 178.334Z" fill="#6E71FF"/>
<path d="M121.327 74.048H95.6368C94.6206 74.048 93.7969 73.2239 93.7969 72.2072C93.7969 71.1905 94.6206 70.3665 95.6368 70.3665H121.327C122.343 70.3665 123.167 71.1905 123.167 72.2072C123.167 73.2239 122.343 74.048 121.327 74.048Z" fill="#6E71FF"/>
<path d="M138.603 146.71C138.544 146.71 138.485 146.707 138.426 146.701L128.419 145.747C127.407 145.651 126.665 144.752 126.761 143.74C126.858 142.728 127.76 141.986 128.768 142.082L138.775 143.036C139.787 143.132 140.529 144.031 140.433 145.043C140.342 145.996 139.54 146.71 138.603 146.71Z" fill="#6E71FF"/>
<path d="M138.603 146.71C138.544 146.71 138.485 146.707 138.426 146.701L128.419 145.747C127.407 145.651 126.665 144.752 126.761 143.74C126.858 142.728 127.76 141.986 128.768 142.082L138.775 143.036C139.787 143.132 140.529 144.031 140.433 145.043C140.342 145.996 139.54 146.71 138.603 146.71Z" fill="url(#paint0_linear)"/>
<path d="M78.3545 146.71C77.417 146.71 76.6157 145.996 76.525 145.043C76.4288 144.031 77.1705 143.132 78.1823 143.036L88.1899 142.082C89.2026 141.984 90.0998 142.728 90.1962 143.74C90.2923 144.752 89.5506 145.651 88.5389 145.747L78.5313 146.701C78.472 146.707 78.4127 146.71 78.3545 146.71Z" fill="#6E71FF"/>
<path d="M78.3545 146.71C77.417 146.71 76.6157 145.996 76.525 145.043C76.4288 144.031 77.1705 143.132 78.1823 143.036L88.1899 142.082C89.2026 141.984 90.0998 142.728 90.1962 143.74C90.2923 144.752 89.5506 145.651 88.5389 145.747L78.5313 146.701C78.472 146.707 78.4127 146.71 78.3545 146.71Z" fill="url(#paint1_linear)"/>
<path fill-rule="evenodd" clip-rule="evenodd" d="M96.3996 148.618H120.565C125.638 148.618 129.78 144.458 129.788 139.38L129.802 133.386C115.594 133.386 101.378 133.386 87.1689 133.386V139.38C87.1689 141.024 87.6016 142.572 88.3641 143.915C89.9552 146.718 92.9685 148.618 96.3996 148.618Z" fill="#6E71FF"/>
<path fill-rule="evenodd" clip-rule="evenodd" d="M96.3996 148.618H120.565C125.638 148.618 129.78 144.458 129.788 139.38L129.802 133.386C115.594 133.386 101.378 133.386 87.1689 133.386V139.38C87.1689 141.024 87.6016 142.572 88.3641 143.915C89.9552 146.718 92.9685 148.618 96.3996 148.618Z" fill="url(#paint2_linear)" fill-opacity="0.7"/>
<path fill-rule="evenodd" clip-rule="evenodd" d="M165.807 138.893C165.805 140.118 165.8 141.345 165.795 142.57C165.787 144.316 165.782 146.062 165.775 147.806C165.773 149.033 165.77 150.261 165.768 151.485C165.766 152.518 165.766 153.55 165.766 154.583C165.766 159.205 161.988 162.984 157.37 162.984H146.996C142.376 162.984 138.601 159.205 138.601 154.583V133.387H148.96C153.242 133.387 158.485 130.201 160.603 125.645L165.759 114.579C165.856 122.66 165.839 130.779 165.807 138.893Z" fill="#6E71FF"/>
<path fill-rule="evenodd" clip-rule="evenodd" d="M50.7271 138.184C50.7295 139.409 50.7345 140.636 50.7394 141.861C50.7467 143.607 50.7517 145.353 50.7588 147.097C50.7612 148.324 50.7638 149.552 50.7661 150.776C50.7685 151.809 50.7685 152.842 50.7685 153.874C50.7685 158.496 54.5462 162.275 59.1639 162.275H69.5382C74.1582 162.275 77.9336 158.496 77.9336 153.874V132.678H67.5737C63.292 132.678 58.0489 129.493 55.9311 124.936L50.7756 113.87C50.6785 121.951 50.6955 130.07 50.7271 138.184Z" fill="#6E71FF"/>
<path fill-rule="evenodd" clip-rule="evenodd" d="M165.807 138.893C165.805 140.118 165.8 141.345 165.795 142.57C165.787 144.316 165.782 146.062 165.775 147.806C165.773 149.033 165.77 150.261 165.768 151.485C165.766 152.518 165.766 153.55 165.766 154.583C165.766 159.205 161.988 162.984 157.37 162.984H146.996C142.376 162.984 138.601 159.205 138.601 154.583V133.387H148.96C153.242 133.387 158.485 130.201 160.603 125.645L165.759 114.579C165.856 122.66 165.839 130.779 165.807 138.893Z" fill="url(#paint3_linear)" fill-opacity="0.5"/>
<path fill-rule="evenodd" clip-rule="evenodd" d="M50.7271 138.184C50.7295 139.409 50.7345 140.636 50.7394 141.861C50.7467 143.607 50.7517 145.353 50.7588 147.097C50.7612 148.324 50.7638 149.552 50.7661 150.776C50.7685 151.809 50.7685 152.842 50.7685 153.874C50.7685 158.496 54.5462 162.275 59.1639 162.275H69.5382C74.1582 162.275 77.9336 158.496 77.9336 153.874V132.678H67.5737C63.292 132.678 58.0489 129.493 55.9311 124.936L50.7756 113.87C50.6785 121.951 50.6955 130.07 50.7271 138.184Z" fill="url(#paint4_linear)" fill-opacity="0.5"/>
<path fill-rule="evenodd" clip-rule="evenodd" d="M150.536 140.73C152.618 140.73 154.899 140.099 157.025 139.094C160.133 137.627 159.276 140.048 159.261 145.037C159.232 151.318 159.21 153.886 159.21 160.145C159.21 161.099 159.019 162.023 158.682 162.882C162.678 162.251 165.764 158.758 165.764 154.583C165.764 145.999 165.83 137.37 165.83 128.756C165.83 124.024 165.816 119.298 165.757 114.58L138.601 133.386V140.731H150.536V140.73Z" fill="#6E71FF"/>
<path fill-rule="evenodd" clip-rule="evenodd" d="M65.9979 140.021C63.9158 140.021 61.6357 139.39 59.5093 138.385C56.4008 136.918 57.2585 139.339 57.2732 144.328C57.3025 150.609 57.3244 153.177 57.3244 159.436C57.3244 160.39 57.5151 161.314 57.8523 162.173C53.8565 161.542 50.7699 158.049 50.7699 153.875C50.7699 145.29 50.704 136.661 50.704 128.047C50.704 123.315 50.7186 118.589 50.7772 113.871L77.9336 132.677V140.022H65.9979V140.021Z" fill="#6E71FF"/>
<path fill-rule="evenodd" clip-rule="evenodd" d="M150.536 140.73C152.618 140.73 154.899 140.099 157.025 139.094C160.133 137.627 159.276 140.048 159.261 145.037C159.232 151.318 159.21 153.886 159.21 160.145C159.21 161.099 159.019 162.023 158.682 162.882C162.678 162.251 165.764 158.758 165.764 154.583C165.764 145.999 165.83 137.37 165.83 128.756C165.83 124.024 165.816 119.298 165.757 114.58L138.601 133.386V140.731H150.536V140.73Z" fill="url(#paint5_linear)" fill-opacity="0.9"/>
<path fill-rule="evenodd" clip-rule="evenodd" d="M65.9979 140.021C63.9158 140.021 61.6357 139.39 59.5093 138.385C56.4008 136.918 57.2585 139.339 57.2732 144.328C57.3025 150.609 57.3244 153.177 57.3244 159.436C57.3244 160.39 57.5151 161.314 57.8523 162.173C53.8565 161.542 50.7699 158.049 50.7699 153.875C50.7699 145.29 50.704 136.661 50.704 128.047C50.704 123.315 50.7186 118.589 50.7772 113.871L77.9336 132.677V140.022H65.9979V140.021Z" fill="url(#paint6_linear)" fill-opacity="0.9"/>
<path fill-rule="evenodd" clip-rule="evenodd" d="M105.043 133.386H111.913H129.802H138.6H148.96C153.242 133.386 158.484 130.201 160.603 125.645L165.757 114.58L167.89 110.009C171.058 103.222 166.49 100.141 163.909 100.141H148.168H68.7957H53.0547C50.4667 100.141 45.9064 103.222 49.0663 110.009L51.1997 114.58L56.3537 125.645C58.4798 130.201 63.722 133.386 68.0037 133.386H78.356H78.6786H105.043Z" fill="#6E71FF"/>
<path fill-rule="evenodd" clip-rule="evenodd" d="M121.327 83.6828H130.198V67.8122V59.0586H126.342C123.585 59.0586 121.327 61.3186 121.327 64.0846V67.812V72.207V83.6828Z" fill="url(#paint7_linear)"/>
<path fill-rule="evenodd" clip-rule="evenodd" d="M95.6364 83.6828V72.2072V67.746V64.0187C95.6364 61.2598 93.3783 59 90.6142 59H86.7578V67.746V83.6826L95.6364 83.6828Z" fill="url(#paint8_linear)"/>
<path fill-rule="evenodd" clip-rule="evenodd" d="M66.5013 67.746V59H63.0114C56.4129 59 56.4129 67.746 63.0114 67.746H66.5013Z" fill="url(#paint9_linear)"/>
<path fill-rule="evenodd" clip-rule="evenodd" d="M153.953 67.8122C160.544 67.8122 160.551 59.0588 153.953 59.0588H150.463V67.8122H153.953Z" fill="url(#paint10_linear)"/>
<path fill-rule="evenodd" clip-rule="evenodd" d="M160.603 125.645L165.757 114.58L167.89 110.009C171.058 103.222 166.49 100.141 163.909 100.141H148.168C150.749 100.141 155.309 103.222 152.149 110.009L150.756 112.995H150.815C153.85 112.995 156.336 115.483 156.336 118.52C156.336 121.558 153.85 124.045 150.815 124.045H145.602L144.861 125.645C142.735 130.201 137.5 133.386 133.219 133.386H138.6H148.96C153.242 133.386 158.484 130.201 160.603 125.645Z" fill="#6E71FF"/>
<path fill-rule="evenodd" clip-rule="evenodd" d="M160.603 125.645L165.757 114.58L167.89 110.009C171.058 103.222 166.49 100.141 163.909 100.141H148.168C150.749 100.141 155.309 103.222 152.149 110.009L150.756 112.995H150.815C153.85 112.995 156.336 115.483 156.336 118.52C156.336 121.558 153.85 124.045 150.815 124.045H145.602L144.861 125.645C142.735 130.201 137.5 133.386 133.219 133.386H138.6H148.96C153.242 133.386 158.484 130.201 160.603 125.645Z" fill="url(#paint11_linear)"/>
<path fill-rule="evenodd" clip-rule="evenodd" d="M95.6364 83.6829C95.6364 77.1306 95.6364 70.5784 95.6364 64.0189C95.6364 61.26 93.3783 59.0002 90.6142 59.0002H86.7578V59.0295C89.2506 59.3231 91.2009 61.4583 91.2009 64.0189V83.6829H95.6364Z" fill="#6E71FF"/>
<path fill-rule="evenodd" clip-rule="evenodd" d="M95.6364 83.6829C95.6364 77.1306 95.6364 70.5784 95.6364 64.0189C95.6364 61.26 93.3783 59.0002 90.6142 59.0002H86.7578V59.0295C89.2506 59.3231 91.2009 61.4583 91.2009 64.0189V83.6829H95.6364Z" fill="url(#paint12_linear)"/>
<path fill-rule="evenodd" clip-rule="evenodd" d="M130.199 83.6828V67.8122V59.0586H126.342C126.078 59.0586 125.821 59.0806 125.564 59.1172H125.762V67.8706V83.6826H130.199V83.6828Z" fill="#6E71FF"/>
<path fill-rule="evenodd" clip-rule="evenodd" d="M130.199 83.6828V67.8122V59.0586H126.342C126.078 59.0586 125.821 59.0806 125.564 59.1172H125.762V67.8706V83.6826H130.199V83.6828Z" fill="url(#paint13_linear)"/>
<path fill-rule="evenodd" clip-rule="evenodd" d="M66.501 59H86.7583V67.746H66.501V59Z" fill="#6E71FF"/>
<path fill-rule="evenodd" clip-rule="evenodd" d="M82.2782 124.045C85.3136 124.045 87.799 121.558 87.799 118.52C87.799 115.483 85.3136 112.995 82.2782 112.995H69.4993C66.464 112.995 63.9785 115.483 63.9785 118.52C63.9785 121.558 66.464 124.045 69.4993 124.045H82.2782Z" fill="#6E71FF"/>
<path fill-rule="evenodd" clip-rule="evenodd" d="M82.2782 124.045C85.3136 124.045 87.799 121.558 87.799 118.52C87.799 115.483 85.3136 112.995 82.2782 112.995H69.4993C66.464 112.995 63.9785 115.483 63.9785 118.52C63.9785 121.558 66.464 124.045 69.4993 124.045H82.2782Z" fill="url(#paint14_linear)"/>
<path fill-rule="evenodd" clip-rule="evenodd" d="M138.036 124.045H150.815C153.851 124.045 156.336 121.558 156.336 118.52C156.336 115.483 153.851 112.995 150.815 112.995H138.036C135.001 112.995 132.516 115.483 132.516 118.52C132.516 121.558 135.001 124.045 138.036 124.045Z" fill="#6E71FF"/>
<path fill-rule="evenodd" clip-rule="evenodd" d="M138.036 124.045H150.815C153.851 124.045 156.336 121.558 156.336 118.52C156.336 115.483 153.851 112.995 150.815 112.995H138.036C135.001 112.995 132.516 115.483 132.516 118.52C132.516 121.558 135.001 124.045 138.036 124.045Z" fill="url(#paint15_linear)"/>
<path fill-rule="evenodd" clip-rule="evenodd" d="M156.336 118.52C156.336 115.482 153.851 112.995 150.815 112.995H150.757H145.603C148.645 112.995 151.123 115.482 151.123 118.52C151.123 121.558 148.645 124.045 145.603 124.045H150.815C153.851 124.045 156.336 121.558 156.336 118.52Z" fill="#6E71FF"/>
<path fill-rule="evenodd" clip-rule="evenodd" d="M156.336 118.52C156.336 115.482 153.851 112.995 150.815 112.995H150.757H145.603C148.645 112.995 151.123 115.482 151.123 118.52C151.123 121.558 148.645 124.045 145.603 124.045H150.815C153.851 124.045 156.336 121.558 156.336 118.52Z" fill="url(#paint16_linear)"/>
<path fill-rule="evenodd" clip-rule="evenodd" d="M87.7998 118.491C87.7998 115.453 85.3144 112.973 82.2791 112.973H82.2205H77.0664C80.1017 112.973 82.5872 115.453 82.5872 118.491C82.5872 121.536 80.1017 124.016 77.0664 124.016H82.2793C85.3144 124.016 87.7998 121.536 87.7998 118.491Z" fill="#6E71FF"/>
<path fill-rule="evenodd" clip-rule="evenodd" d="M87.7998 118.491C87.7998 115.453 85.3144 112.973 82.2791 112.973H82.2205H77.0664C80.1017 112.973 82.5872 115.453 82.5872 118.491C82.5872 121.536 80.1017 124.016 77.0664 124.016H82.2793C85.3144 124.016 87.7998 121.536 87.7998 118.491Z" fill="url(#paint17_linear)"/>
<path fill-rule="evenodd" clip-rule="evenodd" d="M130.198 59.0586H150.463V67.812H130.198V59.0586Z" fill="#6E71FF"/>
<path fill-rule="evenodd" clip-rule="evenodd" d="M87.1689 133.386H129.788V139.38H87.1689V133.386Z" fill="#6E71FF"/>
<path fill-rule="evenodd" clip-rule="evenodd" d="M87.1689 133.386H129.788V139.38H87.1689V133.386Z" fill="url(#paint18_linear)" fill-opacity="0.7"/>
<path fill-rule="evenodd" clip-rule="evenodd" d="M118.915 106.979L148.168 100.14V91.9813C148.168 87.4176 144.437 83.6829 139.876 83.6829H130.199H121.327H108.482H95.6371H86.7585H77.0807C72.5278 83.6829 68.7959 87.4176 68.7959 91.9813V100.14L98.0493 106.979L105.901 108.776C107.852 109.224 109.245 109.187 111.012 108.784L118.915 106.979Z" fill="#6E71FF"/>
<path fill-rule="evenodd" clip-rule="evenodd" d="M118.915 106.979L148.168 100.14V91.9813C148.168 87.4176 144.437 83.6829 139.876 83.6829H130.199H121.327H108.482H95.6371H86.7585H77.0807C72.5278 83.6829 68.7959 87.4176 68.7959 91.9813V100.14L98.0493 106.979L105.901 108.776C107.852 109.224 109.245 109.187 111.012 108.784L118.915 106.979Z" fill="url(#paint19_linear)"/>
<path fill-rule="evenodd" clip-rule="evenodd" d="M148.168 91.9813C148.168 87.4176 144.436 83.6829 139.876 83.6829H130.198H125.763C130.323 83.6829 134.048 87.4762 134.048 92.0401V103.442L148.168 100.141V91.9813Z" fill="#6E71FF"/>
<path fill-rule="evenodd" clip-rule="evenodd" d="M148.168 91.9813C148.168 87.4176 144.436 83.6829 139.876 83.6829H130.198H125.763C130.323 83.6829 134.048 87.4762 134.048 92.0401V103.442L148.168 100.141V91.9813Z" fill="url(#paint20_linear)" fill-opacity="0.7"/>
<path d="M121.327 122.643H95.6368C94.6206 122.643 93.7969 121.819 93.7969 120.802C93.7969 119.786 94.6206 118.961 95.6368 118.961H121.327C122.343 118.961 123.167 119.786 123.167 120.802C123.167 121.819 122.343 122.643 121.327 122.643Z" fill="url(#paint21_linear)" fill-opacity="0.8"/>
<path d="M115.064 97.9942H101.423C100.884 97.9942 100.446 97.2007 100.446 96.2217C100.446 95.2428 100.884 94.4493 101.423 94.4493H115.064C115.604 94.4493 116.041 95.2428 116.041 96.2217C116.041 97.2007 115.604 97.9942 115.064 97.9942Z" fill="url(#paint22_linear)" fill-opacity="0.8"/>
<path d="M145.265 149.644C145.265 150.662 144.442 151.485 143.425 151.485H138.601V147.806H143.425C144.442 147.806 145.265 148.629 145.265 149.644Z" fill="#6E71FF"/>
<path d="M71.269 148.935C71.269 149.953 72.0917 150.776 73.1091 150.776H77.9336V147.097H73.1091C72.0917 147.097 71.269 147.92 71.269 148.935Z" fill="#6E71FF"/>
<path d="M145.265 140.731C145.265 141.747 144.442 142.572 143.425 142.572H138.601V138.89H143.425C144.442 138.89 145.265 139.713 145.265 140.731Z" fill="#6E71FF"/>
<path d="M71.269 140.022C71.269 141.038 72.0917 141.863 73.1091 141.863H77.9336V138.181H73.1091C72.0917 138.181 71.269 139.004 71.269 140.022Z" fill="#6E71FF"/>
<path d="M165.775 147.806C165.773 149.033 165.77 150.26 165.768 151.485H160.934C159.916 151.485 159.094 150.662 159.094 149.644C159.094 148.629 159.916 147.806 160.934 147.806H165.775Z" fill="#6E71FF"/>
<path d="M50.7588 147.097C50.7611 148.324 50.7637 149.551 50.7661 150.776H55.6003C56.6177 150.776 57.4404 149.953 57.4404 148.935C57.4404 147.92 56.6177 147.097 55.6003 147.097H50.7588Z" fill="#6E71FF"/>
<path d="M165.806 138.893C165.804 140.118 165.799 141.345 165.794 142.57C165.784 142.572 165.775 142.572 165.765 142.572H160.933C159.916 142.572 159.093 141.747 159.093 140.731C159.093 139.713 159.916 138.89 160.933 138.89H165.765C165.78 138.89 165.792 138.89 165.806 138.893Z" fill="#6E71FF"/>
<path d="M50.7269 138.184C50.7293 139.409 50.7342 140.636 50.7392 141.861C50.7489 141.863 50.7586 141.863 50.7685 141.863H55.6002C56.6177 141.863 57.4404 141.038 57.4404 140.022C57.4404 139.004 56.6177 138.181 55.6002 138.181H50.7685C50.7536 138.181 50.7415 138.181 50.7269 138.184Z" fill="#6E71FF"/>
<defs>
<linearGradient id="paint0_linear" x1="134.353" y1="138.17" x2="132.817" y2="153.886" gradientUnits="userSpaceOnUse">
<stop/>
<stop offset="1" stop-opacity="0"/>
</linearGradient>
<linearGradient id="paint1_linear" x1="83.4342" y1="134.861" x2="83.4342" y2="156.249" gradientUnits="userSpaceOnUse">
<stop/>
<stop offset="1" stop-opacity="0"/>
</linearGradient>
<linearGradient id="paint2_linear" x1="108.486" y1="133.386" x2="108.48" y2="165.466" gradientUnits="userSpaceOnUse">
<stop stop-color="white"/>
<stop offset="1" stop-color="white" stop-opacity="0"/>
</linearGradient>
<linearGradient id="paint3_linear" x1="152.193" y1="134.625" x2="152.193" y2="206.469" gradientUnits="userSpaceOnUse">
<stop stop-color="#030303"/>
<stop offset="1" stop-opacity="0"/>
</linearGradient>
<linearGradient id="paint4_linear" x1="64.3414" y1="133.916" x2="64.3414" y2="205.76" gradientUnits="userSpaceOnUse">
<stop stop-color="#030303"/>
<stop offset="1" stop-opacity="0"/>
</linearGradient>
<linearGradient id="paint5_linear" x1="157.745" y1="111.465" x2="152.19" y2="191.935" gradientUnits="userSpaceOnUse">
<stop/>
<stop offset="1" stop-opacity="0"/>
</linearGradient>
<linearGradient id="paint6_linear" x1="58.7892" y1="110.756" x2="64.3439" y2="191.226" gradientUnits="userSpaceOnUse">
<stop/>
<stop offset="1" stop-opacity="0"/>
</linearGradient>
<linearGradient id="paint7_linear" x1="126.91" y1="89.0137" x2="125.728" y2="105.32" gradientUnits="userSpaceOnUse">
<stop stop-color="white"/>
<stop offset="1" stop-color="white" stop-opacity="0"/>
</linearGradient>
<linearGradient id="paint8_linear" x1="91.2307" y1="89.25" x2="91.2307" y2="111.701" gradientUnits="userSpaceOnUse">
<stop stop-color="white"/>
<stop offset="1" stop-color="white" stop-opacity="0"/>
</linearGradient>
<linearGradient id="paint9_linear" x1="62.1685" y1="69.5166" x2="62.1685" y2="81.4512" gradientUnits="userSpaceOnUse">
<stop stop-color="white"/>
<stop offset="1" stop-color="white" stop-opacity="0"/>
</linearGradient>
<linearGradient id="paint10_linear" x1="154.792" y1="72.8252" x2="154.792" y2="84.9961" gradientUnits="userSpaceOnUse">
<stop stop-color="white"/>
<stop offset="1" stop-color="white" stop-opacity="0"/>
</linearGradient>
<linearGradient id="paint11_linear" x1="151.094" y1="100.141" x2="151.094" y2="133.386" gradientUnits="userSpaceOnUse">
<stop stop-color="#373737"/>
<stop offset="1" stop-opacity="0"/>
</linearGradient>
<linearGradient id="paint12_linear" x1="91.2307" y1="48.0107" x2="91.2307" y2="112.174" gradientUnits="userSpaceOnUse">
<stop stop-color="white"/>
<stop offset="1" stop-color="white" stop-opacity="0"/>
</linearGradient>
<linearGradient id="paint13_linear" x1="127.855" y1="49.0742" x2="127.855" y2="112.883" gradientUnits="userSpaceOnUse">
<stop stop-color="white"/>
<stop offset="1" stop-color="white" stop-opacity="0"/>
</linearGradient>
<linearGradient id="paint14_linear" x1="75.8723" y1="112.883" x2="75.8723" y2="147.859" gradientUnits="userSpaceOnUse">
<stop stop-color="white"/>
<stop offset="1" stop-color="white" stop-opacity="0"/>
</linearGradient>
<linearGradient id="paint15_linear" x1="144.426" y1="112.995" x2="144.395" y2="146.796" gradientUnits="userSpaceOnUse">
<stop stop-color="white"/>
<stop offset="1" stop-color="white" stop-opacity="0"/>
</linearGradient>
<linearGradient id="paint16_linear" x1="151.011" y1="107.329" x2="151.011" y2="140.415" gradientUnits="userSpaceOnUse">
<stop stop-color="white"/>
<stop offset="1" stop-color="white" stop-opacity="0"/>
</linearGradient>
<linearGradient id="paint17_linear" x1="82.4891" y1="107.802" x2="82.4891" y2="139.588" gradientUnits="userSpaceOnUse">
<stop stop-color="white"/>
<stop offset="1" stop-color="white" stop-opacity="0"/>
</linearGradient>
<linearGradient id="paint18_linear" x1="108.48" y1="124.699" x2="108.48" y2="149.396" gradientUnits="userSpaceOnUse">
<stop stop-color="#030303"/>
<stop offset="1" stop-opacity="0"/>
</linearGradient>
<linearGradient id="paint19_linear" x1="106.235" y1="54.6279" x2="106.944" y2="155.422" gradientUnits="userSpaceOnUse">
<stop stop-color="white"/>
<stop offset="1" stop-color="white" stop-opacity="0"/>
</linearGradient>
<linearGradient id="paint20_linear" x1="137.07" y1="77.1973" x2="137.07" y2="113.237" gradientUnits="userSpaceOnUse">
<stop/>
<stop offset="1" stop-opacity="0"/>
</linearGradient>
<linearGradient id="paint21_linear" x1="108.48" y1="115.128" x2="108.48" y2="128.599" gradientUnits="userSpaceOnUse">
<stop stop-color="#0F0F0F"/>
<stop offset="1" stop-opacity="0"/>
</linearGradient>
<linearGradient id="paint22_linear" x1="108.243" y1="90.758" x2="108.243" y2="103.729" gradientUnits="userSpaceOnUse">
<stop stop-color="#0F0F0F"/>
<stop offset="1" stop-opacity="0"/>
</linearGradient>
</defs>
</svg>
