<svg width="208" height="208" viewBox="0 0 208 208" fill="none" xmlns="http://www.w3.org/2000/svg">
<path opacity="0.18" d="M207.995 150.775C208.327 175.661 191.696 199.325 170.959 203.498C161.254 205.46 151.353 203.57 141.497 203.053C120.059 201.947 98.6698 207.386 77.2693 207.957C72.9371 208.073 68.5975 207.957 64.254 207.596C49.9732 206.317 36.0274 201.845 23.1571 194.417C17.6675 191.251 12.3098 187.471 8.3132 182.032C-0.260592 170.378 -1.0863 153.32 0.896908 138.073C2.88012 122.826 7.24242 107.921 7.46487 92.4868C7.62323 81.7111 5.75313 71.0513 5.27429 60.289C4.79546 49.5266 5.90017 38.1134 11.2579 29.4019C16.6155 20.6904 25.5324 15.9155 34.4644 13.838C43.3964 11.7604 52.5621 12.0324 61.66 11.3636C80.4779 9.99937 98.9036 4.57362 117.612 1.86744C145.513 -2.17624 190.38 -3.48252 193.468 39.6961C193.705 43.2674 193.77 46.8517 193.664 50.4317C193.393 62.3576 191.843 74.3282 193.125 86.1649C195.523 108.407 207.693 128.363 207.995 150.775Z" fill="#6E71FF"/>
<path d="M104 166C138.242 166 166 138.242 166 104C166 69.7583 138.242 42 104 42C69.7583 42 42 69.7583 42 104C42 138.242 69.7583 166 104 166Z" fill="#6E71FF"/>
<path d="M100.485 165.902C101.657 166 102.829 166 104 166C105.172 166 106.344 166 107.515 165.902V70.1197H100.485V165.902Z" fill="#6E71FF"/>
<path d="M100.485 165.902C101.657 166 102.829 166 104 166C105.172 166 106.344 166 107.515 165.902V70.1197H100.485V165.902Z" fill="url(#paint0_linear)" fill-opacity="0.8"/>
<path d="M146.57 133.584H61.4298C58.9889 133.584 57.0361 131.632 57.0361 129.191V82.8126C57.0361 80.3717 58.9889 78.4189 61.4298 78.4189H146.472C148.913 78.4189 150.866 80.3717 150.866 82.8126V129.288C150.964 131.632 148.913 133.584 146.57 133.584Z" fill="url(#paint1_linear)"/>
<path d="M99.8023 114.447C99.8023 115.326 99.0212 116.107 98.1425 116.107H88.8669C87.8905 116.107 87.207 115.326 87.207 114.447V97.5559C87.207 96.6772 87.9881 95.8961 88.8669 95.8961H98.1425C99.1188 95.8961 99.8023 96.6772 99.8023 97.5559C99.8023 98.5323 99.0212 99.2157 98.1425 99.2157H90.5267V104.293H96.385C97.2637 104.293 98.0448 105.074 98.0448 105.953C98.0448 106.831 97.2637 107.613 96.385 107.613H90.5267V112.787H98.1425C99.0212 112.787 99.8023 113.471 99.8023 114.447Z" fill="#6E71FF"/>
<path d="M99.8023 114.447C99.8023 115.326 99.0212 116.107 98.1425 116.107H88.8669C87.8905 116.107 87.207 115.326 87.207 114.447V97.5559C87.207 96.6772 87.9881 95.8961 88.8669 95.8961H98.1425C99.1188 95.8961 99.8023 96.6772 99.8023 97.5559C99.8023 98.5323 99.0212 99.2157 98.1425 99.2157H90.5267V104.293H96.385C97.2637 104.293 98.0448 105.074 98.0448 105.953C98.0448 106.831 97.2637 107.613 96.385 107.613H90.5267V112.787H98.1425C99.0212 112.787 99.8023 113.471 99.8023 114.447Z" fill="url(#paint2_linear)"/>
<path d="M117.084 115.424L108.394 102.926V114.447C108.394 115.326 107.613 116.107 106.734 116.107C105.855 116.107 105.074 115.326 105.074 114.447V97.5559C105.074 96.6772 105.758 95.8961 106.734 95.8961C107.222 95.8961 107.808 96.189 108.101 96.5795L116.791 109.077V97.5559C116.791 96.6772 117.572 95.8961 118.451 95.8961C119.329 95.8961 120.11 96.6772 120.11 97.5559V114.447C120.11 115.326 119.329 116.107 118.451 116.107C117.962 116.107 117.377 115.912 117.084 115.424Z" fill="#6E71FF"/>
<path d="M117.084 115.424L108.394 102.926V114.447C108.394 115.326 107.613 116.107 106.734 116.107C105.855 116.107 105.074 115.326 105.074 114.447V97.5559C105.074 96.6772 105.758 95.8961 106.734 95.8961C107.222 95.8961 107.808 96.189 108.101 96.5795L116.791 109.077V97.5559C116.791 96.6772 117.572 95.8961 118.451 95.8961C119.329 95.8961 120.11 96.6772 120.11 97.5559V114.447C120.11 115.326 119.329 116.107 118.451 116.107C117.962 116.107 117.377 115.912 117.084 115.424Z" fill="url(#paint3_linear)"/>
<path d="M137.197 95.8961C138.076 95.8961 138.857 96.6772 138.857 97.5559C138.857 98.5323 138.076 99.2157 137.197 99.2157H133.877V114.35C133.877 115.228 133.096 116.009 132.218 116.009C131.339 116.009 130.558 115.228 130.558 114.35V99.3134H127.14C126.262 99.3134 125.48 98.5323 125.48 97.6535C125.48 96.7748 126.262 95.9937 127.14 95.9937H137.197V95.8961Z" fill="#6E71FF"/>
<path d="M137.197 95.8961C138.076 95.8961 138.857 96.6772 138.857 97.5559C138.857 98.5323 138.076 99.2157 137.197 99.2157H133.877V114.35C133.877 115.228 133.096 116.009 132.217 116.009C131.339 116.009 130.558 115.228 130.558 114.35V99.3134H127.14C126.262 99.3134 125.48 98.5323 125.48 97.6535C125.48 96.7748 126.262 95.9937 127.14 95.9937H137.197V95.8961Z" fill="url(#paint4_linear)"/>
<path d="M82.9105 102.633V102.535C82.9105 100.876 82.3247 99.3134 81.2507 98.0441C79.9814 96.4819 78.0286 95.5055 75.8806 95.5055H70.901C69.9247 95.5055 69.1436 96.2866 69.1436 97.263V114.74C69.1436 115.717 69.9247 116.498 70.901 116.498C71.8774 116.498 72.6585 115.717 72.6585 114.74V109.663H75.6853L79.4932 115.717C80.2743 116.986 81.6412 116.4 81.9341 116.302C82.52 116.009 83.2034 115.131 82.52 113.861L79.3955 108.784C81.3483 107.515 82.9105 105.269 82.9105 102.633ZM75.6853 105.953H72.5609V98.9228H75.6853C77.6381 98.9228 79.2003 100.485 79.2003 102.438C79.2003 104.391 77.6381 105.953 75.6853 105.953Z" fill="#6E71FF"/>
<path d="M82.9105 102.633V102.535C82.9105 100.876 82.3247 99.3134 81.2507 98.0441C79.9814 96.4819 78.0286 95.5055 75.8806 95.5055H70.901C69.9247 95.5055 69.1436 96.2866 69.1436 97.263V114.74C69.1436 115.717 69.9247 116.498 70.901 116.498C71.8774 116.498 72.6585 115.717 72.6585 114.74V109.663H75.6853L79.4932 115.717C80.2743 116.986 81.6412 116.4 81.9341 116.302C82.52 116.009 83.2034 115.131 82.52 113.861L79.3955 108.784C81.3483 107.515 82.9105 105.269 82.9105 102.633ZM75.6853 105.953H72.5609V98.9228H75.6853C77.6381 98.9228 79.2003 100.485 79.2003 102.438C79.2003 104.391 77.6381 105.953 75.6853 105.953Z" fill="url(#paint5_linear)"/>
<defs>
<linearGradient id="paint0_linear" x1="104" y1="27.9762" x2="104" y2="270.071" gradientUnits="userSpaceOnUse">
<stop/>
<stop offset="1" stop-opacity="0"/>
</linearGradient>
<linearGradient id="paint1_linear" x1="104" y1="140.167" x2="104" y2="196.262" gradientUnits="userSpaceOnUse">
<stop stop-color="white"/>
<stop offset="1" stop-color="white" stop-opacity="0"/>
</linearGradient>
<linearGradient id="paint2_linear" x1="93.5047" y1="95.8961" x2="93.5047" y2="116.107" gradientUnits="userSpaceOnUse">
<stop/>
<stop offset="1" stop-opacity="0"/>
</linearGradient>
<linearGradient id="paint3_linear" x1="112.592" y1="95.8961" x2="112.592" y2="116.107" gradientUnits="userSpaceOnUse">
<stop/>
<stop offset="1" stop-opacity="0"/>
</linearGradient>
<linearGradient id="paint4_linear" x1="132.169" y1="95.8961" x2="132.169" y2="116.009" gradientUnits="userSpaceOnUse">
<stop/>
<stop offset="1" stop-opacity="0"/>
</linearGradient>
<linearGradient id="paint5_linear" x1="76.027" y1="95.5055" x2="76.027" y2="116.522" gradientUnits="userSpaceOnUse">
<stop/>
<stop offset="1" stop-opacity="0"/>
</linearGradient>
</defs>
</svg>
