<svg width="240" height="240" viewBox="0 0 240 240" fill="none" xmlns="http://www.w3.org/2000/svg">
<path opacity="0.18" d="M239.95 154.727C239.881 156.687 239.758 158.646 239.553 160.645C238.104 175.113 232.779 189.561 221.302 198.869C207.672 209.914 188.34 211.54 170.479 210.913C152.617 210.286 134.298 207.974 117.202 212.958C107.843 215.688 99.2784 220.508 89.9409 223.291C72.1681 228.582 52.1737 225.962 36.2193 216.838C20.2648 207.713 8.49378 192.363 3.55159 175.237C2.62777 172.016 1.91096 168.744 1.40519 165.439C-1.41111 147.347 1.3505 128.535 0.947199 110.083C0.591744 93.682 -2.21772 76.6996 3.93439 61.3696C8.03579 51.1605 15.8421 42.7346 24.7764 36.0658C56.0359 12.7802 95.4026 0.239277 134.831 0.00413512C158.318 -0.139563 182.325 3.43982 202.935 14.2041C209.634 17.6986 215.998 22.0422 220.707 27.7378C224.214 31.9965 226.716 36.9345 228.773 41.977C232.333 50.7318 234.632 59.9076 235.609 69.2534C236.867 81.3959 235.876 93.6494 236.382 105.831C237.086 122.173 240.449 138.392 239.95 154.727Z" fill="#6E71FF"/>
<path opacity="0.2" d="M240 157L239.918 157.979C238.703 171.971 235.218 185.887 228.433 196.841C226.466 200.039 224.203 202.954 221.689 205.53C208.008 219.563 188.606 221.629 170.679 220.832C152.752 220.036 134.366 217.098 117.207 223.43C107.815 226.899 99.218 233.023 89.8463 236.558C72.0084 243.28 51.9408 239.952 35.9279 228.359C25.3938 220.619 16.6589 209.768 10.5433 196.825C7.34137 190.133 4.85833 182.974 3.15426 175.522C2.22706 171.43 1.50763 167.273 1 163.075L91.7467 160.759L240 157Z" fill="#6E71FF"/>
<path d="M149.267 141.408C150.091 149.097 147.365 164.913 138.833 168.032C136.735 168.799 134.459 168.894 132.221 168.963C123.473 169.251 114.721 169.323 105.965 169.179C102.463 169.195 98.9652 168.954 95.4991 168.456C93.813 168.177 92.0697 167.753 90.7575 166.656C88.5452 164.792 88.1839 161.236 89.6736 158.751C91.1632 156.266 94.1679 154.948 97.0585 155.043C95.8868 155.124 94.7153 154.883 93.671 154.345C92.6266 153.808 91.7493 152.995 91.1341 151.994C90.5189 150.994 90.1893 149.844 90.181 148.669C90.1728 147.495 90.4861 146.341 91.0872 145.331C93.122 141.921 97.6417 141.148 101.591 140.723C99.106 137.744 97.2551 134.073 97.1536 130.194C97.0522 126.314 98.9919 122.251 102.466 120.521C105.94 118.79 110.821 120.039 112.462 123.557C111.195 116.971 112.919 109.731 117.489 104.819C121.597 100.381 129.914 96.914 135.872 99.57C141.578 102.106 143.701 110.765 144.963 116.178C146.91 124.493 148.347 132.918 149.267 141.408Z" fill="#6E71FF"/>
<path d="M149.267 141.408C150.091 149.097 147.365 164.913 138.833 168.032C136.735 168.799 134.459 168.894 132.221 168.963C123.473 169.251 114.721 169.323 105.965 169.179C102.463 169.195 98.9652 168.954 95.4991 168.456C93.813 168.177 92.0697 167.753 90.7575 166.656C88.5452 164.792 88.1839 161.236 89.6736 158.751C91.1632 156.266 94.1679 154.948 97.0585 155.043C95.8868 155.124 94.7153 154.883 93.671 154.345C92.6266 153.808 91.7493 152.995 91.1341 151.994C90.5189 150.994 90.1893 149.844 90.181 148.669C90.1728 147.495 90.4861 146.341 91.0872 145.331C93.122 141.921 97.6417 141.148 101.591 140.723C99.106 137.744 97.2551 134.073 97.1536 130.194C97.0522 126.314 98.9919 122.251 102.466 120.521C105.94 118.79 110.821 120.039 112.462 123.557C111.195 116.971 112.919 109.731 117.489 104.819C121.597 100.381 129.914 96.914 135.872 99.57C141.578 102.106 143.701 110.765 144.963 116.178C146.91 124.493 148.347 132.918 149.267 141.408Z" fill="url(#paint0_linear)"/>
<path d="M212.093 55.9646H199.415V87.6534H212.093V55.9646Z" fill="#6E71FF"/>
<path d="M212.093 55.9646H199.415V87.6534H212.093V55.9646Z" fill="url(#paint1_linear)"/>
<path d="M213.21 51.4707H198.294C197.482 51.4707 196.823 52.1291 196.823 52.9414V56.0728C196.823 56.8851 197.482 57.5435 198.294 57.5435H213.21C214.022 57.5435 214.68 56.8851 214.68 56.0728V52.9414C214.68 52.1291 214.022 51.4707 213.21 51.4707Z" fill="#6E71FF"/>
<path d="M167.459 48.0403L121.773 93.5165V106.397V166.346H218.425V106.397V97.8143L167.459 48.0403Z" fill="#6E71FF"/>
<path d="M167.459 48.0403L121.773 93.5165V106.397V166.346H218.425V106.397V97.8143L167.459 48.0403Z" fill="url(#paint2_linear)"/>
<g style="mix-blend-mode:multiply" opacity="0.2">
<path d="M168.785 44.9419L121.781 91.8127V99.2737L168.785 54.7103L218.439 101.784V97.0931C218.716 97.0948 218.987 97.0128 219.217 96.8577C219.446 96.7027 219.624 96.4819 219.726 96.2243C219.828 95.9667 219.85 95.6843 219.789 95.414C219.728 95.1437 219.586 94.8982 219.383 94.7096L168.785 44.9419Z" fill="#6E71FF"/>
</g>
<path d="M222.191 166.345H118.016V174.003H222.191V166.345Z" fill="#6E71FF"/>
<path d="M171.226 117.954H133.99V148.85H171.226V117.954Z" fill="#6E71FF"/>
<path d="M171.226 117.954H133.99V148.85H171.226V117.954Z" fill="url(#paint3_linear)"/>
<path d="M208.454 116.565H183.896V166.346H208.454V116.565Z" fill="#6E71FF"/>
<path d="M206.47 119.736H185.887V163.767H206.47V119.736Z" fill="#6E71FF"/>
<path d="M206.47 119.736H185.887V163.767H206.47V119.736Z" fill="url(#paint4_linear)"/>
<path d="M209.172 113.796H183.321C182.73 113.796 182.25 114.275 182.25 114.867V116.883C182.25 117.474 182.73 117.954 183.321 117.954H209.172C209.763 117.954 210.243 117.474 210.243 116.883V114.867C210.243 114.275 209.763 113.796 209.172 113.796Z" fill="#6E71FF"/>
<path d="M166.6 44.8902L116.223 93.8846C115.791 94.3256 115.496 94.8835 115.377 95.4896C115.257 96.0957 115.317 96.7236 115.549 97.2961C115.781 97.8686 116.176 98.3607 116.684 98.7119C117.193 99.063 117.793 99.258 118.41 99.2727C119.218 99.2736 119.995 98.9625 120.578 98.4043L166.625 54.5889C167.207 54.0332 167.982 53.7232 168.787 53.7232C169.592 53.7232 170.366 54.0332 170.948 54.5889L216.995 98.4043C217.577 98.9615 218.351 99.2727 219.156 99.2727C219.774 99.258 220.374 99.063 220.882 98.7119C221.391 98.3607 221.785 97.8686 222.018 97.2961C222.25 96.7236 222.31 96.0957 222.19 95.4896C222.07 94.8835 221.776 94.3256 221.343 93.8846L170.974 44.8902C170.389 44.3195 169.604 44 168.787 44C167.969 44 167.184 44.3195 166.6 44.8902Z" fill="#6E71FF"/>
<path d="M172.297 116.565H132.919V117.954H172.297V116.565Z" fill="#6E71FF"/>
<path d="M144.323 117.954H143.067V146.276H144.323V117.954Z" fill="#6E71FF"/>
<path d="M153.234 117.954H151.979V146.276H153.234V117.954Z" fill="#6E71FF"/>
<path d="M162.147 117.954H160.892V146.276H162.147V117.954Z" fill="#6E71FF"/>
<path d="M171.226 132.876H133.99V133.935H171.226V132.876Z" fill="#6E71FF"/>
<path d="M170.091 146.752C170.693 146.437 171.203 145.972 171.571 145.4C171.939 144.829 172.152 144.172 172.189 143.494C172.189 142.86 171.967 142.137 171.365 142.048C171.109 142.037 170.854 142.096 170.629 142.22C169.945 142.544 169.334 143.006 168.835 143.576C169.019 142.96 169.094 142.316 169.057 141.674C169.06 141.319 168.949 140.972 168.742 140.684C168.535 140.395 168.241 140.18 167.904 140.068C167.566 139.957 167.202 139.956 166.864 140.064C166.526 140.173 166.231 140.386 166.021 140.673C165.538 141.253 165.195 141.936 165.019 142.67C164.622 141.608 163.932 140.68 163.029 139.995C162.878 139.869 162.7 139.78 162.509 139.735C162.288 139.722 162.067 139.775 161.875 139.887C161.316 140.174 160.841 140.602 160.499 141.129C160.156 141.656 159.958 142.264 159.923 142.892C159.861 142.665 159.733 142.463 159.554 142.311C159.375 142.16 159.154 142.066 158.921 142.042C158.806 142.04 158.692 142.063 158.588 142.111C158.483 142.159 158.391 142.229 158.317 142.318C158.243 142.406 158.191 142.509 158.162 142.621C158.134 142.732 158.131 142.849 158.154 142.961C157.713 142.502 157.157 142.169 156.544 141.997C155.931 141.826 155.283 141.821 154.668 141.985C154.061 142.176 153.542 142.576 153.201 143.113C152.86 143.65 152.719 144.29 152.804 144.92C152.654 144.859 152.492 144.832 152.33 144.839C152.168 144.847 152.009 144.891 151.866 144.966C151.722 145.042 151.597 145.147 151.498 145.276C151.4 145.405 151.331 145.554 151.295 145.712C151.245 146.039 151.266 146.372 151.357 146.689C151.447 147.007 151.606 147.301 151.822 147.551" fill="#6E71FF"/>
<path d="M134.294 146.688L132.862 145.484C132.547 145.274 132.322 144.956 132.228 144.59C132.164 143.956 132.862 143.544 133.495 143.646C134.086 143.811 134.61 144.154 134.998 144.628C134.82 143.31 134.725 141.769 135.695 140.825C136.083 140.505 136.555 140.305 137.055 140.247C137.554 140.19 138.059 140.278 138.51 140.502C139.404 140.971 140.105 141.738 140.494 142.67C140.931 141.281 141.783 140.06 142.934 139.17C143.014 139.079 143.114 139.006 143.225 138.958C143.336 138.91 143.457 138.887 143.579 138.891C143.7 138.895 143.819 138.927 143.927 138.983C144.035 139.039 144.129 139.118 144.202 139.215C144.684 139.674 145.064 140.229 145.319 140.843C145.575 141.457 145.7 142.118 145.685 142.784C145.866 142.369 146.089 141.974 146.351 141.605C146.415 141.488 146.519 141.399 146.643 141.351C146.839 141.294 147.023 141.446 147.169 141.586C147.549 141.96 147.929 142.454 147.803 142.967C148.012 142.125 148.451 141.357 149.07 140.749C149.704 140.197 150.883 140.147 151.359 140.863C151.575 141.248 151.655 141.694 151.587 142.131C151.501 143.059 151.202 143.955 150.712 144.749C150.712 144.438 151.181 144.318 151.429 144.502C151.541 144.607 151.625 144.739 151.672 144.885C151.72 145.031 151.73 145.187 151.701 145.338C151.701 145.643 151.562 145.94 151.549 146.251" fill="#6E71FF"/>
<path d="M170.091 146.752C170.693 146.437 171.203 145.972 171.571 145.4C171.939 144.829 172.152 144.172 172.189 143.494C172.189 142.86 171.967 142.137 171.365 142.048C171.109 142.037 170.854 142.096 170.629 142.22C169.945 142.544 169.334 143.006 168.835 143.576C169.019 142.96 169.094 142.316 169.057 141.674C169.06 141.319 168.949 140.972 168.742 140.684C168.535 140.395 168.241 140.18 167.904 140.068C167.566 139.957 167.202 139.956 166.864 140.064C166.526 140.173 166.231 140.386 166.021 140.673C165.538 141.253 165.195 141.936 165.019 142.67C164.622 141.608 163.932 140.68 163.029 139.995C162.878 139.869 162.7 139.78 162.509 139.735C162.288 139.722 162.067 139.775 161.875 139.887C161.316 140.174 160.841 140.602 160.499 141.129C160.156 141.656 159.958 142.264 159.923 142.892C159.861 142.665 159.733 142.463 159.554 142.311C159.375 142.16 159.154 142.066 158.921 142.042C158.806 142.04 158.692 142.063 158.588 142.111C158.483 142.159 158.391 142.229 158.317 142.318C158.243 142.406 158.191 142.509 158.162 142.621C158.134 142.732 158.131 142.849 158.154 142.961C157.713 142.502 157.157 142.169 156.544 141.997C155.931 141.826 155.283 141.821 154.668 141.985C154.061 142.176 153.542 142.576 153.201 143.113C152.86 143.65 152.719 144.29 152.804 144.92C152.654 144.859 152.492 144.832 152.33 144.839C152.168 144.847 152.009 144.891 151.866 144.966C151.722 145.042 151.597 145.147 151.498 145.276C151.4 145.405 151.331 145.554 151.295 145.712C151.245 146.039 151.266 146.372 151.357 146.689C151.447 147.007 151.606 147.301 151.822 147.551" fill="url(#paint5_linear)"/>
<path d="M171.111 146.277H134.11C132.815 146.277 131.765 147.327 131.765 148.623V152.648C131.765 153.943 132.815 154.993 134.11 154.993H171.111C172.406 154.993 173.456 153.943 173.456 152.648V148.623C173.456 147.327 172.406 146.277 171.111 146.277Z" fill="#6E71FF"/>
<path d="M134.294 146.688L132.862 145.484C132.547 145.274 132.322 144.956 132.228 144.59C132.164 143.956 132.862 143.544 133.495 143.646C134.086 143.811 134.61 144.154 134.998 144.628C134.82 143.31 134.725 141.769 135.695 140.825C136.083 140.505 136.555 140.305 137.055 140.247C137.554 140.19 138.059 140.278 138.51 140.502C139.404 140.971 140.105 141.738 140.494 142.67C140.931 141.281 141.783 140.06 142.934 139.17C143.014 139.079 143.114 139.006 143.225 138.958C143.336 138.91 143.457 138.887 143.579 138.891C143.7 138.895 143.819 138.927 143.927 138.983C144.035 139.039 144.129 139.118 144.202 139.215C144.684 139.674 145.064 140.229 145.319 140.843C145.575 141.457 145.7 142.118 145.685 142.784C145.866 142.369 146.089 141.974 146.351 141.605C146.415 141.488 146.519 141.399 146.643 141.351C146.839 141.294 147.023 141.446 147.169 141.586C147.549 141.96 147.929 142.454 147.803 142.967C148.012 142.125 148.451 141.357 149.07 140.749C149.704 140.197 150.883 140.147 151.359 140.863C151.575 141.248 151.655 141.694 151.587 142.131C151.501 143.059 151.202 143.955 150.712 144.749C150.712 144.438 151.181 144.318 151.429 144.502C151.541 144.607 151.625 144.739 151.672 144.885C151.72 145.031 151.73 145.187 151.701 145.338C151.701 145.643 151.562 145.94 151.549 146.251" fill="url(#paint6_linear)"/>
<path d="M73.2998 197.124L73.7456 201.284C73.7456 201.284 71.97 203.7 69.6503 203.849C67.3307 203.998 66.5449 203.007 66.5449 203.007L66.9303 196.9" fill="#EACBC6"/>
<path d="M66.5449 203.008L66.7036 200.551L73.5038 198.909L74.0251 202.248C72.7531 203.115 71.2497 203.668 69.6654 203.849C67.3383 204.005 66.5449 203.008 66.5449 203.008Z" fill="url(#paint7_linear)"/>
<path d="M51.6067 197.564L51.1533 201.84C51.1533 201.84 52.9743 204.317 55.3543 204.473C57.7344 204.629 58.5429 203.604 58.5429 203.604L58.15 197.32" fill="#EACBC6"/>
<path d="M58.5429 203.605L58.3842 201.081L51.4102 199.391L51.1533 201.834C51.1533 201.834 52.9743 204.311 55.3543 204.467C57.7344 204.623 58.5429 203.605 58.5429 203.605Z" fill="white"/>
<path d="M57.3037 104.089C57.3037 104.089 48.1159 108.107 47.8968 109.396C47.6777 110.685 48.9319 142.9 48.9319 142.9C48.9319 142.9 51.9542 146.382 61.074 146.382C70.4507 146.382 72.8686 143.972 73.2841 142.846C73.6997 141.719 75.1957 109.647 74.9842 108.269C74.7726 106.892 66.2875 104.109 66.2875 104.109L57.3037 104.089Z" fill="#6E71FF"/>
<path d="M71.0679 119.25L69.1865 144.224L73.2818 142.846L73.856 134.879L71.0679 119.25Z" fill="url(#paint8_linear)"/>
<path d="M62.7836 126.226C62.7836 126.226 51.9487 126.307 51.2611 125.69C50.5735 125.072 47.9744 108.9 47.8988 109.402C47.7477 110.346 48.3521 125.798 48.6997 134.417C52.641 133.278 56.5081 131.941 60.2827 130.413C61.3205 130.015 62.2114 129.361 62.8516 128.526C63.441 127.739 63.781 126.809 62.7836 126.226Z" fill="url(#paint9_linear)"/>
<path d="M58.8309 99.5285C58.4372 101.076 57.9325 102.6 57.3197 104.089C56.7153 105.568 57.9544 108.69 61.6869 108.69C65.4195 108.69 65.8502 104.835 65.7822 104.089C65.7368 103.553 64.7697 101.782 64.5279 100.071C64.2635 98.2323 59.0349 98.2459 58.8309 99.5285Z" fill="#EACBC6"/>
<path d="M59.6152 109.404L61.2019 111.399L60.0686 138.334L63.0833 141.313L65.1914 137.655L62.7055 111.067L63.2722 109.105L61.6024 108.176L59.6152 109.404Z" fill="url(#paint10_linear)"/>
<path d="M63.8695 123.668L64.2397 118.891L72.7777 116.997L70.0652 131.887L63.333 132.606L63.8695 123.668Z" fill="url(#paint11_linear)"/>
<path d="M58.3164 101.66C58.3164 101.66 58.3164 106.804 61.4747 106.35C64.633 105.895 65.1468 101.972 65.1468 101.972L58.3164 101.66Z" fill="url(#paint12_linear)"/>
<path d="M50.3832 143.341C50.3832 143.341 48.5472 148.987 49.6276 167.053C50.7081 185.118 51.1388 197.754 51.1388 197.754C51.1388 197.754 51.2748 199.227 54.7353 199.267C58.1959 199.308 59.1177 197.231 59.1177 197.231L62.4724 150.955L66.0085 198.209C66.0085 198.209 70.1642 200.36 73.4056 198.745C75.1963 197.856 75.0377 164.901 74.2292 150.378C74.124 148.009 73.4812 145.683 72.3403 143.545C72.3403 143.545 63.5831 148.77 50.3832 143.341Z" fill="#6E71FF"/>
<path d="M50.3832 143.341C50.3832 143.341 48.5472 148.987 49.6276 167.053C50.7081 185.118 51.1388 197.754 51.1388 197.754C51.1388 197.754 51.2748 199.227 54.7353 199.267C58.1959 199.308 59.1177 197.231 59.1177 197.231L62.4724 150.955L66.0085 198.209C66.0085 198.209 70.1642 200.36 73.4056 198.745C75.1963 197.856 75.0377 164.901 74.2292 150.378C74.124 148.009 73.4812 145.683 72.3403 143.545C72.3403 143.545 63.5831 148.77 50.3832 143.341Z" fill="url(#paint13_linear)" fill-opacity="0.7"/>
<path d="M74.984 108.27C74.984 108.27 79.1699 124.048 79.5175 126.729C79.8651 129.409 75.3165 136.868 74.5609 135.449C73.5031 133.597 72.4453 126.559 72.4453 126.559L74.984 108.27Z" fill="#6E71FF"/>
<path d="M82.5452 126.138C82.5421 126.265 82.5787 126.39 82.6508 126.5C82.723 126.609 82.8277 126.698 82.9532 126.756C83.1026 126.79 83.2581 126.796 83.4101 126.774C83.5622 126.752 83.7076 126.702 83.8373 126.627C85.9226 125.738 87.1391 124.442 88.6956 123.044C89.897 122.092 90.9697 121.017 91.8917 119.841C92.6019 118.775 92.005 114.12 91.3175 114.045C90.6299 113.971 90.7357 115.464 90.8566 116.393C90.9775 117.323 89.8516 118.429 89.5721 118.877C89.2925 119.325 88.3405 118.504 87.4867 119.78C86.8596 120.723 86.8369 121.422 85.9151 122.196C84.8221 123.099 83.8393 124.105 82.9835 125.195C82.7689 125.426 82.6209 125.701 82.5528 125.996C82.5465 126.043 82.544 126.091 82.5452 126.138Z" fill="url(#paint14_linear)"/>
<path d="M75.6489 127.109C75.7925 126.891 85.8341 121.679 85.8341 121.679C85.8341 121.679 87.1337 122.392 88.1008 124.584C88.1008 124.584 76.0116 135.069 75.0142 135.537C74.0169 136.005 75.4298 133.841 73.7373 130.895C72.0448 127.95 75.6489 127.109 75.6489 127.109Z" fill="#6E71FF"/>
<path d="M46.3388 204.908C45.4712 205.432 44.7499 206.128 44.2308 206.943C43.9842 207.358 43.9015 207.835 43.9962 208.298C44.0909 208.76 44.3574 209.18 44.7521 209.488C45.103 209.685 45.4976 209.81 45.9082 209.855C47.609 210.114 49.3549 209.987 50.9872 209.485C52.6195 208.984 54.0864 208.124 55.2546 206.984C55.4425 206.763 55.6759 206.576 55.9422 206.434C56.5315 206.17 57.272 206.434 57.9067 206.231C58.7907 205.953 59.0627 204.962 59.1912 204.12C59.3196 203.279 59.4254 202.254 58.7681 201.609C58.088 202.621 56.6147 202.919 55.3 202.967C54.5014 203.043 53.6939 202.971 52.9275 202.756C52.2172 202.526 51.643 201.847 50.8269 201.942C50.0109 202.037 49.3158 202.777 48.7416 203.184L46.3388 204.908Z" fill="#6E71FF"/>
<path d="M46.3388 204.908C45.4712 205.432 44.7499 206.128 44.2308 206.943C43.9842 207.358 43.9015 207.835 43.9962 208.298C44.0909 208.76 44.3574 209.18 44.7521 209.488C45.103 209.685 45.4976 209.81 45.9082 209.855C47.609 210.114 49.3549 209.987 50.9872 209.485C52.6195 208.984 54.0864 208.124 55.2546 206.984C55.4425 206.763 55.6759 206.576 55.9422 206.434C56.5315 206.17 57.272 206.434 57.9067 206.231C58.7907 205.953 59.0627 204.962 59.1912 204.12C59.3196 203.279 59.4254 202.254 58.7681 201.609C58.088 202.621 56.6147 202.919 55.3 202.967C54.5014 203.043 53.6939 202.971 52.9275 202.756C52.2172 202.526 51.643 201.847 50.8269 201.942C50.0109 202.037 49.3158 202.777 48.7416 203.184L46.3388 204.908Z" fill="url(#paint15_linear)" fill-opacity="0.7"/>
<path d="M78.9284 204.907C79.796 205.431 80.5174 206.128 81.0364 206.943C81.283 207.358 81.3657 207.835 81.271 208.298C81.1763 208.76 80.9098 209.18 80.5151 209.488C80.1642 209.685 79.7696 209.81 79.3591 209.855C77.6612 210.112 75.9187 209.985 74.2893 209.485C72.6599 208.985 71.1952 208.127 70.0277 206.991C69.8398 206.77 69.6064 206.583 69.3401 206.441C68.7508 206.176 68.0103 206.441 67.3756 206.237C66.4916 205.959 66.2196 204.968 66.0911 204.127C65.9627 203.285 65.8569 202.261 66.5143 201.616C67.1943 202.627 68.6677 202.926 69.9824 202.973C70.7809 203.05 71.5884 202.978 72.3549 202.763C73.0651 202.532 73.6393 201.853 74.4554 201.948C75.2714 202.043 75.9665 202.783 76.5408 203.19L78.9284 204.907Z" fill="#6E71FF"/>
<path d="M78.9284 204.907C79.796 205.431 80.5174 206.128 81.0364 206.943C81.283 207.358 81.3657 207.835 81.271 208.298C81.1763 208.76 80.9098 209.18 80.5151 209.488C80.1642 209.685 79.7696 209.81 79.3591 209.855C77.6612 210.112 75.9187 209.985 74.2893 209.485C72.6599 208.985 71.1952 208.127 70.0277 206.991C69.8398 206.77 69.6064 206.583 69.3401 206.441C68.7508 206.176 68.0103 206.441 67.3756 206.237C66.4916 205.959 66.2196 204.968 66.0911 204.127C65.9627 203.285 65.8569 202.261 66.5143 201.616C67.1943 202.627 68.6677 202.926 69.9824 202.973C70.7809 203.05 71.5884 202.978 72.3549 202.763C73.0651 202.532 73.6393 201.853 74.4554 201.948C75.2714 202.043 75.9665 202.783 76.5408 203.19L78.9284 204.907Z" fill="url(#paint16_linear)" fill-opacity="0.7"/>
<path d="M58.7395 124.632C59.0568 124.435 59.495 124.354 59.8577 124.123C60.2204 123.893 64.6254 121.253 64.9654 121.952C65.1165 122.271 64.7916 122.63 64.4818 122.834C64.1721 123.037 63.8094 123.322 63.8774 123.675L68.3504 121.694C68.4242 121.651 68.5122 121.631 68.5997 121.639C68.7508 121.639 68.8113 121.823 68.8415 121.965C68.991 122.967 68.7011 123.982 68.0331 124.795C66.9211 126.138 65.3789 127.145 63.6129 127.679C61.3462 128.358 59.2684 129.294 58.6941 127.74C58.4372 127.062 57.9914 125.942 58.2786 125.196C58.3562 124.966 58.5188 124.767 58.7395 124.632Z" fill="url(#paint17_linear)"/>
<path d="M49.6295 107.897C48.3221 108.703 47.1924 109.72 46.2974 110.897C44.8391 112.831 42.4288 129.05 43.5395 133.448C44.008 135.307 61.0462 128.365 61.0462 128.365C61.0462 128.365 60.6533 125.256 58.8475 124.198C58.8475 124.198 50.4908 125.806 49.8637 125.243C49.2366 124.68 49.6295 107.897 49.6295 107.897Z" fill="#6E71FF"/>
<path d="M55.4981 92.8176C55.4981 92.8176 55.3016 99.855 58.3164 101.64C61.3311 103.425 62.5325 103.174 64.6934 102.271C66.0006 101.721 66.9601 97.4187 67.5117 94.1273C67.7824 92.6227 67.4584 91.0804 66.5959 89.7678C65.7334 88.4552 64.3867 87.455 62.7894 86.9406C61.6702 86.5569 60.4329 86.5569 59.3137 86.9406C58.0111 87.3624 56.9151 88.1823 56.2175 89.2566C55.5199 90.331 55.2653 91.5915 55.4981 92.8176Z" fill="url(#paint18_linear)"/>
<path d="M67.5646 93.8556C67.7402 93.5026 67.8646 93.1309 67.9349 92.7494C68.075 91.4744 67.9181 90.1871 67.474 88.9694C67.3198 88.2563 67.0419 87.5693 66.6504 86.9335C66.2632 86.3878 65.7135 85.9506 65.0637 85.6713C64.7161 85.6713 64.3988 85.3523 64.1419 85.142C63.8718 84.9621 63.5633 84.8343 63.2356 84.7665C62.908 84.6988 62.5683 84.6926 62.2378 84.7483C61.5729 84.8162 60.9307 85.0062 60.2582 85.0605C59.1173 85.1555 57.8026 84.8841 56.9261 85.5491C56.4738 86.0119 56.1065 86.5366 55.8381 87.1032C55.5283 87.5715 55.0825 87.9583 54.7349 88.3994C54.3443 88.8244 54.1377 89.3618 54.1531 89.9128C54.2819 90.3974 54.4615 90.8701 54.6896 91.3243C54.817 92.0774 54.8952 92.8365 54.9238 93.5977C55.1052 94.4732 55.6794 95.2672 55.6794 96.1494L55.8834 91.494C55.8709 91.365 55.8998 91.2355 55.9665 91.1207C56.1252 90.89 56.4803 90.8764 56.775 90.8085C57.4777 90.6457 57.9764 90.0621 58.6564 89.8313C59.1312 89.7034 59.6305 89.6665 60.1222 89.7227L63.8472 89.8856C64.0705 89.882 64.2913 89.9286 64.4894 90.0213C64.6317 90.1234 64.7655 90.2345 64.8899 90.3539C65.3055 90.6592 65.925 90.5982 66.401 90.8425C67.0508 91.1818 67.1566 91.969 67.1944 92.6476L67.3304 95.1654C67.2979 94.7185 67.3779 94.2708 67.5646 93.8556Z" fill="#6E71FF"/>
<path d="M67.5646 93.8556C67.7402 93.5026 67.8646 93.1309 67.9349 92.7494C68.075 91.4744 67.9181 90.1871 67.474 88.9694C67.3198 88.2563 67.0419 87.5693 66.6504 86.9335C66.2632 86.3878 65.7135 85.9506 65.0637 85.6713C64.7161 85.6713 64.3988 85.3523 64.1419 85.142C63.8718 84.9621 63.5633 84.8343 63.2356 84.7665C62.908 84.6988 62.5683 84.6926 62.2378 84.7483C61.5729 84.8162 60.9307 85.0062 60.2582 85.0605C59.1173 85.1555 57.8026 84.8841 56.9261 85.5491C56.4738 86.0119 56.1065 86.5366 55.8381 87.1032C55.5283 87.5715 55.0825 87.9583 54.7349 88.3994C54.3443 88.8244 54.1377 89.3618 54.1531 89.9128C54.2819 90.3974 54.4615 90.8701 54.6896 91.3243C54.817 92.0774 54.8952 92.8365 54.9238 93.5977C55.1052 94.4732 55.6794 95.2672 55.6794 96.1494L55.8834 91.494C55.8709 91.365 55.8998 91.2355 55.9665 91.1207C56.1252 90.89 56.4803 90.8764 56.775 90.8085C57.4777 90.6457 57.9764 90.0621 58.6564 89.8313C59.1312 89.7034 59.6305 89.6665 60.1222 89.7227L63.8472 89.8856C64.0705 89.882 64.2913 89.9286 64.4894 90.0213C64.6317 90.1234 64.7655 90.2345 64.8899 90.3539C65.3055 90.6592 65.925 90.5982 66.401 90.8425C67.0508 91.1818 67.1566 91.969 67.1944 92.6476L67.3304 95.1654C67.2979 94.7185 67.3779 94.2708 67.5646 93.8556Z" fill="url(#paint19_linear)"/>
<path d="M57.5442 103.54C57.5442 103.54 59.4181 107.571 61.6017 108.181L57.8238 110.523L56.5469 104.415L57.5442 103.54Z" fill="#6E71FF"/>
<path d="M65.4934 103.357L66.249 104.083L65.6446 110.36L61.5645 108.155C61.5645 108.155 64.9645 106.024 65.4934 103.357Z" fill="#6E71FF"/>
<path d="M57.5442 103.54C57.5442 103.54 59.4181 107.571 61.6017 108.181L57.8238 110.523L56.5469 104.415L57.5442 103.54Z" fill="url(#paint20_linear)"/>
<path d="M65.4934 103.357L66.249 104.083L65.6446 110.36L61.5645 108.155C61.5645 108.155 64.9645 106.024 65.4934 103.357Z" fill="url(#paint21_linear)"/>
<path d="M156 41.8468C137.439 42.6901 118.746 39.7733 100.096 39.8468C82.8181 39.9242 65.1201 42.5083 48.553 37.58C46.2446 36.8875 43.4815 35.2047 44.0838 32.8721C51.9302 31.0114 58.5368 25.8084 66.0878 22.9225C72.9691 20.3019 80.4498 19.6507 87.6837 21.0425C92.0052 21.9013 96.3539 23.4641 100.703 22.7717C104.297 22.1991 107.437 20.1257 110.745 18.6402C112.828 17.6924 115.47 17.2089 118.342 17C125.338 20.0367 133.005 22.0289 139.662 25.7774C146.545 29.6574 151.982 35.2473 156 41.8468Z" fill="url(#paint22_linear)"/>
<defs>
<linearGradient id="paint0_linear" x1="119.361" y1="12.1128" x2="-2.47086" y2="157.024" gradientUnits="userSpaceOnUse">
<stop offset="0.01"/>
<stop offset="0.83" stop-opacity="0.07"/>
<stop offset="1" stop-opacity="0"/>
</linearGradient>
<linearGradient id="paint1_linear" x1="205.748" y1="42.7278" x2="195.223" y2="105.421" gradientUnits="userSpaceOnUse">
<stop/>
<stop offset="0.571801" stop-opacity="0"/>
</linearGradient>
<linearGradient id="paint2_linear" x1="170.052" y1="-1.37743" x2="145.454" y2="274.829" gradientUnits="userSpaceOnUse">
<stop stop-opacity="0"/>
<stop offset="0.932855" stop-opacity="0.75"/>
<stop offset="1"/>
</linearGradient>
<linearGradient id="paint3_linear" x1="153.876" y1="108.306" x2="152.766" y2="130.277" gradientUnits="userSpaceOnUse">
<stop offset="0.02" stop-color="white" stop-opacity="0"/>
<stop offset="0.58" stop-color="white" stop-opacity="0.39"/>
<stop offset="1" stop-color="white"/>
</linearGradient>
<linearGradient id="paint4_linear" x1="196.216" y1="191.579" x2="201.919" y2="139.881" gradientUnits="userSpaceOnUse">
<stop offset="0.02" stop-color="white" stop-opacity="0"/>
<stop offset="0.58" stop-color="white" stop-opacity="0.39"/>
<stop offset="1" stop-color="white"/>
</linearGradient>
<linearGradient id="paint5_linear" x1="163.693" y1="113.743" x2="152.162" y2="154.811" gradientUnits="userSpaceOnUse">
<stop offset="0.52893"/>
<stop offset="0.83" stop-opacity="0.07"/>
<stop offset="1" stop-opacity="0"/>
</linearGradient>
<linearGradient id="paint6_linear" x1="142.254" y1="132.302" x2="136.675" y2="155.414" gradientUnits="userSpaceOnUse">
<stop offset="0.01"/>
<stop offset="0.83" stop-opacity="0.07"/>
<stop offset="1" stop-opacity="0"/>
</linearGradient>
<linearGradient id="paint7_linear" x1="70.285" y1="198.909" x2="70.285" y2="203.866" gradientUnits="userSpaceOnUse">
<stop offset="0.9999" stop-color="white"/>
<stop offset="1" stop-color="white" stop-opacity="0"/>
</linearGradient>
<linearGradient id="paint8_linear" x1="71.5891" y1="98.15" x2="49.4449" y2="105.011" gradientUnits="userSpaceOnUse">
<stop offset="0.01" stop-opacity="0.53"/>
<stop offset="0.83" stop-opacity="0.07"/>
<stop offset="1" stop-opacity="0"/>
</linearGradient>
<linearGradient id="paint9_linear" x1="55.8719" y1="88.2465" x2="16.6404" y2="128.62" gradientUnits="userSpaceOnUse">
<stop offset="0.01"/>
<stop offset="0.83" stop-opacity="0.07"/>
<stop offset="1" stop-opacity="0"/>
</linearGradient>
<linearGradient id="paint10_linear" x1="62" y1="99" x2="63.5" y2="163" gradientUnits="userSpaceOnUse">
<stop offset="0.0469882" stop-color="#1C1C1C"/>
<stop offset="1" stop-color="#141414" stop-opacity="0"/>
</linearGradient>
<linearGradient id="paint11_linear" x1="68.0554" y1="116.997" x2="68.0554" y2="132.606" gradientUnits="userSpaceOnUse">
<stop offset="0.9999" stop-color="white"/>
<stop offset="1" stop-color="white" stop-opacity="0"/>
</linearGradient>
<linearGradient id="paint12_linear" x1="62" y1="101" x2="59.9473" y2="105.58" gradientUnits="userSpaceOnUse">
<stop offset="0.01"/>
<stop offset="0.83" stop-opacity="0.07"/>
<stop offset="1" stop-opacity="0"/>
</linearGradient>
<linearGradient id="paint13_linear" x1="62" y1="132.5" x2="61" y2="244.5" gradientUnits="userSpaceOnUse">
<stop stop-color="#060606"/>
<stop offset="0.348958" stop-color="#060606" stop-opacity="0.927083"/>
<stop offset="1" stop-opacity="0"/>
</linearGradient>
<linearGradient id="paint14_linear" x1="82.5452" y1="120.416" x2="92.2186" y2="120.416" gradientUnits="userSpaceOnUse">
<stop stop-color="#E5C5D5"/>
<stop offset="0.42" stop-color="#EAD4D1"/>
<stop offset="1" stop-color="#F0E9CB"/>
</linearGradient>
<linearGradient id="paint15_linear" x1="47" y1="198" x2="53" y2="224.5" gradientUnits="userSpaceOnUse">
<stop offset="0.333333" stop-color="#020202"/>
<stop offset="1" stop-opacity="0"/>
</linearGradient>
<linearGradient id="paint16_linear" x1="50" y1="199" x2="102.5" y2="221" gradientUnits="userSpaceOnUse">
<stop offset="0.5"/>
<stop offset="1" stop-color="#0B0B0B" stop-opacity="0"/>
</linearGradient>
<linearGradient id="paint17_linear" x1="58.1858" y1="125.112" x2="68.8874" y2="125.112" gradientUnits="userSpaceOnUse">
<stop stop-color="#E5C5D5"/>
<stop offset="0.42" stop-color="#EAD4D1"/>
<stop offset="1" stop-color="#F0E9CB"/>
</linearGradient>
<linearGradient id="paint18_linear" x1="55.4144" y1="94.8116" x2="67.6133" y2="94.8116" gradientUnits="userSpaceOnUse">
<stop stop-color="#E5C5D5"/>
<stop offset="0.42" stop-color="#EAD4D1"/>
<stop offset="1" stop-color="#F0E9CB"/>
</linearGradient>
<linearGradient id="paint19_linear" x1="61" y1="83" x2="60.5" y2="105.5" gradientUnits="userSpaceOnUse">
<stop stop-color="#292929"/>
<stop offset="1" stop-color="#101010" stop-opacity="0"/>
</linearGradient>
<linearGradient id="paint20_linear" x1="59.1477" y1="97.6395" x2="48.375" y2="110.562" gradientUnits="userSpaceOnUse">
<stop offset="0.01"/>
<stop offset="0.83" stop-opacity="0.07"/>
<stop offset="1" stop-opacity="0"/>
</linearGradient>
<linearGradient id="paint21_linear" x1="63.9748" y1="97.4397" x2="53.0493" y2="109.55" gradientUnits="userSpaceOnUse">
<stop offset="0.01"/>
<stop offset="0.83" stop-opacity="0.07"/>
<stop offset="1" stop-opacity="0"/>
</linearGradient>
<linearGradient id="paint22_linear" x1="59624.6" y1="2643.25" x2="59422.1" y2="6647.33" gradientUnits="userSpaceOnUse">
<stop stop-color="white" stop-opacity="0.27"/>
<stop offset="0.95" stop-color="white"/>
</linearGradient>
</defs>
</svg>
