<svg width="208" height="205" viewBox="0 0 208 205" fill="none" xmlns="http://www.w3.org/2000/svg">
<path opacity="0.18" d="M93.6766 0.249008C124.406 -2.22063 149.388 13.8075 160.258 42.6469C172.115 74.1034 208.945 92.4835 207.981 117.869C206.627 153.558 167.856 147.903 142.929 173.488C119.832 197.194 73.485 211.875 47.1605 201.753C29.3751 194.915 2.80692 172.512 0.188669 144.767C-2.09141 120.604 16.6061 66.3533 39.408 34.8968C55.5222 12.6663 66.3026 2.44896 93.6766 0.249008Z" fill="#6E71FF"/>
<path d="M98.6671 84.5593C92.0744 84.5593 85.6298 86.5077 80.1482 90.158C74.6666 93.8083 70.3942 98.9966 67.8713 105.067C65.3484 111.137 64.6883 117.816 65.9745 124.261C67.2607 130.705 70.4353 136.624 75.097 141.27C79.7588 145.916 85.6982 149.08 92.1641 150.362C98.6301 151.643 105.332 150.986 111.423 148.471C117.514 145.957 122.72 141.699 126.383 136.236C130.045 130.773 132 124.35 132 117.78C132 108.969 128.488 100.519 122.237 94.2893C115.986 88.0593 107.508 84.5593 98.6671 84.5593ZM98.6671 142.695C93.7226 142.695 88.8891 141.234 84.7779 138.496C80.6667 135.758 77.4625 131.867 75.5703 127.314C73.6781 122.762 73.183 117.752 74.1476 112.919C75.1123 108.086 77.4933 103.646 80.9896 100.162C84.4858 96.6775 88.9404 94.3045 93.7899 93.3431C98.6394 92.3818 103.666 92.8752 108.234 94.761C112.802 96.6467 116.707 99.8402 119.454 103.937C122.201 108.035 123.667 112.852 123.667 117.78C123.667 124.388 121.033 130.725 116.345 135.397C111.656 140.07 105.297 142.695 98.6671 142.695Z" fill="#6E71FF"/>
<path d="M105.771 73.3698L111.999 79.5763V86.2204L103.665 94.5255H93.6653L85.332 86.2204V79.5763L91.5597 73.3698H105.771Z" fill="#6E71FF"/>
<path d="M68.6666 66.2881C68.6666 64.526 67.9642 62.8361 66.714 61.5901C65.4638 60.3441 63.7681 59.6441 62 59.6441C63.7681 59.6441 65.4638 58.9441 66.714 57.6981C67.9642 56.4521 68.6666 54.7621 68.6666 53C68.6666 54.7621 69.369 56.4521 70.6192 57.6981C71.8695 58.9441 73.5651 59.6441 75.3332 59.6441C73.5651 59.6441 71.8695 60.3441 70.6192 61.5901C69.369 62.8361 68.6666 64.526 68.6666 66.2881Z" fill="#6E71FF"/>
<path d="M68.6666 66.2881C68.6666 64.526 67.9642 62.8361 66.714 61.5901C65.4638 60.3441 63.7681 59.6441 62 59.6441C63.7681 59.6441 65.4638 58.9441 66.714 57.6981C67.9642 56.4521 68.6666 54.7621 68.6666 53C68.6666 54.7621 69.369 56.4521 70.6192 57.6981C71.8695 58.9441 73.5651 59.6441 75.3332 59.6441C73.5651 59.6441 71.8695 60.3441 70.6192 61.5901C69.369 62.8361 68.6666 64.526 68.6666 66.2881Z" fill="url(#paint0_linear)"/>
<path d="M125.334 79.5762C125.334 77.8141 124.631 76.1242 123.381 74.8782C122.131 73.6321 120.435 72.9321 118.667 72.9321C120.435 72.9321 122.131 72.2322 123.381 70.9861C124.631 69.7401 125.334 68.0502 125.334 66.2881C125.334 68.0502 126.036 69.7401 127.286 70.9861C128.536 72.2322 130.232 72.9321 132 72.9321C130.232 72.9321 128.536 73.6321 127.286 74.8782C126.036 76.1242 125.334 77.8141 125.334 79.5762Z" fill="#6E71FF"/>
<path d="M125.334 79.5762C125.334 77.8141 124.631 76.1242 123.381 74.8782C122.131 73.6321 120.435 72.9321 118.667 72.9321C120.435 72.9321 122.131 72.2322 123.381 70.9861C124.631 69.7401 125.334 68.0502 125.334 66.2881C125.334 68.0502 126.036 69.7401 127.286 70.9861C128.536 72.2322 130.232 72.9321 132 72.9321C130.232 72.9321 128.536 73.6321 127.286 74.8782C126.036 76.1242 125.334 77.8141 125.334 79.5762Z" fill="url(#paint1_linear)"/>
<path d="M116.999 62.9661L98.6662 84.5593L80.333 62.9661L88.6663 54.661H108.666L116.999 62.9661Z" fill="#6E71FF"/>
<path d="M116.999 62.9661L98.6662 84.5593L80.333 62.9661L88.6663 54.661H108.666L116.999 62.9661Z" fill="url(#paint2_linear)" fill-opacity="0.6"/>
<path d="M106.999 62.9661L101.999 54.661H108.666L116.999 62.9661H106.999Z" fill="#6E71FF"/>
<path d="M106.999 62.9661L101.999 54.661H108.666L116.999 62.9661H106.999Z" fill="url(#paint3_linear)" fill-opacity="0.9"/>
<path d="M90.3329 62.9661L95.3329 54.661H88.6663L80.333 62.9661H90.3329Z" fill="#6E71FF"/>
<path d="M90.3329 62.9661L95.3329 54.661H88.6663L80.333 62.9661H90.3329Z" fill="url(#paint4_linear)" fill-opacity="0.4"/>
<path d="M98.6653 84.5594L106.999 62.9662H90.332L98.6653 84.5594Z" fill="#6E71FF"/>
<path d="M98.6653 84.5594L106.999 62.9662H90.332L98.6653 84.5594Z" fill="url(#paint5_linear)" fill-opacity="0.7"/>
<path d="M106.998 62.9662L98.665 84.5594L116.998 62.9662H106.998Z" fill="#6E71FF"/>
<path d="M106.998 62.9662L98.665 84.5594L116.998 62.9662H106.998Z" fill="url(#paint6_linear)" fill-opacity="0.8"/>
<defs>
<linearGradient id="paint0_linear" x1="75.7332" y1="52.3356" x2="52.3444" y2="75.2704" gradientUnits="userSpaceOnUse">
<stop stop-color="white"/>
<stop offset="1" stop-color="white" stop-opacity="0"/>
</linearGradient>
<linearGradient id="paint1_linear" x1="131.734" y1="59.7769" x2="119.005" y2="87.9802" gradientUnits="userSpaceOnUse">
<stop stop-color="white"/>
<stop offset="1" stop-color="white" stop-opacity="0"/>
</linearGradient>
<linearGradient id="paint2_linear" x1="97.5996" y1="52.8671" x2="97.5996" y2="93.263" gradientUnits="userSpaceOnUse">
<stop stop-color="#2E2E2E"/>
<stop offset="1" stop-color="#1E1E1E" stop-opacity="0"/>
</linearGradient>
<linearGradient id="paint3_linear" x1="100.799" y1="43.2997" x2="115.657" y2="68.8567" gradientUnits="userSpaceOnUse">
<stop stop-color="#1F1F1F"/>
<stop offset="1" stop-color="#1B1B1B" stop-opacity="0"/>
</linearGradient>
<linearGradient id="paint4_linear" x1="93.3329" y1="47.0203" x2="78.99" y2="64.0771" gradientUnits="userSpaceOnUse">
<stop stop-color="#131313"/>
<stop offset="1" stop-color="#0E0E0E" stop-opacity="0"/>
</linearGradient>
<linearGradient id="paint5_linear" x1="98.6653" y1="55.5248" x2="98.6653" y2="88.4794" gradientUnits="userSpaceOnUse">
<stop stop-color="#101010"/>
<stop offset="1" stop-opacity="0"/>
</linearGradient>
<linearGradient id="paint6_linear" x1="107.832" y1="62.9662" x2="107.832" y2="84.5594" gradientUnits="userSpaceOnUse">
<stop stop-color="#161616"/>
<stop offset="1" stop-color="#242424" stop-opacity="0"/>
</linearGradient>
</defs>
</svg>
