<svg width="208" height="208" viewBox="0 0 208 208" fill="none" xmlns="http://www.w3.org/2000/svg">
<path opacity="0.18" d="M192.017 177.378C189.587 179.312 186.934 180.891 184.126 182.076C179.264 184.121 174.086 185.037 169.097 186.613C166.882 187.305 164.709 188.145 162.577 189.06C149.664 194.575 137.813 203.324 124.229 206.517C99.0577 212.478 74.7302 198.925 50.6703 193.178C30.0558 188.265 13.3023 200.01 4.97912 164.472C1.50082 149.678 -2.80485 134.012 2.45993 119.816C7.72471 105.62 15.1382 92.5085 20.1601 78.2407C27.3308 57.8639 29.9858 34.388 44.0966 18.8386C53.8687 8.07191 67.8354 2.87389 81.6704 1.02957C95.5053 -0.814744 109.513 0.368654 123.443 0.431173C140.221 0.489226 158.094 -0.787951 172.604 8.37557C177.722 11.6579 182.132 16.0903 185.54 21.3748C188.948 26.6594 191.274 32.6739 192.362 39.0144C195.244 56.5153 188.403 74.6593 191.477 92.1289C194.33 108.393 205.473 122.004 207.65 138.402C209.626 153.165 203.065 168.652 192.017 177.378Z" fill="#6E71FF"/>
<path d="M64.2671 154.78L61.7051 151.671C63.3362 150.324 65.0638 149.003 66.8349 147.745L69.1688 151.029C67.4766 152.233 65.8276 153.495 64.2671 154.78ZM74.3201 147.622L72.2109 144.186C74.037 143.067 75.9219 141.994 77.8169 140.999L79.6902 144.566C77.8758 145.521 76.0675 146.549 74.3201 147.622ZM85.2527 141.876L83.6196 138.192C85.5813 137.322 87.5923 136.509 89.5956 135.775L90.9809 139.559C89.0602 140.262 87.1337 141.041 85.2527 141.876ZM151.867 137.694C149.862 137.163 147.829 136.68 145.828 136.258L146.659 132.315C148.728 132.752 150.828 133.25 152.898 133.798L151.867 137.694ZM96.8464 137.631L95.7168 133.763C97.777 133.161 99.8784 132.623 101.96 132.163L102.83 136.098C100.835 136.538 98.822 137.054 96.8464 137.631ZM139.726 135.14C137.68 134.822 135.612 134.561 133.577 134.361L133.971 130.351C136.078 130.558 138.223 130.829 140.344 131.158L139.726 135.14ZM108.904 134.963L108.294 130.981C110.403 130.658 112.556 130.4 114.693 130.215L115.039 134.229C112.991 134.407 110.927 134.654 108.904 134.963ZM127.399 133.939C125.295 133.857 123.231 133.848 121.21 133.89L121.12 129.862C123.21 129.811 125.362 129.826 127.556 129.913L127.399 133.939Z" fill="url(#paint0_linear)"/>
<path d="M57.7267 160.918L54.6709 158.29C54.7024 158.255 55.4481 157.391 56.8786 155.99L59.6964 158.87C58.4213 160.118 57.7582 160.882 57.7267 160.918Z" fill="url(#paint1_linear)"/>
<path d="M158.869 139.842L162.589 141.01L163.258 139.14C163.258 139.14 163.657 138.03 164.183 136.115L160.298 135.047C160.212 135.357 160.131 135.643 160.054 135.905L158.869 139.842Z" fill="url(#paint2_linear)"/>
<path d="M165.499 130.461L161.544 129.698C161.894 127.881 162.171 126.054 162.368 124.271L166.374 124.713C166.166 126.604 165.871 128.538 165.499 130.461ZM166.758 118.888L162.729 118.819L162.738 117.8C162.738 116.296 162.671 114.81 162.542 113.387L166.556 113.02C166.697 114.565 166.768 116.173 166.768 117.8L166.758 118.888ZM161.703 108.078C161.294 106.303 160.753 104.6 160.098 103.018L163.82 101.475C164.56 103.263 165.17 105.179 165.631 107.171L161.703 108.078ZM157.632 98.3909C156.662 96.9437 155.539 95.5968 154.293 94.3886L157.099 91.496C158.547 92.8999 159.854 94.4653 160.981 96.1477L157.632 98.3909ZM150.182 91.1586C148.746 90.2446 147.168 89.429 145.487 88.7354L147.026 85.0107C148.923 85.7947 150.712 86.7188 152.347 87.7586L150.182 91.1586ZM140.399 87.0617C138.725 86.6346 136.936 86.2875 135.081 86.0317L135.631 82.0391C137.637 82.3167 139.577 82.6925 141.395 83.1576L140.399 87.0617ZM129.636 85.5327C127.891 85.4472 126.063 85.4245 124.13 85.4648L124.04 81.4368C126.057 81.3907 127.993 81.4183 129.833 81.5067L129.636 85.5327Z" fill="url(#paint3_linear)"/>
<path d="M115.561 86.0434L115.128 82.0372C116.171 81.9241 117.19 81.8275 118.19 81.7459L118.52 85.7619C117.556 85.8418 116.569 85.9341 115.561 86.0434Z" fill="url(#paint4_linear)"/>
<path d="M164.159 141.657C166.162 134.827 168.277 129.898 170.066 126.469C171.278 124.145 173.693 120.628 175.555 118.783C179.314 115.062 181.416 109.67 180.65 103.811C179.615 95.8871 173.099 89.5002 165.158 88.6021C154.451 87.3912 145.38 95.7355 145.38 106.198C145.38 111.109 147.38 115.552 150.608 118.76C152.502 120.643 154.965 124.237 156.194 126.609C157.967 130.032 160.053 134.92 162.028 141.657C162.341 142.724 163.846 142.724 164.159 141.657Z" fill="#6E71FF"/>
<path d="M164.159 141.657C166.162 134.827 168.277 129.898 170.066 126.469C171.278 124.145 173.693 120.628 175.555 118.783C179.314 115.062 181.416 109.67 180.65 103.811C179.615 95.8871 173.099 89.5002 165.158 88.6021C154.451 87.3912 145.38 95.7355 145.38 106.198C145.38 111.109 147.38 115.552 150.608 118.76C152.502 120.643 154.965 124.237 156.194 126.609C157.967 130.032 160.053 134.92 162.028 141.657C162.341 142.724 163.846 142.724 164.159 141.657Z" fill="url(#paint5_linear)"/>
<path d="M118.823 86.7601C120.774 80.3016 122.835 75.6404 124.578 72.3974C125.759 70.2 128.112 66.8737 129.927 65.1298C133.59 61.6104 135.638 56.5117 134.892 50.9711C133.883 43.4776 127.534 37.4377 119.797 36.5885C109.364 35.4437 100.524 43.3343 100.524 53.2285C100.524 57.8725 102.473 62.0735 105.618 65.1072C107.465 66.888 109.865 70.2869 111.062 72.5301C112.79 75.7675 114.822 80.3895 116.746 86.7604C117.052 87.7696 118.518 87.7696 118.823 86.7601Z" fill="#6E71FF"/>
<path d="M118.823 86.7601C120.774 80.3016 122.835 75.6404 124.578 72.3974C125.759 70.2 128.112 66.8737 129.927 65.1298C133.59 61.6104 135.638 56.5117 134.892 50.9711C133.883 43.4776 127.534 37.4377 119.797 36.5885C109.364 35.4437 100.524 43.3343 100.524 53.2285C100.524 57.8725 102.473 62.0735 105.618 65.1072C107.465 66.888 109.865 70.2869 111.062 72.5301C112.79 75.7675 114.822 80.3895 116.746 86.7604C117.052 87.7696 118.518 87.7696 118.823 86.7601Z" fill="url(#paint6_linear)"/>
<path d="M59.4967 162.751C63.8407 150.484 68.3157 142.034 71.8809 136.485C74.5341 132.356 77.9189 128.682 81.6432 125.314C87.5307 119.991 91.1846 112.593 91.1643 104.359C91.1273 89.0859 77.8215 76.011 61.1382 74.8783C42.6244 73.6212 26.9818 86.7163 26.5485 103.469C26.3447 111.348 29.5445 118.59 34.9201 124.023C38.4785 127.619 41.7208 131.474 44.1764 135.769C47.4499 141.495 51.482 150.165 55.1859 162.64C55.7722 164.615 58.8092 164.693 59.4967 162.751Z" fill="#6E71FF"/>
<path d="M59.4967 162.751C63.8407 150.484 68.3157 142.034 71.8809 136.485C74.5341 132.356 77.9189 128.682 81.6432 125.314C87.5307 119.991 91.1846 112.593 91.1643 104.359C91.1273 89.0859 77.8215 76.011 61.1382 74.8783C42.6244 73.6212 26.9818 86.7163 26.5485 103.469C26.3447 111.348 29.5445 118.59 34.9201 124.023C38.4785 127.619 41.7208 131.474 44.1764 135.769C47.4499 141.495 51.482 150.165 55.1859 162.64C55.7722 164.615 58.8092 164.693 59.4967 162.751Z" fill="url(#paint7_linear)"/>
<path d="M117.812 84.2686C119.667 77.9403 121.627 73.3731 123.285 70.1954C124.408 68.0423 126.646 64.7831 128.371 63.0743C131.854 59.6259 133.802 54.63 133.092 49.2011C132.133 41.8586 126.096 35.9405 118.738 35.1084C108.817 33.9867 100.411 41.7182 100.411 51.413C100.411 55.9633 102.264 60.0797 105.255 63.0522C107.011 64.7971 109.293 68.1275 110.432 70.3254C112.075 73.4976 114.007 78.0264 115.837 84.2689C116.127 85.2577 117.522 85.2577 117.812 84.2686Z" fill="#6E71FF"/>
<path d="M116.824 62.513C122.928 62.513 127.875 57.5653 127.875 51.4621C127.875 45.3589 122.928 40.4112 116.824 40.4112C110.721 40.4112 105.773 45.3589 105.773 51.4621C105.773 57.5653 110.721 62.513 116.824 62.513Z" fill="url(#paint8_linear)"/>
<path d="M58.254 157.544C61.9342 145.153 65.8243 136.58 68.9516 130.934C71.2789 126.732 74.2856 122.967 77.6098 119.5C82.8648 114.02 86.0295 106.52 85.8162 98.2793C85.4213 82.9938 72.9513 70.2517 57.6767 69.5499C40.7263 68.7711 26.7393 82.2829 26.7393 99.0614C26.7393 106.953 29.835 114.118 34.8764 119.417C38.2137 122.925 41.2681 126.699 43.614 130.934C46.7412 136.58 50.6314 145.154 54.3115 157.544C54.894 159.505 57.6715 159.505 58.254 157.544Z" fill="#6E71FF"/>
<path d="M56.2889 119.048C67.2747 119.048 76.1804 110.142 76.1804 99.1563C76.1804 88.1706 67.2747 79.2649 56.2889 79.2649C45.3032 79.2649 36.3975 88.1706 36.3975 99.1563C36.3975 110.142 45.3032 119.048 56.2889 119.048Z" fill="url(#paint9_linear)"/>
<path d="M163.53 138.071C165.385 131.743 167.345 127.176 169.003 123.998C170.126 121.845 172.363 118.586 174.089 116.877C177.572 113.429 179.52 108.433 178.81 103.004C177.851 95.6614 171.814 89.7433 164.456 88.9112C154.535 87.7892 146.129 95.521 146.129 105.216C146.129 109.766 147.982 113.882 150.973 116.855C152.729 118.6 155.011 121.93 156.149 124.128C157.793 127.3 159.725 131.829 161.555 138.072C161.845 139.061 163.24 139.06 163.53 138.071Z" fill="#6E71FF"/>
<path d="M162.536 116.318C168.639 116.318 173.587 111.371 173.587 105.268C173.587 99.1643 168.639 94.2166 162.536 94.2166C156.433 94.2166 151.485 99.1643 151.485 105.268C151.485 111.371 156.433 116.318 162.536 116.318Z" fill="url(#paint10_linear)"/>
<defs>
<linearGradient id="paint0_linear" x1="57.6176" y1="164.871" x2="55.6674" y2="169.096" gradientUnits="userSpaceOnUse">
<stop stop-color="white"/>
<stop offset="1" stop-color="white" stop-opacity="0"/>
</linearGradient>
<linearGradient id="paint1_linear" x1="57.1837" y1="155.99" x2="48.8416" y2="160.97" gradientUnits="userSpaceOnUse">
<stop stop-color="white"/>
<stop offset="1" stop-color="white" stop-opacity="0"/>
</linearGradient>
<linearGradient id="paint2_linear" x1="161.526" y1="135.047" x2="157.406" y2="141.63" gradientUnits="userSpaceOnUse">
<stop offset="0.661091" stop-color="white"/>
<stop offset="1" stop-color="white" stop-opacity="0"/>
</linearGradient>
<linearGradient id="paint3_linear" x1="145.404" y1="81.4147" x2="145.404" y2="130.461" gradientUnits="userSpaceOnUse">
<stop stop-color="white"/>
<stop offset="1" stop-color="white" stop-opacity="0"/>
</linearGradient>
<linearGradient id="paint4_linear" x1="116.824" y1="81.7459" x2="117.426" y2="105.062" gradientUnits="userSpaceOnUse">
<stop stop-color="white"/>
<stop offset="1" stop-color="white" stop-opacity="0"/>
</linearGradient>
<linearGradient id="paint5_linear" x1="163.093" y1="88.4851" x2="163.093" y2="142.457" gradientUnits="userSpaceOnUse">
<stop stop-color="white"/>
<stop offset="1" stop-color="white" stop-opacity="0"/>
</linearGradient>
<linearGradient id="paint6_linear" x1="117.784" y1="36.4778" x2="117.784" y2="87.5172" gradientUnits="userSpaceOnUse">
<stop stop-color="white"/>
<stop offset="1" stop-color="white" stop-opacity="0"/>
</linearGradient>
<linearGradient id="paint7_linear" x1="54.9987" y1="41.6843" x2="56.7763" y2="164.172" gradientUnits="userSpaceOnUse">
<stop stop-color="white"/>
<stop offset="1" stop-color="white" stop-opacity="0"/>
</linearGradient>
<linearGradient id="paint8_linear" x1="115.476" y1="58.906" x2="107.35" y2="89.4602" gradientUnits="userSpaceOnUse">
<stop stop-color="white"/>
<stop offset="1" stop-color="white" stop-opacity="0"/>
</linearGradient>
<linearGradient id="paint9_linear" x1="56.2889" y1="79.2649" x2="57.6181" y2="137.729" gradientUnits="userSpaceOnUse">
<stop offset="0.627151" stop-color="white"/>
<stop offset="1" stop-color="white" stop-opacity="0"/>
</linearGradient>
<linearGradient id="paint10_linear" x1="162.536" y1="94.2166" x2="162.608" y2="132.854" gradientUnits="userSpaceOnUse">
<stop offset="0.49559" stop-color="white"/>
<stop offset="1" stop-color="white" stop-opacity="0"/>
</linearGradient>
</defs>
</svg>
