<svg width="208" height="208" viewBox="0 0 208 208" fill="none" xmlns="http://www.w3.org/2000/svg">
<path opacity="0.18" d="M6.14958 97.3812C10.2149 87.8628 16.3406 78.1042 22.037 73.3799C27.7333 68.6556 97.9333 -0.000196308 130.369 0C162.804 0.000196314 157.221 8.93405 169.134 18.5806C183.668 30.3419 196.101 50.4906 198.286 74.8236C199.803 91.5232 196.465 108.815 199.106 125.201C201.125 137.747 206.526 148.829 207.755 161.597C209.17 176.25 204.354 191.818 195.941 199.799C187.528 207.779 176.901 208.005 166.921 207.579C140.746 206.448 156.54 198.844 88.4536 207.202C20.3667 215.561 2.56506 155.483 2.56506 155.483C-1.45703 136.314 -1.09832 114.345 6.14958 97.3812Z" fill="#6E71FF"/>
<path d="M107.88 68.5887L131.915 75.59L106.265 163.647L79.7161 153.06L107.88 68.5887Z" fill="#6E71FF"/>
<path d="M107.881 68.5887L131.915 75.59L106.265 163.647L79.7161 153.06L107.881 68.5887Z" fill="url(#paint0_linear)" fill-opacity="0.5"/>
<path d="M110.252 145.326L109.377 148.33L98.8615 145.267C98.0319 145.026 97.5552 144.157 97.7969 143.327C98.0386 142.498 98.907 142.021 99.7367 142.263L110.252 145.326Z" fill="#6E71FF"/>
<path d="M110.252 145.326L109.377 148.33L98.8615 145.267C98.0319 145.026 97.5552 144.157 97.7969 143.327C98.0386 142.498 98.907 142.021 99.7367 142.263L110.252 145.326Z" fill="url(#paint1_linear)"/>
<path d="M115.502 127.3L114.627 130.305L104.111 127.241C103.282 127 102.805 126.131 103.047 125.302C103.289 124.472 104.157 123.995 104.987 124.237L115.502 127.3Z" fill="#6E71FF"/>
<path d="M115.502 127.3L114.627 130.305L104.111 127.241C103.282 127 102.805 126.131 103.047 125.302C103.289 124.472 104.157 123.995 104.987 124.237L115.502 127.3Z" fill="url(#paint2_linear)"/>
<path d="M120.754 109.273L119.879 112.278L109.363 109.215C108.534 108.973 108.057 108.105 108.299 107.275C108.541 106.445 109.409 105.969 110.239 106.21L120.754 109.273Z" fill="#6E71FF"/>
<path d="M120.754 109.273L119.879 112.278L109.363 109.215C108.534 108.973 108.057 108.105 108.299 107.275C108.541 106.445 109.409 105.969 110.239 106.21L120.754 109.273Z" fill="url(#paint3_linear)"/>
<path d="M112.878 136.313L112.003 139.317L107.496 138.004C106.667 137.763 106.19 136.894 106.432 136.064C106.673 135.235 107.542 134.758 108.371 135L112.878 136.313Z" fill="#6E71FF"/>
<path d="M112.878 136.313L112.003 139.317L107.496 138.004C106.667 137.763 106.19 136.894 106.432 136.064C106.673 135.235 107.542 134.758 108.371 135L112.878 136.313Z" fill="url(#paint4_linear)"/>
<path d="M118.129 118.287L117.254 121.291L112.747 119.978C111.918 119.737 111.441 118.868 111.683 118.038C111.924 117.209 112.793 116.732 113.622 116.974L118.129 118.287Z" fill="#6E71FF"/>
<path d="M118.129 118.287L117.254 121.291L112.747 119.978C111.918 119.737 111.441 118.868 111.683 118.038C111.924 117.209 112.793 116.732 113.622 116.974L118.129 118.287Z" fill="url(#paint5_linear)"/>
<path d="M124.254 97.2562L123.379 100.261L118.872 98.9478C118.043 98.7061 117.566 97.8377 117.808 97.008C118.049 96.1784 118.918 95.7018 119.747 95.9434L124.254 97.2562Z" fill="#6E71FF"/>
<path d="M124.254 97.2562L123.379 100.261L118.872 98.9478C118.043 98.7061 117.566 97.8377 117.808 97.008C118.049 96.1784 118.918 95.7018 119.747 95.9434L124.254 97.2562Z" fill="url(#paint6_linear)"/>
<path d="M121.378 52.8636L131.862 75.5963L44.4836 115.896L33.9992 93.163L121.378 52.8636Z" fill="#6E71FF"/>
<path d="M75.0312 101.807L72.1897 103.118L67.6027 93.1721C67.2408 92.3874 67.5836 91.4579 68.3683 91.096C69.1529 90.7341 70.0824 91.0768 70.4443 91.8615L75.0312 101.807Z" fill="#6E71FF"/>
<path d="M75.0312 101.807L72.1897 103.118L67.6027 93.1721C67.2408 92.3874 67.5836 91.4579 68.3683 91.096C69.1529 90.7341 70.0824 91.0768 70.4443 91.8615L75.0312 101.807Z" fill="url(#paint7_linear)"/>
<path d="M56.5605 110.326L53.719 111.636L49.132 101.691C48.7701 100.906 49.1129 99.9765 49.8976 99.6146C50.6822 99.2527 51.6117 99.5954 51.9736 100.38L56.5605 110.326Z" fill="url(#paint8_linear)"/>
<path d="M92.0801 93.944L89.2385 95.2545L84.6516 85.309C84.2897 84.5243 84.6324 83.5948 85.4171 83.2329C86.2018 82.871 87.1313 83.2137 87.4931 83.9984L92.0801 93.944Z" fill="#6E71FF"/>
<path d="M92.0801 93.944L89.2385 95.2545L84.6516 85.309C84.2897 84.5243 84.6324 83.5948 85.4171 83.2329C86.2018 82.871 87.1313 83.2137 87.4931 83.9984L92.0801 93.944Z" fill="url(#paint9_linear)"/>
<path d="M109.13 86.0804L106.288 87.391L101.701 77.4455C101.339 76.6608 101.682 75.7313 102.467 75.3694C103.252 75.0075 104.181 75.3502 104.543 76.1349L109.13 86.0804Z" fill="#6E71FF"/>
<path d="M109.13 86.0804L106.288 87.391L101.701 77.4455C101.339 76.6608 101.682 75.7313 102.467 75.3694C103.252 75.0075 104.181 75.3502 104.543 76.1349L109.13 86.0804Z" fill="url(#paint10_linear)"/>
<path d="M83.5557 97.8753L80.7141 99.1859L78.7483 94.9235C78.3864 94.1388 78.7291 93.2093 79.5138 92.8474C80.2985 92.4855 81.2279 92.8282 81.5898 93.6129L83.5557 97.8753Z" fill="#6E71FF"/>
<path d="M83.5557 97.8753L80.7141 99.1859L78.7483 94.9235C78.3864 94.1388 78.7291 93.2093 79.5138 92.8474C80.2985 92.4855 81.2279 92.8282 81.5898 93.6129L83.5557 97.8753Z" fill="url(#paint11_linear)"/>
<path d="M65.7959 106.067L62.9543 107.377L60.9885 103.115C60.6266 102.33 60.9693 101.401 61.754 101.039C62.5387 100.677 63.4682 101.019 63.8301 101.804L65.7959 106.067Z" fill="url(#paint12_linear)"/>
<path d="M100.605 90.0122L97.7639 91.3228L95.7981 87.0604C95.4362 86.2757 95.7789 85.3462 96.5636 84.9843C97.3483 84.6224 98.2777 84.9652 98.6396 85.7498L100.605 90.0122Z" fill="#6E71FF"/>
<path d="M100.605 90.0122L97.7639 91.3228L95.7981 87.0604C95.4362 86.2757 95.7789 85.3462 96.5636 84.9843C97.3483 84.6224 98.2777 84.9652 98.6396 85.7498L100.605 90.0122Z" fill="url(#paint13_linear)"/>
<path d="M120.496 80.8383L117.655 82.1488L115.689 77.8864C115.327 77.1017 115.67 76.1723 116.454 75.8104C117.239 75.4485 118.168 75.7912 118.53 76.5759L120.496 80.8383Z" fill="#6E71FF"/>
<path d="M120.496 80.8383L117.655 82.1488L115.689 77.8864C115.327 77.1017 115.67 76.1723 116.454 75.8104C117.239 75.4485 118.168 75.7912 118.53 76.5759L120.496 80.8383Z" fill="url(#paint14_linear)"/>
<path d="M79.7168 153.06L90.2012 175.792L179.711 134.51L169.227 111.777L79.7168 153.06Z" fill="#6E71FF"/>
<path d="M147.032 149.582L149.874 148.271L145.287 138.326C144.925 137.541 143.995 137.198 143.211 137.56C142.426 137.922 142.083 138.851 142.445 139.636L147.032 149.582Z" fill="#6E71FF"/>
<path d="M147.032 149.582L149.874 148.271L145.287 138.326C144.925 137.541 143.995 137.198 143.211 137.56C142.426 137.922 142.083 138.851 142.445 139.636L147.032 149.582Z" fill="url(#paint15_linear)"/>
<path d="M164.081 141.719L166.923 140.408L162.336 130.462C161.974 129.678 161.044 129.335 160.26 129.697C159.475 130.059 159.132 130.988 159.494 131.773L164.081 141.719Z" fill="url(#paint16_linear)"/>
<path d="M129.982 157.445L132.824 156.134L128.237 146.189C127.875 145.404 126.946 145.061 126.161 145.423C125.376 145.785 125.034 146.715 125.395 147.499L129.982 157.445Z" fill="#6E71FF"/>
<path d="M129.272 157.772L132.114 156.462L127.527 146.516C127.165 145.732 126.236 145.389 125.451 145.751C124.666 146.113 124.324 147.042 124.686 147.827L129.272 157.772Z" fill="url(#paint17_linear)"/>
<path d="M112.932 165.309L115.773 163.998L111.186 154.053C110.824 153.268 109.895 152.925 109.11 153.287C108.326 153.649 107.983 154.578 108.345 155.363L112.932 165.309Z" fill="#6E71FF"/>
<path d="M110.802 166.291L113.643 164.98L109.056 155.035C108.695 154.25 107.765 153.908 106.98 154.269C106.196 154.631 105.853 155.561 106.215 156.345L110.802 166.291Z" fill="url(#paint18_linear)"/>
<path d="M138.507 153.513L141.348 152.203L139.383 147.94C139.021 147.156 138.091 146.813 137.307 147.175C136.522 147.537 136.179 148.466 136.541 149.251L138.507 153.513Z" fill="#6E71FF"/>
<path d="M138.507 153.513L141.348 152.203L139.383 147.94C139.021 147.156 138.091 146.813 137.307 147.175C136.522 147.537 136.179 148.466 136.541 149.251L138.507 153.513Z" fill="url(#paint19_linear)"/>
<path d="M155.557 145.65L158.398 144.339L156.432 140.077C156.07 139.292 155.141 138.95 154.356 139.311C153.572 139.673 153.229 140.603 153.591 141.388L155.557 145.65Z" fill="url(#paint20_linear)"/>
<path d="M172.605 137.787L175.447 136.476L173.481 132.214C173.119 131.429 172.19 131.086 171.405 131.448C170.62 131.81 170.278 132.74 170.64 133.524L172.605 137.787Z" fill="url(#paint21_linear)"/>
<path d="M121.458 161.377L124.3 160.066L122.334 155.804C121.972 155.019 121.042 154.676 120.258 155.038C119.473 155.4 119.13 156.329 119.492 157.114L121.458 161.377Z" fill="#6E71FF"/>
<path d="M120.746 161.705L123.588 160.394L121.622 156.132C121.26 155.347 120.33 155.004 119.546 155.366C118.761 155.728 118.418 156.658 118.78 157.442L120.746 161.705Z" fill="url(#paint22_linear)"/>
<path d="M101.566 170.55L104.408 169.24L102.442 164.978C102.08 164.193 101.151 163.85 100.366 164.212C99.5814 164.574 99.2387 165.503 99.6006 166.288L101.566 170.55Z" fill="#6E71FF"/>
<path d="M101.566 170.55L104.408 169.24L102.442 164.978C102.08 164.193 101.151 163.85 100.366 164.212C99.5814 164.574 99.2387 165.503 99.6006 166.288L101.566 170.55Z" fill="url(#paint23_linear)"/>
<defs>
<linearGradient id="paint0_linear" x1="124.257" y1="60.2671" x2="64.7723" y2="200.395" gradientUnits="userSpaceOnUse">
<stop stop-color="#3D3D3D"/>
<stop offset="1" stop-opacity="0"/>
</linearGradient>
<linearGradient id="paint1_linear" x1="112.819" y1="147.703" x2="93.6659" y2="142.124" gradientUnits="userSpaceOnUse">
<stop stop-color="#242424"/>
<stop offset="1" stop-opacity="0"/>
</linearGradient>
<linearGradient id="paint2_linear" x1="117.693" y1="129.568" x2="97.1476" y2="123.176" gradientUnits="userSpaceOnUse">
<stop stop-color="#242424"/>
<stop offset="1" stop-opacity="0"/>
</linearGradient>
<linearGradient id="paint3_linear" x1="122.57" y1="111.432" x2="103.792" y2="105.962" gradientUnits="userSpaceOnUse">
<stop stop-color="#242424"/>
<stop offset="1" stop-opacity="0"/>
</linearGradient>
<linearGradient id="paint4_linear" x1="114.318" y1="138.362" x2="103.052" y2="135.08" gradientUnits="userSpaceOnUse">
<stop stop-color="#242424"/>
<stop offset="1" stop-opacity="0"/>
</linearGradient>
<linearGradient id="paint5_linear" x1="120.696" y1="120.664" x2="107.176" y2="116.726" gradientUnits="userSpaceOnUse">
<stop stop-color="#242424"/>
<stop offset="1" stop-opacity="0"/>
</linearGradient>
<linearGradient id="paint6_linear" x1="124.567" y1="98.9771" x2="115.554" y2="96.3517" gradientUnits="userSpaceOnUse">
<stop stop-color="#242424"/>
<stop offset="1" stop-opacity="0"/>
</linearGradient>
<linearGradient id="paint7_linear" x1="74.921" y1="105.304" x2="66.5662" y2="87.1888" gradientUnits="userSpaceOnUse">
<stop stop-color="#242424"/>
<stop offset="1" stop-opacity="0"/>
</linearGradient>
<linearGradient id="paint8_linear" x1="56.4503" y1="113.822" x2="48.0955" y2="95.7074" gradientUnits="userSpaceOnUse">
<stop stop-color="#242424"/>
<stop offset="1" stop-opacity="0"/>
</linearGradient>
<linearGradient id="paint9_linear" x1="91.806" y1="97.0856" x2="83.1512" y2="77.3859" gradientUnits="userSpaceOnUse">
<stop stop-color="#242424"/>
<stop offset="1" stop-opacity="0"/>
</linearGradient>
<linearGradient id="paint10_linear" x1="108.692" y1="88.8669" x2="100.501" y2="71.107" gradientUnits="userSpaceOnUse">
<stop stop-color="#242424"/>
<stop offset="1" stop-opacity="0"/>
</linearGradient>
<linearGradient id="paint11_linear" x1="82.954" y1="100.307" x2="78.0394" y2="89.6506" gradientUnits="userSpaceOnUse">
<stop stop-color="#242424"/>
<stop offset="1" stop-opacity="0"/>
</linearGradient>
<linearGradient id="paint12_linear" x1="65.1942" y1="108.498" x2="60.2796" y2="97.8419" gradientUnits="userSpaceOnUse">
<stop stop-color="#242424"/>
<stop offset="1" stop-opacity="0"/>
</linearGradient>
<linearGradient id="paint13_linear" x1="100.495" y1="93.5091" x2="94.5977" y2="80.7219" gradientUnits="userSpaceOnUse">
<stop stop-color="#242424"/>
<stop offset="1" stop-opacity="0"/>
</linearGradient>
<linearGradient id="paint14_linear" x1="119.403" y1="82.2039" x2="115.471" y2="73.6792" gradientUnits="userSpaceOnUse">
<stop stop-color="#242424"/>
<stop offset="1" stop-opacity="0"/>
</linearGradient>
<linearGradient id="paint15_linear" x1="149.764" y1="151.768" x2="141.409" y2="133.653" gradientUnits="userSpaceOnUse">
<stop stop-color="#242424"/>
<stop offset="1" stop-opacity="0"/>
</linearGradient>
<linearGradient id="paint16_linear" x1="166.812" y1="143.905" x2="158.458" y2="125.79" gradientUnits="userSpaceOnUse">
<stop stop-color="#242424"/>
<stop offset="1" stop-opacity="0"/>
</linearGradient>
<linearGradient id="paint17_linear" x1="131.84" y1="159.604" x2="122.475" y2="140.232" gradientUnits="userSpaceOnUse">
<stop stop-color="#242424"/>
<stop offset="1" stop-opacity="0"/>
</linearGradient>
<linearGradient id="paint18_linear" x1="113.205" y1="167.767" x2="105.015" y2="150.007" gradientUnits="userSpaceOnUse">
<stop stop-color="#242424"/>
<stop offset="1" stop-opacity="0"/>
</linearGradient>
<linearGradient id="paint19_linear" x1="140.747" y1="154.634" x2="135.832" y2="143.978" gradientUnits="userSpaceOnUse">
<stop stop-color="#242424"/>
<stop offset="1" stop-opacity="0"/>
</linearGradient>
<linearGradient id="paint20_linear" x1="157.797" y1="146.771" x2="152.882" y2="136.115" gradientUnits="userSpaceOnUse">
<stop stop-color="#242424"/>
<stop offset="1" stop-opacity="0"/>
</linearGradient>
<linearGradient id="paint21_linear" x1="174.845" y1="138.907" x2="169.931" y2="128.252" gradientUnits="userSpaceOnUse">
<stop stop-color="#242424"/>
<stop offset="1" stop-opacity="0"/>
</linearGradient>
<linearGradient id="paint22_linear" x1="123.477" y1="163.891" x2="117.58" y2="151.104" gradientUnits="userSpaceOnUse">
<stop stop-color="#242424"/>
<stop offset="1" stop-opacity="0"/>
</linearGradient>
<linearGradient id="paint23_linear" x1="103.315" y1="170.606" x2="99.3832" y2="162.081" gradientUnits="userSpaceOnUse">
<stop stop-color="#242424"/>
<stop offset="1" stop-opacity="0"/>
</linearGradient>
</defs>
</svg>
