<svg width="208" height="208" viewBox="0 0 208 208" fill="none" xmlns="http://www.w3.org/2000/svg">
<path d="M109.233 65.6503C74.2409 65.6503 45.874 92.7167 45.874 126.105V140.056H172.593V126.105C172.592 92.717 144.226 65.6503 109.233 65.6503Z" fill="#6E71FF"/>
<path d="M109.233 65.6503C74.2409 65.6503 45.874 92.7167 45.874 126.105V140.056H172.593V126.105C172.592 92.717 144.226 65.6503 109.233 65.6503Z" fill="url(#paint0_linear)" fill-opacity="0.5"/>
<path d="M175.029 140.057H79.9904C78.6447 140.057 77.5535 139.016 77.5535 137.732V126.106C77.5535 115.088 79.6999 104.769 83.4407 95.8809C84.0082 94.5325 86.0911 94.764 86.3499 96.196L91.4773 124.571C91.8803 126.801 93.9081 128.431 96.2805 128.431H122.186C124.559 128.431 126.586 126.801 126.989 124.571L136.569 71.5545C128.292 67.7718 119.023 65.6503 109.233 65.6503C99.9006 65.6503 91.0516 67.5968 83.0745 71.0538C83.0742 71.0518 83.0732 71.0495 83.0729 71.0474C83.0252 71.068 81.9057 71.6016 81.9057 71.6016C60.6069 81.3425 45.8739 102.064 45.8739 126.105V140.056H43.4369C42.0912 140.056 41 141.098 41 142.382V145.346C41 146.351 41.6591 147.25 42.661 147.563C60.0911 153.001 83.4913 156.333 109.233 156.333C134.975 156.333 158.375 153.001 175.805 147.563C176.807 147.25 177.466 146.352 177.466 145.346V142.382C177.466 141.098 176.375 140.057 175.029 140.057Z" fill="#6E71FF"/>
<path d="M175.029 140.057H79.9904C78.6447 140.057 77.5535 139.016 77.5535 137.732V126.106C77.5535 115.088 79.6999 104.769 83.4407 95.8809C84.0082 94.5325 86.0911 94.764 86.3499 96.196L91.4773 124.571C91.8803 126.801 93.9081 128.431 96.2805 128.431H122.186C124.559 128.431 126.586 126.801 126.989 124.571L136.569 71.5545C128.292 67.7718 119.023 65.6503 109.233 65.6503C99.9006 65.6503 91.0516 67.5968 83.0745 71.0538C83.0742 71.0518 83.0732 71.0495 83.0729 71.0474C83.0252 71.068 81.9057 71.6016 81.9057 71.6016C60.6069 81.3425 45.8739 102.064 45.8739 126.105V140.056H43.4369C42.0912 140.056 41 141.098 41 142.382V145.346C41 146.351 41.6591 147.25 42.661 147.563C60.0911 153.001 83.4913 156.333 109.233 156.333C134.975 156.333 158.375 153.001 175.805 147.563C176.807 147.25 177.466 146.352 177.466 145.346V142.382C177.466 141.098 176.375 140.057 175.029 140.057Z" fill="url(#paint1_linear)" fill-opacity="0.7"/>
<path d="M114.272 128.431H104.194C101.568 128.431 99.4139 126.445 99.3235 123.94L97.2227 65.8104C97.1275 63.181 99.3358 61 102.093 61H116.373C119.13 61 121.339 63.181 121.243 65.8104L119.143 123.94C119.052 126.445 116.898 128.431 114.272 128.431Z" fill="#6E71FF"/>
<path d="M114.272 128.431H104.194C101.568 128.431 99.4139 126.445 99.3235 123.94L97.2227 65.8104C97.1275 63.181 99.3358 61 102.093 61H116.373C119.13 61 121.339 63.181 121.243 65.8104L119.143 123.94C119.052 126.445 116.898 128.431 114.272 128.431Z" fill="url(#paint2_linear)" fill-opacity="0.6"/>
<path d="M175.805 143.093C158.374 146.977 134.975 149.358 109.233 149.358C83.4916 149.358 60.0911 146.977 42.661 143.093C41.8614 142.915 41.298 142.467 41.0957 141.929C41.0634 142.08 41 142.221 41 142.382V145.346C41 146.352 41.6591 147.25 42.661 147.563C60.0911 153.001 83.4916 156.333 109.233 156.333C134.975 156.333 158.375 153.001 175.805 147.563C176.807 147.25 177.466 146.352 177.466 145.346V142.382C177.466 142.221 177.403 142.08 177.37 141.929C177.168 142.467 176.605 142.915 175.805 143.093Z" fill="#6E71FF"/>
<path d="M105.853 123.94L104.361 65.8104C104.294 63.181 105.862 61 107.819 61H102.093C99.3358 61 97.1275 63.181 97.2227 65.8104L99.3233 123.94C99.4136 126.445 101.568 128.431 104.194 128.431H109.311C107.446 128.431 105.917 126.445 105.853 123.94Z" fill="#6E71FF"/>
<path opacity="0.18" d="M204.015 127.398C205.266 111.404 211.615 94.4841 205.124 80.0231C203.421 76.2464 200.978 73.0097 198.246 69.9997C194.635 66.0304 190.523 62.4463 186.928 58.4467C180.567 51.3616 176.929 42.8905 172.028 35.1218C169.997 31.8424 167.687 28.838 165.136 26.1597C164.122 25.1097 163.095 24.0762 162.056 23.059C153.535 14.7842 143.946 7.68024 133.041 3.55607C117.577 -2.26761 99.1925 -1.33476 86.1343 9.31555C81.4335 13.1489 77.626 18.002 73.9541 23.0628C70.9907 27.1303 68.1289 31.3073 64.9622 35.1218C62.1312 38.551 59.063 41.6933 55.4804 44.2123C50.3791 47.804 44.5077 49.9152 39.0953 52.9328C35.6232 54.8678 32.3204 57.2303 29.2378 59.9839C25.1002 63.6668 21.4001 68.0367 18.2435 72.9682C11.3987 83.6638 7.52651 96.5613 7.78835 109.546C7.8284 111.577 7.96394 113.621 8.01631 115.66C8.11879 117.902 8.01338 120.151 7.7021 122.364C7.12913 125.989 5.72135 129.396 4.26736 132.772C2.28661 137.369 0.213441 141.916 0.0162903 146.912C-0.328724 155.501 4.85881 162.858 10.6132 169.146C11.5743 170.196 12.5539 171.219 13.5211 172.213C15.0614 173.799 16.6478 175.385 18.2466 176.952L18.5547 177.254C19.411 178.089 20.2705 178.92 21.1423 179.743C23.3294 181.809 25.5689 183.822 27.8639 185.741C28.8907 186.594 29.9175 187.424 30.9444 188.23C33.3357 190.111 35.8032 191.843 38.3375 193.419C44.594 197.316 51.2756 200.164 58.4654 201.297C78.159 204.318 97.7478 193.581 117.611 195.001C130.644 195.93 142.8 202.026 155.43 205.576C168.06 209.126 182.726 209.693 192.91 200.919C202.296 192.848 205.374 178.905 205.398 166.011C205.423 153.117 203.005 140.25 204.015 127.398Z" fill="#6E71FF"/>
<defs>
<linearGradient id="paint0_linear" x1="113.498" y1="52.3532" x2="109.615" y2="178.889" gradientUnits="userSpaceOnUse">
<stop stop-color="#1E1E1E"/>
<stop offset="1" stop-color="#212121" stop-opacity="0"/>
</linearGradient>
<linearGradient id="paint1_linear" x1="109.233" y1="57.5667" x2="112.631" y2="202.918" gradientUnits="userSpaceOnUse">
<stop stop-color="#2D2D2D"/>
<stop offset="1" stop-color="#1C1C1C" stop-opacity="0"/>
</linearGradient>
<linearGradient id="paint2_linear" x1="109.233" y1="45.7408" x2="109.233" y2="134.117" gradientUnits="userSpaceOnUse">
<stop stop-color="white"/>
<stop offset="1" stop-color="white" stop-opacity="0"/>
</linearGradient>
</defs>
</svg>
