<svg width="240" height="240" viewBox="0 0 240 240" fill="none" xmlns="http://www.w3.org/2000/svg">
<path opacity="0.25" d="M233.083 152.263C225.407 178.875 213.901 207.271 189.251 223.872C186.343 225.831 183.271 227.605 180.059 229.181C166.706 235.715 151.241 238.462 135.897 239.509C105.958 241.574 74.6803 237.25 49.031 224.14C46.1981 222.694 43.4404 221.141 40.758 219.479C25.8803 210.245 14.2105 197.74 6.98903 183.296C1.1109 171.411 -1.37259 158.508 0.748056 145.666C5.89243 114.475 35.2428 90.658 50.3775 61.9385C55.9412 51.3761 59.5778 40.1321 65.2543 29.6179C70.9309 19.1038 79.0909 9.03028 91.0568 3.53565C107.957 -4.22432 126.882 2.50971 143.581 7.36399C163.062 12.9894 182.228 20.5635 197.008 33.102C206.644 41.2613 214.006 51.1627 220.674 61.25C224.808 67.3734 228.513 73.7008 231.769 80.1989C235.111 86.8431 237.507 93.806 238.905 100.938C242.042 118.042 237.921 135.462 233.083 152.263Z" fill="#6E71FF"/>
<path opacity="0.25" d="M233.086 152.307C225.412 178.906 213.91 207.288 189.269 223.88C186.362 225.838 183.29 227.611 180.08 229.186C166.732 235.717 151.272 238.463 135.932 239.509C106.004 241.574 74.7371 237.252 49.0966 224.148C46.2647 222.703 43.508 221.15 40.8265 219.489C25.9539 210.26 14.2881 197.762 7.0691 183.324C6.47263 174.378 9.79356 167.675 14.8636 159.712C25.4793 143.058 40.9233 127.759 62.0579 120.719C80.2344 114.663 101.393 115.034 117.587 105.737C132.321 97.2856 140.962 81.8493 157.228 75.8344C169.642 71.2441 183.868 73.1504 197.192 75.1462L231.772 80.2939C235.113 86.9347 237.508 93.8941 238.906 101.023C242.041 118.104 237.922 135.515 233.086 152.307Z" fill="#6E71FF"/>
<path d="M102.185 115.187C102.185 115.187 99.1696 124.667 98.3778 138.85C96.7254 168.372 96.6497 215.582 97.0008 221.276C97.5447 229.71 97.5448 234.357 97.5448 234.357L108.698 233.545L118.778 148.62L131.859 233.214L142.744 232.946C142.744 232.946 141.925 141.542 141.112 137.466C140.3 133.39 139.481 113.527 139.481 113.527L102.185 115.187Z" fill="#6E71FF"/>
<path d="M102.185 115.187C102.185 115.187 99.1696 124.667 98.3778 138.85C96.7254 168.372 96.6497 215.582 97.0008 221.276C97.5447 229.71 97.5448 234.357 97.5448 234.357L108.698 233.545L118.778 148.62L131.859 233.214L142.744 232.946C142.744 232.946 141.925 141.542 141.112 137.466C140.3 133.39 139.481 113.527 139.481 113.527L102.185 115.187Z" fill="url(#paint0_linear)"/>
<path d="M121.45 151.477H115.322V238.226H121.45V151.477Z" fill="#6E71FF"/>
<path d="M121.45 151.477H115.322V238.226H121.45V151.477Z" fill="url(#paint1_linear)"/>
<path d="M111.522 46.9778C111.886 47.8015 112.436 48.5304 113.127 49.1081C113.818 49.6859 114.633 50.0971 115.508 50.3101C117.27 50.7219 119.111 50.6409 120.83 50.076C121.502 49.9195 122.127 49.6057 122.654 49.1603C123.227 48.5389 123.59 47.7541 123.694 46.9158C124.03 45.1348 123.868 43.2957 123.226 41.6007C119.926 42.1075 116.577 42.223 113.25 41.9449C112.54 41.9107 111.852 41.6924 111.253 41.3115C110.62 42.5439 110.991 45.6972 111.522 46.9778Z" fill="url(#paint2_linear)"/>
<path d="M107.446 22.6256C107.446 22.6256 106.358 40.5745 113.973 42.2062C121.588 43.8379 124.941 39.6726 125.677 35.3213C126.414 30.9701 126.827 19.8717 126.827 19.8717C126.827 19.8717 109.078 12.4567 107.446 22.6256Z" fill="url(#paint3_linear)"/>
<path d="M125.967 26.1449L126.6 24.7679C126.646 24.6289 126.73 24.5051 126.841 24.4099C126.958 24.3273 127.103 24.3066 127.22 24.2378C127.598 24.0037 127.488 23.446 127.495 23.0054C127.495 22.0966 128.183 21.2566 128.018 20.3616C128.004 20.2095 127.947 20.0644 127.855 19.9427C127.762 19.821 127.638 19.7277 127.495 19.6731C127.233 19.6357 126.967 19.6944 126.745 19.8384C125.698 20.3547 124.81 20.8573 125.423 22.0415C126.05 23.3124 126.241 24.7545 125.967 26.1449Z" fill="#6E71FF"/>
<path d="M125.967 26.1449L126.6 24.7679C126.646 24.6289 126.73 24.5051 126.841 24.4099C126.958 24.3273 127.103 24.3066 127.22 24.2378C127.598 24.0037 127.488 23.446 127.495 23.0054C127.495 22.0966 128.183 21.2566 128.018 20.3616C128.004 20.2095 127.947 20.0644 127.855 19.9427C127.762 19.821 127.638 19.7277 127.495 19.6731C127.233 19.6357 126.967 19.6944 126.745 19.8384C125.698 20.3547 124.81 20.8573 125.423 22.0415C126.05 23.3124 126.241 24.7545 125.967 26.1449Z" fill="url(#paint4_linear)" fill-opacity="0.9"/>
<path d="M106.346 24.0028C106.58 24.2782 106.862 24.5054 107.069 24.7946C107.909 25.965 107.296 27.6931 107.998 28.9255C108.241 27.932 108.389 26.9176 108.439 25.8961C108.508 24.6569 108.439 23.3281 109.128 22.2816C109.334 22.0381 109.476 21.747 109.541 21.4347C109.53 21.2432 109.479 21.0561 109.39 20.8862C109.301 20.7163 109.176 20.5676 109.024 20.4502C108.274 19.7273 106.69 19.0732 106.071 20.2505C105.757 20.8379 105.616 21.5023 105.665 22.1666C105.713 22.8308 105.95 23.4676 106.346 24.0028Z" fill="#6E71FF"/>
<path d="M106.346 24.0028C106.58 24.2782 106.862 24.5054 107.069 24.7946C107.909 25.965 107.296 27.6931 107.998 28.9255C108.241 27.932 108.389 26.9176 108.439 25.8961C108.508 24.6569 108.439 23.3281 109.128 22.2816C109.334 22.0381 109.476 21.747 109.541 21.4347C109.53 21.2432 109.479 21.0561 109.39 20.8862C109.301 20.7163 109.176 20.5676 109.024 20.4502C108.274 19.7273 106.69 19.0732 106.071 20.2505C105.757 20.8379 105.616 21.5023 105.665 22.1666C105.713 22.8308 105.95 23.4676 106.346 24.0028Z" fill="url(#paint5_linear)" fill-opacity="0.9"/>
<path d="M127.888 16.7119H106.469V19.7068H127.888V16.7119Z" fill="#6E71FF"/>
<path d="M106.469 19.707C107.895 21.2568 109.668 22.4471 111.642 23.1806C113.617 23.9141 115.737 24.17 117.829 23.9275C125.168 23.177 127.895 19.707 127.895 19.707H106.469Z" fill="#6E71FF"/>
<path d="M106.469 19.707C107.895 21.2568 109.668 22.4471 111.642 23.1806C113.617 23.9141 115.737 24.17 117.829 23.9275C125.168 23.177 127.895 19.707 127.895 19.707H106.469Z" fill="url(#paint6_linear)"/>
<path d="M106.468 16.7185C106.468 16.7185 103.639 15.9887 104.272 13.6341C104.906 11.2795 112.066 6.65281 116.603 6.37742C121.14 6.10202 129.932 11.4585 130.111 13.8131C130.29 16.1677 127.894 16.7185 127.894 16.7185H106.468Z" fill="#6E71FF"/>
<path d="M106.468 16.7185C106.468 16.7185 103.639 15.9887 104.272 13.6341C104.906 11.2795 112.066 6.65281 116.603 6.37742C121.14 6.10202 129.932 11.4585 130.111 13.8131C130.29 16.1677 127.894 16.7185 127.894 16.7185H106.468Z" fill="url(#paint7_linear)"/>
<path d="M127.888 16.7119H106.469V19.7068H127.888V16.7119Z" fill="url(#paint8_linear)"/>
<path d="M105.361 24.0031C105.11 24.1488 104.905 24.361 104.767 24.6162C104.63 24.8714 104.566 25.1596 104.583 25.4489C104.583 26.6882 105.271 27.8036 105.588 29.0084C105.632 29.4346 105.825 29.8317 106.132 30.1306C106.378 30.2658 106.657 30.3279 106.937 30.3097C107.073 30.3577 107.219 30.3669 107.36 30.3362C107.5 30.3054 107.629 30.236 107.732 30.1358C107.836 30.0355 107.909 29.9084 107.943 29.7688C107.978 29.6292 107.973 29.4826 107.929 29.3458C107.867 28.1616 108.053 26.5918 107.66 25.4765C107.378 24.6365 106.297 23.5831 105.361 24.0031Z" fill="url(#paint9_linear)"/>
<path d="M128.466 24.0031C128.716 24.1488 128.922 24.361 129.059 24.6162C129.196 24.8714 129.26 25.1596 129.244 25.4489C129.244 26.6882 128.555 27.8036 128.239 29.0084C128.197 29.4354 128.004 29.8335 127.695 30.1306C127.449 30.2658 127.169 30.3279 126.889 30.3097C126.754 30.3577 126.607 30.3669 126.467 30.3362C126.326 30.3054 126.197 30.236 126.094 30.1358C125.991 30.0355 125.918 29.9084 125.883 29.7688C125.848 29.6292 125.853 29.4826 125.898 29.3458C125.96 28.1616 125.774 26.5918 126.166 25.4765C126.448 24.6365 127.516 23.5831 128.466 24.0031Z" fill="url(#paint10_linear)"/>
<path d="M108.383 37.4359C108.451 38.1377 108.594 38.8302 108.81 39.5014C109.343 40.7114 110.113 41.8023 111.075 42.7098C111.675 43.4064 112.354 44.0303 113.099 44.5687C115.357 46.0627 118.428 45.8011 120.858 44.61C121.306 44.3994 121.73 44.1433 122.125 43.8458C123.02 43.0791 123.785 42.1723 124.39 41.1607C125.135 40.1871 125.691 39.0825 126.029 37.9041C126.178 36.8155 126.197 35.713 126.084 34.62C126.043 33.6011 126.084 32.5546 126.139 31.5563L126.463 24.9605C126.222 24.7884 125.946 25.1189 125.843 25.4012C124.987 27.7507 124.344 30.1724 123.922 32.6372C123.867 33.2773 123.684 33.9 123.385 34.4686C123.223 34.7431 122.977 34.9582 122.683 35.0822C122.389 35.2062 122.063 35.2324 121.753 35.1571C121.498 35.0424 121.265 34.8839 121.065 34.6889C120.021 33.8213 118.729 33.3078 117.375 33.2224C116.701 33.1866 116.028 33.2973 115.402 33.5469C114.775 33.7966 114.21 34.1791 113.746 34.6682C113.372 35.1926 112.948 35.6791 112.479 36.1209C112.24 36.3362 111.93 36.4554 111.608 36.4554C111.287 36.4554 110.977 36.3362 110.738 36.1209C110.621 35.958 110.532 35.7765 110.476 35.5839C109.602 33.009 108.879 30.4478 108.238 27.8109C107.613 29.003 107.409 30.3714 107.66 31.694C107.894 33.6011 108.135 35.5151 108.383 37.4359Z" fill="#6E71FF"/>
<path d="M108.383 37.4359C108.451 38.1377 108.594 38.8302 108.81 39.5014C109.343 40.7114 110.113 41.8023 111.075 42.7098C111.675 43.4064 112.354 44.0303 113.099 44.5687C115.357 46.0627 118.428 45.8011 120.858 44.61C121.306 44.3994 121.73 44.1433 122.125 43.8458C123.02 43.0791 123.785 42.1723 124.39 41.1607C125.135 40.1871 125.691 39.0825 126.029 37.9041C126.178 36.8155 126.197 35.713 126.084 34.62C126.043 33.6011 126.084 32.5546 126.139 31.5563L126.463 24.9605C126.222 24.7884 125.946 25.1189 125.843 25.4012C124.987 27.7507 124.344 30.1724 123.922 32.6372C123.867 33.2773 123.684 33.9 123.385 34.4686C123.223 34.7431 122.977 34.9582 122.683 35.0822C122.389 35.2062 122.063 35.2324 121.753 35.1571C121.498 35.0424 121.265 34.8839 121.065 34.6889C120.021 33.8213 118.729 33.3078 117.375 33.2224C116.701 33.1866 116.028 33.2973 115.402 33.5469C114.775 33.7966 114.21 34.1791 113.746 34.6682C113.372 35.1926 112.948 35.6791 112.479 36.1209C112.24 36.3362 111.93 36.4554 111.608 36.4554C111.287 36.4554 110.977 36.3362 110.738 36.1209C110.621 35.958 110.532 35.7765 110.476 35.5839C109.602 33.009 108.879 30.4478 108.238 27.8109C107.613 29.003 107.409 30.3714 107.66 31.694C107.894 33.6011 108.135 35.5151 108.383 37.4359Z" fill="url(#paint11_linear)" fill-opacity="0.9"/>
<path d="M118.882 37.8349C119.252 37.7971 119.624 37.8564 119.963 38.0071C120.173 38.1422 120.346 38.3276 120.466 38.5463C120.587 38.7651 120.65 39.0105 120.652 39.2601C120.644 39.8567 120.458 40.4373 120.118 40.9278C119.778 41.4184 119.3 41.7965 118.745 42.0141C117.605 42.4354 116.349 42.4108 115.227 41.9452C114.829 41.8197 114.468 41.6001 114.173 41.3049C113.934 41.0141 113.765 40.6727 113.677 40.3066C113.375 39.2463 113.161 38.1448 114.435 37.952C115.914 37.8274 117.399 37.7883 118.882 37.8349Z" fill="url(#paint12_linear)"/>
<path d="M108.928 46.1862C108.928 46.1862 108.749 43.8247 109.203 43.4323C109.657 43.0398 109.926 43.5218 111.468 44.3342C113.01 45.1466 117.272 48.052 120.721 45.422C124.171 42.792 124.852 42.8884 124.976 43.2464C125.1 43.6044 125.431 47.1501 125.431 47.1501C125.431 47.1501 140.846 50.7716 142.478 51.6804C144.109 52.5892 145.741 53.498 146.471 55.8526C147.201 58.2072 139.944 70.5449 140.274 76.342C140.605 82.1391 140.274 111.889 139.462 113.52C138.65 115.152 103.282 115.152 102.194 115.152C101.106 115.152 97.8429 75.4401 97.8429 75.4401C97.8429 75.4401 90.7653 61.5671 89.9528 59.3914C89.1404 57.2158 89.4916 55.2536 108.928 46.1862Z" fill="#6E71FF"/>
<path d="M108.928 46.1862C108.928 46.1862 108.749 43.8247 109.203 43.4323C109.657 43.0398 109.926 43.5218 111.468 44.3342C113.01 45.1466 117.272 48.052 120.721 45.422C124.171 42.792 124.852 42.8884 124.976 43.2464C125.1 43.6044 125.431 47.1501 125.431 47.1501C125.431 47.1501 140.846 50.7716 142.478 51.6804C144.109 52.5892 145.741 53.498 146.471 55.8526C147.201 58.2072 139.944 70.5449 140.274 76.342C140.605 82.1391 140.274 111.889 139.462 113.52C138.65 115.152 103.282 115.152 102.194 115.152C101.106 115.152 97.8429 75.4401 97.8429 75.4401C97.8429 75.4401 90.7653 61.5671 89.9528 59.3914C89.1404 57.2158 89.4916 55.2536 108.928 46.1862Z" fill="url(#paint13_linear)"/>
<path d="M157.032 117.92C156.524 116.572 155.942 115.253 155.29 113.968C150.571 104.669 142.56 97.459 132.818 93.7401C131.482 93.2296 130.119 92.7907 128.736 92.4251C119.469 89.9726 109.641 90.7851 100.903 94.7258C92.1653 98.6666 85.0505 105.495 80.7548 114.064C80.1046 115.346 79.5277 116.663 79.0267 118.009C75.7017 126.816 75.459 136.49 78.3382 145.452C78.7715 146.819 79.2795 148.162 79.8597 149.473C83.8237 158.485 90.8337 165.815 99.6607 170.176C100.944 170.813 102.261 171.381 103.606 171.877C112.91 175.316 123.134 175.328 132.446 171.911C133.792 171.422 135.109 170.859 136.391 170.224C145.353 165.821 152.449 158.365 156.406 149.198C156.967 147.884 157.458 146.542 157.879 145.177C160.648 136.256 160.35 126.665 157.032 117.934V117.92ZM151.049 146.926C149.111 151.44 146.267 155.508 142.693 158.879C139.119 162.249 134.891 164.85 130.271 166.52C122.357 169.398 113.682 169.398 105.768 166.52C104.421 166.03 103.106 165.457 101.829 164.806C94.4113 161.034 88.5215 154.818 85.1542 147.208C84.5717 145.896 84.0727 144.548 83.6602 143.174C81.3282 135.492 81.6385 127.25 84.5415 119.765C85.0569 118.417 85.6595 117.104 86.3453 115.834C89.4028 110.088 93.965 105.282 99.5437 101.93C105.122 98.5783 111.507 96.8063 118.016 96.8039C120.988 96.8078 123.949 97.1825 126.828 97.9192C128.217 98.2652 129.583 98.6975 130.918 99.2136C138.958 102.317 145.625 108.192 149.714 115.779C150.402 117.046 151.007 118.357 151.524 119.703C154.957 128.484 154.794 138.264 151.07 146.926H151.049Z" fill="#6E71FF"/>
<path d="M137.155 124.343C136.571 122.998 135.844 121.719 134.987 120.529C132.707 117.335 129.591 114.832 125.981 113.293C124.663 112.73 123.29 112.305 121.885 112.026C120.511 111.749 119.114 111.611 117.712 111.613C115.976 111.613 114.247 111.825 112.563 112.247C111.171 112.593 109.819 113.083 108.528 113.706C105.338 115.246 102.582 117.555 100.507 120.426C97.8979 124.032 96.491 128.368 96.4863 132.819C96.4856 134.387 96.6588 135.95 97.0027 137.48C97.3181 138.885 97.7796 140.253 98.3797 141.563C100.242 145.705 103.38 149.143 107.337 151.373C108.586 152.081 109.906 152.656 111.275 153.088C115.702 154.492 120.467 154.402 124.838 152.833C128.957 151.363 132.52 148.655 135.04 145.081C137.559 141.506 138.911 137.24 138.911 132.867C138.928 129.934 138.33 127.031 137.155 124.343ZM134.567 139.896C133.138 143.282 130.725 146.161 127.64 148.158C126.436 148.944 125.142 149.582 123.785 150.058C120.122 151.349 116.143 151.441 112.425 150.32C111.047 149.905 109.725 149.325 108.487 148.592C105.241 146.686 102.658 143.832 101.085 140.413C100.48 139.094 100.036 137.707 99.7635 136.282C99.5474 135.147 99.4368 133.995 99.4331 132.839C99.4308 130.178 100.011 127.548 101.134 125.135C101.765 123.794 102.553 122.532 103.481 121.376C105.124 119.338 107.183 117.674 109.519 116.495C110.802 115.85 112.156 115.36 113.554 115.035C114.909 114.721 116.294 114.562 117.685 114.56C118.751 114.561 119.815 114.653 120.866 114.835C123.566 115.31 126.125 116.387 128.353 117.986C130.58 119.585 132.419 121.665 133.732 124.072C135.046 126.478 135.801 129.15 135.94 131.889C136.08 134.627 135.601 137.362 134.539 139.89L134.567 139.896Z" fill="#6E71FF"/>
<path d="M113.527 115.042C112.129 115.367 110.775 115.857 109.493 116.502L108.501 113.707L103.585 99.8749L101.644 94.4014L96.1358 78.8416C96.0233 78.5724 95.9668 78.283 95.9698 77.9912C95.9728 77.6994 96.0353 77.4113 96.1533 77.1444C96.2714 76.8775 96.4425 76.6375 96.6564 76.439C96.8703 76.2404 97.1224 76.0876 97.3973 75.9897C97.6722 75.8918 97.9642 75.851 98.2554 75.8696C98.5466 75.8883 98.831 75.9662 99.0911 76.0984C99.3513 76.2306 99.5817 76.4145 99.7685 76.6387C99.9552 76.863 100.094 77.1229 100.177 77.4027L105.685 92.9074L107.627 98.3809L112.556 112.247L113.527 115.042Z" fill="#6E71FF"/>
<path d="M103.453 121.383C102.525 122.539 101.737 123.8 101.106 125.142L98.2897 124.226L84.5199 119.793L79.012 118.009L66.9291 114.099C66.4443 113.937 66.0331 113.608 65.769 113.171C65.505 112.733 65.4055 112.216 65.4884 111.712C65.5714 111.208 65.8312 110.75 66.2215 110.42C66.6117 110.09 67.1066 109.91 67.6175 109.913C67.8513 109.907 68.0843 109.942 68.306 110.016L80.8365 114.064L86.4339 115.861L100.562 120.426L103.453 121.383Z" fill="#6E71FF"/>
<path d="M101.057 140.433L98.3447 141.59L85.1601 147.201L79.8312 149.473L69.7449 153.762C69.2206 153.983 68.6303 153.987 68.1029 153.774C67.5754 153.562 67.1534 153.149 66.929 152.626C66.8193 152.359 66.7609 152.075 66.7568 151.786C66.7571 151.365 66.8812 150.953 67.1138 150.602C67.3464 150.25 67.6772 149.975 68.065 149.81L78.3097 145.452L83.6661 143.166L96.9746 137.507L99.7285 136.323C100.005 137.741 100.451 139.121 101.057 140.433Z" fill="#6E71FF"/>
<path d="M112.369 150.341L111.247 153.095L105.739 166.527L103.543 171.89L98.5996 183.967C98.3678 184.469 97.9511 184.863 97.4362 185.065C96.9213 185.268 96.348 185.264 95.8359 185.055C95.3237 184.845 94.9121 184.446 94.6869 183.941C94.4617 183.435 94.4403 182.863 94.6271 182.342L99.5979 170.19L101.801 164.813L107.309 151.38L108.431 148.626C109.67 149.355 110.992 149.93 112.369 150.341Z" fill="#6E71FF"/>
<path d="M137.939 79.1637L132.817 93.739L130.896 99.2469L125.952 113.326L124.975 116.122C123.652 115.543 122.266 115.125 120.844 114.876L121.835 112.06L126.827 97.9181L128.754 92.4102L133.911 77.7248C134.064 77.3159 134.337 76.9631 134.695 76.7134C135.053 76.4638 135.478 76.329 135.915 76.3271C136.149 76.3335 136.381 76.3753 136.603 76.4511C137.137 76.6374 137.577 77.0263 137.827 77.5338C138.077 78.0413 138.117 78.6268 137.939 79.1637Z" fill="#6E71FF"/>
<path d="M168.866 114.099L157.031 117.92L151.523 119.703L137.155 124.344L134.339 125.252C133.723 123.91 132.946 122.648 132.025 121.493L134.986 120.529L149.72 115.779L155.317 113.968L167.572 110.016C167.794 109.942 168.027 109.907 168.26 109.913C168.778 109.899 169.282 110.074 169.681 110.403C170.079 110.733 170.345 111.195 170.429 111.706C170.513 112.216 170.409 112.74 170.137 113.18C169.865 113.619 169.443 113.946 168.949 114.099H168.866Z" fill="#6E71FF"/>
<path d="M170.099 151.787C170.095 152.075 170.036 152.36 169.926 152.627C169.702 153.149 169.28 153.562 168.753 153.775C168.225 153.988 167.635 153.983 167.111 153.763L156.377 149.198L151.048 146.926L137.278 141.053L134.524 139.897C135.085 138.572 135.485 137.185 135.716 135.766L138.469 136.95L152.46 142.905L157.83 145.191L168.825 149.811C169.206 149.981 169.53 150.258 169.756 150.609C169.982 150.96 170.101 151.369 170.099 151.787Z" fill="#6E71FF"/>
<path d="M140.658 181.425C140.652 181.92 140.476 182.397 140.159 182.776C139.842 183.155 139.403 183.413 138.918 183.507C138.433 183.601 137.93 183.525 137.494 183.291C137.059 183.057 136.717 182.68 136.527 182.224L132.431 171.897L130.269 166.52L124.83 152.826L123.749 150.072C125.106 149.595 126.4 148.957 127.605 148.171L128.72 150.925L134.228 164.778L136.369 170.182L140.5 180.592C140.607 180.857 140.661 181.14 140.658 181.425Z" fill="#6E71FF"/>
<path d="M101.058 140.433L98.3454 141.59C100.221 145.728 103.372 149.156 107.337 151.373L108.459 148.62C105.213 146.712 102.63 143.855 101.058 140.433ZM134.539 139.896C133.111 143.282 130.698 146.161 127.613 148.158L128.728 150.912C132.529 148.592 135.512 145.143 137.259 141.046L134.539 139.896ZM137.155 124.343L134.34 125.252C135.841 128.53 136.334 132.179 135.758 135.738L138.512 136.922C138.772 135.579 138.903 134.214 138.904 132.846C138.921 129.921 138.325 127.025 137.155 124.343ZM117.713 111.613C115.976 111.613 114.247 111.825 112.563 112.247L113.554 115.042C114.909 114.728 116.294 114.568 117.685 114.567C118.751 114.568 119.815 114.66 120.866 114.842L121.857 112.026C120.484 111.749 119.086 111.611 117.685 111.613H117.713ZM100.5 120.426L103.475 121.383C105.118 119.345 107.176 117.681 109.513 116.502L108.521 113.706C105.324 115.243 102.56 117.553 100.48 120.426H100.5ZM125.974 113.293L124.997 116.088C127.746 117.286 130.158 119.142 132.019 121.493L134.98 120.529C132.695 117.332 129.571 114.828 125.954 113.293H125.974ZM123.778 150.079C120.115 151.37 116.137 151.461 112.418 150.341L111.296 153.095C115.723 154.499 120.488 154.409 124.859 152.84L123.778 150.079ZM101.127 125.142L98.3109 124.226C97.0959 126.937 96.4716 129.876 96.4796 132.846C96.4788 134.414 96.652 135.978 96.9959 137.507L99.7499 136.323C99.5337 135.188 99.4231 134.036 99.4194 132.881C99.4078 130.209 99.9836 127.567 101.106 125.142H101.127Z" fill="url(#paint14_linear)"/>
<path d="M168.824 149.81L157.877 145.177C160.646 136.256 160.348 126.665 157.03 117.933L168.866 114.112C169.36 113.959 169.782 113.633 170.054 113.193C170.326 112.753 170.429 112.229 170.345 111.719C170.262 111.209 169.996 110.746 169.597 110.416C169.199 110.087 168.694 109.913 168.177 109.926C167.943 109.92 167.71 109.955 167.489 110.029L155.233 113.981C150.514 104.683 142.503 97.4723 132.761 93.7534L137.884 79.1781C137.978 78.911 138.02 78.6277 138.005 78.3446C137.99 78.0615 137.92 77.7841 137.798 77.5283C137.675 77.2724 137.504 77.0432 137.293 76.8538C137.082 76.6643 136.836 76.5183 136.569 76.4242C136.347 76.3484 136.115 76.3066 135.88 76.3002C135.435 76.301 135.002 76.4398 134.639 76.6975C134.276 76.9553 134.003 77.3193 133.856 77.7392L128.699 92.4246C121.116 90.4186 113.121 90.5856 105.628 92.9066L100.12 77.4018C99.9081 76.8946 99.5097 76.488 99.007 76.2656C98.5043 76.0433 97.9354 76.0221 97.4176 76.2065C96.8997 76.3909 96.4722 76.7668 96.2232 77.2568C95.9741 77.7468 95.9224 78.3137 96.0786 78.8408L101.587 94.4006C92.5272 98.2935 85.1307 105.256 80.6978 114.064L68.1674 110.015C67.9456 109.941 67.7126 109.906 67.4789 109.912C66.968 109.91 66.473 110.09 66.0828 110.42C65.6926 110.749 65.4327 111.208 65.3498 111.712C65.2669 112.216 65.3663 112.733 65.6304 113.17C65.8944 113.608 66.3057 113.937 66.7904 114.098L78.9146 118.009C75.5897 126.816 75.347 136.489 78.2262 145.452L67.9815 149.81C67.5937 149.975 67.2629 150.25 67.0303 150.601C66.7977 150.953 66.6736 151.365 66.6733 151.786C66.6774 152.074 66.7358 152.359 66.8455 152.626C67.0699 153.149 67.4919 153.561 68.0194 153.774C68.5468 153.987 69.1371 153.983 69.6614 153.762L79.7477 149.473C83.7117 158.485 90.7217 165.814 99.5486 170.176L94.6604 182.355C94.5389 182.618 94.472 182.903 94.4637 183.193C94.4555 183.483 94.506 183.772 94.6123 184.042C94.7185 184.312 94.8784 184.557 95.0821 184.764C95.2858 184.97 95.5293 185.133 95.7977 185.243C96.0662 185.353 96.3541 185.407 96.6441 185.402C96.9341 185.398 97.2202 185.335 97.4851 185.217C97.75 185.099 97.9883 184.928 98.1856 184.716C98.3828 184.503 98.535 184.253 98.6329 183.98L103.576 171.904C112.88 175.343 123.105 175.355 132.417 171.938L136.514 182.265C136.704 182.722 137.045 183.098 137.481 183.332C137.916 183.566 138.419 183.642 138.904 183.549C139.39 183.455 139.828 183.196 140.145 182.817C140.462 182.438 140.638 181.961 140.644 181.467C140.642 181.195 140.588 180.927 140.486 180.675L136.355 170.265C145.316 165.861 152.413 158.406 156.369 149.239L167.103 153.803C167.627 154.024 168.218 154.028 168.745 153.815C169.273 153.603 169.694 153.19 169.919 152.667C170.029 152.401 170.087 152.116 170.091 151.827C170.102 151.404 169.988 150.986 169.763 150.627C169.537 150.268 169.211 149.984 168.824 149.81ZM152.507 142.877L138.531 136.915L135.777 135.73C135.546 137.15 135.146 138.537 134.586 139.861L137.34 141.018L151.109 146.891C147.762 154.639 141.809 160.971 134.283 164.792L128.775 150.939L127.66 148.185C126.455 148.971 125.161 149.609 123.804 150.085L124.885 152.839L130.269 166.52C122.355 169.398 113.68 169.398 105.766 166.52L111.274 153.087L112.396 150.333C111.018 149.918 109.696 149.338 108.458 148.605L107.335 151.359L101.828 164.792C94.4094 161.02 88.5196 154.804 85.1523 147.194L98.3369 141.583L101.05 140.426C100.444 139.107 100.001 137.72 99.7276 136.295L96.9737 137.479L83.6652 143.139C81.3332 135.457 81.6435 127.215 84.5465 119.73L98.3162 124.164L101.132 125.08C101.763 123.738 102.551 122.476 103.48 121.32L100.506 120.363L86.3778 115.799C90.1744 108.701 96.2321 103.075 103.59 99.8121L108.506 113.644L109.497 116.439C110.779 115.794 112.134 115.304 113.532 114.979L112.54 112.184L107.604 98.3594C113.844 96.4643 120.482 96.3049 126.806 97.8981L121.856 112.005L120.864 114.821C122.286 115.07 123.673 115.489 124.995 116.067L125.973 113.272L130.916 99.1925C138.956 102.296 145.623 108.171 149.712 115.757L134.978 120.508L132.018 121.472C132.938 122.626 133.715 123.889 134.331 125.231L137.147 124.322L151.502 119.702C154.39 127.104 154.743 135.253 152.507 142.877Z" fill="url(#paint15_linear)"/>
<path d="M90.2143 56.9058C90.2143 56.9058 76.6166 86.0839 77.9798 94.2287C79.343 102.374 89.3123 94.8621 90.7582 88.5142C92.204 82.1664 98.3797 72.3761 98.3797 72.3761L90.2143 56.9058Z" fill="#6E71FF"/>
<path d="M146.242 54.6211C146.242 54.6211 159.117 83.3586 157.76 91.5241C156.404 99.6895 146.421 92.1575 144.975 85.8096C143.529 79.4617 137.354 69.6714 137.354 69.6714L146.242 54.6211Z" fill="#6E71FF"/>
<path d="M90.2143 56.9058C90.2143 56.9058 76.6166 86.0839 77.9798 94.2287C79.343 102.374 89.3123 94.8621 90.7582 88.5142C92.204 82.1664 98.3797 72.3761 98.3797 72.3761L90.2143 56.9058Z" fill="url(#paint16_linear)"/>
<path d="M146.242 54.6211C146.242 54.6211 159.117 83.3586 157.76 91.5241C156.404 99.6895 146.421 92.1575 144.975 85.8096C143.529 79.4617 137.354 69.6714 137.354 69.6714L146.242 54.6211Z" fill="url(#paint17_linear)"/>
<path d="M79.225 93.9341C78.8043 94.7143 78.7007 95.6268 78.9359 96.4815C79.3077 97.4178 80.3129 97.9273 81.2699 98.2371C84.4644 99.2767 87.9 99.1184 91.2529 98.9256C92.7868 98.934 94.3104 98.6754 95.7556 98.1614C97.2228 97.4967 98.3939 96.3151 99.0453 94.842C99.6968 93.3689 99.783 91.7075 99.2876 90.1749C97.587 85.6515 93.0912 86.581 89.3389 86.8908C87.1793 87.0599 85.1037 87.8016 83.326 89.0396C81.5483 90.2776 80.1327 91.9671 79.225 93.9341Z" fill="#6E71FF"/>
<path d="M79.225 93.9341C78.8043 94.7143 78.7007 95.6268 78.9359 96.4815C79.3077 97.4178 80.3129 97.9273 81.2699 98.2371C84.4644 99.2767 87.9 99.1184 91.2529 98.9256C92.7868 98.934 94.3104 98.6754 95.7556 98.1614C97.2228 97.4967 98.3939 96.3151 99.0453 94.842C99.6968 93.3689 99.783 91.7075 99.2876 90.1749C97.587 85.6515 93.0912 86.581 89.3389 86.8908C87.1793 87.0599 85.1037 87.8016 83.326 89.0396C81.5483 90.2776 80.1327 91.9671 79.225 93.9341Z" fill="url(#paint18_linear)"/>
<path d="M96.4172 82.5255C96.066 83.2898 95.9903 84.1572 95.6805 84.9421C95.1297 86.3673 93.8491 87.4826 93.615 88.9904C93.5204 89.948 93.65 90.9145 93.9937 91.8132C94.3724 93.0387 94.9025 94.4019 96.0592 94.8977C96.6205 95.0914 97.2169 95.1618 97.8079 95.1042C98.8131 95.0629 99.8183 94.9459 100.823 94.8357C101.065 94.8255 101.3 94.7595 101.512 94.6429C101.766 94.43 101.953 94.1477 102.049 93.8305C102.347 93.044 102.854 92.3537 103.515 91.8339C104.177 91.4589 104.867 91.1388 105.581 90.8769C105.934 90.7357 106.245 90.5077 106.485 90.214C106.726 89.9203 106.889 89.5704 106.958 89.197C107.027 88.1367 105.918 87.3381 105.76 86.2847C105.698 85.906 105.76 85.5204 105.698 85.1487C105.498 84.1917 104.438 83.6202 104.163 82.6908C104.073 82.3878 104.073 82.0642 103.963 81.7751C103.672 81.2327 103.202 80.8072 102.634 80.5702L102.042 80.2397C100.879 79.5995 99.9353 79.3929 98.7993 80.1158C97.7934 80.6777 96.9674 81.5132 96.4172 82.5255Z" fill="url(#paint19_linear)"/>
<path d="M155.895 91.6686C156.313 92.4497 156.414 93.3621 156.177 94.216C155.812 95.1523 154.8 95.6549 153.843 95.9716C150.655 97.0112 147.213 96.8529 143.86 96.6601C142.327 96.6645 140.804 96.406 139.357 95.8959C137.887 95.2296 136.714 94.0441 136.063 92.5665C135.413 91.0889 135.331 89.4233 135.832 87.8888C137.54 83.3654 142.029 84.2949 145.781 84.6047C147.943 84.7757 150.02 85.5205 151.798 86.7623C153.576 88.004 154.99 89.6977 155.895 91.6686Z" fill="#6E71FF"/>
<path d="M155.895 91.6686C156.313 92.4497 156.414 93.3621 156.177 94.216C155.812 95.1523 154.8 95.6549 153.843 95.9716C150.655 97.0112 147.213 96.8529 143.86 96.6601C142.327 96.6645 140.804 96.406 139.357 95.8959C137.887 95.2296 136.714 94.0441 136.063 92.5665C135.413 91.0889 135.331 89.4233 135.832 87.8888C137.54 83.3654 142.029 84.2949 145.781 84.6047C147.943 84.7757 150.02 85.5205 151.798 86.7623C153.576 88.004 154.99 89.6977 155.895 91.6686Z" fill="url(#paint20_linear)"/>
<path d="M138.697 80.2457C139.055 81.0168 139.13 81.8774 139.433 82.6692C139.991 84.0943 141.271 85.2097 141.533 86.7175C141.63 87.6751 141.501 88.6421 141.154 89.5403C140.783 90.7658 140.246 92.1221 139.089 92.6178C138.53 92.8129 137.936 92.8857 137.347 92.8312C136.335 92.7899 135.33 92.6729 134.332 92.5558C134.091 92.5461 133.856 92.4826 133.643 92.3699C133.389 92.1586 133.204 91.8754 133.113 91.5575C132.814 90.7677 132.304 90.0749 131.64 89.554C130.977 89.1818 130.286 88.8618 129.574 88.597C129.221 88.4587 128.909 88.2324 128.668 87.9396C128.427 87.6467 128.265 87.2971 128.197 86.924C128.121 85.8569 129.23 85.0582 129.395 84.0117C129.45 83.633 129.395 83.2406 129.457 82.8688C129.65 81.9187 130.71 81.3473 130.985 80.4109C131.075 80.1149 131.082 79.7913 131.192 79.5021C131.479 78.955 131.95 78.5261 132.521 78.2904L133.113 77.9668C134.27 77.3265 135.178 77.12 136.349 77.8429C137.342 78.4071 138.155 79.2399 138.697 80.2457Z" fill="url(#paint21_linear)"/>
<path d="M123.385 136.075C123.385 136.123 121.643 140.736 117.802 141.239V128.157C118.862 127.897 119.789 127.255 120.405 126.353C121.022 125.452 121.284 124.355 121.141 123.272C120.998 122.189 120.461 121.198 119.632 120.486C118.804 119.775 117.742 119.395 116.65 119.418C115.558 119.442 114.514 119.867 113.716 120.613C112.919 121.359 112.425 122.373 112.328 123.461C112.232 124.549 112.541 125.634 113.195 126.508C113.849 127.382 114.803 127.984 115.874 128.199V141.466C112.397 141.115 110.118 136.302 110.097 136.254L109.223 136.66L108.342 137.066C108.466 137.335 111.33 143.414 116.253 143.414C116.48 143.414 116.707 143.414 116.941 143.38L117.795 143.277V143.215C122.958 142.746 125.1 137.018 125.196 136.757L123.385 136.075ZM114.235 123.834C114.234 123.338 114.38 122.853 114.654 122.44C114.929 122.027 115.32 121.704 115.778 121.514C116.235 121.323 116.739 121.272 117.226 121.368C117.713 121.464 118.16 121.702 118.511 122.052C118.862 122.403 119.101 122.849 119.199 123.335C119.296 123.822 119.247 124.326 119.057 124.784C118.868 125.243 118.547 125.634 118.134 125.91C117.722 126.186 117.237 126.333 116.741 126.333C116.078 126.333 115.441 126.07 114.972 125.601C114.502 125.133 114.237 124.497 114.235 123.834Z" fill="#6E71FF"/>
<path d="M188 224.064C185.138 225.999 182.114 227.752 178.953 229.309C165.812 235.766 150.592 238.481 135.49 239.515C106.025 241.556 75.2431 237.283 50 224.329L120.119 207L188 224.064Z" fill="#6E71FF"/>
<path d="M188 224.064C185.138 225.999 182.114 227.752 178.953 229.309C165.812 235.766 150.592 238.481 135.49 239.515C106.025 241.556 75.2431 237.283 50 224.329L120.119 207L188 224.064Z" fill="url(#paint22_linear)"/>
<defs>
<linearGradient id="paint0_linear" x1="93.9784" y1="106.587" x2="143.756" y2="243.273" gradientUnits="userSpaceOnUse">
<stop offset="0.01"/>
<stop offset="0.83" stop-opacity="0.07"/>
<stop offset="1" stop-opacity="0"/>
</linearGradient>
<linearGradient id="paint1_linear" x1="118.374" y1="47.9284" x2="-17.3027" y2="187.129" gradientUnits="userSpaceOnUse">
<stop stop-opacity="0"/>
<stop offset="0.932855" stop-opacity="0.75"/>
<stop offset="1"/>
</linearGradient>
<linearGradient id="paint2_linear" x1="110.92" y1="45.9408" x2="123.873" y2="45.9408" gradientUnits="userSpaceOnUse">
<stop stop-color="#E5C5D5"/>
<stop offset="0.42" stop-color="#EAD4D1"/>
<stop offset="1" stop-color="#F0E9CB"/>
</linearGradient>
<linearGradient id="paint3_linear" x1="107.393" y1="29.9169" x2="126.841" y2="29.9169" gradientUnits="userSpaceOnUse">
<stop stop-color="#E5C5D5"/>
<stop offset="0.42" stop-color="#EAD4D1"/>
<stop offset="1" stop-color="#F0E9CB"/>
</linearGradient>
<linearGradient id="paint4_linear" x1="126.633" y1="19.6621" x2="126.5" y2="37" gradientUnits="userSpaceOnUse">
<stop stop-color="#040404"/>
<stop offset="1" stop-opacity="0"/>
</linearGradient>
<linearGradient id="paint5_linear" x1="108" y1="15.5" x2="107" y2="41.5" gradientUnits="userSpaceOnUse">
<stop offset="0.208333" stop-color="#101010"/>
<stop offset="1" stop-opacity="0"/>
</linearGradient>
<linearGradient id="paint6_linear" x1="143.712" y1="25.2305" x2="143.166" y2="16.8084" gradientUnits="userSpaceOnUse">
<stop stop-opacity="0"/>
<stop offset="0.822126" stop-opacity="0.75"/>
<stop offset="1"/>
</linearGradient>
<linearGradient id="paint7_linear" x1="149.272" y1="19.6352" x2="146.697" y2="-0.349421" gradientUnits="userSpaceOnUse">
<stop stop-opacity="0"/>
<stop offset="0.822126" stop-opacity="0.75"/>
<stop offset="1"/>
</linearGradient>
<linearGradient id="paint8_linear" x1="143.7" y1="20.5507" x2="95" y2="14" gradientUnits="userSpaceOnUse">
<stop stop-opacity="0"/>
<stop offset="0.822126" stop-opacity="0.75"/>
<stop offset="1"/>
</linearGradient>
<linearGradient id="paint9_linear" x1="104.58" y1="27.1313" x2="107.968" y2="27.1313" gradientUnits="userSpaceOnUse">
<stop stop-color="#E5C5D5"/>
<stop offset="0.42" stop-color="#EAD4D1"/>
<stop offset="1" stop-color="#F0E9CB"/>
</linearGradient>
<linearGradient id="paint10_linear" x1="125.86" y1="27.1313" x2="129.249" y2="27.1313" gradientUnits="userSpaceOnUse">
<stop stop-color="#E5C5D5"/>
<stop offset="0.42" stop-color="#EAD4D1"/>
<stop offset="1" stop-color="#F0E9CB"/>
</linearGradient>
<linearGradient id="paint11_linear" x1="117" y1="18" x2="117" y2="75" gradientUnits="userSpaceOnUse">
<stop offset="0.166667" stop-color="#212121"/>
<stop offset="1" stop-opacity="0"/>
</linearGradient>
<linearGradient id="paint12_linear" x1="113.446" y1="40.0648" x2="120.657" y2="40.0648" gradientUnits="userSpaceOnUse">
<stop stop-color="#E5C5D5"/>
<stop offset="0.42" stop-color="#EAD4D1"/>
<stop offset="1" stop-color="#F0E9CB"/>
</linearGradient>
<linearGradient id="paint13_linear" x1="124.5" y1="123" x2="130.458" y2="-18.9773" gradientUnits="userSpaceOnUse">
<stop stop-opacity="0"/>
<stop offset="0.639117" stop-opacity="0.75"/>
<stop offset="1"/>
</linearGradient>
<linearGradient id="paint14_linear" x1="116.687" y1="58.6824" x2="118.862" y2="220.807" gradientUnits="userSpaceOnUse">
<stop offset="0.02" stop-color="white" stop-opacity="0"/>
<stop offset="0.39" stop-color="white" stop-opacity="0.39"/>
<stop offset="1" stop-color="white"/>
</linearGradient>
<linearGradient id="paint15_linear" x1="118" y1="-10.5" x2="102.296" y2="207.368" gradientUnits="userSpaceOnUse">
<stop offset="0.38383" stop-opacity="0.75"/>
<stop offset="0.908533" stop-opacity="0"/>
</linearGradient>
<linearGradient id="paint16_linear" x1="113.511" y1="109.311" x2="76.9837" y2="52.5899" gradientUnits="userSpaceOnUse">
<stop stop-opacity="0"/>
<stop offset="0.822126" stop-opacity="0.75"/>
<stop offset="1"/>
</linearGradient>
<linearGradient id="paint17_linear" x1="173" y1="106.5" x2="137" y2="50" gradientUnits="userSpaceOnUse">
<stop stop-opacity="0"/>
<stop offset="0.822126" stop-opacity="0.75"/>
<stop offset="1"/>
</linearGradient>
<linearGradient id="paint18_linear" x1="89.1694" y1="71.7152" x2="87.5615" y2="110.663" gradientUnits="userSpaceOnUse">
<stop stop-opacity="0"/>
<stop offset="0.932855" stop-opacity="0.75"/>
<stop offset="1"/>
</linearGradient>
<linearGradient id="paint19_linear" x1="93.5853" y1="87.3925" x2="106.97" y2="87.3925" gradientUnits="userSpaceOnUse">
<stop stop-color="#E5C5D5"/>
<stop offset="0.42" stop-color="#EAD4D1"/>
<stop offset="1" stop-color="#F0E9CB"/>
</linearGradient>
<linearGradient id="paint20_linear" x1="145.866" y1="69.4045" x2="144.253" y2="108.417" gradientUnits="userSpaceOnUse">
<stop stop-opacity="0"/>
<stop offset="0.932855" stop-opacity="0.75"/>
<stop offset="1"/>
</linearGradient>
<linearGradient id="paint21_linear" x1="128.194" y1="85.1185" x2="141.574" y2="85.1185" gradientUnits="userSpaceOnUse">
<stop stop-color="#E5C5D5"/>
<stop offset="0.42" stop-color="#EAD4D1"/>
<stop offset="1" stop-color="#F0E9CB"/>
</linearGradient>
<linearGradient id="paint22_linear" x1="118.738" y1="167.61" x2="117.038" y2="270.84" gradientUnits="userSpaceOnUse">
<stop stop-opacity="0"/>
<stop offset="0.932855" stop-opacity="0.75"/>
<stop offset="1"/>
</linearGradient>
</defs>
</svg>
