<svg width="240" height="240" viewBox="0 0 240 240" fill="none" xmlns="http://www.w3.org/2000/svg">
<g clip-path="url(#clip0)">
<path opacity="0.18" d="M18.4423 204.667C21.2456 206.898 24.3068 208.721 27.5473 210.088C33.1566 212.448 39.1316 213.504 44.8881 215.323C47.4434 216.122 49.9512 217.09 52.4115 218.147C67.311 224.51 80.9851 234.604 96.6588 238.288C125.703 245.167 153.773 229.529 181.534 222.897C205.32 217.229 224.651 230.781 234.255 189.776C238.268 172.705 243.236 154.63 237.162 138.249C231.087 121.869 222.533 106.741 216.738 90.2777C208.465 66.7661 205.401 39.6785 189.119 21.7368C177.844 9.31374 161.728 3.31602 145.765 1.18797C129.802 -0.94009 113.639 0.42537 97.566 0.497507C78.2066 0.564492 57.5838 -0.909174 40.8414 9.66412C34.9367 13.4515 29.8473 18.5657 25.9151 24.6633C21.9829 30.7609 19.2989 37.7007 18.0433 45.0166C14.7186 65.21 22.6124 86.1453 19.0645 106.303C15.773 125.069 2.91585 140.774 0.403305 159.695C-1.87651 176.729 5.69432 194.599 18.4423 204.667Z" fill="#6E71FF"/>
<path d="M121.034 60H121.014C105.976 60 93.7412 72.2352 93.7412 87.2733V118.904H148.288V87.2733C148.288 72.239 136.064 60.0114 121.034 60ZM133.648 104.265H108.381V87.2733C108.381 80.3049 114.052 74.6399 121.014 74.6399H121.034C127.989 74.6494 133.648 80.3106 133.648 87.2733V104.265Z" fill="#6E71FF"/>
<path d="M121.034 60H121.014C105.976 60 93.7412 72.2352 93.7412 87.2733V118.904H148.288V87.2733C148.288 72.239 136.064 60.0114 121.034 60ZM133.648 104.265H108.381V87.2733C108.381 80.3049 114.052 74.6399 121.014 74.6399H121.034C127.989 74.6494 133.648 80.3106 133.648 87.2733V104.265Z" fill="url(#paint0_linear)"/>
<path d="M148.285 87.2733V118.904H121.03V104.265H133.645V87.2733C133.645 80.3106 127.985 74.6494 121.03 74.6399V60C136.061 60.0114 148.285 72.239 148.285 87.2733Z" fill="url(#paint1_linear)"/>
<path d="M159.897 113.429V153.258C159.897 167.648 148.19 179.361 133.8 179.361H106.103C91.7073 179.361 80 167.648 80 153.258V113.429C80 108.418 84.0758 104.338 89.0873 104.338H150.812C155.823 104.338 159.897 108.418 159.897 113.429Z" fill="url(#paint2_linear)"/>
<mask id="mask0" mask-type="alpha" maskUnits="userSpaceOnUse" x="80" y="103" width="80" height="77">
<path d="M159.897 112.55V152.91C159.897 167.492 148.19 179.361 133.8 179.361H106.103C91.7073 179.361 80 167.492 80 152.91V112.55C80 107.472 84.0758 103.338 89.0873 103.338H150.812C155.823 103.338 159.897 107.472 159.897 112.55Z" fill="url(#paint3_linear)"/>
</mask>
<g mask="url(#mask0)">
<path d="M159.896 153.259C159.896 167.649 148.19 179.362 133.8 179.362H106.103C91.7074 179.362 80.0001 167.649 80.0001 153.259C80.0001 148.247 80 149.087 80 144.168H159.896C160.13 147.005 159.896 148.248 159.896 153.259Z" fill="#6E71FF"/>
<path d="M159.896 153.259C159.896 167.649 148.19 179.362 133.8 179.362H106.103C91.7074 179.362 80.0001 167.649 80.0001 153.259C80.0001 148.247 80 149.087 80 144.168H159.896C160.13 147.005 159.896 148.248 159.896 153.259Z" fill="url(#paint4_linear)"/>
<rect x="80" y="144" width="80" height="18.5" fill="url(#paint5_linear)"/>
</g>
</g>
<defs>
<linearGradient id="paint0_linear" x1="121.014" y1="60" x2="121.014" y2="118.904" gradientUnits="userSpaceOnUse">
<stop/>
<stop offset="1" stop-opacity="0"/>
</linearGradient>
<linearGradient id="paint1_linear" x1="152.335" y1="22.8043" x2="116.371" y2="20.705" gradientUnits="userSpaceOnUse">
<stop offset="0.079127"/>
<stop offset="0.83" stop-opacity="0.07"/>
<stop offset="1" stop-opacity="0"/>
</linearGradient>
<linearGradient id="paint2_linear" x1="119.949" y1="104.338" x2="119.949" y2="179.361" gradientUnits="userSpaceOnUse">
<stop offset="0.9999" stop-color="white"/>
<stop offset="1" stop-color="white" stop-opacity="0"/>
</linearGradient>
<linearGradient id="paint3_linear" x1="119.949" y1="103.338" x2="119.949" y2="179.361" gradientUnits="userSpaceOnUse">
<stop offset="0.9999" stop-color="white"/>
<stop offset="1" stop-color="white" stop-opacity="0"/>
</linearGradient>
<linearGradient id="paint4_linear" x1="92.6493" y1="122.177" x2="203.68" y2="133.833" gradientUnits="userSpaceOnUse">
<stop stop-opacity="0"/>
<stop offset="0.87783" stop-opacity="0.75"/>
<stop offset="1"/>
</linearGradient>
<linearGradient id="paint5_linear" x1="120" y1="144" x2="120" y2="162.5" gradientUnits="userSpaceOnUse">
<stop offset="0.9999" stop-color="white"/>
<stop offset="1" stop-color="white" stop-opacity="0"/>
</linearGradient>
<clipPath id="clip0">
<rect width="240" height="240" fill="white"/>
</clipPath>
</defs>
</svg>
