<svg width="240" height="240" viewBox="0 0 240 240" fill="none" xmlns="http://www.w3.org/2000/svg">
<g clip-path="url(#clip0)">
<path opacity="0.18" d="M224.613 146.998C225.99 128.543 232.98 109.02 225.834 92.3343C223.958 87.9766 221.269 84.242 218.261 80.7689C214.286 76.1889 209.758 72.0534 205.8 67.4385C198.797 59.2634 194.792 49.489 189.396 40.5251C187.16 36.7412 184.617 33.2746 181.809 30.1842C180.692 28.9728 179.561 27.7802 178.417 26.6065C169.037 17.0587 158.479 8.86181 146.473 4.10316C129.448 -2.61647 109.207 -1.54011 94.8306 10.7487C89.6552 15.1718 85.4633 20.7715 81.4206 26.6109C78.158 31.3042 75.0073 36.1238 71.5208 40.5251C68.4041 44.482 65.0261 48.1076 61.0818 51.0142C55.4655 55.1584 49.0013 57.5944 43.0425 61.0762C39.2198 63.309 35.5835 66.0349 32.1897 69.2121C27.6344 73.4617 23.5607 78.5039 20.0854 84.1941C12.5495 96.5352 8.2864 111.417 8.57468 126.399C8.61877 128.743 8.76799 131.101 8.82565 133.454C8.93848 136.041 8.82242 138.636 8.47972 141.189C7.8489 145.372 6.29899 149.303 4.6982 153.199C2.51747 158.502 0.234991 163.749 0.017935 169.514C-0.361913 179.424 5.34937 187.913 11.6847 195.168C12.7428 196.38 13.8213 197.561 14.8863 198.707C16.582 200.537 18.3286 202.367 20.0888 204.176L20.428 204.524C21.3708 205.487 22.317 206.446 23.2768 207.396C25.6848 209.78 28.1504 212.102 30.6771 214.316C31.8076 215.301 32.9381 216.258 34.0686 217.188C36.7013 219.359 39.418 221.357 42.2081 223.175C49.0963 227.673 56.4524 230.958 64.3682 232.266C86.05 235.752 107.617 223.363 129.485 225.001C143.834 226.073 157.217 233.107 171.122 237.203C185.027 241.299 201.174 241.953 212.387 231.83C222.721 222.517 226.109 206.429 226.136 191.551C226.163 176.674 223.501 161.827 224.613 146.998Z" fill="#6E71FF"/>
<path d="M209.333 29H29.7424C28.5115 28.9982 27.2923 29.2389 26.1543 29.7083C25.0164 30.1777 23.9821 30.8667 23.1105 31.7358C22.2388 32.6049 21.5469 33.6372 21.0742 34.7738C20.6015 35.9103 20.3573 37.1289 20.3555 38.3598V167.601H218.71V38.3734C218.71 35.8874 217.723 33.5032 215.965 31.7454C214.207 29.9876 211.823 29 209.337 29H209.333Z" fill="#6E71FF"/>
<path opacity="0.47" d="M56.2974 146.722C55.9579 150.263 52.7803 152.863 49.5076 153.977C47.8101 154.554 46.0074 154.876 44.551 155.929C43.0946 156.981 42.1406 159.11 43.0572 160.682C44.1716 160.677 45.2618 161.007 46.1858 161.63C47.1098 162.253 47.8248 163.14 48.2379 164.175C46.1432 167.363 42.4326 169.105 38.7321 169.607C35.0316 170.109 31.2633 169.519 27.5968 168.908C26.3101 168.697 24.9386 168.439 24.0117 167.495C23.0849 166.552 22.8303 165.18 22.5995 163.88C22.5689 163.696 22.535 163.513 22.501 163.326H20.2773V39.8398H32.4311V98.5718C32.4311 103.362 32.2139 108.193 32.2885 112.966C32.3632 117.509 35.3847 119.81 38.2636 123.114C39.1497 124.132 40.0697 125.212 40.3311 126.553C40.6129 127.975 40.1036 129.483 40.4805 130.878C41.1323 133.302 44.1843 134.218 46.5268 133.533C48.8693 132.847 50.7467 131.082 52.7667 129.676C56.2575 127.255 60.3552 125.857 64.5979 125.639C63.1755 131.672 56.1786 135.485 56.0156 141.701C55.9647 143.385 56.4603 145.041 56.2974 146.722Z" fill="url(#paint0_linear)"/>
<path d="M11.7155 152.045C8.66006 147.105 6.52126 141.555 5.91357 135.78C5.54013 132.26 5.69969 128.546 4.11087 125.381C3.16709 123.501 1.62919 121.885 1.1539 119.831C0.271226 115.995 3.35041 112.488 6.17837 109.748C6.34803 109.545 6.57532 109.398 6.8302 109.327C7.27154 109.245 7.66874 109.612 7.93694 109.975C9.55631 112.158 9.68532 115.068 10.0995 117.739C10.5442 120.642 11.4948 123.643 13.7049 125.582C15.915 127.52 19.3201 128.372 20.4099 131.109C21.3774 133.546 19.9889 136.422 20.8614 138.897C21.7339 141.371 24.718 142.855 25.1661 145.462C25.4649 147.194 24.5347 148.912 24.5618 150.667C24.5822 152.004 25.1559 153.264 25.4818 154.564C26.1812 157.355 25.4819 165.526 21.2416 163.136C17.402 160.98 13.9697 155.688 11.7155 152.045Z" fill="#6E71FF"/>
<path d="M11.7155 152.045C8.66006 147.105 6.52126 141.555 5.91357 135.78C5.54013 132.26 5.69969 128.546 4.11087 125.381C3.16709 123.501 1.62919 121.885 1.1539 119.831C0.271226 115.995 3.35041 112.488 6.17837 109.748C6.34803 109.545 6.57532 109.398 6.8302 109.327C7.27154 109.245 7.66874 109.612 7.93694 109.975C9.55631 112.158 9.68532 115.068 10.0995 117.739C10.5442 120.642 11.4948 123.643 13.7049 125.582C15.915 127.52 19.3201 128.372 20.4099 131.109C21.3774 133.546 19.9889 136.422 20.8614 138.897C21.7339 141.371 24.718 142.855 25.1661 145.462C25.4649 147.194 24.5347 148.912 24.5618 150.667C24.5822 152.004 25.1559 153.264 25.4818 154.564C26.1812 157.355 25.4819 165.526 21.2416 163.136C17.402 160.98 13.9697 155.688 11.7155 152.045Z" fill="url(#paint1_linear)"/>
<path d="M19.4227 146.44C18.3126 140.743 18.2752 134.789 19.7622 129.173C20.6619 125.748 22.1386 122.333 21.755 118.812C21.5377 116.717 20.6686 114.66 20.9538 112.576C21.4868 108.675 25.6048 106.465 29.217 104.917C29.4492 104.789 29.7135 104.733 29.9775 104.754C30.4222 104.835 30.6565 105.317 30.7821 105.752C31.5256 108.366 30.6225 111.123 30.059 113.781C29.4513 116.653 29.2781 119.797 30.6565 122.39C32.0348 124.984 34.9239 126.987 34.9748 129.93C35.0189 132.555 32.7036 134.755 32.6459 137.376C32.5882 139.996 34.8526 142.441 34.3434 145.041C34.0039 146.766 32.5305 148.042 31.9364 149.692C31.4814 150.952 31.5731 152.333 31.4203 153.664C31.0808 156.523 27.5569 163.927 24.42 160.183C21.5955 156.794 20.2375 150.633 19.4227 146.44Z" fill="#6E71FF"/>
<path d="M19.4227 146.44C18.3126 140.743 18.2752 134.789 19.7622 129.173C20.6619 125.748 22.1386 122.333 21.755 118.812C21.5377 116.717 20.6686 114.66 20.9538 112.576C21.4868 108.675 25.6048 106.465 29.217 104.917C29.4492 104.789 29.7135 104.733 29.9775 104.754C30.4222 104.835 30.6565 105.317 30.7821 105.752C31.5256 108.366 30.6225 111.123 30.059 113.781C29.4513 116.653 29.2781 119.797 30.6565 122.39C32.0348 124.984 34.9239 126.987 34.9748 129.93C35.0189 132.555 32.7036 134.755 32.6459 137.376C32.5882 139.996 34.8526 142.441 34.3434 145.041C34.0039 146.766 32.5305 148.042 31.9364 149.692C31.4814 150.952 31.5731 152.333 31.4203 153.664C31.0808 156.523 27.5569 163.927 24.42 160.183C21.5955 156.794 20.2375 150.633 19.4227 146.44Z" fill="url(#paint2_linear)"/>
<path d="M27.2508 147.381C30.1704 142.363 34.0644 137.875 38.8716 134.609C41.8048 132.623 45.1556 131.017 47.1993 128.125C48.4147 126.407 49.1209 124.288 50.7063 122.907C53.6768 120.323 58.2226 121.386 61.9706 122.594C62.2294 122.649 62.4659 122.781 62.6496 122.971C62.9314 123.311 62.7922 123.844 62.5987 124.254C61.4376 126.709 58.9389 128.186 56.7662 129.815C54.4135 131.574 52.2136 133.825 51.5414 136.683C50.8692 139.542 51.7214 142.954 49.8168 145.201C48.1194 147.204 44.9315 147.33 43.1594 149.275C41.3872 151.22 41.4823 154.541 39.391 156.163C38.0025 157.239 36.0504 157.229 34.5159 158.078C33.3447 158.726 32.5028 159.823 31.508 160.723C29.376 162.654 21.8427 165.896 21.9514 161.015C22.043 156.625 25.095 151.081 27.2508 147.381Z" fill="#6E71FF"/>
<path d="M27.2508 147.381C30.1704 142.363 34.0644 137.875 38.8716 134.609C41.8048 132.623 45.1556 131.017 47.1993 128.125C48.4147 126.407 49.1209 124.288 50.7063 122.907C53.6768 120.323 58.2226 121.386 61.9706 122.594C62.2294 122.649 62.4659 122.781 62.6496 122.971C62.9314 123.311 62.7922 123.844 62.5987 124.254C61.4376 126.709 58.9389 128.186 56.7662 129.815C54.4135 131.574 52.2136 133.825 51.5414 136.683C50.8692 139.542 51.7214 142.954 49.8168 145.201C48.1194 147.204 44.9315 147.33 43.1594 149.275C41.3872 151.22 41.4823 154.541 39.391 156.163C38.0025 157.239 36.0504 157.229 34.5159 158.078C33.3447 158.726 32.5028 159.823 31.508 160.723C29.376 162.654 21.8427 165.896 21.9514 161.015C22.043 156.625 25.095 151.081 27.2508 147.381Z" fill="url(#paint3_linear)"/>
<path d="M45.4745 165.031L45.0195 167.6L44.6291 169.838L43.7023 175.229L43.3323 177.466L42.3953 182.861L42.0049 185.094L39.6759 198.498H15.4566L13.1074 185.094L12.7169 182.861L11.7901 177.466L11.3963 175.229L10.4322 169.838L10.0485 167.6L9.60041 165.034C9.39619 163.872 9.66165 162.677 10.3384 161.712C11.0152 160.746 12.0478 160.088 13.2092 159.884C13.4637 159.839 13.7215 159.816 13.9799 159.816H41.0882C41.6714 159.815 42.249 159.929 42.7881 160.151C43.3272 160.374 43.8172 160.7 44.2302 161.112C44.6431 161.523 44.971 162.012 45.195 162.551C45.4189 163.089 45.5347 163.667 45.5356 164.25C45.535 164.511 45.5123 164.773 45.4677 165.031H45.4745Z" fill="#6E71FF"/>
<path d="M45.4745 165.031L45.0195 167.6L44.6291 169.838L43.7023 175.229L43.3323 177.466L42.3953 182.861L42.0049 185.094L39.6759 198.498H15.4566L13.1074 185.094L12.7169 182.861L11.7901 177.466L11.3963 175.229L10.4322 169.838L10.0485 167.6L9.60041 165.034C9.39619 163.872 9.66165 162.677 10.3384 161.712C11.0152 160.746 12.0478 160.088 13.2092 159.884C13.4637 159.839 13.7215 159.816 13.9799 159.816H41.0882C41.6714 159.815 42.249 159.929 42.7881 160.151C43.3272 160.374 43.8172 160.7 44.2302 161.112C44.6431 161.523 44.971 162.012 45.195 162.551C45.4189 163.089 45.5347 163.667 45.5356 164.25C45.535 164.511 45.5123 164.773 45.4677 165.031H45.4745Z" fill="url(#paint4_linear)"/>
<path d="M218.71 38.3734V39.84H20.3555V38.3801C20.3546 37.1486 20.5964 35.929 21.067 34.791C21.5377 33.653 22.228 32.6189 23.0985 31.7478C23.9689 30.8767 25.0026 30.1856 26.1402 29.7142C27.2779 29.2427 28.4973 29 29.7288 29H209.32C210.551 28.9996 211.77 29.2416 212.907 29.7122C214.044 30.1828 215.078 30.8729 215.949 31.743C216.819 32.6131 217.51 33.6461 217.982 34.7832C218.453 35.9203 218.696 37.139 218.697 38.37L218.71 38.3734Z" fill="url(#paint5_linear)"/>
<path d="M30.3808 36.1088C31.5376 36.1088 32.4755 35.1709 32.4755 34.0141C32.4755 32.8572 31.5376 31.9194 30.3808 31.9194C29.2239 31.9194 28.2861 32.8572 28.2861 34.0141C28.2861 35.1709 29.2239 36.1088 30.3808 36.1088Z" fill="url(#paint6_linear)"/>
<path d="M37.4111 36.1088C38.5679 36.1088 39.5057 35.1709 39.5057 34.0141C39.5057 32.8572 38.5679 31.9194 37.4111 31.9194C36.2542 31.9194 35.3164 32.8572 35.3164 34.0141C35.3164 35.1709 36.2542 36.1088 37.4111 36.1088Z" fill="url(#paint7_linear)"/>
<path d="M44.4384 36.1088C45.5953 36.1088 46.5331 35.1709 46.5331 34.0141C46.5331 32.8572 45.5953 31.9194 44.4384 31.9194C43.2816 31.9194 42.3438 32.8572 42.3438 34.0141C42.3438 35.1709 43.2816 36.1088 44.4384 36.1088Z" fill="url(#paint8_linear)"/>
<path d="M141.881 85.3316V124.118C141.878 125.433 141.355 126.692 140.425 127.622C139.495 128.551 138.235 129.073 136.921 129.075H98.1475C96.8331 129.073 95.5731 128.551 94.6434 127.622C93.7137 126.692 93.1902 125.433 93.1875 124.118V85.3316C93.1875 84.6807 93.3157 84.0361 93.5648 83.4348C93.8139 82.8334 94.179 82.287 94.6392 81.8267C95.0995 81.3665 95.6459 81.0014 96.2473 80.7523C96.8486 80.5032 97.4932 80.375 98.1441 80.375H136.921C137.572 80.3746 138.217 80.5024 138.819 80.7513C139.42 81.0002 139.967 81.3652 140.428 81.8255C140.888 82.2859 141.254 82.8324 141.503 83.434C141.752 84.0356 141.881 84.6804 141.881 85.3316Z" fill="url(#paint9_linear)"/>
<path d="M121.497 100.106C121.518 100.823 121.345 101.533 120.995 102.159C120.646 102.786 120.133 103.306 119.511 103.664C119.354 103.755 119.224 103.886 119.134 104.044C119.044 104.203 118.999 104.382 119.002 104.564V113.051C119.002 113.206 118.971 113.36 118.912 113.503C118.853 113.646 118.766 113.777 118.656 113.886C118.546 113.996 118.416 114.083 118.273 114.142C118.129 114.202 117.976 114.232 117.821 114.232H117.243C117.088 114.232 116.935 114.202 116.791 114.142C116.648 114.083 116.518 113.996 116.408 113.886C116.298 113.777 116.211 113.646 116.152 113.503C116.093 113.36 116.062 113.206 116.062 113.051V104.564C116.064 104.382 116.017 104.202 115.928 104.044C115.839 103.886 115.709 103.753 115.553 103.661C114.954 103.315 114.456 102.819 114.108 102.222C113.759 101.625 113.574 100.947 113.568 100.255C113.563 99.5639 113.739 98.8832 114.078 98.2807C114.417 97.6782 114.908 97.1748 115.502 96.8205C116.095 96.4662 116.771 96.2733 117.462 96.2609C118.154 96.2485 118.836 96.417 119.442 96.7498C120.048 97.0825 120.557 97.568 120.917 98.1579C121.278 98.7479 121.478 99.4218 121.497 100.113V100.106Z" fill="#6E71FF"/>
<path d="M45.03 167.601L44.6396 169.838H10.4392L10.0488 167.601H45.03Z" fill="#6E71FF"/>
<path d="M43.699 175.229L43.312 177.466H11.7766L11.3828 175.229H43.699Z" fill="#6E71FF"/>
<path d="M42.3748 182.86L41.9844 185.094H13.1072L12.7168 182.86H42.3748Z" fill="#6E71FF"/>
<path opacity="0.18" d="M168.027 112.114C166.435 109.884 164.028 108.332 161.465 107.361C160.881 107.141 160.223 106.951 159.652 107.198C159.252 107.419 158.916 107.741 158.678 108.132C157.442 109.83 156.155 111.663 156.037 113.761C155.86 116.952 158.389 120.35 156.767 123.104C156.315 123.871 155.595 124.441 155.069 125.161C154.078 126.519 153.85 128.298 153.983 129.975C154.142 131.988 154.4 134.68 152.499 135.366C151.928 135.533 151.323 135.542 150.747 135.39C149.08 135.05 147.539 134.253 145.906 133.777C144.273 133.302 142.389 133.19 140.97 134.117C140.844 135.93 142.403 137.44 144.042 138.225C145.682 139.009 147.529 139.365 149.033 140.387C151.308 141.928 152.428 144.801 152.357 147.561C152.285 150.321 151.206 152.935 149.827 155.315C149.186 156.421 148.469 157.525 148.205 158.777C147.685 161.276 149.084 163.731 150.425 165.907C150.819 166.542 151.25 167.214 151.936 167.513C152.516 167.71 153.137 167.76 153.742 167.658L177.554 165.622C178.233 165.564 179.024 165.428 179.316 164.814C179.445 164.436 179.445 164.027 179.316 163.649C178.538 160.315 176.09 157.572 175.221 154.259C174.821 152.714 174.777 151.102 174.732 149.506C174.556 142.927 174.335 136.283 172.933 129.815C172.23 126.594 170.499 123.582 169.813 120.442C169.175 117.512 170.051 114.946 168.027 112.114Z" fill="url(#paint10_linear)"/>
<path d="M128.923 82.8553L125.324 80.6656L128.265 75.8307C128.871 74.8293 129.274 73.7185 129.45 72.5616C129.627 71.4047 129.574 70.2243 129.294 69.0879C129.014 67.9516 128.513 66.8814 127.82 65.9386C127.127 64.9957 126.255 64.1986 125.253 63.5929C123.231 62.3695 120.806 61.9995 118.511 62.5644C117.374 62.8441 116.304 63.3449 115.361 64.0382C114.418 64.7314 113.621 65.6036 113.016 66.605L110.097 71.4022L106.495 69.2107L109.495 64.2801C111.352 61.3957 114.264 59.3529 117.609 58.5889C120.953 57.8248 124.463 58.4002 127.389 60.1919C130.314 61.9835 132.422 64.8492 133.262 68.1755C134.101 71.5018 133.605 75.0244 131.88 77.9896L128.923 82.8553Z" fill="url(#paint11_linear)"/>
<path d="M218.68 193.629L222.234 197.024L217.118 202.117L210.691 202.67C210.502 202.126 210.517 201.532 210.733 200.998C210.949 200.464 211.352 200.027 211.866 199.767C213.048 199.129 214.334 198.708 215.665 198.525L215.526 195.897L218.68 193.629Z" fill="#6E71FF"/>
<path d="M218.68 193.629L222.234 197.024L217.118 202.117L210.691 202.67C210.502 202.126 210.517 201.532 210.733 200.998C210.949 200.464 211.352 200.027 211.866 199.767C213.048 199.129 214.334 198.708 215.665 198.525L215.526 195.897L218.68 193.629Z" fill="url(#paint12_linear)"/>
<path d="M179.159 193.361L179.682 197.646L167.644 203.037C167.644 203.037 166.14 200.711 167.681 198.691C169.222 196.671 173.473 195.252 173.473 195.252L174.223 193.388L179.159 193.361Z" fill="#6E71FF"/>
<path d="M179.159 193.361L179.682 197.646L167.644 203.037C167.644 203.037 166.14 200.711 167.681 198.691C169.222 196.671 173.473 195.252 173.473 195.252L174.223 193.388L179.159 193.361Z" fill="url(#paint13_linear)"/>
<path d="M182.239 127.279C182.239 127.279 177.88 130.501 177.421 135.502C176.963 140.502 176.742 142.258 176.742 142.258L169.104 141.64L169.002 145.863C169.002 145.863 179.136 149.567 180.691 148.935C182.246 148.304 184.191 145.517 184.191 145.517L182.239 127.279Z" fill="#6E71FF"/>
<path d="M182.239 127.279C182.239 127.279 177.88 130.501 177.421 135.502C176.963 140.502 176.742 142.258 176.742 142.258L169.104 141.64L169.002 145.863C169.002 145.863 179.136 149.567 180.691 148.935C182.246 148.304 184.191 145.517 184.191 145.517L182.239 127.279Z" fill="url(#paint14_linear)"/>
<path d="M185.172 153.933C185.172 153.933 169.216 167.098 169.087 171.586C168.958 176.074 173.008 193.629 173.008 193.629L179.194 193.595L179.374 175.147C179.374 175.147 192.424 170.591 193.843 167.838C195.262 165.085 198.27 151.648 185.172 153.933Z" fill="#6E71FF"/>
<path d="M185.172 153.933C185.172 153.933 169.216 167.098 169.087 171.586C168.958 176.074 173.008 193.629 173.008 193.629L179.194 193.595L179.374 175.147C179.374 175.147 192.424 170.591 193.843 167.838C195.262 165.085 198.27 151.648 185.172 153.933Z" fill="url(#paint15_linear)"/>
<path d="M185.172 153.933C185.172 153.933 186.146 174.01 192.423 180.501C198.701 186.992 214.765 196.732 214.765 196.732L219.325 193.904L203.902 177.806C203.902 177.806 206.132 159.735 203.494 156.567C200.856 153.4 185.172 153.933 185.172 153.933Z" fill="#6E71FF"/>
<path d="M185.172 153.933C185.172 153.933 186.146 174.01 192.423 180.501C198.701 186.992 214.765 196.732 214.765 196.732L219.325 193.904L203.902 177.806C203.902 177.806 206.132 159.735 203.494 156.567C200.856 153.4 185.172 153.933 185.172 153.933Z" fill="url(#paint16_linear)"/>
<path d="M185.171 153.933L179.719 130.864C179.719 130.864 182.774 122.068 194.884 124.899C206.993 127.731 203.483 156.567 203.483 156.567C203.483 156.567 189.89 161.076 185.171 153.933Z" fill="#6E71FF"/>
<path d="M185.171 153.933L179.719 130.864C179.719 130.864 182.774 122.068 194.884 124.899C206.993 127.731 203.483 156.567 203.483 156.567C203.483 156.567 189.89 161.076 185.171 153.933Z" fill="url(#paint17_linear)"/>
<path d="M194.473 128.447C194.473 128.447 193.747 124.607 197.644 125.633C201.542 126.658 207.608 139.891 207.384 141.731C207.16 143.571 188.2 144.328 188.2 144.328L187.748 139.915L197.716 138.248C197.716 138.248 194.056 131.974 194.473 128.447Z" fill="#6E71FF"/>
<path d="M194.473 128.447C194.473 128.447 193.747 124.607 197.644 125.633C201.542 126.658 207.608 139.891 207.384 141.731C207.16 143.571 188.2 144.328 188.2 144.328L187.748 139.915L197.716 138.248C197.716 138.248 194.056 131.974 194.473 128.447Z" fill="url(#paint18_linear)"/>
<path d="M192.613 120.252C192.146 121.218 191.351 121.987 190.369 122.421C190.205 122.478 190.045 122.547 189.891 122.628C189.822 122.672 189.759 122.724 189.704 122.784C189.365 123.165 189.602 123.728 189.704 124.217C189.894 125.331 189.249 126.471 188.319 127.11C187.796 127.445 187.223 127.694 186.621 127.846C185.776 128.067 184.866 128.118 184.225 127.816C183.206 127.337 183.308 125.779 183.084 124.825C182.344 121.729 181.695 118.554 182.032 115.353C182.211 113.656 182.687 111.924 183.709 110.546C184.73 109.167 186.357 108.169 188.074 108.2C189.792 108.23 191.422 109.313 192.647 110.576C193.076 110.998 193.438 111.482 193.72 112.012C194.515 113.605 194.094 115.509 193.652 117.234C193.428 118.278 193.079 119.291 192.613 120.252Z" fill="url(#paint19_linear)"/>
<path d="M193.978 112.742C193.978 112.742 188.886 112.742 185.807 114.535C183.06 116.127 182.303 119.529 182.072 119.471C181.553 119.352 179.859 116.076 180.572 115.353C181.285 114.63 180.721 114.626 180.721 114.626C180.721 114.626 179.903 113.268 180.314 110.831C180.651 109.05 181.111 107.295 181.692 105.579C181.692 105.579 181.906 104.771 184.988 105.579C188.071 106.387 193.269 108.855 193.557 109.856C193.846 110.858 193.608 111.316 193.608 111.316C193.608 111.316 194.453 111.937 193.978 112.742Z" fill="#6E71FF"/>
<path d="M193.978 112.742C193.978 112.742 188.886 112.742 185.807 114.535C183.06 116.127 182.303 119.529 182.072 119.471C181.553 119.352 179.859 116.076 180.572 115.353C181.285 114.63 180.721 114.626 180.721 114.626C180.721 114.626 179.903 113.268 180.314 110.831C180.651 109.05 181.111 107.295 181.692 105.579C181.692 105.579 181.906 104.771 184.988 105.579C188.071 106.387 193.269 108.855 193.557 109.856C193.846 110.858 193.608 111.316 193.608 111.316C193.608 111.316 194.453 111.937 193.978 112.742Z" fill="url(#paint20_linear)"/>
<path d="M185.807 114.528C187.594 114.96 189.409 115.264 191.239 115.438C192.882 115.543 194.067 115.098 194.077 115.02C194.097 114.847 193.544 117.777 193.544 117.777L192.298 118.215C191.817 118.385 191.304 118.445 190.797 118.391L183.026 117.583C183.026 117.583 184.35 115.207 185.807 114.528Z" fill="#6E71FF"/>
<path d="M185.807 114.528C187.594 114.96 189.409 115.264 191.239 115.438C192.882 115.543 194.067 115.098 194.077 115.02C194.097 114.847 193.544 117.777 193.544 117.777L192.298 118.215C191.817 118.385 191.304 118.445 190.797 118.391L183.026 117.583C183.026 117.583 184.35 115.207 185.807 114.528Z" fill="url(#paint21_linear)"/>
<path d="M189.005 116.029C189.228 115.967 189.464 115.974 189.684 116.049C189.833 116.076 189.969 116.154 190.067 116.27C190.124 116.358 190.163 116.455 190.183 116.558C190.203 116.616 190.203 116.68 190.183 116.738C190.154 116.772 190.117 116.797 190.075 116.81C190.033 116.824 189.988 116.826 189.945 116.816C189.54 116.819 189.138 116.742 188.764 116.589C188.455 116.429 188.743 116.12 189.005 116.029Z" fill="url(#paint22_linear)"/>
<path d="M192.586 116.195C192.65 116.138 192.725 116.094 192.806 116.066C192.887 116.039 192.973 116.028 193.058 116.035C193.114 116.032 193.169 116.04 193.221 116.059C193.273 116.079 193.321 116.109 193.361 116.147C193.418 116.222 193.462 116.306 193.493 116.395C193.52 116.45 193.532 116.511 193.527 116.572C193.519 116.606 193.501 116.638 193.475 116.662C193.449 116.686 193.416 116.702 193.381 116.707C193.11 116.815 192.815 116.844 192.529 116.792C192.284 116.721 192.424 116.348 192.586 116.195Z" fill="url(#paint23_linear)"/>
<path d="M188.302 127.109C187.779 127.445 187.206 127.693 186.604 127.846C186.099 127.275 185.775 126.566 185.674 125.809C185.575 125.285 185.515 124.754 185.494 124.22C185.432 123.757 185.546 123.287 185.813 122.903C185.99 122.739 186.203 122.618 186.434 122.55C186.666 122.482 186.91 122.468 187.148 122.509C187.626 122.564 188.088 122.73 188.567 122.781C188.974 122.825 189.463 122.638 189.891 122.615C189.822 122.658 189.759 122.711 189.704 122.771C189.364 123.151 189.602 123.715 189.704 124.203C189.877 125.331 189.232 126.471 188.302 127.109Z" fill="url(#paint24_linear)"/>
<path d="M166.466 139.515C166.269 139.359 166.035 139.257 165.787 139.219C165.663 139.204 165.538 139.235 165.436 139.305C165.333 139.376 165.26 139.482 165.23 139.603C165.23 139.776 165.288 139.943 165.396 140.078L165.855 140.794C165.912 140.869 165.947 140.959 165.953 141.052C165.953 141.29 165.614 141.338 165.373 141.307C163.879 141.117 162.389 140.655 160.898 140.852C160.783 140.855 160.674 140.9 160.589 140.978C160.546 141.042 160.526 141.119 160.533 141.196C160.54 141.274 160.573 141.346 160.627 141.402C160.739 141.51 160.877 141.589 161.027 141.63C161.862 141.935 162.719 142.176 163.59 142.349C163.492 142.594 163.169 142.638 162.911 142.648C162.19 142.675 161.472 142.757 160.762 142.892C160.358 142.967 159.863 143.171 159.859 143.571C159.871 143.705 159.924 143.832 160.011 143.934C160.098 144.037 160.215 144.109 160.345 144.142C160.608 144.203 160.88 144.213 161.146 144.169C162.081 144.091 163.021 144.115 163.95 144.24C162.945 144.356 161.991 144.743 161.19 145.361C161.117 145.412 161.056 145.479 161.014 145.557C160.922 145.754 161.095 145.992 161.302 146.06C161.517 146.104 161.739 146.091 161.947 146.023C162.875 145.807 163.823 145.684 164.775 145.656C164.201 145.92 163.666 146.263 163.186 146.674C163.041 146.787 162.924 146.932 162.847 147.099C162.807 147.183 162.795 147.277 162.811 147.369C162.826 147.461 162.87 147.545 162.935 147.611C163.022 147.665 163.12 147.697 163.221 147.705C163.323 147.714 163.425 147.698 163.519 147.659C164.65 147.353 165.648 146.62 166.805 146.45C167.41 146.359 168.109 146.396 168.53 145.951C168.71 145.731 168.836 145.472 168.897 145.194C169.148 144.322 169.667 142.478 169.141 141.63C168.934 141.29 168.432 141.012 168.123 140.76C167.593 140.316 167.04 139.901 166.466 139.515Z" fill="#6E71FF"/>
<path d="M185.386 138.122C185.189 137.966 184.955 137.865 184.707 137.827C184.583 137.812 184.458 137.842 184.356 137.913C184.253 137.984 184.18 138.09 184.15 138.211C184.15 138.383 184.208 138.551 184.316 138.686L184.775 139.402C184.832 139.477 184.867 139.566 184.873 139.66C184.856 139.898 184.534 139.945 184.293 139.915C182.799 139.725 181.309 139.26 179.818 139.46C179.704 139.462 179.594 139.505 179.509 139.582C179.465 139.647 179.445 139.725 179.452 139.803C179.458 139.881 179.492 139.954 179.547 140.01C179.659 140.118 179.797 140.197 179.947 140.237C180.782 140.543 181.639 140.784 182.51 140.957C182.412 141.202 182.089 141.242 181.831 141.253C181.11 141.282 180.392 141.365 179.682 141.5C179.278 141.575 178.783 141.775 178.779 142.179C178.791 142.313 178.844 142.44 178.931 142.542C179.018 142.644 179.135 142.717 179.265 142.75C179.527 142.811 179.8 142.821 180.066 142.777C181.001 142.699 181.941 142.723 182.87 142.848C181.866 142.963 180.913 143.351 180.113 143.968C180.039 144.018 179.978 144.084 179.934 144.162C179.905 144.266 179.919 144.377 179.972 144.471C180.024 144.565 180.112 144.634 180.215 144.664C180.43 144.711 180.652 144.699 180.86 144.63C181.788 144.413 182.736 144.29 183.688 144.264C183.114 144.528 182.58 144.871 182.1 145.282C181.954 145.395 181.838 145.54 181.76 145.707C181.722 145.791 181.709 145.885 181.725 145.977C181.741 146.068 181.784 146.153 181.848 146.219C181.936 146.273 182.034 146.305 182.136 146.313C182.238 146.321 182.341 146.306 182.436 146.267C183.563 145.961 184.561 145.228 185.718 145.058C186.323 144.967 187.022 145.004 187.443 144.559C187.623 144.339 187.749 144.08 187.81 143.802C188.064 142.93 188.58 141.086 188.054 140.234C187.847 139.895 187.345 139.62 187.036 139.368C186.508 138.924 185.957 138.509 185.386 138.122Z" fill="#6E71FF"/>
<path d="M166.466 139.515C166.269 139.359 166.035 139.257 165.787 139.219C165.663 139.204 165.538 139.235 165.436 139.305C165.333 139.376 165.26 139.482 165.23 139.603C165.23 139.776 165.288 139.943 165.396 140.078L165.855 140.794C165.912 140.869 165.947 140.959 165.953 141.052C165.953 141.29 165.614 141.338 165.373 141.307C163.879 141.117 162.389 140.655 160.898 140.852C160.783 140.855 160.674 140.9 160.589 140.978C160.546 141.042 160.526 141.119 160.533 141.196C160.54 141.274 160.573 141.346 160.627 141.402C160.739 141.51 160.877 141.589 161.027 141.63C161.862 141.935 162.719 142.176 163.59 142.349C163.492 142.594 163.169 142.638 162.911 142.648C162.19 142.675 161.472 142.757 160.762 142.892C160.358 142.967 159.863 143.171 159.859 143.571C159.871 143.705 159.924 143.832 160.011 143.934C160.098 144.037 160.215 144.109 160.345 144.142C160.608 144.203 160.88 144.213 161.146 144.169C162.081 144.091 163.021 144.115 163.95 144.24C162.945 144.356 161.991 144.743 161.19 145.361C161.117 145.412 161.056 145.479 161.014 145.557C160.922 145.754 161.095 145.992 161.302 146.06C161.517 146.104 161.739 146.091 161.947 146.023C162.875 145.807 163.823 145.684 164.775 145.656C164.201 145.92 163.666 146.263 163.186 146.674C163.041 146.787 162.924 146.932 162.847 147.099C162.807 147.183 162.795 147.277 162.811 147.369C162.826 147.461 162.87 147.545 162.935 147.611C163.022 147.665 163.12 147.697 163.221 147.705C163.323 147.714 163.425 147.698 163.519 147.659C164.65 147.353 165.648 146.62 166.805 146.45C167.41 146.359 168.109 146.396 168.53 145.951C168.71 145.731 168.836 145.472 168.897 145.194C169.148 144.322 169.667 142.478 169.141 141.63C168.934 141.29 168.432 141.012 168.123 140.76C167.593 140.316 167.04 139.901 166.466 139.515Z" fill="url(#paint25_linear)"/>
<path d="M185.386 138.122C185.189 137.966 184.955 137.865 184.707 137.827C184.583 137.812 184.458 137.842 184.356 137.913C184.253 137.984 184.18 138.09 184.15 138.211C184.15 138.383 184.208 138.551 184.316 138.686L184.775 139.402C184.832 139.477 184.867 139.566 184.873 139.66C184.856 139.898 184.534 139.945 184.293 139.915C182.799 139.725 181.309 139.26 179.818 139.46C179.704 139.462 179.594 139.505 179.509 139.582C179.465 139.647 179.445 139.725 179.452 139.803C179.458 139.881 179.492 139.954 179.547 140.01C179.659 140.118 179.797 140.197 179.947 140.237C180.782 140.543 181.639 140.784 182.51 140.957C182.412 141.202 182.089 141.242 181.831 141.253C181.11 141.282 180.392 141.365 179.682 141.5C179.278 141.575 178.783 141.775 178.779 142.179C178.791 142.313 178.844 142.44 178.931 142.542C179.018 142.644 179.135 142.717 179.265 142.75C179.527 142.811 179.8 142.821 180.066 142.777C181.001 142.699 181.941 142.723 182.87 142.848C181.866 142.963 180.913 143.351 180.113 143.968C180.039 144.018 179.978 144.084 179.934 144.162C179.905 144.266 179.919 144.377 179.972 144.471C180.024 144.565 180.112 144.634 180.215 144.664C180.43 144.711 180.652 144.699 180.86 144.63C181.788 144.413 182.736 144.29 183.688 144.264C183.114 144.528 182.58 144.871 182.1 145.282C181.954 145.395 181.838 145.54 181.76 145.707C181.722 145.791 181.709 145.885 181.725 145.977C181.741 146.068 181.784 146.153 181.848 146.219C181.936 146.273 182.034 146.305 182.136 146.313C182.238 146.321 182.341 146.306 182.436 146.267C183.563 145.961 184.561 145.228 185.718 145.058C186.323 144.967 187.022 145.004 187.443 144.559C187.623 144.339 187.749 144.08 187.81 143.802C188.064 142.93 188.58 141.086 188.054 140.234C187.847 139.895 187.345 139.62 187.036 139.368C186.508 138.924 185.957 138.509 185.386 138.122Z" fill="url(#paint26_linear)"/>
</g>
<defs>
<linearGradient id="paint0_linear" x1="92.8572" y1="101.831" x2="-164.633" y2="113.73" gradientUnits="userSpaceOnUse">
<stop stop-opacity="0"/>
<stop offset="0.97" stop-color="#0C0C11"/>
<stop offset="0.98" stop-color="#312F43"/>
<stop offset="0.99" stop-color="#3F3D56"/>
</linearGradient>
<linearGradient id="paint1_linear" x1="1342.18" y1="2828.48" x2="9996.86" y2="2214.36" gradientUnits="userSpaceOnUse">
<stop stop-opacity="0"/>
<stop offset="0.97" stop-color="#0C0C11"/>
<stop offset="0.98" stop-color="#312F43"/>
<stop offset="0.99" stop-color="#3F3D56"/>
</linearGradient>
<linearGradient id="paint2_linear" x1="7.53033" y1="134.215" x2="89.9283" y2="129.255" gradientUnits="userSpaceOnUse">
<stop stop-opacity="0"/>
<stop offset="0.29" stop-opacity="0.29"/>
<stop offset="0.97" stop-color="#0C0C11"/>
<stop offset="0.98" stop-color="#312F43"/>
<stop offset="0.99" stop-color="#3F3D56"/>
</linearGradient>
<linearGradient id="paint3_linear" x1="72.4575" y1="184.294" x2="28.5103" y2="123.443" gradientUnits="userSpaceOnUse">
<stop stop-opacity="0"/>
<stop offset="0.84" stop-opacity="0.66"/>
<stop offset="0.97"/>
</linearGradient>
<linearGradient id="paint4_linear" x1="54.9632" y1="176.926" x2="1.84643" y2="181.122" gradientUnits="userSpaceOnUse">
<stop stop-opacity="0"/>
<stop offset="0.87" stop-opacity="0.66"/>
<stop offset="1"/>
</linearGradient>
<linearGradient id="paint5_linear" x1="119.073" y1="0.418222" x2="121.891" y2="237.18" gradientUnits="userSpaceOnUse">
<stop stop-opacity="0"/>
<stop offset="0.5" stop-opacity="0.38"/>
<stop offset="0.97" stop-color="#0C0C11"/>
<stop offset="0.98" stop-color="#312F43"/>
<stop offset="0.99" stop-color="#3F3D56"/>
</linearGradient>
<linearGradient id="paint6_linear" x1="30.8511" y1="36.5648" x2="31.124" y2="28.3088" gradientUnits="userSpaceOnUse">
<stop stop-opacity="0"/>
<stop offset="0.639117" stop-opacity="0.75"/>
<stop offset="1"/>
</linearGradient>
<linearGradient id="paint7_linear" x1="37.8814" y1="36.5648" x2="38.1543" y2="28.3088" gradientUnits="userSpaceOnUse">
<stop stop-opacity="0"/>
<stop offset="0.639117" stop-opacity="0.75"/>
<stop offset="1"/>
</linearGradient>
<linearGradient id="paint8_linear" x1="44.9087" y1="36.5648" x2="45.1816" y2="28.3088" gradientUnits="userSpaceOnUse">
<stop stop-opacity="0"/>
<stop offset="0.639117" stop-opacity="0.75"/>
<stop offset="1"/>
</linearGradient>
<linearGradient id="paint9_linear" x1="123" y1="134.377" x2="126.174" y2="38.402" gradientUnits="userSpaceOnUse">
<stop stop-opacity="0"/>
<stop offset="0.639117" stop-opacity="0.75"/>
<stop offset="1"/>
</linearGradient>
<linearGradient id="paint10_linear" x1="160.188" y1="107.082" x2="160" y2="176.5" gradientUnits="userSpaceOnUse">
<stop/>
<stop offset="1" stop-opacity="0"/>
</linearGradient>
<linearGradient id="paint11_linear" x1="119.177" y1="79.2913" x2="138.933" y2="48.4629" gradientUnits="userSpaceOnUse">
<stop stop-opacity="0"/>
<stop offset="0.639117" stop-opacity="0.75"/>
<stop offset="1"/>
</linearGradient>
<linearGradient id="paint12_linear" x1="216.397" y1="193.629" x2="207.5" y2="214" gradientUnits="userSpaceOnUse">
<stop/>
<stop offset="1" stop-opacity="0"/>
</linearGradient>
<linearGradient id="paint13_linear" x1="173.334" y1="193.361" x2="169" y2="217.5" gradientUnits="userSpaceOnUse">
<stop/>
<stop offset="1" stop-opacity="0"/>
</linearGradient>
<linearGradient id="paint14_linear" x1="172.716" y1="133.753" x2="213.944" y2="173.742" gradientUnits="userSpaceOnUse">
<stop offset="0.01"/>
<stop offset="0.15" stop-opacity="0.52"/>
<stop offset="0.99" stop-opacity="0"/>
</linearGradient>
<linearGradient id="paint15_linear" x1="184.958" y1="176.129" x2="137.307" y2="135.726" gradientUnits="userSpaceOnUse">
<stop offset="0.01"/>
<stop offset="0.16" stop-opacity="0.52"/>
<stop offset="1" stop-opacity="0"/>
</linearGradient>
<linearGradient id="paint16_linear" x1="21222.6" y1="7259.97" x2="28597.2" y2="5764.55" gradientUnits="userSpaceOnUse">
<stop offset="0.01"/>
<stop offset="0.15" stop-opacity="0.52"/>
<stop offset="0.99" stop-opacity="0"/>
</linearGradient>
<linearGradient id="paint17_linear" x1="14717.6" y1="2789.75" x2="19321.4" y2="640.153" gradientUnits="userSpaceOnUse">
<stop offset="0.01"/>
<stop offset="0.15" stop-opacity="0.52"/>
<stop offset="0.99" stop-opacity="0"/>
</linearGradient>
<linearGradient id="paint18_linear" x1="12364" y1="752.126" x2="15210" y2="1619.86" gradientUnits="userSpaceOnUse">
<stop offset="0.01"/>
<stop offset="0.15" stop-opacity="0.52"/>
<stop offset="0.99" stop-opacity="0"/>
</linearGradient>
<linearGradient id="paint19_linear" x1="182.071" y1="116.911" x2="193.6" y2="119.882" gradientUnits="userSpaceOnUse">
<stop stop-color="#ECC4D7"/>
<stop offset="0.42" stop-color="#EFD4D1"/>
<stop offset="1" stop-color="#F2EAC9"/>
</linearGradient>
<linearGradient id="paint20_linear" x1="180.901" y1="112.827" x2="218.9" y2="98.6396" gradientUnits="userSpaceOnUse">
<stop offset="0.01"/>
<stop offset="0.03" stop-opacity="0.93"/>
<stop offset="0.51" stop-opacity="0.05"/>
<stop offset="0.58" stop-opacity="0.03"/>
<stop offset="0.99" stop-opacity="0"/>
</linearGradient>
<linearGradient id="paint21_linear" x1="6910.56" y1="50.5445" x2="7729.91" y2="-105.849" gradientUnits="userSpaceOnUse">
<stop offset="0.01"/>
<stop offset="0.15" stop-opacity="0.52"/>
<stop offset="0.99" stop-opacity="0"/>
</linearGradient>
<linearGradient id="paint22_linear" x1="189.414" y1="115.987" x2="189.414" y2="116.822" gradientUnits="userSpaceOnUse">
<stop offset="0.9999" stop-color="white"/>
<stop offset="1" stop-color="white" stop-opacity="0"/>
</linearGradient>
<linearGradient id="paint23_linear" x1="192.962" y1="116.033" x2="192.962" y2="116.817" gradientUnits="userSpaceOnUse">
<stop offset="0.9999" stop-color="white"/>
<stop offset="1" stop-color="white" stop-opacity="0"/>
</linearGradient>
<linearGradient id="paint24_linear" x1="-1912.68" y1="4822.66" x2="-1714.93" y2="4893.34" gradientUnits="userSpaceOnUse">
<stop stop-color="#ECC4D7"/>
<stop offset="0.42" stop-color="#EFD4D1"/>
<stop offset="1" stop-color="#F2EAC9"/>
</linearGradient>
<linearGradient id="paint25_linear" x1="5397.37" y1="516.518" x2="5337.06" y2="2651.01" gradientUnits="userSpaceOnUse">
<stop offset="0.01"/>
<stop offset="0.15" stop-opacity="0.52"/>
<stop offset="0.99" stop-opacity="0"/>
</linearGradient>
<linearGradient id="paint26_linear" x1="5941.1" y1="520.052" x2="5880.76" y2="2654.54" gradientUnits="userSpaceOnUse">
<stop offset="0.01"/>
<stop offset="0.15" stop-opacity="0.52"/>
<stop offset="0.99" stop-opacity="0"/>
</linearGradient>
<clipPath id="clip0">
<rect width="240" height="240" fill="white"/>
</clipPath>
</defs>
</svg>
