<svg width="208" height="208" viewBox="0 0 208 208" fill="none" xmlns="http://www.w3.org/2000/svg">
<path opacity="0.18" d="M6.14958 97.3812C10.2149 87.8628 16.3406 78.1042 22.037 73.3799C27.7333 68.6556 97.9333 -0.000196308 130.369 0C162.804 0.000196314 157.221 8.93405 169.134 18.5806C183.668 30.3419 196.101 50.4906 198.286 74.8236C199.803 91.5232 196.465 108.815 199.106 125.201C201.125 137.747 206.526 148.829 207.755 161.597C209.17 176.25 204.354 191.818 195.941 199.799C187.528 207.779 176.901 208.005 166.921 207.579C140.746 206.448 156.54 198.844 88.4536 207.202C20.3667 215.561 2.56506 155.483 2.56506 155.483C-1.45703 136.314 -1.09832 114.345 6.14958 97.3812Z" fill="#6E71FF"/>
<path d="M104.181 170C132.557 159.385 151.362 132.272 151.362 101.976V83.6142C141.634 83.6142 133.748 75.7281 133.748 66H104.181H74.6142C74.6142 75.7281 66.7281 83.6142 57 83.6142V101.976C57 132.272 75.8055 159.385 104.181 170Z" fill="#6E71FF"/>
<path d="M104.181 170C132.557 159.385 151.362 132.272 151.362 101.976V83.6142C141.634 83.6142 133.748 75.7281 133.748 66H104.181H74.6142C74.6142 75.7281 66.7281 83.6142 57 83.6142V101.976C57 132.272 75.8055 159.385 104.181 170Z" fill="url(#paint0_linear)" fill-opacity="0.6"/>
<path d="M144 86.1779V107.5H105V71H129.44C129.44 79.3825 135.959 86.1779 144 86.1779Z" fill="#6E71FF"/>
<path d="M144 86.1779V107.5H105V71H129.44C129.44 79.3825 135.959 86.1779 144 86.1779Z" fill="url(#paint1_linear)"/>
<defs>
<linearGradient id="paint0_linear" x1="104.181" y1="66" x2="104.181" y2="170" gradientUnits="userSpaceOnUse">
<stop stop-color="#040404"/>
<stop offset="1" stop-color="white" stop-opacity="0"/>
</linearGradient>
<linearGradient id="paint1_linear" x1="121.5" y1="84" x2="123" y2="150.5" gradientUnits="userSpaceOnUse">
<stop stop-color="white"/>
<stop offset="1" stop-color="white" stop-opacity="0"/>
</linearGradient>
</defs>
</svg>
