<svg width="208" height="208" viewBox="0 0 208 208" fill="none" xmlns="http://www.w3.org/2000/svg">
<path opacity="0.18" d="M6.14958 97.3812C10.2149 87.8628 16.3406 78.1042 22.037 73.3799C27.7333 68.6556 97.9333 -0.000196308 130.369 0C162.804 0.000196314 157.221 8.93405 169.134 18.5806C183.668 30.3419 196.101 50.4906 198.286 74.8236C199.803 91.5232 196.465 108.815 199.106 125.201C201.125 137.747 206.526 148.829 207.755 161.597C209.17 176.25 204.354 191.818 195.941 199.799C187.528 207.779 176.901 208.005 166.921 207.579C140.746 206.448 156.54 198.844 88.4536 207.202C20.3667 215.561 2.56506 155.483 2.56506 155.483C-1.45703 136.314 -1.09832 114.345 6.14958 97.3812Z" fill="#6E71FF"/>
<path d="M155.362 103.976C155.362 132.645 137.797 158.341 111.181 168.787C84.5653 158.341 67 132.645 67 103.976V88.3975C75.9837 87.0877 83.0877 79.9837 84.3975 71H111.181H137.965C139.274 79.9837 146.378 87.0877 155.362 88.3975V103.976Z" fill="#6E71FF" stroke="#6E71FF" stroke-width="6" stroke-linecap="round" stroke-linejoin="round"/>
<path d="M155.362 103.976C155.362 132.645 137.797 158.341 111.181 168.787C84.5653 158.341 67 132.645 67 103.976V88.3975C75.9837 87.0877 83.0877 79.9837 84.3975 71H111.181H137.965C139.274 79.9837 146.378 87.0877 155.362 88.3975V103.976Z" fill="url(#paint0_linear)" fill-opacity="0.3" stroke="url(#paint1_linear)" stroke-width="6" stroke-linecap="round" stroke-linejoin="round"/>
<defs>
<linearGradient id="paint0_linear" x1="111" y1="73.5" x2="111" y2="191.5" gradientUnits="userSpaceOnUse">
<stop stop-color="#040404"/>
<stop offset="1" stop-color="#4B4B4B" stop-opacity="0"/>
</linearGradient>
<linearGradient id="paint1_linear" x1="111.181" y1="68" x2="111.181" y2="172" gradientUnits="userSpaceOnUse">
<stop stop-color="#252525"/>
<stop offset="1" stop-color="white" stop-opacity="0"/>
</linearGradient>
</defs>
</svg>
