<svg width="208" height="208" viewBox="0 0 208 208" fill="none" xmlns="http://www.w3.org/2000/svg">
<path opacity="0.18" d="M6.14958 97.3812C10.2149 87.8628 16.3406 78.1042 22.037 73.3799C27.7333 68.6556 97.9333 -0.000196308 130.369 0C162.804 0.000196314 157.221 8.93405 169.134 18.5806C183.668 30.3419 196.101 50.4906 198.286 74.8236C199.803 91.5232 196.465 108.815 199.106 125.201C201.125 137.747 206.526 148.829 207.755 161.597C209.17 176.25 204.354 191.818 195.941 199.799C187.528 207.779 176.901 208.005 166.921 207.579C140.746 206.448 156.54 198.844 88.4536 207.202C20.3667 215.561 2.56506 155.483 2.56506 155.483C-1.45703 136.314 -1.09832 114.345 6.14958 97.3812Z" fill="#6E71FF"/>
<path d="M111.181 172C139.557 161.385 158.362 134.272 158.362 103.976V85.6142C148.634 85.6142 140.748 77.7281 140.748 68H111.181H81.6142C81.6142 77.7281 73.7281 85.6142 64 85.6142V103.976C64 134.272 82.8055 161.385 111.181 172Z" fill="#6E71FF"/>
<path d="M111.181 172C139.557 161.385 158.362 134.272 158.362 103.976V85.6142C148.634 85.6142 140.748 77.7281 140.748 68H111.181H81.6142C81.6142 77.7281 73.7281 85.6142 64 85.6142V103.976C64 134.272 82.8055 161.385 111.181 172Z" fill="url(#paint0_linear)" fill-opacity="0.6"/>
<path d="M148 120C148 139.596 133.252 157.134 111 164V120H148Z" fill="#6E71FF"/>
<path d="M148 120C148 139.596 133.252 157.134 111 164V120H148Z" fill="url(#paint1_linear)"/>
<path d="M74 120C74 139.596 88.7475 157.134 111 164V120H74Z" fill="#6E71FF"/>
<path d="M74 120C74 139.596 88.7475 157.134 111 164V120H74Z" fill="url(#paint2_linear)"/>
<defs>
<linearGradient id="paint0_linear" x1="111.181" y1="68" x2="111.181" y2="172" gradientUnits="userSpaceOnUse">
<stop stop-color="#040404"/>
<stop offset="1" stop-color="white" stop-opacity="0"/>
</linearGradient>
<linearGradient id="paint1_linear" x1="129.5" y1="120" x2="129" y2="262.5" gradientUnits="userSpaceOnUse">
<stop stop-color="white"/>
<stop offset="1" stop-color="white" stop-opacity="0"/>
</linearGradient>
<linearGradient id="paint2_linear" x1="92.5" y1="120" x2="93" y2="262.5" gradientUnits="userSpaceOnUse">
<stop stop-color="white"/>
<stop offset="1" stop-color="white" stop-opacity="0"/>
</linearGradient>
</defs>
</svg>
