<svg width="208" height="208" viewBox="0 0 208 208" fill="none" xmlns="http://www.w3.org/2000/svg">
<path opacity="0.18" d="M207.447 155.823C207.258 158.467 206.994 161.107 206.653 163.742C205.164 175.244 201.781 187.06 194.14 194.868C188.954 200.171 182.217 203.179 175.401 204.989C164.476 207.882 153.135 207.937 141.907 207.971C113.687 208.073 85.3078 208.154 57.3143 203.575C36.1784 200.12 12.1391 194.493 2.77136 169.374C1.5614 165.983 0.789891 162.414 0.480468 158.775C0.219624 156.245 0.102433 153.685 0.053288 151.146C-0.283337 136.314 0.975873 121.49 3.8034 106.998C5.10006 100.336 6.76342 93.674 9.82928 87.7956C14.6946 78.4625 22.6825 71.8429 30.2432 65.1551C41.287 55.3798 51.8499 44.9337 61.8848 33.8631C73.6644 20.8667 85.5876 6.41344 101.541 1.73199C113.078 -1.65023 125.266 0.581867 137.023 2.831C150.916 5.48907 165.032 8.22382 177.711 15.1587C190.39 22.0935 201.667 33.9355 205.391 49.2365C207.058 56.0947 207.152 63.2936 207.236 70.3988L207.916 127.701C208.029 137.089 208.139 146.495 207.447 155.823Z" fill="#6E71FF"/>
<path opacity="0.68" d="M206.653 163.742C206.993 161.107 207.258 158.467 207.447 155.823C208.139 146.495 208.029 137.089 207.916 127.701L0.866391 127.833C-0.000358075 130 0.219237 156.245 0.480082 158.775C0.789505 162.414 1.56101 165.983 2.77098 169.374C12.1387 194.493 36.178 200.12 57.3139 203.575C85.3075 208.154 113.687 208.073 141.907 207.971C153.135 207.937 164.476 207.882 175.401 204.989C182.217 203.179 188.953 200.171 194.14 194.868C201.78 187.06 205.164 175.244 206.653 163.742Z" fill="#6E71FF"/>
<path d="M120.03 51.1462H99.9697V76.9634H120.03V51.1462Z" fill="url(#paint0_linear)"/>
<path d="M120.032 51.1462H115.188V76.9634H120.032V51.1462Z" fill="#6E71FF"/>
<path d="M120.032 51.1462H115.188V76.9634H120.032V51.1462Z" fill="url(#paint1_linear)"/>
<path d="M93.9521 83.3207V75.5386C93.9521 74.736 94.6027 74.0854 95.4053 74.0854H124.597C125.399 74.0854 126.05 74.736 126.05 75.5386V83.3207H93.9521Z" fill="#6E71FF"/>
<path d="M93.9521 83.3207V75.5386C93.9521 74.736 94.6027 74.0854 95.4053 74.0854H124.597C125.399 74.0854 126.05 74.736 126.05 75.5386V83.3207H93.9521Z" fill="url(#paint2_linear)"/>
<path d="M124.596 74.0854H119.752C120.555 74.0854 121.205 74.736 121.205 75.5386V83.3207H126.049V75.5386C126.049 74.736 125.398 74.0854 124.596 74.0854Z" fill="#6E71FF"/>
<path d="M124.596 74.0854H119.752C120.555 74.0854 121.205 74.736 121.205 75.5386V83.3207H126.049V75.5386C126.049 74.736 125.398 74.0854 124.596 74.0854Z" fill="url(#paint3_linear)"/>
<path d="M120.03 58.0365L99.9688 70.0729V51.1462H120.03V58.0365Z" fill="#6E71FF"/>
<path d="M120.584 54.0241H99.417C98.6144 54.0241 97.9639 53.3736 97.9639 52.571V47.4531C97.9639 46.6505 98.6144 46 99.417 46H120.584C121.387 46 122.037 46.6505 122.037 47.4531V52.571C122.037 53.3736 121.387 54.0241 120.584 54.0241Z" fill="#6E71FF"/>
<path d="M120.584 54.0241H99.417C98.6144 54.0241 97.9639 53.3736 97.9639 52.571V47.4531C97.9639 46.6505 98.6144 46 99.417 46H120.584C121.387 46 122.037 46.6505 122.037 47.4531V52.571C122.037 53.3736 121.387 54.0241 120.584 54.0241Z" fill="url(#paint4_linear)"/>
<path d="M120.583 46H115.739C116.542 46 117.192 46.6505 117.192 47.4531V52.571C117.192 53.3736 116.542 54.0241 115.739 54.0241H120.583C121.386 54.0241 122.036 53.3736 122.036 52.571V47.4531C122.036 46.6505 121.385 46 120.583 46Z" fill="#6E71FF"/>
<path d="M120.583 46H115.739C116.542 46 117.192 46.6505 117.192 47.4531V52.571C117.192 53.3736 116.542 54.0241 115.739 54.0241H120.583C121.386 54.0241 122.036 53.3736 122.036 52.571V47.4531C122.036 46.6505 121.385 46 120.583 46Z" fill="#6E71FF"/>
<path d="M120.583 46H115.739C116.542 46 117.192 46.6505 117.192 47.4531V52.571C117.192 53.3736 116.542 54.0241 115.739 54.0241H120.583C121.386 54.0241 122.036 53.3736 122.036 52.571V47.4531C122.036 46.6505 121.385 46 120.583 46Z" fill="url(#paint5_linear)"/>
<path d="M146.109 123.326L142.055 89.3069C141.641 85.2636 138.225 82.1091 134.073 82.1091C129.92 82.1091 90.0779 82.1091 85.9254 82.1091C81.7728 82.1091 78.3568 85.2636 77.9429 89.3069H77.9426L73.8887 123.326V125.557H146.109V123.326Z" fill="#6E71FF"/>
<path d="M142.055 89.3069C141.641 85.2636 138.225 82.1091 134.072 82.1091C133.368 82.1091 131.636 82.1091 129.229 82.1091C133.381 82.1091 136.797 85.2636 137.211 89.3069H137.211L141.265 123.326V125.558H146.109V123.326L142.055 89.3069Z" fill="#6E71FF"/>
<path d="M142.055 89.3069C141.641 85.2636 138.225 82.1091 134.072 82.1091C133.368 82.1091 131.636 82.1091 129.229 82.1091C133.381 82.1091 136.797 85.2636 137.211 89.3069H137.211L141.265 123.326V125.558H146.109V123.326L142.055 89.3069Z" fill="url(#paint6_linear)" fill-opacity="0.5"/>
<path d="M140.093 164.361L153.631 127.614C153.91 126.858 153.521 126.021 152.764 125.746L110.498 110.376C110.177 110.259 109.826 110.259 109.505 110.376L67.2383 125.746C66.4819 126.021 66.0929 126.858 66.3712 127.614L79.9097 164.361L86.146 166.367L97.9163 162.371L110.849 165.762L122.087 162.371L134.341 166.367L140.093 164.361Z" fill="#6E71FF"/>
<path d="M140.093 164.361L153.631 127.614C153.91 126.858 153.521 126.021 152.764 125.746L110.498 110.376C110.177 110.259 109.826 110.259 109.505 110.376L67.2383 125.746C66.4819 126.021 66.0929 126.858 66.3712 127.614L79.9097 164.361L86.146 166.367L97.9163 162.371L110.849 165.762L122.087 162.371L134.341 166.367L140.093 164.361Z" fill="url(#paint7_linear)" fill-opacity="0.7"/>
<path d="M152.76 125.745L110.494 110.376C110.173 110.259 109.822 110.259 109.501 110.376L107.575 111.076L147.916 125.745C148.672 126.02 149.061 126.858 148.783 127.613L135.245 164.36L131.833 165.55L134.337 166.366L140.089 164.36L153.627 127.613C153.905 126.858 153.517 126.02 152.76 125.745Z" fill="#6E71FF"/>
<path d="M171.906 161.78C171.589 160.828 170.561 160.314 169.609 160.631L158.146 164.452L146.685 160.631C146.311 160.507 145.908 160.507 145.536 160.631L134.073 164.452L122.612 160.631C122.238 160.507 121.836 160.507 121.463 160.631L110 164.452L98.538 160.631C98.1648 160.507 97.7618 160.507 97.389 160.631L85.9266 164.452L74.4649 160.631C74.0916 160.507 73.6891 160.507 73.3159 160.631L61.853 164.452L50.3912 160.631C49.4387 160.313 48.4106 160.828 48.0936 161.78C47.7766 162.732 48.2908 163.76 49.2423 164.077L61.2785 168.09C61.6517 168.214 62.0542 168.214 62.4274 168.09L73.8901 164.269L85.3519 168.09C85.7246 168.214 86.1276 168.214 86.5008 168.09L97.9633 164.269L109.425 168.09C109.611 168.152 109.805 168.183 109.999 168.183C110.193 168.183 110.387 168.152 110.574 168.09L122.037 164.269L133.498 168.09C133.871 168.214 134.274 168.214 134.647 168.09L146.11 164.269L157.571 168.09C157.944 168.214 158.347 168.214 158.72 168.09L170.757 164.077C171.709 163.76 172.224 162.732 171.906 161.78Z" fill="#6E71FF"/>
<path d="M171.906 161.78C171.589 160.828 170.561 160.314 169.609 160.631L158.146 164.452L146.685 160.631C146.311 160.507 145.908 160.507 145.536 160.631L134.073 164.452L122.612 160.631C122.238 160.507 121.836 160.507 121.463 160.631L110 164.452L98.538 160.631C98.1648 160.507 97.7618 160.507 97.389 160.631L85.9266 164.452L74.4649 160.631C74.0916 160.507 73.6891 160.507 73.3159 160.631L61.853 164.452L50.3912 160.631C49.4387 160.313 48.4106 160.828 48.0936 161.78C47.7766 162.732 48.2908 163.76 49.2423 164.077L61.2785 168.09C61.6517 168.214 62.0542 168.214 62.4274 168.09L73.8901 164.269L85.3519 168.09C85.7246 168.214 86.1276 168.214 86.5008 168.09L97.9633 164.269L109.425 168.09C109.611 168.152 109.805 168.183 109.999 168.183C110.193 168.183 110.387 168.152 110.574 168.09L122.037 164.269L133.498 168.09C133.871 168.214 134.274 168.214 134.647 168.09L146.11 164.269L157.571 168.09C157.944 168.214 158.347 168.214 158.72 168.09L170.757 164.077C171.709 163.76 172.224 162.732 171.906 161.78Z" fill="url(#paint8_linear)" fill-opacity="0.8"/>
<path d="M82.3676 145.627C81.6238 145.627 80.9324 145.167 80.664 144.438L78.6263 138.907C78.2792 137.966 78.7614 136.922 79.7025 136.575C80.6444 136.228 81.6882 136.71 82.0348 137.651L83.4969 141.619L96.1473 138.17V132.262C96.1473 131.259 96.9603 130.446 97.9637 130.446C98.9671 130.446 99.7801 131.259 99.7801 132.262V139.557C99.7801 140.376 99.2318 141.094 98.4415 141.31L82.8459 145.562C82.6868 145.606 82.526 145.627 82.3676 145.627Z" fill="#6E71FF"/>
<path d="M82.3676 145.627C81.6238 145.627 80.9324 145.167 80.664 144.438L78.6263 138.907C78.2792 137.966 78.7614 136.922 79.7025 136.575C80.6444 136.228 81.6882 136.71 82.0348 137.651L83.4969 141.619L96.1473 138.17V132.262C96.1473 131.259 96.9603 130.446 97.9637 130.446C98.9671 130.446 99.7801 131.259 99.7801 132.262V139.557C99.7801 140.376 99.2318 141.094 98.4415 141.31L82.8459 145.562C82.6868 145.606 82.526 145.627 82.3676 145.627Z" fill="url(#paint9_linear)"/>
<path d="M137.632 145.626C137.474 145.626 137.314 145.605 137.154 145.562L121.558 141.309C120.768 141.094 120.22 140.376 120.22 139.557V132.262C120.22 131.259 121.033 130.446 122.036 130.446C123.04 130.446 123.853 131.259 123.853 132.262V138.17L136.503 141.619L137.965 137.651C138.312 136.709 139.355 136.228 140.297 136.574C141.239 136.921 141.721 137.965 141.374 138.907L139.336 144.438C139.068 145.167 138.376 145.626 137.632 145.626Z" fill="#6E71FF"/>
<path d="M137.632 145.626C137.474 145.626 137.314 145.605 137.154 145.562L121.558 141.309C120.768 141.094 120.22 140.376 120.22 139.557V132.262C120.22 131.259 121.033 130.446 122.036 130.446C123.04 130.446 123.853 131.259 123.853 132.262V138.17L136.503 141.619L137.965 137.651C138.312 136.709 139.355 136.228 140.297 136.574C141.239 136.921 141.721 137.965 141.374 138.907L139.336 144.438C139.068 145.167 138.376 145.626 137.632 145.626Z" fill="url(#paint10_linear)"/>
<path d="M92.4975 104.177H83.5598C82.6858 104.177 82.0096 103.411 82.1179 102.544L82.7577 97.426C82.8485 96.6987 83.4668 96.1531 84.1997 96.1531H92.4977C93.3003 96.1531 93.9508 96.8036 93.9508 97.6062V102.724C93.9506 103.526 93.2998 104.177 92.4975 104.177Z" fill="url(#paint11_linear)" fill-opacity="0.8"/>
<path d="M118.576 104.177H101.422C100.619 104.177 99.9688 103.526 99.9688 102.724V97.6062C99.9688 96.8036 100.619 96.1531 101.422 96.1531H118.576C119.379 96.1531 120.03 96.8036 120.03 97.6062V102.724C120.03 103.526 119.379 104.177 118.576 104.177Z" fill="url(#paint12_linear)"/>
<path d="M136.439 104.177H127.501C126.698 104.177 126.048 103.526 126.048 102.724V97.6062C126.048 96.8036 126.698 96.1531 127.501 96.1531H135.799C136.532 96.1531 137.15 96.6987 137.241 97.426L137.881 102.544C137.989 103.411 137.313 104.177 136.439 104.177Z" fill="url(#paint13_linear)"/>
<path d="M152.764 125.746L110.498 110.376C110.177 110.26 109.826 110.26 109.505 110.376L67.2383 125.746C66.4819 126.021 66.0929 126.858 66.3712 127.614L68.5531 133.536L110.001 118.22L151.449 133.536L153.631 127.614C153.909 126.858 153.521 126.021 152.764 125.746Z" fill="#6E71FF"/>
<path d="M152.764 125.746L110.498 110.376C110.177 110.26 109.826 110.26 109.505 110.376L67.2383 125.746C66.4819 126.021 66.0929 126.858 66.3712 127.614L68.5531 133.536L110.001 118.22L151.449 133.536L153.631 127.614C153.909 126.858 153.521 126.021 152.764 125.746Z" fill="url(#paint14_linear)"/>
<path d="M148.471 124.185C149.227 124.46 149.549 125.389 149.271 126.145L147.189 131.962L151.449 133.536L151.454 133.522L153.63 127.598C153.909 126.843 153.511 126.032 152.763 125.745" fill="#6E71FF"/>
<path d="M148.471 124.185C149.227 124.46 149.549 125.389 149.271 126.145L147.189 131.962L151.449 133.536L151.454 133.522L153.63 127.598C153.909 126.843 153.511 126.032 152.763 125.745" fill="url(#paint15_linear)" fill-opacity="0.5"/>
<path d="M77.943 89.3074L77.6279 91.9507H142.37L142.055 89.3074H142.055C142.021 88.9708 141.964 88.6409 141.889 88.3179H78.1094C78.0348 88.6409 77.9776 88.9708 77.943 89.3074Z" fill="#6E71FF"/>
<path d="M77.943 89.3074L77.6279 91.9507H142.37L142.055 89.3074H142.055C142.021 88.9708 141.964 88.6409 141.889 88.3179H78.1094C78.0348 88.6409 77.9776 88.9708 77.943 89.3074Z" fill="url(#paint16_linear)" fill-opacity="0.7"/>
<defs>
<linearGradient id="paint0_linear" x1="110" y1="51.1462" x2="110" y2="76.9634" gradientUnits="userSpaceOnUse">
<stop offset="0.9999" stop-color="white"/>
<stop offset="1" stop-color="white" stop-opacity="0"/>
</linearGradient>
<linearGradient id="paint1_linear" x1="117.441" y1="53.7716" x2="117.441" y2="106.472" gradientUnits="userSpaceOnUse">
<stop stop-color="white"/>
<stop offset="1" stop-color="white" stop-opacity="0"/>
</linearGradient>
<linearGradient id="paint2_linear" x1="110.001" y1="68.6517" x2="110.001" y2="95.3117" gradientUnits="userSpaceOnUse">
<stop stop-color="#383838"/>
<stop offset="1" stop-color="#101010" stop-opacity="0"/>
</linearGradient>
<linearGradient id="paint3_linear" x1="123.019" y1="73.6117" x2="123.019" y2="91.5917" gradientUnits="userSpaceOnUse">
<stop stop-color="#0B0B0B"/>
<stop offset="1" stop-color="#131313" stop-opacity="0"/>
</linearGradient>
<linearGradient id="paint4_linear" x1="109.381" y1="37.6515" x2="110.001" y2="59.9715" gradientUnits="userSpaceOnUse">
<stop/>
<stop offset="1" stop-color="#0D0D0D" stop-opacity="0"/>
</linearGradient>
<linearGradient id="paint5_linear" x1="119.299" y1="39.5115" x2="119.299" y2="58.7315" gradientUnits="userSpaceOnUse">
<stop stop-color="#050505"/>
<stop offset="1" stop-color="#212121" stop-opacity="0"/>
</linearGradient>
<linearGradient id="paint6_linear" x1="131.699" y1="66.1714" x2="145.959" y2="135.611" gradientUnits="userSpaceOnUse">
<stop stop-color="white"/>
<stop offset="1" stop-color="white" stop-opacity="0"/>
</linearGradient>
<linearGradient id="paint7_linear" x1="110.001" y1="68.6517" x2="110.001" y2="196.372" gradientUnits="userSpaceOnUse">
<stop/>
<stop offset="1" stop-opacity="0"/>
</linearGradient>
<linearGradient id="paint8_linear" x1="111.24" y1="149.872" x2="111.24" y2="185.212" gradientUnits="userSpaceOnUse">
<stop stop-color="white"/>
<stop offset="1" stop-color="white" stop-opacity="0"/>
</linearGradient>
<linearGradient id="paint9_linear" x1="88.9205" y1="125.072" x2="88.3005" y2="157.312" gradientUnits="userSpaceOnUse">
<stop stop-color="white"/>
<stop offset="1" stop-color="white" stop-opacity="0"/>
</linearGradient>
<linearGradient id="paint10_linear" x1="131.079" y1="125.071" x2="131.079" y2="159.171" gradientUnits="userSpaceOnUse">
<stop stop-color="white"/>
<stop offset="1" stop-color="white" stop-opacity="0"/>
</linearGradient>
<linearGradient id="paint11_linear" x1="88.2992" y1="92.2115" x2="87.6792" y2="111.431" gradientUnits="userSpaceOnUse">
<stop stop-color="#0F0F0F"/>
<stop offset="1" stop-opacity="0"/>
</linearGradient>
<linearGradient id="paint12_linear" x1="109.999" y1="90.0659" x2="109.999" y2="108.331" gradientUnits="userSpaceOnUse">
<stop stop-color="#0F0F0F"/>
<stop offset="1" stop-opacity="0"/>
</linearGradient>
<linearGradient id="paint13_linear" x1="132.319" y1="93.4515" x2="132.319" y2="106.471" gradientUnits="userSpaceOnUse">
<stop stop-color="#0F0F0F"/>
<stop offset="1" stop-opacity="0"/>
</linearGradient>
<linearGradient id="paint14_linear" x1="110.001" y1="102.752" x2="106.901" y2="173.432" gradientUnits="userSpaceOnUse">
<stop stop-color="#0A0A0A"/>
<stop offset="1" stop-color="#181818" stop-opacity="0"/>
</linearGradient>
<linearGradient id="paint15_linear" x1="154.02" y1="113.912" x2="147.82" y2="143.672" gradientUnits="userSpaceOnUse">
<stop stop-color="#2B2B2B"/>
<stop offset="1" stop-color="#181818" stop-opacity="0"/>
</linearGradient>
<linearGradient id="paint16_linear" x1="109.999" y1="84.1516" x2="109.999" y2="94.6916" gradientUnits="userSpaceOnUse">
<stop stop-color="#1F1F1F"/>
<stop offset="1" stop-opacity="0"/>
</linearGradient>
</defs>
</svg>
