<svg width="208" height="208" viewBox="0 0 208 208" fill="none" xmlns="http://www.w3.org/2000/svg">
<path opacity="0.18" d="M207.995 150.775C208.327 175.661 191.696 199.325 170.959 203.498C161.254 205.46 151.353 203.57 141.497 203.053C120.059 201.947 98.6698 207.386 77.2693 207.957C72.9371 208.073 68.5975 207.957 64.254 207.596C49.9732 206.317 36.0274 201.845 23.1571 194.417C17.6675 191.251 12.3098 187.471 8.3132 182.032C-0.260592 170.378 -1.0863 153.32 0.896908 138.073C2.88012 122.826 7.24242 107.921 7.46487 92.4868C7.62323 81.7111 5.75313 71.0513 5.27429 60.289C4.79546 49.5266 5.90017 38.1134 11.2579 29.4019C16.6155 20.6904 25.5324 15.9155 34.4644 13.838C43.3964 11.7604 52.5621 12.0324 61.66 11.3636C80.4779 9.99937 98.9036 4.57362 117.612 1.86744C145.513 -2.17624 190.38 -3.48252 193.468 39.6961C193.705 43.2674 193.77 46.8517 193.664 50.4317C193.393 62.3576 191.843 74.3282 193.125 86.1649C195.523 108.407 207.693 128.363 207.995 150.775Z" fill="#6E71FF"/>
<path d="M142.682 94.0942L112.427 55.2998L71.3227 80.4724L70.248 78.713L112.922 52.5812L144.31 92.8257L142.682 94.0942Z" fill="#6E71FF"/>
<path d="M142.682 94.0942L112.427 55.2998L71.3227 80.4724L70.248 78.713L112.922 52.5812L144.31 92.8257L142.682 94.0942Z" fill="url(#paint0_linear)"/>
<path d="M112.137 65.6522C117.011 65.6522 120.963 61.7006 120.963 56.8261C120.963 51.9516 117.011 48 112.137 48C107.262 48 103.311 51.9516 103.311 56.8261C103.311 61.7006 107.262 65.6522 112.137 65.6522Z" fill="#6E71FF"/>
<path d="M112.137 65.6522C117.011 65.6522 120.963 61.7006 120.963 56.8261C120.963 51.9516 117.011 48 112.137 48C107.262 48 103.311 51.9516 103.311 56.8261C103.311 61.7006 107.262 65.6522 112.137 65.6522Z" fill="url(#paint1_linear)" fill-opacity="0.8"/>
<path d="M112.137 61.4259C114.677 61.4259 116.737 59.3665 116.737 56.8262C116.737 54.2858 114.677 52.2264 112.137 52.2264C109.596 52.2264 107.537 54.2858 107.537 56.8262C107.537 59.3665 109.596 61.4259 112.137 61.4259Z" fill="#6E71FF"/>
<path d="M34.9997 142.897L153.428 165.479L167 94.3004L48.5716 71.7192L34.9997 142.897Z" fill="#6E71FF"/>
<path d="M58.1441 117.124C59.7715 118.495 61.7207 119.434 63.8081 119.85C66.6959 120.409 68.5749 119.368 68.9648 117.353C69.3257 115.484 68.2924 114.145 65.3613 112.402C61.5805 110.154 59.3982 107.491 60.083 103.945C60.8606 99.9169 64.8271 97.4913 70.1694 98.5226C72.2279 98.8609 74.1792 99.6818 75.8623 100.915L74.0637 104.327C72.7003 103.248 71.0914 102.52 69.3814 102.209C66.5267 101.656 64.9818 102.953 64.7054 104.385C64.3382 106.286 65.5985 107.442 68.6471 109.36C72.6198 111.798 74.2906 114.36 73.5975 117.912C72.8343 121.868 69.1669 124.733 62.7954 123.499C60.4831 123.07 58.307 122.101 56.4424 120.669L58.1441 117.124Z" fill="url(#paint2_linear)"/>
<path d="M100.644 117.353C99.0472 125.628 93.1171 129.386 86.3062 128.078C79.3468 126.738 75.9785 120.576 77.377 113.326C78.8414 105.744 84.6354 101.317 91.5928 102.662C98.8038 104.042 101.999 110.319 100.644 117.353ZM82.152 114.162C81.1826 119.178 82.9399 123.65 87.2612 124.491C91.6196 125.333 94.8518 121.781 95.8481 116.616C96.7453 111.967 95.287 107.128 90.7822 106.255C86.3145 105.393 83.1359 109.071 82.152 114.164V114.162Z" fill="url(#paint3_linear)"/>
<path d="M106.858 106.016L111.363 106.887L107.324 127.796L117.469 129.753L116.743 133.522L102.098 130.694L106.858 106.016Z" fill="url(#paint4_linear)"/>
<path d="M124.846 109.832C127.291 109.929 129.725 110.22 132.123 110.702C135.768 111.109 139.147 112.815 141.641 115.504C143.846 118.266 144.621 121.905 143.734 125.327C143.216 129.037 141.127 132.344 137.996 134.402C134.337 136.236 130.133 136.669 126.177 135.619C124.143 135.242 122.134 134.739 120.162 134.114L124.846 109.832ZM125.317 131.612C126.125 131.869 126.952 132.067 127.792 132.199C133.646 133.371 137.746 130.817 138.955 124.557C140.044 119.106 137.497 115.385 131.857 114.296C130.83 114.073 129.782 113.959 128.73 113.961L125.317 131.612Z" fill="url(#paint5_linear)"/>
<defs>
<linearGradient id="paint0_linear" x1="103.64" y1="42.0592" x2="107.6" y2="120.599" gradientUnits="userSpaceOnUse">
<stop stop-color="#040404"/>
<stop offset="1" stop-color="#090909" stop-opacity="0"/>
</linearGradient>
<linearGradient id="paint1_linear" x1="113.541" y1="40.0792" x2="108.921" y2="77.0392" gradientUnits="userSpaceOnUse">
<stop stop-color="white"/>
<stop stop-color="#1A1A1A"/>
<stop offset="1" stop-color="#020202" stop-opacity="0"/>
</linearGradient>
<linearGradient id="paint2_linear" x1="66.1523" y1="98.2853" x2="66.1523" y2="123.789" gradientUnits="userSpaceOnUse">
<stop offset="0.9999" stop-color="white"/>
<stop offset="1" stop-color="white" stop-opacity="0"/>
</linearGradient>
<linearGradient id="paint3_linear" x1="89.0068" y1="102.423" x2="89.0068" y2="128.333" gradientUnits="userSpaceOnUse">
<stop offset="0.9999" stop-color="white"/>
<stop offset="1" stop-color="white" stop-opacity="0"/>
</linearGradient>
<linearGradient id="paint4_linear" x1="109.783" y1="106.016" x2="109.783" y2="133.522" gradientUnits="userSpaceOnUse">
<stop offset="0.9999" stop-color="white"/>
<stop offset="1" stop-color="white" stop-opacity="0"/>
</linearGradient>
<linearGradient id="paint5_linear" x1="132.128" y1="109.832" x2="132.128" y2="136.181" gradientUnits="userSpaceOnUse">
<stop offset="0.9999" stop-color="white"/>
<stop offset="1" stop-color="white" stop-opacity="0"/>
</linearGradient>
</defs>
</svg>
