<svg width="208" height="208" viewBox="0 0 208 208" fill="none" xmlns="http://www.w3.org/2000/svg">
<path opacity="0.25" d="M202.006 131.961C195.353 155.025 185.381 179.635 164.018 194.022C161.497 195.72 158.835 197.258 156.051 198.623C144.479 204.286 131.076 206.667 117.777 207.574C91.83 209.365 64.7229 205.617 42.4935 194.255C40.0383 193.002 37.6484 191.655 35.3236 190.215C22.4296 182.212 12.3158 171.375 6.05716 158.856C0.962782 148.556 -1.18958 137.373 0.648315 126.244C5.10677 99.2116 30.5437 78.5702 43.6605 53.68C48.4824 44.526 51.6341 34.7812 56.5537 25.6689C61.4734 16.5566 68.5454 7.82624 78.9159 3.06423C93.5631 -3.66108 109.964 2.17508 124.437 6.38212C141.32 11.2575 157.931 17.8217 170.741 28.6884C179.091 35.7598 185.472 44.341 191.251 53.0833C194.833 58.3903 198.044 63.8741 200.867 69.5057C203.763 75.264 205.84 81.2985 207.051 87.4796C209.77 102.303 206.199 117.4 202.006 131.961Z" fill="#6E71FF"/>
<path d="M170.492 104.009L149.297 102.043L140.877 82.4934C140.288 81.1244 138.347 81.1244 137.758 82.4934L129.338 102.044L108.144 104.009C106.659 104.147 106.06 105.993 107.179 106.976L123.171 121.025L118.491 141.79C118.163 143.244 119.734 144.385 121.015 143.624L139.318 132.756L157.62 143.624C158.901 144.385 160.472 143.244 160.144 141.79L155.464 121.025L171.456 106.976C172.575 105.993 171.976 104.147 170.492 104.009Z" fill="#6E71FF"/>
<path d="M140.877 82.4934C140.288 81.1244 138.347 81.1244 137.758 82.4934L129.338 102.044L108.144 104.009C106.659 104.147 106.06 105.993 107.179 106.976L123.171 121.025L118.491 141.79C118.163 143.244 119.734 144.385 121.015 143.624L125.1 141.198C125.665 117.925 136.479 101.536 145.04 92.16L140.877 82.4934Z" fill="#6E71FF"/>
<path d="M140.877 82.4934C140.288 81.1244 138.347 81.1244 137.758 82.4934L129.338 102.044L108.144 104.009C106.659 104.147 106.06 105.993 107.179 106.976L123.171 121.025L118.491 141.79C118.163 143.244 119.734 144.385 121.015 143.624L125.1 141.198C125.665 117.925 136.479 101.536 145.04 92.16L140.877 82.4934Z" fill="url(#paint0_linear)" fill-opacity="0.6"/>
<path d="M103.282 145.341L88.8575 144.004L83.1277 130.699C82.7266 129.767 81.4057 129.767 81.0045 130.699L75.2749 144.004L60.8505 145.341C59.8405 145.435 59.4323 146.691 60.1944 147.361L71.0776 156.922L67.8926 171.053C67.6696 172.043 68.7382 172.819 69.6103 172.301L82.0662 164.905L94.522 172.301C95.3941 172.819 96.4628 172.043 96.2398 171.053L93.0548 156.922L103.938 147.361C104.7 146.691 104.292 145.435 103.282 145.341Z" fill="#6E71FF"/>
<path d="M83.1277 130.699C82.7266 129.767 81.4057 129.767 81.0045 130.699L75.2748 144.004L60.8505 145.341C59.8405 145.435 59.4323 146.691 60.1944 147.361L71.0776 156.922L67.8926 171.053C67.6696 172.043 68.7382 172.819 69.6103 172.301L72.3904 170.651C72.7752 154.812 80.1344 143.658 85.9609 137.277L83.1277 130.699Z" fill="#6E71FF"/>
<path d="M83.1277 130.699C82.7266 129.767 81.4057 129.767 81.0045 130.699L75.2748 144.004L60.8505 145.341C59.8405 145.435 59.4323 146.691 60.1944 147.361L71.0776 156.922L67.8926 171.053C67.6696 172.043 68.7382 172.819 69.6103 172.301L72.3904 170.651C72.7752 154.812 80.1344 143.658 85.9609 137.277L83.1277 130.699Z" fill="url(#paint1_linear)" fill-opacity="0.6"/>
<path d="M112.856 62.7676L97.8433 61.3752L91.8797 47.5272C91.4622 46.5576 90.0873 46.5576 89.6698 47.5272L83.7063 61.3753L68.6932 62.7676C67.642 62.8651 67.2172 64.1726 68.0103 64.8693L79.3377 74.8203L76.0227 89.529C75.7906 90.5588 76.9028 91.3669 77.8106 90.8279L90.7748 83.1299L103.739 90.8279C104.647 91.3669 105.759 90.5588 105.527 89.529L102.212 74.8203L113.539 64.8693C114.332 64.1726 113.908 62.8651 112.856 62.7676Z" fill="#6E71FF"/>
<path d="M91.8797 47.5272C91.4622 46.5576 90.0873 46.5576 89.6698 47.5272L83.7063 61.3753L68.6932 62.7676C67.642 62.8651 67.2172 64.1726 68.0103 64.8693L79.3377 74.8203L76.0227 89.529C75.7906 90.5588 76.9028 91.3669 77.8106 90.8279L80.7041 89.1097C81.1046 72.6245 88.7642 61.0154 94.8285 54.3744L91.8797 47.5272Z" fill="#6E71FF"/>
<path d="M91.8797 47.5272C91.4622 46.5576 90.0873 46.5576 89.6698 47.5272L83.7063 61.3753L68.6932 62.7676C67.642 62.8651 67.2172 64.1726 68.0103 64.8693L79.3377 74.8203L76.0227 89.529C75.7906 90.5588 76.9028 91.3669 77.8106 90.8279L80.7041 89.1097C81.1046 72.6245 88.7642 61.0154 94.8285 54.3744L91.8797 47.5272Z" fill="url(#paint2_linear)" fill-opacity="0.6"/>
<defs>
<linearGradient id="paint0_linear" x1="125.82" y1="81.4667" x2="125.77" y2="166.153" gradientUnits="userSpaceOnUse">
<stop stop-color="#1F1F1F"/>
<stop offset="1" stop-color="white" stop-opacity="0"/>
</linearGradient>
<linearGradient id="paint1_linear" x1="72.8803" y1="130" x2="72.8465" y2="187.634" gradientUnits="userSpaceOnUse">
<stop/>
<stop offset="1" stop-color="white" stop-opacity="0"/>
</linearGradient>
<linearGradient id="paint2_linear" x1="81.214" y1="46.8" x2="81.1788" y2="106.786" gradientUnits="userSpaceOnUse">
<stop/>
<stop offset="1" stop-color="white" stop-opacity="0"/>
</linearGradient>
</defs>
</svg>
