<svg width="208" height="208" viewBox="0 0 208 208" fill="none" xmlns="http://www.w3.org/2000/svg">
<path opacity="0.18" d="M202.006 131.961C195.353 155.025 185.381 179.635 164.018 194.022C161.497 195.72 158.835 197.258 156.051 198.623C144.479 204.286 131.076 206.667 117.777 207.574C91.83 209.365 64.7229 205.617 42.4935 194.255C40.0383 193.002 37.6484 191.655 35.3236 190.215C22.4296 182.212 12.3158 171.375 6.05716 158.856C0.962782 148.556 -1.18958 137.373 0.648315 126.244C5.10677 99.2116 30.5437 78.5702 43.6605 53.68C48.4824 44.526 51.6341 34.7812 56.5537 25.6689C61.4734 16.5566 68.5454 7.82624 78.9159 3.06423C93.5631 -3.66108 109.964 2.17508 124.437 6.38212C141.32 11.2575 157.931 17.8217 170.741 28.6884C179.091 35.7598 185.472 44.341 191.251 53.0833C194.833 58.3903 198.044 63.8741 200.867 69.5057C203.763 75.264 205.84 81.2985 207.051 87.4796C209.77 102.303 206.199 117.4 202.006 131.961Z" fill="#6E71FF"/>
<path d="M106.616 113.546H100.074V206.163H106.616V113.546Z" fill="#6E71FF"/>
<path d="M106.616 113.546H100.074V206.163H106.616V113.546Z" fill="url(#paint0_linear)"/>
<path d="M144.605 77.7195C144.062 76.2804 143.441 74.8719 142.745 73.5003C137.706 63.5727 129.154 55.8748 118.753 51.9044C117.326 51.3594 115.871 50.8908 114.394 50.5005C104.501 47.8822 94.0083 48.7495 84.6795 52.9568C75.3507 57.1641 67.7547 64.4547 63.1684 73.6032C62.4743 74.9711 61.8583 76.3773 61.3234 77.815C57.7736 87.2175 57.5145 97.5455 60.5884 107.114C61.051 108.574 61.5933 110.007 62.2128 111.407C66.4449 121.029 73.929 128.854 83.3529 133.51C84.7234 134.19 86.1294 134.796 87.5648 135.325C97.4979 138.998 108.414 139.011 118.356 135.362C119.792 134.841 121.199 134.239 122.568 133.561C132.135 128.86 139.712 120.9 143.936 111.113C144.535 109.71 145.06 108.277 145.509 106.82C148.465 97.2961 148.147 87.0562 144.605 77.7342V77.7195ZM138.217 108.687C136.148 113.507 133.112 117.85 129.296 121.449C125.48 125.047 120.966 127.824 116.033 129.607C107.584 132.679 98.3224 132.679 89.8729 129.607C88.4353 129.083 87.0312 128.472 85.6684 127.776C77.7485 123.75 71.4604 117.114 67.8654 108.989C67.2435 107.588 66.7108 106.149 66.2703 104.681C63.7806 96.4797 64.1119 87.6804 67.2112 79.6894C67.7615 78.2501 68.4048 76.8481 69.137 75.4923C72.4013 69.3583 77.2721 64.2274 83.2281 60.6486C89.184 57.0699 96.001 55.178 102.949 55.1754C106.123 55.1796 109.284 55.5796 112.358 56.3662C113.841 56.7356 115.299 57.1971 116.724 57.7481C125.308 61.0613 132.426 67.3337 136.791 75.4334C137.526 76.7866 138.172 78.1862 138.724 79.6232C142.389 88.9984 142.215 99.4396 138.239 108.687H138.217Z" fill="#6E71FF"/>
<path d="M123.383 84.5776C122.76 83.141 121.984 81.7757 121.068 80.5054C118.634 77.0954 115.308 74.4224 111.454 72.78C110.047 72.1787 108.581 71.7254 107.08 71.4275C105.614 71.1314 104.121 70.9836 102.626 70.9865C100.772 70.9858 98.9255 71.2129 97.1274 71.6627C95.6419 72.0329 94.1984 72.5551 92.82 73.221C89.4144 74.8648 86.4715 77.3303 84.2566 80.3952C81.4709 84.2448 79.9689 88.8743 79.9639 93.6261C79.9631 95.3001 80.148 96.9691 80.5152 98.6024C80.8519 100.103 81.3446 101.564 81.9853 102.961C83.9731 107.384 87.3243 111.055 91.5483 113.436C92.8818 114.192 94.291 114.805 95.7528 115.266C100.479 116.765 105.567 116.669 110.233 114.994C114.631 113.425 118.435 110.534 121.125 106.717C123.814 102.901 125.258 98.3464 125.258 93.6775C125.276 90.5465 124.638 87.4464 123.383 84.5776ZM120.62 101.182C119.094 104.797 116.518 107.87 113.225 110.003C111.939 110.842 110.557 111.523 109.109 112.032C105.198 113.409 100.95 113.507 96.9804 112.311C95.5095 111.868 94.0977 111.249 92.7758 110.466C89.311 108.432 86.5531 105.384 84.874 101.734C84.2279 100.326 83.7541 98.8449 83.4627 97.3234C83.232 96.1118 83.1139 94.8815 83.1099 93.6481C83.1075 90.8067 83.7272 87.9993 84.9255 85.4229C85.5991 83.9906 86.4405 82.6433 87.432 81.4095C89.1861 79.234 91.3837 77.4573 93.8784 76.198C95.2473 75.5094 96.6933 74.9863 98.1858 74.6397C99.632 74.3043 101.112 74.1342 102.596 74.1325C103.734 74.1333 104.871 74.2316 105.992 74.4265C108.875 74.9333 111.607 76.0828 113.985 77.7899C116.364 79.497 118.327 81.7178 119.729 84.2873C121.131 86.8569 121.937 89.7094 122.086 92.633C122.235 95.5565 121.724 98.4761 120.59 101.175L120.62 101.182Z" fill="#6E71FF"/>
<path d="M98.1569 74.6474C96.6643 74.994 95.2183 75.5172 93.8495 76.2057L92.791 73.2214L87.5427 58.4542L85.4699 52.6105L79.5895 35.9984C79.4693 35.7109 79.409 35.402 79.4122 35.0904C79.4154 34.7789 79.4821 34.4713 79.6081 34.1863C79.7341 33.9014 79.9169 33.6452 80.1452 33.4332C80.3736 33.2212 80.6427 33.058 80.9362 32.9535C81.2297 32.849 81.5414 32.8054 81.8524 32.8254C82.1633 32.8453 82.4669 32.9284 82.7446 33.0696C83.0223 33.2108 83.2684 33.4071 83.4678 33.6465C83.6671 33.8859 83.8156 34.1634 83.9042 34.4621L89.7846 51.0155L91.8575 56.8591L97.1205 71.6631L98.1569 74.6474Z" fill="#6E71FF"/>
<path d="M87.4019 81.4168C86.4104 82.6506 85.569 83.9979 84.8953 85.4302L81.889 84.4526L67.1879 79.7188L61.3075 77.815L48.4073 73.64C47.8898 73.4675 47.4507 73.1163 47.1688 72.6494C46.887 72.1824 46.7808 71.6302 46.8693 71.092C46.9578 70.5538 47.2353 70.0647 47.6519 69.7126C48.0685 69.3605 48.5969 69.1684 49.1424 69.1708C49.3919 69.1646 49.6407 69.2019 49.8774 69.2811L63.2554 73.6032L69.2314 75.5217L84.3146 80.3951L87.4019 81.4168Z" fill="#6E71FF"/>
<path d="M84.8439 101.755L81.9478 102.99L67.8716 108.981L62.1823 111.407L51.4138 115.986C50.854 116.221 50.2239 116.226 49.6607 115.999C49.0975 115.772 48.647 115.331 48.4074 114.773C48.2903 114.488 48.2279 114.184 48.2236 113.876C48.2239 113.427 48.3564 112.987 48.6047 112.612C48.853 112.236 49.2062 111.943 49.6202 111.767L60.5578 107.114L66.2765 104.673L80.4851 98.6314L83.4253 97.3671C83.7207 98.8814 84.197 100.355 84.8439 101.755Z" fill="#6E71FF"/>
<path d="M96.9216 112.333L95.7235 115.273L89.8431 129.614L87.4983 135.34L82.2206 148.233C81.9731 148.77 81.5282 149.19 80.9785 149.406C80.4288 149.623 79.8167 149.619 79.2699 149.395C78.7231 149.172 78.2836 148.745 78.0432 148.206C77.8028 147.666 77.7799 147.055 77.9793 146.498L83.2864 133.525L85.6386 127.784L91.519 113.443L92.7171 110.503C94.0397 111.28 95.4514 111.895 96.9216 112.333Z" fill="#6E71FF"/>
<path d="M124.22 36.3421L118.751 51.9032L116.701 57.7836L111.423 72.8154L110.379 75.7998C108.967 75.1819 107.487 74.7353 105.969 74.4693L107.027 71.4629L112.356 56.365L114.414 50.4845L119.92 34.8059C120.083 34.3693 120.375 33.9927 120.757 33.7261C121.139 33.4596 121.593 33.3157 122.059 33.3137C122.309 33.3205 122.557 33.3651 122.794 33.446C123.364 33.645 123.833 34.0602 124.1 34.602C124.367 35.1438 124.41 35.7689 124.22 36.3421Z" fill="#6E71FF"/>
<path d="M157.24 73.6401L144.604 77.7196L138.724 79.6234L123.383 84.5776L120.377 85.5479C119.72 84.1149 118.89 82.7672 117.907 81.5345L121.068 80.5054L136.798 75.4336L142.774 73.5004L155.858 69.2812C156.095 69.202 156.343 69.1647 156.593 69.1709C157.145 69.1566 157.684 69.3425 158.109 69.6944C158.535 70.0463 158.818 70.5403 158.908 71.0852C158.998 71.63 158.887 72.1889 158.597 72.6586C158.306 73.1282 157.856 73.4768 157.328 73.6401H157.24Z" fill="#6E71FF"/>
<path d="M158.555 113.877C158.551 114.185 158.489 114.489 158.372 114.774C158.132 115.332 157.681 115.772 157.118 116C156.555 116.227 155.925 116.222 155.365 115.987L143.906 111.113L138.216 108.688L123.515 102.418L120.575 101.183C121.173 99.7685 121.6 98.2879 121.847 96.7723L124.787 98.0366L139.723 104.395L145.457 106.835L157.196 111.767C157.603 111.949 157.948 112.245 158.19 112.62C158.431 112.994 158.558 113.431 158.555 113.877Z" fill="#6E71FF"/>
<path d="M127.123 145.52C127.117 146.048 126.928 146.557 126.59 146.962C126.251 147.367 125.783 147.643 125.265 147.743C124.747 147.843 124.21 147.761 123.745 147.512C123.28 147.262 122.916 146.86 122.713 146.373L118.339 135.347L116.031 129.606L110.224 114.986L109.07 112.046C110.519 111.537 111.901 110.856 113.187 110.017L114.377 112.957L120.258 127.747L122.544 133.517L126.954 144.631C127.069 144.913 127.126 145.215 127.123 145.52Z" fill="#6E71FF"/>
<path d="M84.8452 101.756L81.9491 102.991C83.9517 107.408 87.3158 111.068 91.5489 113.436L92.747 110.496C89.281 108.459 86.5231 105.409 84.8452 101.756ZM120.591 101.182C119.066 104.797 116.489 107.87 113.196 110.003L114.387 112.943C118.445 110.466 121.629 106.783 123.494 102.41L120.591 101.182ZM123.384 84.5776L120.378 85.5479C121.98 89.0471 122.507 92.9435 121.892 96.7427L124.832 98.007C125.11 96.5731 125.25 95.116 125.251 93.6555C125.269 90.5324 124.633 87.4402 123.384 84.5776ZM102.626 70.9865C100.773 70.9858 98.926 71.2129 97.1279 71.6627L98.1864 74.647C99.6326 74.3117 101.112 74.1415 102.597 74.1399C103.735 74.1406 104.871 74.239 105.993 74.4339L107.051 71.4275C105.585 71.1314 104.093 70.9836 102.597 70.9865H102.626ZM84.2498 80.3952L87.4252 81.4169C89.1793 79.2413 91.3769 77.4647 93.8717 76.2054L92.8132 73.221C89.3996 74.8618 86.4489 77.3275 84.2278 80.3952H84.2498ZM111.447 72.78L110.403 75.7643C113.338 77.0431 115.913 79.0248 117.901 81.5345L121.061 80.5054C118.622 77.0922 115.287 74.4189 111.425 72.78H111.447ZM109.102 112.054C105.191 113.432 100.944 113.529 96.9736 112.333L95.7754 115.273C100.502 116.772 105.589 116.677 110.256 115.001L109.102 112.054ZM84.9187 85.4302L81.9124 84.4526C80.6151 87.3468 79.9486 90.4839 79.9571 93.6555C79.9563 95.3295 80.1412 96.9985 80.5084 98.6318L83.4486 97.3675C83.2179 96.1559 83.0997 94.9256 83.0958 93.6922C83.0834 90.8395 83.6982 88.019 84.8967 85.4302H84.9187Z" fill="url(#paint1_linear)"/>
<path d="M157.195 111.767L145.507 106.82C148.464 97.2956 148.145 87.0557 144.603 77.7337L157.239 73.6541C157.766 73.4909 158.217 73.1423 158.507 72.6727C158.798 72.203 158.908 71.6441 158.819 71.0993C158.729 70.5544 158.445 70.0604 158.02 69.7085C157.594 69.3566 157.056 69.1707 156.504 69.185C156.254 69.1788 156.005 69.2161 155.769 69.2953L142.685 73.5145C137.646 63.5869 129.094 55.8891 118.693 51.9187L124.161 36.3576C124.263 36.0724 124.307 35.77 124.291 35.4677C124.275 35.1655 124.2 34.8693 124.069 34.5962C123.939 34.323 123.756 34.0783 123.531 33.8761C123.306 33.6738 123.043 33.5179 122.757 33.4174C122.52 33.3365 122.273 33.2919 122.022 33.2851C121.547 33.2859 121.084 33.4341 120.697 33.7093C120.31 33.9844 120.018 34.373 119.861 34.8214L114.356 50.5C106.259 48.3583 97.724 48.5366 89.7241 51.0145L83.8437 34.4612C83.6174 33.9197 83.1921 33.4855 82.6554 33.2481C82.1187 33.0107 81.5113 32.9881 80.9585 33.185C80.4056 33.3818 79.9492 33.7832 79.6833 34.3063C79.4173 34.8295 79.3621 35.4348 79.529 35.9974L85.4094 52.6096C75.7374 56.7658 67.8406 64.1993 63.1079 73.6027L49.73 69.2806C49.4932 69.2014 49.2445 69.1641 48.9949 69.1703C48.4495 69.1679 47.921 69.36 47.5044 69.7121C47.0878 70.0642 46.8103 70.5532 46.7218 71.0915C46.6333 71.6297 46.7395 72.1819 47.0214 72.6488C47.3033 73.1158 47.7424 73.467 48.2599 73.6394L61.2041 77.8145C57.6543 87.2171 57.3952 97.545 60.4691 107.114L49.5315 111.767C49.1175 111.942 48.7643 112.236 48.516 112.611C48.2676 112.986 48.1351 113.426 48.1349 113.876C48.1392 114.184 48.2016 114.488 48.3187 114.773C48.5583 115.331 49.0088 115.772 49.5719 115.999C50.1351 116.226 50.7653 116.221 51.325 115.986L62.0935 111.406C66.3256 121.028 73.8097 128.853 83.2336 133.509L78.0148 146.512C77.8851 146.794 77.8136 147.098 77.8048 147.408C77.796 147.717 77.8499 148.025 77.9634 148.313C78.0769 148.602 78.2475 148.864 78.465 149.084C78.6825 149.304 78.9425 149.479 79.2291 149.596C79.5157 149.713 79.823 149.771 80.1326 149.766C80.4422 149.761 80.7477 149.694 81.0305 149.568C81.3134 149.442 81.5678 149.26 81.7784 149.033C81.989 148.806 82.1515 148.539 82.256 148.247L87.5337 135.354C97.4668 139.026 108.383 139.04 118.325 135.391L122.699 146.417C122.901 146.904 123.266 147.306 123.731 147.556C124.196 147.806 124.733 147.887 125.251 147.787C125.769 147.687 126.237 147.411 126.575 147.006C126.914 146.601 127.102 146.092 127.109 145.564C127.106 145.274 127.049 144.988 126.94 144.719L122.529 133.605C132.097 128.904 139.673 120.944 143.897 111.156L155.357 116.03C155.917 116.265 156.547 116.27 157.11 116.043C157.673 115.816 158.124 115.375 158.363 114.817C158.48 114.532 158.543 114.228 158.547 113.92C158.559 113.468 158.437 113.022 158.197 112.639C157.956 112.256 157.607 111.952 157.195 111.767ZM139.774 104.365L124.852 97.9991L121.912 96.7348C121.666 98.2503 121.239 99.731 120.64 101.145L123.581 102.38L138.282 108.65C134.707 116.922 128.352 123.683 120.317 127.761L114.437 112.972L113.246 110.032C111.96 110.871 110.578 111.552 109.129 112.061L110.284 115.001L116.032 129.606C107.582 132.679 98.3206 132.679 89.8711 129.606L95.7516 115.265L96.9497 112.325C95.4788 111.882 94.067 111.263 92.7452 110.48L91.5471 113.42L85.6666 127.761C77.7468 123.734 71.4587 117.098 67.8637 108.973L81.9399 102.983L84.836 101.748C84.1899 100.34 83.7161 98.859 83.4247 97.3375L80.4845 98.6018L66.276 104.644C63.7862 96.4425 64.1175 87.6432 67.2168 79.6522L81.9179 84.3859L84.9242 85.3635C85.5979 83.9312 86.4393 82.584 87.4308 81.3501L84.2553 80.3284L69.1721 75.455C73.2254 67.8777 79.6929 61.8708 87.5484 58.3871L92.7966 73.1543L93.8551 76.1386C95.224 75.4501 96.67 74.9269 98.1625 74.5803L97.104 71.596L91.8337 56.8362C98.4957 54.8129 105.583 54.6427 112.334 56.3437L107.049 71.4049L105.991 74.4113C107.509 74.6772 108.989 75.1239 110.401 75.7417L111.445 72.7574L116.723 57.7256C125.307 61.0388 132.424 67.3112 136.789 75.4109L121.059 80.4828L117.899 81.5119C118.882 82.7445 119.711 84.0922 120.368 85.5252L123.375 84.555L138.701 79.6228C141.784 87.5246 142.161 96.2255 139.774 104.365Z" fill="url(#paint2_linear)"/>
<path d="M108.682 97.1028C108.682 97.1542 106.822 102.079 102.721 102.616V88.6497C103.853 88.3719 104.843 87.686 105.501 86.7236C106.159 85.7611 106.438 84.5897 106.286 83.4339C106.133 82.2781 105.56 81.2191 104.675 80.4599C103.791 79.7007 102.657 79.2947 101.491 79.3197C100.326 79.3447 99.2103 79.7989 98.3589 80.5953C97.5075 81.3917 96.98 82.4742 96.8773 83.6355C96.7746 84.7968 97.1041 85.9551 97.8026 86.8885C98.5011 87.8219 99.5195 88.4647 100.663 88.6938V102.858C96.9505 102.483 94.5175 97.3453 94.4955 97.2939L93.562 97.7276L92.6211 98.1613C92.7534 98.4479 95.8112 104.938 101.067 104.938C101.309 104.938 101.552 104.938 101.802 104.902L102.713 104.791V104.725C108.226 104.225 110.512 98.1098 110.615 97.8305L108.682 97.1028ZM98.9131 84.0336C98.9117 83.5041 99.0674 82.9861 99.3605 82.5451C99.6536 82.1041 100.071 81.7601 100.56 81.5564C101.048 81.3528 101.587 81.2987 102.106 81.4012C102.626 81.5036 103.103 81.7578 103.478 82.1317C103.853 82.5056 104.108 82.9823 104.212 83.5015C104.316 84.0207 104.264 84.5591 104.061 85.0484C103.859 85.5377 103.516 85.9561 103.076 86.2504C102.636 86.5447 102.118 86.7018 101.589 86.7018C100.88 86.7018 100.201 86.4209 99.6994 85.9207C99.1978 85.4206 98.9151 84.7419 98.9131 84.0336Z" fill="#6E71FF"/>
<path d="M168.134 190.84C165.402 192.924 162.515 194.812 159.498 196.488C146.953 203.441 132.424 206.364 118.008 207.477C89.8816 209.675 60.4972 205.074 36.4004 191.126L103.335 172.467L168.134 190.84Z" fill="#6E71FF"/>
<path d="M168.134 190.84C165.402 192.924 162.515 194.812 159.498 196.488C146.953 203.441 132.424 206.364 118.008 207.477C89.8816 209.675 60.4972 205.074 36.4004 191.126L103.335 172.467L168.134 190.84Z" fill="url(#paint3_linear)"/>
<defs>
<linearGradient id="paint0_linear" x1="103.333" y1="2.99444" x2="-41.5205" y2="151.61" gradientUnits="userSpaceOnUse">
<stop stop-opacity="0"/>
<stop offset="0.932855" stop-opacity="0.75"/>
<stop offset="1"/>
</linearGradient>
<linearGradient id="paint1_linear" x1="101.531" y1="14.4757" x2="103.854" y2="187.566" gradientUnits="userSpaceOnUse">
<stop offset="0.02" stop-color="white" stop-opacity="0"/>
<stop offset="0.39" stop-color="white" stop-opacity="0.39"/>
<stop offset="1" stop-color="white"/>
</linearGradient>
<linearGradient id="paint2_linear" x1="102.933" y1="-59.3857" x2="86.167" y2="173.217" gradientUnits="userSpaceOnUse">
<stop offset="0.38383" stop-opacity="0.75"/>
<stop offset="0.908533" stop-opacity="0"/>
</linearGradient>
<linearGradient id="paint3_linear" x1="102.017" y1="130.052" x2="99.9528" y2="241.199" gradientUnits="userSpaceOnUse">
<stop stop-opacity="0"/>
<stop offset="0.932855" stop-opacity="0.75"/>
<stop offset="1"/>
</linearGradient>
</defs>
</svg>
