<svg width="208" height="209" viewBox="0 0 208 209" fill="none" xmlns="http://www.w3.org/2000/svg">
<path opacity="0.18" d="M6.14958 97.5189C10.2149 88.0005 16.3406 78.2419 22.037 73.5176C27.7333 68.7933 97.9333 0.137499 130.369 0.137695C162.804 0.137892 157.221 9.07175 169.134 18.7183C183.668 30.4796 196.101 50.6283 198.286 74.9613C199.803 91.6609 196.465 108.952 199.106 125.339C201.125 137.884 206.526 148.967 207.755 161.735C209.17 176.387 204.354 191.956 195.941 199.936C187.528 207.917 176.901 208.143 166.921 207.717C140.746 206.586 156.54 198.981 88.4536 207.34C20.3667 215.698 2.56506 155.62 2.56506 155.62C-1.45703 136.452 -1.09832 114.482 6.14958 97.5189Z" fill="#6E71FF"/>
<path d="M123.517 135.699H87.6904V163.563H123.517V135.699Z" fill="#6E71FF"/>
<path d="M123.517 135.699H87.6904V163.563H123.517V135.699Z" fill="url(#paint0_linear)"/>
<path d="M179.929 72.2836V143.419C179.929 146.005 178.901 148.485 177.073 150.314C175.244 152.142 172.764 153.169 170.178 153.169H47.0189C44.433 153.169 41.953 152.141 40.1243 150.313C38.2956 148.485 37.2677 146.005 37.2666 143.419V72.2836C37.2666 69.6977 38.2939 67.2176 40.1224 65.3891C41.9509 63.5606 44.4309 62.5333 47.0169 62.5333H170.178C171.458 62.5328 172.726 62.7843 173.908 63.2736C175.091 63.7629 176.166 64.4804 177.071 65.385C177.977 66.2897 178.695 67.3638 179.185 68.546C179.675 69.7283 179.928 70.9955 179.929 72.2754V72.2836Z" fill="#6E71FF"/>
<path d="M179.928 72.2839V143.419C179.928 146.005 178.901 148.485 177.072 150.314C175.244 152.142 172.764 153.17 170.178 153.17H47.0183C44.8726 153.174 42.7858 152.468 41.083 151.162C39.775 149.46 39.0688 147.373 39.0752 145.227V74.0993C39.0752 71.5134 40.1025 69.0334 41.931 67.2048C43.7596 65.3763 46.2396 64.349 48.8255 64.349H171.995C174.141 64.3426 176.229 65.0488 177.93 66.3568C179.232 68.0579 179.934 70.1419 179.928 72.2839Z" fill="url(#paint1_linear)"/>
<path d="M179.929 135.699V143.419C179.929 146.005 178.901 148.485 177.073 150.314C175.244 152.142 172.764 153.17 170.178 153.17H47.0189C45.7385 153.17 44.4705 152.918 43.2875 152.428C42.1044 151.939 41.0294 151.221 40.1238 150.315C39.2182 149.41 38.4998 148.335 38.0096 147.153C37.5193 145.97 37.2669 144.702 37.2666 143.421V135.699H179.929Z" fill="url(#paint2_linear)"/>
<path d="M136.109 164.281C136.111 164.595 136.053 164.907 135.937 165.2C135.753 165.683 135.426 166.098 135 166.39C134.575 166.683 134.07 166.839 133.553 166.837H77.6793C77.163 166.837 76.6587 166.681 76.2331 166.389C75.8074 166.096 75.4804 165.682 75.295 165.2C75.1798 164.907 75.1215 164.595 75.1231 164.281C75.1228 163.945 75.1886 163.613 75.3167 163.303C75.4448 162.993 75.6328 162.712 75.8697 162.474C76.1067 162.237 76.3882 162.048 76.698 161.92C77.0077 161.791 77.3398 161.725 77.6753 161.725H133.549C133.885 161.724 134.217 161.79 134.527 161.918C134.838 162.046 135.12 162.233 135.358 162.47C135.595 162.707 135.784 162.989 135.913 163.299C136.042 163.609 136.109 163.941 136.109 164.277V164.281Z" fill="#6E71FF"/>
<path d="M136.109 164.281C136.111 164.595 136.053 164.907 135.937 165.2C135.753 165.683 135.426 166.098 135 166.39C134.575 166.683 134.07 166.839 133.553 166.837H77.6793C77.163 166.837 76.6587 166.681 76.2331 166.389C75.8074 166.096 75.4804 165.682 75.295 165.2C75.1798 164.907 75.1215 164.595 75.1231 164.281C75.1228 163.945 75.1886 163.613 75.3167 163.303C75.4448 162.993 75.6328 162.712 75.8697 162.474C76.1067 162.237 76.3882 162.048 76.698 161.92C77.0077 161.791 77.3398 161.725 77.6753 161.725H133.549C133.885 161.724 134.217 161.79 134.527 161.918C134.838 162.046 135.12 162.233 135.358 162.47C135.595 162.707 135.784 162.989 135.913 163.299C136.042 163.609 136.109 163.941 136.109 164.277V164.281Z" fill="url(#paint3_linear)"/>
<path d="M135.928 165.199C135.744 165.682 135.418 166.097 134.992 166.39C134.566 166.682 134.061 166.838 133.544 166.837H77.6705C77.1541 166.837 76.6499 166.68 76.2242 166.388C75.7986 166.096 75.4715 165.681 75.2861 165.199C75.413 164.865 75.6097 164.561 75.8633 164.309C76.1004 164.071 76.3821 163.883 76.6922 163.754C77.0023 163.626 77.3348 163.56 77.6705 163.56H133.544C134.061 163.56 134.565 163.717 134.991 164.01C135.416 164.302 135.743 164.717 135.928 165.199Z" fill="#6E71FF"/>
<path d="M58.7654 101.203C58.7646 104.06 59.8633 106.808 61.8336 108.877C63.8039 110.946 66.4949 112.178 69.3486 112.316V117.859C65.0216 117.723 60.9173 115.909 57.9045 112.8C54.8918 109.691 53.207 105.532 53.207 101.203C53.207 96.8741 54.8918 92.7149 57.9045 89.6062C60.9173 86.4974 65.0216 84.6832 69.3486 84.5475V90.0898C66.4949 90.2286 63.8039 91.4601 61.8336 93.5292C59.8633 95.5982 58.7646 98.346 58.7654 101.203Z" fill="url(#paint4_linear)" fill-opacity="0.15"/>
<path d="M86.5556 101.203C86.558 103.645 86.0225 106.058 84.9871 108.27C83.9518 110.482 82.442 112.438 80.5651 114.001L76.9896 109.768C78.7513 108.307 80.0196 106.338 80.6217 104.13C81.2238 101.922 81.1303 99.5821 80.3541 97.429C79.5778 95.2759 78.1565 93.4145 76.2839 92.0986C74.4113 90.7826 72.1785 90.0761 69.8897 90.0754C69.7096 90.0754 69.5316 90.0754 69.3535 90.0897V84.5637H69.8897C74.305 84.5643 78.5397 86.3166 81.6643 89.4362C84.7889 92.5558 86.548 96.7877 86.5556 101.203Z" fill="url(#paint5_linear)" fill-opacity="0.75"/>
<path d="M80.5651 114.009C77.5725 116.514 73.7924 117.884 69.8897 117.877C69.7096 117.877 69.5316 117.877 69.3535 117.867V112.325C69.5316 112.325 69.7096 112.337 69.8897 112.337C72.4831 112.341 74.9956 111.435 76.9896 109.777L80.5651 114.009Z" fill="url(#paint6_linear)"/>
<path d="M169.112 105.511H99.1084V105.919H169.112V105.511Z" fill="url(#paint7_linear)"/>
<path d="M98.3428 90.8671C98.3428 90.8671 111.66 88.8757 115.027 82.9076C118.394 76.9396 125.283 75.5602 130.786 86.8863C136.29 98.2125 145.176 99.285 148.388 95.4577C151.599 91.6305 155.735 77.8565 161.398 77.5495C167.061 77.2425 169.104 88.2637 169.104 88.2637V102.193H99.1082L98.3428 90.8671Z" fill="#6E71FF"/>
<path d="M120.844 111.023H99.6182V112.554H120.844V111.023Z" fill="url(#paint8_linear)" fill-opacity="0.55"/>
<path d="M120.844 115.532H99.6182V117.063H120.844V115.532Z" fill="url(#paint9_linear)"/>
<path d="M120.844 120.04H99.6182V121.571H120.844V120.04Z" fill="url(#paint10_linear)"/>
<path d="M133.191 111.023H130.539V112.554H133.191V111.023Z" fill="url(#paint11_linear)" fill-opacity="0.55"/>
<path d="M133.191 115.532H130.539V117.063H133.191V115.532Z" fill="url(#paint12_linear)"/>
<path d="M133.191 120.04H130.539V121.571H133.191V120.04Z" fill="url(#paint13_linear)"/>
<defs>
<linearGradient id="paint0_linear" x1="105.384" y1="133.892" x2="105.799" y2="163.522" gradientUnits="userSpaceOnUse">
<stop offset="0.01"/>
<stop offset="0.97" stop-color="#3F3D56" stop-opacity="0"/>
</linearGradient>
<linearGradient id="paint1_linear" x1="111.22" y1="139.551" x2="105.42" y2="35.5404" gradientUnits="userSpaceOnUse">
<stop offset="0.03" stop-color="white" stop-opacity="0"/>
<stop offset="1" stop-color="white"/>
</linearGradient>
<linearGradient id="paint2_linear" x1="59.8532" y1="123.035" x2="237.782" y2="186.325" gradientUnits="userSpaceOnUse">
<stop stop-opacity="0"/>
<stop offset="0.87783" stop-opacity="0.75"/>
<stop offset="1"/>
</linearGradient>
<linearGradient id="paint3_linear" x1="24.9909" y1="164.171" x2="148.453" y2="180.042" gradientUnits="userSpaceOnUse">
<stop offset="0.01"/>
<stop offset="0.97" stop-color="#3F3D56" stop-opacity="0"/>
</linearGradient>
<linearGradient id="paint4_linear" x1="4260.35" y1="13526.3" x2="35.0377" y2="13573.4" gradientUnits="userSpaceOnUse">
<stop stop-color="white" stop-opacity="0"/>
<stop offset="1" stop-color="white"/>
</linearGradient>
<linearGradient id="paint5_linear" x1="4552.92" y1="11963" x2="50.2438" y2="12023.4" gradientUnits="userSpaceOnUse">
<stop offset="0.03" stop-color="white" stop-opacity="0"/>
<stop offset="1" stop-color="white"/>
</linearGradient>
<linearGradient id="paint6_linear" x1="2266.82" y1="3160.17" x2="2653" y2="4518.29" gradientUnits="userSpaceOnUse">
<stop offset="0.03" stop-color="white" stop-opacity="0.44"/>
<stop offset="0.927083" stop-color="white"/>
</linearGradient>
<linearGradient id="paint7_linear" x1="120.686" y1="75.0804" x2="139.793" y2="118.686" gradientUnits="userSpaceOnUse">
<stop stop-color="white" stop-opacity="0"/>
<stop offset="1" stop-color="white"/>
</linearGradient>
<linearGradient id="paint8_linear" x1="8635.39" y1="477.39" x2="8635.72" y2="852.502" gradientUnits="userSpaceOnUse">
<stop offset="0.03" stop-color="white" stop-opacity="0.55"/>
<stop offset="1" stop-color="white"/>
</linearGradient>
<linearGradient id="paint9_linear" x1="110.101" y1="105.806" x2="110.723" y2="155.947" gradientUnits="userSpaceOnUse">
<stop offset="0.03" stop-color="white" stop-opacity="0"/>
<stop offset="0.45" stop-color="white" stop-opacity="0.45"/>
<stop offset="1" stop-color="white"/>
</linearGradient>
<linearGradient id="paint10_linear" x1="8667.44" y1="740.809" x2="8667.78" y2="1115.92" gradientUnits="userSpaceOnUse">
<stop offset="0.03" stop-color="white" stop-opacity="0.75"/>
<stop offset="1" stop-color="white"/>
</linearGradient>
<linearGradient id="paint11_linear" x1="1197.19" y1="477.39" x2="1199.87" y2="852.484" gradientUnits="userSpaceOnUse">
<stop offset="0.03" stop-color="white" stop-opacity="0.55"/>
<stop offset="1" stop-color="white"/>
</linearGradient>
<linearGradient id="paint12_linear" x1="131.849" y1="105.806" x2="136.78" y2="155.465" gradientUnits="userSpaceOnUse">
<stop offset="0.03" stop-color="white" stop-opacity="0"/>
<stop offset="0.45" stop-color="white" stop-opacity="0.45"/>
<stop offset="1" stop-color="white"/>
</linearGradient>
<linearGradient id="paint13_linear" x1="1201.19" y1="740.809" x2="1203.88" y2="1115.9" gradientUnits="userSpaceOnUse">
<stop offset="0.03" stop-color="white" stop-opacity="0.75"/>
<stop offset="1" stop-color="white"/>
</linearGradient>
</defs>
</svg>
