<svg width="208" height="208" viewBox="0 0 208 208" fill="none" xmlns="http://www.w3.org/2000/svg">
<path opacity="0.18" d="M6.14958 97.3812C10.2149 87.8628 16.3406 78.1042 22.037 73.3799C27.7333 68.6556 97.9333 -0.000196308 130.369 0C162.804 0.000196314 157.221 8.93405 169.134 18.5806C183.668 30.3419 196.101 50.4906 198.286 74.8236C199.803 91.5232 196.465 108.815 199.106 125.201C201.125 137.747 206.526 148.829 207.755 161.597C209.17 176.25 204.354 191.818 195.941 199.799C187.528 207.779 176.901 208.005 166.921 207.579C140.746 206.448 156.54 198.844 88.4536 207.202C20.3667 215.561 2.56506 155.483 2.56506 155.483C-1.45703 136.314 -1.09832 114.345 6.14958 97.3812Z" fill="#6E71FF"/>
<path d="M108 179C142.242 179 170 151.242 170 117C170 82.7583 142.242 55 108 55C73.7583 55 46 82.7583 46 117C46 151.242 73.7583 179 108 179Z" fill="#6E71FF"/>
<path d="M115.129 178.59C146.012 175.054 170 148.83 170 117C170 116.681 169.993 116.363 169.988 116.045L133.905 79.9618L123.118 80.8724L114.9 72.655L96.8906 160.352L115.129 178.59Z" fill="#6E71FF"/>
<path d="M115.129 178.59C146.012 175.054 170 148.83 170 117C170 116.681 169.993 116.363 169.988 116.045L133.905 79.9618L123.118 80.8724L114.9 72.655L96.8906 160.352L115.129 178.59Z" fill="url(#paint0_linear)" fill-opacity="0.7"/>
<path d="M116.224 136.725V77.127C116.224 72.585 112.542 68.9033 108 68.9033C103.458 68.9033 99.7763 72.5852 99.7763 77.127V136.725C95.4772 139.452 92.6211 144.25 92.6211 149.718C92.6211 158.211 99.5065 165.097 108 165.097C116.494 165.097 123.379 158.211 123.379 149.718C123.379 144.25 120.523 139.452 116.224 136.725Z" fill="url(#paint1_linear)"/>
<path d="M116.223 136.725V77.127C116.223 72.585 112.541 68.9033 108 68.9033C107.972 68.9033 107.946 68.905 107.919 68.9052V165.095C107.946 165.095 107.972 165.097 108 165.097C116.493 165.097 123.378 158.211 123.378 149.718C123.378 144.25 120.523 139.452 116.223 136.725Z" fill="url(#paint2_linear)"/>
<path d="M111.955 142.209V109.008H104.044V142.209C101.033 143.677 98.958 146.766 98.958 150.341C98.9583 155.335 103.006 159.383 108 159.383C112.994 159.383 117.041 155.335 117.041 150.341C117.041 146.766 114.966 143.677 111.955 142.209Z" fill="#6E71FF"/>
<path d="M111.955 142.209V109.008H107.919V159.381C107.946 159.381 107.972 159.383 108 159.383C112.993 159.383 117.041 155.335 117.041 150.341C117.041 146.766 114.966 143.677 111.955 142.209Z" fill="#6E71FF"/>
<path d="M112.34 81.04V124.355V146.757L103.834 146.76C103.775 146.76 103.718 146.758 103.66 146.757V81.04H112.34Z" fill="#6E71FF"/>
<path d="M125.519 92.5537C131.738 94.064 137.97 89.8558 138.149 83.8226C138.188 82.544 138.006 81.2802 137.722 80.031C137.553 79.2874 136.551 79.1737 136.206 79.8537C136.197 79.8723 136.187 79.8906 136.178 79.9089C135.561 81.0828 134.491 81.0957 133.851 79.934C131.593 75.8339 131.815 69.8977 132.09 67.0483C132.157 66.3536 131.37 65.9056 130.807 66.318C126.5 69.4703 125.808 74.8731 125.775 77.7861C125.765 78.6734 124.541 78.8992 124.214 78.0747C123.775 76.971 123.548 75.5337 123.432 74.3817C123.356 73.6351 122.392 73.3845 121.963 73.9999C119.903 76.9543 120.468 79.4512 121.314 81.2024C121.63 81.8552 120.997 82.5663 120.316 82.3187C119.779 82.1235 119.194 81.8096 118.665 81.306C118.124 80.7901 117.231 81.225 117.304 81.9692C117.652 85.5182 119.229 91.0265 125.519 92.5537Z" fill="url(#paint3_linear)"/>
<path d="M131.307 85.3193C130.32 83.3313 130.243 80.8327 130.286 79.5208C130.295 79.2262 129.924 79.0911 129.741 79.3218C127.712 81.8729 127.626 84.1849 127.836 85.5225C127.882 85.8167 127.528 86.0006 127.314 85.7937C126.568 85.0734 126.075 84.7725 125.703 84.6086C125.287 84.4255 124.81 84.6651 124.697 85.1051C124.039 87.6533 125.997 88.9693 125.997 88.9693C127.219 90.1521 130.048 90.1477 131.157 88.6426C131.75 87.8382 132.011 86.7368 131.307 85.3193Z" fill="#6E71FF"/>
<defs>
<linearGradient id="paint0_linear" x1="83.2003" y1="65.23" x2="142.41" y2="187.99" gradientUnits="userSpaceOnUse">
<stop/>
<stop offset="1" stop-opacity="0"/>
</linearGradient>
<linearGradient id="paint1_linear" x1="108" y1="68.9033" x2="108" y2="165.097" gradientUnits="userSpaceOnUse">
<stop stop-color="white"/>
<stop offset="0.9999" stop-color="white"/>
<stop offset="1" stop-color="white" stop-opacity="0"/>
</linearGradient>
<linearGradient id="paint2_linear" x1="115.649" y1="68.9033" x2="115.649" y2="165.097" gradientUnits="userSpaceOnUse">
<stop offset="0.9999" stop-color="white"/>
<stop offset="1" stop-color="white" stop-opacity="0"/>
</linearGradient>
<linearGradient id="paint3_linear" x1="127.727" y1="66.16" x2="127.865" y2="94.2564" gradientUnits="userSpaceOnUse">
<stop offset="0.9999" stop-color="white"/>
<stop offset="1" stop-color="white" stop-opacity="0"/>
</linearGradient>
</defs>
</svg>
