<svg width="208" height="208" viewBox="0 0 208 208" fill="none" xmlns="http://www.w3.org/2000/svg">
<path opacity="0.18" d="M15.9833 177.378C18.4129 179.312 21.0658 180.891 23.8743 182.076C28.7357 184.121 33.914 185.037 38.903 186.613C41.1176 187.305 43.291 188.145 45.4232 189.06C58.3362 194.575 70.1871 203.324 83.7709 206.517C108.942 212.478 133.27 198.925 157.33 193.178C177.944 188.265 194.698 200.01 203.021 164.472C206.499 149.678 210.805 134.012 205.54 119.816C200.275 105.62 192.862 92.5085 187.84 78.2407C180.669 57.8639 178.014 34.388 163.903 18.8386C154.131 8.0719 140.165 2.87389 126.33 1.02957C112.495 -0.814744 98.4868 0.368654 84.5572 0.431173C67.779 0.489226 49.9059 -0.787951 35.3959 8.37557C30.2785 11.6579 25.8677 16.0903 22.4598 21.3748C19.0518 26.6594 16.7257 32.6739 15.6375 39.0144C12.7561 56.5153 19.5974 74.6593 16.5226 92.1289C13.6699 108.393 2.52705 122.004 0.349518 138.402C-1.62631 153.165 4.93507 168.652 15.9833 177.378Z" fill="#6E71FF"/>
<path d="M157.374 58.6069H147.037C145.107 58.6069 143.591 60.1229 143.591 62.0527V96.5108C143.591 98.4407 145.107 99.9566 147.037 99.9566H157.374C159.304 99.9566 160.82 98.4407 160.82 96.5108V62.0527C160.82 60.1229 159.304 58.6069 157.374 58.6069Z" fill="url(#paint0_linear)"/>
<path d="M62.9508 46H56.5995C55.4138 46 54.4824 47.5092 54.4824 49.4305V83.7354C54.4824 85.6567 55.4138 87.1659 56.5995 87.1659H62.9508C64.1366 87.1659 65.0679 85.6567 65.0679 83.7354V49.4305C65.0679 47.5092 64.1366 46 62.9508 46Z" fill="url(#paint1_linear)"/>
<path d="M90.7087 58.9377H82.946C81.4968 58.9377 80.3584 60.4469 80.3584 62.3682V96.6732C80.3584 98.5945 81.4968 100.104 82.946 100.104H90.7087C92.1579 100.104 93.2963 98.5945 93.2963 96.6732V62.3682C93.2963 60.4469 92.1579 58.9377 90.7087 58.9377Z" fill="url(#paint2_linear)"/>
<path d="M104.823 58.9377H97.0602C95.611 58.9377 94.4727 60.4469 94.4727 62.3682V96.6732C94.4727 98.5945 95.611 100.104 97.0602 100.104H104.823C106.272 100.104 107.411 98.5945 107.411 96.6732V62.3682C107.411 60.4469 106.272 58.9377 104.823 58.9377Z" fill="url(#paint3_linear)"/>
<path d="M118.936 58.9377H111.174C109.724 58.9377 108.586 60.4469 108.586 62.3682V96.6732C108.586 98.5945 109.724 100.104 111.174 100.104H118.936C120.385 100.104 121.524 98.5945 121.524 96.6732V62.3682C121.524 60.4469 120.385 58.9377 118.936 58.9377Z" fill="url(#paint4_linear)"/>
<path d="M133.05 58.9377H125.288C123.839 58.9377 122.7 60.4469 122.7 62.3682V96.6732C122.7 98.5945 123.839 100.104 125.288 100.104H133.05C134.5 100.104 135.638 98.5945 135.638 96.6732V62.3682C135.638 60.4469 134.5 58.9377 133.05 58.9377Z" fill="url(#paint5_linear)"/>
<path d="M76.5944 58.9377H68.8317C67.3825 58.9377 66.2441 60.4469 66.2441 62.3682V96.6732C66.2441 98.5945 67.3825 100.104 68.8317 100.104H76.5944C78.0436 100.104 79.182 98.5945 79.182 96.6732V62.3682C79.182 60.4469 78.0436 58.9377 76.5944 58.9377Z" fill="url(#paint6_linear)"/>
<path d="M136.699 82.7278C136.699 80.7979 135.183 79.282 133.254 79.282H126.362C124.432 79.282 122.916 80.7979 122.916 82.7278C122.916 88.4481 118.299 93.0652 112.579 93.0652H78.1206C72.4004 93.0652 67.7832 88.4481 67.7832 82.7278C67.7832 80.7979 66.2673 79.282 64.3374 79.282H57.4458C55.5159 79.282 54 80.7979 54 82.7278V145.212C54 148.202 57.4272 149.623 59.5822 147.899L95.3497 122.056L131.117 147.899C133.437 149.703 136.699 148.076 136.699 145.212V82.7278Z" fill="#6E71FF"/>
<path d="M136.699 82.7278C136.699 80.7979 135.183 79.282 133.254 79.282H126.362C124.432 79.282 122.916 80.7979 122.916 82.7278C122.916 88.4481 118.299 93.0652 112.579 93.0652H78.1206C72.4004 93.0652 67.7832 88.4481 67.7832 82.7278C67.7832 80.7979 66.2673 79.282 64.3374 79.282H57.4458C55.5159 79.282 54 80.7979 54 82.7278V145.212C54 148.202 57.4272 149.623 59.5822 147.899L95.3497 122.056L131.117 147.899C133.437 149.703 136.699 148.076 136.699 145.212V82.7278Z" fill="url(#paint7_linear)" fill-opacity="0.8"/>
<path d="M136.699 82.7278V145.212C136.699 148.052 133.447 149.712 131.117 147.899L95.3496 122.056V93.0652H112.579C118.299 93.0652 122.916 88.4481 122.916 82.7278C122.916 80.7979 124.432 79.282 126.362 79.282H133.253C135.183 79.282 136.699 80.7979 136.699 82.7278Z" fill="#6E71FF"/>
<path d="M136.699 82.7278V145.212C136.699 148.052 133.447 149.712 131.117 147.899L95.3496 122.056V93.0652H112.579C118.299 93.0652 122.916 88.4481 122.916 82.7278C122.916 80.7979 124.432 79.282 126.362 79.282H133.253C135.183 79.282 136.699 80.7979 136.699 82.7278Z" fill="url(#paint8_linear)" fill-opacity="0.7"/>
<path d="M97.4861 114.958C96.8656 114.475 96.1078 114.199 95.3497 114.199C94.5916 114.199 93.8338 114.475 93.2133 114.958L54 143.558V158.995C54 160.925 55.5159 162.441 57.4458 162.441H133.254C135.183 162.441 136.699 160.925 136.699 158.995V143.558L97.4861 114.958Z" fill="#6E71FF"/>
<path d="M136.699 143.558V158.995C136.699 160.925 135.183 162.441 133.253 162.441H95.3496V114.199C96.1077 114.199 96.8655 114.475 97.486 114.958L136.699 143.558Z" fill="#6E71FF"/>
<path d="M136.699 143.558V158.995C136.699 160.925 135.183 162.441 133.253 162.441H95.3496V114.199C96.1077 114.199 96.8655 114.475 97.486 114.958L136.699 143.558Z" fill="url(#paint9_linear)"/>
<path d="M143.591 93.0652V158.995C143.591 160.925 145.107 162.441 147.037 162.441H157.374C159.304 162.441 160.82 160.925 160.82 158.995V93.0652H143.591Z" fill="#6E71FF"/>
<path d="M143.591 93.0652V158.995C143.591 160.925 145.107 162.441 147.037 162.441H157.374C159.304 162.441 160.82 160.925 160.82 158.995V93.0652H143.591Z" fill="url(#paint10_linear)" fill-opacity="0.8"/>
<path d="M160.82 93.0652V158.995C160.82 160.925 159.304 162.441 157.374 162.441H152.205V93.0652H160.82Z" fill="#6E71FF"/>
<path d="M160.82 93.0652V158.995C160.82 160.925 159.304 162.441 157.374 162.441H152.205V93.0652H160.82Z" fill="url(#paint11_linear)" fill-opacity="0.7"/>
<defs>
<linearGradient id="paint0_linear" x1="152.104" y1="98.9275" x2="152.104" y2="100.104" gradientUnits="userSpaceOnUse">
<stop stop-color="white"/>
<stop offset="1" stop-color="white" stop-opacity="0"/>
</linearGradient>
<linearGradient id="paint1_linear" x1="59.9389" y1="79.9573" x2="59.51" y2="87.1501" gradientUnits="userSpaceOnUse">
<stop stop-color="white"/>
<stop offset="1" stop-color="white" stop-opacity="0"/>
</linearGradient>
<linearGradient id="paint2_linear" x1="87.3379" y1="97.3227" x2="86.477" y2="99.9906" gradientUnits="userSpaceOnUse">
<stop stop-color="white"/>
<stop offset="1" stop-color="white" stop-opacity="0"/>
</linearGradient>
<linearGradient id="paint3_linear" x1="101.452" y1="97.3227" x2="100.591" y2="99.9906" gradientUnits="userSpaceOnUse">
<stop stop-color="white"/>
<stop offset="1" stop-color="white" stop-opacity="0"/>
</linearGradient>
<linearGradient id="paint4_linear" x1="115.565" y1="97.3227" x2="114.704" y2="99.9906" gradientUnits="userSpaceOnUse">
<stop stop-color="white"/>
<stop offset="1" stop-color="white" stop-opacity="0"/>
</linearGradient>
<linearGradient id="paint5_linear" x1="129.68" y1="97.3227" x2="128.819" y2="99.9906" gradientUnits="userSpaceOnUse">
<stop stop-color="white"/>
<stop offset="1" stop-color="white" stop-opacity="0"/>
</linearGradient>
<linearGradient id="paint6_linear" x1="73.2237" y1="97.3227" x2="72.3627" y2="99.9906" gradientUnits="userSpaceOnUse">
<stop stop-color="white"/>
<stop offset="1" stop-color="white" stop-opacity="0"/>
</linearGradient>
<linearGradient id="paint7_linear" x1="95.3497" y1="79.282" x2="92.7079" y2="210.076" gradientUnits="userSpaceOnUse">
<stop stop-color="white"/>
<stop offset="1" stop-color="white" stop-opacity="0"/>
</linearGradient>
<linearGradient id="paint8_linear" x1="115.643" y1="18.9482" x2="115.643" y2="200.078" gradientUnits="userSpaceOnUse">
<stop stop-color="white"/>
<stop offset="1" stop-color="white" stop-opacity="0"/>
</linearGradient>
<linearGradient id="paint9_linear" x1="115.643" y1="98.3396" x2="117.995" y2="171.262" gradientUnits="userSpaceOnUse">
<stop stop-color="#1D1D1D"/>
<stop offset="1" stop-color="#121212" stop-opacity="0"/>
</linearGradient>
<linearGradient id="paint10_linear" x1="152.104" y1="82.4613" x2="152.104" y2="307.109" gradientUnits="userSpaceOnUse">
<stop stop-color="white"/>
<stop offset="1" stop-color="white" stop-opacity="0"/>
</linearGradient>
<linearGradient id="paint11_linear" x1="156.809" y1="72.4639" x2="157.985" y2="233.599" gradientUnits="userSpaceOnUse">
<stop stop-color="white"/>
<stop offset="1" stop-color="white" stop-opacity="0"/>
</linearGradient>
</defs>
</svg>
