<svg width="208" height="208" viewBox="0 0 208 208" fill="none" xmlns="http://www.w3.org/2000/svg">
<path opacity="0.18" d="M15.9833 177.378C18.4129 179.312 21.0658 180.891 23.8743 182.076C28.7357 184.121 33.914 185.037 38.903 186.613C41.1176 187.305 43.291 188.145 45.4232 189.06C58.3362 194.575 70.1871 203.324 83.7709 206.517C108.942 212.478 133.27 198.925 157.33 193.178C177.944 188.265 194.698 200.01 203.021 164.472C206.499 149.678 210.805 134.012 205.54 119.816C200.275 105.62 192.862 92.5085 187.84 78.2407C180.669 57.8639 178.014 34.388 163.903 18.8386C154.131 8.0719 140.165 2.87389 126.33 1.02957C112.495 -0.814744 98.4868 0.368654 84.5572 0.431173C67.779 0.489226 49.9059 -0.787951 35.3959 8.37557C30.2785 11.6579 25.8677 16.0903 22.4598 21.3748C19.0518 26.6594 16.7257 32.6739 15.6375 39.0144C12.7561 56.5153 19.5974 74.6593 16.5226 92.1289C13.6699 108.393 2.52705 122.004 0.349518 138.402C-1.62631 153.165 4.93507 168.652 15.9833 177.378Z" fill="#6E71FF"/>
<path d="M159 107.5C159 122.974 152.78 136.998 142.7 147.2C137.002 152.972 130.07 157.522 122.33 160.421C119.999 161.297 117.591 162.021 115.124 162.584C111.065 163.511 106.84 164 102.5 164C97.5165 164 92.6851 163.354 88.0843 162.144C79.1988 159.808 71.169 155.359 64.5618 149.368C53.1605 139.032 46 124.102 46 107.5C46 76.2959 71.2959 51 102.5 51C133.704 51 159 76.2959 159 107.5Z" fill="#6E71FF"/>
<path d="M146.575 95.0782C146.575 107.15 141.723 118.09 133.859 126.05C129.414 130.553 124.006 134.103 117.968 136.364C116.149 137.048 114.271 137.613 112.346 138.052C109.179 138.775 105.883 139.157 102.497 139.157C98.6094 139.157 94.8403 138.653 91.251 137.708C84.3189 135.886 78.0547 132.415 72.8999 127.741C64.0052 119.678 58.4189 108.03 58.4189 95.0786C58.4189 70.7344 78.1536 51 102.497 51C126.841 51 146.575 70.7344 146.575 95.0782Z" fill="#6E71FF"/>
<path d="M88.085 103.298V162.144C79.1995 159.807 71.1697 155.359 64.5625 149.368V103.298H88.085Z" fill="#6E71FF"/>
<path d="M88.085 103.298V162.143C79.1995 159.807 71.1697 155.359 64.5625 149.368V103.298H88.085Z" fill="url(#paint0_linear)" fill-opacity="0.7"/>
<path d="M87.0456 54.9227V71.8206C87.0456 77.7427 82.2446 82.5437 76.3225 82.5437C70.4004 82.5437 65.5994 77.7427 65.5994 71.8206V54.9227C55.4469 59.1324 48.3047 69.1382 48.3047 80.8136C48.3047 96.2875 60.8488 108.832 76.3227 108.832C91.7967 108.832 104.341 96.2875 104.341 80.8136C104.341 69.1382 97.1986 59.1324 87.0456 54.9227Z" fill="#6E71FF"/>
<path d="M87.0456 54.9227V71.8206C87.0456 77.7427 82.2446 82.5437 76.3225 82.5437C70.4004 82.5437 65.5994 77.7427 65.5994 71.8206V54.9227C55.4469 59.1324 48.3047 69.1382 48.3047 80.8136C48.3047 96.2875 60.8488 108.832 76.3227 108.832C91.7967 108.832 104.341 96.2875 104.341 80.8136C104.341 69.1382 97.1986 59.1324 87.0456 54.9227Z" fill="url(#paint1_linear)"/>
<path d="M68.0602 152.301V106.296L64.5625 106.207V149.368" fill="#6E71FF"/>
<path d="M68.0602 152.301V106.296L64.5625 106.207V149.368" fill="url(#paint2_linear)" fill-opacity="0.39"/>
<path d="M68.1046 106.27C58.482 101.834 51.8024 92.1048 51.8024 80.8138C51.8024 70.5317 57.3431 61.5466 65.5999 56.6728V54.9227C55.4469 59.1326 48.3047 69.1384 48.3047 80.8138C48.3047 93.4113 56.6186 104.067 68.0587 107.593L68.1046 106.27Z" fill="url(#paint3_linear)"/>
<path d="M68.1046 106.27C58.482 101.834 51.8024 92.1048 51.8024 80.8138C51.8024 70.5317 57.3431 61.5466 65.5999 56.6728V54.9227C55.4469 59.1326 48.3047 69.1384 48.3047 80.8138C48.3047 93.4113 56.6186 104.067 68.0587 107.593L68.1046 106.27Z" fill="#6E71FF"/>
<path d="M68.1046 106.27C58.482 101.834 51.8024 92.1048 51.8024 80.8138C51.8024 70.5317 57.3431 61.5466 65.5999 56.6728V54.9227C55.4469 59.1326 48.3047 69.1384 48.3047 80.8138C48.3047 93.4113 56.6186 104.067 68.0587 107.593L68.1046 106.27Z" fill="url(#paint4_linear)"/>
<path d="M135.36 90.2015H126.021V140.357H135.36V90.2015Z" fill="url(#paint5_linear)"/>
<path d="M129.445 90.2015H126.021V140.357H129.445V90.2015Z" fill="#6E71FF"/>
<path d="M129.445 90.2015H126.021V140.357H129.445V90.2015Z" fill="url(#paint6_linear)"/>
<path d="M140.895 79.2478L134.092 56.4185H127.289L120.486 79.2478L126.021 90.8925H135.36L140.895 79.2478Z" fill="url(#paint7_linear)"/>
<path d="M142.701 147.2C135.284 154.711 125.778 160.153 115.124 162.584V155.352C115.124 149.208 120.105 144.23 126.246 144.23H135.134C138.056 144.23 140.715 145.357 142.701 147.2Z" fill="#6E71FF"/>
<path d="M142.701 147.2C135.284 154.711 125.778 160.153 115.124 162.584V155.352C115.124 149.208 120.105 144.23 126.246 144.23H135.134C138.056 144.23 140.715 145.357 142.701 147.2Z" fill="url(#paint8_linear)" fill-opacity="0.8"/>
<path d="M133.453 144.23C127.309 144.23 122.331 149.208 122.331 155.352V160.421C119.999 161.297 117.591 162.021 115.124 162.584V155.352C115.124 149.208 120.105 144.23 126.246 144.23H133.453Z" fill="#6E71FF"/>
<path d="M133.453 144.23C127.309 144.23 122.331 149.208 122.331 155.352V160.421C119.999 161.297 117.591 162.021 115.124 162.584V155.352C115.124 149.208 120.105 144.23 126.246 144.23H133.453Z" fill="url(#paint9_linear)" fill-opacity="0.5"/>
<path d="M129.445 90.8925L122.64 78.9664L128.098 58.4419H134.695L134.092 56.4185H127.289L120.486 79.2478L126.021 90.8925L128.124 92.2139L129.445 90.8925Z" fill="#6E71FF"/>
<path d="M129.445 90.8925L122.64 78.9664L128.098 58.4419H134.695L134.092 56.4185H127.289L120.486 79.2478L126.021 90.8925L128.124 92.2139L129.445 90.8925Z" fill="url(#paint10_linear)"/>
<path d="M142.799 145.382H118.584C116.674 145.382 115.125 143.833 115.125 141.923C115.125 140.013 116.674 138.464 118.584 138.464H142.798C144.709 138.464 146.257 140.013 146.257 141.923C146.258 143.834 144.709 145.382 142.799 145.382Z" fill="#6E71FF"/>
<path d="M142.799 145.382H118.584C116.674 145.382 115.125 143.833 115.125 141.923C115.125 140.013 116.674 138.464 118.584 138.464H142.798C144.709 138.464 146.257 140.013 146.257 141.923C146.258 143.834 144.709 145.382 142.799 145.382Z" fill="url(#paint11_linear)" fill-opacity="0.8"/>
<path d="M122.505 141.923C122.505 140.013 124.054 138.464 125.964 138.464H118.584C116.674 138.464 115.125 140.013 115.125 141.923C115.125 143.834 116.674 145.382 118.584 145.382H125.964C124.054 145.382 122.505 143.834 122.505 141.923Z" fill="#6E71FF"/>
<path d="M122.505 141.923C122.505 140.013 124.054 138.464 125.964 138.464H118.584C116.674 138.464 115.125 140.013 115.125 141.923C115.125 143.834 116.674 145.382 118.584 145.382H125.964C124.054 145.382 122.505 143.834 122.505 141.923Z" fill="url(#paint12_linear)" fill-opacity="0.7"/>
<defs>
<linearGradient id="paint0_linear" x1="76.5114" y1="88.2899" x2="76.5114" y2="183.775" gradientUnits="userSpaceOnUse">
<stop/>
<stop offset="1" stop-opacity="0"/>
</linearGradient>
<linearGradient id="paint1_linear" x1="78.7694" y1="31.2249" x2="76.5094" y2="130.665" gradientUnits="userSpaceOnUse">
<stop/>
<stop offset="1" stop-opacity="0"/>
</linearGradient>
<linearGradient id="paint2_linear" x1="66.3414" y1="89.985" x2="66.3414" y2="162.305" gradientUnits="userSpaceOnUse">
<stop stop-color="white"/>
<stop offset="1" stop-color="white" stop-opacity="0"/>
</linearGradient>
<linearGradient id="paint3_linear" x1="62.3844" y1="40.8299" x2="62.3844" y2="126.145" gradientUnits="userSpaceOnUse">
<stop stop-color="white"/>
<stop offset="1" stop-color="white" stop-opacity="0"/>
</linearGradient>
<linearGradient id="paint4_linear" x1="62.3844" y1="40.8299" x2="62.3844" y2="126.145" gradientUnits="userSpaceOnUse">
<stop stop-color="white"/>
<stop offset="1" stop-color="white" stop-opacity="0"/>
</linearGradient>
<linearGradient id="paint5_linear" x1="130.69" y1="90.2015" x2="130.69" y2="140.357" gradientUnits="userSpaceOnUse">
<stop offset="0.9999" stop-color="white"/>
<stop offset="1" stop-color="white" stop-opacity="0"/>
</linearGradient>
<linearGradient id="paint6_linear" x1="127.36" y1="82.64" x2="127.36" y2="153.265" gradientUnits="userSpaceOnUse">
<stop stop-color="white"/>
<stop offset="1" stop-color="white" stop-opacity="0"/>
</linearGradient>
<linearGradient id="paint7_linear" x1="130.69" y1="56.4185" x2="130.69" y2="90.8925" gradientUnits="userSpaceOnUse">
<stop offset="0.9999" stop-color="white"/>
<stop offset="1" stop-color="white" stop-opacity="0"/>
</linearGradient>
<linearGradient id="paint8_linear" x1="128.912" y1="144.23" x2="128.912" y2="162.584" gradientUnits="userSpaceOnUse">
<stop stop-color="#1A1A1A"/>
<stop offset="1" stop-opacity="0"/>
</linearGradient>
<linearGradient id="paint9_linear" x1="123.971" y1="135.75" x2="123.971" y2="169.085" gradientUnits="userSpaceOnUse">
<stop/>
<stop offset="1" stop-opacity="0"/>
</linearGradient>
<linearGradient id="paint10_linear" x1="128.49" y1="43.0899" x2="127.36" y2="110.325" gradientUnits="userSpaceOnUse">
<stop stop-color="white"/>
<stop offset="1" stop-color="white" stop-opacity="0"/>
</linearGradient>
<linearGradient id="paint11_linear" x1="130.186" y1="137.445" x2="130.186" y2="152.7" gradientUnits="userSpaceOnUse">
<stop stop-color="#0C0C0C"/>
<stop offset="1" stop-color="#1F1F1F" stop-opacity="0"/>
</linearGradient>
<linearGradient id="paint12_linear" x1="115.496" y1="130.665" x2="121.711" y2="149.31" gradientUnits="userSpaceOnUse">
<stop stop-color="#0C0C0C"/>
<stop offset="1" stop-opacity="0"/>
</linearGradient>
</defs>
</svg>
