<svg width="208" height="208" viewBox="0 0 208 208" fill="none" xmlns="http://www.w3.org/2000/svg">
<path opacity="0.18" d="M6.14958 97.3812C10.2149 87.8628 16.3406 78.1042 22.037 73.3799C27.7333 68.6556 97.9333 -0.000196308 130.369 0C162.804 0.000196314 157.221 8.93405 169.134 18.5806C183.668 30.3419 196.101 50.4906 198.286 74.8236C199.803 91.5232 196.465 108.815 199.106 125.201C201.125 137.747 206.526 148.829 207.755 161.597C209.17 176.25 204.354 191.818 195.941 199.799C187.528 207.779 176.901 208.005 166.921 207.579C140.746 206.448 156.54 198.844 88.4536 207.202C20.3667 215.561 2.56506 155.483 2.56506 155.483C-1.45703 136.314 -1.09832 114.345 6.14958 97.3812Z" fill="#6E71FF"/>
<path d="M55.0503 78.0538C55.1268 76.9976 56.3679 76.4678 57.1919 77.1344L68.0373 85.9088C70.1737 87.6375 73.3078 87.3064 75.0365 85.17L79.7488 79.3456C81.4776 77.2084 81.1473 74.0743 79.01 72.3455L68.1637 63.5703C67.3389 62.9029 67.6021 61.5801 68.6213 61.2834C74.5824 59.5503 81.2918 60.7708 86.3688 65.2035C90.7293 69.0102 92.7255 74.6823 92.5131 80.2212C92.409 82.9433 93.3904 85.5949 95.3169 87.5214L165.341 157.545C168.527 160.732 168.527 165.897 165.341 169.082C162.154 172.269 156.991 172.27 153.805 169.084C138.668 153.947 98.0906 113.37 85.2911 100.57C83.1246 98.4038 80.0499 97.3657 77.0276 97.8663C71.8706 98.7203 66.3155 97.6289 62.0143 94.1491C57.0095 90.0999 54.6151 84.0227 55.0503 78.0538Z" fill="#6E71FF"/>
<path d="M55.0503 78.0538C55.1268 76.9976 56.3679 76.4678 57.1919 77.1344L68.0373 85.9088C70.1737 87.6375 73.3078 87.3064 75.0365 85.17L79.7488 79.3456C81.4776 77.2084 81.1473 74.0743 79.01 72.3455L68.1637 63.5703C67.3389 62.9029 67.6021 61.5801 68.6213 61.2834C74.5824 59.5503 81.2918 60.7708 86.3688 65.2035C90.7293 69.0102 92.7255 74.6823 92.5131 80.2212C92.409 82.9433 93.3904 85.5949 95.3169 87.5214L165.341 157.545C168.527 160.732 168.527 165.897 165.341 169.082C162.154 172.269 156.991 172.27 153.805 169.084C138.668 153.947 98.0906 113.37 85.2911 100.57C83.1246 98.4038 80.0499 97.3657 77.0276 97.8663C71.8706 98.7203 66.3155 97.6289 62.0143 94.1491C57.0095 90.0999 54.6151 84.0227 55.0503 78.0538Z" fill="url(#paint0_linear)"/>
<path d="M94.3753 91.0339C92.2088 88.8674 89.1349 87.8293 86.1127 88.3299C81.9336 89.0222 77.4931 88.4365 73.6701 86.3371C71.9353 87.346 69.6897 87.2453 68.0375 85.9088L57.192 77.1344C56.3681 76.4678 55.127 76.9976 55.0505 78.0538C54.6144 84.0227 57.0089 90.0999 62.0144 94.1491C66.3156 97.6289 71.8708 98.7212 77.0278 97.8663C80.05 97.3657 83.1248 98.4038 85.2913 100.57C98.0908 113.37 138.668 153.947 153.805 169.084C156.991 172.27 162.155 172.269 165.341 169.083C166.764 167.661 167.549 165.844 167.701 163.986C158.148 154.491 105.991 102.649 94.3753 91.0339Z" fill="#6E71FF"/>
<path d="M94.3753 91.0339C92.2088 88.8674 89.1349 87.8293 86.1127 88.3299C81.9336 89.0222 77.4931 88.4365 73.6701 86.3371C71.9353 87.346 69.6897 87.2453 68.0375 85.9088L57.192 77.1344C56.3681 76.4678 55.127 76.9976 55.0505 78.0538C54.6144 84.0227 57.0089 90.0999 62.0144 94.1491C66.3156 97.6289 71.8708 98.7212 77.0278 97.8663C80.05 97.3657 83.1248 98.4038 85.2913 100.57C98.0908 113.37 138.668 153.947 153.805 169.084C156.991 172.27 162.155 172.269 165.341 169.083C166.764 167.661 167.549 165.844 167.701 163.986C158.148 154.491 105.991 102.649 94.3753 91.0339Z" fill="url(#paint1_linear)"/>
<path d="M150.207 155.929C149.771 155.929 149.336 155.762 149.004 155.43L117.412 123.839C116.748 123.175 116.748 122.098 117.412 121.433C118.077 120.769 119.154 120.769 119.818 121.433L151.41 153.025C152.074 153.69 152.074 154.767 151.41 155.431C151.078 155.763 150.642 155.929 150.207 155.929Z" fill="#6E71FF"/>
<path d="M150.207 155.929C149.771 155.929 149.336 155.762 149.004 155.43L117.412 123.839C116.748 123.175 116.748 122.098 117.412 121.433C118.077 120.769 119.154 120.769 119.818 121.433L151.41 153.025C152.074 153.69 152.074 154.767 151.41 155.431C151.078 155.763 150.642 155.929 150.207 155.929Z" fill="url(#paint2_linear)"/>
<path d="M100.109 105.832C99.6737 105.832 99.2385 105.665 98.9066 105.333L90.373 96.8007C89.709 96.1359 89.709 95.0591 90.373 94.3942C91.0378 93.7302 92.1146 93.7302 92.7794 94.3942L101.312 102.928C101.977 103.592 101.977 104.669 101.312 105.333C100.98 105.665 100.545 105.832 100.109 105.832Z" fill="#6E71FF"/>
<path d="M100.109 105.832C99.6737 105.832 99.2385 105.665 98.9066 105.333L90.373 96.8007C89.709 96.1359 89.709 95.0591 90.373 94.3942C91.0378 93.7302 92.1146 93.7302 92.7794 94.3942L101.312 102.928C101.977 103.592 101.977 104.669 101.312 105.333C100.98 105.665 100.545 105.832 100.109 105.832Z" fill="url(#paint3_linear)"/>
<path d="M138.466 90.5582L106.227 126.241L96.8916 117.807L129.131 82.1244L138.466 90.5582Z" fill="#6E71FF"/>
<path d="M138.466 90.5582L106.227 126.241L96.8916 117.807L129.131 82.1244L138.466 90.5582Z" fill="url(#paint4_linear)"/>
<path d="M151.127 98.1449L140.057 88.1423L147.39 80.0259L158.459 90.0285L151.127 98.1449Z" fill="#6E71FF"/>
<path d="M151.127 98.1449L140.057 88.1423L147.39 80.0259L158.459 90.0285L151.127 98.1449Z" fill="url(#paint5_linear)"/>
<path d="M147.446 102.596L152.064 106.769C153.268 107.856 155.125 107.762 156.212 106.559L166.463 95.2138C167.55 94.0105 167.457 92.1536 166.253 91.0665L161.635 86.8935C160.431 85.8063 158.574 85.9001 157.487 87.1033L147.237 98.4485C146.149 99.6517 146.243 101.509 147.446 102.596Z" fill="#6E71FF"/>
<path d="M147.446 102.596L152.064 106.769C153.268 107.856 155.125 107.762 156.212 106.559L166.463 95.2138C167.55 94.0105 167.457 92.1536 166.253 91.0665L161.635 86.8935C160.431 85.8063 158.574 85.9001 157.487 87.1033L147.237 98.4485C146.149 99.6517 146.243 101.509 147.446 102.596Z" fill="url(#paint6_linear)"/>
<path d="M138.414 66.3457L153.766 80.234C154.331 80.7458 154.375 81.6196 153.864 82.1855L143.017 94.1895C142.507 94.7537 141.636 94.7993 141.069 94.291L127.864 82.4418C127.414 82.0384 127.28 81.3882 127.531 80.8395C132.223 70.5712 117.357 67.0363 110.81 65.9956C109.595 65.8021 109.219 64.2394 110.212 63.5126C117.754 57.9996 130.285 58.9998 138.414 66.3457Z" fill="#6E71FF"/>
<path d="M138.414 66.3457L153.766 80.234C154.331 80.7458 154.375 81.6196 153.864 82.1855L143.017 94.1895C142.507 94.7537 141.636 94.7993 141.069 94.291L127.864 82.4418C127.414 82.0384 127.28 81.3882 127.531 80.8395C132.223 70.5712 117.357 67.0363 110.81 65.9956C109.595 65.8021 109.219 64.2394 110.212 63.5126C117.754 57.9996 130.285 58.9998 138.414 66.3457Z" fill="url(#paint7_linear)"/>
<path d="M85.879 127.139L95.2039 120.544L103.67 128.194L98.0515 138.137C96.285 141.103 94.2294 143.888 91.915 146.45L71.5753 168.96C68.1608 172.739 62.3287 173.035 58.5495 169.621C54.7704 166.205 54.4745 160.374 57.889 156.594L78.2296 134.084C80.544 131.521 83.1062 129.195 85.879 127.139Z" fill="#6E71FF"/>
<path d="M85.879 127.139L95.2039 120.544L103.67 128.194L98.0515 138.137C96.285 141.103 94.2294 143.888 91.915 146.45L71.5753 168.96C68.1608 172.739 62.3287 173.035 58.5495 169.621C54.7704 166.205 54.4745 160.374 57.889 156.594L78.2296 134.084C80.544 131.521 83.1062 129.195 85.879 127.139Z" fill="url(#paint8_linear)" fill-opacity="0.5"/>
<path d="M94.5689 123.512L61.3961 160.225C59.7516 162.044 57.7623 163.365 55.6182 164.184C55.9295 166.208 56.9117 168.141 58.5484 169.621C62.3275 173.035 68.1597 172.739 71.575 168.96L91.9147 146.45C94.2291 143.888 96.2847 141.104 98.0513 138.137L103.67 128.194L96.2967 121.532C95.73 122.199 95.1563 122.862 94.5689 123.512Z" fill="#6E71FF"/>
<path d="M93.6187 120.005L104.366 129.716C105.114 130.393 106.269 130.335 106.945 129.586L108.984 127.33C109.66 126.582 109.601 125.427 108.853 124.75L98.1057 115.039C97.3574 114.363 96.2024 114.422 95.5255 115.171L93.488 117.426C92.812 118.174 92.8696 119.329 93.6187 120.005Z" fill="#6E71FF"/>
<defs>
<linearGradient id="paint0_linear" x1="83.9531" y1="60.4404" x2="299.176" y2="250.123" gradientUnits="userSpaceOnUse">
<stop stop-color="white"/>
<stop offset="1" stop-color="white" stop-opacity="0"/>
</linearGradient>
<linearGradient id="paint1_linear" x1="170.593" y1="191.226" x2="217.711" y2="227.995" gradientUnits="userSpaceOnUse">
<stop stop-color="white"/>
<stop offset="1" stop-color="white" stop-opacity="0"/>
</linearGradient>
<linearGradient id="paint2_linear" x1="120.723" y1="114.604" x2="167.951" y2="184.07" gradientUnits="userSpaceOnUse">
<stop stop-color="white"/>
<stop offset="1" stop-color="white" stop-opacity="0"/>
</linearGradient>
<linearGradient id="paint3_linear" x1="95.8429" y1="93.8962" x2="87.2555" y2="116.916" gradientUnits="userSpaceOnUse">
<stop stop-color="white"/>
<stop offset="1" stop-color="white" stop-opacity="0"/>
</linearGradient>
<linearGradient id="paint4_linear" x1="141.419" y1="77.6141" x2="67.9901" y2="149.722" gradientUnits="userSpaceOnUse">
<stop stop-color="white"/>
<stop offset="1" stop-color="white" stop-opacity="0"/>
</linearGradient>
<linearGradient id="paint5_linear" x1="149.258" y1="80.0259" x2="146.924" y2="118.237" gradientUnits="userSpaceOnUse">
<stop stop-color="white"/>
<stop offset="1" stop-color="white" stop-opacity="0"/>
</linearGradient>
<linearGradient id="paint6_linear" x1="172.795" y1="80.6966" x2="141.529" y2="119.778" gradientUnits="userSpaceOnUse">
<stop/>
<stop offset="1" stop-opacity="0"/>
</linearGradient>
<linearGradient id="paint7_linear" x1="108.393" y1="57.9083" x2="162.226" y2="122.42" gradientUnits="userSpaceOnUse">
<stop stop-color="#090909"/>
<stop offset="1" stop-opacity="0"/>
</linearGradient>
<linearGradient id="paint8_linear" x1="79.5901" y1="120.544" x2="79.5901" y2="172" gradientUnits="userSpaceOnUse">
<stop/>
<stop offset="1" stop-color="#090909" stop-opacity="0"/>
</linearGradient>
</defs>
</svg>
