<svg width="208" height="208" viewBox="0 0 208 208" fill="none" xmlns="http://www.w3.org/2000/svg">
<path opacity="0.18" d="M15.9833 177.378C18.4129 179.312 21.0658 180.891 23.8743 182.076C28.7357 184.121 33.914 185.037 38.903 186.613C41.1176 187.305 43.291 188.145 45.4232 189.06C58.3362 194.575 70.1871 203.324 83.7709 206.517C108.942 212.478 133.27 198.925 157.33 193.178C177.944 188.265 194.698 200.01 203.021 164.472C206.499 149.678 210.805 134.012 205.54 119.816C200.275 105.62 192.862 92.5085 187.84 78.2407C180.669 57.8639 178.014 34.388 163.903 18.8386C154.131 8.0719 140.165 2.87389 126.33 1.02957C112.495 -0.814744 98.4868 0.368654 84.5572 0.431173C67.779 0.489226 49.9059 -0.787951 35.3959 8.37557C30.2785 11.6579 25.8677 16.0903 22.4598 21.3748C19.0518 26.6594 16.7257 32.6739 15.6375 39.0144C12.7561 56.5153 19.5974 74.6593 16.5226 92.1289C13.6699 108.393 2.52705 122.004 0.349518 138.402C-1.62631 153.165 4.93507 168.652 15.9833 177.378Z" fill="#6E71FF"/>
<path d="M156.617 139.191L131.374 113.95L130.317 115.008C128.564 116.76 125.72 116.76 123.968 115.008C122.216 113.256 122.216 110.413 123.968 108.66L125.026 107.603L118.678 101.255L97.5176 122.414L103.866 128.762L104.924 127.703C106.676 125.952 109.52 125.952 111.272 127.703C113.024 129.456 113.024 132.299 111.272 134.052L110.214 135.109L135.457 160.35C136.222 161.11 137.067 161.785 137.977 162.362L158.629 141.711C158.049 140.801 157.374 139.955 156.617 139.191Z" fill="#6E71FF"/>
<path d="M158.629 141.711L137.977 162.362C144.921 166.823 154.169 164.81 158.629 157.866C161.791 152.944 161.791 146.63 158.629 141.711Z" fill="#6E71FF"/>
<path d="M158.629 141.711L137.977 162.362C144.921 166.823 154.169 164.81 158.629 157.866C161.791 152.944 161.791 146.63 158.629 141.711Z" fill="url(#paint0_linear)" fill-opacity="0.8"/>
<path d="M63.6609 58.9372L61.5454 50.4735L46.7329 42.0105L38.2686 50.4735L46.7329 65.2848L55.1973 67.401L103.866 116.067L112.33 107.603L63.6609 58.9372Z" fill="url(#paint1_linear)"/>
<path d="M160.283 59.6527L146.186 73.7485L133.49 69.517L129.258 56.821L143.355 42.7252C130.951 39.5601 118.331 47.0502 115.165 59.4536C114.207 63.2134 114.207 67.1531 115.165 70.9129L67.1735 118.901C54.642 115.721 41.9059 123.298 38.7255 135.829C35.5442 148.359 43.1219 161.095 55.6534 164.275C68.1849 167.455 80.921 159.878 84.1015 147.348C85.0601 143.569 85.0601 139.608 84.1015 135.829L132.093 87.8404C144.507 90.9974 157.126 83.4946 160.283 71.0824C161.235 67.3314 161.235 63.4021 160.283 59.6527ZM67.8931 152.037H55.1969L48.848 141.457L55.1969 130.878H67.8931L74.2411 141.457L67.8931 152.037Z" fill="url(#paint2_linear)"/>
<path d="M160.283 59.6527L146.186 73.7485L133.49 69.517L129.258 56.821L143.355 42.7252C130.951 39.5601 118.331 47.0502 115.165 59.4536C114.207 63.2134 114.207 67.1531 115.165 70.9129L67.1735 118.901C54.642 115.721 41.9059 123.298 38.7255 135.829C35.5442 148.359 43.1219 161.095 55.6534 164.275C68.1849 167.455 80.921 159.878 84.1015 147.348C85.0601 143.569 85.0601 139.608 84.1015 135.829L132.093 87.8404C144.507 90.9974 157.126 83.4946 160.283 71.0824C161.235 67.3314 161.235 63.4021 160.283 59.6527ZM67.8931 152.037H55.1969L48.848 141.457L55.1969 130.878H67.8931L74.2411 141.457L67.8931 152.037Z" fill="url(#paint3_linear)"/>
<path d="M74.8555 125.148L121.408 78.5988L124.401 81.5911L77.848 128.141L74.8555 125.148Z" fill="#6E71FF"/>
<path d="M121.41 128.142L124.403 125.15L145.562 146.309L142.57 149.301L121.41 128.142Z" fill="#6E71FF"/>
<path d="M121.41 128.142L124.403 125.15L145.562 146.309L142.57 149.301L121.41 128.142Z" fill="url(#paint4_linear)" fill-opacity="0.8"/>
<defs>
<linearGradient id="paint0_linear" x1="169.549" y1="164.729" x2="133.693" y2="131.227" gradientUnits="userSpaceOnUse">
<stop/>
<stop offset="1" stop-opacity="0"/>
</linearGradient>
<linearGradient id="paint1_linear" x1="116.274" y1="121.702" x2="157.149" y2="167.088" gradientUnits="userSpaceOnUse">
<stop stop-color="white"/>
<stop offset="1" stop-color="white" stop-opacity="0"/>
</linearGradient>
<linearGradient id="paint2_linear" x1="2.99747" y1="182.5" x2="-14.5019" y2="213.001" gradientUnits="userSpaceOnUse">
<stop stop-color="white"/>
<stop offset="1" stop-color="white" stop-opacity="0"/>
</linearGradient>
<linearGradient id="paint3_linear" x1="208.89" y1="34.7264" x2="-18.2308" y2="245.779" gradientUnits="userSpaceOnUse">
<stop stop-color="white"/>
<stop offset="1" stop-color="white" stop-opacity="0"/>
</linearGradient>
<linearGradient id="paint4_linear" x1="100.188" y1="115.35" x2="161.246" y2="171.187" gradientUnits="userSpaceOnUse">
<stop/>
<stop offset="1" stop-opacity="0"/>
</linearGradient>
</defs>
</svg>
