<svg width="208" height="208" viewBox="0 0 208 208" fill="none" xmlns="http://www.w3.org/2000/svg">
<path d="M168.455 132.809C166.496 132.809 164.91 131.223 164.91 129.264V100.904C164.91 98.9449 166.496 97.3594 168.455 97.3594C170.414 97.3594 172 98.9449 172 100.904V129.264C172 131.223 170.414 132.809 168.455 132.809Z" fill="#6E71FF"/>
<path d="M168.455 132.809C166.496 132.809 164.91 131.223 164.91 129.264V100.904C164.91 98.9449 166.496 97.3594 168.455 97.3594C170.414 97.3594 172 98.9449 172 100.904V129.264C172 131.223 170.414 132.809 168.455 132.809Z" fill="url(#paint0_linear)"/>
<path d="M54.5449 132.809C52.5855 132.809 51 131.223 51 129.264V100.904C51 98.9449 52.5855 97.3594 54.5449 97.3594C56.5043 97.3594 58.0898 98.9449 58.0898 100.904V129.264C58.0898 131.223 56.5043 132.809 54.5449 132.809Z" fill="#6E71FF"/>
<path d="M54.5449 132.809C52.5855 132.809 51 131.223 51 129.264V100.904C51 98.9449 52.5855 97.3594 54.5449 97.3594C56.5043 97.3594 58.0898 98.9449 58.0898 100.904V129.264C58.0898 131.223 56.5043 132.809 54.5449 132.809Z" fill="url(#paint1_linear)"/>
<path d="M115.045 129.264V157.623C115.045 159.608 113.485 161.168 111.5 161.168C109.515 161.168 107.955 159.608 107.955 157.623V129.264C107.955 127.278 109.515 125.719 111.5 125.719C113.485 125.719 115.045 127.278 115.045 129.264Z" fill="#6E71FF"/>
<path d="M115.045 129.264V157.623C115.045 159.608 113.485 161.168 111.5 161.168C109.515 161.168 107.955 159.608 107.955 157.623V129.264C107.955 127.278 109.515 125.719 111.5 125.719C113.485 125.719 115.045 127.278 115.045 129.264Z" fill="url(#paint2_linear)" fill-opacity="0.8"/>
<path d="M111.5 69C82.5023 69 51 78.9964 51 100.904C51 122.812 82.5023 132.809 111.5 132.809C140.498 132.809 172 122.812 172 100.904C172 78.9964 140.498 69 111.5 69Z" fill="#6E71FF"/>
<path d="M172 100.904C172 122.812 140.498 132.809 111.5 132.809V69C140.498 69 172 78.9964 172 100.904Z" fill="#6E71FF"/>
<path d="M111.5 69C81.1552 69 58.0898 79.6348 58.0898 93.8145C58.0898 107.994 81.1552 118.629 111.5 118.629C141.845 118.629 164.91 107.994 164.91 93.8145C164.91 79.6348 141.845 69 111.5 69Z" fill="#6E71FF"/>
<path d="M111.5 69C81.1552 69 58.0898 79.6348 58.0898 93.8145C58.0898 107.994 81.1552 118.629 111.5 118.629C141.845 118.629 164.91 107.994 164.91 93.8145C164.91 79.6348 141.845 69 111.5 69Z" fill="url(#paint3_linear)"/>
<path d="M164.91 93.8145C164.91 107.994 141.845 118.629 111.5 118.629V69C141.845 69 164.91 79.6348 164.91 93.8145Z" fill="#6E71FF"/>
<path d="M164.91 93.8145C164.91 107.994 141.845 118.629 111.5 118.629V69C141.845 69 164.91 79.6348 164.91 93.8145Z" fill="url(#paint4_linear)" fill-opacity="0.9"/>
<path d="M111.5 83.1797C106.183 83.1797 79.5957 83.676 79.5957 93.8145C79.5957 103.953 106.183 104.449 111.5 104.449C116.817 104.449 143.404 103.953 143.404 93.8145C143.404 83.676 116.817 83.1797 111.5 83.1797Z" fill="#6E71FF"/>
<path d="M143.404 93.8145C143.404 103.953 116.817 104.449 111.5 104.449V83.1797C116.817 83.1797 143.404 83.676 143.404 93.8145Z" fill="#6E71FF"/>
<path opacity="0.18" d="M202.006 131.961C195.353 155.025 185.381 179.635 164.018 194.022C161.497 195.72 158.835 197.258 156.051 198.623C144.479 204.286 131.076 206.667 117.777 207.574C91.83 209.365 64.7229 205.617 42.4935 194.255C40.0383 193.002 37.6484 191.655 35.3236 190.215C22.4296 182.212 12.3158 171.375 6.05716 158.856C0.962782 148.556 -1.18958 137.373 0.648315 126.244C5.10677 99.2116 30.5437 78.5702 43.6605 53.68C48.4824 44.526 51.6341 34.7812 56.5537 25.6689C61.4734 16.5566 68.5454 7.82624 78.9159 3.06423C93.5631 -3.66108 109.964 2.17508 124.437 6.38212C141.32 11.2575 157.931 17.8217 170.741 28.6884C179.091 35.7598 185.472 44.341 191.251 53.0833C194.833 58.3903 198.044 63.8741 200.867 69.5057C203.763 75.264 205.84 81.2985 207.051 87.4796C209.77 102.303 206.199 117.4 202.006 131.961Z" fill="#6E71FF"/>
<defs>
<linearGradient id="paint0_linear" x1="168.37" y1="87.859" x2="168.37" y2="169.534" gradientUnits="userSpaceOnUse">
<stop stop-color="#0E0E0E"/>
<stop offset="1" stop-color="#131313" stop-opacity="0"/>
</linearGradient>
<linearGradient id="paint1_linear" x1="54.63" y1="87.859" x2="53.42" y2="167.719" gradientUnits="userSpaceOnUse">
<stop stop-color="#0B0B0B"/>
<stop offset="1" stop-color="#030303" stop-opacity="0"/>
</linearGradient>
<linearGradient id="paint2_linear" x1="111.5" y1="118.714" x2="111.5" y2="181.634" gradientUnits="userSpaceOnUse">
<stop/>
<stop offset="1" stop-opacity="0"/>
</linearGradient>
<linearGradient id="paint3_linear" x1="113.92" y1="34.619" x2="109.08" y2="136.864" gradientUnits="userSpaceOnUse">
<stop stop-color="white"/>
<stop offset="1" stop-color="white" stop-opacity="0"/>
</linearGradient>
<linearGradient id="paint4_linear" x1="138.205" y1="69" x2="133.885" y2="165.299" gradientUnits="userSpaceOnUse">
<stop stop-color="white"/>
<stop offset="1" stop-color="white" stop-opacity="0"/>
</linearGradient>
</defs>
</svg>
