<svg width="240" height="240" viewBox="0 0 240 240" fill="none" xmlns="http://www.w3.org/2000/svg">
<path opacity="0.18" d="M227.723 222.635C216.172 236.272 198.224 239.423 181.64 239.861C165.752 240.471 149.302 239.144 133.842 234.399C119.908 230.15 105.167 231.952 90.6254 232.153C69.4182 232.454 46.7363 232.267 29.0987 217.869C11.8532 203.83 2.6423 178.257 0.658508 152.977C0.535618 151.398 0.424432 149.826 0.342506 148.247C-1.58862 114.305 4.52661 81.2596 21.737 54.5377C37.3615 30.2777 58.6039 10.7979 83.4218 3.69936C96.7875 -0.126256 110.744 -0.348759 124.52 0.254152C139.43 0.892951 154.592 2.79499 168.795 8.27862C188.44 15.8653 208.769 32.876 214.323 56.8345C220.514 83.6067 224.803 110.486 231.919 137.223C232.557 139.634 233.201 142.046 233.827 144.472C236.934 156.48 239.65 168.653 239.971 181.135C240.358 196.129 236.852 211.869 227.723 222.635Z" fill="#6E71FF"/>
<path opacity="0.48" d="M227.701 221.824C216.133 236.098 198.16 239.396 181.553 239.855C165.642 240.493 149.17 239.103 133.687 234.137C119.734 229.69 104.972 231.575 90.41 231.786C69.173 232.101 46.4591 231.906 28.7967 216.835C11.5269 202.14 2.30303 175.371 0.316447 148.91C0.193384 147.258 0.0820418 145.612 0 143.959L233.819 140C236.931 152.569 239.65 165.311 239.972 178.376C240.353 194.078 236.843 210.554 227.701 221.824Z" fill="#6E71FF"/>
<path d="M9.03823 162.024C9.57075 164.336 11.8003 165.787 13.8835 166.916C19.7061 170.076 25.8329 172.639 31.9422 175.202L74.1688 192.893C80.6058 195.596 87.1423 198.323 94.024 199.622C100.993 200.939 108.15 200.792 115.243 200.582C145.824 199.792 176.458 199.008 206.847 195.485C210.843 195.023 215.49 194.057 217.181 190.417C218.702 187.158 216.918 183.126 214.062 180.937C211.206 178.749 207.561 177.965 204.038 177.239L181.959 172.686C150.359 166.173 118.76 159.654 86.8263 155.172C79.1487 154.095 4.47968 142.163 9.03823 162.024Z" fill="url(#paint0_linear)"/>
<path d="M35.1781 145.955C37.0857 146.008 43.1014 151.509 43.2477 158.449C43.3764 164.722 41.6443 170.153 40.0058 171.013L33.7444 171.504L34.4817 170.258C33.1358 168.444 32.1 163.821 31.9888 158.426C31.8425 151.491 33.2704 145.909 35.1781 145.955Z" fill="url(#paint1_linear)"/>
<path d="M29.8824 158.859C30.0287 165.793 31.6965 171.458 33.6042 171.504C35.5119 171.551 36.9397 165.974 36.7934 159.04C36.6471 152.106 34.9852 146.435 33.0716 146.388C31.1581 146.342 29.7361 151.918 29.8824 158.859Z" fill="#6E71FF"/>
<path d="M29.8824 158.859C30.0287 165.793 31.6965 171.458 33.6042 171.504C35.5119 171.551 36.9397 165.974 36.7934 159.04C36.6471 152.106 34.9852 146.435 33.0716 146.388C31.1581 146.342 29.7361 151.918 29.8824 158.859Z" fill="url(#paint2_linear)"/>
<path d="M30.8131 158.893C30.9009 162.99 31.8898 166.355 33.0134 166.384C34.1369 166.413 34.9913 163.107 34.9094 158.999C34.8274 154.891 33.8326 151.538 32.7032 151.508C31.5739 151.479 30.7312 154.785 30.8131 158.893Z" fill="url(#paint3_linear)"/>
<path d="M88.5522 148.998C91.876 149.086 106.108 159.169 106.371 171.235C106.599 182.161 104.615 191.131 101.742 192.711L86.0301 193.49L87.3175 191.313C84.9768 188.153 83.1686 180.101 82.9696 170.714C82.7414 158.642 85.2284 148.911 88.5522 148.998Z" fill="#6E71FF"/>
<path d="M88.5522 148.998C91.876 149.086 106.108 159.169 106.371 171.235C106.599 182.161 104.615 191.131 101.742 192.711L86.0301 193.49L87.3175 191.313C84.9768 188.153 83.1686 180.101 82.9696 170.714C82.7414 158.642 85.2284 148.911 88.5522 148.998Z" fill="url(#paint4_linear)"/>
<path d="M79.33 171.463C79.5816 183.541 82.4841 193.402 85.8079 193.489C89.1318 193.577 91.6188 183.857 91.3613 171.779C91.1038 159.701 88.2072 149.835 84.8892 149.747C81.5712 149.659 79.0784 159.385 79.33 171.463Z" fill="#6E71FF"/>
<path d="M79.33 171.463C79.5816 183.541 82.4841 193.402 85.8079 193.489C89.1318 193.577 91.6188 183.857 91.3613 171.779C91.1038 159.701 88.2072 149.835 84.8892 149.747C81.5712 149.659 79.0784 159.385 79.33 171.463Z" fill="url(#paint5_linear)"/>
<path d="M80.9513 171.516C81.0976 178.667 82.818 184.513 84.7842 184.56C86.7504 184.606 88.225 178.854 88.0788 171.686C87.9325 164.517 86.212 158.689 84.24 158.636C82.2679 158.583 80.7991 164.371 80.9513 171.516Z" fill="url(#paint6_linear)"/>
<path d="M186.716 148.998C190.04 149.086 204.272 159.169 204.535 171.235C204.763 182.161 202.75 191.131 199.906 192.711L184.218 193.478L185.505 191.301C183.164 188.141 181.356 180.089 181.157 170.703C180.906 158.642 183.393 148.911 186.716 148.998Z" fill="#6E71FF"/>
<path d="M186.716 148.998C190.04 149.086 204.272 159.169 204.535 171.235C204.763 182.161 202.75 191.131 199.906 192.711L184.218 193.478L185.505 191.301C183.164 188.141 181.356 180.089 181.157 170.703C180.906 158.642 183.393 148.911 186.716 148.998Z" fill="url(#paint7_linear)"/>
<path d="M177.494 171.463C177.752 183.542 180.648 193.402 183.972 193.49C187.296 193.577 189.783 183.858 189.525 171.779C189.268 159.701 186.371 149.864 183.053 149.747C179.735 149.63 177.242 159.385 177.494 171.463Z" fill="#6E71FF"/>
<path d="M177.494 171.463C177.752 183.542 180.648 193.402 183.972 193.49C187.296 193.577 189.783 183.858 189.525 171.779C189.268 159.701 186.371 149.864 183.053 149.747C179.735 149.63 177.242 159.385 177.494 171.463Z" fill="url(#paint8_linear)"/>
<path d="M179.115 171.516C179.267 178.667 180.982 184.513 182.948 184.56C184.914 184.606 186.395 178.854 186.243 171.686C186.091 164.517 184.376 158.689 182.404 158.636C180.432 158.583 178.963 164.371 179.115 171.516Z" fill="url(#paint9_linear)"/>
<path d="M180.531 171.574C180.601 175.021 181.432 177.842 182.38 177.865C183.328 177.889 184.036 175.115 183.966 171.662C183.896 168.21 183.065 165.395 182.117 165.371C181.169 165.348 180.455 168.122 180.531 171.574Z" fill="#6E71FF"/>
<path d="M44.1604 146.57C46.2437 146.622 54.6937 152.808 54.8458 160.374C54.9863 167.221 53.7223 172.862 51.9199 173.833L42.5571 174.448L43.3646 173.084C41.89 171.106 40.7664 166.062 40.6435 160.175C40.5206 152.609 42.0772 146.517 44.1604 146.57Z" fill="#6E71FF"/>
<path d="M44.1604 146.57C46.2437 146.622 54.6937 152.808 54.8458 160.374C54.9863 167.221 53.7223 172.862 51.9199 173.833L42.5571 174.448L43.3646 173.084C41.89 171.106 40.7664 166.062 40.6435 160.175C40.5206 152.609 42.0772 146.517 44.1604 146.57Z" fill="url(#paint10_linear)"/>
<path d="M38.3791 160.643C38.543 168.216 40.357 174.395 42.4403 174.448C44.5235 174.501 46.0801 168.415 45.9221 160.842C45.7641 153.27 43.9442 147.097 41.8668 147.038C39.7894 146.979 38.2211 153.077 38.3791 160.643Z" fill="#6E71FF"/>
<path d="M38.3791 160.643C38.543 168.216 40.357 174.395 42.4403 174.448C44.5235 174.501 46.0801 168.415 45.9221 160.842C45.7641 153.27 43.9442 147.097 41.8668 147.038C39.7894 146.979 38.2211 153.077 38.3791 160.643Z" fill="url(#paint11_linear)"/>
<path d="M39.3972 160.684C39.4908 165.167 40.5676 168.83 41.8023 168.877C43.037 168.924 43.9557 165.302 43.8621 160.813C43.7685 156.325 42.6918 152.673 41.457 152.621C40.2223 152.568 39.3036 156.202 39.3972 160.684Z" fill="url(#paint12_linear)"/>
<path d="M94.469 151.813C76.9136 120.418 54.8114 137.769 34.3242 134.158C39.7137 126.065 46.8588 115.877 47.0226 111.172C47.286 103.6 46.6423 93.3712 48.6436 92.113C50.6449 90.8549 80.3779 68.5244 95.6804 61.2448C110.983 53.9651 196.296 56.3176 198.889 64.5218C201.481 72.726 207.666 114.877 209.246 140.823C210.387 159.35 210.247 160.983 210.066 175.987C210.066 175.987 122.821 179.697 107.794 179.697C106.822 179.697 103.141 178.761 97.8748 177.251C97.6934 166.987 96.9736 156.816 94.469 151.813Z" fill="#6E71FF"/>
<path d="M105.476 64.1121C108.554 61.6602 193.54 62.222 196.103 62.8891C197.171 63.1506 198.139 63.7181 198.889 64.5218C199.601 65.8702 200.179 67.2853 200.615 68.7468C201.914 73.1656 202.938 77.6605 203.681 82.2059C205.168 91.4869 207.116 105.999 208.474 126.147C208.626 128.564 208.772 131.074 208.907 133.661C208.954 135.966 208.86 140.42 207.514 141.081C205.694 141.97 118.186 142.749 114.026 139.741C109.865 136.733 109.731 133.948 108.987 123.256C108.244 112.565 106.061 83.938 104.891 77.9224C103.721 71.9067 102.416 66.564 105.476 64.1121Z" fill="url(#paint13_linear)"/>
<path d="M105.476 64.1121C108.554 61.6602 193.54 62.222 196.103 62.8891C197.171 63.1506 198.139 63.7181 198.889 64.5218C199.601 65.8702 200.179 67.2853 200.615 68.7468C201.914 73.1656 202.938 77.6606 203.681 82.2059C205.168 91.4869 207.116 105.999 208.474 126.147C208.626 128.564 208.772 131.074 208.907 133.661C208.954 135.966 208.86 140.42 207.514 141.081C206.271 141.273 205.015 141.371 203.757 141.373C202.587 122.349 203.33 117.048 199.316 92.5461C196.197 78.1857 191.193 79.438 184.06 79.438C185.535 101.499 188.08 119.716 189.18 141.777C162.485 142.011 116.723 141.689 114.026 139.741C109.859 136.733 109.731 133.948 108.987 123.256C108.244 112.565 106.061 83.938 104.891 77.9224C103.721 71.9067 102.416 66.564 105.476 64.1121Z" fill="url(#paint14_linear)"/>
<path d="M105.476 64.1121C108.554 61.6602 193.539 62.222 196.102 62.8891C197.17 63.1506 198.138 63.7181 198.888 64.5218C199.6 65.8702 200.179 67.2853 200.614 68.7468C201.123 70.3502 201.691 72.4978 202.294 75.1837L104.481 75.9679C103.463 70.7715 102.731 66.2949 105.476 64.1121Z" fill="url(#paint15_linear)"/>
<path d="M199.292 161.82C199.292 161.82 204.658 160.515 207.11 151.79C209.825 146.856 210.832 155.119 210.621 161.422C210.463 166.039 202.277 166.238 199.807 165.746C197.338 165.255 196.454 163.165 199.292 161.82Z" fill="#6E71FF"/>
<path d="M197.876 162.879L197.952 162.785C198.297 162.398 198.728 162.098 199.21 161.907C200.762 161.408 202.14 160.479 203.184 159.227C204.881 157.332 206.133 155.08 206.847 152.638C208.842 150.514 209.586 156.734 209.416 161.597C209.276 165.489 201.908 165.658 199.684 165.243C198.034 164.909 197.174 163.862 197.876 162.879Z" fill="url(#paint16_linear)"/>
<path d="M205.296 156.249C205.94 155.096 206.46 153.878 206.847 152.615C208.321 151.041 209.111 154.048 209.357 157.688C208.631 156.664 206.771 156.301 205.296 156.249Z" fill="#6E71FF"/>
<path d="M184.118 59.3895C184.118 59.3895 108.045 59.3895 96.3414 61.3148C89.9044 62.8889 32.6211 96.8235 32.6211 96.8235L35.4592 92.0719C35.4592 92.0719 77.9258 60.5833 92.9649 54.6203C108.004 48.6573 181.087 44.6664 184.118 59.3895Z" fill="#6E71FF"/>
<path style="mix-blend-mode:multiply" opacity="0.5" d="M184.118 59.3895C184.118 59.3895 108.045 59.3895 96.3414 61.3148C89.9044 62.8889 32.6211 96.8235 32.6211 96.8235L35.4592 92.0719C35.4592 92.0719 77.9258 60.5833 92.9649 54.6203C108.004 48.6573 181.087 44.6664 184.118 59.3895Z" fill="url(#paint17_linear)"/>
<path d="M26.3711 151.222C26.4296 146.81 27.1377 118.698 27.401 111.131C27.6644 103.565 27.3718 100.288 29.3731 99.0239C31.3744 97.7599 66.9241 72.8487 82.2266 65.5984C97.529 58.348 98.243 60.4078 100.829 68.612C103.416 76.8163 106.318 112.307 107.196 133.362C108.015 153.124 107.781 183.559 107.781 183.559L91.8528 178.591C91.9347 176.8 91.9581 174.928 91.9172 173.002C91.6363 159.678 88.4412 148.799 84.7721 148.7C81.103 148.6 78.3351 159.333 78.6453 172.657C78.6453 173.242 78.6804 173.868 78.7038 174.465C67.8897 171.071 55.9754 167.297 46.355 164.201C46.3901 163.183 46.4018 162.124 46.355 161.035C46.1853 152.755 44.1957 145.996 41.9194 145.938C39.643 145.879 37.9343 152.539 38.1098 160.819C38.1098 161.059 38.1098 161.299 38.1098 161.539L37.0331 161.188C37.0331 160.474 37.0331 159.742 37.0331 158.993C36.8751 151.626 35.1079 145.61 33.0831 145.534C31.0584 145.458 29.5721 151.386 29.6949 158.677C28.964 158.453 28.2534 158.167 27.5707 157.823C26.1663 156.588 26.3419 155.64 26.3711 151.222Z" fill="#6E71FF"/>
<path d="M26.3711 151.222C26.4296 146.81 27.1377 118.698 27.401 111.131C27.6644 103.565 27.3718 100.288 29.3731 99.0239C31.3744 97.7599 66.9241 72.8487 82.2266 65.5984C97.529 58.348 98.243 60.4078 100.829 68.612C103.416 76.8163 106.318 112.307 107.196 133.362C108.015 153.124 107.781 183.559 107.781 183.559L91.8528 178.591C91.9347 176.8 91.9581 174.928 91.9172 173.002C91.6363 159.678 88.4412 148.799 84.7721 148.7C81.103 148.6 78.3351 159.333 78.6453 172.657C78.6453 173.242 78.6804 173.868 78.7038 174.465C67.8897 171.071 55.9754 167.297 46.355 164.201C46.3901 163.183 46.4018 162.124 46.355 161.035C46.1853 152.755 44.1957 145.996 41.9194 145.938C39.643 145.879 37.9343 152.539 38.1098 160.819C38.1098 161.059 38.1098 161.299 38.1098 161.539L37.0331 161.188C37.0331 160.474 37.0331 159.742 37.0331 158.993C36.8751 151.626 35.1079 145.61 33.0831 145.534C31.0584 145.458 29.5721 151.386 29.6949 158.677C28.964 158.453 28.2534 158.167 27.5707 157.823C26.1663 156.588 26.3419 155.64 26.3711 151.222Z" fill="url(#paint18_linear)"/>
<path d="M98.7466 129.793C95.967 114.941 92.6315 103.459 77.0949 106.327C66.6495 108.27 40.2637 118.2 28.2031 122.934C28.2031 122.934 28.2031 119.61 28.2675 118.662C28.5952 112.026 28.3494 108.638 30.3741 107.667C32.3989 106.695 67.3049 83.5926 82.7595 78.5191C98.2141 73.4456 98.8578 75.5932 101.263 84.1661C103.018 90.369 104.61 110.915 105.523 129.81L98.77 129.927C98.7651 129.882 98.7572 129.837 98.7466 129.793Z" fill="url(#paint19_linear)"/>
<path d="M101.766 129.88L98.7694 129.927C98.7722 129.882 98.7722 129.837 98.7694 129.793C98.1738 126.312 97.3924 122.867 96.4287 119.47C98.8631 122.068 100.496 125.673 101.766 129.88Z" fill="url(#paint20_linear)"/>
<path d="M68.4746 85.0205L68.8199 84.845L69.5045 108.252L69.1593 108.352L68.4746 85.0205Z" fill="#6E71FF"/>
<path d="M51.1885 94.8574L51.5337 94.6467L51.8205 114.11L51.4752 114.233L51.1885 94.8574Z" fill="#6E71FF"/>
<path d="M37.7646 103.097L38.1099 102.88V119.137L37.7646 119.265V103.097Z" fill="#6E71FF"/>
<path d="M210.451 167.256C210.451 167.256 210.059 168.368 204.202 168.479C198.344 168.59 109.865 169.924 106.88 168.245C106.839 173.874 106.389 183.553 107.805 184.214C109.561 185.04 199.731 183.74 203.897 183.179C208.064 182.617 209.626 181.956 210.147 178.058C210.668 174.161 210.451 167.256 210.451 167.256Z" fill="#6E71FF"/>
<path d="M210.451 167.256C210.451 167.256 210.059 168.368 204.202 168.479C198.344 168.59 109.865 169.924 106.88 168.245C106.839 173.874 106.389 183.553 107.805 184.214C109.561 185.04 199.731 183.74 203.897 183.179C208.064 182.617 209.626 181.956 210.147 178.058C210.668 174.161 210.451 167.256 210.451 167.256Z" fill="url(#paint21_linear)"/>
<path d="M92.0522 129.506L90.1269 76.3366L90.4722 76.2546L93.9833 171.809L106.044 175.32C106.266 154.435 105.459 135.253 105.207 129.793H105.558C105.851 136.089 106.816 159.432 106.26 183.044L105.915 182.927C105.97 180.672 106.009 178.427 106.032 176.192L94.0184 172.681L94.2583 179.322L93.9072 179.188L93.638 172.61H93.6029V172.166L92.0814 130.407L75.5501 131.87L76.2348 173.716L75.8837 173.582L75.199 131.899L61.0201 133.158L61.6053 169.111L61.26 168.988L60.6748 133.187L47.9237 134.316L48.4153 164.898L48.0642 164.757L47.5785 134.328L26.7227 136.177V135.288L92.0522 129.506Z" fill="#6E71FF"/>
<path d="M207.514 141.086C205.688 141.976 118.186 142.754 114.026 139.746C110.076 136.896 109.754 134.24 109.099 124.848C111.375 123.355 115.811 122.244 121.598 121.43C122.967 121.237 124.413 121.061 125.923 120.903C128.661 120.617 131.616 120.377 134.7 120.19L136.485 120.084C138.72 119.959 141.016 119.858 143.373 119.78L145.895 119.704C148.183 119.645 150.518 119.599 152.858 119.569C154.099 119.569 155.351 119.54 156.598 119.534H158.383C164.82 119.534 171.256 119.616 177.26 119.774C194.061 120.231 207.438 121.214 208.146 121.828C208.252 123.244 208.357 124.678 208.456 126.158C208.612 128.581 208.757 131.086 208.889 133.672C208.948 135.966 208.854 140.419 207.514 141.086Z" fill="url(#paint22_linear)"/>
<path d="M187.266 120.237C179.554 120.032 171.121 119.932 162.864 120.032L162.221 106.614C162.221 102.073 167.721 98.421 174.463 98.4912C181.204 98.5615 186.664 102.271 186.64 106.818L187.266 120.237Z" fill="url(#paint23_linear)"/>
<path d="M145.912 119.698C136.836 119.95 128.31 120.482 121.598 121.454L120.849 105.9C120.849 101.359 126.349 97.7072 133.096 97.7716C139.844 97.836 145.292 101.558 145.274 106.105L145.912 119.698Z" fill="url(#paint24_linear)"/>
<path d="M155.392 114.408C155.193 114.755 154.893 115.033 154.532 115.204C152.437 116.451 150.283 117.598 148.095 118.627C147.728 118.837 147.317 118.953 146.895 118.967C146.261 118.856 145.688 118.522 145.28 118.025C143.928 116.737 142.541 115.386 141.862 113.636C141.45 112.375 141.235 111.059 141.225 109.733C141.085 107.813 141.097 105.886 141.26 103.969C141.476 102.213 141.991 100.967 143.115 101.885C143.583 102.266 147.211 112.858 147.609 112.571L150.131 110.868C150.704 110.397 151.401 110.102 152.138 110.019C153.554 110.019 154.479 111.447 155.123 112.711C155.288 112.958 155.398 113.237 155.444 113.53C155.491 113.823 155.473 114.123 155.392 114.408Z" fill="#6E71FF"/>
<path d="M154.532 115.204C152.437 116.451 150.283 117.597 148.095 118.627C147.728 118.836 147.317 118.953 146.895 118.967C146.261 118.856 145.688 118.522 145.28 118.025C143.928 116.737 142.541 115.385 141.862 113.636C141.45 112.375 141.235 111.059 141.225 109.733C141.085 107.813 141.097 105.886 141.26 103.969C141.541 103.688 141.962 107.567 142.43 107.965C142.898 108.363 146.45 115.058 146.889 114.754C147.726 114.168 148.569 113.612 149.411 113.051C149.984 112.579 150.681 112.284 151.418 112.202C152.835 112.202 153.759 113.63 154.397 114.894C154.438 115.005 154.497 115.105 154.532 115.204Z" fill="url(#paint25_linear)"/>
<path d="M143.378 119.774C141.038 119.856 138.742 119.958 136.491 120.079L134.706 120.184C131.604 120.371 128.649 120.611 125.928 120.898C125.928 120.19 125.846 115.421 125.881 114.748C126.063 111.459 123.623 105.8 124.214 102.558C124.506 100.937 137.796 97.3737 141.441 100.025C142.154 100.483 142.727 101.129 143.097 101.891C143.362 102.725 143.42 103.611 143.267 104.472C143.021 106.994 142.781 109.505 142.541 112.027C142.477 112.629 143.097 116.778 143.378 119.774Z" fill="#6E71FF"/>
<path d="M143.378 119.774C141.037 119.856 138.741 119.958 136.49 120.079L135.437 120.137L134.705 120.184C131.604 120.371 128.649 120.611 125.928 120.898C125.928 120.19 125.846 115.421 125.881 114.748C125.887 113.565 125.752 112.387 125.477 111.237C124.857 108.252 123.804 104.835 124.213 102.582C124.506 100.961 137.795 97.3972 141.441 100.048C142.154 100.506 142.727 101.152 143.097 101.915C143.361 102.749 143.42 103.634 143.267 104.495C143.021 107.018 142.781 109.528 142.541 112.05C142.477 112.629 143.097 116.778 143.378 119.774Z" fill="url(#paint26_linear)"/>
<path d="M135.449 120.137L134.718 120.184C131.616 120.371 128.661 120.611 125.94 120.898C125.94 120.19 125.858 115.42 125.893 114.747C125.899 113.565 125.764 112.386 125.489 111.236C125.682 110.809 125.881 110.382 126.074 109.961C126.245 109.428 126.495 108.925 126.818 108.469C127.403 108.761 127.017 110.312 127.145 110.92C127.251 111.406 128.427 115.181 129.164 116.31C129.305 116.562 129.506 116.775 129.749 116.93C130.117 117.091 130.521 117.152 130.92 117.106C132.675 117.047 134.431 116.977 136.151 116.878C136.274 117.972 135.584 119.019 135.449 120.137Z" fill="url(#paint27_linear)"/>
<path d="M133.77 117.457C132.945 117.943 133.94 119.336 132.98 119.353C131.336 119.353 126.286 118.85 124.641 118.879C122.886 118.879 121.13 117.709 120.03 116.334C119.711 115.898 119.484 115.402 119.363 114.876C119.241 114.35 119.227 113.805 119.322 113.273C119.518 112.212 119.856 111.183 120.328 110.213C120.884 108.937 123.442 101.716 124.881 102.283C125.466 102.523 125.964 103.331 126.315 104.367C126.959 106.385 127.209 108.509 127.052 110.622C126.923 111.26 125.39 112.378 125.882 112.852C126.034 112.977 126.206 113.076 126.391 113.144C128.673 114.137 131.124 114.683 133.612 114.754C134.074 115.567 134.601 116.971 133.77 117.457Z" fill="#6E71FF"/>
<path d="M132.98 119.353C131.336 119.353 126.286 118.85 124.641 118.879C122.886 118.879 121.13 117.709 120.03 116.333C119.711 115.898 119.484 115.402 119.363 114.876C119.241 114.35 119.227 113.804 119.322 113.273C119.496 113.892 119.81 114.462 120.239 114.941C120.668 115.42 121.201 115.794 121.797 116.035C124.009 116.825 132.33 117.281 132.33 117.281L133.752 117.457C132.945 117.943 133.94 119.335 132.98 119.353Z" fill="url(#paint28_linear)"/>
<path d="M131.715 98.1284C131.657 99.2578 131.715 100.469 132.453 101.353C132.873 101.802 133.386 102.156 133.956 102.389C134.484 102.666 135.069 102.816 135.665 102.827C135.963 102.827 136.254 102.745 136.508 102.59C136.762 102.436 136.968 102.214 137.105 101.95C137.453 101.061 137.56 100.096 137.415 99.1525C137.075 98.0699 137.023 96.882 136.467 95.8872C135.911 94.8924 133.933 94.7168 132.669 94.7987C132.084 94.8397 131.809 95.027 131.744 95.6004C131.674 96.408 131.762 97.3092 131.715 98.1284Z" fill="url(#paint29_linear)"/>
<path d="M133.805 99.7144C134.154 100.53 134.747 101.219 135.502 101.686C135.783 101.863 136.106 101.964 136.438 101.979C136.605 101.986 136.77 101.954 136.923 101.886C137.075 101.818 137.209 101.716 137.316 101.587C137.504 101.263 137.584 100.888 137.544 100.516V97.8243C137.558 97.636 137.525 97.4473 137.45 97.2742C137.362 97.1465 137.247 97.0392 137.114 96.9594C136.981 96.8797 136.832 96.8294 136.678 96.8119C135.847 96.6071 134.255 96.2267 133.559 96.9406C132.862 97.6546 133.477 98.9888 133.805 99.7144Z" fill="url(#paint30_linear)"/>
<path d="M141.424 95.9106C141.336 97.274 141.002 98.8365 139.809 99.4743C139.343 99.7028 138.835 99.8342 138.317 99.8605C137.045 100.025 135.753 99.8345 134.583 99.3105C133.3 98.6092 132.317 97.4652 131.815 96.092C131.327 94.7276 131.089 93.2865 131.113 91.8377C131.113 89.772 131.523 87.3786 133.319 86.3663C134.034 86.0019 134.822 85.802 135.625 85.7811C137.433 85.6699 141.547 85.5295 141.313 88.0867C141.079 90.6439 141.623 93.2656 141.424 95.9106Z" fill="url(#paint31_linear)"/>
<path d="M141.623 84.9855C141.451 84.4938 141.174 84.0456 140.811 83.6717C140.448 83.2978 140.008 83.0073 139.522 82.8203C138.646 82.5518 137.725 82.4603 136.813 82.5511C135.871 82.5921 134.929 82.6389 133.986 82.6974C132.929 82.6985 131.883 82.9093 130.908 83.3177C130.417 83.5323 130.017 83.9137 129.779 84.3944C129.665 84.7787 129.575 85.1695 129.51 85.5648C129.369 86.068 129.065 86.5128 128.925 87.0043C128.72 87.9814 128.799 88.9967 129.153 89.9302C129.562 91.3932 130.036 92.9556 131.236 93.8802C130.979 93.0872 131.012 92.2284 131.33 91.4576C131.59 91.6566 131.806 91.9067 131.966 92.1925C132.126 92.4783 132.226 92.7937 132.26 93.1195C132.553 93.1195 132.605 92.6923 132.576 92.3997C132.437 91.5743 132.376 90.7377 132.395 89.901C132.407 89.4812 132.51 89.069 132.695 88.6923C132.881 88.3157 133.146 87.9835 133.471 87.7183C134.531 86.9575 135.982 87.332 137.263 87.5602C138.258 87.7417 140.107 88.1454 141.079 87.7475C142.05 87.3496 141.921 85.8281 141.623 84.9855Z" fill="#6E71FF"/>
<path d="M141.623 84.9855C141.451 84.4938 141.174 84.0456 140.811 83.6717C140.448 83.2978 140.008 83.0073 139.522 82.8203C138.646 82.5518 137.725 82.4603 136.813 82.5511C135.871 82.5921 134.929 82.6389 133.986 82.6974C132.929 82.6985 131.883 82.9093 130.908 83.3177C130.417 83.5323 130.017 83.9137 129.779 84.3944C129.665 84.7787 129.575 85.1695 129.51 85.5648C129.369 86.068 129.065 86.5128 128.925 87.0043C128.72 87.9814 128.799 88.9967 129.153 89.9302C129.562 91.3932 130.036 92.9556 131.236 93.8802C130.979 93.0872 131.012 92.2284 131.33 91.4576C131.59 91.6566 131.806 91.9067 131.966 92.1925C132.126 92.4783 132.226 92.7937 132.26 93.1195C132.553 93.1195 132.605 92.6923 132.576 92.3997C132.437 91.5743 132.376 90.7377 132.395 89.901C132.407 89.4812 132.51 89.069 132.695 88.6923C132.881 88.3157 133.146 87.9835 133.471 87.7183C134.531 86.9575 135.982 87.332 137.263 87.5602C138.258 87.7417 140.107 88.1454 141.079 87.7475C142.05 87.3496 141.921 85.8281 141.623 84.9855Z" fill="url(#paint32_linear)" fill-opacity="0.9"/>
<path d="M158.4 119.523H156.615C156.165 114.882 151.834 111.236 146.579 111.236C141.114 111.236 136.631 115.181 136.503 120.073C135.917 120.108 135.332 120.137 134.718 120.178C134.806 114.256 140.09 109.458 146.579 109.458C152.823 109.487 157.955 113.905 158.4 119.523Z" fill="#6E71FF"/>
<path d="M158.4 119.523H156.615C156.165 114.882 151.834 111.236 146.579 111.236C141.114 111.236 136.631 115.181 136.503 120.073C135.917 120.108 135.332 120.137 134.718 120.178C134.806 114.256 140.09 109.458 146.579 109.458C152.823 109.487 157.955 113.905 158.4 119.523Z" fill="url(#paint33_linear)" fill-opacity="0.7"/>
<path d="M132.43 161.907C132.43 161.907 122.482 159.789 115.933 154.113C110.772 149.654 107.946 157.126 109.245 162.797C110.544 168.467 125.08 167.145 129.773 166.694C134.466 166.243 135.186 162.65 132.43 161.907Z" fill="#6E71FF"/>
<path d="M131.353 161.925C131.353 161.925 122.043 160.111 115.881 155.254C111.041 151.438 108.385 157.834 109.608 162.686C110.831 167.537 124.46 166.402 128.86 166.021C133.261 165.641 133.939 162.557 131.353 161.925Z" fill="url(#paint34_linear)"/>
<path d="M109.707 162.972C109.668 162.879 109.635 162.783 109.608 162.686C108.385 157.834 111.041 151.438 115.881 155.254C116.413 155.669 116.963 156.067 117.537 156.424C113.622 157.343 110.772 159.637 109.707 162.972Z" fill="#6E71FF"/>
<path d="M114.464 162.019C114.464 163.944 115.81 165.53 117.466 165.53C119.122 165.53 120.468 163.967 120.468 162.019C120.468 160.07 119.122 158.508 117.466 158.508C115.81 158.508 114.464 160.093 114.464 162.019Z" fill="#6E71FF"/>
<path d="M122.75 163.16C122.75 164.617 123.768 165.793 125.02 165.793C126.273 165.793 127.285 164.623 127.285 163.16C127.285 161.697 126.273 160.526 125.02 160.526C123.768 160.526 122.75 161.703 122.75 163.16Z" fill="#6E71FF"/>
<path d="M209.439 160.69C209.439 162.2 208.392 163.423 207.099 163.423C205.805 163.423 204.758 162.2 204.758 160.69C204.758 159.18 205.805 157.951 207.099 157.951C208.392 157.951 209.439 159.18 209.439 160.69Z" fill="#6E71FF"/>
<path d="M204.757 162.58C204.704 162.917 204.554 163.232 204.327 163.487C204.1 163.742 203.805 163.926 203.476 164.018C203.148 164.11 202.8 164.106 202.473 164.006C202.147 163.907 201.856 163.715 201.635 163.455C201.414 163.195 201.272 162.877 201.226 162.539C201.18 162.201 201.232 161.857 201.376 161.547C201.52 161.238 201.75 160.976 202.038 160.793C202.326 160.61 202.66 160.513 203.002 160.515C203.506 160.561 203.973 160.803 204.301 161.189C204.629 161.575 204.793 162.075 204.757 162.58Z" fill="#6E71FF"/>
<path d="M205.296 156.249C205.94 155.096 206.46 153.878 206.847 152.615C208.321 151.041 209.111 154.048 209.357 157.688C208.631 156.664 206.771 156.301 205.296 156.249Z" fill="url(#paint35_linear)"/>
<path d="M109.707 162.972C109.668 162.879 109.635 162.783 109.608 162.686C108.385 157.834 111.041 151.438 115.881 155.254C116.413 155.669 116.963 156.067 117.537 156.424C113.622 157.343 110.772 159.637 109.707 162.972Z" fill="url(#paint36_linear)"/>
<path d="M114.464 162.019C114.464 163.944 115.81 165.53 117.466 165.53C119.122 165.53 120.468 163.967 120.468 162.019C120.468 160.07 119.122 158.508 117.466 158.508C115.81 158.508 114.464 160.093 114.464 162.019Z" fill="url(#paint37_linear)"/>
<path d="M122.75 163.16C122.75 164.617 123.768 165.793 125.02 165.793C126.273 165.793 127.285 164.623 127.285 163.16C127.285 161.697 126.273 160.526 125.02 160.526C123.768 160.526 122.75 161.703 122.75 163.16Z" fill="url(#paint38_linear)"/>
<path d="M209.439 160.69C209.439 162.2 208.392 163.423 207.099 163.423C205.805 163.423 204.758 162.2 204.758 160.69C204.758 159.18 205.805 157.951 207.099 157.951C208.392 157.951 209.439 159.18 209.439 160.69Z" fill="url(#paint39_linear)"/>
<path d="M204.757 162.58C204.704 162.917 204.554 163.232 204.327 163.487C204.1 163.742 203.805 163.926 203.476 164.018C203.148 164.11 202.8 164.106 202.473 164.006C202.147 163.907 201.856 163.715 201.635 163.455C201.414 163.195 201.272 162.877 201.226 162.539C201.18 162.201 201.232 161.857 201.376 161.547C201.52 161.238 201.75 160.976 202.038 160.793C202.326 160.61 202.66 160.513 203.002 160.515C203.506 160.561 203.973 160.803 204.301 161.189C204.629 161.575 204.793 162.075 204.757 162.58Z" fill="url(#paint40_linear)"/>
<path d="M97.2598 142.315C97.2598 142.503 97.1954 142.649 97.1193 142.637L95.1356 142.391C95.0595 142.391 95.001 142.222 95.001 142.034V141.239C95.001 141.051 95.0595 140.911 95.1356 140.923L97.1252 141.168C97.2013 141.168 97.2598 141.332 97.2598 141.519V142.315Z" fill="url(#paint41_linear)"/>
<path d="M68.1531 164.722C68.1531 164.862 68.1063 164.968 68.0478 164.962L66.5731 164.781C66.5146 164.781 66.4736 164.652 66.4736 164.517V163.932C66.4736 163.792 66.5204 163.686 66.5731 163.692L68.0536 163.879C68.1063 163.879 68.1531 164.002 68.1531 164.143V164.722Z" fill="url(#paint42_linear)"/>
<path d="M54.466 162.077C54.466 162.188 54.4309 162.276 54.3841 162.27L53.1727 162.153C53.1259 162.153 53.0908 162.048 53.0908 161.936V161.451C53.0908 161.334 53.1259 161.252 53.1727 161.258L54.3841 161.404C54.4309 161.404 54.466 161.509 54.466 161.62V162.077Z" fill="url(#paint43_linear)"/>
<path opacity="0.25" d="M139.551 62.2688L189.18 141.777L207.514 141.075L162.314 62.9827L139.551 62.2688Z" fill="#6E71FF"/>
<path opacity="0.18" d="M42.5752 100.563L55.888 113.004L72.6886 107.439L55.8529 92.2649L42.5752 100.563Z" fill="#6E71FF"/>
<path d="M185.078 154.622H147.849V166.004H185.078V154.622Z" fill="url(#paint44_linear)"/>
<path d="M114.119 147.19C114.013 146.531 114.045 145.858 114.213 145.212C116.899 152.954 138.246 159.093 163.081 159.093C186.682 159.093 205.214 153.539 207.034 146.347C207.129 146.618 207.201 146.896 207.251 147.178C208.649 155.301 188.929 161.896 163.216 161.896C137.503 161.896 115.524 155.318 114.119 147.19Z" fill="url(#paint45_linear)"/>
<path d="M151.296 109.896C151.034 110.046 150.803 110.245 150.617 110.482C150.429 110.842 150.336 111.245 150.348 111.652C150.296 111.943 150.348 112.243 150.494 112.5C150.675 112.734 151.114 112.764 151.219 112.5C151.232 112.657 151.28 112.808 151.359 112.944C151.438 113.08 151.546 113.196 151.676 113.285C151.808 113.368 151.966 113.401 152.121 113.378C152.276 113.354 152.417 113.275 152.519 113.156C152.457 113.456 152.5 113.768 152.641 114.039C152.817 114.291 153.268 114.344 153.396 114.069C153.455 114.385 153.572 114.765 153.882 114.841C153.992 114.858 154.105 114.844 154.208 114.802C154.311 114.76 154.401 114.69 154.467 114.601C154.599 114.42 154.709 114.223 154.795 114.016C154.823 113.956 154.865 113.904 154.918 113.864C154.991 113.844 155.067 113.844 155.14 113.864C155.307 113.882 155.476 113.882 155.643 113.864C155.725 113.861 155.804 113.83 155.866 113.776C155.897 113.723 155.915 113.662 155.918 113.601C155.983 112.74 155.333 112.032 154.871 111.26C154.53 110.645 154.018 110.143 153.396 109.814C153.112 109.608 152.783 109.472 152.437 109.417C152.018 109.463 151.622 109.63 151.296 109.896Z" fill="url(#paint46_linear)"/>
<path d="M133.828 114.753C133.474 114.91 133.159 115.144 132.906 115.437C132.653 115.731 132.468 116.077 132.365 116.45C132.28 116.83 132.348 117.228 132.555 117.557C132.763 117.886 133.092 118.119 133.471 118.206C133.837 118.207 134.2 118.15 134.548 118.036C135.332 117.867 136.204 117.948 136.889 117.515L137.105 117.826C137.295 117.851 137.487 117.821 137.661 117.74C137.834 117.659 137.98 117.531 138.082 117.369C138.311 117.065 138.439 116.69 138.668 116.374C138.896 116.058 139.206 115.737 139.405 115.368C139.508 115.174 139.572 114.961 139.592 114.742C139.612 114.523 139.589 114.303 139.523 114.093C139.457 113.883 139.35 113.689 139.208 113.521C139.066 113.353 138.893 113.215 138.697 113.115C138.457 113.022 138.201 112.977 137.944 112.984C137.686 112.991 137.433 113.05 137.199 113.156C136.655 113.378 136.257 113.823 135.742 114.063C135.127 114.35 134.437 114.42 133.828 114.753Z" fill="url(#paint47_linear)"/>
<path d="M127.051 110.622C126.923 111.26 125.389 112.377 125.881 112.851C125.549 112.771 125.239 112.619 124.972 112.405C124.705 112.192 124.488 111.923 124.336 111.617C124.008 110.938 124.599 109.926 125.43 108.27C125.965 107.012 126.247 105.662 126.261 104.296L126.332 104.366C126.97 106.386 127.214 108.51 127.051 110.622Z" fill="url(#paint48_linear)"/>
<path d="M128.79 100.563L130.808 106.848L134.068 106.666C134.068 106.666 131.797 99.135 131.727 98.1285C131.657 97.1219 128.614 98.0699 128.79 100.563Z" fill="url(#paint49_linear)"/>
<path d="M137.947 106.11C139.093 106.187 140.243 106.157 141.382 106.023C141.242 103.904 140.277 101.926 139.323 100.042C139.302 99.9877 139.268 99.9394 139.223 99.9017C139.159 99.8651 139.086 99.8488 139.013 99.8549H138.105C137.92 99.8302 137.732 99.8651 137.567 99.9544C137.216 100.183 137.719 102.237 137.76 102.699C137.86 103.811 137.924 104.964 137.947 106.11Z" fill="url(#paint50_linear)"/>
<defs>
<linearGradient id="paint0_linear" x1="144.847" y1="88.2564" x2="83.6721" y2="254.711" gradientUnits="userSpaceOnUse">
<stop offset="0.01"/>
<stop offset="0.83" stop-opacity="0.07"/>
<stop offset="1" stop-opacity="0"/>
</linearGradient>
<linearGradient id="paint1_linear" x1="-19879.3" y1="6179.42" x2="-20096.6" y2="6179.42" gradientUnits="userSpaceOnUse">
<stop offset="0.01"/>
<stop offset="0.83" stop-opacity="0.07"/>
<stop offset="1" stop-opacity="0"/>
</linearGradient>
<linearGradient id="paint2_linear" x1="33" y1="140" x2="33" y2="194" gradientUnits="userSpaceOnUse">
<stop/>
<stop offset="1" stop-opacity="0"/>
</linearGradient>
<linearGradient id="paint3_linear" x1="34.9152" y1="158.946" x2="30.8131" y2="158.946" gradientUnits="userSpaceOnUse">
<stop stop-color="white"/>
<stop offset="0.43" stop-color="#FDFDFD"/>
<stop offset="0.68" stop-color="#F5F5F5"/>
<stop offset="0.87" stop-color="#E7E7E8"/>
<stop offset="0.97" stop-color="#DDDEDF"/>
</linearGradient>
<linearGradient id="paint4_linear" x1="-39665.7" y1="11300.9" x2="-41764.5" y2="11500.4" gradientUnits="userSpaceOnUse">
<stop offset="0.01"/>
<stop offset="0.83" stop-opacity="0.07"/>
<stop offset="1" stop-opacity="0"/>
</linearGradient>
<linearGradient id="paint5_linear" x1="85" y1="145" x2="85" y2="220.5" gradientUnits="userSpaceOnUse">
<stop/>
<stop offset="1" stop-opacity="0"/>
</linearGradient>
<linearGradient id="paint6_linear" x1="12832.2" y1="6851.72" x2="12919.5" y2="6851.72" gradientUnits="userSpaceOnUse">
<stop stop-color="white"/>
<stop offset="0.43" stop-color="#FDFDFD"/>
<stop offset="0.68" stop-color="#F5F5F5"/>
<stop offset="0.87" stop-color="#E7E7E8"/>
<stop offset="0.97" stop-color="#DDDEDF"/>
</linearGradient>
<linearGradient id="paint7_linear" x1="-35800.5" y1="11297.9" x2="-37897.5" y2="11497.2" gradientUnits="userSpaceOnUse">
<stop offset="0.01"/>
<stop offset="0.83" stop-opacity="0.07"/>
<stop offset="1" stop-opacity="0"/>
</linearGradient>
<linearGradient id="paint8_linear" x1="184" y1="156.5" x2="185.5" y2="241.5" gradientUnits="userSpaceOnUse">
<stop/>
<stop offset="1" stop-opacity="0"/>
</linearGradient>
<linearGradient id="paint9_linear" x1="11732.4" y1="6851.72" x2="11819.7" y2="6851.72" gradientUnits="userSpaceOnUse">
<stop stop-color="white"/>
<stop offset="0.43" stop-color="#FDFDFD"/>
<stop offset="0.68" stop-color="#F5F5F5"/>
<stop offset="0.87" stop-color="#E7E7E8"/>
<stop offset="0.97" stop-color="#DDDEDF"/>
</linearGradient>
<linearGradient id="paint10_linear" x1="-25082.8" y1="6814.79" x2="-25427.6" y2="6814.79" gradientUnits="userSpaceOnUse">
<stop offset="0.01"/>
<stop offset="0.83" stop-opacity="0.07"/>
<stop offset="1" stop-opacity="0"/>
</linearGradient>
<linearGradient id="paint11_linear" x1="43" y1="140.5" x2="42" y2="201" gradientUnits="userSpaceOnUse">
<stop/>
<stop offset="1" stop-opacity="0"/>
</linearGradient>
<linearGradient id="paint12_linear" x1="8365.76" y1="4047.72" x2="8400.06" y2="4047.72" gradientUnits="userSpaceOnUse">
<stop stop-color="white"/>
<stop offset="0.43" stop-color="#FDFDFD"/>
<stop offset="0.68" stop-color="#F5F5F5"/>
<stop offset="0.87" stop-color="#E7E7E8"/>
<stop offset="0.97" stop-color="#DDDEDF"/>
</linearGradient>
<linearGradient id="paint13_linear" x1="-188949" y1="9395.82" x2="-156159" y2="16167.4" gradientUnits="userSpaceOnUse">
<stop offset="0.01"/>
<stop offset="0.83" stop-opacity="0.07"/>
<stop offset="1" stop-opacity="0.43"/>
</linearGradient>
<linearGradient id="paint14_linear" x1="218.5" y1="158" x2="74.2294" y2="36.0396" gradientUnits="userSpaceOnUse">
<stop offset="0.177626" stop-opacity="0"/>
<stop offset="0.771169"/>
<stop offset="0.932855" stop-opacity="0.75"/>
</linearGradient>
<linearGradient id="paint15_linear" x1="-163622" y1="1606.05" x2="-163648" y2="815.083" gradientUnits="userSpaceOnUse">
<stop offset="0.01"/>
<stop offset="0.83" stop-opacity="0.07"/>
<stop offset="1" stop-opacity="0"/>
</linearGradient>
<linearGradient id="paint16_linear" x1="206.5" y1="148.5" x2="195.5" y2="174.5" gradientUnits="userSpaceOnUse">
<stop/>
<stop offset="0.9375" stop-opacity="0"/>
</linearGradient>
<linearGradient id="paint17_linear" x1="85.1469" y1="71.5554" x2="150.593" y2="81.8722" gradientUnits="userSpaceOnUse">
<stop stop-color="#2B2B2B"/>
<stop offset="0.22" stop-color="#2E2E2E"/>
<stop offset="0.41" stop-color="#383939"/>
<stop offset="0.6" stop-color="#494A4B"/>
<stop offset="0.77" stop-color="#616264"/>
<stop offset="0.94" stop-color="#7F8184"/>
<stop offset="1" stop-color="#8D8F92"/>
</linearGradient>
<linearGradient id="paint18_linear" x1="67" y1="51.5" x2="40.404" y2="295.16" gradientUnits="userSpaceOnUse">
<stop offset="0.177626" stop-opacity="0"/>
<stop offset="0.771169"/>
<stop offset="0.932855" stop-opacity="0.75"/>
</linearGradient>
<linearGradient id="paint19_linear" x1="-140770" y1="4368.38" x2="-139741" y2="12525" gradientUnits="userSpaceOnUse">
<stop offset="0.01"/>
<stop offset="0.83" stop-opacity="0.07"/>
<stop offset="1" stop-opacity="0.41"/>
</linearGradient>
<linearGradient id="paint20_linear" x1="94.5971" y1="92.7974" x2="92.783" y2="79.9059" gradientUnits="userSpaceOnUse">
<stop stop-color="white" stop-opacity="0"/>
<stop offset="0.12" stop-color="white" stop-opacity="0.04"/>
<stop offset="0.33" stop-color="white" stop-opacity="0.14"/>
<stop offset="0.59" stop-color="white" stop-opacity="0.3"/>
<stop offset="0.89" stop-color="white" stop-opacity="0.52"/>
<stop offset="1" stop-color="white" stop-opacity="0.6"/>
</linearGradient>
<linearGradient id="paint21_linear" x1="159" y1="148" x2="157.875" y2="200.581" gradientUnits="userSpaceOnUse">
<stop offset="0.177626" stop-opacity="0"/>
<stop offset="0.771169"/>
<stop offset="0.932855" stop-opacity="0.75"/>
</linearGradient>
<linearGradient id="paint22_linear" x1="218" y1="100" x2="106.33" y2="138.56" gradientUnits="userSpaceOnUse">
<stop offset="0.177626" stop-opacity="0"/>
<stop offset="0.771169"/>
<stop offset="0.932855" stop-opacity="0.75"/>
</linearGradient>
<linearGradient id="paint23_linear" x1="7153.73" y1="3399.36" x2="8225.68" y2="3399.36" gradientUnits="userSpaceOnUse">
<stop offset="0.01"/>
<stop offset="0.83" stop-opacity="0.07"/>
<stop offset="1" stop-opacity="0"/>
</linearGradient>
<linearGradient id="paint24_linear" x1="5177.86" y1="3272.01" x2="7088.69" y2="4893.91" gradientUnits="userSpaceOnUse">
<stop offset="0.01"/>
<stop offset="0.83" stop-opacity="0.07"/>
<stop offset="1" stop-opacity="0"/>
</linearGradient>
<linearGradient id="paint25_linear" x1="148.5" y1="122.5" x2="147.903" y2="109.504" gradientUnits="userSpaceOnUse">
<stop offset="0.01"/>
<stop offset="1" stop-opacity="0"/>
</linearGradient>
<linearGradient id="paint26_linear" x1="134" y1="130.5" x2="133.717" y2="99.0025" gradientUnits="userSpaceOnUse">
<stop offset="0.01"/>
<stop offset="0.785547" stop-opacity="0"/>
</linearGradient>
<linearGradient id="paint27_linear" x1="2399.81" y1="2334.79" x2="2627.04" y2="2051.49" gradientUnits="userSpaceOnUse">
<stop offset="0.01"/>
<stop offset="0.83" stop-opacity="0.07"/>
<stop offset="1" stop-opacity="0"/>
</linearGradient>
<linearGradient id="paint28_linear" x1="127.239" y1="118.44" x2="127.14" y2="114.96" gradientUnits="userSpaceOnUse">
<stop offset="0.01"/>
<stop offset="1" stop-opacity="0"/>
</linearGradient>
<linearGradient id="paint29_linear" x1="131.698" y1="98.8014" x2="137.497" y2="98.8014" gradientUnits="userSpaceOnUse">
<stop stop-color="#E5C5D5"/>
<stop offset="0.42" stop-color="#EAD4D1"/>
<stop offset="1" stop-color="#F0E9CB"/>
</linearGradient>
<linearGradient id="paint30_linear" x1="1149.13" y1="766.091" x2="1126.39" y2="864.991" gradientUnits="userSpaceOnUse">
<stop offset="0.01"/>
<stop offset="0.83" stop-opacity="0.07"/>
<stop offset="1" stop-opacity="0"/>
</linearGradient>
<linearGradient id="paint31_linear" x1="131.112" y1="92.8261" x2="141.476" y2="92.8261" gradientUnits="userSpaceOnUse">
<stop stop-color="#E5C5D5"/>
<stop offset="0.42" stop-color="#EAD4D1"/>
<stop offset="1" stop-color="#F0E9CB"/>
</linearGradient>
<linearGradient id="paint32_linear" x1="135" y1="80.5" x2="139" y2="127" gradientUnits="userSpaceOnUse">
<stop stop-color="#101010"/>
<stop offset="1" stop-opacity="0"/>
</linearGradient>
<linearGradient id="paint33_linear" x1="146" y1="118" x2="146" y2="135" gradientUnits="userSpaceOnUse">
<stop/>
<stop offset="0.932292" stop-opacity="0.0729167"/>
<stop offset="1" stop-color="white" stop-opacity="0"/>
</linearGradient>
<linearGradient id="paint34_linear" x1="121.087" y1="154.092" x2="121.087" y2="166.412" gradientUnits="userSpaceOnUse">
<stop stop-color="#404040"/>
<stop offset="1" stop-opacity="0"/>
</linearGradient>
<linearGradient id="paint35_linear" x1="205.296" y1="154.938" x2="209.357" y2="154.938" gradientUnits="userSpaceOnUse">
<stop offset="0.02" stop-color="white" stop-opacity="0"/>
<stop offset="0.39" stop-color="white" stop-opacity="0.39"/>
<stop offset="1" stop-color="white"/>
</linearGradient>
<linearGradient id="paint36_linear" x1="109.312" y1="158.533" x2="117.537" y2="158.533" gradientUnits="userSpaceOnUse">
<stop offset="0.02" stop-color="white" stop-opacity="0"/>
<stop offset="0.39" stop-color="white" stop-opacity="0.39"/>
<stop offset="1" stop-color="white"/>
</linearGradient>
<linearGradient id="paint37_linear" x1="114.464" y1="162.019" x2="120.468" y2="162.019" gradientUnits="userSpaceOnUse">
<stop offset="0.02" stop-color="white" stop-opacity="0"/>
<stop offset="0.39" stop-color="white" stop-opacity="0.39"/>
<stop offset="1" stop-color="white"/>
</linearGradient>
<linearGradient id="paint38_linear" x1="122.75" y1="163.16" x2="127.285" y2="163.16" gradientUnits="userSpaceOnUse">
<stop offset="0.02" stop-color="white" stop-opacity="0"/>
<stop offset="0.39" stop-color="white" stop-opacity="0.39"/>
<stop offset="1" stop-color="white"/>
</linearGradient>
<linearGradient id="paint39_linear" x1="204.758" y1="160.688" x2="209.439" y2="160.688" gradientUnits="userSpaceOnUse">
<stop offset="0.02" stop-color="white" stop-opacity="0"/>
<stop offset="0.39" stop-color="white" stop-opacity="0.39"/>
<stop offset="1" stop-color="white"/>
</linearGradient>
<linearGradient id="paint40_linear" x1="201.21" y1="162.3" x2="204.762" y2="162.3" gradientUnits="userSpaceOnUse">
<stop offset="0.02" stop-color="white" stop-opacity="0"/>
<stop offset="0.39" stop-color="white" stop-opacity="0.39"/>
<stop offset="1" stop-color="white"/>
</linearGradient>
<linearGradient id="paint41_linear" x1="-1852.38" y1="484.42" x2="-1852.61" y2="489.153" gradientUnits="userSpaceOnUse">
<stop offset="0.01"/>
<stop offset="0.83" stop-opacity="0.07"/>
<stop offset="1" stop-opacity="0"/>
</linearGradient>
<linearGradient id="paint42_linear" x1="-1257.81" y1="461.295" x2="-1257.94" y2="463.892" gradientUnits="userSpaceOnUse">
<stop offset="0.01"/>
<stop offset="0.83" stop-opacity="0.07"/>
<stop offset="1" stop-opacity="0"/>
</linearGradient>
<linearGradient id="paint43_linear" x1="179.717" y1="363.136" x2="182.338" y2="445.842" gradientUnits="userSpaceOnUse">
<stop offset="0.01"/>
<stop offset="0.83" stop-opacity="0.07"/>
<stop offset="1" stop-opacity="0"/>
</linearGradient>
<linearGradient id="paint44_linear" x1="10872.1" y1="3690.7" x2="10853.7" y2="2447.46" gradientUnits="userSpaceOnUse">
<stop offset="0.01"/>
<stop offset="0.83" stop-opacity="0.07"/>
<stop offset="1" stop-opacity="0"/>
</linearGradient>
<linearGradient id="paint45_linear" x1="160.597" y1="143.896" x2="160.16" y2="177.497" gradientUnits="userSpaceOnUse">
<stop offset="0.177626" stop-opacity="0"/>
<stop offset="0.771169"/>
<stop offset="0.932855" stop-opacity="0.75"/>
</linearGradient>
<linearGradient id="paint46_linear" x1="150.328" y1="112.133" x2="155.927" y2="112.133" gradientUnits="userSpaceOnUse">
<stop stop-color="#E5C5D5"/>
<stop offset="0.42" stop-color="#EAD4D1"/>
<stop offset="1" stop-color="#F0E9CB"/>
</linearGradient>
<linearGradient id="paint47_linear" x1="132.329" y1="115.595" x2="139.604" y2="115.595" gradientUnits="userSpaceOnUse">
<stop stop-color="#E5C5D5"/>
<stop offset="0.42" stop-color="#EAD4D1"/>
<stop offset="1" stop-color="#F0E9CB"/>
</linearGradient>
<linearGradient id="paint48_linear" x1="767.988" y1="1438.76" x2="724.779" y2="1429.05" gradientUnits="userSpaceOnUse">
<stop offset="0.01"/>
<stop offset="0.83" stop-opacity="0.07"/>
<stop offset="1" stop-opacity="0"/>
</linearGradient>
<linearGradient id="paint49_linear" x1="131.425" y1="97.7324" x2="131.425" y2="106.848" gradientUnits="userSpaceOnUse">
<stop offset="0.9999" stop-color="white"/>
<stop offset="1" stop-color="white" stop-opacity="0"/>
</linearGradient>
<linearGradient id="paint50_linear" x1="139.413" y1="99.8472" x2="139.413" y2="106.152" gradientUnits="userSpaceOnUse">
<stop offset="0.9999" stop-color="white"/>
<stop offset="1" stop-color="white" stop-opacity="0"/>
</linearGradient>
</defs>
</svg>
