<svg width="208" height="208" viewBox="0 0 208 208" fill="none" xmlns="http://www.w3.org/2000/svg">
<path opacity="0.18" d="M6.14958 97.3812C10.2149 87.8628 16.3406 78.1042 22.037 73.3799C27.7333 68.6556 97.9333 -0.000196308 130.369 0C162.804 0.000196314 157.221 8.93405 169.134 18.5806C183.668 30.3419 196.101 50.4906 198.286 74.8236C199.803 91.5232 196.465 108.815 199.106 125.201C201.125 137.747 206.526 148.829 207.755 161.597C209.17 176.25 204.354 191.818 195.941 199.799C187.528 207.779 176.901 208.005 166.921 207.579C140.746 206.448 156.54 198.844 88.4536 207.202C20.3667 215.561 2.56506 155.483 2.56506 155.483C-1.45703 136.314 -1.09832 114.345 6.14958 97.3812Z" fill="#6E71FF"/>
<path d="M66.2671 155.262L63.7051 152.153C65.3362 150.806 67.0638 149.485 68.8349 148.227L71.1688 151.511C69.4766 152.715 67.8276 153.977 66.2671 155.262ZM76.3201 148.104L74.2109 144.669C76.037 143.549 77.9219 142.476 79.8169 141.481L81.6902 145.048C79.8758 146.003 78.0675 147.031 76.3201 148.104ZM87.2527 142.358L85.6196 138.674C87.5813 137.805 89.5923 136.991 91.5956 136.257L92.9809 140.041C91.0602 140.744 89.1337 141.523 87.2527 142.358ZM153.867 138.176C151.862 137.645 149.829 137.162 147.828 136.74L148.659 132.797C150.728 133.234 152.828 133.732 154.898 134.28L153.867 138.176ZM98.8464 138.113L97.7168 134.245C99.777 133.643 101.878 133.105 103.96 132.645L104.83 136.58C102.835 137.021 100.822 137.536 98.8464 138.113ZM141.726 135.622C139.68 135.304 137.612 135.043 135.577 134.843L135.971 130.833C138.078 131.04 140.223 131.311 142.344 131.64L141.726 135.622ZM110.904 135.445L110.294 131.463C112.403 131.14 114.556 130.882 116.693 130.697L117.039 134.711C114.991 134.89 112.927 135.136 110.904 135.445ZM129.399 134.421C127.295 134.34 125.231 134.331 123.21 134.372L123.12 130.344C125.21 130.293 127.362 130.308 129.556 130.395L129.399 134.421Z" fill="#6E71FF"/>
<path d="M66.2671 155.262L63.7051 152.153C65.3362 150.806 67.0638 149.485 68.8349 148.227L71.1688 151.511C69.4766 152.715 67.8276 153.977 66.2671 155.262ZM76.3201 148.104L74.2109 144.669C76.037 143.549 77.9219 142.476 79.8169 141.481L81.6902 145.048C79.8758 146.003 78.0675 147.031 76.3201 148.104ZM87.2527 142.358L85.6196 138.674C87.5813 137.805 89.5923 136.991 91.5956 136.257L92.9809 140.041C91.0602 140.744 89.1337 141.523 87.2527 142.358ZM153.867 138.176C151.862 137.645 149.829 137.162 147.828 136.74L148.659 132.797C150.728 133.234 152.828 133.732 154.898 134.28L153.867 138.176ZM98.8464 138.113L97.7168 134.245C99.777 133.643 101.878 133.105 103.96 132.645L104.83 136.58C102.835 137.021 100.822 137.536 98.8464 138.113ZM141.726 135.622C139.68 135.304 137.612 135.043 135.577 134.843L135.971 130.833C138.078 131.04 140.223 131.311 142.344 131.64L141.726 135.622ZM110.904 135.445L110.294 131.463C112.403 131.14 114.556 130.882 116.693 130.697L117.039 134.711C114.991 134.89 112.927 135.136 110.904 135.445ZM129.399 134.421C127.295 134.34 125.231 134.331 123.21 134.372L123.12 130.344C125.21 130.293 127.362 130.308 129.556 130.395L129.399 134.421Z" fill="url(#paint0_linear)" fill-opacity="0.4"/>
<path d="M161.751 141.927C164.284 133.289 166.959 127.055 169.222 122.717C170.755 119.778 173.809 115.33 176.165 112.997C180.919 108.29 183.578 101.471 182.609 94.0607C181.299 84.0384 173.059 75.9604 163.015 74.8246C149.474 73.293 138 83.8468 138 97.0799C138 103.291 140.529 108.91 144.612 112.967C147.008 115.349 150.123 119.895 151.678 122.895C153.92 127.225 156.558 133.406 159.056 141.927C159.452 143.277 161.356 143.277 161.751 141.927Z" fill="#6E71FF"/>
<path d="M161.751 141.927C164.284 133.289 166.959 127.055 169.222 122.717C170.755 119.778 173.809 115.33 176.165 112.997C180.919 108.29 183.578 101.471 182.609 94.0607C181.299 84.0384 173.059 75.9604 163.015 74.8246C149.474 73.293 138 83.8468 138 97.0799C138 103.291 140.529 108.91 144.612 112.967C147.008 115.349 150.123 119.895 151.678 122.895C153.92 127.225 156.558 133.406 159.056 141.927C159.452 143.277 161.356 143.277 161.751 141.927Z" fill="url(#paint1_linear)"/>
<path d="M61.4967 163.234C65.8407 150.967 70.3157 142.516 73.8809 136.967C76.5341 132.838 79.9189 129.164 83.6432 125.796C89.5307 120.473 93.1846 113.075 93.1643 104.841C93.1273 89.5681 79.8215 76.4931 63.1382 75.3604C44.6244 74.1034 28.9818 87.1985 28.5485 103.951C28.3447 111.83 31.5445 119.072 36.9201 124.505C40.4785 128.101 43.7208 131.956 46.1764 136.251C49.4499 141.977 53.482 150.647 57.1859 163.122C57.7722 165.097 60.8092 165.175 61.4967 163.234Z" fill="#6E71FF"/>
<path d="M61.4967 163.234C65.8407 150.967 70.3157 142.516 73.8809 136.967C76.5341 132.838 79.9189 129.164 83.6432 125.796C89.5307 120.473 93.1846 113.075 93.1643 104.841C93.1273 89.5681 79.8215 76.4931 63.1382 75.3604C44.6244 74.1034 28.9818 87.1985 28.5485 103.951C28.3447 111.83 31.5445 119.072 36.9201 124.505C40.4785 128.101 43.7208 131.956 46.1764 136.251C49.4499 141.977 53.482 150.647 57.1859 163.122C57.7722 165.097 60.8092 165.175 61.4967 163.234Z" fill="url(#paint2_linear)"/>
<path d="M60.253 158.026C63.9332 145.636 67.8233 137.062 70.9506 131.416C73.2779 127.214 76.2846 123.449 79.6088 119.982C84.8639 114.502 88.0285 107.002 87.8153 98.7615C87.4203 83.4759 74.9503 70.7338 59.6758 70.0321C42.7253 69.2533 28.7383 82.7651 28.7383 99.5436C28.7383 107.435 31.834 114.601 36.8755 119.899C40.2127 123.407 43.2672 127.181 45.613 131.416C48.7403 137.062 52.6304 145.636 56.3106 158.026C56.8931 159.987 59.6706 159.987 60.253 158.026Z" fill="#6E71FF"/>
<path d="M58.2889 119.53C69.2747 119.53 78.1804 110.624 78.1804 99.6385C78.1804 88.6528 69.2747 79.7471 58.2889 79.7471C47.3032 79.7471 38.3975 88.6528 38.3975 99.6385C38.3975 110.624 47.3032 119.53 58.2889 119.53Z" fill="url(#paint3_linear)"/>
<path d="M160.954 137.392C163.301 129.388 165.78 123.612 167.877 119.593C169.297 116.87 172.127 112.747 174.31 110.586C178.715 106.225 181.178 99.9059 180.281 93.0395C179.067 83.753 171.432 76.2679 162.126 75.2154C149.578 73.7963 138.946 83.5754 138.946 95.8371C138.946 101.592 141.29 106.799 145.073 110.558C147.293 112.765 150.18 116.977 151.62 119.757C153.698 123.769 156.142 129.497 158.457 137.393C158.824 138.643 160.588 138.643 160.954 137.392Z" fill="#6E71FF"/>
<path d="M159.699 109.88C167.418 109.88 173.676 103.622 173.676 95.9026C173.676 88.1834 167.418 81.9257 159.699 81.9257C151.979 81.9257 145.722 88.1834 145.722 95.9026C145.722 103.622 151.979 109.88 159.699 109.88Z" fill="#6E71FF"/>
<path d="M159.699 109.88C167.418 109.88 173.676 103.622 173.676 95.9026C173.676 88.1834 167.418 81.9257 159.699 81.9257C151.979 81.9257 145.722 88.1834 145.722 95.9026C145.722 103.622 151.979 109.88 159.699 109.88Z" fill="url(#paint4_linear)"/>
<defs>
<linearGradient id="paint0_linear" x1="59.6176" y1="165.353" x2="57.6674" y2="169.578" gradientUnits="userSpaceOnUse">
<stop/>
<stop offset="1" stop-color="#828282" stop-opacity="0"/>
</linearGradient>
<linearGradient id="paint1_linear" x1="160.403" y1="74.6765" x2="160.403" y2="142.94" gradientUnits="userSpaceOnUse">
<stop stop-color="white"/>
<stop offset="1" stop-color="white" stop-opacity="0"/>
</linearGradient>
<linearGradient id="paint2_linear" x1="56.9987" y1="42.1665" x2="58.7763" y2="164.654" gradientUnits="userSpaceOnUse">
<stop stop-color="white"/>
<stop offset="1" stop-color="white" stop-opacity="0"/>
</linearGradient>
<linearGradient id="paint3_linear" x1="58.2889" y1="79.7471" x2="59.6181" y2="138.212" gradientUnits="userSpaceOnUse">
<stop offset="0.627151" stop-color="white"/>
<stop offset="1" stop-color="white" stop-opacity="0"/>
</linearGradient>
<linearGradient id="paint4_linear" x1="159.699" y1="81.9257" x2="159.789" y2="130.793" gradientUnits="userSpaceOnUse">
<stop offset="0.49559" stop-color="white"/>
<stop offset="1" stop-color="white" stop-opacity="0"/>
</linearGradient>
</defs>
</svg>
