<svg width="208" height="208" viewBox="0 0 208 208" fill="none" xmlns="http://www.w3.org/2000/svg">
<path opacity="0.18" d="M192.017 177.378C189.587 179.312 186.934 180.891 184.126 182.076C179.264 184.121 174.086 185.037 169.097 186.613C166.882 187.305 164.709 188.145 162.577 189.06C149.664 194.575 137.813 203.324 124.229 206.517C99.0577 212.478 74.7302 198.925 50.6703 193.178C30.0558 188.265 13.3023 200.01 4.97912 164.472C1.50082 149.678 -2.80485 134.012 2.45993 119.816C7.72471 105.62 15.1382 92.5085 20.1601 78.2407C27.3308 57.8639 29.9858 34.388 44.0966 18.8386C53.8687 8.07191 67.8354 2.87389 81.6704 1.02957C95.5053 -0.814744 109.513 0.368654 123.443 0.431173C140.221 0.489226 158.094 -0.787951 172.604 8.37557C177.722 11.6579 182.132 16.0903 185.54 21.3748C188.948 26.6594 191.274 32.6739 192.362 39.0144C195.244 56.5153 188.403 74.6593 191.477 92.1289C194.33 108.393 205.473 122.004 207.65 138.402C209.626 153.165 203.065 168.652 192.017 177.378Z" fill="#6E71FF"/>
<path d="M138.417 80.25C138.417 62.8994 124.352 48.833 107 48.833L102.167 106.833L107 155.167H138.417V80.25Z" fill="#6E71FF"/>
<path d="M138.417 80.25C138.417 62.8994 124.352 48.833 107 48.833L102.167 106.833L107 155.167H138.417V80.25Z" fill="url(#paint0_linear)"/>
<path d="M107 48.834C89.6494 48.834 75.583 62.8994 75.583 80.2501V155.167H107V48.834Z" fill="#6E71FF"/>
<path d="M107 48.834C89.6494 48.834 75.583 62.8994 75.583 80.2501V155.167H107V48.834Z" fill="url(#paint1_linear)"/>
<path d="M107 44L104.583 48.833L107 102H110.398V50.9907C125.32 52.6837 136.951 65.3818 136.951 80.7483V155.167H143.748V80.7483C143.748 60.4851 127.263 44 107 44V44Z" fill="#6E71FF"/>
<path d="M70.252 80.7483V155.167H77.0488V80.7483C77.0488 65.3827 88.6805 52.6837 103.602 50.9907V102H107V44C86.737 44 70.252 60.4851 70.252 80.7483Z" fill="#6E71FF"/>
<path d="M153.898 98.6016H107L104.583 131L107 160H153.898V98.6016ZM124.842 153.203H110.398V105.398H124.842L126.258 113.102L124.842 115.519V153.203ZM147.102 153.203H131.639V105.398H147.102V153.203Z" fill="#6E71FF"/>
<path d="M153.898 98.6016H107L104.583 131L107 160H153.898V98.6016ZM124.842 153.203H110.398V105.398H124.842L126.258 113.102L124.842 115.519V153.203ZM147.102 153.203H131.639V105.398H147.102V153.203Z" fill="url(#paint2_linear)" fill-opacity="0.8"/>
<path d="M60.1016 98.6016V160H107V98.6016H60.1016ZM82.3613 153.203H66.8984V105.398H82.3613V153.203ZM89.1582 153.203V115.519L87.667 114.083L89.1582 105.398H103.602V153.203H89.1582Z" fill="#6E71FF"/>
<path d="M60.1016 98.6016V160H107V98.6016H60.1016ZM82.3613 153.203H66.8984V105.398H82.3613V153.203ZM89.1582 153.203V115.519L87.667 114.083L89.1582 105.398H103.602V153.203H89.1582Z" fill="url(#paint3_linear)"/>
<path d="M156.403 90.9877C154.554 86.3777 150.038 83.2227 144.921 83.2227C139.804 83.2227 135.288 86.3777 133.439 90.9877C128.408 92.5958 124.842 97.3129 124.842 102.769C124.842 109.589 130.391 115.139 137.212 115.139H152.63C159.451 115.139 165 109.59 165 102.769C165 97.3129 161.434 92.5958 156.403 90.9877Z" fill="#6E71FF"/>
<path d="M156.403 90.9877C154.554 86.3777 150.038 83.2227 144.921 83.2227C139.804 83.2227 135.288 86.3777 133.439 90.9877C128.408 92.5958 124.842 97.3129 124.842 102.769C124.842 109.589 130.391 115.139 137.212 115.139H152.63C159.451 115.139 165 109.59 165 102.769C165 97.3129 161.434 92.5958 156.403 90.9877Z" fill="url(#paint4_linear)" fill-opacity="0.7"/>
<path d="M165 115.519H124.842V102.505H165V115.519Z" fill="#6E71FF"/>
<path d="M165 115.519H124.842V102.505H165V115.519Z" fill="url(#paint5_linear)"/>
<path d="M49 102.769C49 109.589 54.549 115.139 61.3698 115.139H76.7884C83.6092 115.139 89.1582 109.59 89.1582 102.769C89.1582 97.3129 85.5925 92.5958 80.5612 90.9877C78.7124 86.3777 74.1962 83.2227 69.0791 83.2227C63.962 83.2227 59.4458 86.3777 57.597 90.9877C52.5657 92.5958 49 97.3129 49 102.769Z" fill="#6E71FF"/>
<path d="M49 102.769C49 109.589 54.549 115.139 61.3698 115.139H76.7884C83.6092 115.139 89.1582 109.59 89.1582 102.769C89.1582 97.3129 85.5925 92.5958 80.5612 90.9877C78.7124 86.3777 74.1962 83.2227 69.0791 83.2227C63.962 83.2227 59.4458 86.3777 57.597 90.9877C52.5657 92.5958 49 97.3129 49 102.769Z" fill="url(#paint6_linear)" fill-opacity="0.7"/>
<path d="M49 102.505H89.1582V115.519H49V102.505Z" fill="#6E71FF"/>
<path d="M49 102.505H89.1582V115.519H49V102.505Z" fill="url(#paint7_linear)"/>
<defs>
<linearGradient id="paint0_linear" x1="120.367" y1="45.1328" x2="120.367" y2="301.602" gradientUnits="userSpaceOnUse">
<stop stop-color="white"/>
<stop offset="1" stop-color="white" stop-opacity="0"/>
</linearGradient>
<linearGradient id="paint1_linear" x1="89.7812" y1="48.7579" x2="91.3672" y2="297.75" gradientUnits="userSpaceOnUse">
<stop stop-color="white"/>
<stop offset="1" stop-color="white" stop-opacity="0"/>
</linearGradient>
<linearGradient id="paint2_linear" x1="129" y1="69" x2="129" y2="183.5" gradientUnits="userSpaceOnUse">
<stop stop-color="#060606"/>
<stop offset="1" stop-opacity="0"/>
</linearGradient>
<linearGradient id="paint3_linear" x1="82.5" y1="43.5" x2="84" y2="184.5" gradientUnits="userSpaceOnUse">
<stop stop-color="#040404"/>
<stop offset="1" stop-opacity="0"/>
</linearGradient>
<linearGradient id="paint4_linear" x1="144.836" y1="74.246" x2="146.082" y2="119.559" gradientUnits="userSpaceOnUse">
<stop stop-color="white"/>
<stop offset="1" stop-color="white" stop-opacity="0"/>
</linearGradient>
<linearGradient id="paint5_linear" x1="144.921" y1="102.505" x2="144.836" y2="187.98" gradientUnits="userSpaceOnUse">
<stop stop-color="white"/>
<stop offset="1" stop-color="white" stop-opacity="0"/>
</linearGradient>
<linearGradient id="paint6_linear" x1="67.8047" y1="75.039" x2="67.3516" y2="119.105" gradientUnits="userSpaceOnUse">
<stop stop-color="white"/>
<stop offset="1" stop-color="white" stop-opacity="0"/>
</linearGradient>
<linearGradient id="paint7_linear" x1="69.1641" y1="102.453" x2="69.1641" y2="209.051" gradientUnits="userSpaceOnUse">
<stop stop-color="white"/>
<stop offset="1" stop-color="white" stop-opacity="0"/>
</linearGradient>
</defs>
</svg>
