<svg width="208" height="208" viewBox="0 0 208 208" fill="none" xmlns="http://www.w3.org/2000/svg">
<path opacity="0.18" d="M6.14958 97.3812C10.2149 87.8628 16.3406 78.1042 22.037 73.3799C27.7333 68.6556 97.9333 -0.000196308 130.369 0C162.804 0.000196314 157.221 8.93405 169.134 18.5806C183.668 30.3419 196.101 50.4906 198.286 74.8236C199.803 91.5232 196.465 108.815 199.106 125.201C201.125 137.747 206.526 148.829 207.755 161.597C209.17 176.25 204.354 191.818 195.941 199.799C187.528 207.779 176.901 208.005 166.921 207.579C140.746 206.448 156.54 198.844 88.4536 207.202C20.3667 215.561 2.56506 155.483 2.56506 155.483C-1.45703 136.314 -1.09832 114.345 6.14958 97.3812Z" fill="#6E71FF"/>
<path d="M155.259 119.139H48V111.46H155.396C157.547 111.487 159.629 110.732 161.227 109.343C162.824 107.955 163.819 106.037 164.013 103.973C164.09 102.873 163.932 101.771 163.549 100.733C163.165 99.6946 162.565 98.7435 161.785 97.9383C161.005 97.133 160.061 96.4907 159.013 96.0512C157.965 95.6117 156.834 95.3843 155.691 95.3831H155.504C153.753 95.3851 152.046 95.9172 150.626 96.9043C149.206 97.8915 148.143 99.2837 147.588 100.884C147.357 101.61 146.893 102.246 146.263 102.702C145.633 103.158 144.87 103.41 144.082 103.422H143.543C142.948 103.421 142.361 103.285 141.832 103.024C141.302 102.763 140.844 102.385 140.494 101.921C140.145 101.457 139.914 100.92 139.82 100.354C139.727 99.7873 139.774 99.2078 139.957 98.6622C141.009 95.4836 143.082 92.7092 145.876 90.7393C148.671 88.7694 152.042 87.7058 155.504 87.7018H155.691C159.968 87.7067 164.071 89.3283 167.121 92.2182C170.17 95.1081 171.921 99.0356 171.998 103.157C172.153 111.945 164.384 119.139 155.259 119.139Z" fill="#6E71FF"/>
<path d="M48 128.001V135.681H61.1972C62.2538 135.681 63.2672 135.276 64.0143 134.556C64.7615 133.836 65.1812 132.859 65.1812 131.841C65.1812 130.823 64.7615 129.846 64.0143 129.126C63.2672 128.406 62.2538 128.001 61.1972 128.001H48Z" fill="#6E71FF"/>
<path d="M48 128.001V135.681H61.1972C62.2538 135.681 63.2672 135.276 64.0143 134.556C64.7615 133.836 65.1812 132.859 65.1812 131.841C65.1812 130.823 64.7615 129.846 64.0143 129.126C63.2672 128.406 62.2538 128.001 61.1972 128.001H48Z" fill="url(#paint0_linear)"/>
<path d="M116.6 128.001H80.8678C79.8112 128.001 78.7978 128.406 78.0507 129.126C77.3035 129.846 76.8838 130.823 76.8838 131.841C76.8838 132.859 77.3035 133.836 78.0507 134.556C78.7978 135.276 79.8112 135.681 80.8678 135.681H116.6C117.504 135.682 118.397 135.869 119.221 136.229C120.044 136.589 120.778 137.115 121.374 137.77C121.97 138.425 122.414 139.196 122.676 140.03C122.938 140.863 123.013 141.742 122.896 142.606C122.658 144.101 121.867 145.463 120.668 146.44C119.47 147.417 117.945 147.942 116.376 147.92H116.1C114.851 147.918 113.63 147.562 112.59 146.897C111.55 146.231 110.736 145.285 110.25 144.176C109.971 143.487 109.486 142.894 108.857 142.47C108.228 142.047 107.483 141.812 106.715 141.796H106.25C105.638 141.797 105.035 141.94 104.493 142.215C103.951 142.49 103.487 142.888 103.141 143.375C102.794 143.862 102.576 144.422 102.504 145.008C102.433 145.594 102.51 146.188 102.73 146.739C103.77 149.344 105.604 151.585 107.99 153.166C110.377 154.748 113.204 155.596 116.1 155.599H116.18C119.906 155.639 123.506 154.303 126.243 151.867C128.979 149.431 130.646 146.078 130.9 142.495C130.995 140.628 130.696 138.761 130.021 137.007C129.345 135.254 128.308 133.652 126.971 132.297C125.634 130.941 124.025 129.862 122.242 129.124C120.46 128.385 118.54 128.003 116.6 128.001Z" fill="#6E71FF"/>
<path d="M116.6 128.001H80.8678C79.8112 128.001 78.7978 128.406 78.0507 129.126C77.3035 129.846 76.8838 130.823 76.8838 131.841C76.8838 132.859 77.3035 133.836 78.0507 134.556C78.7978 135.276 79.8112 135.681 80.8678 135.681H116.6C117.504 135.682 118.397 135.869 119.221 136.229C120.044 136.589 120.778 137.115 121.374 137.77C121.97 138.425 122.414 139.196 122.676 140.03C122.938 140.863 123.013 141.742 122.896 142.606C122.658 144.101 121.867 145.463 120.668 146.44C119.47 147.417 117.945 147.942 116.376 147.92H116.1C114.851 147.918 113.63 147.562 112.59 146.897C111.55 146.231 110.736 145.285 110.25 144.176C109.971 143.487 109.486 142.894 108.857 142.47C108.228 142.047 107.483 141.812 106.715 141.796H106.25C105.638 141.797 105.035 141.94 104.493 142.215C103.951 142.49 103.487 142.888 103.141 143.375C102.794 143.862 102.576 144.422 102.504 145.008C102.433 145.594 102.51 146.188 102.73 146.739C103.77 149.344 105.604 151.585 107.99 153.166C110.377 154.748 113.204 155.596 116.1 155.599H116.18C119.906 155.639 123.506 154.303 126.243 151.867C128.979 149.431 130.646 146.078 130.9 142.495C130.995 140.628 130.696 138.761 130.021 137.007C129.345 135.254 128.308 133.652 126.971 132.297C125.634 130.941 124.025 129.862 122.242 129.124C120.46 128.385 118.54 128.003 116.6 128.001Z" fill="url(#paint1_linear)" fill-opacity="0.9"/>
<path d="M48 94.9183V102.598H79.6234C80.6801 102.598 81.6934 102.193 82.4406 101.473C83.1877 100.753 83.6075 99.7764 83.6075 98.758C83.6075 97.7397 83.1877 96.763 82.4406 96.043C81.6934 95.3229 80.6801 94.9183 79.6234 94.9183H48Z" fill="#6E71FF"/>
<path d="M48 94.9183V102.598H79.6234C80.6801 102.598 81.6934 102.193 82.4406 101.473C83.1877 100.753 83.6075 99.7764 83.6075 98.758C83.6075 97.7397 83.1877 96.763 82.4406 96.043C81.6934 95.3229 80.6801 94.9183 79.6234 94.9183H48Z" fill="url(#paint2_linear)" fill-opacity="0.9"/>
<path d="M116.601 75H116.103C113.207 75.003 110.379 75.8511 107.992 77.4328C105.605 79.0144 103.772 81.2555 102.732 83.8611C102.513 84.4115 102.436 85.0052 102.507 85.5907C102.579 86.1763 102.798 86.7362 103.144 87.2222C103.491 87.7082 103.955 88.1056 104.496 88.3803C105.037 88.655 105.64 88.7987 106.252 88.7989H106.717C107.484 88.7831 108.229 88.5487 108.858 88.1252C109.487 87.7017 109.972 87.1081 110.252 86.4193C110.738 85.3107 111.552 84.3645 112.592 83.6988C113.632 83.0331 114.853 82.6772 116.101 82.6756H116.599C117.503 82.6766 118.397 82.8635 119.22 83.2238C120.043 83.5841 120.777 84.1094 121.373 84.7648C121.969 85.4202 122.413 86.1905 122.676 87.0244C122.938 87.8583 123.013 88.7365 122.895 89.6005C122.658 91.0961 121.868 92.4585 120.67 93.4361C119.472 94.4136 117.947 94.9402 116.377 94.9185H99.2956C98.2389 94.9185 97.2256 95.323 96.4784 96.0431C95.7313 96.7632 95.3115 97.7398 95.3115 98.7582C95.3115 99.7765 95.7313 100.753 96.4784 101.473C97.2256 102.193 98.2389 102.598 99.2956 102.598H116.186C119.911 102.636 123.509 101.301 126.245 98.8646C128.981 96.4285 130.647 93.0763 130.901 89.4949C130.997 87.6271 130.698 85.76 130.022 84.0068C129.347 82.2536 128.31 80.6508 126.973 79.2955C125.636 77.9402 124.027 76.8607 122.244 76.1223C120.461 75.384 118.542 75.0021 116.601 75Z" fill="#6E71FF"/>
<path d="M116.601 75H116.103C113.207 75.003 110.379 75.8511 107.992 77.4328C105.605 79.0144 103.772 81.2555 102.732 83.8611C102.513 84.4115 102.436 85.0052 102.507 85.5907C102.579 86.1763 102.798 86.7362 103.144 87.2222C103.491 87.7082 103.955 88.1056 104.496 88.3803C105.037 88.655 105.64 88.7987 106.252 88.7989H106.717C107.484 88.7831 108.229 88.5487 108.858 88.1252C109.487 87.7017 109.972 87.1081 110.252 86.4193C110.738 85.3107 111.552 84.3645 112.592 83.6988C113.632 83.0331 114.853 82.6772 116.101 82.6756H116.599C117.503 82.6766 118.397 82.8635 119.22 83.2238C120.043 83.5841 120.777 84.1094 121.373 84.7648C121.969 85.4202 122.413 86.1905 122.676 87.0244C122.938 87.8583 123.013 88.7365 122.895 89.6005C122.658 91.0961 121.868 92.4585 120.67 93.4361C119.472 94.4136 117.947 94.9402 116.377 94.9185H99.2956C98.2389 94.9185 97.2256 95.323 96.4784 96.0431C95.7313 96.7632 95.3115 97.7398 95.3115 98.7582C95.3115 99.7765 95.7313 100.753 96.4784 101.473C97.2256 102.193 98.2389 102.598 99.2956 102.598H116.186C119.911 102.636 123.509 101.301 126.245 98.8646C128.981 96.4285 130.647 93.0763 130.901 89.4949C130.997 87.6271 130.698 85.76 130.022 84.0068C129.347 82.2536 128.31 80.6508 126.973 79.2955C125.636 77.9402 124.027 76.8607 122.244 76.1223C120.461 75.384 118.542 75.0021 116.601 75Z" fill="url(#paint3_linear)" fill-opacity="0.7"/>
<defs>
<linearGradient id="paint0_linear" x1="83" y1="132" x2="34.1441" y2="133.055" gradientUnits="userSpaceOnUse">
<stop stop-color="white"/>
<stop offset="1" stop-color="white" stop-opacity="0"/>
</linearGradient>
<linearGradient id="paint1_linear" x1="161" y1="139" x2="69.482" y2="155.539" gradientUnits="userSpaceOnUse">
<stop stop-color="white"/>
<stop offset="1" stop-color="white" stop-opacity="0"/>
</linearGradient>
<linearGradient id="paint2_linear" x1="104.5" y1="99" x2="8.6475" y2="97.4831" gradientUnits="userSpaceOnUse">
<stop stop-color="white"/>
<stop offset="1" stop-color="white" stop-opacity="0"/>
</linearGradient>
<linearGradient id="paint3_linear" x1="152.712" y1="71.6805" x2="98.4709" y2="107.907" gradientUnits="userSpaceOnUse">
<stop stop-color="white"/>
<stop offset="1" stop-color="white" stop-opacity="0"/>
</linearGradient>
</defs>
</svg>
